<svg width="35" height="35" viewBox="0 0 35 35" fill="none" xmlns="http://www.w3.org/2000/svg">
<g filter="url(#filter0_d_1083_126742)">
<rect x="4.35693" y="27" width="26.7293" height="26.4033" transform="rotate(-90 4.35693 27)" fill="#82D1D0"/>
</g>
<path d="M9.75181 7.67751L9.40271 8.13177C9.30961 8.29346 9.20877 8.43973 9.12344 8.60142C8.95334 8.93236 8.81317 9.27761 8.70454 9.63314C8.4853 10.3614 8.40376 11.1237 8.46405 11.8814C8.52713 12.6486 8.73224 13.3977 9.06913 14.0911C9.39926 14.7996 9.87179 15.4337 10.4577 15.9543C9.82677 15.4696 9.29933 14.865 8.9062 14.1758C8.39031 13.295 8.08748 12.3073 8.02152 11.2906C7.95556 10.2738 8.12827 9.25577 8.52608 8.31655C8.60366 8.12406 8.71225 7.93158 8.80534 7.73909L9.1312 7.23093C9.18685 7.14528 9.27443 7.08503 9.37477 7.06338C9.47511 7.04173 9.58003 7.06046 9.66649 7.11545C9.71066 7.14144 9.74904 7.17603 9.77937 7.21716C9.8097 7.25829 9.83131 7.30511 9.84291 7.35476C9.85451 7.40441 9.85588 7.45588 9.84689 7.50605C9.8379 7.55623 9.81873 7.60407 9.79059 7.6467L9.75181 7.67751Z" fill="white" stroke="white" stroke-width="2"/>
<path d="M14.6859 4.12028L14.1661 4.28198C12.919 4.78199 11.861 5.65704 11.1406 6.78428C10.443 7.96482 10.1364 9.33286 10.264 10.6956L10.3803 11.2114L10.2174 10.711C9.97342 9.31556 10.1798 7.8793 10.807 6.60719C11.4853 5.32462 12.5515 4.28528 13.8558 3.63524L14.3601 3.42734C14.4557 3.38854 14.563 3.38906 14.6583 3.42877C14.7536 3.46848 14.8291 3.54411 14.8682 3.63907C14.9073 3.73402 14.9068 3.8405 14.8668 3.93508C14.8267 4.02965 14.7505 4.1046 14.6549 4.1434C14.6549 4.1434 14.7014 4.12028 14.6859 4.12028Z" fill="white" stroke="white" stroke-width="2"/>
<path d="M20.8306 4.12782C20.1237 3.86657 19.3739 3.73862 18.6196 3.75056C17.8617 3.75909 17.1131 3.91608 16.4165 4.21253C14.9753 4.82602 13.8144 5.94799 13.1582 7.36157C13.7191 5.85428 14.8253 4.60819 16.2613 3.86605C16.9835 3.48513 17.7744 3.24964 18.5886 3.17311C19.4096 3.09689 20.2377 3.16995 21.0323 3.38869C21.0832 3.40133 21.1311 3.42381 21.1733 3.45483C21.2155 3.48585 21.2511 3.52481 21.2782 3.5695C21.3052 3.61418 21.323 3.6637 21.3308 3.71525C21.3385 3.76679 21.3359 3.81935 21.3232 3.8699C21.3105 3.92045 21.2878 3.96802 21.2566 4.00989C21.2253 4.05176 21.1861 4.0871 21.141 4.11391C21.096 4.14072 21.0461 4.15848 20.9942 4.16615C20.9422 4.17382 20.8893 4.17127 20.8383 4.15863L20.8306 4.12782Z" fill="white" stroke="white" stroke-width="2"/>
<path d="M25.7949 7.69265C25.5885 7.38065 25.3521 7.08927 25.089 6.82261C24.8291 6.55573 24.5403 6.31818 24.2279 6.11428C23.6032 5.68452 22.9035 5.37382 22.1643 5.19806C21.4021 5.01881 20.6128 4.98225 19.837 5.09025C19.0574 5.19519 18.3076 5.4572 17.6338 5.86019C18.2839 5.40519 19.0202 5.08565 19.7982 4.92086C20.5888 4.75278 21.4033 4.72669 22.2031 4.84387C23.4294 5.04358 24.576 5.57659 25.5157 6.38374C25.8256 6.65365 26.1111 6.94994 26.369 7.26919C26.4011 7.30863 26.4251 7.35394 26.4395 7.40256C26.4539 7.45118 26.4586 7.50213 26.4532 7.55254C26.4478 7.60294 26.4324 7.6518 26.408 7.69631C26.3836 7.74083 26.3505 7.78014 26.3108 7.81199C26.2711 7.84384 26.2254 7.8676 26.1764 7.88194C26.1274 7.89627 26.0761 7.9009 26.0253 7.89554C25.9746 7.89018 25.9253 7.87493 25.8804 7.85069C25.8356 7.82644 25.796 7.79367 25.7639 7.75423L25.7949 7.69265Z" fill="white" stroke="white" stroke-width="2"/>
<path d="M27.7117 13.5367C27.7117 13.1363 27.7117 12.7667 27.6418 12.3971C27.5906 12.0307 27.5049 11.6698 27.3858 11.3192C26.9935 10.2301 26.3001 9.27263 25.385 8.5564C24.4699 7.84017 23.37 7.39414 22.2114 7.26937C23.8303 7.3134 25.3696 7.97526 26.5092 9.11722C27.093 9.69043 27.564 10.3667 27.8979 11.1114C28.0699 11.4862 28.1999 11.8787 28.2857 12.2817C28.3711 12.6897 28.4176 13.0978 28.4642 13.4751C28.4775 13.5772 28.4495 13.6804 28.3862 13.7619C28.3229 13.8435 28.2296 13.8968 28.1267 13.9101C28.0238 13.9234 27.9198 13.8955 27.8376 13.8327C27.7554 13.7699 27.7018 13.6773 27.6884 13.5752L27.7117 13.5367Z" fill="white" stroke="white" stroke-width="2"/>
<path d="M25.7792 19.288L26.1283 18.8338C26.2214 18.6798 26.3223 18.5335 26.3998 18.3718C26.5724 18.041 26.7152 17.6958 26.8265 17.3401C27.0372 16.6154 27.1212 15.8601 27.0747 15.1073C27.0137 14.3446 26.8084 13.6002 26.4696 12.9129C26.1105 12.2222 25.6387 11.5952 25.0732 11.0574C25.685 11.556 26.2093 12.1518 26.6248 12.8205C27.0258 13.5111 27.2892 14.2718 27.4006 15.0611C27.5249 15.8645 27.5013 16.6836 27.3307 17.4787C27.2471 17.8819 27.125 18.2764 26.9661 18.6567C26.8886 18.8492 26.78 19.034 26.6869 19.2264L26.361 19.7346C26.3029 19.8146 26.2162 19.8694 26.1186 19.8878C26.021 19.9062 25.9201 19.8867 25.8366 19.8334C25.753 19.7801 25.6932 19.697 25.6696 19.6013C25.6459 19.5055 25.6602 19.4044 25.7094 19.3188L25.7792 19.288Z" fill="white" stroke="white" stroke-width="2"/>
<path d="M20.7991 22.8913L21.3188 22.7296C22.662 22.2051 23.7843 21.2407 24.4995 19.9964C24.8627 19.3667 25.1023 18.6743 25.2055 17.956C25.3011 17.2259 25.2802 16.4854 25.1434 15.7617C25.339 16.4841 25.4227 17.2318 25.3916 17.9791C25.342 18.7367 25.1499 19.4783 24.8253 20.1658C24.1577 21.5712 23.0277 22.709 21.6214 23.3918L21.1172 23.5997C21.0698 23.6189 21.019 23.6287 20.9679 23.6284C20.9167 23.6282 20.8661 23.6179 20.8189 23.5982C20.7717 23.5786 20.7289 23.5499 20.6929 23.5138C20.6569 23.4777 20.6284 23.435 20.609 23.3879C20.5897 23.3409 20.5798 23.2906 20.5801 23.2398C20.5803 23.189 20.5906 23.1388 20.6104 23.0919C20.6302 23.0451 20.6592 23.0026 20.6955 22.9669C20.7319 22.9311 20.775 22.9029 20.8224 22.8836L20.7991 22.8913Z" fill="white" stroke="white" stroke-width="2"/>
<path d="M14.6474 22.8761C15.729 23.2665 16.8993 23.3478 18.0252 23.111C19.1511 22.8742 20.1875 22.3287 21.0165 21.5364C21.5712 20.9866 22.03 20.3492 22.3741 19.6501C22.084 20.385 21.6723 21.0668 21.1562 21.6673C20.6194 22.2676 19.9749 22.7637 19.2555 23.1302C18.5269 23.494 17.7388 23.726 16.9282 23.8154C16.1064 23.8941 15.2772 23.8316 14.4768 23.6307C14.4266 23.619 14.3793 23.5974 14.3376 23.5674C14.2959 23.5373 14.2607 23.4993 14.234 23.4556C14.2073 23.4119 14.1896 23.3633 14.182 23.3127C14.1744 23.2621 14.177 23.2106 14.1897 23.161C14.2154 23.0615 14.2793 22.976 14.3678 22.9228C14.4562 22.8695 14.5622 22.8528 14.663 22.8761L14.6474 22.8761Z" fill="white" stroke="white" stroke-width="2"/>
<path d="M9.7442 19.2725C10.1265 19.8713 10.6185 20.3937 11.1949 20.8124C11.7699 21.2299 12.4166 21.5403 13.1033 21.7286C14.5249 22.1276 16.0434 22.0102 17.3856 21.3975L17.8588 21.1358L17.4088 21.4283C16.0705 22.1579 14.5173 22.4003 13.018 22.1136C11.4808 21.814 10.1038 20.9749 9.13912 19.7499C9.08371 19.6688 9.06154 19.5697 9.07714 19.473C9.09275 19.3762 9.14492 19.289 9.22307 19.2291C9.30122 19.1692 9.39948 19.1412 9.49775 19.1507C9.59602 19.1602 9.68692 19.2065 9.75196 19.2802L9.7442 19.2725Z" fill="white" stroke="white" stroke-width="2"/>
<path d="M7.82013 13.4672C7.82013 13.8522 7.82015 14.2371 7.88221 14.5451C7.92663 14.8924 8.0019 15.235 8.10717 15.5691C8.32987 16.2405 8.66847 16.8684 9.1079 17.4247C10.0217 18.5697 11.3077 19.3643 12.7463 19.6729L13.3049 19.7422L12.7463 19.7422C11.6103 19.5872 10.5345 19.1415 9.62457 18.449C8.71465 17.7565 8.0019 16.841 7.55635 15.7924C7.41007 15.4308 7.29586 15.0573 7.21501 14.676C7.14519 14.291 7.10643 13.9061 7.05213 13.5673C7.03879 13.4654 7.06623 13.3623 7.12859 13.2803C7.19096 13.1982 7.28329 13.1437 7.3857 13.1284C7.4884 13.1152 7.59224 13.1424 7.67491 13.2043C7.75759 13.2662 7.81252 13.3578 7.8279 13.4595L7.82013 13.4672Z" fill="white" stroke="white" stroke-width="2"/>
<defs>
<filter id="filter0_d_1083_126742" x="0.356934" y="0.270752" width="34.4033" height="34.7292" filterUnits="userSpaceOnUse" color-interpolation-filters="sRGB">
<feFlood flood-opacity="0" result="BackgroundImageFix"/>
<feColorMatrix in="SourceAlpha" type="matrix" values="0 0 0 0 0 0 0 0 0 0 0 0 0 0 0 0 0 0 127 0" result="hardAlpha"/>
<feOffset dy="4"/>
<feGaussianBlur stdDeviation="2"/>
<feComposite in2="hardAlpha" operator="out"/>
<feColorMatrix type="matrix" values="0 0 0 0 0 0 0 0 0 0 0 0 0 0 0 0 0 0 0.25 0"/>
<feBlend mode="normal" in2="BackgroundImageFix" result="effect1_dropShadow_1083_126742"/>
<feBlend mode="normal" in="SourceGraphic" in2="effect1_dropShadow_1083_126742" result="shape"/>
</filter>
</defs>
</svg>
