<svg t="1689905126186" class="icon" viewBox="0 0 1024 1024" version="1.1" xmlns="http://www.w3.org/2000/svg" p-id="1452" width="200" height="200"><path d="M570.514286 512l292.571428-292.571429c14.628571-14.628571 14.628571-43.885714 0-58.514285-14.628571-14.628571-43.885714-14.628571-58.514285 0l-292.571429 292.571428-292.571429-292.571428c-14.628571-14.628571-43.885714-14.628571-58.514285 0-21.942857 14.628571-21.942857 43.885714 0 58.514285l292.571428 292.571429-292.571428 292.571429c-14.628571 14.628571-14.628571 43.885714 0 58.514285 14.628571 14.628571 43.885714 14.628571 58.514285 0l292.571429-292.571428 292.571429 292.571428c14.628571 14.628571 43.885714 14.628571 58.514285 0 14.628571-14.628571 14.628571-43.885714 0-58.514285l-292.571428-292.571429z" fill="#ffffff" p-id="1453"></path></svg>