<svg width="44" height="44" viewBox="0 0 44 44" fill="none" xmlns="http://www.w3.org/2000/svg">
<rect x="1" y="1" width="42" height="42" rx="9" stroke="white" stroke-width="2"/>
<rect x="14.6665" y="30.5067" width="15.2533" height="3.52" rx="1.76" fill="#D9D9D9"/>
<rect x="16.4268" y="34.6133" width="11.7333" height="3.52" rx="1.76" fill="#D9D9D9"/>
<ellipse cx="22.0001" cy="18.48" rx="11.44" ry="11.44" fill="#D9D9D9"/>
<path d="M20.5334 30.8C20.5334 28.4533 20.5334 23.232 20.5334 21.12C20.5334 19.6533 19.6534 18.7733 18.4801 18.7733C17.0134 18.7733 16.4268 19.9467 16.4268 20.5333C16.4268 22 17.6001 22.5867 18.4801 22.5867C20.3574 22.5867 21.7068 22.5867 22.2934 22.5867" stroke="white" stroke-width="2"/>
<path d="M24.0535 30.8C24.0535 28.4533 24.0535 23.232 24.0535 21.12C24.0535 19.6533 24.9335 18.7733 26.1068 18.7733C27.5735 18.7733 28.1602 19.9467 28.1602 20.5333C28.1602 22 26.9868 22.5867 26.1068 22.5867C24.2295 22.5867 22.8802 22.5867 22.2935 22.5867" stroke="white" stroke-width="2"/>
</svg>
