<svg width="83" height="60" viewBox="0 0 83 60" fill="none" xmlns="http://www.w3.org/2000/svg">
<path d="M35.1792 10.5125V28.7934C35.1793 29.1428 35.2727 29.4858 35.4497 29.7869C35.6267 30.0879 35.8808 30.3361 36.1857 30.5055C36.4906 30.675 36.8351 30.7596 37.1836 30.7506C37.5321 30.7416 37.8718 30.6393 38.1676 30.4543L52.7579 21.3139C53.0389 21.1378 53.2707 20.893 53.4314 20.6025C53.592 20.3119 53.6763 19.9852 53.6763 19.653C53.6763 19.3208 53.592 18.994 53.4314 18.7035C53.2707 18.4129 53.0389 18.1681 52.7579 17.992L38.1676 8.85159C37.8718 8.66663 37.5321 8.56434 37.1836 8.55534C36.8351 8.54634 36.4906 8.63095 36.1857 8.8004C35.8808 8.96985 35.6267 9.21796 35.4497 9.51902C35.2727 9.82008 35.1793 10.1631 35.1792 10.5125ZM39.0873 14.0433L48.0369 19.653L39.0873 25.2599V14.0433Z" fill="white"/>
<path d="M42 0C30.9538 0 22 8.95385 22 20C22 31.0462 30.9538 40 42 40C53.0462 40 62 31.0462 62 20C62 8.95385 53.0462 0 42 0ZM42 3.07692C46.4883 3.07692 50.7927 4.85989 53.9664 8.03358C57.1401 11.2073 58.9231 15.5117 58.9231 20C58.9231 24.4883 57.1401 28.7927 53.9664 31.9664C50.7927 35.1401 46.4883 36.9231 42 36.9231C37.5117 36.9231 33.2073 35.1401 30.0336 31.9664C26.8599 28.7927 25.0769 24.4883 25.0769 20C25.0769 15.5117 26.8599 11.2073 30.0336 8.03358C33.2073 4.85989 37.5117 3.07692 42 3.07692Z" fill="white"/>
<path d="M0.896 56V44.496H10.096C10.5227 44.496 10.9067 44.6027 11.248 44.816C11.6 45.0187 11.8827 45.296 12.096 45.648C12.3093 46 12.416 46.384 12.416 46.8V49.84C12.416 50.256 12.3093 50.64 12.096 50.992C11.8827 51.3333 11.6 51.6107 11.248 51.824C10.9067 52.0267 10.5227 52.128 10.096 52.128L3.2 52.144V56H0.896ZM3.296 49.808H9.984C10.016 49.808 10.0373 49.8027 10.048 49.792C10.0693 49.7707 10.08 49.7493 10.08 49.728V46.896C10.08 46.864 10.0693 46.8427 10.048 46.832C10.0373 46.8107 10.016 46.8 9.984 46.8H3.296C3.264 46.8 3.23733 46.8107 3.216 46.832C3.20533 46.8427 3.2 46.864 3.2 46.896V49.728C3.2 49.7493 3.20533 49.7707 3.216 49.792C3.23733 49.8027 3.264 49.808 3.296 49.808ZM15.7443 56C15.3389 56 14.9656 55.8987 14.6243 55.696C14.2829 55.4827 14.0056 55.2053 13.7923 54.864C13.5896 54.5227 13.4883 54.1493 13.4883 53.744V43.664H15.7763V53.632C15.7763 53.6533 15.7869 53.6747 15.8083 53.696C15.8296 53.7173 15.8509 53.728 15.8723 53.728H17.6963V56H15.7443ZM21.1818 56C20.7764 56 20.3978 55.8987 20.0458 55.696C19.7044 55.4827 19.4324 55.2053 19.2298 54.864C19.0271 54.5227 18.9258 54.1493 18.9258 53.744V50.208H26.0618V49.088C26.0618 49.0667 26.0511 49.0453 26.0298 49.024C26.0084 49.0027 25.9871 48.992 25.9658 48.992H18.9258V46.72H26.0778C26.4938 46.72 26.8724 46.8267 27.2138 47.04C27.5551 47.2427 27.8271 47.5147 28.0298 47.856C28.2324 48.1973 28.3338 48.5707 28.3338 48.976V56H21.1818ZM21.2938 53.728H26.0618V52.24H21.1978V53.632C21.1978 53.6533 21.2084 53.6747 21.2298 53.696C21.2511 53.7173 21.2724 53.728 21.2938 53.728ZM31.3791 59.376V57.088H36.9311C36.9525 57.088 36.9738 57.0773 36.9951 57.056C37.0165 57.0347 37.0271 57.0133 37.0271 56.992V56H32.1471C31.7311 56 31.3525 55.8987 31.0111 55.696C30.6698 55.4827 30.3925 55.2053 30.1791 54.864C29.9765 54.5227 29.8751 54.1493 29.8751 53.744V46.752H32.1471V53.632C32.1471 53.6533 32.1578 53.6747 32.1791 53.696C32.2005 53.7173 32.2218 53.728 32.2431 53.728H36.9311C36.9525 53.728 36.9738 53.7173 36.9951 53.696C37.0165 53.6747 37.0271 53.6533 37.0271 53.632V46.752H39.2991V57.12C39.2991 57.536 39.1978 57.9147 38.9951 58.256C38.8031 58.5973 38.5311 58.8693 38.1791 59.072C37.8378 59.2747 37.4591 59.376 37.0431 59.376H31.3791ZM41.0203 56V43.68H43.2923V46.72H48.1723C48.5883 46.72 48.9669 46.8267 49.3083 47.04C49.6496 47.2427 49.9216 47.5147 50.1243 47.856C50.3269 48.1973 50.4283 48.5707 50.4283 48.976V53.744C50.4283 54.1493 50.3269 54.5227 50.1243 54.864C49.9216 55.2053 49.6496 55.4827 49.3083 55.696C48.9669 55.8987 48.5883 56 48.1723 56H41.0203ZM43.3883 53.728H48.0603C48.0923 53.728 48.1136 53.7173 48.1243 53.696C48.1456 53.6747 48.1562 53.6533 48.1562 53.632V49.088C48.1562 49.0667 48.1456 49.0453 48.1243 49.024C48.1136 49.0027 48.0923 48.992 48.0603 48.992H43.3883C43.3669 48.992 43.3456 49.0027 43.3243 49.024C43.3029 49.0453 43.2923 49.0667 43.2923 49.088V53.632C43.2923 53.6533 43.3029 53.6747 43.3243 53.696C43.3456 53.7173 43.3669 53.728 43.3883 53.728ZM53.7755 56C53.3702 56 52.9915 55.8987 52.6395 55.696C52.2982 55.4827 52.0262 55.2053 51.8235 54.864C51.6208 54.5227 51.5195 54.1493 51.5195 53.744V50.208H58.6555V49.088C58.6555 49.0667 58.6448 49.0453 58.6235 49.024C58.6022 49.0027 58.5808 48.992 58.5595 48.992H51.5195V46.72H58.6715C59.0875 46.72 59.4662 46.8267 59.8075 47.04C60.1488 47.2427 60.4208 47.5147 60.6235 47.856C60.8262 48.1973 60.9275 48.5707 60.9275 48.976V56H53.7755ZM53.8875 53.728H58.6555V52.24H53.7915V53.632C53.7915 53.6533 53.8022 53.6747 53.8235 53.696C53.8448 53.7173 53.8662 53.728 53.8875 53.728ZM64.3689 56C63.9635 56 63.5902 55.8987 63.2489 55.696C62.9075 55.4827 62.6302 55.2053 62.4169 54.864C62.2142 54.5227 62.1129 54.1493 62.1129 53.744V48.976C62.1129 48.5707 62.2142 48.1973 62.4169 47.856C62.6302 47.5147 62.9075 47.2427 63.2489 47.04C63.5902 46.8267 63.9635 46.72 64.3689 46.72H71.5049V48.992H64.4809C64.4595 48.992 64.4382 49.0027 64.4169 49.024C64.3955 49.0453 64.3849 49.0667 64.3849 49.088V53.632C64.3849 53.6533 64.3955 53.6747 64.4169 53.696C64.4382 53.7173 64.4595 53.728 64.4809 53.728H71.5209V56H64.3689ZM72.8328 56V43.68H75.1048V50.208H76.5608L79.7768 46.72H82.1288V47.424L78.5608 51.36L82.1288 55.296V56H79.7768L76.5608 52.512H75.1048V56H72.8328Z" fill="white"/>
</svg>
