<svg width="39" height="53" viewBox="0 0 39 53" fill="none" xmlns="http://www.w3.org/2000/svg">
<rect x="7" y="40" width="26" height="6" rx="3" fill="#D9D9D9"/>
<rect x="10" y="47" width="20" height="6" rx="3" fill="#D9D9D9"/>
<circle cx="19.5" cy="19.5" r="19.5" fill="#D9D9D9"/>
<path d="M17 40.5C17 36.5 17 27.6 17 24C17 21.5 15.5 20 13.5 20C11 20 10 22 10 23C10 25.5 12 26.5 13.5 26.5C16.7 26.5 19 26.5 20 26.5" stroke="white" stroke-width="2"/>
<path d="M23 40.5C23 36.5 23 27.6 23 24C23 21.5 24.5 20 26.5 20C29 20 30 22 30 23C30 25.5 28 26.5 26.5 26.5C23.3 26.5 21 26.5 20 26.5" stroke="white" stroke-width="2"/>
</svg>
