<svg width="228" height="64" viewBox="0 0 228 64" fill="none" xmlns="http://www.w3.org/2000/svg">
<rect x="22.0991" y="18.8359" width="205.401" height="39.6641" fill="#2A484D" stroke="#FFF9B5" stroke-dasharray="200 200"/>
<path d="M75.1251 47.1338V26.9738H90.8051C91.4585 26.9738 92.0651 27.1418 92.6251 27.4778C93.1851 27.7951 93.6238 28.2338 93.9411 28.7938C94.2771 29.3351 94.4451 29.9418 94.4451 30.6138V34.7298C94.4451 34.9725 94.4171 35.2151 94.3611 35.4578C94.3238 35.7005 94.2491 35.9245 94.1371 36.1298C94.5105 36.6525 94.7905 37.1471 94.9771 37.6138C95.1825 38.0618 95.2851 38.5191 95.2851 38.9858V43.4938C95.2851 44.1658 95.1171 44.7818 94.7811 45.3418C94.4638 45.8831 94.0251 46.3218 93.4651 46.6578C92.9051 46.9751 92.2891 47.1338 91.6171 47.1338H75.1251ZM78.8491 44.1098H91.5611C91.7478 44.1098 91.9065 44.0445 92.0371 43.9138C92.1678 43.7645 92.2331 43.5965 92.2331 43.4098V39.0698C92.2331 38.8831 92.1678 38.7245 92.0371 38.5938C91.9065 38.4445 91.7478 38.3698 91.5611 38.3698H78.8491C78.6625 38.3698 78.4945 38.4445 78.3451 38.5938C78.2145 38.7245 78.1491 38.8831 78.1491 39.0698V43.4098C78.1491 43.5965 78.2145 43.7645 78.3451 43.9138C78.4945 44.0445 78.6625 44.1098 78.8491 44.1098ZM78.8491 35.3458H90.7211C90.9078 35.3458 91.0665 35.2805 91.1971 35.1498C91.3278 35.0005 91.3931 34.8325 91.3931 34.6458V30.6978C91.3931 30.5111 91.3278 30.3525 91.1971 30.2218C91.0665 30.0725 90.9078 29.9978 90.7211 29.9978H78.8491C78.6625 29.9978 78.4945 30.0725 78.3451 30.2218C78.2145 30.3525 78.1491 30.5111 78.1491 30.6978V34.6458C78.1491 34.8325 78.2145 35.0005 78.3451 35.1498C78.4945 35.2805 78.6625 35.3458 78.8491 35.3458ZM101.866 47.1338C101.194 47.1338 100.578 46.9658 100.018 46.6298C99.4767 46.2938 99.038 45.8551 98.702 45.3138C98.3847 44.7725 98.226 44.1658 98.226 43.4938V37.5018H111.694V34.6178C111.694 34.4311 111.629 34.2725 111.498 34.1418C111.367 33.9925 111.209 33.9178 111.022 33.9178H98.226V30.8938H111.106C111.778 30.8938 112.385 31.0618 112.926 31.3978C113.486 31.7151 113.925 32.1538 114.242 32.7138C114.578 33.2738 114.746 33.8805 114.746 34.5338V47.1338H101.866ZM101.95 44.1098H111.694V40.3298H101.25V43.4098C101.25 43.5965 101.315 43.7645 101.446 43.9138C101.595 44.0445 101.763 44.1098 101.95 44.1098ZM121.335 47.1338C120.663 47.1338 120.047 46.9658 119.487 46.6298C118.946 46.2938 118.507 45.8551 118.171 45.3138C117.854 44.7725 117.695 44.1658 117.695 43.4938V25.7698H120.719V30.8938H127.383V33.9178H120.719V43.4098C120.719 43.5965 120.785 43.7645 120.915 43.9138C121.065 44.0445 121.233 44.1098 121.419 44.1098H127.383V47.1338H121.335ZM133.339 47.1338C132.667 47.1338 132.051 46.9658 131.491 46.6298C130.95 46.2938 130.511 45.8551 130.175 45.3138C129.858 44.7725 129.699 44.1658 129.699 43.4938V25.7698H132.723V30.8938H139.387V33.9178H132.723V43.4098C132.723 43.5965 132.789 43.7645 132.919 43.9138C133.069 44.0445 133.237 44.1098 133.423 44.1098H139.387V47.1338H133.339ZM145.178 47.1338C144.506 47.1338 143.899 46.9658 143.358 46.6298C142.817 46.2938 142.378 45.8551 142.042 45.3138C141.706 44.7725 141.538 44.1658 141.538 43.4938V34.5338C141.538 33.8618 141.706 33.2551 142.042 32.7138C142.378 32.1725 142.817 31.7338 143.358 31.3978C143.899 31.0618 144.506 30.8938 145.178 30.8938H154.418C155.09 30.8938 155.697 31.0618 156.238 31.3978C156.798 31.7151 157.237 32.1538 157.554 32.7138C157.89 33.2738 158.058 33.8805 158.058 34.5338V40.5258H144.562V43.4098C144.562 43.5965 144.627 43.7645 144.758 43.9138C144.907 44.0445 145.075 44.1098 145.262 44.1098H158.058V47.1338H145.178ZM144.562 37.6978H155.006V34.6178C155.006 34.4311 154.941 34.2725 154.81 34.1418C154.679 33.9925 154.521 33.9178 154.334 33.9178H145.262C145.075 33.9178 144.907 33.9925 144.758 34.1418C144.627 34.2725 144.562 34.4311 144.562 34.6178V37.6978ZM160.789 47.1338V34.5338C160.789 33.8618 160.957 33.2551 161.293 32.7138C161.629 32.1725 162.067 31.7338 162.609 31.3978C163.169 31.0618 163.775 30.8938 164.429 30.8938H173.501V33.9178H164.513C164.326 33.9178 164.158 33.9925 164.009 34.1418C163.878 34.2725 163.813 34.4311 163.813 34.6178V47.1338H160.789ZM177.829 53.3498V50.2978H187.769C187.956 50.2978 188.115 50.2231 188.245 50.0738C188.395 49.9431 188.469 49.7845 188.469 49.5978V47.1338H178.613C177.96 47.1338 177.353 46.9751 176.793 46.6578C176.233 46.3218 175.785 45.8738 175.449 45.3138C175.132 44.7538 174.973 44.1471 174.973 43.4938V30.9498H177.997V43.4098C177.997 43.5965 178.063 43.7645 178.193 43.9138C178.343 44.0445 178.511 44.1098 178.697 44.1098H187.769C187.956 44.1098 188.115 44.0445 188.245 43.9138C188.395 43.7645 188.469 43.5965 188.469 43.4098V30.9498H191.493V49.7098C191.493 50.3818 191.325 50.9885 190.989 51.5298C190.672 52.0898 190.233 52.5285 189.673 52.8458C189.132 53.1818 188.525 53.3498 187.853 53.3498H177.829Z" fill="#FDE1B9"/>
<circle cx="61" cy="25" r="8" fill="#FFEEB5"/>
<circle cx="30.5" cy="30.5" r="30" stroke="#FFEEB5"/>
<line x1="20.6464" y1="63.6464" x2="75.6464" y2="8.64645" stroke="#FFF9B5"/>
</svg>
