<svg width="358" height="67" viewBox="0 0 358 67" fill="none" xmlns="http://www.w3.org/2000/svg">
<rect x="35.0156" y="21.2275" width="322.356" height="44.421" fill="#2A484D" stroke="#FFF9B5" stroke-dasharray="200 200"/>
<path d="M52.2448 61.6187V32.8187H74.0048C75.0714 32.8187 76.0448 33.0853 76.9248 33.6187C77.8314 34.152 78.5514 34.872 79.0848 35.7787C79.6448 36.6587 79.9248 37.6453 79.9248 38.7387V44.1387C79.9248 44.4853 79.8981 44.8187 79.8448 45.1387C79.8181 45.432 79.7514 45.712 79.6448 45.9787C80.0448 46.4853 80.3781 47.072 80.6448 47.7387C80.9114 48.4053 81.0448 49.072 81.0448 49.7387V55.6987C81.0448 56.7653 80.7648 57.752 80.2048 58.6587C79.6714 59.5653 78.9514 60.2853 78.0448 60.8187C77.1648 61.352 76.1781 61.6187 75.0848 61.6187H52.2448ZM58.4448 55.3787H74.7648V50.0987H58.4448V55.3787ZM58.4448 43.8587H73.6448V39.0587H58.4448V43.8587ZM84.406 61.6187V32.8187H90.526V61.6187H84.406ZM94.0407 61.6187V32.8187H116.881C117.974 32.8187 118.961 33.0853 119.841 33.6187C120.747 34.152 121.467 34.872 122.001 35.7787C122.561 36.6587 122.841 37.6453 122.841 38.7387V55.6987C122.841 56.7653 122.561 57.752 122.001 58.6587C121.467 59.5653 120.747 60.2853 119.841 60.8187C118.961 61.352 117.974 61.6187 116.881 61.6187H94.0407ZM100.201 55.3787H116.561V39.0587H100.201V55.3787ZM150.051 61.6187V39.0587H138.771V32.8187H167.571V39.0587H156.291V61.6187H150.051ZM170.642 61.6187V38.7387C170.642 37.6453 170.909 36.6587 171.442 35.7787C171.976 34.872 172.696 34.152 173.602 33.6187C174.509 33.0853 175.496 32.8187 176.562 32.8187H193.482C194.576 32.8187 195.562 33.0853 196.442 33.6187C197.349 34.152 198.069 34.872 198.602 35.7787C199.162 36.6587 199.442 37.6453 199.442 38.7387V61.6187H193.162V52.3387H176.842V61.6187H170.642ZM176.842 46.0987H193.162V39.0587H176.842V46.0987ZM209.92 61.6187C208.826 61.6187 207.826 61.352 206.92 60.8187C206.04 60.2853 205.333 59.5787 204.8 58.6987C204.266 57.792 204 56.792 204 55.6987V38.7387C204 37.6453 204.266 36.6587 204.8 35.7787C205.333 34.872 206.04 34.152 206.92 33.6187C207.826 33.0853 208.826 32.8187 209.92 32.8187H232.72V39.0587H211.52C211.093 39.0587 210.76 39.1653 210.52 39.3787C210.306 39.592 210.2 39.9253 210.2 40.3787V54.0587C210.2 54.4853 210.306 54.8187 210.52 55.0587C210.76 55.272 211.093 55.3787 211.52 55.3787H232.72V61.6187H209.92ZM259.621 61.6187V39.0587H248.341V32.8187H277.141V39.0587H265.861V61.6187H259.621ZM285.973 61.6187C284.906 61.6187 283.919 61.352 283.013 60.8187C282.106 60.2853 281.386 59.5653 280.853 58.6587C280.319 57.752 280.053 56.7653 280.053 55.6987V38.7387C280.053 37.6453 280.319 36.6587 280.853 35.7787C281.386 34.872 282.106 34.152 283.013 33.6187C283.919 33.0853 284.906 32.8187 285.973 32.8187H302.933C303.999 32.8187 304.973 33.0853 305.853 33.6187C306.759 34.152 307.479 34.872 308.013 35.7787C308.573 36.6587 308.853 37.6453 308.853 38.7387V55.6987C308.853 56.7653 308.573 57.752 308.013 58.6587C307.479 59.5653 306.759 60.2853 305.853 60.8187C304.973 61.352 303.999 61.6187 302.933 61.6187H285.973ZM286.253 55.3787H302.573V39.0587H286.253V55.3787ZM313.338 61.6187V32.8187H339.938V39.0587H319.618V44.0987H335.978V50.3387H319.618V55.3787H339.938V61.6187H313.338Z" fill="#FDE1B9"/>
<circle cx="61.6777" cy="25.2466" r="8" fill="#FFEEB5"/>
<circle cx="31.1777" cy="30.7466" r="30" stroke="#FFEEB5"/>
<line x1="21.3242" y1="63.893" x2="76.3242" y2="8.89303" stroke="#FFF9B5"/>
</svg>
