<svg width="213" height="64" viewBox="0 0 213 64" fill="none" xmlns="http://www.w3.org/2000/svg">
<rect x="20.6782" y="17.5928" width="191.822" height="36.9072" fill="#2A484D" stroke="#FFF9B5" stroke-dasharray="200 200"/>
<path d="M81.5763 45.8364L81.5763 25.6764L97.2563 25.6764C97.9097 25.6764 98.5163 25.8444 99.0763 26.1804C99.6363 26.4978 100.075 26.9364 100.392 27.4964C100.728 28.0378 100.896 28.6444 100.896 29.3164L100.896 33.4324C100.896 33.6751 100.868 33.9178 100.812 34.1604C100.775 34.4031 100.7 34.6271 100.588 34.8324C100.962 35.3551 101.242 35.8498 101.428 36.3164C101.634 36.7644 101.736 37.2218 101.736 37.6884L101.736 42.1964C101.736 42.8684 101.568 43.4844 101.232 44.0444C100.915 44.5858 100.476 45.0244 99.9163 45.3604C99.3563 45.6778 98.7403 45.8364 98.0683 45.8364L81.5763 45.8364ZM85.3003 42.8124L98.0123 42.8124C98.199 42.8124 98.3577 42.7471 98.4883 42.6164C98.619 42.4671 98.6843 42.2991 98.6843 42.1124L98.6843 37.7724C98.6843 37.5858 98.619 37.4271 98.4883 37.2964C98.3577 37.1471 98.199 37.0724 98.0123 37.0724L85.3003 37.0724C85.1136 37.0724 84.9456 37.1471 84.7963 37.2964C84.6656 37.4271 84.6003 37.5858 84.6003 37.7724L84.6003 42.1124C84.6003 42.2991 84.6656 42.4671 84.7963 42.6164C84.9456 42.7471 85.1136 42.8124 85.3003 42.8124ZM85.3003 34.0484L97.1723 34.0484C97.359 34.0484 97.5177 33.9831 97.6483 33.8524C97.779 33.7031 97.8443 33.5351 97.8443 33.3484L97.8443 29.4004C97.8443 29.2138 97.779 29.0551 97.6483 28.9244C97.5177 28.7751 97.359 28.7004 97.1723 28.7004L85.3003 28.7004C85.1136 28.7004 84.9456 28.7751 84.7963 28.9244C84.6656 29.0551 84.6003 29.2138 84.6003 29.4004L84.6003 33.3484C84.6003 33.5351 84.6656 33.7031 84.7963 33.8524C84.9456 33.9831 85.1136 34.0484 85.3003 34.0484ZM108.289 45.8364C107.617 45.8364 107.011 45.6684 106.469 45.3324C105.928 44.9964 105.489 44.5578 105.153 44.0164C104.817 43.4751 104.649 42.8684 104.649 42.1964L104.649 33.2364C104.649 32.5644 104.817 31.9578 105.153 31.4164C105.489 30.8751 105.928 30.4364 106.469 30.1004C107.011 29.7644 107.617 29.5964 108.289 29.5964L117.529 29.5964C118.201 29.5964 118.808 29.7644 119.349 30.1004C119.909 30.4178 120.348 30.8564 120.665 31.4164C121.001 31.9764 121.169 32.5831 121.169 33.2364L121.169 42.1964C121.169 42.8684 121.001 43.4751 120.665 44.0164C120.348 44.5578 119.909 44.9964 119.349 45.3324C118.808 45.6684 118.201 45.8364 117.529 45.8364L108.289 45.8364ZM108.373 42.8124L117.445 42.8124C117.632 42.8124 117.791 42.7471 117.921 42.6164C118.052 42.4671 118.117 42.2991 118.117 42.1124L118.117 33.3204C118.117 33.1338 118.052 32.9751 117.921 32.8444C117.791 32.6951 117.632 32.6204 117.445 32.6204L108.373 32.6204C108.187 32.6204 108.019 32.6951 107.869 32.8444C107.739 32.9751 107.673 33.1338 107.673 33.3204L107.673 42.1124C107.673 42.2991 107.739 42.4671 107.869 42.6164C108.019 42.7471 108.187 42.8124 108.373 42.8124ZM124.12 45.8364L124.12 29.5964L144.868 29.5964C145.559 29.5964 146.175 29.7644 146.716 30.1004C147.257 30.4364 147.687 30.8751 148.004 31.4164C148.34 31.9578 148.508 32.5644 148.508 33.2364L148.508 45.8364L145.512 45.8364L145.512 33.3204C145.512 33.1338 145.437 32.9751 145.288 32.8444C145.157 32.6951 144.999 32.6204 144.812 32.6204L138.568 32.6204C138.363 32.6204 138.195 32.6951 138.064 32.8444C137.933 32.9751 137.868 33.1338 137.868 33.3204L137.868 45.8364L134.816 45.8364L134.816 33.3204C134.816 33.1338 134.741 32.9751 134.592 32.8444C134.461 32.6951 134.303 32.6204 134.116 32.6204L127.844 32.6204C127.657 32.6204 127.499 32.6951 127.368 32.8444C127.237 32.9751 127.172 33.1338 127.172 33.3204L127.172 45.8364L124.12 45.8364ZM151.19 45.8364L151.19 24.2764L154.214 24.2764L154.214 29.5964L164.07 29.5964C164.742 29.5964 165.349 29.7644 165.89 30.1004C166.45 30.4364 166.889 30.8751 167.206 31.4164C167.542 31.9578 167.71 32.5644 167.71 33.2364L167.71 42.1964C167.71 42.8684 167.542 43.4751 167.206 44.0164C166.889 44.5578 166.45 44.9964 165.89 45.3324C165.349 45.6684 164.742 45.8364 164.07 45.8364L151.19 45.8364ZM154.914 42.8124L163.986 42.8124C164.173 42.8124 164.332 42.7471 164.462 42.6164C164.612 42.4671 164.686 42.2991 164.686 42.1124L164.686 33.3204C164.686 33.1338 164.612 32.9751 164.462 32.8444C164.332 32.6951 164.173 32.6204 163.986 32.6204L154.914 32.6204C154.728 32.6204 154.56 32.6951 154.41 32.8444C154.28 32.9751 154.214 33.1338 154.214 33.3204L154.214 42.1124C154.214 42.2991 154.28 42.4671 154.41 42.6164C154.56 42.7471 154.728 42.8124 154.914 42.8124Z" fill="#FDE1B9"/>
<circle cx="61" cy="25" r="8" fill="#FFEEB5"/>
<circle cx="30.5" cy="30.5" r="30" stroke="#FFEEB5"/>
<line x1="20.6464" y1="63.6464" x2="75.6464" y2="8.64645" stroke="#FFF9B5"/>
</svg>
