<svg width="231" height="64" viewBox="0 0 231 64" fill="none" xmlns="http://www.w3.org/2000/svg">
<rect x="22.3833" y="18.5249" width="208.117" height="38.9749" fill="#2A484D" stroke="#FFF9B5" stroke-dasharray="200 200"/>
<path d="M75.6777 46.8096L75.6777 26.6496L94.1577 26.6496L94.1577 29.6736L78.7297 29.6736L78.7297 35.2176L91.1337 35.2176L91.1337 38.2416L78.7297 38.2416L78.7297 46.8096L75.6777 46.8096ZM99.3841 46.8096C98.7121 46.8096 98.0961 46.6416 97.5361 46.3056C96.9948 45.9696 96.5561 45.5309 96.2201 44.9896C95.9028 44.4482 95.7441 43.8416 95.7441 43.1696L95.7441 37.1776L109.212 37.1776L109.212 34.2936C109.212 34.1069 109.147 33.9482 109.016 33.8176C108.885 33.6682 108.727 33.5936 108.54 33.5936L95.7441 33.5936L95.7441 30.5696L108.624 30.5696C109.296 30.5696 109.903 30.7376 110.444 31.0736C111.004 31.3909 111.443 31.8296 111.76 32.3896C112.096 32.9496 112.264 33.5562 112.264 34.2096L112.264 46.8096L99.3841 46.8096ZM99.4681 43.7856L109.212 43.7856L109.212 40.0056L98.7681 40.0056L98.7681 43.0856C98.7681 43.2722 98.8334 43.4402 98.9641 43.5896C99.1134 43.7202 99.2814 43.7856 99.4681 43.7856ZM118.278 46.8096C117.606 46.8096 116.999 46.6416 116.458 46.3056C115.917 45.9696 115.478 45.5309 115.142 44.9896C114.806 44.4482 114.638 43.8416 114.638 43.1696L114.638 34.2096C114.638 33.5376 114.806 32.9309 115.142 32.3896C115.478 31.8482 115.917 31.4096 116.458 31.0736C116.999 30.7376 117.606 30.5696 118.278 30.5696L131.102 30.5696L131.102 33.5936L118.362 33.5936C118.175 33.5936 118.007 33.6682 117.858 33.8176C117.727 33.9482 117.662 34.1069 117.662 34.2936L117.662 43.0856C117.662 43.2722 117.727 43.4402 117.858 43.5896C118.007 43.7202 118.175 43.7856 118.362 43.7856L131.158 43.7856L131.158 46.8096L118.278 46.8096ZM137.064 46.8096C136.392 46.8096 135.776 46.6416 135.216 46.3056C134.675 45.9696 134.236 45.5309 133.9 44.9896C133.583 44.4482 133.424 43.8416 133.424 43.1696L133.424 25.4456L136.448 25.4456L136.448 30.5696L143.112 30.5696L143.112 33.5936L136.448 33.5936L136.448 43.0856C136.448 43.2722 136.514 43.4402 136.644 43.5896C136.794 43.7202 136.962 43.7856 137.148 43.7856L143.112 43.7856L143.112 46.8096L137.064 46.8096ZM148.903 46.8096C148.231 46.8096 147.624 46.6416 147.083 46.3056C146.542 45.9696 146.103 45.5309 145.767 44.9896C145.431 44.4482 145.263 43.8416 145.263 43.1696L145.263 34.2096C145.263 33.5376 145.431 32.9309 145.767 32.3896C146.103 31.8482 146.542 31.4096 147.083 31.0736C147.624 30.7376 148.231 30.5696 148.903 30.5696L158.143 30.5696C158.815 30.5696 159.422 30.7376 159.963 31.0736C160.523 31.3909 160.962 31.8296 161.279 32.3896C161.615 32.9496 161.783 33.5562 161.783 34.2096L161.783 43.1696C161.783 43.8416 161.615 44.4482 161.279 44.9896C160.962 45.5309 160.523 45.9696 159.963 46.3056C159.422 46.6416 158.815 46.8096 158.143 46.8096L148.903 46.8096ZM148.987 43.7856L158.059 43.7856C158.246 43.7856 158.404 43.7202 158.535 43.5896C158.666 43.4402 158.731 43.2722 158.731 43.0856L158.731 34.2936C158.731 34.1069 158.666 33.9482 158.535 33.8176C158.404 33.6682 158.246 33.5936 158.059 33.5936L148.987 33.5936C148.8 33.5936 148.632 33.6682 148.483 33.8176C148.352 33.9482 148.287 34.1069 148.287 34.2936L148.287 43.0856C148.287 43.2722 148.352 43.4402 148.483 43.5896C148.632 43.7202 148.8 43.7856 148.987 43.7856ZM164.24 46.8096L164.24 34.2096C164.24 33.5376 164.408 32.9309 164.744 32.3896C165.08 31.8482 165.519 31.4096 166.06 31.0736C166.62 30.7376 167.227 30.5696 167.88 30.5696L176.952 30.5696L176.952 33.5936L167.964 33.5936C167.778 33.5936 167.61 33.6682 167.46 33.8176C167.33 33.9482 167.264 34.1069 167.264 34.2936L167.264 46.8096L164.24 46.8096ZM181.281 53.0256L181.281 49.9736L191.221 49.9736C191.408 49.9736 191.566 49.8989 191.697 49.7496C191.846 49.6189 191.921 49.4602 191.921 49.2736L191.921 46.8096L182.065 46.8096C181.412 46.8096 180.805 46.6509 180.245 46.3336C179.685 45.9976 179.237 45.5496 178.901 44.9896C178.584 44.4296 178.425 43.8229 178.425 43.1696L178.425 30.6256L181.449 30.6256L181.449 43.0856C181.449 43.2722 181.514 43.4402 181.645 43.5896C181.794 43.7202 181.962 43.7856 182.149 43.7856L191.221 43.7856C191.408 43.7856 191.566 43.7202 191.697 43.5896C191.846 43.4402 191.921 43.2722 191.921 43.0856L191.921 30.6256L194.945 30.6256L194.945 49.3856C194.945 50.0576 194.777 50.6642 194.441 51.2056C194.124 51.7656 193.685 52.2042 193.125 52.5216C192.584 52.8576 191.977 53.0256 191.305 53.0256L181.281 53.0256Z" fill="#FDE1B9"/>
<circle cx="61" cy="25" r="8" fill="#FFEEB5"/>
<circle cx="30.5" cy="30.5" r="30" stroke="#FFEEB5"/>
<line x1="20.6464" y1="63.6464" x2="75.6464" y2="8.64645" stroke="#FFF9B5"/>
</svg>
