<svg width="1068" height="635" viewBox="0 0 1068 635" fill="none" xmlns="http://www.w3.org/2000/svg">
<path d="M938.339 326.245C937.952 341.1 927.584 356.174 906.316 370.573C885.198 384.869 854.457 397.687 816.067 408.225C739.363 429.279 633.492 440.869 516.705 437.829C399.918 434.788 294.793 417.705 219.289 392.688C181.5 380.167 151.467 365.768 131.121 350.391C110.632 334.906 101.062 319.313 101.449 304.457C101.836 289.602 112.204 274.527 133.471 260.129C154.589 245.832 185.331 233.015 223.721 222.477C300.424 201.423 406.295 189.833 523.082 192.873C639.869 195.913 744.994 212.996 820.498 238.014C858.288 250.535 888.321 264.934 908.666 280.311C929.156 295.796 938.725 311.389 938.339 326.245Z" stroke="#FBD161" stroke-width="12"/>
<path d="M1014.1 486.037C1007.08 506.01 987.145 520.584 956.681 529.678C926.243 538.764 885.506 542.307 837.289 540.379C740.867 536.521 614.766 510.793 481.862 464.083C348.958 417.373 234.489 358.552 156.855 301.236C118.033 272.575 88.4704 244.324 70.4098 218.193C52.3337 192.04 45.9024 168.199 52.9219 148.227C59.9415 128.254 79.8739 113.679 110.338 104.585C140.776 95.4992 181.513 91.9561 229.73 93.8849C326.152 97.7421 452.252 123.47 585.156 170.18C718.06 216.89 832.53 275.712 910.163 333.027C948.985 361.689 978.548 389.939 996.609 416.07C1014.68 442.224 1021.12 466.064 1014.1 486.037Z" stroke="#FBD161" stroke-width="2"/>
<path d="M1008.9 355.41C1009.74 359.43 1010.15 363.454 1010.1 367.474L1008.1 367.448C1008.08 368.746 1008.01 370.043 1007.9 371.34C1007.78 372.637 1007.61 373.925 1007.4 375.205L1009.37 375.536C1008.71 379.501 1007.59 383.388 1006.04 387.193L1004.19 386.438C1003.22 388.812 1002.08 391.157 1000.76 393.473L1002.5 394.462C1000.57 397.854 998.283 401.173 995.655 404.419L994.101 403.16C992.481 405.16 990.725 407.135 988.835 409.084L990.271 410.476C987.561 413.269 984.589 416.003 981.363 418.674L980.088 417.133C978.083 418.793 975.977 420.43 973.771 422.044L974.952 423.658C971.796 425.967 968.444 428.226 964.901 430.432L963.843 428.735C961.61 430.125 959.3 431.496 956.912 432.847L957.897 434.587C954.474 436.524 950.899 438.417 947.176 440.265L946.286 438.474C943.949 439.635 941.552 440.778 939.096 441.905L939.93 443.723C936.338 445.37 932.624 446.979 928.792 448.549L928.033 446.698C925.566 447.709 923.049 448.704 920.482 449.683L921.195 451.552C917.499 452.961 913.702 454.337 909.809 455.678L909.158 453.787C906.665 454.646 904.131 455.49 901.558 456.32L902.173 458.224C898.379 459.448 894.502 460.64 890.541 461.801L889.979 459.882C887.434 460.628 884.855 461.361 882.243 462.08L882.774 464.008C878.935 465.065 875.025 466.093 871.045 467.092L870.558 465.153C867.956 465.806 865.324 466.446 862.663 467.074L863.122 469.02C859.253 469.933 855.323 470.819 851.332 471.678L850.912 469.723C848.291 470.287 845.644 470.839 842.972 471.38L843.368 473.34C839.456 474.131 835.49 474.897 831.471 475.638L831.108 473.671C828.483 474.154 825.836 474.627 823.166 475.088L823.506 477.059C819.554 477.742 815.552 478.401 811.504 479.035L811.195 477.059C808.565 477.471 805.916 477.873 803.247 478.264L803.537 480.243C799.555 480.827 795.53 481.387 791.463 481.923L791.202 479.941C788.567 480.288 785.915 480.626 783.245 480.954L783.488 482.939C779.487 483.43 775.447 483.899 771.369 484.345L771.151 482.357C768.51 482.646 765.853 482.925 763.18 483.195L763.381 485.185C759.367 485.59 755.318 485.973 751.235 486.335L751.058 484.343C748.409 484.577 745.746 484.802 743.069 485.018L743.23 487.012C739.208 487.336 735.155 487.64 731.071 487.922L730.933 485.927C728.276 486.11 725.605 486.285 722.922 486.45L723.045 488.447C719.02 488.695 714.967 488.923 710.886 489.13L710.784 487.133C708.117 487.268 705.438 487.395 702.748 487.513L702.835 489.511C698.81 489.687 694.759 489.843 690.684 489.979L690.617 487.981C687.94 488.07 685.252 488.151 682.554 488.223L682.607 490.222C678.584 490.33 674.538 490.418 670.469 490.486L670.436 488.486C667.749 488.532 665.052 488.568 662.346 488.596L662.366 490.596C658.347 490.638 654.307 490.66 650.247 490.664L650.245 488.664C647.548 488.666 644.842 488.66 642.128 488.645L642.117 490.645C638.103 490.623 634.07 490.583 630.019 490.524L630.049 488.524C627.352 488.484 624.647 488.437 621.935 488.381L621.894 490.38C617.876 490.297 613.842 490.195 609.791 490.075L609.85 488.076C607.16 487.996 604.463 487.908 601.758 487.812L601.687 489.811C597.662 489.668 593.621 489.506 589.565 489.327L589.654 487.329C586.97 487.21 584.28 487.082 581.584 486.947L581.484 488.945C577.452 488.743 573.405 488.522 569.346 488.284L569.463 486.287C566.786 486.13 564.104 485.965 561.416 485.791L561.287 487.787C557.249 487.527 553.199 487.249 549.137 486.952L549.282 484.957C546.613 484.763 543.937 484.56 541.257 484.349L541.101 486.343C537.075 486.027 533.038 485.693 528.99 485.34L529.164 483.348C527.816 483.231 526.468 483.111 525.118 482.99C523.769 482.869 522.42 482.746 521.074 482.621L520.889 484.613C516.844 484.238 512.812 483.847 508.794 483.441L508.995 481.452C506.32 481.181 503.652 480.904 500.99 480.62L500.778 482.609C496.728 482.177 492.693 481.729 488.673 481.265L488.903 479.278C486.227 478.97 483.558 478.654 480.896 478.332L480.655 480.318C476.618 479.829 472.597 479.325 468.594 478.805L468.851 476.822C466.174 476.474 463.504 476.12 460.843 475.759L460.574 477.741C456.551 477.195 452.546 476.634 448.559 476.057L448.846 474.078C446.167 473.691 443.497 473.297 440.836 472.896L440.538 474.873C436.531 474.27 432.543 473.651 428.575 473.017L428.891 471.042C426.212 470.614 423.542 470.179 420.881 469.737L420.554 471.71C416.557 471.046 412.582 470.367 408.628 469.674L408.974 467.704C406.3 467.234 403.637 466.758 400.983 466.276L400.625 468.243C396.631 467.516 392.659 466.774 388.712 466.017L389.088 464.053C386.43 463.543 383.783 463.026 381.147 462.503L380.758 464.465C376.767 463.673 372.801 462.865 368.861 462.042L369.27 460.084C366.628 459.533 363.998 458.974 361.379 458.409L360.957 460.364C356.971 459.504 353.013 458.628 349.084 457.737L349.526 455.787C346.899 455.192 344.286 454.59 341.686 453.981L341.23 455.928C337.251 454.997 333.303 454.051 329.387 453.089L329.864 451.147C327.253 450.506 324.656 449.858 322.074 449.204L321.583 451.143C317.615 450.137 313.681 449.116 309.781 448.08L310.294 446.147C307.699 445.458 305.118 444.762 302.554 444.059L302.025 445.988C298.072 444.904 294.156 443.806 290.278 442.691L290.83 440.769C288.248 440.028 285.684 439.279 283.136 438.524L282.568 440.442C278.635 439.276 274.743 438.095 270.893 436.899L271.486 434.989C268.917 434.19 266.368 433.385 263.837 432.574L263.226 434.478C259.32 433.226 255.459 431.957 251.645 430.673L252.283 428.778C249.727 427.917 247.191 427.05 244.678 426.176L244.021 428.065C240.151 426.72 236.331 425.358 232.563 423.982L233.249 422.103C230.704 421.173 228.183 420.237 225.686 419.293L224.979 421.164C221.156 419.719 217.39 418.259 213.682 416.783L214.421 414.925C211.888 413.917 209.382 412.901 206.904 411.879L206.141 413.728C202.368 412.172 198.658 410.6 195.014 409.012L195.813 407.179C193.306 406.087 190.83 404.988 188.386 403.881L187.562 405.703C183.823 404.011 180.159 402.303 176.57 400.579L177.436 398.776C174.993 397.602 172.586 396.422 170.215 395.234L169.32 397.023C165.63 395.175 162.027 393.31 158.512 391.43L159.456 389.666C157.072 388.391 154.729 387.108 152.429 385.819L151.451 387.564C147.86 385.551 144.369 383.521 140.983 381.475L142.018 379.763C139.667 378.343 137.367 376.915 135.119 375.481L134.043 377.167C130.552 374.938 127.184 372.693 123.943 370.432L125.088 368.792C122.872 367.246 120.717 365.694 118.624 364.135L117.429 365.739C114.095 363.257 110.915 360.757 107.892 358.242L109.171 356.704C107.062 354.95 105.033 353.189 103.083 351.423L101.741 352.905C98.6475 350.102 95.7511 347.283 93.0573 344.449L94.507 343.071C92.6236 341.089 90.8428 339.103 89.1663 337.113L87.6367 338.401C84.9383 335.198 82.5007 331.979 80.3326 328.747L81.9933 327.633C80.4807 325.379 79.1048 323.123 77.8676 320.866L76.1139 321.828C74.106 318.166 72.4488 314.492 71.1544 310.811L73.0411 310.148C72.157 307.634 71.4494 305.122 70.9208 302.614L68.9638 303.026C68.1165 299.006 67.7108 294.983 67.7628 290.962L69.7626 290.988C69.7794 289.691 69.8457 288.393 69.9622 287.097C70.0787 285.8 70.2446 284.512 70.4593 283.232L68.4869 282.901C69.1521 278.936 70.2683 275.049 71.8184 271.244L73.6706 271.998C74.6377 269.625 75.7816 267.279 77.0995 264.963L75.3612 263.974C77.2908 260.583 79.5762 257.263 82.2045 254.018L83.7587 255.276C85.3783 253.276 87.1342 251.302 89.0243 249.353L87.5887 247.96C90.2979 245.167 93.2701 242.434 96.4962 239.763L97.7717 241.303C99.776 239.644 101.882 238.006 104.089 236.392L102.908 234.778C106.063 232.469 109.416 230.211 112.959 228.004L114.016 229.702C116.249 228.311 118.56 226.94 120.947 225.59L119.962 223.849C123.385 221.913 126.961 220.02 130.684 218.171L131.573 219.962C133.911 218.802 136.308 217.658 138.763 216.532L137.93 214.714C141.521 213.067 145.235 211.458 149.068 209.887L149.826 211.738C152.293 210.727 154.811 209.732 157.377 208.754L156.665 206.885C160.361 205.475 164.157 204.1 168.05 202.759L168.702 204.65C171.195 203.791 173.728 202.946 176.301 202.116L175.687 200.213C179.48 198.989 183.358 197.796 187.318 196.635L187.881 198.555C190.425 197.809 193.004 197.076 195.617 196.357L195.086 194.428C198.924 193.371 202.835 192.343 206.815 191.344L207.302 193.284C209.903 192.631 212.535 191.991 215.197 191.363L214.737 189.416C218.606 188.503 222.537 187.617 226.527 186.758L226.948 188.714C229.568 188.15 232.215 187.597 234.888 187.057L234.491 185.096C238.403 184.305 242.37 183.539 246.389 182.799L246.751 184.766C249.376 184.282 252.024 183.81 254.694 183.348L254.353 181.378C258.306 180.694 262.307 180.036 266.355 179.401L266.665 181.377C269.294 180.965 271.944 180.564 274.613 180.172L274.322 178.194C278.304 177.61 282.329 177.05 286.396 176.513L286.658 178.496C289.292 178.148 291.945 177.811 294.615 177.483L294.371 175.498C298.373 175.006 302.413 174.538 306.491 174.092L306.708 176.08C309.349 175.791 312.006 175.512 314.679 175.242L314.478 173.252C318.493 172.847 322.542 172.463 326.625 172.102L326.801 174.094C329.45 173.86 332.113 173.634 334.79 173.418L334.63 171.425C338.651 171.1 342.705 170.797 346.788 170.515L346.926 172.51C349.584 172.326 352.254 172.152 354.937 171.986L354.814 169.99C358.839 169.742 362.893 169.514 366.974 169.306L367.075 171.304C369.742 171.168 372.421 171.042 375.111 170.924L375.024 168.926C379.049 168.75 383.1 168.593 387.176 168.457L387.243 170.456C389.92 170.367 392.607 170.286 395.306 170.214L395.252 168.214C399.275 168.107 403.322 168.019 407.39 167.95L407.424 169.95C410.111 169.905 412.808 169.868 415.514 169.84L415.493 167.84C419.513 167.799 423.553 167.776 427.613 167.773L427.615 169.773C430.311 169.771 433.017 169.777 435.731 169.791L435.742 167.792C439.756 167.813 443.789 167.854 447.84 167.913L447.811 169.913C450.507 169.952 453.212 170 455.924 170.056L455.966 168.056C459.983 168.14 464.018 168.241 468.069 168.361L468.009 170.36C470.699 170.44 473.397 170.528 476.101 170.624L476.172 168.626C480.198 168.769 484.239 168.93 488.294 169.11L488.206 171.108C490.889 171.227 493.579 171.354 496.276 171.489L496.376 169.492C500.408 169.694 504.454 169.914 508.514 170.153L508.396 172.149C511.073 172.307 513.756 172.472 516.444 172.645L516.572 170.649C520.61 170.91 524.66 171.188 528.723 171.484L528.577 173.479C531.247 173.674 533.922 173.877 536.602 174.087L536.759 172.093C540.784 172.41 544.821 172.744 548.869 173.096L548.696 175.089C550.043 175.206 551.391 175.325 552.741 175.446C554.091 175.568 555.439 175.691 556.786 175.815L556.97 173.824C561.016 174.199 565.048 174.589 569.065 174.995L568.864 176.985C571.539 177.255 574.207 177.533 576.869 177.817L577.081 175.828C581.132 176.26 585.167 176.708 589.186 177.171L588.957 179.158C591.633 179.467 594.302 179.782 596.964 180.104L597.204 178.119C601.241 178.607 605.262 179.112 609.266 179.631L609.008 181.615C611.686 181.962 614.355 182.316 617.017 182.678L617.286 180.696C621.309 181.241 625.314 181.803 629.3 182.379L629.014 184.359C631.692 184.746 634.362 185.14 637.023 185.541L637.321 183.563C641.329 184.167 645.317 184.786 649.285 185.42L648.969 187.395C651.648 187.823 654.318 188.258 656.978 188.7L657.306 186.727C661.302 187.39 665.278 188.069 669.232 188.763L668.886 190.733C671.559 191.202 674.223 191.678 676.876 192.161L677.234 190.193C681.229 190.92 685.2 191.662 689.148 192.42L688.771 194.384C691.429 194.894 694.076 195.41 696.712 195.933L697.102 193.972C701.093 194.764 705.059 195.572 708.998 196.394L708.59 198.352C711.232 198.904 713.862 199.462 716.48 200.027L716.902 198.072C720.888 198.933 724.846 199.808 728.776 200.699L728.334 202.65C730.96 203.245 733.573 203.847 736.174 204.455L736.63 202.508C740.608 203.439 744.556 204.386 748.473 205.347L747.996 207.29C750.606 207.931 753.203 208.578 755.785 209.233L756.277 207.294C760.244 208.299 764.179 209.32 768.078 210.356L767.565 212.289C770.161 212.979 772.741 213.675 775.306 214.378L775.834 212.449C779.788 213.532 783.704 214.631 787.582 215.745L787.029 217.667C789.611 218.409 792.176 219.157 794.723 219.912L795.292 217.995C799.225 219.16 803.117 220.341 806.967 221.538L806.373 223.448C808.942 224.246 811.492 225.051 814.022 225.863L814.633 223.958C818.539 225.211 822.4 226.479 826.214 227.763L825.576 229.659C828.133 230.519 830.668 231.387 833.182 232.26L833.839 230.371C837.709 231.717 841.529 233.078 845.297 234.455L844.61 236.333C847.155 237.263 849.676 238.2 852.173 239.144L852.88 237.273C856.703 238.717 860.469 240.178 864.178 241.654L863.438 243.512C865.972 244.52 868.478 245.535 870.956 246.557L871.718 244.708C875.492 246.264 879.202 247.837 882.846 249.424L882.047 251.258C884.554 252.35 887.029 253.449 889.473 254.555L890.298 252.733C894.036 254.425 897.701 256.134 901.29 257.858L900.424 259.661C902.866 260.834 905.273 262.015 907.644 263.202L908.54 261.414C912.23 263.262 915.833 265.126 919.347 267.007L918.404 268.77C920.788 270.046 923.13 271.328 925.43 272.617L926.408 270.873C930 272.886 933.49 274.916 936.876 276.962L935.842 278.674C938.193 280.094 940.493 281.522 942.74 282.956L943.816 281.27C947.308 283.498 950.675 285.743 953.916 288.004L952.772 289.644C954.987 291.19 957.142 292.743 959.236 294.301L960.43 292.697C963.764 295.18 966.945 297.68 969.968 300.195L968.689 301.732C970.797 303.487 972.827 305.247 974.776 307.014L976.119 305.532C979.212 308.334 982.108 311.154 984.802 313.988L983.352 315.366C985.236 317.347 987.017 319.334 988.693 321.324L990.223 320.035C992.921 323.239 995.359 326.458 997.527 329.689L995.866 330.803C997.379 333.058 998.755 335.314 999.992 337.57L1001.75 336.609C1003.75 340.271 1005.41 343.945 1006.71 347.625L1004.82 348.289C1005.7 350.803 1006.41 353.315 1006.94 355.823L1008.9 355.41Z" stroke="#FBD161" stroke-width="4" stroke-dasharray="8 12"/>
</svg>
