<svg width="429" height="135" viewBox="0 0 429 135" fill="none" xmlns="http://www.w3.org/2000/svg">
<rect x="30.291" y="34.5894" width="368.154" height="67.179" fill="#2A484D" stroke="#FFF9B5" stroke-dasharray="200 200"/>
<path d="M93.496 93.5693C91.7893 93.5693 90.2106 93.1427 88.76 92.2893C87.3093 91.436 86.1573 90.284 85.304 88.8333C84.4506 87.3827 84.024 85.804 84.024 84.0973V56.9613C84.024 55.212 84.4506 53.6333 85.304 52.2253C86.1573 50.7747 87.3093 49.6227 88.76 48.7693C90.2106 47.916 91.7893 47.4893 93.496 47.4893H120.568C122.317 47.4893 123.896 47.916 125.304 48.7693C126.755 49.6227 127.907 50.7747 128.76 52.2253C129.656 53.6333 130.104 55.212 130.104 56.9613V61.3133H120.056V57.4733H93.944V83.5853H120.056V76.6733H110.072V66.6893H130.104V84.0973C130.104 85.804 129.656 87.3827 128.76 88.8333C127.907 90.284 126.755 91.436 125.304 92.2893C123.896 93.1427 122.317 93.5693 120.568 93.5693H93.496ZM137.277 93.5693V56.9613C137.277 55.212 137.704 53.6333 138.557 52.2253C139.41 50.7747 140.562 49.6227 142.013 48.7693C143.464 47.916 145.042 47.4893 146.749 47.4893H173.821C175.57 47.4893 177.149 47.916 178.557 48.7693C180.008 49.6227 181.16 50.7747 182.013 52.2253C182.909 53.6333 183.357 55.212 183.357 56.9613V93.5693H173.309V78.7213H147.197V93.5693H137.277ZM147.197 68.7373H173.309V57.4733H147.197V68.7373ZM190.649 93.5693V47.4893H200.889L216.505 66.1133L232.057 47.4893H242.361V93.5693H232.377V62.6573L216.505 81.6013L200.569 62.7213V93.5693H190.649ZM250.152 93.5693V47.4893H292.712V57.4733H260.2V65.5373H286.376V75.5213H260.2V83.5853H292.712V93.5693H250.152ZM308.368 93.5693C306.661 93.5693 305.083 93.1427 303.632 92.2893C302.181 91.436 301.029 90.284 300.176 88.8333C299.323 87.3827 298.896 85.804 298.896 84.0973V79.8093H308.816V83.5853H334.928V75.5213H308.368C306.661 75.5213 305.083 75.0947 303.632 74.2413C302.181 73.388 301.029 72.2573 300.176 70.8493C299.323 69.3987 298.896 67.7987 298.896 66.0493V56.9613C298.896 55.212 299.323 53.6333 300.176 52.2253C301.029 50.7747 302.181 49.6227 303.632 48.7693C305.083 47.916 306.661 47.4893 308.368 47.4893H335.504C337.211 47.4893 338.768 47.916 340.176 48.7693C341.627 49.6227 342.779 50.7747 343.632 52.2253C344.528 53.6333 344.976 55.212 344.976 56.9613V61.2493H334.928V57.4733H308.816V65.5373H335.504C337.211 65.5373 338.768 65.964 340.176 66.8173C341.627 67.6707 342.779 68.8227 343.632 70.2733C344.528 71.6813 344.976 73.26 344.976 75.0093V84.0973C344.976 85.804 344.528 87.3827 343.632 88.8333C342.779 90.284 341.627 91.436 340.176 92.2893C338.768 93.1427 337.211 93.5693 335.504 93.5693H308.368Z" fill="#FDE1B9"/>
<path d="M27.725 27.7002L76.2722 28.2258L28.2511 76.204L27.725 27.7002Z" fill="#FDE1B9"/>
<g style="mix-blend-mode:difference">
<path d="M95.4095 30.5039H120.216L36.2557 113.696H11.4492L95.4095 30.5039Z" fill="#FDE1B9"/>
</g>
<path d="M401.275 123.3L352.728 122.774L400.749 74.796L401.275 123.3Z" fill="#FDE1B9"/>
</svg>
