<svg width="373" height="172" viewBox="0 0 373 172" fill="none" xmlns="http://www.w3.org/2000/svg">
<rect x="221.121" y="16.9014" width="150.45" height="154.543" fill="#2A484D" stroke="#FFF9B5" stroke-dasharray="200 200"/>
<ellipse cx="236.21" cy="17.312" rx="5.53382" ry="5.53078" fill="#FFEEB5"/>
<path d="M235.71 21.1144C235.71 32.4835 226.488 41.7005 215.112 41.7005C203.736 41.7005 194.514 32.4835 194.514 21.1144C194.514 9.74529 203.736 0.52832 215.112 0.52832C226.488 0.528321 235.71 9.74529 235.71 21.1144Z" stroke="#FFEEB5"/>
<line y1="-0.5" x2="53.789" y2="-0.5" transform="matrix(0.707301 -0.706912 0.707301 0.706912 208.541 44.2744)" stroke="#FFF9B5"/>
<path d="M1.51416 140.528L62.0142 80.0283H220.014" stroke="#FFFBAE" stroke-width="2"/>
<path d="M233.158 54.6533L233.158 43.1133L231.498 45.1133L228.658 45.1133L232.738 40.2533L235.318 40.2533L235.318 54.6533L233.158 54.6533ZM245.471 52.7533L245.471 49.8133L242.591 49.8133L242.591 47.6533L245.471 47.6533L245.471 44.7533L247.631 44.7533L247.631 47.6533L250.591 47.6533L250.591 49.8133L247.631 49.8133L247.631 52.7533L245.471 52.7533ZM261.4 54.6533L261.4 43.1133L259.74 45.1133L256.9 45.1133L260.98 40.2533L263.56 40.2533L263.56 54.6533L261.4 54.6533ZM271.674 47.7733L271.674 45.6133L282.074 45.6133L282.074 47.7733L271.674 47.7733ZM271.674 51.7933L271.674 49.6333L282.074 49.6333L282.074 51.7933L271.674 51.7933ZM290.188 54.6533L290.188 49.1933C290.188 48.7 290.302 48.26 290.528 47.8733C290.768 47.4867 291.082 47.18 291.468 46.9533C291.868 46.7133 292.308 46.5933 292.788 46.5933L301.928 46.5933C302.062 46.5933 302.175 46.5467 302.268 46.4533C302.375 46.3467 302.428 46.2267 302.428 46.0933L302.428 42.9133C302.428 42.78 302.375 42.6667 302.268 42.5733C302.175 42.4667 302.062 42.4133 301.928 42.4133L292.848 42.4133C292.715 42.4133 292.595 42.4667 292.488 42.5733C292.395 42.6667 292.348 42.78 292.348 42.9133L292.348 43.6933L290.188 43.6933L290.188 42.8533C290.188 42.36 290.302 41.92 290.528 41.5333C290.768 41.1467 291.082 40.8333 291.468 40.5933C291.868 40.3533 292.308 40.2333 292.788 40.2333L301.988 40.2333C302.455 40.2333 302.882 40.3533 303.268 40.5933C303.668 40.8333 303.988 41.1467 304.228 41.5333C304.468 41.92 304.588 42.36 304.588 42.8533L304.588 46.1533C304.588 46.6333 304.468 47.0733 304.228 47.4733C303.988 47.86 303.668 48.1733 303.268 48.4133C302.882 48.64 302.455 48.7533 301.988 48.7533L292.848 48.7533C292.715 48.7533 292.595 48.8067 292.488 48.9133C292.395 49.0067 292.348 49.12 292.348 49.2533L292.348 51.9933C292.348 52.1267 292.395 52.2467 292.488 52.3533C292.595 52.4467 292.715 52.4933 292.848 52.4933L304.588 52.4933L304.588 54.6533L290.188 54.6533ZM229.778 79.6533L229.778 74.1933C229.778 73.7 229.892 73.26 230.118 72.8733C230.358 72.4867 230.672 72.18 231.058 71.9533C231.458 71.7133 231.898 71.5933 232.378 71.5933L241.518 71.5933C241.652 71.5933 241.765 71.5467 241.858 71.4533C241.965 71.3467 242.018 71.2267 242.018 71.0933L242.018 67.9133C242.018 67.78 241.965 67.6667 241.858 67.5733C241.765 67.4667 241.652 67.4133 241.518 67.4133L232.438 67.4133C232.305 67.4133 232.185 67.4667 232.078 67.5733C231.985 67.6667 231.938 67.78 231.938 67.9133L231.938 68.6933L229.778 68.6933L229.778 67.8533C229.778 67.36 229.892 66.92 230.118 66.5333C230.358 66.1467 230.672 65.8333 231.058 65.5933C231.458 65.3533 231.898 65.2333 232.378 65.2333L241.578 65.2333C242.045 65.2333 242.472 65.3533 242.858 65.5933C243.258 65.8333 243.578 66.1467 243.818 66.5333C244.058 66.92 244.178 67.36 244.178 67.8533L244.178 71.1533C244.178 71.6333 244.058 72.0733 243.818 72.4733C243.578 72.86 243.258 73.1733 242.858 73.4133C242.472 73.64 242.045 73.7533 241.578 73.7533L232.438 73.7533C232.305 73.7533 232.185 73.8067 232.078 73.9133C231.985 74.0067 231.938 74.12 231.938 74.2533L231.938 76.9933C231.938 77.1267 231.985 77.2467 232.078 77.3533C232.185 77.4467 232.305 77.4933 232.438 77.4933L244.178 77.4933L244.178 79.6533L229.778 79.6533ZM254.261 77.7533L254.261 74.8133L251.381 74.8133L251.381 72.6533L254.261 72.6533L254.261 69.7533L256.421 69.7533L256.421 72.6533L259.381 72.6533L259.381 74.8133L256.421 74.8133L256.421 77.7533L254.261 77.7533ZM266.809 79.6533L266.809 74.1933C266.809 73.7 266.923 73.26 267.149 72.8733C267.389 72.4867 267.703 72.18 268.089 71.9533C268.489 71.7133 268.929 71.5933 269.409 71.5933L278.549 71.5933C278.683 71.5933 278.796 71.5467 278.889 71.4533C278.996 71.3467 279.049 71.2267 279.049 71.0933L279.049 67.9133C279.049 67.78 278.996 67.6667 278.889 67.5733C278.796 67.4667 278.683 67.4133 278.549 67.4133L269.469 67.4133C269.336 67.4133 269.216 67.4667 269.109 67.5733C269.016 67.6667 268.969 67.78 268.969 67.9133L268.969 68.6933L266.809 68.6933L266.809 67.8533C266.809 67.36 266.923 66.92 267.149 66.5333C267.389 66.1467 267.703 65.8333 268.089 65.5933C268.489 65.3533 268.929 65.2333 269.409 65.2333L278.609 65.2333C279.076 65.2333 279.503 65.3533 279.889 65.5933C280.289 65.8333 280.609 66.1467 280.849 66.5333C281.089 66.92 281.209 67.36 281.209 67.8533L281.209 71.1533C281.209 71.6333 281.089 72.0733 280.849 72.4733C280.609 72.86 280.289 73.1733 279.889 73.4133C279.503 73.64 279.076 73.7533 278.609 73.7533L269.469 73.7533C269.336 73.7533 269.216 73.8067 269.109 73.9133C269.016 74.0067 268.969 74.12 268.969 74.2533L268.969 76.9933C268.969 77.1267 269.016 77.2467 269.109 77.3533C269.216 77.4467 269.336 77.4933 269.469 77.4933L281.209 77.4933L281.209 79.6533L266.809 79.6533ZM289.252 72.7733L289.252 70.6133L299.652 70.6133L299.652 72.7733L289.252 72.7733ZM289.252 76.7933L289.252 74.6333L299.652 74.6333L299.652 76.7933L289.252 76.7933ZM310.306 79.6533C309.813 79.6533 309.373 79.5333 308.986 79.2933C308.6 79.0533 308.286 78.74 308.046 78.3533C307.806 77.9667 307.686 77.5333 307.686 77.0533L307.686 76.4533L309.866 76.4533L309.866 76.9933C309.866 77.1267 309.913 77.2467 310.006 77.3533C310.1 77.4467 310.213 77.4933 310.346 77.4933L319.446 77.4933C319.58 77.4933 319.693 77.4467 319.786 77.3533C319.88 77.2467 319.926 77.1267 319.926 76.9933L319.926 73.9133C319.926 73.78 319.88 73.6667 319.786 73.5733C319.693 73.4667 319.58 73.4133 319.446 73.4133L310.306 73.4133L310.306 71.2533L318.826 71.2533C318.973 71.2533 319.093 71.2067 319.186 71.1133C319.28 71.0067 319.326 70.8867 319.326 70.7533L319.326 67.9133C319.326 67.78 319.28 67.6667 319.186 67.5733C319.093 67.4667 318.973 67.4133 318.826 67.4133L310.346 67.4133C310.213 67.4133 310.1 67.4667 310.006 67.5733C309.913 67.6667 309.866 67.78 309.866 67.9133L309.866 68.6533L307.686 68.6533L307.686 67.8533C307.686 67.36 307.8 66.92 308.026 66.5333C308.266 66.1467 308.586 65.8333 308.986 65.5933C309.386 65.3533 309.826 65.2333 310.306 65.2333L318.886 65.2333C319.38 65.2333 319.82 65.3533 320.206 65.5933C320.606 65.8333 320.92 66.1467 321.146 66.5333C321.373 66.92 321.486 67.36 321.486 67.8533L321.486 70.8133C321.486 70.9867 321.466 71.16 321.426 71.3333C321.4 71.5067 321.353 71.6667 321.286 71.8133C321.58 72.1067 321.786 72.4333 321.906 72.7933C322.026 73.1533 322.086 73.5067 322.086 73.8533L322.086 77.0533C322.086 77.5333 321.966 77.9667 321.726 78.3533C321.5 78.74 321.186 79.0533 320.786 79.2933C320.4 79.5333 319.973 79.6533 319.506 79.6533L310.306 79.6533ZM229.778 104.653L229.778 99.1933C229.778 98.7 229.892 98.26 230.118 97.8733C230.358 97.4867 230.672 97.18 231.058 96.9533C231.458 96.7133 231.898 96.5933 232.378 96.5933L241.518 96.5933C241.652 96.5933 241.765 96.5467 241.858 96.4533C241.965 96.3467 242.018 96.2267 242.018 96.0933L242.018 92.9133C242.018 92.78 241.965 92.6667 241.858 92.5733C241.765 92.4667 241.652 92.4133 241.518 92.4133L232.438 92.4133C232.305 92.4133 232.185 92.4667 232.078 92.5733C231.985 92.6667 231.938 92.78 231.938 92.9133L231.938 93.6933L229.778 93.6933L229.778 92.8533C229.778 92.36 229.892 91.92 230.118 91.5333C230.358 91.1467 230.672 90.8333 231.058 90.5933C231.458 90.3533 231.898 90.2333 232.378 90.2333L241.578 90.2333C242.045 90.2333 242.472 90.3533 242.858 90.5933C243.258 90.8333 243.578 91.1467 243.818 91.5333C244.058 91.92 244.178 92.36 244.178 92.8533L244.178 96.1533C244.178 96.6333 244.058 97.0733 243.818 97.4733C243.578 97.86 243.258 98.1733 242.858 98.4133C242.472 98.64 242.045 98.7533 241.578 98.7533L232.438 98.7533C232.305 98.7533 232.185 98.8067 232.078 98.9133C231.985 99.0067 231.938 99.12 231.938 99.2533L231.938 101.993C231.938 102.127 231.985 102.247 232.078 102.353C232.185 102.447 232.305 102.493 232.438 102.493L244.178 102.493L244.178 104.653L229.778 104.653ZM252.221 97.7733L252.221 95.6133L262.621 95.6133L262.621 97.7733L252.221 97.7733ZM252.221 101.793L252.221 99.6333L262.621 99.6333L262.621 101.793L252.221 101.793ZM274.115 104.653L274.115 93.1133L272.455 95.1133L269.615 95.1133L273.695 90.2533L276.275 90.2533L276.275 104.653L274.115 104.653ZM286.468 98.7533L284.708 97.4933L286.348 95.2133L283.708 94.3533L284.348 92.2733L287.028 93.1733L287.028 90.3733L289.188 90.3733L289.188 93.1533L291.828 92.2733L292.508 94.3533L289.848 95.2133L291.508 97.4733L289.768 98.7533L288.088 96.5133L286.468 98.7533ZM300.149 104.653L300.149 99.1933C300.149 98.7 300.263 98.26 300.489 97.8733C300.729 97.4867 301.043 97.18 301.429 96.9533C301.829 96.7133 302.269 96.5933 302.749 96.5933L311.889 96.5933C312.023 96.5933 312.136 96.5467 312.229 96.4533C312.336 96.3467 312.389 96.2267 312.389 96.0933L312.389 92.9133C312.389 92.78 312.336 92.6667 312.229 92.5733C312.136 92.4667 312.023 92.4133 311.889 92.4133L302.809 92.4133C302.676 92.4133 302.556 92.4667 302.449 92.5733C302.356 92.6667 302.309 92.78 302.309 92.9133L302.309 93.6933L300.149 93.6933L300.149 92.8533C300.149 92.36 300.263 91.92 300.489 91.5333C300.729 91.1467 301.043 90.8333 301.429 90.5933C301.829 90.3533 302.269 90.2333 302.749 90.2333L311.949 90.2333C312.416 90.2333 312.843 90.3533 313.229 90.5933C313.629 90.8333 313.949 91.1467 314.189 91.5333C314.429 91.92 314.549 92.36 314.549 92.8533L314.549 96.1533C314.549 96.6333 314.429 97.0733 314.189 97.4733C313.949 97.86 313.629 98.1733 313.229 98.4133C312.843 98.64 312.416 98.7533 311.949 98.7533L302.809 98.7533C302.676 98.7533 302.556 98.8067 302.449 98.9133C302.356 99.0067 302.309 99.12 302.309 99.2533L302.309 101.993C302.309 102.127 302.356 102.247 302.449 102.353C302.556 102.447 302.676 102.493 302.809 102.493L314.549 102.493L314.549 104.653L300.149 104.653ZM232.318 129.653C231.825 129.653 231.385 129.533 230.998 129.293C230.612 129.053 230.298 128.74 230.058 128.353C229.818 127.967 229.698 127.533 229.698 127.053L229.698 126.453L231.878 126.453L231.878 126.993C231.878 127.127 231.925 127.247 232.018 127.353C232.112 127.447 232.225 127.493 232.358 127.493L241.458 127.493C241.592 127.493 241.705 127.447 241.798 127.353C241.892 127.247 241.938 127.127 241.938 126.993L241.938 123.913C241.938 123.78 241.892 123.667 241.798 123.573C241.705 123.467 241.592 123.413 241.458 123.413L232.318 123.413L232.318 121.253L240.838 121.253C240.985 121.253 241.105 121.207 241.198 121.113C241.292 121.007 241.338 120.887 241.338 120.753L241.338 117.913C241.338 117.78 241.292 117.667 241.198 117.573C241.105 117.467 240.985 117.413 240.838 117.413L232.358 117.413C232.225 117.413 232.112 117.467 232.018 117.573C231.925 117.667 231.878 117.78 231.878 117.913L231.878 118.653L229.698 118.653L229.698 117.853C229.698 117.36 229.812 116.92 230.038 116.533C230.278 116.147 230.598 115.833 230.998 115.593C231.398 115.353 231.838 115.233 232.318 115.233L240.898 115.233C241.392 115.233 241.832 115.353 242.218 115.593C242.618 115.833 242.932 116.147 243.158 116.533C243.385 116.92 243.498 117.36 243.498 117.853L243.498 120.813C243.498 120.987 243.478 121.16 243.438 121.333C243.412 121.507 243.365 121.667 243.298 121.813C243.592 122.107 243.798 122.433 243.918 122.793C244.038 123.153 244.098 123.507 244.098 123.853L244.098 127.053C244.098 127.533 243.978 127.967 243.738 128.353C243.512 128.74 243.198 129.053 242.798 129.293C242.412 129.533 241.985 129.653 241.518 129.653L232.318 129.653ZM252.142 122.773L252.142 120.613L262.542 120.613L262.542 122.773L252.142 122.773ZM252.142 126.793L252.142 124.633L262.542 124.633L262.542 126.793L252.142 126.793ZM270.657 129.653L270.657 124.193C270.657 123.7 270.77 123.26 270.997 122.873C271.237 122.487 271.55 122.18 271.937 121.953C272.337 121.713 272.777 121.593 273.257 121.593L282.397 121.593C282.53 121.593 282.644 121.547 282.737 121.453C282.844 121.347 282.897 121.227 282.897 121.093L282.897 117.913C282.897 117.78 282.844 117.667 282.737 117.573C282.644 117.467 282.53 117.413 282.397 117.413L273.317 117.413C273.184 117.413 273.064 117.467 272.957 117.573C272.864 117.667 272.817 117.78 272.817 117.913L272.817 118.693L270.657 118.693L270.657 117.853C270.657 117.36 270.77 116.92 270.997 116.533C271.237 116.147 271.55 115.833 271.937 115.593C272.337 115.353 272.777 115.233 273.257 115.233L282.457 115.233C282.924 115.233 283.35 115.353 283.737 115.593C284.137 115.833 284.457 116.147 284.697 116.533C284.937 116.92 285.057 117.36 285.057 117.853L285.057 121.153C285.057 121.633 284.937 122.073 284.697 122.473C284.457 122.86 284.137 123.173 283.737 123.413C283.35 123.64 282.924 123.753 282.457 123.753L273.317 123.753C273.184 123.753 273.064 123.807 272.957 123.913C272.864 124.007 272.817 124.12 272.817 124.253L272.817 126.993C272.817 127.127 272.864 127.247 272.957 127.353C273.064 127.447 273.184 127.493 273.317 127.493L285.057 127.493L285.057 129.653L270.657 129.653ZM295.179 123.753L293.419 122.493L295.059 120.213L292.419 119.353L293.059 117.273L295.739 118.173L295.739 115.373L297.899 115.373L297.899 118.153L300.539 117.273L301.219 119.353L298.559 120.213L300.219 122.473L298.479 123.753L296.799 121.513L295.179 123.753ZM308.86 129.653L308.86 124.193C308.86 123.7 308.974 123.26 309.2 122.873C309.44 122.487 309.754 122.18 310.14 121.953C310.54 121.713 310.98 121.593 311.46 121.593L320.6 121.593C320.734 121.593 320.847 121.547 320.94 121.453C321.047 121.347 321.1 121.227 321.1 121.093L321.1 117.913C321.1 117.78 321.047 117.667 320.94 117.573C320.847 117.467 320.734 117.413 320.6 117.413L311.52 117.413C311.387 117.413 311.267 117.467 311.16 117.573C311.067 117.667 311.02 117.78 311.02 117.913L311.02 118.693L308.86 118.693L308.86 117.853C308.86 117.36 308.974 116.92 309.2 116.533C309.44 116.147 309.754 115.833 310.14 115.593C310.54 115.353 310.98 115.233 311.46 115.233L320.66 115.233C321.127 115.233 321.554 115.353 321.94 115.593C322.34 115.833 322.66 116.147 322.9 116.533C323.14 116.92 323.26 117.36 323.26 117.853L323.26 121.153C323.26 121.633 323.14 122.073 322.9 122.473C322.66 122.86 322.34 123.173 321.94 123.413C321.554 123.64 321.127 123.753 320.66 123.753L311.52 123.753C311.387 123.753 311.267 123.807 311.16 123.913C311.067 124.007 311.02 124.12 311.02 124.253L311.02 126.993C311.02 127.127 311.067 127.247 311.16 127.353C311.267 127.447 311.387 127.493 311.52 127.493L323.26 127.493L323.26 129.653L308.86 129.653ZM231.858 152.753L231.858 149.813L228.978 149.813L228.978 147.653L231.858 147.653L231.858 144.753L234.018 144.753L234.018 147.653L236.978 147.653L236.978 149.813L234.018 149.813L234.018 152.753L231.858 152.753ZM246.487 152.753L246.487 149.813L243.607 149.813L243.607 147.653L246.487 147.653L246.487 144.753L248.647 144.753L248.647 147.653L251.607 147.653L251.607 149.813L248.647 149.813L248.647 152.753L246.487 152.753ZM259.076 147.773L259.076 145.613L269.476 145.613L269.476 147.773L259.076 147.773ZM259.076 151.793L259.076 149.633L269.476 149.633L269.476 151.793L259.076 151.793ZM277.631 149.813L277.631 147.653L285.631 147.653L285.631 149.813L277.631 149.813Z" fill="#FFF9B5"/>
</svg>
