<svg width="91" height="90" viewBox="0 0 91 90" fill="none" xmlns="http://www.w3.org/2000/svg">
<path d="M45.7181 0.992432C28.5787 0.992432 13.6797 10.3924 6.09705 24.2261H22.97V34.1901H2.14905C1.91405 35.0988 1.71038 36.0388 1.52238 36.9631H31.9V46.9271H0.817383C0.864383 47.8671 0.927049 48.7914 1.02105 49.7001H40.83V59.6641H3.33972C3.68438 60.6041 4.04472 61.5284 4.45205 62.4371H49.7757V72.4011H10.5464C11.3297 73.3568 12.1444 74.2811 13.0061 75.1741H58.7057V85.1381H27.2627C32.887 87.6291 39.1381 89.0078 45.7181 89.0078C70.534 89.0078 90.6657 69.2991 90.6657 45.0001C90.6657 20.7011 70.534 0.992432 45.7181 0.992432ZM39.8274 37.3861C39.5767 37.3861 39.3731 37.1824 39.3731 36.9474C39.3731 36.7124 39.5767 36.5088 39.8274 36.5088C40.078 36.5088 40.2817 36.7124 40.2817 36.9474C40.2817 37.1824 40.078 37.3861 39.8274 37.3861ZM42.8041 23.1138C42.945 23.1138 43.086 23.1138 43.227 23.0981C42.1304 23.5681 40.924 23.8344 39.655 23.8344C34.814 23.8344 30.8817 19.9804 30.8817 15.2334C30.8817 10.4864 34.814 6.63243 39.655 6.63243C40.924 6.63243 42.1304 6.89876 43.227 7.36876C43.086 7.36876 42.945 7.3531 42.8041 7.3531C38.3704 7.3531 34.767 10.8781 34.767 15.2178C34.767 19.5888 38.3704 23.1138 42.8041 23.1138ZM50.3241 14.7008H51.4677L51.828 13.6354L52.1884 14.7008H53.332L52.4077 15.3588L52.7681 16.4241L51.8437 15.7661L50.9194 16.4241L51.2797 15.3588L50.3241 14.7008ZM55.0397 47.8514L53.8177 46.9741L52.5957 47.8514L53.0657 46.4414L51.8437 45.5641H53.3634L53.8334 44.1541L54.3034 45.5641H55.8231L54.601 46.4414L55.0397 47.8514ZM69.9857 15.1081C70.4871 15.1081 70.8787 15.4998 70.8787 15.9854C70.8787 16.4711 70.4714 16.8628 69.9857 16.8628C69.4844 16.8628 69.0927 16.4711 69.0927 15.9854C69.077 15.4998 69.4844 15.1081 69.9857 15.1081ZM62.0741 56.4368C61.8391 56.4368 61.651 56.2488 61.651 56.0294C61.651 55.8101 61.8391 55.6221 62.0741 55.6221C62.309 55.6221 62.497 55.8101 62.497 56.0294C62.4814 56.2488 62.2934 56.4368 62.0741 56.4368ZM66.8994 78.0411C66.351 78.0411 65.8967 77.6024 65.8967 77.0698C65.8967 76.5371 66.3354 76.0984 66.8994 76.0984C67.4477 76.0984 67.902 76.5371 67.902 77.0698C67.902 77.6181 67.4477 78.0411 66.8994 78.0411ZM73.871 63.7531L72.9937 63.1264L72.1164 63.7531L72.4454 62.7504L71.568 62.1238H72.649L72.9781 61.1211L73.307 62.1238H74.3881L73.5107 62.7504L73.871 63.7531ZM74.8737 33.3598C74.529 33.4068 74.1687 33.4538 73.7927 33.4851C73.166 35.7098 71.098 37.3234 68.6227 37.3234C66.163 37.3234 64.0794 35.6941 63.4527 33.4851C63.0767 33.4538 62.7164 33.4068 62.3717 33.3598C59.7867 32.9994 59.4264 32.5294 59.4264 32.0751C59.4264 31.6208 59.7867 31.1508 62.3717 30.7904C62.7164 30.7434 63.0767 30.6964 63.4527 30.6651C64.0794 28.4404 66.1474 26.8268 68.6227 26.8268C71.0824 26.8268 73.166 28.4561 73.7927 30.6651C74.1687 30.6964 74.529 30.7434 74.8737 30.7904C77.4587 31.1508 77.819 31.6208 77.819 32.0751C77.819 32.5451 77.4587 33.0151 74.8737 33.3598ZM82.7697 48.4624C82.4251 48.4624 82.1431 48.1804 82.1431 47.8514C82.1431 47.5224 82.4251 47.2404 82.7697 47.2404C83.1144 47.2404 83.3964 47.5224 83.3964 47.8514C83.3964 48.1804 83.1301 48.4624 82.7697 48.4624Z" fill="white" fill-opacity="0.3"/>
</svg>
