<svg width="1725" height="60" viewBox="0 0 1725 60" fill="none" xmlns="http://www.w3.org/2000/svg">
<path d="M633.08 48V13.392H640.52V40.512H667.64V48H633.08ZM670.246 48V20.16H677.59V48H670.246ZM670.246 18.432V11.04H677.59V18.432H670.246ZM695.508 48L680.196 20.16H688.644L698.676 38.64L708.708 20.16H717.156L701.796 48H695.508ZM725.064 48C723.816 48 722.664 47.68 721.608 47.04C720.552 46.4 719.704 45.552 719.064 44.496C718.424 43.44 718.104 42.288 718.104 41.04V27.12C718.104 25.872 718.424 24.72 719.064 23.664C719.704 22.608 720.552 21.76 721.608 21.12C722.664 20.48 723.816 20.16 725.064 20.16H739.368C740.648 20.16 741.816 20.48 742.872 21.12C743.928 21.76 744.76 22.608 745.368 23.664C746.008 24.72 746.328 25.872 746.328 27.12V37.776H725.448V40.656H746.328V48H725.064ZM725.448 31.344H738.984V27.504H725.448V31.344ZM751.483 27.552V20.16H758.827V27.552H751.483ZM751.483 48V40.656H758.827V48H751.483ZM794.376 48V13.488H821.784C823.096 13.488 824.28 13.808 825.336 14.448C826.424 15.088 827.288 15.952 827.928 17.04C828.6 18.128 828.936 19.312 828.936 20.592V29.52C828.936 30.8 828.6 31.984 827.928 33.072C827.288 34.16 826.424 35.024 825.336 35.664C824.28 36.304 823.096 36.624 821.784 36.624L801.816 36.672V48H794.376ZM801.816 29.136H821.4V20.928H801.816V29.136ZM832.152 48V27.12C832.152 25.872 832.472 24.72 833.112 23.664C833.752 22.608 834.6 21.76 835.656 21.12C836.712 20.48 837.88 20.16 839.16 20.16H854.52V27.504H839.496V48H832.152ZM864.564 48C863.316 48 862.164 47.68 861.108 47.04C860.052 46.4 859.204 45.552 858.564 44.496C857.924 43.44 857.604 42.288 857.604 41.04V27.12C857.604 25.872 857.924 24.72 858.564 23.664C859.204 22.608 860.052 21.76 861.108 21.12C862.164 20.48 863.316 20.16 864.564 20.16H878.868C880.148 20.16 881.316 20.48 882.372 21.12C883.428 21.76 884.26 22.608 884.868 23.664C885.508 24.72 885.828 25.872 885.828 27.12V41.04C885.828 42.288 885.508 43.44 884.868 44.496C884.26 45.552 883.428 46.4 882.372 47.04C881.316 47.68 880.148 48 878.868 48H864.564ZM864.948 40.656H878.484V27.504H864.948V40.656ZM879.415 57.984V50.592H891.175V20.16H898.519V51.024C898.519 52.304 898.199 53.472 897.559 54.528C896.919 55.584 896.071 56.416 895.015 57.024C893.959 57.664 892.791 57.984 891.511 57.984H879.415ZM891.175 18.432V11.04H898.519V18.432H891.175ZM909.283 48C908.035 48 906.883 47.68 905.827 47.04C904.771 46.4 903.923 45.552 903.283 44.496C902.643 43.44 902.323 42.288 902.323 41.04V27.12C902.323 25.872 902.643 24.72 903.283 23.664C903.923 22.608 904.771 21.76 905.827 21.12C906.883 20.48 908.035 20.16 909.283 20.16H923.587C924.867 20.16 926.035 20.48 927.091 21.12C928.147 21.76 928.979 22.608 929.587 23.664C930.227 24.72 930.547 25.872 930.547 27.12V37.776H909.667V40.656H930.547V48H909.283ZM909.667 31.344H923.203V27.504H909.667V31.344ZM941.346 48C940.098 48 938.946 47.68 937.89 47.04C936.834 46.4 935.986 45.552 935.346 44.496C934.706 43.44 934.386 42.288 934.386 41.04V27.12C934.386 25.872 934.706 24.72 935.346 23.664C935.986 22.608 936.834 21.76 937.89 21.12C938.946 20.48 940.098 20.16 941.346 20.16H962.562V27.504H941.73V40.656H962.61V48H941.346ZM973.552 48C972.272 48 971.104 47.68 970.048 47.04C968.992 46.4 968.144 45.552 967.504 44.496C966.864 43.44 966.544 42.288 966.544 41.04V11.904H973.888V20.16H984.208V27.504H973.888V40.656H984.208V48H973.552ZM1003.81 48V13.44H1011.49L1023.21 27.408L1034.87 13.44H1042.6V48H1035.11V24.816L1023.21 39.024L1011.25 24.864V48H1003.81ZM1055.06 48C1053.82 48 1052.66 47.68 1051.61 47.04C1050.55 46.4 1049.7 45.552 1049.06 44.496C1048.42 43.44 1048.1 42.288 1048.1 41.04V27.12C1048.1 25.872 1048.42 24.72 1049.06 23.664C1049.7 22.608 1050.55 21.76 1051.61 21.12C1052.66 20.48 1053.82 20.16 1055.06 20.16H1069.37C1070.65 20.16 1071.82 20.48 1072.87 21.12C1073.93 21.76 1074.76 22.608 1075.37 23.664C1076.01 24.72 1076.33 25.872 1076.33 27.12V37.776H1055.45V40.656H1076.33V48H1055.06ZM1055.45 31.344H1068.98V27.504H1055.45V31.344ZM1081.06 48V27.12C1081.06 25.872 1081.38 24.72 1082.02 23.664C1082.66 22.608 1083.51 21.76 1084.56 21.12C1085.62 20.48 1086.79 20.16 1088.07 20.16H1103.43V27.504H1088.4V48H1081.06ZM1113.24 48C1111.99 48 1110.84 47.68 1109.78 47.04C1108.72 46.4 1107.88 45.552 1107.24 44.496C1106.6 43.44 1106.28 42.288 1106.28 41.04V27.12C1106.28 25.872 1106.6 24.72 1107.24 23.664C1107.88 22.608 1108.72 21.76 1109.78 21.12C1110.84 20.48 1111.99 20.16 1113.24 20.16H1134.45V27.504H1113.62V40.656H1134.5V48H1113.24ZM1145.44 48C1144.16 48 1142.99 47.68 1141.94 47.04C1140.88 46.4 1140.03 45.552 1139.39 44.496C1138.79 43.44 1138.48 42.288 1138.48 41.04V20.16H1145.83V40.656H1159.36V20.16H1166.71V41.04C1166.71 42.288 1166.39 43.44 1165.75 44.496C1165.14 45.552 1164.31 46.4 1163.25 47.04C1162.19 47.68 1161.03 48 1159.75 48H1145.44ZM1171.81 48V27.12C1171.81 25.872 1172.13 24.72 1172.77 23.664C1173.41 22.608 1174.26 21.76 1175.31 21.12C1176.37 20.48 1177.54 20.16 1178.82 20.16H1194.18V27.504H1179.15V48H1171.81ZM1201.01 57.984V50.592H1217.52V48H1203.6C1202.32 48 1201.15 47.68 1200.1 47.04C1199.04 46.4 1198.19 45.552 1197.55 44.496C1196.91 43.44 1196.59 42.288 1196.59 41.04V20.256H1203.94V40.656H1217.52V20.256H1224.87V51.024C1224.87 52.304 1224.55 53.472 1223.91 54.528C1223.3 55.584 1222.47 56.416 1221.41 57.024C1220.35 57.664 1219.19 57.984 1217.91 57.984H1201.01Z" fill="#FDE1B9"/>
<circle cx="596.933" cy="29.9333" r="18.4333" stroke="#FDE1B9" stroke-width="3"/>
<circle cx="596.933" cy="29.9328" r="10.236" fill="#FDE1B9"/>
<path d="M10 47.9001L36.1 18.1001H25.9L0 48.1001L10 47.9001Z" fill="#FDE1B9"/>
<path d="M0.5 37L17.4 18H7.29999L0.5 26V37Z" fill="#FDE1B9"/>
<path d="M28.7002 47.7L54.7002 18H44.6002L18.7002 47.9L28.7002 47.7Z" fill="#FDE1B9"/>
<path d="M47.4004 47.7L73.4004 18H63.3004L37.4004 47.9L47.4004 47.7Z" fill="#FDE1B9"/>
<path d="M66 47.7L92.1 18H81.9L56 47.9L66 47.7Z" fill="#FDE1B9"/>
<path d="M84.7002 47.7L110.7 18H100.6L74.7002 47.9L84.7002 47.7Z" fill="#FDE1B9"/>
<path d="M103 47.7L129 18H118.9L93 47.9L103 47.7Z" fill="#FDE1B9"/>
<path d="M122 47.7L148 18H137.9L112 47.9L122 47.7Z" fill="#FDE1B9"/>
<path d="M140 47.7L166 18H155.9L130 47.9L140 47.7Z" fill="#FDE1B9"/>
<path d="M158 47.7L184 18H173.9L148 47.9L158 47.7Z" fill="#FDE1B9"/>
<path d="M178 47.7L204 18H193.9L168 47.9L178 47.7Z" fill="#FDE1B9"/>
<path d="M197 47.7L223 18H212.9L187 47.9L197 47.7Z" fill="#FDE1B9"/>
<path d="M216 47.7L242 18H231.9L206 47.9L216 47.7Z" fill="#FDE1B9"/>
<path d="M236 47.7L262 18H251.9L226 47.9L236 47.7Z" fill="#FDE1B9"/>
<path d="M255 47.7L281 18H270.9L245 47.9L255 47.7Z" fill="#FDE1B9"/>
<path d="M275 47.7L283.1 37V27L265 47.9L275 47.7Z" fill="#FDE1B9"/>
<path d="M294 47.9001L320.1 18.1001H309.9L284 48.1001L294 47.9001Z" fill="#FDE1B9"/>
<path d="M284.5 37L301.4 18H291.3L284.5 26V37Z" fill="#FDE1B9"/>
<path d="M312.699 47.7L338.699 18H328.599L302.699 47.9L312.699 47.7Z" fill="#FDE1B9"/>
<path d="M331.4 47.7L357.4 18H347.3L321.4 47.9L331.4 47.7Z" fill="#FDE1B9"/>
<path d="M350 47.7L376.1 18H365.9L340 47.9L350 47.7Z" fill="#FDE1B9"/>
<path d="M368.699 47.7L394.699 18H384.599L358.699 47.9L368.699 47.7Z" fill="#FDE1B9"/>
<path d="M387 47.7L413 18H402.9L377 47.9L387 47.7Z" fill="#FDE1B9"/>
<path d="M406 47.7L432 18H421.9L396 47.9L406 47.7Z" fill="#FDE1B9"/>
<path d="M424 47.7L450 18H439.9L414 47.9L424 47.7Z" fill="#FDE1B9"/>
<path d="M442 47.7L468 18H457.9L432 47.9L442 47.7Z" fill="#FDE1B9"/>
<path d="M462 47.7L488 18H477.9L452 47.9L462 47.7Z" fill="#FDE1B9"/>
<path d="M481 47.7L507 18H496.9L471 47.9L481 47.7Z" fill="#FDE1B9"/>
<path d="M500 47.7L526 18H515.9L490 47.9L500 47.7Z" fill="#FDE1B9"/>
<path d="M520 47.7L546 18H535.9L510 47.9L520 47.7Z" fill="#FDE1B9"/>
<path d="M539 47.7L565 18H554.9L529 47.9L539 47.7Z" fill="#FDE1B9"/>
<path d="M559 47.7L567.1 37V27L549 47.9L559 47.7Z" fill="#FDE1B9"/>
<path d="M1491 47.9001L1517.1 18.1001H1506.9L1481 48.1001L1491 47.9001Z" fill="#FDE1B9"/>
<path d="M1481.5 37L1498.4 18H1488.3L1481.5 26V37Z" fill="#FDE1B9"/>
<path d="M1509.7 47.7L1535.7 18H1525.6L1499.7 47.9L1509.7 47.7Z" fill="#FDE1B9"/>
<path d="M1528.4 47.7L1554.4 18H1544.3L1518.4 47.9L1528.4 47.7Z" fill="#FDE1B9"/>
<path d="M1547 47.7L1573.1 18H1562.9L1537 47.9L1547 47.7Z" fill="#FDE1B9"/>
<path d="M1565.7 47.7L1591.7 18H1581.6L1555.7 47.9L1565.7 47.7Z" fill="#FDE1B9"/>
<path d="M1584 47.7L1610 18H1599.9L1574 47.9L1584 47.7Z" fill="#FDE1B9"/>
<path d="M1603 47.7L1629 18H1618.9L1593 47.9L1603 47.7Z" fill="#FDE1B9"/>
<path d="M1621 47.7L1647 18H1636.9L1611 47.9L1621 47.7Z" fill="#FDE1B9"/>
<path d="M1639 47.7L1665 18H1654.9L1629 47.9L1639 47.7Z" fill="#FDE1B9"/>
<path d="M1659 47.7L1685 18H1674.9L1649 47.9L1659 47.7Z" fill="#FDE1B9"/>
<path d="M1677 47.7L1703 18H1692.9L1667 47.9L1677 47.7Z" fill="#FDE1B9"/>
<path d="M1696 47.7L1722 18H1711.9L1686 47.9L1696 47.7Z" fill="#FDE1B9"/>
<path d="M1716 47.7L1724.1 37V27L1706 47.9L1716 47.7Z" fill="#FDE1B9"/>
<path d="M1248 47.9001L1274.1 18.1001H1263.9L1238 48.1001L1248 47.9001Z" fill="#FDE1B9"/>
<path d="M1238.5 37L1255.4 18H1245.3L1238.5 26V37Z" fill="#FDE1B9"/>
<path d="M1266.7 47.7L1292.7 18H1282.6L1256.7 47.9L1266.7 47.7Z" fill="#FDE1B9"/>
<path d="M1285.4 47.7L1311.4 18H1301.3L1275.4 47.9L1285.4 47.7Z" fill="#FDE1B9"/>
<path d="M1304 47.7L1330.1 18H1319.9L1294 47.9L1304 47.7Z" fill="#FDE1B9"/>
<path d="M1322.7 47.7L1348.7 18H1338.6L1312.7 47.9L1322.7 47.7Z" fill="#FDE1B9"/>
<path d="M1341 47.7L1367 18H1356.9L1331 47.9L1341 47.7Z" fill="#FDE1B9"/>
<path d="M1360 47.7L1386 18H1375.9L1350 47.9L1360 47.7Z" fill="#FDE1B9"/>
<path d="M1378 47.7L1404 18H1393.9L1368 47.9L1378 47.7Z" fill="#FDE1B9"/>
<path d="M1396 47.7L1422 18H1411.9L1386 47.9L1396 47.7Z" fill="#FDE1B9"/>
<path d="M1416 47.7L1442 18H1431.9L1406 47.9L1416 47.7Z" fill="#FDE1B9"/>
<path d="M1434 47.7L1460 18H1449.9L1424 47.9L1434 47.7Z" fill="#FDE1B9"/>
<path d="M1453 47.7L1479 18H1468.9L1443 47.9L1453 47.7Z" fill="#FDE1B9"/>
<path d="M1473 47.7L1481.1 37V27L1463 47.9L1473 47.7Z" fill="#FDE1B9"/>
</svg>
