<svg width="223" height="70" viewBox="0 0 223 70" fill="none" xmlns="http://www.w3.org/2000/svg">
<rect width="223" height="70" rx="35" fill="url(#paint0_linear_936_35639)"/>
<path d="M32.3823 44L27.0783 37.664H30.8463L35.6223 43.328V44H32.3823ZM18.4143 44V26.744H32.4543C33.0463 26.744 33.5823 26.896 34.0623 27.2C34.5583 27.488 34.9503 27.88 35.2383 28.376C35.5423 28.856 35.6943 29.392 35.6943 29.984V34.736C35.6943 35.312 35.5423 35.848 35.2383 36.344C34.9503 36.84 34.5583 37.232 34.0623 37.52C33.5823 37.808 33.0463 37.952 32.4543 37.952L21.2943 37.976V44H18.4143ZM21.7263 35.048H32.3583C32.4703 35.048 32.5663 35.008 32.6463 34.928C32.7423 34.848 32.7903 34.744 32.7903 34.616V30.056C32.7903 29.944 32.7423 29.848 32.6463 29.768C32.5663 29.672 32.4703 29.624 32.3583 29.624H21.7263C21.6143 29.624 21.5103 29.672 21.4143 29.768C21.3343 29.848 21.2943 29.944 21.2943 30.056V34.616C21.2943 34.744 21.3343 34.848 21.4143 34.928C21.5103 35.008 21.6143 35.048 21.7263 35.048ZM41.315 44C40.723 44 40.187 43.856 39.707 43.568C39.227 43.264 38.835 42.872 38.531 42.392C38.243 41.912 38.099 41.376 38.099 40.784V33.296C38.099 32.704 38.243 32.168 38.531 31.688C38.835 31.208 39.227 30.824 39.707 30.536C40.187 30.232 40.723 30.08 41.315 30.08H49.019C49.627 30.08 50.171 30.232 50.651 30.536C51.131 30.824 51.515 31.208 51.803 31.688C52.091 32.168 52.235 32.704 52.235 33.296V38.48H40.955V40.688C40.955 40.816 40.995 40.928 41.075 41.024C41.171 41.104 41.283 41.144 41.411 41.144H52.235V44H41.315ZM40.955 35.864H49.379V33.392C49.379 33.264 49.331 33.16 49.235 33.08C49.155 32.984 49.051 32.936 48.923 32.936H41.411C41.283 32.936 41.171 32.984 41.075 33.08C40.995 33.16 40.955 33.264 40.955 33.392V35.864ZM57.9562 44C57.3642 44 56.8202 43.856 56.3242 43.568C55.8442 43.264 55.4602 42.872 55.1722 42.392C54.8842 41.912 54.7402 41.376 54.7402 40.784V35.6H66.0202V33.392C66.0202 33.264 65.9722 33.16 65.8762 33.08C65.7962 32.984 65.6922 32.936 65.5642 32.936H54.7402V30.08H65.6602C66.2682 30.08 66.8122 30.232 67.2922 30.536C67.7722 30.824 68.1562 31.208 68.4442 31.688C68.7322 32.168 68.8762 32.704 68.8762 33.296V44H57.9562ZM58.0522 41.144H66.0202V38.216H57.5962V40.688C57.5962 40.816 57.6362 40.928 57.7162 41.024C57.8122 41.104 57.9242 41.144 58.0522 41.144ZM73.9243 44C73.3323 44 72.7883 43.856 72.2923 43.568C71.8123 43.264 71.4283 42.872 71.1403 42.392C70.8523 41.912 70.7083 41.376 70.7083 40.784V33.296C70.7083 32.704 70.8523 32.168 71.1403 31.688C71.4283 31.208 71.8123 30.824 72.2923 30.536C72.7883 30.232 73.3323 30.08 73.9243 30.08H82.0123V25.52H84.8683V44H73.9243ZM74.0443 41.144H81.5563C81.6843 41.144 81.7883 41.104 81.8683 41.024C81.9643 40.928 82.0123 40.816 82.0123 40.688V33.392C82.0123 33.264 81.9643 33.16 81.8683 33.08C81.7883 32.984 81.6843 32.936 81.5563 32.936H74.0443C73.9163 32.936 73.8043 32.984 73.7083 33.08C73.6283 33.16 73.5883 33.264 73.5883 33.392V40.688C73.5883 40.816 73.6283 40.928 73.7083 41.024C73.8043 41.104 73.9163 41.144 74.0443 41.144ZM94.6565 44V26.72H97.9445L104.425 34.448L110.881 26.72H114.193V44H111.289V30.752L104.425 38.936L97.5365 30.776V44H94.6565ZM120.018 44C119.426 44 118.89 43.856 118.41 43.568C117.93 43.264 117.538 42.872 117.234 42.392C116.946 41.912 116.802 41.376 116.802 40.784V33.296C116.802 32.704 116.946 32.168 117.234 31.688C117.538 31.208 117.93 30.824 118.41 30.536C118.89 30.232 119.426 30.08 120.018 30.08H127.722C128.33 30.08 128.874 30.232 129.354 30.536C129.834 30.824 130.218 31.208 130.506 31.688C130.794 32.168 130.938 32.704 130.938 33.296V40.784C130.938 41.376 130.794 41.912 130.506 42.392C130.218 42.872 129.834 43.264 129.354 43.568C128.874 43.856 128.33 44 127.722 44H120.018ZM120.114 41.144H127.626C127.754 41.144 127.858 41.104 127.938 41.024C128.034 40.928 128.082 40.816 128.082 40.688V33.392C128.082 33.264 128.034 33.16 127.938 33.08C127.858 32.984 127.754 32.936 127.626 32.936H120.114C119.986 32.936 119.874 32.984 119.778 33.08C119.698 33.16 119.658 33.264 119.658 33.392V40.688C119.658 40.816 119.698 40.928 119.778 41.024C119.874 41.104 119.986 41.144 120.114 41.144ZM132.998 44V33.296C132.998 32.704 133.142 32.168 133.43 31.688C133.734 31.208 134.126 30.824 134.606 30.536C135.102 30.232 135.638 30.08 136.214 30.08H143.966V32.936H136.31C136.182 32.936 136.07 32.984 135.974 33.08C135.894 33.16 135.854 33.264 135.854 33.392V44H132.998ZM148.753 44C148.161 44 147.625 43.856 147.145 43.568C146.665 43.264 146.273 42.872 145.969 42.392C145.681 41.912 145.537 41.376 145.537 40.784V33.296C145.537 32.704 145.681 32.168 145.969 31.688C146.273 31.208 146.665 30.824 147.145 30.536C147.625 30.232 148.161 30.08 148.753 30.08H156.457C157.065 30.08 157.609 30.232 158.089 30.536C158.569 30.824 158.953 31.208 159.241 31.688C159.529 32.168 159.673 32.704 159.673 33.296V38.48H148.393V40.688C148.393 40.816 148.433 40.928 148.513 41.024C148.609 41.104 148.721 41.144 148.849 41.144H159.673V44H148.753ZM148.393 35.864H156.817V33.392C156.817 33.264 156.769 33.16 156.673 33.08C156.593 32.984 156.489 32.936 156.361 32.936H148.849C148.721 32.936 148.609 32.984 148.513 33.08C148.433 33.16 148.393 33.264 148.393 33.392V35.864Z" fill="black"/>
<path d="M169 33C167.895 33 167 33.8954 167 35C167 36.1046 167.895 37 169 37L169 33ZM208.414 36.4142C209.195 35.6332 209.195 34.3668 208.414 33.5858L195.686 20.8579C194.905 20.0768 193.639 20.0768 192.858 20.8579C192.077 21.6389 192.077 22.9052 192.858 23.6863L204.172 35L192.858 46.3137C192.077 47.0948 192.077 48.3611 192.858 49.1421C193.639 49.9232 194.905 49.9232 195.686 49.1421L208.414 36.4142ZM169 37L207 37L207 33L169 33L169 37Z" fill="black"/>
<defs>
<linearGradient id="paint0_linear_936_35639" x1="-5.00217" y1="70" x2="251.077" y2="70" gradientUnits="userSpaceOnUse">
<stop stop-color="#B1B1B1"/>
<stop offset="1" stop-color="#4A4A4A"/>
</linearGradient>
</defs>
</svg>
