<svg width="612" height="174" viewBox="0 0 612 174" fill="none" xmlns="http://www.w3.org/2000/svg">
<path d="M54.6245 3H1V173H54.6245" stroke="#FDE1B9" stroke-width="2"/>
<path d="M556.875 173L610.5 173L610.5 3L556.876 3" stroke="#FDE1B9" stroke-width="2"/>
<path d="M126.264 40L109.584 11.2H116.784L128.864 32.12L140.944 11.2H148.104L131.424 40H126.264ZM156.181 40C155.114 40 154.141 39.7333 153.261 39.2C152.381 38.6667 151.674 37.96 151.141 37.08C150.634 36.2 150.381 35.24 150.381 34.2V25.32H167.781V22.92H150.381V16.8H168.101C169.167 16.8 170.141 17.0667 171.021 17.6C171.901 18.1333 172.594 18.84 173.101 19.72C173.634 20.6 173.901 21.56 173.901 22.6V40H156.181ZM156.501 33.88H167.781V30.68H156.501V33.88ZM182.9 40C181.86 40 180.9 39.7333 180.02 39.2C179.14 38.6667 178.433 37.96 177.9 37.08C177.366 36.2 177.1 35.24 177.1 34.2V9.16H183.26V33.88H187.94V40H182.9ZM196.846 40C195.779 40 194.806 39.7333 193.926 39.2C193.046 38.6667 192.339 37.96 191.806 37.08C191.299 36.2 191.046 35.24 191.046 34.2V16.8H197.166V33.88H208.446V16.8H214.566V34.2C214.566 35.24 214.299 36.2 213.766 37.08C213.259 37.96 212.566 38.6667 211.686 39.2C210.806 39.7333 209.832 40 208.766 40H196.846ZM223.602 40C222.562 40 221.602 39.7333 220.722 39.2C219.842 38.6667 219.135 37.96 218.602 37.08C218.068 36.2 217.802 35.24 217.802 34.2V22.6C217.802 21.56 218.068 20.6 218.602 19.72C219.135 18.84 219.842 18.1333 220.722 17.6C221.602 17.0667 222.562 16.8 223.602 16.8H235.522C236.588 16.8 237.562 17.0667 238.442 17.6C239.322 18.1333 240.015 18.84 240.522 19.72C241.055 20.6 241.322 21.56 241.322 22.6V31.48H223.922V33.88H241.322V40H223.602ZM223.922 26.12H235.202V22.92H223.922V26.12ZM258.668 40V11.2H281.508C282.601 11.2 283.588 11.4667 284.468 12C285.374 12.5333 286.094 13.2533 286.628 14.16C287.188 15.04 287.468 16.0267 287.468 17.12V34.08C287.468 35.1467 287.188 36.1333 286.628 37.04C286.094 37.9467 285.374 38.6667 284.468 39.2C283.588 39.7333 282.601 40 281.508 40H258.668ZM264.828 33.76H281.188V17.44H264.828V33.76ZM291.396 40V16.8H297.516V40H291.396ZM291.396 15.36V9.2H297.516V15.36H291.396ZM307.779 40C306.739 40 305.779 39.7333 304.899 39.2C304.019 38.6667 303.312 37.96 302.779 37.08C302.245 36.2 301.979 35.24 301.979 34.2V33.04H308.099V33.88H319.379V31.48H307.779C306.739 31.48 305.779 31.2133 304.899 30.68C304.019 30.1467 303.312 29.44 302.779 28.56C302.245 27.68 301.979 26.72 301.979 25.68V22.6C301.979 21.56 302.245 20.6 302.779 19.72C303.312 18.84 304.019 18.1333 304.899 17.6C305.779 17.0667 306.739 16.8 307.779 16.8H319.699C320.765 16.8 321.739 17.0667 322.619 17.6C323.499 18.1333 324.205 18.84 324.739 19.72C325.272 20.6 325.539 21.56 325.539 22.6V23.76H319.379V22.92H308.099V25.32H319.699C320.765 25.32 321.739 25.5867 322.619 26.12C323.499 26.6533 324.205 27.36 324.739 28.24C325.272 29.12 325.539 30.08 325.539 31.12V34.2C325.539 35.24 325.272 36.2 324.739 37.08C324.205 37.96 323.499 38.6667 322.619 39.2C321.739 39.7333 320.765 40 319.699 40H307.779ZM335.44 40C334.374 40 333.4 39.7333 332.52 39.2C331.64 38.6667 330.934 37.96 330.4 37.08C329.867 36.2 329.6 35.24 329.6 34.2V9.92H335.72V16.8H344.32V22.92H335.72V33.88H344.32V40H335.44ZM347.998 40V22.6C347.998 21.56 348.265 20.6 348.798 19.72C349.331 18.84 350.038 18.1333 350.918 17.6C351.798 17.0667 352.771 16.8 353.838 16.8H366.638V22.92H354.118V40H347.998ZM369.834 40V16.8H375.954V40H369.834ZM369.834 15.36V9.2H375.954V15.36H369.834ZM379.055 40V9.2H385.175V16.8H396.775C397.841 16.8 398.815 17.0667 399.695 17.6C400.575 18.1333 401.268 18.84 401.775 19.72C402.308 20.6 402.575 21.56 402.575 22.6V34.2C402.575 35.24 402.308 36.2 401.775 37.08C401.268 37.96 400.575 38.6667 399.695 39.2C398.815 39.7333 397.841 40 396.775 40H379.055ZM385.175 33.88H396.455V22.92H385.175V33.88ZM411.104 40C410.037 40 409.064 39.7333 408.184 39.2C407.304 38.6667 406.597 37.96 406.064 37.08C405.557 36.2 405.304 35.24 405.304 34.2V16.8H411.424V33.88H422.704V16.8H428.824V34.2C428.824 35.24 428.557 36.2 428.024 37.08C427.517 37.96 426.824 38.6667 425.944 39.2C425.064 39.7333 424.09 40 423.024 40H411.104ZM437.98 40C436.913 40 435.94 39.7333 435.06 39.2C434.18 38.6667 433.473 37.96 432.94 37.08C432.406 36.2 432.14 35.24 432.14 34.2V9.92H438.26V16.8H446.86V22.92H438.26V33.88H446.86V40H437.98ZM450.342 40V16.8H456.462V40H450.342ZM450.342 15.36V9.2H456.462V15.36H450.342ZM465.242 40C464.202 40 463.242 39.7333 462.362 39.2C461.482 38.6667 460.776 37.96 460.242 37.08C459.709 36.2 459.442 35.24 459.442 34.2V22.6C459.442 21.56 459.709 20.6 460.242 19.72C460.776 18.84 461.482 18.1333 462.362 17.6C463.242 17.0667 464.202 16.8 465.242 16.8H477.162C478.229 16.8 479.202 17.0667 480.082 17.6C480.962 18.1333 481.656 18.84 482.162 19.72C482.696 20.6 482.962 21.56 482.962 22.6V34.2C482.962 35.24 482.696 36.2 482.162 37.08C481.656 37.96 480.962 38.6667 480.082 39.2C479.202 39.7333 478.229 40 477.162 40H465.242ZM465.562 33.88H476.842V22.92H465.562V33.88ZM486.125 40V16.8H503.845C504.912 16.8 505.885 17.0667 506.765 17.6C507.645 18.1333 508.338 18.84 508.845 19.72C509.378 20.6 509.645 21.56 509.645 22.6V40H503.525V22.92H492.245V40H486.125ZM106.418 81.68L106.898 77H110.578L110.938 73.64L116.738 70.48L116.058 77H120.458L119.978 81.68H115.578L114.458 92.32H118.858L118.378 97H113.138L108.778 94.32L110.098 81.68H106.418ZM141.606 94.52L136.686 97.2H128.166L123.806 94.52L125.406 79.48L130.326 76.8H138.846L143.206 79.48L141.606 94.52ZM130.646 81.48L129.486 92.52H136.326L137.486 81.48H130.646ZM175.386 102.32L170.426 105H159.546L160.066 100.32H170.106L170.666 94.76L167.666 96.4H162.426L158.066 93.72L159.586 79.48L164.506 76.8H169.746L172.386 78.44L175.426 76.8H178.066L175.386 102.32ZM170.986 91.72L172.066 81.48H164.826L163.746 91.72H170.986ZM194.725 92.52L195.885 81.48H189.045L187.885 92.52H194.725ZM201.885 76.8L199.725 97.2H197.085L194.405 95.56L191.405 97.2H186.565L182.205 94.52L183.805 79.48L188.725 76.8H193.565L196.205 78.44L199.245 76.8H201.885ZM235.714 79.48L233.874 97H228.394L229.994 81.48H224.154L222.554 97H217.074L218.674 81.48H212.834L211.234 97H205.754L207.874 76.8H212.394L213.154 78.44L216.194 76.8H220.034L223.514 78.96L227.514 76.8H231.354L235.714 79.48ZM256.935 92.32L256.455 97H244.495L240.135 94.32L241.695 79.48L246.615 76.8H253.935L258.295 79.48L257.255 89.04H246.135L245.815 92.32H256.935ZM246.935 81.48L246.575 84.92H252.215L252.575 81.48H246.935ZM283.303 76.8H288.543L292.903 79.48L291.303 94.52L286.383 97.2H281.143L278.463 95.56L275.463 97.2H272.823L275.903 67.8H281.383L280.263 78.44L283.303 76.8ZM279.943 81.48L278.783 92.52H286.023L287.183 81.48H279.943ZM297.322 94.52L299.162 77H304.642L303.002 92.52H309.842L311.482 77H316.962L314.842 97.2H310.322L309.522 95.56L306.522 97.2H301.682L297.322 94.52ZM328.431 77L326.351 97H320.871L322.951 77H328.431ZM323.151 73.28L323.711 67.8H329.591L329.031 73.28H323.151ZM336.995 97L332.635 94.32L335.395 67.8H340.875L338.315 92.32H342.315L341.835 97H336.995ZM352.201 76.8H357.441L360.081 78.44L361.201 67.8H366.681L363.601 97.2H359.081L358.281 95.56L355.281 97.2H350.041L345.681 94.52L347.281 79.48L352.201 76.8ZM358.601 92.52L359.761 81.48H352.521L351.361 92.52H358.601ZM386.74 92.32L386.26 97H374.3L369.94 94.32L371.5 79.48L376.42 76.8H383.74L388.1 79.48L387.06 89.04H375.94L375.62 92.32H386.74ZM376.74 81.48L376.38 84.92H382.02L382.38 81.48H376.74ZM406.237 81.68H399.357L397.757 97H392.277L394.357 77H398.877L399.677 78.64L402.677 77H406.717L406.237 81.68ZM425.485 87.16L424.765 94.32L419.845 97H408.645L409.125 92.32H419.485L419.805 89.24H414.085L409.725 86.56L410.445 79.68L415.365 77H426.165L425.685 81.68H415.725L415.405 84.48H421.125L425.485 87.16ZM454.591 84.36H454.511L449.671 97H443.991L440.951 77H446.031L447.831 89.76H447.911L452.791 77H457.831L460.071 89.76H460.151L464.591 77H469.671L462.471 97H456.791L454.591 84.36ZM477.054 97H471.574L474.614 67.8H480.094L478.974 78.44L482.014 76.8H487.254L491.614 79.48L489.774 97H484.294L485.894 81.48H478.654L477.054 97ZM513.833 94.52L508.913 97.2H500.393L496.033 94.52L497.633 79.48L502.553 76.8H511.073L515.433 79.48L513.833 94.52ZM502.873 81.48L501.713 92.52H508.553L509.713 81.48H502.873ZM86.7011 138.68L85.5811 149.32H95.5011L95.0211 154H84.2611L79.9011 151.32L81.4211 136.68L86.3411 134H97.1011L96.6211 138.68H86.7011ZM118.247 151.52L113.327 154.2H104.807L100.447 151.52L102.047 136.48L106.967 133.8H115.487L119.847 136.48L118.247 151.52ZM107.287 138.48L106.127 149.52H112.967L114.127 138.48H107.287ZM124.396 146.08L124.956 141H137.676L137.116 146.08H124.396ZM149.006 138.68L147.886 149.32H157.806L157.326 154H146.566L142.206 151.32L143.726 136.68L148.646 134H159.406L158.926 138.68H149.006ZM176.472 138.68H169.592L167.992 154H162.512L164.592 134H169.112L169.912 135.64L172.912 134H176.952L176.472 138.68ZM195.959 149.32L195.479 154H183.519L179.159 151.32L180.719 136.48L185.639 133.8H192.959L197.319 136.48L196.279 146.04H185.159L184.839 149.32H195.959ZM185.959 138.48L185.599 141.92H191.239L191.599 138.48H185.959ZM214.256 149.52L215.416 138.48H208.576L207.416 149.52H214.256ZM221.416 133.8L219.256 154.2H216.616L213.936 152.56L210.936 154.2H206.096L201.736 151.52L203.336 136.48L208.256 133.8H213.096L215.736 135.44L218.776 133.8H221.416ZM225.285 138.68L225.765 134H229.445L229.805 130.64L235.605 127.48L234.925 134H239.325L238.845 138.68H234.445L233.325 149.32H237.725L237.245 154H232.005L227.645 151.32L228.965 138.68H225.285ZM259.514 149.32L259.034 154H247.074L242.714 151.32L244.274 136.48L249.194 133.8H256.514L260.874 136.48L259.834 146.04H248.714L248.394 149.32H259.514ZM249.514 138.48L249.154 141.92H254.794L255.154 138.48H249.514ZM288.201 149.52L289.361 138.48H282.521L281.361 149.52H288.201ZM295.361 133.8L293.201 154.2H290.561L287.881 152.56L284.881 154.2H280.041L275.681 151.52L277.281 136.48L282.201 133.8H287.041L289.681 135.44L292.721 133.8H295.361ZM318.87 136.48L317.03 154H311.55L313.15 138.48H306.31L304.71 154H299.23L301.35 133.8H305.87L306.63 135.44L309.67 133.8H314.51L318.87 136.48ZM351.45 151.52L346.53 154.2H338.01L333.65 151.52L335.25 136.48L340.17 133.8H348.69L353.05 136.48L351.45 151.52ZM340.49 138.48L339.33 149.52H346.17L347.33 138.48H340.49ZM370.719 154.2H365.479L362.799 152.56L361.799 162H356.319L359.319 133.8H363.839L364.599 135.44L367.639 133.8H372.879L377.239 136.48L375.639 151.52L370.719 154.2ZM364.279 138.48L363.119 149.52H370.359L371.519 138.48H364.279ZM398.498 149.32L398.018 154H386.058L381.698 151.32L383.258 136.48L388.178 133.8H395.498L399.858 136.48L398.818 146.04H387.698L387.378 149.32H398.498ZM388.498 138.48L388.138 141.92H393.778L394.138 138.48H388.498ZM423.675 136.48L421.835 154H416.355L417.955 138.48H411.115L409.515 154H404.035L406.155 133.8H410.675L411.435 135.44L414.475 133.8H419.315L423.675 136.48ZM451.935 141.36H451.855L447.015 154H441.335L438.295 134H443.375L445.175 146.76H445.255L450.135 134H455.175L457.415 146.76H457.495L461.935 134H467.015L459.815 154H454.135L451.935 141.36ZM486.958 151.52L482.038 154.2H473.518L469.158 151.52L470.758 136.48L475.678 133.8H484.198L488.558 136.48L486.958 151.52ZM475.998 138.48L474.838 149.52H481.678L482.838 138.48H475.998ZM506.667 138.68H499.787L498.187 154H492.707L494.787 134H499.307L500.107 135.64L503.107 134H507.147L506.667 138.68ZM513.714 154L509.354 151.32L512.114 124.8H517.594L515.034 149.32H519.034L518.554 154H513.714ZM528.92 133.8H534.16L536.8 135.44L537.92 124.8H543.4L540.32 154.2H535.8L535 152.56L532 154.2H526.76L522.4 151.52L524 136.48L528.92 133.8ZM535.32 149.52L536.48 138.48H529.24L528.08 149.52H535.32Z" fill="#FBD161"/>
</svg>
