<svg width="612" height="172" viewBox="0 0 612 172" fill="none" xmlns="http://www.w3.org/2000/svg">
<path d="M54.6245 1H1V171H54.6245" stroke="#FDE1B9" stroke-width="2"/>
<path d="M556.875 171L610.5 171L610.5 1L556.876 0.999999" stroke="#FDE1B9" stroke-width="2"/>
<path d="M210.957 75C209.864 75 208.864 74.7333 207.957 74.2C207.077 73.6667 206.37 72.96 205.837 72.08C205.304 71.1733 205.037 70.1733 205.037 69.08V52.12C205.037 51.0267 205.304 50.04 205.837 49.16C206.37 48.2533 207.077 47.5333 207.957 47C208.864 46.4667 209.864 46.2 210.957 46.2H233.757V52.44H212.557C212.13 52.44 211.797 52.5467 211.557 52.76C211.344 52.9733 211.237 53.3067 211.237 53.76V67.44C211.237 67.8667 211.344 68.2 211.557 68.44C211.797 68.6533 212.13 68.76 212.557 68.76H233.757V75H210.957ZM243.528 75C242.488 75 241.528 74.7333 240.648 74.2C239.768 73.6667 239.061 72.96 238.528 72.08C237.994 71.2 237.728 70.24 237.728 69.2V57.6C237.728 56.56 237.994 55.6 238.528 54.72C239.061 53.84 239.768 53.1333 240.648 52.6C241.528 52.0667 242.488 51.8 243.528 51.8H255.448C256.514 51.8 257.488 52.0667 258.368 52.6C259.248 53.1333 259.941 53.84 260.448 54.72C260.981 55.6 261.248 56.56 261.248 57.6V69.2C261.248 70.24 260.981 71.2 260.448 72.08C259.941 72.96 259.248 73.6667 258.368 74.2C257.488 74.7333 256.514 75 255.448 75H243.528ZM243.848 68.88H255.128V57.92H243.848V68.88ZM264.371 75V51.8H282.091C283.158 51.8 284.131 52.0667 285.011 52.6C285.891 53.1333 286.584 53.84 287.091 54.72C287.624 55.6 287.891 56.56 287.891 57.6V75H281.771V57.92H270.491V75H264.371ZM297.001 75C295.961 75 295.001 74.7333 294.121 74.2C293.241 73.6667 292.535 72.96 292.001 72.08C291.468 71.2 291.201 70.24 291.201 69.2V68.04H297.321V68.88H308.601V66.48H297.001C295.961 66.48 295.001 66.2133 294.121 65.68C293.241 65.1467 292.535 64.44 292.001 63.56C291.468 62.68 291.201 61.72 291.201 60.68V57.6C291.201 56.56 291.468 55.6 292.001 54.72C292.535 53.84 293.241 53.1333 294.121 52.6C295.001 52.0667 295.961 51.8 297.001 51.8H308.921C309.988 51.8 310.961 52.0667 311.841 52.6C312.721 53.1333 313.428 53.84 313.961 54.72C314.495 55.6 314.761 56.56 314.761 57.6V58.76H308.601V57.92H297.321V60.32H308.921C309.988 60.32 310.961 60.5867 311.841 61.12C312.721 61.6533 313.428 62.36 313.961 63.24C314.495 64.12 314.761 65.08 314.761 66.12V69.2C314.761 70.24 314.495 71.2 313.961 72.08C313.428 72.96 312.721 73.6667 311.841 74.2C310.961 74.7333 309.988 75 308.921 75H297.001ZM324.663 75C323.596 75 322.623 74.7333 321.743 74.2C320.863 73.6667 320.156 72.96 319.623 72.08C319.09 71.2 318.823 70.24 318.823 69.2V44.92H324.943V51.8H333.543V57.92H324.943V68.88H333.543V75H324.663ZM337.221 75V57.6C337.221 56.56 337.487 55.6 338.021 54.72C338.554 53.84 339.261 53.1333 340.141 52.6C341.021 52.0667 341.994 51.8 343.061 51.8H355.861V57.92H343.341V75H337.221ZM364.857 75C363.79 75 362.817 74.7333 361.937 74.2C361.057 73.6667 360.35 72.96 359.817 72.08C359.31 71.2 359.057 70.24 359.057 69.2V60.32H376.457V57.92H359.057V51.8H376.777C377.843 51.8 378.817 52.0667 379.697 52.6C380.577 53.1333 381.27 53.84 381.777 54.72C382.31 55.6 382.577 56.56 382.577 57.6V75H364.857ZM365.177 68.88H376.457V65.68H365.177V68.88ZM386.83 75V51.8H392.95V75H386.83ZM386.83 50.36V44.2H392.95V50.36H386.83ZM397.652 75V51.8H415.372C416.439 51.8 417.412 52.0667 418.292 52.6C419.172 53.1333 419.866 53.84 420.372 54.72C420.906 55.6 421.172 56.56 421.172 57.6V75H415.052V57.92H403.772V75H397.652ZM431.304 75C430.237 75 429.264 74.7333 428.384 74.2C427.504 73.6667 426.797 72.96 426.264 72.08C425.73 71.2 425.464 70.24 425.464 69.2V44.92H431.584V51.8H440.184V57.92H431.584V68.88H440.184V75H431.304ZM449.501 75C448.461 75 447.501 74.7333 446.621 74.2C445.741 73.6667 445.035 72.96 444.501 72.08C443.968 71.2 443.701 70.24 443.701 69.2V68.04H449.821V68.88H461.101V66.48H449.501C448.461 66.48 447.501 66.2133 446.621 65.68C445.741 65.1467 445.035 64.44 444.501 63.56C443.968 62.68 443.701 61.72 443.701 60.68V57.6C443.701 56.56 443.968 55.6 444.501 54.72C445.035 53.84 445.741 53.1333 446.621 52.6C447.501 52.0667 448.461 51.8 449.501 51.8H461.421C462.488 51.8 463.461 52.0667 464.341 52.6C465.221 53.1333 465.928 53.84 466.461 54.72C466.995 55.6 467.261 56.56 467.261 57.6V58.76H461.101V57.92H449.821V60.32H461.421C462.488 60.32 463.461 60.5867 464.341 61.12C465.221 61.6533 465.928 62.36 466.461 63.24C466.995 64.12 467.261 65.08 467.261 66.12V69.2C467.261 70.24 466.995 71.2 466.461 72.08C465.928 72.96 465.221 73.6667 464.341 74.2C463.461 74.7333 462.488 75 461.421 75H449.501ZM97.8766 132L100.797 104H115.557L119.917 106.68L118.597 119.16L113.677 121.84H104.517L103.477 132H97.8766ZM105.877 108.8L105.037 117.04H113.237L114.077 108.8H105.877ZM127.957 132H122.477L125.517 102.8H130.997L129.877 113.44L132.917 111.8H138.157L142.517 114.48L140.677 132H135.197L136.797 116.48H129.557L127.957 132ZM147.375 140L152.055 130.6L146.375 112H151.855L155.535 123.76H155.615L161.495 112H166.975L152.775 140H147.375ZM185.332 122.16L184.612 129.32L179.692 132H168.492L168.972 127.32H179.332L179.652 124.24H173.932L169.572 121.56L170.292 114.68L175.212 112H186.012L185.532 116.68H175.572L175.252 119.48H180.972L185.332 122.16ZM197.888 112L195.808 132H190.328L192.408 112H197.888ZM192.608 108.28L193.168 102.8H199.048L198.488 108.28H192.608ZM208.893 116.68L207.773 127.32H217.693L217.213 132H206.453L202.093 129.32L203.613 114.68L208.533 112H219.293L218.812 116.68H208.893ZM239.238 122.16L238.518 129.32L233.598 132H222.398L222.878 127.32H233.238L233.558 124.24H227.838L223.478 121.56L224.198 114.68L229.118 112H239.918L239.438 116.68H229.478L229.158 119.48H234.878L239.238 122.16ZM267.385 127.52L268.545 116.48H261.705L260.545 127.52H267.385ZM274.545 111.8L272.385 132.2H269.745L267.065 130.56L264.065 132.2H259.225L254.865 129.52L256.465 114.48L261.385 111.8H266.225L268.865 113.44L271.905 111.8H274.545ZM298.054 114.48L296.214 132H290.734L292.334 116.48H285.494L283.894 132H278.414L280.534 111.8H285.054L285.814 113.44L288.854 111.8H293.694L298.054 114.48ZM308.963 111.8H314.203L316.843 113.44L317.963 102.8H323.443L320.363 132.2H315.843L315.043 130.56L312.043 132.2H306.803L302.443 129.52L304.043 114.48L308.963 111.8ZM315.363 127.52L316.523 116.48H309.283L308.123 127.52H315.363ZM344.372 112L342.293 132H336.813L338.893 112H344.372ZM339.092 108.28L339.653 102.8H345.533L344.973 108.28H339.092ZM367.937 114.48L366.097 132H360.617L362.217 116.48H355.377L353.777 132H348.297L350.417 111.8H354.937L355.697 113.44L358.737 111.8H363.577L367.937 114.48ZM372.086 116.68L372.566 112H376.246L376.926 105.48L381.846 102.8H387.086L386.606 107.48H382.206L381.726 112H386.126L385.646 116.68H381.246L379.646 132H374.166L375.766 116.68H372.086ZM393.093 132L388.733 129.32L391.493 102.8H396.973L394.413 127.32H398.413L397.933 132H393.093ZM414.299 127.52L415.459 116.48H408.619L407.459 127.52H414.299ZM421.459 111.8L419.299 132.2H416.659L413.979 130.56L410.979 132.2H406.139L401.779 129.52L403.379 114.48L408.299 111.8H413.139L415.779 113.44L418.819 111.8H421.459ZM425.328 116.68L425.808 112H429.488L429.848 108.64L435.648 105.48L434.968 112H439.368L438.888 116.68H434.488L433.368 127.32H437.768L437.288 132H432.048L427.688 129.32L429.008 116.68H425.328ZM450.037 112L447.957 132H442.477L444.557 112H450.037ZM444.757 108.28L445.317 102.8H451.197L450.637 108.28H444.757ZM472.001 129.52L467.081 132.2H458.561L454.201 129.52L455.801 114.48L460.721 111.8H469.241L473.601 114.48L472.001 129.52ZM461.041 116.48L459.881 127.52H466.721L467.881 116.48H461.041ZM497.39 114.48L495.55 132H490.07L491.67 116.48H484.83L483.23 132H477.75L479.87 111.8H484.39L485.15 113.44L488.19 111.8H493.03L497.39 114.48ZM519.01 116.68L517.89 127.32H527.81L527.33 132H516.57L512.21 129.32L513.73 114.68L518.65 112H529.41L528.93 116.68H519.01ZM545.276 127.52L546.436 116.48H539.596L538.436 127.52H545.276ZM552.436 111.8L550.276 132.2H547.636L544.956 130.56L541.956 132.2H537.116L532.756 129.52L534.356 114.48L539.276 111.8H544.116L546.756 113.44L549.796 111.8H552.436ZM569.825 132.2H564.585L561.905 130.56L560.905 140H555.425L558.425 111.8H562.945L563.705 113.44L566.745 111.8H571.985L576.345 114.48L574.745 129.52L569.825 132.2ZM563.385 116.48L562.225 127.52H569.465L570.625 116.48H563.385Z" fill="#FBD161"/>
</svg>
