<svg width="612" height="174" viewBox="0 0 612 174" fill="none" xmlns="http://www.w3.org/2000/svg">
<path d="M54.6245 3H1V173H54.6245" stroke="#FDE1B9" stroke-width="2"/>
<path d="M556.875 173L610.5 173L610.5 3L556.876 3" stroke="#FDE1B9" stroke-width="2"/>
<path d="M126.439 40L109.759 11.2H116.959L129.039 32.12L141.119 11.2H148.279L131.599 40H126.439ZM156.357 40C155.29 40 154.317 39.7333 153.437 39.2C152.557 38.6667 151.85 37.96 151.317 37.08C150.81 36.2 150.557 35.24 150.557 34.2V25.32H167.957V22.92H150.557V16.8H168.277C169.343 16.8 170.317 17.0667 171.197 17.6C172.077 18.1333 172.77 18.84 173.277 19.72C173.81 20.6 174.077 21.56 174.077 22.6V40H156.357ZM156.677 33.88H167.957V30.68H156.677V33.88ZM183.036 40C181.996 40 181.036 39.7333 180.156 39.2C179.276 38.6667 178.57 37.96 178.036 37.08C177.503 36.2 177.236 35.24 177.236 34.2V9.16H183.396V33.88H188.076V40H183.036ZM196.983 40C195.916 40 194.943 39.7333 194.062 39.2C193.183 38.6667 192.476 37.96 191.943 37.08C191.436 36.2 191.183 35.24 191.183 34.2V16.8H197.303V33.88H208.583V16.8H214.703V34.2C214.703 35.24 214.436 36.2 213.903 37.08C213.396 37.96 212.703 38.6667 211.823 39.2C210.943 39.7333 209.969 40 208.903 40H196.983ZM223.699 40C222.659 40 221.699 39.7333 220.819 39.2C219.939 38.6667 219.233 37.96 218.699 37.08C218.166 36.2 217.899 35.24 217.899 34.2V22.6C217.899 21.56 218.166 20.6 218.699 19.72C219.233 18.84 219.939 18.1333 220.819 17.6C221.699 17.0667 222.659 16.8 223.699 16.8H235.619C236.686 16.8 237.659 17.0667 238.539 17.6C239.419 18.1333 240.113 18.84 240.619 19.72C241.153 20.6 241.419 21.56 241.419 22.6V31.48H224.019V33.88H241.419V40H223.699ZM224.019 26.12H235.299V22.92H224.019V26.12ZM258.765 40V11.2H281.605C282.699 11.2 283.685 11.4667 284.565 12C285.472 12.5333 286.192 13.2533 286.725 14.16C287.285 15.04 287.565 16.0267 287.565 17.12V34.08C287.565 35.1467 287.285 36.1333 286.725 37.04C286.192 37.9467 285.472 38.6667 284.565 39.2C283.685 39.7333 282.699 40 281.605 40H258.765ZM264.925 33.76H281.285V17.44H264.925V33.76ZM291.494 40V16.8H297.614V40H291.494ZM291.494 15.36V9.2H297.614V15.36H291.494ZM307.876 40C306.836 40 305.876 39.7333 304.996 39.2C304.116 38.6667 303.41 37.96 302.876 37.08C302.343 36.2 302.076 35.24 302.076 34.2V33.04H308.196V33.88H319.476V31.48H307.876C306.836 31.48 305.876 31.2133 304.996 30.68C304.116 30.1467 303.41 29.44 302.876 28.56C302.343 27.68 302.076 26.72 302.076 25.68V22.6C302.076 21.56 302.343 20.6 302.876 19.72C303.41 18.84 304.116 18.1333 304.996 17.6C305.876 17.0667 306.836 16.8 307.876 16.8H319.796C320.863 16.8 321.836 17.0667 322.716 17.6C323.596 18.1333 324.303 18.84 324.836 19.72C325.37 20.6 325.636 21.56 325.636 22.6V23.76H319.476V22.92H308.196V25.32H319.796C320.863 25.32 321.836 25.5867 322.716 26.12C323.596 26.6533 324.303 27.36 324.836 28.24C325.37 29.12 325.636 30.08 325.636 31.12V34.2C325.636 35.24 325.37 36.2 324.836 37.08C324.303 37.96 323.596 38.6667 322.716 39.2C321.836 39.7333 320.863 40 319.796 40H307.876ZM335.538 40C334.471 40 333.498 39.7333 332.618 39.2C331.738 38.6667 331.031 37.96 330.498 37.08C329.965 36.2 329.698 35.24 329.698 34.2V9.92H335.818V16.8H344.418V22.92H335.818V33.88H344.418V40H335.538ZM348.096 40V22.6C348.096 21.56 348.362 20.6 348.896 19.72C349.429 18.84 350.136 18.1333 351.016 17.6C351.896 17.0667 352.869 16.8 353.936 16.8H366.736V22.92H354.216V40H348.096ZM369.932 40V16.8H376.052V40H369.932ZM369.932 15.36V9.2H376.052V15.36H369.932ZM379.152 40V9.2H385.272V16.8H396.872C397.939 16.8 398.912 17.0667 399.792 17.6C400.672 18.1333 401.366 18.84 401.872 19.72C402.406 20.6 402.672 21.56 402.672 22.6V34.2C402.672 35.24 402.406 36.2 401.872 37.08C401.366 37.96 400.672 38.6667 399.792 39.2C398.912 39.7333 397.939 40 396.872 40H379.152ZM385.272 33.88H396.552V22.92H385.272V33.88ZM411.201 40C410.135 40 409.161 39.7333 408.281 39.2C407.401 38.6667 406.695 37.96 406.161 37.08C405.655 36.2 405.401 35.24 405.401 34.2V16.8H411.521V33.88H422.801V16.8H428.921V34.2C428.921 35.24 428.655 36.2 428.121 37.08C427.615 37.96 426.921 38.6667 426.041 39.2C425.161 39.7333 424.188 40 423.121 40H411.201ZM438.038 40C436.971 40 435.998 39.7333 435.118 39.2C434.238 38.6667 433.531 37.96 432.998 37.08C432.465 36.2 432.198 35.24 432.198 34.2V9.92H438.318V16.8H446.918V22.92H438.318V33.88H446.918V40H438.038ZM450.205 40V16.8H456.325V40H450.205ZM450.205 15.36V9.2H456.325V15.36H450.205ZM465.106 40C464.066 40 463.106 39.7333 462.226 39.2C461.346 38.6667 460.639 37.96 460.106 37.08C459.572 36.2 459.306 35.24 459.306 34.2V22.6C459.306 21.56 459.572 20.6 460.106 19.72C460.639 18.84 461.346 18.1333 462.226 17.6C463.106 17.0667 464.066 16.8 465.106 16.8H477.026C478.092 16.8 479.066 17.0667 479.946 17.6C480.826 18.1333 481.519 18.84 482.026 19.72C482.559 20.6 482.826 21.56 482.826 22.6V34.2C482.826 35.24 482.559 36.2 482.026 37.08C481.519 37.96 480.826 38.6667 479.946 39.2C479.066 39.7333 478.092 40 477.026 40H465.106ZM465.426 33.88H476.706V22.92H465.426V33.88ZM485.949 40V16.8H503.669C504.736 16.8 505.709 17.0667 506.589 17.6C507.469 18.1333 508.162 18.84 508.669 19.72C509.202 20.6 509.469 21.56 509.469 22.6V40H503.349V22.92H492.069V40H485.949ZM88.5078 81.68L88.9878 77H92.6678L93.0278 73.64L98.8278 70.48L98.1478 77H102.548L102.068 81.68H97.6678L96.5478 92.32H100.948L100.468 97H95.2278L90.8678 94.32L92.1878 81.68H88.5078ZM123.696 94.52L118.776 97.2H110.256L105.896 94.52L107.496 79.48L112.416 76.8H120.936L125.296 79.48L123.696 94.52ZM112.736 81.48L111.576 92.52H118.416L119.576 81.48H112.736ZM153.356 97.2H148.116L145.436 95.56L144.436 105H138.956L141.956 76.8H146.476L147.236 78.44L150.276 76.8H155.516L159.876 79.48L158.276 94.52L153.356 97.2ZM146.916 81.48L145.756 92.52H152.996L154.156 81.48H146.916ZM176.815 92.52L177.975 81.48H171.135L169.975 92.52H176.815ZM183.975 76.8L181.815 97.2H179.175L176.495 95.56L173.495 97.2H168.655L164.295 94.52L165.895 79.48L170.815 76.8H175.655L178.295 78.44L181.335 76.8H183.975ZM201.804 81.68H194.924L193.324 97H187.844L189.924 77H194.444L195.244 78.64L198.244 77H202.284L201.804 81.68ZM204.211 81.68L204.691 77H208.371L208.731 73.64L214.531 70.48L213.851 77H218.251L217.771 81.68H213.371L212.251 92.32H216.651L216.171 97H210.931L206.571 94.32L207.891 81.68H204.211ZM228.919 77L226.839 97H221.359L223.439 77H228.919ZM223.639 73.28L224.199 67.8H230.079L229.519 73.28H223.639ZM239.924 81.68L238.804 92.32H248.724L248.244 97H237.484L233.124 94.32L234.644 79.68L239.564 77H250.324L249.844 81.68H239.924ZM260.99 77L258.91 97H253.43L255.51 77H260.99ZM255.71 73.28L256.27 67.8H262.15L261.59 73.28H255.71ZM278.434 97.2H273.194L270.514 95.56L269.514 105H264.034L267.034 76.8H271.554L272.314 78.44L275.354 76.8H280.594L284.954 79.48L283.354 94.52L278.434 97.2ZM271.994 81.48L270.834 92.52H278.074L279.234 81.48H271.994ZM301.893 92.52L303.053 81.48H296.213L295.053 92.52H301.893ZM309.053 76.8L306.893 97.2H304.253L301.573 95.56L298.573 97.2H293.733L289.373 94.52L290.973 79.48L295.893 76.8H300.733L303.373 78.44L306.413 76.8H309.053ZM332.562 79.48L330.722 97H325.242L326.842 81.48H320.002L318.402 97H312.922L315.042 76.8H319.562L320.322 78.44L323.362 76.8H328.202L332.562 79.48ZM336.711 81.68L337.191 77H340.871L341.231 73.64L347.031 70.48L346.351 77H350.751L350.271 81.68H345.871L344.751 92.32H349.151L348.671 97H343.431L339.071 94.32L340.391 81.68H336.711ZM370.699 87.16L369.979 94.32L365.059 97H353.859L354.339 92.32H364.699L365.019 89.24H359.299L354.939 86.56L355.659 79.68L360.579 77H371.379L370.899 81.68H360.939L360.619 84.48H366.339L370.699 87.16ZM399.806 84.36H399.726L394.886 97H389.206L386.166 77H391.246L393.046 89.76H393.126L398.006 77H403.046L405.286 89.76H405.366L409.806 77H414.886L407.686 97H402.006L399.806 84.36ZM422.269 97H416.789L419.829 67.8H425.309L424.189 78.44L427.229 76.8H432.469L436.829 79.48L434.989 97H429.509L431.109 81.48H423.869L422.269 97ZM459.048 94.52L454.128 97.2H445.608L441.248 94.52L442.848 79.48L447.768 76.8H456.288L460.648 79.48L459.048 94.52ZM448.088 81.48L446.928 92.52H453.768L454.928 81.48H448.088ZM482.268 81.68L481.148 92.32H491.068L490.588 97H479.828L475.468 94.32L476.988 79.68L481.908 77H492.668L492.188 81.68H482.268ZM513.813 94.52L508.893 97.2H500.373L496.013 94.52L497.613 79.48L502.533 76.8H511.053L515.413 79.48L513.813 94.52ZM502.853 81.48L501.693 92.52H508.533L509.693 81.48H502.853ZM519.963 89.08L520.523 84H533.243L532.683 89.08H519.963ZM117.853 138.68L116.733 149.32H126.653L126.173 154H115.413L111.053 151.32L112.573 136.68L117.493 134H128.253L127.773 138.68H117.853ZM145.319 138.68H138.439L136.839 154H131.359L133.439 134H137.959L138.759 135.64L141.759 134H145.799L145.319 138.68ZM164.807 149.32L164.327 154H152.367L148.007 151.32L149.567 136.48L154.487 133.8H161.807L166.167 136.48L165.127 146.04H154.007L153.687 149.32H164.807ZM154.807 138.48L154.447 141.92H160.087L160.447 138.48H154.807ZM183.104 149.52L184.264 138.48H177.424L176.264 149.52H183.104ZM190.264 133.8L188.104 154.2H185.464L182.784 152.56L179.784 154.2H174.944L170.584 151.52L172.184 136.48L177.104 133.8H181.944L184.584 135.44L187.624 133.8H190.264ZM194.133 138.68L194.613 134H198.293L198.653 130.64L204.453 127.48L203.773 134H208.173L207.693 138.68H203.293L202.173 149.32H206.573L206.093 154H200.853L196.493 151.32L197.813 138.68H194.133ZM228.361 149.32L227.881 154H215.921L211.561 151.32L213.121 136.48L218.041 133.8H225.361L229.721 136.48L228.681 146.04H217.561L217.241 149.32H228.361ZM218.361 138.48L218.001 141.92H223.641L224.001 138.48H218.361ZM257.049 149.52L258.209 138.48H251.369L250.209 149.52H257.049ZM264.209 133.8L262.049 154.2H259.409L256.729 152.56L253.729 154.2H248.889L244.529 151.52L246.129 136.48L251.049 133.8H255.889L258.529 135.44L261.569 133.8H264.209ZM287.718 136.48L285.878 154H280.398L281.998 138.48H275.158L273.558 154H268.078L270.198 133.8H274.718L275.478 135.44L278.518 133.8H283.358L287.718 136.48ZM320.298 151.52L315.378 154.2H306.858L302.498 151.52L304.098 136.48L309.018 133.8H317.538L321.898 136.48L320.298 151.52ZM309.338 138.48L308.178 149.52H315.018L316.178 138.48H309.338ZM339.567 154.2H334.327L331.647 152.56L330.647 162H325.167L328.167 133.8H332.687L333.447 135.44L336.487 133.8H341.727L346.087 136.48L344.487 151.52L339.567 154.2ZM333.127 138.48L331.967 149.52H339.207L340.367 138.48H333.127ZM367.346 149.32L366.866 154H354.906L350.546 151.32L352.106 136.48L357.026 133.8H364.346L368.706 136.48L367.666 146.04H356.546L356.226 149.32H367.346ZM357.346 138.48L356.986 141.92H362.626L362.986 138.48H357.346ZM392.523 136.48L390.683 154H385.203L386.803 138.48H379.963L378.363 154H372.883L375.003 133.8H379.523L380.283 135.44L383.323 133.8H388.163L392.523 136.48ZM420.783 141.36H420.703L415.863 154H410.183L407.143 134H412.223L414.023 146.76H414.103L418.983 134H424.023L426.263 146.76H426.343L430.783 134H435.863L428.663 154H422.983L420.783 141.36ZM455.806 151.52L450.886 154.2H442.366L438.006 151.52L439.606 136.48L444.526 133.8H453.046L457.406 136.48L455.806 151.52ZM444.846 138.48L443.686 149.52H450.526L451.686 138.48H444.846ZM475.515 138.68H468.635L467.035 154H461.555L463.635 134H468.155L468.955 135.64L471.955 134H475.995L475.515 138.68ZM482.562 154L478.202 151.32L480.962 124.8H486.442L483.882 149.32H487.882L487.402 154H482.562ZM497.768 133.8H503.008L505.648 135.44L506.768 124.8H512.248L509.168 154.2H504.648L503.848 152.56L500.848 154.2H495.608L491.248 151.52L492.848 136.48L497.768 133.8ZM504.168 149.52L505.328 138.48H498.088L496.928 149.52H504.168Z" fill="#FBD161"/>
</svg>
