<svg width="65" height="55" viewBox="0 0 65 55" fill="none" xmlns="http://www.w3.org/2000/svg">
<g clip-path="url(#clip0_1563_7539)">
<path d="M58.2694 3.8944L58.5096 3.41456C58.6166 3.20385 58.8119 3.04416 59.0439 2.98666C59.2759 2.92916 59.524 2.98405 59.7156 3.12411C61.1322 4.17765 62.2724 5.50601 63.0971 6.99827C63.2132 7.20523 63.2295 7.45762 63.1447 7.68108C63.0598 7.90454 62.8779 8.07933 62.6506 8.15425L62.146 8.3268C61.8164 8.43844 61.5655 8.66908 61.4226 8.95477C61.2766 9.24598 61.245 9.58121 61.3566 9.91075C61.4683 10.2403 61.6989 10.4913 61.9846 10.6341C62.2758 10.7802 62.6111 10.8117 62.9406 10.7001L63.4507 10.5307C63.6781 10.4558 63.9279 10.4822 64.129 10.6057C64.3357 10.7324 64.4716 10.9434 64.5062 11.1769C64.751 12.8572 64.6459 14.6079 64.1582 16.3071C64.09 16.5401 63.9301 16.7276 63.7075 16.82C63.4903 16.9155 63.2364 16.9088 63.0225 16.8074L62.5427 16.5672C61.924 16.2615 61.1746 16.5137 60.8634 17.1292C60.5577 17.748 60.8098 18.4974 61.4254 18.8086L61.9052 19.0488C62.1159 19.1557 62.2756 19.351 62.3331 19.583C62.3906 19.815 62.3357 20.0631 62.1957 20.2547C61.1421 21.6714 59.8138 22.8116 58.3215 23.6362C58.1146 23.7524 57.8622 23.7686 57.6387 23.6838C57.4152 23.599 57.2405 23.4171 57.1655 23.1897L56.993 22.6851C56.8813 22.3556 56.6507 22.1046 56.365 21.9617C56.0793 21.8189 55.7386 21.7842 55.409 21.8958C55.0795 22.0074 54.8285 22.2381 54.6857 22.5238C54.5396 22.815 54.5081 23.1502 54.6197 23.4797L54.7923 23.9844C54.8672 24.2117 54.8408 24.4615 54.7173 24.6627C54.5906 24.8693 54.3796 25.0052 54.1461 25.0398C52.4571 25.287 50.7151 25.1795 49.0159 24.6919C48.7884 24.6268 48.5953 24.4638 48.503 24.2411C48.4075 24.0239 48.4141 23.7701 48.5155 23.5562L48.7558 23.0763C49.0614 22.4576 48.8093 21.7082 48.1906 21.4025C47.5718 21.0968 46.8224 21.349 46.5112 21.9645L46.271 22.4444C46.1641 22.6551 45.9688 22.8148 45.7368 22.8723C45.5048 22.9298 45.2566 22.8749 45.0651 22.7348C43.6484 21.6813 42.5082 20.3529 41.6836 18.8607C41.5674 18.6537 41.5511 18.4013 41.636 18.1779C41.7208 17.9544 41.9027 17.7796 42.1301 17.7047L42.6347 17.5321C42.9642 17.4205 43.2152 17.1899 43.358 16.9042C43.5041 16.613 43.5356 16.2777 43.424 15.9482C43.3123 15.6187 43.0817 15.3677 42.7928 15.2304C42.5071 15.0875 42.1664 15.0528 41.8369 15.1644L41.3322 15.337C41.1049 15.4119 40.8551 15.3855 40.6484 15.2588C40.4473 15.1353 40.3058 14.9211 40.2713 14.6876C40.0296 13.0018 40.1315 11.2566 40.6192 9.55739C40.6875 9.32436 40.8473 9.13682 41.07 9.04448C41.2903 8.94343 41.541 8.95562 41.7549 9.05703L42.2292 9.29405C42.848 9.59975 43.5973 9.3476 43.9085 8.73204C44.2142 8.11328 43.9621 7.36391 43.3465 7.0527L42.8667 6.81248C42.6473 6.70789 42.4963 6.51027 42.4388 6.27826C42.393 6.08981 42.416 5.89692 42.5029 5.73357C42.5252 5.69492 42.5507 5.65073 42.5818 5.60974C43.6353 4.19308 44.9637 3.05289 46.4559 2.22823C46.6629 2.11209 46.9153 2.09582 47.1387 2.18065C47.3622 2.26549 47.537 2.4474 47.6119 2.67474L47.7845 3.17935C47.8961 3.50889 48.1267 3.75986 48.4124 3.90271C48.7036 4.04875 49.0389 4.0803 49.3684 3.96866C49.6979 3.85702 49.9489 3.62639 50.0918 3.3407C50.2346 3.05501 50.2694 2.71426 50.1577 2.38472L49.9852 1.88011C49.9102 1.65277 49.9367 1.40294 50.0634 1.19627C50.19 0.989607 50.401 0.853711 50.6345 0.819157C52.318 0.5688 54.0655 0.679406 55.7647 1.16709C55.9978 1.23535 56.1853 1.39517 56.2776 1.61784C56.3732 1.83499 56.3665 2.08886 56.2651 2.30276L56.0249 2.78259C55.7192 3.40135 55.9713 4.15072 56.5901 4.45641C57.2088 4.7621 57.9582 4.50996 58.2694 3.8944ZM54.4047 2.5025C53.5377 2.33333 52.6584 2.27484 51.7984 2.32321C51.8939 2.92318 51.7915 3.53414 51.5345 4.05582C51.2064 4.71323 50.6259 5.24692 49.8765 5.49906C49.1239 5.75673 48.3373 5.67808 47.6854 5.35326C47.1637 5.09625 46.7147 4.67504 46.43 4.13513C45.7184 4.61524 45.0554 5.18968 44.4671 5.85147C45.5875 6.65296 45.9905 8.17419 45.3521 9.43293C44.7184 10.7091 43.2627 11.3045 41.9413 10.9024C41.7689 11.7748 41.7136 12.6486 41.762 13.5086C42.3651 13.4077 42.9761 13.51 43.4946 13.7726C44.1552 14.0951 44.6889 14.6756 44.941 15.425C45.1931 16.1744 45.12 16.9642 44.7952 17.6161C44.535 18.1433 44.1138 18.5923 43.5739 18.877C44.0563 19.5973 44.6253 20.2572 45.287 20.8454C46.0885 19.725 47.6098 19.3221 48.8859 19.9558C50.1621 20.5895 50.7662 22.0428 50.3586 23.3611C51.231 23.5335 52.1048 23.5888 52.9648 23.5404C52.8694 22.9404 52.9717 22.3295 53.2288 21.8078C53.5568 21.1504 54.1373 20.6167 54.8867 20.3645C55.6329 20.1179 56.4172 20.1879 57.0746 20.5159C57.6018 20.7761 58.0508 21.1973 58.3355 21.7372C59.0527 21.2603 59.7157 20.6858 60.3039 20.024C59.1835 19.2225 58.7806 17.7013 59.4143 16.4252C60.048 15.149 61.5037 14.5536 62.8251 14.9557C62.9943 14.0888 63.0496 13.215 63.0044 12.3495C62.4013 12.4504 61.7903 12.348 61.2686 12.091C60.6112 11.763 60.0775 11.1825 59.8254 10.4331C59.5701 9.68923 59.6432 8.89939 59.9712 8.24198C60.2282 7.7203 60.6462 7.27685 61.1893 6.98661C60.7037 6.27179 60.1348 5.61197 59.473 5.02371C58.6715 6.1441 57.1503 6.54704 55.8741 5.91334C54.5979 5.27963 54.0025 3.82399 54.4047 2.5025ZM28.76 30.5956C24.6217 34.8554 17.8245 34.9588 13.5646 30.8206C9.30475 26.6823 9.20687 19.8883 13.3396 15.6252C17.4747 11.3708 24.2719 11.2674 28.535 15.4002C32.7949 19.5385 32.8951 26.3412 28.76 30.5956ZM15.1155 17.3574C11.9418 20.6352 12.0198 25.8567 15.2913 29.0415C18.5692 32.2152 23.7906 32.1372 26.9809 28.8689C30.1459 25.5934 30.0711 20.3664 26.8051 17.1848C23.5186 14.0135 18.3003 14.0859 15.1155 17.3574Z" fill="white"/>
<path d="M33.0355 7.05663C33.074 7.46177 32.9363 7.85348 32.6589 8.14253L32.0375 8.78519C31.2334 9.61686 31.2512 10.9378 32.0797 11.7475C32.9114 12.5517 34.2324 12.5338 35.042 11.7053L35.6564 11.0366C35.9393 10.7507 36.3283 10.5998 36.7292 10.6324C37.1301 10.665 37.4977 10.87 37.7296 11.1953C39.4535 13.6043 40.5883 16.3065 41.1406 19.0995C41.2195 19.4985 41.1181 19.9038 40.8652 20.2143C40.6123 20.5248 40.2326 20.7106 39.8323 20.7152L38.9401 20.7302C38.3594 20.741 37.845 20.9816 37.4676 21.3675C37.0925 21.7621 36.8672 22.2799 36.878 22.8605C36.8857 23.4467 37.1294 23.9556 37.5153 24.333C37.9067 24.7136 38.4246 24.9389 39.0052 24.9281L39.903 24.9163C40.3032 24.9117 40.6845 25.0803 40.9489 25.3876C41.2133 25.6949 41.3262 26.0988 41.2596 26.4947C40.7939 29.3037 39.7329 32.0342 38.0854 34.4922C37.8625 34.8274 37.5008 35.0457 37.1012 35.0874C36.7016 35.1291 36.3044 34.9882 36.0153 34.7108L35.3727 34.0894C34.541 33.2853 33.22 33.3031 32.4103 34.1316C31.6062 34.9633 31.624 36.2843 32.4525 37.0939L33.0952 37.7153C33.381 37.9982 33.5319 38.3872 33.4993 38.7881C33.4667 39.189 33.2618 39.5566 32.9364 39.7885C30.5306 41.5069 27.8307 42.6504 25.0377 43.2027C24.6387 43.2816 24.2334 43.1802 23.9229 42.9273C23.6124 42.6744 23.4266 42.2947 23.4221 41.8944L23.4071 41.0021C23.3962 40.4215 23.1557 39.9071 22.7698 39.5297C22.3807 39.1578 21.8628 38.9324 21.2767 38.9401C20.6961 38.951 20.1817 39.1915 19.8043 39.5774C19.4292 39.972 19.2038 40.4899 19.2147 41.0705L19.2265 41.9683C19.231 42.3685 19.0593 42.7553 18.7552 43.0142C18.4479 43.2786 18.044 43.3915 17.648 43.3249C14.839 42.8591 12.1086 41.7982 9.65051 40.1507C9.32087 39.9309 9.10259 39.5693 9.06087 39.1697C9.01914 38.7701 9.16012 38.3728 9.43745 38.0838L10.0588 37.4411C10.863 36.6094 10.8452 35.2885 10.0167 34.4788C9.185 33.6746 7.86401 33.6925 7.05433 34.521L6.43294 35.1636C6.15009 35.4495 5.76105 35.6004 5.36018 35.5678C4.95931 35.5351 4.59163 35.3302 4.35975 35.0049C2.64142 32.5991 1.50104 29.8936 0.956584 27.1126C0.877682 26.7136 0.979148 26.3083 1.23206 25.9977C1.48496 25.6872 1.86466 25.5015 2.26491 25.4969L3.15718 25.4819C3.73779 25.4711 4.2522 25.2305 4.62962 24.8446C5.00152 24.4555 5.22688 23.9377 5.21921 23.3515C5.20835 22.7709 4.96781 22.2565 4.58192 21.8791C4.19284 21.5072 3.67498 21.2818 3.08884 21.2895L2.19657 21.3045C1.79632 21.3091 1.40952 21.1373 1.15064 20.8332C0.886249 20.5259 0.773361 20.122 0.839983 19.7261C1.30571 16.9171 2.36668 14.1866 4.01412 11.7285C4.23709 11.3934 4.59874 11.1751 4.99836 11.1334C5.39798 11.0917 5.79521 11.2326 6.08425 11.51L6.72691 12.1314C7.55858 12.9355 8.87957 12.9177 9.68925 12.0892C10.4879 11.2543 10.47 9.93333 9.64155 9.12366L8.99889 8.50226C8.71303 8.21941 8.56211 7.83037 8.59474 7.4295C8.61991 7.10532 8.75172 6.81325 8.96318 6.57453C9.02353 6.52101 9.08388 6.4675 9.14976 6.41717C11.5556 4.69884 14.261 3.55846 17.054 3.00615C17.4498 2.93277 17.8583 3.02871 18.1688 3.28162C18.4793 3.53453 18.6651 3.91423 18.6696 4.31447L18.6846 5.20674C18.6955 5.78736 18.936 6.30176 19.3219 6.67919C19.7165 7.05428 20.2344 7.27963 20.815 7.26877C21.3956 7.25791 21.91 7.01738 22.2875 6.63149C22.6649 6.2456 22.8902 5.72773 22.8826 5.14159L22.8676 4.24932C22.863 3.84908 23.0348 3.46227 23.3389 3.2034C23.643 2.94453 24.0469 2.83164 24.4428 2.89826C27.2518 3.36399 29.9823 4.42496 32.4403 6.0724C32.7723 6.30089 32.9938 6.65701 33.0355 7.05663ZM25.616 5.53421C25.4595 6.57047 24.9776 7.50719 24.2863 8.21994C23.4209 9.11936 22.1955 9.68577 20.8429 9.70743C19.4958 9.73228 18.254 9.19206 17.3578 8.32118C16.645 7.62987 16.1374 6.71088 15.9505 5.68259C14.5345 6.09471 13.1619 6.68656 11.8589 7.45116C13.2592 9.34937 13.1239 12.0325 11.4329 13.788C9.73403 15.5316 7.05568 15.7451 5.12223 14.4006C4.39418 15.7254 3.84223 17.115 3.47361 18.5442C4.50986 18.7007 5.44425 19.1739 6.15933 19.8739C7.05556 20.7448 7.63068 21.9678 7.64682 23.3173C7.66296 24.6667 7.13145 25.9062 6.26057 26.8024C5.56926 27.5151 4.65027 28.0228 3.62198 28.2096C4.03091 29.6312 4.62276 31.0038 5.38735 32.3068C7.28557 30.9065 9.96869 31.0418 11.7155 32.7352C13.4591 34.434 13.6726 37.1124 12.3281 39.0458C13.6561 39.7683 15.0457 40.3203 16.4749 40.6889C16.6314 39.6526 17.1101 38.7214 17.8046 38.0032C18.6755 37.1069 19.8985 36.5318 21.2479 36.5157C22.5974 36.4996 23.8368 37.0311 24.7331 37.9019C25.4685 38.6133 25.9625 39.5371 26.1458 40.5437C27.5619 40.1316 28.9345 39.5397 30.2374 38.7752C28.8372 36.8769 28.9725 34.1938 30.6658 32.447C32.3647 30.7034 35.043 30.4899 36.9765 31.8344C37.6958 30.512 38.251 29.1168 38.6196 27.6876C37.5801 27.5367 36.6466 27.0492 35.9339 26.3579C35.0376 25.487 34.4712 24.2617 34.4385 22.9027C34.4192 21.5587 34.9539 20.3138 35.8248 19.4175C36.5361 18.6821 37.46 18.1881 38.4665 18.0048C38.0544 16.5887 37.4658 15.2106 36.698 13.9132C34.8053 15.3166 32.1222 15.1813 30.3753 13.488C28.6317 11.7891 28.4182 9.11077 29.7628 7.17732C28.438 6.44927 27.0452 5.90284 25.616 5.53421ZM57.0979 15.2719C55.8018 17.8739 52.6467 18.9388 50.0502 17.6458C47.445 16.3553 46.3888 13.1978 47.6762 10.5981C48.9724 7.99607 52.1243 6.93677 54.724 8.22417C57.3292 9.51475 58.3853 12.6722 57.0979 15.2719ZM53.8229 10.0528C52.2247 9.26264 50.2942 9.91529 49.5017 11.5048C48.7115 13.1029 49.3587 15.0302 50.9536 15.8259C52.5463 16.6129 54.4823 15.9634 55.2748 14.374C56.065 12.7758 55.4123 10.8453 53.8229 10.0528Z" fill="white"/>
<path d="M54 46L54 24" stroke="white" stroke-width="2"/>
<path d="M21 49L21 37" stroke="white" stroke-width="2"/>
<circle cx="3" cy="3" r="3" transform="matrix(-1 0 0 1 24 47)" fill="white"/>
<circle cx="3" cy="3" r="3" transform="matrix(-1 0 0 1 57 42)" fill="white"/>
</g>
<defs>
<clipPath id="clip0_1563_7539">
<rect width="65" height="55" fill="white" transform="matrix(-1 0 0 1 65 0)"/>
</clipPath>
</defs>
</svg>
