<svg width="48" height="45" viewBox="0 0 48 45" fill="none" xmlns="http://www.w3.org/2000/svg">
<circle cx="6.27473" cy="6.27473" r="5.27473" transform="matrix(1 0 0 -1 17.6865 42.7856)" stroke="white" stroke-width="2"/>
<circle cx="6.27473" cy="6.27473" r="5.27473" transform="matrix(1 0 0 -1 2 28.6674)" stroke="white" stroke-width="2"/>
<circle cx="6.27473" cy="6.27473" r="5.27473" transform="matrix(-1 8.74228e-08 8.74228e-08 1 45.9224 1.99994)" stroke="white" stroke-width="2"/>
<circle cx="6.27473" cy="6.27473" r="5.27473" transform="matrix(1 0 0 -1 17.6865 28.6674)" stroke="white" stroke-width="2"/>
<circle cx="6.27473" cy="6.27473" r="5.27473" transform="matrix(-1 8.74228e-08 8.74228e-08 1 30.2358 1.99994)" stroke="white" stroke-width="2"/>
<line y1="-1" x2="17.7476" y2="-1" transform="matrix(0.707107 -0.707107 -0.707107 -0.707107 2 42.7856)" stroke="white" stroke-width="2"/>
<line y1="-1" x2="17.7476" y2="-1" transform="matrix(0.707107 0.707107 0.707107 -0.707107 2 30.2361)" stroke="white" stroke-width="2"/>
<line y1="-1" x2="17.7476" y2="-1" transform="matrix(0.707107 -0.707107 -0.707107 -0.707107 33.374 28.6674)" stroke="white" stroke-width="2"/>
<line y1="-1" x2="17.7476" y2="-1" transform="matrix(0.707107 0.707107 0.707107 -0.707107 33.374 16.1179)" stroke="white" stroke-width="2"/>
<line y1="-1" x2="17.7476" y2="-1" transform="matrix(-0.707107 0.707107 0.707107 0.707107 14.5498 1.99994)" stroke="white" stroke-width="2"/>
<line y1="-1" x2="17.7476" y2="-1" transform="matrix(-0.707107 -0.707107 -0.707107 0.707107 14.5498 14.5494)" stroke="white" stroke-width="2"/>
<line y1="-1" x2="17.7476" y2="-1" transform="matrix(0.707107 -0.707107 -0.707107 -0.707107 33.374 42.7856)" stroke="white" stroke-width="2"/>
<line y1="-1" x2="17.7476" y2="-1" transform="matrix(0.707107 0.707107 0.707107 -0.707107 33.374 30.2361)" stroke="white" stroke-width="2"/>
</svg>
