<svg width="31" height="31" viewBox="0 0 31 31" fill="none" xmlns="http://www.w3.org/2000/svg">
<path d="M21.3571 10.4944C20.8894 10.5443 20.5655 10.609 20.4131 10.6693C20.5655 10.7296 20.8905 10.7943 21.3571 10.8442C21.351 10.7866 21.3483 10.7279 21.3483 10.6693C21.3483 10.6106 21.351 10.552 21.3571 10.4944Z" fill="#2A484D"/>
<path d="M15.35 0C9.48892 0 4.39429 3.226 1.80328 7.97014H7.57092V11.388H0.453413C0.372564 11.7022 0.302093 12.0202 0.241456 12.3415H10.6257V15.7594H0C0.0142033 16.0801 0.0382396 16.3981 0.0715628 16.7128H13.6805V20.1307H0.858754C0.974565 20.4536 1.10185 20.7716 1.23897 21.0841H16.7359V24.502H3.32522C3.59235 24.8315 3.87259 25.1495 4.16595 25.4554H19.7912V28.8733H9.03823C10.9639 29.727 13.1004 30.2023 15.3505 30.2023C23.8365 30.2023 30.7158 23.4417 30.7158 15.102C30.7163 6.76231 23.8359 0 15.35 0ZM13.3375 12.4906C13.2523 12.4906 13.1834 12.4232 13.1834 12.3393C13.1834 12.2554 13.2523 12.188 13.3375 12.188C13.4227 12.188 13.4915 12.2554 13.4915 12.3393C13.4915 12.4232 13.4227 12.4906 13.3375 12.4906ZM14.3536 7.5891C14.4016 7.5891 14.4502 7.58745 14.4972 7.58526C14.1247 7.74864 13.7117 7.8391 13.2768 7.8391C11.6189 7.8391 10.2761 6.51779 10.2761 4.88889C10.2761 3.25999 11.6194 1.94031 13.2768 1.94031C13.7117 1.94031 14.1236 2.03133 14.4972 2.19416C14.4502 2.19197 14.4016 2.19033 14.3536 2.19033C12.8365 2.19033 11.6074 3.3987 11.6074 4.88889C11.6074 6.38072 12.8371 7.5891 14.3536 7.5891ZM16.9249 4.70522H17.3177L17.439 4.33843L17.5602 4.70522H17.953L17.6356 4.93166L17.7569 5.29844L17.4395 5.07201L17.1221 5.29844L17.2434 4.93166L16.9249 4.70522ZM18.5348 16.0773L18.1158 15.778L17.6968 16.0773L17.8569 15.5938L17.4379 15.2944H17.9557L18.1158 14.8109L18.2759 15.2944H18.7937L18.3747 15.5938L18.5348 16.0773ZM23.6447 4.84557C23.8135 4.84557 23.9512 4.981 23.9512 5.14712C23.9512 5.31324 23.8135 5.44867 23.6447 5.44867C23.4759 5.44867 23.3383 5.31324 23.3383 5.14712C23.3377 4.981 23.4754 4.84557 23.6447 4.84557ZM20.9395 19.0232C20.8603 19.0232 20.7959 18.9601 20.7959 18.8823C20.7959 18.8044 20.8603 18.7414 20.9395 18.7414C21.0187 18.7414 21.0832 18.8044 21.0832 18.8823C21.0832 18.9601 21.0187 19.0232 20.9395 19.0232ZM22.5931 26.4412C22.4047 26.4412 22.2522 26.291 22.2522 26.1062C22.2522 25.9215 22.4047 25.7712 22.5931 25.7712C22.7816 25.7712 22.934 25.9215 22.934 26.1062C22.934 26.291 22.7816 26.4412 22.5931 26.4412ZM24.9771 21.537L24.6772 21.3232L24.3773 21.537L24.492 21.1905L24.1921 20.9766H24.563L24.6777 20.6301L24.7925 20.9766H25.1634L24.8635 21.1905L24.9771 21.537ZM25.318 11.1084C25.2022 11.1243 25.0776 11.1386 24.9471 11.1517C24.7324 11.9127 24.0233 12.4709 23.1809 12.4709C22.3386 12.4709 21.6295 11.9122 21.4148 11.1517C21.2848 11.1386 21.1602 11.1243 21.0439 11.1084C20.1583 10.9872 20.0354 10.8255 20.0354 10.6693C20.0354 10.5135 20.1573 10.3518 21.0439 10.2301C21.1597 10.2142 21.2842 10.1999 21.4148 10.1868C21.6295 9.42579 22.3386 8.86765 23.1809 8.86765C24.0233 8.86765 24.7324 9.42634 24.9471 10.1868C25.0771 10.1999 25.2016 10.2142 25.318 10.2301C26.2035 10.3513 26.3259 10.513 26.3259 10.6693C26.3259 10.8261 26.204 10.9872 25.318 11.1084ZM28.0199 16.2901C27.9008 16.2901 27.8047 16.1952 27.8047 16.0784C27.8047 15.9617 27.9014 15.8668 28.0199 15.8668C28.139 15.8668 28.2351 15.9617 28.2351 16.0784C28.2357 16.1952 28.139 16.2901 28.0199 16.2901Z" fill="#2A484D"/>
<path d="M25.0136 10.6693C25.0136 10.7279 25.0109 10.7872 25.0049 10.8442C25.4725 10.7943 25.7964 10.7296 25.9489 10.6693C25.7964 10.609 25.4714 10.5443 25.0049 10.4944C25.0098 10.552 25.0136 10.6106 25.0136 10.6693Z" fill="#2A484D"/>
</svg>
