<svg width="20" height="20" viewBox="0 0 20 20" fill="none" xmlns="http://www.w3.org/2000/svg">
<path d="M7.142 12.186V11.598C7.142 11.2807 7.21667 10.996 7.366 10.744C7.52467 10.4827 7.73 10.2773 7.982 10.128C8.24333 9.97867 8.528 9.904 8.836 9.904H12.672C12.8213 9.904 12.9473 9.85267 13.05 9.75C13.162 9.638 13.218 9.50733 13.218 9.358V6.642C13.218 6.49267 13.162 6.36667 13.05 6.264C12.9473 6.152 12.8213 6.096 12.672 6.096H5.434V4.92L12.672 4.934C12.98 4.934 13.26 5.01333 13.512 5.172C13.7733 5.32133 13.9787 5.52667 14.128 5.788C14.2867 6.04 14.366 6.32467 14.366 6.642V9.358C14.366 9.666 14.2867 9.95067 14.128 10.212C13.9787 10.464 13.7733 10.6693 13.512 10.828C13.26 10.9773 12.98 11.052 12.672 11.052H8.836C8.68667 11.052 8.556 11.108 8.444 11.22C8.34133 11.3227 8.29 11.4487 8.29 11.598V12.186H7.142ZM7.142 15V13.852H8.29V15H7.142Z" fill="#787878"/>
<circle cx="10" cy="10" r="9.5" stroke="#787878"/>
</svg>
