<svg width="139" height="107" viewBox="0 0 139 107" fill="none" xmlns="http://www.w3.org/2000/svg">
<rect x="2.42401" y="68.4506" width="130.675" height="42.0752" transform="rotate(-30.0486 2.42401 68.4506)" fill="white" fill-opacity="0.8" stroke="#FF0000" stroke-width="3"/>
<path d="M31.7169 85.0928L23.0642 70.1352L25.5364 68.7051L34.189 83.6627L31.7169 85.0928ZM36.5077 82.3214L29.5374 70.2722L39.0106 64.7922C39.5092 64.5038 40.0423 64.3709 40.61 64.3937C41.1836 64.3947 41.7152 64.5308 42.2048 64.802C42.6945 65.0733 43.0875 65.4652 43.3839 65.9776L48.7438 75.243L46.2717 76.6731L40.9599 67.4908C40.8958 67.38 40.8021 67.314 40.679 67.2928C40.5617 67.2498 40.4545 67.2563 40.3576 67.3124L33.8344 71.0859C33.7375 71.142 33.6715 71.2357 33.6365 71.3668C33.5934 71.4841 33.6039 71.5982 33.668 71.709L38.9798 80.8913L36.5077 82.3214ZM61.699 74.098L60.2569 71.6051L67.5903 67.3629C67.6872 67.3068 67.7463 67.2172 67.7674 67.094C67.8105 66.9767 67.8 66.8626 67.7359 66.7518L66.6543 64.8821L59.6741 68.92C59.1755 69.2085 58.6394 69.3522 58.0659 69.3513C57.4982 69.3285 56.9626 69.1855 56.4591 68.9222C55.9694 68.6509 55.5764 68.2591 55.2799 67.7466L51.5304 61.265C51.234 60.7526 51.0903 60.2165 51.0992 59.6568C51.122 59.0891 51.269 58.5604 51.5403 58.0708C51.8174 57.5593 52.2053 57.1593 52.7039 56.8709L59.3932 53.0012C59.9057 52.7048 60.4457 52.5679 61.0134 52.5907C61.587 52.5917 62.1117 52.7318 62.5875 53.0111C63.0771 53.2823 63.4701 53.6742 63.7666 54.1866L70.2681 65.4256C70.5645 65.938 70.7083 66.4741 70.6994 67.0338C70.7123 67.5993 70.5762 68.1309 70.291 68.6286C70.0198 69.1182 69.6279 69.5113 69.1155 69.8077L61.699 74.098ZM58.3271 66.3998L64.8502 62.6263C64.9472 62.5702 65.0103 62.4875 65.0394 62.3782C65.0745 62.247 65.0599 62.126 64.9958 62.0153L61.3425 55.6998C61.2784 55.589 61.1848 55.523 61.0616 55.5019C60.9443 55.4588 60.8372 55.4653 60.7402 55.5214L54.217 59.295C54.1063 59.3591 54.0333 59.4567 53.9983 59.5879C53.9691 59.6972 53.9866 59.8072 54.0507 59.918L57.704 66.2334C57.7681 66.3442 57.8588 66.4212 57.9761 66.4642C58.0993 66.4854 58.2163 66.4639 58.3271 66.3998ZM73.6778 60.8191C73.1654 61.1156 72.6224 61.2633 72.0488 61.2624C71.4811 61.2396 70.9525 61.0926 70.4628 60.8213C69.9732 60.55 69.5801 60.1582 69.2837 59.6457L66.6879 55.1584L76.4519 49.5102L75.3462 47.5989C75.2821 47.4881 75.1885 47.4221 75.0654 47.401C74.948 47.3579 74.834 47.3684 74.7232 47.4325L65.3539 52.8525L63.9238 50.3803L73.3762 44.9123C73.9025 44.6079 74.4495 44.467 75.0172 44.4898C75.5769 44.4988 76.1016 44.6389 76.5912 44.9102C77.0808 45.1814 77.4739 45.5733 77.7703 46.0857L83.1302 55.3511L73.6778 60.8191ZM72.3308 58.2989L79.2279 54.3091L77.7618 51.7746L70.47 55.9928L71.7078 58.1325C71.7719 58.2433 71.8626 58.3202 71.9799 58.3633C72.103 58.3845 72.22 58.363 72.3308 58.2989ZM84.8326 54.3663L77.8623 42.3172L93.0277 33.5443C93.5539 33.2398 94.1009 33.099 94.6687 33.1218C95.2284 33.1307 95.753 33.2709 96.2427 33.5421C96.7323 33.8134 97.1254 34.2053 97.4218 34.7177L102.782 43.9831L100.309 45.4132L94.9977 36.2309C94.9336 36.1201 94.84 36.0541 94.7168 36.0329C94.5995 35.9899 94.4855 36.0004 94.3747 36.0645L89.9082 38.6483C89.8112 38.7044 89.7452 38.798 89.7102 38.9292C89.681 39.0385 89.6985 39.1485 89.7626 39.2593L95.0743 48.4416L92.5606 49.8958L87.2488 40.7135C87.1848 40.6027 87.0981 40.5327 86.9887 40.5035C86.8714 40.4605 86.7574 40.471 86.6466 40.5351L82.1593 43.1309C82.0623 43.187 81.9964 43.2806 81.9613 43.4118C81.9321 43.5211 81.9496 43.6311 82.0137 43.7419L87.3255 52.9242L84.8326 54.3663ZM107.415 41.3025C106.903 41.5989 106.367 41.7427 105.807 41.7338C105.24 41.711 104.704 41.5679 104.2 41.3047C103.711 41.0334 103.318 40.6415 103.021 40.1291L99.2719 33.6475C98.9754 33.135 98.8317 32.599 98.8406 32.0393C98.8634 31.4716 99.0104 30.9429 99.2817 30.4532C99.545 29.9497 99.9328 29.5498 100.445 29.2533L107.114 25.3957C107.64 25.0912 108.187 24.9504 108.755 24.9732C109.315 24.9821 109.839 25.1223 110.329 25.3935C110.819 25.6648 111.212 26.0567 111.508 26.5691L114.104 31.0564L104.34 36.7047L105.445 38.6159C105.51 38.7267 105.6 38.8036 105.718 38.8467C105.841 38.8678 105.958 38.8464 106.068 38.7823L115.438 33.3623L116.868 35.8345L107.415 41.3025ZM103.03 34.4402L110.322 30.2221L109.084 28.0823C109.02 27.9715 108.926 27.9055 108.803 27.8843C108.686 27.8413 108.572 27.8518 108.461 27.9159L101.958 31.6774C101.848 31.7415 101.775 31.8392 101.74 31.9703C101.711 32.0796 101.728 32.1897 101.792 32.3005L103.03 34.4402Z" fill="#FF0000"/>
</svg>
