<svg width="56" height="57" viewBox="0 0 56 57" fill="none" xmlns="http://www.w3.org/2000/svg">
<path d="M7.32653 17.1672L7.16862 16.8518C7.09833 16.7133 6.96995 16.6083 6.81743 16.5705C6.66492 16.5327 6.50181 16.5688 6.37587 16.6609C5.4446 17.3534 4.69507 18.2266 4.15296 19.2076C4.07662 19.3437 4.06592 19.5096 4.12168 19.6565C4.17745 19.8034 4.29704 19.9183 4.44648 19.9675L4.7782 20.081C4.99483 20.1543 5.15981 20.306 5.25372 20.4938C5.34972 20.6852 5.37046 20.9056 5.29707 21.1222C5.22368 21.3388 5.07207 21.5038 4.88427 21.5977C4.69283 21.6937 4.47246 21.7145 4.25583 21.6411L3.92048 21.5297C3.77104 21.4805 3.60681 21.4979 3.47458 21.579C3.33872 21.6623 3.24939 21.801 3.22667 21.9545C3.06573 23.0591 3.13481 24.21 3.45539 25.327C3.50027 25.4802 3.60533 25.6034 3.75171 25.6641C3.89446 25.7269 4.06134 25.7226 4.20196 25.6559L4.51739 25.498C4.92414 25.297 5.41675 25.4628 5.62134 25.8674C5.82229 26.2742 5.65654 26.7668 5.25188 26.9714L4.93645 27.1293C4.79794 27.1996 4.69296 27.328 4.65516 27.4805C4.61736 27.633 4.65345 27.7961 4.74552 27.922C5.43809 28.8533 6.31131 29.6028 7.29228 30.145C7.42833 30.2213 7.59425 30.232 7.74114 30.1762C7.88804 30.1205 8.00294 30.0009 8.05219 29.8514L8.16563 29.5197C8.23901 29.3031 8.39063 29.1381 8.57843 29.0442C8.76624 28.9503 8.99024 28.9275 9.20687 29.0008C9.42349 29.0742 9.58848 29.2258 9.68238 29.4137C9.77839 29.6051 9.79913 29.8255 9.72574 30.0421L9.61231 30.3738C9.56306 30.5232 9.58043 30.6875 9.66161 30.8197C9.74489 30.9556 9.88359 31.0449 10.0371 31.0676C11.1474 31.2301 12.2925 31.1595 13.4095 30.8389C13.5591 30.7961 13.686 30.689 13.7467 30.5426C13.8095 30.3998 13.8051 30.2329 13.7385 30.0923L13.5806 29.7769C13.3796 29.3702 13.5453 28.8775 13.9521 28.6766C14.3588 28.4756 14.8515 28.6414 15.0561 29.046L15.214 29.3615C15.2843 29.5 15.4126 29.605 15.5651 29.6428C15.7177 29.6806 15.8808 29.6445 16.0067 29.5524C16.938 28.8598 17.6875 27.9866 18.2296 27.0056C18.306 26.8696 18.3167 26.7037 18.2609 26.5568C18.2051 26.4099 18.0855 26.295 17.9361 26.2457L17.6044 26.1323C17.3878 26.0589 17.2228 25.9073 17.1289 25.7195C17.0329 25.528 17.0121 25.3077 17.0855 25.0911C17.1589 24.8744 17.3105 24.7094 17.5004 24.6192C17.6882 24.5253 17.9122 24.5024 18.1288 24.5758L18.4606 24.6892C18.61 24.7385 18.7742 24.7211 18.9101 24.6378C19.0423 24.5567 19.1353 24.4159 19.158 24.2624C19.3169 23.1542 19.2499 22.0069 18.9293 20.8899C18.8844 20.7367 18.7793 20.6134 18.633 20.5527C18.4881 20.4863 18.3233 20.4943 18.1827 20.561L17.8709 20.7168C17.4642 20.9178 16.9716 20.752 16.767 20.3474C16.566 19.9406 16.7318 19.448 17.1364 19.2434L17.4519 19.0855C17.5961 19.0167 17.6953 18.8868 17.7331 18.7343C17.7633 18.6104 17.7481 18.4836 17.691 18.3762C17.6763 18.3508 17.6596 18.3218 17.6392 18.2948C16.9466 17.3636 16.0734 16.614 15.0924 16.0719C14.9563 15.9956 14.7904 15.9849 14.6435 16.0407C14.4966 16.0964 14.3817 16.216 14.3325 16.3654L14.219 16.6972C14.1457 16.9138 13.994 17.0788 13.8062 17.1727C13.6148 17.2687 13.3944 17.2894 13.1778 17.216C12.9612 17.1426 12.7962 16.991 12.7023 16.8032C12.6084 16.6154 12.5855 16.3914 12.6589 16.1748L12.7724 15.8431C12.8216 15.6936 12.8042 15.5294 12.721 15.3935C12.6377 15.2577 12.499 15.1684 12.3455 15.1456C11.2388 14.9811 10.09 15.0538 8.97304 15.3744C8.81986 15.4192 8.69658 15.5243 8.63587 15.6707C8.57307 15.8134 8.57746 15.9803 8.64412 16.1209L8.80203 16.4363C9.00298 16.8431 8.83723 17.3357 8.43048 17.5367C8.02373 17.7376 7.53111 17.5719 7.32653 17.1672Z" fill="#303030"/>
<path d="M30.3277 18.2008L30.3304 17.6225C30.3302 17.3679 30.2203 17.1192 30.0252 16.951C29.8302 16.7827 29.5649 16.7147 29.3125 16.756C27.4376 17.079 25.6946 17.8007 24.1752 18.8337C23.9627 18.9761 23.8242 19.2109 23.7969 19.467C23.7696 19.7231 23.8594 19.9797 24.0415 20.1625L24.4425 20.5741C24.705 20.8419 24.8339 21.1858 24.8322 21.53C24.8307 21.8811 24.6978 22.2187 24.43 22.4812C24.1622 22.7436 23.8183 22.8726 23.4741 22.8708C23.123 22.8694 22.7854 22.7364 22.5229 22.4686L22.115 22.0574C21.9329 21.8747 21.6799 21.7784 21.4264 21.7992C21.166 21.8203 20.9326 21.957 20.7857 22.1646C19.7321 23.6608 18.9806 25.395 18.6219 27.266C18.5741 27.5232 18.6364 27.7814 18.8055 27.9786C18.9677 28.1761 19.215 28.2934 19.4701 28.3L20.0483 28.3028C20.792 28.3102 21.3896 28.9175 21.3891 29.6608C21.3816 30.4045 20.7743 31.0022 20.031 31.0016L19.4527 30.9989C19.1981 30.999 18.9495 31.109 18.7812 31.3041C18.613 31.4991 18.5449 31.7644 18.5863 32.0167C18.9092 33.8917 19.631 35.6347 20.664 37.1541C20.8064 37.3665 21.0411 37.5051 21.2972 37.5324C21.5534 37.5596 21.81 37.4699 21.9927 37.2878L22.4043 36.8867C22.6721 36.6243 23.0161 36.4953 23.3603 36.4971C23.7045 36.4989 24.049 36.6314 24.3114 36.8992C24.5739 37.167 24.7028 37.511 24.701 37.8552C24.6996 38.2063 24.5667 38.5439 24.2989 38.8063L23.8873 39.2074C23.7045 39.3895 23.6083 39.6425 23.6291 39.896C23.6502 40.1564 23.7869 40.3898 23.9945 40.5367C25.4979 41.5968 27.2249 42.3418 29.0958 42.7005C29.3462 42.7487 29.6112 42.686 29.8084 42.5169C30.006 42.3547 30.1232 42.1074 30.1299 41.8523L30.1326 41.2741C30.1401 40.5304 30.7474 39.9328 31.4911 39.9402C32.2348 39.9476 32.8324 40.5549 32.8318 41.2983L32.8291 41.8765C32.8293 42.1312 32.9393 42.3798 33.1343 42.548C33.3293 42.7163 33.5946 42.7844 33.847 42.743C35.7219 42.4201 37.4649 41.6983 38.9844 40.6653C39.1968 40.5229 39.3353 40.2882 39.3626 40.032C39.3899 39.7759 39.3001 39.5193 39.118 39.3366L38.717 38.9249C38.4545 38.6571 38.3256 38.3132 38.3274 37.969C38.3288 37.6179 38.4617 37.2803 38.7295 37.0178C38.9973 36.7554 39.3412 36.6265 39.6858 36.6351C40.03 36.6369 40.3745 36.7694 40.6369 37.0372L41.038 37.4488C41.2201 37.6316 41.4731 37.7278 41.7335 37.7067C41.987 37.6859 42.2273 37.5489 42.3742 37.3412C43.4274 35.8383 44.1793 34.1109 44.5379 32.2399C44.5858 31.9826 44.5235 31.7245 44.3544 31.5273C44.1918 31.3229 43.9448 31.2125 43.6898 31.2058L43.1184 31.2027C42.3747 31.1953 41.7771 30.588 41.7777 29.8447C41.7851 29.101 42.3924 28.5033 43.1357 28.5039L43.714 28.5067C43.9759 28.513 44.2173 28.3965 44.3855 28.2015C44.5213 28.0426 44.5932 27.846 44.5891 27.6466C44.5865 27.5986 44.5835 27.5437 44.5736 27.4892C44.2507 25.6142 43.5289 23.8712 42.4959 22.3518C42.3535 22.1393 42.1188 22.0008 41.8626 21.9735C41.6065 21.9463 41.3499 22.036 41.1672 22.2181L40.7556 22.6192C40.4878 22.8816 40.1438 23.0106 39.7996 23.0088C39.4485 23.0074 39.1109 22.8744 38.8485 22.6066C38.586 22.3388 38.4571 21.9949 38.4589 21.6507C38.4607 21.3065 38.5932 20.962 38.861 20.6996L39.2726 20.2985C39.4553 20.1164 39.5516 19.8634 39.5304 19.603C39.5093 19.3426 39.3726 19.1092 39.165 18.9623C37.6685 17.9018 35.9347 17.1572 34.0637 16.7986C33.8064 16.7507 33.5483 16.813 33.3511 16.9821C33.1535 17.1444 33.0363 17.3917 33.0296 17.6467L33.0269 18.2249C33.0194 18.9686 32.4121 19.5663 31.6684 19.5588C30.9247 19.5514 30.3271 18.9441 30.3277 18.2008Z" fill="#303030"/>
<path d="M7.15624 16.9841L6.99833 16.6686C6.92804 16.5301 6.79966 16.4251 6.64715 16.3873C6.49463 16.3495 6.33153 16.3856 6.20559 16.4777C5.27431 17.1703 4.52478 18.0435 3.98268 19.0245C3.90633 19.1605 3.89563 19.3264 3.9514 19.4733C4.00717 19.6202 4.12675 19.7351 4.27619 19.7844L4.60791 19.8978C4.82454 19.9712 4.98952 20.1228 5.08343 20.3106C5.17943 20.502 5.20017 20.7224 5.12678 20.939C5.05339 21.1557 4.90178 21.3207 4.71398 21.4146C4.52254 21.5106 4.30217 21.5313 4.08554 21.4579L3.75019 21.3466C3.60075 21.2973 3.43652 21.3147 3.30429 21.3959C3.16844 21.4792 3.0791 21.6179 3.05639 21.7714C2.89544 22.8759 2.96452 24.0268 3.28511 25.1438C3.32998 25.297 3.43504 25.4203 3.58142 25.481C3.72417 25.5438 3.89106 25.5394 4.03167 25.4727L4.3471 25.3148C4.75385 25.1139 5.24646 25.2796 5.45105 25.6843C5.652 26.091 5.48625 26.5836 5.0816 26.7882L4.76617 26.9461C4.62765 27.0164 4.52267 27.1448 4.48487 27.2973C4.44708 27.4498 4.48316 27.6129 4.57523 27.7389C5.2678 28.6702 6.14102 29.4197 7.122 29.9618C7.25804 30.0381 7.42396 30.0488 7.57086 29.9931C7.71776 29.9373 7.83265 29.8177 7.8819 29.6683L7.99534 29.3366C8.06873 29.1199 8.22034 28.955 8.40814 28.861C8.59595 28.7671 8.81995 28.7443 9.03658 28.8177C9.25321 28.8911 9.41819 29.0427 9.5121 29.2305C9.6081 29.4219 9.62884 29.6423 9.55545 29.8589L9.44202 30.1906C9.39277 30.3401 9.41014 30.5043 9.49132 30.6365C9.5746 30.7724 9.7133 30.8617 9.86679 30.8845C10.9771 31.0469 12.1222 30.9763 13.2392 30.6557C13.3888 30.613 13.5157 30.5058 13.5764 30.3594C13.6392 30.2167 13.6348 30.0498 13.5682 29.9092L13.4103 29.5937C13.2093 29.187 13.3751 28.6944 13.7818 28.4934C14.1886 28.2925 14.6812 28.4582 14.8858 28.8629L15.0437 29.1783C15.114 29.3168 15.2423 29.4218 15.3949 29.4596C15.5474 29.4974 15.7105 29.4613 15.8364 29.3692C16.7677 28.6767 17.5172 27.8034 18.0593 26.8225C18.1357 26.6864 18.1464 26.5205 18.0906 26.3736C18.0348 26.2267 17.9153 26.1118 17.7658 26.0626L17.4341 25.9491C17.2175 25.8757 17.0525 25.7241 16.9586 25.5363C16.8626 25.3449 16.8418 25.1245 16.9152 24.9079C16.9886 24.6913 17.1402 24.5263 17.3301 24.436C17.5179 24.3421 17.7419 24.3193 17.9586 24.3927L18.2903 24.5061C18.4397 24.5553 18.6039 24.538 18.7398 24.4547C18.872 24.3735 18.965 24.2327 18.9877 24.0792C19.1466 22.971 19.0796 21.8238 18.759 20.7068C18.7141 20.5536 18.6091 20.4303 18.4627 20.3696C18.3178 20.3032 18.153 20.3112 18.0124 20.3778L17.7006 20.5337C17.2939 20.7346 16.8013 20.5689 16.5967 20.1642C16.3957 19.7574 16.5615 19.2648 16.9661 19.0602L17.2816 18.9023C17.4258 18.8336 17.5251 18.7037 17.5629 18.5512C17.593 18.4273 17.5779 18.3005 17.5207 18.1931C17.506 18.1677 17.4893 18.1386 17.4689 18.1117C16.7763 17.1804 15.9031 16.4309 14.9221 15.8888C14.7861 15.8124 14.6201 15.8017 14.4732 15.8575C14.3263 15.9133 14.2114 16.0328 14.1622 16.1823L14.0488 16.514C13.9754 16.7306 13.8238 16.8956 13.636 16.9895C13.4445 17.0855 13.2241 17.1063 13.0075 17.0329C12.7909 16.9595 12.6259 16.8079 12.532 16.6201C12.4381 16.4323 12.4153 16.2083 12.4886 15.9916L12.6021 15.6599C12.6513 15.5105 12.634 15.3463 12.5507 15.2104C12.4674 15.0745 12.3287 14.9852 12.1752 14.9625C11.0685 14.7979 9.91975 14.8706 8.80276 15.1912C8.64957 15.2361 8.52629 15.3411 8.46559 15.4875C8.40279 15.6303 8.40717 15.7972 8.47383 15.9378L8.63174 16.2532C8.83269 16.6599 8.66694 17.1526 8.26019 17.3535C7.85344 17.5545 7.36082 17.3887 7.15624 16.9841ZM9.69683 16.0691C10.2667 15.9579 10.8447 15.9194 11.4101 15.9512C11.3474 16.3456 11.4147 16.7472 11.5836 17.0902C11.7992 17.5223 12.1809 17.8732 12.6735 18.0389C13.1682 18.2083 13.6853 18.1566 14.1139 17.9431C14.4568 17.7741 14.752 17.4972 14.9391 17.1423C15.4069 17.4579 15.8428 17.8356 16.2295 18.2706C15.493 18.7975 15.2281 19.7975 15.6477 20.6249C16.0643 21.4639 17.0212 21.8553 17.8899 21.5909C18.0032 22.1644 18.0396 22.7388 18.0078 23.3042C17.6113 23.2378 17.2097 23.3051 16.8688 23.4777C16.4346 23.6897 16.0837 24.0714 15.918 24.564C15.7522 25.0566 15.8003 25.5758 16.0138 26.0043C16.1849 26.3509 16.4618 26.646 16.8167 26.8332C16.4995 27.3067 16.1255 27.7405 15.6905 28.1272C15.1636 27.3907 14.1636 27.1258 13.3247 27.5424C12.4858 27.959 12.0886 28.9143 12.3566 29.7809C11.7831 29.8942 11.2087 29.9306 10.6434 29.8988C10.7061 29.5044 10.6388 29.1028 10.4698 28.7598C10.2542 28.3277 9.87256 27.9768 9.37995 27.8111C8.88943 27.649 8.37383 27.6949 7.94167 27.9106C7.5951 28.0816 7.29996 28.3585 7.1128 28.7134C6.64136 28.3999 6.20552 28.0223 5.81881 27.5872C6.55532 27.0604 6.82021 26.0604 6.40363 25.2214C5.98705 24.3825 5.03014 23.9911 4.16143 24.2555C4.05023 23.6856 4.01387 23.1112 4.04357 22.5422C4.44008 22.6086 4.8417 22.5413 5.18464 22.3723C5.6168 22.1567 5.96764 21.775 6.13339 21.2824C6.30124 20.7934 6.25317 20.2742 6.03754 19.842C5.86859 19.4991 5.59379 19.2076 5.23678 19.0168C5.55602 18.5469 5.93001 18.1132 6.36505 17.7264C6.89193 18.463 7.89194 18.7278 8.73086 18.3113C9.56977 17.8947 9.9612 16.9378 9.69683 16.0691ZM26.5549 34.5367C29.2753 37.337 33.7436 37.405 36.5439 34.6846C39.3443 31.9642 39.4086 27.498 36.6918 24.6956C33.9735 21.8989 29.5052 21.8309 26.7028 24.5477C23.9025 27.2681 23.8366 31.74 26.5549 34.5367ZM35.5244 25.8343C37.6107 27.989 37.5594 31.4215 35.4089 33.5151C33.2541 35.6014 29.8216 35.5501 27.7244 33.4016C25.6439 31.2484 25.693 27.8123 27.84 25.7208C30.0005 23.6361 33.4308 23.6837 35.5244 25.8343Z" fill="white"/>
<path d="M23.7447 19.0629C23.7193 19.3292 23.8099 19.5867 23.9922 19.7767L24.4007 20.1992C24.9294 20.7459 24.9176 21.6143 24.373 22.1465C23.8263 22.6751 22.9579 22.6634 22.4256 22.1188L22.0218 21.6791C21.8358 21.4912 21.5801 21.392 21.3166 21.4135C21.053 21.4349 20.8113 21.5696 20.6589 21.7835C19.5257 23.3671 18.7797 25.1435 18.4166 26.9795C18.3647 27.2418 18.4314 27.5082 18.5977 27.7124C18.7639 27.9165 19.0135 28.0386 19.2766 28.0416L19.8632 28.0515C20.2449 28.0586 20.583 28.2167 20.8311 28.4704C21.0777 28.7298 21.2259 29.0702 21.2187 29.4519C21.2137 29.8372 21.0535 30.1717 20.7998 30.4198C20.5425 30.67 20.2021 30.8182 19.8204 30.8111L19.2302 30.8033C18.9671 30.8003 18.7164 30.9111 18.5426 31.1131C18.3688 31.3151 18.2946 31.5806 18.3384 31.8409C18.6446 33.6875 19.342 35.4824 20.425 37.0983C20.5716 37.3186 20.8093 37.4621 21.072 37.4895C21.3347 37.5169 21.5958 37.4243 21.7858 37.242L22.2083 36.8335C22.755 36.3048 23.6234 36.3166 24.1557 36.8612C24.6843 37.4079 24.6726 38.2763 24.1279 38.8086L23.7055 39.217C23.5176 39.403 23.4183 39.6587 23.4398 39.9222C23.4613 40.1858 23.596 40.4275 23.8098 40.5799C25.3914 41.7095 27.1662 42.4612 29.0022 42.8243C29.2645 42.8762 29.5309 42.8095 29.7351 42.6432C29.9392 42.477 30.0613 42.2274 30.0643 41.9642L30.0742 41.3777C30.0813 40.996 30.2394 40.6579 30.4931 40.4098C30.7489 40.1653 31.0893 40.0171 31.4746 40.0222C31.8563 40.0293 32.1944 40.1874 32.4425 40.4411C32.6891 40.7005 32.8373 41.0409 32.8301 41.4226L32.8224 42.0128C32.8194 42.2759 32.9323 42.5302 33.1322 42.7004C33.3342 42.8742 33.5997 42.9484 33.86 42.9046C35.7066 42.5984 37.5015 41.901 39.1173 40.818C39.334 40.6735 39.4775 40.4358 39.505 40.1731C39.5324 39.9104 39.4397 39.6493 39.2574 39.4592L38.8489 39.0368C38.3203 38.4901 38.332 37.6217 38.8766 37.0894C39.4234 36.5608 40.2917 36.5725 40.824 37.1171L41.2325 37.5396C41.4184 37.7275 41.6742 37.8267 41.9377 37.8053C42.2012 37.7838 42.4429 37.6491 42.5953 37.4353C43.7249 35.8537 44.4746 34.0753 44.8325 32.2471C44.8843 31.9848 44.8176 31.7183 44.6514 31.5142C44.4851 31.3101 44.2355 31.188 43.9724 31.185L43.3859 31.1751C43.0042 31.168 42.666 31.0099 42.4179 30.7562C42.1734 30.5004 42.0253 30.16 42.0303 29.7747C42.0375 29.393 42.1956 29.0548 42.4493 28.8067C42.7051 28.5623 43.0455 28.4141 43.4308 28.4192L44.0173 28.429C44.2805 28.432 44.5347 28.3191 44.7049 28.1192C44.8787 27.9172 44.9529 27.6517 44.9091 27.3914C44.603 25.5448 43.9055 23.7499 42.8225 22.134C42.676 21.9137 42.4382 21.7702 42.1755 21.7428C41.9128 21.7154 41.6517 21.808 41.4617 21.9904L41.0392 22.3988C40.4925 22.9275 39.6241 22.9157 39.0919 22.3711C38.5669 21.8223 38.5786 20.9539 39.1232 20.4217L39.5457 20.0132C39.7336 19.8272 39.8328 19.5715 39.8114 19.308C39.7948 19.0949 39.7082 18.9029 39.5692 18.7459C39.5295 18.7108 39.4898 18.6756 39.4465 18.6425C37.865 17.5129 36.0865 16.7633 34.2505 16.4002C33.9903 16.3519 33.7218 16.415 33.5176 16.5813C33.3135 16.7475 33.1914 16.9971 33.1884 17.2602L33.1785 17.8468C33.1714 18.2285 33.0133 18.5666 32.7596 18.8147C32.5002 19.0613 32.1598 19.2095 31.7781 19.2023C31.3964 19.1952 31.0583 19.037 30.8102 18.7834C30.562 18.5297 30.4139 18.1893 30.4189 17.804L30.4288 17.2174C30.4318 16.9543 30.3189 16.7 30.119 16.5298C29.9191 16.3597 29.6536 16.2855 29.3933 16.3293C27.5467 16.6354 25.7518 17.3329 24.1359 18.4158C23.9177 18.566 23.7721 18.8002 23.7447 19.0629ZM28.6221 18.0621C28.725 18.7433 29.0418 19.359 29.4962 19.8276C30.0651 20.4188 30.8706 20.7912 31.7598 20.8054C32.6453 20.8218 33.4616 20.4666 34.0508 19.8941C34.5193 19.4397 34.853 18.8356 34.9759 18.1596C35.9068 18.4305 36.809 18.8196 37.6656 19.3222C36.7451 20.57 36.8341 22.3339 37.9457 23.4879C39.0624 24.6341 40.8231 24.7744 42.0941 23.8906C42.5727 24.7614 42.9355 25.675 43.1779 26.6145C42.4967 26.7173 41.8824 27.0284 41.4123 27.4886C40.8232 28.0611 40.4451 28.8651 40.4345 29.7521C40.4239 30.6392 40.7733 31.454 41.3458 32.0432C41.8002 32.5117 42.4044 32.8454 43.0803 32.9683C42.8115 33.9028 42.4224 34.8051 41.9198 35.6616C40.672 34.7411 38.9082 34.8301 37.7599 35.9432C36.6137 37.06 36.4733 38.8207 37.3572 40.0917C36.4842 40.5666 35.5707 40.9295 34.6312 41.1718C34.5283 40.4906 34.2136 39.8784 33.7571 39.4063C33.1846 38.8171 32.3806 38.439 31.4935 38.4284C30.6064 38.4178 29.7916 38.7672 29.2025 39.3397C28.719 39.8073 28.3943 40.4146 28.2738 41.0763C27.3429 40.8054 26.4406 40.4164 25.5841 39.9137C26.5045 38.6659 26.4156 36.9021 25.3024 35.7538C24.1857 34.6076 22.425 34.4672 21.154 35.3511C20.6811 34.4817 20.3162 33.5646 20.0739 32.6251C20.7572 32.5259 21.3709 32.2054 21.8394 31.751C22.4285 31.1785 22.8009 30.373 22.8224 29.4796C22.8351 28.5961 22.4836 27.7777 21.9111 27.1886C21.4435 26.7051 20.8362 26.3804 20.1745 26.2599C20.4454 25.329 20.8324 24.423 21.3371 23.5702C22.5813 24.4927 24.3451 24.4038 25.4934 23.2906C26.6396 22.1739 26.78 20.4132 25.8961 19.1422C26.767 18.6636 27.6826 18.3044 28.6221 18.0621ZM7.92672 24.4634C8.77874 26.1739 10.8528 26.8738 12.5597 26.0239C14.2723 25.1755 14.9666 23.0999 14.1203 21.3909C13.2682 19.6804 11.1962 18.9841 9.48727 19.8304C7.77468 20.6788 7.08042 22.7544 7.92672 24.4634ZM10.0797 21.0325C11.1303 20.513 12.3993 20.9421 12.9203 21.9869C13.4397 23.0375 13.0143 24.3045 11.9658 24.8275C10.9188 25.3449 9.64615 24.9179 9.12519 23.8731C8.60575 22.8225 9.03478 21.5534 10.0797 21.0325Z" fill="white"/>
</svg>
