<svg width="71" height="71" viewBox="0 0 71 71" fill="none" xmlns="http://www.w3.org/2000/svg">
<g filter="url(#filter0_d_1517_806)">
<rect x="12.2617" y="12.183" width="45.8965" height="45.8965" rx="10" fill="#303030"/>
<rect x="13.2617" y="13.183" width="43.8965" height="43.8965" rx="9" stroke="white" stroke-width="2"/>
</g>
<rect x="28.4785" y="44.9225" width="14.0749" height="1.83586" rx="0.91793" stroke="white" stroke-width="1.83586"/>
<rect x="30.3144" y="49.2062" width="10.4032" height="1.83586" rx="0.91793" stroke="white" stroke-width="1.83586"/>
<circle cx="35.2104" cy="31.4595" r="10.9331" stroke="white" stroke-width="2"/>
<path d="M33.6802 44.3105C33.6802 41.8627 33.6802 36.4163 33.6802 34.2133C33.6802 32.6834 32.7622 31.7655 31.5383 31.7655C30.0084 31.7655 29.3965 32.9894 29.3965 33.6014C29.3965 35.1312 30.6204 35.7432 31.5383 35.7432C33.4966 35.7432 34.9041 35.7432 35.516 35.7432" stroke="white" stroke-width="2"/>
<path d="M37.3521 44.3105C37.3521 41.8627 37.3521 36.4163 37.3521 34.2133C37.3521 32.6834 38.27 31.7655 39.4939 31.7655C41.0238 31.7655 41.6357 32.9894 41.6357 33.6014C41.6357 35.1312 40.4118 35.7432 39.4939 35.7432C37.5357 35.7432 36.1282 35.7432 35.5162 35.7432" stroke="white" stroke-width="2"/>
<defs>
<filter id="filter0_d_1517_806" x="0.261719" y="0.182983" width="69.8965" height="69.8965" filterUnits="userSpaceOnUse" color-interpolation-filters="sRGB">
<feFlood flood-opacity="0" result="BackgroundImageFix"/>
<feColorMatrix in="SourceAlpha" type="matrix" values="0 0 0 0 0 0 0 0 0 0 0 0 0 0 0 0 0 0 127 0" result="hardAlpha"/>
<feMorphology radius="4" operator="dilate" in="SourceAlpha" result="effect1_dropShadow_1517_806"/>
<feOffset/>
<feGaussianBlur stdDeviation="4"/>
<feComposite in2="hardAlpha" operator="out"/>
<feColorMatrix type="matrix" values="0 0 0 0 1 0 0 0 0 1 0 0 0 0 1 0 0 0 0.5 0"/>
<feBlend mode="normal" in2="BackgroundImageFix" result="effect1_dropShadow_1517_806"/>
<feBlend mode="normal" in="SourceGraphic" in2="effect1_dropShadow_1517_806" result="shape"/>
</filter>
</defs>
</svg>
