<svg width="819" height="819" viewBox="0 0 819 819" fill="none" xmlns="http://www.w3.org/2000/svg">
<path d="M427.907 404.525C427.498 404.545 427.088 404.555 426.689 404.555C426.525 403.624 426.218 402.713 425.655 402.098C425.46 399.907 424.59 397.942 422.942 397.635C418.652 398.699 413.472 399.774 411.24 404.033C410.995 404.494 410.8 405.036 410.636 405.61C409.142 407.238 409.224 409.94 409.705 411.978C409.991 413.083 410.985 414.803 412.326 414.107C412.489 414.045 412.633 413.964 412.797 413.902C413.431 414.199 414.189 414.322 415.1 414.189C417.69 413.677 420.26 413.042 422.788 412.264C423.167 412.223 423.546 412.192 423.925 412.152C425.133 411.988 426.341 411.763 427.508 411.445C428.061 411.302 428.695 411.189 428.941 410.595C429.944 409.142 430.006 404.996 427.907 404.525Z" fill="#4152A6"/>
<path d="M349.201 419.248C349.213 419.248 349.225 419.236 349.237 419.236C349.237 419.236 349.213 419.236 349.201 419.248Z" fill="#FC2F15"/>
<path d="M371.601 431.306C371.365 430.815 370.997 430.415 370.546 430.098C370.127 428.716 369.328 427.518 368.192 426.924C367.946 426.771 367.711 426.617 367.475 426.453C368.489 423.249 368.376 418.857 365.683 416.728C363.738 415.929 361.507 416.728 359.469 416.84C357.002 417.219 354.566 417.793 352.15 418.427C351.085 418.407 349.989 418.437 349.232 419.216C349.232 419.216 349.232 419.216 349.222 419.216C348.607 419.451 348.075 419.809 347.778 420.464C347.297 421.283 346.949 422.195 346.734 423.147C346.611 423.198 346.478 423.259 346.314 423.341C344.338 424.887 344.389 428.02 345.014 430.241C345.649 432.391 346.58 432.698 348.648 432.186C348.894 432.156 349.129 432.105 349.375 432.064C349.785 432.33 350.245 432.524 350.778 432.606C353.46 433.087 356.193 433.374 358.916 433.446C358.916 434.213 359.05 434.981 359.377 435.688C360.555 437.868 367.373 437.889 369.195 436.476C369.697 436.077 370.075 435.544 370.342 434.93C370.352 434.93 370.362 434.94 370.372 434.94C372.01 434.869 372.031 432.463 371.601 431.306Z" fill="#FC2F15"/>
<path d="M705.517 350.706C704.534 350.317 703.562 349.918 702.589 349.508C701.279 348.924 699.948 348.392 698.617 347.89C698.535 347.665 698.453 347.44 698.361 347.215C695.515 340.591 687.786 339.445 681.469 338.288C680.087 337.981 678.705 337.694 677.313 337.418C678.644 334.428 679.176 331.04 678.848 327.866C677.456 318.407 666.389 314.506 657.268 312.981C656.817 311.926 656.213 310.964 655.456 310.145C650.706 305.784 643.038 305.671 635.82 306.715C635.687 306.562 635.554 306.398 635.411 306.255C634.827 305.528 633.844 305.63 632.995 305.692C632.217 305.661 631.449 305.681 630.681 305.722C628.869 305.159 626.606 305.323 624.037 306.326C618.683 307.667 613.748 310.053 608.977 312.755C595.863 318.826 583.476 326.566 573.208 336.803C572.819 337.172 572.45 337.561 572.071 337.94C569.512 339.823 567.024 341.789 564.721 343.97C562.796 345.945 561.107 348.31 560.104 350.88C559.571 353.019 559.428 355.395 559.981 357.565C558.855 358.005 557.718 358.435 556.592 358.886C555.302 359.571 553.603 359.889 552.292 360.636C552.2 360.667 552.108 360.708 552.016 360.739C552.016 360.759 552.016 360.769 552.026 360.79C551.545 361.107 551.115 361.486 550.818 362.008C550.511 362.346 550.245 362.847 550.04 363.441C548.658 364.271 547.276 365.11 545.894 365.949C544.573 366.83 542.956 367.485 541.799 368.601C536.946 370.526 532.084 372.389 527.159 374.129C526.729 374.273 526.361 374.385 526.033 374.498C524.979 374.743 523.914 374.979 522.849 375.204C522.041 375.44 521.181 375.573 520.433 375.982C519.307 376.689 518.693 377.958 518.335 379.207C518.222 379.668 518.13 380.128 518.048 380.61C517.874 380.702 517.7 380.825 517.557 380.978C514.711 383.824 514.854 389.158 516.379 392.659C516.717 393.427 517.198 393.949 517.772 394.297C518.191 395.198 518.765 395.976 519.543 396.57C521.426 397.778 523.668 397.102 525.644 396.519C530.855 394.481 536.046 392.608 541.185 390.857C541.645 391.318 542.198 391.635 542.884 391.738C544.246 391.687 545.607 391.451 546.938 391.164C546.979 391.154 547.01 391.154 547.051 391.144C547.46 391.482 547.942 391.727 548.525 391.82C552.159 391.635 555.466 389.844 558.865 388.707C558.967 388.677 559.059 388.636 559.162 388.605C560.851 388.267 562.53 387.919 564.219 387.592C579.504 385.053 594.768 382.422 610.011 379.709C612.55 379.166 615.089 378.613 617.628 378.081C625.593 377.682 633.578 377.866 641.553 378.286C651.289 378.521 661.179 379.729 670.843 378.071C673.873 377.344 676.883 376.494 679.811 375.429C681.643 374.877 683.455 373.986 684.315 372.174C684.479 371.805 684.622 371.406 684.766 370.997C686.854 370.894 688.953 370.782 691.041 370.7C692.771 370.669 694.512 370.659 696.242 370.556C696.805 370.546 697.255 370.341 697.614 369.942C698.177 369.451 698.586 368.836 698.904 368.171C700.276 367.874 701.637 367.587 702.999 367.26C707.933 366.103 707.964 359.459 708.138 357.544C708.077 355.139 707.647 352.17 705.517 350.706ZM654.432 329.432C653.244 329.75 652.077 330.067 650.91 330.384C650.992 330.323 651.084 330.262 651.166 330.19C651.217 330.149 651.258 330.108 651.31 330.067C651.586 329.913 651.852 329.76 652.118 329.606C652.958 329.504 653.807 329.432 654.657 329.381C654.586 329.391 654.514 329.412 654.432 329.432ZM657.063 328.808C656.152 328.531 655.231 328.296 654.299 328.112C654.76 327.764 655.21 327.405 655.64 327.016C655.66 326.986 655.681 326.955 655.701 326.934C657.421 327.201 659.1 327.549 660.697 327.958C659.489 328.234 658.281 328.521 657.063 328.808Z" fill="#F3FB2E"/>
<path d="M258.128 598.372C257.197 597.205 255.548 596.693 254.238 596.017C252.743 595.27 251.146 594.891 249.529 594.594C249.529 594.584 249.518 594.584 249.518 594.574C251.075 592.516 251.331 589.598 250.604 587.059C251.29 586.179 251.75 585.083 251.873 583.65C252.17 581.142 251.904 576.289 248.853 575.716C247.727 575.644 246.632 576.136 245.567 576.453C245.454 576.494 245.331 576.545 245.219 576.586C244.594 575.962 243.734 575.614 242.598 575.757C239.609 576.494 237.162 578.449 234.858 580.466C234.101 580.814 233.353 581.173 232.616 581.582C231.715 582.084 230.835 582.616 229.955 583.159C228.593 583.609 227.231 584.06 225.87 584.531C224.539 585.083 223.034 585.769 222.225 587.008C220.823 589.383 220.823 592.741 222.215 595.157C222.246 595.321 222.287 595.495 222.328 595.648C222.686 597.071 223.976 599.293 225.706 598.402C226.249 598.105 226.781 597.778 227.313 597.46C227.313 597.46 227.313 597.471 227.324 597.471C227.477 597.675 227.682 597.778 227.928 597.798C229.156 598.013 230.395 598.218 231.634 598.372C235.36 598.791 239.107 598.935 242.854 598.904C243.478 599.242 244.144 599.293 245.311 599.539C246.058 599.569 246.795 599.6 247.543 599.641C249.979 600.665 252.518 601.474 255.129 601.873C255.999 601.955 257.033 601.996 257.801 601.607C258.599 600.798 258.538 599.365 258.128 598.372ZM243.714 590.796C244.656 590.622 245.475 590.54 246.13 590.581C245.198 591.379 244.082 592.127 243.161 592.966C241.277 592.802 239.383 592.721 237.489 592.71C239.588 592.147 241.666 591.513 243.714 590.796Z" fill="#F3FB2E"/>
<path d="M585.247 271.509C585.217 271.427 585.186 271.355 585.165 271.334C585.186 271.396 585.217 271.458 585.247 271.509Z" fill="#4BBB39"/>
<path d="M623.413 303.634C624.017 300.941 623.843 297.993 622.42 295.659C621.918 294.655 620.587 293.796 619.502 294.461C618.908 294.85 618.325 295.26 617.762 295.7C617.506 295.085 617.209 294.533 616.85 294.062C616.113 293.314 615.131 292.731 614.117 293.345C613.861 293.427 613.605 293.499 613.359 293.581C613.329 293.499 613.308 293.407 613.278 293.325C613.032 292.454 612.387 291.41 611.558 290.888C609.09 287.684 605.732 285.217 602.067 283.343C601.709 282.033 601.146 280.784 600.389 279.688C598.536 277.436 595.71 276.32 593.007 275.44C590.898 274.733 588.748 274.129 586.578 273.658C586.394 273.495 586.22 273.341 586.036 273.187C585.954 273.003 585.862 272.829 585.78 272.645C585.595 272.266 585.421 271.887 585.237 271.509C585.319 271.713 585.432 272.031 585.524 272.276C584.602 269.871 583.138 267.536 580.968 266.093C578.777 264.864 577.047 264.864 575.706 265.601C575.337 265.141 574.959 264.66 574.344 264.619C573.802 264.342 573.259 264.639 572.747 264.916C570.618 265.714 569.011 267.373 567.854 269.297C566.769 269.574 565.817 270.086 565.325 271.232C564.342 273.341 564.178 275.839 564.67 278.101C564.711 278.501 564.854 278.982 564.997 279.371C565.008 279.391 565.008 279.422 565.018 279.443C564.823 280.814 564.639 282.176 564.434 283.538C564.424 283.722 564.414 283.906 564.404 284.09C562.878 287.07 561.547 290.141 560.442 293.304C559.633 295.321 559.009 297.604 558.937 299.856C558.824 300.092 558.701 300.317 558.579 300.563C555.548 306.93 552.866 313.462 550.174 319.983C549.508 321.58 548.853 323.187 548.187 324.795C545.229 329.647 542.25 334.817 538.964 341.083C538.441 342.26 538.022 343.56 537.807 344.891C536.885 345.72 536.066 346.672 535.708 347.88C535.247 349.15 534.961 350.655 534.93 352.18C532.238 355.497 529.668 358.906 527.231 362.407C525.839 364.557 524.57 365.939 524.068 368.55C523.034 369.789 522.143 371.007 521.416 372.194C521.15 372.481 520.884 372.778 520.618 373.065C519.359 373.679 518.376 374.795 517.475 375.839C516.656 377.026 516.236 377.293 515.919 379.125C515.817 380.2 515.827 381.429 516.236 382.463C515.417 383.292 514.588 384.121 513.769 384.95C514.701 384.326 515.612 383.671 516.533 383.046C516.728 383.353 516.963 383.64 517.27 383.865C517.69 384.111 518.1 383.988 518.499 383.773C519.482 383.241 520.342 382.493 521.263 381.869C523.136 380.436 524.948 378.951 526.74 377.436C528.306 377.764 529.166 375.757 530.17 374.815C530.559 374.354 530.937 373.894 531.316 373.433C532.463 372.399 533.579 371.324 534.705 370.27C539.864 366.533 544.963 362.714 550.041 358.855C550.542 360.452 551.576 361.895 553.112 361.23C553.112 361.24 553.112 361.24 553.112 361.25C553.142 361.23 553.173 361.209 553.204 361.179C553.296 361.138 553.378 361.097 553.47 361.046C553.593 360.943 553.808 360.759 554.043 360.554C554.269 360.39 554.494 360.227 554.709 360.053C558.108 357.463 561.414 354.739 564.762 352.078C578.224 341.349 589.946 332.227 601.648 322.256C603.132 321.017 604.637 319.809 606.142 318.601C607.166 318.458 608.19 318.253 609.152 317.864C612.254 316.533 616.902 313.175 619.635 309.418C620.833 308.497 621.887 307.401 622.635 306.07C622.757 305.784 622.86 305.477 622.972 305.169C622.993 305.149 623.013 305.139 623.034 305.128C623.29 304.668 623.402 304.156 623.413 303.634Z" fill="#4BBB39"/>
<path d="M292.659 459.909C292.404 459.398 291.984 459.049 291.523 458.742C290.776 455.804 288.974 453.337 286.036 454.975C285.964 454.873 285.913 454.76 285.841 454.658C283.732 451.607 280.753 452.149 279.156 455.323C278.716 456.326 278.409 457.36 278.194 458.425C277.662 458.486 277.119 458.579 276.689 458.845C275.655 459.92 275.737 461.936 276.546 463.124C276.617 463.216 276.699 463.278 276.791 463.339C276.617 463.769 276.413 464.291 276.146 464.967C274.355 469.307 273.618 474.191 274.856 478.777C275.164 479.924 275.634 480.825 276.208 481.521C276.494 482.698 276.945 483.824 277.897 484.592C278.583 485.462 279.719 485.135 280.62 484.848C281.562 484.305 282.176 483.466 282.678 482.534C283.63 482.043 284.562 481.337 285.37 480.395C287.551 477.651 288.718 474.283 289.148 470.812C290.336 470.608 291.472 470.219 292.352 469.379C294.236 466.728 294.277 462.674 292.659 459.909Z" fill="#4BBB39"/>
<path d="M738.523 216.339C738.963 216.114 739.393 215.878 739.843 215.663C739.332 215.735 738.799 215.827 738.246 215.94C737.704 215.233 736.987 214.701 736.004 214.609C734.745 214.65 733.466 214.814 732.196 214.762C730.947 214.803 729.667 214.67 728.429 214.855C726.31 215.295 724.334 216.226 722.327 217.015C718.396 218.612 714.465 220.188 710.585 221.908C708.783 222.727 706.971 223.546 705.169 224.365C704.872 224.447 704.586 224.519 704.289 224.59C698.464 225.901 685.411 227.559 677.446 230.303C672.081 232.238 666.502 233.425 661.117 235.268C659.971 235.78 658.844 236.343 657.728 236.916C657.083 237.111 656.428 237.285 655.783 237.49C654.524 237.899 653.265 238.329 652.006 238.759C648.453 238.995 644.921 239.455 641.42 240.08C638.216 240.612 635.073 241.359 631.981 242.25C627.968 243.11 623.996 244.175 620.106 245.403C618.857 245.895 617.608 246.396 616.379 246.929C610.749 248.423 604.79 250.368 598.955 252.498C595.362 253.726 591.799 255.047 588.267 256.419C587.499 255.886 586.353 255.385 585.646 256.091C585.134 256.593 584.776 257.228 584.53 257.903C584.356 257.975 584.182 258.036 584.008 258.108C583.67 258.231 583.333 258.354 583.005 258.477C580.773 258.712 578.572 259.214 576.443 260.053C574.395 260.882 571.733 261.66 570.874 263.913C571.15 263.493 571.57 263.227 572.041 263.032C571.826 263.206 571.6 263.38 571.508 263.606C571.529 263.759 571.723 263.81 571.815 263.923C571.908 263.995 572 264.056 572.102 264.107C571.989 264.056 571.826 263.78 571.713 263.636C571.948 263.503 572.184 263.401 572.43 263.309C572.307 263.647 572.307 264.056 572.43 264.404C572.276 264.609 572.122 264.824 572 265.059C571.907 265.53 571.918 266.359 572.481 266.503C573.986 266.503 575.388 265.991 576.791 265.51C576.893 265.479 576.996 265.438 577.098 265.407C577.354 266.093 577.743 266.738 578.204 267.271C578.593 267.762 579.043 268.171 579.524 268.54C579.145 268.816 578.756 269.083 578.378 269.359C578.869 269.195 579.35 269.021 579.842 268.847C580.19 269.84 580.64 270.741 581.172 271.376C582.984 273.188 585.605 273.812 588.001 274.498C591.338 275.389 594.768 275.921 598.218 276.075C598.535 276.054 598.873 276.065 599.211 276.075C599.528 276.187 599.846 276.3 600.163 276.413C600.419 276.515 600.654 276.566 600.88 276.566C601.719 277.641 602.569 278.706 603.439 279.74C604.217 282.627 605.957 284.992 608.722 285.739C612.448 289.752 616.553 293.458 621.406 296.028C621.672 296.161 621.948 296.263 622.215 296.396C625.491 299.652 629.842 301.157 634.254 300.368C637.294 301.126 640.366 301.761 643.509 301.648C645.085 301.576 646.867 302.017 648.238 301.044C650.501 299.283 651.125 295.997 650.798 292.967C651.903 292.25 653.019 291.462 654.115 290.602C655.466 290.459 656.797 290.131 658.036 289.65C660.114 288.943 661.998 287.92 663.728 286.681C669.041 285.35 675.173 279.668 678.326 277.119C684.858 271.458 690.683 265.059 696.928 259.091C701.258 254.709 706.223 250.972 710.278 246.325C710.677 245.751 711.015 245.117 711.281 244.461C711.946 243.96 712.601 243.448 713.267 242.957C716.481 240.745 719.778 238.687 723.3 236.978C727.354 234.889 731.07 232.238 734.991 229.924C739.444 228.47 740.417 223.147 739.485 219.062C739.332 218.161 739.024 217.168 738.523 216.339Z" fill="#3B52A9"/>
<path d="M704.801 277.662C705.077 276.341 704.964 275.891 704.135 274.826C703.92 274.549 695.106 277.744 694.512 278.327C688.738 284.07 683.834 290.407 679.729 297.44C680.128 296.755 683.752 296.028 684.561 295.741C685.8 295.291 688.421 294.922 689.352 293.939C695.587 287.357 702.651 281.04 708.271 273.935C708.722 273.362 711.946 269.113 710.626 268.274C710.349 268.1 708.896 268.755 708.486 268.888C705.937 269.687 703.429 270.69 700.931 271.632C694.614 274.007 690.079 278.317 685.237 282.924C678.777 289.076 672.604 295.516 666.666 302.18C668.652 299.959 674.129 300.85 676.289 298.679C682.616 292.311 688.543 285.596 693.969 278.45C695.413 276.546 696.826 274.621 698.208 272.666C699.088 271.407 701.105 270.086 699.293 268.97C697.716 267.997 694.123 269.922 692.7 270.444C690.499 271.243 688.052 271.898 685.984 273.014C682.319 274.979 679.309 278.583 676.248 281.347C668.836 288.053 661.414 294.748 654.002 301.454C656.326 299.355 661.189 300.031 663.625 297.952C670.792 291.82 677.671 285.381 684.203 278.573C685.36 277.365 687.305 276.484 686.209 274.846C685.145 273.27 682.851 273.802 681.418 274.14C679.36 274.631 677.292 275.583 675.317 276.31C668.724 278.737 663.38 283.118 658.2 287.817C655.21 290.53 652.374 293.417 649.723 296.468C648.505 297.87 646.263 299.099 648.935 298.72C649.835 298.597 650.89 298.085 651.77 297.778C656.828 296.017 662.11 294.369 666.645 291.462C669.788 289.445 672.563 286.875 674.846 283.917C675.736 282.76 677.374 280.999 677.692 279.545C678.859 278.051 678.572 277.754 676.842 278.634C676.279 278.788 675.726 278.972 675.173 279.187C670.566 280.712 665.745 282.268 661.455 284.562C654.391 288.339 648.781 294.308 643.365 300.082C644.154 299.242 647.082 298.782 648.197 298.382C649.774 297.809 651.494 297.348 652.989 296.581C658.404 293.806 662.765 290.039 666.287 285.074C665.335 286.425 659.715 287.408 658.066 288.032C651.043 290.653 645.597 294.768 642.157 301.597C642.383 301.535 642.608 301.464 642.823 301.382C646.508 300.123 650.245 298.884 653.838 297.359C655.046 296.847 666.86 288.995 665.366 287.817C664.322 286.998 655.937 291.042 654.78 291.482C650.839 292.977 647.245 294.871 644.266 297.932C643.396 298.823 642.618 299.795 641.901 300.809C640.96 302.16 640.12 302.436 641.84 302.733C642.649 302.877 644.573 301.822 645.321 301.556C646.488 301.136 655.19 298.341 653.439 297.123C651.433 295.721 644.768 299.253 643.048 299.887C639.24 301.31 635.994 302.723 635.227 307.207C635.421 306.04 643.642 304.658 644.85 303.706C646.959 302.027 649.078 300.348 651.187 298.679C648.668 300.676 644.123 300.153 641.564 302.18C639.455 303.859 637.335 305.538 635.227 307.207C638.431 306.04 641.635 304.873 644.85 303.706C645.382 300.573 647.123 298.546 650.132 297.369C646.979 298.515 643.826 299.652 640.683 300.798C642.792 300.358 645.822 300.194 642.915 302.375C646.058 301.228 649.211 300.072 652.354 298.925C648.187 300.286 651.903 296.662 652.876 295.526C654.166 294.011 655.65 292.66 657.268 291.513C657.872 291.073 658.507 290.673 659.152 290.315C661.056 289.271 659.919 289.599 655.732 291.308C654.227 292.496 653.152 294.768 651.668 296.13C651.187 296.57 646.519 299.56 646.519 299.775C648.494 298.751 650.48 297.737 652.456 296.714C652.948 295.813 653.49 294.943 654.094 294.113C656.756 290.418 660.575 287.234 664.874 285.626C662.131 286.609 659.387 287.592 656.654 288.585C653.132 293.55 648.771 297.328 643.355 300.092C646.559 298.925 649.764 297.758 652.978 296.591C657.698 291.554 662.53 286.425 668.376 282.668C669.532 281.92 671.437 281.235 672.471 280.354C670.351 280.17 669 280.845 668.417 282.381C668.089 283.057 667.731 283.712 667.342 284.347C665.693 287.121 663.584 289.629 661.179 291.789C660.063 292.793 658.896 293.704 657.657 294.543C656.551 295.291 651.832 299.017 657.135 295.618C659.643 294.011 661.926 290.069 664.086 287.899C669.154 282.821 674.999 277.375 681.449 274.14C678.245 275.307 675.04 276.474 671.826 277.641C673.996 277.078 677.63 277.273 676.555 280.016C675.573 282.524 671.252 285.534 669.317 287.438C664.403 292.301 659.285 296.949 654.033 301.454C657.237 300.286 660.442 299.119 663.656 297.952C669.092 293.038 674.539 288.124 679.975 283.21C684.96 278.706 690.509 271.673 696.754 269.052C693.601 270.198 690.448 271.335 687.305 272.481C688.083 272.348 690.274 272.021 690.663 273.229C690.785 273.618 687.847 277.283 687.591 277.641C685.503 280.559 683.333 283.405 681.08 286.21C676.586 291.81 671.764 297.113 666.707 302.201C669.911 301.034 673.116 299.867 676.33 298.7C681.418 292.987 686.67 287.438 692.147 282.094C696.948 277.406 702.118 271.417 708.548 268.96C705.558 270.035 702.569 271.12 699.579 272.195C702.774 271.335 700.224 275.45 699.201 276.822C697.348 279.3 694.932 281.49 692.802 283.732C688.462 288.309 684.121 292.895 679.77 297.471C682.974 296.304 686.179 295.137 689.393 293.97C693.498 286.937 698.402 280.6 704.176 274.857C700.972 276.024 697.767 277.191 694.553 278.358C695.382 279.412 695.485 279.873 695.218 281.194C695.525 279.463 704.422 279.474 704.801 277.662Z" fill="#FF2A0C"/>
<path d="M740.919 216.728C738.799 216.503 737.039 218.151 735.206 218.99C733.947 219.728 732.514 220.27 731.521 221.376C731.019 222.041 730.671 222.778 730.415 223.546C729.77 223.986 729.135 224.447 728.48 224.846C728.326 224.867 728.163 224.908 728.009 224.969C726.023 225.471 724.446 226.904 722.86 228.133C719.799 230.446 717.342 233.364 715.11 236.456C713.175 237.612 711.516 239.148 709.868 240.694C707.626 242.741 705.446 244.85 703.388 247.082C700.112 249.396 696.805 251.658 693.754 254.259C692.925 254.924 692.106 255.6 691.287 256.275C690.243 256.624 689.25 257.094 688.328 257.709C686.895 258.651 685.544 259.695 684.223 260.78C683.496 261.22 682.78 261.681 682.094 262.193C680.548 263.104 679.002 264.015 677.436 264.895C674.61 266.492 671.539 267.588 668.693 269.144C665.458 270.843 663.595 273.997 661.373 276.771C659.295 278.061 656.633 278.921 655.927 281.49C655.569 282.227 655.333 283.169 655.22 284.203C654.842 284.439 654.463 284.674 654.094 284.91C651.33 286.875 647.368 288.155 646.119 291.523C644.993 291.922 643.908 292.414 642.843 292.977C641.441 293.13 640.038 293.601 638.728 294.379C634.838 296.847 634.459 302.436 635.912 306.429C636.363 307.965 637.51 309.142 638.933 309.326C639.035 310.125 639.188 310.893 639.383 311.599C640.571 316.062 644.553 317.23 648.679 316.103C649.713 315.899 650.706 315.592 651.627 315.172C652.804 316.165 654.074 317.035 655.425 317.741C655.528 317.813 655.63 317.854 655.732 317.915C656.07 322.43 658.21 326.832 661.639 329.791C664.209 332.33 667.741 333.333 671.232 333.784C672.235 333.937 673.095 333.845 673.822 333.589C674.457 333.896 675.091 334.173 675.747 334.418C678.03 336.814 680.394 339.138 682.78 341.4C684.141 342.557 685.523 343.704 686.926 344.809C687.509 345.229 688.236 345.68 688.922 345.311C689.496 345.076 689.966 344.697 690.366 344.236C690.54 344.359 690.704 344.492 690.878 344.605C691.84 345.28 692.843 345.884 693.877 346.427C694.42 347.174 694.973 347.911 695.515 348.659C696.211 349.529 696.928 350.389 697.634 351.249C698.617 352.754 699.6 354.259 700.603 355.753C700.654 355.825 700.706 355.897 700.757 355.978C701.801 357.893 703.05 359.766 704.494 361.138C705.906 361.967 707.421 360.585 707.964 359.306C708.107 359.019 708.22 358.732 708.343 358.435C708.599 361.241 709.182 363.984 710.718 366.349C711.588 367.588 713.451 367.608 714.322 366.349C715.693 364.701 715.847 362.5 716.308 360.483C716.379 360.033 716.451 359.582 716.523 359.142C717.321 358.548 717.987 357.473 718.324 356.153C719.041 353.501 718.816 350.716 719.061 348.003C719.133 346.355 719.236 344.717 719.317 343.069C719.983 338.032 721.426 331.183 722.993 321.673C723.76 314.916 725.634 308.006 724.641 301.208C724.62 301.034 724.579 300.86 724.539 300.686C724.774 299.744 725.009 298.802 725.255 297.86C725.757 295.557 726.668 293.304 726.77 290.929C726.893 290.264 726.883 289.332 726.75 288.329C727.569 285.36 728.398 282.402 729.268 279.443C730.906 273.536 732.892 267.7 733.844 261.64C734.254 259.572 734.029 257.033 733.322 254.986C734.551 251.832 735.595 248.587 736.803 245.434C738.41 241.533 740.683 237.653 739.895 233.272C739.864 232.965 739.803 232.617 739.721 232.258C740.1 232.002 740.489 231.757 740.867 231.501C742.393 230.6 743.601 229.269 743.99 227.508C744.901 224.427 744.788 217.445 740.919 216.728Z" fill="#FF2A0C"/>
<path d="M449.969 526.883C449.846 526.668 449.703 526.463 449.559 526.269C449.017 524.016 447.645 521.949 445.26 521.396C443.99 521.017 442.659 520.72 441.308 520.515C440.315 520.003 439.281 519.573 438.206 519.266C436.404 518.458 434.418 519.123 432.985 520.362C430.589 520.536 428.368 521.181 426.576 522.286C426.586 522.235 426.597 522.194 426.597 522.143C426.576 522.194 426.556 522.256 426.545 522.307C422.88 524.58 421.038 528.767 423.167 534.756C425.419 539.332 433.466 542.137 438.83 541.676C439.045 541.727 439.26 541.789 439.475 541.83C442.7 542.413 446.56 542.075 448.976 539.649C452.067 536.261 452.18 530.773 449.969 526.883ZM430.221 530.517C430.354 531.295 430.528 532.053 430.784 532.79C430.343 532.585 429.903 532.37 429.473 532.145C429.054 531.777 428.685 531.367 428.347 530.937C428.931 530.743 429.555 530.609 430.221 530.517Z" fill="#C7621D"/>
<path opacity="0.8" d="M497.983 532.473C498.167 531.818 498.31 531.152 498.433 530.507C498.822 527.764 498.607 525.051 498.054 522.389C498.669 519.41 498.351 516.011 497.532 513.534C495.72 508.599 491.953 504.781 488.134 501.187C487.684 500.542 487.244 499.887 486.773 499.252C486.025 498.31 485.401 497.276 484.592 496.406C484.254 495.198 483.742 494.103 483.077 493.233C481.132 491.451 479.77 490.069 476.146 486.875C474.867 485.729 473.269 485.063 471.846 484.121C470.69 483.456 469.697 482.514 468.499 481.93C466.574 481.224 464.496 481.255 462.469 481.132C459.848 480.712 457.227 480.937 454.596 481.173C454.371 481.183 454.146 481.183 453.931 481.142C452.313 480.569 450.614 480.405 448.904 480.579C445.495 480.753 447.164 479.996 444.021 480.098C442.025 480.374 440.479 481.695 438.779 482.668C433.64 485.135 431.173 485.473 427.365 486.752C426.873 486.957 426.371 487.131 425.87 487.315C425.716 486.957 425.532 486.609 425.307 486.292C424.181 485.043 422.266 485.78 420.823 486.005C418.611 486.67 416.83 487.899 415.254 489.414C414.086 489.609 413.042 490.274 412.121 491.226C412.09 491.236 412.059 491.247 412.029 491.257C411.732 491.308 411.445 491.39 411.189 491.513C411.128 491.533 411.066 491.554 411.005 491.574C411.005 491.584 411.005 491.595 411.015 491.605C410.851 491.697 410.698 491.81 410.555 491.963C410.084 492.659 409.766 493.54 409.643 494.461C409.213 494.287 408.794 494.215 408.364 494.287C404.586 495.905 403.91 500.522 403.706 504.258C403.327 505.692 403.04 507.145 402.784 508.609C402.375 512.285 401.894 516.103 402.088 519.83C402.068 520.229 402.047 520.628 402.037 521.027C402.088 524.467 401.699 528.091 403.153 531.306C403.9 532.923 404.811 533.405 405.692 533.21C405.815 535.821 406.245 538.38 407.524 540.745C408.456 542.618 409.817 544.523 411.865 545.249C413.677 545.771 413.841 545.731 414.506 546.027C417.291 547.42 418.294 550.276 421.959 548.689C425.03 547.113 423.863 546.908 426.627 547.256C428.276 547.747 429.934 548.29 431.675 548.208C433.19 548.136 434.674 547.727 436.189 547.655C438.063 547.522 439.496 549.037 443.396 548.863C445.188 548.73 446.816 547.993 448.454 547.348C450.993 548.065 453.675 548.218 456.306 547.778C459.142 547.86 461.978 547.901 464.772 548.392C468.888 548.986 468.673 549.232 472.256 550.03C474.416 550.706 476.586 550.348 478.654 549.57C479.883 549.744 480.886 549.744 481.715 549.559C483.527 550.102 485.37 550.204 486.998 549.692C487.981 549.57 488.943 549.303 489.813 548.843C490.294 548.454 490.704 548.014 491.083 547.543C491.134 547.584 491.185 547.625 491.236 547.665C493.529 548.945 496.416 547.45 497.338 545.137C498.71 542.147 498.556 538.779 498.3 535.575C498.218 534.531 498.106 533.507 497.983 532.473ZM450.307 496.959C449.027 497.297 447.809 497.85 446.734 498.618C446.447 498.863 446.181 499.119 445.925 499.375C444.963 497.829 443.867 496.386 442.567 495.249C443.069 494.932 443.57 494.615 444.113 494.369C444.123 494.369 444.134 494.359 444.144 494.359C444.523 494.308 444.912 494.287 445.29 494.359C445.536 494.41 445.546 494.42 445.475 494.4C445.731 494.471 445.987 494.543 446.242 494.604C447.706 495.086 449.242 494.758 450.747 494.779C451.116 494.748 451.627 494.819 451.975 494.881C451.382 495.516 450.829 496.222 450.307 496.959Z" fill="#8EB6BC" stroke="#522F18" stroke-miterlimit="10"/>
<path opacity="0.8" d="M497.205 535.606C497.031 532.524 496.058 529.443 493.294 528.624C492.628 527.272 491.564 526.085 489.926 525.266C488.114 524.539 486.22 524.006 484.305 523.576C483.886 523.126 483.435 522.706 482.944 522.317C482.688 520.096 481.91 517.26 479.514 516.891C477.426 517.239 475.286 517.629 473.167 517.27C473.146 517.26 473.136 517.26 473.116 517.25C472.85 517.127 472.604 517.014 472.379 516.912C472.225 516.81 472.072 516.717 471.928 516.605C470.567 515.694 469.195 513.974 466.103 511.271C465.458 511.087 464.844 510.821 464.209 511.271C463.922 511.506 463.646 511.752 463.359 511.988C463.257 512.141 463.175 512.305 463.073 512.459C462.203 511.711 461.527 510.575 460.278 510.544C459.428 510.575 458.855 511.077 458.312 511.67C458.036 511.896 457.678 512.192 457.432 512.428C456.859 513.052 456.398 513.728 455.999 514.445C455.661 513.933 455.262 513.503 454.811 513.175C449.416 511.179 448.505 511.547 443.622 509.817C440.571 509.039 437.346 507.207 434.162 508.138C433.384 508.65 432.749 509.582 432.278 510.749C429.975 511.077 428.02 511.466 427.108 511.824C426.218 512.182 425.542 512.919 425.061 513.851C424.969 513.841 424.877 513.82 424.785 513.81C423.321 513.789 421.979 514.506 420.649 514.997C419.666 515.346 418.724 515.479 417.68 515.827C415.991 516.574 414.527 517.792 412.694 518.243C410.647 518.703 408.486 519.031 406.941 520.608C406.715 520.833 406.49 521.058 406.275 521.294C405.251 520.526 404.514 521.99 403.931 522.758C403.624 523.167 403.368 523.597 403.153 524.047C402.282 523.986 401.453 524.17 401.105 524.938C400.348 526.648 400.716 528.818 401.883 530.272C401.74 531.838 401.597 533.425 401.996 534.95C402.712 537.377 404.228 537.346 405.313 536.036C405.743 538.636 406.787 541.072 408.978 542.649C409.94 543.294 411.005 543.724 412.131 544.031C413.063 544.492 414.056 544.799 415.1 544.952C415.325 545.075 415.55 545.208 415.786 545.311C418.345 546.191 421.222 546.324 423.863 545.638C424.57 545.649 425.276 545.567 425.972 545.413C428.05 546.549 430.395 547.235 432.739 547.338C433.415 548.413 434.387 549.18 435.728 549.416C438.636 550.092 441.574 550.593 444.492 551.187C447.072 551.576 450.102 552.825 452.446 551.126C453.357 550.429 453.931 549.436 454.238 548.341C454.432 548.249 454.627 548.146 454.791 548.003C454.965 547.757 455.098 547.481 455.221 547.205C457.207 547.297 459.203 547.297 461.169 547.44C461.455 547.471 461.742 547.481 462.018 547.502C464.537 549.365 467.465 551.074 470.679 550.89C472.952 550.675 474.938 549.754 476.576 548.372C479.944 549.232 483.23 548.976 485.595 547.266C485.831 548.157 486.281 548.894 487.11 549.18C488.247 551.945 490.305 553.275 493.867 549.57C496.601 547.133 498.576 540.12 497.205 535.606Z" fill="#522F18"/>
<path d="M733.476 215.182C685.912 228.337 638.359 241.502 590.796 254.658C583.128 256.777 575.378 258.783 568.038 261.926C564.086 263.615 562.141 266.451 560.749 270.434C558.875 275.757 557.309 281.183 555.466 286.517C548.136 307.749 539.383 328.49 529.289 348.566C524.17 358.742 518.714 368.734 512.929 378.542C510.268 383.046 507.534 387.51 504.739 391.922C504.033 393.038 502.569 394.563 502.252 395.812C501.73 397.849 499.743 396.877 503.275 397.102C506.49 397.317 510.206 396.222 513.431 395.812C538.144 392.68 562.847 389.557 587.561 386.424C612.274 383.292 636.977 380.169 661.691 377.037C673.873 375.491 686.066 373.965 698.249 372.409C704.739 371.58 711.895 369.881 717.669 366.656C722.778 363.81 723.443 357.821 724.313 352.589C725.429 345.904 726.525 339.23 727.63 332.544C729.893 318.847 732.155 305.149 734.407 291.451C738.973 263.718 743.529 235.984 748.075 208.251C747.819 209.838 738.738 210.043 738.451 211.752C731.07 256.869 723.648 301.975 716.185 347.071C715.376 351.975 714.833 357.012 713.625 361.834C713.134 363.779 712.499 365.673 711.312 367.311C710.728 368.11 709.858 368.662 709.264 369.399C707.667 371.396 715.683 368.14 711.363 368.468C700.04 369.318 688.677 371.355 677.405 372.778C654.391 375.696 631.367 378.613 608.353 381.521C586.015 384.346 563.666 387.182 541.328 390.008C535.575 390.734 529.821 391.461 524.068 392.198C521.355 392.546 518.652 392.884 515.939 393.232C514.854 393.365 512.847 394.143 511.875 393.744C510.401 394.195 510.401 393.724 511.865 392.321C512.203 391.799 512.53 391.287 512.868 390.765C518.519 381.961 523.884 372.972 528.982 363.83C539.015 345.812 547.931 327.18 555.681 308.077C559.612 298.382 563.247 288.564 566.574 278.644C568.028 274.314 569.164 269.809 570.874 265.581C571.59 263.81 572.44 262.141 573.822 260.8C575.132 259.52 577.723 258.732 572.839 260.339C566.257 262.51 573.576 260.268 575.317 259.787C624.825 246.058 674.344 232.391 723.863 218.683C727.139 217.782 730.2 216.093 733.476 215.182Z" fill="black"/>
<path d="M490.868 400.737C489.844 401.208 484.438 403.316 488.062 402.108C486.046 402.774 484.008 403.378 481.951 403.931C478.255 404.924 474.508 405.763 470.741 406.459C463.943 407.719 457.074 408.548 450.184 409.131C435.923 410.35 421.601 410.544 407.309 411.24C382.217 412.459 357.985 416.369 334.92 426.689C307.493 438.974 290.52 462.387 280.385 489.977C270.741 516.236 265.274 544.645 247.778 567.239C243.53 572.727 238.636 577.743 233.026 581.838C230.026 584.029 226.842 585.953 223.495 587.54C222.614 587.96 218.12 589.721 222.993 587.909C228.091 586.015 222.041 587.98 220.905 588.257C218.857 588.758 216.779 589.148 214.701 589.475C196.621 592.331 177.754 591.605 159.49 592.157C156.224 592.26 153.081 595.556 149.867 595.659C178.716 594.778 209.51 596.867 235.759 582.677C261.097 568.99 272.563 539.956 280.896 514.045C290.428 484.387 299.611 454.299 325.399 434.531C331.767 429.647 338.636 426.023 345.853 422.594C346.611 422.235 349.262 421.437 345.741 422.542C346.519 422.297 347.297 422.051 348.075 421.816C350.102 421.212 352.129 420.649 354.187 420.147C357.893 419.236 361.64 418.478 365.397 417.843C380.507 415.305 395.853 414.741 411.138 414.178C427.835 413.554 444.625 413.001 461.097 409.95C474.6 407.452 487.97 402.948 500.46 397.235C497.399 398.648 493.959 399.314 490.868 400.737Z" fill="black"/>
<path d="M498.576 397.174C487.284 401.832 480.691 411.783 474.969 422.092C468.529 433.701 462.673 444.43 453.03 453.736C450.511 456.173 447.921 458.711 446.345 461.895C444.563 465.458 444.707 469.266 444.42 473.136C444.164 476.576 443.488 479.954 441.001 482.524C439.885 483.67 436.23 485.339 440.376 483.783C444.881 482.094 439.496 483.537 437.991 483.732C427.641 485.063 415.601 486.414 407.022 493.089C394.379 502.927 393.519 521.856 396.017 536.404C397.481 544.921 402.59 547.614 410.718 548.443C420.28 549.416 429.873 550.071 439.475 550.45C448.75 550.818 458.026 550.91 467.301 550.736C474.754 550.593 483.292 551.32 490.417 548.945C496.467 546.928 500.839 545.843 503.101 539.352C505.487 532.514 506.06 525.091 504.975 517.946C502.569 502.026 492.055 488.554 476.924 482.892C462.315 477.436 448.904 480.927 435.022 486.332C433.21 487.039 436.609 485.831 436.773 485.769C438.974 484.991 441.175 484.203 443.345 483.353C442.239 483.783 438.298 484.827 441.513 484.387C442.741 484.223 443.959 483.926 445.198 483.773C447.43 483.496 449.672 483.374 451.914 483.425C456.162 483.527 460.391 484.203 464.455 485.431C473.075 488.042 480.886 493.14 486.414 500.286C491.758 507.196 494.963 515.724 495.7 524.416C496.304 531.49 495.956 546.048 488.492 549.59C491.697 548.423 494.901 547.256 498.116 546.089C491.318 547.481 483.834 547.102 476.904 547.235C469.942 547.368 462.991 547.348 456.029 547.174C449.068 547 442.117 546.682 435.176 546.201C428.48 545.74 421.099 545.833 414.578 544.123C403.122 541.113 404.146 524.068 404.842 514.823C405.712 503.255 410.626 491.707 421.672 486.629C421.212 486.813 420.741 486.998 420.28 487.172C410.892 490.714 420.618 488.073 423.72 487.745C426.74 487.417 429.801 487.192 432.77 486.537C437.141 485.564 441.564 483.834 445.689 482.104C451.3 479.75 453.552 475.675 454.023 469.655C454.33 465.755 454.156 462.008 455.947 458.415C457.524 455.241 460.114 452.692 462.633 450.255C471.775 441.431 477.569 431.439 483.609 420.372C489.455 409.664 496.068 398.72 507.841 393.857C505.61 394.748 501.443 395.986 498.576 397.174Z" fill="black"/>
<path d="M409.766 522.583C412.551 520.597 415.417 518.765 418.458 517.188C419.922 516.43 421.406 515.724 422.921 515.079C421.959 515.417 421.007 515.755 420.045 516.103C420.239 515.489 425.307 514.69 426.474 514.444C433.927 512.919 441.42 512.858 448.976 513.605C463.544 515.038 477.968 516.748 488.237 528.255C489.127 529.248 497.061 523.863 497.86 524.754C491.338 517.444 483.056 513.656 473.484 512.008C463.503 510.288 452.958 508.896 442.843 509.919C428.224 511.394 412.07 517.577 400.143 526.095C402.805 524.18 407.074 524.508 409.766 522.583Z" fill="black"/>
<path d="M400.624 534.448C407.166 537.09 413.718 535.933 420.423 534.622C427.375 533.261 433.783 532.616 440.857 533.527C448.239 534.489 455.415 535.728 462.899 535.544C470.966 535.349 478.972 534.131 486.936 532.933C490.253 532.432 493.263 529.924 496.56 529.432C488.595 530.63 480.589 531.848 472.522 532.043C465.028 532.227 457.872 530.988 450.481 530.026C443.417 529.104 436.988 529.749 430.047 531.121C423.331 532.442 416.789 533.599 410.247 530.947C409.449 530.63 406.244 532.35 405.415 532.647C404.586 532.944 401.433 534.776 400.624 534.448Z" fill="black"/>
<path d="M419.267 523.699C420.905 525.071 422.553 526.443 424.191 527.815C424.262 527.876 425.767 527.282 425.614 527.333C426.75 526.934 427.887 526.525 429.023 526.105C430.159 525.695 431.285 525.276 432.422 524.856C432.586 524.794 433.753 524.252 433.814 524.313C432.176 522.941 430.528 521.57 428.89 520.198C428.818 520.136 427.313 520.73 427.467 520.679C426.33 521.078 425.194 521.488 424.058 521.907C422.921 522.317 421.795 522.737 420.659 523.156C420.495 523.218 419.338 523.76 419.267 523.699Z" fill="black"/>
<path d="M456.726 524.149C458.169 525.173 459.439 526.381 460.524 527.773C460.565 527.825 462.141 527.231 461.947 527.292C463.083 526.893 464.219 526.483 465.356 526.064C466.492 525.654 467.618 525.234 468.755 524.815C468.898 524.764 470.126 524.241 470.147 524.272C469.062 522.88 467.792 521.672 466.349 520.648C466.257 520.587 464.793 521.17 464.926 521.129C463.789 521.529 462.653 521.938 461.517 522.358C460.38 522.767 459.254 523.187 458.118 523.607C457.944 523.678 456.828 524.221 456.726 524.149Z" fill="black"/>
<path d="M486.783 529.463C490.018 529.463 493.222 525.961 496.406 525.961C493.171 525.961 489.956 529.463 486.783 529.463Z" fill="black"/>
<path d="M487.868 528.04C488.8 529.453 489.731 530.855 490.673 532.268C490.704 532.309 492.301 531.715 492.096 531.787C493.232 531.388 494.369 530.978 495.505 530.558C496.641 530.149 497.768 529.729 498.904 529.309C499.047 529.258 500.286 528.746 500.296 528.767C499.365 527.354 498.433 525.951 497.491 524.539C497.46 524.498 495.863 525.092 496.068 525.02C494.932 525.419 493.795 525.829 492.659 526.248C491.523 526.658 490.397 527.078 489.26 527.497C489.117 527.548 487.878 528.06 487.868 528.04Z" fill="black"/>
<path d="M440.11 482.278C439.056 494.993 445.72 506.039 448.607 518.038C450.143 524.395 450.112 530.824 449.57 537.305C449.099 542.925 449.375 550.02 443.898 553.214C447.102 552.047 450.307 550.88 453.521 549.713C452.6 550.122 451.637 550.235 450.634 550.061C447.44 549.958 444.154 553.654 441.011 553.562C444.778 553.674 450.255 551.453 453.511 549.713C460.247 546.119 459.449 533.65 459.551 527.21C459.828 510.267 448.321 495.669 449.733 478.777C449.61 480.138 440.233 480.783 440.11 482.278Z" fill="black"/>
<path d="M439.209 409.223C432.718 404.064 427.651 397.808 423.955 390.386C423.976 390.427 414.782 393.212 414.332 393.887C411.814 397.706 410.687 401.944 408.517 405.865C406.951 408.701 403.47 409.94 402.999 413.349C403.204 411.844 412.397 411.496 412.622 409.848C413.093 406.439 416.564 405.2 418.14 402.364C420.311 398.443 421.437 394.205 423.955 390.386C420.751 391.553 417.547 392.72 414.332 393.887C418.028 401.31 423.095 407.565 429.586 412.724C431.04 413.871 437.868 408.159 439.209 409.223Z" fill="black"/>
<path d="M365.939 422.768C366.39 425 370.464 437.95 367.741 439.056C370.894 437.909 374.048 436.773 377.19 435.626C371.099 436.906 366.226 433.968 360.749 431.777C357.125 430.323 350.829 430.661 348.761 426.904C348.474 426.382 339.353 430.794 339.138 430.405C340.899 433.62 344.748 433.282 347.891 434.142C352.354 435.35 356.255 438.104 360.79 439.107C366.953 440.479 372.993 437.326 378.593 435.063C378.644 435.043 378.706 435.012 378.757 434.991C377.692 429.75 376.617 424.508 375.552 419.267C375.645 419.686 365.827 422.205 365.939 422.768Z" fill="black"/>
<path d="M300.112 458.824C291.984 456.961 284.265 454.135 276.853 450.296C276.238 449.979 267.229 453.634 267.229 453.798C267.557 468.499 270.956 482.708 277.334 495.956C277.518 496.324 286.845 492.219 286.957 492.454C280.579 479.207 277.17 464.997 276.853 450.296C273.648 451.463 270.444 452.631 267.229 453.798C274.641 457.637 282.361 460.462 290.489 462.325C293.325 462.97 297.358 458.189 300.112 458.824Z" fill="black"/>
<path d="M244.563 571.836C244.42 584.059 251.136 594.645 254.054 606.213C257.043 605.118 260.022 604.022 263.011 602.927C260.186 603.889 255.006 600.941 252.395 600.071C248.269 598.678 244.144 597.286 240.018 595.894C234.817 594.133 224.426 592.812 222.625 586.639C222.665 586.783 212.919 589.854 213.001 590.14C213.984 593.509 216.861 594.737 219.922 595.863C224.314 597.47 228.808 598.863 233.241 600.368C237.684 601.873 242.127 603.367 246.56 604.872C249.467 605.855 251.74 607.022 254.699 606.019C255.507 605.742 263.718 602.978 263.656 602.733C260.739 591.164 254.023 580.579 254.166 568.355C254.166 569.471 244.574 570.566 244.563 571.836Z" fill="black"/>
<path d="M511.302 394.092C523.863 380.651 539.619 370.516 554.391 359.715C570.045 348.269 585.657 336.752 601.207 325.174C632.319 302.006 663.226 278.573 693.928 254.862C711.394 241.369 728.797 227.795 746.13 214.138C743.601 216.124 739.076 215.622 736.506 217.639C675.573 265.653 613.82 312.622 551.238 358.476C534.398 370.812 515.99 382.258 501.668 397.594C503.736 395.393 509.203 396.334 511.302 394.092Z" fill="black"/>
<path d="M565.253 264.516C578.378 269.164 589.997 276.74 601.095 285.032C613.236 294.113 625.122 303.542 637.12 312.817C649.201 322.164 661.291 331.511 673.371 340.857C685.206 350.02 696.928 359.326 707.206 370.239C708.179 371.273 715.949 365.806 716.83 366.738C706.766 356.05 695.321 346.898 683.732 337.919C671.406 328.368 659.07 318.837 646.733 309.305C634.981 300.215 623.31 290.98 611.424 282.053C600.112 273.556 588.288 265.755 574.876 261.005C574.006 260.698 570.925 262.387 570.044 262.704C569.164 263.042 566.134 264.834 565.253 264.516Z" fill="black"/>
</svg>
