<svg width="470" height="288" viewBox="0 0 470 288" fill="none" xmlns="http://www.w3.org/2000/svg">
<path d="M363.196 130C361.808 130.276 359.588 130.791 358.478 131.629C357.549 132.328 357.835 133.248 358.714 133.879C359.699 134.587 361.193 134.573 362.313 134.306C363.936 133.92 365.643 133.248 367.164 132.581C367.627 132.379 369.227 131.73 369.223 131.169C369.223 130.147 365.809 129.379 365.102 129.342C363.427 129.25 361.702 130.147 360.171 130.732C359.454 131.008 358.575 131.15 358.682 132.121C358.82 133.391 360.976 134.03 361.984 134.127C363.723 134.288 365.448 133.432 367.035 132.853C367.733 132.595 368.492 132.374 369.153 132.02C370.037 131.546 370.199 131.647 369.56 130.925C369.186 130.502 368.261 130.097 367.761 129.867C365.67 128.91 363.742 128.845 361.623 129.591C360.467 130 357.174 130.63 357.054 132.241C356.882 134.546 361.683 135.815 363.321 136.114C365.402 136.492 367.303 135.48 369.209 134.771C369.657 134.605 371.036 134.251 371.068 133.616C371.096 133.11 368.483 131.698 368.071 131.449C365.976 130.175 362.701 128.261 360.18 128.882C359.468 129.057 358.765 129.375 358.08 129.623C357.586 129.802 356.277 130.023 355.916 130.433C354.611 131.914 359.227 134.362 360.55 134.697C363.034 135.323 365.148 134.412 367.437 133.575C368.085 133.336 369.033 133.138 369.56 132.669C370.971 131.417 369.149 129.927 368.039 129.269C365.703 127.879 363.954 128.625 361.66 129.467C360.86 129.761 359.648 129.968 359.047 130.626C358.316 131.426 358.575 132.641 359.556 133.032C359.921 133.175 361.36 132.402 361.739 132.268C362.114 132.13 363.534 131.311 363.904 131.459C362.507 130.902 362.817 129.108 364.13 128.606C362.78 129.089 361.429 129.577 360.079 130.06C362.077 129.779 368.182 132.535 364.685 134.546C366.105 134.03 367.53 133.51 368.95 132.995C367.058 133.625 364.991 133.386 363.228 132.494C362.276 132.011 359.209 129.871 360.264 128.855C358.844 129.37 357.419 129.89 355.999 130.405C357.951 129.853 360.754 131.399 362.442 132.287C363.316 132.747 364.163 133.262 364.972 133.828C366.003 134.546 367.285 135.006 365.939 135.935C366.295 135.797 366.651 135.664 367.007 135.526C366.831 135.59 366.656 135.654 366.48 135.719C367.571 135.332 368.663 134.941 369.755 134.555C367.581 134.909 365.273 133.994 363.395 132.968C361.753 132.075 360.407 130.29 362.706 129.218C361.258 129.743 359.81 130.267 358.358 130.792C359.625 130.446 360.846 130.58 362.104 130.948C362.775 131.146 363.423 131.413 364.038 131.744C364.449 131.965 364.838 132.213 365.213 132.494C365.832 132.701 365.939 132.903 365.532 133.11C364.685 133.741 365.337 133.547 367.497 132.526C367.206 132.567 366.915 132.581 366.623 132.558C366.064 132.402 365.485 132.434 364.926 132.208C363.941 131.813 361.855 130.267 363.816 129.434C362.391 129.95 360.967 130.46 359.547 130.976C360.953 130.787 362.331 131.063 363.571 131.767C364.149 132.093 364.88 132.406 364.671 132.958C364.468 133.501 363.376 133.906 362.9 134.118C364.32 133.602 365.744 133.083 367.164 132.567C365.925 132.963 364.547 133.064 363.358 132.448C362.345 131.923 361.818 130.971 362.752 130.088C361.304 130.612 359.857 131.137 358.404 131.661C358.552 131.633 358.7 131.601 358.848 131.574C360.351 131.275 361.711 130.295 363.196 130Z" fill="#FF2A0C"/>
<path d="M426.039 134.007C425.877 133.984 425.715 133.957 425.563 133.952C425.461 133.943 425.355 133.929 425.253 133.915C426.081 133.75 426.909 133.547 427.658 133.363C426.516 133.363 425.211 133.363 423.865 133.441C424.046 133.345 424.235 133.257 424.37 133.11C424.36 133.083 424.3 133.087 424.272 133.083C424.388 133.133 424.189 133.152 424.138 133.17C423.232 133.405 422.325 133.391 421.428 133.267C421.465 132.682 421.229 132.029 420.605 132.199C419.855 132.324 419.111 132.475 418.366 132.627C418.093 132.567 417.82 132.512 417.547 132.462C416.729 132.328 415.896 132.278 415.064 132.282C415.003 132.158 414.934 132.052 414.855 131.978C412.312 131.201 409.592 130.667 406.928 130.313C405.781 130.143 404.629 130.06 403.477 130.028C402.108 129.756 400.735 129.545 399.333 129.48C398.672 129.453 398.01 129.457 397.349 129.467C397.062 129.388 396.771 129.315 396.484 129.25C396.544 129.241 396.604 129.218 396.646 129.168C396.706 129.062 396.697 128.896 396.59 128.822C393.75 127.484 390.628 127.571 387.576 128.059C387.201 127.971 386.822 127.884 386.447 127.797C386.35 127.364 386.174 126.987 385.915 126.748C385.781 126.582 385.568 126.577 385.369 126.564C384.454 126.545 383.533 126.536 382.617 126.541C380.837 126.531 379.07 126.794 377.294 126.876C377.192 126.881 377.086 126.881 376.984 126.886C376.692 126.775 376.364 126.734 376.054 126.702C375.078 126.577 374.088 126.596 373.108 126.554C367.627 126.439 361.822 122.648 356.554 125.528C356.138 125.763 355.967 125.86 355.828 125.906C355.731 125.896 355.638 125.878 355.541 125.869C355.19 125.823 354.778 125.791 354.547 126.122C353.876 126.973 353.774 129.057 354.681 129.825C354.39 130.98 354.292 132.195 354.329 133.354C354.325 133.75 354.39 134.362 354.528 135.061C354.242 135.397 354.047 136.004 354.057 136.529C354.066 137.136 353.835 138.295 354.593 138.475C354.528 139.031 354.464 139.588 354.635 140.131C354.838 140.798 355.167 141.028 355.504 140.904C355.592 141.428 355.759 141.934 356.055 142.394C356.397 142.877 357.072 142.716 357.303 142.22C357.479 141.916 357.599 141.589 357.687 141.249C357.909 141.313 358.15 141.29 358.307 141.102C358.39 141.056 358.474 140.959 358.548 140.844C358.784 140.724 359.015 140.545 359.228 140.273C359.265 140.218 359.292 140.163 359.325 140.108C360.495 140.568 361.85 140.743 362.992 140.908C365.578 141.12 368.214 141.056 370.754 140.499C371.614 140.287 372.447 139.984 373.274 139.666C373.284 139.666 373.293 139.671 373.298 139.671C373.848 139.804 374.32 139.56 374.625 139.16C374.708 139.128 374.792 139.1 374.879 139.068C375.055 139.202 375.273 139.289 375.541 139.294C376.822 139.422 378.089 139.335 379.333 139.1C380.351 139.036 381.364 138.912 382.363 138.672C383.334 138.415 384.583 138.176 385.323 137.453C385.952 137.398 386.577 137.343 387.206 137.311C387.756 137.232 388.547 137.412 389.047 137.15C392.631 137.826 396.003 138.166 399.435 137.642C399.833 137.66 400.23 137.66 400.628 137.633C400.869 137.582 401.054 137.462 401.211 137.297C402.205 137.058 403.209 136.731 404.227 136.317C404.98 136.303 405.739 136.285 406.493 136.252C409.356 136.101 412.21 135.696 415.087 135.788C415.355 135.746 415.535 135.576 415.646 135.36C416.275 135.3 416.904 135.227 417.524 135.102C417.686 135.07 417.839 135.029 417.996 134.987C420.378 135.24 422.774 135.286 425.142 135.02C425.752 134.882 426.858 135.001 427.182 134.385C427.265 133.639 426.654 133.768 426.039 134.007ZM354.649 137.84C354.639 138.047 354.616 138.249 354.588 138.456C354.07 138.208 354.177 137.499 354.26 137.007C354.269 136.69 354.445 136.073 354.69 135.838C354.718 135.944 354.746 136.055 354.773 136.165C354.732 136.722 354.69 137.283 354.649 137.84ZM366.286 133.446C366.142 133.488 365.999 133.534 365.856 133.58C364.981 133.511 364.315 133.644 364.19 134.159C364.14 134.394 364.158 134.707 364.338 134.882C364.352 134.886 364.366 134.886 364.38 134.891C363.141 134.923 361.906 134.941 360.666 134.895C360.671 134.67 360.675 134.44 360.675 134.214C360.833 133.014 360.856 131.794 360.648 130.621C362.183 130.796 363.719 130.934 365.259 130.966C365.721 131.045 366.179 131.118 366.646 131.178C366.609 131.551 366.605 131.974 366.637 132.457C366.665 132.77 366.739 133.05 366.841 133.308C366.656 133.359 366.48 133.395 366.286 133.446ZM85.8015 145.178C85.7136 145.141 85.6026 145.196 85.5517 145.27C85.029 145.794 84.5758 146.388 84.0485 146.908C83.6692 146.484 83.1604 145.909 82.7164 145.863C81.6387 144.768 80.3807 144.547 79.6453 145.734C78.8682 145.642 78.3779 146.139 78.0958 146.77C77.7767 147.23 77.587 147.791 77.587 148.375C77.5315 149.185 77.6564 150.215 78.2854 150.791C78.3872 150.956 78.4982 151.113 78.6416 151.255C78.8775 151.471 79.1087 151.614 79.34 151.715C79.5574 152.525 79.9274 153.302 80.6027 153.818C80.8617 154.016 81.13 154.112 81.3843 154.135C81.6341 154.641 81.9348 155.115 82.4713 155.336C82.6193 155.382 82.7765 155.419 82.9292 155.456C82.9801 155.469 83.0587 155.492 83.1512 155.515C83.327 155.515 83.4703 155.451 83.5813 155.322C84.252 154.673 84.3815 153.436 84.5989 152.553C84.77 151.416 84.7053 150.33 84.4879 149.351C85.4592 149.236 85.5933 147.713 85.9078 146.972C86.1114 146.448 86.3796 145.537 85.8015 145.178Z" fill="#FF2A0C" stroke="#FF2A0C" stroke-miterlimit="10"/>
<path d="M438.671 135.001C436.645 134.822 434.6 135.157 432.565 135.185C432.269 135.185 431.996 135.213 431.761 135.268C431.594 135.18 431.4 135.125 431.201 135.098C431.136 135.01 431.053 134.941 430.942 134.904C429.679 134.803 428.417 134.854 427.154 134.914C424.846 135.07 422.547 135.406 420.253 135.71C419.171 135.861 418.088 136.018 417.011 136.183C416.914 136.183 416.84 136.22 416.775 136.28C416.752 136.28 416.733 136.28 416.71 136.28C416.326 136.248 415.938 136.229 415.554 136.239C414.495 136.188 413.44 136.206 412.395 136.271C410.212 136.294 408.001 136.39 405.933 136.68C400.739 136.11 395.526 136.74 390.351 137.292C389.356 137.366 388.371 137.508 387.381 137.605C387.284 137.619 387.178 137.619 387.071 137.628H387.067C386.928 137.642 386.794 137.674 386.701 137.789C386.595 137.899 386.503 138.024 386.424 138.162C383.963 138.051 381.517 138.189 379.088 138.626C377.469 138.87 375.841 139.091 374.227 139.376C372.359 139.431 370.49 139.56 368.626 139.712C367.812 139.689 366.998 139.666 366.184 139.685C365.365 139.698 364.551 139.781 363.742 139.892C363.177 139.74 362.451 139.896 361.915 139.97C361.189 140.135 360.398 140.315 359.639 140.494C359.607 140.503 359.57 140.513 359.537 140.517C359.473 140.531 359.412 140.549 359.348 140.563C358.871 140.522 358.386 140.522 357.909 140.536C357.844 140.545 357.775 140.549 357.706 140.559C357.368 140.347 356.97 140.214 356.508 140.186C356.406 140.117 356.286 140.071 356.156 140.066C356.004 140.076 355.86 140.122 355.731 140.195C355.18 140.214 354.625 140.301 354.14 140.554C353.02 141.401 352.969 143.149 353.497 144.345C353.52 144.396 353.543 144.437 353.571 144.483C353.617 144.865 353.71 145.237 353.848 145.56C354.01 145.831 354.2 146.125 354.537 146.158C354.399 146.236 354.283 146.346 354.214 146.503C354.191 146.535 354.172 146.567 354.149 146.599C353.756 146.99 353.529 147.542 353.446 148.136C353.173 148.67 353.044 149.268 353.131 149.921C353.155 150.409 353.265 150.924 353.543 151.333C353.7 151.586 353.95 151.784 354.228 151.931C353.427 152.787 352.618 153.643 351.975 154.623C351.67 155.271 351.54 156.201 351.73 156.974C351.619 157.057 351.503 157.162 351.6 157.3C351.633 157.296 351.67 157.291 351.702 157.287C351.707 157.287 351.707 157.287 351.711 157.287C351.748 157.282 351.785 157.277 351.822 157.268C351.91 157.494 352.021 157.701 352.183 157.871C352.253 157.954 352.34 157.99 352.438 158.004C352.502 158.11 352.576 158.207 352.655 158.299C352.641 158.874 352.803 159.458 353.238 159.812C353.663 159.955 353.608 159.771 353.945 159.739C354.334 159.596 354.732 159.403 355.129 159.187C359.371 157.586 364.449 155.745 368.973 154.034C370.009 153.79 371.087 153.542 372.266 153.261C373.644 152.93 374.907 152.249 376.285 151.918C376.817 151.789 377.345 151.642 377.867 151.481C378.7 151.297 379.537 151.103 380.365 150.901C383.579 150.1 386.757 149.139 389.897 148.085C391.276 147.8 392.668 147.565 394.056 147.335C396.257 146.802 397.182 146.355 399.282 146.029C400.346 145.932 402.316 145.191 402.497 145.164C403.88 144.773 405.318 144.718 406.747 144.773C407.103 144.704 407.339 144.405 407.483 144.009C410.905 143.314 414.231 142.537 417.603 141.741C419.656 141.359 421.696 140.899 423.713 140.347C425.516 140.071 427.316 139.749 429.101 139.367C429.79 139.201 430.479 139.027 431.169 138.852C431.266 138.833 431.363 138.82 431.46 138.801C431.557 138.81 431.654 138.815 431.747 138.824V138.751C431.835 138.737 431.922 138.723 432.01 138.705C432.015 138.7 432.02 138.691 432.029 138.682C432.075 138.682 432.117 138.686 432.163 138.691C432.445 138.691 432.727 138.691 433.005 138.691C433.13 138.695 433.259 138.695 433.389 138.691C434.688 138.686 435.988 138.659 437.288 138.58C437.658 138.507 438.19 138.599 438.601 138.516C438.611 138.516 438.624 138.516 438.634 138.521C438.634 138.516 438.634 138.516 438.634 138.511C438.791 138.475 438.934 138.415 439.031 138.304C439.295 137.922 439.438 137.407 439.434 136.901C439.512 136.74 439.559 136.551 439.559 136.321C439.6 135.677 439.452 134.964 438.671 135.001Z" fill="#4052A5"/>
<path d="M44.8083 157.434C44.799 157.388 44.7897 157.342 44.7757 157.296C44.7198 157.061 44.7151 157.043 44.8083 157.434Z" fill="#4052A5"/>
<path d="M51.001 159.711C51.0334 159.739 51.0796 159.776 51.1351 159.822C51.2184 159.716 51.3017 159.615 51.3942 159.513C51.9723 158.874 52.6383 158.451 53.3691 158.225C53.4154 157.158 53.05 156.008 52.3238 155.419C52.3192 155.414 52.3146 155.414 52.31 155.41C52.2498 154.683 51.9214 154.181 51.3063 154.117C50.9918 154.167 50.7281 154.338 50.4784 154.535C50.1546 154.223 49.8447 153.924 49.5996 153.717C49.2665 153.454 48.9428 153.404 48.6606 153.491C48.4802 152.98 48.286 152.451 47.879 152.102C47.6061 151.821 47.2869 151.885 47.0233 152.088C47.0187 152.088 47.014 152.083 47.0048 152.083C46.8938 152.088 46.7874 152.125 46.6949 152.175C46.0242 151.356 44.9188 151.931 44.6737 152.865C44.1603 154.287 44.4609 155.851 44.7754 157.291C44.9096 157.848 45.3443 159.656 45.4831 160.052C45.5155 160.176 45.534 160.245 45.5478 160.291C45.5802 160.443 45.6126 160.594 45.6542 160.742C46.2416 162.357 46.9215 162.472 47.3979 161.91C48.0779 162.223 48.7716 161.101 48.7716 160.111C48.7855 159.969 48.7855 159.822 48.7948 159.679C49.8447 160.604 50.5894 160.397 51.001 159.711Z" fill="#4052A5"/>
<path d="M290.085 144.809C289.969 144.524 289.752 144.308 289.483 144.202C289.557 143.641 289.507 143.047 289.345 142.518C289.419 142.233 289.493 141.948 289.581 141.681C289.849 141.069 290.001 139.818 289.793 138.852C289.826 138.723 289.853 138.594 289.877 138.461C289.964 137.945 289.858 137.131 289.497 136.703C289.502 136.386 289.488 136.054 289.437 135.691C289.405 135.397 289.359 135.102 289.298 134.808C289.756 133.708 290.085 132.503 289.197 130.773C288.29 129.623 287.282 130.041 286.375 131.04C285.977 131.302 285.598 131.679 285.261 132.084C284.257 132.535 283.369 133.285 282.661 134.09C281.676 135.401 280.645 137.2 280.182 139.031C279.183 139.882 278.276 140.839 277.902 142.118C277.832 142.408 277.763 142.73 277.708 143.066C277.652 143.158 277.601 143.25 277.555 143.346C277.476 143.425 277.402 143.503 277.337 143.59C277.032 143.724 276.727 143.857 276.417 143.986C276.015 144.138 275.622 144.326 275.339 144.658C274.414 145.987 274.391 148.011 275.353 149.327C276.01 150.031 277.051 149.672 277.828 149.382C277.851 149.373 277.874 149.364 277.897 149.355C278.165 149.373 278.448 149.369 278.72 149.355C279.498 149.355 280.275 149.355 281.052 149.359C281.343 149.355 281.634 149.355 281.926 149.359C282.809 150.206 284.109 150.661 285.298 150.749C286.033 150.615 286.449 150.054 286.722 149.387C287.532 149.405 288.336 149.456 289.127 149.599C289.863 149.465 290.21 148.559 290.251 147.597C290.547 146.709 290.413 145.564 290.085 144.809Z" fill="#EDF636"/>
<path d="M350.37 136.722C350.162 136.17 349.778 135.728 349.103 135.719C349.001 135.723 348.904 135.742 348.802 135.746C348.825 135.645 348.848 135.539 348.867 135.438C351.013 135.512 351.563 134.338 351.378 132.36C351.267 131.279 350.758 130.801 350.037 130.603C349.884 130 349.574 129.466 349.029 129.131C348.668 128.951 348.289 128.914 347.909 128.942C347.747 128.753 347.544 128.611 347.29 128.555C346.698 128.505 346.156 128.836 345.629 129.057C344.51 129.65 343.298 130.157 342.341 130.994C341.92 131.491 341.735 132.139 341.679 132.779C341.573 132.99 341.48 133.207 341.406 133.437C341.217 133.947 341.152 134.536 341.18 135.098C341.106 135.364 341.05 135.636 341.013 135.912C341.004 135.926 340.995 135.94 340.985 135.953C340.694 136.114 340.449 136.28 340.245 136.441C339.047 136.91 337.868 137.43 336.744 138.056C336.397 138.336 336.106 138.686 335.874 139.082C335.814 139.105 335.75 139.123 335.689 139.151C334.815 139.841 334.76 141.161 334.959 142.178C335.07 142.946 335.398 143.337 335.847 143.531C335.856 143.544 335.865 143.558 335.874 143.572C336.573 144.363 337.951 143.991 339.232 143.443C340.204 143.282 341.166 143.08 342.119 142.84C342.151 142.845 342.179 142.863 342.211 142.868C342.304 142.868 342.391 142.863 342.484 142.859C342.498 142.868 342.512 142.877 342.526 142.886C343.159 143.172 343.867 143.241 344.551 143.287C345.685 143.347 346.809 143.204 347.863 142.831C348.64 142.739 349.408 142.601 350.139 142.344C350.893 142.137 351.142 141.359 351.124 140.646C351.17 140.54 351.207 140.43 351.235 140.306C351.522 139.16 351.494 137.398 350.37 136.722Z" fill="#EDF636"/>
<path d="M187.732 151.646C187.455 151.333 187.127 151.913 186.877 152.042C186.507 152.382 186.146 152.755 185.813 153.146C185.711 153.252 185.619 153.362 185.526 153.473C185.239 153.592 184.99 153.657 184.962 153.638C184.814 153.666 184.689 153.735 184.587 153.831C184.541 153.647 184.495 153.45 184.435 153.164C184.134 151.945 183.052 151.591 182.58 152.939C182.409 153.362 182.349 153.813 182.33 154.269C182.043 154.043 181.734 153.795 181.396 153.891C181.118 153.979 180.933 154.195 180.804 154.457C180.309 154.13 179.939 154.798 179.888 155.345C179.666 156.762 180.684 157.898 181.558 158.888C181.84 159.21 182.145 159.545 182.483 159.84C182.649 160.737 183.325 162.048 184.254 161.261C184.402 161.105 184.523 160.953 184.638 160.806C185.207 161.156 185.642 160.742 185.896 160.148C186.146 159.927 186.239 159.513 186.151 159.159C186.165 159.016 186.169 158.878 186.16 158.759C186.165 158.644 186.155 158.538 186.151 158.427C186.229 158.326 186.303 158.225 186.396 158.119C186.835 157.517 187.413 156.974 187.617 156.233C187.83 155.437 187.797 154.43 187.381 153.845C187.95 153.284 188.329 152.313 187.732 151.646Z" fill="#EDF636"/>
<path d="M350.412 146.052C350.458 146.01 350.5 145.974 350.537 145.928C350.759 145.803 350.976 145.674 351.184 145.532C351.943 144.837 352.077 143.682 351.957 142.707C351.42 139.298 347.216 140.738 344.862 141.911C344.626 141.92 344.385 141.93 344.149 141.939C342.937 142.008 341.721 142.035 340.518 142.187C336.753 142.62 332.914 143.084 329.288 144.198C328.604 144.69 328.317 145.803 328.414 146.815C328.026 146.93 327.646 147.045 327.272 147.156C326.828 147.381 326.541 147.768 326.374 148.223C325.306 148.311 324.025 148.375 323.678 149.488C323.428 150.165 323.359 150.97 323.525 151.697C321.92 152.046 320.315 152.387 318.706 152.718C318.53 152.695 318.359 152.672 318.183 152.654C318.114 152.148 317.947 151.66 317.656 151.25C317.508 151.053 317.309 150.979 317.087 150.947V150.942C317.082 150.942 317.078 150.942 317.073 150.942C316.759 150.905 316.412 150.961 316.106 150.933C315.066 150.951 314.025 150.993 312.989 151.057C307.457 151.43 301.935 151.913 296.421 152.511C296.32 152.46 296.213 152.419 296.107 152.387C296.135 152.171 296.144 151.95 296.139 151.734C296.158 151.72 296.176 151.706 296.195 151.692C296.967 150.634 297.023 148.458 295.926 147.602C295.566 147.363 295.117 147.423 294.719 147.515C294.03 147.616 293.341 147.708 292.652 147.809C291.079 148.104 289.511 148.43 287.952 148.771C285.922 148.959 283.887 149.111 281.861 149.309C281.588 149.212 281.301 149.139 281.028 149.079C280.136 148.863 279.234 148.863 278.36 149.038C278.313 149.024 278.272 149.01 278.226 149.001C277.583 148.766 276.903 149.038 276.283 149.24C275.076 149.672 273.952 150.303 272.87 150.984C271.352 152 269.396 153.022 269.095 154.995C268.887 155.929 268.966 156.886 269.308 157.645C269.169 157.862 269.026 158.078 268.892 158.299C268.536 158.869 268.189 159.453 267.884 160.061C266.112 162.2 264.322 164.348 262.935 166.741C262.865 166.773 262.796 166.81 262.726 166.842C262.583 166.902 262.449 166.98 262.324 167.067C262.319 167.072 262.31 167.072 262.305 167.077V167.081C261.972 167.33 261.727 167.679 261.635 168.103C261.519 168.392 261.464 168.876 261.487 169.382C261.357 169.579 261.237 169.777 261.131 169.98C260.34 170.463 259.549 170.941 258.763 171.433C258.046 171.719 257.592 172.303 257.356 172.979C257.023 173.389 256.885 174.286 256.963 175.119C256.792 175.643 256.774 176.485 256.931 177.193C256.996 177.75 257.176 178.284 257.458 178.684C257.602 178.882 257.796 178.96 258.009 178.969V178.983C258.046 178.979 258.087 178.974 258.124 178.969C258.189 178.965 258.249 178.956 258.314 178.942C258.434 178.928 258.55 178.914 258.67 178.896C262.162 178.169 265.562 177.042 268.943 175.915C269.225 175.813 269.502 175.703 269.78 175.602C272.023 175.385 274.262 175.137 276.482 174.755C283.286 173.789 289.789 171.507 295.95 168.535C297.106 168.346 298.262 168.149 299.409 167.919C299.479 167.905 299.553 167.891 299.627 167.877C300.168 167.863 300.714 167.882 301.269 167.946C301.074 167.845 300.875 167.753 300.672 167.67C303.775 167.04 307.055 166.318 310.121 165.581C310.551 165.549 310.977 165.512 311.407 165.485C312.133 165.407 312.859 165.356 313.576 165.209C313.928 165.172 314.275 165.066 314.548 164.845C315.117 164.767 315.685 164.68 316.254 164.592C316.486 164.615 316.722 164.634 316.897 164.487C317.216 164.436 317.54 164.385 317.859 164.33C318.049 164.284 318.243 164.238 318.433 164.197C318.803 164.238 319.159 164.169 319.427 163.962C319.959 163.838 320.491 163.718 321.018 163.589C322.068 163.428 323.109 163.231 324.136 162.973C324.367 162.885 324.589 162.807 324.811 162.729C326.758 162.43 328.706 162.136 330.653 161.827C334.82 161.142 339.006 160.608 343.196 160.079C343.973 159.941 344.792 159.932 345.569 159.78C346.115 159.757 346.661 159.729 347.202 159.697C347.942 159.637 348.687 159.568 349.422 159.444C349.843 159.384 350.273 159.177 350.384 158.736C350.592 158.17 350.606 157.471 350.347 156.914C350.282 156.73 350.19 156.564 350.056 156.454C350.301 155.662 350.185 154.715 349.88 153.997C349.82 153.859 349.746 153.758 349.663 153.675C349.769 152.911 349.783 152.097 349.658 151.361C349.69 151.352 349.723 151.352 349.755 151.342C349.931 151.342 350.079 151.278 350.19 151.149C350.5 150.947 350.597 150.56 350.726 150.234C350.971 149.346 350.934 148.366 350.551 147.519C350.463 147.354 350.347 147.216 350.222 147.101C350.264 146.967 350.301 146.834 350.324 146.7C350.366 146.48 350.393 146.268 350.412 146.052Z" fill="#4DB842"/>
<path d="M32.3198 174.222C32.0469 173.826 31.5659 173.959 31.1681 174.024C30.9415 174.056 30.7102 174.088 30.4836 174.134C30.3171 174.488 30.0904 174.82 29.7898 175.096C29.4614 175.399 29.1608 175.749 28.8231 176.043C28.245 176.545 27.5882 176.858 26.8666 177.092C26.8158 177.115 26.7603 177.138 26.6909 177.166C26.6446 177.184 26.6076 177.203 26.566 177.221C26.1914 177.47 25.7057 177.667 25.2848 177.736C25.1923 178.265 25.2108 178.818 25.3218 179.328C25.3866 179.825 25.567 180.179 25.8121 180.419C25.7427 181.371 26.2931 183.069 27.2829 181.905C27.4356 181.776 27.6576 181.587 27.912 181.371C28.0785 181.32 28.245 181.261 28.4069 181.196C28.4901 181.173 28.5687 181.136 28.6381 181.095C28.9341 181.007 29.2255 180.911 29.5215 180.823C29.4522 181.371 29.5909 181.951 30.0072 182.319C30.8397 182.406 31.3393 181.422 31.441 180.708C31.5705 180.363 31.4086 179.416 31.3115 178.937C31.3809 178.707 31.4318 178.477 31.4503 178.233C31.8342 178.114 32.2412 178.017 32.4262 177.644C33.0229 176.641 32.9905 175.188 32.3198 174.222ZM29.6927 180.202C29.6557 180.281 29.6279 180.363 29.6002 180.446C29.392 180.46 29.1885 180.478 28.9804 180.492C28.985 180.483 28.985 180.474 28.9896 180.465C29.2533 180.244 29.5169 180.018 29.7759 179.807C29.7944 179.857 29.8083 179.917 29.8129 179.986C29.7713 180.06 29.7297 180.129 29.6927 180.202Z" fill="#4DB842"/>
<path d="M341.12 130.497C341.124 130.46 341.124 130.428 341.124 130.396C341.124 130.391 341.124 130.382 341.124 130.378C342.105 130.249 342.058 129.738 341.998 129.25C341.883 128.225 341.781 127.176 341.369 126.219C341.013 125.303 340.12 124.733 339.339 125.584C338.636 126.177 338.067 126.913 337.646 127.732C337.035 127.783 336.346 127.82 335.643 127.843C335.588 127.838 335.532 127.838 335.472 127.847C334.515 127.875 333.548 127.875 332.739 127.866C332.595 127.755 332.452 127.659 332.304 127.567C331.943 126.95 331.596 126.283 330.921 125.979C330.856 125.943 330.791 125.91 330.717 125.887C330.611 125.722 330.491 125.565 330.306 125.464C330.056 125.317 329.815 125.404 329.57 125.515C329.33 125.57 329.099 125.662 328.89 125.791C328.437 125.197 327.984 124.595 327.322 124.254C326.379 123.937 325.773 124.374 325.408 125.133C325.334 125.119 325.264 125.105 325.195 125.091C324.131 124.852 324.113 124.88 322.776 124.383C322.642 124.319 322.503 124.263 322.364 124.217C322.415 123.132 322.378 122.129 322.318 121.485C322.364 121.011 322.387 120.532 322.373 120.054C322.387 118.839 322.077 117.436 321.689 116.148C321.855 115.159 321.874 114.142 321.814 113.213C321.67 111.566 320.958 109.132 319.742 107.379C319.598 106.339 319.441 105.198 318.571 104.527C318.146 104.264 317.596 104.26 317.133 104.448C317.031 104.145 316.92 103.846 316.8 103.551C316.448 102.916 316.171 101.555 315.209 101.927C314.608 102.3 313.932 102.613 313.47 103.156C313.461 103.142 313.456 103.128 313.447 103.114C313.169 102.723 312.489 102.912 311.694 103.33C311.666 103.298 311.643 103.257 311.61 103.225C311.199 102.788 310.672 103.202 310.362 103.556C309.571 104.324 308.794 105.106 308.017 105.888C307.878 106.013 307.744 106.128 307.61 106.247C307.388 105.967 307.087 105.833 306.685 105.967C305.986 106.459 305.436 107.126 304.871 107.756C304.668 107.991 304.464 108.226 304.261 108.46C303.822 108.272 303.452 108.617 303.22 108.847C301.916 109.909 300.732 111.096 299.52 112.26C297.883 114.027 295.82 115.2 294.335 117.505C294.085 117.542 293.859 117.712 293.743 117.961C293.424 118.476 293.304 119.051 293.271 119.644C292.897 120.597 292.707 121.213 292.628 121.351C292.212 122.354 291.902 123.486 292.166 124.567C292.208 124.857 292.3 125.119 292.42 125.335C292.397 125.602 292.393 125.864 292.406 126.122C292.374 126.808 292.356 127.493 292.332 128.179C292.332 128.988 292.161 129.821 292.365 130.617C292.448 131.146 292.809 132.048 293.442 131.979C293.355 133.106 293.304 134.238 293.285 135.369C292.887 137.716 292.989 140.651 293.318 143.31C292.897 144.285 292.832 145.514 292.92 146.471C293.04 147.699 293.521 148.904 294.22 149.93C294.437 150.459 294.733 150.952 295.154 151.375C295.306 151.531 295.473 151.656 295.649 151.761C295.75 151.973 295.857 152.175 295.963 152.373C296.421 153.206 297.314 153.915 298.304 153.841C299.053 153.666 299.682 153.211 300.223 152.649C300.376 152.741 300.528 152.838 300.686 152.921C300.894 153.031 301.116 153.091 301.342 153.114C301.546 153.27 301.782 153.39 302.022 153.473C302.712 153.684 303.424 153.786 304.145 153.85C304.945 154.168 306.148 154.172 307.411 153.974C309.45 153.938 311.513 153.671 313.424 152.953C313.507 152.944 313.59 152.935 313.678 152.925C313.965 153.132 314.261 153.316 314.571 153.477C316.481 154.49 318.849 154.14 320.597 152.939C321.37 153.192 322.212 153.215 323.104 152.907C323.285 152.801 323.456 152.677 323.618 152.548C325.445 152.672 327.697 150.469 328.668 149.056C328.807 148.881 328.932 148.697 329.052 148.509C329.33 148.214 329.58 147.915 329.783 147.639C331.134 146.029 331.744 143.292 331.601 140.527C331.684 140.425 331.767 140.324 331.841 140.214C332.396 141.152 333.358 141.902 334.445 141.484C335.43 141.037 336.05 140.14 336.554 139.183C336.605 139.16 336.656 139.146 336.712 139.123C337.526 138.631 338.224 137.973 338.788 137.214C339.602 136.565 340.171 135.457 340.329 134.196C340.708 134.077 341.064 133.87 341.332 133.552C341.11 133.465 340.898 133.382 340.68 133.299C340.874 132.664 340.962 131.997 340.985 131.316C341.059 131.045 341.101 130.773 341.12 130.497Z" fill="#6F5631"/>
<path d="M279.049 137.573C279.437 136.897 279.821 136.207 279.775 135.429C279.683 134.863 279.433 134.744 279.183 134.905C279.128 134.61 279.04 134.325 278.924 134.058C278.85 133.943 278.771 133.823 278.697 133.708C278.42 133.331 277.902 133.386 277.49 133.304C276.907 133.244 276.32 133.23 275.733 133.212C275.492 132.982 275.164 132.857 274.84 132.738C274.239 132.517 273.637 132.296 273.027 132.117C271.722 131.744 270.414 131.367 269.086 131.091C266.639 130.35 264.16 129.701 261.598 129.549C261.431 129.214 261.182 128.938 260.798 128.892C260.793 128.892 260.788 128.892 260.784 128.887C260.742 128.878 260.701 128.869 260.659 128.864C260.654 128.864 260.654 128.864 260.65 128.864C260.437 128.823 260.219 128.795 260.007 128.758C258.018 128.441 256.024 128.183 254.04 127.852C253.527 127.608 252.893 127.47 252.218 127.281C249.669 126.527 247.047 126.108 244.42 125.731C242.805 125.556 241.191 125.34 239.572 125.206C239.29 125.216 238.957 125.151 238.652 125.179C236.039 124.797 233.43 124.383 230.817 124.006C230.123 123.9 229.42 123.84 228.735 123.707C228.398 123.615 227.982 123.638 227.723 123.891C227.519 124.075 227.376 124.305 227.265 124.549C226.52 124.521 225.78 124.521 225.035 124.553C221.132 124.112 217.154 124.268 213.236 124.286C212.464 124.332 211.687 124.314 210.919 124.429C210.554 124.452 210.174 124.581 209.971 124.894C208.532 124.981 207.094 125.114 205.669 125.298C205.457 125.46 205.29 125.676 205.165 125.924C203.699 126.085 202.237 126.269 200.776 126.49C200.563 126.449 200.35 126.43 200.156 126.421C199.402 126.453 198.648 126.55 197.904 126.702C197.783 126.499 197.635 126.311 197.441 126.163C196.719 125.91 195.947 126.352 195.23 126.495C195.133 126.522 195.041 126.545 194.943 126.573C192.881 126.95 190.018 127.415 188.089 128.063C187.478 128.303 186.669 128.432 186.068 128.781C184.953 129.011 183.843 129.26 182.733 129.499C182.562 129.499 182.418 129.563 182.312 129.688C181.382 130.589 181.456 132.549 182.182 133.561C182.326 133.741 182.506 133.842 182.737 133.86C183.371 133.865 184 133.805 184.624 133.704C184.768 133.745 184.925 133.741 185.078 133.695C185.286 133.653 185.494 133.603 185.702 133.561C185.859 133.768 186.068 133.915 186.327 133.961V133.98C186.34 133.975 186.359 133.975 186.373 133.971C186.382 133.971 186.387 133.975 186.391 133.975C186.512 133.961 186.632 133.948 186.757 133.934C187.807 134.661 189.879 134.748 191.664 134.702C192.649 135.839 194.629 135.751 196.012 136.041C196.262 136.073 196.511 136.101 196.761 136.133C198.283 136.63 200.138 136.759 201.322 137.035C206.081 137.688 211.668 138.125 216.21 139.008C216.229 139.036 216.238 139.068 216.257 139.091C216.4 139.275 216.59 139.381 216.825 139.395C217.223 139.459 217.621 139.519 218.019 139.579C218.023 139.588 218.028 139.597 218.033 139.606C218.366 140.246 219.194 140.232 219.823 140.232C220.701 140.264 221.58 140.297 222.459 140.329C223.245 140.37 224.027 140.421 224.813 140.476C225.951 140.637 227.089 140.798 228.227 140.964C228.25 141 228.268 141.042 228.291 141.074C228.777 141.585 229.693 141.442 230.345 141.635C231.483 141.787 232.621 141.953 233.772 141.994C234.818 142.04 235.863 142.095 236.913 142.155C238.888 142.528 240.858 142.901 242.842 143.2C243.767 143.319 244.688 143.434 245.613 143.535C245.687 143.581 245.761 143.623 245.844 143.65C246.136 143.715 246.427 143.761 246.718 143.798C246.788 143.949 246.871 144.087 246.959 144.198C247.232 144.552 247.713 144.538 248.115 144.63C248.823 144.704 249.531 144.727 250.243 144.75C250.765 144.833 251.288 144.911 251.811 144.957C253.004 145.063 254.202 145.136 255.395 145.219C256.533 145.27 258.369 145.33 259.937 145.403C260.465 145.5 260.992 145.601 261.519 145.702C262.329 145.771 263.342 146.282 263.998 145.615C264.04 145.555 264.077 145.491 264.114 145.426C265.044 145.509 265.987 145.491 266.912 145.509C267.185 145.504 267.453 145.5 267.726 145.495C268.522 145.638 269.377 145.624 270.094 145.574C270.478 145.532 270.867 145.468 271.237 145.371C271.491 145.357 271.75 145.343 272.005 145.32C272.13 145.32 272.254 145.311 272.375 145.297C272.578 147.009 273.767 147.966 275.108 145.44C276.13 143.457 277.361 141.589 278.452 139.648C278.535 139.441 278.614 139.229 278.693 139.018C278.702 139.004 278.711 138.981 278.725 138.949C278.919 138.705 279.04 138.157 279.049 137.573Z" fill="#F62C94"/>
<path d="M266.88 156.712C266.477 156.316 265.816 156.68 265.326 156.703C265.219 156.721 265.118 156.744 265.016 156.762C264.872 155.856 264.41 154.899 263.355 155.424C263.078 155.506 262.786 155.589 262.495 155.672V155.663C262.477 155.667 262.444 155.677 262.416 155.681C262.231 155.69 262.037 155.732 261.857 155.769C261.177 155.888 260.497 155.994 259.817 156.109C258.54 156.335 257.264 156.588 255.987 156.845C253.938 157.158 251.889 157.453 249.85 157.802C248.194 158.115 245.604 158.736 244.873 158.837C244.702 158.879 244.554 158.952 244.424 159.054C244.406 159.054 244.392 159.058 244.373 159.058C244.216 158.791 243.994 158.598 243.703 158.538V158.529C243.693 158.529 243.689 158.529 243.68 158.534C243.569 158.511 243.453 158.506 243.319 158.524C240.479 158.46 237.667 158.777 234.868 159.215C234.318 159.251 233.768 159.288 233.217 159.339C229.235 159.684 225.28 160.231 221.335 160.866C219.966 161.013 218.597 161.179 217.232 161.368C217.015 161.276 216.798 161.188 216.589 161.119C215.285 160.724 213.944 161.253 212.635 161.381C210.063 161.8 207.468 162.067 204.892 162.486C203.653 162.651 202.408 162.817 201.164 163.001C197.806 163.212 194.453 163.64 191.215 164.579C190.535 164.795 189.916 164.942 189.388 165.126C188.671 165.223 187.959 165.343 187.256 165.508C186.863 165.596 186.451 165.683 186.054 165.798C185.869 165.816 185.684 165.835 185.499 165.853C184.051 165.936 182.599 166.023 181.155 166.102C175.86 166.502 170.504 166.727 165.319 167.947C165.092 168.002 164.87 168.066 164.643 168.126C164.176 168.177 163.714 168.227 163.246 168.287C162.895 168.338 162.641 168.522 162.451 168.77C162.086 168.894 161.72 169.023 161.447 169.308C161.406 169.364 161.369 169.419 161.336 169.479C160.855 169.525 160.578 170.044 160.448 170.67C160.106 170.753 159.699 170.739 159.445 170.988C159.135 171.19 159.038 171.576 158.908 171.903C158.635 172.984 158.621 174.59 159.68 175.239C160.504 175.62 161.42 175.275 162.266 175.128C162.308 175.275 162.354 175.423 162.414 175.561C162.525 175.809 162.701 175.988 162.913 176.131V176.136C164.944 177.502 167.011 178.859 169.287 179.793C169.676 179.94 170.069 180.074 170.462 180.207C171.128 180.681 171.789 181.16 172.465 181.629C173.177 182.061 173.829 182.843 174.708 182.857C175.18 182.756 175.49 182.443 175.684 182.029C176.516 182.172 177.353 182.296 178.195 182.411C178.713 182.655 179.264 182.82 179.828 182.945C181.433 183.28 183.052 183.547 184.661 183.851C186.558 184.233 188.473 184.472 190.397 184.601C190.466 184.61 190.535 184.624 190.605 184.633C190.762 184.647 190.924 184.656 191.081 184.665C192.284 184.845 193.496 184.918 194.712 184.937C195.073 185.158 195.563 185.217 195.975 185.296C197.015 185.498 198.061 185.558 199.115 185.516C201.497 185.47 203.902 185.337 206.229 184.776C206.294 184.762 206.363 184.743 206.432 184.725C208.005 184.55 209.568 184.316 211.118 184.017C211.132 184.021 211.141 184.026 211.155 184.03C211.294 183.998 211.428 183.961 211.562 183.929C212.482 183.741 213.398 183.538 214.305 183.299C215.442 182.954 216.557 182.54 217.672 182.117C217.741 182.094 217.811 182.071 217.88 182.048C218.292 182.015 218.712 181.928 219.064 181.877C220.197 181.716 221.326 181.5 222.445 181.261C222.713 181.247 222.986 181.233 223.254 181.215C225.831 180.764 227.792 180.299 229.582 179.784C229.993 179.572 230.211 179.186 230.308 178.753C230.766 178.62 231.224 178.482 231.677 178.344C232.126 178.261 232.579 178.174 233.028 178.091C234.947 177.705 236.876 177.341 238.758 176.784C239.438 176.614 240.141 176.366 240.474 175.763C240.752 175.694 241.029 175.62 241.307 175.561C243.453 175.036 246.26 174.3 249.16 173.55C250.58 173.164 251.977 172.685 253.295 172.023C253.735 171.705 253.938 171.199 254.031 170.675C255.442 170.178 256.829 169.617 258.161 168.922C258.684 168.733 259.012 168.282 259.183 167.735C259.997 167.413 260.798 167.059 261.575 166.658C262.842 166.166 263.494 164.929 263.328 163.599C263.318 163.438 263.3 163.282 263.277 163.13C263.591 162.89 263.869 162.61 264.072 162.251C264.118 162.173 264.156 162.081 264.197 161.989C265.622 161.584 267.199 161.161 267.458 159.569C267.648 158.626 267.606 157.402 266.88 156.712Z" fill="#F62C94"/>
<path d="M274.178 127.01C273.517 125.529 271.921 124.728 270.76 123.661C270.529 123.417 270.303 123.329 270.094 123.357C269.549 122.975 269.488 122.8 268.499 122.064C265.501 119.916 262.657 117.523 259.41 115.752C259.234 115.642 259.059 115.527 258.883 115.416C257.736 114.777 256.01 113.461 254.739 113.369C253.49 112.803 252.209 112.32 250.867 112.016C250.659 111.934 250.483 111.961 250.326 112.035C249.776 111.878 249.221 111.74 248.661 111.625C248.124 111.584 247.408 111.17 246.959 111.598C246.936 111.621 246.917 111.644 246.894 111.667H246.89C246.829 111.607 246.774 111.552 246.704 111.501C246.478 111.432 246.251 111.372 246.025 111.308C245.012 110.889 243.999 110.471 242.99 110.052C242.204 109.698 241.321 109.155 240.447 109.491C239.077 109.035 237.704 108.594 236.316 108.212C232.227 107.204 228.069 106.579 223.893 106.077C222.542 105.796 221.196 105.525 219.846 105.263C216.506 104.766 213.13 104.591 209.767 104.356C209.494 104.366 209.185 104.287 208.907 104.32C208.902 104.32 208.902 104.32 208.898 104.32C208.764 104.338 208.639 104.379 208.532 104.481C208.236 104.747 208.084 105.111 208.01 105.502C207.584 105.438 207.163 105.373 206.738 105.318C206.613 104.77 206.368 104.297 206.007 104.067C206.007 104.062 206.007 104.057 206.007 104.048C205.993 104.044 205.979 104.039 205.965 104.034C205.91 104.002 205.85 103.984 205.79 103.961C204.92 103.192 203.662 102.792 202.621 102.364C200.591 101.573 198.5 100.947 196.396 100.391C194.68 99.8846 192.931 99.5534 191.165 99.3371C190.906 99.1117 190.637 98.8909 190.374 98.6746C190.189 97.9615 189.768 97.2668 189.273 96.655C189.143 96.3559 188.981 96.0707 188.773 95.813C187.635 94.4973 186.132 93.6139 184.564 92.864C183.422 92.0589 182.229 91.3228 181.031 90.5959C181.04 89.7402 180.822 88.8845 180.328 88.1898C179.319 86.8556 177.566 86.5151 176.114 85.8573C176.068 85.8343 176.021 85.8158 175.971 85.7928C176.003 85.2868 175.957 84.7807 175.883 84.4127C175.582 82.6368 173.478 82.1998 172.099 81.4636C170.023 80.5113 167.9 79.674 165.712 79.0161C163.612 77.5623 161.054 77.1298 158.575 76.7848C157.322 76.5778 156.064 76.3661 154.81 76.1499C154.731 76.1315 154.662 76.1131 154.583 76.0901C153.233 75.7589 151.873 75.4644 150.49 75.3172C150.43 75.2804 150.374 75.239 150.31 75.2068C147.581 74.1302 144.644 75.2206 141.97 75.9751C139.186 76.863 136.614 78.2892 134.367 80.1479C133.196 81.0864 131.961 82.0111 131.157 83.2993C130.532 84.3068 129.875 85.411 129.436 86.5658C128.645 87.1776 127.859 87.7895 127.077 88.4014C126.795 88.6268 126.508 88.8431 126.226 89.0593C125.357 89.2939 124.492 89.5792 123.636 89.8736C123.432 89.7908 123.192 89.7862 122.97 89.8C122.225 89.8506 121.494 89.9702 120.764 90.1082C120.482 90.1635 120.199 90.2187 119.913 90.2693C119.839 90.2785 119.76 90.2923 119.686 90.3015C118.927 90.2739 118.164 90.3015 117.406 90.3567C116.652 90.4395 115.912 90.6373 115.19 90.8628C114.839 90.9824 114.446 91.102 114.284 91.4654C113.636 92.5512 113.678 94.12 114.399 95.1597C114.455 95.238 114.52 95.2932 114.589 95.3392C114.566 95.4082 114.533 95.4726 114.515 95.5462C114.085 96.931 114.145 98.3434 114.728 99.4015C114.853 99.811 115.047 100.142 115.297 100.409C115.292 100.441 115.287 100.473 115.287 100.506C115.227 101.357 115.352 102.433 116.097 102.967C116.624 103.151 117.193 103.188 117.748 103.229C117.919 103.63 118.169 103.979 118.516 104.241C118.807 104.361 119.108 104.375 119.413 104.343C119.492 104.499 119.584 104.655 119.686 104.798C120.722 105.732 122.313 105.24 123.506 104.881C124.811 104.384 126.023 103.662 127.193 102.907C127.244 102.87 127.295 102.834 127.345 102.801C127.517 102.783 127.688 102.769 127.863 102.751C128.039 102.751 128.187 102.686 128.298 102.558C128.539 102.323 128.714 102.024 128.83 101.683C132.22 101.15 135.527 100.165 138.844 99.2819C138.872 99.2727 138.899 99.2681 138.927 99.2589C140.338 99.7834 141.3 99.8386 142.553 100.243C145.865 101.035 149.195 101.78 152.507 102.576C156.087 103.455 159.648 104.412 163.21 105.355C163.214 105.373 163.219 105.396 163.223 105.419C163.362 105.806 163.51 106.215 163.885 106.431C164.838 106.703 165.79 106.974 166.739 107.25C167.765 107.54 168.788 107.853 169.801 108.175C169.893 108.295 169.995 108.4 170.11 108.497V108.502C170.115 108.502 170.115 108.502 170.12 108.506C170.217 108.584 170.314 108.653 170.43 108.713C171.868 109.307 173.306 109.937 174.768 110.503C174.814 110.636 174.861 110.765 174.911 110.885C175.277 111.713 176.183 111.814 176.993 111.819C177.076 111.823 177.159 111.823 177.243 111.828C177.354 111.897 177.478 111.943 177.613 111.975V111.98C177.617 111.98 177.622 111.98 177.626 111.98C177.909 112.044 178.223 112.053 178.533 112.086C178.977 112.132 179.416 112.15 179.86 112.155C183.63 112.605 187.326 113.608 191.109 113.921C191.738 113.94 192.487 113.995 192.959 113.503C193.126 113.259 193.255 112.983 193.352 112.693C195.549 112.923 197.751 113.282 199.943 113.406C200.767 113.286 201.178 112.26 201.201 111.202C201.511 111.216 201.821 111.23 202.131 111.239C202.598 111.198 203.199 111.29 203.657 111.129C204.675 111.349 205.739 111.331 206.775 111.409C206.867 111.409 206.955 111.418 207.048 111.423C207.815 111.805 208.708 111.763 209.555 111.768C209.888 111.768 210.221 111.768 210.554 111.768C211.159 111.869 211.765 111.966 212.371 112.049C215.322 112.509 218.268 113.042 221.196 113.631C221.548 113.723 221.904 113.811 222.255 113.903C225.785 114.745 228.62 115.761 232.477 117.114C237.158 118.784 241.848 120.422 246.51 122.147C247.694 122.589 248.892 122.994 250.049 123.509C250.474 123.684 250.876 123.974 251.339 124.033C251.899 123.905 252.209 123.394 252.347 122.777C252.458 122.731 252.555 122.658 252.643 122.561C253.013 122.727 253.374 122.892 253.73 123.058C256.468 124.259 259.133 125.625 261.783 127.01C262.204 127.222 262.611 127.47 263.059 127.622C263.207 127.714 263.351 127.728 263.499 127.659C263.762 127.562 263.961 127.369 264.105 127.12C264.137 127.139 264.165 127.153 264.197 127.166C265.09 127.626 265.927 128.234 266.931 128.436C267.208 128.413 267.416 128.252 267.574 128.036C267.823 128.169 268.068 128.303 268.318 128.432C268.772 128.726 269.225 129.02 269.673 129.324C270.252 129.752 270.853 130.152 271.403 130.612C271.787 130.921 272.398 131.408 272.833 130.953C272.948 130.838 273.045 130.713 273.129 130.575C273.517 130.585 273.827 130.465 273.98 130.138C274.535 129.232 274.544 127.99 274.178 127.01Z" fill="#F4F099"/>
<path d="M258.027 178.942C257.847 178.763 257.625 178.615 257.389 178.638C257.417 177.962 257.264 177.281 256.94 176.725C256.602 176.154 256.158 176.14 255.701 176.306C255.682 176.154 255.664 176.007 255.631 175.864C255.525 175.308 255.243 174.558 254.604 174.489C252.796 174.314 251.08 174.852 249.591 175.86C248.129 176.807 246.681 177.797 245.275 178.818C244.919 179.071 244.646 179.407 244.457 179.789C239.276 181.739 234.337 184.27 229.272 186.487C226.7 187.623 224.138 188.783 221.58 189.951C220.771 190.273 219.971 190.605 219.18 190.964C218.689 191.207 218.162 191.378 217.676 191.626C217.57 191.69 217.482 191.778 217.404 191.874C217.117 192.008 216.835 192.137 216.548 192.27C211.594 192.836 206.696 193.917 201.872 195.164C197.15 196.503 192.621 198.449 188.26 200.666C187.728 200.933 187.196 201.205 186.669 201.485C184.328 201.867 181.983 202.221 179.643 202.594C178.403 202.833 177.164 203.086 175.924 203.344C175.36 203.169 174.796 202.994 174.236 202.815C169.726 201.329 165.078 200.34 160.379 199.723C160.291 199.576 160.189 199.433 160.078 199.3C158.173 197.713 155.767 196.908 153.501 195.974C150.684 194.731 147.77 193.618 144.653 193.499C142.965 193.466 141.138 193.057 139.551 193.775C137.424 193.296 135.222 193.296 133.062 193.034C131.799 192.91 130.537 192.799 129.274 192.707C129.158 192.39 129.001 192.086 128.798 191.819C128.062 191.065 126.92 191.336 125.976 191.41C125.43 191.428 124.885 191.47 124.344 191.511C123.964 190.977 123.155 191.046 122.558 191.06C121.291 191.129 120.024 191.161 118.756 191.18C117.54 191.12 116.309 191.148 115.093 191.092C113.419 191.037 111.744 190.987 110.07 190.936C107.716 190.761 105.357 190.6 102.998 190.614C102.216 190.78 101.911 191.686 101.879 192.615C100.986 192.675 100.089 192.749 99.2007 192.841C96.8279 192.988 94.4598 193.199 92.1194 193.595C91.9622 193.687 91.8234 193.821 91.7032 193.977C90.6255 194.032 89.5524 194.115 88.4794 194.258C87.4664 194.483 86.102 194.304 85.5701 195.38C85.473 195.606 85.3943 195.859 85.3388 196.116C84.8208 196.245 84.2981 196.369 83.7801 196.489C82.8088 196.751 81.8329 197.013 80.8986 197.4C80.1077 197.699 79.4648 198.191 79.3723 199.088C79.3445 199.235 79.3353 199.369 79.3168 199.507C78.1466 200.11 77.055 200.86 76.2872 201.922C75.6304 202.944 75.2003 204.273 75.4547 205.479C74.2059 207.066 73.9885 208.966 74.5158 210.737C74.5065 212.154 74.9367 213.571 75.8571 214.643C76.5509 215.352 77.4759 215.747 78.4056 216.046C79.8579 216.621 81.3935 216.939 82.943 217.1C83.979 218.535 85.843 218.774 87.4896 218.968C89.9595 219.207 92.4432 219.092 94.9177 219.064C97.4339 219.06 99.9407 218.848 102.434 218.512C106.24 218.071 110.042 217.592 113.816 216.953C113.923 216.934 114.029 216.92 114.14 216.902C114.506 217.15 114.89 217.371 115.292 217.569C115.32 217.62 115.347 217.675 115.38 217.725C118.821 222.114 128.59 222.119 133.839 222.598C134.427 222.607 135.019 222.602 135.606 222.593C136.11 222.621 136.73 222.662 137.401 222.694C137.414 222.694 137.424 222.699 137.438 222.699C138.15 222.837 138.871 222.924 139.593 222.97C139.778 223.311 140.042 223.605 140.407 223.812C141.61 224.295 142.946 223.762 144.098 223.357C144.824 223.081 145.555 222.805 146.286 222.529C148.168 222.22 150.055 221.903 151.924 221.516C152.132 221.493 152.34 221.475 152.548 221.452C158.011 220.946 165.24 218.512 169.278 216.621C169.523 216.612 169.763 216.594 169.999 216.515C170.194 216.419 170.346 216.272 170.471 216.097C171.304 215.812 172.141 215.522 172.973 215.241C173.006 215.278 173.034 215.315 173.071 215.352C173.232 215.554 173.501 215.554 173.741 215.526C174.546 215.517 175.323 215.255 176.086 215.029C176.179 214.997 176.271 214.965 176.364 214.933C176.849 214.891 177.414 214.606 177.825 214.574C179.925 214.045 182.03 213.511 184.129 212.982C191.9 211.225 199.629 209.279 207.237 206.923C207.815 206.735 208.389 206.528 208.962 206.316C209.943 206.081 210.956 205.837 212.02 205.58C212.69 205.41 213.375 205.244 214.055 205.06C214.143 205.092 214.235 205.12 214.337 205.138C214.92 205.143 215.461 204.936 215.988 204.706C216.428 204.742 216.978 204.512 217.482 204.273C219.452 203.694 221.469 203.348 223.823 202.819C224.582 203.256 225.738 202.778 226.908 202.401C229.438 201.527 232.005 200.763 234.554 199.953C235.757 199.59 236.954 199.203 238.166 198.881C238.208 198.867 238.254 198.854 238.3 198.84C238.425 198.858 238.55 198.854 238.67 198.817C239.064 198.72 239.443 198.578 239.822 198.44C240.067 198.389 240.784 198.177 241.015 198.108C240.992 198.118 240.965 198.122 240.932 198.131C242.042 197.855 243.143 197.542 244.188 197.073C244.85 196.839 245.544 196.498 245.867 195.84C245.886 195.794 245.904 195.744 245.923 195.698C246.917 195.219 247.875 194.667 248.684 193.908C249.928 192.813 250.969 191.506 251.778 190.066C251.88 189.942 251.982 189.813 252.084 189.685C252.088 189.685 252.088 189.68 252.093 189.68C252.111 189.675 252.125 189.671 252.144 189.666C252.144 189.662 252.144 189.657 252.144 189.652C252.412 189.464 252.606 189.192 252.74 188.87C253.203 188.3 253.675 187.734 254.197 187.223C254.859 186.529 255.608 185.857 255.89 184.909V184.905C255.96 184.776 256.02 184.615 256.066 184.44C256.63 183.984 257.195 183.524 257.75 183.06C257.754 183.06 257.759 183.055 257.763 183.055V183.05C257.851 182.977 257.944 182.903 258.032 182.83C258.79 181.716 258.786 180.028 258.027 178.942Z" fill="#F4F099"/>
<path d="M126.541 152.295C126.443 151.895 126.087 151.619 125.694 151.504C125.463 150.979 125.144 150.496 124.746 150.1C124.529 149.907 124.334 149.797 124.154 149.742C123.886 148.835 123.428 148.002 122.836 147.469C122.827 147.45 122.822 147.427 122.817 147.409C122.373 146.3 121.619 146.383 121.175 147.023C120.93 147.147 120.731 147.331 120.579 147.552C120.352 147.621 120.153 147.736 119.977 147.892C119.459 147.809 118.872 147.975 118.386 148.122C117.179 148.904 117.137 151.554 118.192 152.465C118.47 152.681 118.803 152.787 119.149 152.852C119.654 153.413 120.384 153.532 120.921 153.151C121.013 153.174 121.111 153.192 121.203 153.21C121.393 153.316 121.601 153.39 121.841 153.427C122.091 153.942 122.457 154.347 123.104 154.181C123.197 154.209 123.289 154.218 123.382 154.167C123.557 154.089 123.701 153.969 123.826 153.827C124.043 153.877 124.265 153.919 124.482 153.956C124.506 153.965 124.529 153.979 124.556 153.997C124.566 154.006 124.575 154.02 124.584 154.029C124.94 154.857 125.352 154.931 125.653 154.627C125.801 154.839 125.958 155.037 126.194 155.193C127.17 155.713 126.629 152.727 126.541 152.295Z" fill="#F62C8F"/>
<path d="M328.502 141.318C329.649 140.043 330.861 138.843 332.147 137.706C330.699 138.231 329.251 138.755 327.799 139.28C327.105 140.301 326.587 141.41 326.351 142.629C326.199 143.425 326.185 143.673 327.077 143.554C327.512 143.494 327.947 143.31 328.359 143.163C329.594 142.73 330.866 142.33 332.063 141.805C333.22 141.295 333.964 140.352 334.7 139.358C334.445 139.703 332.942 139.97 332.517 140.122C331.828 140.37 330.977 140.54 330.352 140.931C328.821 141.888 327.771 143.222 327.202 144.934C327.276 144.708 329.113 144.267 329.385 144.17C330.061 143.926 330.953 143.765 331.55 143.36C332.882 142.459 333.826 141.295 334.427 139.809C334.325 140.057 332.54 140.467 332.244 140.572C331.638 140.793 330.57 140.945 330.079 141.382C329.145 142.215 328.567 143.172 328.266 144.382C328.312 144.189 330.204 143.706 330.449 143.618C331.06 143.397 332.119 143.245 332.614 142.808C333.437 142.077 333.969 141.281 334.321 140.241C334.242 140.467 332.41 140.908 332.137 141.005C331.61 141.194 330.343 141.378 329.973 141.815C329.187 142.739 328.511 143.701 327.91 144.75C328.086 144.446 329.732 144.115 330.093 143.986C330.75 143.747 331.689 143.595 332.258 143.176C333.567 142.224 334.603 141.083 335.431 139.694C335.246 140.007 333.618 140.324 333.248 140.457C332.586 140.697 331.661 140.853 331.083 141.267C329.644 142.298 328.669 143.646 328.141 145.33C328.211 145.113 330.061 144.658 330.324 144.566C330.796 144.396 332.193 144.179 332.489 143.756C333.456 142.376 334.163 140.913 334.635 139.298C334.575 139.51 332.711 139.97 332.452 140.062C331.92 140.255 330.667 140.43 330.287 140.872C329.177 142.155 328.368 143.563 327.827 145.169C327.901 144.943 329.737 144.501 330.01 144.405C330.583 144.198 331.735 144.037 332.174 143.595C333.562 142.21 334.575 140.628 335.25 138.792C335.162 139.031 333.349 139.455 333.067 139.556C332.471 139.772 331.374 139.924 330.903 140.365C329.899 141.295 329.247 142.381 328.891 143.701C328.946 143.503 330.824 143.025 331.074 142.937C331.712 142.707 332.702 142.555 333.238 142.127C333.756 141.713 334.14 141.29 334.501 140.733C333.053 141.258 331.606 141.782 330.153 142.307C329.709 143.218 329.261 144.129 328.817 145.044C330.264 144.52 331.712 143.995 333.164 143.471C333.502 142.155 334.048 141.005 334.857 139.915C334.598 140.264 333.104 140.526 332.674 140.678C332.147 140.867 330.879 141.051 330.509 141.488C329.843 142.27 328.835 143.747 329.052 144.86C329.177 145.5 329.122 145.385 329.691 145.27C330.32 145.145 330.972 144.819 331.573 144.603C332.202 144.377 333.553 144.161 334.062 143.636C335.135 142.523 332.743 143.365 332.383 143.494C331.199 143.913 329.945 144.281 328.803 144.81C328.521 144.938 328.257 145.086 328.016 145.284C327.799 145.458 327.609 145.665 327.447 145.891C327.101 146.263 327.156 146.36 327.614 146.185C328.548 146.171 329.876 145.394 330.736 145.081C331.666 144.741 332.554 144.524 333.211 143.751C331.763 144.276 330.315 144.8 328.863 145.325C328.488 145.868 327.855 146.539 328.789 146.65C329.353 146.714 330.44 146.079 330.972 145.886C331.504 145.693 332.572 145.012 333.137 145.076C332.207 144.966 332.836 144.294 333.211 143.751C332.979 144.087 331.434 144.368 331.027 144.515C330.5 144.704 329.237 144.883 328.863 145.325C328.581 145.656 328.354 145.84 327.975 146.056C329.062 145.656 330.149 145.256 331.24 144.856C331.12 144.897 330.995 144.943 330.875 144.984C331.236 144.86 331.596 144.736 331.957 144.612C331.273 144.727 331.767 144.304 332.054 143.995C332.346 143.682 332.697 143.471 333.072 143.273C332.716 143.411 332.359 143.544 332.003 143.682C332.133 143.632 332.267 143.586 332.397 143.535C331.305 143.922 330.213 144.313 329.122 144.699C329.459 144.626 329.825 144.428 329.941 144.75C330.047 145.053 329.57 145.284 329.395 145.371C330.842 144.846 332.29 144.322 333.742 143.798C332.54 143.655 334.422 140.434 334.866 139.915C333.419 140.439 331.971 140.964 330.519 141.488C329.709 142.578 329.159 143.728 328.826 145.044C328.877 144.851 330.759 144.368 331.009 144.281C331.388 144.143 332.989 143.848 333.174 143.471C333.618 142.56 334.066 141.649 334.51 140.733C334.371 141.014 332.656 141.382 332.327 141.497C331.878 141.658 330.426 141.893 330.163 142.307C329.806 142.864 329.418 143.287 328.9 143.701C330.348 143.176 331.795 142.652 333.248 142.127C333.599 140.807 334.256 139.721 335.26 138.792C333.812 139.316 332.364 139.841 330.912 140.365C330.237 142.201 329.224 143.784 327.836 145.169C329.284 144.644 330.731 144.12 332.184 143.595C332.725 141.989 333.53 140.582 334.644 139.298C333.197 139.823 331.749 140.347 330.297 140.872C329.82 142.486 329.117 143.949 328.151 145.33C329.598 144.805 331.046 144.281 332.498 143.756C333.026 142.072 334.001 140.724 335.44 139.694C333.992 140.218 332.545 140.743 331.092 141.267C330.269 142.657 329.228 143.798 327.919 144.75C329.367 144.225 330.815 143.701 332.267 143.176C332.868 142.127 333.544 141.161 334.33 140.241C332.882 140.766 331.434 141.29 329.982 141.815C329.631 142.854 329.103 143.65 328.275 144.382C329.723 143.857 331.171 143.333 332.623 142.808C332.924 141.598 333.502 140.641 334.436 139.809C332.989 140.333 331.541 140.858 330.089 141.382C329.487 142.873 328.548 144.032 327.212 144.934C328.659 144.409 330.107 143.885 331.559 143.36C332.124 141.654 333.178 140.315 334.709 139.358C333.261 139.882 331.814 140.407 330.361 140.931C329.658 141.884 328.978 142.739 327.91 143.301C328.007 143.259 328.104 143.222 328.201 143.181C328.067 143.232 327.933 143.282 327.799 143.333C329.15 142.85 330.5 142.362 331.851 141.879C331.652 141.925 330.778 142.173 330.583 141.962C330.412 141.778 330.805 140.623 330.87 140.384C331.143 139.409 331.587 138.539 332.156 137.702C331.929 138.038 330.375 138.323 329.973 138.465C329.362 138.686 328.299 138.838 327.808 139.275C326.527 140.411 325.315 141.612 324.164 142.887C324.501 142.514 325.856 142.298 326.347 142.123C326.883 141.93 328.104 141.759 328.502 141.318Z" fill="#6E5631"/>
<path d="M331.823 128.533C332.003 129.729 332.928 130.428 334.14 130.272C334.852 130.18 335.648 129.752 336.323 129.508C336.61 129.407 338.247 128.546 338.488 128.698C337.558 128.114 336.619 127.709 335.556 127.438C334.108 127.962 332.66 128.487 331.208 129.011C332.211 129.172 333.067 129.471 333.951 129.959C335.398 129.434 336.846 128.91 338.298 128.385C337.142 128.174 335.986 127.967 334.829 127.755C333.382 128.279 331.934 128.804 330.482 129.328C332.285 128.942 334.038 128.924 335.847 129.264C337.295 128.74 338.742 128.215 340.195 127.691C338.15 127.893 336.346 126.554 334.302 126.936C333.571 127.074 332.817 127.447 332.119 127.7C331.643 127.87 330.449 128.615 329.954 128.51C331.809 128.905 333.659 129.305 335.514 129.701C336.962 129.177 338.409 128.652 339.862 128.128C338.368 128.04 337.086 127.603 335.856 126.761C334.408 127.286 332.961 127.81 331.508 128.335C332.813 128.606 334.14 128.873 335.371 129.393C336.277 129.775 337.285 130.879 338.224 130.966C338.932 131.031 339.945 130.46 340.588 130.23C341.42 129.931 342.271 129.655 343.072 129.269C341.624 129.793 340.176 130.318 338.724 130.842C338.141 131.362 337.822 131.845 337.577 132.586C337.651 132.365 339.487 131.919 339.76 131.822C340.074 131.707 341.818 131.339 341.924 131.012C342.17 130.272 342.489 129.789 343.072 129.269C342.632 129.655 341.448 129.83 340.888 130.032C340.172 130.29 339.413 130.511 338.724 130.842C338.617 130.893 338.511 130.943 338.409 130.994C339.857 130.469 341.305 129.945 342.757 129.42C341.684 129.259 340.736 128.243 339.723 127.824C338.488 127.313 337.165 127.037 335.861 126.766C335.366 126.665 334.154 127.359 333.678 127.53C333.405 127.626 331.73 128.487 331.513 128.339C332.748 129.181 334.025 129.618 335.519 129.706C336.124 129.742 337.128 129.144 337.702 128.942C338.178 128.772 339.371 128.026 339.866 128.132C338.012 127.737 336.161 127.336 334.307 126.941C332.859 127.465 331.411 127.99 329.959 128.514C332.003 128.132 333.807 129.471 335.852 129.269C336.555 129.2 337.373 128.744 338.035 128.505C338.525 128.33 339.686 127.599 340.199 127.695C338.391 127.355 336.633 127.373 334.834 127.76C334.099 127.916 333.359 128.27 332.651 128.523C332.156 128.703 331.004 129.425 330.486 129.333C331.643 129.545 332.799 129.752 333.955 129.963C334.469 130.055 335.643 129.374 336.138 129.2C336.448 129.085 338.025 128.238 338.303 128.39C337.415 127.898 336.559 127.603 335.56 127.442C335.033 127.355 333.881 128.026 333.377 128.206C332.924 128.367 331.68 129.131 331.212 129.016C332.276 129.287 333.215 129.687 334.145 130.276C335.593 129.752 337.04 129.227 338.493 128.703C337.285 128.855 336.356 128.16 336.175 126.964C336.212 127.226 331.772 128.197 331.823 128.533Z" fill="#6E5631"/>
<path d="M350.167 128.298C350.731 139.087 350.357 149.88 349.043 160.599C349.071 160.59 349.094 160.585 349.122 160.576C379.385 150.772 410.318 143.098 441.664 137.614C442.394 137.486 443.148 137.099 443.847 136.851C444.309 136.685 445.53 135.931 446.011 136.041C430.665 132.462 415.152 129.591 399.532 127.47C391.651 126.403 383.737 125.519 375.814 124.829C371.924 124.493 368.034 124.199 364.14 123.951C361.189 123.762 358.765 123.831 355.99 124.825C353.395 125.754 351.129 126.545 349.903 129.25C348.312 132.752 349.441 136.625 350.486 140.108C350.472 140.053 354.866 138.654 354.834 138.535C353.405 133.787 351.966 126.927 357.595 124.268C356.175 124.783 354.751 125.303 353.331 125.818C356.823 124.677 361.143 125.598 364.741 125.86C368.483 126.136 372.225 126.449 375.957 126.807C383.279 127.511 390.587 128.376 397.867 129.407C412.585 131.482 427.196 134.233 441.668 137.605C443.116 137.081 444.564 136.556 446.016 136.032C429.744 138.88 413.579 142.302 397.562 146.319C389.745 148.279 381.961 150.381 374.218 152.622C370.217 153.781 366.226 154.973 362.248 156.206C360.403 156.776 358.557 157.356 356.712 157.945C355.87 158.211 354.505 159.04 353.835 158.441C353.169 157.853 353.77 155.81 353.853 154.996C354.815 145.596 355.014 136.142 354.524 126.711C354.533 127.139 350.139 127.815 350.167 128.298Z" fill="black"/>
<path d="M295.927 130.524C293.632 130.382 291.269 129.899 288.975 130.281C287.157 130.584 285.316 131.366 283.619 132.056C281.246 133.018 280.418 134.716 279.188 136.855C277.467 139.845 275.562 142.725 273.647 145.592C271.755 148.43 269.341 151.347 267.921 154.448C267.236 155.948 267.102 156.992 266.029 158.294C265.062 159.467 264.262 160.769 263.337 161.979C259.17 167.426 256.284 173.573 252.371 179.19C252.408 179.135 253.037 178.965 253.014 178.974C254.415 178.481 256.404 178.164 257.44 177.037C258.938 175.404 257.32 176.149 256.182 176.558C255.446 176.825 254.369 177.018 253.726 177.469C253.499 177.63 253.356 177.879 253.175 178.081C253.037 178.242 252.639 178.675 252.597 178.868C252.463 179.484 252.56 179.047 253.203 179.084C255.382 179.213 257.505 178.362 259.503 177.63C260.294 177.341 261.159 177.097 261.903 176.696C262.264 176.503 263.097 176.089 263.235 175.675C263.448 175.054 262.426 174.769 261.681 174.737C259.91 174.668 257.778 175.818 256.186 176.471C255.1 176.917 254.17 177.511 253.286 178.293C253.12 178.44 252.662 178.753 252.583 178.965C252.398 179.475 252.676 179.093 253.236 179.084C254.031 179.07 254.864 178.891 255.65 178.781C257.204 178.564 258.494 178.228 259.965 177.699C260.308 177.575 262.241 177.147 262.389 176.802C262.486 176.568 262.588 176.788 262.222 176.655C261.399 176.356 259.789 176.793 258.952 176.922C257.574 177.138 256.316 177.612 255.012 178.086C254.318 178.339 253.374 178.518 252.755 178.928C251.695 179.627 254.558 178.914 254.975 178.859C269.845 176.834 284.165 172.156 298.753 168.82C315.811 164.914 333.114 162.283 350.412 159.697C351.911 159.472 353.27 158.345 354.76 158.124C337.013 160.778 319.261 163.488 301.773 167.555C293.161 169.561 284.655 171.995 276.057 174.046C271.945 175.026 267.81 175.919 263.642 176.627C261.482 176.995 259.313 177.258 257.144 177.566C256.404 177.672 254.674 178.785 253.495 178.707C253.828 178.73 254.267 178.55 254.605 178.5C255.793 178.311 257.074 178.422 258.198 178.302C258.259 178.297 264.082 176.637 261.196 177.037C260.493 177.134 259.79 177.244 259.082 177.331C258.675 177.382 258.013 177.552 257.583 177.515C256.672 177.437 256.547 177.736 257.394 176.949C258.291 176.112 259.23 175.431 260.382 174.971C258.957 175.486 257.532 175.997 256.112 176.512C256.783 176.347 258.314 176.08 258.837 176.807C259.308 176.977 259.248 177.212 258.647 177.515C258.476 177.653 258.305 177.791 258.134 177.934C257.995 177.814 261.834 177.285 259.304 177.373C258.98 177.382 256.778 177.736 256.714 177.617C256.617 177.442 257.856 176.075 258.069 175.901C256.621 176.425 255.173 176.949 253.721 177.474C253.943 177.52 252.704 179.011 252.533 179.13C253.767 178.679 255.002 178.224 256.237 177.773C256.182 177.791 256.126 177.81 256.075 177.828C256.288 177.755 256.506 177.686 256.718 177.612C260.035 172.86 262.296 167.417 265.761 162.77C267.329 160.668 268.906 158.437 270.613 156.44C271.542 155.354 271.598 154.503 272.13 153.219C272.708 151.825 273.716 150.523 274.535 149.254C277.615 144.483 280.927 139.855 283.744 134.918C284.373 133.814 284.891 132.563 285.848 131.688C286.394 131.187 287.828 130.644 285.538 131.472C283.193 132.319 284.752 131.813 285.45 131.757C287.495 131.596 289.548 131.969 291.583 132.098C293.003 132.185 294.534 130.437 295.927 130.524Z" fill="black"/>
<path d="M352.331 128.666C349.492 129.025 346.647 129.347 343.798 129.632C342.304 129.779 340.93 131.058 339.45 131.206C342.299 130.92 345.144 130.598 347.984 130.239C349.482 130.046 350.847 128.85 352.331 128.666Z" fill="black"/>
<path d="M265.298 156.077C232.778 158.501 200.369 162.324 168.191 167.569C165.388 168.025 162.752 168.475 160.088 169.442C157.77 170.279 155.657 171.286 157.294 174.107C158.793 176.692 162.1 178.601 164.644 180.018C167.497 181.61 170.555 182.811 173.7 183.699C187.344 187.554 202.312 185.99 215.951 182.954C231.585 179.476 246.617 173.619 261.533 167.91C262.352 167.597 260.816 168.135 260.742 168.163C259.748 168.512 258.758 168.871 257.773 169.248C239.29 176.329 220.322 183.193 200.341 184.196C192.275 184.601 184.023 184.108 176.299 181.601C172.627 180.409 169.098 178.753 165.934 176.531C163.941 175.128 158.506 171.038 162.271 168.673C160.851 169.188 159.426 169.708 158.006 170.224C162.09 168.908 166.841 168.65 171.073 167.988C175.286 167.33 179.504 166.695 183.727 166.083C192.321 164.841 200.933 163.7 209.555 162.656C226.65 160.59 243.791 158.924 260.96 157.645C262.44 157.535 263.832 156.182 265.298 156.077Z" fill="black"/>
<path d="M283.577 133.556C256.237 125.583 226.673 119.718 198.362 126.057C191.849 127.516 185.522 129.706 179.333 132.172C179.31 132.181 179.282 132.195 179.259 132.204C194.98 138.102 211.363 140.434 227.903 142.827C244.05 145.164 261.001 148.877 277.194 145.017C278.688 144.662 280.057 143.797 281.542 143.443C268.651 146.516 255.437 144.607 242.523 142.739C229.378 140.839 216.076 139.349 203.107 136.459C200.138 135.797 197.191 135.042 194.268 134.196C192.747 133.754 191.229 133.285 189.726 132.793C189.083 132.581 184.532 131.477 184.421 130.939C184.009 128.96 199.92 126.476 201.983 126.177C214.148 124.429 226.534 124.751 238.703 126.278C252.454 128.003 265.955 131.261 279.239 135.134C280.441 135.484 282.407 133.216 283.577 133.556Z" fill="black"/>
<path d="M279.433 131.035C274.035 120.969 264.336 114.307 253.74 110.47C242.116 106.261 229.878 106.183 217.76 104.554C211.382 103.694 204.976 102.309 199.212 99.3691C193.315 96.3603 188.593 91.732 183.625 87.4672C174.292 79.4529 162.742 71.9769 149.819 73.9644C145.412 74.6407 140.389 76.3797 136.628 78.7904C132.091 81.7026 128.96 86.2895 124.482 89.2753C124.214 89.4547 123.049 89.947 122.924 90.2046C123.345 89.3213 125.477 89.6525 123.58 89.8826C122.253 90.0436 120.889 89.9286 119.57 90.1402C117.716 90.4347 115.736 91.2398 114.034 91.9943C109.469 94.014 109.413 100.211 113.141 103.077C117.355 106.316 122.235 104.614 126.665 102.976C128.955 102.129 131.101 101.044 133.307 100.009C133.751 99.8062 134.191 99.6083 134.635 99.4059C133.044 99.9626 132.877 100.082 134.131 99.7602C134.945 99.7141 135.759 99.5071 136.577 99.4565C138.511 99.3461 140.449 99.5301 142.35 99.889C149.098 101.159 155.388 104.434 161.628 107.172C167.497 109.744 173.491 112.237 179.828 113.41C183.491 114.087 187.219 114.28 190.919 113.838C195.041 113.346 199.032 112.283 203.213 112.449C210.882 112.752 218.648 115.246 226.071 117.068C241.182 120.776 256.214 125.266 269.808 132.963C270.696 133.464 273.309 130.911 274.155 131.39C263.133 125.146 251.136 120.988 238.934 117.684C232.875 116.042 226.76 114.597 220.646 113.171C213.87 111.593 207.464 110.282 200.503 111.423C194.384 112.426 188.741 112.872 182.626 111.524C176.586 110.194 170.86 107.751 165.226 105.272C159.727 102.852 154.213 100.096 148.339 98.6744C142.794 97.331 138.085 98.0625 132.863 99.9856C130.384 100.897 127.998 102.553 125.5 103.266C123.539 103.827 120.519 103.293 118.548 102.203C114.094 99.7325 113.164 92.7994 118.303 90.4623C116.883 90.9775 115.459 91.4974 114.039 92.0127C116.532 91.203 119.214 91.6584 121.753 90.7843C123.604 90.1448 125.528 89.5421 127.271 88.6404C132.105 86.1377 135.319 81.4266 139.602 78.1924C140.833 77.263 142.137 76.5545 143.506 75.8552C145.518 74.8201 141.933 76.4027 141.994 76.3383C142.234 76.0761 143.307 75.9795 143.677 75.892C144.51 75.6988 145.356 75.5516 146.203 75.4458C149.269 75.0639 152.4 75.2111 155.435 75.7862C161.933 77.0192 167.853 80.2765 173.135 84.1364C178.598 88.1251 183.316 92.9972 188.713 97.0596C194.12 101.131 200.267 103.625 206.872 105.028C219.406 107.692 232.417 107.043 244.799 110.572C257.13 114.087 268.906 121.08 275.09 132.618C275.205 132.825 279.35 130.874 279.433 131.035Z" fill="black"/>
<path d="M255.391 174.176C241.474 180.322 227.552 186.468 213.634 192.615C206.613 195.716 199.643 198.812 192.053 200.247C185.337 201.517 178.667 201.328 172.025 199.709C165.203 198.044 158.663 195.421 151.859 193.682C145.005 191.934 137.998 190.788 130.944 190.25C117.119 189.192 103.109 190.457 89.7192 194.041C85.0709 195.283 79.7934 196.581 75.5891 199.005C70.7326 201.807 69.2433 207.779 71.209 212.853C73.1747 217.932 78.429 220.886 83.6648 221.525C90.191 222.317 96.0604 219.087 102.374 218.194C109.219 217.228 115.126 220.449 121.347 222.717C127.794 225.068 134.496 225.33 141.249 224.368C148.511 223.333 155.583 221.185 162.65 219.28C170.037 217.288 177.423 215.291 184.814 213.299C201.012 208.929 217.242 204.655 233.412 200.178C238.92 198.656 244.97 196.893 249.688 193.59C255.317 189.652 259.123 183.745 262.773 178.072C262.125 179.08 259.1 178.601 258.425 179.646C255.28 184.536 252.051 189.537 247.611 193.383C246.52 194.331 245.359 195.2 244.128 195.964C242.644 196.88 241.071 197.648 240.086 197.938C236.427 199.014 232.732 199.967 229.05 200.96C214.865 204.788 200.683 208.616 186.498 212.444C179.407 214.357 172.312 216.271 165.222 218.185C158.469 220.007 151.702 222.018 144.741 222.915C137.965 223.789 131.351 223.306 124.94 220.867C119.14 218.664 113.502 215.77 107.106 216.575C101.107 217.33 95.5147 220.375 89.3677 220.071C84.0995 219.809 78.5493 217.27 76.0655 212.43C73.8223 208.059 74.2709 202.092 78.1006 198.725C78.6649 198.228 79.3772 197.915 79.9368 197.436C81.4909 196.093 78.6279 197.726 80.5612 197.013C82.3836 196.341 84.3169 195.886 86.1902 195.398C89.4741 194.547 92.795 193.829 96.1437 193.254C109.529 190.949 123.298 190.871 136.707 193.02C143.414 194.096 149.963 195.794 156.42 197.883C162.655 199.902 168.922 202.083 175.504 202.589C189.032 203.629 202.501 197.809 214.633 192.509C229.638 185.953 244.596 179.282 259.577 172.667C258.578 173.117 256.672 173.61 255.391 174.176Z" fill="black"/>
<path d="M23.3561 179.02C23.0554 179.186 22.7502 179.347 22.4403 179.498C20.8168 180.225 21.2608 180.078 23.7677 179.057C23.2636 179.038 22.7132 179.259 22.1998 179.273C20.9139 179.305 19.7946 178.937 18.7447 178.196C18.5319 178.045 16.8345 178.863 16.5616 178.96C16.2933 179.057 14.6051 179.917 14.397 179.77C16.5153 181.256 18.7956 180.906 21.099 180.115C23.3422 179.347 25.6086 178.569 27.6992 177.442C26.3671 178.164 24.702 178.293 23.3561 179.02Z" fill="black"/>
<path d="M48.3556 160.369C41.7276 165.328 35.1736 170.384 28.6289 175.45C29.776 174.562 31.8111 174.778 32.9766 173.876C39.5214 168.806 46.0753 163.75 52.7033 158.795C51.5285 159.67 49.5396 159.481 48.3556 160.369Z" fill="black"/>
<path d="M271.316 156.026C257.583 149.682 242.639 146.305 227.501 146.038C220.026 145.905 212.543 146.516 205.179 147.814C197.746 149.125 190.656 151.342 183.501 153.68C168.741 158.501 153.006 163.102 137.669 157.935C122.919 152.962 108.65 145.914 92.9336 144.465C85.1586 143.747 77.7212 145.104 70.4318 147.726C63.1517 150.344 56.9724 154.287 50.645 158.676C51.8615 157.834 53.7624 157.954 54.9928 157.102C57.8697 155.106 60.7281 153.077 63.7252 151.264C65.1914 150.376 66.6946 149.534 68.2395 148.789C68.813 148.513 69.3958 148.26 69.9693 147.993C70.1821 147.897 71.4494 147.372 70.1728 147.883C68.9055 148.393 70.1913 147.901 70.4318 147.837C71.2042 147.634 71.9628 147.395 72.7352 147.207C79.7702 145.458 86.9393 145.546 94.0483 146.797C101.254 148.062 108.243 150.284 115.107 152.759C121.985 155.239 128.77 158.354 135.828 160.282C149.907 164.132 164.264 160.097 177.705 155.741C184.814 153.436 191.858 151.099 199.217 149.691C206.164 148.366 213.232 147.657 220.304 147.602C236.395 147.478 252.366 150.859 266.963 157.604C267.287 157.756 268.799 156.964 269.146 156.84C269.493 156.707 270.987 155.874 271.316 156.026Z" fill="black"/>
<path d="M277.694 148.242C279.155 148.242 280.603 146.668 282.042 146.668C280.58 146.668 279.132 148.242 277.694 148.242Z" fill="black"/>
<path d="M330.718 144.662C366.11 140.002 401.697 136.712 437.385 135.475C438.86 135.424 440.276 133.952 441.733 133.901C406.044 135.139 370.462 138.428 335.065 143.089C333.567 143.287 332.202 144.464 330.718 144.662Z" fill="black"/>
<path d="M272.518 149.64C279.086 150.041 285.649 149.921 292.212 149.484C293.697 149.383 295.094 148.007 296.56 147.911C290.001 148.352 283.434 148.472 276.866 148.067C275.441 147.98 273.915 149.723 272.518 149.64Z" fill="black"/>
<path d="M120.061 96.5764C120.972 95.394 121.962 94.8006 123.099 93.8988C123.798 93.5308 123.437 93.6366 122.012 94.2163C122.438 94.1105 122.868 94.0231 123.298 93.954C123.955 93.8436 124.617 93.77 125.283 93.7194C128.159 93.5032 131.009 93.8804 133.872 94.1243C139.269 94.5751 143.959 93.7378 148.89 91.5755C150.213 90.9958 151.374 90.1907 152.539 89.3442C153.103 88.9348 153.654 88.5069 154.227 88.1112C154.639 87.826 155.768 87.3935 155.966 87.0163C154.001 87.5684 153.52 87.7616 154.537 87.596C154.916 87.5316 155.3 87.504 155.689 87.5132C156.461 87.5132 157.229 87.6466 157.974 87.826C159.643 88.2309 161.207 88.9992 162.733 89.7583C169.708 93.2456 176.637 96.8248 183.593 100.363C183.894 100.515 185.443 99.7187 185.776 99.599C186.105 99.4794 187.64 98.6375 187.941 98.7893C183.838 96.7052 179.74 94.6211 175.638 92.5325C171.984 90.6738 168.362 88.5483 164.56 87.0071C158.927 84.7206 153.09 87.3153 148.478 90.706C147.821 91.1891 147.174 91.6767 146.485 92.1092C146.096 92.3576 145.698 92.5877 145.287 92.7993C147.017 92.2518 147.257 92.1322 146.013 92.4312C144.195 92.6475 142.438 92.7901 140.597 92.7119C137.049 92.5601 133.529 91.9114 129.968 92.1276C127.271 92.2886 124.871 93.0707 122.364 93.9817C119.774 94.9248 117.461 95.8909 115.718 98.1498C116.495 97.1423 119.26 97.6162 120.061 96.5764Z" fill="black"/>
<path d="M79.1412 210.332C80.02 209.78 80.9497 209.393 81.8516 208.892C79.0441 209.839 78.6139 210.019 80.5658 209.43C80.9774 209.324 81.3891 209.228 81.8053 209.14C83.4982 208.781 85.2188 208.57 86.944 208.418C90.4407 208.11 93.9559 208.068 97.4433 207.654C102.785 207.015 109.094 205.211 113.308 201.761C112.193 202.672 110.093 202.409 108.96 203.334C108.313 203.863 107.651 204.36 106.93 204.797C106.578 205.009 106.217 205.207 105.852 205.391C104.011 206.205 104.483 206.067 107.272 204.981C105.436 205.395 103.669 205.855 101.791 206.076C98.3036 206.49 94.7884 206.532 91.2917 206.84C85.6998 207.332 79.5991 208.887 74.7981 211.901C76.0654 211.109 77.8646 211.132 79.1412 210.332Z" fill="black"/>
<path d="M80.4224 202.41C95.6672 195.49 114.881 197.169 129.871 203.817C137.854 207.36 145.444 211.606 154.403 211.882C163.385 212.158 172.127 209.38 180.578 206.679C181.9 206.256 183.723 205.483 184.763 205.152C176.882 207.668 168.802 210.217 160.448 210.323C152.438 210.424 145.43 207.48 138.321 204.139C131.527 200.947 124.681 198.361 117.212 197.252C109.964 196.176 102.536 196.323 95.3342 197.671C88.7248 198.909 82.1847 201.209 76.0747 203.983C77.4715 203.348 79.021 203.044 80.4224 202.41Z" fill="black"/>
<path d="M207.45 201.521C213.704 199.562 220.285 199.566 226.677 198.329C230.905 197.51 235.248 196.028 239.129 194.156C249.161 189.316 254.11 178.578 263.633 173.108C262.324 173.858 260.608 173.922 259.285 174.681C251.455 179.181 246.913 187.301 239.808 192.661C238.87 193.369 237.894 194.022 236.881 194.616C236.423 194.883 235.96 195.136 235.493 195.38C235.216 195.522 232.394 196.686 233.999 196.125C235.817 195.49 232.783 196.383 232.251 196.502C231.71 196.622 231.164 196.732 230.623 196.833C229.254 197.086 227.88 197.28 226.497 197.454C221.492 198.085 216.479 198.48 211.641 199.994C210.313 200.408 208.496 201.195 207.45 201.521Z" fill="black"/>
<path d="M336.559 126.191C335.463 124.249 333.336 124.148 331.361 124.677C329.177 125.261 326.902 126.08 324.876 127.088C326.24 126.407 327.85 126.195 329.224 125.514C329.399 125.422 329.584 125.335 329.769 125.257C330.556 124.916 330.112 125.073 328.433 125.721C325.352 126.844 326.971 126.218 327.795 126.071C328.363 125.97 328.951 125.919 329.529 125.984C330.736 126.112 331.624 126.72 332.216 127.764C332.35 128.008 336.453 126.007 336.559 126.191Z" fill="black"/>
<path d="M288.041 119.037C290.978 126.301 289.53 133.947 289.132 141.511C288.984 144.34 288.485 148.195 290.173 150.684C291.671 152.897 294.41 153.785 296.963 153.969C304.715 154.531 312.527 153.652 320.255 153.169C325.241 152.856 330.528 149.617 333.063 145.315C332.882 145.624 331.245 145.95 330.88 146.079C330.454 146.231 328.951 146.484 328.715 146.889C327.096 149.64 324.497 151.163 322.031 153.068C323.479 152.543 324.927 152.019 326.379 151.494C320.265 151.844 314.164 152.446 308.035 152.529C303.831 152.589 297.855 153.233 294.84 149.553C293.369 147.758 293.397 145.403 293.383 143.199C293.369 140.333 293.632 137.481 293.868 134.628C294.345 128.804 294.613 122.989 292.379 117.468C292.356 117.385 288.045 119.055 288.041 119.037Z" fill="black"/>
<path d="M325.352 124.268C325.796 118.085 325.149 111.469 322.725 105.704C320.459 100.317 315.57 102.024 311.291 103.588C301.44 107.19 293.045 115.932 287.148 124.319C287.86 123.306 290.76 123.789 291.495 122.745C296.976 114.956 303.942 108.446 312.11 103.514C313.484 102.686 311.726 103.547 311.717 103.593C311.745 103.436 313.248 103.445 313.373 103.445C314.33 103.468 315.288 103.689 316.102 104.218C317.993 105.451 318.673 107.862 319.293 109.896C320.87 115.067 321.398 120.454 321.009 125.837C321.051 125.248 325.306 124.921 325.352 124.268Z" fill="black"/>
<path d="M297.356 127.493C298.572 128.045 299.789 128.601 301.01 129.153C302.004 129.604 302.985 130.281 304.099 129.954C305.339 129.59 306.602 129.117 307.795 128.62C308.331 128.399 309.201 127.727 308.345 127.24C308.077 127.088 306.472 127.893 306.162 128.003C305.857 128.114 304.266 128.965 303.998 128.813C304.529 129.117 304.344 129.701 303.905 130.014C305.353 129.489 306.8 128.965 308.253 128.44C307.17 128.675 306.079 127.911 305.126 127.479C303.984 126.959 302.841 126.439 301.703 125.919C301.375 125.772 299.872 126.559 299.52 126.683C299.169 126.812 297.684 127.644 297.356 127.493Z" fill="black"/>
<path d="M311.976 118.545C312.073 118.499 312.17 118.453 312.268 118.407C310.843 118.922 309.418 119.433 307.998 119.948C309.442 119.584 310.663 120.96 311.417 122C312.864 121.475 314.312 120.951 315.764 120.426C314.705 119.428 313.651 118.425 312.591 117.427C312.448 117.293 310.635 118.112 310.408 118.19C309.895 118.374 309.386 118.563 308.873 118.752C308.799 118.779 308.267 119.019 308.244 118.996C309.303 119.994 310.357 120.997 311.417 121.995C311.56 122.129 313.373 121.31 313.6 121.232C313.775 121.167 315.713 120.348 315.764 120.422C315.112 119.52 314.122 118.356 312.91 118.301C312.189 118.264 311.398 118.692 310.746 118.927C309.719 119.295 308.6 119.594 307.638 120.114C308.281 119.764 309.132 119.598 309.821 119.35C310.519 119.097 311.315 118.908 311.976 118.545Z" fill="black"/>
<path d="M321.194 126.784C325.001 126.066 328.844 126.168 332.646 126.876C334.395 127.203 341.439 128.196 341.263 130.465C341.166 131.702 339.32 133.565 338.599 134.651C337.484 136.326 336.356 137.991 335.213 139.643C332.956 142.9 330.634 146.111 328.257 149.286C329.015 148.274 331.823 148.757 332.605 147.712C334.982 144.538 337.304 141.327 339.561 138.069C340.703 136.418 341.832 134.752 342.947 133.078C343.659 132.006 345.514 130.143 345.611 128.891C345.791 126.586 338.77 125.634 336.994 125.303C333.192 124.59 329.348 124.493 325.542 125.211C324.039 125.491 322.683 126.503 321.194 126.784Z" fill="black"/>
<path d="M20.9048 179.894C24.2303 181.541 27.2969 183.543 30.1368 185.926C30.2987 186.059 34.4614 184.504 34.4845 184.352C35.0303 180.258 35.5761 176.159 36.1218 172.064C36.034 172.736 31.8712 172.906 31.7741 173.637C31.2283 177.732 30.6826 181.831 30.1368 185.926C31.5845 185.401 33.0322 184.877 34.4845 184.352C31.6446 181.969 28.5781 179.968 25.2525 178.321C24.9472 178.169 23.407 178.965 23.0694 179.085C22.7364 179.209 21.2147 180.051 20.9048 179.894Z" fill="black"/>
<path d="M46.2927 159.407C45.6822 155.736 45.5527 152.074 45.8903 148.37C44.4426 148.895 42.9949 149.419 41.5426 149.944C45.067 151.977 48.4296 154.227 51.6534 156.707C52.0928 157.047 55.7837 154.788 56.0011 155.133C55.4599 154.259 54.8355 153.827 53.8319 153.624C52.5275 153.358 50.7561 155.455 49.4841 155.198C50.4971 155.405 51.1168 155.837 51.6534 156.707C53.1011 156.182 54.5488 155.658 56.0011 155.133C52.7819 152.654 49.4148 150.404 45.8903 148.37C45.6452 148.228 41.5565 149.81 41.5426 149.944C41.2003 153.647 41.3344 157.309 41.945 160.981C41.9034 160.732 46.3436 159.72 46.2927 159.407Z" fill="black"/>
<path d="M79.7932 147.929C79.1966 147.22 78.6323 146.829 77.7535 146.521C76.9996 146.254 73.8729 148.55 73.4058 148.095C76.3197 150.952 78.7572 154.135 80.7553 157.692C80.746 157.673 85.0059 156.408 85.103 156.118C85.8014 154.025 86.4998 151.927 87.1983 149.834C87.6839 148.375 87.966 145.863 89.312 144.948C87.8643 145.472 86.4166 145.997 84.9643 146.521C85.103 146.526 85.2418 146.535 85.3805 146.54C86.8144 146.604 88.3176 144.902 89.7283 144.966C88.8448 144.925 87.9522 145.417 87.1289 145.711C86.3935 145.978 85.2048 146.195 84.5989 146.765C83.4888 147.814 83.165 150.45 82.7118 151.821C82.0596 153.776 81.4074 155.732 80.7599 157.687C82.2076 157.162 83.6553 156.638 85.1076 156.113C83.1142 152.557 80.672 149.374 77.7581 146.517C76.3104 147.041 74.8627 147.566 73.4104 148.09C74.2892 148.398 74.8535 148.789 75.4501 149.498C75.8063 149.93 79.4741 147.556 79.7932 147.929Z" fill="black"/>
<path d="M120.139 149.571C121.689 147.119 123.243 144.663 124.792 142.21C123.345 142.735 121.897 143.259 120.445 143.784C123.164 148.973 126.277 153.928 129.769 158.639C130.047 159.012 133.876 156.744 134.117 157.066C130.62 152.355 127.512 147.4 124.792 142.21C124.797 142.224 120.639 143.48 120.445 143.784C118.895 146.236 117.341 148.693 115.792 151.145C115.995 150.823 117.591 150.519 117.975 150.381C118.414 150.22 119.88 149.986 120.139 149.571Z" fill="black"/>
<path d="M178.288 158.63C180.101 159.941 181.914 161.252 183.732 162.563C183.931 162.711 187.973 161.238 188.079 160.99C189.398 157.829 190.494 154.604 191.377 151.296C191.322 151.494 189.444 151.973 189.194 152.06C188.611 152.272 187.483 152.428 187.03 152.87C186.609 153.279 186.188 153.689 185.767 154.094C186.761 153.127 189.097 153.505 190.115 152.52C190.535 152.111 190.956 151.701 191.377 151.296C189.93 151.821 188.482 152.345 187.03 152.87C186.146 156.178 185.05 159.403 183.732 162.563C185.179 162.039 186.627 161.514 188.079 160.99C186.266 159.679 184.453 158.368 182.636 157.056C182.427 156.909 180.721 157.723 180.452 157.82C180.193 157.917 178.491 158.772 178.288 158.63Z" fill="black"/>
<path d="M297.49 149.654C305.399 139.841 313.655 129.991 324.719 123.573C323.271 124.098 321.823 124.622 320.371 125.147C310.945 133.842 301.796 142.822 292.934 152.088C293.873 151.103 296.32 151.522 297.282 150.515C306.144 141.253 315.293 132.268 324.719 123.573C323.738 124.48 321.56 124.461 320.371 125.147C309.307 131.565 301.051 141.415 293.142 151.228C293.956 150.22 296.653 150.689 297.49 149.654Z" fill="black"/>
<path d="M312.457 135.999C312.73 135.659 312.998 135.328 313.327 135.038C313.692 134.716 315.098 134.099 313.752 134.504C312.314 134.937 314.955 134.417 315.477 134.362C317.901 134.099 320.38 133.993 322.808 134.274C327.096 134.771 331.134 136.634 333.488 140.347C333.65 140.6 337.739 138.585 337.836 138.774C337.521 138.166 337.304 137.95 336.693 137.633C336.397 137.481 334.839 138.281 334.51 138.396C334.187 138.516 332.642 139.358 332.346 139.206C332.956 139.523 333.174 139.74 333.488 140.347C334.936 139.823 336.384 139.298 337.836 138.774C334.131 132.931 326.916 132.149 320.57 132.715C318.229 132.922 316.143 133.483 313.951 134.274C311.759 135.065 309.64 135.687 308.119 137.568C308.923 136.565 311.62 137.035 312.457 135.999Z" fill="black"/>
<path d="M313.812 142.022C314.497 142.394 315.08 142.882 315.57 143.489C317.018 142.965 318.465 142.44 319.918 141.916C318.992 141.226 318.063 140.54 317.138 139.85C317.101 139.823 316.435 140.089 316.495 140.066C315.981 140.246 315.468 140.43 314.955 140.618C314.441 140.802 313.932 140.991 313.419 141.18C313.34 141.207 312.827 141.456 312.79 141.424C313.715 142.114 314.645 142.799 315.57 143.489C315.607 143.517 316.273 143.25 316.213 143.273C316.726 143.094 317.24 142.91 317.753 142.721C318.266 142.537 318.775 142.348 319.289 142.16C319.353 142.137 319.908 141.897 319.918 141.916C319.427 141.309 318.844 140.821 318.16 140.448C318.104 140.416 317.475 140.678 317.517 140.664C317.004 140.844 316.49 141.028 315.977 141.217C315.463 141.401 314.955 141.589 314.441 141.778C314.349 141.81 313.872 142.058 313.812 142.022Z" fill="black"/>
<path d="M327.179 130.138C327.619 130.345 327.961 130.672 328.178 131.104C329.626 130.58 331.074 130.055 332.526 129.531C331.846 129.402 331.3 128.928 331.078 128.275C329.631 128.8 328.183 129.324 326.731 129.848C326.943 129.94 327.151 130.032 327.364 130.125C327.434 130.157 328.03 129.899 328.007 129.908C328.521 129.729 329.034 129.545 329.547 129.356C330.061 129.172 330.569 128.984 331.083 128.795C331.185 128.758 331.638 128.514 331.712 128.551C331.499 128.459 331.291 128.367 331.078 128.275C331.009 128.247 330.412 128.5 330.435 128.491C329.922 128.671 329.409 128.855 328.895 129.043C328.738 129.103 326.717 129.816 326.731 129.853C326.953 130.502 327.498 130.98 328.178 131.109C328.289 131.132 328.784 130.907 328.821 130.893C329.335 130.713 329.848 130.529 330.361 130.341C330.523 130.281 332.517 129.513 332.526 129.531C332.309 129.099 331.971 128.767 331.527 128.565C331.462 128.533 330.856 128.79 330.884 128.781C330.371 128.961 329.857 129.145 329.344 129.333C328.83 129.517 328.322 129.706 327.808 129.894C327.711 129.931 327.253 130.175 327.179 130.138Z" fill="black"/>
<path d="M299.34 113.704C307.809 116.451 310.246 125.597 310.413 133.538C310.403 133.078 314.77 132.493 314.76 131.964C314.594 124.024 312.156 114.878 303.688 112.131C303.276 111.998 301.916 112.748 301.504 112.895C301.097 113.047 299.761 113.842 299.34 113.704Z" fill="black"/>
<path d="M291 86.1608C292.462 86.1608 293.91 84.5874 295.348 84.5874C293.891 84.5874 292.439 86.1608 291 86.1608Z" fill="black"/>
<path d="M250.77 172.492C246.954 173.495 243.139 174.497 239.323 175.5C237.972 175.993 236.626 176.485 235.276 176.977C239.388 175.56 243.546 174.318 247.755 173.232C248.99 172.781 250.224 172.326 251.459 171.875C247.653 173.205 243.828 174.493 239.989 175.74C238.407 176.25 236.821 176.752 235.234 177.258C233.93 177.672 235.405 177.207 235.877 177.06C236.955 176.729 238.037 176.411 239.124 176.122C240.659 175.707 242.204 175.358 243.749 174.999C246.094 174.451 242.838 175.376 242.454 175.5C241.645 175.758 240.831 176.002 240.017 176.241C236.511 177.262 232.958 178.1 229.374 178.799C227.926 179.324 226.478 179.848 225.026 180.372C231.242 178.854 237.399 177.129 243.499 175.201C244.929 174.751 246.316 174.019 247.764 173.651C242.024 175.119 236.432 177.069 230.914 179.209C231.053 179.153 230.415 179.397 230.701 179.305C237.584 177.069 244.466 174.833 251.353 172.597C252.671 172.17 254.498 171.392 255.539 171.07C253.883 171.585 252.232 172.096 250.576 172.611C249.753 172.869 248.929 173.163 248.092 173.38C246.191 173.872 247.935 173.283 248.495 173.053C251.917 171.631 255.34 170.21 258.758 168.788C258.448 168.917 257.227 169.313 256.654 169.52C253.666 170.601 250.673 171.682 247.685 172.758C247.065 172.984 246.418 173.182 245.812 173.449C245.488 173.591 245.465 173.591 245.821 173.472C247.704 172.832 249.582 172.188 251.464 171.548C251.779 171.443 253.698 170.987 253.883 170.725C253.698 170.987 250.22 172.147 252.125 171.484C250.886 171.917 249.138 172.643 248.162 172.938C250.52 172.229 252.893 171.558 255.215 170.73C258.929 169.405 255.234 170.72 254.48 170.992C253.444 171.36 252.408 171.728 251.376 172.096C250.419 172.436 248.865 173.076 248.194 173.278C252.028 172.133 255.803 170.771 259.535 169.331C259.401 169.382 260.035 169.147 259.748 169.234C258.938 169.478 257.99 169.934 257.148 170.016C256.015 170.127 258.185 169.382 258.411 169.276C257.019 169.915 255.46 170.21 254.063 170.849C253.3 171.199 252.532 171.548 251.769 171.903C251.797 171.894 251.82 171.889 251.848 171.88C252.815 171.59 253.828 171.162 254.817 170.987C253.962 171.139 252.482 171.76 251.589 172.078C247.829 173.416 251.533 172.096 252.301 171.825C253.337 171.456 254.373 171.088 255.405 170.72C256.362 170.38 257.916 169.745 258.587 169.538C257.028 170.007 255.465 170.463 253.906 170.946C252.972 171.213 252.056 171.525 251.154 171.884C249.064 172.625 248.522 172.823 249.521 172.473C250.109 172.266 250.692 172.059 251.279 171.848C253.763 170.955 256.228 170.03 258.661 169.009C258.938 168.894 258.3 169.119 258.434 169.073C256.149 169.851 253.865 170.633 251.584 171.41C250.562 171.76 249.508 172.078 248.518 172.515C249.04 172.285 249.609 172.119 250.15 171.926C251.372 171.484 252.597 171.042 253.818 170.601C254.359 170.403 254.905 170.205 255.451 170.012C256.603 169.602 253.643 170.693 253.337 170.812C252.098 171.309 250.872 171.838 249.642 172.349C247.176 173.375 244.716 174.396 242.251 175.422C242.149 175.464 242.149 175.468 242.255 175.431C246.409 174.143 250.52 172.574 254.683 171.36C251.649 172.248 248.657 173.315 245.65 174.295C242.639 175.275 239.637 176.283 236.617 177.23C236.432 177.29 234.855 177.819 235.854 177.451C236.506 177.212 237.177 177.014 237.843 176.807C239.688 176.232 241.552 175.712 243.425 175.234C244.845 174.718 246.27 174.198 247.69 173.683C241.645 175.592 235.539 177.304 229.378 178.808C227.898 179.172 226.515 180.092 225.031 180.382C233.143 178.804 240.932 176.287 248.652 173.38C248.754 173.343 248.851 173.306 248.943 173.26C242.431 174.635 236.164 176.743 229.961 179.112C230.1 179.061 229.462 179.296 229.748 179.209C235.997 177.258 242.214 175.197 248.393 173.039C249.619 172.611 250.844 172.004 252.098 171.682C247.685 172.818 243.328 174.134 239.017 175.62C237.676 176.08 236.339 176.738 234.97 177.097C238.786 176.094 242.602 175.091 246.418 174.088C247.912 173.674 249.29 172.883 250.77 172.492Z" fill="black"/>
</svg>
