<svg width="637" height="637" viewBox="0 0 637 637" fill="none" xmlns="http://www.w3.org/2000/svg">
<path d="M364.945 391.58C364.332 391.946 363.926 392.52 363.536 393.109C363.265 392.217 362.907 391.349 362.469 390.537C361.203 388.188 358.973 386.659 356.784 385.266C354.673 383.856 352.078 382.352 349.482 382.901C348.208 382.145 346.934 381.372 345.692 380.568C345.047 380.146 344.402 379.716 343.757 379.286C342.881 378.052 341.718 377.017 340.524 376.069C338.86 374.532 337.06 373.195 335.157 372C334.321 371.108 333.39 370.288 332.45 369.532C329.098 366.578 324.766 365.248 320.467 364.356C317.839 363.783 318.946 364.022 316.238 363.289C315.02 362.915 313.73 362.907 312.536 363.393C310.012 364.993 308.26 367.557 307.289 370.479C306.572 370.153 305.728 370.057 304.772 370.249C303.777 371.3 302.774 372.335 301.747 373.362C301.492 373.656 301.229 373.943 300.966 374.23C300.218 375.026 299.477 375.83 298.729 376.634C297.694 377.837 296.659 379.047 295.6 380.226C294.676 381.253 293.736 382.272 292.805 383.283C292.232 384.032 291.666 384.772 291.061 385.497C290.591 386.062 290.113 386.627 289.628 387.177C289.413 387.416 289.206 387.686 288.975 387.933C288.816 388.921 288.8 389.94 288.959 390.935C288.625 393.188 289.15 395.744 290.217 397.44C290.838 399.455 291.786 401.358 293.068 403.022C293.139 402.982 293.219 402.958 293.314 402.958C293.983 402.998 294.565 403.309 295.154 403.611C296.157 403.962 297.113 404.424 298.012 404.989C298.514 405.307 299.063 405.53 299.581 405.825C299.939 405.921 300.329 406.215 300.608 406.438C300.624 406.446 300.64 406.462 300.648 406.478C300.656 405.96 301.5 405.881 301.619 406.398C301.675 406.621 301.818 406.796 301.914 406.98C302.041 407.218 302.089 407.465 302.097 407.736C302.105 407.999 301.89 408.222 301.643 408.269C301.81 408.429 301.978 408.588 302.137 408.747C302.543 409.153 302.137 409.743 301.635 409.679C304.366 411.096 307.281 412.147 310.29 412.784C311.636 413.15 312.854 413.039 313.905 412.593C316.047 413.74 318.229 414.823 320.459 415.802C321.661 416.328 322.903 416.789 324.113 417.307C325.738 418.756 327.633 420.388 329.679 421.662C329.775 421.806 329.878 421.941 329.974 422.092C330.682 423.279 331.311 424.76 332.777 424.935C332.8 424.935 332.816 424.927 332.84 424.919C333.175 426.862 334.138 428.821 335.922 429.283C336.487 430.039 337.116 430.74 337.825 431.345C338.08 431.225 338.35 431.17 338.613 431.066C338.772 431.002 338.9 430.907 339.059 430.835C339.258 430.748 339.441 430.652 339.624 430.549C339.632 430.549 339.632 430.541 339.64 430.541C339.823 430.437 339.999 430.318 340.174 430.19C340.452 429.991 340.803 429.84 341.137 429.712C341.281 429.625 341.424 429.545 341.575 429.474C341.878 429.338 342.284 429.227 342.642 429.251C342.921 429.131 343.215 429.06 343.518 429.06C343.637 429.06 343.765 429.115 343.868 429.203C344.163 429.036 344.466 428.948 344.792 428.908C345.23 427.825 345.501 426.711 345.636 425.572C348.033 423.772 349.386 421.049 349.976 417.96C350.414 417.689 350.828 417.379 351.218 417.012C354.331 414.568 356.513 411.184 358.432 407.736C358.79 407.425 359.124 407.083 359.443 406.717C361.824 407.059 364.061 406.311 364.857 403.373C365.502 401.103 365.455 398.643 364.778 396.381C365.088 395.521 365.375 394.662 365.63 393.794C365.749 393.188 365.901 391.381 364.945 391.58Z" fill="#F7C66B"/>
<path d="M304.207 494.559C304.239 494.495 304.287 494.448 304.319 494.392C304.04 494.273 303.873 493.938 304.048 493.612C304.319 493.118 304.725 492.863 305.067 492.449C305.433 492.003 305.792 491.549 306.198 491.127C306.636 490.673 306.938 490.14 307.36 489.67C307.782 489.2 308.244 488.763 308.682 488.317C309.606 487.361 310.521 486.382 311.493 485.482C311.971 485.036 312.496 484.67 313.022 484.288C313.045 484.272 313.077 484.248 313.101 484.232C313.332 482.002 312.822 479.669 311.596 477.878C310.864 476.715 308.881 476.851 306.445 477.631C306.166 476.405 305.601 475.29 304.605 474.502C303.068 473.873 302.272 473.992 299.804 472.208C299.668 472.105 299.517 472.009 299.374 471.922C299.039 471.563 298.681 471.213 298.291 470.903C297.726 470.727 297.24 470.759 296.826 470.942C294.971 469.7 293.115 468.442 291.244 467.216C288.967 465.743 286.666 464.31 284.293 462.996C282.557 461.411 280.805 459.859 278.99 458.362C274.356 454.412 268.949 451.586 263.654 448.6C263.479 448.464 263.296 448.361 263.113 448.297C261.703 447.493 260.31 446.681 258.932 445.821C258.303 445.303 257.634 444.634 256.838 444.977C256.583 445.072 256.352 445.224 256.137 445.399C254.72 443.575 252.984 442.126 250.842 441.449C250.643 441.155 250.436 440.844 250.213 440.51C249.33 439.236 248.358 438.025 247.379 436.823C246.375 435.82 245.73 434.227 244.369 433.718C243.636 433.511 243.047 433.837 242.585 434.379C242.49 433.184 242.323 431.998 241.901 430.883C241.136 429.474 240.356 429.8 239.751 430.62C239.575 429.529 239.241 428.486 238.532 427.571C237.919 426.719 236.701 426.615 235.841 427.117C234.575 427.993 234.018 429.522 233.564 430.931C233.253 431.894 232.998 432.866 232.799 433.853C231.836 434.41 231.032 435.629 230.347 437.197C228.786 437.954 227.488 439.546 226.66 441.011C223.109 447.381 223.3 455.113 223.842 462.184C223.929 463.505 224.08 464.819 224.256 466.125C223.42 467.248 222.751 468.522 222.146 469.764C220.943 471.285 219.836 473.148 218.921 475.21C218.682 475.083 218.443 474.971 218.188 474.86C216.301 473.944 215.465 476.5 214.629 477.703C209.597 488.476 220.322 503.923 231.287 506.049C232.146 506.081 232.935 505.914 233.699 505.635C237.25 509.959 241.861 513.414 246.893 515.11C247.586 515.333 248.382 515.54 249.218 515.692C250.874 517.794 252.841 519.649 255.047 521.178C256.13 521.879 257.268 522.484 258.431 523.041C258.248 524.259 257.953 525.796 258.271 529.164C258.542 530.526 258.861 532.039 259.768 533.106C259.928 533.066 260.087 533.034 260.246 533.002C261.401 532.779 262.436 532.333 263.503 531.871C264.044 531.633 264.546 531.314 265.095 531.091C265.334 530.996 265.573 530.868 265.82 530.789C266.091 530.693 266.425 530.741 266.712 530.741C267.142 530.741 267.564 530.725 267.986 530.765C268.073 530.741 268.153 530.717 268.232 530.701C269.053 529.387 269.729 528.018 270.287 526.6C270.51 526.56 270.741 526.521 270.964 526.457C271.704 526.385 272.453 526.298 272.914 525.629C273.695 524.649 274.053 523.431 274.204 522.189C275.208 521.433 276.147 520.581 277.031 519.673C277.373 519.466 277.708 519.259 278.034 519.044C282.047 516.599 285.416 513.263 288.457 509.72C291.204 506.495 294.023 503.167 295.846 499.305C296.213 498.509 296.555 497.314 296.778 495.992C297.248 496.144 297.734 496.255 298.203 496.343C300.385 496.51 302.336 495.889 304.127 494.862C304.143 494.766 304.151 494.663 304.207 494.559ZM254.943 494.089C255.086 494.121 255.238 494.153 255.381 494.193C255.851 494.75 256.313 495.324 256.751 495.905C256.806 496.136 256.862 496.367 256.926 496.598C256.281 495.754 255.62 494.918 254.943 494.089Z" fill="#F7C66B"/>
<path d="M187.748 514.036C187.222 511.806 186.418 510.93 185.502 510.874C185.606 510.078 185.622 509.266 185.478 508.446C185.247 507.228 184.977 505.858 183.965 505.054C182.254 503.541 181.035 506.185 180.39 507.482C180.351 507.554 180.311 507.626 180.271 507.697C179.698 507.745 179.148 508.072 178.885 508.701C177.89 510.373 177.58 512.363 176.974 514.219C175.915 516.146 175.151 518.216 174.363 520.278C173.32 522.07 172.253 523.845 171.218 525.637C170.413 525.828 169.768 526.322 169.163 526.895C167.985 527.906 166.926 529.029 166.002 530.279C165.094 531.505 164.25 532.771 163.43 534.053C162.252 535.463 161.137 536.936 160.07 538.425C155.293 545.639 150.061 553.315 149.201 562.137C149.169 562.463 149.145 562.79 149.138 563.132C147.903 567.129 149.448 572.624 152.625 571.62C153.198 571.995 153.915 572.066 154.767 571.636C155.165 571.405 155.523 571.127 155.866 570.832C155.882 570.848 155.89 570.864 155.906 570.88C156.662 571.429 157.227 571.174 157.681 570.553C158.191 570.521 158.7 570.267 159.067 569.837C159.146 569.741 159.21 569.638 159.282 569.534C159.242 569.59 159.226 569.622 159.25 569.598C159.298 569.542 159.322 569.51 159.361 569.47C159.521 569.375 159.688 569.303 159.863 569.24C159.871 569.24 159.871 569.24 159.879 569.232C164.218 568.754 166.766 560.186 168.136 556.595C169.697 552.009 170.023 551.372 172.205 545.575C172.062 545.949 171.918 546.323 171.775 546.698C171.918 546.316 172.069 545.941 172.213 545.559C172.778 544.444 173.343 543.33 173.925 542.215C174.625 540.845 175.366 539.492 176.138 538.154C177.118 536.76 177.842 535.216 177.97 533.512C178.121 533.209 178.264 532.915 178.4 532.612C178.726 532.389 178.997 532.071 179.204 531.704C179.331 531.513 179.451 531.314 179.57 531.123C179.674 530.964 179.777 530.805 179.873 530.637C180.287 529.961 180.685 529.284 181.091 528.599C181.664 527.667 182.214 526.712 182.715 525.74C183.981 524.419 185.239 523.089 186.354 521.64C187.955 519.506 188.297 516.599 187.748 514.036Z" fill="#A37421"/>
<path d="M255.891 561.006C256.751 559.342 257.005 557.399 256.759 555.528C256.647 553.991 255.27 550.751 253.414 552.303C252.618 552.948 252.268 554.031 251.695 554.867C251.647 554.955 251.607 555.042 251.559 555.13C250.516 553.84 249.091 554.389 248.199 555.855C246.758 557.582 245.563 559.501 244.417 561.436C242.506 563.889 240.778 566.5 239.01 569.04C236.486 572.799 234.488 576.891 232.951 581.151C231.955 583.898 231.175 586.733 230.65 589.608C229.734 592.466 230.22 600.373 234.647 598.772C236.295 597.737 237.067 595.898 237.943 594.234C238.755 594.242 239.568 593.788 240.38 592.992C240.682 593.223 241.025 593.414 241.431 593.533C243.246 593.326 243.636 591.113 244.496 589.815C244.512 589.783 244.536 589.743 244.552 589.703C245.818 588.079 246.535 586.009 247.379 584.161C248.541 581.295 249.505 578.357 250.436 575.41C251.185 573.197 251.615 571.692 251.989 570.458C252.021 570.45 252.045 570.45 252.077 570.45C253.637 569.789 253.94 567.488 254.402 566.023C254.418 565.975 254.426 565.927 254.442 565.879C254.792 565.059 255.206 564.096 255.652 562.949C255.779 562.44 255.875 561.747 255.891 561.006Z" fill="#A37421"/>
<path d="M305.656 430.509C305.903 430.899 305.792 431.225 305.553 431.472C305.529 431.361 305.497 431.241 305.473 431.13C305.481 430.302 305.402 429.481 305.266 428.677C305.043 427.14 304.693 425.572 303.753 424.298C302.663 422.912 301.118 421.726 299.374 421.352C298.745 421.344 298.212 421.638 297.79 422.076C297.742 422.092 297.686 422.108 297.638 422.132C295.719 419.759 293.466 420.261 292.431 423.183C291.555 425.508 291.515 428.16 292.24 430.524C292.94 432.85 294.947 434.609 297.232 435.318C298.22 435.621 299.223 435.843 300.242 436.019C300.258 436.035 300.274 436.043 300.29 436.058C301.922 437.563 303.738 436.735 304.661 434.944C304.765 434.737 304.852 434.53 304.932 434.315C305.234 434.386 305.513 434.171 305.664 433.447C305.744 432.945 305.72 432.436 305.649 431.926C305.935 431.464 306.047 430.891 305.656 430.509Z" fill="#C2C2C2"/>
<path d="M310.338 411.606C310.052 411.335 309.701 411.152 309.287 411.152C308.937 409.52 308.149 408.166 306.532 408.508C306.477 408.524 306.429 408.548 306.381 408.564C305.593 408.23 304.597 408.262 303.331 408.843C301.978 409.448 300.879 410.555 299.844 411.598C298.18 413.708 297.861 416.495 298.132 419.083C298.323 421.129 299.063 422.546 300.075 423.414C300.712 424.863 302.01 426.241 303.682 426.241C304.366 426.161 304.916 425.811 305.378 425.341C306.994 425.524 308.531 423.454 309.59 421.535C310.649 420.691 311.039 419.011 311.397 417.777C312.337 414.456 311.588 411.94 310.338 411.606Z" fill="#F9691A"/>
<path d="M306.54 414.751C306.421 414.584 306.269 414.448 306.078 414.376C305.736 414.392 305.553 414.727 305.386 414.982C305.242 415.292 305.139 415.611 305.035 415.937C304.406 416.845 303.976 417.936 303.57 418.931C303.514 419.226 302.678 420.659 302.726 422.283C302.798 424.752 304.239 425.508 305.29 422.968C306.253 422.212 307.105 419.281 307.464 418.605C307.894 417.665 307.83 414.806 306.54 414.751Z" fill="#F2EF31"/>
<path d="M308.403 406.637C308.093 406.565 307.798 406.932 307.543 407.075C307.153 407.409 306.779 407.76 306.397 408.102C306.182 407.672 305.879 407.33 305.449 407.139C305.274 407.059 305.091 407.075 304.916 407.187C303.905 407.919 303.084 408.883 302.44 409.95C302.408 410.013 302.368 410.069 302.328 410.133C301.938 410.125 301.532 410.395 301.197 411.072C300.959 411.518 300.704 411.964 300.457 412.402C299.398 414.194 298.164 415.929 297.766 417.984C297.344 421.033 299.255 424.831 301.285 420.229C302.105 418.708 302.997 417.219 303.793 415.683C303.976 415.3 304.136 414.958 304.295 414.639C304.908 414.034 305.489 413.23 305.816 412.864C306.309 412.306 306.644 411.335 306.731 410.348C306.899 410.101 307.074 409.854 307.241 409.607C307.615 409.161 307.981 408.707 308.308 408.23C308.372 408.158 308.427 408.078 308.491 408.007C308.491 407.999 308.483 407.991 308.483 407.975C308.523 407.919 308.563 407.863 308.595 407.808C308.738 407.449 308.738 406.908 308.403 406.637Z" fill="#FC2912"/>
<path d="M313.388 415.483C313.364 415.037 313.284 414.647 313.165 414.305C313.165 414.074 313.125 413.851 313.006 413.66C312.886 413.517 312.791 413.477 312.695 413.501C312.48 413.286 312.225 413.19 311.955 413.246C311.636 413.063 311.262 413.079 310.872 413.485C309.948 414.751 309.789 416.439 309.359 417.92C309.327 418.087 309.247 418.406 309.144 418.78C308.077 421.384 307.352 424.162 309.192 425.946C310.824 426.583 311.341 423.398 311.7 421.798C312.456 419.727 313.372 417.673 313.388 415.483Z" fill="#FC2912"/>
<path d="M563.928 149.448C562.575 149.026 561.109 149.321 559.716 149.225C558.203 149.209 556.714 149.042 555.225 148.819C554.994 148.7 554.755 148.588 554.509 148.477C554.302 147.951 554.031 147.45 553.688 146.988C553.059 146.088 551.961 146.224 551.005 146.279H550.997C548.72 144.942 546.243 143.962 543.632 143.461C541.49 142.943 539.252 143.07 537.102 142.664C536.776 142.529 536.179 142.29 535.868 142.147C534.021 141.311 532.007 140.761 529.976 140.658C527.587 140.721 525.199 140.881 522.81 140.928C519.72 141.215 516.687 141.908 513.629 142.386C508.82 143.094 504.162 144.193 499.551 145.579C498.102 145.754 496.653 145.961 495.22 146.2C492.449 146.51 489.742 147.203 486.987 147.561C485.736 147.744 484.454 147.346 483.228 147.657C480.171 148.421 478.172 149.321 476.643 149.528C473.323 150.404 470.249 151.996 467.064 153.246C465.185 154.186 463.449 155.38 461.642 156.447C458.767 158.008 455.789 159.433 453.194 161.44C448.862 164.704 444.22 167.499 439.928 170.812C438.925 171.624 437.707 172.11 436.703 172.914C434.92 174.427 433.025 175.772 431.146 177.158C427.292 180.335 426.591 180.948 423.072 183.942C421.137 185.558 418.963 186.92 417.323 188.871C414.703 191.363 412.243 194.014 410.069 196.913C407.959 200.114 408.723 199.246 406.971 201.603C404.718 204.644 402.441 207.662 400.243 210.736C397.209 214.422 394.096 218.069 391.516 222.09C390.895 223.07 390.393 224.137 390.067 225.243C389.924 225.395 389.78 225.538 389.637 225.689C389.279 226.111 388.976 226.573 388.697 227.051C388.658 227.115 388.618 227.178 388.578 227.25C388.562 227.282 388.546 227.306 388.53 227.33C388.53 227.33 388.53 227.338 388.538 227.338C388.427 227.552 388.323 227.783 388.244 228.014C386.834 229.567 385.433 231.128 384.047 232.696C380.966 236.287 378.083 240.101 375.926 244.306C373.855 246.846 371.833 249.433 369.874 252.077C369.794 252.18 369.723 252.284 369.627 252.38C369.635 252.388 369.635 252.403 369.643 252.411C369.452 252.666 369.261 252.929 369.086 253.192C368.178 255.302 367.947 257.858 368.696 260.071C366.235 263.352 363.854 266.688 361.641 270.144C355.438 279.842 352.126 288.418 348.646 297.288C347.133 300.123 345.62 302.949 344.107 305.776C342.165 309.495 340.222 313.317 338.295 317.067C335.15 322.856 332.028 328.66 328.708 334.354C326.996 337.292 327.88 335.787 326.096 338.597C325.085 340.11 324.583 341.918 324.615 343.725C324.591 344.036 324.599 344.402 324.647 344.792C323.397 347.898 321.709 350.971 322.338 354.435C322.346 354.475 322.354 354.515 322.362 354.554C322.187 354.952 322.004 355.343 321.836 355.741C320.642 358.496 320.57 362.023 322.37 364.523C323.078 365.487 324.591 365.566 325.3 364.547C326.08 363.44 326.765 362.262 327.418 361.06C327.617 362.533 328.159 363.926 329.345 364.85C329.711 365.081 330.078 365.113 330.452 364.945C330.468 364.937 330.476 364.929 330.492 364.922C330.914 365.121 331.399 365.16 331.933 364.922C333.573 363.767 333.812 361.537 334.521 359.77C334.887 361.999 335.946 364.046 337.952 363.329C338.287 363.042 338.597 362.7 338.892 362.342C339.147 362.358 339.41 362.318 339.704 362.19C340.485 361.744 340.827 360.924 341.281 360.192C342.181 358.806 342.913 357.333 343.606 355.836C346.138 350.135 348.758 344.474 351.56 338.908C351.672 338.653 351.799 338.398 351.911 338.144C352.014 340.596 352.986 343.558 355 343.152C356.147 342.778 356.76 341.48 357.612 340.676C362.748 334.067 366.41 326.463 370.455 319.169C371.944 316.438 373.417 313.699 374.882 310.96C374.978 310.999 375.074 311.039 375.177 311.063C376.523 310.968 377.048 309.455 377.876 308.587C379.246 306.867 380.552 305.099 381.77 303.268C384.047 299.86 386.388 296.5 388.769 293.171C388.92 293.267 389.08 293.347 389.263 293.394C389.82 293.315 390.21 292.925 390.433 292.423C391.5 290.711 392.535 288.991 393.459 287.208C393.793 286.563 394.152 285.926 394.494 285.281C397.735 280.885 401.007 276.514 404.264 272.127C410.435 264.833 416.598 257.531 422.769 250.238C435.167 237.052 447.596 223.834 461.14 211.803C462.868 210.33 463.314 209.963 463.784 209.629C464.381 209.143 465.145 208.801 465.48 208.084C465.83 207.527 466.093 206.85 466.284 206.125C470.99 202.614 475.704 199.11 480.386 195.559C487.799 190.057 495.1 184.372 502.617 179.005C504.679 178.05 506.773 177.15 508.899 176.338C509.258 176.21 509.616 176.067 509.974 175.94C510.269 176.465 510.643 176.935 511.153 177.309C511.838 177.747 512.546 177.365 513.191 177.054C514.983 176.21 516.742 175.318 518.518 174.443C524.514 171.274 535.526 166.369 539.276 165.564C543.839 164.251 548.688 164.553 553.179 162.913C554.27 162.539 555.408 162.156 556.26 161.36C556.308 161.36 556.356 161.352 556.404 161.352C558.983 161.432 561.516 160.986 563.952 160.134C565.6 158.948 565.943 156.702 565.982 154.799C565.903 152.888 565.632 150.595 563.928 149.448Z" fill="#ECF03D"/>
<path d="M589.942 159.648C589.504 158.087 588.421 155.731 586.438 156.2C585.873 156.36 585.347 156.583 584.862 156.829C584.694 156.829 584.519 156.845 584.344 156.877C583.906 155.826 583.269 154.903 582.194 154.441C581.422 154.114 580.729 154.17 580.1 154.496C579.009 154.066 577.807 154.25 576.668 154.879C576.62 154.703 576.557 154.536 576.429 154.401C575.928 154.202 575.275 154.608 574.733 154.632C574.168 154.735 573.595 154.847 573.013 154.934C572.91 154.074 572.703 153.23 572.416 152.434C572.05 151.311 571.389 150.006 570.099 149.918C565.943 150.356 562.391 152.593 558.792 154.584C556.841 154.791 554.875 155.253 553.091 156.001C550.177 156.423 547.255 156.973 544.476 157.936C544.428 157.96 544.38 157.992 544.324 158.016C544.165 157.976 544.006 157.952 543.839 157.936C541.458 157.275 539.085 158.454 536.864 159.218C536.147 159.465 535.438 159.752 534.746 160.054C531.433 161.113 527.993 162.562 524.633 164.513C520.636 164.816 513.374 169.872 511.256 171.178C499.631 178.901 487.99 186.601 476.468 194.476C475.52 195.28 474.167 195.734 473.506 196.817C473.307 197.279 473.179 197.796 473.14 198.314C467.654 201.786 462.398 205.6 457.589 209.979C453.95 212.989 450.765 216.445 447.97 220.251C445.852 222.982 443.726 225.705 441.552 228.396C441.003 229.097 440.39 229.782 439.84 230.491C435.875 233.946 431.95 237.434 428.191 241.105C423.796 245.564 419.759 250.349 416.025 255.365C412.864 258.773 409.71 262.173 406.549 265.581C403.332 269.379 399.606 272.978 397.233 277.366C397.106 277.708 397.002 278.074 396.915 278.449C391.643 284.094 386.579 289.931 382.073 296.221C377.566 302.089 372.979 310.458 369.5 316.135C369.333 316.39 369.157 316.645 368.99 316.9C368.258 317.059 367.804 317.72 367.278 318.245C366.426 319.177 365.614 320.148 364.818 321.128C360.637 325.794 356.107 330.316 352.826 335.667C351.146 337.69 349.554 339.784 348.168 342.037C345.931 345.525 343.916 349.363 343.255 353.495C343.104 353.75 342.969 354.013 342.825 354.276C341.902 354.825 341.082 355.796 340.476 356.927C340.238 357.373 340.031 357.835 339.831 358.297C339.338 358.289 338.868 358.416 338.494 358.79C337.65 359.451 337.068 360.709 336.742 362.238C336.702 362.334 336.662 362.429 336.623 362.525C336.463 362.883 336.336 363.273 336.24 363.679C336.224 363.727 336.216 363.775 336.201 363.823C336.193 363.87 336.177 363.918 336.169 363.974C336.145 364.085 336.113 364.205 336.089 364.324C335.89 364.921 335.755 365.542 335.683 366.108C335.261 369.134 336.201 372.112 338.016 374.532C340.277 377.335 343.789 378.521 347.284 379.182C348.184 379.939 349.132 380.663 350.135 381.316C350.422 381.778 350.732 382.232 351.067 382.662C351.441 383.227 351.966 383.657 352.667 383.689C352.986 383.625 353.272 383.514 353.551 383.363C354.228 384.23 355 385.019 356.091 385.226C356.29 385.194 356.473 385.138 356.648 385.067C357.644 387.161 359.069 389.016 361.131 390.322C362.708 391.15 364.547 391.484 366.355 391.365C366.952 391.54 367.565 391.683 368.186 391.652C369.293 391.516 370.376 391.182 371.443 390.847C373.274 390.011 374.89 388.562 376.14 386.978C376.148 386.978 376.156 386.97 376.172 386.97C376.499 387.049 376.825 387.121 377.16 387.177H377.168C378.091 387.965 379.174 388.482 380.44 388.626C380.759 388.435 381.157 388.371 381.507 388.275C381.858 388.18 382.152 388.029 382.518 388.029H382.781C384.159 387.328 385.305 386.157 386.436 385.074C388.188 383.044 389.852 380.926 391.532 378.832C393.992 377.152 396.166 375.09 398.069 372.804C398.332 372.884 398.595 372.971 398.873 373.019C401.206 373.895 403.595 373.521 405.896 372.749C407.481 372.263 408.994 371.586 410.483 370.885C413.493 370.455 416.271 369.181 418.835 367.509C420.054 367.087 421.264 366.665 422.474 366.219C426.623 364.635 429.768 361.275 432.762 358.113C435.995 354.347 438.917 350.326 442.006 346.44C442.619 345.915 443.225 345.397 443.822 344.856C445.311 343.462 446.847 342.101 448.249 340.62C449.212 339.37 449.937 338 450.502 336.559C456.291 334.043 462.366 328.421 467.016 323.445C470.584 326.685 475.696 327.131 481.636 323.564C483.961 322.011 486.079 320.236 488.069 318.325C491.708 319.734 496.502 319.4 502.561 316.549C510.969 312.265 517.268 304.86 523.033 297.575C524.044 296.245 525.023 294.899 525.995 293.546C528.543 292.924 530.597 291.213 532.651 289.66C537.357 286.26 541.012 281.689 544.062 276.792C544.874 275.574 545.646 274.332 546.395 273.082C550.766 270.669 554.174 266.481 557.351 262.699C561.699 257.404 565.584 251.687 568.698 245.579C569.295 244.775 569.876 243.971 570.457 243.159C572.528 240.38 574.439 237.498 576.286 234.567C581.549 225.84 585.331 216.118 587.083 206.07C587.672 201.483 587.879 196.833 587.505 192.223C587.37 189.523 587.155 186.784 586.47 184.165C586.43 181.999 586.231 179.809 585.785 177.707C586.995 176.401 587.847 174.689 588.445 173.065C589.113 171.504 589.504 169.713 589.488 167.953C590.38 165.23 590.634 162.324 589.942 159.648Z" fill="#4553A6"/>
<path d="M607.889 182.82C607.897 182.796 607.897 182.772 607.905 182.755C607.897 182.78 607.889 182.796 607.889 182.82Z" fill="#FF2A0C"/>
<path d="M616.313 203.641C615.756 200.918 615.262 197.98 614.402 195.209C614.514 194.086 614.53 192.963 614.347 191.848C614.156 190.383 612.969 188.878 611.878 189.707C611.687 189.42 611.48 189.133 611.265 188.863C611.273 188.449 611.289 188.042 611.297 187.628C611.464 185.908 611.799 184.173 611.305 182.493C611.074 181.306 609.721 179.738 608.646 181.099C608.327 181.37 608.04 182.222 607.881 182.819C607.841 183.018 607.794 183.217 607.754 183.424V183.432C607.722 183.583 607.69 183.727 607.658 183.878C607.563 182.954 607.467 182.023 607.388 181.099C607.157 179.18 607.316 177.158 606.504 175.366C605.174 173.272 604.091 174.347 603.303 176.131C602.952 175.589 602.53 175.103 601.981 174.737C601.925 174.713 601.885 174.721 601.83 174.705C602.467 172.476 602.992 170.23 602.204 168.017C601.965 167.173 601.105 166.114 600.158 166.623C599.162 167.292 598.987 168.51 598.637 169.569C598.446 170.175 598.255 170.772 598.071 171.377C598.063 169.673 597.864 167.993 597.1 166.448C596.813 166.018 596.559 165.437 595.985 165.381C595.555 165.19 595.014 165.477 594.751 165.843C594.146 166.544 593.62 167.3 593.127 168.08C593.159 167.244 593.087 166.408 592.848 165.564C592.553 164.68 592.06 163.637 591.033 163.526C589.926 163.598 589.392 164.736 589.002 165.636C588.835 166.01 588.684 166.384 588.532 166.767C588.166 167.117 587.792 167.579 587.418 168.2C585.475 171.504 584.71 175.358 583.404 178.941C582.075 183.376 580.18 187.668 579.192 192.191C579.121 192.923 579.065 193.759 579.121 194.572C578.221 194.858 577.21 195.599 576.087 196.698C572.018 201.826 570.099 208.299 567.838 214.358C566.635 217.942 565.29 221.652 564.286 225.848C561.985 229.352 559.541 232.951 558.163 236.876C558.044 237.203 557.964 237.673 557.932 238.206C557.208 238.971 556.483 239.735 555.759 240.499C547.884 248.86 540.526 257.698 533.671 266.911C532.086 268.854 530.494 270.797 528.941 272.763C524.052 276.984 519.267 281.323 514.537 285.718C508.637 290.44 502.935 295.417 497.362 300.529C497.346 300.545 497.33 300.561 497.314 300.576C494.002 302.822 490.625 305.497 488.842 307.018C487.52 308.117 486.262 309.279 485.028 310.474C484.948 310.402 484.877 310.331 484.781 310.267C483.714 309.773 482.838 311.015 482.042 311.565C480.863 312.632 479.645 313.651 478.499 314.758C475.775 316.175 473.61 318.58 471.356 320.626C471.117 320.889 470.87 321.16 470.624 321.422C464.771 325.411 458.959 329.472 453.265 333.692C452.047 334.616 450.845 335.564 449.642 336.511C447.851 337.594 446.075 338.709 444.316 339.84C436.64 343.709 429.577 348.734 422.363 353.384C418.461 355.932 414.289 358.018 410.244 360.335C409.233 360.733 408.564 361.513 408.174 362.453C407.799 362.628 407.417 362.803 407.043 362.979C403.197 365.112 399.327 367.199 395.474 369.309C394.112 369.93 392.774 370.607 391.46 371.323C391.245 371.482 391.023 371.634 390.808 371.793C386.699 373.632 382.59 375.488 378.498 377.367C376.268 378.195 374.046 379.031 371.889 380.018C370.941 380.552 369.635 380.663 369.054 381.659C368.958 381.802 368.871 381.961 368.799 382.12C368.409 382.343 368.027 382.558 367.645 382.789C366.227 383.785 364.547 384.788 363.87 386.428C363.154 388.371 363.202 391.126 364.882 392.527C365.328 392.798 365.789 392.623 366.195 392.376C367.031 392.002 367.915 391.723 368.791 391.444C369.81 391.11 370.822 390.752 371.841 390.401C371.992 390.656 372.167 390.895 372.382 391.094C372.573 391.317 372.828 391.429 373.131 391.429C373.935 391.429 374.731 391.429 375.527 391.381C375.504 391.166 375.583 390.919 375.79 390.823C376.18 390.648 376.571 390.545 376.977 390.433C377.335 390.338 377.502 390.139 377.797 389.948C378.06 389.78 378.346 389.756 378.609 389.685C378.848 389.613 379.182 389.438 379.437 389.311C379.787 389.135 380.058 388.881 380.385 388.674C380.711 388.467 381.125 388.403 381.491 388.307C381.842 388.212 382.136 388.06 382.503 388.06H383.371C383.426 388.06 383.482 388.068 383.53 388.084C383.657 388.045 383.793 387.997 383.92 387.957C384.008 387.933 384.103 387.893 384.191 387.869C384.254 387.837 384.326 387.814 384.398 387.798C384.724 387.686 385.043 387.567 385.369 387.447C385.823 387.28 386.333 387.169 386.771 386.97C387.408 386.683 388.084 386.221 388.809 386.436C390.433 385.688 392.082 384.971 393.778 384.43C393.993 384.302 394.215 384.167 394.43 384.039C395.163 383.609 395.911 383.251 396.708 382.956C397.536 382.654 398.396 382.495 399.24 382.248C399.654 382.128 400.084 381.985 400.458 381.762C400.8 381.555 401.071 381.404 401.477 381.356C401.589 381.34 401.684 381.332 401.78 381.324C406.653 378.824 411.462 376.188 416.248 373.513C416.359 373.632 416.471 373.752 416.598 373.855C417.267 374.238 417.952 373.664 418.613 373.529C421.487 372.549 424.33 371.475 427.156 370.368C427.746 370.774 428.558 370.511 429.243 370.36C430.413 370.057 431.576 369.731 432.706 369.309C436.648 367.955 440.342 366.02 444.093 364.213C449.404 362.437 454.738 360.725 460.018 358.862C465.822 356.609 471.579 354.244 477.32 351.839C480.457 350.884 483.595 349.936 486.732 348.996C490.235 347.898 493.802 346.95 497.322 345.859C497.577 345.939 497.839 346.01 498.11 346.066C498.676 346.098 499.225 346.058 499.758 345.971C499.894 345.867 500.037 345.764 500.188 345.692C501.311 345.151 502.545 344.545 503.811 344.362C504.767 343.781 505.675 343.112 506.527 342.443C506.574 342.411 506.622 342.372 506.67 342.34C506.901 342.228 507.132 342.133 507.363 342.021C507.386 342.013 507.402 341.997 507.426 341.989C507.57 342.308 507.761 342.603 508.008 342.825C508.286 342.69 508.565 342.555 508.844 342.435C510.508 341.703 512.076 340.827 513.804 340.246C514.035 340.166 514.242 340.262 514.362 340.429C515.532 339.76 516.687 339.067 517.833 338.359C519.107 337.881 520.381 337.379 521.671 336.925C524.848 335.548 528.025 334.178 531.21 332.825C531.648 332.498 532.166 332.267 532.644 331.996C533.718 331.383 534.809 330.826 535.916 330.277C536.975 329.743 538.034 329.273 539.141 328.843C540.144 328.238 541.171 327.665 542.183 327.068C543.226 326.455 544.301 325.897 545.431 325.467C545.599 325.388 545.766 325.308 545.941 325.268C546.029 325.236 546.1 325.236 546.18 325.252C546.188 325.252 546.188 325.252 546.196 325.252C546.307 325.173 546.427 325.101 546.562 325.045C546.658 325.013 546.745 324.966 546.841 324.926C547 324.145 547 323.301 546.873 322.497C548.449 322.123 550.026 321.741 551.594 321.335C552.152 321.191 552.709 321.04 553.266 320.889C554.883 319.782 556.396 318.58 558.219 317.967C558.346 317.624 558.442 317.266 558.514 316.9C558.792 316.955 559.103 316.947 559.453 316.836C562.431 314.941 564.748 312.098 567.057 309.455C568.634 307.623 570.242 305.816 571.867 304.032C572.99 304.797 574.662 304.526 576.764 302.36C580.976 297.829 584.583 292.797 588.158 287.741C588.946 286.984 589.743 286.228 590.515 285.448C591.566 284.492 592.498 283.425 592.872 282.024C592.959 281.634 593.015 281.259 593.063 280.885C593.525 280.256 593.987 279.619 594.456 278.998C595.157 278.059 595.77 277.063 596.407 276.084C596.367 276.179 597.108 275.096 597.164 274.595C597.275 274.189 597.339 273.783 597.379 273.361C599.592 270.685 601.83 268.018 604.091 265.39C604.688 264.443 604.999 263.415 605.11 262.396C605.779 261.481 606.177 260.43 606.392 259.331C607.483 258.104 608.455 255.7 608.757 254.02C609.115 252.093 609.291 250.556 609.394 249.202C611.432 243.653 613.527 238.103 613.941 232.155C614.052 230.562 613.885 228.842 612.993 227.489C613.12 227.154 613.256 226.796 613.383 226.422C614.458 225.633 615.342 223.89 615.772 222.958C616.162 222.034 616.449 221.087 616.664 220.123C617.261 218.523 617.54 216.803 617.58 215.099C617.659 211.213 616.927 207.423 616.313 203.641ZM573.467 211.818C573.324 212.097 573.189 212.368 573.045 212.647C572.655 213.355 572.281 214.072 571.891 214.78C572.432 213.299 572.99 211.874 573.69 210.274C573.603 210.791 573.531 211.301 573.467 211.818Z" fill="#FF2A0C"/>
<path d="M607.89 182.819C607.706 183.481 607.674 183.84 607.89 182.819V182.819Z" fill="#FF2A0C"/>
<path d="M506.32 342.324C464.421 358.145 421.734 371.801 379.668 387.185C379.182 387.36 377.08 388.18 377.072 388.18C378.426 388.14 380.44 386.986 381.683 386.532C424.847 370.75 468.625 356.688 511.631 340.453C512.841 339.991 512.833 339.991 511.615 340.397C509.831 340.994 508.071 341.655 506.32 342.324Z" fill="black"/>
<path d="M529.912 331.798C523.622 335.237 517.101 338.176 510.412 340.755C509.003 341.305 511.646 340.365 511.774 340.317C513.486 339.712 515.198 339.099 516.886 338.438C523.916 335.723 530.78 332.689 537.397 329.066C535.104 330.332 532.221 330.539 529.912 331.798Z" fill="black"/>
<path d="M538.87 327.187C537.262 328.063 535.637 328.915 534.013 329.751C535.152 329.17 536.561 328.867 537.771 328.429C538.997 327.983 540.335 327.625 541.498 327.028C543.13 326.192 544.746 325.34 546.355 324.464C546.06 324.623 545.543 324.735 545.248 324.838C544.364 325.149 543.48 325.467 542.597 325.794C541.378 326.232 540.017 326.566 538.87 327.187Z" fill="black"/>
<path d="M321.008 358.273C336.304 323.254 351.552 288.052 371.068 255.127C390.338 222.624 414.329 190.869 444.857 168.104C460.909 156.129 478.793 148.071 498.636 145.037C516.854 142.25 535.59 143.269 553.394 148.039C557.319 149.09 561.197 150.205 564.677 152.132C566.516 153.151 568.809 153.398 570.808 154.186C573.045 155.07 575.219 157.132 577.44 157.777C579.144 158.271 580.323 158.406 581.963 159.298C583.994 160.405 585.96 161.615 587.863 162.929C591.303 165.31 594.512 168.017 597.41 171.027C610.246 184.348 614.434 201.3 613.224 219.391C610.119 265.749 580.785 306.118 539.658 326.741C542.007 325.563 544.778 325.205 547.143 324.018C565.513 314.813 581.557 301.452 594.496 285.527C608.048 268.846 616.258 247.913 619.57 226.812C622.58 207.614 621.115 188.202 608.622 172.54C603.159 165.692 596.184 160.062 588.421 156.017C586.565 155.054 584.909 155.014 583.11 153.923C581.151 152.737 579.176 151.718 577.003 150.977C575.8 150.563 574.168 150.467 573.053 149.918C572.321 149.56 571.938 149.002 571.262 148.572C569.438 147.434 566.588 146.948 564.557 146.343C528.893 135.705 491.023 141.414 458.106 157.992C440.087 167.069 424.783 180.279 410.833 194.715C396.994 209.032 384.74 224.813 373.807 241.447C349.211 278.855 331.375 320.101 313.515 360.996C313.714 360.542 316.74 359.865 317.274 359.674C317.903 359.451 320.737 358.902 321.008 358.273Z" fill="black"/>
<path d="M315.992 361.864C333.453 373.537 350.915 385.21 368.377 396.891C369.723 397.791 374.596 393.324 375.862 394.168C358.4 382.495 340.938 370.822 323.476 359.141C322.131 358.249 317.25 362.716 315.992 361.864Z" fill="black"/>
<path d="M376.244 389.78C374.222 390.529 372.191 391.269 370.169 392.026C369.651 392.217 368.95 392.4 368.457 392.671C368.074 392.886 368.942 392.527 368.847 392.559C370.567 391.978 372.271 391.341 373.967 390.712C375.734 390.059 376.626 389.725 378.259 389.127C378.999 388.857 379.748 388.586 380.488 388.299C380.799 388.18 381.069 388.156 380.854 388.132C380.416 388.076 379.493 388.602 379.126 388.737C378.163 389.08 377.2 389.43 376.244 389.78Z" fill="black"/>
<path d="M395.76 382.749C392.289 383.984 388.825 385.218 385.353 386.46C383.649 387.065 381.913 387.638 380.241 388.339C380.17 388.371 379.509 388.594 379.875 388.506C380.456 388.371 381.038 388.1 381.603 387.901C385.075 386.667 388.538 385.425 392.01 384.191C393.714 383.585 395.45 383.012 397.122 382.312C397.193 382.28 397.854 382.057 397.488 382.144C396.899 382.28 396.318 382.55 395.76 382.749Z" fill="black"/>
<path d="M496.478 346.361C466.547 357.484 436.488 368.274 406.398 378.959C404.63 379.588 402.855 380.201 401.111 380.886C400.036 381.308 399.686 381.452 401.127 380.942C434.251 369.181 467.327 357.293 500.284 345.055C500.443 344.999 503.055 344.147 501.606 344.514C499.87 344.951 498.142 345.74 496.478 346.361Z" fill="black"/>
<path d="M526.21 335.173C521.4 336.997 516.591 338.812 511.782 340.62C510.571 341.074 510.579 341.09 511.798 340.675C513.573 340.078 515.333 339.409 517.085 338.749C522.284 336.79 527.484 334.831 532.683 332.856C534.101 332.323 531.449 333.246 531.322 333.294C529.618 333.907 527.914 334.528 526.21 335.173Z" fill="black"/>
<path d="M345.732 427.316C355.438 416.821 364.762 405.976 374.285 395.314C372.749 397.034 368.377 396.27 366.801 398.038C357.277 408.699 347.961 419.544 338.247 430.039C339.832 428.327 344.115 429.067 345.732 427.316Z" fill="black"/>
<path d="M310.888 363.632C304.422 370.639 298.092 377.781 291.937 385.067C290.48 386.795 289.031 388.522 287.59 390.266C286.61 391.453 283.091 394.606 282.828 396.095C282.143 396.549 282.191 396.851 282.971 396.987C283.584 397.289 284.206 397.6 284.819 397.902C285.639 398.316 286.467 398.738 287.279 399.16C289.349 400.227 291.404 401.326 293.434 402.457C301.038 406.685 308.411 411.351 315.291 416.678C318.771 419.369 322.155 422.212 325.292 425.293C328.031 427.977 330.388 431.042 334.329 431.862C336.567 432.324 339.632 428.685 341.814 429.139C338.056 428.359 335.763 425.548 333.159 422.952C330.085 419.887 326.749 417.052 323.333 414.377C316.294 408.867 308.722 404.065 300.919 399.726C299.087 398.707 297.24 397.719 295.377 396.748C294.517 396.302 290.05 394.773 289.835 393.945C289.644 393.204 294.087 388.714 294.589 388.108C296.022 386.365 297.471 384.629 298.928 382.901C305.234 375.416 311.724 368.083 318.365 360.893C316.788 362.62 312.504 361.88 310.888 363.632Z" fill="black"/>
<path d="M299.151 384.581C309.391 382.734 320.116 378.752 328.923 373.21C326.431 374.118 323.938 375.026 321.438 375.934C322.816 387.392 321.167 398.738 319.4 410.053C319.527 409.217 325.961 407.991 326.884 407.33C336.065 400.721 345.246 394.12 354.427 387.511C351.935 388.419 349.442 389.327 346.942 390.234C349.235 398.483 350.907 406.86 351.958 415.356C351.895 414.822 359.523 413.278 359.443 412.633C358.392 404.137 356.72 395.76 354.427 387.511C354.467 387.646 347.531 389.812 346.942 390.234C337.761 396.843 328.581 403.444 319.4 410.053C321.892 409.145 324.384 408.237 326.884 407.33C328.652 396.015 330.3 384.661 328.923 373.21C328.963 373.521 322.115 375.512 321.438 375.934C318.787 377.598 316.048 378.912 313.261 380.321C311.382 381.117 311.724 381.022 314.288 380.026C313.269 380.353 312.241 380.639 311.206 380.894C309.693 381.276 308.165 381.579 306.628 381.858C304.048 382.32 301.715 384.111 299.151 384.581Z" fill="black"/>
<path d="M340.445 363.671C360.916 327.76 384.748 293.8 411.645 262.404C424.935 246.885 438.957 231.995 453.655 217.806C467.685 204.262 482.304 191.219 498.413 180.167C507.681 173.805 517.443 168.096 527.746 163.566C537.93 159.091 549.046 156.805 560.098 155.858C562.662 155.643 565.043 153.35 567.583 153.135C527.77 156.527 492.178 179.156 462.948 204.971C429.8 234.249 400.028 267.683 373.871 303.315C359.029 323.532 345.389 344.609 332.968 366.394C333.27 365.869 336.105 365.296 336.726 365.073C337.435 364.81 340.054 364.364 340.445 363.671Z" fill="black"/>
<path d="M580.251 171.855C571.628 212.631 550.217 248.303 520.063 276.8C489.447 305.736 455.232 331.917 419.608 354.355C399.415 367.071 378.386 378.458 356.529 388.052C358.265 387.288 361.545 386.412 363.751 385.449C402.082 368.624 437.706 346.329 471.061 321.128C488.077 308.276 504.679 294.764 520.548 280.519C536.346 266.33 550.75 250.811 562.065 232.768C574.303 213.252 582.966 191.657 587.728 169.124C587.457 170.453 580.554 170.429 580.251 171.855Z" fill="black"/>
<path d="M287.399 405.586C282.971 412.641 278.473 419.656 273.886 426.615C271.593 430.094 269.284 433.558 266.951 437.014C264.992 439.92 263.185 443.4 260.732 445.9C263.224 444.992 265.717 444.085 268.217 443.177C267.365 443.408 266.983 443.089 267.548 442.325C265.056 443.233 262.563 444.14 260.063 445.048C260.143 445.104 260.23 445.151 260.31 445.207C261.712 446.099 266.473 441.64 267.795 442.484C267.715 442.428 267.628 442.381 267.548 442.325C267.062 442.014 260.469 444.514 260.063 445.048C259.108 446.322 260.581 445.844 261.25 445.733C262.97 445.43 264.737 444.491 266.37 443.885C270.271 442.428 272.182 437.619 274.428 434.291C281.419 423.931 288.227 413.453 294.875 402.871C294.525 403.428 291.778 403.954 291.117 404.192C290.369 404.463 287.844 404.869 287.399 405.586Z" fill="black"/>
<path d="M320.116 431.4C309.598 440.732 299.071 450.057 288.553 459.389C290.384 457.764 294.174 458.314 296.038 456.665C306.556 447.333 317.083 438.009 327.601 428.677C325.77 430.302 321.98 429.752 320.116 431.4Z" fill="black"/>
<path d="M271.099 528.766C280.272 518.375 290.281 508.788 299.836 498.755C304.454 493.906 308.961 488.953 313.189 483.754C314.368 482.305 315.992 481.182 315.411 479.422C315.116 478.53 314.081 477.694 313.372 477.097C311.159 475.25 308.276 474.302 305.633 473.267C304.996 473.02 302.527 474.35 301.874 474.589C301.221 474.828 298.793 476.237 298.148 475.99C300.648 476.97 303.3 477.87 305.466 479.51C306.31 480.147 307.584 481.094 307.934 482.145C308.515 483.905 306.883 485.036 305.712 486.477C301.484 491.669 296.977 496.629 292.359 501.478C282.804 511.511 272.795 521.098 263.623 531.489C265.135 529.769 269.531 530.534 271.099 528.766Z" fill="black"/>
<path d="M308.762 473.968C284.723 458.776 261.68 442.086 239.385 424.449C239.082 424.21 232.051 426.766 231.9 427.172C231.558 428.104 228.492 434.872 229.965 435.899C231.032 436.64 236.255 434.06 237.386 433.463C240.197 431.982 241.965 426.91 239.385 424.457C239.162 424.242 232.075 426.758 231.9 427.18C227.441 438.288 222.799 449.42 218.786 460.703C216.811 466.26 215.011 471.882 213.108 477.464C212.161 480.235 211.181 482.99 210.162 485.737C209.326 487.99 208.004 490.108 207.192 492.33C206.945 492.712 206.707 493.086 206.46 493.468C207.192 494.018 207.933 494.543 208.689 495.061C209.892 495.889 211.126 496.669 212.368 497.45C214.9 499.042 217.464 500.515 220.092 501.924C224.98 504.544 229.639 507.578 234.106 510.858C243.151 517.491 251.432 525.095 259.824 532.524C260.812 533.4 266.401 528.997 267.309 529.801C258.917 522.372 250.636 514.768 241.59 508.135C237.123 504.855 232.465 501.821 227.576 499.201C224.949 497.792 222.377 496.311 219.853 494.726C218.618 493.954 217.384 493.166 216.174 492.338C215.601 491.955 215.043 491.557 214.486 491.143C213.634 490.801 213.698 490.291 214.677 489.606C215.425 487.409 216.819 485.251 217.647 483.014C218.658 480.266 219.646 477.511 220.593 474.74C222.496 469.159 224.296 463.537 226.27 457.979C230.276 446.697 234.918 435.565 239.385 424.457C236.892 425.365 234.4 426.273 231.9 427.18C234.058 429.235 233.134 434.633 230.403 435.987C232.895 435.079 235.387 434.172 237.888 433.264C236.064 433.646 239.209 424.927 239.385 424.457C236.892 425.365 234.4 426.273 231.9 427.18C254.195 444.817 277.238 461.507 301.277 476.699C302.687 477.583 307.432 473.124 308.762 473.968Z" fill="black"/>
<path d="M289.309 425.444C286.069 428.072 288.306 432.085 291.149 433.94C294.477 436.114 298.554 436.926 300.13 440.987C300.051 440.788 307.321 438.869 307.615 438.264C308.881 435.636 310.155 433.017 311.421 430.389C312.512 428.136 313.659 426.79 311.389 425.182C307.106 422.132 301.381 420.173 296.675 417.816C296.149 417.554 293.49 418.931 292.916 419.138C292.343 419.345 289.716 420.802 289.19 420.54C293.928 422.912 299.557 424.887 303.905 427.905C305.967 429.338 305.242 430.341 304.279 432.396C302.933 435.278 301.508 438.121 300.122 440.987C302.615 440.08 305.107 439.172 307.607 438.264C306.039 434.211 301.962 433.391 298.626 431.217C295.775 429.362 293.545 425.349 296.786 422.721C294.859 424.29 291.276 423.852 289.309 425.444Z" fill="black"/>
<path d="M304.741 414.671C305.728 410.554 308.053 407.043 311.461 404.527C310.561 405.196 308.77 405.466 307.703 405.849C306.572 406.263 304.956 406.525 303.976 407.25C300.569 409.766 298.243 413.278 297.256 417.394C297.336 417.068 300.592 416.224 301.014 416.072C301.492 415.889 304.621 415.165 304.741 414.671Z" fill="black"/>
<path d="M306.19 421.105C308.284 420.476 310.331 419.656 312.377 418.891C313.404 418.509 314.471 418.19 315.323 417.474C316.756 416.272 317.425 414.368 317.067 412.537C317.075 412.577 313.595 413.755 313.309 413.859C313.022 413.962 309.55 415.101 309.582 415.26C310.052 417.601 308.802 419.926 306.652 420.93C306.819 420.858 306.986 420.794 307.154 420.723C307.058 420.762 306.954 420.794 306.859 420.834C309.136 420.006 311.421 419.178 313.699 418.358C313.595 418.39 313.5 418.421 313.396 418.445C311.835 418.915 310.315 419.536 308.786 420.094C308.045 420.364 307.297 420.635 306.556 420.922C306.493 420.969 305.824 421.216 306.19 421.105Z" fill="black"/>
<path d="M295.329 420.38C294.843 421.543 294.198 423.796 296.054 424.083C296.3 424.123 296.539 424.091 296.778 424.027C298.379 423.589 299.947 422.912 301.5 422.347C302.432 422.005 303.467 421.75 304.335 421.272C304.581 421.137 304.717 420.954 304.781 420.683C304.773 420.715 303.53 421.105 303.674 421.057C302.79 421.368 301.906 421.686 301.022 422.013C300.138 422.331 299.263 422.658 298.379 422.984C298.219 423.04 297.32 423.279 297.296 423.406C297.232 423.685 297.097 423.86 296.85 423.995C296.89 423.979 296.937 423.956 296.977 423.94C296.945 423.956 296.914 423.971 296.874 423.979C299.278 423.104 301.683 422.228 304.088 421.352C304.056 421.36 304.016 421.376 303.984 421.384C304.032 421.368 304.072 421.36 304.12 421.344C303.507 421.471 302.798 421.248 302.479 420.683C301.946 419.743 302.432 418.557 302.806 417.657C302.782 417.713 301.588 418.071 301.699 418.031C300.815 418.342 299.931 418.66 299.048 418.987C298.164 419.305 297.288 419.632 296.404 419.958C296.229 420.022 295.393 420.213 295.329 420.38Z" fill="black"/>
<path d="M226.78 439.785C222.432 441.282 217.567 442.508 214.088 445.677C209.055 450.256 206.507 457.167 203.713 463.195C196.658 478.427 189.595 493.667 182.54 508.9C182.755 508.43 185.749 507.777 186.299 507.578C186.936 507.347 189.73 506.821 190.025 506.176C195.782 493.755 201.539 481.333 207.288 468.912C209.915 463.235 212.392 457.446 215.258 451.88C216.413 449.635 217.687 447.421 219.271 445.438C219.972 444.555 220.736 443.711 221.572 442.954C223.348 441.338 227.584 439.682 220.33 442.182C222.05 441.593 223.754 440.964 225.45 440.335C225.801 440.199 228.126 439.323 226.78 439.785Z" fill="black"/>
<path d="M187.604 506.829C185.279 506.208 182.962 505.595 180.637 504.974C180.016 504.807 173.145 507.546 173.153 507.697C173.59 515.174 172.914 522.5 171.122 529.777C171.17 529.586 173.758 528.854 173.885 528.814C178.933 526.998 183.91 525.199 188.393 522.173C190.742 520.589 194.476 518.542 194.357 515.373C194.237 512.196 191.649 507.976 190.519 504.998C190.487 504.91 183.026 507.697 183.034 507.721C184.451 511.456 188.687 517.993 185.478 521.329C184.021 522.842 182.126 524.116 180.374 525.263C179.292 525.963 178.177 526.624 177.038 527.229C175.708 527.93 170.764 529.857 175.844 528.026C176.767 527.707 177.683 527.381 178.607 527.062C180.406 519.784 181.075 512.459 180.637 504.982C178.145 505.89 175.653 506.798 173.153 507.705C175.478 508.326 177.795 508.939 180.12 509.561C182.254 510.118 185.534 506.272 187.604 506.829Z" fill="black"/>
<path d="M165.899 531.059C157.594 537.779 149.576 545.511 145.642 555.679C143.683 560.735 139.718 579.829 150.595 576.405C153.302 575.553 156.312 574.678 158.796 573.268C163.04 570.856 166.52 566.174 169.402 562.344C175.708 553.967 180.072 544.34 182.429 534.14C182.118 535.502 175.286 535.406 174.944 536.864C173.129 544.731 170.151 552.239 165.946 559.135C162.18 565.314 156.917 573.212 150.268 576.517C152.713 575.625 155.165 574.725 157.61 573.834C146.518 577.448 151.94 555.504 153.907 551.101C158.072 541.8 165.58 534.65 173.375 528.344C171.441 529.904 167.865 529.474 165.899 531.059Z" fill="black"/>
<path d="M303.276 495.833C303.69 499.615 303.3 502.322 301.158 505.46C299.247 508.263 297.296 511.033 295.297 513.765C291.3 519.235 287.128 524.578 282.82 529.809C274.428 540.009 265.533 549.779 256.631 559.533C259.124 558.625 261.616 557.718 264.116 556.81C264.108 556.483 264.14 556.157 264.204 555.838C264.044 557.001 256.894 557.288 256.719 558.562C256.655 558.88 256.631 559.207 256.631 559.533C256.647 558.761 263.376 557.614 264.116 556.81C273.018 547.056 281.912 537.286 290.305 527.086C294.461 522.038 298.49 516.894 302.36 511.623C304.359 508.899 306.317 506.137 308.228 503.35C310.577 499.918 311.222 497.29 310.76 493.11C310.816 493.675 303.196 495.148 303.276 495.833Z" fill="black"/>
<path d="M258.98 554.596C256.122 552.383 253.112 550.552 249.831 549.031C249.338 548.8 242.378 551.483 242.347 551.754C241.741 557.049 240.897 562.384 240.523 567.703C240.443 568.881 239.934 569.996 241.168 570.601C241.885 570.959 244.09 570.466 244.807 570.402C246.957 570.219 249.298 570.243 251.392 569.733C253.82 569.144 256.806 568.252 258.964 567.034C261.998 565.314 262.197 558.753 262.946 555.536C262.627 556.898 255.803 556.794 255.461 558.259C254.776 561.189 254.481 567.942 251.798 569.63C254.29 568.722 256.783 567.814 259.283 566.906C257.037 567.512 254.601 567.488 252.292 567.687C249.967 567.886 247.785 568.706 247.928 565.712C248.191 560.17 249.202 554.557 249.831 549.039C247.339 549.946 244.847 550.854 242.347 551.762C245.627 553.283 248.637 555.114 251.495 557.328C252.658 558.219 257.897 553.76 258.98 554.596Z" fill="black"/>
<path d="M234.575 574.072C229.814 579.503 225.562 586.804 224.964 594.17C224.702 597.387 225.968 600.524 229.726 600.173C231.979 599.966 234.4 598.716 236.494 597.944C249.123 593.278 255.931 578.133 256.814 565.465C256.743 566.492 249.409 567.057 249.33 568.188C248.924 573.969 247.474 579.574 244.871 584.758C242.163 590.149 238.333 593.827 234.289 598.119C232.314 599.361 233.118 599.162 236.685 597.514C236.351 597.49 236.016 597.466 235.682 597.442C234.424 596.59 233.452 596.558 232.776 594.958C231.788 592.625 232.656 589.639 233.285 587.346C234.933 581.358 237.975 575.999 242.06 571.341C240.547 573.077 236.128 572.297 234.575 574.072Z" fill="black"/>
<path d="M226.788 448.719C234.695 471.898 232.816 497.234 241.917 520.087C241.964 520.214 249.393 517.348 249.401 517.364C240.308 494.511 242.179 469.174 234.273 445.996C234.273 445.988 226.756 448.607 226.788 448.719Z" fill="black"/>
<path d="M242.156 444.977C246.583 458.298 250.58 471.754 254.091 485.346C255.811 492.019 257.42 498.716 258.917 505.444C259.689 508.931 260.438 512.427 261.146 515.922C261.783 519.06 262.11 522.372 263.646 525.223C263.853 525.613 270.972 522.213 271.131 522.5C269.594 519.649 269.268 516.345 268.631 513.199C267.922 509.696 267.174 506.208 266.401 502.721C264.905 495.992 263.296 489.296 261.576 482.623C258.065 469.031 254.068 455.575 249.64 442.253C249.648 442.261 242.116 444.841 242.156 444.977Z" fill="black"/>
<path d="M271.569 466.61C273.44 473.092 275.319 479.573 277.191 486.055C278.058 489.049 278.918 492.035 279.786 495.029C280.431 497.25 280.989 502.45 282.931 503.716C283.576 504.138 289.684 501.518 290.416 500.992C290.822 500.698 291.053 500.332 290.472 500.125C289.811 499.886 287.39 501.207 286.714 501.446C286.045 501.693 283.656 503.095 282.987 502.848C283.561 503.063 283.338 503.429 282.931 503.716C285.424 502.808 287.916 501.9 290.416 500.992C288.585 499.806 288.059 495.052 287.486 493.054C286.546 489.813 285.615 486.572 284.675 483.332C282.804 476.85 280.925 470.369 279.054 463.887C279.086 464.007 271.505 466.379 271.569 466.61Z" fill="black"/>
<path d="M295.982 482.607C296.309 486.589 297.591 490.267 299.82 493.588C300.21 494.161 306.978 490.387 307.305 490.865C305.075 487.544 303.793 483.873 303.467 479.884C303.515 480.529 295.918 481.851 295.982 482.607Z" fill="black"/>
<path d="M249.768 441.799C242.14 443.018 234.567 444.698 227.648 448.297C230.14 447.389 232.632 446.481 235.133 445.574C234.599 445.502 234.512 445.382 234.854 445.215C232.362 446.123 229.869 447.031 227.369 447.938C229.344 447.413 231.255 446.617 233.174 445.916C233.691 445.725 235.746 444.992 235.77 444.921C235.61 445.375 231.589 446.41 231.159 446.569C230.984 446.633 230.809 446.696 230.634 446.76C232.218 446.195 233.803 445.637 235.38 445.072C233.15 445.661 230.984 446.561 228.834 447.373C228.675 447.429 227.146 447.859 227.17 448.09C227.242 448.679 229.463 447.676 229.511 447.66C231.637 446.903 234.114 446.314 236.048 445.104C232.776 447.166 232.792 446.211 234.782 445.789C235.602 445.613 236.431 445.462 237.259 445.319C238.931 445.032 240.611 444.801 242.283 444.53C244.863 444.108 247.204 442.213 249.768 441.799Z" fill="black"/>
<path d="M233.946 438.32C237.776 437.077 241.71 437.46 245.269 439.307C245.779 439.57 248.462 438.184 249.027 437.985C249.585 437.778 252.244 436.321 252.754 436.584C249.083 434.681 245.078 434.402 241.152 435.676C238.875 436.409 235.738 437.738 233.946 438.32Z" fill="black"/>
<path d="M268.113 454.388C252.873 458.505 237.641 462.621 222.401 466.738C219.924 467.407 217.432 469.079 214.916 469.461C215.569 469.366 216.214 469.262 216.867 469.167C219.446 468.776 221.787 466.826 224.351 466.443C223.698 466.539 223.053 466.642 222.401 466.738C219.908 467.646 217.416 468.554 214.916 469.461C230.156 465.345 245.388 461.228 260.628 457.111C263.184 456.419 265.565 455.081 268.113 454.388Z" fill="black"/>
<path d="M289.739 466.722C274.165 471.133 258.59 475.553 243.015 479.964C235.355 482.138 227.696 484.303 220.036 486.477C217.687 487.146 215.417 487.934 213.124 488.778C212.734 488.922 209.167 489.933 210.043 490.538C210.489 490.849 217.121 488.34 217.527 487.815C217.583 487.743 217.631 487.679 217.687 487.616C216.333 489.368 211.595 488.539 210.202 490.339C210.146 490.411 210.098 490.474 210.043 490.538C212.535 489.63 215.027 488.723 217.527 487.815C216.023 486.772 209.27 490.06 213.594 488.906C215.131 488.5 216.66 488.038 218.188 487.6C221.254 486.732 224.319 485.864 227.377 484.996C233.508 483.26 239.631 481.524 245.762 479.789C258.017 476.317 270.271 472.837 282.525 469.366C284.826 468.713 287.932 467.232 289.739 466.722Z" fill="black"/>
<path d="M301.166 474.756C274.746 482.607 248.717 491.955 223.293 502.601C223.117 502.673 223.117 502.681 223.3 502.617C224.543 502.259 225.793 501.901 227.035 501.542C229.328 500.881 232.441 499.416 234.241 498.899C230.443 499.99 232.298 499.241 234.751 498.222C237.107 497.25 239.48 496.287 241.845 495.339C248.558 492.656 255.31 490.068 262.126 487.672C272.644 483.977 283.258 480.569 293.944 477.392C296.253 476.723 299.366 475.298 301.166 474.756Z" fill="black"/>
<path d="M295.751 488.842C276.856 496.677 257.953 504.504 239.058 512.339C240.81 511.615 244.051 510.659 246.28 509.736C265.175 501.901 284.078 494.073 302.973 486.238C301.213 486.963 297.973 487.918 295.751 488.842Z" fill="black"/>
<path d="M278.839 510.205C269.061 513.183 259.362 516.798 250.206 521.353C252.698 520.445 255.19 519.537 257.69 518.629C258.383 518.176 259.076 517.722 259.776 517.276C257.619 518.677 254.473 518.582 252.292 519.999C251.599 520.453 250.906 520.907 250.206 521.353C252.324 519.975 255.397 519.768 257.69 518.629C262.221 516.376 266.791 514.33 271.633 512.857C273.918 512.156 277.039 510.754 278.839 510.205Z" fill="black"/>
<path d="M302.264 494.423C302.479 495.244 302.694 496.072 302.917 496.892C302.87 496.701 310.474 494.479 310.402 494.169C309.829 491.875 309.248 489.582 308.674 487.289C308.746 487.568 301.118 489.582 301.189 490.012C301.484 491.732 302.233 493.213 303.435 494.471C303.642 494.694 306.819 493.285 307.193 493.149C307.551 493.022 310.92 492.067 310.92 491.748C310.936 490.594 310.362 489.694 309.319 489.208C309.208 489.152 308.165 489.598 308.212 489.582C307.329 489.893 306.445 490.211 305.561 490.538C304.677 490.856 303.801 491.183 302.917 491.509C302.75 491.573 301.954 491.995 301.834 491.931C302.878 492.417 303.443 493.325 303.435 494.471C305.927 493.564 308.419 492.656 310.92 491.748C309.709 490.49 308.969 489.009 308.674 487.289C306.182 488.197 303.69 489.105 301.189 490.012C301.763 492.305 302.344 494.599 302.917 496.892C305.41 495.984 307.902 495.076 310.402 494.169C310.187 493.349 309.972 492.52 309.749 491.7C309.797 491.883 302.185 494.129 302.264 494.423Z" fill="black"/>
<path d="M229.654 439.291C227.791 439.578 226.008 440.374 224.248 441.019C222.496 441.656 220.609 442.198 218.993 443.161C219.263 443.002 219.837 442.882 220.099 442.787C220.983 442.476 221.867 442.158 222.751 441.831C223.985 441.385 225.299 441.019 226.477 440.43C226.971 440.183 227.473 439.976 227.974 439.745C222.297 441.712 220.569 442.349 222.783 441.656C222.751 441.76 222.679 441.831 222.568 441.871C222.424 441.959 222.281 442.046 222.13 442.126C219.956 443.217 221.827 442.548 227.735 440.119C227.465 440.151 227.497 440.111 227.839 440C228.03 439.92 228.213 439.833 228.404 439.753C228.579 439.682 228.579 439.674 228.396 439.729C227.377 440.04 226.35 440.35 225.331 440.661C223.77 441.131 222.249 441.752 220.72 442.309C219.98 442.58 219.231 442.851 218.491 443.137C218.427 443.161 217.758 443.416 218.125 443.304C218.809 443.097 219.486 442.89 220.171 442.683C220.362 442.628 220.728 442.437 220.904 442.476C220.728 442.437 220.203 442.787 220.06 442.851C220.02 442.866 219.972 442.89 219.932 442.906C221.994 442.444 223.993 441.569 225.968 440.844C227.512 440.279 229.105 439.793 230.467 438.861C230.419 438.877 230.379 438.885 230.331 438.901C228.046 439.57 225.808 440.446 223.571 441.274C222.018 441.847 220.474 442.413 218.985 443.153C221.477 442.245 223.969 441.338 226.469 440.43C226.796 440.231 227.138 440.032 227.496 439.896C225.219 440.725 222.934 441.553 220.657 442.373C221.15 442.206 221.652 442.086 222.17 442.007C223.412 441.815 224.741 441.115 225.928 440.685C226.812 440.366 227.688 440.04 228.571 439.713C228.898 439.594 229.304 439.347 229.654 439.291Z" fill="black"/>
<path d="M313.802 360.781C313.842 360.781 313.89 360.781 313.93 360.781C315.164 360.749 320.714 357.453 321.414 358.058C320.459 357.238 316.939 359.181 315.984 359.539C313.117 360.59 311.477 362.031 309.367 364.34C311.859 363.433 314.352 362.525 316.852 361.617C317.863 360.455 318.906 359.547 320.188 358.703C317.696 359.611 315.204 360.518 312.703 361.426C312.043 361.888 309.901 362.843 310.8 363.106C311.318 363.258 311.987 362.995 312.465 362.883C313.683 362.597 314.909 362.023 316.079 361.601C316.764 361.354 322.975 359.324 322.219 358.329C322.012 358.05 315.315 360.654 314.734 361.052C313.77 361.721 319.854 363.146 320.483 363.313C322.975 362.406 325.467 361.498 327.968 360.59C326.017 360.184 324.066 359.778 322.115 359.38C319.917 358.926 316.732 362.652 314.63 362.103C325.865 365.033 335.397 371.562 344.553 378.466C349.211 381.977 353.79 385.584 358.591 388.897C360.972 390.537 363.401 392.122 365.909 393.563C366.267 393.77 366.625 393.969 366.984 394.176C368.345 394.463 368.433 394.972 367.239 395.713C366.809 397.186 365.527 398.595 365.041 400.172C367.533 399.264 370.025 398.356 372.526 397.448C371.984 395.41 371.443 393.372 370.901 391.333C370.925 391.421 364.046 393.714 363.417 394.056C362.254 394.701 362.127 395.8 363.026 396.724C363.831 397.544 369.779 393.252 370.511 394.001C369.58 393.053 369.771 391.954 370.901 391.333C368.409 392.241 365.917 393.149 363.417 394.056C363.958 396.095 364.499 398.133 365.041 400.172C364.929 399.75 372.295 398.189 372.526 397.448C373.043 395.768 374.078 394.542 374.723 392.989C375.774 392.408 375.87 391.994 375.01 391.755C374.468 391.461 373.927 391.158 373.394 390.848C370.885 389.406 368.457 387.822 366.076 386.182C361.275 382.869 356.688 379.262 352.038 375.751C342.873 368.847 333.358 362.318 322.115 359.388C319.623 360.295 317.131 361.203 314.63 362.111C316.581 362.517 318.532 362.923 320.483 363.321C322.672 363.775 325.881 360.041 327.968 360.598C327.338 360.431 321.255 359.006 322.219 358.337C319.726 359.244 317.234 360.152 314.734 361.06C315.283 361.777 312.488 362.859 312.457 362.875C314.909 361.984 317.361 361.1 319.806 360.208C316.685 360.797 318.516 359.865 320.18 358.711C318.086 360.168 314.853 360.017 312.695 361.434C311.405 362.278 310.362 363.186 309.359 364.348C310.872 362.613 315.243 363.369 316.844 361.625C318.07 360.28 319.352 359.045 320.73 357.859C318.237 358.767 315.745 359.674 313.245 360.582C313.531 360.471 313.762 360.542 313.922 360.789C316.414 359.881 318.906 358.974 321.406 358.066C321.367 358.066 321.319 358.066 321.279 358.066C318.755 358.13 316.302 360.717 313.802 360.781Z" fill="black"/>
<path d="M215.21 458.696C215.362 457.334 215.513 455.981 215.664 454.619C215.664 454.643 214.398 455.049 214.557 454.993C213.674 455.304 212.79 455.622 211.906 455.949C211.022 456.267 210.146 456.594 209.262 456.92C209.127 456.976 208.187 457.239 208.179 457.342C208.028 458.704 207.877 460.058 207.726 461.419C207.726 461.395 208.992 460.989 208.832 461.045C209.716 460.734 210.6 460.416 211.484 460.089C212.368 459.771 213.244 459.444 214.127 459.118C214.263 459.07 215.194 458.799 215.21 458.696Z" fill="black"/>
<path d="M293.968 459.5C297.208 456.665 300.123 453.576 302.758 450.176C302.28 450.789 299.764 451.227 299 451.498C297.885 451.904 296.229 452.166 295.273 452.899C291.252 455.981 287.741 459.484 284.644 463.489C285.113 462.876 287.645 462.438 288.402 462.167C289.469 461.777 291.26 461.522 292.128 460.766C306.023 448.774 317.513 433.67 334.123 425.158C331.63 426.065 329.138 426.973 326.638 427.881C323.27 430.142 319.909 432.404 316.541 434.673C318.667 433.248 321.876 433.391 324.026 431.95C327.394 429.688 330.754 427.427 334.123 425.158C332.036 426.559 328.907 426.718 326.638 427.881C310.028 436.393 298.538 451.498 284.644 463.489C287.136 462.581 289.628 461.674 292.128 460.766C295.226 456.753 298.737 453.257 302.758 450.176C300.266 451.084 297.774 451.991 295.273 452.899C292.63 456.299 289.716 459.388 286.483 462.223C288.33 460.607 292.096 461.148 293.968 459.5Z" fill="black"/>
</svg>
