<?xml version="1.0" encoding="utf-8"?>
<!-- Generator: Adobe Adobe Illustrator 24.2.0, SVG Export Plug-In . SVG Version: 6.00 Build 0)  -->
<svg version="1.1" xmlns="http://www.w3.org/2000/svg" xmlns:xlink="http://www.w3.org/1999/xlink" x="0px" y="0px" width="800px"
	 height="800px" viewBox="0 0 800 800" style="enable-background:new 0 0 800 800;" xml:space="preserve">
<style type="text/css">
	.st0{fill:#F7C66B;}
	.st1{fill:#A37421;}
	.st2{fill:#C2C2C2;}
	.st3{fill:#F9691A;}
	.st4{fill:#F2EF31;}
	.st5{fill:#FC2912;}
	.st6{fill:#ECF03D;}
	.st7{fill:#4553A6;}
	.st8{fill:#FF2A0C;}
</style>
<g id="Layer_6">
	<path class="st0" d="M458.33,491.78c-0.77,0.46-1.28,1.18-1.77,1.92c-0.34-1.12-0.79-2.21-1.34-3.23
		c-1.59-2.95-4.39-4.87-7.14-6.62c-2.65-1.77-5.91-3.66-9.17-2.97c-1.6-0.95-3.2-1.92-4.76-2.93c-0.81-0.53-1.62-1.07-2.43-1.61
		c-1.1-1.55-2.56-2.85-4.06-4.04c-2.09-1.93-4.35-3.61-6.74-5.11c-1.05-1.12-2.22-2.15-3.4-3.1c-4.21-3.71-9.65-5.38-15.05-6.5
		c-3.3-0.72-1.91-0.42-5.31-1.34c-1.53-0.47-3.15-0.48-4.65,0.13c-3.17,2.01-5.37,5.23-6.59,8.9c-0.9-0.41-1.96-0.53-3.16-0.29
		c-1.25,1.32-2.51,2.62-3.8,3.91c-0.32,0.37-0.65,0.73-0.98,1.09c-0.94,1-1.87,2.01-2.81,3.02c-1.3,1.51-2.6,3.03-3.93,4.51
		c-1.16,1.29-2.34,2.57-3.51,3.84c-0.72,0.94-1.43,1.87-2.19,2.78c-0.59,0.71-1.19,1.42-1.8,2.11c-0.27,0.3-0.53,0.64-0.82,0.95
		c-0.2,1.24-0.22,2.52-0.02,3.77c-0.42,2.83,0.24,6.04,1.58,8.17c0.78,2.53,1.97,4.92,3.58,7.01c0.09-0.05,0.19-0.08,0.31-0.08
		c0.84,0.05,1.57,0.44,2.31,0.82c1.26,0.44,2.46,1.02,3.59,1.73c0.63,0.4,1.32,0.68,1.97,1.05c0.45,0.12,0.94,0.49,1.29,0.77
		c0.02,0.01,0.04,0.03,0.05,0.05c0.01-0.65,1.07-0.75,1.22-0.1c0.07,0.28,0.25,0.5,0.37,0.73c0.16,0.3,0.22,0.61,0.23,0.95
		c0.01,0.33-0.26,0.61-0.57,0.67c0.21,0.2,0.42,0.4,0.62,0.6c0.51,0.51,0,1.25-0.63,1.17c3.43,1.78,7.09,3.1,10.87,3.9
		c1.69,0.46,3.22,0.32,4.54-0.24c2.69,1.44,5.43,2.8,8.23,4.03c1.51,0.66,3.07,1.24,4.59,1.89c2.04,1.82,4.42,3.87,6.99,5.47
		c0.12,0.18,0.25,0.35,0.37,0.54c0.89,1.49,1.68,3.35,3.52,3.57c0.03,0,0.05-0.01,0.08-0.02c0.42,2.44,1.63,4.9,3.87,5.48
		c0.71,0.95,1.5,1.83,2.39,2.59c0.32-0.15,0.66-0.22,0.99-0.35c0.2-0.08,0.36-0.2,0.56-0.29c0.25-0.11,0.48-0.23,0.71-0.36v0
		c0.01,0,0.01-0.01,0.02-0.01c0.23-0.13,0.45-0.28,0.67-0.44c0.35-0.25,0.79-0.44,1.21-0.6c0.18-0.11,0.36-0.21,0.55-0.3
		c0.38-0.17,0.89-0.31,1.34-0.28c0.35-0.15,0.72-0.24,1.1-0.24c0.15,0,0.31,0.07,0.44,0.18c0,0,0,0,0,0
		c0.37-0.21,0.75-0.32,1.16-0.37c0.55-1.36,0.89-2.76,1.06-4.19c3.01-2.26,4.71-5.68,5.45-9.56c0.55-0.34,1.07-0.73,1.56-1.19
		c3.91-3.07,6.65-7.32,9.06-11.65c0.45-0.39,0.87-0.82,1.27-1.28c2.99,0.43,5.8-0.51,6.8-4.2c0.81-2.85,0.75-5.94-0.1-8.78
		c0.39-1.08,0.75-2.16,1.07-3.25C459.34,493.8,459.53,491.53,458.33,491.78z"/>
	<path class="st0" d="M382.05,621.11c0.04-0.08,0.1-0.14,0.14-0.21c-0.35-0.15-0.56-0.57-0.34-0.98c0.34-0.62,0.85-0.94,1.28-1.46
		c0.46-0.56,0.91-1.13,1.42-1.66c0.55-0.57,0.93-1.24,1.46-1.83c0.53-0.59,1.11-1.14,1.66-1.7c1.16-1.2,2.31-2.43,3.53-3.56
		c0.6-0.56,1.26-1.02,1.92-1.5c0.03-0.02,0.07-0.05,0.1-0.07c0.29-2.8-0.35-5.73-1.89-7.98c-0.92-1.46-3.41-1.29-6.47-0.31
		c-0.35-1.54-1.06-2.94-2.31-3.93c-1.93-0.79-2.93-0.64-6.03-2.88c-0.17-0.13-0.36-0.25-0.54-0.36c-0.42-0.45-0.87-0.89-1.36-1.28
		c-0.71-0.22-1.32-0.18-1.84,0.05c-2.33-1.56-4.66-3.14-7.01-4.68c-2.86-1.85-5.75-3.65-8.73-5.3c-2.18-1.99-4.38-3.94-6.66-5.82
		c-5.82-4.96-12.61-8.51-19.26-12.26c-0.22-0.17-0.45-0.3-0.68-0.38c-1.77-1.01-3.52-2.03-5.25-3.11c-0.79-0.65-1.63-1.49-2.63-1.06
		c-0.32,0.12-0.61,0.31-0.88,0.53c-1.78-2.29-3.96-4.11-6.65-4.96c-0.25-0.37-0.51-0.76-0.79-1.18c-1.11-1.6-2.33-3.12-3.56-4.63
		c-1.26-1.26-2.07-3.26-3.78-3.9c-0.92-0.26-1.66,0.15-2.24,0.83c-0.12-1.5-0.33-2.99-0.86-4.39c-0.96-1.77-1.94-1.36-2.7-0.33
		c-0.22-1.37-0.64-2.68-1.53-3.83c-0.77-1.07-2.3-1.2-3.38-0.57c-1.59,1.1-2.29,3.02-2.86,4.79c-0.39,1.21-0.71,2.43-0.96,3.67
		c-1.21,0.7-2.22,2.23-3.08,4.2c-1.96,0.95-3.59,2.95-4.63,4.79c-4.46,8-4.22,17.71-3.54,26.59c0.11,1.66,0.3,3.31,0.52,4.95
		c-1.05,1.41-1.89,3.01-2.65,4.57c-1.51,1.91-2.9,4.25-4.05,6.84c-0.3-0.16-0.6-0.3-0.92-0.44c-2.37-1.15-3.42,2.06-4.47,3.57
		c-6.32,13.53,7.15,32.93,20.92,35.6c1.08,0.04,2.07-0.17,3.03-0.52c4.46,5.43,10.25,9.77,16.57,11.9c0.87,0.28,1.87,0.54,2.92,0.73
		c2.08,2.64,4.55,4.97,7.32,6.89c1.36,0.88,2.79,1.64,4.25,2.34c-0.23,1.53-0.6,3.46-0.2,7.69c0.34,1.71,0.74,3.61,1.88,4.95
		c0.2-0.05,0.4-0.09,0.6-0.13c1.45-0.28,2.75-0.84,4.09-1.42c0.68-0.3,1.31-0.7,2-0.98c0.3-0.12,0.6-0.28,0.91-0.38
		c0.34-0.12,0.76-0.06,1.12-0.06c0.54,0,1.07-0.02,1.6,0.03c0.11-0.03,0.21-0.06,0.31-0.08c1.03-1.65,1.88-3.37,2.58-5.15
		c0.28-0.05,0.57-0.1,0.85-0.18c0.93-0.09,1.87-0.2,2.45-1.04c0.98-1.23,1.43-2.76,1.62-4.32c1.26-0.95,2.44-2.02,3.55-3.16
		c0.43-0.26,0.85-0.52,1.26-0.79c5.04-3.07,9.27-7.26,13.09-11.71c3.45-4.05,6.99-8.23,9.28-13.08c0.46-1,0.89-2.5,1.17-4.16
		c0.59,0.19,1.2,0.33,1.79,0.44c2.74,0.21,5.19-0.57,7.44-1.86C381.97,621.37,381.98,621.24,382.05,621.11z M320.18,620.52
		c0.18,0.04,0.37,0.08,0.55,0.13c0.59,0.7,1.17,1.42,1.72,2.15c0.07,0.29,0.14,0.58,0.22,0.87
		C321.86,622.61,321.03,621.56,320.18,620.52z"/>
	<path class="st1" d="M235.79,645.57c-0.66-2.8-1.67-3.9-2.82-3.97c0.13-1,0.15-2.02-0.03-3.05c-0.29-1.53-0.63-3.25-1.9-4.26
		c-2.15-1.9-3.68,1.42-4.49,3.05c-0.05,0.09-0.1,0.18-0.15,0.27c-0.72,0.06-1.41,0.47-1.74,1.26c-1.25,2.1-1.64,4.6-2.4,6.93
		c-1.33,2.42-2.29,5.02-3.28,7.61c-1.31,2.25-2.65,4.48-3.95,6.73c-1.01,0.24-1.82,0.86-2.58,1.58c-1.48,1.27-2.81,2.68-3.97,4.25
		c-1.14,1.54-2.2,3.13-3.23,4.74c-1.48,1.77-2.88,3.62-4.22,5.49c-6,9.06-12.57,18.7-13.65,29.78c-0.04,0.41-0.07,0.82-0.08,1.25
		c-1.55,5.02,0.39,11.92,4.38,10.66c0.72,0.47,1.62,0.56,2.69,0.02c0.5-0.29,0.95-0.64,1.38-1.01c0.02,0.02,0.03,0.04,0.05,0.06
		c0.95,0.69,1.66,0.37,2.23-0.41c0.64-0.04,1.28-0.36,1.74-0.9c0.1-0.12,0.18-0.25,0.27-0.38c-0.05,0.07-0.07,0.11-0.04,0.08
		c0.06-0.07,0.09-0.11,0.14-0.16c0.2-0.12,0.41-0.21,0.63-0.29c0.01,0,0.01,0,0.02-0.01c5.45-0.6,8.65-11.36,10.37-15.87
		c1.96-5.76,2.37-6.56,5.11-13.84c-0.18,0.47-0.36,0.94-0.54,1.41c0.18-0.48,0.37-0.95,0.55-1.43c0.71-1.4,1.42-2.8,2.15-4.2
		c0.88-1.72,1.81-3.42,2.78-5.1c1.23-1.75,2.14-3.69,2.3-5.83c0.19-0.38,0.37-0.75,0.54-1.13c0.41-0.28,0.75-0.68,1.01-1.14
		c0.16-0.24,0.31-0.49,0.46-0.73c0.13-0.2,0.26-0.4,0.38-0.61c0.52-0.85,1.02-1.7,1.53-2.56c0.72-1.17,1.41-2.37,2.04-3.59
		c1.59-1.66,3.17-3.33,4.57-5.15C236.05,652.44,236.48,648.79,235.79,645.57z"/>
	<path class="st1" d="M321.37,704.56c1.08-2.09,1.4-4.53,1.09-6.88c-0.14-1.93-1.87-6-4.2-4.05c-1,0.81-1.44,2.17-2.16,3.22
		c-0.06,0.11-0.11,0.22-0.17,0.33c-1.31-1.62-3.1-0.93-4.22,0.91c-1.81,2.17-3.31,4.58-4.75,7.01c-2.4,3.08-4.57,6.36-6.79,9.55
		c-3.17,4.72-5.68,9.86-7.61,15.21c-1.25,3.45-2.23,7.01-2.89,10.62c-1.15,3.59-0.54,13.52,5.02,11.51c2.07-1.3,3.04-3.61,4.14-5.7
		c1.02,0.01,2.04-0.56,3.06-1.56c0.38,0.29,0.81,0.53,1.32,0.68c2.28-0.26,2.77-3.04,3.85-4.67c0.02-0.04,0.05-0.09,0.07-0.14
		c1.59-2.04,2.49-4.64,3.55-6.96c1.46-3.6,2.67-7.29,3.84-10.99c0.94-2.78,1.48-4.67,1.95-6.22c0.04-0.01,0.07-0.01,0.11-0.01
		c1.96-0.83,2.34-3.72,2.92-5.56c0.02-0.06,0.03-0.12,0.05-0.18c0.44-1.03,0.96-2.24,1.52-3.68
		C321.23,706.36,321.35,705.49,321.37,704.56z"/>
	<path class="st2" d="M383.87,540.67c0.31,0.49,0.17,0.9-0.13,1.21c-0.03-0.14-0.07-0.29-0.1-0.43c0.01-1.04-0.09-2.07-0.26-3.08
		c-0.28-1.93-0.72-3.9-1.9-5.5c-1.37-1.74-3.31-3.23-5.5-3.7c-0.79-0.01-1.46,0.36-1.99,0.91c-0.06,0.02-0.13,0.04-0.19,0.07
		c-2.41-2.98-5.24-2.35-6.54,1.32c-1.1,2.92-1.15,6.25-0.24,9.22c0.88,2.92,3.4,5.13,6.27,6.02c1.24,0.38,2.5,0.66,3.78,0.88
		c0.02,0.02,0.04,0.03,0.06,0.05c2.05,1.89,4.33,0.85,5.49-1.4c0.13-0.26,0.24-0.52,0.34-0.79c0.38,0.09,0.73-0.18,0.92-1.09
		c0.1-0.63,0.07-1.27-0.02-1.91C384.22,541.87,384.36,541.15,383.87,540.67z"/>
	<path class="st3" d="M389.75,516.93c-0.36-0.34-0.8-0.57-1.32-0.57c-0.44-2.05-1.43-3.75-3.46-3.32c-0.07,0.02-0.13,0.05-0.19,0.07
		c-0.99-0.42-2.24-0.38-3.83,0.35c-1.7,0.76-3.08,2.15-4.38,3.46c-2.09,2.65-2.49,6.15-2.15,9.4c0.24,2.57,1.17,4.35,2.44,5.44
		c0.8,1.82,2.43,3.55,4.53,3.55c0.86-0.1,1.55-0.54,2.13-1.13c2.03,0.23,3.96-2.37,5.29-4.78c1.33-1.06,1.82-3.17,2.27-4.72
		C392.26,520.51,391.32,517.35,389.75,516.93z"/>
	<path class="st4" d="M384.98,520.88c-0.15-0.21-0.34-0.38-0.58-0.47c-0.43,0.02-0.66,0.44-0.87,0.76c-0.18,0.39-0.31,0.79-0.44,1.2
		c-0.79,1.14-1.33,2.51-1.84,3.76c-0.07,0.37-1.12,2.17-1.06,4.21c0.09,3.1,1.9,4.05,3.22,0.86c1.21-0.95,2.28-4.63,2.73-5.48
		C386.68,524.54,386.6,520.95,384.98,520.88z"/>
	<path class="st5" d="M387.32,510.69c-0.39-0.09-0.76,0.37-1.08,0.55c-0.49,0.42-0.96,0.86-1.44,1.29
		c-0.27-0.54-0.65-0.97-1.19-1.21c-0.22-0.1-0.45-0.08-0.67,0.06c-1.27,0.92-2.3,2.13-3.11,3.47c-0.04,0.08-0.09,0.15-0.14,0.23
		c-0.49-0.01-1,0.33-1.42,1.18l0,0c0,0,0,0,0,0c-0.3,0.56-0.62,1.12-0.93,1.67c-1.33,2.25-2.88,4.43-3.38,7.01
		c-0.53,3.83,1.87,8.6,4.42,2.82c1.03-1.91,2.15-3.78,3.15-5.71c0.23-0.48,0.43-0.91,0.63-1.31c0.77-0.76,1.5-1.77,1.91-2.23
		c0.62-0.7,1.04-1.92,1.15-3.16c0.21-0.31,0.43-0.62,0.64-0.93c0.47-0.56,0.93-1.13,1.34-1.73c0.08-0.09,0.15-0.19,0.23-0.28
		c0-0.01-0.01-0.02-0.01-0.04c0.05-0.07,0.1-0.14,0.14-0.21C387.74,511.71,387.74,511.03,387.32,510.69z"/>
	<path class="st5" d="M393.58,521.8c-0.03-0.56-0.13-1.05-0.28-1.48c0-0.29-0.05-0.57-0.2-0.81c-0.15-0.18-0.27-0.23-0.39-0.2
		c-0.27-0.27-0.59-0.39-0.93-0.32c-0.4-0.23-0.87-0.21-1.36,0.3c-1.16,1.59-1.36,3.71-1.9,5.57c-0.04,0.21-0.14,0.61-0.27,1.08
		c-1.34,3.27-2.25,6.76,0.06,9c2.05,0.8,2.7-3.2,3.15-5.21C392.41,527.13,393.56,524.55,393.58,521.8z"/>
</g>
<g id="Layer_5">
	<path class="st6" d="M708.23,187.69c-1.7-0.53-3.54-0.16-5.29-0.28c-1.9-0.02-3.77-0.23-5.64-0.51c-0.29-0.15-0.59-0.29-0.9-0.43
		c-0.26-0.66-0.6-1.29-1.03-1.87c-0.79-1.13-2.17-0.96-3.37-0.89c0,0-0.01,0-0.01,0c-2.86-1.68-5.97-2.91-9.25-3.54
		c-2.69-0.65-5.5-0.49-8.2-1c-0.41-0.17-1.16-0.47-1.55-0.65c-2.32-1.05-4.85-1.74-7.4-1.87c-3,0.08-6,0.28-9,0.34
		c-3.88,0.36-7.69,1.23-11.53,1.83c-6.04,0.89-11.89,2.27-17.68,4.01c-1.82,0.22-3.64,0.48-5.44,0.78
		c-3.48,0.39-6.88,1.26-10.34,1.71c-1.57,0.23-3.18-0.27-4.72,0.12c-3.84,0.96-6.35,2.09-8.27,2.35c-4.17,1.1-8.03,3.1-12.03,4.67
		c-2.36,1.18-4.54,2.68-6.81,4.02c-3.61,1.96-7.35,3.75-10.61,6.27c-5.44,4.1-11.27,7.61-16.66,11.77
		c-1.26,1.02-2.79,1.63-4.05,2.64c-2.24,1.9-4.62,3.59-6.98,5.33c-4.84,3.99-5.72,4.76-10.14,8.52c-2.43,2.03-5.16,3.74-7.22,6.19
		c-3.29,3.13-6.38,6.46-9.11,10.1c-2.65,4.02-1.69,2.93-3.89,5.89c-2.83,3.82-5.69,7.61-8.45,11.47
		c-3.81,4.63-7.72,9.21-10.96,14.26c-0.78,1.23-1.41,2.57-1.82,3.96c-0.18,0.19-0.36,0.37-0.54,0.56c-0.45,0.53-0.83,1.11-1.18,1.71
		c-0.05,0.08-0.1,0.16-0.15,0.25c-0.02,0.04-0.04,0.07-0.06,0.1c0,0,0,0.01,0.01,0.01c-0.14,0.27-0.27,0.56-0.37,0.85
		c-1.77,1.95-3.53,3.91-5.27,5.88c-3.87,4.51-7.49,9.3-10.2,14.58c-2.6,3.19-5.14,6.44-7.6,9.76c-0.1,0.13-0.19,0.26-0.31,0.38
		c0.01,0.01,0.01,0.03,0.02,0.04c-0.24,0.32-0.48,0.65-0.7,0.98c-1.14,2.65-1.43,5.86-0.49,8.64c-3.09,4.12-6.08,8.31-8.86,12.65
		c-7.79,12.18-11.95,22.95-16.32,34.09c-1.9,3.56-3.8,7.11-5.7,10.66c-2.44,4.67-4.88,9.47-7.3,14.18
		c-3.95,7.27-7.87,14.56-12.04,21.71c-2.15,3.69-1.04,1.8-3.28,5.33c-1.27,1.9-1.9,4.17-1.86,6.44c-0.03,0.39-0.02,0.85,0.04,1.34
		c-1.57,3.9-3.69,7.76-2.9,12.11c0.01,0.05,0.02,0.1,0.03,0.15c-0.22,0.5-0.45,0.99-0.66,1.49c-1.5,3.46-1.59,7.89,0.67,11.03
		c0.89,1.21,2.79,1.31,3.68,0.03c0.98-1.39,1.84-2.87,2.66-4.38c0.25,1.85,0.93,3.6,2.42,4.76c0.46,0.29,0.92,0.33,1.39,0.12
		c0.02-0.01,0.03-0.02,0.05-0.03c0.53,0.25,1.14,0.3,1.81,0c2.06-1.45,2.36-4.25,3.25-6.47c0.46,2.8,1.79,5.37,4.31,4.47
		c0.42-0.36,0.81-0.79,1.18-1.24c0.32,0.02,0.65-0.03,1.02-0.19c0.98-0.56,1.41-1.59,1.98-2.51c1.13-1.74,2.05-3.59,2.92-5.47
		c3.18-7.16,6.47-14.27,9.99-21.26c0.14-0.32,0.3-0.64,0.44-0.96c0.13,3.08,1.35,6.8,3.88,6.29c1.44-0.47,2.21-2.1,3.28-3.11
		c6.45-8.3,11.05-17.85,16.13-27.01c1.87-3.43,3.72-6.87,5.56-10.31c0.12,0.05,0.24,0.1,0.37,0.13c1.69-0.12,2.35-2.02,3.39-3.11
		c1.72-2.16,3.36-4.38,4.89-6.68c2.86-4.28,5.8-8.5,8.79-12.68c0.19,0.12,0.39,0.22,0.62,0.28c0.7-0.1,1.19-0.59,1.47-1.22v0
		c0,0,0,0,0,0c1.34-2.15,2.64-4.31,3.8-6.55c0.42-0.81,0.87-1.61,1.3-2.42c4.07-5.52,8.18-11.01,12.27-16.52
		c7.75-9.16,15.49-18.33,23.24-27.49c15.57-16.56,31.18-33.16,48.19-48.27c2.17-1.85,2.73-2.31,3.32-2.73
		c0.75-0.61,1.71-1.04,2.13-1.94c0.44-0.7,0.77-1.55,1.01-2.46c5.91-4.41,11.83-8.81,17.71-13.27c9.31-6.91,18.48-14.05,27.92-20.79
		c2.59-1.2,5.22-2.33,7.89-3.35c0.45-0.16,0.9-0.34,1.35-0.5c0.37,0.66,0.84,1.25,1.48,1.72c0.86,0.55,1.75,0.07,2.56-0.32
		c2.25-1.06,4.46-2.18,6.69-3.28c7.53-3.98,21.36-10.14,26.07-11.15c5.73-1.65,11.82-1.27,17.46-3.33c1.37-0.47,2.8-0.95,3.87-1.95
		c0.06,0,0.12-0.01,0.18-0.01c3.24,0.1,6.42-0.46,9.48-1.53c2.07-1.49,2.5-4.31,2.55-6.7C710.71,192.01,710.37,189.13,708.23,187.69
		z"/>
</g>
<g id="Layer_4">
	<path class="st7" d="M740.9,200.5c-0.55-1.96-1.91-4.92-4.4-4.33c-0.71,0.2-1.37,0.48-1.98,0.79c-0.21,0-0.43,0.02-0.65,0.06
		c-0.55-1.32-1.35-2.48-2.7-3.06c-0.97-0.41-1.84-0.34-2.63,0.07c-1.37-0.54-2.88-0.31-4.31,0.48c-0.06-0.22-0.14-0.43-0.3-0.6
		c-0.63-0.25-1.45,0.26-2.13,0.29c-0.71,0.13-1.43,0.27-2.16,0.38c-0.13-1.08-0.39-2.14-0.75-3.14c-0.46-1.41-1.29-3.05-2.91-3.16
		c-5.22,0.55-9.68,3.36-14.2,5.86c-2.45,0.26-4.92,0.84-7.16,1.78c-3.66,0.53-7.33,1.22-10.82,2.43c-0.06,0.03-0.12,0.07-0.19,0.1
		c-0.2-0.05-0.4-0.08-0.61-0.1c-2.99-0.83-5.97,0.65-8.76,1.61c-0.9,0.31-1.79,0.67-2.66,1.05c-4.16,1.33-8.48,3.15-12.7,5.6
		c-5.02,0.38-14.14,6.73-16.8,8.37c-14.6,9.7-29.22,19.37-43.69,29.26c-1.19,1.01-2.89,1.58-3.72,2.94
		c-0.25,0.58-0.41,1.23-0.46,1.88c-6.89,4.36-13.49,9.15-19.53,14.65c-4.57,3.78-8.57,8.12-12.08,12.9
		c-2.66,3.43-5.33,6.85-8.06,10.23c-0.69,0.88-1.46,1.74-2.15,2.63c-4.98,4.34-9.91,8.72-14.63,13.33
		c-5.52,5.6-10.59,11.61-15.28,17.91c-3.97,4.28-7.93,8.55-11.9,12.83c-4.04,4.77-8.72,9.29-11.7,14.8
		c-0.16,0.43-0.29,0.89-0.4,1.36c-6.62,7.09-12.98,14.42-18.64,22.32c-5.66,7.37-11.42,17.88-15.79,25.01
		c-0.21,0.32-0.43,0.64-0.64,0.96c-0.92,0.2-1.49,1.03-2.15,1.69c-1.07,1.17-2.09,2.39-3.09,3.62
		c-5.25,5.86-10.94,11.54-15.06,18.26c-2.11,2.54-4.11,5.17-5.85,8c-2.81,4.38-5.34,9.2-6.17,14.39c-0.19,0.32-0.36,0.65-0.54,0.98
		c-1.16,0.69-2.19,1.91-2.95,3.33c-0.3,0.56-0.56,1.14-0.81,1.72c-0.62-0.01-1.21,0.15-1.68,0.62c-1.06,0.83-1.79,2.41-2.2,4.33
		c-0.05,0.12-0.1,0.24-0.15,0.36c-0.2,0.45-0.36,0.94-0.48,1.45c-0.02,0.06-0.03,0.12-0.05,0.18c-0.01,0.06-0.03,0.12-0.04,0.19
		c-0.03,0.14-0.07,0.29-0.1,0.44c-0.25,0.75-0.42,1.53-0.51,2.24c-0.53,3.8,0.65,7.54,2.93,10.58c2.84,3.52,7.25,5.01,11.64,5.84
		c1.13,0.95,2.32,1.86,3.58,2.68c0.36,0.58,0.75,1.15,1.17,1.69c0.47,0.71,1.13,1.25,2.01,1.29c0.4-0.08,0.76-0.22,1.11-0.41
		c0.85,1.09,1.82,2.08,3.19,2.34c0.25-0.04,0.48-0.11,0.7-0.2c1.25,2.63,3.04,4.96,5.63,6.6c1.98,1.04,4.29,1.46,6.56,1.31
		c0.75,0.22,1.52,0.4,2.3,0.36c1.39-0.17,2.75-0.59,4.09-1.01c2.3-1.05,4.33-2.87,5.9-4.86c0.01,0,0.02-0.01,0.04-0.01
		c0.41,0.1,0.82,0.19,1.24,0.26c0,0,0.01,0,0.01,0c1.16,0.99,2.52,1.64,4.11,1.82c0.4-0.24,0.9-0.32,1.34-0.44
		c0.44-0.12,0.81-0.31,1.27-0.31h0.33c1.73-0.88,3.17-2.35,4.59-3.71c2.2-2.55,4.29-5.21,6.4-7.84c3.09-2.11,5.82-4.7,8.21-7.57
		c0.33,0.1,0.66,0.21,1.01,0.27c2.93,1.1,5.93,0.63,8.82-0.34c1.99-0.61,3.89-1.46,5.76-2.34c3.78-0.54,7.27-2.14,10.49-4.24
		c1.53-0.53,3.05-1.06,4.57-1.62c5.21-1.99,9.16-6.21,12.92-10.18c4.06-4.73,7.73-9.78,11.61-14.66c0.77-0.66,1.53-1.31,2.28-1.99
		c1.87-1.75,3.8-3.46,5.56-5.32c1.21-1.57,2.12-3.29,2.83-5.1c7.27-3.16,14.9-10.22,20.74-16.47c4.48,4.07,10.9,4.63,18.36,0.15
		c2.92-1.95,5.58-4.18,8.08-6.58c4.57,1.77,10.59,1.35,18.2-2.23c10.56-5.38,18.47-14.68,25.71-23.83c1.27-1.67,2.5-3.36,3.72-5.06
		c3.2-0.78,5.78-2.93,8.36-4.88c5.91-4.27,10.5-10.01,14.33-16.16c1.02-1.53,1.99-3.09,2.93-4.66c5.49-3.03,9.77-8.29,13.76-13.04
		c5.46-6.65,10.34-13.83,14.25-21.5c0.75-1.01,1.48-2.02,2.21-3.04c2.6-3.49,5-7.11,7.32-10.79c6.61-10.96,11.36-23.17,13.56-35.79
		c0.74-5.76,1-11.6,0.53-17.39c-0.17-3.39-0.44-6.83-1.3-10.12c-0.05-2.72-0.3-5.47-0.86-8.11c1.52-1.64,2.59-3.79,3.34-5.83
		c0.84-1.96,1.33-4.21,1.31-6.42C741.45,207.51,741.77,203.86,740.9,200.5z"/>
</g>
<g id="Layer_2">
	<g>
		<path class="st8" d="M763.44,229.6C763.44,229.6,763.44,229.6,763.44,229.6c0.01-0.03,0.01-0.06,0.02-0.08
			C763.45,229.55,763.44,229.57,763.44,229.6z"/>
		<path class="st8" d="M774.02,255.75c-0.7-3.42-1.32-7.11-2.4-10.59c0.14-1.41,0.16-2.82-0.07-4.22c-0.24-1.84-1.73-3.73-3.1-2.69
			c-0.24-0.36-0.5-0.72-0.77-1.06c0.01-0.52,0.03-1.03,0.04-1.55c0.21-2.16,0.63-4.34,0.01-6.45c-0.29-1.49-1.99-3.46-3.34-1.75
			c-0.4,0.34-0.76,1.41-0.96,2.16c-0.05,0.25-0.11,0.5-0.16,0.76c0,0,0,0,0,0c0,0,0,0.01,0,0.01c-0.04,0.19-0.08,0.37-0.12,0.56
			c-0.12-1.16-0.24-2.33-0.34-3.49c-0.29-2.41-0.09-4.95-1.11-7.2c-1.67-2.63-3.03-1.28-4.02,0.96c-0.44-0.68-0.97-1.29-1.66-1.75
			c-0.07-0.03-0.12-0.02-0.19-0.04c0.8-2.8,1.46-5.62,0.47-8.4c-0.3-1.06-1.38-2.39-2.57-1.75c-1.25,0.84-1.47,2.37-1.91,3.7
			c-0.24,0.76-0.48,1.51-0.71,2.27c-0.01-2.14-0.26-4.25-1.22-6.19c-0.36-0.54-0.68-1.27-1.4-1.34c-0.54-0.24-1.22,0.12-1.55,0.58
			c-0.76,0.88-1.42,1.83-2.04,2.81c0.04-1.05-0.05-2.1-0.35-3.16c-0.37-1.11-0.99-2.42-2.28-2.56c-1.39,0.09-2.06,1.52-2.55,2.65
			c-0.21,0.47-0.4,0.94-0.59,1.42c-0.46,0.44-0.93,1.02-1.4,1.8c-2.44,4.15-3.4,8.99-5.04,13.49c-1.67,5.57-4.05,10.96-5.29,16.64
			c-0.09,0.92-0.16,1.97-0.09,2.99c-1.13,0.36-2.4,1.29-3.81,2.67c-5.11,6.44-7.52,14.57-10.36,22.18c-1.51,4.5-3.2,9.16-4.46,14.43
			c-2.89,4.4-5.96,8.92-7.69,13.85c-0.15,0.41-0.25,1-0.29,1.67c-0.91,0.96-1.82,1.92-2.73,2.88c-9.89,10.5-19.13,21.6-27.74,33.17
			c-1.99,2.44-3.99,4.88-5.94,7.35c-6.14,5.3-12.15,10.75-18.09,16.27c-7.41,5.93-14.57,12.18-21.57,18.6
			c-0.02,0.02-0.04,0.04-0.06,0.06c-4.16,2.82-8.4,6.18-10.64,8.09c-1.66,1.38-3.24,2.84-4.79,4.34c-0.1-0.09-0.19-0.18-0.31-0.26
			c-1.34-0.62-2.44,0.94-3.44,1.63c-1.48,1.34-3.01,2.62-4.45,4.01c-3.42,1.78-6.14,4.8-8.97,7.37c-0.3,0.33-0.61,0.67-0.92,1
			c-7.35,5.01-14.65,10.11-21.8,15.41c-1.53,1.16-3.04,2.35-4.55,3.54c-2.25,1.36-4.48,2.76-6.69,4.18
			c-9.64,4.86-18.51,11.17-27.57,17.01c-4.9,3.2-10.14,5.82-15.22,8.73c-1.27,0.5-2.11,1.48-2.6,2.66
			c-0.47,0.22-0.95,0.44-1.42,0.66c-4.83,2.68-9.69,5.3-14.53,7.95c-1.71,0.78-3.39,1.63-5.04,2.53c-0.27,0.2-0.55,0.39-0.82,0.59
			c-5.16,2.31-10.32,4.64-15.46,7c-2.8,1.04-5.59,2.09-8.3,3.33c-1.19,0.67-2.83,0.81-3.56,2.06c-0.12,0.18-0.23,0.38-0.32,0.58
			c-0.49,0.28-0.97,0.55-1.45,0.84c-1.78,1.25-3.89,2.51-4.74,4.57c-0.9,2.44-0.84,5.9,1.27,7.66c0.56,0.34,1.14,0.12,1.65-0.19
			c1.05-0.47,2.16-0.82,3.26-1.17c1.28-0.42,2.55-0.87,3.83-1.31c0.19,0.32,0.41,0.62,0.68,0.87c0.24,0.28,0.56,0.42,0.94,0.42
			c1.01,0,2.01,0,3.01-0.06c-0.03-0.27,0.07-0.58,0.33-0.7c0.49-0.22,0.98-0.35,1.49-0.49c0.45-0.12,0.66-0.37,1.03-0.61
			c0.33-0.21,0.69-0.24,1.02-0.33c0.3-0.09,0.72-0.31,1.04-0.47c0.44-0.22,0.78-0.54,1.19-0.8c0.41-0.26,0.93-0.34,1.39-0.46
			c0.44-0.12,0.81-0.31,1.27-0.31h1.09c0.07,0,0.14,0.01,0.2,0.03c0.16-0.05,0.33-0.11,0.49-0.16c0.11-0.03,0.23-0.08,0.34-0.11
			c0.08-0.04,0.17-0.07,0.26-0.09c0.41-0.14,0.81-0.29,1.22-0.44c0.57-0.21,1.21-0.35,1.76-0.6c0.8-0.36,1.65-0.94,2.56-0.67
			c2.04-0.94,4.11-1.84,6.24-2.52c0.27-0.16,0.55-0.33,0.82-0.49c0.92-0.54,1.86-0.99,2.86-1.36c1.04-0.38,2.12-0.58,3.18-0.89
			c0.52-0.15,1.06-0.33,1.53-0.61c0.43-0.26,0.77-0.45,1.28-0.51c0.14-0.02,0.26-0.03,0.38-0.04c6.12-3.14,12.16-6.45,18.17-9.81
			c0.14,0.15,0.28,0.3,0.44,0.43c0.84,0.48,1.7-0.24,2.53-0.41c3.61-1.23,7.18-2.58,10.73-3.97c0.74,0.51,1.76,0.18,2.62-0.01
			c1.47-0.38,2.93-0.79,4.35-1.32c4.95-1.7,9.59-4.13,14.3-6.4c6.67-2.23,13.37-4.38,20-6.72c7.29-2.83,14.52-5.8,21.73-8.82
			c3.94-1.2,7.88-2.39,11.82-3.57c4.4-1.38,8.88-2.57,13.3-3.94c0.32,0.1,0.65,0.19,0.99,0.26c0.71,0.04,1.4-0.01,2.07-0.12
			c0.17-0.13,0.35-0.26,0.54-0.35c1.41-0.68,2.96-1.44,4.55-1.67c1.2-0.73,2.34-1.57,3.41-2.41c0.06-0.04,0.12-0.09,0.18-0.13
			c0.29-0.14,0.58-0.26,0.87-0.4c0.03-0.01,0.05-0.03,0.08-0.04c0.18,0.4,0.42,0.77,0.73,1.05c0.35-0.17,0.7-0.34,1.05-0.49
			c2.09-0.92,4.06-2.02,6.23-2.75c0.29-0.1,0.55,0.02,0.7,0.23c1.47-0.84,2.92-1.71,4.36-2.6c1.6-0.6,3.2-1.23,4.82-1.8
			c3.99-1.73,7.98-3.45,11.98-5.15c0.55-0.41,1.2-0.7,1.8-1.04c1.35-0.77,2.72-1.47,4.11-2.16c1.33-0.67,2.66-1.26,4.05-1.8
			c1.26-0.76,2.55-1.48,3.82-2.23c1.31-0.77,2.66-1.47,4.08-2.01c0.21-0.1,0.42-0.2,0.64-0.25c0.11-0.04,0.2-0.04,0.3-0.02
			c0.01,0,0.01,0,0.02,0c0.14-0.1,0.29-0.19,0.46-0.26c0.12-0.04,0.23-0.1,0.35-0.15c0.2-0.98,0.2-2.04,0.04-3.05
			c1.98-0.47,3.96-0.95,5.93-1.46c0.7-0.18,1.4-0.37,2.1-0.56c2.03-1.39,3.93-2.9,6.22-3.67c0.16-0.43,0.28-0.88,0.37-1.34
			c0.35,0.07,0.74,0.06,1.18-0.08c3.74-2.38,6.65-5.95,9.55-9.27c1.98-2.3,4-4.57,6.04-6.81c1.41,0.96,3.51,0.62,6.15-2.1
			c5.29-5.69,9.82-12.01,14.31-18.36c0.99-0.95,1.99-1.9,2.96-2.88c1.32-1.2,2.49-2.54,2.96-4.3c0.11-0.49,0.18-0.96,0.24-1.43
			c0.58-0.79,1.16-1.59,1.75-2.37c0.88-1.18,1.65-2.43,2.45-3.66c-0.05,0.12,0.88-1.24,0.95-1.87c0.14-0.51,0.22-1.02,0.27-1.55
			c2.78-3.36,5.59-6.71,8.43-10.01c0.75-1.19,1.14-2.48,1.28-3.76c0.84-1.15,1.34-2.47,1.61-3.85c1.37-1.54,2.59-4.56,2.97-6.67
			c0.45-2.42,0.67-4.35,0.8-6.05c2.56-6.97,5.19-13.94,5.71-21.41c0.14-2-0.07-4.16-1.19-5.86c0.16-0.42,0.33-0.87,0.49-1.34
			c1.35-0.99,2.46-3.18,3-4.35c0.49-1.16,0.85-2.35,1.12-3.56c0.75-2.01,1.1-4.17,1.15-6.31
			C775.71,265.26,774.79,260.5,774.02,255.75z M720.21,266.02c-0.18,0.35-0.35,0.69-0.53,1.04c-0.49,0.89-0.96,1.79-1.45,2.68
			c0.68-1.86,1.38-3.65,2.26-5.66C720.38,264.73,720.29,265.37,720.21,266.02z"/>
		<path class="st8" d="M763.44,229.6C763.21,230.43,763.17,230.88,763.44,229.6L763.44,229.6z"/>
	</g>
	<g id="Layer_3">
	</g>
</g>
<g id="Layer_1">
	<g>
		<g>
			<path d="M635.88,429.92c-52.62,19.87-106.23,37.02-159.06,56.34c-0.61,0.22-3.25,1.25-3.26,1.25c1.7-0.05,4.23-1.5,5.79-2.07
				c54.21-19.82,109.19-37.48,163.2-57.87c1.52-0.58,1.51-0.58-0.02-0.07C640.29,428.25,638.08,429.08,635.88,429.92L635.88,429.92z
				"/>
		</g>
	</g>
	<g>
		<g>
			<path d="M665.51,416.7c-7.9,4.32-16.09,8.01-24.49,11.25c-1.77,0.69,1.55-0.49,1.71-0.55c2.15-0.76,4.3-1.53,6.42-2.36
				c8.83-3.41,17.45-7.22,25.76-11.77C672.03,414.86,668.41,415.12,665.51,416.7L665.51,416.7z"/>
		</g>
	</g>
	<g>
		<g>
			<path d="M676.76,410.91c-2.02,1.1-4.06,2.17-6.1,3.22c1.43-0.73,3.2-1.11,4.72-1.66c1.54-0.56,3.22-1.01,4.68-1.76
				c2.05-1.05,4.08-2.12,6.1-3.22c-0.37,0.2-1.02,0.34-1.39,0.47c-1.11,0.39-2.22,0.79-3.33,1.2
				C679.91,409.71,678.2,410.13,676.76,410.91L676.76,410.91z"/>
		</g>
	</g>
	<g>
		<g>
			<path d="M403.15,449.95c19.21-43.98,38.36-88.19,62.87-129.54c24.2-40.82,54.33-80.7,92.67-109.29
				c20.16-15.04,42.62-25.16,67.54-28.97c22.88-3.5,46.41-2.22,68.77,3.77c4.93,1.32,9.8,2.72,14.17,5.14
				c2.31,1.28,5.19,1.59,7.7,2.58c2.81,1.11,5.54,3.7,8.33,4.51c2.14,0.62,3.62,0.79,5.68,1.91c2.55,1.39,5.02,2.91,7.41,4.56
				c4.32,2.99,8.35,6.39,11.99,10.17c16.12,16.73,21.38,38.02,19.86,60.74c-3.9,58.22-40.74,108.92-92.39,134.82
				c2.95-1.48,6.43-1.93,9.4-3.42c23.07-11.56,43.22-28.34,59.47-48.34c17.02-20.95,27.33-47.24,31.49-73.74
				c3.78-24.11,1.94-48.49-13.75-68.16c-6.86-8.6-15.62-15.67-25.37-20.75c-2.33-1.21-4.41-1.26-6.67-2.63
				c-2.46-1.49-4.94-2.77-7.67-3.7c-1.51-0.52-3.56-0.64-4.96-1.33c-0.92-0.45-1.4-1.15-2.25-1.69c-2.29-1.43-5.87-2.04-8.42-2.8
				c-44.79-13.36-92.35-6.19-133.69,14.63c-22.63,11.4-41.85,27.99-59.37,46.12c-17.38,17.98-32.77,37.8-46.5,58.69
				c-30.89,46.98-53.29,98.78-75.72,150.14c0.25-0.57,4.05-1.42,4.72-1.66C399.25,451.43,402.81,450.74,403.15,449.95L403.15,449.95
				z"/>
		</g>
	</g>
	<g>
		<g>
			<path d="M396.85,454.46c21.93,14.66,43.86,29.32,65.79,43.99c1.69,1.13,7.81-4.48,9.4-3.42c-21.93-14.66-43.86-29.32-65.79-43.99
				C404.56,449.92,398.43,455.53,396.85,454.46L396.85,454.46z"/>
		</g>
	</g>
	<g>
		<g>
			<path d="M472.52,489.52c-2.54,0.94-5.09,1.87-7.63,2.82c-0.65,0.24-1.53,0.47-2.15,0.81c-0.48,0.27,0.61-0.18,0.49-0.14
				c2.16-0.73,4.3-1.53,6.43-2.32c2.22-0.82,3.34-1.24,5.39-1.99c0.93-0.34,1.87-0.68,2.8-1.04c0.39-0.15,0.73-0.18,0.46-0.21
				c-0.55-0.07-1.71,0.59-2.17,0.76C474.93,488.64,473.72,489.08,472.52,489.52L472.52,489.52z"/>
		</g>
	</g>
	<g>
		<g>
			<path d="M497.03,480.69c-4.36,1.55-8.71,3.1-13.07,4.66c-2.14,0.76-4.32,1.48-6.42,2.36c-0.09,0.04-0.92,0.32-0.46,0.21
				c0.73-0.17,1.46-0.51,2.17-0.76c4.36-1.55,8.71-3.11,13.07-4.66c2.14-0.76,4.32-1.48,6.42-2.36c0.09-0.04,0.92-0.32,0.46-0.21
				C498.46,480.1,497.73,480.44,497.03,480.69L497.03,480.69z"/>
		</g>
	</g>
	<g>
		<g>
			<path d="M623.52,434.99c-37.59,13.97-75.34,27.52-113.13,40.94c-2.22,0.79-4.45,1.56-6.64,2.42c-1.35,0.53-1.79,0.71,0.02,0.07
				c41.6-14.77,83.14-29.7,124.53-45.07c0.2-0.07,3.48-1.14,1.66-0.68C627.78,433.22,625.61,434.21,623.52,434.99L623.52,434.99z"/>
		</g>
	</g>
	<g>
		<g>
			<path d="M660.86,420.94c-6.04,2.29-12.08,4.57-18.12,6.84c-1.52,0.57-1.51,0.59,0.02,0.07c2.23-0.75,4.44-1.59,6.64-2.42
				c6.53-2.46,13.06-4.92,19.59-7.4c1.78-0.67-1.55,0.49-1.71,0.55C665.14,419.35,663,420.13,660.86,420.94L660.86,420.94z"/>
		</g>
	</g>
	<g>
		<g>
			<path d="M434.2,536.66c12.19-13.18,23.9-26.8,35.86-40.19c-1.93,2.16-7.42,1.2-9.4,3.42C448.7,513.28,437,526.9,424.8,540.08
				C426.79,537.93,432.17,538.86,434.2,536.66L434.2,536.66z"/>
		</g>
	</g>
	<g>
		<g>
			<path d="M390.44,456.68c-8.12,8.8-16.07,17.77-23.8,26.92c-1.83,2.17-3.65,4.34-5.46,6.53c-1.23,1.49-5.65,5.45-5.98,7.32
				c-0.86,0.57-0.8,0.95,0.18,1.12c0.77,0.38,1.55,0.77,2.32,1.15c1.03,0.52,2.07,1.05,3.09,1.58c2.6,1.34,5.18,2.72,7.73,4.14
				c9.55,5.31,18.81,11.17,27.45,17.86c4.37,3.38,8.62,6.95,12.56,10.82c3.44,3.37,6.4,7.22,11.35,8.25
				c2.81,0.58,6.66-3.99,9.4-3.42c-4.72-0.98-7.6-4.51-10.87-7.77c-3.86-3.85-8.05-7.41-12.34-10.77
				c-8.84-6.92-18.35-12.95-28.15-18.4c-2.3-1.28-4.62-2.52-6.96-3.74c-1.08-0.56-6.69-2.48-6.96-3.52
				c-0.24-0.93,5.34-6.57,5.97-7.33c1.8-2.19,3.62-4.37,5.45-6.54c7.92-9.4,16.07-18.61,24.41-27.64
				C397.85,455.41,392.47,454.48,390.44,456.68L390.44,456.68z"/>
		</g>
	</g>
	<g>
		<g>
			<path d="M375.7,482.99c12.86-2.32,26.33-7.32,37.39-14.28c-3.13,1.14-6.26,2.28-9.4,3.42c1.73,14.39-0.34,28.64-2.56,42.85
				c0.16-1.05,8.24-2.59,9.4-3.42c11.53-8.3,23.06-16.59,34.59-24.89c-3.13,1.14-6.26,2.28-9.4,3.42
				c2.88,10.36,4.98,20.88,6.3,31.55c-0.08-0.67,9.5-2.61,9.4-3.42c-1.32-10.67-3.42-21.19-6.3-31.55c0.05,0.17-8.66,2.89-9.4,3.42
				c-11.53,8.3-23.06,16.59-34.59,24.89c3.13-1.14,6.26-2.28,9.4-3.42c2.22-14.21,4.29-28.47,2.56-42.85
				c0.05,0.39-8.55,2.89-9.4,3.42c-3.33,2.09-6.77,3.74-10.27,5.51c-2.36,1-1.93,0.88,1.29-0.37c-1.28,0.41-2.57,0.77-3.87,1.09
				c-1.9,0.48-3.82,0.86-5.75,1.21C381.85,480.15,378.92,482.4,375.7,482.99L375.7,482.99z"/>
		</g>
	</g>
	<g>
		<g>
			<path d="M427.56,456.73c25.71-45.1,55.64-87.75,89.42-127.18c16.69-19.49,34.3-38.19,52.76-56.01
				c17.62-17.01,35.98-33.39,56.21-47.27c11.64-7.99,23.9-15.16,36.84-20.85c12.79-5.62,26.75-8.49,40.63-9.68
				c3.22-0.27,6.21-3.15,9.4-3.42c-50,4.26-94.7,32.68-131.41,65.1c-41.63,36.77-79.02,78.76-111.87,123.51
				c-18.64,25.39-35.77,51.86-51.37,79.22c0.38-0.66,3.94-1.38,4.72-1.66C423.78,458.16,427.07,457.6,427.56,456.73L427.56,456.73z"
				/>
		</g>
	</g>
	<g>
		<g>
			<path d="M728.73,215.83c-10.83,51.21-37.72,96.01-75.59,131.8c-38.45,36.34-81.42,69.22-126.16,97.4
				c-25.36,15.97-51.77,30.27-79.22,42.32c2.18-0.96,6.3-2.06,9.07-3.27c48.14-21.13,92.88-49.13,134.77-80.78
				c21.37-16.14,42.22-33.11,62.15-51c19.84-17.82,37.93-37.31,52.14-59.97c15.37-24.51,26.25-51.63,32.23-79.93
				C737.78,214.07,729.11,214.04,728.73,215.83L728.73,215.83z"/>
		</g>
	</g>
	<g>
		<g>
			<path d="M360.94,509.37c-5.56,8.86-11.21,17.67-16.97,26.41c-2.88,4.37-5.78,8.72-8.71,13.06c-2.46,3.65-4.73,8.02-7.81,11.16
				c3.13-1.14,6.26-2.28,9.4-3.42c-1.07,0.29-1.55-0.11-0.84-1.07c-3.13,1.14-6.26,2.28-9.4,3.42c0.1,0.07,0.21,0.13,0.31,0.2
				c1.76,1.12,7.74-4.48,9.4-3.42c-0.1-0.07-0.21-0.13-0.31-0.2c-0.61-0.39-8.89,2.75-9.4,3.42c-1.2,1.6,0.65,1,1.49,0.86
				c2.16-0.38,4.38-1.56,6.43-2.32c4.9-1.83,7.3-7.87,10.12-12.05c8.78-13.01,17.33-26.17,25.68-39.46
				c-0.44,0.7-3.89,1.36-4.72,1.66C364.67,507.96,361.5,508.47,360.94,509.37L360.94,509.37z"/>
		</g>
	</g>
	<g>
		<g>
			<path d="M402.03,541.79c-13.21,11.72-26.43,23.43-39.64,35.15c2.3-2.04,7.06-1.35,9.4-3.42c13.21-11.72,26.43-23.43,39.64-35.15
				C409.13,540.41,404.37,539.72,402.03,541.79L402.03,541.79z"/>
		</g>
	</g>
	<g>
		<g>
			<path d="M340.47,664.07c11.52-13.05,24.09-25.09,36.09-37.69c5.8-6.09,11.46-12.31,16.77-18.84c1.48-1.82,3.52-3.23,2.79-5.44
				c-0.37-1.12-1.67-2.17-2.56-2.92c-2.78-2.32-6.4-3.51-9.72-4.81c-0.8-0.31-3.9,1.36-4.72,1.66c-0.82,0.3-3.87,2.07-4.68,1.76
				c3.14,1.23,6.47,2.36,9.19,4.42c1.06,0.8,2.66,1.99,3.1,3.31c0.73,2.21-1.32,3.63-2.79,5.44c-5.31,6.52-10.97,12.75-16.77,18.84
				c-12,12.6-24.57,24.64-36.09,37.69C332.98,665.33,338.5,666.29,340.47,664.07L340.47,664.07z"/>
		</g>
	</g>
	<g>
		<g>
			<path d="M387.77,595.25c-30.19-19.08-59.13-40.04-87.13-62.19c-0.38-0.3-9.21,2.91-9.4,3.42c-0.43,1.17-4.28,9.67-2.43,10.96
				c1.34,0.93,7.9-2.31,9.32-3.06c3.53-1.86,5.75-8.23,2.51-11.31c-0.28-0.27-9.18,2.89-9.4,3.42c-5.6,13.95-11.43,27.93-16.47,42.1
				c-2.48,6.98-4.74,14.04-7.13,21.05c-1.19,3.48-2.42,6.94-3.7,10.39c-1.05,2.83-2.71,5.49-3.73,8.28
				c-0.31,0.48-0.61,0.95-0.92,1.43c0.92,0.69,1.85,1.35,2.8,2c1.51,1.04,3.06,2.02,4.62,3c3.18,2,6.4,3.85,9.7,5.62
				c6.14,3.29,11.99,7.1,17.6,11.22c11.36,8.33,21.76,17.88,32.3,27.21c1.24,1.1,8.26-4.43,9.4-3.42
				c-10.54-9.33-20.94-18.88-32.3-27.21c-5.61-4.12-11.46-7.93-17.6-11.22c-3.3-1.77-6.53-3.63-9.7-5.62c-1.55-0.97-3.1-1.96-4.62-3
				c-0.72-0.48-1.42-0.98-2.12-1.5c-1.07-0.43-0.99-1.07,0.24-1.93c0.94-2.76,2.69-5.47,3.73-8.28c1.27-3.45,2.51-6.91,3.7-10.39
				c2.39-7.01,4.65-14.07,7.13-21.05c5.03-14.17,10.86-28.15,16.47-42.1c-3.13,1.14-6.26,2.28-9.4,3.42
				c2.71,2.58,1.55,9.36-1.88,11.06c3.13-1.14,6.26-2.28,9.4-3.42c-2.29,0.48,1.66-10.47,1.88-11.06c-3.13,1.14-6.26,2.28-9.4,3.42
				c28,22.15,56.94,43.11,87.13,62.19C380.14,599.79,386.1,594.19,387.77,595.25L387.77,595.25z"/>
		</g>
	</g>
	<g>
		<g>
			<path d="M363.34,534.31c-4.07,3.3-1.26,8.34,2.31,10.67c4.18,2.73,9.3,3.75,11.28,8.85c-0.1-0.25,9.03-2.66,9.4-3.42
				c1.59-3.3,3.19-6.59,4.78-9.89c1.37-2.83,2.81-4.52-0.04-6.54c-5.38-3.83-12.57-6.29-18.48-9.25c-0.66-0.33-4,1.4-4.72,1.66
				c-0.72,0.26-4.02,2.09-4.68,1.76c5.95,2.98,13.02,5.46,18.48,9.25c2.59,1.8,1.68,3.06,0.47,5.64c-1.69,3.62-3.48,7.19-5.22,10.79
				c3.13-1.14,6.26-2.28,9.4-3.42c-1.97-5.09-7.09-6.12-11.28-8.85c-3.58-2.33-6.38-7.37-2.31-10.67
				C370.31,532.86,365.81,532.31,363.34,534.31L363.34,534.31z"/>
		</g>
	</g>
	<g>
		<g>
			<path d="M382.72,520.78c1.24-5.17,4.16-9.58,8.44-12.74c-1.13,0.84-3.38,1.18-4.72,1.66c-1.42,0.52-3.45,0.85-4.68,1.76
				c-4.28,3.16-7.2,7.57-8.44,12.74c0.1-0.41,4.19-1.47,4.72-1.66C378.64,522.31,382.57,521.4,382.72,520.78L382.72,520.78z"/>
		</g>
	</g>
	<g>
		<g>
			<path d="M384.54,528.86c2.63-0.79,5.2-1.82,7.77-2.78c1.29-0.48,2.63-0.88,3.7-1.78c1.8-1.51,2.64-3.9,2.19-6.2
				c0.01,0.05-4.36,1.53-4.72,1.66c-0.36,0.13-4.72,1.56-4.68,1.76c0.59,2.94-0.98,5.86-3.68,7.12c0.21-0.09,0.42-0.17,0.63-0.26
				c-0.12,0.05-0.25,0.09-0.37,0.14c2.86-1.04,5.73-2.08,8.59-3.11c-0.13,0.04-0.25,0.08-0.38,0.11c-1.96,0.59-3.87,1.37-5.79,2.07
				c-0.93,0.34-1.87,0.68-2.8,1.04C384.92,528.69,384.08,529,384.54,528.86L384.54,528.86z"/>
		</g>
	</g>
	<g>
		<g>
			<path d="M370.9,527.95c-0.61,1.46-1.42,4.29,0.91,4.65c0.31,0.05,0.61,0.01,0.91-0.07c2.01-0.55,3.98-1.4,5.93-2.11
				c1.17-0.43,2.47-0.75,3.56-1.35c0.31-0.17,0.48-0.4,0.56-0.74c-0.01,0.04-1.57,0.53-1.39,0.47c-1.11,0.39-2.22,0.79-3.33,1.2
				c-1.11,0.4-2.21,0.81-3.32,1.22c-0.2,0.07-1.33,0.37-1.36,0.53c-0.08,0.35-0.25,0.57-0.56,0.74c0.05-0.02,0.11-0.05,0.16-0.07
				c-0.04,0.02-0.08,0.04-0.13,0.05c3.02-1.1,6.04-2.2,9.06-3.3c-0.04,0.01-0.09,0.03-0.13,0.04c0.06-0.02,0.11-0.03,0.17-0.05
				c-0.77,0.16-1.66-0.12-2.06-0.83c-0.67-1.18-0.06-2.67,0.41-3.8c-0.03,0.07-1.53,0.52-1.39,0.47c-1.11,0.39-2.22,0.79-3.33,1.2
				c-1.11,0.4-2.21,0.81-3.32,1.22C372.03,527.5,370.98,527.74,370.9,527.95L370.9,527.95z"/>
		</g>
	</g>
	<g>
		<g>
			<path d="M284.81,552.32c-5.46,1.88-11.57,3.42-15.94,7.4c-6.32,5.75-9.52,14.43-13.03,22c-8.86,19.13-17.73,38.27-26.59,57.4
				c0.27-0.59,4.03-1.41,4.72-1.66c0.8-0.29,4.31-0.95,4.68-1.76c7.23-15.6,14.46-31.2,21.68-46.8c3.3-7.13,6.41-14.4,10.01-21.39
				c1.45-2.82,3.05-5.6,5.04-8.09c0.88-1.11,1.84-2.17,2.89-3.12c2.23-2.03,7.55-4.11-1.56-0.97c2.16-0.74,4.3-1.53,6.43-2.32
				C283.58,552.84,286.5,551.74,284.81,552.32L284.81,552.32z"/>
		</g>
	</g>
	<g>
		<g>
			<path d="M235.61,636.52c-2.92-0.78-5.83-1.55-8.75-2.33c-0.78-0.21-9.41,3.23-9.4,3.42c0.55,9.39-0.3,18.59-2.55,27.73
				c0.06-0.24,3.31-1.16,3.47-1.21c6.34-2.28,12.59-4.54,18.22-8.34c2.95-1.99,7.64-4.56,7.49-8.54c-0.15-3.99-3.4-9.29-4.82-13.03
				c-0.04-0.11-9.41,3.39-9.4,3.42c1.78,4.69,7.1,12.9,3.07,17.09c-1.83,1.9-4.21,3.5-6.41,4.94c-1.36,0.88-2.76,1.71-4.19,2.47
				c-1.67,0.88-7.88,3.3-1.5,1c1.16-0.4,2.31-0.81,3.47-1.21c2.26-9.14,3.1-18.34,2.55-27.73c-3.13,1.14-6.26,2.28-9.4,3.42
				c2.92,0.78,5.83,1.55,8.75,2.33C228.89,640.65,233.01,635.82,235.61,636.52L235.61,636.52z"/>
		</g>
	</g>
	<g>
		<g>
			<path d="M208.35,666.95c-10.43,8.44-20.5,18.15-25.44,30.92c-2.46,6.35-7.44,30.33,6.22,26.03c3.4-1.07,7.18-2.17,10.3-3.94
				c5.33-3.03,9.7-8.91,13.32-13.72c7.92-10.52,13.4-22.61,16.36-35.42c-0.39,1.71-8.97,1.59-9.4,3.42
				c-2.28,9.88-6.02,19.31-11.3,27.97c-4.73,7.76-11.34,17.68-19.69,21.83c3.07-1.12,6.15-2.25,9.22-3.37
				c-13.93,4.54-7.12-23.02-4.65-28.55c5.23-11.68,14.66-20.66,24.45-28.58C215.31,665.5,210.82,664.96,208.35,666.95L208.35,666.95
				z"/>
		</g>
	</g>
	<g>
		<g>
			<path d="M380.88,622.71c0.52,4.75,0.03,8.15-2.66,12.09c-2.4,3.52-4.85,7-7.36,10.43c-5.02,6.87-10.26,13.58-15.67,20.15
				c-10.54,12.81-21.71,25.08-32.89,37.33c3.13-1.14,6.26-2.28,9.4-3.42c-0.01-0.41,0.03-0.82,0.11-1.22
				c-0.2,1.46-9.18,1.82-9.4,3.42c-0.08,0.4-0.11,0.81-0.11,1.22c0.02-0.97,8.47-2.41,9.4-3.42c11.18-12.25,22.35-24.52,32.89-37.33
				c5.22-6.34,10.28-12.8,15.14-19.42c2.51-3.42,4.97-6.89,7.37-10.39c2.95-4.31,3.76-7.61,3.18-12.86
				C390.35,620,380.78,621.85,380.88,622.71L380.88,622.71z"/>
		</g>
	</g>
	<g>
		<g>
			<path d="M325.25,696.51c-3.59-2.78-7.37-5.08-11.49-6.99c-0.62-0.29-9.36,3.08-9.4,3.42c-0.76,6.65-1.82,13.35-2.29,20.03
				c-0.1,1.48-0.74,2.88,0.81,3.64c0.9,0.45,3.67-0.17,4.57-0.25c2.7-0.23,5.64-0.2,8.27-0.84c3.05-0.74,6.8-1.86,9.51-3.39
				c3.81-2.16,4.06-10.4,5-14.44c-0.4,1.71-8.97,1.58-9.4,3.42c-0.86,3.68-1.23,12.16-4.6,14.28c3.13-1.14,6.26-2.28,9.4-3.42
				c-2.82,0.76-5.88,0.73-8.78,0.98c-2.92,0.25-5.66,1.28-5.48-2.48c0.33-6.96,1.6-14.01,2.39-20.94c-3.13,1.14-6.26,2.28-9.4,3.42
				c4.12,1.91,7.9,4.21,11.49,6.99C317.31,701.06,323.89,695.46,325.25,696.51L325.25,696.51z"/>
		</g>
	</g>
	<g>
		<g>
			<path d="M294.6,720.97c-5.98,6.82-11.32,15.99-12.07,25.24c-0.33,4.04,1.26,7.98,5.98,7.54c2.83-0.26,5.87-1.83,8.5-2.8
				c15.86-5.86,24.41-24.88,25.52-40.79c-0.09,1.29-9.3,2-9.4,3.42c-0.51,7.26-2.33,14.3-5.6,20.81
				c-3.4,6.77-8.21,11.39-13.29,16.78c-2.48,1.56-1.47,1.31,3.01-0.76c-0.42-0.03-0.84-0.06-1.26-0.09
				c-1.58-1.07-2.8-1.11-3.65-3.12c-1.24-2.93-0.15-6.68,0.64-9.56c2.07-7.52,5.89-14.25,11.02-20.1
				C302.1,719.72,296.55,718.74,294.6,720.97L294.6,720.97z"/>
		</g>
	</g>
	<g>
		<g>
			<path d="M284.82,563.54c9.93,29.11,7.57,60.93,19,89.63c0.06,0.16,9.39-3.44,9.4-3.42c-11.42-28.7-9.07-60.52-19-89.63
				C294.22,560.11,284.78,563.4,284.82,563.54L284.82,563.54z"/>
		</g>
	</g>
	<g>
		<g>
			<path d="M304.12,558.84c5.56,16.73,10.58,33.63,14.99,50.7c2.16,8.38,4.18,16.79,6.06,25.24c0.97,4.38,1.91,8.77,2.8,13.16
				c0.8,3.94,1.21,8.1,3.14,11.68c0.26,0.49,9.2-3.78,9.4-3.42c-1.93-3.58-2.34-7.73-3.14-11.68c-0.89-4.4-1.83-8.78-2.8-13.16
				c-1.88-8.45-3.9-16.86-6.06-25.24c-4.41-17.07-9.43-33.97-14.99-50.7C313.53,555.43,304.07,558.67,304.12,558.84L304.12,558.84z"
				/>
		</g>
	</g>
	<g>
		<g>
			<path d="M341.06,586.01c2.35,8.14,4.71,16.28,7.06,24.42c1.09,3.76,2.17,7.51,3.26,11.27c0.81,2.79,1.51,9.32,3.95,10.91
				c0.81,0.53,8.48-2.76,9.4-3.42c0.51-0.37,0.8-0.83,0.07-1.09c-0.83-0.3-3.87,1.36-4.72,1.66c-0.84,0.31-3.84,2.07-4.68,1.76
				c0.72,0.27,0.44,0.73-0.07,1.09c3.13-1.14,6.26-2.28,9.4-3.42c-2.3-1.49-2.96-7.46-3.68-9.97c-1.18-4.07-2.35-8.14-3.53-12.21
				c-2.35-8.14-4.71-16.28-7.06-24.42C350.5,582.74,340.98,585.72,341.06,586.01L341.06,586.01z"/>
		</g>
	</g>
	<g>
		<g>
			<path d="M371.72,606.1c0.41,5,2.02,9.62,4.82,13.79c0.49,0.72,8.99-4.02,9.4-3.42c-2.8-4.17-4.41-8.78-4.82-13.79
				C381.18,603.49,371.64,605.15,371.72,606.1L371.72,606.1z"/>
		</g>
	</g>
	<g>
		<g>
			<path d="M313.68,554.85c-9.58,1.53-19.09,3.64-27.78,8.16c3.13-1.14,6.26-2.28,9.4-3.42c-0.67-0.09-0.78-0.24-0.35-0.45
				c-3.13,1.14-6.26,2.28-9.4,3.42c2.48-0.66,4.88-1.66,7.29-2.54c0.65-0.24,3.23-1.16,3.26-1.25c-0.2,0.57-5.25,1.87-5.79,2.07
				c-0.22,0.08-0.44,0.16-0.66,0.24c1.99-0.71,3.98-1.41,5.96-2.12c-2.8,0.74-5.52,1.87-8.22,2.89c-0.2,0.07-2.12,0.61-2.09,0.9
				c0.09,0.74,2.88-0.52,2.94-0.54c2.67-0.95,5.78-1.69,8.21-3.21c-4.11,2.59-4.09,1.39-1.59,0.86c1.03-0.22,2.07-0.41,3.11-0.59
				c2.1-0.36,4.21-0.65,6.31-0.99C307.52,557.75,310.46,555.37,313.68,554.85L313.68,554.85z"/>
		</g>
	</g>
	<g>
		<g>
			<path d="M293.81,550.48c4.81-1.56,9.75-1.08,14.22,1.24c0.64,0.33,4.01-1.41,4.72-1.66c0.7-0.26,4.04-2.09,4.68-1.76
				c-4.61-2.39-9.64-2.74-14.57-1.14C300,548.08,296.06,549.75,293.81,550.48L293.81,550.48z"/>
		</g>
	</g>
	<g>
		<g>
			<path d="M336.72,570.66c-19.14,5.17-38.27,10.34-57.41,15.51c-3.11,0.84-6.24,2.94-9.4,3.42c0.82-0.12,1.63-0.25,2.45-0.37
				c3.24-0.49,6.18-2.94,9.4-3.42c-0.82,0.12-1.63,0.25-2.45,0.37c-3.13,1.14-6.26,2.28-9.4,3.42
				c19.14-5.17,38.27-10.34,57.41-15.51C330.53,573.21,333.52,571.53,336.72,570.66L336.72,570.66z"/>
		</g>
	</g>
	<g>
		<g>
			<path d="M363.88,586.15c-19.56,5.54-39.12,11.09-58.68,16.63c-9.62,2.73-19.24,5.45-28.86,8.18c-2.95,0.84-5.8,1.83-8.68,2.89
				c-0.49,0.18-4.97,1.45-3.87,2.21c0.56,0.39,8.89-2.76,9.4-3.42c0.07-0.09,0.13-0.17,0.2-0.25c-1.7,2.2-7.65,1.16-9.4,3.42
				c-0.07,0.09-0.13,0.17-0.2,0.25c3.13-1.14,6.26-2.28,9.4-3.42c-1.89-1.31-10.37,2.82-4.94,1.37c1.93-0.51,3.85-1.09,5.77-1.64
				c3.85-1.09,7.7-2.18,11.54-3.27c7.7-2.18,15.39-4.36,23.09-6.54c15.39-4.36,30.78-8.73,46.17-13.09
				C357.71,588.65,361.61,586.79,363.88,586.15L363.88,586.15z"/>
		</g>
	</g>
	<g>
		<g>
			<path d="M378.23,596.24c-33.18,9.86-65.87,21.6-97.8,34.97c-0.22,0.09-0.22,0.1,0.01,0.02c1.56-0.45,3.13-0.9,4.69-1.35
				c2.88-0.83,6.79-2.67,9.05-3.32c-4.77,1.37-2.44,0.43,0.64-0.85c2.96-1.22,5.94-2.43,8.91-3.62c8.43-3.37,16.91-6.62,25.47-9.63
				c13.21-4.64,26.54-8.92,39.96-12.91C372.06,598.71,375.97,596.92,378.23,596.24L378.23,596.24z"/>
		</g>
	</g>
	<g>
		<g>
			<path d="M371.43,613.93c-23.73,9.84-47.47,19.67-71.2,29.51c2.2-0.91,6.27-2.11,9.07-3.27c23.73-9.84,47.47-19.67,71.2-29.51
				C378.29,611.57,374.22,612.77,371.43,613.93L371.43,613.93z"/>
		</g>
	</g>
	<g>
		<g>
			<path d="M350.19,640.76c-12.28,3.74-24.46,8.28-35.96,14c3.13-1.14,6.26-2.28,9.4-3.42c0.87-0.57,1.74-1.14,2.62-1.7
				c-2.71,1.76-6.66,1.64-9.4,3.42c-0.87,0.57-1.74,1.14-2.62,1.7c2.66-1.73,6.52-1.99,9.4-3.42c5.69-2.83,11.43-5.4,17.51-7.25
				C344.01,643.21,347.93,641.45,350.19,640.76L350.19,640.76z"/>
		</g>
	</g>
	<g>
		<g>
			<path d="M379.61,620.94c0.27,1.03,0.54,2.07,0.82,3.1c-0.06-0.24,9.49-3.03,9.4-3.42c-0.72-2.88-1.45-5.76-2.17-8.64
				c0.09,0.35-9.49,2.88-9.4,3.42c0.37,2.16,1.31,4.02,2.82,5.6c0.26,0.28,4.25-1.49,4.72-1.66c0.45-0.16,4.68-1.36,4.68-1.76
				c0.02-1.45-0.7-2.58-2.01-3.19c-0.14-0.07-1.45,0.49-1.39,0.47c-1.11,0.39-2.22,0.79-3.33,1.2c-1.11,0.4-2.21,0.81-3.32,1.22
				c-0.21,0.08-1.21,0.61-1.36,0.53c1.31,0.61,2.02,1.75,2.01,3.19c3.13-1.14,6.26-2.28,9.4-3.42c-1.52-1.58-2.45-3.44-2.82-5.6
				c-3.13,1.14-6.26,2.28-9.4,3.42c0.72,2.88,1.45,5.76,2.17,8.64c3.13-1.14,6.26-2.28,9.4-3.42c-0.27-1.03-0.54-2.07-0.82-3.1
				C389.07,617.75,379.51,620.57,379.61,620.94L379.61,620.94z"/>
		</g>
	</g>
	<g>
		<g>
			<path d="M288.42,551.7c-2.34,0.36-4.58,1.36-6.79,2.17c-2.2,0.8-4.57,1.48-6.6,2.69c0.34-0.2,1.06-0.35,1.39-0.47
				c1.11-0.39,2.22-0.79,3.33-1.2c1.55-0.56,3.2-1.02,4.68-1.76c0.62-0.31,1.25-0.57,1.88-0.86c-7.13,2.47-9.3,3.27-6.52,2.4
				c-0.04,0.13-0.13,0.22-0.27,0.27c-0.18,0.11-0.36,0.22-0.55,0.32c-2.73,1.37-0.38,0.53,7.04-2.52c-0.34,0.04-0.3-0.01,0.13-0.15
				c0.24-0.1,0.47-0.21,0.71-0.31c0.22-0.09,0.22-0.1-0.01-0.03c-1.28,0.39-2.57,0.78-3.85,1.17c-1.96,0.59-3.87,1.37-5.79,2.07
				c-0.93,0.34-1.87,0.68-2.8,1.04c-0.08,0.03-0.92,0.35-0.46,0.21c0.86-0.26,1.71-0.52,2.57-0.78c0.24-0.07,0.7-0.31,0.92-0.26
				c-0.22-0.05-0.88,0.39-1.06,0.47c-0.05,0.02-0.11,0.05-0.16,0.07c2.59-0.58,5.1-1.68,7.58-2.59c1.94-0.71,3.94-1.32,5.65-2.49
				c-0.06,0.02-0.11,0.03-0.17,0.05c-2.87,0.84-5.68,1.94-8.49,2.98c-1.95,0.72-3.89,1.43-5.76,2.36c3.13-1.14,6.26-2.28,9.4-3.42
				c0.41-0.25,0.84-0.5,1.29-0.67c-2.86,1.04-5.73,2.08-8.59,3.11c0.62-0.21,1.25-0.36,1.9-0.46c1.56-0.24,3.23-1.12,4.72-1.66
				c1.11-0.4,2.21-0.81,3.32-1.22C287.47,552.08,287.98,551.77,288.42,551.7L288.42,551.7z"/>
		</g>
	</g>
	<g>
		<g>
			<path d="M394.1,453.1c0.05,0,0.11,0,0.16,0c1.55-0.04,8.52-4.18,9.4-3.42c-1.2-1.03-5.62,1.41-6.82,1.86
				c-3.6,1.32-5.66,3.13-8.31,6.03c3.13-1.14,6.26-2.28,9.4-3.42c1.27-1.46,2.58-2.6,4.19-3.66c-3.13,1.14-6.26,2.28-9.4,3.42
				c-0.83,0.58-3.52,1.78-2.39,2.11c0.65,0.19,1.49-0.14,2.09-0.28c1.53-0.36,3.07-1.08,4.54-1.61c0.86-0.31,8.66-2.86,7.71-4.11
				c-0.26-0.35-8.67,2.92-9.4,3.42c-1.21,0.84,6.43,2.63,7.22,2.84c3.13-1.14,6.26-2.28,9.4-3.42c-2.45-0.51-4.9-1.02-7.35-1.52
				c-2.76-0.57-6.76,4.11-9.4,3.42c14.11,3.68,26.08,11.88,37.58,20.55c5.85,4.41,11.6,8.94,17.63,13.1
				c2.99,2.06,6.04,4.05,9.19,5.86c0.45,0.26,0.9,0.51,1.35,0.77c1.71,0.36,1.82,1,0.32,1.93c-0.54,1.85-2.15,3.62-2.76,5.6
				c3.13-1.14,6.26-2.28,9.4-3.42c-0.68-2.56-1.36-5.12-2.04-7.68c0.03,0.11-8.61,2.99-9.4,3.42c-1.46,0.81-1.62,2.19-0.49,3.35
				c1.01,1.03,8.48-4.36,9.4-3.42c-1.17-1.19-0.93-2.57,0.49-3.35c-3.13,1.14-6.26,2.28-9.4,3.42c0.68,2.56,1.36,5.12,2.04,7.68
				c-0.14-0.53,9.11-2.49,9.4-3.42c0.65-2.11,1.95-3.65,2.76-5.6c1.32-0.73,1.44-1.25,0.36-1.55c-0.68-0.37-1.36-0.75-2.03-1.14
				c-3.15-1.81-6.2-3.8-9.19-5.86c-6.03-4.16-11.79-8.69-17.63-13.1c-11.51-8.67-23.46-16.87-37.58-20.55
				c-3.13,1.14-6.26,2.28-9.4,3.42c2.45,0.51,4.9,1.02,7.35,1.52c2.75,0.57,6.78-4.12,9.4-3.42c-0.79-0.21-8.43-2-7.22-2.84
				c-3.13,1.14-6.26,2.28-9.4,3.42c0.69,0.9-2.82,2.26-2.86,2.28c3.08-1.12,6.16-2.23,9.23-3.35c-3.92,0.74-1.62-0.43,0.47-1.88
				c-2.63,1.83-6.69,1.64-9.4,3.42c-1.62,1.06-2.93,2.2-4.19,3.66c1.9-2.18,7.39-1.23,9.4-3.42c1.54-1.69,3.15-3.24,4.88-4.73
				c-3.13,1.14-6.26,2.28-9.4,3.42c0.36-0.14,0.65-0.05,0.85,0.26c3.13-1.14,6.26-2.28,9.4-3.42c-0.05,0-0.11,0-0.16,0
				C400.32,449.77,397.24,453.02,394.1,453.1L394.1,453.1z"/>
		</g>
	</g>
	<g>
		<g>
			<path d="M270.28,576.07c0.19-1.71,0.38-3.41,0.57-5.12c0,0.03-1.59,0.54-1.39,0.47c-1.11,0.39-2.22,0.79-3.33,1.2
				c-1.11,0.4-2.21,0.81-3.32,1.22c-0.17,0.07-1.35,0.4-1.36,0.53c-0.19,1.71-0.38,3.41-0.57,5.12c0-0.03,1.59-0.54,1.39-0.47
				c1.11-0.39,2.22-0.79,3.33-1.2c1.11-0.4,2.21-0.81,3.32-1.22C269.09,576.54,270.26,576.2,270.28,576.07L270.28,576.07z"/>
		</g>
	</g>
	<g>
		<g>
			<path d="M369.19,577.08c4.07-3.56,7.73-7.44,11.04-11.71c-0.6,0.77-3.76,1.32-4.72,1.66c-1.4,0.51-3.48,0.84-4.68,1.76
				c-5.05,3.87-9.46,8.27-13.35,13.3c0.59-0.77,3.77-1.32,4.72-1.66c1.34-0.49,3.59-0.81,4.68-1.76
				c17.45-15.06,31.88-34.03,52.74-44.72c-3.13,1.14-6.26,2.28-9.4,3.42c-4.23,2.84-8.45,5.68-12.68,8.53
				c2.67-1.79,6.7-1.61,9.4-3.42c4.23-2.84,8.45-5.68,12.68-8.53c-2.62,1.76-6.55,1.96-9.4,3.42
				c-20.86,10.69-35.29,29.66-52.74,44.72c3.13-1.14,6.26-2.28,9.4-3.42c3.89-5.04,8.3-9.43,13.35-13.3
				c-3.13,1.14-6.26,2.28-9.4,3.42c-3.32,4.27-6.98,8.15-11.04,11.71C362.11,578.47,366.84,579.15,369.19,577.08L369.19,577.08z"/>
		</g>
	</g>
</g>
</svg>
