<svg width="283" height="283" viewBox="0 0 283 283" fill="none" xmlns="http://www.w3.org/2000/svg">
<path d="M249.224 137.626C249.178 137.623 249.128 137.623 249.082 137.623C249.058 137.605 249.019 137.605 248.959 137.619C248.891 137.619 248.824 137.612 248.757 137.612C247.682 137.534 246.606 137.563 245.531 137.634C245.527 137.634 245.527 137.634 245.524 137.634C245.032 137.588 244.544 137.549 244.052 137.52C244.042 137.517 244.027 137.513 244.017 137.51C244.898 137.329 245.782 137.149 246.663 136.972C246.228 136.919 245.793 136.873 245.354 136.834C245.81 136.707 246.267 136.583 246.719 136.452C246.719 136.445 246.716 136.441 246.716 136.438C246.73 136.434 246.744 136.434 246.758 136.431C246.811 136.378 246.772 136.275 246.695 136.279C245.251 136.307 243.801 136.311 242.354 136.342C239.209 135.624 235.934 135.391 232.799 136.038C232.46 136.059 232.163 136.084 231.894 136.112C231.756 136.098 231.614 136.091 231.459 136.105C231.098 136.095 230.691 136.088 230.252 136.081C227.751 135.599 225.671 135.508 222.601 135.486C222.551 135.486 222.502 135.49 222.452 135.49C221.554 135.416 220.655 135.373 219.753 135.419C217.383 135.525 214.164 135.851 212.568 135.932C211.567 135.833 210.563 135.745 209.565 135.649C207.821 135.493 206.07 135.419 204.319 135.426C202.32 135.274 200.318 135.2 198.312 135.292C197.697 135.295 197.081 135.309 196.466 135.327C192.288 135.157 188.064 135.193 183.893 135.635C180.809 135.377 177.717 135.235 174.618 135.267C172.885 135.299 171.148 135.292 169.414 135.355C168.891 135.278 168.36 135.288 167.837 135.345C167.101 135.2 166.365 135.065 165.622 134.977C165.035 134.931 164.448 134.899 163.861 134.878C161.483 134.549 159.662 134.361 156.418 134.245C152.831 134.117 149.251 134.28 145.667 134.482C144.252 134.46 142.837 134.485 141.429 134.655C141.376 134.666 141.323 134.683 141.274 134.697C135.589 133.636 129.695 133.558 123.933 133.965C119.5 133.488 115.071 132.953 110.607 132.858C105.598 132.607 98.7741 132.575 95.3215 132.062C94.9465 132.023 94.5751 132.097 94.2425 132.249C93.3652 132.129 92.5834 132.041 91.9927 131.966C89.1733 131.705 86.3468 131.609 83.5168 131.591C82.2256 131.301 80.8495 131.255 79.5584 131.167C73.4491 130.82 67.3257 131.1 61.2164 131.316C59.6811 131.383 58.1459 131.443 56.6141 131.528C55.896 131.595 54.8949 131.581 54.0282 131.779C52.4788 131.882 51.0992 132.876 50.0733 134.192C49.5887 134.397 49.1146 134.63 48.6618 134.91C48.0357 135.189 47.6006 135.808 47.5581 136.459C47.5475 136.47 47.5369 136.477 47.5298 136.487C47.1796 136.848 46.9709 137.372 46.9426 137.895C46.8612 138.281 46.886 138.674 47.0063 139.041C45.3932 138.995 44.477 141.033 45.8354 142.066C45.8672 142.091 45.9026 142.108 45.9344 142.13C46.5393 142.866 47.6147 142.894 48.4956 142.989C49.1854 143.053 49.8787 143.103 50.5721 143.149C53.0377 143.849 56.0411 144.882 58.3864 145.533C57.1978 145.759 56.0128 146.032 54.8206 146.216C54.7145 146.233 54.6119 146.251 54.5058 146.269C53.6462 146.399 52.7866 146.548 51.934 146.718C51.4388 146.81 50.9471 146.905 50.4553 147.015C48.7786 146.127 46.3943 146.835 45.3826 147.061C45.0571 147.16 44.7104 147.27 44.3567 147.39C44.2612 147.415 44.1657 147.439 44.0702 147.461C43.2671 146.559 40.798 147.443 39.4891 148.009C39.1849 148.105 38.9019 148.232 38.6613 148.423C38.5446 148.518 38.4561 148.639 38.3889 148.77C38.3429 148.794 38.2934 148.816 38.2474 148.844C38.2121 148.865 38.1944 148.908 38.205 148.95C38.2297 148.982 38.2616 149.01 38.2899 149.038C38.1979 149.41 38.2757 149.824 38.534 150.103C38.4844 150.245 38.4632 150.393 38.4738 150.538C38.113 150.729 37.7486 150.913 37.3878 151.104C37.3878 151.108 37.3914 151.108 37.3914 151.111C37.2817 151.182 37.2003 151.278 37.1791 151.426C37.1473 151.582 37.2251 151.734 37.3454 151.826C36.9244 152.304 36.5388 152.813 36.1745 153.337C35.467 154.38 34.8231 155.487 34.2854 156.641C33.5779 157.861 32.9836 159.145 32.3292 160.39C32.2089 160.588 32.1488 160.801 32.1311 161.006C30.9036 162.594 29.6973 164.2 28.5688 165.863C28.1903 166.411 27.8366 166.974 27.5076 167.554C27.3661 167.791 27.0972 168.247 27.3661 168.417C27.2034 168.626 27.0477 168.838 26.8991 169.057C26.7506 169.368 26.7541 169.68 26.8567 169.959C26.8107 169.984 26.7682 170.009 26.7223 170.034C26.5843 170.097 26.4428 170.164 26.3048 170.242C25.9688 170.426 25.9051 170.879 26.0926 171.176C25.8662 171.303 25.6398 171.431 25.4169 171.558C25.332 171.608 25.3603 171.732 25.4381 171.76C25.3391 171.806 25.24 171.852 25.1445 171.898C25.4381 171.859 25.7282 171.813 26.0183 171.767C25.8202 171.993 25.6256 172.227 25.4346 172.467C25.3532 172.538 25.2719 172.612 25.1905 172.683C25.233 172.662 25.2754 172.644 25.3143 172.623C25.141 172.853 24.9677 173.086 24.8049 173.334C25.4629 172.825 26.1456 172.351 26.8461 171.905C30.4437 171.862 33.9211 170.883 37.3454 169.775C37.5541 169.729 37.7663 169.683 37.975 169.641C38.0599 169.623 38.1413 169.602 38.2262 169.584C38.4278 169.821 38.6507 170.041 38.8877 170.246C38.8453 170.511 38.8028 170.776 38.7674 171.042C38.5198 172.775 38.5835 174.572 39.0292 176.27C38.8028 176.967 38.6613 177.664 38.6295 178.364C38.6083 179.656 39.0469 180.929 39.8145 181.958C39.7296 182.319 39.6412 182.68 39.5422 183.037C39.4431 183.388 39.3405 183.741 39.2415 184.099C38.8948 184.877 38.5057 185.761 38.067 186.904C37.6744 187.771 37.5364 188.857 37.8265 189.773C37.7628 189.974 37.7027 190.176 37.6567 190.381C37.4727 191.025 37.4586 191.637 37.5824 192.171C37.402 192.263 37.2357 192.38 37.0907 192.528C36.3549 193.328 36.0117 193.583 35.9304 193.636C35.9091 193.65 35.8915 193.668 35.8702 193.682C35.8702 193.798 35.8667 193.919 35.849 194.046C35.75 194.796 35.7464 195.539 35.6509 196.282C35.658 196.391 35.6651 196.498 35.6721 196.607C35.9091 196.579 36.1285 196.551 36.2983 196.54C37.83 196.452 39.3334 196.048 40.8581 196.006C40.8652 196.006 40.8687 196.006 40.8758 196.006C41.0987 195.907 41.3215 195.808 41.5444 195.705C41.6328 195.663 41.7213 195.624 41.8097 195.581C42.0432 195.599 42.2873 195.578 42.542 195.511C42.9665 195.412 43.3697 195.249 43.7659 195.068C44.3779 194.998 44.9793 194.888 45.5771 194.75C45.8814 195.005 46.2599 195.192 46.6879 195.295C48.5875 195.702 50.328 194.513 52.1038 194.018C52.4611 193.894 52.8184 193.777 53.1757 193.657C54.6048 193.625 56.2887 193.094 57.495 192.702C57.6683 193.041 58.0221 193.3 58.4218 193.3C58.818 193.321 59.1824 193.201 59.529 193.024C59.6281 193.123 59.7377 193.215 59.8545 193.293C59.9288 193.278 59.9995 193.261 60.0703 193.247C61.3084 192.861 62.5819 192.62 63.8731 192.433C65.7869 191.98 67.7042 191.534 69.5685 190.926C70.467 190.632 71.3867 190.583 72.2676 190.236C72.876 189.996 73.4739 189.727 74.0823 189.483C75.6247 188.871 77.2837 188.478 78.865 187.976C79.9793 187.622 81.1467 187.219 82.2964 186.999C83.6406 186.741 84.9318 186.058 86.3433 185.814C88.8231 185.386 90.0329 184.887 91.9856 184.198C92.7179 183.48 93.9135 183.324 94.9111 183.706C96.7188 183.034 98.5406 182.411 100.373 181.813C105.333 180.685 110.267 179.447 115.177 178.127C116.125 178.149 117.123 177.83 117.965 177.462C118.372 177.314 118.782 177.172 119.189 177.031C119.362 176.981 119.536 176.935 119.709 176.886C119.797 177.002 119.893 177.105 119.988 177.19C121.457 176.596 122.978 176.146 124.524 175.793C124.761 175.718 125.001 175.648 125.238 175.577C126.342 175.117 127.456 174.703 128.602 174.349C129.281 174.141 129.982 173.946 130.693 173.776C134.114 172.552 137.994 171.208 141.634 171.162C141.96 171.045 142.285 170.928 142.614 170.815C144.471 170.373 146.336 169.949 148.204 169.538C149.265 168.728 150.959 168.604 152.169 168.148C153.956 167.476 155.59 166.634 157.444 166.107C157.599 166.061 157.755 166.018 157.914 165.976C159.492 165.272 161.349 164.865 162.81 164.465C163.432 164.292 163.981 164.317 164.441 164.473C166.27 163.91 168.162 163.471 169.956 162.941C170.147 162.884 170.345 162.824 170.543 162.76C170.762 162.393 171.049 162.067 171.402 161.83C172.287 161.236 173.603 160.967 174.77 161.165C175.63 160.992 176.514 160.907 177.356 160.705C177.48 160.677 177.6 160.641 177.724 160.606C180.076 159.665 182.5 158.873 184.937 158.3C188.032 157.369 191.237 156.361 194.386 155.961C194.453 155.954 194.52 155.947 194.587 155.944C194.775 155.88 194.962 155.816 195.15 155.753C196.65 155.332 198.16 154.943 199.678 154.582C200.056 154.518 200.371 154.362 200.629 154.15C201.188 154.037 201.744 153.924 202.303 153.803C203.01 153.375 203.845 153.149 204.683 152.951C206.158 152.608 207 152.12 208.652 151.593C211.394 150.715 213.828 149.686 216.371 148.628C217.896 147.991 219.608 147.273 221.218 146.888C221.465 146.828 221.702 146.785 221.932 146.746C222.18 146.612 222.445 146.477 222.505 146.442C222.923 146.201 223.386 146.007 223.821 145.802C224.327 145.565 224.833 145.328 225.353 145.122C225.675 145.013 225.993 144.9 226.308 144.776C226.867 144.549 227.005 144.549 226.725 144.772C227.008 144.617 227.316 144.525 227.627 144.486C227.822 144.411 228.013 144.337 228.208 144.281C228.349 144.238 228.445 144.21 228.501 144.192C228.657 144.068 228.813 143.937 228.989 143.838C230.026 143.248 231.239 142.851 232.378 142.529C232.428 142.515 232.481 142.498 232.534 142.483C232.959 142.275 233.383 142.059 233.797 141.818C233.988 141.709 234.179 141.624 234.366 141.564C234.328 141.507 234.289 141.454 234.239 141.405C235.095 141.203 235.951 140.987 236.804 140.778C237.801 140.566 238.802 140.372 239.789 140.106C241.017 140.028 242.241 139.887 243.454 139.629C245.425 139.236 247.328 138.543 249.273 138.076C249.429 137.984 249.415 137.697 249.224 137.626ZM27.3661 171.661C27.5182 171.59 27.6738 171.523 27.826 171.452C28.017 171.417 28.2045 171.385 28.3955 171.346C28.0524 171.459 27.7092 171.558 27.3661 171.661ZM39.8039 157.507C39.7509 157.546 39.6943 157.589 39.6412 157.627C39.7226 157.497 39.8075 157.369 39.8924 157.242C39.9773 157.168 40.0586 157.097 40.1435 157.026C40.0268 157.185 39.9171 157.348 39.8039 157.507ZM65.327 140.722C65.5216 140.729 65.7161 140.736 65.9107 140.743C65.9248 140.793 65.9461 140.842 65.9637 140.892C65.7515 140.835 65.5392 140.778 65.327 140.722Z" fill="#EBD85B"/>
<path d="M249.645 138.706C248.092 138.514 246.532 138.458 244.968 138.472C244.926 138.44 244.883 138.412 244.834 138.384C244.402 138.132 243.889 138.2 243.405 138.186C243.759 137.687 243.617 136.894 243.055 136.583C242.874 136.495 242.683 136.456 242.489 136.438V136.431C242.471 136.434 242.453 136.434 242.436 136.438C241.94 136.413 241.413 136.548 240.925 136.541C238.827 136.735 236.74 137.011 234.664 137.333C232.99 137.52 231.317 137.708 229.647 137.91C228.841 138.002 228.034 138.104 227.228 138.207C226.878 138.002 226.485 137.867 226.071 137.8C223.284 137.418 220.415 137.315 217.638 137.832C217.068 137.938 216.502 138.069 215.94 138.21C213.347 138.026 210.74 138.026 208.154 138.224C206.491 138.362 204.839 138.557 203.191 138.797C199.356 138.624 195.507 138.603 191.687 138.996C191.421 138.957 191.156 138.925 190.901 138.886C187.852 138.546 184.774 138.713 181.714 138.826C179.256 138.886 176.811 139.063 174.371 139.321C172.142 139.318 169.91 139.399 167.688 139.565C167.373 139.551 167.062 139.544 166.754 139.526C165.258 139.523 163.762 139.636 162.272 139.756C158.374 139.417 152.855 139.027 150.853 140.439C150.793 140.439 150.733 140.435 150.673 140.435C150.39 140.301 150.1 140.177 149.824 140.06C147.447 139.208 144.861 139.063 142.36 138.843C138.822 138.843 135.295 139.406 131.829 140.067C130.852 140.304 129.886 140.577 128.924 140.863C127.909 140.991 126.918 141.122 125.79 141.238C124.308 141.38 122.822 141.497 121.336 141.603C118.68 141.567 116.023 141.649 113.366 141.797C106.242 142.204 99.1243 142.728 92.0069 143.219C85.8021 143.676 79.5832 143.983 73.4209 144.889C70.6404 145.324 67.8811 145.862 65.1077 146.332C64.8637 146.375 64.6231 146.417 64.379 146.46C63.9864 146.141 63.484 145.936 62.9888 145.89C62.7588 145.865 62.5324 145.851 62.3025 145.837C62.1468 145.816 61.9912 145.798 61.832 145.784C59.4371 144.988 56.8512 145.505 54.382 145.589C52.6663 145.752 50.9683 146.078 49.3128 146.559C48.8918 146.622 47.8058 146.806 47.537 146.859C47.162 146.902 46.7906 146.973 46.4616 147.174C46.4616 147.174 46.4616 147.174 46.458 147.178C45.8531 147.284 45.2518 147.397 44.6504 147.525C43.8934 147.673 43.1257 147.779 42.4147 148.094C42.397 148.101 42.3793 148.108 42.3652 148.115C41.6258 148.122 40.8794 148.045 40.1436 148.119C39.6236 148.182 39.3123 148.522 39.0859 148.95C38.7887 149.017 38.5199 149.148 38.343 149.414C38.2652 149.541 38.2687 149.707 38.343 149.834C38.2369 150.015 38.1661 150.209 38.1272 150.411C38.0459 150.563 37.9963 150.719 37.9787 150.882C37.494 151.54 37.2712 152.442 36.9139 153.153C36.7582 153.524 36.4328 154.207 35.9269 155.13C34.5261 156.828 33.2384 158.611 32.163 160.539C31.8093 161.186 31.4449 161.83 31.1018 162.488C30.7834 163.019 30.5039 163.542 30.2811 164.038C29.4391 164.872 28.5972 165.707 27.7553 166.539C27.1398 167.143 26.5242 167.752 25.937 168.382C25.6752 168.64 25.5054 168.969 25.4276 169.323C24.4548 169.913 23.6695 170.596 23.5952 171.399C23.4466 172.149 23.8711 172.895 24.5008 173.292C25.1764 173.709 25.9759 173.543 26.6728 173.267C27.3838 172.995 28.0913 172.715 28.7882 172.411C30.3766 171.774 31.8376 170.907 33.2667 169.977C33.999 169.821 34.7312 169.666 35.4706 169.553C35.7606 169.496 36.4115 169.4 37.2429 169.287C39.9915 169.708 42.7649 168.962 45.4605 168.399C46.4686 168.336 47.4768 168.279 48.485 168.226C49.6241 168.169 50.9259 168.254 51.8244 167.426C51.8916 167.363 51.9482 167.289 52.0048 167.218C53.4835 166.995 54.9303 166.818 56.5611 166.666C57.0705 166.662 57.5835 166.645 58.0929 166.609C59.1612 166.489 60.4665 166.733 61.3014 165.923C61.5242 165.711 61.6764 165.456 61.7648 165.18C62.0867 165.201 62.4122 165.223 62.7341 165.244C63.5689 165.293 64.5134 165.378 65.2315 164.869C65.4084 164.759 65.5605 164.635 65.6843 164.501C65.9355 164.487 66.1867 164.469 66.4308 164.462C70.0319 164.183 73.6048 163.652 77.1706 163.072C77.6022 163.036 78.0338 162.998 78.4618 162.959C78.6245 163.199 78.8509 163.39 79.1339 163.493C79.5231 163.716 79.9759 163.592 80.3968 163.556C81.3661 163.461 82.3141 163.256 83.2693 163.065C84.8965 162.732 86.5238 162.382 88.1475 162.042C89.0566 161.83 89.9693 161.639 90.882 161.459C95.1659 160.914 99.2305 160.397 103.603 159.8C106.065 159.474 108.516 159.096 110.975 158.742C112.22 158.491 113.625 158.466 114.81 157.964C115.001 157.942 115.195 157.918 115.397 157.896C115.97 158.063 116.603 157.946 117.197 157.939C118.322 157.854 119.437 157.688 120.551 157.529C121.294 157.511 122.037 157.5 122.78 157.49C123.063 157.49 123.324 157.419 123.568 157.277C123.572 157.274 123.576 157.27 123.583 157.267C124.87 157.185 126.154 157.104 127.442 157.009C128.503 156.927 129.773 156.701 130.247 156.648C131.386 156.538 132.589 156.577 133.622 156.018C133.824 155.926 134.004 155.788 134.16 155.625C134.85 155.565 135.628 155.516 136.636 155.487C137.97 155.452 139.31 155.438 140.64 155.583C141.366 155.732 142.094 155.944 142.834 155.774C143.661 155.611 144.316 154.883 144.38 154.044C144.564 154.005 144.751 153.97 144.935 153.924C145.996 153.697 147.231 153.482 148.572 153.284C151.034 153.128 153.492 152.986 155.958 152.863C156.389 152.831 156.821 152.81 157.253 152.767C157.369 152.76 157.603 152.732 157.776 152.707C158.179 152.679 158.59 152.608 158.88 152.297C158.912 152.265 158.936 152.226 158.965 152.19C160.613 152.113 162.265 152.106 163.91 152.017C164.83 151.932 166.004 152.18 166.599 151.288C166.761 151.104 166.864 150.889 166.921 150.662C168.555 150.648 170.189 150.623 171.806 150.4C172.241 150.355 172.612 150.139 172.892 149.831C175.025 149.711 177.155 149.569 179.284 149.421C179.358 149.46 179.45 149.463 179.549 149.442C179.687 149.506 179.949 149.403 180.356 149.406C180.986 149.364 181.615 149.314 182.249 149.268C184.608 149.088 186.968 148.865 189.32 148.607C194.372 148.03 198.677 147.379 203.495 146.516C204.804 146.364 206.109 146.194 207.411 146C210.113 145.586 210.824 145.575 213.87 145.084C214.953 144.886 216.035 144.62 217.001 144.083C217.065 144.061 217.128 144.04 217.188 144.008C217.27 143.98 217.344 143.941 217.418 143.899C218.455 143.693 219.491 143.488 220.528 143.28C220.645 143.251 220.726 143.166 220.765 143.064C221.433 143.117 222.102 143.184 222.771 143.251C223.453 143.283 224.196 143.531 224.836 143.202C225.059 143.124 225.25 142.997 225.413 142.841C227.659 142.703 229.895 142.476 232.113 142.038C232.131 142.034 232.148 142.031 232.163 142.027C232.852 141.914 233.539 141.783 234.221 141.635C234.462 141.543 234.695 141.49 234.922 141.472C235.47 141.341 236.015 141.203 236.556 141.044C236.882 141.03 237.204 141.019 237.529 141.001C238.127 140.984 238.728 140.962 239.326 140.945C240.264 140.605 241.272 140.375 242.305 140.212C242.807 140.085 243.309 139.965 243.787 139.841C244.342 139.696 244.908 139.586 245.478 139.516C245.478 139.466 245.474 139.413 245.471 139.363C246.875 139.098 248.269 138.865 249.645 138.706Z" fill="#F3EE92"/>
<path d="M96.9878 182.744C88.3952 185.022 79.8026 187.303 71.21 189.582C70.0745 189.882 69.0168 190.491 67.8848 190.791C76.4774 188.513 85.0699 186.232 93.6625 183.953C94.8016 183.649 95.8558 183.044 96.9878 182.744Z" fill="black"/>
<path d="M142.6 170.157C137.524 171.54 132.469 172.984 127.428 174.487C126.409 174.791 125.026 175.425 124.227 175.662C129.225 174.169 134.241 172.736 139.275 171.367C140.414 171.059 141.472 170.465 142.6 170.157Z" fill="black"/>
<path d="M233.38 142.027C226.97 144.457 220.56 146.888 214.15 149.318C213.52 149.555 214.698 149.145 214.755 149.123C215.515 148.855 216.272 148.575 217.026 148.289C223.436 145.858 229.846 143.428 236.256 140.998C236.885 140.761 235.707 141.171 235.651 141.192C234.89 141.465 234.133 141.741 233.38 142.027Z" fill="black"/>
<path d="M195.942 155.388C180.826 159.191 165.888 163.751 150.899 168.031C149.88 168.321 148.497 168.979 147.698 169.206C162.644 164.939 177.544 160.39 192.617 156.598C193.76 156.311 194.81 155.671 195.942 155.388Z" fill="black"/>
<path d="M246.242 138.539C246.277 138.532 246.302 138.525 246.327 138.518C247.193 138.458 248.057 138.309 248.906 138.129C247.908 137.895 246.882 137.906 245.856 138.012C244.466 137.91 243.051 137.956 241.661 138.175C241.618 138.171 241.579 138.168 241.537 138.161C240.097 138.04 238.668 138.136 237.249 138.359C237.101 138.345 236.952 138.331 236.804 138.32C236.581 137.828 236.153 137.425 235.605 137.266C234.161 136.951 232.647 137.156 231.179 137.138C228.897 137.234 226.612 137.393 224.338 137.634C224.334 137.634 224.331 137.634 224.331 137.634C219.183 137.294 214.005 136.88 208.865 137.499C208.755 137.492 208.642 137.485 208.532 137.478C205.677 137.411 202.702 136.452 199.918 137.443C199.144 137.757 198.337 138.143 197.785 138.787C197.739 138.783 197.693 138.783 197.651 138.776C195.648 138.631 193.646 138.465 191.648 138.302C189.101 138.139 186.561 137.867 184.003 137.892C180.731 137.846 177.434 137.754 174.208 138.394C171.866 138.744 169.563 139.307 167.313 140.046C165.863 139.622 164.214 139.516 162.955 139.353C159.686 138.988 156.4 138.762 153.11 138.691C142.83 138.433 132.585 139.714 122.401 140.966C120.024 141.274 117.611 141.525 115.333 142.31C115.135 142.388 114.937 142.459 114.735 142.537C114.629 142.547 114.527 142.565 114.42 142.579C110.013 142.413 105.605 142.211 101.197 142.353C96.2447 142.558 91.363 143.456 86.5485 144.595C86.1523 144.429 85.749 144.284 85.3457 144.16C82.1726 143.258 78.8402 143.605 75.6246 144.075C72.8442 144.546 69.9364 145.222 67.0179 145.972C64.86 145.964 62.7092 146.095 60.5655 146.322C60.378 146.265 60.1799 146.24 59.9818 146.233V146.226C59.9712 146.226 59.9571 146.23 59.9465 146.23C59.4972 146.219 59.0338 146.293 58.5916 146.311C56.9714 146.446 55.3477 146.538 53.7311 146.718C53.1403 146.785 52.5566 146.881 51.9729 146.99C50.71 147.043 49.4578 147.263 48.2126 147.514C47.2893 147.521 46.3872 147.747 45.4958 147.999C44.9156 147.804 44.2081 147.846 43.628 148.009C43.4935 148.03 43.3556 148.055 43.2212 148.08C43.3803 147.949 43.4829 147.793 43.3874 147.567C43.2954 147.365 43.1186 147.312 42.9063 147.333V147.33C42.9028 147.33 42.8992 147.333 42.8957 147.333C42.6481 147.365 42.3545 147.496 42.0821 147.638C41.9476 147.687 41.8168 147.737 41.6823 147.79C40.9819 148.083 40.094 148.271 39.6872 148.947C39.1 149.155 38.6295 149.527 38.5693 150.259C38.5516 150.358 38.5446 150.457 38.5481 150.56C37.7734 151.041 37.0411 151.6 36.3266 152.162C33.4718 154.377 31.0698 157.373 30.005 160.857C29.906 161.321 29.8848 161.731 29.9308 162.088C29.4673 162.63 29.0287 163.189 28.6502 163.797C27.9674 164.795 27.4262 166.386 27.7234 167.547C27.6278 167.943 27.6809 168.35 27.8436 168.711C27.6774 168.856 27.5217 169.015 27.4014 169.209C26.6338 170.352 27.3767 172.114 28.7846 172.22C29.4178 172.351 30.044 172.025 30.663 171.908C31.703 171.622 32.6971 171.194 33.6911 170.78C36.0471 170.239 38.4526 169.892 40.8227 169.446C47.6112 168.226 54.3643 166.818 61.1032 165.339C61.1598 165.35 61.2164 165.364 61.2766 165.368C61.8992 165.47 62.5182 165.216 63.1408 165.173C64.2905 164.961 65.4331 164.724 66.5686 164.455C67.6157 164.25 68.6629 164.045 69.71 163.847C70.3715 163.758 70.9799 163.673 71.4858 163.599C71.9067 163.521 72.3242 163.44 72.7416 163.355C76.219 162.884 79.5265 162.506 83.7008 161.834C86.0886 161.462 88.4693 161.048 90.8536 160.642C94.4831 160.291 98.2364 160.093 102.425 160.192C103.482 160.171 104.614 160.521 105.587 159.966C105.991 159.743 106.277 159.368 106.429 158.944C106.854 159.248 107.398 159.393 107.968 159.265C116.094 158.321 125.082 155.714 132.702 154.377C134.878 154.394 137.053 154.462 139.225 154.532C141.008 154.497 145.646 155.137 148.009 154.451C148.607 154.43 149.205 154.27 149.802 154.21C151.348 153.924 152.891 153.63 154.426 153.301C156.407 152.887 158.109 152.541 159.707 152.254C161.501 152.106 163.408 151.939 165.003 151.72C167.384 151.497 169.768 151.203 172.163 151.196C172.637 151.2 173.04 151.037 173.362 150.779C176.005 150.542 178.644 150.231 181.254 149.735C181.456 150.1 181.771 150.397 182.185 150.542C183.628 151.097 185.153 150.206 186.564 149.888C187.183 149.693 187.806 149.52 188.432 149.357C188.704 149.428 189.002 149.474 189.32 149.477C190.286 149.463 191.188 149.12 192.09 148.819C192.507 148.692 192.925 148.565 193.338 148.434C193.278 148.441 193.218 148.451 193.158 148.458C193.176 148.455 193.193 148.451 193.211 148.448C193.257 148.441 193.303 148.437 193.346 148.43C193.36 148.427 193.377 148.419 193.392 148.416C195.532 148.069 200.845 147.974 202.366 146.371C202.678 146.304 202.989 146.237 203.3 146.17C206.618 145.773 209.944 145.437 213.265 145.069C215.766 144.726 218.313 144.496 220.726 143.725C221.32 143.573 221.748 143.152 221.971 142.639C222.721 142.717 223.467 142.798 224.217 142.866C226.145 142.975 228.08 142.866 230.005 142.735C230.804 142.706 231.607 142.667 232.407 142.675C232.828 142.678 233.277 142.738 233.655 142.519C234.313 142.289 234.78 141.61 234.84 140.916C235.594 140.828 236.358 140.69 236.747 139.968C236.765 139.937 236.775 139.901 236.793 139.866C237.027 139.82 237.26 139.777 237.497 139.742C239.376 139.813 241.714 139.834 242.853 139.604C244.275 139.388 245.771 139.222 247.116 138.723C246.702 138.702 246.284 138.67 245.867 138.635C245.991 138.599 246.114 138.575 246.242 138.539Z" fill="#F1EEAF"/>
<path d="M193.672 148.381C193.562 148.395 193.452 148.409 193.339 148.423C193.335 148.423 193.331 148.427 193.328 148.427C193.441 148.413 193.558 148.398 193.672 148.381Z" fill="#F1EEAF"/>
<path d="M233.977 141.521C233.213 141.716 232.442 141.875 231.674 142.045C229.591 142.321 227.532 142.459 225.494 143.127C224.967 143.286 224.437 143.46 223.931 143.683C222.265 143.654 220.591 143.729 218.939 143.944C215.154 143.927 211.376 144.493 207.973 146.191C205.426 146.127 202.865 146.438 200.346 146.948C199.225 147.149 198.111 147.401 197.007 147.691C195.408 147.754 193.834 148.055 192.288 148.455C186.794 148.685 181.329 149.389 175.959 150.563C175.623 150.641 175.287 150.719 174.951 150.793C173.776 150.92 172.616 151.104 171.434 151.37C171.364 151.377 171.296 151.384 171.226 151.394C171.176 151.401 171.127 151.409 171.074 151.416C171.134 151.405 171.109 151.405 170.893 151.43C170.692 151.451 170.49 151.476 170.292 151.504C169.751 151.444 169.199 151.423 168.686 151.377C165.17 151.271 161.717 152.063 158.289 152.76C157.504 152.884 158.063 152.795 157.019 152.912C153.995 153.216 150.988 153.637 148.002 154.203C147.337 154.366 146.665 154.518 145.996 154.674C144.128 154.755 142.257 154.897 140.389 154.999C138.879 155.059 137.382 155.218 135.883 155.406C134.857 155.47 133.834 155.537 132.808 155.608C128.181 156.089 123.53 156.641 119.019 157.811C118.475 157.953 117.93 158.101 117.388 158.254C114.824 158.285 112.263 158.544 109.726 158.908C109.447 158.951 109.167 158.993 108.888 159.035C107.625 159.085 106.362 159.17 105.106 159.322C102.435 159.679 100.2 160.136 98.6433 160.567C98.0419 160.769 97.5962 160.924 97.2389 161.062C96.9913 161.119 96.7401 161.179 96.4925 161.236C96.0715 161.243 95.6506 161.25 95.2296 161.253C91.7345 161.225 88.2572 161.632 84.8223 162.251C80.2412 163.068 75.6708 163.96 71.1675 165.131C70.3999 164.741 69.4837 164.911 68.6524 164.964C65.2847 165.173 61.9594 165.764 58.6412 166.34C56.1225 166.836 53.6144 167.384 51.117 167.971C49.7232 168.102 48.333 168.233 46.9392 168.364C45.3332 168.555 42.8038 168.516 41.548 169.634C41.0386 169.513 40.4868 169.577 40.0375 169.85C40.0021 169.867 39.9809 169.878 39.9597 169.888C39.9279 169.903 39.8925 169.913 39.8606 169.927C39.284 170.186 38.5765 170.32 38.2228 170.886C38.2051 170.904 38.1945 170.928 38.1768 170.946C37.9398 171.017 37.7134 171.112 37.5294 171.289C36.4116 172.036 36.5637 173.889 37.7275 174.523C37.9115 174.629 38.099 174.692 38.2865 174.731C38.29 174.898 38.29 175.064 38.2829 175.23C38.2794 175.425 38.2652 175.619 38.2511 175.81C38.244 175.853 38.2405 175.899 38.2299 175.941C38.152 176.267 38.0565 176.592 37.9504 176.91C37.7771 177.289 37.6497 177.685 37.6568 178.11C37.6603 178.237 37.678 178.357 37.7028 178.478C37.6037 178.806 37.54 179.146 37.533 179.493C37.5365 179.67 37.5577 179.836 37.5896 179.995C37.4268 181.092 37.5683 182.217 38.0919 183.186C37.8796 183.918 37.7594 184.668 37.9256 185.432C37.9575 185.57 38.007 185.698 38.0601 185.821C37.9893 186.462 38.1343 187.074 38.573 187.519C38.2971 188.011 38.0353 188.51 37.8124 189.03C37.7735 189.09 37.3985 189.957 37.4834 190.289C37.4834 190.314 37.4905 190.335 37.4905 190.36C37.487 190.364 37.487 190.364 37.4834 190.367C36.9245 190.958 36.638 191.793 36.8679 192.585C36.9139 192.744 36.974 192.893 37.0519 193.034C37.013 193.689 37.3419 194.34 37.869 194.736C37.8973 194.853 37.9327 194.973 37.9893 195.097C38.2794 195.893 39.1921 196.413 40.0269 196.278C40.9148 196.207 41.7603 195.939 42.5987 195.656C44.1304 195.146 45.6728 194.662 47.2116 194.173C48.294 193.88 49.3801 193.611 50.4696 193.356C51.9235 193.243 53.3668 193.08 54.7394 192.574C55.882 192.408 56.9892 192.274 58.4927 192.122C60.9229 191.998 63.3673 191.641 65.6313 190.707C65.7834 190.639 65.9391 190.576 66.1018 190.516C66.4167 190.547 66.735 190.551 67.0534 190.551C70.697 190.558 73.9621 188.729 77.3581 187.65C78.5644 187.243 79.7743 186.844 80.9876 186.447C81.6385 186.274 82.2894 186.104 82.9403 185.931C92.06 183.649 101.162 181.297 110.345 179.284C110.388 179.281 110.434 179.277 110.48 179.27C110.522 179.259 110.558 179.242 110.596 179.231C111.095 179.121 111.591 179.008 112.089 178.902C112.825 178.771 113.639 178.672 114.311 178.343C114.735 178.226 115.156 178.088 115.577 178.021C123.76 175.817 131.666 172.704 139.834 170.437C141.967 169.782 144.128 169.234 146.286 168.668C146.492 168.643 146.693 168.587 146.863 168.491C146.987 168.452 147.111 168.406 147.234 168.36C147.263 168.357 147.295 168.353 147.323 168.35C147.351 168.35 147.376 168.346 147.404 168.346C148.076 168.608 148.865 168.258 149.498 168.109C150.121 167.918 150.744 167.734 151.366 167.547C151.879 167.518 152.403 167.317 152.901 167.218C153.241 167.126 153.577 167.027 153.917 166.931C154.178 166.974 154.437 166.906 154.691 166.825C156.234 166.503 157.758 166.132 159.269 165.686C159.361 165.7 159.456 165.707 159.555 165.711C159.626 165.721 159.704 165.732 159.778 165.739C161.568 165.686 163.245 164.932 164.947 164.441C164.978 164.43 165.007 164.419 165.039 164.409C166.079 164.105 167.112 163.779 168.162 163.51C170.409 162.941 172.658 162.385 174.922 161.901C175.315 161.851 175.899 161.77 175.184 161.865C176.203 161.681 177.377 161.77 178.29 161.246C179.365 161.105 180.505 160.977 181.155 160.128C181.272 160.107 181.385 160.083 181.495 160.051C181.509 160.047 181.52 160.047 181.534 160.044L181.53 160.04C181.792 159.959 182.036 159.831 182.245 159.63C182.461 159.403 182.595 159.149 182.659 158.89C183.455 158.675 184.244 158.441 185.043 158.257C187.813 157.751 190.565 157.157 193.332 156.633C194.4 156.432 195.535 156.014 196.515 155.615C200.849 154.808 205.157 153.835 209.24 152.166C210.764 151.518 212.239 150.74 213.598 149.792C214.012 149.498 214.443 149.198 214.694 148.741C214.525 148.922 214.327 149.056 214.111 149.173C214.32 149.021 214.528 148.865 214.737 148.709C215.055 148.625 215.374 148.543 215.689 148.451C217.185 147.956 218.84 147.595 220.234 146.852C222.403 146.361 224.55 145.773 226.626 144.984C229.152 144.061 231.671 143.067 233.935 141.596C233.892 141.606 233.847 141.613 233.804 141.624C233.861 141.596 233.921 141.56 233.977 141.521Z" fill="#D7C878"/>
<path d="M246.245 136.477C246.1 136.378 245.906 136.47 245.743 136.441C245.05 136.392 244.371 136.353 243.706 136.318C243.66 136.236 243.61 136.162 243.543 136.095C242.959 135.631 242.128 135.624 241.434 135.398C239.57 135.157 237.685 135.168 235.803 135.253C235.559 135.228 235.315 135.203 235.067 135.186C232.707 134.98 230.352 135.161 227.996 135.338C226.114 135.002 224.217 134.74 222.307 134.634C219.159 134.556 215.979 134.765 212.883 135.38C209.661 135.476 206.424 135.709 203.251 136.265C198.963 135.546 194.626 135.164 190.275 135.079C186.101 134.998 181.902 135.182 177.784 135.893C177.537 135.882 177.285 135.875 177.038 135.868C176.408 135.836 175.69 135.812 174.912 135.794C174.381 135.426 173.606 135.281 172.934 135.246C171.795 135.157 170.653 135.161 169.51 135.161C168.428 135.164 167.345 135.2 166.266 135.253C163.288 135.164 160.076 135.104 157.589 135.072C155.951 135.041 154.316 134.995 152.679 134.987C152.205 135.041 151.628 134.963 151.083 134.966C146.117 134.146 141.09 133.714 136.063 133.449C132.345 133.367 128.617 133.212 124.902 133.314C125.047 133.297 125.143 133.286 124.923 133.289C124.534 133.332 124.117 133.289 123.767 133.48C123.494 133.576 123.25 133.763 123.066 133.997C120.491 133.64 118.397 133.431 115.63 133.208C113.285 132.925 111.18 132.663 108.304 132.656C106.235 132.504 104.162 132.398 102.092 132.483C101.866 132.501 101.633 132.529 101.403 132.571C99.8355 132.193 98.2365 132.037 96.6234 131.988C95.8735 131.945 95.1235 131.935 94.3736 131.935C93.8252 131.436 93.1354 131.149 92.389 131.11C91.3914 131.022 90.3903 131.018 89.3892 131.04C86.775 131.025 84.1785 131.259 81.5926 131.599C79.4878 131.549 77.3829 131.535 75.2781 131.616C72.9115 131.641 70.552 131.793 68.189 131.952C66.024 131.896 63.8555 131.832 61.6906 131.818C61.114 131.178 60.1624 131.064 59.3169 131.075C58.8712 131.079 58.429 131.107 57.9868 131.153C56.6355 131.149 55.2806 131.178 53.9435 131.333C53.6746 131.323 53.4058 131.369 53.1369 131.443C52.4082 131.56 51.6865 131.719 50.972 131.945C50.0664 132.179 49.4544 132.78 49.2032 133.456C48.5311 134.1 48.3259 134.991 48.5488 135.727C48.5983 136.031 48.715 136.321 48.8919 136.576C48.7964 136.615 48.7009 136.65 48.6054 136.693C48.3507 136.841 48.1455 137.046 47.9934 137.283C47.6503 137.411 47.3036 137.534 46.9604 137.665C46.5218 137.839 46.0548 138.037 45.7966 138.451C45.266 139.091 45.2872 139.887 45.6303 140.513C45.5207 141.27 45.8744 142.108 46.5642 142.487C47.5689 143.035 48.7469 142.561 49.7445 142.211C50.0345 142.087 50.3105 141.978 50.5758 141.871C50.6607 141.9 50.7456 141.925 50.8305 141.946C51.0073 142.133 51.2196 142.278 51.4637 142.363C52.1995 142.682 53.0662 142.536 53.8444 142.437C53.9682 142.416 54.092 142.388 54.2194 142.367C55.1462 142.625 56.066 142.915 56.9999 143.074C57.1378 143.449 57.389 143.778 57.7534 143.976C58.0399 144.146 58.3406 144.206 58.6483 144.206C58.6059 144.464 58.6165 144.73 58.6943 144.988C58.9349 146 59.8652 146.445 60.8451 146.552C60.9654 146.573 61.0892 146.587 61.2166 146.594C61.3793 146.633 61.5491 146.665 61.733 146.665C62.8438 146.69 64.1385 146.697 65.0371 145.964C65.1963 145.947 65.3554 145.922 65.5111 145.897C67.202 145.664 66.2186 145.795 67.8883 145.6C70.8633 145.356 73.7747 144.769 76.6896 144.174C77.4537 144.107 78.2143 144.026 78.9748 143.93C79.1128 143.962 79.2543 143.98 79.4064 143.98C80.029 143.997 80.6445 143.906 81.26 143.803C81.4723 143.828 81.681 143.852 81.872 143.884C84.7091 143.704 88.7631 143.23 92.9303 142.781C95.9477 142.667 98.9652 142.575 101.979 142.391C102.319 142.367 102.662 142.342 103.002 142.321C103.182 142.324 103.366 142.31 103.55 142.282C104.501 142.218 105.453 142.144 106.398 142.002C106.875 141.907 107.413 141.925 107.848 141.698C108.269 141.684 108.7 141.567 109.118 141.557C110.345 141.419 111.576 141.359 112.804 141.231C115.528 140.969 118.259 140.842 120.986 140.633C121.623 140.609 122.178 140.587 122.705 140.559C124.471 140.58 126.236 140.559 128.001 140.453C128.433 140.435 128.864 140.386 129.299 140.361C129.427 140.357 129.558 140.35 129.688 140.34C130.258 140.407 130.827 140.478 131.397 140.548C131.418 140.552 131.429 140.552 131.447 140.555C131.563 140.573 131.68 140.591 131.8 140.605C133.014 140.807 134.241 140.923 135.455 140.683C135.844 140.601 136.261 140.527 136.622 140.35C137.252 140.435 137.772 140.513 138.447 140.609C139.643 140.796 140.527 140.188 140.828 139.413C141.238 139.42 141.649 139.434 142.056 139.459C145.777 139.512 149.035 139.625 151.628 139.459C151.794 139.455 151.964 139.438 152.127 139.402C152.159 139.399 152.187 139.395 152.229 139.392C152.512 139.395 152.785 139.314 153.032 139.186C153.139 139.194 153.248 139.197 153.354 139.201C153.567 139.204 153.779 139.158 153.977 139.084C154.161 139.077 154.345 139.073 154.529 139.066C154.536 139.066 154.543 139.066 154.55 139.066C154.578 139.066 154.603 139.063 154.631 139.063C154.667 139.063 154.699 139.059 154.734 139.059C154.78 139.056 154.829 139.052 154.875 139.052C154.939 139.052 154.999 139.049 155.063 139.041C157.5 138.921 159.938 138.72 162.371 138.567C164.2 138.511 166.029 138.458 167.862 138.419C169.553 138.465 171.24 138.642 172.931 138.649C172.984 138.649 173.04 138.645 173.094 138.638C173.111 138.638 173.122 138.638 173.143 138.635C173.585 138.663 174.063 138.592 174.473 138.412C174.484 138.412 174.494 138.412 174.509 138.412C176.125 138.451 177.742 138.525 179.355 138.656C179.932 138.702 180.423 138.472 180.717 138.118C184.293 138.125 187.87 138.139 191.446 138.277C193.332 138.366 195.235 138.214 197.099 138.546C197.845 138.677 198.588 138.847 199.331 138.988C198.624 138.712 197.92 138.419 197.202 138.171C196.781 138.026 196.353 137.913 195.921 137.81C196.784 137.814 197.672 137.934 198.525 137.779C198.772 137.69 198.875 137.51 198.875 137.329C198.878 137.329 198.878 137.329 198.882 137.329C200.721 137.428 202.561 137.524 204.4 137.595C204.807 137.563 205.352 137.754 205.656 137.428C206.424 137.453 207.188 137.478 207.956 137.499C208.232 137.156 207.259 137.011 207.05 136.94C206.884 136.898 206.721 136.855 206.555 136.809C206.721 136.901 206.898 136.976 207.071 137.053C206.756 136.986 206.431 136.922 206.258 136.873C206.045 136.82 205.83 136.781 205.614 136.735C205.423 136.593 205.101 136.54 204.786 136.512C204.765 136.509 204.747 136.505 204.726 136.502C207.199 136.618 209.664 136.827 212.14 136.841C216.509 136.82 220.875 137.068 225.24 136.965C224.186 136.724 223.131 136.498 222.07 136.293C223.248 136.307 224.423 136.321 225.601 136.332C226.524 136.466 227.454 136.558 228.392 136.569C230.468 136.615 232.555 136.657 234.639 136.682C234.706 136.799 234.802 136.898 234.918 136.961C235.605 137.312 236.394 137.336 237.144 137.425C238.286 137.545 239.432 137.658 240.575 137.757C241.318 137.821 242.064 137.906 242.807 137.839C243.079 137.842 243.345 137.729 243.536 137.534C243.656 137.414 243.737 137.266 243.783 137.11C244.158 137.068 244.533 137.022 244.905 136.979C244.834 137.064 244.855 137.159 245.075 137.259C244.891 137.089 244.99 137 245.188 136.944C245.244 136.937 245.305 136.93 245.361 136.922C245.559 136.901 245.757 136.873 245.952 136.827C246.104 136.802 246.228 136.767 246.27 136.714C246.341 136.661 246.323 136.53 246.245 136.477Z" fill="#D7C878"/>
<path d="M19.6118 174.225C48.9872 167.621 78.78 163.15 108.619 159.251C138.603 155.332 168.664 151.975 198.581 147.521C215.384 145.02 232.138 142.165 248.771 138.698C249.917 138.458 250.957 137.726 252.096 137.489C222.611 143.637 192.769 147.829 162.905 151.624C132.914 155.438 102.867 158.876 72.9962 163.588C56.2214 166.234 39.5103 169.291 22.9371 173.016C21.7945 173.274 20.7509 173.971 19.6118 174.225Z" fill="black"/>
<path d="M37.1154 148.313C31.841 156.853 26.6621 165.453 21.5823 174.109C22.6895 173.706 23.7968 173.302 24.9075 172.899C25.0137 172.563 25.1198 172.223 25.2259 171.887C25.0172 172.552 22.1235 172.393 21.9007 173.097C21.7945 173.433 21.6884 173.773 21.5823 174.109C21.6353 173.943 23.0468 173.592 23.252 173.522C23.5774 173.405 24.7271 173.21 24.9075 172.899C29.9874 164.243 35.1663 155.643 40.4407 147.104C40.2886 147.348 39.0611 147.588 38.771 147.691C38.4349 147.815 37.31 147.999 37.1154 148.313Z" fill="black"/>
<path d="M38.5798 147.963C66.0804 145.342 93.6339 143.237 121.212 141.659C148.911 140.075 176.638 139.017 204.379 138.49C219.944 138.193 235.516 138.065 251.085 138.101C252.199 138.104 253.313 136.887 254.41 136.891C226.782 136.831 199.158 137.287 171.547 138.27C143.82 139.257 116.115 140.775 88.448 142.82C72.9219 143.966 57.4064 145.282 41.9086 146.757C40.7625 146.863 39.7083 147.857 38.5798 147.963Z" fill="black"/>
<path d="M36.2168 172.251C36.1567 176.712 36.1355 181.173 36.1602 185.634C37.2675 185.231 38.3747 184.827 39.4855 184.424C39.4466 179.341 39.1848 174.264 38.7001 169.202C37.5929 169.605 36.4857 170.009 35.3749 170.412C35.711 172.4 36.0435 174.385 36.3795 176.373C36.3477 176.189 39.7437 175.4 39.7048 175.163C39.3687 173.175 39.0362 171.19 38.7001 169.202C38.7355 169.418 35.3501 170.133 35.3749 170.412C35.8595 175.474 36.1213 180.547 36.1602 185.634C36.1567 185.262 39.4855 184.845 39.4855 184.424C39.4607 179.963 39.4819 175.502 39.5421 171.042C39.535 171.434 36.2239 171.806 36.2168 172.251Z" fill="black"/>
<path d="M75.6316 188.552C69.0766 190.321 62.4473 191.772 55.7544 192.914C52.4043 193.487 49.0402 193.975 45.6689 194.414C44.0912 194.619 42.517 194.814 40.9393 195.005C40.49 195.058 40.0372 195.114 39.588 195.168C38.9265 195.468 38.7213 195.309 38.9689 194.686C38.9618 194.365 39.0821 193.901 39.2908 193.646C38.1836 194.05 37.0764 194.453 35.9656 194.856C36.5705 194.701 36.1071 196.204 35.8064 196.399C36.9136 195.995 38.0209 195.592 39.1316 195.189C38.7284 195.291 39.0644 193.36 39.1069 192.865C39.1918 191.846 39.2731 190.823 39.358 189.805C39.5243 187.764 39.6941 185.726 39.8604 183.685C39.8215 184.152 36.5776 184.378 36.5351 184.895C36.2733 188.068 36.0151 191.241 35.7533 194.414C35.7073 194.991 35.4031 196.275 35.8064 196.399C35.9054 196.43 36.192 196.268 36.2981 196.232C37.1117 195.96 38.1765 195.737 38.9088 195.277C39.4005 194.969 40.0797 193.887 39.2307 193.661C38.7001 193.519 37.3098 194.343 36.7863 194.538C36.0222 194.824 35.8488 194.842 35.6826 195.677C35.4526 196.823 36.0328 196.399 36.9419 196.292C37.7308 196.197 38.5197 196.101 39.3085 196.006C40.8862 195.811 42.464 195.613 44.0382 195.401C47.1795 194.98 50.3137 194.499 53.4373 193.951C59.7906 192.836 66.0874 191.443 72.3134 189.762C73.4419 189.454 74.4996 188.857 75.6316 188.552Z" fill="black"/>
<path d="M129.717 173.659C118.566 176.259 107.766 180.14 96.6339 182.807C95.4912 183.08 94.4441 183.745 93.3086 184.017C104.441 181.35 115.241 177.469 126.391 174.869C127.534 174.604 128.581 173.925 129.717 173.659Z" fill="black"/>
<path d="M151.221 168.038C148.012 168.778 144.797 169.489 141.656 170.486C140.644 170.808 139.25 171.41 138.454 171.661C141.556 170.677 144.73 169.98 147.899 169.248C149.038 168.986 150.085 168.3 151.221 168.038Z" fill="black"/>
<path d="M216.484 148.394C209.809 150.804 203.07 153.036 196.296 155.155C195.28 155.473 193.89 156.081 193.094 156.329C200.654 153.963 208.16 151.437 215.614 148.748C216.279 148.508 217.029 148.327 217.655 147.991C217.581 148.03 216.742 148.299 216.484 148.394Z" fill="black"/>
<path d="M221.635 146.527C221.423 146.605 221.21 146.686 220.998 146.764C220.949 146.781 220.595 146.912 220.853 146.817C221.122 146.718 220.705 146.873 220.659 146.888C220.33 147.008 219.997 147.128 219.668 147.255C219.735 147.231 219.3 147.376 219.505 147.33C219.764 147.273 220.025 147.149 220.273 147.061C220.701 146.909 221.129 146.753 221.554 146.597C222.144 146.382 222.735 146.162 223.326 145.943C223.559 145.855 223.86 145.777 224.086 145.656C224.267 145.561 223.857 145.724 223.913 145.706C223.145 145.968 222.388 146.244 221.635 146.527Z" fill="black"/>
<path d="M235.835 140.955C235.113 141.252 234.391 141.55 233.67 141.843C233.454 141.932 233.949 141.758 233.843 141.794C234.175 141.68 234.508 141.56 234.84 141.44C235.523 141.192 236.21 140.959 236.882 140.683C237.603 140.389 238.325 140.092 239.047 139.795C239.259 139.707 238.767 139.88 238.873 139.845C238.541 139.958 238.208 140.078 237.876 140.198C237.193 140.442 236.503 140.676 235.835 140.955Z" fill="black"/>
<path d="M61.2376 144.401C56.8759 143.085 52.4434 142.024 47.9508 141.263C47.7845 141.235 46.6631 141.164 46.603 141.044C46.5429 140.927 47.4308 139.395 47.498 139.257C47.9473 138.362 48.393 137.471 48.8422 136.576C49.6983 134.871 50.4023 132.494 52.2135 131.591C51.1275 131.988 50.0379 132.387 48.9519 132.784C51.9906 131.853 55.6236 131.924 58.7826 131.715C62.0265 131.5 65.2775 131.369 68.5249 131.316C74.9207 131.206 81.3165 131.376 87.7052 131.687C100.638 132.32 113.533 133.551 126.459 134.308C152.526 135.836 178.654 135.419 204.754 135.607C219.382 135.713 234.013 136.017 248.615 136.937C249.705 137.004 250.872 135.66 251.941 135.727C221.083 133.778 190.151 134.634 159.258 134.135C143.817 133.884 128.429 133.091 113.034 131.938C97.7128 130.792 82.3494 129.621 66.9755 130.244C62.7977 130.413 58.6199 130.711 54.4633 131.188C53.1403 131.34 52.0118 131.648 50.7666 132.097C49.7655 132.462 48.584 132.741 47.8376 133.544C46.5782 134.899 45.892 137.036 45.0677 138.677C44.6185 139.572 44.1727 140.464 43.7235 141.359C43.674 141.458 43.6244 141.557 43.5749 141.656C43.1044 142.119 43.1186 142.335 43.6138 142.307C43.9322 142.561 44.859 142.512 45.2977 142.59C49.5604 143.34 53.7664 144.362 57.9124 145.611C58.8321 145.89 60.3497 144.135 61.2376 144.401Z" fill="black"/>
</svg>
