<svg width="814" height="814" viewBox="0 0 814 814" fill="none" xmlns="http://www.w3.org/2000/svg">
<path d="M166.157 424.51C165.635 424.52 165.105 424.52 164.571 424.473C164.839 424.399 165.107 424.325 165.376 424.251C166.625 423.871 167.841 423.358 169.045 422.796C168.43 422.889 167.816 422.983 167.194 423.057C167.014 423.084 166.831 423.056 166.653 423.074C166.819 422.999 166.703 423.042 166.885 422.987C167.924 422.483 168.979 422.008 170.032 421.542C171.715 420.491 173.901 419.429 176.136 418.52C177.771 417.567 179.412 416.642 181.199 416.012C183.972 415.029 186.837 414.317 189.739 413.795C191.213 413.485 192.696 413.269 194.188 413.147C194.272 413.137 194.357 413.128 194.442 413.118C201.181 410.944 207.715 408.163 214.536 406.277C218.202 405.202 222.033 405.038 225.781 404.428C228.82 404.004 231.854 403.543 234.884 403.034C234.978 402.848 235.071 402.672 235.183 402.498C236.461 399.805 239.437 398.49 242.285 398.204C245.545 397.72 248.848 397.705 252.097 397.154C253.769 396.911 255.442 396.65 257.116 396.39C257.786 396.125 258.464 395.871 259.115 395.605C265.207 393.13 271.532 391.359 277.911 389.789C278.644 389.541 279.386 389.294 280.128 389.046C283.865 387.924 287.695 387.229 291.525 386.544C291.567 386.325 291.618 386.108 291.704 385.903C292.231 384.61 293.448 383.742 294.663 383.154C294.711 383.141 294.76 383.118 294.808 383.104C298.085 380.957 301.585 379.158 305.377 378.125C305.464 378.097 305.619 378.039 305.869 377.963C307.09 377.496 308.298 376.972 309.612 376.952C310.457 376.697 311.308 376.564 312.171 376.766C312.991 376.927 313.595 377.372 314.009 377.946C314.701 377.823 315.576 377.729 316.621 377.783C317.966 377.906 319.626 378.304 320.225 378.181C320.207 378.18 320.365 378.178 320.524 378.176C320.582 378.154 320.648 378.142 320.706 378.12C321.816 378.089 323.247 377.746 324.695 377.424C326.09 377.339 327.417 377.19 328.951 377.017C329.795 376.78 332.77 376.879 332.676 376.888C334.17 376.655 336.364 376.755 337.467 376.704C338.873 376.508 340.268 376.246 341.703 376.313C342.138 376.247 343.812 376.07 344.228 376.095C344.835 376.075 346.446 375.966 347.766 375.975C350.041 376.186 349.853 376.288 351.042 376.217C352.652 376.033 354.218 376.44 355.815 376.562C356.831 376.446 357.849 376.236 358.87 376.428C359.107 376.471 359.624 376.6 359.969 376.683C361.19 376.923 360.626 376.799 361.976 376.792C363.23 376.803 364.473 377.101 365.72 377.186C366.113 377.162 367.57 377.102 367.973 377.163C369.272 377.458 369.694 377.335 371.074 377.387C372.233 377.518 373.276 378.028 374.36 378.421C374.45 378.459 374.558 378.489 374.676 378.52C376.212 378.235 377.715 378.012 379.043 377.938C382.122 377.583 385.166 378.182 388.213 378.568C388.296 378.577 388.368 378.594 388.451 378.603C390.035 378.667 391.627 378.742 393.218 378.826C394.089 378.769 394.961 378.702 395.831 378.654C396.144 377.534 396.714 376.45 397.291 375.478C399.777 371.564 401.699 367.264 404.577 363.605C405.749 362.101 407.085 360.725 408.187 359.177C408.286 358.945 408.377 358.704 408.466 358.471C409.424 355.735 410.633 353.081 412.929 351.24C413.089 351.052 413.256 350.874 413.398 350.675C413.85 350.09 414.233 349.461 414.598 348.82C415.224 347.64 416.138 346.648 417.362 346.07C417.506 346.02 417.641 345.978 417.775 345.937L417.786 345.928C417.991 345.662 418.195 345.395 418.418 345.139C418.869 344.564 419.402 344.09 419.976 343.676C420.045 343.553 420.122 343.44 420.159 343.351C421.531 341.272 423.48 339.729 425.649 338.562C427.337 337.103 429.507 336.104 431.595 335.44C431.184 335.815 430.736 336.177 430.282 336.52C430.388 336.485 430.502 336.459 430.617 336.425C431.959 335.692 433.332 335.027 434.703 334.372C433.587 335.78 432.216 336.965 430.695 337.894C430.771 337.883 430.847 337.863 430.923 337.852C430.991 337.822 431.058 337.802 431.127 337.772C432.245 336.866 433.43 336.033 434.866 335.738C436.199 335.534 437.564 335.64 438.91 335.67C438.966 335.667 439.022 335.664 439.098 335.653C439.331 335.64 439.696 335.623 440.097 335.609C440.818 335.127 441.628 334.589 442.575 333.982C443.402 333.548 444.31 333.411 445.206 333.469C445.351 333.326 445.495 333.192 445.63 333.058C450.383 328.647 456.293 325.781 462.24 323.273C463.294 322.63 464.372 322.018 465.448 321.425C469.16 318.235 473.196 315.414 477.627 313.35C479.298 312.671 481.066 312.317 482.832 311.973C487.197 310.089 491.757 308.653 496.412 307.729C494.546 308.667 492.72 309.666 490.901 310.692C491.536 310.397 492.181 310.102 492.833 309.826C492.901 309.806 492.978 309.777 493.046 309.746C493.174 309.685 493.301 309.624 493.428 309.563C499.928 307.02 505.958 303.544 512.237 300.54C516.947 298.386 522.051 297.258 527.083 296.104C529.438 295.562 531.821 295.273 534.22 295.107C535.887 294.818 537.56 294.566 539.234 294.389C539.338 294.381 539.451 294.365 539.554 294.357C541.574 294.161 543.603 294.067 545.631 294.058C546.063 293.052 546.737 292.128 547.526 291.346C548.674 290.072 549.913 288.723 551.464 287.956C551.45 287.909 551.437 287.861 551.433 287.804C551.447 287.852 551.47 287.892 551.493 287.941C551.561 287.911 551.632 287.863 551.7 287.832C551.638 287.891 551.593 287.961 551.541 288.02C551.612 288.139 551.683 288.259 551.668 288.397C551.612 288.577 551.416 288.677 551.315 288.834C551.273 288.885 551.23 288.936 551.188 288.988C551.463 288.933 551.708 288.903 551.922 288.907C551.932 288.899 551.952 288.882 551.962 288.874C551.952 288.882 551.95 288.901 551.94 288.909C552.014 288.917 552.078 288.923 552.152 288.931C552.184 288.888 552.216 288.854 552.248 288.811C552.234 288.856 552.221 288.892 552.207 288.937C552.234 288.94 552.262 288.943 552.29 288.946C552.895 287.698 554.359 286.866 555.859 287.554C555.973 287.622 556.078 287.68 556.174 287.745C556.827 288.075 557.493 288.377 558.16 288.671C558.364 289.027 562.12 289.134 564.63 290.115C564.65 290.098 564.661 290.081 564.681 290.074C566.6 288.629 569.202 289.099 571.365 289.661C571.393 289.664 571.41 289.675 571.438 289.678C571.865 289.77 572.218 289.863 572.518 289.931C572.96 289.885 573.468 289.836 574.078 289.779C575.074 289.689 576.124 289.344 577.116 289.55C577.937 289.702 578.6 290.386 578.796 291.169C578.914 291.2 579.023 291.221 579.139 291.27C582.089 292.585 581.888 296.34 580.755 299.151C580.722 299.203 580.688 299.265 580.654 299.317C581.649 302.947 580.441 306.643 578.795 310.171C578.098 312.2 577.341 314.092 576.768 315.557C578.489 318.119 577.277 321.852 577.005 324.79C576.266 329.958 575.617 335.145 574.767 340.301C574.332 342.404 573.886 344.524 573.251 346.578C573.513 346.829 573.825 347.131 574.214 347.498C574.333 347.603 575.323 348.535 575.736 348.942C578.843 351.948 582.04 354.888 584.979 358.063C585.004 358.093 585.037 358.134 585.07 358.175C585.096 358.196 585.131 358.209 585.157 358.23C592.838 363.196 598.061 371.011 602.6 378.781C603.713 380.758 604.825 382.735 605.849 384.759C606.899 386.628 607.851 388.625 607.714 390.815C607.717 391.318 607.702 392.432 607.671 393.257C607.733 393.459 607.796 393.661 607.819 393.877C607.892 394.331 607.885 394.758 607.85 395.173C608.004 395.217 608.149 395.251 608.302 395.295C608.385 395.304 608.468 395.313 608.56 395.322C611.548 396.093 612.617 396.81 613.883 397.594C615.26 397.06 616.71 397.064 618.378 398.012C618.767 398.201 619.142 398.436 619.487 398.696C620.181 398.201 620.941 397.612 621.834 396.813C623.215 395.796 622.583 395.348 625.674 393.469C625.465 393.596 625.017 393.874 624.829 393.984C625.038 393.858 625.238 393.721 625.448 393.585C627.018 392.624 628.258 391.183 629.747 390.121C630.864 389.141 632.006 388.183 633.199 387.276C634.789 386.132 636.269 384.716 638.119 384.018C638.44 383.884 638.747 383.795 639.051 383.734C639.303 383.101 639.773 382.527 640.448 382.124C641.305 381.321 642.415 380.843 643.509 380.437C645.592 379.642 647.735 378.994 649.873 378.382C650.457 378.053 651.072 377.773 651.727 377.74C652.235 377.421 652.76 377.03 653.879 376.115C653.576 374.661 654.727 373.182 656.106 372.453C656.929 371.879 657.908 371.331 658.926 371.029C659.875 370.487 660.936 370.217 661.919 370.423C662.568 370.622 662.884 371.064 662.978 371.586C663.616 371.625 664.251 371.683 664.876 371.758C666.294 371.628 667.696 371.562 668.939 371.507C669.73 371.236 670.535 371.014 671.365 370.906C670.899 370.736 670.427 370.538 670.151 370.416C670.769 370.471 671.389 370.5 672.003 370.499C674.081 367.983 676.592 365.867 679.247 363.979C679.042 363.976 678.848 363.965 678.643 363.971C679.28 363.573 679.966 363.422 680.663 363.421C680.732 363.391 680.788 363.388 680.849 363.422C681.396 363.443 681.952 363.548 682.492 363.725C683.867 363.824 685.214 364.189 686.462 364.794C686.758 364.723 687.06 364.681 687.366 364.694C688.538 364.604 689.695 364.744 690.845 364.949C691.192 364.93 691.536 364.929 691.879 364.937C692.763 364.667 693.204 364.369 694.848 364.301C695.682 364.417 696.314 364.688 696.786 365.063C697.576 364.718 698.44 364.633 699.067 364.689C699.51 364.717 699.923 364.863 700.3 365.079C700.535 365.058 700.767 365.063 700.999 365.069C701.281 364.95 701.584 364.898 701.895 364.857C702.193 364.767 702.507 364.707 702.816 364.684C703.455 364.444 704.105 364.187 704.798 364.232C706.266 364.424 707.603 365.151 709.014 365.532C709.135 365.535 709.256 365.529 709.376 365.542C709.328 365.556 709.262 365.567 709.214 365.581C709.322 365.611 709.431 365.641 709.54 365.662C709.549 365.663 709.568 365.665 709.577 365.665C709.769 365.695 710.006 365.739 710.225 365.78C710.253 365.783 710.262 365.784 710.289 365.787C710.557 365.722 710.826 365.639 711.106 365.631C713.707 365.217 716.46 367.339 716.144 370.077C716.068 370.618 715.908 371.169 715.676 371.693C715.585 372.121 715.448 372.534 715.24 372.921C715.044 373.812 714.748 374.674 714.435 375.534C714.419 375.597 714.386 375.733 714.322 375.987C714.321 375.996 714.31 376.014 714.309 376.023C714.277 376.15 714.246 376.267 714.223 376.395C714.241 376.313 714.26 376.222 714.289 376.123C713.68 378.375 712.87 380.587 712.064 382.772C711.332 384.946 710.069 385.994 708.772 386.294C708.579 386.711 708.389 387.11 708.179 387.506C708.166 387.542 708.145 387.568 708.132 387.604C708.511 387.895 708.776 388.378 708.776 389.085C708.795 389.171 708.791 389.384 708.759 389.688C711.257 390.965 712.078 394.121 711.282 396.911C710.806 399.577 710.522 402.272 710.101 404.944C709.58 408.572 709.004 412.185 708.409 415.806C708.29 416.668 708.127 417.599 707.885 418.485C707.885 419.015 707.884 419.555 707.884 420.085C707.865 421.497 708.026 423.067 707.181 424.289C706.88 424.853 706.515 425.317 706.104 425.683C705.438 428.654 704.752 431.633 704.158 434.621C703.395 438.252 703.815 443.532 699.117 444.34C698.35 444.473 697.576 444.401 696.856 444.167C696.267 444.114 695.678 443.959 695.147 443.708C691.843 445.76 687.091 445.576 684.969 440.813C684.867 440.552 684.764 440.29 684.681 440.02C682.562 440.355 680.37 440.152 678.214 439.87C676.194 439.62 674.837 440.584 669.753 438.951C666.657 437.62 663.429 436.648 660.211 435.677C658.519 435.936 656.894 435.728 655.444 435.194C653.418 435.622 651.252 435.785 649.145 435.563C649.05 435.581 648.974 435.601 648.908 435.612C647.479 436.197 645.991 436.635 644.419 436.544C642.17 436.438 640.109 435.43 637.997 434.733C637.156 434.589 636.402 434.249 635.773 433.774C633.694 434.262 631.58 434.551 629.397 434.432C626.823 434.059 624.236 433.536 621.691 432.886C621.536 434.358 621.17 435.808 620.615 437.191C620.424 438.12 620.143 439.02 619.817 439.907C620.133 440.796 619.984 441.859 619.172 442.676C618.197 444.256 618.662 443.543 617.423 445.775C617.178 446.242 616.9 446.771 616.599 447.325C616.031 448.744 615.447 450.143 614.492 451.354C614.479 451.389 614.456 451.424 614.444 451.451C614.436 451.525 614.418 451.616 614.406 451.726C614.413 452.368 614.017 452.857 613.737 453.395C613.041 454.177 612.432 455.015 611.9 455.917C611.743 456.254 611.536 456.549 611.296 456.793C611.056 457.307 610.724 457.812 610.283 458.286C609.028 459.875 606.832 459.876 605.03 460.384C604.698 460.451 604.386 460.493 604.077 460.516C602.894 460.978 601.706 461.392 600.442 461.557C599.435 461.674 598.443 461.644 597.469 461.439C597.441 461.436 597.423 461.434 597.395 461.431C596.703 461.47 596.013 461.49 595.328 461.455C595.071 461.428 594.815 461.383 594.559 461.337C594.447 461.344 594.334 461.36 594.221 461.367C591.775 461.63 589.335 461.931 586.871 461.923C586.572 461.929 586.279 461.888 585.987 461.839C584.079 462.289 582.087 462.219 580.151 462.49C578.608 462.839 577.024 462.951 575.448 463.083C574.249 463.338 573.058 463.519 571.836 463.549C569.572 463.766 567.363 464.519 565.054 464.183C564.962 464.174 564.878 464.174 564.805 464.166C564.588 464.19 564.371 464.223 564.162 464.266C561.528 464.9 558.833 464.524 556.157 464.493C555.427 464.537 554.692 464.45 553.968 464.439C552.257 464.529 550.56 464.387 548.854 464.338C544.901 464.601 545.336 464.795 539.613 464.732C538.518 464.71 537.441 464.513 536.347 464.481C536.413 464.479 536.478 464.477 536.534 464.473C535.714 464.489 534.898 464.468 534.091 464.356C532.654 464.223 531.239 463.972 529.859 463.557C529.768 463.538 529.668 463.518 529.54 463.495C527.917 463.185 526.374 462.65 524.847 462.043C522.525 461.659 520.252 461.075 518.038 460.284C517.426 460.183 516.376 459.988 515.88 459.936C514.578 459.669 513.226 459.787 511.944 459.419C511.726 459.369 511.454 459.303 511.219 459.241C508.781 458.714 506.289 458.443 503.897 457.754C502.146 457.514 500.353 457.585 498.663 456.933C496.307 456.08 495.194 455.963 491.251 455.687C489.641 455.434 488.061 454.98 486.449 454.745C486.375 454.737 486.31 454.739 486.245 454.733C485.719 455.226 485.139 455.611 484.513 455.908C484.369 456.033 484.189 456.153 483.971 456.279C482.31 456.774 480.453 456.922 478.932 457.404C478.602 457.36 478.269 457.344 477.934 457.345C477.187 457.992 476.374 458.474 475.554 458.657C472.195 458.76 474.176 459.024 469.232 459.871C467.636 459.926 468.328 460.157 465.128 460.778C462.973 460.923 460.813 460.593 458.66 460.46C456.689 460.187 454.69 460.358 452.724 460.123C448.046 458.97 446.73 458.134 445.107 458C437.742 456.918 439.203 456.207 432.363 455.626C430.411 455.523 428.505 455.08 426.62 454.603C424.018 454.05 421.391 453.559 418.936 452.501C416.048 451.565 413.405 449.993 410.521 449.113C410.029 449.015 409.529 448.906 409.038 448.799C406.281 449.011 403.545 448.76 400.801 448.592C398.725 448.783 396.627 448.924 394.572 448.652C392.682 448.137 390.712 447.855 388.882 447.123C388.475 446.931 388.068 446.73 387.662 446.52C384.969 445.865 382.304 445.119 379.735 444.077C377.553 443.158 375.31 442.374 373.142 441.411C371.618 440.599 370.085 439.787 368.463 439.206C367.942 439.114 367.413 439.022 366.893 438.92C362.362 438.229 357.937 437.057 353.519 435.819C349.896 435.075 346.235 434.42 342.733 433.224C340.922 432.41 339.199 431.372 337.32 430.756C336.283 430.526 335.249 430.278 334.241 429.958C332.034 429.009 329.909 427.818 327.954 426.422C326.798 425.565 325.878 424.408 324.625 423.671C321.861 423.157 319.121 422.506 316.534 421.369C315.05 421.147 313.549 421.101 312.055 420.971C310.221 420.723 308.405 420.392 306.576 420.097C305.69 420.032 304.803 419.975 303.92 419.882C303.818 419.881 303.706 419.879 303.605 419.868C299.395 420.104 295.176 420.245 290.947 420.302L291.488 420.285C283.863 420.356 276.251 419.508 268.655 418.951C259.825 418.188 250.968 417.237 242.469 414.566C242.307 414.512 242.146 414.457 241.984 414.403C240.503 414.154 239.075 413.678 237.818 412.802C236.695 412.079 235.799 411.045 235.17 409.863C231.529 410.875 227.881 411.867 224.246 412.908C217.096 414.824 209.911 416.635 202.688 418.274C198.031 419.225 193.335 420.005 188.706 421.127C185.942 421.757 183.143 422.197 180.35 422.665C176.835 423.365 173.306 424.017 169.83 424.878C168.422 425 167.017 425.178 165.649 425.545C165.591 425.558 165.542 425.58 165.485 425.593C165.546 425.636 165.635 425.674 165.762 425.706C165.596 425.688 165.479 425.657 165.38 425.619C165.293 425.656 165.203 425.712 165.148 425.79C165.275 425.822 165.505 425.939 165.58 425.928C165.393 425.937 165.2 425.916 165.015 425.906C164.867 425.816 165.02 425.6 165.165 425.457C165.014 425.301 165.453 424.929 166.157 424.51ZM681.987 365.867C682.141 365.818 682.293 365.788 682.446 365.748C682.077 365.719 681.721 365.653 681.367 365.569C681.288 365.701 681.208 365.841 681.13 365.972C681.422 365.929 681.705 365.893 681.987 365.867ZM620.539 432.607C620.313 432.546 620.095 432.495 619.87 432.425C619.616 433.514 619.161 434.564 618.627 435.577C619.373 434.67 620.009 433.667 620.539 432.607ZM606.024 412.523C606.138 412.405 606.254 412.277 606.37 412.15C606.305 411.966 606.269 411.777 606.234 411.587C606.032 411.38 605.841 411.164 605.64 410.957C605.78 411.474 605.92 412 606.024 412.523ZM544.732 296.679C544.772 296.562 544.83 296.457 544.879 296.341C543.964 296.468 543.056 296.605 542.154 296.78C543.013 296.749 543.872 296.719 544.732 296.679ZM464.565 335.116C465.961 334.314 467.366 333.514 468.78 332.714C467.241 333.463 465.701 334.222 464.16 334.981C464.295 335.023 464.431 335.065 464.565 335.116ZM449.527 335.272C450.08 334.875 450.633 334.486 451.195 334.09C450.52 334.409 449.845 334.729 449.169 335.049C449.273 335.125 449.387 335.192 449.527 335.272ZM447.539 334.096C448.166 333.622 448.793 333.149 449.419 332.675C448.623 333.084 447.845 333.495 447.123 333.903C447.275 333.956 447.406 334.035 447.539 334.096Z" fill="#F5EEAE"/>
<path d="M571.754 393.661C572.798 393.464 573.867 393.465 574.897 393.22C575.953 392.996 577.002 392.669 578.082 392.746C578.925 392.779 579.547 392.872 580.199 392.783C581.684 392.455 583.698 392.76 584.789 393.266C586.122 393.323 588.242 393.946 589.521 394.173C590.077 394.278 591.49 394.464 591.594 394.531C592.384 394.456 593.159 394.249 593.953 394.212C595.763 394.161 597.55 394.507 599.334 394.695C599.428 394.686 599.523 394.668 599.616 394.669C601.516 394.553 603.363 395.128 605.239 395.242C604.538 395.447 603.829 395.559 603.106 395.622C604.169 395.595 605.237 395.614 606.305 395.717C604.093 396.321 601.733 396.473 599.486 395.994C598.092 396.071 596.69 396.044 595.288 395.934C594.885 396.05 594.491 396.175 594.103 396.321C592.611 397.159 591.29 397.42 589.591 397.39C588.469 397.448 587.367 397.23 586.259 397.057C585.408 396.93 584.528 396.977 583.7 396.714C582.598 396.411 582.292 396.044 581.35 396.066C580.059 396.144 578.439 395.806 577.383 395.5C576.455 395.383 574.967 395.478 573.863 395.269C572.333 394.782 569.575 394.919 568.672 394.043C569.711 394.329 570.742 393.815 571.754 393.661Z" fill="#D7C878"/>
<path d="M304.27 390.146C308.865 390.5 313.477 390.595 318.041 391.243C319.904 391.309 321.761 391.421 323.622 391.598C328.492 392.157 333.303 393.11 338.101 394.09C343.216 394.014 348.377 394.372 353.342 395.536C355.801 395.776 358.243 396.08 360.672 396.503C363.248 396.514 366.102 396.61 368.527 396.809C370.343 396.703 372.173 396.551 373.944 396.868C374.592 397.076 375.019 397.614 375.197 398.219C380.908 398.299 386.576 399.24 392.125 400.689C392.562 400.782 392.989 400.873 393.425 400.975C396.949 401.606 400.461 402.348 403.993 402.897C402.754 403.008 401.509 403.082 400.257 403.136C402.123 403.174 403.977 403.23 405.841 403.37C406.475 403.353 407.099 403.345 407.734 403.328C408.338 403.326 408.952 403.326 409.566 403.325C409.664 403.196 409.751 403.075 409.848 402.946C411.709 400.556 413.405 398.14 415.48 396.358C415.369 395.919 415.409 395.449 415.653 395.074C415.778 394.502 417.235 393.92 417.229 393.975C417.614 393.848 417.998 393.74 418.39 393.633C419.107 393.187 420.001 393.086 420.892 393.022C420.996 393.005 421.102 392.969 421.206 392.952C421.756 392.852 422.305 392.761 422.853 392.679C425.58 390.892 429.389 390.67 433.127 391.036C435.653 390.279 438.379 390.184 440.999 390.302C444.199 390.202 447.401 390.446 450.609 390.458C450.255 390.551 449.892 390.643 449.538 390.736C452.654 390.553 455.784 390.687 458.903 391.015C459.127 391.002 459.353 390.979 459.578 390.965C462.033 390.433 464.495 391.167 466.972 391.055C471.484 390.693 475.995 391.047 480.432 391.84C486.433 390.844 490.878 391.303 497.01 391.27C496.486 391.484 495.964 391.671 495.441 391.867C496.834 391.977 498.221 392.141 499.586 392.424C496.66 392.916 493.719 393.202 490.777 393.227C486.97 394.054 483.234 394.2 479.449 393.839C478.337 393.629 477.238 393.29 476.103 393.021C472.996 393.29 469.865 393.35 466.774 393.025C466.7 393.017 466.628 393 466.554 392.993C463.331 393.128 460.093 393.047 456.871 392.82C453.252 393.183 449.62 393.312 445.981 393.161C443.363 393.202 440.688 393.608 438.094 393.066C439.743 392.867 441.331 392.355 442.916 391.88C441.62 391.995 440.322 392.044 439.033 392.011C439.596 392.135 440.152 392.25 440.669 392.369C437.387 392.712 434.098 392.682 430.805 392.679C430.738 392.7 430.68 392.722 430.613 392.743C430.572 392.869 430.502 393.001 430.397 393.111C429.458 394.082 427.934 394.154 426.75 394.717C425.047 395.691 422.65 396.285 420.694 396.758C420.615 397.243 420.371 397.701 420.091 398.155C419.426 399.871 418.715 401.684 417.639 403.152C418.944 403.038 420.256 402.944 421.562 402.905C419.869 403.527 418.152 404.108 416.414 404.632C416.14 404.845 415.843 405.019 415.514 405.142C415.424 405.198 415.325 405.252 415.236 405.308C416.942 404.92 418.624 404.484 420.27 403.876C417.997 405.413 415.495 406.554 412.884 407.414C412.357 408 411.818 408.613 411.159 408.962C410.958 409.099 410.737 409.169 410.511 409.192C410.378 409.224 410.244 409.256 410.104 409.26C409.493 409.317 408.89 409.039 408.453 408.594C406.64 409.035 404.784 409.342 402.933 409.528C401.318 409.665 399.686 409.707 398.078 409.436C397.26 409.424 396.446 409.385 395.634 409.327C392.331 409.426 389.055 408.914 385.966 407.593C385.821 407.559 385.677 407.516 385.532 407.482C385.451 407.455 385.371 407.419 385.299 407.393C379.471 407.449 373.705 406.73 368.496 404.526C368.221 404.488 367.956 404.441 367.692 404.395C364.416 404.236 361.156 403.921 357.93 403.2C355.033 402.541 352.01 402.009 349.498 400.34C345.577 399.946 341.664 399.385 337.953 398.148C337.323 398.035 336.692 397.932 336.064 397.809C334.165 397.47 332.322 396.951 330.498 396.34C322.397 395.543 314.26 394.119 306.519 391.574C306.138 391.487 305.746 391.409 305.366 391.313C306.094 391.287 306.821 391.271 307.548 391.254C306.424 390.885 305.335 390.538 304.27 390.146ZM387.241 404.146C388.343 404.104 389.451 404.091 390.563 404.133C391.094 404.124 391.624 404.124 392.155 404.115C392.128 404.103 392.102 404.091 392.075 404.079C390.233 404.08 388.395 404.054 386.564 403.945C386.79 404.015 387.016 404.076 387.241 404.146Z" fill="#D7C878"/>
<path d="M163.799 427.117C164.728 426.601 165.382 425.517 166.492 425.392C168.659 425.136 170.721 424.367 172.879 424.009C174.736 423.683 176.615 423.509 178.505 423.401C178.619 423.376 178.734 423.351 178.838 423.334C180.132 423.061 181.443 422.883 182.758 422.761C183.176 421.884 183.965 421.195 185.059 421.05C186.664 420.558 188.115 420.469 189.425 420.57C190.274 420.548 191.126 420.582 191.977 420.625C192.392 419.245 193.348 418.025 194.821 417.464C197.828 416.376 200.985 415.9 204.158 415.536C206.126 415.129 208.087 414.703 210.046 414.296C210.752 413.245 211.851 412.43 213.375 412.181C213.58 412.175 213.776 412.168 213.982 412.162C214.982 412.118 215.985 412.038 216.99 411.948C217.171 411.818 217.352 411.689 217.56 411.571C219.206 410.507 221.358 410.566 223.237 410.123C227.862 409.307 232.511 408.616 237.122 407.752C240.702 407.06 239.5 407.259 241.646 406.657C243.277 406.103 245.154 406.291 246.551 407.331C247.022 407.186 247.485 407.03 247.934 406.835C252.594 404.796 257.661 404.111 262.704 404.27C262.919 404.265 263.124 404.258 263.319 404.26C264.79 404.164 266.264 404.115 267.743 404.112C268.155 404.09 268.567 404.069 268.987 404.048C269.128 404.035 269.269 404.022 269.41 404.009C269.754 403.924 270.089 403.829 270.433 403.744C274.708 402.185 279.012 400.267 283.628 400.157C284.433 400.196 285.074 400.291 285.612 400.394C285.728 400.081 285.971 399.809 286.301 399.676C286.321 399.669 286.34 399.662 286.358 399.664C286.465 399.442 286.598 399.242 286.807 399.116C286.857 399.084 286.925 399.054 286.984 399.023C287.705 398.447 288.813 398.08 289.875 397.978C290.001 397.926 290.118 397.874 290.225 397.829C290.87 397.451 291.729 397.243 292.272 397.561C293.247 397.58 294.25 397.769 295.183 397.914C298.732 398.576 302.171 399.747 305.482 401.156C306.062 401.394 306.641 401.632 307.222 401.86C307.554 401.979 307.884 402.107 308.215 402.235C308.653 402.402 309.082 402.568 309.53 402.726C310.302 402.994 310.748 403.087 310.932 403.283C311.041 403.313 311.15 403.334 311.258 403.364C311.365 403.413 311.441 403.486 311.506 403.576C314.845 404.021 318.147 404.815 321.282 406.047C323.032 406.827 324.755 407.687 326.446 408.591C327.523 408.955 328.61 409.321 329.674 409.73C329.187 409.679 328.7 409.619 328.222 409.568C328.468 409.706 328.714 409.843 328.959 409.981C329.713 410.153 330.465 410.344 331.205 410.561C334.573 411.79 337.709 413.543 340.723 415.479C341.461 415.362 342.227 415.684 342.954 415.844C345.426 416.486 347.814 417.388 350.244 418.165C357.331 420.288 364.371 422.685 370.963 426.067C371.289 426.324 372.017 426.475 372.221 426.832C372.679 426.991 373.126 427.159 373.574 427.328C373.638 427.334 373.702 427.341 373.766 427.357C376.529 427.174 379.63 427.584 382.545 428.16C384.501 428.227 386.437 428.561 388.299 428.99C389.19 428.832 390.088 428.694 391.002 428.67C392.826 428.573 392.034 428.76 394.516 428.333C395.788 427.918 397.111 427.806 398.443 427.695C401.23 427.021 404.063 426.975 406.911 427.219C409.028 427.34 411.163 427.379 413.226 427.931C413.425 427.98 413.634 428.03 413.815 428.076C413.996 428.123 414.187 428.162 414.378 428.21C417.106 428.618 419.96 428.64 422.563 429.621C425.926 431.249 424.623 430.814 427.27 431.735C428.218 432.095 429.03 432.683 429.842 433.28C431.263 433.829 432.745 434.236 434.096 434.927C435.428 434.817 436.807 434.887 438.102 434.773C441.55 434.717 443.905 434.519 447.603 434.378C450.355 434.388 453.108 434.306 455.844 434.204C456.05 434.188 456.246 434.181 456.452 434.165C456.661 434.039 456.878 433.922 457.095 433.805C457.062 433.764 457.03 433.715 457.006 433.675C456.329 433.213 455.651 432.76 454.962 432.325C454.767 432.323 454.562 432.329 454.366 432.337C453.787 432.359 453.21 432.364 452.638 432.406C452.817 432.471 452.978 432.535 453.109 432.53C452.701 432.515 452.247 432.588 451.846 432.508C451.827 432.506 451.817 432.515 451.799 432.513C451.8 432.504 451.8 432.504 451.801 432.494C451.747 432.479 451.69 432.483 451.637 432.459C451.56 432.395 451.556 432.255 451.628 432.188C452.282 431.903 452.948 431.666 453.621 431.458C452.971 431.101 452.042 430.818 452.144 430.029C452.182 429.93 452.229 429.842 452.292 429.774C451.99 429.547 451.88 429.182 452.181 428.619C452.873 427.613 454.002 427.229 455.123 426.91C456.075 426.443 457.224 426.573 457.978 427.266C458.495 427.135 458.91 427.16 459.133 427.435C459.696 427.382 460.25 427.338 460.81 427.314C463.334 426.928 465.883 426.834 468.404 427.192C468.77 427.249 469.133 427.334 469.496 427.419C472.33 427.094 475.189 426.967 478.03 426.755C485.966 426.204 493.977 426.797 501.752 428.48C509.881 427.243 518.864 427.259 526.575 428.759C529.938 427.476 533.582 427.321 537.226 427.686C537.837 427.536 538.462 427.434 539.049 427.338C541.239 427.122 543.456 427.086 545.623 427.528C546.894 427.829 548.078 428.419 549.185 429.121C550.067 428.963 550.946 428.832 551.831 428.73C557.626 428.196 563.464 428.579 569.282 428.531C569.347 428.528 569.412 428.535 569.477 428.533C569.823 427.1 571.956 427.073 573.19 426.747C573.997 426.59 574.81 426.471 575.623 426.343C575.993 426.01 576.362 425.686 576.73 425.371C579.81 422.626 583.003 419.856 587.028 418.643C587.703 418.416 588.387 418.19 589.071 417.965C589.473 416.184 591.276 414.96 592.809 414.089C596.826 411.889 611.965 403.177 615.912 400.933C616.986 400.274 616.32 400.687 615.663 401.093C621.031 397.9 623.828 395.451 626.565 394.018C627.878 393.292 629.365 392.955 630.713 392.344C630.805 392.26 630.907 392.178 631.017 392.106C631.017 392.106 631.018 392.097 631.027 392.098C631.089 392.039 631.143 391.97 631.213 391.922C631.866 391.461 632.511 391.166 633.142 391C633.035 390.867 632.938 390.727 632.833 390.576C630.626 387.07 636.091 383.925 638.647 382.445C643.339 380.642 641.327 381.723 643.503 380.845C643.552 380.823 643.601 380.8 643.659 380.778C643.845 380.695 644.048 380.614 644.235 380.522C645.632 379.181 646.97 378.132 648.18 377.589C649.12 377.149 650.017 377.104 650.773 377.351C651.01 377.301 651.245 377.28 651.478 377.276C651.609 377.002 651.777 376.731 651.972 376.473C652.408 374.984 653.677 373.527 655.924 372.238C656.779 371.807 657.715 371.394 658.671 371.058C659.437 370.497 660.229 369.957 661.115 369.669C662.492 369.135 664.132 369.633 665.159 370.662C665.168 370.663 665.178 370.655 665.187 370.656C665.599 370.28 666.065 369.92 666.528 369.578C666.573 369.592 666.619 369.606 666.665 369.611C666.757 369.621 666.823 369.609 666.908 369.6L666.731 369.6C666.87 369.605 667.012 369.583 667.153 369.57C667.162 369.571 667.171 369.572 667.181 369.563C667.199 369.575 667.225 369.587 667.243 369.598C667.414 369.653 667.596 369.691 667.778 369.636C667.722 369.639 667.666 369.642 667.62 369.637C667.739 369.65 667.843 369.633 667.957 369.617C667.901 369.621 667.844 369.624 667.798 369.619C667.938 369.615 668.004 369.613 668.139 369.562C668.148 369.563 668.159 369.555 668.159 369.555C668.226 369.534 668.292 369.522 668.36 369.501C668.443 369.501 668.527 369.501 668.612 369.491C668.731 369.503 668.842 369.515 668.962 369.518C669.211 369.545 669.43 369.41 669.536 369.197C669.705 369.178 669.858 369.138 670.021 369.09C670.089 369.07 670.089 369.07 670.021 369.09C670.059 369.085 670.098 369.071 670.136 369.056C670.213 369.036 670.28 369.015 670.358 368.986C670.434 368.967 670.435 368.957 670.378 368.97C670.485 368.925 670.609 368.901 670.717 368.847C670.824 368.794 670.924 368.73 671.024 368.666C670.914 368.738 671.043 368.659 671.073 368.643C671.132 368.612 671.2 368.582 671.268 368.552C671.603 368.383 671.915 368.239 672.135 367.918C672.191 367.831 672.237 367.743 672.285 367.645C672.295 367.637 672.296 367.628 672.307 367.61C672.329 367.576 672.352 367.541 672.374 367.506C672.485 367.332 672.551 367.152 672.618 366.955C672.633 366.901 672.657 366.847 672.671 366.802C672.882 366.564 673.068 366.305 673.221 365.995C673.424 365.57 673.67 365.178 673.89 364.764C675.906 363.553 677.961 362.411 680.114 361.484C682.075 360.705 684.115 360.855 685.712 361.674C686.866 362.019 687.853 362.802 688.501 363.809C688.652 363.434 688.872 363.104 689.128 362.796C689.171 362.829 689.204 362.869 689.249 362.883L689.258 362.884C689.258 362.884 689.258 362.884 689.268 362.885C689.313 362.899 689.359 362.904 689.404 362.918L689.413 362.919C689.44 362.922 689.459 362.924 689.487 362.918C689.533 362.923 689.58 362.918 689.62 362.895C689.635 362.933 689.639 362.98 689.664 363.011C689.753 363.132 689.905 363.194 690.051 363.219C690.134 363.228 690.199 363.225 690.277 363.196C690.352 363.186 690.412 363.145 690.473 363.096C690.575 363.014 690.633 362.899 690.665 362.772C690.675 362.764 690.677 362.745 690.689 362.728C690.882 362.748 691.066 362.768 691.259 362.788C691.655 362.821 692.065 362.817 692.468 362.785C692.499 362.844 692.52 362.912 692.561 362.962C692.709 363.145 692.915 363.223 693.137 363.237C693.313 363.246 693.466 363.206 693.607 363.1C693.607 363.1 693.608 363.091 693.617 363.092C693.626 363.093 693.636 363.094 693.637 363.085C693.673 363.089 693.711 363.083 693.74 363.077C693.778 363.072 693.816 363.057 693.855 363.043L693.864 363.044C693.884 363.036 693.903 363.029 693.932 363.023C693.941 363.024 693.959 363.026 693.969 363.018L693.978 363.019C693.989 363.01 694.007 363.012 694.017 363.004C694.114 363.061 694.213 363.09 694.315 363.091C694.324 363.092 694.324 363.092 694.333 363.093C694.397 363.109 694.47 363.117 694.535 363.124C694.636 363.134 694.729 363.135 694.822 363.135C694.86 363.13 694.888 363.124 694.916 363.127C695.212 363.586 695.409 364.099 695.481 364.646C696.708 363.771 698.069 363.124 699.646 362.992C703.552 363.078 707.319 364.498 710.845 366.162C711.443 365.694 712.156 365.379 712.911 365.272C713.493 365.045 714.177 365.08 714.72 365.407C715.143 365.535 715.552 365.718 715.922 365.999C717.796 367.368 717.894 369.713 717.007 371.684C716.585 373.658 716.522 373.735 715.583 377.44C715.029 379.345 714.505 381.494 712.949 382.846C712.66 384.443 712.378 386.144 712.123 387.949C711.119 392.894 711.265 392.212 710.109 396.48C709.377 398.57 708.773 401.39 706.817 402.57C706.958 402.91 707.069 403.266 707.14 403.655C707.691 407.517 706.681 411.364 705.974 415.168C706.035 419.444 705.364 423.698 704.963 427.953C704.765 430.006 704.622 432.075 704.295 434.114C704.067 435.755 703.915 437.553 702.532 438.672C702.094 439.035 701.584 439.279 701.049 439.418C700.558 440.548 699.703 441.509 698.474 442.058C698.116 442.188 697.75 442.308 697.385 442.418C697.309 442.522 697.17 442.6 697.053 442.653C696.091 443.128 695.054 443.261 693.994 443.261C692.088 443.786 689.941 443.95 688.083 443.215C687.708 443.074 687.388 442.845 687.146 442.577C686.227 442.564 685.311 442.514 684.395 442.381C683.447 442.197 682.327 442.144 681.467 441.654C679.303 441.538 677.142 441.301 674.986 441.018C673.642 440.886 672.313 440.699 670.99 440.458C670.32 440.369 669.652 440.27 668.991 440.182C665.8 439.66 662.361 439.549 659.489 437.945C657.08 437.412 655.06 436.362 654.249 434.351C653.099 434.147 651.937 434.052 650.761 434.003C652.058 434.493 653.355 434.983 654.663 435.455C649.602 435.285 644.61 434.471 639.615 433.676C636.166 433.396 632.733 432.877 629.341 432.138C628.25 431.902 627.185 431.595 626.132 431.261C625.54 431.134 624.957 431.016 624.367 430.88C623.716 432.467 622.805 433.971 621.844 435.321C621.171 436.152 620.405 436.89 619.63 437.627C619.156 438.237 618.64 438.806 618.083 439.333C617.906 439.594 617.704 439.833 617.511 440.082C617.615 440.419 617.553 440.831 617.233 441.309C616.659 442.429 616.718 443.728 616.226 444.867C615.999 445.429 615.515 445.964 615.001 446.431C614.838 446.739 614.667 447.038 614.487 447.335C614.402 447.698 614.298 448.068 614.165 448.445C614.097 448.652 614.018 448.876 613.929 449.099C613.82 449.432 613.693 449.753 613.575 450.076C613.581 450.29 613.568 450.494 613.533 450.657C613.398 451.666 612.936 452.529 612.319 453.264C613.332 454.859 612.769 457.376 610.441 457.847C610.019 458.937 609.094 459.686 607.575 459.452C607.254 459.409 606.987 459.288 606.762 459.134C606.382 459.122 606.007 459.055 605.644 458.97C605.54 458.987 605.444 459.014 605.34 459.031C604.311 459.443 603.315 459.357 602.511 458.956C601.869 459.14 601.227 459.314 600.579 459.46C599.822 459.585 599.06 459.672 598.291 459.73C597.64 460.35 596.792 460.8 595.751 460.97C593.415 461.431 590.993 461.287 588.608 461.231C583.928 461.604 579.252 462.107 574.561 462.143C573.539 462.128 572.527 462.022 571.519 461.878C569.166 462.412 566.591 462.745 564.522 462.881C563.835 463.125 563.15 463.36 562.443 463.536C559.849 464.147 557.216 463.712 554.777 462.766C553.4 462.854 552.014 462.941 550.644 463.057C548.969 463.513 547.298 463.569 545.633 463.394C545.268 463.412 544.904 463.429 544.54 463.437C538.838 463.525 533.268 461.925 527.739 460.729C526.525 460.424 525.309 460.129 524.103 459.835C519.975 460.349 515.81 460.598 511.638 460.466C505.615 460.167 499.615 459.647 493.595 459.217C492.014 459.042 490.446 458.83 488.87 458.608C488.483 458.921 488.099 459.215 487.699 459.48C487.605 459.926 487.483 460.378 487.345 460.81C487.351 460.932 487.347 461.052 487.336 461.163C487.312 461.914 487.106 462.636 486.91 463.35C487.162 463.256 487.405 463.151 487.641 463.036C487.383 463.279 487.099 463.5 486.807 463.711C486.78 463.792 486.762 463.874 486.735 463.955C486.709 464.027 486.692 464.099 486.665 464.171C486.973 464.25 487.272 464.328 487.555 464.376C488.623 464.656 489.435 465.783 488.299 466.501C487.207 466.888 486.051 466.645 484.931 466.332C483.775 467.68 481.743 467.726 481.044 465.793C480.22 465.845 479.403 465.834 478.628 465.771C478.354 465.723 478.091 465.659 477.828 465.594C477.349 465.729 476.861 465.864 476.373 465.989C476.108 466.036 475.84 466.101 475.581 466.176C475.618 466.179 475.655 466.183 475.692 466.187C475.559 466.21 475.426 466.234 475.294 466.257C474.372 466.532 473.446 466.844 472.512 466.708C472.484 466.705 472.458 466.693 472.431 466.681C469.998 466.992 467.537 467.133 465.1 466.96C462.782 467.246 460.466 467.244 458.241 466.47C458.134 466.422 458.021 466.354 457.917 466.278C457.86 466.291 457.812 466.304 457.765 466.309C456.699 466.448 455.739 466.291 454.824 465.971C454.255 466.693 453.219 467.086 452.113 466.895C450.485 466.64 448.898 465.626 447.622 464.497C446.445 463.926 445.246 463.214 445.398 462.03C445.326 461.92 445.253 461.82 445.199 461.721C444.712 460.954 444.531 460.283 444.546 459.699C442.933 460.097 441.174 460.107 439.588 459.884C438.306 459.6 437.103 459.101 435.915 458.549C433.957 458.24 432.01 457.83 430.097 457.276C429.006 457.207 427.908 457.129 426.82 457.033C419.431 456.897 412.097 455.259 405.099 452.914C404.667 453.036 404.171 453.151 403.743 453.245C401.438 453.672 399.08 453.805 396.741 453.931C391.026 454.325 385.311 453.658 379.633 453.079C378.143 452.838 376.558 452.783 375.131 452.288C375.429 452.375 375.746 452.279 376.054 452.265C373.728 451.927 371.348 452.355 369.052 451.806C366.632 451.207 360.46 450.195 359.736 449.83C351.819 448.085 344.241 445.139 336.594 442.511C335.228 441.874 333.846 441.31 332.441 440.781C328.546 440.501 324.722 439.54 320.933 438.602C319.952 438.377 318.784 438.078 317.509 437.73C313.238 436.945 309.001 436.025 304.785 434.985C303.795 434.853 302.813 434.722 301.86 434.594C297.978 434.008 294.101 433.368 290.244 432.636C288.133 432.19 285.912 431.994 283.96 431.016C283.855 430.949 283.741 430.882 283.617 430.822C283.391 430.761 283.165 430.7 282.93 430.638C281.96 430.75 280.92 430.817 279.884 430.764C278.914 430.708 277.964 430.543 277.005 430.368C274.678 430.653 272.336 430.899 270.004 431.054C261.317 430.967 252.696 429.892 244.151 428.36C243.706 428.35 243.269 428.35 242.824 428.332C242.787 428.328 242.751 428.324 242.714 428.32C239.208 428.583 235.675 428.211 232.214 427.512C231.949 427.559 231.692 427.615 231.428 427.643C229.1 428.114 226.726 428.311 224.353 428.414C224.315 428.42 224.286 428.426 224.248 428.441C218.998 429.357 213.643 429.687 208.323 429.861C206.391 429.928 204.483 429.68 202.566 429.422C202.046 429.414 201.541 429.352 201.041 429.243C198.575 429.077 196.1 428.816 193.68 428.301C192.204 427.922 190.637 427.701 189.169 427.24C187.372 427.172 187.495 427.24 186.71 427.279C185.815 427.296 184.815 427.433 184.035 426.885C183.363 426.554 182.915 426.042 182.652 425.447C180.925 425.684 179.181 425.816 177.433 425.809C177.377 425.812 177.322 425.807 177.275 425.811C174.53 426.526 171.73 426.976 168.895 427.04C167.969 427.091 167.048 426.92 166.145 426.75C165.026 427.219 163.864 427.561 162.697 427.866C162.005 428.175 163.586 427.29 163.799 427.117ZM625.959 428.48C625.702 428.276 625.463 428.065 625.237 427.828C625.213 428.058 625.161 428.285 625.119 428.513C625.408 428.506 625.679 428.488 625.959 428.48ZM578.528 428.965C583.29 428.796 588.061 429.15 592.777 429.944C595.829 429.754 598.885 429.797 601.925 430.34C603.848 430.803 605.687 431.536 607.499 432.341C608.749 431.598 610.039 430.832 611.31 430.156C611.4 430.007 611.508 429.87 611.606 429.732C609.415 429.519 607.228 429.261 605.046 428.966C604.652 428.906 604.257 428.856 603.853 428.813C601.439 428.856 599.023 428.751 596.617 428.451C593.526 429.363 590.185 430.183 587.494 428.439C587.139 428.188 586.834 427.905 586.571 427.579C585.346 427.729 584.188 427.859 583.38 427.848C583.911 427.578 584.457 427.338 584.996 427.079C583.795 427.268 582.597 427.421 581.419 427.567C580.479 428.11 579.5 428.574 578.482 428.96C578.501 428.962 578.51 428.963 578.528 428.965ZM448.21 438.329C448.417 438.221 448.633 438.114 448.84 438.005C448.413 437.988 447.996 437.981 447.571 437.955C447.79 438.081 448 438.205 448.21 438.329ZM421.077 454.159C422.168 454.134 423.257 454.128 424.342 454.158C423.859 454.061 423.387 453.946 422.906 453.84C421.999 453.884 421.085 453.908 420.174 453.905C420.481 453.994 420.779 454.072 421.077 454.159Z" fill="#D7C878"/>
<path d="M719.565 369.656C714.607 394.656 709.65 419.657 704.692 444.657C704.775 444.229 699.603 442.726 699.703 442.225C704.66 417.225 709.618 392.224 714.575 367.224C714.494 367.643 719.664 369.155 719.565 369.656Z" fill="black"/>
<path d="M713.731 369.06C714.003 367.62 714.268 366.169 714.54 364.728C714.523 364.8 716.843 365.826 717.047 365.922C717.295 366.041 719.537 366.919 719.53 367.16C719.436 369.112 719.114 371.022 718.563 372.899C718.576 372.863 716.251 371.8 716.056 371.705C715.818 371.587 713.559 370.689 713.573 370.467C713.613 369.997 713.654 369.527 713.685 369.056C713.671 369.184 715.97 370.143 716.191 370.25C716.43 370.368 718.688 371.266 718.674 371.488C718.634 371.958 718.594 372.428 718.563 372.899C716.899 372.091 715.237 371.275 713.573 370.467C714.133 368.591 714.455 366.69 714.54 364.728C716.204 365.535 717.866 366.352 719.53 367.16C719.257 368.601 718.993 370.052 718.72 371.493C718.737 371.42 716.418 370.394 716.214 370.299C716.002 370.192 713.704 369.225 713.731 369.06Z" fill="black"/>
<path d="M718.207 368.592C711.901 367.705 705.784 365.554 699.508 364.391C693.003 363.186 686.438 362.466 679.841 362.135C678.129 362.047 676.535 359.787 674.851 359.703C681.457 360.035 688.022 360.754 694.518 361.959C700.795 363.122 706.901 365.281 713.217 366.16C714.978 366.401 716.484 368.346 718.207 368.592Z" fill="black"/>
<path d="M682.052 362.777C677.245 363.47 673.238 365.839 669.096 368.249C664.192 371.1 659.304 373.971 654.434 376.853C644.932 382.475 635.479 388.158 626.055 393.918C607.217 405.431 588.555 417.213 570.053 429.254C569.224 429.79 565.832 426.317 565.063 426.822C583.566 414.781 602.227 402.998 621.065 391.486C630.23 385.884 639.426 380.351 648.671 374.879C653.551 371.988 658.439 369.117 663.334 366.266C667.723 363.714 671.952 361.09 677.062 360.345C678.602 360.125 680.56 362.992 682.052 362.777Z" fill="black"/>
<path d="M703.725 444.127C681.75 443.469 660.621 437.264 639.107 433.38C617.282 429.445 595.098 428.747 572.991 428.112C571.294 428.064 569.671 425.725 568.001 425.68C590.117 426.316 612.292 427.013 634.117 430.948C655.631 434.832 676.761 441.037 698.735 441.695C700.432 441.744 702.055 444.082 703.725 444.127Z" fill="black"/>
<path d="M628.648 432.009C622.72 441.849 616.478 451.479 609.905 460.906C609.719 461.175 605.057 458.275 604.915 458.474C611.488 449.056 617.73 439.417 623.658 429.577C623.76 429.402 628.581 432.114 628.648 432.009Z" fill="black"/>
<path d="M608.217 460.599C568.404 467.615 528.359 456.516 488.383 459.785C486.779 459.914 484.961 457.22 483.393 457.353C523.37 454.084 563.414 465.183 603.227 458.166C604.724 457.905 606.767 460.855 608.217 460.599Z" fill="black"/>
<path d="M484.566 462.908C474.593 449.506 463.436 437.096 451.171 425.759C452.459 426.955 454.846 426.983 456.16 428.191C468.426 439.528 479.582 451.938 489.556 465.34C488.586 464.038 485.561 464.24 484.566 462.908Z" fill="black"/>
<path d="M456.554 429.581C453.326 441.156 450.945 452.904 449.43 464.817C449.497 464.266 444.365 463.01 444.44 462.385C445.965 450.464 448.337 438.715 451.564 427.149C451.488 427.43 456.657 429.22 456.554 429.581Z" fill="black"/>
<path d="M488.589 467.192C475.968 467.984 463.341 467.854 450.737 466.806C449.004 466.661 447.453 464.516 445.747 464.374C458.352 465.422 470.978 465.551 483.599 464.76C485.229 464.652 487.007 467.286 488.589 467.192Z" fill="black"/>
<path d="M449.156 435.62C426.184 432.42 403.094 430.343 379.922 429.4C378.329 429.335 376.458 426.794 374.932 426.968C375.648 426.886 376.363 426.812 377.087 426.73C378.66 426.552 380.543 429.336 382.077 429.162C381.362 429.245 380.647 429.319 379.922 429.4C378.259 428.593 376.596 427.776 374.932 426.968C398.105 427.911 421.204 429.989 444.166 433.188C445.917 433.428 447.423 435.382 449.156 435.62Z" fill="black"/>
<path d="M444.626 459.205C421.403 457.514 397.477 457.19 374.83 451.345C373.065 450.89 371.589 449.358 369.841 448.913C392.497 454.758 416.412 455.091 439.637 456.773C441.363 456.899 442.928 459.082 444.626 459.205Z" fill="black"/>
<path d="M379.178 433.377C377.919 439.235 376.653 445.082 375.394 450.939C375.5 450.467 370.369 449.108 370.404 448.507C370.673 444.452 371.051 440.418 371.624 436.396C371.982 433.875 371.794 428.861 373.978 427.203C374.665 426.68 378.331 430.116 378.967 429.635C376.783 431.302 376.963 436.307 376.614 438.828C376.05 442.851 375.663 446.885 375.394 450.939C373.731 450.132 372.068 449.315 370.404 448.507C371.663 442.65 372.93 436.803 374.188 430.945C374.1 431.336 379.274 432.904 379.178 433.377Z" fill="black"/>
<path d="M378.626 430.492C352.789 418.377 326.112 408.137 298.678 400.235C297.014 399.427 295.352 398.611 293.688 397.803C310.84 404.073 328 410.345 345.152 416.615C355.765 420.495 367.836 423.868 376.793 431.117C375.395 429.993 373.209 429.819 371.803 428.685C366.926 424.739 361.113 423.058 355.283 420.928C348.995 418.629 342.699 416.329 336.411 414.03C323.827 409.431 311.253 404.833 298.669 400.234C296.958 399.608 295.412 398.301 293.679 397.802C321.357 405.776 348.242 416.15 374.32 428.364C375.463 428.903 376.606 429.442 377.737 430.017C377.974 430.144 379.53 430.912 378.626 430.492Z" fill="black"/>
<path d="M375.262 452.283C359.443 448.46 343.633 444.647 327.814 440.824C312.848 437.211 297.528 432.184 282.1 431.183C266.617 430.186 250.963 430.537 235.455 430.3C219.139 430.051 202.815 429.793 186.499 429.545C184.809 429.515 183.171 427.139 181.509 427.112C197.825 427.361 214.149 427.619 230.465 427.867C245.973 428.105 261.629 427.735 277.11 428.751C292.536 429.771 307.85 434.769 322.824 438.391C338.643 442.215 354.453 446.028 370.272 449.851C372.042 450.27 373.521 451.858 375.262 452.283Z" fill="black"/>
<path d="M296.419 399.96C254.034 406.668 212.141 416.218 171.034 428.549C169.708 428.949 167.322 425.73 166.044 426.117C207.15 413.796 249.043 404.245 291.429 397.528C292.952 397.288 294.952 400.196 296.419 399.96Z" fill="black"/>
<path d="M186.002 428.971C181.705 428.082 177.408 427.908 173.053 428.454C171.497 428.653 169.581 425.829 168.063 426.022C172.418 425.476 176.715 425.65 181.012 426.539C182.778 426.902 184.254 428.61 186.002 428.971Z" fill="black"/>
<path d="M309.15 379.843C263.837 398.455 213.418 402.41 170.026 426.024C169.058 426.555 165.953 423.093 165.036 423.592C208.428 399.978 258.848 396.023 304.16 377.411C305.327 376.929 308.042 380.293 309.15 379.843Z" fill="black"/>
<path d="M414.521 411.037C391.97 407.379 369.418 403.721 346.867 400.063C335.737 398.259 324.617 396.456 313.487 394.651C305.385 393.333 293.681 389.301 286.546 395.228C285.934 395.74 282.117 392.334 281.557 392.796C288.519 387.009 299.645 390.785 307.593 392.068C319.015 393.922 330.446 395.776 341.868 397.63C364.419 401.288 386.971 404.946 409.522 408.604C411.297 408.884 412.793 410.753 414.521 411.037Z" fill="black"/>
<path d="M407.531 403.483C370.791 398.629 334.433 387.416 297.028 390.732C295.432 390.871 293.597 388.158 292.038 388.3C329.443 384.984 365.791 396.205 402.542 401.051C404.294 401.282 405.807 403.255 407.531 403.483Z" fill="black"/>
<path d="M286.464 395.387C253.787 407.07 218.647 409.993 186.396 423.014C185.221 423.485 182.523 420.132 181.406 420.582C213.657 407.561 248.807 404.639 281.475 392.955C282.721 392.51 285.276 395.811 286.464 395.387Z" fill="black"/>
<path d="M608.049 397.352C592.886 398.257 577.919 397.472 562.834 395.865C547.934 394.278 533.027 393.983 518.05 393.736C487.41 393.226 456.705 392.365 426.129 394.866C424.525 394.995 422.707 392.301 421.14 392.434C451.715 389.933 482.421 390.794 513.061 391.304C527.749 391.548 542.381 391.805 556.998 393.344C572.369 394.972 587.597 395.84 603.059 394.92C604.688 394.821 606.467 397.446 608.049 397.352Z" fill="black"/>
<path d="M425.44 396.021C423.264 398.322 421.053 400.591 418.783 402.798C417.716 403.839 416.64 404.87 415.547 405.89C415.133 406.283 411.524 409.112 412.693 409.756C411.057 408.961 409.429 408.166 407.792 407.371C409.873 404.92 411.945 402.469 414.025 400.028C415.693 398.055 417.403 395.063 419.473 393.598C421.181 392.392 424.713 394.447 426.078 395.8C424.849 394.573 422.343 394.607 421.088 393.368C420.971 393.244 420.843 393.128 420.726 393.004C422.39 393.812 424.052 394.629 425.716 395.436C423.326 395.966 420.927 400.196 419.398 401.998C417.189 404.602 414.98 407.207 412.782 409.803C412.612 409.999 408.328 407.669 407.88 407.417C407.563 407.244 407.257 407.063 406.94 406.89C406.914 406.878 406.879 406.856 406.852 406.844C411.567 402.606 416.097 398.19 420.452 393.58C420.859 393.158 425.094 396.394 425.44 396.021Z" fill="black"/>
<path d="M450.194 426.205C442.179 413.549 429.308 404.697 419.895 393.121C420.941 394.413 423.814 394.241 424.885 395.553C434.297 407.129 447.168 415.981 455.183 428.637C454.345 427.321 451.047 427.551 450.194 426.205Z" fill="black"/>
<path d="M443.473 433.85C432.489 423.95 420.504 415.341 407.612 408.105C408.762 408.756 410.959 409.62 412.427 410.435C425.38 417.705 437.419 426.339 448.454 436.281C447.155 435.102 444.808 435.041 443.473 433.85Z" fill="black"/>
<path d="M625.032 431.992C569.281 428.894 513.437 427.748 457.601 428.557C455.934 428.577 454.241 426.101 452.611 426.125C508.438 425.315 564.292 426.461 620.042 429.559C621.762 429.657 623.349 431.898 625.032 431.992Z" fill="black"/>
<path d="M605.917 393.835C590.846 394.927 576.111 393.44 561.084 392.528C545.826 391.591 530.51 390.946 515.23 390.49C499.652 390.032 484.113 390.619 468.571 391.587C460.894 392.062 453.222 392.584 445.541 393.096C438.638 393.551 431.737 393.81 425.19 396.274C423.97 396.731 421.363 393.406 420.201 393.842C426.737 391.386 433.648 391.119 440.551 390.664C448.222 390.16 455.904 389.639 463.582 389.154C479.123 388.186 494.663 387.59 510.24 388.058C525.52 388.514 540.835 389.168 556.094 390.096C571.12 391.018 585.856 392.495 600.927 391.403C602.539 391.284 604.342 393.948 605.917 393.835Z" fill="black"/>
<path d="M600.347 390.728C601.453 391.002 602.544 390.978 603.638 390.656C603.725 390.628 604.401 391.006 604.375 390.994C604.969 391.27 605.552 391.564 606.145 391.85C606.729 392.135 607.322 392.42 607.905 392.714C607.985 392.75 608.598 393.113 608.628 393.088C608.456 393.219 608.293 393.35 608.122 393.481C608.082 393.505 607.297 393.097 607.385 393.143C606.791 392.867 606.208 392.573 605.615 392.287C605.031 392.002 604.438 391.717 603.855 391.423C603.775 391.386 603.162 391.024 603.132 391.049C603.304 390.918 603.466 390.787 603.638 390.656C605.302 391.463 606.964 392.28 608.628 393.088C607.543 393.411 606.442 393.444 605.337 393.16C605.102 393.098 604.805 392.918 604.601 392.822C604.007 392.546 603.424 392.252 602.831 391.966C602.247 391.681 601.654 391.396 601.071 391.102C600.849 390.995 600.583 390.79 600.347 390.728Z" fill="black"/>
<path d="M607.885 395.465C607.422 395.091 606.957 394.735 606.451 394.421C605.292 393.769 605.762 393.986 607.844 395.061C609.973 396.038 610.422 396.281 609.2 395.78C608.923 395.676 608.634 395.59 608.354 395.514C607.938 395.396 607.82 395.198 608.02 395.684C608.123 395.936 608.358 396.184 608.531 396.398C608.933 396.905 609.389 397.344 609.885 397.759C608.221 396.951 606.559 396.134 604.895 395.327C604.768 395.118 604.641 394.909 604.514 394.701C604.562 394.78 605.268 395.05 605.251 395.039C605.845 395.315 606.428 395.609 607.021 395.895C607.605 396.18 608.198 396.465 608.781 396.759C608.949 396.842 609.408 396.983 609.504 397.133C609.631 397.342 609.758 397.55 609.885 397.759C609.837 397.68 609.131 397.41 609.148 397.421C608.554 397.144 607.971 396.851 607.378 396.565C606.6 396.185 605.571 395.882 604.895 395.327C604.484 394.986 604.102 394.639 603.763 394.24C603.697 394.159 602.769 393.075 602.857 392.954C603.041 392.704 605.459 393.861 605.75 394.003C608.17 395.141 610.794 396.19 612.883 397.907C612.249 397.385 611.119 397.08 610.376 396.713C609.589 396.323 608.561 396.02 607.885 395.465Z" fill="black"/>
<path d="M603.891 392.58C599.985 373.315 585.97 359.171 572.418 345.923C573.666 347.142 576.142 347.124 577.407 348.355C590.969 361.604 604.975 375.747 608.881 395.012C608.658 393.947 604.115 393.72 603.891 392.58Z" fill="black"/>
<path d="M575.432 346.882C526.836 344.388 478.055 342.768 429.687 337.22C427.941 337.018 426.416 334.987 424.697 334.788C473.074 340.337 521.846 341.956 570.443 344.45C572.154 344.537 573.75 346.788 575.432 346.882Z" fill="black"/>
<path d="M429.957 338.811C416.677 350.537 405.474 364.276 396.665 379.654C396.585 379.794 391.72 377.152 391.675 377.221C400.484 361.844 411.688 348.105 424.967 336.379C425.53 335.889 429.454 339.26 429.957 338.811Z" fill="black"/>
<path d="M413.168 389.967C412.606 378.691 412.709 367.112 410.275 356.048C410.513 357.143 415.005 357.327 415.264 358.48C417.708 369.545 417.596 381.123 418.158 392.399C418.108 391.547 413.209 390.901 413.168 389.967Z" fill="black"/>
<path d="M417.465 393.321C414.277 396.036 411.487 399.128 409.115 402.58C408.938 402.841 404.256 399.957 404.125 400.148C406.506 396.697 409.287 393.613 412.475 390.889C412.638 390.757 414.734 391.964 414.982 392.083C415.212 392.191 417.323 393.436 417.465 393.321Z" fill="black"/>
<path d="M400.467 392.396C398.765 386.386 396.524 380.643 393.696 375.081C395.36 375.889 397.022 376.705 398.686 377.513C399.697 381.87 400.988 386.127 402.682 390.267C404.355 394.34 406.71 398.123 407.229 402.558C407.116 401.598 402.363 401.153 402.239 400.126C401.721 395.682 399.365 391.908 397.692 387.835C395.998 383.694 394.707 379.438 393.696 375.081C393.951 376.196 398.124 376.403 398.686 377.513C401.503 383.084 403.754 388.827 405.457 394.829C405.122 393.677 400.813 393.614 400.467 392.396Z" fill="black"/>
<path d="M394.776 379.399C365.899 380.609 336.782 372.874 308.178 379.443C306.749 379.767 304.57 376.691 303.188 377.011C331.792 370.442 360.909 378.177 389.786 376.967C391.44 376.899 393.178 379.472 394.776 379.399Z" fill="black"/>
<path d="M570.865 342.997C574.263 326.185 576.728 309.219 578.249 292.125C579.913 292.933 581.575 293.75 583.239 294.557C580.176 311.898 577.682 329.316 575.737 346.812C575.799 346.232 570.679 345.033 570.748 344.38C572.683 326.883 575.187 309.456 578.249 292.125C578.158 292.636 583.295 293.94 583.239 294.557C581.719 311.641 579.254 328.608 575.855 345.429C575.936 345.019 570.766 343.498 570.865 342.997Z" fill="black"/>
<path d="M581.938 294.457C571.437 293.222 560.928 291.976 550.427 290.74C548.681 290.537 547.155 288.507 545.437 288.308C555.938 289.543 566.447 290.789 576.948 292.025C578.702 292.238 580.22 294.258 581.938 294.457Z" fill="black"/>
<path d="M551.86 290.463C542.294 294.302 532.726 297.991 522.589 300.012C512.242 302.076 502.794 305.062 493.136 309.337C473.858 317.874 455.049 327.436 436.749 337.908C435.818 338.442 432.631 334.972 431.759 335.475C450.058 325.013 468.867 315.451 488.146 306.905C497.521 302.758 506.717 299.699 516.783 297.736C527.219 295.7 537.032 291.98 546.88 288.032C548.056 287.551 550.734 290.912 551.86 290.463Z" fill="black"/>
<path d="M612.462 402.523C612.292 402.635 612.403 402.731 612.54 402.838C610.877 402.03 609.214 401.214 607.551 400.406C608.272 400.268 606.689 397.897 606.494 397.542C605.8 396.269 605.107 394.996 604.403 393.731C606.066 394.539 607.729 395.356 609.392 396.163C610.195 397.996 611.218 399.676 612.488 401.214C610.824 400.406 609.162 399.59 607.498 398.782C606.866 397.46 606.234 396.128 605.601 394.806C607.265 395.614 608.927 396.43 610.591 397.238C610.983 399.075 607.299 396.789 606.998 396.646C606.484 396.397 605.23 396.032 604.851 395.564C604.53 395.168 604.592 394.672 605.137 394.534C605.232 394.507 605.89 394.883 605.873 394.872C606.467 395.148 607.05 395.442 607.643 395.728C608.227 396.013 608.82 396.298 609.403 396.592C609.518 396.651 610.1 396.861 610.126 396.966C610.375 398.052 610.826 398.974 611.545 399.831C611.463 399.73 610.853 399.517 610.809 399.493C610.215 399.217 609.632 398.923 609.039 398.637C608.26 398.258 607.232 397.954 606.556 397.399C606.29 397.185 606.025 396.962 605.768 396.749C606.402 397.271 607.532 397.576 608.275 397.943C609.053 398.323 610.082 398.626 610.758 399.181C611.024 399.395 611.289 399.618 611.545 399.831C609.882 399.024 608.219 398.207 606.556 397.399C605.837 396.542 605.385 395.62 605.137 394.534C606.8 395.342 608.463 396.158 610.126 396.966C609.619 397.099 609.471 397.623 609.841 397.996C608.178 397.189 606.515 396.372 604.851 395.564C605.388 395.677 605.714 395.32 605.61 394.807C605.665 395.082 607.807 395.847 608.117 396.001C608.701 396.286 609.294 396.571 609.877 396.865C610.027 396.937 610.531 397.102 610.6 397.239C611.233 398.561 611.864 399.893 612.497 401.215C612.466 401.156 611.717 400.854 611.761 400.877C611.167 400.601 610.584 400.307 609.991 400.021C609.407 399.736 608.814 399.451 608.231 399.157C608.036 399.062 607.648 398.947 607.507 398.783C606.238 397.236 605.214 395.565 604.412 393.732C604.434 393.79 605.201 394.094 605.148 394.07C605.742 394.347 606.325 394.64 606.918 394.926C607.502 395.211 608.095 395.496 608.678 395.79C608.837 395.872 609.324 396.017 609.402 396.164C610.018 397.289 610.642 398.425 611.259 399.55C611.523 400.043 613.1 402.209 612.75 402.702C612.434 403.143 610.114 401.68 609.715 401.49C609.521 401.395 607.13 400.334 607.491 400.093C607.72 399.94 609.714 401.145 609.997 401.287C610.253 401.416 612.252 402.659 612.462 402.523Z" fill="black"/>
</svg>
