<svg width="477" height="78" viewBox="0 0 477 78" fill="none" xmlns="http://www.w3.org/2000/svg">
<path d="M476.414 16.4142C477.195 15.6332 477.195 14.3668 476.414 13.5858L463.686 0.857864C462.905 0.0768156 461.639 0.0768156 460.858 0.857864C460.077 1.63891 460.077 2.90524 460.858 3.68629L472.172 15L460.858 26.3137C460.077 27.0948 460.077 28.3611 460.858 29.1421C461.639 29.9232 462.905 29.9232 463.686 29.1421L476.414 16.4142ZM0 17H475V13H0V17Z" fill="#FFF761"/>
<path d="M8.912 65C8 65 7.16 64.772 6.392 64.316C5.648 63.86 5.048 63.26 4.592 62.516C4.136 61.748 3.908 60.908 3.908 59.996V58.016H8.66V59.78C8.66 59.9 8.696 60.008 8.768 60.104C8.864 60.176 8.972 60.212 9.092 60.212H24.608C24.728 60.212 24.824 60.176 24.896 60.104C24.992 60.008 25.04 59.9 25.04 59.78V54.848C25.04 54.728 24.992 54.632 24.896 54.56C24.824 54.488 24.728 54.452 24.608 54.452H8.912C8 54.452 7.16 54.224 6.392 53.768C5.648 53.312 5.048 52.712 4.592 51.968C4.136 51.2 3.908 50.348 3.908 49.412V44.084C3.908 43.172 4.136 42.344 4.592 41.6C5.048 40.832 5.648 40.22 6.392 39.764C7.16 39.308 8 39.08 8.912 39.08H24.824C25.736 39.08 26.564 39.308 27.308 39.764C28.076 40.22 28.688 40.832 29.144 41.6C29.6 42.344 29.828 43.172 29.828 44.084V46.064H25.04V44.3C25.04 44.18 24.992 44.084 24.896 44.012C24.824 43.916 24.728 43.868 24.608 43.868H9.092C8.972 43.868 8.864 43.916 8.768 44.012C8.696 44.084 8.66 44.18 8.66 44.3V49.232C8.66 49.352 8.696 49.448 8.768 49.52C8.864 49.592 8.972 49.628 9.092 49.628H24.824C25.736 49.628 26.564 49.856 27.308 50.312C28.076 50.768 28.688 51.38 29.144 52.148C29.6 52.892 29.828 53.732 29.828 54.668V59.996C29.828 60.908 29.6 61.748 29.144 62.516C28.688 63.26 28.076 63.86 27.308 64.316C26.564 64.772 25.736 65 24.824 65H8.912ZM38.5462 65C37.6342 65 36.8062 64.772 36.0622 64.316C35.3182 63.86 34.7182 63.26 34.2622 62.516C33.8062 61.772 33.5782 60.944 33.5782 60.032V49.088C33.5782 48.176 33.8062 47.348 34.2622 46.604C34.7182 45.86 35.3182 45.26 36.0622 44.804C36.8062 44.348 37.6342 44.12 38.5462 44.12H49.8142C50.7262 44.12 51.5542 44.348 52.2982 44.804C53.0662 45.26 53.6662 45.86 54.0982 46.604C54.5542 47.348 54.7822 48.176 54.7822 49.088V56.936H38.2942V59.852C38.2942 59.972 38.3302 60.08 38.4022 60.176C38.4982 60.248 38.6062 60.284 38.7262 60.284H54.7822V65H38.5462ZM38.2942 52.688H50.0662V49.268C50.0662 49.148 50.0182 49.052 49.9222 48.98C49.8502 48.884 49.7542 48.836 49.6342 48.836H38.7262C38.6062 48.836 38.4982 48.884 38.4022 48.98C38.3302 49.052 38.2942 49.148 38.2942 49.268V52.688ZM62.6985 65C61.7865 65 60.9585 64.772 60.2145 64.316C59.4705 63.86 58.8705 63.26 58.4145 62.516C57.9585 61.772 57.7305 60.944 57.7305 60.032V49.088C57.7305 48.176 57.9585 47.348 58.4145 46.604C58.8705 45.86 59.4705 45.26 60.2145 44.804C60.9585 44.348 61.7865 44.12 62.6985 44.12H73.9665C74.8785 44.12 75.7065 44.348 76.4505 44.804C77.2185 45.26 77.8185 45.86 78.2505 46.604C78.7065 47.348 78.9345 48.176 78.9345 49.088V56.936H62.4465V59.852C62.4465 59.972 62.4825 60.08 62.5545 60.176C62.6505 60.248 62.7585 60.284 62.8785 60.284H78.9345V65H62.6985ZM62.4465 52.688H74.2185V49.268C74.2185 49.148 74.1705 49.052 74.0745 48.98C74.0025 48.884 73.9065 48.836 73.7865 48.836H62.8785C62.7585 48.836 62.6505 48.884 62.5545 48.98C62.4825 49.052 62.4465 49.148 62.4465 49.268V52.688ZM98.7362 65C97.8242 65 96.9842 64.772 96.2162 64.316C95.4722 63.86 94.8722 63.26 94.4162 62.516C93.9602 61.748 93.7322 60.908 93.7322 59.996V58.016H98.4842V59.78C98.4842 59.9 98.5202 60.008 98.5922 60.104C98.6882 60.176 98.7962 60.212 98.9162 60.212H114.432C114.552 60.212 114.648 60.176 114.72 60.104C114.816 60.008 114.864 59.9 114.864 59.78V54.848C114.864 54.728 114.816 54.632 114.72 54.56C114.648 54.488 114.552 54.452 114.432 54.452H98.7362C97.8242 54.452 96.9842 54.224 96.2162 53.768C95.4722 53.312 94.8722 52.712 94.4162 51.968C93.9602 51.2 93.7322 50.348 93.7322 49.412V44.084C93.7322 43.172 93.9602 42.344 94.4162 41.6C94.8722 40.832 95.4722 40.22 96.2162 39.764C96.9842 39.308 97.8242 39.08 98.7362 39.08H114.648C115.56 39.08 116.388 39.308 117.132 39.764C117.9 40.22 118.512 40.832 118.968 41.6C119.424 42.344 119.652 43.172 119.652 44.084V46.064H114.864V44.3C114.864 44.18 114.816 44.084 114.72 44.012C114.648 43.916 114.552 43.868 114.432 43.868H98.9162C98.7962 43.868 98.6882 43.916 98.5922 44.012C98.5202 44.084 98.4842 44.18 98.4842 44.3V49.232C98.4842 49.352 98.5202 49.448 98.5922 49.52C98.6882 49.592 98.7962 49.628 98.9162 49.628H114.648C115.56 49.628 116.388 49.856 117.132 50.312C117.9 50.768 118.512 51.38 118.968 52.148C119.424 52.892 119.652 53.732 119.652 54.668V59.996C119.652 60.908 119.424 61.748 118.968 62.516C118.512 63.26 117.9 63.86 117.132 64.316C116.388 64.772 115.56 65 114.648 65H98.7362ZM128.442 65C127.53 65 126.702 64.772 125.958 64.316C125.214 63.86 124.614 63.26 124.158 62.516C123.702 61.772 123.474 60.944 123.474 60.032V37.712H128.19V44.12H136.326V48.836H128.19V59.852C128.19 59.972 128.226 60.08 128.298 60.176C128.394 60.248 128.502 60.284 128.622 60.284H136.326V65H128.442ZM144.156 65C143.244 65 142.416 64.772 141.672 64.316C140.928 63.86 140.328 63.26 139.872 62.516C139.416 61.772 139.188 60.944 139.188 60.032V49.088C139.188 48.176 139.416 47.348 139.872 46.604C140.328 45.86 140.928 45.26 141.672 44.804C142.416 44.348 143.244 44.12 144.156 44.12H155.424C156.336 44.12 157.164 44.348 157.908 44.804C158.676 45.26 159.276 45.86 159.708 46.604C160.164 47.348 160.392 48.176 160.392 49.088V60.032C160.392 60.944 160.164 61.772 159.708 62.516C159.276 63.26 158.688 63.86 157.944 64.316C157.2 64.772 156.36 65 155.424 65H144.156ZM144.336 60.284H155.244C155.364 60.284 155.46 60.248 155.532 60.176C155.628 60.08 155.676 59.972 155.676 59.852V49.268C155.676 49.148 155.628 49.052 155.532 48.98C155.46 48.884 155.364 48.836 155.244 48.836H144.336C144.216 48.836 144.108 48.884 144.012 48.98C143.94 49.052 143.904 49.148 143.904 49.268V59.852C143.904 59.972 143.94 60.08 144.012 60.176C144.108 60.248 144.216 60.284 144.336 60.284ZM163.376 65V49.088C163.376 48.176 163.604 47.348 164.06 46.604C164.516 45.86 165.116 45.26 165.86 44.804C166.628 44.348 167.456 44.12 168.344 44.12H179.936V48.836H168.524C168.404 48.836 168.296 48.884 168.2 48.98C168.128 49.052 168.092 49.148 168.092 49.268V65H163.376ZM185.317 72.74V67.988H197.881C198.001 67.988 198.097 67.94 198.169 67.844C198.265 67.772 198.312 67.676 198.312 67.556V65H186.793C185.905 65 185.077 64.772 184.309 64.316C183.565 63.86 182.965 63.26 182.509 62.516C182.053 61.772 181.825 60.944 181.825 60.032V44.192H186.541V59.852C186.541 59.972 186.577 60.08 186.649 60.176C186.745 60.248 186.853 60.284 186.973 60.284H197.881C198.001 60.284 198.097 60.248 198.169 60.176C198.265 60.08 198.312 59.972 198.312 59.852V44.192H203.029V67.772C203.029 68.684 202.813 69.512 202.381 70.256C201.949 71.024 201.349 71.624 200.581 72.056C199.837 72.512 199.009 72.74 198.097 72.74H185.317Z" fill="#FFF761"/>
</svg>
