<?xml version="1.0" encoding="utf-8"?>
<!-- Generator: Adobe Adobe Illustrator 24.2.0, SVG Export Plug-In . SVG Version: 6.00 Build 0)  -->
<svg version="1.1" xmlns="http://www.w3.org/2000/svg" xmlns:xlink="http://www.w3.org/1999/xlink" x="0px" y="0px" width="800px"
	 height="800px" viewBox="0 0 800 800" style="enable-background:new 0 0 800 800;" xml:space="preserve">
<style type="text/css">
	.st0{fill:#EBD85B;}
	.st1{fill:#F3EE92;}
	.st2{fill:none;}
	.st3{fill:#F1EEAF;}
	.st4{fill:#D7C878;}
</style>
<g id="Layer_2">
	<path class="st0" d="M704.52,389.05c-0.13-0.01-0.27-0.01-0.4-0.01c-0.07-0.05-0.18-0.05-0.35-0.01c-0.19,0-0.38-0.02-0.57-0.02
		c-3.04-0.22-6.08-0.14-9.12,0.06c-0.01,0-0.01,0-0.02,0c-1.39-0.13-2.77-0.24-4.16-0.32c-0.03-0.01-0.07-0.02-0.1-0.03
		c2.49-0.51,4.99-1.02,7.48-1.52c-1.23-0.15-2.46-0.28-3.7-0.39c1.29-0.36,2.58-0.71,3.86-1.08c0-0.02-0.01-0.03-0.01-0.04
		c0.04-0.01,0.08-0.01,0.12-0.02c0.15-0.15,0.04-0.44-0.18-0.43c-4.08,0.08-8.18,0.09-12.27,0.18c-8.89-2.03-18.15-2.69-27.01-0.86
		c-0.96,0.06-1.8,0.13-2.56,0.21c-0.39-0.04-0.79-0.06-1.23-0.02c-1.02-0.03-2.17-0.05-3.41-0.07c-7.07-1.36-12.95-1.62-21.63-1.68
		c-0.14,0-0.28,0.01-0.42,0.01c-2.54-0.21-5.08-0.33-7.63-0.2c-6.7,0.3-15.8,1.22-20.31,1.45c-2.83-0.28-5.67-0.53-8.49-0.8
		c-4.93-0.44-9.88-0.65-14.83-0.63c-5.65-0.43-11.31-0.64-16.98-0.38c-1.74,0.01-3.48,0.05-5.22,0.1
		c-11.81-0.48-23.75-0.38-35.54,0.87c-8.72-0.73-17.46-1.13-26.22-1.04c-4.9,0.09-9.81,0.07-14.71,0.25
		c-1.48-0.22-2.98-0.19-4.46-0.03c-2.08-0.41-4.16-0.79-6.26-1.04c-1.66-0.13-3.32-0.22-4.98-0.28c-6.72-0.93-11.87-1.46-21.04-1.79
		c-10.14-0.36-20.26,0.1-30.39,0.67c-4-0.06-8,0.01-11.98,0.49c-0.15,0.03-0.3,0.08-0.44,0.12c-16.07-3-32.73-3.22-49.02-2.07
		c-12.53-1.35-25.05-2.86-37.67-3.13c-14.16-0.71-33.45-0.8-43.21-2.25c-1.06-0.11-2.11,0.1-3.05,0.53
		c-2.48-0.34-4.69-0.59-6.36-0.8c-7.97-0.74-15.96-1.01-23.96-1.06c-3.65-0.82-7.54-0.95-11.19-1.2
		c-17.27-0.98-34.58-0.19-51.85,0.42c-4.34,0.19-8.68,0.36-13.01,0.6c-2.03,0.19-4.86,0.15-7.31,0.71
		c-4.38,0.29-8.28,3.1-11.18,6.82c-1.37,0.58-2.71,1.24-3.99,2.03c-1.77,0.79-3,2.54-3.12,4.38c-0.03,0.03-0.06,0.05-0.08,0.08
		c-0.99,1.02-1.58,2.5-1.66,3.98c-0.23,1.09-0.16,2.2,0.18,3.24c-4.56-0.13-7.15,5.63-3.31,8.55c0.09,0.07,0.19,0.12,0.28,0.18
		c1.71,2.08,4.75,2.16,7.24,2.43c1.95,0.18,3.91,0.32,5.87,0.45c6.97,1.98,15.46,4.9,22.09,6.74c-3.36,0.64-6.71,1.41-10.08,1.93
		c-0.3,0.05-0.59,0.1-0.89,0.15c-2.43,0.37-4.86,0.79-7.27,1.27c-1.4,0.26-2.79,0.53-4.18,0.84c-4.74-2.51-11.48-0.51-14.34,0.13
		c-0.92,0.28-1.9,0.59-2.9,0.93c-0.27,0.07-0.54,0.14-0.81,0.2c-2.27-2.55-9.25-0.05-12.95,1.55c-0.86,0.27-1.66,0.63-2.34,1.17
		c-0.33,0.27-0.58,0.61-0.77,0.98c-0.13,0.07-0.27,0.13-0.4,0.21c-0.1,0.06-0.15,0.18-0.12,0.3c0.07,0.09,0.16,0.17,0.24,0.25
		c-0.26,1.05-0.04,2.22,0.69,3.01c-0.14,0.4-0.2,0.82-0.17,1.23c-1.02,0.54-2.05,1.06-3.07,1.6c0,0.01,0.01,0.01,0.01,0.02
		c-0.31,0.2-0.54,0.47-0.6,0.89c-0.09,0.44,0.13,0.87,0.47,1.13c-1.19,1.35-2.28,2.79-3.31,4.27c-2,2.95-3.82,6.08-5.34,9.34
		c-2,3.45-3.68,7.08-5.53,10.6c0,0,0,0,0,0c0,0,0,0,0,0c-0.34,0.56-0.51,1.16-0.56,1.74c-3.47,4.49-6.88,9.03-10.07,13.73
		c-1.07,1.55-2.07,3.14-3,4.78c-0.4,0.67-1.16,1.96-0.4,2.44c-0.46,0.59-0.9,1.19-1.32,1.81c-0.42,0.88-0.41,1.76-0.12,2.55
		c-0.13,0.07-0.25,0.14-0.38,0.21c-0.39,0.18-0.79,0.37-1.18,0.59c-0.95,0.52-1.13,1.8-0.6,2.64c-0.64,0.36-1.28,0.72-1.91,1.08
		c-0.24,0.14-0.16,0.49,0.06,0.57c-0.28,0.13-0.56,0.26-0.83,0.39c0.83-0.11,1.65-0.24,2.47-0.37c-0.56,0.64-1.11,1.3-1.65,1.98
		c-0.23,0.2-0.46,0.41-0.69,0.61c0.12-0.06,0.24-0.11,0.35-0.17c-0.49,0.65-0.98,1.31-1.44,2.01c1.86-1.44,3.79-2.78,5.77-4.04
		c10.17-0.12,20-2.89,29.68-6.02c0.59-0.13,1.19-0.26,1.78-0.38c0.24-0.05,0.47-0.11,0.71-0.16c0.57,0.67,1.2,1.29,1.87,1.87
		c-0.12,0.75-0.24,1.5-0.34,2.25c-0.7,4.9-0.52,9.98,0.74,14.78c-0.64,1.97-1.04,3.94-1.13,5.92c-0.06,3.65,1.18,7.25,3.35,10.16
		c-0.24,1.02-0.49,2.04-0.77,3.05c-0.28,0.99-0.57,1.99-0.85,3c-0.98,2.2-2.08,4.7-3.32,7.93c-1.11,2.45-1.5,5.52-0.68,8.11
		c-0.18,0.57-0.35,1.14-0.48,1.72c-0.52,1.82-0.56,3.55-0.21,5.06c-0.51,0.26-0.98,0.59-1.39,1.01c-2.08,2.26-3.05,2.98-3.28,3.13
		c-0.06,0.04-0.11,0.09-0.17,0.13c0,0.33-0.01,0.67-0.06,1.03c-0.28,2.12-0.29,4.22-0.56,6.32c0.02,0.31,0.04,0.61,0.06,0.92
		c0.67-0.08,1.29-0.16,1.77-0.19c4.33-0.25,8.58-1.39,12.89-1.51c0.02,0,0.03,0,0.05,0c0.63-0.28,1.26-0.56,1.89-0.85
		c0.25-0.12,0.5-0.23,0.75-0.35c0.66,0.05,1.35-0.01,2.07-0.2c1.2-0.28,2.34-0.74,3.46-1.25c1.73-0.2,3.43-0.51,5.12-0.9
		c0.86,0.72,1.93,1.25,3.14,1.54c5.37,1.15,10.29-2.21,15.31-3.61c1.01-0.35,2.02-0.68,3.03-1.02c4.04-0.09,8.8-1.59,12.21-2.7
		c0.49,0.96,1.49,1.69,2.62,1.69c1.12,0.06,2.15-0.28,3.13-0.78c0.28,0.28,0.59,0.54,0.92,0.76c0.21-0.04,0.41-0.09,0.61-0.13
		c3.5-1.09,7.1-1.77,10.75-2.3c5.41-1.28,10.83-2.54,16.1-4.26c2.54-0.83,5.14-0.97,7.63-1.95c1.72-0.68,3.41-1.44,5.13-2.13
		c4.36-1.73,9.05-2.84,13.52-4.26c3.15-1,6.45-2.14,9.7-2.76c3.8-0.73,7.45-2.66,11.44-3.35c7.01-1.21,10.43-2.62,15.95-4.57
		c2.07-2.03,5.45-2.47,8.27-1.39c5.11-1.9,10.26-3.66,15.44-5.35c14.02-3.19,27.97-6.69,41.85-10.42c2.68,0.06,5.5-0.84,7.88-1.88
		c1.15-0.42,2.31-0.82,3.46-1.22c0.49-0.14,0.98-0.27,1.47-0.41c0.25,0.33,0.52,0.62,0.79,0.86c4.15-1.68,8.45-2.95,12.82-3.95
		c0.67-0.21,1.35-0.41,2.02-0.61c3.12-1.3,6.27-2.47,9.51-3.47c1.92-0.59,3.9-1.14,5.91-1.62c9.67-3.46,20.64-7.26,30.93-7.39
		c0.92-0.33,1.84-0.66,2.77-0.98c5.25-1.25,10.52-2.45,15.8-3.61c3-2.29,7.79-2.64,11.21-3.93c5.05-1.9,9.67-4.28,14.91-5.77
		c0.44-0.13,0.88-0.25,1.33-0.37c4.46-1.99,9.71-3.14,13.84-4.27c1.76-0.49,3.31-0.42,4.61,0.02c5.17-1.59,10.52-2.83,15.59-4.33
		c0.54-0.16,1.1-0.33,1.66-0.51c0.62-1.04,1.43-1.96,2.43-2.63c2.5-1.68,6.22-2.44,9.52-1.88c2.43-0.49,4.93-0.73,7.31-1.3
		c0.35-0.08,0.69-0.18,1.04-0.28c6.65-2.66,13.5-4.9,20.39-6.52c8.75-2.63,17.81-5.48,26.71-6.61c0.19-0.02,0.38-0.04,0.57-0.05
		c0.53-0.18,1.06-0.36,1.59-0.54c4.24-1.19,8.51-2.29,12.8-3.31c1.07-0.18,1.96-0.62,2.69-1.22c1.58-0.32,3.15-0.64,4.73-0.98
		c2-1.21,4.36-1.85,6.73-2.41c4.17-0.97,6.55-2.35,11.22-3.84c7.75-2.48,14.63-5.39,21.82-8.38c4.31-1.8,9.15-3.83,13.7-4.92
		c0.7-0.17,1.37-0.29,2.02-0.4c0.7-0.38,1.45-0.76,1.62-0.86c1.18-0.68,2.49-1.23,3.72-1.81c1.43-0.67,2.86-1.34,4.33-1.92
		c0.91-0.31,1.81-0.63,2.7-0.98c1.58-0.64,1.97-0.64,1.18-0.01c0.8-0.44,1.67-0.7,2.55-0.81c0.55-0.21,1.09-0.42,1.64-0.58
		c0.4-0.12,0.67-0.2,0.83-0.25c0.44-0.35,0.88-0.72,1.38-1c2.93-1.67,6.36-2.79,9.58-3.7c0.14-0.04,0.29-0.09,0.44-0.13
		c1.2-0.59,2.4-1.2,3.57-1.88c0.54-0.31,1.08-0.55,1.61-0.72c-0.11-0.16-0.22-0.31-0.36-0.45c2.42-0.57,4.84-1.18,7.25-1.77
		c2.82-0.6,5.65-1.15,8.44-1.9c3.47-0.22,6.93-0.62,10.36-1.35c5.57-1.11,10.95-3.07,16.45-4.39
		C705.1,390.06,705.06,389.25,704.52,389.05z M77.36,485.26c0.43-0.2,0.87-0.39,1.3-0.59c0.54-0.1,1.07-0.19,1.61-0.3
		C79.3,484.69,78.33,484.97,77.36,485.26z M112.52,445.25c-0.15,0.11-0.31,0.23-0.46,0.34c0.23-0.37,0.47-0.73,0.71-1.09
		c0.24-0.21,0.47-0.41,0.71-0.61C113.15,444.34,112.84,444.8,112.52,445.25z M184.67,397.8c0.55,0.02,1.1,0.04,1.65,0.06
		c0.04,0.14,0.1,0.28,0.15,0.42C185.87,398.12,185.27,397.96,184.67,397.8z"/>
	<path class="st1" d="M705.71,392.1c-4.39-0.54-8.8-0.7-13.22-0.66c-0.12-0.09-0.24-0.17-0.38-0.25c-1.22-0.71-2.67-0.52-4.04-0.56
		c1-1.41,0.6-3.65-0.99-4.53c-0.51-0.25-1.05-0.36-1.6-0.41v-0.02c-0.05,0.01-0.1,0.01-0.15,0.02c-1.4-0.07-2.89,0.31-4.27,0.29
		c-5.93,0.55-11.83,1.33-17.7,2.24c-4.73,0.53-9.46,1.06-14.18,1.63c-2.28,0.26-4.56,0.55-6.84,0.84c-0.99-0.58-2.1-0.96-3.27-1.15
		c-7.88-1.08-15.99-1.37-23.84,0.09c-1.61,0.3-3.21,0.67-4.8,1.07c-7.33-0.52-14.7-0.52-22.01,0.04c-4.7,0.39-9.37,0.94-14.03,1.62
		c-10.84-0.49-21.72-0.55-32.52,0.56c-0.75-0.11-1.5-0.2-2.22-0.31c-8.62-0.96-17.32-0.49-25.97-0.17
		c-6.95,0.17-13.86,0.67-20.76,1.4c-6.3-0.01-12.61,0.22-18.89,0.69c-0.89-0.04-1.77-0.06-2.64-0.11
		c-4.23-0.01-8.46,0.31-12.67,0.65c-11.02-0.96-26.62-2.06-32.28,1.93c-0.17,0-0.34-0.01-0.51-0.01c-0.8-0.38-1.62-0.73-2.4-1.06
		c-6.72-2.41-14.03-2.82-21.1-3.44c-10,0-19.97,1.59-29.77,3.46c-2.76,0.67-5.49,1.44-8.21,2.25c-2.87,0.36-5.67,0.73-8.86,1.06
		c-4.19,0.4-8.39,0.73-12.59,1.03c-7.51-0.1-15.02,0.13-22.53,0.55c-20.14,1.15-40.26,2.63-60.38,4.02
		c-17.54,1.29-35.12,2.16-52.54,4.72c-7.86,1.23-15.66,2.75-23.5,4.08c-0.69,0.12-1.37,0.24-2.06,0.36
		c-1.11-0.9-2.53-1.48-3.93-1.61c-0.65-0.07-1.29-0.11-1.94-0.15c-0.44-0.06-0.88-0.11-1.33-0.15c-6.77-2.25-14.08-0.79-21.06-0.55
		c-4.85,0.46-9.65,1.38-14.33,2.74c-1.19,0.18-4.26,0.7-5.02,0.85c-1.06,0.12-2.11,0.32-3.04,0.89c0,0,0,0-0.01,0.01
		c-1.71,0.3-3.41,0.62-5.11,0.98c-2.14,0.42-4.31,0.72-6.32,1.61c-0.05,0.02-0.1,0.04-0.14,0.06c-2.09,0.02-4.2-0.2-6.28,0.01
		c-1.47,0.18-2.35,1.14-2.99,2.35c-0.84,0.19-1.6,0.56-2.1,1.31c-0.22,0.36-0.21,0.83,0,1.19c0,0,0,0,0,0
		c-0.3,0.51-0.5,1.06-0.61,1.63c-0.23,0.43-0.37,0.87-0.42,1.33c-1.37,1.86-2,4.41-3.01,6.42c-0.44,1.05-1.36,2.98-2.79,5.59
		c-3.96,4.8-7.6,9.84-10.64,15.29c-1,1.83-2.03,3.65-3,5.51c-0.9,1.5-1.69,2.98-2.32,4.38c-2.38,2.36-4.76,4.72-7.14,7.07
		c-1.74,1.71-3.48,3.43-5.14,5.21c-0.74,0.73-1.22,1.66-1.44,2.66c-2.75,1.67-4.97,3.6-5.18,5.87c-0.42,2.12,0.78,4.23,2.56,5.35
		c1.91,1.18,4.17,0.71,6.14-0.07c2.01-0.77,4.01-1.56,5.98-2.42c4.49-1.8,8.62-4.25,12.66-6.88c2.07-0.44,4.14-0.88,6.23-1.2
		c0.82-0.16,2.66-0.43,5.01-0.75c7.77,1.19,15.61-0.92,23.23-2.51c2.85-0.18,5.7-0.34,8.55-0.49c3.22-0.16,6.9,0.08,9.44-2.26
		c0.19-0.18,0.35-0.39,0.51-0.59c4.18-0.63,8.27-1.13,12.88-1.56c1.44-0.01,2.89-0.06,4.33-0.16c3.02-0.34,6.71,0.35,9.07-1.94
		c0.63-0.6,1.06-1.32,1.31-2.1c0.91,0.06,1.83,0.12,2.74,0.18c2.36,0.14,5.03,0.38,7.06-1.06c0.5-0.31,0.93-0.66,1.28-1.04
		c0.71-0.04,1.42-0.09,2.11-0.11c10.18-0.79,20.28-2.29,30.36-3.93c1.22-0.1,2.44-0.21,3.65-0.32c0.46,0.68,1.1,1.22,1.9,1.51
		c1.1,0.63,2.38,0.28,3.57,0.18c2.74-0.27,5.42-0.85,8.12-1.39c4.6-0.94,9.2-1.93,13.79-2.89c2.57-0.6,5.15-1.14,7.73-1.65
		c12.11-1.54,23.6-3,35.96-4.69c6.96-0.92,13.89-1.99,20.84-2.99c3.52-0.71,7.49-0.78,10.84-2.2c0.54-0.06,1.09-0.13,1.66-0.19
		c1.62,0.47,3.41,0.14,5.09,0.12c3.18-0.24,6.33-0.71,9.48-1.16c2.1-0.05,4.2-0.08,6.3-0.11c0.8,0,1.54-0.2,2.23-0.6
		c0.01-0.01,0.02-0.02,0.04-0.03c3.64-0.23,7.27-0.46,10.91-0.73c3-0.23,6.59-0.87,7.93-1.02c3.22-0.31,6.62-0.2,9.54-1.78
		c0.57-0.26,1.08-0.65,1.52-1.11c1.95-0.17,4.15-0.31,7-0.39c3.77-0.1,7.56-0.14,11.32,0.27c2.05,0.42,4.11,1.02,6.2,0.54
		c2.34-0.46,4.19-2.52,4.37-4.89c0.52-0.11,1.05-0.21,1.57-0.34c3-0.64,6.49-1.25,10.28-1.81c6.96-0.44,13.91-0.84,20.88-1.19
		c1.22-0.09,2.44-0.15,3.66-0.27c0.33-0.02,0.99-0.1,1.48-0.17c1.14-0.08,2.3-0.28,3.12-1.16c0.09-0.09,0.16-0.2,0.24-0.3
		c4.66-0.22,9.33-0.24,13.98-0.49c2.6-0.24,5.92,0.46,7.6-2.06c0.46-0.52,0.75-1.13,0.91-1.77c4.62-0.04,9.24-0.11,13.81-0.74
		c1.23-0.13,2.28-0.74,3.07-1.61c6.03-0.34,12.05-0.74,18.07-1.16c0.21,0.11,0.47,0.12,0.75,0.06c0.39,0.18,1.13-0.11,2.28-0.1
		c1.78-0.12,3.56-0.26,5.35-0.39c6.67-0.51,13.34-1.14,19.99-1.87c14.28-1.63,26.45-3.47,40.07-5.91c3.7-0.43,7.39-0.91,11.07-1.46
		c7.64-1.17,9.65-1.2,18.26-2.59c3.06-0.56,6.12-1.31,8.85-2.83c0.18-0.06,0.36-0.12,0.53-0.21c0.23-0.08,0.44-0.19,0.65-0.31
		c2.93-0.58,5.86-1.16,8.79-1.75c0.33-0.08,0.56-0.32,0.67-0.61c1.89,0.15,3.78,0.34,5.67,0.53c1.93,0.09,4.03,0.79,5.84-0.14
		c0.63-0.22,1.17-0.58,1.63-1.02c6.35-0.39,12.67-1.03,18.94-2.27c0.05-0.01,0.1-0.02,0.14-0.03c1.95-0.32,3.89-0.69,5.82-1.11
		c0.68-0.26,1.34-0.41,1.98-0.46c1.55-0.37,3.09-0.76,4.62-1.21c0.92-0.04,1.83-0.07,2.75-0.12c1.69-0.05,3.39-0.11,5.08-0.16
		c2.65-0.96,5.5-1.61,8.42-2.07c1.42-0.36,2.84-0.7,4.19-1.05c1.57-0.41,3.17-0.72,4.78-0.92c0-0.14-0.01-0.29-0.02-0.43
		C697.88,393.21,701.82,392.55,705.71,392.1z"/>
	<g>
		<g>
			<path d="M274.17,516.59c-24.29,6.44-48.58,12.89-72.87,19.33c-3.21,0.85-6.2,2.57-9.4,3.42c24.29-6.44,48.58-12.89,72.87-19.33
				C267.99,519.15,270.97,517.44,274.17,516.59L274.17,516.59z"/>
		</g>
	</g>
	<g>
		<g>
			<path d="M403.11,481.01c-14.35,3.91-28.64,7.99-42.89,12.24c-2.88,0.86-6.79,2.65-9.05,3.32c14.13-4.22,28.31-8.27,42.54-12.14
				C396.93,483.56,399.92,481.88,403.11,481.01L403.11,481.01z"/>
		</g>
	</g>
	<g>
		<g>
			<path d="M659.73,401.49c-18.12,6.87-36.24,13.74-54.36,20.61c-1.78,0.67,1.55-0.49,1.71-0.55c2.15-0.76,4.29-1.55,6.42-2.36
				c18.12-6.87,36.24-13.74,54.36-20.61c1.78-0.67-1.55,0.49-1.71,0.55C664,399.9,661.86,400.68,659.73,401.49L659.73,401.49z"/>
		</g>
	</g>
	<g>
		<g>
			<path d="M553.9,439.26c-42.73,10.75-84.96,23.64-127.33,35.74c-2.88,0.82-6.79,2.68-9.05,3.32
				c42.25-12.06,84.37-24.92,126.98-35.64C547.73,441.87,550.7,440.06,553.9,439.26L553.9,439.26z"/>
		</g>
	</g>
	<path class="st2" d="M270.66,474.29L270.66,474.29c0.08,0,0.16,0,0.24,0l0,0c0.21,0,0.42-0.04,0.62,0l0,0
		c0.17,0.03,0.34,0.14,0.5,0.2l0,0c-4.15,1.56-8.24,3.3-12.45,4.68l0,0c-7.56,2.47-15.31,4.37-22.99,6.44l-21.96,5.71l-12.05,2.71
		l-8.31,2.04l0,0c-1.39,0.36-2.79,0.7-4.14,1.16l0,0c-0.5,0.17-0.97,0.38-1.46,0.58l0,0c0.45,0.28,0.85,0.72,1.34,0.84l0,0
		c2.19,0.52,4.75-0.31,7.1-0.65l0,0c3.71-0.53,7.36-1.48,11.04-2.18l13.45-2.49l14.28-2.3l12.7-2.24l11.85-2.69l11.55-2.64l7.6-1.63
		l3.2-0.7l0,0c0.31-0.08,0.61-0.15,0.91-0.25l0,0c0.11-0.04,0.22-0.08,0.32-0.12l0,0c-0.02-0.08-0.01-0.2-0.06-0.25l0,0
		c-0.24-0.27-0.78-0.32-1.19-0.39l0,0c-1.56-0.28-3.21-0.19-4.81-0.19l0,0c-3.29-0.01-6.6,0.08-9.88,0.33l0,0
		c-5.2,0.4-10.38,1.07-15.54,1.87l-21.02,4.02l-18.87,4.58l-8.99,2.32l0,0c-1.05,0.26-2.23,0.28-3.16,0.78l0,0
		c-0.18,0.1-0.32,0.29-0.48,0.43l0,0c0.64,0.26,1.25,0.67,1.91,0.79l0,0c1.99,0.34,4.14-0.1,6.19-0.3l0,0
		c3.5-0.34,6.97-0.99,10.45-1.54l13.53-2.29l15.38-3.06l13.64-3.17l0,0c2.55-0.68,5.11-1.39,7.59-2.29l0,0
		c0.9-0.32,2.21-0.45,2.64-1.12"/>
	<path class="st2" d="M285.34,480.5L285.34,480.5c0.13-0.08,0.26-0.17,0.4-0.25l0.98-0.63l0,0c0.29-0.19,0.76-0.31,0.86-0.57l0,0
		c0.21-0.55-0.11-1.77-0.56-2.09l0,0c-1.93-1.37-6.13,0.36-9.18,0.67l-12.23,1.66l-7.8,1.16l-19.25,4.02l-19.7,5.04l-7.59,2.27l0,0
		c-0.91,0.28-1.82,0.57-2.73,0.86l0,0c0.35,0.09,0.7,0.23,1.06,0.28l0,0c1.82,0.27,3.7,0.25,5.54,0.19l0,0
		c2.82-0.1,5.63-0.51,8.43-0.85l11.75-1.72l17.43-2.68l16.17-1.68l6.12-0.29l0,0c1.46-0.06,2.94,0.03,4.38-0.13l0,0
		c0.8-0.09,1.58-0.31,2.38-0.46l0,0c-0.01-0.41,0.1-0.87-0.04-1.23l0,0c-0.32-0.77-1.15-1.38-1.83-1.94l0,0
		c-0.9-0.75-1.91-1.47-2.98-1.91l0,0c-1.57-0.64-3.36-0.94-5.07-1.04l0,0c-3.5-0.2-7.08,0.47-10.58,0.95l0,0
		c-4.56,0.63-9.11,1.45-13.59,2.52l0,0c-6.42,1.53-12.79,3.41-19.03,5.56l0,0c-5.68,1.95-11.32,4.12-16.77,6.65l0,0
		c-3.84,1.78-7.58,3.84-11.22,6.01l0,0c-1.64,0.98-3.26,2.02-4.79,3.17l0,0c-0.61,0.46-1.16,0.99-1.74,1.49"/>
	<path class="st2" d="M273.98,478.4L273.98,478.4c0.11-0.08,0.23-0.16,0.34-0.24l0.86-0.61l0,0c0.25-0.18,0.54-0.31,0.74-0.53l0,0
		c0.57-0.65,0.86-1.55,1.29-2.32l0,0c-1.4,0.2-2.84,0.29-4.21,0.61l0,0c-3.51,0.81-6.86,2.32-10.33,3.33L246,482.95l-21.11,4.15
		l-15.56,2.45l-10.47,1.43l-4.91,0.64l0,0c-0.51,0.08-1.01,0.18-1.51,0.26l0,0c1.52-0.08,3.05-0.09,4.56-0.25l0,0
		c3.47-0.36,6.92-1.03,10.36-1.61l12.84-2.3l14.98-2.51l15.36-2.32l13.51-1.93l10.52-1.37l8.05-1.01l4.59-0.71l0,0
		c0.72-0.13,1.44-0.31,2.15-0.46l0,0c-0.04-0.18-0.01-0.43-0.12-0.55l0,0c-0.57-0.61-1.85-0.65-2.81-0.8l0,0
		c-3.49-0.52-7.11-0.33-10.66-0.22l0,0c-5.5,0.16-11,0.65-16.46,1.33l0,0c-7.5,0.94-14.95,2.34-22.37,3.8l-21.05,4.75l-13.8,3.66
		l0,0c-1.77,0.51-3.57,0.96-5.28,1.62l0,0c-0.6,0.23-1.17,0.54-1.76,0.81l0,0c0.13,0.37,0.12,0.93,0.38,1.11l0,0
		c2.02,1.37,6.11-0.05,9.13-0.42l0,0c4.48-0.54,8.87-1.79,13.32-2.62l15.6-2.7l22.13-3.01l19.62-1.89l9.59-0.71l0,0
		c1.2-0.1,2.4-0.22,3.6-0.33l0,0c-0.14-0.24-0.22-0.57-0.42-0.71l0,0c-2.8-1.87-7.35-1.33-11.05-1.65l0,0
		c-5.98-0.53-12.03-0.64-18.04-0.49l0,0c-7.14,0.19-14.31,0.8-21.4,1.71l0,0c-6.18,0.79-12.35,1.9-18.44,3.25l0,0
		c-3.3,0.73-6.83,1.17-9.81,2.64l0,0c-1.67,0.82-3.35,2.04-4.53,3.46l0,0c-0.65,0.78-1.09,1.8-1.41,2.77l0,0
		c-0.15,0.46-0.19,0.96-0.26,1.45"/>
	<path class="st2" d="M287.44,477.12L287.44,477.12c0.14-0.07,0.27-0.14,0.41-0.21l1.01-0.52l0.87-0.45l0,0
		c0.38-0.19,0.84-0.31,1.15-0.58l0,0c0.43-0.39,0.66-1,1-1.5l0,0c-2.43-0.03-4.86-0.14-7.29-0.08l-16.15,0.96l-24.24,2.81
		l-22.93,4.01l0,0c-5.23,1.11-10.5,2.24-15.58,3.88l0,0c-2.49,0.81-5.07,1.63-7.31,2.93l0,0c-1.25,0.73-2.54,1.61-3.44,2.72l0,0
		c-0.72,0.88-1.18,2.03-1.56,3.12l0,0c-0.24,0.68-0.35,1.41-0.46,2.12"/>
	<path class="st2" d="M299.9,463.12L299.9,463.12c-0.56,0.33-1.13,0.66-1.69,0.99l-4.1,2.41l0,0c-1.98,1.12-3.95,2.28-6,3.26l0,0
		c-11.2,5.32-22.86,9.73-34.46,14.13l-17.06,5.95l-12.12,4.34l-6.29,2.35l0,0c-1.01,0.38-2.47,0.44-3.02,1.17l0,0
		c-0.03,0.03-0.01,0.1-0.01,0.15l0,0c2.65-0.67,5.32-1.27,7.94-2.02l11.99-3.89l13.85-4.68l15.44-4.86l17.51-4.93l16.73-3.95l0,0
		c2.67-0.55,5.36-1.07,8.06-1.45l0,0c0.91-0.13,1.84-0.23,2.76-0.27l0,0c0.28-0.01,0.56,0,0.84,0l0,0
		c-0.63-0.02-1.25-0.03-1.88-0.05l-5.47-0.18l-8.43,0.35l0,0c-1.67,0.11-3.35,0.21-5,0.47l0,0c-5.53,0.86-11.03,2.17-16.45,3.6l0,0
		c-6.88,1.82-13.72,3.91-20.41,6.34l0,0c-4.45,1.62-8.86,3.42-13.12,5.49l0,0c-2.66,1.29-5.28,2.74-7.78,4.32l0,0
		c-1.26,0.79-2.56,1.59-3.64,2.6l0,0c-0.48,0.44-1.11,0.93-1.26,1.51l0,0c-0.1,0.36,0.15,0.82,0.22,1.23l0,0
		c2.02-0.23,4.08-0.28,6.06-0.69l0,0c4.47-0.93,8.77-2.71,13.16-4.04l19.62-5.87l19.92-4.86l12.36-2.52l0,0
		c1.48-0.35,3.18-0.42,4.41-1.19l0,0c0.46-0.29,0.74-0.86,1.11-1.29l0,0c-1.26-0.64-2.44-1.59-3.78-1.93l0,0
		c-3.35-0.86-7.1-0.48-10.64-0.32l0,0c-5.15,0.24-10.32,0.98-15.4,1.91l0,0c-7.49,1.37-14.89,3.39-22.24,5.4l-19.15,5.82l-8.45,2.68
		l-3.3,0.94l0,0c-0.45,0.13-0.91,0.25-1.36,0.38l0,0c0.22-0.02,0.45-0.02,0.67-0.06l0,0c0.46-0.08,0.91-0.22,1.37-0.34"/>
	<path class="st2" d="M277.91,479.71L277.91,479.71c0.06-0.02,0.11-0.03,0.17-0.05l0.44-0.12l0,0c0.16-0.05,0.31-0.1,0.47-0.14l0,0
		c-0.56-0.09-1.12-0.3-1.67-0.28l0,0c-2.61,0.11-5.19,1.23-7.76,1.97l-12.57,4.04l-16.58,6.15l-17.43,7.15l-13.91,6.35l0,0
		c-2.45,1.23-4.91,2.49-7.22,3.97l0,0c-0.8,0.51-1.52,1.12-2.29,1.69l0,0c1.53-0.14,3.09-0.13,4.58-0.43l0,0
		c3.81-0.76,7.48-2.27,11.2-3.47l19.9-6.71l18.37-6.29l12.98-4.34l11.84-3.62l7.29-2.14l0,0c1.01-0.32,2.12-0.49,3-1.03l0,0
		c0.33-0.21,0.58-0.56,0.87-0.84l0,0c-1.79-0.35-3.58-0.98-5.38-1.05l0,0c-4.11-0.15-8.3,0.77-12.4,1.48l0,0
		c-4.99,0.86-9.95,2.05-14.85,3.35l0,0c-3.74,0.99-7.54,1.92-11.11,3.37l0,0c-1.35,0.55-3.14,0.95-3.91,2.01l0,0
		c-0.5,0.69-0.6,1.92-0.45,2.82l0,0c0.21,1.31,1.18,2.55,1.93,3.72l0,0c0.48,0.74,1.09,1.39,1.65,2.08"/>
	<g>
		<path class="st3" d="M696.09,391.63c0.1-0.02,0.17-0.04,0.24-0.06c2.45-0.17,4.89-0.59,7.29-1.1c-2.82-0.66-5.72-0.63-8.62-0.33
			c-3.93-0.29-7.93-0.16-11.86,0.46c-0.12-0.01-0.23-0.02-0.35-0.04c-4.07-0.34-8.11-0.07-12.12,0.56
			c-0.42-0.04-0.84-0.08-1.26-0.11c-0.63-1.39-1.84-2.53-3.39-2.98c-4.08-0.89-8.36-0.31-12.51-0.36
			c-6.45,0.27-12.91,0.72-19.34,1.4c-0.01,0-0.02,0-0.02,0c-14.55-0.96-29.19-2.13-43.72-0.38c-0.31-0.02-0.63-0.04-0.94-0.06
			c-8.07-0.19-16.48-2.9-24.35-0.1c-2.19,0.89-4.47,1.98-6.03,3.8c-0.13-0.01-0.26-0.01-0.38-0.03c-5.66-0.41-11.32-0.88-16.97-1.34
			c-7.2-0.46-14.38-1.23-21.61-1.16c-9.25-0.13-18.57-0.39-27.69,1.42c-6.62,0.99-13.13,2.58-19.49,4.67
			c-4.1-1.2-8.76-1.5-12.32-1.96c-9.24-1.03-18.53-1.67-27.83-1.87c-29.06-0.73-58.02,2.89-86.81,6.43
			c-6.72,0.87-13.54,1.58-19.98,3.8c-0.56,0.22-1.12,0.42-1.69,0.64c-0.3,0.03-0.59,0.08-0.89,0.12
			c-12.46-0.47-24.92-1.04-37.38-0.64c-14,0.58-27.8,3.12-41.41,6.34c-1.12-0.47-2.26-0.88-3.4-1.23
			c-8.97-2.55-18.39-1.57-27.48-0.24c-7.86,1.33-16.08,3.24-24.33,5.36c-6.1-0.02-12.18,0.35-18.24,0.99
			c-0.53-0.16-1.09-0.23-1.65-0.25v-0.02c-0.03,0-0.07,0.01-0.1,0.01c-1.27-0.03-2.58,0.18-3.83,0.23
			c-4.58,0.38-9.17,0.64-13.74,1.15c-1.67,0.19-3.32,0.46-4.97,0.77c-3.57,0.15-7.11,0.77-10.63,1.48
			c-2.61,0.02-5.16,0.66-7.68,1.37c-1.64-0.55-3.64-0.43-5.28,0.03c-0.38,0.06-0.77,0.13-1.15,0.2c0.45-0.37,0.74-0.81,0.47-1.45
			c-0.26-0.57-0.76-0.72-1.36-0.66c0,0,0-0.01,0-0.01c-0.01,0-0.02,0.01-0.03,0.01c-0.7,0.09-1.53,0.46-2.3,0.86
			c-0.38,0.14-0.75,0.28-1.13,0.43c-1.98,0.83-4.49,1.36-5.64,3.27c-1.66,0.59-2.99,1.64-3.16,3.71c-0.05,0.28-0.07,0.56-0.06,0.85
			c-2.19,1.36-4.26,2.94-6.28,4.53c-8.07,6.26-14.86,14.73-17.87,24.58c-0.28,1.31-0.34,2.47-0.21,3.48
			c-1.31,1.53-2.55,3.11-3.62,4.83c-1.93,2.82-3.46,7.32-2.62,10.6c-0.27,1.12-0.12,2.27,0.34,3.29c-0.47,0.41-0.91,0.86-1.25,1.41
			c-2.17,3.23-0.07,8.21,3.91,8.51c1.79,0.37,3.56-0.55,5.31-0.88c2.94-0.81,5.75-2.02,8.56-3.19c6.66-1.53,13.46-2.51,20.16-3.77
			c19.19-3.45,38.28-7.43,57.33-11.61c0.16,0.03,0.32,0.07,0.49,0.08c1.76,0.29,3.51-0.43,5.27-0.55c3.25-0.6,6.48-1.27,9.69-2.03
			c2.96-0.58,5.92-1.16,8.88-1.72c1.87-0.25,3.59-0.49,5.02-0.7c1.19-0.22,2.37-0.45,3.55-0.69c9.83-1.33,19.18-2.4,30.98-4.3
			c6.75-1.05,13.48-2.22,20.22-3.37c10.26-0.99,20.87-1.55,32.71-1.27c2.99-0.06,6.19,0.93,8.94-0.64c1.14-0.63,1.95-1.69,2.38-2.89
			c1.2,0.86,2.74,1.27,4.35,0.91c22.97-2.67,48.38-10.04,69.92-13.82c6.15,0.05,12.3,0.24,18.44,0.44
			c5.04-0.1,18.15,1.71,24.83-0.23c1.69-0.06,3.38-0.51,5.07-0.68c4.37-0.81,8.73-1.64,13.07-2.57c5.6-1.17,10.41-2.15,14.93-2.96
			c5.07-0.42,10.46-0.89,14.97-1.51c6.73-0.63,13.47-1.46,20.24-1.48c1.34,0.01,2.48-0.45,3.39-1.18
			c7.47-0.67,14.93-1.55,22.31-2.95c0.57,1.03,1.46,1.87,2.63,2.28c4.08,1.57,8.39-0.95,12.38-1.85c1.75-0.55,3.51-1.04,5.28-1.5
			c0.77,0.2,1.61,0.33,2.51,0.34c2.73-0.04,5.28-1.01,7.83-1.86c1.18-0.36,2.36-0.72,3.53-1.09c-0.17,0.02-0.34,0.05-0.51,0.07
			c0.05-0.01,0.1-0.02,0.15-0.03c0.13-0.02,0.26-0.03,0.38-0.05c0.04-0.01,0.09-0.03,0.13-0.04c6.05-0.98,21.07-1.25,25.37-5.78
			c0.88-0.19,1.76-0.38,2.64-0.57c9.38-1.12,18.78-2.07,28.17-3.11c7.07-0.97,14.27-1.62,21.09-3.8c1.68-0.43,2.89-1.62,3.52-3.07
			c2.12,0.22,4.23,0.45,6.35,0.64c5.45,0.31,10.92,0,16.36-0.37c2.26-0.08,4.53-0.19,6.79-0.17c1.19,0.01,2.46,0.18,3.53-0.44
			c1.86-0.65,3.18-2.57,3.35-4.53c2.13-0.25,4.29-0.64,5.39-2.68c0.05-0.09,0.08-0.19,0.13-0.29c0.66-0.13,1.32-0.25,1.99-0.35
			c5.31,0.2,11.92,0.26,15.14-0.39c4.02-0.61,8.25-1.08,12.05-2.49c-1.17-0.06-2.35-0.15-3.53-0.25
			C695.38,391.8,695.73,391.73,696.09,391.63z"/>
		<path class="st3" d="M547.48,419.45c-0.31,0.04-0.62,0.08-0.94,0.12c-0.01,0-0.02,0.01-0.03,0.01
			C546.83,419.54,547.16,419.5,547.48,419.45z"/>
	</g>
</g>
<g id="Layer_5">
</g>
<g id="Layer_3">
	<path class="st2" d="M350.06,553.41L350.06,553.41c-1.04,0.16-2.08,0.32-3.12,0.47l-7.56,1.15l-6.53,1l0,0
		c-10.13,1.71-20.31,3.33-30.32,5.61l0,0c-2.11,0.48-4.19,1.13-6.28,1.69l0,0c0.91,0.47,1.77,1.14,2.74,1.41l0,0
		c3.37,0.94,7.12,0.75,10.68,0.74l0,0c4.42-0.02,8.87-0.44,13.26-1.01l0,0c3.82-0.5,7.66-1.14,11.39-2.1l0,0
		c3.56-0.92,7.08-2.11,10.49-3.49l0,0c2.67-1.09,5.43-2.2,7.81-3.8l0,0c1.14-0.76,2.06-1.85,3.09-2.77l0,0
		c-1.01-0.95-1.83-2.38-3.03-2.84l0,0c-3.55-1.38-8.26-0.3-12.32,0.17l0,0c-6.13,0.71-12.22,2.3-18.18,4.01l0,0
		c-5.77,1.66-11.52,3.62-17.01,6.05l0,0c-2.77,1.22-5.79,2.36-8.04,4.29l0,0c-0.78,0.67-1.93,1.72-1.89,2.53l0,0
		c0.03,0.7,1.09,1.6,1.85,2.02l0,0c1.79,0.99,4.23,0.99,6.37,1.15l0,0c2.82,0.21,5.7,0.03,8.52-0.27l0,0
		c2.56-0.27,5.1-0.82,7.61-1.39l0,0c1.38-0.31,2.75-0.68,4.11-1.1l0,0c2.41-0.75,4.78-1.66,7.13-2.56l8.36-3.42l8.25-3.67l0,0
		c1.22-0.58,2.41-1.21,3.62-1.81l0,0c-0.59-0.42-1.11-1.03-1.76-1.25l0,0c-3.19-1.04-7.03-0.29-10.53-0.14l0,0
		c-5.21,0.22-10.41,0.9-15.59,1.55l-18.27,2.77l-14.73,3.18l0,0c-1.9,0.46-3.91,0.74-5.67,1.54l0,0c-0.49,0.22-0.91,0.61-1.36,0.91
		l0,0c1.21,0.44,2.39,1.09,3.64,1.32l0,0c2.45,0.45,5.06,0.29,7.56,0.11l0,0c4.07-0.28,8.13-1.02,12.13-1.85l0,0
		c2.96-0.61,5.91-1.4,8.8-2.31l0,0c1.11-0.35,2.18-0.8,3.27-1.21l0,0c-0.34,0.26-0.66,0.55-1.02,0.79l0,0
		c-0.71,0.47-1.48,0.85-2.22,1.28"/>
	<path class="st2" d="M343.5,554.84L343.5,554.84c-0.78,0.23-1.57,0.46-2.35,0.69l-5.69,1.68l-7.93,2.34l-32.76,9.93l0,0
		c-3.69,1.25-7.47,2.4-10.97,4.08l0,0c-2.48,1.19-4.88,2.65-7.11,4.26l0,0c-0.99,0.71-1.99,1.47-2.79,2.37"/>
	<path class="st2" d="M374.36,550.73L374.36,550.73c0.09-0.13,0.19-0.26,0.28-0.39l0,0c0.23-0.33,0.51-0.63,0.7-0.98l0,0
		c0.22-0.43,0.61-1,0.49-1.37l0,0c-0.99-3.1-6.41-5.69-10.16-7.01l0,0c-5.36-1.88-11.74-1.21-17.61-1.23l0,0
		c-5.77-0.02-11.65,0.09-17.31,1.08l0,0c-5.61,0.98-11.21,2.69-16.49,4.83l0,0c-5.21,2.11-10.47,4.61-14.98,7.91l0,0
		c-2.91,2.13-6.31,4.57-7.8,7.66l0,0c-0.69,1.44-1.2,3.83-0.53,5.06l0,0c0.89,1.65,3.9,2.59,6.04,3.11l0,0
		c3.08,0.75,6.54,0.19,9.8,0l0,0c1.76-0.1,3.53-0.34,5.27-0.62l0,0c3.23-0.52,6.43-1.27,9.64-1.97l0,0
		c2.16-0.47,4.33-0.91,6.46-1.52l0,0c5.57-1.59,11.03-3.58,16.47-5.56l0,0c5.46-1.99,10.94-4,16.25-6.35l0,0
		c4.01-1.77,8.16-3.46,11.8-5.85l0,0c1.47-0.97,2.71-2.29,4.07-3.43l0,0c-1.36-1.09-2.54-2.59-4.09-3.26l0,0
		c-2.9-1.25-6.46-1.26-9.71-1.37l0,0c-4.1-0.13-8.25,0.42-12.34,0.93l0,0c-2.42,0.3-4.9,0.54-7.21,1.24l0,0
		c-6.83,2.08-13.33,5.52-19.71,8.82l0,0c-6.32,3.28-12.67,6.73-18.41,10.91l0,0c-2.37,1.73-4.57,3.75-6.63,5.85l0,0
		c-0.74,0.75-1.37,1.61-2.05,2.42"/>
	<path class="st2" d="M361.15,566.44L361.15,566.44c0.23-0.25,0.46-0.5,0.68-0.75l1.66-1.81l0,0c0.46-0.5,1.15-0.91,1.37-1.5l0,0
		c0.89-2.36-0.08-5.42-0.12-8.13l0,0c-4.32-0.26-8.67-1.05-12.96-0.78l0,0c-6.56,0.42-13.12,2.09-19.54,3.69l0,0
		c-6.05,1.5-12.1,3.25-17.89,5.54l0,0c-3.31,1.31-6.74,2.66-9.63,4.69l0,0c-1.32,0.93-2.75,2.06-3.51,3.43l0,0
		c-0.46,0.83-0.87,2.07-0.64,2.91l0,0c0.27,0.95,1.37,2.03,2.31,2.44l0,0c2.34,1,5.57,0.29,8.3-0.03l0,0
		c4.28-0.5,8.47-1.85,12.66-2.95l14.1-4.14l13.04-4.13l6.07-2.05l0,0c3.06-1.08,6.15-2.13,9.14-3.38l0,0c3.1-1.3,6.41-2.4,9.14-4.28
		l0,0c1.04-0.72,1.84-1.78,2.77-2.68l0,0c-2.3-0.63-4.57-1.76-6.9-1.89l0,0c-5.7-0.33-11.67,1.27-17.32,2.65l0,0
		c-10.2,2.48-20.15,6.26-29.94,10.1l0,0c-6.59,2.58-13.33,5.13-19.39,8.72l0,0c-1.88,1.11-3.77,2.4-5.26,3.97l0,0
		c-0.92,0.97-1.7,2.16-2.28,3.37l0,0c-0.36,0.75-0.73,1.61-0.74,2.42l0,0c0,0.58,0.15,1.32,0.51,1.74l0,0
		c0.36,0.43,1.07,0.66,1.66,0.81l0,0c0.46,0.12,0.97,0.07,1.46,0.09"/>
</g>
<g id="Layer_4">
	<path class="st4" d="M661.42,400.06c-2.16,0.55-4.34,1-6.51,1.48c-5.89,0.78-11.71,1.17-17.47,3.06c-1.49,0.45-2.99,0.94-4.42,1.57
		c-4.71-0.08-9.44,0.13-14.11,0.74c-10.7-0.05-21.38,1.55-31,6.35c-7.2-0.18-14.44,0.7-21.56,2.14c-3.17,0.57-6.32,1.28-9.44,2.1
		c-4.52,0.18-8.97,1.03-13.34,2.16c-15.53,0.65-30.98,2.64-46.16,5.96c-0.95,0.22-1.9,0.44-2.85,0.65c-3.32,0.36-6.6,0.88-9.94,1.63
		c-0.2,0.02-0.39,0.04-0.59,0.07c-0.14,0.02-0.28,0.04-0.43,0.06c0.17-0.03,0.1-0.03-0.51,0.04c-0.57,0.06-1.14,0.13-1.7,0.21
		c-1.53-0.17-3.09-0.23-4.54-0.36c-9.94-0.3-19.7,1.94-29.39,3.91c-2.22,0.35-0.64,0.1-3.59,0.43c-8.55,0.86-17.05,2.05-25.49,3.65
		c-1.88,0.46-3.78,0.89-5.67,1.33c-5.28,0.23-10.57,0.63-15.85,0.92c-4.27,0.17-8.5,0.62-12.74,1.15c-2.9,0.18-5.79,0.37-8.69,0.57
		c-13.08,1.36-26.23,2.92-38.98,6.23c-1.54,0.4-3.08,0.82-4.61,1.25c-7.25,0.09-14.49,0.82-21.66,1.85
		c-0.79,0.12-1.58,0.24-2.37,0.36c-3.57,0.14-7.14,0.38-10.69,0.81c-7.55,1.01-13.87,2.3-18.27,3.52c-1.7,0.57-2.96,1.01-3.97,1.4
		c-0.7,0.16-1.41,0.33-2.11,0.49c-1.19,0.02-2.38,0.04-3.57,0.05c-9.88-0.08-19.71,1.07-29.42,2.82
		c-12.95,2.31-25.87,4.83-38.6,8.14c-2.17-1.1-4.76-0.62-7.11-0.47c-9.52,0.59-18.92,2.26-28.3,3.89
		c-7.12,1.4-14.21,2.95-21.27,4.61c-3.94,0.37-7.87,0.74-11.81,1.11c-4.54,0.54-11.69,0.43-15.24,3.59c-1.44-0.34-3-0.16-4.27,0.61
		c-0.1,0.05-0.16,0.08-0.22,0.11c-0.09,0.04-0.19,0.07-0.28,0.11c-1.63,0.73-3.63,1.11-4.63,2.71c-0.05,0.05-0.08,0.12-0.13,0.17
		c-0.67,0.2-1.31,0.47-1.83,0.97c-3.16,2.11-2.73,7.35,0.56,9.14c0.52,0.3,1.05,0.48,1.58,0.59c0.01,0.47,0.01,0.94-0.01,1.41
		c-0.01,0.55-0.05,1.1-0.09,1.64c-0.02,0.12-0.03,0.25-0.06,0.37c-0.22,0.92-0.49,1.84-0.79,2.74c-0.49,1.07-0.85,2.19-0.83,3.39
		c0.01,0.36,0.06,0.7,0.13,1.04c-0.28,0.93-0.46,1.89-0.48,2.87c0.01,0.5,0.07,0.97,0.16,1.42c-0.46,3.1-0.06,6.28,1.42,9.02
		c-0.6,2.07-0.94,4.19-0.47,6.35c0.09,0.39,0.23,0.75,0.38,1.1c-0.2,1.81,0.21,3.54,1.45,4.8c-0.78,1.39-1.52,2.8-2.15,4.27
		c-0.11,0.17-1.17,2.62-0.93,3.56c0,0.07,0.02,0.13,0.02,0.2c-0.01,0.01-0.01,0.01-0.02,0.02c-1.58,1.67-2.39,4.03-1.74,6.27
		c0.13,0.45,0.3,0.87,0.52,1.27c-0.11,1.85,0.82,3.69,2.31,4.81c0.08,0.33,0.18,0.67,0.34,1.02c0.82,2.25,3.4,3.72,5.76,3.34
		c2.51-0.2,4.9-0.96,7.27-1.76c4.33-1.44,8.69-2.81,13.04-4.19c3.06-0.83,6.13-1.59,9.21-2.31c4.11-0.32,8.19-0.78,12.07-2.21
		c3.23-0.47,6.36-0.85,10.61-1.28c6.87-0.35,13.78-1.36,20.18-4c0.43-0.19,0.87-0.37,1.33-0.54c0.89,0.09,1.79,0.1,2.69,0.1
		c10.3,0.02,19.53-5.15,29.13-8.2c3.41-1.15,6.83-2.28,10.26-3.4c1.84-0.49,3.68-0.97,5.52-1.46c25.78-6.45,51.51-13.1,77.47-18.79
		c0.12-0.01,0.25-0.02,0.38-0.04c0.12-0.03,0.22-0.08,0.33-0.11c1.41-0.31,2.81-0.63,4.22-0.93c2.08-0.37,4.38-0.65,6.28-1.58
		c1.2-0.33,2.39-0.72,3.58-0.91c23.13-6.23,45.48-15.03,68.57-21.44c6.03-1.85,12.14-3.4,18.24-5c0.58-0.07,1.15-0.23,1.63-0.5
		c0.35-0.11,0.7-0.24,1.05-0.37c0.08-0.01,0.17-0.02,0.25-0.03c0.08,0,0.15-0.01,0.23-0.01c1.9,0.74,4.13-0.25,5.92-0.67
		c1.76-0.54,3.52-1.06,5.28-1.59c1.45-0.08,2.93-0.65,4.34-0.93c0.96-0.26,1.91-0.54,2.87-0.81c0.74,0.12,1.47-0.07,2.19-0.3
		c4.36-0.91,8.67-1.96,12.94-3.22c0.26,0.04,0.53,0.06,0.81,0.07c0.2,0.03,0.42,0.06,0.63,0.08c5.06-0.15,9.8-2.28,14.61-3.67
		c0.09-0.03,0.17-0.06,0.26-0.09c2.94-0.86,5.86-1.78,8.83-2.54c6.35-1.61,12.71-3.18,19.11-4.55c1.11-0.14,2.76-0.37,0.74-0.1
		c2.88-0.52,6.2-0.27,8.78-1.75c3.04-0.4,6.26-0.76,8.1-3.16c0.33-0.06,0.65-0.13,0.96-0.22c0.04-0.01,0.07-0.01,0.11-0.02
		c0,0-0.01-0.01-0.01-0.01c0.74-0.23,1.43-0.59,2.02-1.16c0.61-0.64,0.99-1.36,1.17-2.09c2.25-0.61,4.48-1.27,6.74-1.79
		c7.83-1.43,15.61-3.11,23.43-4.59c3.02-0.57,6.23-1.75,9-2.88c12.25-2.28,24.43-5.03,35.97-9.75c4.31-1.83,8.48-4.03,12.32-6.71
		c1.17-0.83,2.39-1.68,3.1-2.97c-0.48,0.51-1.04,0.89-1.65,1.22c0.59-0.43,1.18-0.87,1.77-1.31c0.9-0.24,1.8-0.47,2.69-0.73
		c4.23-1.4,8.91-2.42,12.85-4.52c6.13-1.39,12.2-3.05,18.07-5.28c7.14-2.61,14.26-5.42,20.66-9.58c-0.12,0.03-0.25,0.05-0.37,0.08
		C661.09,400.27,661.26,400.17,661.42,400.06z"/>
	<path class="st4" d="M696.1,385.8c-0.41-0.28-0.96-0.02-1.42-0.1c-1.96-0.14-3.88-0.25-5.76-0.35c-0.13-0.23-0.27-0.44-0.46-0.63
		c-1.65-1.31-4-1.33-5.96-1.97c-5.27-0.68-10.6-0.65-15.92-0.41c-0.69-0.07-1.38-0.14-2.08-0.19c-6.67-0.58-13.33-0.07-19.99,0.43
		c-5.32-0.95-10.68-1.69-16.08-1.99c-8.9-0.22-17.89,0.37-26.64,2.11c-9.11,0.27-18.26,0.93-27.23,2.5
		c-12.12-2.03-24.38-3.11-36.68-3.35c-11.8-0.23-23.67,0.29-35.31,2.3c-0.7-0.03-1.41-0.05-2.11-0.07
		c-1.78-0.09-3.81-0.16-6.01-0.21c-1.5-1.04-3.69-1.45-5.59-1.55c-3.22-0.25-6.45-0.24-9.68-0.24c-3.06,0.01-6.12,0.11-9.17,0.26
		c-8.42-0.25-17.5-0.42-24.53-0.51c-4.63-0.09-9.25-0.22-13.88-0.24c-1.34,0.15-2.97-0.07-4.51-0.06
		c-14.04-2.32-28.25-3.54-42.46-4.29c-10.51-0.23-21.05-0.67-31.55-0.38c0.41-0.05,0.68-0.08,0.06-0.07c-1.1,0.12-2.28,0-3.27,0.54
		c-0.77,0.27-1.46,0.8-1.98,1.46c-7.28-1.01-13.2-1.6-21.02-2.23c-6.63-0.8-12.58-1.54-20.71-1.56c-5.85-0.43-11.71-0.73-17.56-0.49
		c-0.64,0.05-1.3,0.13-1.95,0.25c-4.43-1.07-8.95-1.51-13.51-1.65c-2.12-0.12-4.24-0.15-6.36-0.15c-1.55-1.41-3.5-2.22-5.61-2.33
		c-2.82-0.25-5.65-0.26-8.48-0.2c-7.39-0.04-14.73,0.62-22.04,1.58c-5.95-0.14-11.9-0.18-17.85,0.05
		c-6.69,0.07-13.36,0.5-20.04,0.95c-6.12-0.16-12.25-0.34-18.37-0.38c-1.63-1.81-4.32-2.13-6.71-2.1c-1.26,0.01-2.51,0.09-3.76,0.22
		c-3.82-0.01-7.65,0.07-11.43,0.51c-0.76-0.03-1.52,0.1-2.28,0.31c-2.06,0.33-4.1,0.78-6.12,1.42c-2.56,0.66-4.29,2.36-5,4.27
		c-1.9,1.82-2.48,4.34-1.85,6.42c0.14,0.86,0.47,1.68,0.97,2.4c-0.27,0.11-0.54,0.21-0.81,0.33c-0.72,0.42-1.3,1-1.73,1.67
		c-0.97,0.36-1.95,0.71-2.92,1.08c-1.24,0.49-2.56,1.05-3.29,2.22c-1.5,1.81-1.44,4.06-0.47,5.83c-0.31,2.14,0.69,4.51,2.64,5.58
		c2.84,1.55,6.17,0.21,8.99-0.78c0.82-0.35,1.6-0.66,2.35-0.96c0.24,0.08,0.48,0.15,0.72,0.21c0.5,0.53,1.1,0.94,1.79,1.18
		c2.08,0.9,4.53,0.49,6.73,0.21c0.35-0.06,0.7-0.14,1.06-0.2c2.62,0.73,5.22,1.55,7.86,2c0.39,1.06,1.1,1.99,2.13,2.55
		c0.81,0.48,1.66,0.65,2.53,0.65c-0.12,0.73-0.09,1.48,0.13,2.21c0.68,2.86,3.31,4.12,6.08,4.42c0.34,0.06,0.69,0.1,1.05,0.12
		c0.46,0.11,0.94,0.2,1.46,0.2c3.14,0.07,6.8,0.09,9.34-1.98c0.45-0.05,0.9-0.12,1.34-0.19c4.78-0.66,2-0.29,6.72-0.84
		c8.41-0.69,16.64-2.35,24.88-4.03c2.16-0.19,4.31-0.42,6.46-0.69c0.39,0.09,0.79,0.14,1.22,0.14c1.76,0.05,3.5-0.21,5.24-0.5
		c0.6,0.07,1.19,0.14,1.73,0.23c8.02-0.51,19.48-1.85,31.26-3.12c8.53-0.32,17.06-0.58,25.58-1.1c0.96-0.07,1.93-0.14,2.89-0.2
		c0.51,0.01,1.03-0.03,1.55-0.11c2.69-0.18,5.38-0.39,8.05-0.79c1.35-0.27,2.87-0.22,4.1-0.86c1.19-0.04,2.41-0.37,3.59-0.4
		c3.47-0.39,6.95-0.56,10.42-0.92c7.7-0.74,15.42-1.1,23.13-1.69c1.8-0.07,3.37-0.13,4.86-0.21c4.99,0.06,9.98,0,14.97-0.3
		c1.22-0.05,2.44-0.19,3.67-0.26c0.36-0.01,0.73-0.03,1.1-0.06c1.61,0.19,3.22,0.39,4.83,0.59c0.06,0.01,0.09,0.01,0.14,0.02
		c0.33,0.05,0.66,0.1,1,0.14c3.43,0.57,6.9,0.9,10.33,0.22c1.1-0.23,2.28-0.44,3.3-0.94c1.78,0.24,3.25,0.46,5.16,0.73
		c3.38,0.53,5.88-1.19,6.73-3.38c1.16,0.02,2.32,0.06,3.47,0.13c10.52,0.15,19.73,0.47,27.06,0c0.47-0.01,0.95-0.06,1.41-0.16
		c0.09-0.01,0.17-0.02,0.29-0.03c0.8,0.01,1.57-0.22,2.27-0.58c0.3,0.02,0.61,0.03,0.91,0.04c0.6,0.01,1.2-0.12,1.76-0.33
		c0.52-0.02,1.04-0.03,1.56-0.05c0.02,0,0.04,0,0.06,0c0.08,0,0.15-0.01,0.23-0.01c0.1,0,0.19-0.01,0.29-0.01
		c0.13-0.01,0.27-0.02,0.4-0.02c0.18,0,0.35-0.01,0.53-0.03c6.89-0.34,13.78-0.91,20.66-1.34c5.17-0.16,10.34-0.31,15.52-0.42
		c4.78,0.13,9.55,0.63,14.33,0.65c0.15,0,0.31-0.01,0.46-0.03c0.05,0,0.08,0,0.14-0.01c1.25,0.08,2.6-0.12,3.76-0.63
		c0.03,0,0.06,0,0.1,0c4.57,0.11,9.14,0.32,13.7,0.69c1.63,0.13,3.02-0.52,3.85-1.52c10.11,0.02,20.22,0.06,30.33,0.45
		c5.33,0.25,10.71-0.18,15.98,0.76c2.11,0.37,4.21,0.85,6.31,1.25c-2-0.78-3.99-1.61-6.02-2.31c-1.19-0.41-2.4-0.73-3.62-1.02
		c2.44,0.01,4.95,0.35,7.36-0.09c0.7-0.25,0.99-0.76,0.99-1.27c0.01,0,0.01,0,0.02,0c5.2,0.28,10.4,0.55,15.6,0.75
		c1.15-0.09,2.69,0.45,3.55-0.47c2.17,0.07,4.33,0.14,6.5,0.2c0.78-0.97-1.97-1.38-2.56-1.58c-0.47-0.12-0.93-0.24-1.4-0.37
		c0.47,0.26,0.97,0.47,1.46,0.69c-0.89-0.19-1.81-0.37-2.3-0.51c-0.6-0.15-1.21-0.26-1.82-0.39c-0.54-0.4-1.45-0.55-2.34-0.63
		c-0.06-0.01-0.11-0.02-0.17-0.03c6.99,0.33,13.96,0.92,20.96,0.96c12.35-0.06,24.69,0.64,37.03,0.35c-2.98-0.68-5.96-1.32-8.96-1.9
		c3.33,0.04,6.65,0.08,9.98,0.11c2.61,0.38,5.24,0.64,7.89,0.67c5.87,0.13,11.77,0.25,17.66,0.32c0.19,0.33,0.46,0.61,0.79,0.79
		c1.94,0.99,4.17,1.06,6.29,1.31c3.23,0.34,6.47,0.66,9.7,0.94c2.1,0.18,4.21,0.42,6.31,0.23c0.77,0.01,1.52-0.31,2.06-0.86
		c0.34-0.34,0.57-0.76,0.7-1.2c1.06-0.12,2.12-0.25,3.17-0.37c-0.2,0.24-0.14,0.51,0.48,0.79c-0.52-0.48-0.24-0.73,0.32-0.89
		c0.16-0.02,0.33-0.04,0.49-0.06c0.56-0.06,1.12-0.14,1.67-0.27c0.43-0.07,0.78-0.17,0.9-0.32
		C696.37,386.32,696.32,385.95,696.1,385.8z"/>
</g>
<g id="Layer_1">
	<g>
		<g>
			<path d="M55.44,492.51c83.04-18.67,167.26-31.31,251.61-42.33c84.76-11.08,169.74-20.57,254.31-33.16
				c47.5-7.07,94.86-15.14,141.88-24.94c3.24-0.68,6.18-2.75,9.4-3.42c-83.35,17.38-167.71,29.23-252.13,39.96
				c-84.78,10.78-169.72,20.5-254.16,33.82c-47.42,7.48-94.66,16.12-141.51,26.65C61.61,489.82,58.66,491.79,55.44,492.51
				L55.44,492.51z"/>
		</g>
	</g>
	<g>
		<g>
			<path d="M104.92,419.26c-14.91,24.14-29.55,48.45-43.91,72.92c3.13-1.14,6.26-2.28,9.4-3.42c0.3-0.95,0.6-1.91,0.9-2.86
				c-0.59,1.88-8.77,1.43-9.4,3.42c-0.3,0.95-0.6,1.91-0.9,2.86c0.15-0.47,4.14-1.46,4.72-1.66c0.92-0.33,4.17-0.88,4.68-1.76
				c14.36-24.47,29-48.78,43.91-72.92c-0.43,0.69-3.9,1.37-4.72,1.66C108.65,417.85,105.47,418.37,104.92,419.26L104.92,419.26z"/>
		</g>
	</g>
	<g>
		<g>
			<path d="M109.06,418.27c77.74-7.41,155.63-13.36,233.59-17.82c78.3-4.48,156.68-7.47,235.1-8.96c44-0.84,88.02-1.2,132.03-1.1
				c3.15,0.01,6.3-3.43,9.4-3.42c-78.1-0.17-156.19,1.12-234.24,3.9c-78.38,2.79-156.7,7.08-234.91,12.86
				c-43.89,3.24-87.75,6.96-131.56,11.13C115.23,415.16,112.25,417.97,109.06,418.27L109.06,418.27z"/>
		</g>
	</g>
	<g>
		<g>
			<path d="M102.38,486.93c-0.17,12.61-0.23,25.22-0.16,37.83c3.13-1.14,6.26-2.28,9.4-3.42c-0.11-14.37-0.85-28.72-2.22-43.03
				c-3.13,1.14-6.26,2.28-9.4,3.42c0.95,5.62,1.89,11.23,2.84,16.85c-0.09-0.52,9.51-2.75,9.4-3.42
				c-0.95-5.62-1.89-11.23-2.84-16.85c0.1,0.61-9.47,2.63-9.4,3.42c1.37,14.31,2.11,28.65,2.22,43.03c-0.01-1.05,9.4-2.23,9.4-3.42
				c-0.07-12.61-0.01-25.22,0.16-37.83C111.76,484.62,102.4,485.67,102.38,486.93L102.38,486.93z"/>
		</g>
	</g>
	<g>
		<g>
			<path d="M213.8,533.01c-18.53,5-37.27,9.1-56.19,12.33c-9.47,1.62-18.98,3-28.51,4.24c-4.46,0.58-8.91,1.13-13.37,1.67
				c-1.27,0.15-2.55,0.31-3.82,0.46c-1.87,0.85-2.45,0.4-1.75-1.36c-0.02-0.91,0.32-2.22,0.91-2.94c-3.13,1.14-6.26,2.28-9.4,3.42
				c1.71-0.44,0.4,3.81-0.45,4.36c3.13-1.14,6.26-2.28,9.4-3.42c-1.14,0.29-0.19-5.17-0.07-6.57c0.24-2.88,0.47-5.77,0.71-8.65
				c0.47-5.77,0.95-11.53,1.42-17.3c-0.11,1.32-9.28,1.96-9.4,3.42c-0.74,8.97-1.47,17.94-2.21,26.91
				c-0.13,1.63-0.99,5.26,0.15,5.61c0.28,0.09,1.09-0.37,1.39-0.47c2.3-0.77,5.31-1.4,7.38-2.7c1.39-0.87,3.31-3.93,0.91-4.57
				c-1.5-0.4-5.43,1.93-6.91,2.48c-2.16,0.81-2.65,0.86-3.12,3.22c-0.65,3.24,0.99,2.04,3.56,1.74c2.23-0.27,4.46-0.54,6.69-0.81
				c4.46-0.55,8.92-1.11,13.37-1.71c8.88-1.19,17.74-2.55,26.57-4.1c17.96-3.15,35.76-7.09,53.36-11.84
				C207.61,535.56,210.6,533.87,213.8,533.01L213.8,533.01z"/>
		</g>
	</g>
	<g>
		<g>
			<path d="M366.69,490.91c-31.52,7.35-62.05,18.32-93.52,25.86c-3.23,0.77-6.19,2.65-9.4,3.42c31.47-7.54,62-18.51,93.52-25.86
				C360.52,493.58,363.48,491.66,366.69,490.91L366.69,490.91z"/>
		</g>
	</g>
	<g>
		<g>
			<path d="M427.48,475.02c-9.07,2.09-18.16,4.1-27.04,6.92c-2.86,0.91-6.8,2.61-9.05,3.32c8.77-2.78,17.74-4.75,26.7-6.82
				C421.31,477.7,424.27,475.76,427.48,475.02L427.48,475.02z"/>
		</g>
	</g>
	<g>
		<g>
			<path d="M611.97,419.49c-18.87,6.81-37.92,13.12-57.07,19.11c-2.87,0.9-6.8,2.62-9.05,3.32c21.37-6.69,42.59-13.83,63.66-21.43
				c1.88-0.68,4-1.19,5.77-2.14C615.07,418.46,612.7,419.22,611.97,419.49L611.97,419.49z"/>
		</g>
	</g>
	<g>
		<g>
			<path d="M626.53,414.21c-0.6,0.22-1.2,0.45-1.8,0.67c-0.14,0.05-1.14,0.42-0.41,0.15c0.76-0.28-0.42,0.16-0.55,0.2
				c-0.93,0.34-1.87,0.68-2.8,1.04c0.19-0.07-1.04,0.34-0.46,0.21c0.73-0.16,1.47-0.51,2.17-0.76c1.21-0.43,2.42-0.87,3.62-1.31
				c1.67-0.61,3.34-1.23,5.01-1.85c0.66-0.25,1.51-0.47,2.15-0.81c0.51-0.27-0.65,0.19-0.49,0.14
				C630.8,412.63,628.66,413.41,626.53,414.21L626.53,414.21z"/>
		</g>
	</g>
	<g>
		<g>
			<path d="M666.67,398.46c-2.04,0.84-4.08,1.68-6.12,2.51c-0.61,0.25,0.79-0.24,0.49-0.14c0.94-0.32,1.88-0.66,2.82-1
				c1.93-0.7,3.87-1.36,5.77-2.14c2.04-0.83,4.08-1.67,6.12-2.51c0.6-0.25-0.79,0.24-0.49,0.14c-0.94,0.32-1.88,0.66-2.82,1
				C670.51,397.01,668.56,397.67,666.67,398.46L666.67,398.46z"/>
		</g>
	</g>
	<g>
		<g>
			<path d="M173.11,408.2c-12.33-3.72-24.86-6.72-37.56-8.87c-0.47-0.08-3.64-0.28-3.81-0.62c-0.17-0.33,2.34-4.66,2.53-5.05
				c1.27-2.53,2.53-5.05,3.8-7.58c2.42-4.82,4.41-11.54,9.53-14.09c-3.07,1.12-6.15,2.25-9.22,3.37c8.59-2.63,18.86-2.43,27.79-3.02
				c9.17-0.61,18.36-0.98,27.54-1.13c18.08-0.31,36.16,0.17,54.22,1.05c36.56,1.79,73.01,5.27,109.55,7.41
				c73.69,4.32,147.55,3.14,221.33,3.67c41.35,0.3,82.71,1.16,123.99,3.76c3.08,0.19,6.38-3.61,9.4-3.42
				c-87.23-5.51-174.67-3.09-262-4.5c-43.65-0.71-87.15-2.95-130.67-6.21c-43.31-3.24-86.74-6.55-130.2-4.79
				c-11.81,0.48-23.62,1.32-35.37,2.67c-3.74,0.43-6.93,1.3-10.45,2.57c-2.83,1.03-6.17,1.82-8.28,4.09
				c-3.56,3.83-5.5,9.87-7.83,14.51c-1.27,2.53-2.53,5.05-3.8,7.58c-0.14,0.28-0.28,0.56-0.42,0.84c-1.33,1.31-1.29,1.92,0.11,1.84
				c0.9,0.72,3.52,0.58,4.76,0.8c12.05,2.12,23.94,5.01,35.66,8.54C166.31,412.41,170.6,407.45,173.11,408.2L173.11,408.2z"/>
		</g>
	</g>
</g>
</svg>
