<?xml version="1.0" encoding="utf-8"?>
<!-- Generator: Adobe Adobe Illustrator 24.2.0, SVG Export Plug-In . SVG Version: 6.00 Build 0)  -->
<svg version="1.1" xmlns="http://www.w3.org/2000/svg" xmlns:xlink="http://www.w3.org/1999/xlink" x="0px" y="0px" width="800px"
	 height="800px" viewBox="0 0 800 800" style="enable-background:new 0 0 800 800;" xml:space="preserve">
<style type="text/css">
	.st0{fill:#4152A6;}
	.st1{fill:#FC2F15;}
	.st2{fill:#F3FB2E;}
	.st3{fill:#4BBB39;}
	.st4{fill:#3B52A9;}
	.st5{fill:#FF2A0C;}
	.st6{fill:#C7621D;}
	.st7{opacity:0.8;fill:#8EB6BC;stroke:#522F18;stroke-miterlimit:10;}
	.st8{opacity:0.8;fill:#522F18;}
</style>
<g id="Layer_3">
	<path class="st0" d="M417.98,395.14C417.98,395.14,417.98,395.14,417.98,395.14c-0.4,0.02-0.8,0.03-1.19,0.03
		c-0.16-0.91-0.46-1.8-1.01-2.4c-0.19-2.14-1.04-4.06-2.65-4.36c-4.19,1.04-9.25,2.09-11.43,6.25c-0.24,0.45-0.43,0.98-0.59,1.54
		c-1.46,1.59-1.38,4.23-0.91,6.22c0.28,1.08,1.25,2.76,2.56,2.08c0.16-0.06,0.3-0.14,0.46-0.2c0.62,0.29,1.36,0.41,2.25,0.28
		c2.53-0.5,5.04-1.12,7.51-1.88c0.37-0.04,0.74-0.07,1.11-0.11c1.18-0.16,2.36-0.38,3.5-0.69c0.54-0.14,1.16-0.25,1.4-0.83
		C419.97,399.65,420.03,395.6,417.98,395.14z"/>
	<g>
		<path class="st1" d="M341.1,409.52c0.01,0,0.02-0.01,0.03-0.01c0,0,0,0,0,0C341.13,409.51,341.11,409.51,341.1,409.52z"/>
		<path class="st1" d="M362.98,421.3c-0.23-0.48-0.59-0.87-1.03-1.18c-0.41-1.35-1.19-2.52-2.3-3.1c-0.24-0.15-0.47-0.3-0.7-0.46
			c0.99-3.13,0.88-7.42-1.75-9.5c-1.9-0.78-4.08,0-6.07,0.11c-2.41,0.37-4.79,0.93-7.15,1.55c-1.04-0.02-2.11,0.01-2.85,0.77
			c0,0,0,0,0,0c0,0,0,0,0,0c0,0,0,0,0,0c0,0,0,0-0.01,0c-0.6,0.23-1.12,0.58-1.41,1.22c-0.47,0.8-0.81,1.69-1.02,2.62
			c-0.12,0.05-0.25,0.11-0.41,0.19c-1.93,1.51-1.88,4.57-1.27,6.74c0.62,2.1,1.53,2.4,3.55,1.9c0.24-0.03,0.47-0.08,0.71-0.12
			c0.4,0.26,0.85,0.45,1.37,0.53c2.62,0.47,5.29,0.75,7.95,0.82c0,0.75,0.13,1.5,0.45,2.19c1.15,2.13,7.81,2.15,9.59,0.77
			c0.49-0.39,0.86-0.91,1.12-1.51c0.01,0,0.02,0.01,0.03,0.01C363.38,424.78,363.4,422.43,362.98,421.3z"/>
	</g>
</g>
<g id="Layer_6">
	<path class="st2" d="M689.15,342.57c-0.96-0.38-1.91-0.77-2.86-1.17c-1.28-0.57-2.58-1.09-3.88-1.58
		c-0.08-0.22-0.16-0.44-0.25-0.66c-2.78-6.47-10.33-7.59-16.5-8.72c-1.35-0.3-2.7-0.58-4.06-0.85c1.3-2.92,1.82-6.23,1.5-9.33
		c-1.36-9.24-12.17-13.05-21.08-14.54c-0.44-1.03-1.03-1.97-1.77-2.77c-4.64-4.26-12.13-4.37-19.18-3.35
		c-0.13-0.15-0.26-0.31-0.4-0.45c-0.57-0.71-1.53-0.61-2.36-0.55c-0.76-0.03-1.51-0.01-2.26,0.03c-1.77-0.55-3.98-0.39-6.49,0.59
		c-5.23,1.31-10.05,3.64-14.71,6.28c-12.81,5.93-24.91,13.49-34.94,23.49c-0.38,0.36-0.74,0.74-1.11,1.11
		c-2.5,1.84-4.93,3.76-7.18,5.89c-1.88,1.93-3.53,4.24-4.51,6.75c-0.52,2.09-0.66,4.41-0.12,6.53c-1.1,0.43-2.21,0.85-3.31,1.29
		c-1.26,0.67-2.92,0.98-4.2,1.71c-0.09,0.03-0.18,0.07-0.27,0.1c0,0.02,0,0.03,0.01,0.05c-0.47,0.31-0.89,0.68-1.18,1.19
		c-0.3,0.33-0.56,0.82-0.76,1.4c-1.35,0.81-2.7,1.63-4.05,2.45c-1.29,0.86-2.87,1.5-4,2.59c-4.74,1.88-9.49,3.7-14.3,5.4
		c-0.42,0.14-0.78,0.25-1.1,0.36c-1.03,0.24-2.07,0.47-3.11,0.69c-0.79,0.23-1.63,0.36-2.36,0.76c-1.1,0.69-1.7,1.93-2.05,3.15
		c-0.11,0.45-0.2,0.9-0.28,1.37c-0.17,0.09-0.34,0.21-0.48,0.36c-2.78,2.78-2.64,7.99-1.15,11.41c0.33,0.75,0.8,1.26,1.36,1.6
		c0.41,0.88,0.97,1.64,1.73,2.22c1.84,1.18,4.03,0.52,5.96-0.05c5.09-1.99,10.16-3.82,15.18-5.53c0.45,0.45,0.99,0.76,1.66,0.86
		c1.33-0.05,2.66-0.28,3.96-0.56c0.04-0.01,0.07-0.01,0.11-0.02c0.4,0.33,0.87,0.57,1.44,0.66c3.55-0.18,6.78-1.93,10.1-3.04
		c0.1-0.03,0.19-0.07,0.29-0.1c1.65-0.33,3.29-0.67,4.94-0.99c14.93-2.48,29.84-5.05,44.73-7.7c2.48-0.53,4.96-1.07,7.44-1.59
		c7.78-0.39,15.58-0.21,23.37,0.2c9.51,0.23,19.17,1.41,28.61-0.21c2.96-0.71,5.9-1.54,8.76-2.58c1.79-0.54,3.56-1.41,4.4-3.18
		c0.16-0.36,0.3-0.75,0.44-1.15c2.04-0.1,4.09-0.21,6.13-0.29c1.69-0.03,3.39-0.04,5.08-0.14c0.55-0.01,0.99-0.21,1.34-0.6
		c0.55-0.48,0.95-1.08,1.26-1.73c1.34-0.29,2.67-0.57,4-0.89c4.82-1.13,4.85-7.62,5.02-9.49C691.65,346.9,691.23,344,689.15,342.57z
		 M639.25,321.79c-1.16,0.31-2.3,0.62-3.44,0.93c0.08-0.06,0.17-0.12,0.25-0.19c0.05-0.04,0.09-0.08,0.14-0.12
		c0.27-0.15,0.53-0.3,0.79-0.45c0.82-0.1,1.65-0.17,2.48-0.22C639.4,321.75,639.33,321.77,639.25,321.79z M641.82,321.18
		c-0.89-0.27-1.79-0.5-2.7-0.68c0.45-0.34,0.89-0.69,1.31-1.07c0.02-0.03,0.04-0.06,0.06-0.08c1.68,0.26,3.32,0.6,4.88,1
		C644.19,320.62,643.01,320.9,641.82,321.18z"/>
	<path class="st2" d="M252.14,584.49c-0.91-1.14-2.52-1.64-3.8-2.3c-1.46-0.73-3.02-1.1-4.6-1.39c0-0.01-0.01-0.01-0.01-0.02
		c1.52-2.01,1.77-4.86,1.06-7.34c0.67-0.86,1.12-1.93,1.24-3.33c0.29-2.45,0.03-7.19-2.95-7.75c-1.1-0.07-2.17,0.41-3.21,0.72
		c-0.11,0.04-0.23,0.09-0.34,0.13c-0.61-0.61-1.45-0.95-2.56-0.81c-2.92,0.72-5.31,2.63-7.56,4.6c-0.74,0.34-1.47,0.69-2.19,1.09
		c-0.88,0.49-1.74,1.01-2.6,1.54c-1.33,0.44-2.66,0.88-3.99,1.34c-1.3,0.54-2.77,1.21-3.56,2.42c-1.37,2.32-1.37,5.6-0.01,7.96
		c0.03,0.16,0.07,0.33,0.11,0.48c0.35,1.39,1.61,3.56,3.3,2.69c0.53-0.29,1.05-0.61,1.57-0.92c0,0,0,0.01,0.01,0.01
		c0.15,0.2,0.35,0.3,0.59,0.32c1.2,0.21,2.41,0.41,3.62,0.56c3.64,0.41,7.3,0.55,10.96,0.52c0.61,0.33,1.26,0.38,2.4,0.62
		c0.73,0.03,1.45,0.06,2.18,0.1c2.38,1,4.86,1.79,7.41,2.18c0.85,0.08,1.86,0.12,2.61-0.26
		C252.6,586.86,252.54,585.46,252.14,584.49z M238.06,577.09c0.92-0.17,1.72-0.25,2.36-0.21c-0.91,0.78-2,1.51-2.9,2.33
		c-1.84-0.16-3.69-0.24-5.54-0.25C234.03,578.41,236.06,577.79,238.06,577.09z"/>
</g>
<g id="Layer_5">
	<g>
		<path class="st3" d="M571.67,265.21c-0.03-0.08-0.06-0.15-0.08-0.17C571.61,265.1,571.64,265.16,571.67,265.21z"/>
		<path class="st3" d="M608.95,296.59c0.59-2.63,0.42-5.51-0.97-7.79c-0.49-0.98-1.79-1.82-2.85-1.17c-0.58,0.38-1.15,0.78-1.7,1.21
			c-0.25-0.6-0.54-1.14-0.89-1.6c-0.72-0.73-1.68-1.3-2.67-0.7v0c0,0,0,0,0,0c-0.25,0.08-0.5,0.15-0.74,0.23
			c-0.03-0.08-0.05-0.17-0.08-0.25c-0.24-0.85-0.87-1.87-1.68-2.38c-2.41-3.13-5.69-5.54-9.27-7.37c-0.35-1.28-0.9-2.5-1.64-3.57
			c-1.81-2.2-4.57-3.29-7.21-4.15c-2.06-0.69-4.16-1.28-6.28-1.74c-0.18-0.16-0.35-0.31-0.53-0.46c-0.08-0.18-0.17-0.35-0.25-0.53
			c-0.18-0.37-0.35-0.74-0.53-1.11c0.08,0.2,0.19,0.51,0.28,0.75c-0.9-2.35-2.33-4.63-4.45-6.04c-2.14-1.2-3.83-1.2-5.14-0.48
			c-0.36-0.45-0.73-0.92-1.33-0.96c-0.53-0.27-1.06,0.02-1.56,0.29c-2.08,0.78-3.65,2.4-4.78,4.28c-1.06,0.27-1.99,0.77-2.47,1.89
			c-0.96,2.06-1.12,4.5-0.64,6.71c0.04,0.39,0.18,0.86,0.32,1.24c0.01,0.02,0.01,0.05,0.02,0.07c-0.19,1.34-0.37,2.67-0.57,4
			c-0.01,0.18-0.02,0.36-0.03,0.54c-1.49,2.91-2.79,5.91-3.87,9c-0.79,1.97-1.4,4.2-1.47,6.4c-0.11,0.23-0.23,0.45-0.35,0.69
			c-2.96,6.22-5.58,12.6-8.21,18.97c-0.65,1.56-1.29,3.13-1.94,4.7c-2.89,4.74-5.8,9.79-9.01,15.91c-0.51,1.15-0.92,2.42-1.13,3.72
			c-0.9,0.81-1.7,1.74-2.05,2.92c-0.45,1.24-0.73,2.71-0.76,4.2c-2.63,3.24-5.14,6.57-7.52,9.99c-1.36,2.1-2.6,3.45-3.09,6
			c-1.01,1.21-1.88,2.4-2.59,3.56c-0.26,0.28-0.52,0.57-0.78,0.85c-1.23,0.6-2.19,1.69-3.07,2.71c-0.8,1.16-1.21,1.42-1.52,3.21
			c-0.1,1.05-0.09,2.25,0.31,3.26c-0.8,0.81-1.61,1.62-2.41,2.43c0.91-0.61,1.8-1.25,2.7-1.86c0.19,0.3,0.42,0.58,0.72,0.8
			c0.41,0.24,0.81,0.12,1.2-0.09c0.96-0.52,1.8-1.25,2.7-1.86c1.83-1.4,3.6-2.85,5.35-4.33c1.53,0.32,2.37-1.64,3.35-2.56
			c0.38-0.45,0.75-0.9,1.12-1.35c1.12-1.01,2.21-2.06,3.31-3.09c5.04-3.65,10.02-7.38,14.98-11.15c0.49,1.56,1.5,2.97,3,2.32
			c0,0.01,0,0.01,0,0.02c0.03-0.02,0.06-0.04,0.09-0.07c0.09-0.04,0.17-0.08,0.26-0.13c0.12-0.1,0.33-0.28,0.56-0.48
			c0.22-0.16,0.44-0.32,0.65-0.49c3.32-2.53,6.55-5.19,9.82-7.79c13.15-10.48,24.6-19.39,36.03-29.13c1.45-1.21,2.92-2.39,4.39-3.57
			c1-0.14,2-0.34,2.94-0.72c3.03-1.3,7.57-4.58,10.24-8.25c1.17-0.9,2.2-1.97,2.93-3.27c0.12-0.28,0.22-0.58,0.33-0.88
			c0.02-0.02,0.04-0.03,0.06-0.04C608.83,297.6,608.94,297.1,608.95,296.59z"/>
	</g>
	<path class="st3" d="M285.87,449.24c-0.25-0.5-0.66-0.84-1.11-1.14c-0.73-2.87-2.49-5.28-5.36-3.68c-0.07-0.1-0.12-0.21-0.19-0.31
		c-2.06-2.98-4.97-2.45-6.53,0.65c-0.43,0.98-0.73,1.99-0.94,3.03c-0.52,0.06-1.05,0.15-1.47,0.41c-1.01,1.05-0.93,3.02-0.14,4.18
		c0.07,0.09,0.15,0.15,0.24,0.21c-0.17,0.42-0.37,0.93-0.63,1.59c-1.75,4.24-2.47,9.01-1.26,13.49c0.3,1.12,0.76,2,1.32,2.68
		c0.28,1.15,0.72,2.25,1.65,3c0.67,0.85,1.78,0.53,2.66,0.25c0.92-0.53,1.52-1.35,2.01-2.26c0.93-0.48,1.84-1.17,2.63-2.09
		c2.13-2.68,3.27-5.97,3.69-9.36c1.16-0.2,2.27-0.58,3.13-1.4C287.41,455.9,287.45,451.94,285.87,449.24z"/>
</g>
<g id="Layer_4">
	<path class="st4" d="M721.39,211.32c0.43-0.22,0.85-0.45,1.29-0.66c-0.5,0.07-1.02,0.16-1.56,0.27c-0.53-0.69-1.23-1.21-2.19-1.3
		c-1.23,0.04-2.48,0.2-3.72,0.15c-1.22,0.04-2.47-0.09-3.68,0.09c-2.07,0.43-4,1.34-5.96,2.11c-3.84,1.56-7.68,3.1-11.47,4.78
		c-1.76,0.8-3.53,1.6-5.29,2.4c-0.29,0.08-0.57,0.15-0.86,0.22c-5.69,1.28-18.44,2.9-26.22,5.58c-5.24,1.89-10.69,3.05-15.95,4.85
		c-1.12,0.5-2.22,1.05-3.31,1.61c-0.63,0.19-1.27,0.36-1.9,0.56c-1.23,0.4-2.46,0.82-3.69,1.24c-3.47,0.23-6.92,0.68-10.34,1.29
		c-3.13,0.52-6.2,1.25-9.22,2.12c-3.92,0.84-7.8,1.88-11.6,3.08c-1.22,0.48-2.44,0.97-3.64,1.49c-5.5,1.46-11.32,3.36-17.02,5.44
		c-3.51,1.2-6.99,2.49-10.44,3.83c-0.75-0.52-1.87-1.01-2.56-0.32c-0.5,0.49-0.85,1.11-1.09,1.77c-0.17,0.07-0.34,0.13-0.51,0.2
		c-0.33,0.12-0.66,0.24-0.98,0.36c-2.18,0.23-4.33,0.72-6.41,1.54c-2,0.81-4.6,1.57-5.44,3.77c0.27-0.41,0.68-0.67,1.14-0.86
		c-0.21,0.17-0.43,0.34-0.52,0.56c0.02,0.15,0.21,0.2,0.3,0.31c0.09,0.07,0.18,0.13,0.28,0.18c-0.11-0.05-0.27-0.32-0.38-0.46
		c0.23-0.13,0.46-0.23,0.7-0.32c-0.12,0.33-0.12,0.73,0,1.07c-0.15,0.2-0.3,0.41-0.42,0.64c-0.09,0.46-0.08,1.27,0.47,1.41
		c1.47,0,2.84-0.5,4.21-0.97c0.1-0.03,0.2-0.07,0.3-0.1c0.25,0.67,0.63,1.3,1.08,1.82c0.38,0.48,0.82,0.88,1.29,1.24
		c-0.37,0.27-0.75,0.53-1.12,0.8c0.48-0.16,0.95-0.33,1.43-0.5c0.34,0.97,0.78,1.85,1.3,2.47c1.77,1.77,4.33,2.38,6.67,3.05
		c3.26,0.87,6.61,1.39,9.98,1.54c0.31-0.02,0.64-0.01,0.97,0c0.31,0.11,0.62,0.22,0.93,0.33c0.25,0.1,0.48,0.15,0.7,0.15
		c0.82,1.05,1.65,2.09,2.5,3.1c0.76,2.82,2.46,5.13,5.16,5.86c3.64,3.92,7.65,7.54,12.39,10.05c0.26,0.13,0.53,0.23,0.79,0.36
		c3.2,3.18,7.45,4.65,11.76,3.88c2.97,0.74,5.97,1.36,9.04,1.25c1.54-0.07,3.28,0.36,4.62-0.59c2.21-1.72,2.82-4.93,2.5-7.89
		c1.08-0.7,2.17-1.47,3.24-2.31c1.32-0.14,2.62-0.46,3.83-0.93c2.03-0.69,3.87-1.69,5.56-2.9c5.19-1.3,11.18-6.85,14.26-9.34
		c6.38-5.53,12.07-11.78,18.17-17.61c4.23-4.28,9.08-7.93,13.04-12.47c0.39-0.56,0.72-1.18,0.98-1.82c0.65-0.49,1.29-0.99,1.94-1.47
		c3.14-2.16,6.36-4.17,9.8-5.84c3.96-2.04,7.59-4.63,11.42-6.89c4.35-1.42,5.3-6.62,4.39-10.61
		C722.18,213.1,721.88,212.13,721.39,211.32z"/>
</g>
<g id="Layer_2">
	<g>
		<g>
			<path class="st5" d="M688.45,271.22c0.27-1.29,0.16-1.73-0.65-2.77c-0.21-0.27-8.82,2.85-9.4,3.42
				c-5.64,5.61-10.43,11.8-14.44,18.67c0.39-0.67,3.93-1.38,4.72-1.66c1.21-0.44,3.77-0.8,4.68-1.76
				c6.09-6.43,12.99-12.6,18.48-19.54c0.44-0.56,3.59-4.71,2.3-5.53c-0.27-0.17-1.69,0.47-2.09,0.6c-2.49,0.78-4.94,1.76-7.38,2.68
				c-6.17,2.32-10.6,6.53-15.33,11.03c-6.31,6.01-12.34,12.3-18.14,18.81c1.94-2.17,7.29-1.3,9.4-3.42
				c6.18-6.22,11.97-12.78,17.27-19.76c1.41-1.86,2.79-3.74,4.14-5.65c0.86-1.23,2.83-2.52,1.06-3.61
				c-1.54-0.95-5.05,0.93-6.44,1.44c-2.15,0.78-4.54,1.42-6.56,2.51c-3.58,1.92-6.52,5.44-9.51,8.14
				c-7.24,6.55-14.49,13.09-21.73,19.64c2.27-2.05,7.02-1.39,9.4-3.42c7-5.99,13.72-12.28,20.1-18.93c1.13-1.18,3.03-2.04,1.96-3.64
				c-1.04-1.54-3.28-1.02-4.68-0.69c-2.01,0.48-4.03,1.41-5.96,2.12c-6.44,2.37-11.66,6.65-16.72,11.24
				c-2.92,2.65-5.69,5.47-8.28,8.45c-1.19,1.37-3.38,2.57-0.77,2.2c0.88-0.12,1.91-0.62,2.77-0.92c4.94-1.72,10.1-3.33,14.53-6.17
				c3.07-1.97,5.78-4.48,8.01-7.37c0.87-1.13,2.47-2.85,2.78-4.27c1.14-1.46,0.86-1.75-0.83-0.89c-0.55,0.15-1.09,0.33-1.63,0.54
				c-4.5,1.49-9.21,3.01-13.4,5.25c-6.9,3.69-12.38,9.52-17.67,15.16c0.77-0.82,3.63-1.27,4.72-1.66c1.54-0.56,3.22-1.01,4.68-1.76
				c5.29-2.71,9.55-6.39,12.99-11.24c-0.93,1.32-6.42,2.28-8.03,2.89c-6.86,2.56-12.18,6.58-15.54,13.25
				c0.22-0.06,0.44-0.13,0.65-0.21c3.6-1.23,7.25-2.44,10.76-3.93c1.18-0.5,12.72-8.17,11.26-9.32c-1.02-0.8-9.21,3.15-10.34,3.58
				c-3.85,1.46-7.36,3.31-10.27,6.3c-0.85,0.87-1.61,1.82-2.31,2.81c-0.92,1.32-1.74,1.59-0.06,1.88c0.79,0.14,2.67-0.89,3.4-1.15
				c1.14-0.41,9.64-3.14,7.93-4.33c-1.96-1.37-8.47,2.08-10.15,2.7c-3.72,1.39-6.89,2.77-7.64,7.15c0.19-1.14,8.22-2.49,9.4-3.42
				c2.06-1.64,4.13-3.28,6.19-4.91c-2.46,1.95-6.9,1.44-9.4,3.42c-2.06,1.64-4.13,3.28-6.19,4.91c3.13-1.14,6.26-2.28,9.4-3.42
				c0.52-3.06,2.22-5.04,5.16-6.19c-3.08,1.12-6.16,2.23-9.23,3.35c2.06-0.43,5.02-0.59,2.18,1.54c3.07-1.12,6.15-2.25,9.22-3.37
				c-4.07,1.33-0.44-2.21,0.51-3.32c1.26-1.48,2.71-2.8,4.29-3.92c0.59-0.43,1.21-0.82,1.84-1.17c1.86-1.02,0.75-0.7-3.34,0.97
				c-1.47,1.16-2.52,3.38-3.97,4.71c-0.47,0.43-5.03,3.35-5.03,3.56c1.93-1,3.87-1.99,5.8-2.99c0.48-0.88,1.01-1.73,1.6-2.54
				c2.6-3.61,6.33-6.72,10.53-8.29c-2.68,0.96-5.36,1.92-8.03,2.89c-3.44,4.85-7.7,8.54-12.99,11.24c3.13-1.14,6.26-2.28,9.4-3.42
				c4.61-4.92,9.33-9.93,15.04-13.6c1.13-0.73,2.99-1.4,4-2.26c-2.07-0.18-3.39,0.48-3.96,1.98c-0.32,0.66-0.67,1.3-1.05,1.92
				c-1.61,2.71-3.67,5.16-6.02,7.27c-1.09,0.98-2.23,1.87-3.44,2.69c-1.08,0.73-5.69,4.37-0.51,1.05c2.45-1.57,4.68-5.42,6.79-7.54
				c4.95-4.96,10.66-10.28,16.96-13.44c-3.13,1.14-6.26,2.28-9.4,3.42c2.12-0.55,5.67-0.36,4.62,2.32
				c-0.96,2.45-5.18,5.39-7.07,7.25c-4.8,4.75-9.8,9.29-14.93,13.69c3.13-1.14,6.26-2.28,9.4-3.42c5.31-4.8,10.63-9.6,15.94-14.4
				c4.87-4.4,10.29-11.27,16.39-13.83c-3.08,1.12-6.16,2.23-9.23,3.35c0.76-0.13,2.9-0.45,3.28,0.73c0.12,0.38-2.75,3.96-3,4.31
				c-2.04,2.85-4.16,5.63-6.36,8.37c-4.39,5.47-9.1,10.65-14.04,15.62c3.13-1.14,6.26-2.28,9.4-3.42c4.97-5.58,10.1-11,15.45-16.22
				c4.69-4.58,9.74-10.43,16.02-12.83c-2.92,1.05-5.84,2.11-8.76,3.16c3.12-0.84,0.63,3.18-0.37,4.52
				c-1.81,2.42-4.17,4.56-6.25,6.75c-4.24,4.47-8.48,8.95-12.73,13.42c3.13-1.14,6.26-2.28,9.4-3.42
				c4.01-6.87,8.8-13.06,14.44-18.67c-3.13,1.14-6.26,2.28-9.4,3.42c0.81,1.03,0.91,1.48,0.65,2.77
				C679.39,272.98,688.08,272.99,688.45,271.22L688.45,271.22z"/>
		</g>
	</g>
	<path class="st5" d="M723.73,211.7c-2.07-0.22-3.79,1.39-5.58,2.21c-1.23,0.72-2.63,1.25-3.6,2.33c-0.49,0.65-0.83,1.37-1.08,2.12
		c-0.63,0.43-1.25,0.88-1.89,1.27c-0.15,0.02-0.31,0.06-0.46,0.12c-1.94,0.49-3.48,1.89-5.03,3.09c-2.99,2.26-5.39,5.11-7.57,8.13
		c-1.89,1.13-3.51,2.63-5.12,4.14c-2.19,2-4.32,4.06-6.33,6.24c-3.2,2.26-6.43,4.47-9.41,7.01c-0.81,0.65-1.61,1.31-2.41,1.97
		c-1.02,0.34-1.99,0.8-2.89,1.4c-1.4,0.92-2.72,1.94-4.01,3c-0.71,0.43-1.41,0.88-2.08,1.38c-1.51,0.89-3.02,1.78-4.55,2.64
		c-2.76,1.56-5.76,2.63-8.54,4.15c-3.16,1.66-4.98,4.74-7.15,7.45c-2.03,1.26-4.63,2.1-5.32,4.61c-0.35,0.72-0.58,1.64-0.69,2.65
		c-0.37,0.23-0.74,0.46-1.1,0.69c-2.7,1.92-6.57,3.17-7.79,6.46c-1.1,0.39-2.16,0.87-3.2,1.42c-1.37,0.15-2.74,0.61-4.02,1.37
		c-3.8,2.41-4.17,7.87-2.75,11.77c0.44,1.5,1.56,2.65,2.95,2.83c0.1,0.78,0.25,1.53,0.44,2.22c1.16,4.36,5.05,5.5,9.08,4.4
		c1.01-0.2,1.98-0.5,2.88-0.91c1.15,0.97,2.39,1.82,3.71,2.51c0.1,0.07,0.2,0.11,0.3,0.17c0.33,4.41,2.42,8.71,5.77,11.6
		c2.51,2.48,5.96,3.46,9.37,3.9c0.98,0.15,1.82,0.06,2.53-0.19c0.62,0.3,1.24,0.57,1.88,0.81c2.23,2.34,4.54,4.61,6.87,6.82
		c1.33,1.13,2.68,2.25,4.05,3.33c0.57,0.41,1.28,0.85,1.95,0.49c0.56-0.23,1.02-0.6,1.41-1.05c0.17,0.12,0.33,0.25,0.5,0.36
		c0.94,0.66,1.92,1.25,2.93,1.78c0.53,0.73,1.07,1.45,1.6,2.18c0.68,0.85,1.38,1.69,2.07,2.53c0.96,1.47,1.92,2.94,2.9,4.4
		c0.05,0.07,0.1,0.14,0.15,0.22c1.02,1.87,2.24,3.7,3.65,5.04c1.38,0.81,2.86-0.54,3.39-1.79c0.14-0.28,0.25-0.56,0.37-0.85
		c0.25,2.74,0.82,5.42,2.32,7.73c0.85,1.21,2.67,1.23,3.52,0c1.34-1.61,1.49-3.76,1.94-5.73c0.07-0.44,0.14-0.88,0.21-1.31
		c0.78-0.58,1.43-1.63,1.76-2.92c0.7-2.59,0.48-5.31,0.72-7.96c0.07-1.61,0.17-3.21,0.25-4.82c0.65-4.92,2.06-11.61,3.59-20.9
		c0.75-6.6,2.58-13.35,1.61-19.99c-0.02-0.17-0.06-0.34-0.1-0.51c0.23-0.92,0.46-1.84,0.7-2.76c0.49-2.25,1.38-4.45,1.48-6.77
		c0.12-0.65,0.11-1.56-0.02-2.54c0.8-2.9,1.61-5.79,2.46-8.68c1.6-5.77,3.54-11.47,4.47-17.39c0.4-2.02,0.18-4.5-0.51-6.5
		c1.2-3.08,2.22-6.25,3.4-9.33c1.57-3.81,3.79-7.6,3.02-11.88c-0.03-0.3-0.09-0.64-0.17-0.99c0.37-0.25,0.75-0.49,1.12-0.74
		c1.49-0.88,2.67-2.18,3.05-3.9C727.62,219.22,727.51,212.4,723.73,211.7z"/>
</g>
<g id="Layer_8">
	<path class="st6" d="M439.53,514.66c-0.12-0.21-0.26-0.41-0.4-0.6c-0.53-2.2-1.87-4.22-4.2-4.76c-1.24-0.37-2.54-0.66-3.86-0.86
		c-0.97-0.5-1.98-0.92-3.03-1.22c-1.76-0.79-3.7-0.14-5.1,1.07c-2.34,0.17-4.51,0.8-6.26,1.88c0.01-0.05,0.02-0.09,0.02-0.14
		c-0.02,0.05-0.04,0.11-0.05,0.16c-3.58,2.22-5.38,6.31-3.3,12.16c2.2,4.47,10.06,7.21,15.3,6.76c0.21,0.05,0.42,0.11,0.63,0.15
		c3.15,0.57,6.92,0.24,9.28-2.13C441.58,523.82,441.69,518.46,439.53,514.66z M420.24,518.21c0.13,0.76,0.3,1.5,0.55,2.22
		c-0.43-0.2-0.86-0.41-1.28-0.63c-0.41-0.36-0.77-0.76-1.1-1.18C418.98,518.43,419.59,518.3,420.24,518.21z"/>
</g>
<g id="Layer_7">
	<path class="st7" d="M486.43,520.12c0.18-0.64,0.32-1.29,0.44-1.92c0.38-2.68,0.17-5.33-0.37-7.93c0.6-2.91,0.29-6.23-0.51-8.65
		c-1.77-4.82-5.45-8.55-9.18-12.06c-0.44-0.63-0.87-1.27-1.33-1.89c-0.73-0.92-1.34-1.93-2.13-2.78c-0.33-1.18-0.83-2.25-1.48-3.1
		c-1.9-1.74-3.23-3.09-6.77-6.21c-1.25-1.12-2.81-1.77-4.2-2.69c-1.13-0.65-2.1-1.57-3.27-2.14c-1.88-0.69-3.91-0.66-5.89-0.78
		c-2.56-0.41-5.12-0.19-7.69,0.04c-0.22,0.01-0.44,0.01-0.65-0.03c-1.58-0.56-3.24-0.72-4.91-0.55c-3.33,0.17-1.7-0.57-4.77-0.47
		c-1.95,0.27-3.46,1.56-5.12,2.51c-5.02,2.41-7.43,2.74-11.15,3.99c-0.48,0.2-0.97,0.37-1.46,0.55c-0.15-0.35-0.33-0.69-0.55-1
		c-1.1-1.22-2.97-0.5-4.38-0.28c-2.16,0.65-3.9,1.85-5.44,3.33c-1.14,0.19-2.16,0.84-3.06,1.77c-0.03,0.01-0.06,0.02-0.09,0.03
		c-0.29,0.05-0.57,0.13-0.82,0.25c-0.06,0.02-0.12,0.04-0.18,0.06c0,0.01,0,0.02,0.01,0.03c-0.16,0.09-0.31,0.2-0.45,0.35
		c-0.46,0.68-0.77,1.54-0.89,2.44c-0.42-0.17-0.83-0.24-1.25-0.17c-3.69,1.58-4.35,6.09-4.55,9.74c-0.37,1.4-0.65,2.82-0.9,4.25
		c-0.4,3.59-0.87,7.32-0.68,10.96c-0.02,0.39-0.04,0.78-0.05,1.17c0.05,3.36-0.33,6.9,1.09,10.04c0.73,1.58,1.62,2.05,2.48,1.86
		c0.12,2.55,0.54,5.05,1.79,7.36c0.91,1.83,2.24,3.69,4.24,4.4c1.77,0.51,1.93,0.47,2.58,0.76c2.72,1.36,3.7,4.15,7.28,2.6
		c3-1.54,1.86-1.74,4.56-1.4c1.61,0.48,3.23,1.01,4.93,0.93c1.48-0.07,2.93-0.47,4.41-0.54c1.83-0.13,3.23,1.35,7.04,1.18
		c1.75-0.13,3.34-0.85,4.94-1.48c2.48,0.7,5.1,0.85,7.67,0.42c2.77,0.08,5.54,0.12,8.27,0.6c4.02,0.58,3.81,0.82,7.31,1.6
		c2.11,0.66,4.23,0.31,6.25-0.45c1.2,0.17,2.18,0.17,2.99-0.01c1.77,0.53,3.57,0.63,5.16,0.13c0.96-0.12,1.9-0.38,2.75-0.83
		c0.47-0.38,0.87-0.81,1.24-1.27c0.05,0.04,0.1,0.08,0.15,0.12c2.24,1.25,5.06-0.21,5.96-2.47c1.34-2.92,1.19-6.21,0.94-9.34
		C486.66,522.13,486.55,521.13,486.43,520.12z M439.86,485.43c-1.25,0.33-2.44,0.87-3.49,1.62c-0.28,0.24-0.54,0.49-0.79,0.74
		c-0.94-1.51-2.01-2.92-3.28-4.03c0.49-0.31,0.98-0.62,1.51-0.86c0.01,0,0.02-0.01,0.03-0.01c0.37-0.05,0.75-0.07,1.12,0
		c0.24,0.05,0.25,0.06,0.18,0.04c0.25,0.07,0.5,0.14,0.75,0.2c1.43,0.47,2.93,0.15,4.4,0.17c0.36-0.03,0.86,0.04,1.2,0.1
		C440.91,484.02,440.37,484.71,439.86,485.43z"/>
	<path class="st8" d="M485.67,523.18c-0.17-3.01-1.12-6.02-3.82-6.82c-0.65-1.32-1.69-2.48-3.29-3.28
		c-1.77-0.71-3.62-1.23-5.49-1.65c-0.41-0.44-0.85-0.85-1.33-1.23c-0.25-2.17-1.01-4.94-3.35-5.3c-2.04,0.34-4.13,0.72-6.2,0.37
		c-0.02-0.01-0.03-0.01-0.05-0.02c-0.26-0.12-0.5-0.23-0.72-0.33c-0.15-0.1-0.3-0.19-0.44-0.3c-1.33-0.89-2.67-2.57-5.69-5.21
		c-0.63-0.18-1.23-0.44-1.85,0c-0.28,0.23-0.55,0.47-0.83,0.7c-0.1,0.15-0.18,0.31-0.28,0.46c-0.85-0.73-1.51-1.84-2.73-1.87
		c-0.83,0.03-1.39,0.52-1.92,1.1c-0.27,0.22-0.62,0.51-0.86,0.74c-0.56,0.61-1.01,1.27-1.4,1.97c-0.33-0.5-0.72-0.92-1.16-1.24
		c-5.27-1.95-6.16-1.59-10.93-3.28c-2.98-0.76-6.13-2.55-9.24-1.64c-0.76,0.5-1.38,1.41-1.84,2.55c-2.25,0.32-4.16,0.7-5.05,1.05
		c-0.87,0.35-1.53,1.07-2,1.98c-0.09-0.01-0.18-0.03-0.27-0.04c-1.43-0.02-2.74,0.68-4.04,1.16c-0.96,0.34-1.88,0.47-2.9,0.81
		c-1.65,0.73-3.08,1.92-4.87,2.36c-2,0.45-4.11,0.77-5.62,2.31c-0.22,0.22-0.44,0.44-0.65,0.67c-1-0.75-1.72,0.68-2.29,1.43
		c-0.3,0.4-0.55,0.82-0.76,1.26c-0.85-0.06-1.66,0.12-2,0.87c-0.74,1.67-0.38,3.79,0.76,5.21c-0.14,1.53-0.28,3.08,0.11,4.57
		c0.7,2.37,2.18,2.34,3.24,1.06c0.42,2.54,1.44,4.92,3.58,6.46c0.94,0.63,1.98,1.05,3.08,1.35c0.91,0.45,1.88,0.75,2.9,0.9
		c0.22,0.12,0.44,0.25,0.67,0.35c2.5,0.86,5.31,0.99,7.89,0.32c0.69,0.01,1.38-0.07,2.06-0.22c2.03,1.11,4.32,1.78,6.61,1.88
		c0.66,1.05,1.61,1.8,2.92,2.03c2.84,0.66,5.71,1.15,8.56,1.73c2.52,0.38,5.48,1.6,7.77-0.06c0.89-0.68,1.45-1.65,1.75-2.72
		c0.19-0.09,0.38-0.19,0.54-0.33c0.17-0.24,0.3-0.51,0.42-0.78c1.94,0.09,3.89,0.09,5.81,0.23c0.28,0.03,0.56,0.04,0.83,0.06
		c2.46,1.82,5.32,3.49,8.46,3.31c2.22-0.21,4.16-1.11,5.76-2.46c3.29,0.84,6.5,0.59,8.81-1.08c0.23,0.87,0.67,1.59,1.48,1.87
		c1.11,2.7,3.12,4,6.6,0.38C485.08,534.44,487.01,527.59,485.67,523.18z"/>
</g>
<g id="Layer_1">
	<g>
		<g>
			<path d="M716.46,210.19c-46.46,12.85-92.91,25.71-139.37,38.56c-7.49,2.07-15.06,4.03-22.23,7.1c-3.86,1.65-5.76,4.42-7.12,8.31
				c-1.83,5.2-3.36,10.5-5.16,15.71c-7.16,20.74-15.71,41-25.57,60.61c-5,9.94-10.33,19.7-15.98,29.28c-2.6,4.4-5.27,8.76-8,13.07
				c-0.69,1.09-2.12,2.58-2.43,3.8c-0.51,1.99-2.45,1.04,1,1.26c3.14,0.21,6.77-0.86,9.92-1.26c24.14-3.06,48.27-6.11,72.41-9.17
				s48.27-6.11,72.41-9.17c11.9-1.51,23.81-3,35.71-4.52c6.34-0.81,13.33-2.47,18.97-5.62c4.99-2.78,5.64-8.63,6.49-13.74
				c1.09-6.53,2.16-13.05,3.24-19.58c2.21-13.38,4.42-26.76,6.62-40.14c4.46-27.09,8.91-54.18,13.35-81.27
				c-0.25,1.55-9.12,1.75-9.4,3.42c-7.21,44.07-14.46,88.13-21.75,132.18c-0.79,4.79-1.32,9.71-2.5,14.42
				c-0.48,1.9-1.1,3.75-2.26,5.35c-0.57,0.78-1.42,1.32-2,2.04c-1.56,1.95,6.27-1.23,2.05-0.91c-11.06,0.83-22.16,2.82-33.17,4.21
				c-22.48,2.85-44.97,5.7-67.45,8.54c-21.82,2.76-43.65,5.53-65.47,8.29c-5.62,0.71-11.24,1.42-16.86,2.14
				c-2.65,0.34-5.29,0.67-7.94,1.01c-1.06,0.13-3.02,0.89-3.97,0.5c-1.44,0.44-1.44-0.02-0.01-1.39c0.33-0.51,0.65-1.01,0.98-1.52
				c5.52-8.6,10.76-17.38,15.74-26.31c9.8-17.6,18.51-35.8,26.08-54.46c3.84-9.47,7.39-19.06,10.64-28.75
				c1.42-4.23,2.53-8.63,4.2-12.76c0.7-1.73,1.53-3.36,2.88-4.67c1.28-1.25,3.81-2.02-0.96-0.45c-6.43,2.12,0.72-0.07,2.42-0.54
				c48.36-13.41,96.73-26.76,145.1-40.15C710.27,212.73,713.26,211.08,716.46,210.19L716.46,210.19z"/>
		</g>
	</g>
	<g>
		<g>
			<path d="M479.48,391.44c-1,0.46-6.28,2.52-2.74,1.34c-1.97,0.65-3.96,1.24-5.97,1.78c-3.61,0.97-7.27,1.79-10.95,2.47
				c-6.64,1.23-13.35,2.04-20.08,2.61c-13.93,1.19-27.92,1.38-41.88,2.06c-24.51,1.19-48.18,5.01-70.71,15.09
				c-26.79,12-43.37,34.87-53.27,61.82c-9.42,25.65-14.76,53.4-31.85,75.47c-4.15,5.36-8.93,10.26-14.41,14.26
				c-2.93,2.14-6.04,4.02-9.31,5.57c-0.86,0.41-5.25,2.13-0.49,0.36c4.98-1.85-0.93,0.07-2.04,0.34c-2,0.49-4.03,0.87-6.06,1.19
				c-17.66,2.79-36.09,2.08-53.93,2.62c-3.19,0.1-6.26,3.32-9.4,3.42c28.18-0.86,58.26,1.18,83.9-12.68
				c24.75-13.37,35.95-41.73,44.09-67.04c9.31-28.97,18.28-58.36,43.47-77.67c6.22-4.77,12.93-8.31,19.98-11.66
				c0.74-0.35,3.33-1.13-0.11-0.05c0.76-0.24,1.52-0.48,2.28-0.71c1.98-0.59,3.96-1.14,5.97-1.63c3.62-0.89,7.28-1.63,10.95-2.25
				c14.76-2.48,29.75-3.03,44.68-3.58c16.31-0.61,32.71-1.15,48.8-4.13c13.19-2.44,26.25-6.84,38.45-12.42
				C485.86,389.4,482.5,390.05,479.48,391.44L479.48,391.44z"/>
		</g>
	</g>
	<g>
		<g>
			<path d="M487.01,387.96c-11.03,4.55-17.47,14.27-23.06,24.34c-6.29,11.34-12.01,21.82-21.43,30.91
				c-2.46,2.38-4.99,4.86-6.53,7.97c-1.74,3.48-1.6,7.2-1.88,10.98c-0.25,3.36-0.91,6.66-3.34,9.17c-1.09,1.12-4.66,2.75-0.61,1.23
				c4.4-1.65-0.86-0.24-2.33-0.05c-10.11,1.3-21.87,2.62-30.25,9.14c-12.35,9.61-13.19,28.1-10.75,42.31
				c1.43,8.32,6.42,10.95,14.36,11.76c9.34,0.95,18.71,1.59,28.09,1.96c9.06,0.36,18.12,0.45,27.18,0.28
				c7.28-0.14,15.62,0.57,22.58-1.75c5.91-1.97,10.18-3.03,12.39-9.37c2.33-6.68,2.89-13.93,1.83-20.91
				c-2.35-15.55-12.62-28.71-27.4-34.24c-14.27-5.33-27.37-1.92-40.93,3.36c-1.77,0.69,1.55-0.49,1.71-0.55
				c2.15-0.76,4.3-1.53,6.42-2.36c-1.08,0.42-4.93,1.44-1.79,1.01c1.2-0.16,2.39-0.45,3.6-0.6c2.18-0.27,4.37-0.39,6.56-0.34
				c4.15,0.1,8.28,0.76,12.25,1.96c8.42,2.55,16.05,7.53,21.45,14.51c5.22,6.75,8.35,15.08,9.07,23.57
				c0.59,6.91,0.25,21.13-7.04,24.59c3.13-1.14,6.26-2.28,9.4-3.42c-6.64,1.36-13.95,0.99-20.72,1.12
				c-6.8,0.13-13.59,0.11-20.39-0.06c-6.8-0.17-13.59-0.48-20.37-0.95c-6.54-0.45-13.75-0.36-20.12-2.03
				c-11.19-2.94-10.19-19.59-9.51-28.62c0.85-11.3,5.65-22.58,16.44-27.54c-0.45,0.18-0.91,0.36-1.36,0.53
				c-9.17,3.46,0.33,0.88,3.36,0.56c2.95-0.32,5.94-0.54,8.84-1.18c4.27-0.95,8.59-2.64,12.62-4.33c5.48-2.3,7.68-6.28,8.14-12.16
				c0.3-3.81,0.13-7.47,1.88-10.98c1.54-3.1,4.07-5.59,6.53-7.97c8.93-8.62,14.59-18.38,20.49-29.19
				c5.71-10.46,12.17-21.15,23.67-25.9C493.88,385.59,489.81,386.8,487.01,387.96L487.01,387.96z"/>
		</g>
	</g>
	<g>
		<g>
			<path d="M400.26,510.46c2.72-1.94,5.52-3.73,8.49-5.27c1.43-0.74,2.88-1.43,4.36-2.06c-0.94,0.33-1.87,0.66-2.81,1
				c0.19-0.6,5.14-1.38,6.28-1.62c7.28-1.49,14.6-1.55,21.98-0.82c14.23,1.4,28.32,3.07,38.35,14.31c0.87,0.97,8.62-4.29,9.4-3.42
				c-6.37-7.14-14.46-10.84-23.81-12.45c-9.75-1.68-20.05-3.04-29.93-2.04c-14.28,1.44-30.06,7.48-41.71,15.8
				C393.46,512.02,397.63,512.34,400.26,510.46L400.26,510.46z"/>
		</g>
	</g>
	<g>
		<g>
			<path d="M391.33,522.05c6.39,2.58,12.79,1.45,19.34,0.17c6.79-1.33,13.05-1.96,19.96-1.07c7.21,0.94,14.22,2.15,21.53,1.97
				c7.88-0.19,15.7-1.38,23.48-2.55c3.24-0.49,6.18-2.94,9.4-3.42c-7.78,1.17-15.6,2.36-23.48,2.55
				c-7.32,0.18-14.31-1.03-21.53-1.97c-6.9-0.9-13.18-0.27-19.96,1.07c-6.56,1.29-12.95,2.42-19.34-0.17
				c-0.78-0.31-3.91,1.37-4.72,1.66C395.2,520.58,392.12,522.37,391.33,522.05L391.33,522.05z"/>
		</g>
	</g>
	<g>
		<g>
			<path d="M409.54,511.55c1.6,1.34,3.21,2.68,4.81,4.02c0.07,0.06,1.54-0.52,1.39-0.47c1.11-0.39,2.22-0.79,3.33-1.2
				c1.11-0.4,2.21-0.81,3.32-1.22c0.16-0.06,1.3-0.59,1.36-0.53c-1.6-1.34-3.21-2.68-4.81-4.02c-0.07-0.06-1.54,0.52-1.39,0.47
				c-1.11,0.39-2.22,0.79-3.33,1.2c-1.11,0.4-2.21,0.81-3.32,1.22C410.74,511.08,409.61,511.61,409.54,511.55L409.54,511.55z"/>
		</g>
	</g>
	<g>
		<g>
			<path d="M446.13,511.99c1.41,1,2.65,2.18,3.71,3.54c0.04,0.05,1.58-0.53,1.39-0.47c1.11-0.39,2.22-0.79,3.33-1.2
				c1.11-0.4,2.21-0.81,3.32-1.22c0.14-0.05,1.34-0.56,1.36-0.53c-1.06-1.36-2.3-2.54-3.71-3.54c-0.09-0.06-1.52,0.51-1.39,0.47
				c-1.11,0.39-2.22,0.79-3.33,1.2c-1.11,0.4-2.21,0.81-3.32,1.22C447.32,511.53,446.23,512.06,446.13,511.99L446.13,511.99z"/>
		</g>
	</g>
	<g>
		<g>
			<path d="M475.49,517.18c3.16,0,6.29-3.42,9.4-3.42C481.73,513.76,478.59,517.18,475.49,517.18L475.49,517.18z"/>
		</g>
	</g>
	<g>
		<g>
			<path d="M476.55,515.79c0.91,1.38,1.82,2.75,2.74,4.13c0.03,0.04,1.59-0.54,1.39-0.47c1.11-0.39,2.22-0.79,3.33-1.2
				c1.11-0.4,2.21-0.81,3.32-1.22c0.14-0.05,1.35-0.55,1.36-0.53c-0.91-1.38-1.82-2.75-2.74-4.13c-0.03-0.04-1.59,0.54-1.39,0.47
				c-1.11,0.39-2.22,0.79-3.33,1.2c-1.11,0.4-2.21,0.81-3.32,1.22C477.77,515.31,476.56,515.81,476.55,515.79L476.55,515.79z"/>
		</g>
	</g>
	<g>
		<g>
			<path d="M429.9,471.09c-1.03,12.42,5.48,23.21,8.3,34.93c1.5,6.21,1.47,12.49,0.94,18.82c-0.46,5.49-0.19,12.42-5.54,15.54
				c3.13-1.14,6.26-2.28,9.4-3.42c-0.9,0.4-1.84,0.51-2.82,0.34c-3.12-0.1-6.33,3.51-9.4,3.42c3.68,0.11,9.03-2.06,12.21-3.76
				c6.58-3.51,5.8-15.69,5.9-21.98c0.27-16.55-10.97-30.81-9.59-47.31C439.18,469,430.02,469.63,429.9,471.09L429.9,471.09z"/>
		</g>
	</g>
	<g>
		<g>
			<path d="M429.02,399.73c-6.34-5.04-11.29-11.15-14.9-18.4c0.02,0.04-8.96,2.76-9.4,3.42c-2.46,3.73-3.56,7.87-5.68,11.7
				c-1.53,2.77-4.93,3.98-5.39,7.31c0.2-1.47,9.18-1.81,9.4-3.42c0.46-3.33,3.85-4.54,5.39-7.31c2.12-3.83,3.22-7.97,5.68-11.7
				c-3.13,1.14-6.26,2.28-9.4,3.42c3.61,7.25,8.56,13.36,14.9,18.4C421.04,404.27,427.71,398.69,429.02,399.73L429.02,399.73z"/>
		</g>
	</g>
	<g>
		<g>
			<path d="M357.45,412.96c0.44,2.18,4.42,14.83,1.76,15.91c3.08-1.12,6.16-2.23,9.23-3.35c-5.95,1.25-10.71-1.62-16.06-3.76
				c-3.54-1.42-9.69-1.09-11.71-4.76c-0.28-0.51-9.19,3.8-9.4,3.42c1.72,3.14,5.48,2.81,8.55,3.65c4.36,1.18,8.17,3.87,12.6,4.85
				c6.02,1.34,11.92-1.74,17.39-3.95c0.05-0.02,0.11-0.05,0.16-0.07c-1.04-5.12-2.09-10.24-3.13-15.36
				C366.93,409.95,357.34,412.41,357.45,412.96L357.45,412.96z"/>
		</g>
	</g>
	<g>
		<g>
			<path d="M293.15,448.18c-7.94-1.82-15.48-4.58-22.72-8.33c-0.6-0.31-9.4,3.26-9.4,3.42c0.32,14.36,3.64,28.24,9.87,41.18
				c0.18,0.36,9.29-3.65,9.4-3.42c-6.23-12.94-9.56-26.82-9.87-41.18c-3.13,1.14-6.26,2.28-9.4,3.42
				c7.24,3.75,14.78,6.51,22.72,8.33C286.52,452.23,290.46,447.56,293.15,448.18L293.15,448.18z"/>
		</g>
	</g>
	<g>
		<g>
			<path d="M238.89,558.57c-0.14,11.94,6.42,22.28,9.27,33.58c2.92-1.07,5.83-2.14,8.75-3.21c-2.76,0.94-7.82-1.94-10.37-2.79
				c-4.03-1.36-8.06-2.72-12.09-4.08c-5.08-1.72-15.23-3.01-16.99-9.04c0.04,0.14-9.48,3.14-9.4,3.42c0.96,3.29,3.77,4.49,6.76,5.59
				c4.29,1.57,8.68,2.93,13.01,4.4c4.34,1.47,8.68,2.93,13.01,4.4c2.84,0.96,5.06,2.1,7.95,1.12c0.79-0.27,8.81-2.97,8.75-3.21
				c-2.85-11.3-9.41-21.64-9.27-33.58C248.27,556.26,238.9,557.33,238.89,558.57L238.89,558.57z"/>
		</g>
	</g>
	<g>
		<g>
			<path d="M499.44,384.95c12.27-13.13,27.66-23.03,42.09-33.58c15.29-11.18,30.54-22.43,45.73-33.74
				c30.39-22.63,60.58-45.52,90.57-68.68c17.06-13.18,34.06-26.44,50.99-39.78c-2.47,1.94-6.89,1.45-9.4,3.42
				c-59.52,46.9-119.84,92.78-180.97,137.57c-16.45,12.05-34.43,23.23-48.42,38.21C492.05,386.22,497.39,387.14,499.44,384.95
				L499.44,384.95z"/>
		</g>
	</g>
	<g>
		<g>
			<path d="M552.14,258.38c12.82,4.54,24.17,11.94,35.01,20.04c11.86,8.87,23.47,18.08,35.19,27.14
				c11.8,9.13,23.61,18.26,35.41,27.39c11.56,8.95,23.01,18.04,33.05,28.7c0.95,1.01,8.54-4.33,9.4-3.42
				c-9.83-10.44-21.01-19.38-32.33-28.15c-12.04-9.33-24.09-18.64-36.14-27.95c-11.48-8.88-22.88-17.9-34.49-26.62
				c-11.05-8.3-22.6-15.92-35.7-20.56c-0.85-0.3-3.86,1.35-4.72,1.66C555.96,256.94,553,258.69,552.14,258.38L552.14,258.38z"/>
		</g>
	</g>
</g>
</svg>
