<svg width="107" height="122" viewBox="0 0 107 122" fill="none" xmlns="http://www.w3.org/2000/svg">
<g clip-path="url(#clip0_41_126)">
<path d="M40.8313 22.4447C40.759 22.3769 40.7138 22.3452 40.7002 22.3362C40.7409 22.3678 40.777 22.404 40.8177 22.4356C40.8222 22.4401 40.8268 22.4447 40.8313 22.4447Z" fill="#AD0000"/>
<path d="M79.3371 75.7807C79.3326 75.0982 79.0478 73.8507 78.4331 73.3218C78.4286 73.3128 78.4286 73.3038 78.4241 73.2947C78.3789 73.1275 78.3382 72.9648 78.293 72.7975C78.4195 70.7228 78.5597 66.3972 78.1303 63.2648C78.2161 62.6908 78.302 62.1168 78.3834 61.5427C78.7043 60.0556 78.8851 58.5414 78.5823 57.0363C78.5054 56.4984 78.2252 55.7707 77.7777 55.3865C77.6918 54.5232 77.5743 53.7276 77.4704 53.0994C77.4749 52.8236 77.4749 52.5524 77.4794 52.2767C77.5156 50.8303 77.4929 49.3794 77.389 47.933C77.4658 47.7477 77.5336 47.5578 77.5924 47.3725C77.9495 46.9928 78.2478 46.5092 78.4602 45.9487C78.302 45.8041 78.1755 45.6142 78.1031 45.3928C77.9449 44.9182 77.9178 44.3938 77.9043 43.8966C77.8952 43.5848 77.9043 43.291 77.9495 42.9791C77.9721 42.8435 78.0082 42.7124 78.0444 42.5768C78.0444 42.5723 78.0444 42.5723 78.0444 42.5678C78.0444 42.5542 78.0489 42.5406 78.0489 42.5271C78.0534 42.2694 78.0715 42.0163 78.0851 41.7813C78.1077 41.4875 78.1483 41.2072 78.2342 40.936C77.9811 40.4253 77.6511 39.9507 77.2308 39.5394C76.589 38.8523 75.7211 38.2195 74.8036 37.8805C74.9256 38.1517 74.9708 38.441 74.8894 38.7755C74.8035 39.1371 74.5504 39.5484 74.2114 39.7292C73.6103 40.0456 72.9052 39.8693 72.3266 39.5936C71.5085 39.2094 70.9164 38.5495 70.5638 37.7404C70.3152 37.3607 70.2112 36.9584 70.0847 36.5019C70.0395 36.3392 70.0124 36.1765 70.0078 36.0138C69.8451 35.7561 69.7005 35.4849 69.5649 35.1956C69.4383 34.9244 69.357 34.6532 69.2937 34.3775C68.9637 34.2871 68.6247 34.251 68.2812 34.2781C68.0823 33.2927 67.7207 32.3526 67.1964 31.6655C67.1738 30.9785 67.0292 30.2869 66.7263 29.627C66.1839 28.4337 64.9545 28.0043 63.7341 28.4292C63.1736 28.5558 62.6131 28.7366 62.0843 28.9897C62.0391 28.9987 61.9984 29.0123 61.9532 29.0213C60.4977 27.8687 58.5451 27.5704 56.7055 27.7602C55.7201 27.6518 54.7257 27.6201 53.7404 27.6879C53.1121 27.5614 52.4205 27.7331 51.7832 27.7422C51.0284 27.819 50.2735 27.9094 49.5232 28.0134C49.2746 28.1444 48.9944 28.1987 48.7141 28.149C48.7051 28.149 48.696 28.1535 48.687 28.1535C48.687 28.149 48.687 28.1444 48.687 28.1444C48.4384 28.0947 48.1988 27.9636 48 27.7241C47.9005 27.6382 47.8056 27.5433 47.7333 27.4303C47.7378 27.4258 47.7016 27.3354 47.6609 27.2359C47.6474 27.2178 47.6293 27.1952 47.6112 27.1772C47.557 27.1229 47.5073 27.0642 47.4576 27.0009C47.2135 26.7342 46.9287 26.4811 46.7072 26.2325C46.7027 26.228 46.6982 26.2234 46.6937 26.2234C46.6666 26.2008 46.6349 26.1873 46.6078 26.1647C46.5174 26.0969 46.4496 26.02 46.3908 25.9387C46.3592 25.9116 46.3366 25.8799 46.305 25.8573C46.2914 25.8438 46.1151 25.7398 46.1648 25.7624C45.9614 25.6584 45.7671 25.5726 45.5998 25.455C45.2428 25.3375 44.9128 25.1522 44.5919 24.8584C44.6054 24.8629 44.6145 24.872 44.628 24.8765C44.5874 24.8448 44.5557 24.8087 44.515 24.777C44.3659 24.7635 44.2167 24.759 44.0721 24.7951C43.9998 24.7138 43.9229 24.646 43.8416 24.5917C43.4257 24.1488 42.9828 23.7239 42.4856 23.3758C41.9974 22.9916 41.3782 22.8289 40.8674 22.4854C40.8448 22.4718 40.8267 22.4583 40.8086 22.4492C40.8222 22.4583 40.8312 22.4673 40.8448 22.4809C40.8267 22.4673 40.8132 22.4538 40.7951 22.4402C40.6911 22.3679 40.655 22.3272 40.6776 22.3408C40.673 22.3362 40.673 22.3362 40.6685 22.3317C40.6414 22.2594 40.6143 22.1826 40.5826 22.1012C40.5194 21.8978 40.4199 21.7215 40.2979 21.5678C40.2436 21.5452 40.1894 21.5226 40.1352 21.5C40.0086 21.4413 39.8956 21.3599 39.7962 21.2605C39.7916 21.2514 39.7871 21.2469 39.7826 21.2424C39.6289 21.1836 39.4752 21.1158 39.3216 21.039L39.1814 20.9757C39.1272 20.935 39.091 20.9079 39.0549 20.8763C39.0232 20.8718 38.9871 20.8672 38.9599 20.8582C38.7972 20.8085 38.6164 20.7407 38.4718 20.6503C38.404 20.6006 38.3407 20.5463 38.2729 20.4966C38.2548 20.4876 38.2413 20.483 38.2232 20.474C38.2096 20.4785 38.1599 20.4695 38.0605 20.4469C37.8932 20.4378 37.735 20.3881 37.5949 20.2977C37.3644 20.1938 37.3056 20.1531 37.1113 20.0988C37.039 20.0808 36.9486 20.0491 36.8672 20.0356C36.8446 20.0356 36.822 20.0401 36.8039 20.0491C36.822 20.0401 36.831 20.031 36.8356 20.0265C36.831 20.0265 36.8265 20.0265 36.8265 20.022C36.831 20.022 36.8356 20.022 36.8401 20.022C36.8853 19.9858 36.5779 20.0988 36.5508 20.1034C36.4062 20.126 36.266 20.1305 36.1214 20.1214C35.8186 20.1079 35.5067 20.0672 35.2129 19.9949C34.9914 19.9406 34.7699 19.8954 34.5439 19.8548C34.44 19.8819 34.336 19.9 34.232 19.8954C34.1416 19.8909 34.0467 19.8819 33.9563 19.8683C33.9202 19.8638 33.8885 19.8548 33.8524 19.8502C33.7981 19.8412 33.7484 19.8322 33.6942 19.8231C33.6851 19.8231 33.6761 19.8186 33.667 19.8186C33.667 19.8186 33.667 19.8186 33.6625 19.8186C33.658 19.8186 33.6535 19.8186 33.649 19.8186C33.6218 19.8322 33.5902 19.8412 33.5631 19.8548C33.3687 19.918 33.1382 19.9 32.9303 19.9C32.867 19.9 32.7811 19.9045 32.7043 19.909C32.6817 19.9135 32.6591 19.9135 32.632 19.9135C32.6048 19.918 32.5822 19.9226 32.5551 19.9271C32.3156 19.9678 32.0986 19.9904 31.8771 19.9858C31.8184 19.9994 31.7596 20.0039 31.7008 20.0084C31.6782 20.0175 31.6511 20.0265 31.6285 20.0356C31.1991 20.2118 30.7788 20.4017 30.3539 20.596C29.9697 20.7723 29.4544 20.917 29.1832 21.0571C29.0069 21.1475 28.8261 21.2334 28.6453 21.3238C28.6182 21.3373 28.5956 21.3509 28.5685 21.3599C28.46 21.4142 28.356 21.4729 28.2521 21.5317C28.2159 21.6266 28.1888 21.726 28.1617 21.83C27.8408 22.0379 27.5379 22.2775 27.2622 22.5668C26.1955 23.5973 26.4034 23.5747 25.4 24.09C24.1163 25.107 22.914 26.2686 21.8789 27.5388C21.7071 27.7557 21.5489 27.9862 21.3998 28.2213C21.3184 28.1128 21.228 28.0043 21.1286 27.9094C21.124 27.9049 21.115 27.9004 21.1105 27.8958C20.9658 28.0992 20.8167 28.2981 20.672 28.5015C20.1794 29.1931 19.7002 29.8937 19.1804 30.5626C19.0765 30.6982 19.0494 30.7344 19.1036 30.6621C19.1398 30.6169 19.1307 30.6259 19.0855 30.6847C19.0313 30.7525 18.9816 30.8248 18.9273 30.8926C18.7691 31.105 18.6064 31.313 18.4437 31.5209C18.2267 31.7921 17.9872 32.0407 17.7386 32.2848C17.621 32.4023 17.49 32.4836 17.3453 32.5424C17.151 32.9808 16.9792 33.4238 16.8255 33.8713C16.7487 34.0702 16.6809 34.2736 16.6176 34.477C16.4368 35.1143 16.2922 35.8149 16.256 36.511C15.9667 37.3426 15.7407 38.1924 15.5916 39.0602C15.4921 40.3439 15.3836 41.7948 15.8718 43.0152C15.8673 43.1056 15.8582 43.1915 15.8582 43.2819C15.8537 44.1452 15.9893 45.004 16.265 45.8222C16.265 45.8222 16.2741 45.8538 16.2967 45.9306C16.6764 47.3047 17.1148 48.6562 17.725 49.9444C18.055 52.1773 19.3567 54.3107 20.3285 56.3086C20.5003 56.6928 20.6585 57.0318 20.8031 57.3391C21.2506 58.5053 21.7659 59.7347 22.1817 60.7246C21.4947 65.4796 21.5399 70.3432 21.7523 75.1524C21.7523 75.157 21.7523 75.1615 21.7478 75.1705C21.7523 75.1705 21.7523 75.1796 21.7523 75.1796C21.7523 75.1931 21.7523 75.2067 21.7523 75.2248C21.6981 75.8124 19.8132 81.5618 21.1331 83.5506C21.1512 83.6229 21.1602 83.6952 21.1783 83.7676C21.237 83.9077 21.2913 84.0116 21.35 84.093C21.0201 86.9994 20.8528 89.9464 21.5534 92.803C21.5806 92.9251 21.6212 93.0426 21.6529 93.1646C21.5896 93.463 21.558 93.7477 21.5715 93.9737C21.4992 94.4528 21.6077 95.6416 21.6258 95.6958C21.6574 96.2066 21.6981 96.7174 21.7523 97.2281C21.7207 98.4259 21.8427 99.6237 22.1817 100.772C22.254 101.029 22.3535 101.287 22.4755 101.54C22.5524 101.802 22.6382 102.065 22.7422 102.318C22.9275 102.729 23.3162 103.28 23.7863 103.398C23.8767 103.57 23.9716 103.746 24.0846 103.909C24.3332 104.139 24.5818 104.279 24.8259 104.338C24.835 104.352 24.844 104.365 24.853 104.379C25.1649 104.795 25.6531 104.88 26.0915 104.745C26.1593 104.781 26.2226 104.822 26.2949 104.853C26.3446 104.871 26.3898 104.88 26.435 104.899C26.7062 105.251 27.0136 105.581 27.3662 105.866C27.4792 105.992 27.5967 106.11 27.7187 106.227C28.0125 106.575 28.3244 106.824 28.6408 106.987C29.5855 107.638 30.6838 108.035 31.859 108.013C32.0489 107.99 32.3743 108.022 32.5642 108.04C32.858 108.176 33.1518 108.325 33.4501 108.451C34.1959 108.456 34.9462 108.474 35.692 108.519C35.7914 108.524 35.8909 108.533 35.9903 108.537C36.3293 108.51 36.6638 108.487 37.0028 108.469C37.0254 108.46 37.0525 108.451 37.0751 108.442C37.0932 108.451 37.1113 108.456 37.1294 108.465C37.8435 108.429 38.5577 108.411 39.2673 108.379C39.4074 108.374 39.543 108.365 39.6832 108.361C39.7103 108.347 39.7374 108.338 39.7645 108.325C39.9408 108.23 40.1035 108.121 40.2662 108.013C40.7092 108.035 41.1522 108.022 41.6132 107.868C42.5488 107.624 43.4935 107.945 44.4427 107.864C46.5807 107.665 48.7232 107.787 50.8611 107.733C51.3131 107.615 51.6431 107.52 51.9233 107.439C54.3189 107.696 56.7326 107.764 59.1327 107.493C59.2728 107.484 59.413 107.466 59.5531 107.452C59.6209 107.516 59.6842 107.583 59.752 107.647C60.7012 107.561 61.6458 107.484 62.595 107.416C63.2369 107.475 63.8832 107.489 64.5251 107.484C64.959 107.543 65.3929 107.592 65.8268 107.624C67.2054 107.692 68.5886 107.638 69.9626 107.507C69.9807 107.683 70.0395 107.85 70.1254 107.981C70.2519 108.139 70.487 108.054 70.6632 108.058C70.8124 108.049 70.9615 108.026 71.1062 108.008C72.4034 107.936 73.7007 107.832 74.9753 107.552C75.3188 107.443 75.2781 106.842 75.1064 106.598C75.0702 106.562 75.025 106.544 74.9753 106.535C74.9753 106.53 74.9753 106.53 74.9753 106.526C74.9211 106.526 74.8623 106.526 74.8081 106.526C74.9753 106.417 75.1516 106.313 75.3098 106.196C75.477 106.187 75.6397 106.169 75.807 106.16C76.0194 105.667 76.146 105.138 76.1957 104.596C76.3268 104.56 76.4624 104.487 76.598 104.361C76.9053 104.157 77.0726 103.818 77.2082 103.475C77.6376 102.503 77.8772 101.463 78.0806 100.424C79.0117 96.1117 78.1438 90.0865 77.8365 86.8683C78.4015 83.189 79.3055 79.5188 79.3371 75.7807ZM40.8403 34.1922C39.412 36.2262 37.9023 38.206 36.2977 40.1044C36.0852 40.3349 35.8818 40.5654 35.701 40.814C35.683 40.8321 35.6694 40.8547 35.6513 40.8728V40.8773C35.5654 40.9993 35.4841 41.1259 35.4163 41.2615C33.1156 42.7214 30.8466 44.3306 29.2374 46.5408C28.5414 47.1013 27.8543 47.6663 27.113 48.168C27.0091 48.2494 26.9006 48.3217 26.7876 48.394L26.7831 48.3986C26.1864 48.7873 25.5265 49.0901 24.948 49.506C24.4914 49.1624 23.9445 49.0268 23.3479 49.2438C23.3162 49.2664 23.2891 49.289 23.2575 49.3116C22.6789 47.4132 22.1184 45.004 21.802 43.4492C22.0687 41.1168 22.5026 38.8071 22.6111 36.4612C22.593 36.1946 22.706 34.6126 22.5072 33.9391C22.6337 33.7628 22.7919 33.5278 23.0179 33.1797C23.1671 32.9266 23.2801 32.7187 23.375 32.5424C23.497 32.6373 23.6326 32.7096 23.7863 32.7322C24.5638 32.6057 24.9389 31.4938 24.9208 30.3999C25.4406 29.8485 25.8203 29.166 26.3718 28.6326C26.539 28.5377 26.6791 28.3885 26.7966 28.2032C26.8102 28.1896 26.8238 28.1716 26.8418 28.158C27.0588 28.1987 27.33 28.149 27.6328 28.0495C27.6735 28.0043 27.7052 27.9546 27.7458 27.9094C27.7594 27.8913 27.8272 27.8326 27.886 27.7738C27.8905 27.7693 27.8905 27.7648 27.8905 27.7557C27.9402 27.6337 28.0668 27.4936 28.1572 27.3986C28.2204 27.3308 28.3018 27.2676 28.3832 27.2133C28.4962 27.0822 28.6227 26.9692 28.7628 26.8879C28.808 26.8608 28.8578 26.8472 28.903 26.8246C28.8939 26.8246 28.8984 26.8201 28.9391 26.793C29.0024 26.7387 29.0792 26.7026 29.147 26.6574C29.2284 26.6031 29.3052 26.5489 29.3866 26.4992C29.4137 26.4811 29.4544 26.454 29.4906 26.4359C29.581 26.3681 29.6623 26.3003 29.7437 26.246C29.807 26.1873 29.8748 26.133 29.9471 26.124C29.9561 26.1195 29.9561 26.1195 29.9652 26.115C30.1414 25.9658 30.3358 25.8257 30.5618 25.7624C30.7833 25.663 31.0183 25.6087 31.294 25.6042C31.3664 25.6042 31.4387 25.6042 31.5065 25.6042C31.8003 25.5274 32.1031 25.5545 32.3879 25.6901C32.4195 25.6991 32.4512 25.7127 32.4828 25.7172C32.5325 25.7262 32.5777 25.7353 32.6274 25.7488C32.8037 25.7488 32.9845 25.7534 33.1472 25.7986C33.2331 25.8212 33.3145 25.8573 33.4004 25.889C33.4546 25.907 33.7574 25.9748 33.5043 25.9387C33.1608 25.889 33.7665 25.9884 33.875 26.02C33.9563 26.0426 34.0422 26.0517 34.1281 26.0698C34.1914 26.0788 34.2501 26.0924 34.3134 26.1104C34.1326 26.0924 34.11 26.0924 34.2456 26.1104C34.4128 26.1376 34.5801 26.1466 34.7428 26.1963C34.8151 26.2189 34.8874 26.246 34.9598 26.2777C35.1089 26.2912 35.2536 26.3138 35.3982 26.3726C35.8276 26.5534 35.0908 26.2415 35.5971 26.4585C35.6106 26.463 35.6197 26.4675 35.6332 26.4766C35.6604 26.4856 35.683 26.4992 35.7101 26.5127C35.7372 26.5263 35.7643 26.5398 35.7869 26.5534C35.9632 26.6122 36.1214 26.7026 36.2796 26.8201C36.5056 26.9105 36.7135 27.0506 36.9034 27.2404C36.9214 27.2585 36.9395 27.2811 36.9576 27.2992C36.9666 27.3037 36.9757 27.3082 36.9847 27.3082C37.1203 27.2721 37.2514 27.2404 37.387 27.1998C37.509 27.1546 37.613 27.0822 37.7079 26.9964C38.0288 27.8326 38.4989 28.601 39.1182 29.2428C39.4526 29.8078 39.8549 30.3095 40.3431 30.644C40.4199 30.6711 40.4968 30.6892 40.5736 30.7028C40.9397 31.1502 41.342 31.5706 41.7759 31.9593C41.8528 32.0407 41.9341 32.122 42.0155 32.1989C41.5951 32.8498 41.2064 33.5142 40.8403 34.1922ZM57.8671 89.3859C57.7044 89.7701 57.3157 90.0458 56.8908 90.0413C56.4207 90.0323 55.9687 90.0323 55.5032 89.9419C55.0692 89.8605 54.6579 89.7114 54.2466 89.5441C53.9935 89.4402 53.7404 89.3317 53.4872 89.2232C53.424 89.1961 53.3652 89.169 53.3019 89.1418C52.9674 89.1102 52.6646 89.0153 52.3889 88.839C52.2036 88.7893 52.0318 88.7079 51.8917 88.5723C51.6476 88.3373 51.5888 88.0616 51.5482 87.7452C51.4984 87.3745 51.842 86.9858 52.2081 86.8818C52.3166 86.796 52.4431 86.7236 52.5742 86.683C52.7324 86.5474 52.9539 86.466 53.1663 86.475C53.1799 86.4705 53.1934 86.4705 53.207 86.466C53.2703 86.4524 53.3336 86.4434 53.3968 86.4344C53.4782 86.3982 53.555 86.362 53.6319 86.3259C53.8895 86.1993 54.1155 86.0321 54.4184 86.0456C54.4274 86.0411 54.441 86.0411 54.45 86.0366C54.4997 86.0185 54.5088 86.0185 54.4862 86.0276C54.5268 86.0095 54.563 85.9959 54.6037 85.9778C54.7574 85.9281 54.9743 85.9462 55.137 85.9598C55.3675 85.9778 55.5845 86.0682 55.7653 86.2084C55.8557 86.1858 55.9461 86.1722 56.0365 86.1632C56.4478 86.118 56.8998 86.5745 56.8592 86.9858C56.8546 87.0355 56.8456 87.0807 56.8366 87.1304C57.0038 87.2434 57.1439 87.4062 57.2253 87.605C57.2795 87.7316 57.3021 87.8672 57.3066 88.0028C57.4196 88.0616 57.5281 88.1294 57.6411 88.2198C57.9711 88.4864 58.0163 89.0243 57.8671 89.3859ZM70.844 75.2926C70.7355 75.5005 70.5231 75.6361 70.3016 75.7084C70.0847 75.7807 69.7999 75.731 69.6056 75.618C69.3931 75.496 69.2892 75.3152 69.1987 75.1027C69.2168 75.1434 69.2349 75.1841 69.253 75.2248C68.923 74.4609 68.3897 73.8055 67.9648 73.0958C67.7026 72.6619 67.8834 72.1195 68.2902 71.8574C68.4801 71.7353 68.7694 71.7082 68.9863 71.767C69.2078 71.8302 69.4067 71.9839 69.5287 72.1828C69.7592 72.5625 70.0124 72.9241 70.2519 73.2992C70.5231 73.7151 70.7491 74.1354 70.9344 74.5965C71.0248 74.818 70.9525 75.0937 70.844 75.2926Z" fill="#24A6B6"/>
<path d="M49.6634 106.842C49.5776 106.783 49.4917 106.72 49.3968 106.684C49.225 106.621 49.0532 106.711 48.8815 106.707C48.1176 106.49 47.3628 106.684 46.626 106.345C45.8169 106.16 45.0485 105.866 44.2711 105.577C43.5524 105.459 42.8428 105.319 42.1241 105.201C41.8348 105.116 41.6088 104.908 41.3466 104.768C40.8494 104.505 40.307 104.356 39.7918 104.135C39.0866 103.859 38.4448 103.439 37.7171 103.213C37.2108 103.009 36.8176 102.607 36.343 102.34C35.448 101.861 34.6977 101.174 33.8525 100.623C33.292 100.13 32.605 99.904 31.936 99.6192C31.362 99.3119 30.9416 98.8418 30.3811 98.5118C29.4319 98.096 28.6274 97.4541 27.8047 96.8304C27.7324 96.7807 27.6556 96.7264 27.5832 96.6767C27.4883 96.5321 27.3979 96.3784 27.294 96.1931C27.181 95.9942 27.0951 95.8179 27.0408 95.7275C26.9098 95.0631 26.8962 95.1264 26.7606 94.4936C26.7877 94.602 26.8058 94.6789 26.7832 94.5885C26.6883 93.9783 26.521 93.3862 26.3764 92.7895C26.3267 91.5872 25.7798 87.8492 25.4724 85.8332C25.4679 85.7925 25.4588 85.7564 25.4543 85.7157C25.4362 84.4365 25.4272 83.1529 25.1198 81.9053C25.0837 81.0149 25.0068 80.129 24.8803 79.2476C24.93 78.6916 24.6498 76.5356 24.7492 74.8903C24.6995 73.6383 24.5729 72.1647 24.4328 70.7907C24.4418 70.7545 24.4509 70.7183 24.4554 70.6822C24.6452 69.5341 24.5006 68.2595 24.3469 67.2651C24.3424 67.1295 24.3379 66.9984 24.3334 66.8628C24.356 66.5419 24.3379 66.2164 24.2927 65.9091C24.2384 64.7384 24.1887 63.5677 24.1616 62.3925C24.2565 61.3529 24.4012 59.6895 24.4418 58.6499C24.3695 59.1426 24.2836 59.6353 24.1887 60.128C24.2023 59.7347 24.1571 59.337 24.0079 58.9799C24.0079 58.9392 24.0079 58.9076 24.0079 58.8985C24.0305 58.442 24.0124 57.8183 23.8588 57.3301C23.904 56.9278 23.8723 56.5391 23.791 56.1549C23.8 56.0419 23.8045 55.9289 23.8045 55.8159C23.809 55.2283 23.6644 53.9265 23.0542 53.6147C22.896 53.4339 22.7423 53.2531 22.5977 53.0632C22.5841 53.0225 22.566 52.9819 22.5525 52.9367C22.3626 52.5073 22.1909 52.0688 22.0191 51.6259C21.5084 50.0981 21.2959 49.9896 20.9027 48.9139C20.7852 48.6833 20.627 48.4754 20.4642 48.2765C20.4462 48.2404 20.4236 48.1952 20.4055 48.15C20.401 48.1364 20.401 48.1319 20.3919 48.1138C20.1976 47.4177 19.8224 46.8121 19.5105 46.1702C19.1896 45.2029 18.837 44.2492 18.6608 43.2413C18.1816 41.2389 18.2178 41.5372 18.1681 39.797C18.0777 38.6987 18.2449 38.0794 18.4754 36.5245C18.7195 35.9776 18.95 35.4307 19.158 34.8702C19.3749 34.2374 19.6145 33.5594 19.8902 32.8633C20.6586 32.9221 21.4632 31.3672 21.8971 30.9107C22.9457 29.5683 23.9537 28.1942 25.0023 26.8472C25.6713 25.9929 25.5764 26.0381 26.3538 25.5003C26.8284 25.1341 26.9324 24.5013 26.8826 23.9047C26.8872 23.9002 26.8917 23.9002 26.8917 23.8957C27.4838 23.3578 28.1482 22.9193 28.8579 22.3815C29.3732 22.0696 29.4771 21.4729 29.4636 20.9125C29.4636 20.7995 29.4274 20.6503 29.2782 20.7136C29.3958 20.8627 29.45 21.0029 29.3822 21.1882C29.3099 21.482 29.2285 21.7848 28.9166 21.8933C28.3742 22.2052 27.7776 22.4086 27.2307 22.7159C27.0454 22.8199 26.86 22.9239 26.6747 23.0323C26.4849 22.6481 26.2318 22.5758 25.9651 22.6753C25.9651 22.6707 25.9651 22.6662 25.9651 22.6662C25.9425 22.6798 25.9244 22.6933 25.9063 22.7024C25.8295 22.7385 25.7526 22.7883 25.6758 22.847C24.9571 23.3352 24.4102 24.0087 23.8452 24.6686C23.122 25.4777 21.9875 26.9195 21.1106 28.0586C20.8982 28.2846 20.6857 28.5061 20.4823 28.7366C19.9942 29.3332 19.3116 29.8847 19.1715 30.6802C19.0856 31.1277 19.0676 31.6701 19.2167 32.1311C19.0992 32.3571 18.9817 32.5831 18.8687 32.8181C18.5026 33.7041 18.0008 34.5222 17.585 35.381C17.4042 35.5844 17.3138 35.8556 17.2189 36.1177H17.2144C16.6087 36.3483 16.5816 37.1076 16.4821 37.7088C16.2561 38.6806 15.8448 39.5981 15.7228 40.5925C15.6324 40.9858 15.6776 41.4875 15.8132 41.9214C15.8086 41.9576 15.8041 41.9937 15.7996 42.0299C15.7047 42.2423 15.6233 42.4864 15.5691 42.7576C15.2617 43.4718 15.1578 44.4662 15.2617 44.9769C15.7047 46.6403 15.6776 46.7533 16.003 48.5568C15.8493 47.8291 16.116 49.1263 16.2019 49.4065C16.3058 49.7998 16.4731 50.1659 16.681 50.5094C16.8392 51.4315 17.0245 52.5027 17.8652 52.6655C17.9059 52.6564 17.9421 52.6429 17.9828 52.6338C18.2088 52.8824 18.48 52.9909 18.8054 52.8508C19.0495 52.6519 19.2258 52.4078 19.3523 52.1321C19.3749 52.1547 19.393 52.1863 19.4156 52.2089C19.8812 53.0768 20.2292 53.9989 20.6179 54.9029C21.0609 55.947 21.4767 57.0001 21.9197 58.0397C21.9784 58.2205 22.0508 58.3742 22.1276 58.5053C21.8519 60.6885 22.2496 64.0649 22.2632 65.326C22.1502 65.6514 22.0869 66.0221 22.0734 66.4017C21.9875 66.6775 21.9242 66.9667 21.8564 67.2289C21.7118 67.9069 21.6711 68.5894 21.6756 69.2719C21.2824 72.115 21.2824 75.0078 21.2281 77.878C21.305 80.2058 20.8982 82.5562 21.3954 84.8569C21.531 85.8061 21.7163 86.7553 21.7886 87.7135C21.7886 87.7181 21.7886 87.7181 21.7886 87.7181C21.8112 88.2831 21.8112 88.8481 21.9061 89.404C22.114 90.4888 22.1638 90.3216 22.227 90.8685C21.9197 92.2968 21.9287 94.0868 22.0914 95.6507C22.1366 96.1162 22.1773 96.5818 22.227 97.0519C22.2044 97.5445 22.2722 98.0327 22.4078 98.5073C22.5073 99.1446 22.6429 99.7774 22.8418 100.392C22.8463 100.406 22.8553 100.415 22.8598 100.428C22.8463 100.799 22.8779 101.165 22.9412 101.504C23.1175 102.566 23.9672 103.326 24.6859 104.062C25.4995 104.885 25.8882 105.21 26.3628 105.595C26.5346 105.757 26.7199 105.907 26.9188 106.047C27.086 106.182 27.2714 106.34 27.4928 106.53C27.746 106.661 28.2884 107.33 29.0568 107.588C29.0884 107.606 29.12 107.633 29.1517 107.647C29.572 107.796 30.0466 107.999 30.4941 107.868C30.6162 107.841 30.8693 107.769 31.041 107.719C31.0682 107.715 31.0953 107.706 31.1269 107.706C31.1992 107.701 31.2716 107.696 31.3439 107.701C31.3891 107.724 31.4478 107.76 31.5202 107.805C31.5563 107.828 31.588 107.855 31.6196 107.882C32.605 109.215 33.2875 108.772 33.6039 107.859C34.1689 108.035 34.7203 108.203 35.7328 108.176C36.4876 108.139 37.2018 108.506 37.9612 108.397C38.4132 108.42 38.8878 108.564 39.3081 108.338C39.3985 108.271 39.5567 108.126 39.6471 108.031C39.7014 108.004 39.7556 107.977 39.8144 107.954C40.1127 107.963 40.4065 107.968 40.7003 107.968C41.3783 107.977 41.993 107.71 42.6122 107.475C42.7569 107.47 42.9015 107.461 43.0416 107.452C43.34 107.552 43.6247 107.574 43.8869 107.434C43.9999 107.47 44.1129 107.498 44.2349 107.507C44.244 107.489 44.2349 107.466 44.2349 107.448C44.2485 107.538 44.149 107.457 44.0993 107.452C44.0541 107.43 44.0089 107.403 43.9637 107.376C43.9682 107.371 43.9728 107.367 43.9818 107.362C44.0632 107.353 44.1445 107.344 44.2259 107.33C44.3163 107.267 44.3841 107.159 44.4293 107.028C44.4428 107.032 44.4564 107.028 44.47 107.032C45.053 107.055 45.6226 107.231 46.2056 107.186C46.6305 107.186 47.0509 107.285 47.4758 107.204C47.8102 107.163 48.1312 107.032 48.4702 106.996C48.6103 106.991 48.7549 107.032 48.8905 106.973C49.0668 106.924 49.216 106.774 49.4103 106.806C49.5278 106.806 49.6408 106.91 49.7448 106.874C49.7855 106.792 49.6996 106.887 49.6634 106.842Z" fill="#195057"/>
<path d="M74.6456 86.5112C74.6456 86.484 74.6501 86.466 74.6501 86.4434C74.641 86.5338 74.6365 86.6151 74.6456 86.5112Z" fill="#B1E3E9"/>
<path d="M74.6906 83.3019C74.6454 83.0759 74.6183 82.8454 74.5867 82.6149C74.5686 82.0002 74.5822 80.2238 74.6319 78.8091C74.6726 76.7796 74.8579 74.7411 74.6906 72.7161C74.6861 72.5579 74.7132 73.1229 74.7268 73.2495C74.7268 73.0415 74.7268 72.8381 74.7313 72.6302C74.7132 71.6449 74.9347 71.559 74.7856 69.5024C74.6048 68.3407 74.6726 67.2333 74.5957 66.37C74.4014 63.3145 74.537 65.1858 74.3562 61.4884C74.2703 60.9641 74.1211 60.4579 73.9222 59.9652C73.8951 59.7482 73.8725 59.5358 73.8544 59.3188C73.8409 59.1199 73.8183 58.9256 73.7957 58.7267C73.7912 58.6634 73.7912 58.6499 73.7957 58.7222V58.7177C73.7776 58.4555 73.7595 58.1933 73.7414 57.9312C73.651 57.095 73.5064 56.2633 73.3708 55.4361C73.3708 55.3683 73.3708 55.3005 73.3753 55.2327C73.4024 54.9887 73.425 54.7401 73.4296 54.4915C73.4024 53.0089 73.2623 51.5218 73.0273 50.0573C72.7742 49.1895 72.8194 47.8019 71.7572 46.0662C71.6306 45.8809 71.4679 45.7272 71.3097 45.569C71.1334 44.9588 70.6769 44.5881 70.2882 44.9091C70.1978 44.7689 70.0938 44.6333 69.9627 44.5249C69.7277 44.2898 69.4474 44.1316 69.1762 43.9553C68.9141 43.6932 68.679 43.3994 68.3536 43.205C67.888 42.9564 67.5129 42.6129 67.1603 42.2287C66.9072 41.9937 66.5501 41.9033 66.306 41.6501C65.9354 41.3157 65.6642 40.8863 65.2936 40.5518C65.0178 40.2896 64.6653 40.1269 64.3896 39.8647C63.8472 39.2636 63.2912 38.6217 62.5635 38.2375C63.2596 38.9562 63.689 39.8738 64.2178 40.7055C64.7466 41.2885 65.2438 41.8761 65.6461 42.5496C65.9625 43.1327 66.5908 43.3858 66.9976 43.8649C67.2778 44.2763 67.7072 44.5068 68.114 44.7689C68.0508 45.1757 68.1095 45.6006 68.2632 45.9939C68.1773 45.9667 68.096 45.9306 68.0146 45.9035C68.114 45.9622 68.209 46.0345 68.3084 46.0978C68.5615 46.6764 69.009 47.1781 69.5469 47.4538C69.574 47.4674 69.5966 47.49 69.6237 47.5035C69.8316 47.7973 70.0757 48.0685 70.3198 48.1318C70.3605 48.2041 70.4057 48.281 70.4418 48.3443C70.5684 48.9002 70.7356 49.4471 70.9074 49.985C70.9164 50.1071 70.9255 50.2517 70.9436 50.4325C71.1289 52.245 71.0385 51.3365 71.1424 52.7467C71.165 53.2711 71.1967 53.7954 71.2012 54.3197C71.1967 54.3423 71.1967 54.3559 71.1922 54.383C71.0385 55.5853 71.2057 56.7831 71.3278 57.9809C71.3549 58.2973 71.3594 58.3651 71.3594 58.3154C71.3639 58.4103 71.373 58.5052 71.3775 58.6001C71.3775 58.5775 71.373 58.5504 71.373 58.5278C71.3775 58.79 71.382 59.0521 71.3865 59.3188C71.495 60.4398 71.3458 60.2997 71.7391 62.3517C71.7888 62.528 71.8521 62.6998 71.9199 62.8715C71.9199 64.7157 71.956 64.7293 72.0645 66.0265C72.069 66.135 72.0781 66.248 72.0871 66.3565C72.1007 66.5508 72.1142 66.7452 72.1323 66.9395C72.1368 67.0616 72.1459 67.1836 72.1459 67.3057C72.2137 69.5928 72.1323 68.5351 72.3809 70.6098C72.3854 70.7228 72.3809 70.8358 72.3809 70.9488C72.3583 71.2561 72.3357 71.5635 72.3312 71.8663C72.3538 74.2529 72.4532 73.5116 72.4849 75.5411C72.5617 77.4757 72.5527 79.4147 72.7561 81.3403C72.7922 82.5471 72.9324 83.7449 73.3256 84.893C73.2442 85.6659 73.2894 86.4479 73.3392 87.2253C73.4522 88.6898 73.5109 89.0333 73.6149 90.2085C73.4341 90.4074 73.2488 90.6017 73.1674 90.8639C73.0499 91.0989 73.0499 91.3927 72.8691 91.5916C72.5708 91.9035 72.2001 92.1431 71.9425 92.4866C71.7526 92.7939 71.5628 93.1058 71.2012 93.2324C70.9752 93.3228 70.8667 93.5714 70.7673 93.7748C70.5322 94.1047 70.4825 94.5341 70.5955 94.9183C70.5458 94.5884 70.6317 94.2539 70.8848 94.0279C71.0927 93.6211 71.6306 93.7974 71.9063 93.4674C72.2363 93.0245 72.8013 92.925 73.2126 92.5951C73.4386 92.4233 73.5516 92.1069 73.6827 91.8719C73.8499 91.6865 74.1121 91.5916 74.2703 91.3927C74.5641 90.995 74.5596 90.4842 74.5324 90.0096C74.5957 89.2005 74.6183 86.8773 74.65 86.71C74.6183 87.2163 74.6635 86.4931 74.6771 86.3077C74.7087 85.8467 74.7449 85.8422 74.8488 85.1868C74.9031 84.5675 74.8217 83.9347 74.6906 83.3019Z" fill="#B1E3E9"/>
<path d="M74.6591 86.2941C74.6591 86.3032 74.6591 86.3122 74.6545 86.3303C74.65 86.3619 74.65 86.4026 74.6455 86.4433C74.6545 86.3665 74.6591 86.2851 74.6591 86.2941Z" fill="#B1E3E9"/>
<path d="M78.0941 41.786C78.1212 41.3973 78.1845 41.0357 78.3472 40.6831C78.3201 40.7374 78.311 40.7555 78.3608 40.6515C78.3562 40.6605 78.3517 40.6741 78.3472 40.6831C78.3788 40.6199 78.4331 40.5114 78.4421 40.4933C78.4602 40.4571 78.528 40.3532 78.5642 40.308C78.5913 40.2492 78.6274 40.1408 78.6591 40.0639C77.8545 39.5984 77.0997 39.0424 76.3268 38.5226C75.8205 38.1836 75.6397 37.5869 75.9109 37.0355C75.8748 37.0039 75.8431 36.9722 75.807 36.9361C75.468 36.6016 75.2013 36.2129 74.8713 35.8739C74.5142 35.5078 74.5323 34.9473 74.8713 34.5812C75.2013 34.2196 75.8341 34.2376 76.164 34.5812C76.503 34.9292 76.7742 35.336 77.1178 35.6795C77.2895 35.8513 77.4613 36.0185 77.6421 36.1767C77.6828 36.2084 77.7189 36.24 77.7596 36.2761C77.624 36.1631 77.7641 36.2762 77.7912 36.2988C77.8862 36.3666 77.9901 36.4253 78.0896 36.4841C78.3653 36.6513 78.5958 36.8909 78.8354 37.1033C79.0433 37.2886 79.2512 37.4739 79.4546 37.6638C79.5269 37.7316 79.5947 37.7994 79.6625 37.8672C79.8026 37.5644 79.9563 37.2796 80.1462 36.9903C79.9292 35.8015 79.3326 34.8704 78.2523 35.0467C77.8093 34.7213 77.2172 34.5766 76.6974 34.441C76.6884 34.441 76.6793 34.441 76.6658 34.441C76.5754 34.3597 76.4804 34.2783 76.381 34.206C75.9561 34.0433 75.5041 33.6952 75.0476 33.5868C74.9527 33.4692 74.8578 33.3517 74.7583 33.2342C74.6724 31.9686 74.2521 30.7075 73.5922 29.7176C73.2577 29.7041 72.9232 29.5414 72.774 29.2566C72.7424 29.1978 72.7062 29.1436 72.6746 29.0894C72.6656 29.0803 72.6565 29.0622 72.643 29.0487C72.5119 29.0668 72.3763 29.0668 72.2362 29.0396C71.7977 28.9583 71.3683 28.8588 70.9344 28.7594C70.7355 28.7142 70.514 28.6871 70.3197 28.6238C70.0937 28.547 69.9038 28.4159 69.714 28.2758C69.497 28.113 69.2756 27.9729 69.0857 27.8012C69.0586 27.8012 69.036 27.7966 69.0089 27.7966C68.9863 27.8328 68.9637 27.8644 68.9411 27.9006C68.9275 27.9187 68.914 27.9413 68.9004 27.9594C68.4846 28.2034 68.2179 28.8317 68.0823 29.5414C68.0823 29.5459 68.0778 29.5459 68.0778 29.5504C67.9557 29.564 67.8382 29.6182 67.7478 29.7312C67.5308 30.0431 67.4088 30.4454 67.3862 30.8476C67.228 31.2002 67.115 31.6115 67.0653 32.059C66.8438 33.4828 67.2009 34.9202 68.0371 36.0908C68.2721 36.5022 68.5343 36.8909 68.819 37.266C68.932 37.474 69.045 37.6774 69.1626 37.8808C69.6824 38.6672 69.9536 39.6933 70.74 40.2583C71.0429 40.43 71.3412 40.3848 71.6034 40.2311C71.6847 40.3577 71.7616 40.4843 71.8429 40.6108C72.4215 41.2798 72.9368 41.5872 73.3752 41.6414C74.0035 42.1295 74.7086 42.6991 75.4815 42.5002C75.8838 42.7352 76.3674 42.8618 76.9505 42.8256C77.1675 42.794 77.3573 42.7262 77.5336 42.6358C77.6963 42.6539 77.859 42.6629 78.0218 42.6539C78.0308 42.6539 78.0444 42.6494 78.0534 42.6494C78.0534 42.3465 78.0715 42.0482 78.0941 41.786Z" fill="#2471B6"/>
<path d="M96.0115 16.822C95.7132 16.4694 95.2657 16.3383 94.8454 16.1892C94.5877 16.0942 94.303 16.0084 94.0363 16.1078C93.9278 16.144 93.851 16.2253 93.7832 16.3157C93.5843 16.3248 93.3854 16.3293 93.182 16.3383C92.7436 16.3564 92.3142 16.3293 91.8848 16.2931C91.6723 16.4378 91.4554 16.5779 91.2474 16.727C90.0496 17.5813 88.7976 18.3271 87.5501 19.1046C84.9918 20.7001 82.4244 22.2957 80.0198 24.1218C79.8706 24.3161 79.7124 24.4969 79.5226 24.6642C79.3418 24.8178 79.1067 24.9534 78.9576 25.1388C78.727 25.4235 78.5915 25.6992 78.257 25.8755C77.9722 26.0247 77.692 26.0337 77.4163 25.9524C76.3269 26.6665 75.2557 27.444 74.5958 28.4519C74.5777 28.7186 74.5144 28.9762 74.3969 29.2565C74.2749 29.5458 74.0037 29.6859 73.7144 29.7085C73.1494 30.6215 73.1448 32.7595 74.2884 33.0578C74.3246 33.0488 74.3607 33.0307 74.4014 33.0171C74.5506 33.329 74.7449 33.5866 74.9935 33.7268C75.1156 33.9889 75.2421 34.1833 75.3777 34.3279C75.658 34.2918 75.9563 34.3776 76.1507 34.581C76.4897 34.9291 76.7609 35.3359 77.1044 35.6794C77.2761 35.8512 77.4479 36.0184 77.6287 36.1766C77.6694 36.2082 77.7055 36.2399 77.7462 36.276C77.6106 36.163 77.7507 36.276 77.7778 36.2986C77.8728 36.3664 77.9767 36.4252 78.0762 36.484C78.3519 36.6512 78.5824 36.8908 78.822 37.1032C79.0299 37.2885 79.2378 37.4738 79.4412 37.6637C79.5135 37.7315 79.5813 37.7993 79.6491 37.8671C79.857 37.4106 80.1011 36.9947 80.4582 36.5427C80.8921 35.9958 81.2402 35.5076 81.76 34.9924C81.7509 35.0059 81.7419 35.024 81.7328 35.0376C81.8594 34.8839 82.0131 34.7483 82.212 34.5991C82.4335 34.4274 82.7498 34.3957 83.0391 34.45C83.4595 34.0567 83.8256 33.6047 84.2008 33.1753C84.3409 33.0171 84.481 32.8589 84.6211 32.7007C85.8686 31.5074 87.1207 30.3142 88.3863 29.139C89.5479 28.018 90.9084 27.0236 91.6723 25.5682C91.6859 25.5456 91.6949 25.5184 91.704 25.4958C91.7899 25.4913 91.8712 25.4778 91.9526 25.4597C91.9932 25.3828 92.0294 25.3105 92.0701 25.2337C92.2373 24.9399 92.4633 24.6913 92.6848 24.4382C92.9063 24.185 93.1413 23.9455 93.3718 23.6969C93.4894 23.5296 93.6069 23.3669 93.738 23.2132C93.9504 22.9601 94.1854 22.7341 94.4205 22.4991C94.6872 22.2324 94.9132 21.9205 95.1798 21.6629C95.216 21.6312 95.2522 21.5996 95.2928 21.568C95.3697 21.464 95.4556 21.3691 95.5414 21.2968C95.5731 21.0165 95.7087 20.7408 95.9437 20.56C96.016 20.2843 96.0703 19.9995 96.0974 19.7148C96.1155 19.5882 96.1155 19.4616 96.12 19.3351C96.2646 19.3396 96.4138 19.3215 96.5675 19.2763C97.2862 18.535 96.5539 17.4412 96.0115 16.822Z" fill="#ABABAB"/>
<path d="M53.3047 94.8643C53.2969 94.872 53.2969 94.8798 53.3047 94.8643V94.8643Z" fill="#2471B6"/>
<path d="M71.8657 85.892C71.8838 85.8106 71.9019 85.7247 71.9155 85.6434C72.0375 84.667 72.0149 83.6952 71.8974 82.728C72.0556 81.7833 72.1369 80.8115 72.0691 79.8578C72.1912 78.6871 72.1912 77.5119 72.0646 76.3457C72.2454 75.6316 72.2454 74.8722 72.1731 74.1174C72.3765 71.767 72.5663 69.412 72.5211 67.0481C72.5166 65.3034 72.2725 63.5858 72.0556 61.8591C72.0691 61.5608 72.0782 61.3303 72.0827 61.154C72.1279 60.7382 72.1776 60.3088 72.2228 59.8522C72.3991 58.4782 72.5437 57.0092 71.9155 55.7255C71.694 55.3729 71.4861 55.1379 71.2827 54.9887C71.3324 54.2972 71.1651 52.679 70.6951 51.5987C70.6815 50.8394 70.5143 50.08 70.2431 49.4472C69.9131 48.6517 69.2306 48.0867 68.5933 47.5352C67.861 46.8753 67.0926 46.2651 66.3107 45.664C66.2926 45.4515 66.2383 45.2436 66.1479 45.0583C65.5513 44.1995 64.8643 43.3949 64.132 42.6401C64.1727 42.2423 64.1456 41.8355 64.0778 41.4875C63.9919 40.9722 63.7117 40.5021 63.2868 40.1993C62.9523 39.9959 62.5681 39.8829 62.202 39.7473C62.0935 39.7111 61.967 39.675 61.8359 39.6343C61.8268 39.6207 61.8133 39.6117 61.8042 39.5981C62.0031 39.0648 61.9172 38.206 61.3568 38.319C60.8641 38.4817 60.3669 38.6082 59.8652 38.7212C58.9295 38.7438 57.8854 38.6263 57.0175 38.6082V38.6128C56.9678 38.6173 56.9181 38.6354 56.8774 38.6715C56.8187 38.7212 56.778 38.7845 56.7463 38.8523C56.1859 38.7438 55.5892 38.6941 55.0197 38.7529C54.8434 38.7484 54.6671 38.7484 54.4909 38.7529C54.4818 38.7393 54.4773 38.7258 54.4683 38.7167C53.8581 38.1653 52.9722 38.4094 52.258 38.5856C51.9958 38.6444 51.7291 38.6986 51.4625 38.7529C50.7302 38.6715 49.9799 38.6986 49.4691 39.006C49.3561 39.0105 49.2432 39.0196 49.1256 39.0196C49.0533 39.0196 48.99 39.0286 48.9267 39.0422C48.8589 38.9789 48.7866 38.9292 48.7007 38.8975C48.1493 38.8749 47.8871 39.1506 47.634 39.1642C46.9153 39.3269 46.1741 39.5032 46.0475 40.2716C46.0023 40.371 45.9752 40.4886 45.9616 40.6106C45.939 40.6196 45.9209 40.6287 45.8983 40.6377C45.9164 40.6377 45.939 40.6332 45.9571 40.6287C45.9571 40.6468 45.9571 40.6603 45.9571 40.6784C45.8215 40.6965 45.6769 40.7236 45.591 40.823C45.5096 40.9451 45.4509 41.0988 45.4237 41.257C43.6745 41.6592 41.6496 45.6007 41.2473 46.803C40.7772 48.0596 40.167 49.4065 39.9817 50.7625C39.9591 50.7806 39.9365 50.7987 39.9184 50.8168C38.5669 51.4902 36.786 53.2214 36.2753 53.8632C35.5385 54.7492 34.7837 55.626 34.1237 56.5752C34.0243 56.6521 33.9294 56.7334 33.8435 56.8329C33.0615 57.66 33.0435 59.0341 33.4096 60.0602C33.4683 60.25 33.5542 60.4127 33.6582 60.5438C33.5768 61.1721 33.5497 61.7913 33.6718 62.388C33.735 62.6185 33.8752 62.9258 34.0831 63.0886C34.0786 63.179 34.0695 63.2694 34.065 63.3598C33.8571 65.8277 33.9656 66.4017 34.0469 67.6764C34.1102 71.4596 34.1192 70.6189 34.3226 73.5478C34.3814 73.9094 34.4718 74.2665 34.5577 74.6236C34.5848 74.7863 34.6074 74.9536 34.6255 75.1163C34.6255 75.1615 34.63 75.2112 34.63 75.2564C34.5938 75.401 34.5577 75.5412 34.5215 75.6677C34.3407 76.4045 34.1418 77.1412 34.0514 77.8961C33.6898 80.9742 34.0605 84.102 35.0504 87.0265C35.0504 87.0355 35.0503 87.04 35.0549 87.0491C35.4481 89.0876 35.5566 91.3386 36.8312 93.0562C36.9759 93.2731 37.1567 93.4358 37.351 93.5624C37.3781 93.8652 37.4685 94.1545 37.6403 94.4031C38.0787 94.7376 38.6573 94.7376 39.2223 94.715C39.2539 94.7466 39.2811 94.7873 39.3172 94.8144C39.6607 95.0269 40.0811 94.9907 40.4834 94.8958C40.845 95.167 41.2247 95.4201 41.6134 95.6235C42.2371 95.949 42.9151 96.0258 43.5615 95.9264C43.6293 96.2156 43.8598 96.3784 44.1672 96.4371C44.7683 96.6586 45.4418 96.627 46.0656 96.5998C46.1967 96.5366 46.278 96.419 46.3187 96.2834C46.3865 96.297 46.4543 96.3151 46.5221 96.3287C46.8521 96.3422 47.3583 96.5411 47.5662 96.1976C47.5707 96.193 47.5707 96.184 47.5753 96.1795C48.0363 96.1479 49.2658 96.4281 49.207 95.8269C50.3234 95.7817 51.4263 95.5919 52.4659 95.2032C52.6332 95.158 52.8004 95.1082 52.9631 95.0495C53.7089 95.054 54.4502 95.0178 55.1869 94.9229C55.6299 94.9094 56.0774 94.8868 56.5203 94.8461C57.9532 94.8642 59.386 94.828 60.8098 94.6743C60.855 94.6834 60.9047 94.6969 60.9499 94.706C62.6901 94.9636 64.471 94.7512 66.1977 94.4619C66.3107 94.819 66.5322 95.2348 66.9344 95.2664C67.1604 95.2303 67.3774 95.176 67.5853 95.1037C67.9108 95.2348 68.3356 95.1625 68.8599 94.7602C69.0679 94.5704 69.2351 94.3444 69.3933 94.1093C69.7956 94.1726 70.2069 93.8517 70.573 93.3997C71.4816 92.6313 72.0917 91.5465 72.2002 90.3532C72.2816 89.639 72.2499 88.8887 72.0465 88.1926C72.3313 87.822 72.5437 87.4152 72.5121 86.927C72.5166 86.5067 72.2726 86.0592 71.8657 85.892ZM54.4231 86.0411C54.4321 86.0366 54.4457 86.0366 54.4547 86.0321C54.5044 86.014 54.5135 86.014 54.4909 86.023C54.5315 86.005 54.5677 85.9914 54.6084 85.9733C54.7621 85.9236 54.979 85.9417 55.1417 85.9552C55.3723 85.9733 55.5892 86.0637 55.77 86.2038C55.8604 86.1812 55.9508 86.1677 56.0412 86.1586C56.4525 86.1134 56.9045 86.57 56.8639 86.9813C56.8639 86.9903 56.8594 86.9994 56.8594 87.0084C56.7147 87.04 56.5746 87.0626 56.4299 87.0898C56.0503 87.0129 55.6661 86.9496 55.2773 86.9044C54.8163 86.7598 54.3553 86.6197 53.8897 86.4931C53.8038 86.457 53.7225 86.4208 53.6321 86.3846C53.6095 86.3756 53.5823 86.362 53.5597 86.353C53.5869 86.3394 53.614 86.3304 53.6411 86.3168C53.8942 86.1948 54.1202 86.023 54.4231 86.0411ZM71.7753 87.2932C71.7527 87.3158 71.7256 87.3338 71.703 87.3519C71.6443 87.2525 71.581 87.153 71.5132 87.0581C71.5991 86.8592 71.6714 86.6604 71.7301 86.4524C71.8386 86.5157 71.9245 86.6242 72.0059 86.7146C72.2228 86.9496 71.9516 87.1395 71.7753 87.2932Z" fill="#2471B6"/>
<path d="M52.954 94.5071C52.954 94.4981 52.954 94.489 52.954 94.48C53.085 94.5071 53.2161 94.5388 53.3517 94.5523C53.2297 94.5162 53.1212 94.4574 53.0172 94.3851C52.9856 94.3715 52.954 94.3534 52.9223 94.3399C52.8907 94.2585 52.841 94.1952 52.7551 94.1681C52.7234 94.1772 52.6918 94.1817 52.6602 94.1907C52.4974 94.0822 52.3392 93.9602 52.163 93.8879C51.6929 93.6754 51.1686 93.689 50.6714 93.585C50.5764 93.5624 50.4725 93.5172 50.364 93.4675C50.2691 93.1647 50.1018 92.898 49.808 92.7624C49.5459 92.7036 49.2702 92.7443 48.9944 92.7624C48.9357 92.7398 48.8814 92.7127 48.8317 92.6765C48.4159 92.3737 48.0498 91.9714 47.5616 91.7725C47.2045 91.6505 46.7977 91.6595 46.513 91.3793C45.4914 90.2176 44.2394 88.9566 43.1501 88.03C42.5986 87.2842 42.115 86.4706 41.4641 85.6027C41.2878 85.3089 41.0664 84.6038 40.6008 83.9755C40.5601 83.9168 40.5194 83.858 40.4788 83.7992C39.7194 82.4749 39.8911 82.6466 39.412 81.3675C39.1363 80.7392 39.177 79.8171 38.7702 78.434C38.2278 77.078 38.2911 76.7164 37.8481 74.8948C37.2289 72.228 36.926 69.507 36.0537 65.8774C35.7599 64.7294 35.7102 63.961 35.4435 62.2795C35.344 61.8682 35.2627 61.4569 35.1949 61.041C35.1949 61.0365 35.1949 61.0275 35.1949 61.023C35.1949 60.928 35.1949 60.8331 35.1949 60.7427H35.1768C35.1587 60.5032 35.1406 60.2681 35.118 60.0286C35.0954 59.8884 35.0638 59.7574 35.0231 59.6398C34.9779 59.102 34.9463 58.5641 34.9508 58.0262C35.005 57.7866 35.0638 57.5426 35.1226 57.303C35.2491 56.7877 35.7463 55.1334 34.8423 55.1741C34.5078 55.3006 34.3361 55.6894 34.1914 55.9967C34.1056 56.2272 34.0378 56.4623 33.9835 56.6973C33.7123 57.0228 33.7575 57.5742 33.7801 57.9765C33.7846 58.0533 33.7846 58.1256 33.7892 58.2025C33.7801 58.3697 33.7756 58.537 33.7756 58.6997C33.7485 58.885 33.7259 59.0658 33.7259 59.2511C33.6264 59.3912 33.5406 59.572 33.4728 59.8116C33.4185 60.1235 33.3869 60.4308 33.3688 60.7427H33.3462C33.3462 60.8602 33.3507 60.9732 33.3552 61.0908C33.3462 61.5518 33.3598 62.0128 33.4004 62.4739C33.4276 63.0841 33.4592 63.6988 33.4999 64.309C33.4411 65.4435 33.4456 66.5826 33.536 67.7171C33.6129 68.5036 33.6807 69.2991 33.753 70.0946C33.7575 71.9478 33.8434 73.7965 34.0513 75.6361C34.2095 76.5763 34.3858 77.521 34.5892 78.4611C34.44 78.5877 34.309 78.764 34.196 78.9945C33.6445 80.138 33.5677 81.4398 33.6716 82.6873C33.7304 83.754 33.8931 84.8117 34.1101 85.8604C34.1914 86.8186 34.3722 87.7678 34.7338 88.6537C34.7429 88.6718 34.7519 88.6854 34.7655 88.7034C35.0141 89.6255 35.2898 90.4617 35.4706 91.0584C35.7915 92.0211 36.4108 92.9116 37.2063 93.5624C37.6809 94.15 38.2549 94.6518 38.9329 94.9953C39.2132 95.1038 39.5386 95.2258 39.846 95.2348C40.0584 95.7004 40.6686 96.0213 41.211 96.0439C41.3828 96.062 41.5545 96.071 41.7263 96.0665C42.9828 96.5185 44.5061 96.7671 44.949 95.7682C45.1524 95.8224 45.3513 95.8586 45.5457 95.8089C45.5592 95.7908 45.5638 95.7727 45.5728 95.7546C46.3005 95.9309 47.0644 95.9671 47.8237 95.9174C48.2622 95.9354 48.7006 95.9309 49.1391 95.8812C49.4645 95.845 49.8442 95.7772 50.0612 95.5151C50.9742 95.4699 51.9144 95.3433 52.6873 94.9636C52.7099 94.9636 52.7325 94.9591 52.7551 94.9591C52.7551 94.9501 52.7551 94.941 52.7551 94.932C52.7958 94.9094 52.8364 94.8958 52.8771 94.8732C52.8907 94.8506 52.8997 94.828 52.9087 94.8009C52.9178 94.8009 52.9268 94.8009 52.9359 94.8009C52.954 94.8054 52.972 94.8009 52.9856 94.8054V94.8009C52.9992 94.8009 53.0127 94.8009 53.0308 94.8009C53.1167 94.6472 53.0624 94.5614 52.954 94.5071Z" fill="#243854"/>
<path d="M61.0312 66.6729C60.8142 66.1802 60.4165 66.0175 60.073 66.1847C59.9148 65.3892 59.734 63.8886 59.0605 63.31C58.5226 62.3292 57.9576 62.0173 57.4604 62.171C57.248 61.3619 56.9994 60.5664 56.6694 59.798C56.6287 59.7121 56.579 59.6262 56.5338 59.5448C56.5202 59.5042 56.5112 59.4635 56.4976 59.4183C56.475 59.3053 56.4434 59.1787 56.3937 59.0612C56.3892 59.0476 56.3846 59.0341 56.3801 59.0205C56.0682 58.112 55.9778 57.086 55.3767 56.3085C55.1371 56.0735 54.9156 55.9605 54.7122 55.9243C54.6761 55.8339 54.6399 55.7435 54.6038 55.6531C54.5043 55.0294 54.4049 54.4101 54.31 53.7909C54.2964 53.6508 54.2783 53.5152 54.2557 53.3796C54.2512 53.3389 54.2467 53.3027 54.2422 53.262C54.2467 53.2801 54.2467 53.3027 54.2512 53.3344C54.0252 51.8382 53.5144 50.6585 52.3483 51.0472C51.5618 51.7298 51.268 52.6744 51.2228 53.714C51.0194 54.157 50.8522 54.6135 50.6985 54.9118C50.6126 55.0836 50.5358 55.278 50.468 55.4768C50.2465 55.5175 50.0205 55.6396 49.8171 55.8656C49.677 56.0644 49.5504 56.2678 49.4284 56.4758C48.8001 56.6656 48.2215 57.5515 48.095 58.9166C48.0678 59.2149 48.0362 59.5177 48.0091 59.8206C47.7921 60.5664 47.6068 61.3302 47.4441 62.0896C47.1819 63.0976 46.9107 64.101 46.644 65.109C46.4271 65.7327 46.305 66.3836 46.3141 67.0435C46.3096 67.0887 46.3096 67.1339 46.3096 67.1836C46.1604 67.83 46.079 68.499 45.9886 69.1318C45.7762 71.3511 46.0022 73.6156 46.6124 75.7716C46.626 75.8304 46.635 75.8846 46.6531 75.9434C46.9921 77.7559 47.5932 79.5413 48.7052 81.0329C49.008 81.5211 49.3606 81.8465 49.7312 82.0228C50.0386 82.6827 50.4454 83.2974 50.8883 83.876C51.2183 84.3551 51.5889 84.8026 52.068 85.1371C52.4884 85.4083 52.8726 85.5394 53.2206 85.5665C53.2206 85.5665 53.2252 85.5665 53.2252 85.562C53.2432 85.5484 53.2613 85.5348 53.2884 85.5122C53.3698 85.4535 53.4466 85.3857 53.5325 85.336C53.6862 85.2456 53.8625 85.1778 54.0297 85.119C54.093 85.0964 54.1563 85.0738 54.2196 85.0557C54.2602 85.0467 54.3145 85.0286 54.31 85.0331C54.4772 84.9608 54.6399 84.8749 54.8072 84.8162C55.0919 84.7122 55.3948 84.6444 55.6931 84.5721C56.005 84.4998 56.3214 84.432 56.6287 84.3416C56.701 84.319 56.7688 84.3009 56.8412 84.2738C56.8547 84.2692 56.9406 84.2376 56.9722 84.2286C57.0039 84.215 57.0898 84.1743 57.1033 84.1653C57.1621 84.1336 57.2208 84.102 57.2796 84.0658C57.3248 83.998 57.3745 83.9302 57.4152 83.8534C57.6096 83.7992 57.7949 83.6816 57.9214 83.4963C58.0073 83.3788 58.0796 83.2568 58.1474 83.1347C58.3328 82.9584 58.5045 82.7686 58.6718 82.5742C58.9701 82.511 59.2142 82.2398 59.3588 81.9776C59.5441 81.7019 59.6707 81.39 59.7656 81.0691C59.9735 80.9832 60.1769 80.8024 60.3532 80.486C60.882 79.6634 60.9996 78.7503 60.9453 77.8237C61.3566 77.2361 61.5148 76.5401 61.542 75.8259C61.6956 75.3242 61.6866 74.7546 61.7363 74.2394C61.8945 71.5319 61.7273 68.5396 61.0312 66.6729Z" fill="#3D3D3D" stroke="#ABABAB" stroke-miterlimit="10"/>
<path d="M55.0919 81.7111C54.8207 81.9145 54.5043 81.8286 54.224 81.684C54.2421 81.571 54.2511 81.4535 54.2557 81.3314C54.3009 81.345 54.3189 81.3495 54.2783 81.2953C54.2737 81.2862 54.2647 81.2817 54.2557 81.2772C54.2602 81.0015 54.2331 80.7122 54.1562 80.45C53.6364 79.085 52.6917 77.9188 52.0544 76.6035C51.0419 74.7955 50.6623 73.6836 50.4679 72.861C50.4634 72.8338 50.4543 72.8158 50.4498 72.7977C50.4498 72.7751 50.4408 72.7299 50.4317 72.653C50.4272 72.6169 50.4272 72.5988 50.4272 72.5852C50.4227 72.54 50.4227 72.5084 50.4227 72.4858C50.5357 71.6044 50.3639 70.1038 49.4012 70.3524C49.3741 70.3704 49.356 70.393 49.3334 70.4111C49.2927 70.4202 49.2475 70.4337 49.2068 70.4518C48.8588 70.6959 48.7141 71.1117 48.6011 71.5004C48.3164 72.3457 48.1356 73.2226 48.1085 74.1175C48.0452 75.3153 48.5695 76.3368 49.2385 77.2906C49.4916 77.9098 49.7809 78.4386 49.9933 78.7234C50.1741 79.0669 50.3323 79.4285 50.5628 79.7449C50.8476 80.0387 50.8611 79.9438 51.0103 80.2512C51.3764 81.0738 52.5381 81.9868 52.9087 82.2852C53.4737 83.0129 53.9302 82.6874 54.1381 82.0366C54.224 82.0456 54.3099 82.0546 54.3958 82.0682C54.6625 82.0727 54.9427 81.9507 55.1009 81.7292C55.128 81.6795 55.1687 81.6478 55.0919 81.7111Z" fill="#8C8C8C" stroke="#ABABAB" stroke-miterlimit="10"/>
<path d="M73.2441 36.9404C73.9628 37.3563 74.7177 37.6727 75.4815 37.9891" stroke="#ABABAB" stroke-miterlimit="10"/>
<path d="M73.8635 36.4568C74.2839 36.8365 74.8579 37.0127 75.3913 37.1755" stroke="#ABABAB" stroke-miterlimit="10"/>
<path d="M78.0941 41.7859C78.1212 41.3972 78.1845 41.0356 78.3472 40.683C78.3201 40.7373 78.3111 40.7554 78.3608 40.6514C78.3563 40.6604 78.3518 40.674 78.3472 40.683C78.3789 40.6198 78.4331 40.5113 78.4421 40.4932C78.4602 40.457 78.528 40.3531 78.5642 40.3079C78.6004 40.222 78.6591 40.0548 78.6817 39.987C78.6998 39.9237 78.7179 39.8559 78.7405 39.7926C78.8128 39.5711 78.8987 39.3813 79.0614 39.2095C79.093 39.083 79.1428 38.9654 79.2106 38.8479C79.2693 38.6671 79.3461 38.4999 79.4591 38.3372C79.5812 38.0343 79.7078 37.7496 79.8524 37.4784C79.8388 37.4693 79.8253 37.4558 79.8117 37.4422C79.5541 36.0094 78.5868 35.4398 77.4297 34.7302C77.4252 34.7257 77.4206 34.7212 77.4161 34.7166C76.1505 33.5143 76.1098 33.6544 75.3957 32.9177C75.1787 32.642 74.9437 32.3934 74.6137 32.3256C74.5369 32.3075 74.4646 32.3075 74.3922 32.3075C73.9357 31.8419 73.3255 31.5978 72.8012 32.2035C72.6565 32.4114 72.539 32.6284 72.4396 32.8544C72.2678 32.651 72.1006 32.4521 71.9379 32.2487V32.2532C71.852 32.1583 71.748 32.0815 71.617 32.0453C70.713 31.9007 70.5773 33.564 70.6723 34.1968C70.8305 35.2048 71.5763 35.9958 72.069 36.8636C72.765 37.971 73.5967 38.9926 74.6001 39.8242C75.4092 40.7463 76.3358 41.569 77.4071 42.1656C77.6421 42.3328 77.8591 42.4368 78.0625 42.4956C78.0625 42.247 78.076 42.0074 78.0941 41.7859Z" fill="#7A0000" stroke="#ABABAB" stroke-miterlimit="10"/>
<path d="M78.6682 39.2094C78.736 39.2998 78.8038 39.3766 78.8761 39.458C78.9258 39.3721 78.9801 39.2907 79.0524 39.2139C79.084 39.0873 79.1338 38.9698 79.2016 38.8523C79.2603 38.6715 79.3372 38.5042 79.4502 38.3415C79.7123 37.6861 79.9835 37.1437 80.4626 36.5426C80.874 36.0228 81.213 35.5572 81.6876 35.0736C81.5972 34.043 81.2401 33.0441 80.3406 32.461C80.2819 32.4248 80.2276 32.3932 80.1734 32.3616C79.744 31.896 79.2739 31.5932 78.8219 31.5886C78.5959 31.3672 78.3428 31.1909 78.067 31.0598C77.9043 30.9061 77.7461 30.7841 77.6015 30.6892C77.502 30.5264 77.371 30.3276 77.2851 30.2146C76.8331 29.6134 75.7438 29.3648 75.3776 30.1739C75.2827 30.3456 75.1968 30.5219 75.129 30.7072C74.7991 30.6575 74.5188 30.8971 74.3561 31.6384C74.3426 31.6655 74.3426 31.6971 74.329 31.7242C74.2476 31.6112 74.1301 31.6112 73.9538 31.8101C73.8996 31.9141 73.868 32.0226 73.8454 32.131C73.6691 32.2034 73.7007 32.47 73.8228 32.7638C73.8363 32.9085 73.8634 33.0486 73.8906 33.1887C73.8996 33.4418 73.9448 33.6588 74.0578 33.7176C74.1527 33.9662 74.2522 34.2238 74.4601 34.3594C74.6047 34.4001 74.6951 34.2193 74.7313 34.1018C74.7448 34.052 74.7448 34.0023 74.7448 33.9481C74.8624 34.1334 75.007 34.2826 75.1878 34.3639C75.2285 34.4724 75.2646 34.5854 75.3098 34.6939C75.581 35.277 75.9246 35.8194 76.3042 36.3392C76.6161 37.0126 77.1314 37.546 77.728 37.998C77.7778 38.0477 77.823 38.0974 77.8727 38.1472C78.0716 38.5449 78.3428 38.9382 78.6682 39.2094Z" fill="#ABABAB" stroke="#ABABAB" stroke-miterlimit="10"/>
<path d="M78.7045 39.901C78.7135 39.8648 78.7271 39.8287 78.7361 39.7925C78.8084 39.571 78.8943 39.3812 79.057 39.2094C79.0661 39.1823 79.0751 39.1507 79.0841 39.1235C79.0932 39.0783 79.0977 39.0377 79.1067 38.9925C79.1158 38.9925 79.1248 38.997 79.1293 38.997C79.1519 38.9473 79.1791 38.8975 79.2062 38.8478C79.2649 38.667 79.3418 38.4998 79.4548 38.3371C79.5271 38.1563 79.6039 37.98 79.6808 37.8127C79.6265 37.8173 79.5678 37.8353 79.5226 37.8444C79.5 37.8489 79.4774 37.8534 79.4593 37.8534C79.2378 37.5415 78.8853 37.3065 78.5282 37.2568C77.8728 36.7415 76.5801 36.0997 76.0015 36.4387C75.7484 36.3031 75.4953 36.1675 75.2376 36.0454C75.1291 36.0002 75.0207 35.9369 74.9122 35.9957C74.7992 36.0228 74.7088 36.0951 74.641 36.1855C74.6229 36.1765 74.6048 36.1675 74.5867 36.1584C74.4195 36.0906 74.2432 35.9234 74.0579 35.9505C73.85 36.0499 73.7777 36.285 73.7686 36.5245C73.1539 36.1584 72.6115 35.6477 72.2092 35.0601C72.6025 35.9279 73.1855 36.7325 73.9178 37.3472C74.085 37.4737 74.2523 37.5958 74.415 37.7133C74.4918 38.0523 74.65 38.3687 74.9167 38.6083C75.1427 38.8071 75.3687 38.9563 75.5947 39.0738C76.232 39.7789 77.0275 40.466 77.6965 39.797C77.7055 39.7789 77.7146 39.7609 77.7236 39.7428C77.8095 39.7744 77.8909 39.8106 77.9722 39.8513C78.2931 40.0366 78.5282 40.023 78.7045 39.901Z" fill="#7A0000" stroke="#ABABAB" stroke-miterlimit="10"/>
<path d="M78.8534 36.1312C78.5506 35.7561 78.2026 35.6205 77.8726 35.6521C77.6285 35.2995 77.3347 35.0103 77.0093 34.8792C76.8737 34.4498 76.6793 34.043 76.4172 33.6859C75.8431 32.7005 74.8713 32.0406 74.1074 31.1999C74.008 31.001 73.9086 30.8021 73.8136 30.6033C73.6735 30.2371 73.5063 29.8846 73.2622 29.5727C72.9051 29.1614 72.5435 29.0619 72.2181 29.1523C71.3819 28.7365 70.6722 29.4823 70.3604 30.5581C70.3106 30.7298 70.279 30.9016 70.2474 31.0643C69.7682 31.2587 69.5242 32.0542 69.4654 32.5333C69.253 33.7989 69.8134 34.9696 70.5502 35.9595C70.6451 36.1177 70.7807 36.3165 70.9434 36.5651C71.2056 37.1708 71.4994 37.7629 71.8429 38.3279C72.0644 38.7121 72.2814 39.2229 72.6927 39.4173C72.887 39.467 73.0543 39.4579 73.208 39.4218C73.3255 40.0094 73.5696 40.5563 73.895 40.8908C74.2611 41.2569 74.7538 41.2976 75.242 41.2117C75.2826 41.2162 75.3188 41.2117 75.3595 41.2117C75.3911 41.2569 75.4182 41.3021 75.4544 41.3428C75.8341 41.8129 76.5437 41.8852 77.0454 41.5688C77.2534 41.4015 77.3754 41.162 77.4296 40.9043C77.4342 40.8863 77.4387 40.8682 77.4432 40.8501C77.6737 40.945 77.9133 41.0219 78.1574 41.0671C78.6184 41.0851 78.9484 40.6693 79.1563 40.3032C79.7213 38.9969 79.6806 37.32 78.8534 36.1312Z" fill="#243854"/>
<path d="M83.9927 30.8474C84.0153 30.7932 84.0424 30.739 84.065 30.6892C84.0289 30.7344 83.9927 30.7842 83.952 30.8294C83.9023 30.8022 83.8436 30.7887 83.7758 30.7932C83.8797 30.4678 83.9249 30.1333 83.8481 29.8033C83.717 29.4056 83.5046 29.3784 83.3283 29.514C83.4006 29.2293 83.4232 28.9219 83.4322 28.705C83.4142 28.5332 83.3916 28.3886 83.369 28.2575C84.1916 26.7975 84.96 25.3014 85.986 23.9771C84.7656 24.9037 83.8164 26.1467 82.8401 27.3173C82.7994 27.3851 82.7497 27.4484 82.6955 27.5072C82.2796 27.697 81.796 28.5196 81.5112 29.1931C81.0864 30.0926 80.7835 30.9469 80.4988 31.7695C80.2863 32.4159 80.2954 33.7448 80.9869 33.9798C80.9643 34.034 80.9417 34.0838 80.9191 34.138C80.892 34.1877 80.8649 34.2329 80.8378 34.2826C80.8197 34.3052 80.8016 34.3324 80.7835 34.355C80.6976 34.5132 80.5846 34.6714 80.544 34.8476C80.4129 35.1053 80.2908 35.3629 80.1688 35.6251C80.1643 35.598 80.1643 35.5663 80.1598 35.5437C80.0422 34.9471 79.5993 34.694 79.084 34.5041C79.1608 33.3425 78.7857 32.0769 77.9585 31.9458C77.6557 31.9955 77.4161 32.1989 77.2308 32.4927C77.2444 32.4611 77.2579 32.4294 77.267 32.3933C77.2263 32.4837 77.1675 32.5786 77.1088 32.6735C77.1359 32.434 77.2127 32.1989 77.398 32.0452C77.1901 32.1266 77.0952 32.3255 77.0319 32.5334C77.0138 32.4611 76.9958 32.3842 76.9732 32.3119C76.8511 32.0226 76.7291 31.5435 76.4262 32.0046C76.2771 32.1628 76.1776 32.3526 76.1098 32.5605C75.9426 32.2125 75.685 32.2486 75.6352 32.7504C75.5087 32.7232 75.3776 32.7142 75.2872 32.7413C75.1742 32.8543 75.1832 33.0622 75.242 33.2024C75.3234 33.338 75.5268 33.338 75.6578 33.4148C75.694 33.4329 75.7347 33.4464 75.7708 33.4645C75.8567 33.6544 75.9788 33.8261 76.1098 33.9888C76.2635 34.373 76.5844 34.7256 76.8647 34.8341C76.9822 35.6612 77.3483 36.3709 77.954 36.4658C78.0986 36.4432 78.2297 36.3799 78.3472 36.294C78.4376 36.3618 78.5371 36.4251 78.6365 36.4794C79.0162 36.737 79.3326 37.0941 79.7575 37.2749C79.7982 37.2975 79.8388 37.2613 79.8569 37.2206C80.0513 36.9042 80.1914 36.4703 80.1372 36.0816C80.2366 35.937 80.3406 35.7923 80.44 35.6432C80.4355 35.6884 80.431 35.729 80.431 35.7742C80.3993 36.0138 80.4084 36.2579 80.4897 36.4974C80.544 36.6195 80.5982 36.7008 80.657 36.7506C80.8378 37.0308 81.127 37.2161 81.3937 36.8952C81.6333 36.5562 81.7824 36.276 81.8954 36.1132C82.361 35.3765 83.7758 34.7346 83.952 33.6634C83.9656 33.4284 83.9566 33.225 83.934 33.0532C84.2142 32.7368 84.3769 32.3526 84.3588 31.9142C84.3634 31.6068 84.2775 31.0328 83.9927 30.8474ZM76.6522 32.6735C76.7336 32.8136 76.7878 32.9764 76.8285 33.1481C76.8195 33.1707 76.8104 33.1933 76.8014 33.2159C76.7246 33.121 76.6206 33.0487 76.5031 32.999C76.5031 32.9854 76.5031 32.9809 76.5076 32.9673C76.5076 32.9673 76.5076 32.9673 76.5121 32.9583C76.5166 32.9357 76.5257 32.9086 76.5347 32.886C76.5347 32.8814 76.5392 32.8814 76.5392 32.8769C76.5392 32.8724 76.5392 32.8724 76.5438 32.8679C76.5664 32.8001 76.6116 32.7368 76.6522 32.6735ZM80.0332 36.3302C80.0106 36.5336 79.8976 36.6963 79.7801 36.8545C79.7394 36.8229 79.649 36.7822 79.6174 36.746C79.4998 36.6195 79.3733 36.5065 79.2467 36.3844C79.301 36.4161 79.3507 36.4477 79.4094 36.4703C79.5541 36.5336 79.6761 36.5336 79.7846 36.4974C79.7484 36.5878 79.7078 36.6737 79.6716 36.7641C79.753 36.6556 79.8298 36.5381 79.9066 36.4251C79.9609 36.3844 80.0061 36.3257 80.0422 36.2624C80.0377 36.2895 80.0377 36.3076 80.0332 36.3302ZM83.0119 30.1152C82.8898 30.4135 82.7181 30.9378 82.4424 31.2181C82.3068 31.3356 82.1531 31.4576 81.9949 31.5616C82.0356 31.4441 82.0762 31.3356 82.1124 31.2407C82.2254 30.9604 82.3881 30.5536 82.5599 30.1649C82.596 30.1875 82.6277 30.2101 82.6638 30.2282C82.8085 30.2282 82.9215 30.1785 83.0164 30.0971C83.0119 30.0971 83.0119 30.1062 83.0119 30.1152Z" fill="#ABABAB"/>
<path d="M75.7754 28.1897C75.4093 28.3072 75.0748 28.5016 74.7448 28.7004C74.677 28.6552 74.5911 28.6417 74.4736 28.6914C74.3019 28.8134 74.1617 28.9716 74.0261 29.1344C73.7097 29.2293 73.3572 29.3332 73.1764 29.6225C73.1628 29.6587 73.1493 29.7039 73.1357 29.7491C72.9413 29.731 72.7831 29.7898 72.7425 30.0429C72.6249 30.522 72.9007 30.6169 73.2261 30.5717C73.2487 30.5988 73.2758 30.6169 73.3029 30.6395C73.3436 30.7932 73.425 30.9198 73.5787 30.965C73.6465 30.9424 73.7052 30.9062 73.7595 30.861C73.764 30.8791 73.764 30.8972 73.773 30.9107C74.4736 30.5898 75.0748 29.8892 75.7166 29.4146C75.8793 29.2428 76.1144 29.1615 76.1867 28.9084C76.2907 28.6146 76.1957 28.0179 75.7754 28.1897Z" fill="#ABABAB"/>
<path d="M95.6543 17.83C95.5459 17.6492 95.3967 17.5045 95.2295 17.3825C94.9131 17.0525 94.4746 16.8356 94.0949 16.587C93.8237 16.4514 93.5209 16.2073 93.2045 16.2751C93.096 16.3293 93.0147 16.4017 92.9423 16.4875C92.8203 16.5237 92.7254 16.587 92.6395 16.6548C92.6305 16.6005 92.6169 16.5463 92.6124 16.4875C92.6079 16.5463 92.6079 16.6051 92.6079 16.6638C92.5536 16.5508 92.4949 16.4378 92.4451 16.3203C92.4723 16.4649 92.5084 16.6141 92.5491 16.7542C92.5446 16.7633 92.5401 16.7723 92.531 16.7768C92.522 16.7361 92.5129 16.6955 92.4994 16.6593C92.4994 16.709 92.5039 16.7587 92.5084 16.8085C92.4361 16.9034 92.3728 17.0028 92.3367 17.1249C92.3321 17.1203 92.3321 17.1158 92.3276 17.1158C92.3276 17.1203 92.3321 17.1249 92.3321 17.1339C92.1649 17.717 92.3864 18.5261 92.6033 19.0052C92.8971 19.7826 93.7062 20.1713 94.4837 20.3115C94.7458 20.3069 95.0667 20.3657 95.2792 20.1894C95.3289 20.1352 95.3696 20.0719 95.4057 20.0086C95.9617 19.4753 95.9391 18.4854 95.6543 17.83Z" fill="#5C5C5C"/>
<path d="M49.5188 79.4557C49.4103 78.7461 49.1527 78.0726 48.8227 77.4353C48.6013 76.581 47.9278 75.1843 47.6521 74.6012C47.3673 73.3673 47.2001 72.1333 47.0645 71.0485C47.0373 70.253 47.0012 69.7061 46.9695 69.2586C46.9786 69.0507 46.9876 68.8382 46.9967 68.6303C46.9967 68.0879 47.0871 67.5139 46.9967 66.976C47.0871 66.741 47.182 66.5059 47.2769 66.2754C47.1639 66.4336 47.0554 66.5963 46.9515 66.759C46.9334 66.6867 46.9108 66.6099 46.8791 66.5376C46.7707 66.0539 46.165 65.7285 45.8893 66.2844C45.6633 66.5918 45.6497 66.9941 45.5774 67.3602C45.1841 70.8813 45.5141 77.1008 48.1267 80.7936C48.8182 82.2898 49.7448 80.762 49.5188 79.4557Z" fill="#7A7A7A"/>
<path d="M54.4048 83.9124C54.2376 83.9124 54.0568 83.9621 53.8895 83.9486C54.5042 83.9169 54.8071 83.2751 54.9608 82.7508C55.4444 80.3732 54.5675 79.1664 53.1437 77.3042C52.8544 76.938 52.5471 76.5855 52.2171 76.2555C52.0228 75.9075 51.8284 75.5594 51.6431 75.2069C51.4532 74.8634 51.2724 74.5018 51.0058 74.2125C50.8204 73.8328 50.9063 73.8825 50.7662 73.5978C50.8837 73.313 50.9696 73.0192 50.938 72.7073C50.9289 72.3141 50.7888 71.9118 50.5221 71.8621C50.5221 71.5457 50.4679 71.2338 50.3323 70.94C50.2961 70.8677 50.26 70.8089 50.2193 70.7592C50.1831 70.4564 50.1018 70.1626 49.93 69.8959C49.7537 69.4755 49.1526 69.471 48.9763 69.8959C48.9537 69.932 48.9356 69.9727 48.913 70.0089C48.7141 70.1535 48.5469 70.4157 48.4791 70.723C48.2169 71.5186 48.0361 72.5762 48.4113 73.3672C48.2395 73.8735 48.339 75.5775 48.3118 74.8046C48.348 75.5233 48.4113 76.2465 48.6825 76.92C49.1074 78.1042 49.7176 79.2116 50.3956 80.2738C50.5357 80.78 50.712 81.2818 50.956 81.7383C50.7572 81.5756 50.5402 81.4309 50.3368 81.2727C49.7854 80.7213 49.3198 80.093 48.8136 79.5009C48.3299 78.7596 47.9276 78.0726 47.6248 77.3222C48.3209 76.1335 48.0678 73.5797 46.8745 73.3944C46.8564 73.3989 46.8383 73.4079 46.8202 73.4124C46.8067 73.304 46.7931 73.1955 46.7705 73.0915C46.775 73.2 46.775 73.313 46.775 73.4305C46.7705 73.4305 46.766 73.435 46.7615 73.435C46.7344 73.3266 46.7072 73.2181 46.6937 73.1096C46.662 72.7842 46.6711 72.4542 46.6846 72.1288C46.8338 69.923 47.8598 67.7218 48.1175 65.5341C48.2305 64.8877 48.357 64.2007 48.4836 63.6221C48.4926 63.5001 48.5017 63.3916 48.5062 63.2876C48.7593 62.7317 48.9763 62.1576 49.139 61.57C49.5322 60.779 49.7718 60.092 49.9978 59.5315C50.6758 58.3744 51.2724 57.4749 52.0454 56.4172C51.1414 57.0681 50.1334 57.9947 49.5503 58.9439C49.3017 59.4954 49.035 60.0513 48.8316 60.6208C48.6825 60.7836 48.5333 60.9508 48.4158 61.1406C48.1084 61.796 48.0587 62.5328 47.9819 63.2424C47.8508 63.717 47.7288 64.1962 47.6293 64.6798C47.4485 65.5928 47.2768 66.3703 47.114 67.1432C47.0869 67.1974 47.0553 67.2472 47.0282 67.3014C47.0462 67.22 47.0598 67.1387 47.0779 67.0573C47.1728 66.1352 47.1592 65.1634 47.6293 64.3363C47.67 63.7758 47.6384 63.2063 47.7875 62.6594C47.5977 63.1023 47.5028 63.5769 47.4395 64.056C47.3355 64.264 47.1547 64.4402 47.0824 64.6753C46.7389 65.4482 46.653 66.8449 46.5716 67.0709C45.9524 69.2812 46.192 71.5954 46.21 73.8735C45.419 74.9944 45.6405 77.7245 46.879 77.9189C46.9739 77.9053 47.0643 77.8737 47.1502 77.8285C47.1954 77.9912 47.2451 78.1539 47.3129 78.3121C47.7559 79.302 48.122 80.3461 48.8407 81.1823C49.1978 81.6388 49.5594 82.0999 49.9888 82.4886C50.4362 82.8366 50.947 83.0898 51.3176 83.5372C51.634 83.8943 52.0092 84.1791 52.4974 84.2378C52.9222 84.378 53.3155 84.604 53.7449 84.7215C53.998 84.7576 54.215 84.5949 54.4545 84.5497C55.232 84.4819 56.0004 84.2876 56.6738 83.8898C55.919 84.0661 55.1551 84.0164 54.4048 83.9124Z" fill="#C2C2C2"/>
<path d="M55.779 66.6461C55.6344 66.1715 55.2502 65.8054 55.1598 65.4664C55.0197 64.9601 54.8163 64.49 54.4908 64.0742C54.4502 64.0064 54.0976 63.464 53.9484 63.3917C53.6727 63.0934 53.293 63.003 52.9314 62.8719C52.606 62.7544 52.2082 62.6414 51.8918 62.8267C51.3133 63.3013 51.3992 64.3183 51.919 64.8064C52.0139 64.924 52.1133 65.0415 52.2082 65.1545C52.4433 65.8867 52.945 66.5647 53.4241 67.1568C53.5507 67.6043 53.6004 68.0202 53.727 68.4767C53.8128 69.0145 53.7134 69.4214 53.9213 70.3525C54.2106 71.5864 54.8841 71.7492 55.3632 70.4881C55.9237 69.3581 56.2039 68.0608 55.779 66.6461Z" fill="#C2C2C2"/>
<path d="M61.5916 76.6534C61.8583 75.4872 61.8041 74.2623 61.6413 73.0871C61.2481 71.2836 61.2526 70.7593 60.8142 68.8202C60.6741 68.097 60.5701 67.3557 60.2311 66.6913C60.213 66.6506 60.1995 66.6144 60.1814 66.5738C59.8921 65.7511 59.7655 64.8742 59.3768 64.0878C58.8841 63.0075 58.2378 62.0673 57.614 61.2628C57.0129 59.9836 56.4795 58.6457 55.6975 57.4614C55.3631 57.1722 55.1145 56.9642 54.893 56.5484C54.5811 56.0196 54.1427 55.5766 53.8534 55.0387C53.6138 54.5415 53.2748 54.1076 52.9675 53.6556C52.7731 53.2217 52.7189 52.7109 52.868 52.2544C52.5923 52.8013 52.642 53.4703 52.8138 54.0443C53.0036 54.4873 53.2387 54.9122 53.3155 55.1879C53.5551 56.0286 53.989 56.7834 54.3461 57.579C54.5585 58.0852 54.7935 58.5779 55.1868 58.9711C55.4128 59.4276 55.5574 60.0559 55.7925 60.5938C56.145 61.3577 56.2445 62.0899 56.7552 63.2877C57.7813 64.8833 58.3417 66.0088 58.7576 67.9795C59.5441 69.9683 59.4672 70.8678 60.0865 73.078C60.4797 74.8047 60.5746 74.5742 60.4435 76.4635C60.4435 76.4319 60.4481 76.4048 60.4481 76.3641C60.4481 76.4319 60.439 76.4952 60.4345 76.5539C60.4345 76.5765 60.43 76.5946 60.43 76.6127C60.43 76.6172 60.43 76.6127 60.43 76.6172C60.3667 77.1686 60.1452 77.4444 59.9147 78.1043C59.9057 78.1314 59.8695 78.2308 59.8876 78.1676C59.9057 78.1269 59.8966 78.1224 59.865 78.163C59.7701 78.267 59.648 78.3438 59.5531 78.4478C59.2503 78.8139 58.9474 79.519 58.7757 79.7857C58.6355 79.9168 58.3101 80.536 58.1564 80.8434C57.8943 81.083 57.6954 81.3722 57.5869 81.7158C57.3247 82.2175 56.9179 82.6378 56.8366 83.2209C56.823 83.2752 56.8004 83.3972 56.7914 83.4288C56.9044 83.1893 56.9948 82.9316 57.1891 82.7418C57.6321 82.3712 57.7089 82.2446 58.057 81.8423C58.3689 81.7022 58.5677 81.431 58.7847 81.1734C59.187 80.8118 59.5079 80.3778 59.8605 79.971C60.1136 79.8128 60.4074 79.6863 60.5475 79.4015C60.7057 79.1439 60.7916 78.936 60.9453 78.7506C61.3701 78.1676 61.456 77.4127 61.5826 76.7212C61.6052 76.6036 61.5916 76.6579 61.5781 76.7302C61.5826 76.7076 61.5871 76.6805 61.5916 76.6534Z" fill="#C2C2C2"/>
<path d="M58.2831 72.5943C58.3012 72.4858 58.3193 72.3819 58.3193 72.2689C58.256 70.9897 57.578 71.2383 57.3294 72.296C57.135 73.1638 57.3384 73.9593 57.2706 74.8181C56.9362 75.9346 56.3983 76.9877 56.2401 78.1494C56.231 78.2624 56.2084 78.3528 56.2627 78.181C56.3938 77.7878 56.5881 77.4262 56.8051 77.0781C56.796 77.2363 56.787 77.3945 56.7644 77.5482C56.5655 78.3166 55.8378 78.8003 55.3044 79.3427C55.8378 79.0895 56.4073 78.8409 56.8232 78.407C57.1396 78.0319 57.2119 77.5301 57.2887 77.0601C57.3068 76.6171 57.5961 76.2781 57.7724 75.8939C57.926 75.5097 57.9758 75.0984 58.0119 74.6871C58.2424 73.9413 58.369 73.1412 58.2831 72.5943Z" fill="#C2C2C2"/>
<path d="M56.5157 82.5067C56.2807 82.118 55.9959 81.9236 55.7111 81.8648C55.4399 81.5665 55.1326 81.4174 54.8117 81.5439C54.554 81.4083 54.3235 81.2185 54.093 81.0286C54.1065 80.997 54.1156 80.9654 54.1246 80.9382C54.3099 80.3642 54.1834 79.7404 53.8896 79.2252C53.8715 79.189 53.8534 79.1574 53.8399 79.1212C53.7178 77.5799 53.0308 76.8748 52.4341 75.7131C51.9867 74.9357 51.6883 74.4656 51.4081 74.0452C51.2589 73.6746 51.1233 73.304 50.9877 72.9288C50.9245 72.739 50.8612 72.5627 50.8024 72.3909C50.26 70.7818 49.8035 69.0913 49.2656 67.2155C49.1436 66.7454 48.9537 66.4833 48.7503 66.3838C48.7142 65.977 48.6871 65.5702 48.6599 65.1634C48.8407 64.6482 49.0396 64.0832 49.234 63.5227C49.2747 63.4865 49.3153 63.4504 49.3515 63.4006C49.6453 62.9938 49.8532 62.5373 50.0159 62.0582C50.0702 61.9452 50.1244 61.8322 50.1787 61.7192C50.3956 61.4842 50.6939 60.6751 50.7482 60.5169C50.7437 60.5259 50.7437 60.5304 50.7391 60.5395C50.7572 60.4988 50.7753 60.4581 50.7934 60.4174C50.8928 60.214 50.9968 60.0152 51.0962 59.8118C51.2137 59.5767 51.3132 59.3372 51.4126 59.0931C51.7109 58.5145 52.0319 57.9405 52.3347 57.3664C52.5426 56.8873 53.2161 56.2862 53.4285 54.903C53.6997 53.547 52.8319 50.93 51.3584 52.8826C51.3177 52.9368 51.2725 53.0001 51.2273 53.0724C51.0781 53.0724 50.9199 53.1312 50.7572 53.2758C50.486 53.5064 50.3188 53.8182 50.2013 54.1527C49.8532 54.659 50.025 54.4013 48.904 56.1189C47.9865 57.5066 47.3356 59.0388 46.8384 60.6208C46.3728 60.8649 45.9344 61.6378 45.74 63.0662C45.6225 63.5634 45.5231 64.0696 45.4327 64.5623C45.3603 64.7702 45.2835 64.9736 45.2112 65.1815C44.8315 66.6867 44.3162 68.219 44.5467 69.7919C44.5919 70.036 44.6417 70.2846 44.7049 70.5287C44.5151 71.7762 44.4202 73.0689 44.9761 74.0452C45.0439 74.6419 45.1298 75.2385 45.2519 75.8261C45.4507 76.6488 45.7581 77.4488 46.1333 78.2036C46.2598 78.4206 46.4497 78.7054 46.6576 78.8138C46.9017 78.9268 47.1322 78.8952 47.3265 78.7867C47.3582 78.9042 47.3898 79.0218 47.4441 79.1348C47.5571 79.3608 47.7017 79.5596 47.8554 79.754C47.8102 80.3506 47.9322 80.9834 48.1266 81.4897C48.5424 82.3349 49.3515 82.8547 50.0385 83.4604C50.8612 84.057 51.6567 84.7441 52.6149 85.1147C53.0941 85.3091 53.4557 85.187 53.7043 84.8932C53.8444 84.9836 53.989 85.0695 54.1201 85.169C54.1246 85.1735 54.1201 85.169 54.1246 85.1735C54.2331 85.2684 54.3687 85.3272 54.4862 85.413C54.6444 85.5351 54.7936 85.6797 55.0015 85.7023C55.2049 85.6752 55.3767 85.5848 55.5168 85.4582C55.6253 85.4673 55.7383 85.4356 55.8422 85.3317C55.8874 85.282 55.9191 85.2187 55.9597 85.1644C56.0185 85.169 56.0773 85.1644 56.136 85.1283C56.2445 85.056 56.3259 84.961 56.3801 84.8435C56.5112 84.6401 56.5564 84.3237 56.5293 83.9621C56.7372 83.587 56.7462 83.0762 56.5157 82.5067ZM48.3978 65.9273C48.4294 65.8414 48.4611 65.7465 48.4927 65.6516C48.4882 65.8821 48.4882 66.1172 48.4927 66.3477C48.4204 66.3612 48.3526 66.3884 48.2848 66.4336C48.3074 66.3251 48.33 66.2211 48.3481 66.1307C48.3616 66.0629 48.3797 65.9951 48.3978 65.9273Z" fill="#1F1F1F"/>
<path d="M55.7472 79.3698C55.5032 79.0217 55.1551 78.7912 54.7754 78.6149C54.6715 78.5155 54.554 78.4206 54.4229 78.3482C54.3686 78.3166 54.3099 78.303 54.2556 78.294C54.1562 78.1674 54.0568 78.0318 53.9754 77.8872C54.0025 77.9279 54.0522 78.0138 54.0522 78.0047C53.7675 77.6296 53.5912 77.1685 53.2884 76.816C53.2115 76.6713 53.1347 76.5267 53.0578 76.3866C53.0804 76.2871 53.0985 76.1922 53.1121 76.1063C53.2522 75.0848 52.9855 74.0316 52.3392 73.2226C52.2894 73.1638 52.2397 73.1005 52.19 73.0418C52.1764 73.0056 52.1629 72.9694 52.1538 72.9468C51.6612 71.514 50.7572 69.2902 50.5447 68.6935C50.5402 68.6755 50.5357 68.6574 50.5312 68.6348C50.8747 67.7488 51.1188 66.8177 51.0871 65.8595C51.0781 65.6606 51.0645 65.4572 51.0419 65.2538C51.0962 65.0775 51.1549 64.9058 51.2137 64.734C51.5888 63.9159 51.973 63.0616 51.8465 62.144C51.8194 61.4751 51.503 60.1236 50.6351 60.2999C50.4679 60.3225 50.3323 60.4084 50.2328 60.5575C50.1515 60.666 50.0837 60.788 50.0159 60.9056C50.0159 60.901 50.0159 60.901 50.0114 60.8965C49.9526 60.9824 49.9119 61.0773 49.8712 61.1722C49.8396 61.2491 49.808 61.3305 49.7763 61.4073C49.7673 61.4254 49.7628 61.4434 49.7537 61.466C49.5594 61.9452 49.3831 62.4288 49.2204 62.9215C49.1887 62.9983 49.1526 63.0752 49.1164 63.152C48.5876 63.2515 48.1491 64.1012 48.0226 64.612C47.8418 65.2538 47.7785 65.9137 47.7966 66.5782C47.679 67.1115 47.566 67.6494 47.4485 68.1828C47.3355 68.5805 47.2451 68.9873 47.1366 69.3806C46.888 70.1806 46.7976 71.0846 47.1276 71.8711C47.1954 72.1107 47.3717 72.3954 47.6022 72.54C47.6067 73.2723 47.6519 74.0045 47.774 74.7232C47.8508 75.6679 48.1084 76.5945 48.5604 77.4081C48.8814 77.7878 49.817 79.7359 50.7843 80.1246C51.051 80.5856 51.4126 81.0422 51.7877 81.3993C51.7968 81.4309 51.8058 81.4625 51.8148 81.4942C52.1945 82.3258 53.1934 82.4886 53.998 82.7462C54.2421 82.936 54.4816 83.1214 54.7167 83.3067C55.006 83.5553 55.2184 83.4604 55.354 83.2163C55.363 83.2163 55.3721 83.2208 55.3811 83.2253C56.6241 82.9541 56.4433 80.1517 55.7472 79.3698Z" fill="#3D3D3D"/>
<path d="M53.2658 76.6894C53.198 76.5809 53.1121 76.4905 53.0172 76.4137C53.0669 75.6633 52.8861 74.9266 52.425 74.6057C52.077 74.4475 51.6883 74.565 51.3402 74.6825C50.9696 74.8317 50.5764 75.0215 50.3684 75.3786C49.8396 76.2961 49.374 77.7877 50.3775 78.5426C50.7888 78.7641 51.2679 78.8409 51.7335 78.7957C51.9007 78.8771 52.0906 78.8951 52.303 78.8138C52.3844 78.7415 52.4612 78.6556 52.529 78.5697C52.7686 78.4477 52.99 78.2849 53.1663 78.0725C53.4285 77.6747 53.4782 77.1143 53.2658 76.6894Z" fill="#C2C2C2"/>
<path d="M92.3865 17.247C92.2012 17.1385 92.0023 17.2108 91.8486 17.3328C91.6678 17.4639 91.5006 17.6086 91.3379 17.7622C91.1028 17.9476 90.8723 18.1419 90.6689 18.3634C90.5469 18.49 90.4565 18.5849 90.3796 18.6662C90.1401 18.8696 89.9005 19.073 89.6655 19.281C89.5751 19.3488 89.4801 19.4211 89.3536 19.5115C88.2552 20.429 88.4677 20.3251 87.5139 21.098C86.1353 22.35 84.02 24.7004 82.5419 26.4542C81.4345 27.6113 80.7159 28.5153 79.4593 29.5413C78.9937 30.0069 78.6819 30.5945 78.2615 31.0962C77.6106 31.9324 76.8919 32.7189 76.2817 33.5868C76.9371 32.972 77.6106 32.4025 78.2751 31.8104C78.257 31.8375 78.2344 31.8601 78.2208 31.8827C77.9948 32.2353 77.6468 32.4793 77.3665 32.7867C77.1405 33.0308 76.9597 33.3201 76.7292 33.5596C76.6795 33.5913 76.5891 33.7088 76.675 33.6274C76.9778 33.4376 77.2129 33.1528 77.5021 32.9404C78.379 32.4567 78.9802 31.616 79.7938 31.0465C80.3543 30.6623 80.7656 30.1063 81.2899 29.686C81.6018 29.4871 81.9498 29.3425 82.2255 29.0848C83.0753 28.3797 83.5318 27.3853 84.5624 26.8836C85.5703 26.2734 86.3071 25.3468 87.1343 24.5241C87.6315 24.1174 88.1829 23.8055 88.6891 23.4122C88.9694 23.2405 89.453 22.7297 89.7242 22.4314C90.3841 21.9839 90.9989 21.5003 91.5232 20.8991C91.5367 20.8856 91.5458 20.8765 91.5593 20.863C91.6407 20.7906 91.7175 20.7228 91.7899 20.6595C92.278 20.307 92.8159 19.9544 92.8792 19.3081C93.0148 18.6346 92.9922 17.708 92.3865 17.247Z" fill="#DBDBDB"/>
<path d="M87.6224 19.5025C87.2563 19.7557 86.9399 20.0721 86.5557 20.3071C85.4076 21.1704 84.2369 22.0157 83.1883 23.001C82.777 23.3717 81.5927 24.1988 81.0187 24.8497C80.526 25.3333 80.0921 25.8803 79.5994 26.3639C79.1203 26.7481 78.6186 27.1007 78.2389 27.5888C77.7191 28.199 77.1541 28.7731 76.6253 29.3787C76.1281 30.0839 75.5224 30.685 74.8218 31.1913C75.5359 30.9201 76.3179 30.3731 76.7654 29.894C77.579 29.2883 78.3112 28.5742 79.1158 27.9595C80.4311 27.2363 81.2899 25.9435 82.438 25.0079C82.9668 24.6282 83.9929 23.4892 84.6347 22.7841C85.7692 21.6993 86.8269 20.5331 87.8755 19.3715C88.1829 19.0912 87.767 19.4121 87.6224 19.5025Z" fill="#DBDBDB"/>
<path d="M94.7053 18.5487C94.6963 18.5397 94.6827 18.5352 94.6691 18.5261C94.6375 18.3363 94.5742 18.1555 94.4657 18.0063C94.4115 17.8255 94.3121 17.6583 94.1448 17.5543C94.0725 17.5272 93.9911 17.5046 93.9053 17.482C93.3222 16.8808 92.2238 15.796 91.7357 17.2424C91.6091 17.7487 91.591 18.6346 92.2103 18.8018C92.3278 18.8109 92.4046 18.7973 92.4453 18.8154C92.4905 18.829 92.5402 18.8425 92.5899 18.8561C92.8566 19.4753 93.173 20.1443 93.842 20.3477C94.181 20.4516 94.633 20.3838 94.8002 20.0358C95.0172 19.5883 95.0127 18.9646 94.7053 18.5487Z" fill="#262626"/>
<path d="M61.9351 75.2883C62.0074 73.191 61.5509 71.0892 60.7599 69.1456C60.7011 68.9874 60.6379 68.8337 60.5746 68.6755C60.3621 68.0156 60.1226 67.3647 59.8649 66.7274C59.3316 65.5477 58.5089 63.4368 57.3247 62.3068C57.3157 62.108 57.3021 61.9362 57.2931 61.8503C57.2207 60.4175 56.4207 59.2242 55.7517 58.0128C55.6207 57.6919 55.5393 57.4704 55.4805 57.2896C55.4444 56.7246 55.3314 55.7483 55.3359 55.9969C55.3043 55.5766 55.2319 55.1562 55.0602 54.7675C54.9833 54.4194 54.902 54.0714 54.798 53.7324C54.3505 52.2815 53.6725 51.7843 53.0443 51.9199C52.8409 51.7074 52.5923 51.5583 52.2668 51.4995C51.3764 51.6848 50.8927 52.6024 50.6577 53.7008C50.4543 53.9539 50.269 54.2658 50.1017 54.6093C49.7899 54.8895 49.6 55.2782 49.4463 55.667C48.9537 56.7834 48.7638 57.9902 48.5197 59.179C48.4655 59.4909 48.3887 59.8389 48.3028 60.2186C48.0677 60.752 47.8598 61.2944 47.679 61.8503C47.3943 62.3249 47.1502 62.9668 46.9468 63.6493C46.7253 63.7306 46.5174 63.916 46.3501 64.2278C45.7083 65.1861 45.7445 66.4291 45.5772 67.5319C45.3783 69.01 45.2563 70.5513 45.4055 72.0474C45.1795 73.0012 44.9715 73.973 44.8359 75.5866C44.8676 76.6217 45.0122 77.7246 45.6721 78.5608C46.1739 79.1167 46.6891 79.1303 47.105 78.8681C47.2451 80.0162 47.3219 81.223 48.0225 82.1768C48.2847 82.448 48.5333 82.57 48.7638 82.5836C48.8316 82.7463 48.913 82.9045 49.026 83.0491C49.704 84.0661 50.382 83.7723 50.8475 83.1033C50.8882 83.1576 50.9244 83.2164 50.9651 83.2706C50.9877 83.3068 51.0103 83.3429 51.0329 83.3791C51.3764 84.1203 51.8736 84.7667 52.529 85.2187C52.9629 85.6526 53.4556 86.0142 54.0522 86.1182C54.1697 86.0685 54.2873 86.0368 54.4229 86.0413C54.4319 86.0368 54.4455 86.0368 54.4545 86.0323C54.5042 86.0142 54.5133 86.0142 54.4907 86.0233C54.5313 86.0052 54.5675 85.9916 54.6082 85.9735C54.7619 85.9238 54.9788 85.9419 55.1415 85.9555C55.1777 85.96 55.2139 85.9645 55.2545 85.9735C55.8647 85.9148 56.3348 85.6165 56.6874 85.1645C56.7326 85.1599 56.7733 85.16 56.8185 85.1554C57.9078 84.9837 58.7169 84.1113 59.2593 83.1983C59.3542 83.0175 59.431 82.8322 59.5124 82.6468C59.5983 82.5745 59.6841 82.5022 59.7745 82.4253C59.2999 82.8321 60.2627 82.0863 60.4435 81.7609C61.6549 79.9981 62.1611 77.589 61.9351 75.2883Z" fill="#858585"/>
<path d="M56.0366 83.6685C55.5213 83.7815 54.9879 83.8538 54.4546 83.8538C54.4546 83.7001 54.432 83.5419 54.3777 83.3973C54.3461 83.2933 54.4139 83.6233 54.3958 83.7227C54.3958 83.7724 54.3868 83.8131 54.3822 83.8538C54.328 83.8538 54.2783 83.8493 54.224 83.8493C54.111 83.6866 53.998 83.5284 53.8308 83.4154C53.7856 83.3702 53.7359 83.3476 53.6816 83.334C53.6545 82.9724 53.5551 82.6198 53.3607 82.317C53.0217 81.8469 52.5019 81.5441 52.0318 81.2006C51.8556 81.0288 51.6838 80.8525 51.5075 80.6807C51.5663 80.2333 51.5663 79.7768 51.5346 79.3564C51.5437 78.8366 51.4216 78.2806 51.2182 77.8151C50.7843 76.0523 50.8612 76.8116 50.4589 75.5958C50.2781 75.2116 50.0521 74.8454 49.808 74.4974C49.6498 73.6657 49.4102 72.8431 49.026 72.0882C49.0532 71.9526 49.0803 71.817 49.0848 71.7357C49.1526 69.661 49.1164 70.2893 49.2746 68.3231C49.252 67.2518 49.4057 67.2518 49.5232 65.7331C49.5368 65.5252 49.5458 65.3128 49.5594 65.1048C49.582 65.028 49.6046 64.9511 49.6272 64.8743C49.808 64.2008 50.0024 63.4686 50.0882 62.7364C50.3414 62.1171 50.5764 61.6922 50.712 61.0594C51.2454 60.056 51.7109 59.0209 52.0816 57.9497C52.0047 58.1531 51.9234 58.3565 51.8465 58.5599C51.9686 58.2525 52.077 57.9452 52.19 57.6333C52.2443 57.5022 52.2985 57.3666 52.3573 57.24C52.5381 57.0186 52.7324 56.8152 52.8454 56.5485C52.9449 56.3632 53.0262 56.1236 53.094 55.866C53.3833 55.319 53.5912 54.7269 53.6545 54.1077C53.7449 52.8918 53.7314 51.3957 52.7731 50.5188C52.398 50.0984 51.6974 50.2476 51.3945 50.6951C51.3674 50.7358 51.3448 50.7764 51.3177 50.8126C51.2137 50.9618 51.1143 51.1154 51.0194 51.2691C50.7391 51.685 50.5357 52.2093 50.4363 52.6342C50.2871 52.8692 50.1425 53.1088 49.9888 53.3393C49.8939 53.4975 49.8125 53.6557 49.7266 53.8184C49.0893 54.7812 48.5831 55.8614 48.3074 56.9869C48.3119 56.9734 48.3119 56.9598 48.3164 56.9508C48.3119 56.9688 48.3074 56.9914 48.3028 57.0095C48.2893 57.0728 48.2757 57.1361 48.2576 57.1948C48.2441 57.2446 48.235 57.2943 48.2215 57.3395C48.0136 57.7372 47.8237 58.1395 47.6791 58.5689C47.6836 58.5508 47.6926 58.5373 47.6972 58.5192C47.6881 58.5418 47.6791 58.5644 47.67 58.587C47.661 58.6096 47.652 58.6277 47.6429 58.6503C47.4214 59.2514 47.4802 59.0616 47.6203 58.709C47.5842 58.7994 47.548 58.8898 47.5118 58.9802C46.6078 61.0775 46.635 60.5803 46.2327 62.9488C45.8214 64.3003 45.4552 65.6698 45.4914 67.0936C45.4688 67.2609 45.4507 67.4281 45.4281 67.5954C45.401 67.7897 45.392 67.8711 45.392 67.8846C45.3016 68.3773 45.2383 68.87 45.2247 69.3762C45.1931 69.991 45.2518 70.5966 45.3422 71.1978C45.3061 71.9752 45.3332 72.7617 45.3739 73.5346C45.3874 74.19 45.4598 74.8319 45.5728 75.4647C45.6089 76.0478 45.7174 76.6037 45.8892 77.1371C46.0474 77.8648 46.3864 78.5292 46.7615 79.1711C46.9694 79.6231 47.1864 80.0706 47.426 80.509C47.8554 81.3136 48.1853 82.213 48.8091 82.891C49.0667 83.1487 49.3786 83.3747 49.7221 83.5012C49.7266 83.5012 49.7312 83.5058 49.7357 83.5058C49.8442 83.5645 49.9707 83.6142 50.0928 83.6007C50.156 83.5871 50.2148 83.5645 50.2736 83.5419C50.7391 83.9352 51.2634 84.247 51.738 84.6267C52.181 84.8798 52.4386 85.5262 52.9765 85.0697C53.2296 84.9612 53.4285 84.7307 53.5054 84.464C53.5234 84.4143 53.537 84.36 53.5551 84.3058C53.5822 84.3148 53.6048 84.3239 53.6319 84.3284C54.4817 84.351 55.2908 84.003 56.0366 83.6685Z" fill="#4A4A4A"/>
<path d="M47.6972 58.5825C47.6791 58.6322 47.6565 58.682 47.6384 58.7272C47.6565 58.6865 47.6701 58.6458 47.6882 58.6051C47.6882 58.5961 47.6927 58.587 47.6972 58.5825Z" fill="#4A4A4A"/>
<path d="M49.5369 65.733C49.5504 65.5658 49.564 65.3804 49.573 65.1725C49.5866 64.9691 49.573 65.1544 49.5369 65.733Z" fill="#4A4A4A"/>
<path d="M60.0458 73.6792C59.9599 73.1368 59.9283 72.5673 59.5893 72.1153C59.2413 71.252 58.5859 71.4282 58.3689 72.2554C58.2695 72.626 58.2378 73.0102 58.2921 73.3854C58.3011 73.4306 58.3101 73.4758 58.3192 73.5165C58.3147 73.5029 58.3147 73.4939 58.3101 73.4803C58.3192 73.5391 58.3237 73.6024 58.3282 73.6611C58.3282 73.8962 58.3011 74.2035 58.2604 74.4928C58.1158 74.6736 57.9666 74.8544 57.7858 74.9945C57.1982 75.3154 56.9089 75.6725 56.5157 76.1878C56.0863 76.5991 55.8874 77.1686 55.7518 77.7291C55.7021 77.9054 55.6976 77.8828 55.7609 77.7201C55.5936 78.0907 55.5349 78.502 55.5529 78.9043C55.6072 79.6772 55.5891 80.5541 56.1903 81.1236C57.0536 82.1587 57.5598 81.7338 58.1655 80.7575C58.2469 80.6671 58.5904 80.0388 58.6672 79.8987C59.1915 79.3337 59.6842 78.719 59.7611 77.928C59.7791 77.8647 59.8153 77.7246 59.8515 77.6252C59.8515 77.6206 59.856 77.6116 59.856 77.6071C59.8876 77.5302 59.9283 77.4172 59.9464 77.3449C60.082 76.8296 60.0639 76.2918 60.1679 75.7674C60.1679 75.8307 60.3035 75.0171 60.2718 74.8228C60.3441 74.5832 60.0413 73.5572 60.0458 73.6792Z" fill="#BFBFBF"/>
<path d="M58.5272 66.5375C58.1385 65.2086 57.8266 64.3136 57.2752 63.0842C57.1034 62.4062 56.778 61.8095 56.4344 61.2039C56.1858 60.3631 55.6254 59.6716 55.3587 58.8399C55.1914 58.3201 54.762 57.9585 54.518 57.4839C54.2377 56.7019 53.858 55.9652 53.5281 55.2058C53.7812 56.2997 53.9982 57.1358 54.2332 58.1393C54.3824 58.5868 54.6988 58.9619 54.8298 59.4185C55.0152 60.1462 55.2909 60.8332 55.6389 61.4931C55.8016 62.0581 56.0412 62.5824 56.3938 63.057C57.1396 64.9916 58.4052 66.4923 58.7713 68.4991C58.7803 68.5805 58.7758 68.5579 58.7984 68.6257C58.7939 67.9251 58.7261 67.2109 58.5272 66.5375Z" fill="#BFBFBF"/>
<path d="M56.2174 68.8653C56.1813 68.2823 56.1315 67.6992 55.9417 67.1432C55.7609 66.6099 55.8649 66.1217 55.327 65.5025C54.9835 65.3126 54.7529 64.7069 54.3055 64.8787C54.2331 64.9103 54.1699 64.9555 54.1021 64.9962C54.0975 64.9872 54.0975 64.9736 54.093 64.9646C54.093 64.9781 54.093 64.9872 54.0975 65.0007C53.5642 65.3578 53.2161 66.0132 53.1031 66.6325C52.9721 67.3059 53.1348 67.9342 53.3834 68.5399C53.3608 68.784 53.3653 69.0281 53.4105 69.2857C53.6365 70.1987 54.3055 70.9491 55.2095 71.2157C55.7428 71.3061 56.0231 70.6236 56.1903 70.2168C56.3485 69.7784 56.2536 69.3128 56.2174 68.8653Z" fill="#BFBFBF"/>
<path d="M59.7883 83.4425C59.6933 83.2617 59.2278 83.4651 59.0786 83.6187C59.0199 83.6549 58.9566 83.6866 58.8978 83.7182C59.0153 83.5916 59.1374 83.4289 59.273 83.3204C59.282 83.3114 59.2911 83.3069 59.3001 83.2978C59.4402 83.1939 59.5984 83.1577 59.7747 83.2933C59.7024 83.1939 59.6029 83.1532 59.5035 83.1396C59.5216 83.1261 59.5442 83.108 59.5623 83.0944C59.5306 83.108 59.499 83.1216 59.4673 83.1351C59.4221 83.1351 59.3769 83.1487 59.3317 83.1577C59.4583 83.0538 59.5849 82.9498 59.7069 82.8413C58.9566 83.2526 58.1656 83.6142 57.4921 84.1521C57.3881 84.2244 57.2751 84.3239 57.1576 84.4278C56.5565 84.6267 55.9734 84.8663 55.3993 85.1284C54.8298 85.151 54.2648 85.2143 53.7043 85.2912C53.6275 85.3092 53.5416 85.3183 53.4648 85.3364C53.4557 85.3183 53.4467 85.2957 53.4377 85.2776C53.4015 85.246 53.3608 85.2279 53.3156 85.2143H53.3111C53.1665 85.1691 52.9902 85.1917 52.8455 85.1556C52.2896 85.1058 51.7291 85.1194 51.1686 85.1375C51.033 85.1194 50.9426 85.1284 50.8884 85.1601C50.8793 85.1601 50.8703 85.1556 50.8658 85.1556C50.807 85.142 50.7573 85.1646 50.7166 85.2008C50.6714 85.2053 50.6262 85.2053 50.581 85.2143C50.4273 85.368 50.4409 85.6437 50.5177 85.8381C50.5539 85.8878 50.6036 85.9194 50.6533 85.9466V85.9511C50.6624 85.9511 50.6669 85.9556 50.6759 85.9556C50.7392 85.9827 50.807 85.9963 50.8839 86.0008C51.033 86.0324 51.1867 86.0686 51.3359 86.0957C51.5799 86.1319 51.824 86.1545 52.0726 86.168C52.0952 86.1771 52.1178 86.1816 52.1404 86.1906C52.1269 86.4528 52.1901 86.7195 52.3077 86.9274C52.3619 87.054 52.493 87.0992 52.6195 87.1308C52.6512 87.1398 52.6873 87.1444 52.719 87.1534C52.719 87.1715 52.719 87.1941 52.719 87.2167C52.7551 87.75 52.9179 88.5772 53.5461 88.6676C54.536 88.636 55.5214 88.4642 56.5067 88.3376C56.8548 88.2924 57.2028 88.2246 57.5509 88.1749C57.6322 88.1704 57.7181 88.1704 57.7995 88.1614C58.9611 88.1252 58.9159 86.0867 58.3735 85.3996C58.2379 85.2053 58.0029 85.1917 57.7859 85.1827C57.6367 85.1782 57.4831 85.1827 57.3339 85.1827C58.143 84.7759 58.934 84.3284 59.7159 83.8719C59.5125 83.9306 59.3137 83.9939 59.1103 84.0617C59.1329 84.0391 59.1645 84.021 59.1871 83.9984C59.2142 83.9713 59.2413 83.9487 59.2685 83.9216C59.4176 83.8583 59.5577 83.786 59.6979 83.7092C59.7069 83.7092 59.7159 83.7046 59.725 83.7046C59.725 83.7001 59.725 83.7001 59.725 83.6956C59.7431 83.6865 59.7566 83.6775 59.7747 83.6685C59.7883 83.6278 59.7928 83.5962 59.7928 83.5645C59.9284 83.4832 60.0595 83.4018 60.1951 83.325C60.064 83.3566 59.9284 83.4018 59.7883 83.4425Z" fill="#B1E3E9"/>
<path d="M53.6049 48.5434C53.5823 48.557 53.5642 48.5751 53.5416 48.5886C53.5687 48.5389 53.5958 48.4937 53.6229 48.444C53.6365 48.435 53.6501 48.4259 53.6681 48.4214C53.6681 48.3988 53.6636 48.3943 53.6591 48.3762C53.6727 48.3491 53.6907 48.322 53.7043 48.2948C53.6998 48.2722 53.6817 48.2451 53.6546 48.2542C53.5687 48.2903 53.5099 48.3672 53.4557 48.453C53.3336 48.5977 53.1845 48.8101 53.1077 48.8644C53.067 48.9141 53.0218 48.9593 52.9811 49.009C52.6963 49.2395 52.4206 49.4836 52.1539 49.7412C52.1449 49.7186 52.1449 49.696 52.1313 49.678C52.0997 49.6825 52.0726 49.696 52.0455 49.7096C52.2037 49.3796 52.3573 49.0497 52.5065 48.7242C52.5201 48.7062 52.5381 48.6926 52.5517 48.6745C52.5517 48.661 52.5472 48.6474 52.5472 48.6384C52.5607 48.6067 52.5788 48.5706 52.5924 48.5389C52.5879 48.3581 52.5246 48.3672 52.4342 48.4666C52.3257 48.5073 52.172 48.8372 52.0409 48.9638C51.4307 49.8452 50.929 50.6091 50.4318 51.3594C50.1425 51.6894 49.8713 52.0329 49.6137 52.39C48.8046 53.1855 47.9413 53.9313 47.2769 54.8579C47.7017 54.537 48.1583 54.2703 48.6238 54.0036C48.6148 54.0217 48.6057 54.0398 48.5967 54.0578C48.2532 54.5686 47.9277 55.0839 47.6159 55.6127C46.9333 56.6614 46.3277 57.7597 45.8576 58.9214C45.7129 59.3146 45.9299 58.849 46.0429 58.7044C46.0926 58.6276 46.1514 58.5598 46.2056 58.4829C46.0519 58.8807 45.9073 59.283 45.7853 59.6988C45.6316 60.2096 45.5773 60.7429 45.5231 61.2718C44.8361 62.5826 43.8959 64.5759 43.8733 65.1725C44.2485 64.4629 44.6507 63.7623 45.0485 63.0662C45.0349 63.143 45.0259 63.2154 45.0214 63.2741C45.0214 63.464 45.2926 63.5318 45.3649 63.3419C45.4689 63.1702 45.5547 62.9894 45.627 62.8086C45.5457 63.1792 45.4824 63.5363 45.4417 63.8798C46.3096 61.6288 47.4848 59.4638 48.669 57.3077C49.2521 56.5438 49.7855 55.7438 50.2736 54.9076C50.6533 54.2296 51.0465 53.5426 51.4262 52.8555C51.9189 52.1007 52.3799 51.3323 52.7777 50.5413C53.2026 50.0576 53.6455 49.5876 54.093 49.1175C54.2196 49.0316 54.2919 48.9548 54.3326 48.8779C54.3597 48.8644 54.3868 48.8508 54.4139 48.8372C54.4727 48.8011 54.5043 48.7333 54.5224 48.67C54.658 47.7434 54.0117 48.2496 53.6049 48.5434Z" fill="#B1E3E9"/>
<path d="M25.6938 49.5649C30.9325 45.7636 36.3023 41.8357 40.1759 36.5654C41.2562 35.0918 42.1963 33.5234 42.9693 31.8646C42.906 32.0002 42.0607 32.1855 41.9025 32.2397C41.6539 32.3301 41.4008 32.4205 41.1522 32.5154C41.098 32.538 40.8675 32.5878 40.8449 32.6375C38.0741 38.5813 33.1609 43.0832 28.0442 47.0156C26.5707 48.1456 25.0701 49.244 23.5694 50.3333C23.8316 50.1434 24.3288 50.0666 24.6361 49.9581C24.9571 49.8406 25.4136 49.7683 25.6938 49.5649Z" fill="black"/>
<path d="M42.68 32.0725C41.3285 29.7582 39.8007 27.2225 37.3644 25.9117C36.1305 25.2473 34.7203 24.9987 33.3326 25.2156C32.6908 25.3151 32.0806 25.523 31.4704 25.74C30.6658 26.0292 29.8432 26.3004 29.0703 26.6666C26.4532 27.9141 24.4734 30.26 23.1129 32.7731C21.7479 35.2952 20.9704 38.1293 20.8032 40.995C20.6179 44.2087 21.219 47.4495 22.6112 50.3559C22.6519 50.4372 24.713 49.5332 24.7356 49.583C22.4213 44.7466 22.3174 38.9971 24.2926 34.0251C25.2735 31.5527 26.7741 29.2023 28.8036 27.4666C29.3053 27.0372 29.8432 26.6485 30.4082 26.3095C30.7517 26.1061 31.1088 25.9298 31.4749 25.7626C32.3925 25.3467 29.2827 26.4496 30.5347 26.1242C30.7291 26.0744 30.9235 26.0338 31.1223 25.9976C32.4286 25.7761 33.7665 25.9569 34.9553 26.5355C37.5453 27.7875 39.1544 30.4408 40.5511 32.8364C40.6324 32.9765 42.6212 31.973 42.68 32.0725Z" fill="black"/>
<path d="M49.6227 28.1627C47.2994 24.6868 44.0676 21.6765 40.0448 20.334C37.934 19.6289 35.6514 19.3894 33.4501 19.751C32.3879 19.9227 31.389 20.2708 30.3811 20.6369C29.3189 21.0211 28.2702 21.4098 27.2894 21.9703C25.4045 23.0415 23.7909 24.5286 22.2857 26.0699C20.7806 27.6158 19.3749 29.2656 18.1499 31.0419C15.8041 34.45 14.1 38.4186 13.9961 42.5996C13.8921 46.8529 15.3792 51.2328 18.6878 54.0307C18.7692 54.0985 19.637 53.6962 19.7545 53.6555C19.8675 53.6148 20.7354 53.1944 20.8122 53.2577C18.0279 50.9028 16.5182 47.4134 16.1883 43.829C15.8267 39.9463 16.8934 36.1224 18.7511 32.7279C20.6902 29.1842 23.4383 25.966 26.4803 23.3172C27.2713 22.6302 28.1075 21.9884 29.0025 21.4369C29.4047 21.1883 29.8206 20.9578 30.25 20.7544C30.4082 20.6776 30.5709 20.6098 30.7336 20.5374C31.4478 20.212 29.6669 20.899 29.7709 20.8855C30.1325 20.8358 30.4941 20.6821 30.8511 20.6098C32.9077 20.1894 35.0593 20.3114 37.0797 20.8538C41.4731 22.0381 45.0123 25.2156 47.4938 28.9356C47.6068 29.0983 49.5323 28.0316 49.6227 28.1627Z" fill="black"/>
<path d="M18.8957 54.1482C20.1975 57.0771 20.4687 60.2909 20.4145 63.4639C20.3557 66.8629 20.0529 70.2575 19.9308 73.652C19.6777 80.7484 19.7636 87.8538 20.1794 94.9367C20.3602 97.9831 20.5772 101.219 22.4711 103.751C24.0305 105.843 26.4035 107.181 28.8714 107.914C31.9631 108.831 35.231 108.75 38.4131 108.492C41.9387 108.207 45.4281 107.873 48.9718 107.873C56.9858 107.868 64.9997 108.108 73.0137 108.239C73.3256 108.244 73.7866 107.968 74.0804 107.864C74.329 107.773 74.5821 107.683 74.8307 107.588C74.9121 107.556 75.0567 107.466 75.1381 107.466C67.9332 107.349 60.7238 107.213 53.5189 107.118C50.0566 107.073 46.6259 107.163 43.1772 107.484C39.7962 107.801 36.3384 108.18 32.962 107.602C30.3585 107.154 27.7595 106.119 25.7978 104.307C23.5965 102.273 22.7739 99.4928 22.4846 96.5865C22.1366 93.1106 22.0552 89.5895 21.9784 86.1001C21.897 82.5157 21.897 78.9268 21.9874 75.3424C22.0823 71.523 22.3671 67.7127 22.5117 63.8933C22.6473 60.327 22.4937 56.6794 21.0247 53.3707C20.993 53.312 18.9093 54.1798 18.8957 54.1482Z" fill="black"/>
<path d="M48.5424 28.809C53.8534 28.5288 59.1825 28.6328 64.4754 29.13C64.7692 29.1571 65.063 29.1887 65.3568 29.2158C65.506 29.2294 65.6506 29.2475 65.7953 29.261C65.9987 29.2836 66.1704 29.2339 66.2156 29.3966C66.2653 29.5639 66.1071 30.0294 66.0845 30.2057C66.0484 30.5086 66.0258 30.8114 66.0167 31.1142C65.9806 32.1764 66.1026 33.2432 66.3693 34.2692C66.9162 36.3665 68.0824 38.2694 69.7231 39.6842C71.5266 41.2345 73.8092 42.1611 76.1777 42.3193C76.4715 42.3374 76.9687 42.0436 77.2444 41.9442C77.493 41.8538 77.7461 41.7634 77.9947 41.6684C78.0716 41.6413 78.2253 41.5419 78.3021 41.5464C73.981 41.2571 70.1345 38.3914 68.7287 34.2828C68.3762 33.2477 68.1728 32.1629 68.1366 31.069C68.1185 30.5854 68.1366 30.0972 68.1863 29.6136C68.2135 29.3424 68.2541 29.0712 68.3039 28.8045C68.3626 28.4926 68.4078 28.6328 68.1366 28.5107C67.9875 28.4429 67.7434 28.47 67.5852 28.452C64.941 28.1762 62.2877 28 59.63 27.9231C56.6423 27.8327 53.65 27.8734 50.6623 28.0316C50.3323 28.0497 49.9075 28.2938 49.5956 28.4068C49.2927 28.5243 48.8724 28.791 48.5424 28.809Z" fill="black"/>
<path d="M75.9201 43.0651C77.3845 51.8023 77.145 60.7248 77.1721 69.5478C77.1992 78.5607 77.2806 87.5736 77.2535 96.5864C77.2399 100.795 76.7789 105.69 73.0227 108.32C73.2894 108.135 73.7776 108.058 74.0895 107.945C74.4149 107.828 74.8624 107.751 75.1471 107.547C78.3699 105.292 79.2242 101.219 79.3507 97.5221C79.5089 93.0699 79.3598 88.586 79.3462 84.1293C79.3191 75.1526 79.3914 66.1668 79.2287 57.1901C79.1383 52.2046 78.8716 47.2145 78.0445 42.2922C78.0625 42.4097 75.8975 42.9114 75.9201 43.0651Z" fill="black"/>
<path d="M78.4106 41.6097C82.9667 35.6252 87.7263 29.8034 92.6938 24.158C94.095 22.5624 95.5142 20.9849 96.9471 19.421C96.9154 19.4572 96.6397 19.525 96.6352 19.525C96.3821 19.6154 96.1335 19.7058 95.8849 19.7962C95.6363 19.8866 95.3832 19.977 95.1346 20.0719C95.0577 20.1035 94.8815 20.1306 94.8272 20.1939C89.7513 25.74 84.8651 31.4623 80.196 37.3518C78.8761 39.0152 77.5744 40.6921 76.2907 42.3826C76.3133 42.3555 76.6116 42.2741 76.6026 42.2786C76.8557 42.1882 77.1043 42.0978 77.3529 42.0074C77.6015 41.917 77.8546 41.8266 78.1032 41.7317C78.1755 41.7046 78.3654 41.6684 78.4106 41.6097Z" fill="black"/>
<path d="M69.2485 28.6689C69.2757 28.1401 69.6056 27.7966 70.0666 27.5796C69.9627 27.6203 69.8633 27.661 69.7593 27.7016C68.2948 28.1356 67.8473 28.3073 68.4169 28.226C68.4847 28.2169 68.557 28.2079 68.6248 28.2079C68.7649 28.2079 68.905 28.2214 69.0406 28.2531C69.3028 28.3164 69.5514 28.4474 69.7729 28.6011C70.2927 28.9627 70.6814 29.487 71.0385 30.0023C71.9967 31.3674 72.9323 32.7505 73.877 34.1246C74.6771 35.2862 75.4409 36.7371 76.6885 37.4874C78.0987 38.3372 79.4185 37.6366 80.8062 37.1123C80.7565 37.1304 81.118 36.9993 81.1135 36.9902C81.1135 36.9857 80.7519 37.1123 80.8016 37.0942C80.2999 37.2705 79.7982 37.4513 79.301 37.6411C79.2468 37.6637 79.188 37.6818 79.1338 37.7044C79.7394 37.4874 80.3451 37.2705 80.9508 37.0535C79.2377 37.5281 77.945 36.136 77.05 34.8704C75.9426 33.2929 74.8624 31.6973 73.7731 30.1108C73.0318 29.0305 72.0509 27.1954 70.4735 27.4621C69.6689 27.5977 68.8417 27.9864 68.0914 28.2938C67.5716 28.5062 67.1603 28.8407 67.1286 29.4418C67.1332 29.3831 68.1004 29.1028 68.1954 29.0667C68.2993 29.0305 69.244 28.7729 69.2485 28.6689Z" fill="black"/>
<path d="M74.1437 29.374C79.9429 24.9896 85.742 20.6052 91.5366 16.2208C90.827 16.4785 90.1219 16.7361 89.4123 16.9938C90.4112 18.187 91.2609 19.8685 92.8475 20.3657C93.4803 20.5646 94.1176 20.551 94.7413 20.3431C95.2702 20.1668 95.7945 19.9679 96.3188 19.7736C96.6307 19.656 96.9607 19.5566 97.2319 19.3622C98.5562 18.4311 97.7923 16.5418 96.5403 15.9677C94.8046 15.1677 92.6305 16.2886 91.0259 16.9214C90.8903 16.9757 91.2067 16.8672 91.1344 16.8898C91.3468 16.822 91.5593 16.7406 91.7717 16.6638C92.2056 16.5056 92.6441 16.3519 93.0735 16.1802C91.505 16.7135 91.0621 16.8762 91.7401 16.6774C91.8576 16.6412 91.9751 16.6096 92.0971 16.5824C92.2553 16.5463 92.4135 16.5192 92.5763 16.5011C92.9243 16.4604 93.2769 16.4559 93.6204 16.5056C94.2306 16.596 94.7911 16.8627 95.2069 17.3237C95.903 18.0921 96.0883 19.3487 95.2114 20.0583C95.1301 20.1261 95.0351 20.1713 94.9493 20.2346C96.2239 19.299 97.0059 19.638 96.2013 19.7238C95.9753 19.7464 95.7403 19.7419 95.5143 19.7103C94.9945 19.6425 94.5063 19.4436 94.0769 19.1362C93.0192 18.3769 92.3548 17.1972 91.5321 16.2163C91.4643 16.135 89.5659 16.8672 89.4077 16.9892C83.6086 21.3736 77.8094 25.758 72.0148 30.1424C72.2679 29.9526 72.7832 29.8758 73.0815 29.7673C73.4024 29.6588 73.8725 29.582 74.1437 29.374Z" fill="black"/>
<path d="M77.9134 38.1609C78.0851 38.3236 78.3066 38.4186 78.5417 38.4412C78.6547 38.4502 78.7722 38.4457 78.8807 38.4186C79.0976 38.3688 79.3055 38.2784 79.5135 38.2061C79.8751 38.075 80.2412 37.944 80.6028 37.8084C80.7791 37.7406 80.9599 37.6818 81.1361 37.605C81.1813 37.5869 81.1859 37.5824 81.1542 37.5959C81.109 37.6095 81.0683 37.623 81.0277 37.6366C80.8152 37.7089 80.6028 37.7858 80.3903 37.8626C80.1191 37.962 79.8434 38.0615 79.5722 38.1609C79.4095 38.2197 79.2468 38.2739 79.0886 38.3462C79.075 38.3508 79.0569 38.3598 79.0434 38.3643C79.2061 38.301 79.3688 38.2423 79.527 38.179C79.5225 38.179 79.518 38.1835 79.5135 38.1835C79.9429 38.0298 80.3723 37.8716 80.8017 37.718C81.0503 37.6366 81.1271 37.6095 81.0367 37.6366C81.0277 37.6411 81.0186 37.6411 81.0141 37.6456C81.0277 37.6411 81.0412 37.6366 81.0548 37.6366C80.7022 37.7315 80.3135 37.6411 80.0468 37.3925C80.0333 37.379 79.6943 37.51 79.7349 37.4965C79.4818 37.5869 79.2332 37.6773 78.9846 37.7677C78.736 37.8581 78.4829 37.9485 78.2343 38.0434C78.1801 38.066 78.1258 38.0841 78.0671 38.1067C78.0038 38.1202 77.9586 38.1383 77.9134 38.1609Z" fill="black"/>
<path d="M76.0918 42.36C75.8297 43.0742 75.6895 43.8245 75.676 44.5838C75.6895 44.5793 75.7031 44.5748 75.7167 44.5748C76.0828 44.4618 76.4399 44.3217 76.8015 44.1906C77.1495 44.064 77.5066 43.9465 77.8501 43.7974C77.9721 43.7431 78.0806 43.6708 78.1665 43.5714C78.3337 43.377 78.4061 43.1103 78.3428 42.8572C78.3428 42.8617 77.3574 43.2052 77.2761 43.2324C77.0275 43.3228 76.7743 43.4132 76.5257 43.5081C76.4941 43.5216 76.2139 43.6166 76.2184 43.6301C76.3088 44.0008 76.1099 44.394 75.7664 44.5522C75.7799 44.5477 75.789 44.5432 75.8025 44.5341C75.7935 44.5386 75.7845 44.5432 75.7754 44.5432C76.2952 44.3533 76.815 44.159 77.3348 43.9691C77.4795 43.9194 77.6241 43.8652 77.7687 43.8154C77.7823 43.8109 77.7959 43.8064 77.8094 43.8064C77.823 43.047 77.9631 42.2967 78.2253 41.5826C78.2207 41.5961 77.8772 41.7001 77.9134 41.6865C77.6603 41.7769 77.4117 41.8673 77.1631 41.9577C76.9145 42.0481 76.6613 42.1385 76.4127 42.2334C76.3585 42.256 76.3042 42.2741 76.2455 42.2967C76.1867 42.3193 76.137 42.3374 76.0918 42.36Z" fill="black"/>
<path d="M32.1484 56.711C32.1439 61.8051 32.2162 66.8991 32.3699 71.9931C32.519 76.8792 32.6094 81.8106 33.0569 86.6831C33.2377 88.6538 33.5857 90.6788 34.5892 92.4145C35.5745 94.1231 37.1611 95.3163 39.0007 95.9853C43.367 97.5763 47.9729 96.1932 52.3844 95.5966C57.9124 94.8508 63.5126 95.1898 69.0587 95.5243C69.3525 95.5423 69.8452 95.2485 70.1254 95.1491C70.374 95.0587 70.6271 94.9683 70.8757 94.8734C70.9526 94.8463 71.1062 94.7468 71.1831 94.7513C66.2156 94.4485 61.221 94.1502 56.2535 94.6248C51.7245 95.0587 47.0779 96.6633 42.5218 95.6237C40.6821 95.2033 38.9012 94.3491 37.6356 92.9253C36.2842 91.4065 35.6695 89.4177 35.3666 87.4425C35.0231 85.2006 34.9824 82.9134 34.8694 80.6534C34.7429 78.1087 34.6389 75.5639 34.5485 73.0192C34.3541 67.3285 34.2637 61.6333 34.2728 55.9426C34.2728 55.9878 33.2965 56.2861 33.2061 56.3178C33.1066 56.3494 32.1484 56.6206 32.1484 56.711Z" fill="black"/>
<path d="M35.0095 56.2771C39.2312 52.0961 42.7026 47.2145 45.279 41.8583C45.5457 41.3023 45.8123 40.7373 46.1649 40.2266C46.3593 39.9418 46.5853 39.6706 46.8429 39.4446C46.9288 39.3678 47.0192 39.2954 47.1141 39.2322C47.2135 39.1644 47.3175 39.1011 47.4215 39.0423C46.0926 39.4582 45.7355 39.5938 46.3502 39.4491C47.9051 39.2141 49.4961 39.2276 51.0691 39.1689C52.746 39.1011 54.4275 39.0378 56.1044 38.97C56.927 38.9384 57.7451 38.9067 58.5678 38.8751C58.9068 38.8615 59.3543 38.7756 59.6887 38.8299C59.7656 38.8254 59.8379 38.8254 59.9147 38.8208C60.0187 38.9293 60.1181 39.0423 60.2221 39.1508C60.4029 39.3452 60.5792 39.535 60.76 39.7294C63.0607 42.2108 65.3613 44.6923 67.6575 47.1738C68.1411 47.6981 68.6926 48.2044 69.0813 48.8055C69.5062 49.4654 69.5875 50.2293 69.6779 50.9932C69.8813 52.6927 70.0621 54.3922 70.2294 56.0963C70.8848 62.7588 71.2871 69.4438 71.4317 76.1335C71.5131 79.8489 71.513 83.5689 71.4362 87.2888C71.4046 88.7578 71.4724 90.281 71.1017 91.7184C70.9526 92.2879 70.7401 92.862 70.3966 93.3456C70.252 93.5445 70.0893 93.7343 69.8949 93.888C69.8 93.9649 69.696 94.0191 69.5966 94.0869C71.0746 93.0699 71.6803 93.5264 70.7627 93.549C70.4373 93.5581 69.9989 93.8157 69.696 93.9242C69.3932 94.0327 68.9592 94.3129 68.6383 94.3219C69.2666 94.3084 69.8587 94.0236 70.4418 93.8112C71.052 93.5897 71.7165 93.4225 72.1956 92.9569C72.9775 92.193 73.2759 90.9997 73.416 89.9511C73.6239 88.3827 73.5561 86.76 73.5832 85.1825C73.6103 83.3971 73.6194 81.6117 73.6149 79.8263C73.5832 72.6892 73.2578 65.5476 72.6385 58.4376C72.4849 56.6613 72.3131 54.8849 72.1233 53.1086C72.0283 52.2226 71.9289 51.3322 71.8249 50.4463C71.7345 49.6869 71.6848 48.8824 71.3006 48.1998C70.9029 47.4902 70.2475 46.9116 69.7005 46.3195C69.0858 45.6596 68.4756 44.9952 67.8609 44.3352C66.636 43.0109 65.4065 41.6865 64.1816 40.3622C63.5669 39.7022 62.9567 39.0378 62.342 38.3779C62.2923 38.3236 62.238 38.2694 62.1883 38.2106C62.1115 38.0434 61.9849 37.9892 61.8131 38.0524C61.6097 38.0208 61.3476 38.0705 61.1397 38.0796C60.6922 38.0976 60.2447 38.1157 59.7972 38.1338C57.9711 38.2061 56.1405 38.2784 54.3145 38.3508C52.5652 38.4186 50.7753 38.3824 49.0351 38.5903C48.3752 38.6672 47.774 38.8751 47.1503 39.0966C46.3819 39.3723 45.505 39.5983 44.8541 40.1136C43.5885 41.1125 43.0461 42.916 42.3274 44.2991C41.5048 45.8675 40.6053 47.3953 39.629 48.8688C37.6718 51.8204 35.4118 54.564 32.8942 57.0545C32.9303 57.0184 33.1925 56.9551 33.2061 56.9506C33.4592 56.8602 33.7078 56.7698 33.9564 56.6794C34.2366 56.5709 34.7926 56.4895 35.0095 56.2771Z" fill="black"/>
<path d="M50.4227 53.7097C47.7469 58.5009 44.9761 63.4684 44.1535 68.9738C43.4936 73.3898 44.2349 78.2895 47.0644 81.8648C48.556 83.7451 50.7753 85.4627 53.2749 85.4898C54.5721 85.5034 55.8151 84.9339 57.0039 84.4774C58.0841 84.066 59.0017 83.4242 59.7882 82.579C63.2731 78.8364 63.9873 73.1367 62.2742 68.4404C61.7273 66.9352 61.0086 65.5024 60.3215 64.0605C59.5757 62.5011 58.8345 60.9417 58.0887 59.3868C56.6016 56.268 55.1145 53.1538 53.6274 50.035C53.6229 50.0304 51.6386 50.6768 51.503 50.8079C50.6849 51.5989 50.3459 52.7108 50.5809 53.8227C50.5629 53.7368 52.7279 53.1673 52.7053 53.0498C52.4703 51.9379 52.8093 50.826 53.6274 50.035C52.9178 50.2926 52.2127 50.5502 51.503 50.8079C54.0252 56.0918 56.588 61.3621 59.0695 66.6686C60.1588 69.0054 61.0357 71.3965 61.0719 74.0045C61.1035 76.4453 60.5023 78.8952 59.3181 81.0331C58.7757 82.014 58.1113 82.9451 57.2977 83.7225C56.9044 84.0977 56.475 84.4367 56.0095 84.7169C55.8874 84.7892 55.7609 84.8525 55.6388 84.9248C55.0693 85.2638 56.6965 84.5678 56.6558 84.5678C56.3033 84.5723 55.9371 84.7034 55.5801 84.7124C53.1799 84.7712 51.0013 83.2163 49.4961 81.467C46.635 78.1403 45.7219 73.4802 46.1468 69.1998C46.7299 63.3147 49.7176 57.9992 52.5426 52.9323C52.5291 52.9549 52.2036 53.0453 52.2307 53.0362C51.9776 53.1266 51.729 53.217 51.4804 53.3074C51.2318 53.3978 50.9787 53.4882 50.7301 53.5832C50.6668 53.6103 50.4499 53.66 50.4227 53.7097Z" fill="black"/>
</g>
<defs>
<clipPath id="clip0_41_126">
<rect width="107" height="122" fill="white"/>
</clipPath>
</defs>
</svg>
