<svg width="149" height="120" viewBox="0 0 149 120" fill="none" xmlns="http://www.w3.org/2000/svg">
<path d="M86.4127 66.9418C84.2178 64.0923 84.4111 60.072 86.8693 57.4463V57.4463C89.4846 54.6528 93.8071 54.3372 96.8004 56.721L136.656 88.4625C142.975 93.4947 143.506 102.906 137.795 108.618V108.618C132.021 114.392 122.487 113.776 117.504 107.307L86.4127 66.9418Z" fill="url(#paint0_linear_2734_4238)"/>
<path d="M40.7886 56.0376C39.1239 52.8492 40.015 48.9242 42.8932 46.767V46.767C45.9552 44.4721 50.2666 44.9146 52.7986 47.7836L86.5126 85.9854C91.8576 92.0418 90.7408 101.402 84.1211 106.03V106.03C77.4293 110.71 68.1489 108.442 64.3697 101.203L40.7886 56.0376Z" fill="url(#paint1_linear_2734_4238)"/>
<path d="M25.183 11.682C23.9165 10.0378 24.0281 7.71801 25.4465 6.2029V6.2029C26.9555 4.59102 29.4497 4.40888 31.1769 5.78443L54.1745 24.0998C57.8205 27.0035 58.1272 32.434 54.8314 35.7297V35.7297C51.4998 39.0614 45.9987 38.7059 43.1235 34.9732L25.183 11.682Z" fill="url(#paint2_linear_2734_4238)"/>
<path d="M80.9423 24.411C79.913 23.1066 79.9806 21.2485 81.1019 20.0223V20.0223C82.2948 18.7178 84.2897 18.5485 85.6853 19.6335L104.268 34.0798C107.214 36.3701 107.51 40.7145 104.903 43.3838V43.3838C102.267 46.0822 97.8596 45.8492 95.5229 42.8881L80.9423 24.411Z" fill="url(#paint3_linear_2734_4238)"/>
<path d="M6.85751 52.7238C5.97163 50.5962 6.75798 48.1401 8.71482 46.9227V46.9227C10.7966 45.6275 13.5242 46.149 14.9814 48.1207L34.3845 74.3751C37.4606 78.5374 36.2289 84.4502 31.7467 87.038V87.038C27.2157 89.654 21.4175 87.6917 19.4064 82.8617L6.85751 52.7238Z" fill="url(#paint4_linear_2734_4238)"/>
<defs>
<linearGradient id="paint0_linear_2734_4238" x1="141.5" y1="112" x2="81.5" y2="52.5" gradientUnits="userSpaceOnUse">
<stop stop-color="#13FFDA"/>
<stop offset="1" stop-color="#D9D9D9" stop-opacity="0"/>
</linearGradient>
<linearGradient id="paint1_linear_2734_4238" x1="87.1802" y1="110.007" x2="38.468" y2="40.9607" gradientUnits="userSpaceOnUse">
<stop stop-color="#13FFDA"/>
<stop offset="1" stop-color="#D9D9D9" stop-opacity="0"/>
</linearGradient>
<linearGradient id="paint2_linear_2734_4238" x1="56.9694" y1="37.6814" x2="22.3483" y2="3.34881" gradientUnits="userSpaceOnUse">
<stop stop-color="#13FFDA"/>
<stop offset="1" stop-color="#D9D9D9" stop-opacity="0"/>
</linearGradient>
<linearGradient id="paint3_linear_2734_4238" x1="106.632" y1="44.9261" x2="78.5948" y2="17.7666" gradientUnits="userSpaceOnUse">
<stop stop-color="#13FFDA"/>
<stop offset="1" stop-color="#D9D9D9" stop-opacity="0"/>
</linearGradient>
<linearGradient id="paint4_linear_2734_4238" x1="33.479" y1="89.7458" x2="6.21197" y2="42.971" gradientUnits="userSpaceOnUse">
<stop stop-color="#13FFDA"/>
<stop offset="1" stop-color="#D9D9D9" stop-opacity="0"/>
</linearGradient>
</defs>
</svg>
