<svg width="159" height="159" viewBox="0 0 159 159" fill="none" xmlns="http://www.w3.org/2000/svg">
<path d="M148.365 56.1652C147.577 55.0649 146.788 53.971 145.974 52.8898C143.481 49.5635 141.07 45.9383 138.24 42.8982C137.744 42.3703 137.426 41.8043 137.242 41.2255C136.695 40.9966 136.224 40.9966 135.467 40.6849C135.429 40.6277 135.378 40.5895 135.334 40.5386C133.718 40.4114 132.096 40.297 130.468 40.2206C130.201 40.2079 129.934 40.2016 129.66 40.1888C125.412 40.1443 121.163 40.0934 116.915 39.9853C115.662 40.0298 114.39 39.9408 113.124 39.8645C112.597 39.8454 112.075 39.8327 111.547 39.8136C111.49 39.8136 111.439 39.8009 111.382 39.8009C111.344 39.8009 111.312 39.8009 111.274 39.8009C106.364 39.7627 101.454 39.6482 96.5503 39.4702C93.5229 39.362 90.5019 39.3112 87.4873 39.2921C83.6077 39.6482 79.6454 39.502 75.6958 39.3239C73.4698 39.3366 71.2502 39.3557 69.0178 39.3557C68.7316 39.3557 68.4709 39.3112 68.2165 39.2476C65.9459 39.4066 63.6754 39.5974 61.4113 39.8009C57.3727 40.1634 53.3404 40.6213 49.3336 41.2637C47.7182 41.7152 46.1218 42.2495 44.5573 42.8918C43.6096 43.2798 42.7447 43.1526 42.0514 42.7265C40.5632 43.1017 39.0877 43.5088 37.6185 43.9349C36.7345 44.9398 35.8886 45.9955 35.0109 46.994C32.2443 50.1359 29.395 53.176 26.6793 56.3687C26.4122 56.6803 26.1451 56.992 25.8779 57.3036C25.8716 58.6138 25.897 59.9176 25.9161 61.2341C25.9352 62.5315 25.9988 63.8035 26.0878 65.0692C27.15 66.0677 28.1612 67.168 29.0834 68.2492C29.5222 68.6117 29.9547 68.9869 30.349 69.3685C30.6798 69.6929 30.985 70.0427 31.2839 70.3988C31.5511 70.3607 31.8245 70.2907 32.0917 70.1826C32.3079 70.6151 32.5432 71.0285 32.804 71.4228C33.0457 71.9125 33.3001 72.3895 33.5863 72.8538C33.6753 72.981 33.7644 73.1082 33.8598 73.2418C34.3177 73.6297 34.7692 73.9795 35.2017 74.3675C35.2589 74.3866 35.3225 74.412 35.3861 74.4247C36.7726 75.7222 38.3308 76.867 39.8445 77.9672C39.9781 78.0563 40.1116 78.1453 40.2515 78.2344C40.7667 78.9212 41.2946 79.5954 41.8606 80.2441C42.4076 80.9183 43.1008 81.5416 43.8704 81.9995C44.2774 82.4574 44.6908 82.909 45.0851 83.3732C46.1727 85.2749 47.4384 87.1256 49.1174 88.4485C49.5308 89.0082 49.9442 89.5679 50.3512 90.1276C52.202 92.5253 53.792 95.152 55.8399 97.3843C57.2391 98.7962 58.81 100.03 60.4573 101.143C61.3159 101.76 62.219 102.32 63.0458 102.975C63.0712 102.994 63.0903 103.013 63.1157 103.038C63.7836 103.617 64.3305 104.457 65.2591 104.597C65.2972 104.59 65.329 104.571 65.3672 104.565C67.1225 106.441 68.8906 108.311 70.6523 110.181C73.0183 112.597 75.1934 115.23 77.8582 117.336C78.1253 117.533 78.4052 117.724 78.6723 117.921C78.914 118.061 79.1557 118.092 79.391 118.054C80.3132 119.155 81.1972 120.229 81.9986 120.974C82.2085 121.209 82.4374 121.4 82.6855 121.54C82.8953 121.686 83.1052 121.8 83.3024 121.87C83.4932 123.028 83.9638 124.084 84.8733 124.51C85.0196 125.33 85.3185 126.112 85.8337 126.818C86.0372 127.016 86.2216 127.143 86.3997 127.238C88.0597 124.542 89.9486 122.017 91.9329 119.549C92.1619 119.167 92.3908 118.786 92.6325 118.404C92.8551 118.073 93.0904 117.749 93.3194 117.425C93.383 117.495 93.4466 117.558 93.5102 117.615C94.0381 116.979 94.5659 116.337 95.1002 115.701C95.9079 114.69 96.7283 113.685 97.5551 112.699C99.9656 109.824 102.484 107.039 104.876 104.151C107.044 101.537 109.162 98.898 112.011 96.9964C112.622 96.5893 113.258 96.3985 113.875 96.3731C114.32 95.7689 114.778 95.1647 115.249 94.5796C116.177 93.7718 117.055 92.9959 117.856 92.2582C118.327 91.743 118.689 91.0625 118.937 90.2993C119.79 89.2562 120.521 88.1432 120.954 86.9158C122.06 85.8155 123.148 84.6961 124.267 83.6086C128.134 79.7353 131.689 75.5568 135.639 71.7662C135.645 71.7726 135.652 71.7726 135.658 71.779C136.033 71.3656 136.389 70.9712 136.714 70.5896C138.323 68.7134 140.129 66.6274 142.082 64.7003C142.241 64.5095 142.4 64.3123 142.559 64.1215C144.447 61.9019 146.425 59.7586 148.397 57.6152C148.435 57.1319 148.416 56.6485 148.365 56.1652ZM78.3352 103.573C78.3289 103.509 78.3289 103.445 78.3225 103.388C78.3162 103.255 78.3098 103.127 78.2971 103C78.6023 103.21 78.9013 103.407 79.2066 103.566C79.3274 103.986 79.4419 104.412 79.5563 104.832C79.1557 104.431 78.7486 104.018 78.3352 103.573Z" fill="#57FFFF"/>
<path d="M83.8899 84.7597C83.5846 84.3845 83.2284 84.5307 82.8532 84.4226C82.6306 84.2763 82.637 83.9456 82.5734 83.7103C82.5988 83.5004 82.5861 83.2905 82.4525 83.157C82.4334 83.1443 82.4016 83.157 82.3889 83.1761C82.319 83.2397 82.319 83.3414 82.2935 83.4305C82.2681 83.6467 82.2426 83.8757 82.2426 84.1173C81.8928 85.1477 81.3014 86.1017 80.9007 86.8394C80.7544 87.2337 80.7544 87.8189 81.1424 88.0796C81.3459 88.1623 81.5939 88.086 81.7784 88.2132C82.0073 88.3277 82.0709 88.5821 82.1472 88.8047C82.1409 88.9319 82.1409 89.0463 82.1409 89.1481C82.2617 90.0957 82.2426 90.4646 82.4907 91.2405C82.5861 91.4631 82.815 91.6603 83.0567 91.5395C83.451 91.2278 83.4956 90.7381 83.4765 90.2484C83.4765 90.242 83.4828 90.2357 83.4828 90.2293C83.4765 90.1593 83.4701 90.0894 83.4638 90.0258C83.451 89.8604 83.4383 89.6951 83.432 89.5488C83.4065 89.3643 83.3811 89.1608 83.3429 88.9637C83.3175 88.6584 83.3302 88.3785 83.432 88.0923C83.4192 88.1432 83.4574 88.0733 83.4701 88.0287C83.5973 87.9524 83.7436 88.016 83.8644 88.0733C83.9916 88.1496 84.1634 88.086 84.246 87.9715C84.9711 87.0239 84.6086 85.5929 83.8899 84.7597ZM82.4652 86.9285C82.3317 86.7949 82.179 86.6677 82.001 86.585C81.9501 86.5659 81.9119 86.5596 81.8674 86.5532C82.0518 85.949 82.1981 85.3257 82.2872 84.7025C82.3571 85.0586 82.497 85.3893 82.7832 85.6183C82.9041 85.7391 83.0822 85.7201 83.2221 85.79C83.2984 85.8218 83.3556 85.8727 83.4065 85.9299C82.9613 85.9681 82.6624 86.3879 82.4652 86.9285Z" fill="#9EFFFF"/>
<path d="M84.8115 116.413C84.8115 116.076 84.6525 115.707 84.608 115.351C84.5571 115.256 84.6017 114.989 84.5635 114.919C84.5953 114.9 84.6207 114.874 84.6335 114.842C84.837 112.852 84.2519 110.817 84.2328 108.807C83.7876 105.175 82.1467 98.9678 81.2054 96.7991C80.5249 95.0183 80.1751 93.1357 79.6027 91.3231C79.1893 90.191 78.9731 89.6504 78.7632 88.9763C78.6614 88.442 78.5151 87.9205 78.3371 87.4054C78.3116 87.3036 78.2862 87.2018 78.2607 87.0937C77.4848 83.9837 76.6962 80.8736 75.2779 77.9862C75.2588 77.9353 75.2334 77.8844 75.2143 77.8272C75.1952 77.77 75.1634 77.6682 75.1189 77.5283C75.4687 77.6809 75.8757 77.4583 76.2319 76.5361C76.3655 75.9574 76.3718 75.3532 76.3019 74.7553C76.3337 74.6218 76.3655 74.4818 76.3973 74.3483C76.6517 74.3737 76.9251 74.2656 77.0969 74.0494C77.8664 73.1208 77.8919 71.7407 77.5611 70.6213C77.3195 69.7118 76.8361 69.5719 76.3464 69.8009C76.1556 69.273 75.9203 68.6434 75.6659 68.1918C75.6659 68.1854 75.6659 68.1854 75.6595 68.1727C75.6404 68.1028 75.6277 68.0582 75.6213 68.0328C75.6277 67.8356 75.6341 67.6448 75.6341 67.4477C75.615 66.9898 75.2588 65.9722 74.6737 66.4174C74.2158 66.8562 74.184 67.6003 74.1585 68.2045C74.1522 68.7388 74.2158 69.1967 74.3175 69.6228C74.3175 69.75 74.3175 69.8772 74.3175 70.0044C74.2603 70.0998 74.1967 70.1888 74.1395 70.2842C74.0313 70.2652 73.9169 70.2715 73.8024 70.316C73.5225 70.386 73.3699 70.6595 73.2363 70.8948C73.2363 70.9012 73.23 70.9075 73.23 70.9075C72.4604 68.2999 71.5573 65.7432 70.1645 63.3836C69.9164 62.8812 69.8401 62.7286 69.8083 62.665C69.8019 62.6522 69.8019 62.6459 69.7956 62.6332C69.7956 62.6395 69.7956 62.6332 69.7956 62.6268C69.7892 62.5759 69.7829 62.525 69.7765 62.4614C69.573 61.552 69.3377 60.2291 68.3201 59.9492C67.8113 59.7394 67.2516 60.2036 67.0226 60.6425C66.1004 62.347 66.164 64.2104 66.6219 66.0485C66.8382 69.1712 67.9512 72.1032 69.1151 74.9779C69.7065 76.2881 70.2789 77.6237 70.8959 78.9402C71.5128 80.8546 72.1933 82.7053 72.8929 83.9582C74.4765 86.6485 74.7309 88.3212 76.1556 91.9591C76.1747 92.0164 76.2001 92.0736 76.2255 92.1245C76.3019 92.3089 76.3718 92.4934 76.4545 92.6905C76.7852 93.511 77.294 94.2487 77.6057 95.0882C78.1081 96.4684 78.6042 97.8485 79.2211 99.1841C79.7871 100.195 80.3023 101.232 80.703 102.32C81.9241 105.519 82.8399 107.223 83.7812 111.72C84.0611 112.814 84.2646 113.399 84.4109 114.493C84.4045 114.524 84.4299 114.524 84.4427 114.493C84.449 114.486 84.449 114.486 84.449 114.486C84.0929 115.027 84.7289 115.854 84.8115 116.413ZM73.8469 72.7901C73.8787 72.7583 73.9105 72.7265 73.9296 72.6883C73.955 72.701 73.9805 72.7138 73.9359 72.6947C74.2158 73.2925 74.0313 72.8982 74.3175 73.5978C74.3684 73.7568 74.4129 73.9031 74.4511 74.0366C74.4129 74.3419 74.3939 74.6472 74.3684 74.9461C74.1776 74.2529 73.9868 73.5596 73.796 72.8728C73.8087 72.841 73.8278 72.8155 73.8469 72.7901Z" fill="#9EFFFF"/>
<path d="M74.5453 53.6657C74.6407 53.5257 74.7298 53.3858 74.7997 53.2332C74.9778 52.5463 74.9333 51.4587 74.2273 51.1089C73.8394 51.0453 72.9744 51.6114 72.6755 51.8976C72.1476 52.4064 71.6134 53.0933 71.1427 53.8692C70.8565 54.1681 70.5703 54.467 70.2778 54.7469C69.9343 55.1857 69.8071 55.8853 69.9916 56.4386C69.8008 57.0937 69.6926 57.7488 69.699 58.3721C69.6799 58.4102 69.6545 58.4484 69.6354 58.4865C69.54 58.601 69.3746 58.9127 69.3047 58.8618V58.8681C69.3238 58.8681 69.3301 58.8681 69.3365 58.8681C69.4382 58.8236 69.5336 58.7664 69.6163 58.6901C69.6481 58.6583 69.6736 58.6265 69.699 58.601C69.7181 58.9381 69.7753 59.2688 69.8707 59.5741C70.0552 60.1338 70.723 61.1132 71.3081 60.4009C72.0077 59.6568 72.5101 58.7918 72.9172 57.876C72.9426 58.1304 72.9871 58.4039 73.0507 58.6901C73.3306 59.7267 74.151 59.5169 74.3736 58.5756C74.5008 58.0668 74.5326 57.4689 74.3354 56.9665C74.3291 56.693 74.3164 56.4068 74.2973 56.127C74.3164 55.4528 74.3672 55.0585 74.4245 54.0918C74.4308 54.0027 74.4245 54.0854 74.4054 54.3398C74.4118 54.1745 74.4181 54.0473 74.4308 53.9519C74.4754 53.8565 74.5072 53.7611 74.5453 53.6657Z" fill="#9EFFFF"/>
<path d="M59.7403 101.194C59.7339 101.188 59.7276 101.181 59.7212 101.175C59.7212 101.175 59.7212 101.175 59.7148 101.175C59.7212 101.181 59.7339 101.188 59.7403 101.194Z" fill="#9EFFFF"/>
<path d="M66.927 104.832C65.1462 103.089 63.5434 101.207 62.017 99.2477C62.2842 98.122 62.2396 96.8118 62.0488 96.0104C61.9216 95.0564 61.4192 94.2424 60.745 93.5491C59.9182 92.4934 59.1423 91.3994 58.3155 90.3437C55.32 86.6358 52.3562 82.8834 49.0744 79.4236C47.0456 77.2103 45.0485 74.9716 43.1469 72.6502C42.4664 71.8043 41.7859 70.9457 41.1244 70.0871C40.552 69.3366 39.7952 68.0264 38.6885 68.6306C38.485 68.7833 38.3133 68.9486 38.1543 69.1331C36.7615 67.6067 35.305 66.1502 33.7723 64.7638C33.5497 64.4076 33.3207 64.0514 33.0854 63.708C33.7977 63.4282 34.4146 62.824 34.8598 62.2134C34.58 62.3978 34.3065 62.6014 33.9821 62.7095C33.5115 62.9384 32.8946 62.9321 32.4049 62.7794C32.2522 62.5886 32.0996 62.4042 31.9406 62.2198C32.0106 60.5344 32.4494 58.8617 32.4621 57.1572C32.4685 56.5403 32.8246 54.4478 31.6926 53.5638C31.5018 53.4048 31.2601 53.284 31.0247 53.4239C30.9929 53.4493 30.9675 53.4748 30.9357 53.5002C30.923 53.5002 30.9166 53.4938 30.9039 53.4938C30.7831 53.5129 30.6813 53.621 30.6241 53.7292C30.5923 53.7991 30.5732 53.8691 30.5477 53.939C30.0199 54.6577 29.5619 55.4209 29.1485 56.2096C28.6652 57.3098 28.0419 58.5182 27.7557 59.7457C27.5267 59.7012 27.2914 59.663 27.0625 59.6312C26.4074 59.6185 26.0449 60.1718 25.8859 60.7506C25.6505 61.6156 25.6887 62.5632 26.0576 63.3836C26.2229 63.7843 26.6109 63.9878 26.9225 64.2486C27.0052 64.3122 27.0815 64.3758 27.1451 64.433C26.9861 66.3156 27.5967 68.319 29.1613 69.3366C29.174 69.3493 29.1867 69.3557 29.1994 69.362C29.263 69.4193 29.3203 69.4765 29.3839 69.5401C29.3966 69.5592 29.4093 69.5719 29.422 69.591C31.1201 71.9442 33.2062 73.9285 35.4895 75.7093C37.4102 77.7382 39.0511 80.0341 40.7619 82.2474C41.7286 83.8819 42.8353 85.4274 44.1263 86.8202C44.9659 87.6343 45.8944 88.353 46.8993 88.9636C47.3381 89.1989 47.8406 89.396 48.3303 89.3515C48.3621 89.396 48.3875 89.4406 48.4193 89.4914C48.7501 89.9748 50.3591 92.6333 51.8347 94.4586C53.4628 96.4429 55.339 98.2428 57.4378 99.7247C57.8576 100.043 58.3537 100.233 58.7671 100.558C59.0787 100.768 59.3776 101.003 59.702 101.168C59.6766 101.149 59.6448 101.124 59.6066 101.092C59.6384 101.118 59.6702 101.149 59.702 101.168C59.8801 101.257 60.0645 101.334 60.268 101.359C60.6623 101.296 60.9804 101.098 61.2347 100.825C61.8135 101.346 62.3923 101.862 62.9901 102.358C64.2367 103.293 66.0048 104.342 66.9715 105.156C66.7362 105.175 66.1765 104.953 66.7043 105.182C66.7998 105.201 66.9079 105.302 66.9969 105.277C67.0478 105.137 67.016 104.953 66.927 104.832ZM30.9611 59.6948C30.9675 60.0065 30.9675 60.3118 30.9739 60.5916C30.9675 60.8206 30.9802 61.0495 30.9929 61.2848C30.8403 61.1513 30.6813 61.0304 30.5159 60.9096C30.6813 60.5089 30.8339 60.1019 30.9611 59.6948Z" fill="#9EFFFF"/>
<path d="M38.9111 57.2908C38.803 56.7947 38.6885 56.1524 38.2242 55.8853C37.8681 55.8853 37.3338 56.5022 37.2257 56.8456C36.8187 57.9332 36.7551 59.3451 37.5056 60.2991C37.4865 60.7507 37.4928 61.2086 37.4801 61.6411C37.461 62.0099 37.6773 62.3915 38.0907 62.2325C38.5104 61.9591 38.555 61.3485 38.6885 60.8969C38.9684 59.714 39.1592 58.4929 38.9111 57.2908ZM37.9444 60.509C37.8426 59.7458 37.7727 58.9762 37.9635 58.2448C37.6646 58.8045 37.5564 59.4341 37.5183 60.0765C37.213 59.2688 37.2512 58.2448 37.8172 57.5834C37.8872 57.5389 37.9635 57.5007 38.0462 57.4689C38.1606 57.8378 38.1352 58.213 38.1479 58.6328C38.1225 59.1988 38.0462 59.8539 37.9444 60.509Z" fill="#9EFFFF"/>
<path d="M117.826 49.1309C117.724 48.8193 117.514 48.5076 117.164 48.4695C116.993 48.4822 116.846 48.5585 116.738 48.6984C116.236 49.239 115.803 49.8369 115.39 50.4538C115.294 50.5047 115.205 50.5683 115.142 50.651C115.015 50.8036 114.9 50.9626 114.773 51.1216C113.972 51.8721 112.572 53.6084 111.523 54.6132C111.485 54.6514 111.44 54.6959 111.402 54.7404C111.046 55.0902 110.69 55.44 110.327 55.7835C110.289 55.8153 110.264 55.8407 110.245 55.8598C110.219 55.8789 110.2 55.898 110.175 55.917C109.526 56.3559 109.329 57.2208 109.297 57.9586C109.278 58.1621 109.272 58.372 109.284 58.5819C109.259 58.7536 109.233 58.9253 109.202 59.097C109.049 59.9366 108.89 60.7697 108.725 61.6092C108.636 61.9018 108.559 62.1944 108.515 62.4996C108.521 62.5378 108.521 62.576 108.527 62.6205C108.47 62.9003 108.419 63.1802 108.362 63.46C107.154 67.2506 105.551 70.9139 104.413 74.7299C104.171 75.6203 103.955 76.4662 103.751 77.293C102.282 81.02 100.813 84.7533 99.7761 88.6202C99.4645 89.6314 99.4708 92.1054 100.17 93.5555C98.9557 97.3524 97.3911 100.87 96.8887 101.893C96.6406 102.211 96.3608 102.504 96.0937 102.803C96.0937 102.809 96.1 102.816 96.1 102.816C96.0428 102.886 95.9792 102.956 95.9347 103.038C95.0252 104.393 94.987 107.904 96.6724 108.578C96.8823 108.673 97.0858 108.654 97.2957 108.521C97.4929 108.368 97.69 108.209 97.8745 108.044C97.7091 108.839 97.5692 109.64 97.5628 110.454C97.76 109.5 98.0144 108.559 98.3006 107.63C98.7394 107.179 99.1337 106.689 99.439 106.123C103.853 98.052 105.328 88.9064 107.834 80.1614C108.585 77.7191 109.392 75.296 110.315 72.9046C110.753 71.5054 111.529 70.1571 111.58 68.6752C111.65 68.3254 111.65 67.8866 111.58 67.4223C112.305 64.821 112.789 62.1753 112.668 59.4405C112.681 59.3006 112.681 59.1479 112.674 58.9889C113.577 58.0222 114.41 57.0046 115.193 55.9298C115.682 55.3574 116.153 54.5942 116.439 53.7928C116.846 53.125 117.228 52.4508 117.578 51.7576C117.997 50.9626 118.169 49.9895 117.826 49.1309Z" fill="#9EFFFF"/>
<path d="M95.2105 52.7434C95.1787 52.7943 95.1469 52.8452 95.1151 52.8897C95.8402 51.4714 96.0119 49.7924 95.4141 48.2787C95.1851 47.331 94.0403 46.4152 93.2771 47.4264C93.1626 47.6045 93.0609 47.789 92.9464 47.967C92.9464 47.9607 92.94 47.9543 92.94 47.948C92.9082 48.0052 92.8828 48.0624 92.851 48.126C92.7111 48.3486 92.5775 48.5712 92.444 48.7938C91.3182 49.7542 90.5105 51.0071 89.741 52.2537C88.8378 53.8055 88.2463 55.5291 87.7503 57.2463C87.3687 58.4674 87.0061 59.7458 87.1588 61.0368C87.1842 62.2643 87.852 64.9292 89.5311 64.2423C90.2434 63.8225 90.466 63.0021 90.7713 62.2834C91.0702 61.5838 91.3882 60.8842 91.6935 60.1846C92.8383 58.7663 93.8559 56.2414 94.4664 54.3016C94.7081 53.7801 94.9561 53.2586 95.2105 52.7434Z" fill="#9EFFFF"/>
<path d="M140.264 47.172C140.201 47.0066 140.131 46.8667 140.061 46.7395C139.648 45.2386 138.764 44.081 137.167 44.8188C136.283 45.4039 135.743 46.3198 135.234 47.2229C134.941 47.7889 134.75 48.056 133.567 49.9768C132.143 52.6034 130.788 55.4273 130.368 58.4038C130.133 59.9429 130.413 64.7002 132.83 63.8734C133.453 63.7144 133.885 63.1928 134.305 62.7413C135.119 61.8127 135.8 60.7697 136.417 59.7012C137.593 57.5515 138.528 55.281 139.438 53.0105C140.156 51.1724 141.079 49.1245 140.264 47.172Z" fill="#9EFFFF"/>
<path d="M97.7785 58.62C97.7339 58.4991 97.5177 58.1175 97.4414 58.3274C97.4096 58.4164 97.4414 58.4991 97.4986 58.5691C97.505 58.5945 97.5241 58.6327 97.5622 58.6899C97.6004 58.8108 97.6576 58.9634 97.6131 59.0842C97.5495 59.2114 97.3778 59.2941 97.276 59.1542C97.2188 59.0842 97.1933 59.0079 97.1679 58.9189C97.0789 58.4037 96.869 57.8313 97.0216 57.3162C96.7291 57.7804 96.8499 58.4228 96.869 58.9507C96.9135 59.256 96.9707 59.6248 97.2506 59.7966C97.7276 59.9937 97.9502 59.2369 97.823 58.7726C97.982 58.8553 98.0074 58.8489 97.7785 58.62Z" fill="#9EFFFF"/>
<path d="M141.982 57.5388C141.931 57.6596 141.88 57.7805 141.829 57.9077C141.995 57.7169 142.147 57.5133 142.351 57.3671C142.408 57.3416 142.465 57.3416 142.51 57.348C142.472 57.4561 142.427 57.5833 142.402 57.666C142.256 57.9649 142.141 58.2893 141.88 58.4355C141.753 58.4928 141.569 58.5309 141.467 58.4673C141.238 58.1557 141.181 57.3353 141.041 56.801C141.06 57.5642 140.85 58.4991 141.359 59.1415C142.262 59.6376 142.669 58.2702 142.777 57.6215C142.93 56.5657 142.3 56.712 141.982 57.5388Z" fill="#9EFFFF"/>
<path d="M117.495 68.7643C117.533 68.1792 117.539 67.6004 117.444 67.028C117.043 65.1391 116.299 66.6273 115.841 68.1665C115.046 68.9996 114.327 69.9282 114.06 71.0348C114.009 71.5563 114.079 72.3959 114.696 72.5294C114.893 72.5167 115.065 72.4277 115.224 72.3132C115.116 73.2163 114.83 74.4183 115.606 74.9017C115.777 74.9717 115.962 74.819 116.038 74.6727C116.413 73.9859 116.471 73.2163 116.655 72.4976H116.662C116.992 72.1542 117.151 71.709 117.247 71.2447C117.533 70.8949 117.864 70.5705 117.934 70.119C118.035 69.5275 117.813 69.1395 117.495 68.7643Z" fill="#9EFFFF"/>
<path d="M82.1522 75.8303C81.8978 75.4296 81.5671 75.5504 81.2491 75.7603C81.2809 75.5314 81.3127 75.3024 81.389 75.0544C81.4717 74.66 81.4908 74.2466 81.6752 73.8905C81.6816 73.9795 81.6816 74.0749 81.6688 74.1194C82.0759 72.9874 81.3954 73.6424 81.2046 74.2403C80.9692 74.8445 80.7466 75.4487 80.5686 76.072C80.3205 76.3709 80.346 77.3503 80.6958 77.4266C81.0774 77.4076 81.3636 77.0132 81.7324 76.9051C82.1649 77.4203 82.1776 78.1898 82.3366 78.8258C82.3748 79.023 82.4066 79.2202 82.4448 79.4237L82.4511 79.4173C82.502 79.6463 82.5847 79.7544 82.7246 79.4555C82.7373 78.2407 82.7946 76.9051 82.1522 75.8303Z" fill="#9EFFFF"/>
<path d="M82.1219 115.275C81.8803 113.131 81.416 111.02 80.9199 108.921C79.9341 105.08 79.2409 101.722 78.5667 98.3254C78.7766 96.9389 78.624 95.4888 78.2996 94.1278C77.759 92.3915 77.2884 91.005 76.8368 89.7712C76.5633 88.4801 76.2644 87.1381 75.9337 85.7262C75.2659 83.2077 74.49 80.7273 73.7077 78.2405C73.6759 78.1387 73.6441 78.037 73.6123 77.9352C73.6123 77.8907 73.6123 77.8462 73.6123 77.8144C72.9508 74.469 71.7806 71.2445 70.5277 68.0581C70.1842 66.5381 69.8217 65.0308 69.3256 63.5871C69.2875 63.4726 69.243 63.3581 69.1984 63.2373C69.2684 63.4217 69.2493 63.339 69.1539 63.0846C69.0522 62.7666 68.8931 62.4804 68.7469 62.1879C68.6896 62.0161 68.6451 61.8508 68.5815 61.6663C67.9201 60.1527 66.9279 61.1194 66.8198 62.3278C66.699 62.7539 66.788 63.3072 66.947 63.8224C66.9406 63.8287 66.9279 63.8351 66.9216 63.8415C67.2523 64.7001 67.4304 65.6032 67.6784 66.4872C67.9773 67.7592 68.3589 68.9994 68.7787 70.2269C69.3002 72.2176 69.8154 74.2083 70.3242 76.2053C70.127 77.331 70.356 78.5585 70.5404 79.6588C70.9729 82.0374 72.0096 84.2443 72.6074 86.5848C73.7649 91.3357 74.4264 95.7241 75.622 99.4956C75.6729 99.9217 76.4488 101.226 77.3074 100.869C77.441 101.321 77.5618 101.773 77.7018 102.224C78.7003 105.798 80.0422 109.265 81.1171 112.813C81.7976 114.779 81.8803 116.947 82.7516 118.83C82.4845 118.315 82.2364 116.362 82.1219 115.275Z" fill="#D9FFFF"/>
<path d="M76.9177 71.8043C76.9304 71.7279 76.9431 71.6516 76.9495 71.5689C76.9622 71.5117 76.9749 71.4608 77.0004 71.4099C76.9877 71.429 76.9686 71.4545 76.9495 71.4799C76.9559 71.2827 76.9304 71.0919 76.8605 70.9139C76.8477 70.6531 76.8223 70.3923 76.7714 70.1316C76.5234 69.8263 76.3898 70.0743 76.3326 70.5641C76.2817 70.7485 76.3135 71.0856 76.269 71.3654C76.1609 72.1413 76.0273 72.9109 75.9828 73.6932C75.9383 73.8395 75.9256 73.9539 75.9383 74.0493C75.7666 75.0606 76.4916 75.5948 76.6188 74.1257C76.6824 73.3815 76.8032 72.6183 76.8541 71.8551C76.8732 71.8806 76.8986 71.8806 76.9114 71.8361C76.9114 71.8297 76.9114 71.8297 76.9114 71.8233C76.9114 71.8233 76.9114 71.8233 76.9114 71.817C76.9177 71.8233 76.9177 71.8106 76.9177 71.8043Z" fill="#D9FFFF"/>
<path d="M82.948 76.676C82.9671 76.4407 82.9862 76.2181 83.0117 76.0145C82.9671 74.8825 83.1516 74.6662 82.789 73.4642C81.9114 72.154 81.5552 74.5517 81.6633 75.1814C81.7396 76.0654 81.7333 77.1212 81.905 78.0879C81.8986 78.4441 81.8859 78.7939 81.8796 79.0991C81.8605 79.4617 81.8287 79.7033 81.8859 79.8496C81.8796 79.9387 81.8669 80.0213 81.8605 80.1104C81.8414 80.4029 82.1022 81.0199 82.4392 80.6764C82.5156 80.4602 82.5728 80.2312 82.6237 80.0086C82.6237 80.0086 82.6237 80.0086 82.63 80.0086C82.63 80.0023 82.63 79.9895 82.63 79.9832C82.6555 79.8623 82.6809 79.7415 82.7 79.627C83.3932 79.2836 83.1961 77.6999 82.948 76.676Z" fill="#D9FFFF"/>
<path d="M83.3682 88.2703C83.2664 86.9792 83.0374 85.6945 82.6113 84.467C82.7131 85.7963 82.923 87.1319 83.3554 88.3912C83.3809 88.4166 83.4508 88.3848 83.4826 88.3721C83.419 88.3912 83.3682 88.3339 83.3682 88.2703Z" fill="#D9FFFF"/>
<path d="M71.5306 51.0581C71.378 50.7973 71.1427 50.6574 70.7929 50.8291C69.6799 52.0057 68.5669 53.2014 67.4666 54.3971C66.8815 55.1412 66.1946 55.8217 65.7049 56.6294C65.3678 57.3354 65.3423 58.1495 65.5331 58.9C65.8893 59.9621 66.5571 59.9875 67.2821 59.536C67.0786 60.0002 66.8878 60.4582 66.7034 60.9097C67.1422 60.2546 67.5874 59.5996 68.0326 58.9381C69.0311 57.9778 69.9851 56.5022 70.2713 55.9044C71.696 53.195 72.8281 50.2758 73.5277 47.2993C72.9298 48.5777 72.2684 49.837 71.5306 51.0581Z" fill="#D9FFFF"/>
<path d="M53.8959 51.1596C53.8577 51.2232 53.7623 51.3695 53.686 51.4776C53.6797 51.4713 53.6797 51.4585 53.6733 51.4522C54.6209 50.3583 54.5573 48.5775 54.2393 47.2355C53.1836 44.0491 51.46 46.6186 50.4297 48.2277C48.5599 51.0706 47.6249 53.2075 46.7981 55.23C46.5946 55.5162 46.3784 55.8215 46.1431 56.1586C45.5834 56.9281 44.9983 57.6786 44.4259 58.4291C44.0188 59.1033 44.0315 60.0191 44.3432 60.7378C44.3686 60.8141 44.4131 60.8841 44.4704 60.9477C44.4577 61.2402 44.4704 61.5328 44.5022 61.8253C44.3813 61.9462 44.3241 62.1243 44.2859 62.296C44.1842 62.2451 44.0824 62.2069 43.9616 62.1942C42.944 62.1688 42.785 63.5807 42.8422 64.3566C42.8677 65.6032 43.7517 66.5508 44.5658 67.4031C44.7375 67.5939 44.9029 67.7974 45.0682 67.9882C45.4816 68.815 45.9205 69.6927 46.4992 70.3032C46.8554 70.653 47.3387 71.2572 47.8539 71.4798C47.9111 71.5243 47.9747 71.5625 48.0447 71.5816C48.1274 71.6134 48.2037 71.6007 48.2737 71.5625C48.2927 71.5625 48.3182 71.5689 48.3373 71.5689C48.827 71.359 49.0305 70.8184 49.0877 70.2396C49.145 70.3223 49.1959 70.405 49.2531 70.4877C49.2022 70.3732 49.145 70.2587 49.0941 70.1442C49.1259 69.699 49.075 69.2475 48.9923 68.9104C48.8397 68.2935 48.3118 67.9182 47.873 67.4985C47.3578 66.3918 46.8363 65.2852 46.3021 64.1849C46.2766 64.1404 46.2512 64.0959 46.2321 64.0513C46.6137 63.9241 46.9889 63.5553 47.2688 62.9574C47.2879 62.9256 47.2942 62.9129 47.3069 62.8938C47.3069 62.8875 47.3133 62.8875 47.3133 62.8875C48.4199 61.3483 49.0877 59.5675 49.8955 57.8694C51.4855 54.753 51.7271 54.2824 53.0309 52.4571C53.1963 52.4571 53.368 52.4889 53.5334 52.5525C53.3998 52.4507 53.2599 52.3871 53.12 52.3362C53.2281 52.1899 53.3362 52.0309 53.4571 51.8656C53.6606 51.6493 53.7687 51.4013 53.8959 51.1596Z" fill="#D9FFFF"/>
<path d="M32.8507 49.8558C31.7377 49.2134 29.2446 53.8944 28.4178 55.3954C26.6179 57.0235 25.4413 59.8156 26.885 61.5964C26.9486 61.6345 27.0186 61.6663 27.0822 61.6918C26.9995 61.838 26.9105 61.9843 26.8278 62.1306C26.9423 61.9907 27.0568 61.8571 27.1776 61.7172C27.4574 61.7872 27.7182 61.7236 27.9599 61.5709C28.0616 61.8062 28.1507 62.0734 28.3097 62.1815C28.5832 61.9462 28.7294 61.5836 28.7167 61.2211C28.7422 60.7123 28.6849 61.3356 28.5959 61.4946C28.5577 61.59 28.4114 61.6663 28.3415 61.7363C28.3097 61.6091 28.2779 61.4819 28.2461 61.3483C28.7676 60.8777 29.2064 60.1018 29.5435 59.6884C30.453 58.4927 31.3307 57.2779 32.1829 56.0377C33.4358 54.3778 34.6124 51.5412 32.8507 49.8558Z" fill="#D9FFFF"/>
<path d="M54.3721 90.4136C52.6803 89.0398 51.0903 87.5389 49.5321 86.0125C49.5512 85.0012 49.265 83.9709 48.7053 83.1823C48.2601 82.7434 47.7259 82.3618 47.1662 81.993C47.0454 81.834 46.9181 81.675 46.7909 81.5223C45.6525 80.1231 44.4695 78.7684 43.2611 77.4265C42.9495 75.0224 40.6726 73.5914 39.6805 72.7201C39.6105 72.6565 39.5405 72.5929 39.4769 72.5356C38.841 71.8233 38.1795 71.1301 37.4227 70.545C37.2955 70.4623 37.1619 70.386 37.0347 70.3096C36.6531 69.9471 36.2715 69.5846 35.9026 69.203C35.3811 68.7705 35.0631 67.9692 34.4017 67.772C33.8674 67.683 33.4985 67.9946 33.2505 68.4843C32.9071 68.319 32.57 68.1536 32.2393 67.9628C30.9673 67.1805 29.8225 66.1756 28.7604 65.1262C28.684 65.0308 28.6204 64.9227 28.5759 64.8082C28.5886 64.7574 28.6459 64.6938 28.6713 64.6492C29.0784 64.9927 29.479 65.3425 29.8861 65.6923C29.4727 65.2153 29.0974 64.681 28.6586 64.2358C28.3915 64.3821 28.2515 64.7065 28.3342 65.0118C28.5377 65.9658 29.3518 66.6145 29.8924 67.384C30.7129 68.5606 31.7496 69.5146 32.8498 70.3987C32.8371 70.9902 32.9007 71.5435 33.0215 71.8678C33.1933 72.1668 33.365 72.4593 33.5494 72.7519C33.5367 72.79 33.5304 72.8218 33.5176 72.86C33.6067 72.9427 33.6894 73.0317 33.7784 73.1144C36.7485 77.789 40.9143 81.6622 44.6985 85.6881C45.6652 86.4895 47.5287 89.6568 48.8643 88.2576C49.0424 87.9968 49.176 87.7106 49.2777 87.4117C50.9631 88.5438 52.6994 89.5932 54.3721 90.4136Z" fill="#D9FFFF"/>
<path d="M95.0574 50.0022C94.9874 49.9258 94.8984 49.8877 94.8094 49.8686C94.7966 49.3407 94.6885 48.8128 94.4341 48.2913C93.2893 46.2052 92.1763 49.1308 91.5594 50.0912C90.917 51.1915 90.2111 52.6352 89.6196 53.9199C89.6069 53.939 89.5941 53.9644 89.5751 53.9899C89.2761 54.5178 88.9581 55.0329 88.6401 55.5544C88.5575 55.6371 88.4748 55.7198 88.3921 55.8025C87.8897 56.2413 87.5717 56.8646 87.4127 57.5324C87.012 58.1938 86.6304 58.8616 86.2997 59.5485C86.2869 59.5612 86.2742 59.5803 86.2615 59.593C86.2615 59.5994 86.2679 59.6058 86.2679 59.6121C86.147 59.8665 86.0326 60.1209 85.9244 60.3817C85.7464 61.0749 85.8608 62.8812 86.8975 62.614C86.9611 62.5377 87.0183 62.455 87.0756 62.3787C87.0819 62.4042 87.0883 62.4232 87.0947 62.4487C87.3236 62.1561 87.5526 61.8636 87.7816 61.571C87.966 61.3293 88.1568 61.0876 88.3412 60.846C88.4557 60.8778 88.5766 60.8778 88.6974 60.8587C88.6974 60.9668 88.6974 61.0558 88.7228 61.1194C88.7419 61.024 88.7673 60.9286 88.7928 60.8396C88.8246 60.8332 88.8627 60.8332 88.8945 60.8205C90.3701 60.4008 90.828 58.6836 91.4767 57.4497C92.3035 56.4321 93.1176 55.4018 93.9571 54.3969C94.9238 53.2012 96.0496 51.4777 95.0574 50.0022Z" fill="#D9FFFF"/>
<path d="M117.388 46.1162C116.79 45.8618 116.459 46.606 116.065 46.9303C114.761 48.3677 113.616 49.9386 112.548 51.5604C111.549 53.0804 110.315 55.2874 109.629 56.4004C109.062 57.189 108.496 58.1176 108.764 59.1224C108.795 59.3196 108.897 59.6058 109.056 59.7839C108.802 59.8602 108.528 60.0383 108.236 60.3372C107.205 61.9526 106.506 63.7652 105.819 65.5651C105.577 65.9149 105.393 66.3156 105.266 66.7799C104.744 67.9756 104.375 69.2094 104.095 70.4623C103.288 73.2289 102.747 76.0655 102.486 78.9402C102.48 78.972 102.474 79.0102 102.467 79.042C102.378 79.3282 102.283 79.6144 102.194 79.9006C101.901 80.8482 101.634 81.8086 101.386 82.7689C101.31 82.8134 101.24 82.8643 101.157 82.947C99.4653 86.922 98.5176 91.2468 97.1693 95.3681C96.4506 98.0838 95.4903 100.761 95.1214 103.553C95.0578 105.073 94.8988 106.81 95.7383 108.152C97.2774 110.46 99.001 106.333 99.5352 105.112C101.787 99.3685 102.798 93.2566 104.14 87.2654C104.083 87.5453 104.019 87.8315 103.962 88.1113C105.59 81.8467 107.695 75.7284 109.692 69.5719C110.748 66.4937 111.18 64.1023 110.983 62.0162C110.894 61.0495 110.404 60.0192 109.679 59.7839C109.788 59.6885 109.889 59.5804 109.985 59.4468C110.144 59.2751 110.322 59.1161 110.487 58.9507C111.416 57.7614 112.3 56.5339 113.184 55.3001C114.558 53.7864 115.849 52.2028 116.993 50.5046C117.311 49.9831 117.858 49.3662 117.986 48.6094C118.151 47.7826 118.113 46.6632 117.388 46.1162Z" fill="#D9FFFF"/>
<path d="M139.158 51.3059C139.514 50.4855 140.162 49.5696 139.832 48.6474C139.768 48.5457 139.705 48.4693 139.635 48.4057C139.622 47.5853 139.361 46.8603 138.751 46.3069C137.25 45.8745 136.162 48.6601 135.564 49.7223C134.845 51.0451 134.216 52.4062 133.701 53.8117C133.478 54.1997 133.249 54.5813 133.033 54.9756C132.295 56.3557 131.208 57.7041 131.526 59.364C131.557 60.2226 132.391 61.6473 133.198 60.7251C133.236 60.6869 133.268 60.6424 133.306 60.5915C134.07 59.4531 134.451 58.8298 134.865 58.1811C135.799 56.8009 137.04 55.0329 138.025 53.2457C138.42 52.6033 138.801 51.9673 139.158 51.3059Z" fill="#D9FFFF"/>
<path d="M82.1468 116.362C82.0578 115.854 81.9688 115.345 81.7334 114.887C81.708 114.842 81.6826 114.798 81.6571 114.753C82.0324 113.068 81.7716 111.173 80.8685 109.767C81.0211 110.009 81.1738 110.244 80.9957 109.939C80.4932 109.036 79.959 108.152 79.4375 107.268C78.846 106.25 78.2545 105.232 77.6821 104.202C77.5295 103.42 77.3387 102.65 77.1288 101.881C75.6406 97.1806 73.4972 92.0863 71.8118 88.0413C70.5017 82.8452 69.1534 77.2102 67.3726 72.4466C67.0546 71.5689 66.6984 70.6976 66.3422 69.8326C66.3168 69.7182 66.2914 69.61 66.2659 69.4956C66.1514 68.9868 65.878 68.3698 65.5091 67.8801C65.3946 67.4794 65.261 67.0788 65.1148 66.6844C65.1084 66.6526 65.102 66.6272 65.0957 66.5954C65.1593 66.7608 65.2229 66.9261 65.2865 67.0915C64.9748 66.1566 64.7204 65.0626 63.83 64.503C63.8173 64.4966 63.7982 64.4902 63.7855 64.4839C63.9382 63.638 63.7982 62.7222 63.3149 62.0353C63.0859 61.7109 62.6916 61.7364 62.3418 61.7554C60.7009 61.7427 59.0982 62.1052 57.4764 62.3088C56.1599 62.5123 54.9324 61.889 53.635 61.8381C53.4887 61.8381 53.3488 61.8572 53.2088 61.8826C52.4266 61.2657 51.25 61.501 50.6521 62.2452C50.4931 62.1816 50.3341 62.118 50.1688 62.0734C50.0734 62.0607 49.978 62.0607 49.8826 62.0671C49.819 62.0289 49.749 61.9908 49.6918 61.9462C49.7236 61.9908 49.7617 62.0226 49.7935 62.0671C49.4183 62.0925 49.0494 62.1943 48.6742 62.2324C48.3689 62.2897 48.0509 62.2515 47.7392 62.2642C47.6502 62.2261 47.5612 62.1752 47.4721 62.1434C47.0587 61.9717 46.7216 62.048 46.4418 62.2515C46.3655 62.118 46.2955 61.978 46.2128 61.8508C46.0793 61.6537 45.9203 61.4565 45.6659 61.4438C45.4751 61.501 45.3224 61.6092 45.1952 61.7364C45.1825 61.73 45.1698 61.7173 45.1507 61.7109C44.9154 61.5964 44.6419 61.3548 44.3748 61.4756C44.3684 61.4756 44.3621 61.482 44.3557 61.4883C44.2667 61.4756 44.1776 61.482 44.0886 61.5392C43.866 61.7364 43.7388 62.0162 43.6879 62.3151C43.5289 62.8112 43.5353 63.4154 43.5734 63.867C43.6625 64.3694 43.8151 64.9036 44.2222 65.2407C44.3621 65.3743 44.5338 65.457 44.7182 65.5269C44.7246 65.5333 44.731 65.5333 44.7373 65.5396C44.9726 66.8943 45.545 68.2108 46.6771 68.9995C47.0015 69.1267 47.2813 69.1267 47.5166 69.0376C47.6884 69.2157 47.8664 69.3874 48.0509 69.5528C48.3371 70.6149 48.9794 71.5308 49.6663 72.3894C50.9192 74.8062 51.9114 77.789 53.9148 81.3188C55.6702 84.4352 57.6545 87.418 59.7914 90.2928C61.4578 93.371 63.2004 96.2203 64.1862 97.1934C65.0893 98.5735 65.9098 99.6928 66.692 100.685C67.3789 101.785 68.1421 102.841 69.0198 103.82C70.1519 105.08 69.8084 104.762 70.5526 105.341C70.6034 105.36 70.648 105.372 70.6988 105.385C71.2712 106.822 71.8564 108.26 72.5369 109.646C73.6499 112.565 74.8519 115.44 76.4292 118.143C77.7775 120.833 79.0495 120.986 79.8064 119.975C80.0608 120.185 80.3279 120.344 80.6204 120.395C82.1596 120.083 82.2868 117.647 82.1468 116.362ZM52.0259 62.4169C51.6824 62.4169 51.3326 62.4232 50.9892 62.3914C50.9574 62.3724 50.9192 62.3533 50.8874 62.3342C51.2881 62.1752 51.746 62.1879 52.1658 62.3215C52.1213 62.3533 52.0768 62.3851 52.0259 62.4169Z" fill="#1CB8B8"/>
<path d="M145.893 61.8128H141.027C140.595 61.8128 140.162 61.8191 139.736 61.7683C139.52 61.7428 139.304 61.7047 139.094 61.6538C139.094 61.6538 138.941 61.6283 138.827 61.6029C137.434 61.9718 135.799 61.9145 134.464 61.5075C134.025 61.3739 133.662 61.0814 133.433 60.7125C133.173 60.7125 132.912 60.6934 132.657 60.6489C132.632 60.6362 132.606 60.6171 132.581 60.6044C132.308 60.3945 132.002 60.2482 131.691 60.1719C132.543 59.2179 133.134 58.0477 133.535 56.8011C133.605 55.0394 134.565 53.2586 136.41 52.559C136.721 52.0565 137.014 51.5414 137.281 51.0135C137.313 50.9181 137.345 50.8227 137.376 50.74C138 49.7161 138.432 48.6158 138.598 47.5982C138.693 46.7332 138.674 45.7665 138.464 44.8697C136.804 44.7807 135.157 44.6281 133.446 44.4373C132.81 44.3673 132.168 44.3291 131.525 44.3037C131.996 44.1956 132.467 44.1193 132.944 44.1574C131.761 43.7567 130.47 44.1383 129.28 43.7949C128.663 43.5087 128.015 43.1335 127.321 43.1335C126.571 43.3243 125.878 42.9109 125.172 42.7201C124.746 42.5738 124.294 42.5801 123.855 42.5038C123.391 42.4402 122.939 42.2876 122.475 42.2876C122.087 42.2621 121.718 42.4339 121.337 42.4021C120.694 42.3703 120.09 42.1222 119.486 41.9314C119.085 41.7597 118.672 41.9378 118.258 41.9505C117.75 41.9696 117.247 41.8233 116.738 41.8869C116.376 41.8996 116.051 42.0904 115.702 42.1413C115.218 42.1922 114.754 42.0141 114.277 41.9823C113.768 41.9696 113.317 42.2621 112.821 42.313C112.064 42.3003 111.326 42.0141 110.575 41.8424C110.868 41.7152 111.167 41.5053 111.479 41.6516C111.638 41.7215 111.79 41.8297 111.962 41.8742C111.708 41.747 111.529 41.4862 111.25 41.4226C110.893 41.3908 110.544 41.5753 110.187 41.5816C109.736 41.4989 109.354 41.7088 108.928 41.8106C108.642 41.8233 108.343 41.7088 108.07 41.8233C107.93 41.8678 107.822 42.0014 107.663 41.995C107.135 41.8487 106.613 41.4671 106.034 41.6516C105.386 41.8424 104.813 42.0841 104.152 42.2176C103.503 42.2049 102.842 42.1731 102.199 42.0586C101.633 41.9378 101.093 42.1731 100.539 42.2431C99.5408 42.3766 98.5423 42.4339 97.5375 42.4975C97.0032 42.4211 96.4944 42.2367 95.9729 42.1095C94.9362 42.0014 93.8932 42.0268 92.8501 41.995C91.1647 41.9569 89.4793 41.7406 87.7939 41.8869C87.0116 41.8487 86.2357 41.6961 85.4471 41.7279C84.9319 41.7025 84.4359 41.6452 83.9271 41.7088C83.4246 41.6579 82.9158 41.4735 82.4134 41.5816C81.7519 41.7979 81.0714 41.5753 80.3973 41.6961C79.3987 42.0077 78.3557 42.0395 77.319 42.0968C76.4477 41.995 75.5636 41.9378 74.6923 41.8487C72.7525 41.5943 70.8 41.2954 68.8411 41.2891C67.6391 41.4035 66.437 41.4608 65.235 41.3272C64.5608 41.2827 63.9121 41.5053 63.2507 41.5943C61.9214 41.6834 60.5859 41.5244 59.2503 41.6897C57.991 41.9123 56.8144 41.8297 55.5551 41.9251C54.5629 42.065 53.5644 41.906 52.5659 42.0014C50.7088 42.2113 48.8262 42.3512 46.9564 42.1985C46.244 42.1922 45.5699 42.4339 44.8894 42.5929C44.1389 42.6819 43.3884 42.7773 42.6443 42.9427C41.8048 43.0571 41.0416 43.4387 40.183 43.4515C39.5788 43.5977 39.0127 43.8967 38.3831 43.9285C38.2622 43.9348 38.1478 43.9157 38.0333 43.9603C38.0206 43.9666 38.0142 43.9793 38.0078 43.9921C37.4863 44.1065 36.9839 44.2846 36.5196 44.5581C36.4942 44.5772 36.4878 44.6153 36.4942 44.6471C36.4942 44.6662 36.5069 44.6917 36.526 44.6917V44.698C36.6786 44.6726 36.8312 44.6217 36.9775 44.5835C37.0538 44.5708 37.1047 44.5645 37.0856 44.5581C37.1047 44.5517 37.1174 44.5454 37.1365 44.5454C37.3909 44.45 37.798 44.539 38.0587 44.4945C38.0651 44.4945 38.0651 44.5009 38.0714 44.5009C38.93 44.7235 39.7823 44.4055 40.6472 44.5072C40.9334 44.5581 41.2196 44.5454 41.4995 44.5136C40.9144 44.8507 40.2275 45.0605 39.4261 45.0733C38.2177 45.0923 37.0729 45.0542 35.8709 44.9015C35.2412 44.8252 34.618 44.7171 33.9947 44.5963C33.8802 44.9588 33.842 45.3849 33.8866 45.8428C33.3078 46.1036 33.0661 46.8032 33.0916 47.471C32.9962 47.6045 32.9453 47.7763 32.9834 48.0243C32.9898 48.4822 33.3332 48.7366 33.7466 48.8257C34.0964 49.0037 34.5544 48.991 34.9487 48.902C35.095 49.309 35.273 49.697 35.5592 50.0722C35.8073 50.3203 36.0172 50.3902 36.1889 50.3457C36.5514 50.7273 36.9775 50.899 37.4482 50.9563C37.7662 51.1979 38.0842 51.4523 38.4212 51.6686C38.7456 51.9103 39.089 52.1329 39.4325 52.3555C39.4452 52.3809 39.4579 52.4063 39.4643 52.4318C39.9604 53.4303 40.7045 54.1871 40.9334 55.1475C40.9589 55.6245 41.5249 57.329 42.021 58.213C42.0464 58.2893 42.0846 58.3911 42.1037 58.442C42.2818 58.9126 42.4662 59.4023 42.816 59.7776C44.2534 60.9542 44.7558 58.2512 45.1819 57.3163C44.953 57.8632 45.4745 56.7311 45.6208 56.534C45.6462 56.4895 45.6653 56.4577 45.6844 56.4195C46.791 55.0394 47.5224 53.4367 48.311 51.8657C48.54 51.7258 48.7626 51.5477 48.9725 51.3569C50.2381 51.0326 51.3511 50.3584 51.6755 48.9592C51.8154 48.4059 51.9044 47.8144 51.9044 47.2229C52.1843 47.0003 52.4578 46.7714 52.744 46.5551C52.8775 46.4852 53.0111 46.4152 53.1383 46.3516C53.4308 46.1799 53.8951 46.199 54.0033 45.8174C54.0732 45.563 54.0923 45.3531 54.0796 45.1814C52.3306 45.2068 50.5879 45.086 48.8516 44.9333C48.2856 44.8825 47.7641 44.8252 47.2426 44.7362C45.7416 44.7998 44.2406 44.8379 42.7397 44.7934C42.7333 44.7934 42.727 44.7934 42.7206 44.7934C42.3899 44.6662 42.0401 44.5645 41.6648 44.4881C41.8302 44.4627 42.0019 44.4436 42.1673 44.4182C42.6188 44.4436 43.064 44.4245 43.5156 44.4245C44.7113 44.5645 45.8942 44.2528 47.0836 44.4118C48.7944 44.7871 50.5625 44.8825 52.3051 44.9079C53.2973 44.8825 54.264 45.1496 55.2498 45.1241C55.6505 45.1114 56.0512 45.1178 56.4519 45.1305C55.1099 47.0767 56.331 49.9768 57.533 52.4254C57.8383 53.1441 58.1881 53.8373 58.4934 54.5878C58.9259 55.51 59.3965 56.4259 59.899 57.3163C60.2551 58.0477 60.6304 58.7727 61.0565 59.4723C61.508 60.2609 62.0105 61.0687 62.8309 61.5011C62.8755 61.552 62.92 61.6093 62.9645 61.6601C64.0075 62.8749 65.4131 62.2262 66.0046 60.9351C66.5515 59.7903 66.6978 58.5565 66.7169 57.2908C67.7027 56.2223 68.5867 55.0648 69.3754 53.8628C70.3548 52.9469 71.188 51.8848 71.8685 50.7082C72.301 49.9832 72.7335 49.2454 73.1023 48.4759C73.2486 48.4568 73.3885 48.4313 73.5157 48.4123C73.5539 48.4377 73.5984 48.4568 73.6429 48.4822C73.6557 48.3805 73.6747 48.2851 73.7002 48.1833C73.751 47.9861 73.8528 47.7763 73.9482 47.5982C74.0245 47.4646 74.3107 47.1021 74.2662 47.1721C74.3171 47.1085 74.368 47.0512 74.3998 47.0131C74.4443 46.9685 74.5015 46.9177 74.5651 46.8668C74.5715 46.8604 74.5778 46.8477 74.5842 46.8413C75.0676 46.3198 75.8944 46.2053 76.524 46.4725C76.9374 46.6505 77.2681 46.9749 77.4526 47.3756C77.4844 47.4265 77.5289 47.4773 77.5543 47.5346C77.637 47.6872 77.7006 47.8462 77.7579 48.0116C77.7896 48.0052 77.8151 47.9925 77.8469 47.9861C79.0044 51.7131 80.1238 55.51 82.248 58.8172C82.8777 59.7331 83.4564 60.986 84.6584 61.1959C84.7729 61.1831 84.8747 61.1513 84.9828 61.1259C84.0352 62.9321 84.245 65.5779 85.0083 67.3078C85.3072 67.8103 85.6506 68.3509 86.2039 68.5353C86.3057 68.8469 86.4329 69.1331 86.5855 69.4003C86.5855 69.8773 86.5792 70.3606 86.5919 70.8376C86.5283 71.3273 86.4965 71.8234 86.4901 72.3195C86.4138 72.7583 86.382 73.2099 86.3756 73.6615C86.3629 74.1575 86.4138 74.6409 86.5028 75.0797C86.5028 75.2705 86.5092 75.455 86.5028 75.6458C86.5219 76.0783 86.5474 76.5171 86.5664 76.9496C86.5537 78.0817 86.5601 79.43 86.5728 81.4397C86.7191 84.3208 86.5028 84.2954 86.9417 86.6168C87.0371 88.5502 86.8272 90.5536 87.0816 92.4743C86.8463 93.422 86.5919 94.3633 86.4774 95.33C86.3629 98.4337 86.1403 98.1538 85.7396 102.301C85.5234 105.544 85.7714 106.765 85.5997 107.611C85.2626 110.003 84.8747 112.394 84.4486 114.773C84.3595 115.103 84.2578 115.428 84.1433 115.746C83.9716 116.172 83.8126 116.604 83.6981 117.049C83.1575 119.148 83.2211 121.412 84.0161 123.435C84.0415 123.638 84.067 123.836 84.0988 124.033C84.0988 124.363 84.1115 124.694 84.1496 125.025C84.3341 126.042 84.6585 127.365 85.6252 127.842C85.6761 128.008 85.7269 128.173 85.7905 128.338C86.2866 127.683 86.7954 127.041 87.3678 126.456C88.7225 125.057 90.0072 123.6 91.381 122.214C91.9597 121.635 92.5512 121.063 93.0791 120.439C93.4671 119.975 93.766 119.453 94.1603 118.989C94.3956 118.557 94.6754 118.188 94.9998 117.768C94.8281 117.991 95.2796 117.342 95.3305 117.278C95.5849 116.935 95.8584 116.604 96.1319 116.273C96.8951 115.351 97.4357 114.41 98.3261 113.609C99.331 112.197 100.482 110.893 101.627 109.595C102.091 109.074 102.422 108.368 102.924 107.821C103.535 107.153 104.196 106.53 104.915 105.996C106.149 105.086 107.027 103.751 108.197 102.771C108.528 102.491 108.89 102.262 109.214 101.983C109.233 101.97 109.246 101.951 109.259 101.938C109.272 101.925 109.284 101.906 109.297 101.894C109.545 101.582 109.806 101.283 110.067 100.971C110.13 100.863 110.207 100.761 110.302 100.672C110.315 100.66 110.334 100.647 110.346 100.628C110.932 99.9346 111.529 99.2541 112.153 98.599C112.751 97.9694 113.399 97.4033 114.067 96.8564C114.404 96.4748 114.735 96.0932 115.085 95.7243C115.752 95.0056 116.439 94.2869 117.164 93.6255C117.311 93.4919 117.463 93.3711 117.616 93.2566C118.57 92.0101 119.683 90.9161 120.643 89.6759C121.705 88.3022 122.799 86.8966 123.976 85.6183C125.172 84.3208 126.45 83.1061 127.627 81.7895C128.835 80.4476 130.031 79.1056 131.271 77.7955C132.492 76.5107 133.599 75.0988 134.788 73.7759C135.977 72.4531 137.109 71.0793 138.305 69.7691C139.418 68.548 140.436 67.2633 141.708 66.2075C142.922 65.2027 144.048 64.166 145.028 62.9258C145.333 62.5378 145.651 62.1626 145.969 61.7937C145.982 61.8128 145.937 61.8128 145.893 61.8128ZM91.8134 61.5139C91.788 61.5075 91.7562 61.5075 91.7308 61.5011C91.2092 61.4375 90.6941 61.3549 90.1726 61.3358C89.651 61.3231 89.1804 61.0877 88.8497 60.7189C88.6207 60.6362 88.4045 60.509 88.2201 60.3182C87.972 60.0701 87.8257 59.7776 87.7621 59.4723C87.406 59.5105 87.0562 59.5804 86.7191 59.6949C86.8717 59.5105 87.0244 59.2942 87.1834 59.0335C87.3869 58.9444 87.5777 58.8299 87.7685 58.7282C87.8384 58.4102 87.9911 58.1049 88.2137 57.8441C88.2328 57.8251 88.2391 57.8123 88.2582 57.7996C88.3981 57.4435 88.4426 57.3481 88.3727 57.5452L88.4299 57.3989C88.5508 57.1127 88.6652 56.8711 88.8115 56.6357C89.1295 55.7581 89.6574 55.033 90.2107 54.2762C90.3252 54.1045 90.446 53.9391 90.5796 53.7801C90.6114 53.7483 90.6305 53.7229 90.6496 53.7038C90.7704 53.5257 90.8722 53.3413 90.9866 53.1568C91.1584 52.8833 91.3428 52.6162 91.5527 52.3682C91.6799 52.2028 91.6926 52.1901 91.5845 52.3364C91.6354 52.2664 91.6799 52.2028 91.7308 52.1329C91.9088 51.8975 92.0869 51.6622 92.2714 51.4333C92.3159 51.3824 92.354 51.3251 92.3986 51.2743C92.8756 50.4729 93.3462 49.6715 93.7723 48.8447C94.0967 48.0815 94.3892 47.2675 94.8217 46.5233C95.0761 46.0781 95.4641 45.8301 95.8775 45.7347C95.9602 45.2831 96.0111 44.8252 96.0174 44.3673C95.0125 44.4182 94.0077 44.4691 92.9901 44.5263C90.268 44.6917 87.3996 45.1877 84.6966 45.0287C84.1369 44.9969 83.3674 44.8379 82.5088 44.6281C81.3194 44.9651 80.2001 44.9715 79.4432 44.8634C77.7896 44.6153 76.2251 44.927 74.5588 45.0542C73.1596 45.1559 71.7222 45.175 70.3866 44.927C70.3548 44.9651 70.3294 45.0033 70.2976 45.0415C70.2848 44.9969 70.2658 44.9524 70.253 44.9015C70.0241 44.857 69.8015 44.7998 69.5853 44.7425C67.9317 44.8825 66.2653 44.9651 64.5736 44.9524C63.9248 44.9461 63.2634 44.8825 62.602 44.8061C63.327 44.7425 64.052 44.6281 64.7707 44.4818C65.6675 44.4436 66.5706 44.4881 67.4483 44.2846C69.5407 43.7758 71.7031 43.7567 73.8274 43.4324C75.5764 43.2607 77.2745 42.7264 79.0299 42.5929C79.4814 42.631 79.9393 42.6374 80.4036 42.5801C81.065 42.5674 81.6883 42.8981 82.3561 42.7837C82.9921 42.7328 83.3228 42.9617 83.9334 43.0826C85.18 43.0699 86.4392 43.267 87.6794 43.4006C89.9754 43.2161 92.2841 43.2098 94.5546 42.7646C95.2987 42.6501 96.0365 42.4911 96.7933 42.6247C96.9269 42.6437 97.2576 42.631 97.5311 42.6119C98.5487 42.79 99.5726 42.9427 100.616 42.9681C101.137 42.9554 101.659 42.8155 102.174 42.9745C102.854 43.1398 103.573 43.2225 104.273 43.178C104.896 42.9872 105.481 42.79 106.092 42.542C106.683 42.2939 107.224 42.8218 107.79 42.7264C107.993 42.6565 108.133 42.4466 108.362 42.4466C108.636 42.4211 108.922 42.4593 109.176 42.3257C109.609 42.0205 109.933 42.0332 110.41 41.906C110.436 41.8996 110.461 41.8869 110.486 41.8805C111.256 42.2367 111.994 42.7264 112.814 42.9045C113.431 42.9363 114.061 42.6819 114.652 42.9681C115.027 43.108 115.415 43.2543 115.829 43.2543C116.172 43.2034 116.522 43.1017 116.878 43.1525C117.362 43.1907 117.826 43.3815 118.316 43.3942C118.767 43.3879 119.2 43.3179 119.607 43.5723C119.67 43.5977 119.734 43.6232 119.797 43.6486C119.022 43.8649 118.207 44.3101 117.412 44.221C117.323 44.2465 117.228 44.2783 117.114 44.3101C114.875 44.9397 112.916 44.4245 110.652 44.2655C108.706 44.132 106.74 44.2083 104.788 44.2147C103.223 44.5581 101.519 44.4309 99.9097 44.0684C98.6504 44.1956 97.3912 44.2783 96.1319 44.3482C96.1382 44.8189 96.2018 45.2577 96.3036 45.6775C96.3163 45.6775 96.3227 45.6775 96.3354 45.6775C96.2654 46.0463 96.2527 46.447 96.31 46.8032C96.3799 47.5918 96.9078 48.1642 97.4166 48.7239C97.741 49.2899 98.1734 49.8178 98.5614 50.2439C98.625 50.3203 98.695 50.3902 98.7586 50.4602C99.261 51.1534 99.7126 51.8403 100.107 52.5971C100.635 53.4939 100.857 54.0218 101.474 54.7405C101.799 54.9631 102.059 54.9249 102.263 54.7405C102.454 54.9313 102.638 55.033 102.816 55.0012C102.95 55.2047 103.083 55.4146 103.223 55.6181C103.395 55.8598 103.579 56.0824 103.732 56.3305C103.808 56.464 103.878 56.5976 103.948 56.7311C103.986 56.7947 104.012 56.8329 104.037 56.8647C104.438 57.3417 104.972 57.5643 105.201 58.3657C105.328 58.8172 105.252 59.2942 105.03 59.6885C105.157 59.9239 105.239 60.1973 105.252 60.5026C105.297 61.5139 104.406 62.188 103.484 62.2707C102.791 62.3343 102.091 62.2834 101.392 62.3089C101.322 62.1117 101.207 61.9463 100.991 61.8955C99.7889 61.8382 98.625 62.029 97.4802 62.3152C97.0732 62.2898 96.6598 62.258 96.2464 62.2453C95.6485 62.2135 94.9935 62.1944 94.4592 62.3343C94.4338 62.3279 94.402 62.3216 94.3765 62.3152C94.4401 62.3279 94.4529 62.3343 94.4465 62.3343H94.4401C94.3702 62.3343 94.0076 62.2834 93.9568 62.2834C93.7214 62.2707 93.4798 62.2771 93.2444 62.2771C92.6402 62.2898 92.1251 61.9781 91.8134 61.5139ZM126.819 62.4869C126.813 62.4742 126.806 62.4679 126.8 62.4551C126.641 62.8813 126.425 63.2819 126.202 63.6826C124.892 65.9404 123.48 68.141 122.335 70.4878C122.068 71.0348 121.814 71.5945 121.566 72.1478C120.344 73.7187 119.225 75.3469 118.436 77.1531C116.401 79.9388 114.576 82.8707 113.037 85.9426C111.402 87.6916 110.054 89.7268 108.782 91.7429C108.082 93.0722 107.116 93.6446 107.046 95.4635C106.868 95.6989 106.696 95.9278 106.518 96.1631C105.837 97.0472 105.176 97.9503 104.521 98.8534C103.535 100.049 102.657 101.156 101.881 102.186C101.137 101.779 100.329 102.447 99.9543 103.076C99.4073 103.84 98.873 104.622 98.218 105.296C96.6916 106.829 95.0825 108.304 93.7342 110.003C93.6006 110.149 93.467 110.301 93.3335 110.46C93.925 107.872 94.4783 105.271 95.0698 102.682C95.693 99.9028 96.7043 97.1871 97.3148 94.4078C97.3276 94.376 97.3339 94.3442 97.3466 94.3124C97.7473 92.9641 98.2307 91.6285 98.7141 90.2929C99.0066 89.7904 99.172 89.2371 99.2992 88.6711C99.7762 87.31 100.221 85.9426 100.552 84.5561C100.571 84.5116 100.59 84.4607 100.609 84.4162C102.511 83.0297 103.656 77.5665 104.171 75.8747C104.807 73.4261 105.602 71.0221 106.371 68.6053C106.403 68.5162 106.429 68.4208 106.461 68.3254C107.968 67.7912 108.566 66.1694 108.636 64.4267C108.674 63.778 108.667 63.0593 108.553 62.3597C108.623 62.2516 108.693 62.1371 108.763 62.0163C109.202 61.0432 109.418 59.9684 109.418 58.8872C109.819 58.5119 110.168 58.0795 110.48 57.6088C110.512 57.5834 110.537 57.5516 110.569 57.5261C110.582 57.488 110.582 57.4498 110.595 57.4117C111.021 56.1969 111.618 55.0076 112.382 53.9709C113.094 52.9978 113.628 51.923 114.277 50.9117C114.404 50.5747 114.582 50.2757 114.818 49.9069C114.69 50.0786 114.69 50.0531 114.83 49.8433C114.894 49.7415 114.97 49.6525 115.047 49.5634C115.206 48.8447 115.613 48.1324 116.153 47.6427C116.287 47.5155 116.433 47.4074 116.592 47.3183C117.063 47.1212 117.158 47.0767 116.872 47.1975C116.586 47.3183 116.681 47.2802 117.152 47.0767C117.336 47.0321 117.521 47.0131 117.705 47.0131C118.341 47.0258 118.901 47.3629 119.333 47.8081C119.976 48.4631 120.472 49.2454 120.84 50.0849C121.076 50.6192 121.184 50.969 121.419 51.4205C121.648 51.8657 121.922 52.2791 122.132 52.7371C122.386 53.2967 122.583 53.8691 122.774 54.4479C122.857 54.4733 122.933 54.5051 123.016 54.5242C123.321 55.1793 123.633 55.8344 123.931 56.4895C124.453 57.8187 125.051 59.1034 125.814 60.2609C126.037 60.5344 126.316 60.7252 126.615 60.8524C126.793 61.1831 127.003 61.4821 127.29 61.7365C127.137 61.9336 126.978 62.1817 126.819 62.4869Z" fill="#1CB8B8"/>
<path d="M104.33 41.6705C104.642 41.6769 104.953 41.6451 105.259 41.5815C104.96 41.5751 104.572 41.6133 104.33 41.6705Z" fill="#1CB8B8"/>
<path d="M89.6002 65.139C89.5875 64.961 89.5748 64.7765 89.562 64.5984C89.562 64.6302 89.5557 64.662 89.5557 64.6938C89.5239 64.4076 89.4921 64.1787 89.4666 64.026C89.4794 63.8798 89.4857 63.7271 89.4794 63.5808C89.4666 63.53 89.4476 63.4664 89.3967 63.4473C89.314 63.4282 89.2886 63.5427 89.2758 63.6063C89.2568 63.8734 89.2504 64.1405 89.2377 64.4076C89.2377 63.9815 89.1932 63.5554 89.0914 63.1484C89.1105 62.9576 89.1359 62.7604 89.1677 62.5442C89.2758 62.0926 89.0214 60.757 88.3727 61.323C88.2773 61.463 88.2137 61.6156 88.1692 61.7682C87.972 61.6983 87.7558 61.7046 87.5396 61.8509C86.3439 62.8049 86.6555 64.6684 86.6428 66.0422C86.8336 69.502 87.3106 71.4863 87.1325 74.6981C87.1325 76.3199 86.8145 78.0944 87.4696 79.6271C87.495 79.6716 87.5141 79.6971 87.5396 79.7352C87.565 80.2059 87.5904 80.6765 87.6222 81.1472C87.6413 81.4016 87.7367 81.6369 87.8957 81.8404C87.6922 81.2871 87.7622 80.6956 87.8512 80.1041C88.5381 80.6256 89.1677 79.36 89.2313 78.5205C89.2695 77.999 89.2822 77.4711 89.2949 76.9496C89.9055 76.7079 89.9373 71.8997 89.95 71.4227C90.0009 70.7549 89.791 67.1424 89.6002 65.139Z" fill="#4AE0E0"/>
<path d="M94.9613 72.7265C94.9613 72.701 94.885 72.6311 94.8468 72.612C94.8214 72.5039 94.8277 72.3894 94.8214 72.2813C94.7769 71.8488 94.8277 71.3718 94.7387 70.9393C94.7451 70.9203 94.7514 70.8948 94.7641 70.8757C94.8341 70.615 94.8723 70.1571 94.5797 70.0362C94.5988 69.9408 94.6242 69.8454 94.6433 69.7437C94.6051 69.8454 94.5606 69.9535 94.5161 70.0553C94.2553 70.227 94.1281 70.6277 94.1345 70.9457C93.9819 71.2701 93.8229 71.588 93.6384 71.887C93.5112 71.906 93.384 71.9696 93.3013 72.0714C93.0724 72.3703 93.0342 72.8919 93.2759 73.1908C93.4476 73.318 93.613 73.089 93.6639 72.9427C93.6639 72.9364 93.6702 72.93 93.6702 72.9237C93.8674 72.9745 93.8992 73.3561 93.8865 73.5342C93.8737 73.6551 93.8547 73.7695 93.8419 73.8904C93.6702 74.4373 93.5748 75.0606 93.9246 75.544C94.4334 75.9128 94.4843 75.0479 94.5034 74.4628C94.5288 74.3674 94.5606 74.2656 94.5861 74.2274C94.6433 74.1766 94.7832 74.0239 94.8532 73.9285C95.133 73.6105 95.1712 73.089 94.9613 72.7265Z" fill="#4AE0E0"/>
<path d="M96.8942 87.7488C96.6335 87.4817 96.3854 87.2019 96.201 86.8775C96.112 86.7439 96.042 86.604 95.972 86.4641C96.0038 86.3687 96.0356 86.2669 96.0674 86.1652C96.0865 85.9299 96.0929 85.5228 95.8258 85.4401C95.7622 85.4465 95.6604 85.4465 95.635 85.3765C95.6032 85.2557 95.5014 85.0713 95.3488 85.1476C95.0689 85.3765 95.1707 85.7963 95.2088 86.1079C95.2279 86.2479 95.2661 86.3814 95.2979 86.5213C95.0816 86.8393 94.8527 87.1446 94.5856 87.4372C94.3375 87.6725 94.2358 88.0477 94.382 88.3657C94.522 88.6011 94.859 88.5565 95.0498 88.7219C95.2025 88.8173 95.2406 89.0081 95.2534 89.1798C95.247 89.7522 95.1198 90.3119 95.0371 90.8779C95.0371 90.9034 95.0308 90.9288 95.0308 90.9543C95.0244 90.9733 95.0244 90.9924 95.018 91.0115C95.0117 91.0687 95.0117 91.126 95.0053 91.1896C94.9862 91.3549 94.9735 91.5203 94.9735 91.692C94.9735 91.7111 94.9672 91.7302 94.9672 91.7429H94.9735C94.9735 91.9464 94.999 92.1436 95.0816 92.328C95.5078 93.0085 95.794 91.9464 95.7304 91.6857C95.9084 90.8271 96.0929 89.8858 96.748 89.2498C96.7607 89.2434 96.767 89.2371 96.7798 89.2371C96.7988 89.2434 96.8243 89.2498 96.8434 89.2498C97.3522 89.1289 97.3013 87.9523 96.8942 87.7488ZM96.0229 88.3149C95.953 88.3975 95.8894 88.4866 95.8321 88.5756C95.7304 88.2831 95.7749 87.7806 95.5268 87.5644C95.5459 87.5262 95.565 87.4881 95.5841 87.4499C95.7113 87.7425 95.8512 88.035 96.0229 88.3149ZM94.9163 87.7552C95.0753 87.4563 95.2343 87.1637 95.3742 86.8584C95.3806 86.8902 95.3933 86.922 95.3996 86.9538C95.3424 87.1955 95.2724 87.4308 95.1452 87.6407C95.1134 87.6979 95.1071 87.7679 95.1198 87.8379C95.0498 87.8061 94.9862 87.7743 94.9163 87.7552Z" fill="#4AE0E0"/>
<path d="M89.6892 97.6641C87.654 97.9948 87.5713 103.14 89.3966 103.929C89.4157 104.177 89.4221 104.437 89.4412 104.113C89.4475 104.056 89.4475 104.005 89.4539 103.948C89.5302 103.98 89.6065 104.011 89.6892 104.024C91.8325 103.674 91.8198 97.9948 89.6892 97.6641Z" fill="#4AE0E0"/>
<path d="M89.9248 111.949C89.9312 111.885 89.9375 111.822 89.9503 111.764C89.9693 110.963 90.1602 110.759 89.9121 110.028C89.8485 109.914 89.7595 109.78 89.6259 109.755C89.5242 109.704 89.4415 109.786 89.3651 109.85C88.8754 110.779 88.7419 111.866 88.532 112.884C88.3539 114.137 87.9723 115.415 88.0105 116.674C88.0296 116.91 88.214 117.139 88.3921 117.132C88.3476 118.023 88.3476 118.919 88.3158 119.81C88.621 118.455 88.6401 116.986 89.1362 115.682C89.1807 115.58 89.2189 115.479 89.257 115.377C89.257 115.377 89.257 115.377 89.257 115.37C89.3334 115.148 89.3779 114.932 89.3334 114.722C89.6196 114.238 89.734 113.666 89.7976 113.087C89.8231 113.151 89.8676 113.208 89.9376 113.208C90.0711 113.125 90.1792 111.955 89.9248 111.949Z" fill="#4AE0E0"/>
<path d="M130.706 62.4616C130.61 61.7938 130.222 60.6172 129.357 61.0052C128.823 61.2468 127.882 63.1294 127.996 63.0467C127.526 63.7654 126.852 64.3124 126.254 64.9229C124.632 66.4938 123.773 68.6308 122.737 70.596C122.622 70.7678 122.52 70.9331 122.469 71.0158C122.412 71.1048 122.355 71.1939 122.304 71.2702C122.33 71.232 122.355 71.1939 122.38 71.1494C121.999 71.7218 121.611 72.2878 121.248 72.8729C121.229 72.9047 121.198 72.9429 121.159 73.0065C120.441 73.7888 119.722 74.571 119.366 75.5759C119.143 75.8112 118.895 76.0211 118.692 76.2819C117.356 78.1708 113.96 82.4384 111.231 85.6247C109.457 87.6854 106.913 91.2851 106.423 92.2264C105.387 93.8673 104.649 95.6672 103.568 97.289C103.466 97.448 103.612 97.2254 103.695 97.0982C103.154 97.9695 102.187 99.1588 101.183 100.513C99.9297 102.53 99.3636 103.261 97.9263 105.411C97.3157 106.333 96.9468 107.389 96.3235 108.304C95.8084 109.042 95.1406 109.653 94.7272 110.461C93.8304 112.12 93.2199 113.952 92.2404 115.561C91.9415 115.987 91.4899 116.274 91.191 116.7C90.9112 117.088 90.8603 117.584 90.7903 118.048C90.7649 118.283 90.7267 118.519 90.6886 118.754C90.6631 118.894 90.6313 119.034 90.5932 119.174C90.5741 119.288 90.4087 119.613 90.5169 119.434C90.8158 118.888 90.8794 118.258 91.0765 117.673C91.2801 116.929 92.1514 116.751 92.6093 116.191C93.1372 115.663 93.4425 114.97 93.8431 114.346C93.964 114.168 94.0848 113.99 94.212 113.806C94.5046 113.386 94.7844 112.96 95.0452 112.521C95.2932 111.911 96.4317 111.039 97.1503 110.263C98.0471 109.138 98.7785 107.885 99.8215 106.873C100.763 105.919 101.539 104.813 102.423 103.808C103.383 102.765 104.413 101.785 105.247 100.641C107.046 98.2938 107.199 97.6006 108.7 95.7435C111.766 91.7939 115.582 88.4804 118.609 84.4926C119.334 83.475 120.129 82.521 120.746 81.4335C120.937 81.1727 121.477 80.3714 121.592 80.0534C121.681 79.8626 121.859 79.3538 121.916 79.1693C121.923 79.163 121.923 79.1502 121.929 79.1375C123.093 77.662 123.195 77.344 124.46 75.4551C125.408 73.8269 126.037 72.0334 126.972 70.3925C127.004 70.3353 127.036 70.2844 127.061 70.2399C127.742 69.1841 128.601 68.2492 129.23 67.1553C129.605 66.5256 129.828 65.8197 130.057 65.1264C130.063 65.1137 130.063 65.1074 130.07 65.0883C130.101 65.0183 130.133 64.9547 130.171 64.8911C130.267 64.7639 130.362 64.6431 130.445 64.5159C130.731 63.8735 130.795 63.1485 130.706 62.4616Z" fill="#4AE0E0"/>
<path d="M136.321 66.2075C136.08 66.1375 135.787 66.0549 135.571 65.9467C135.603 65.1517 136.379 63.1229 135.323 62.5696C135.316 62.5569 135.31 62.5441 135.304 62.5314C135.164 62.2071 134.712 62.2325 134.572 62.5441C134.35 62.9321 134.248 63.5618 134.388 64.0642C134.312 64.4013 134.222 64.7511 134.153 65.1072C133.879 65.3489 133.599 65.5842 133.338 65.8386C133.148 66.0167 133.148 66.3347 133.249 66.5637C133.262 66.5891 133.281 66.6082 133.294 66.6273C133.408 66.9516 133.669 67.206 133.771 67.5304C133.358 68.2809 133.046 69.1013 133.338 69.8963C133.695 70.456 134.013 69.8518 134.216 69.1713C134.439 68.7833 134.706 68.4144 135.005 68.1091C135.393 68.1473 135.787 68.3699 136.181 68.2999C136.887 68.1155 136.856 66.57 136.321 66.2075Z" fill="#4AE0E0"/>
<path d="M124.695 81.09C124.695 81.0837 124.701 81.0773 124.701 81.0646L124.695 81.0582C124.733 80.8547 124.733 80.6575 124.638 80.454C124.599 80.3777 124.51 80.3268 124.434 80.3713C124.173 80.6957 124.027 81.1091 123.887 81.5098C123.849 81.5098 123.804 81.5098 123.76 81.5289C123.474 81.8151 123.512 82.2348 123.544 82.6355C123.499 82.8835 123.486 83.1379 123.518 83.3796C123.467 83.6658 123.41 83.952 123.41 84.2446C123.595 85.0523 123.76 84.5689 123.843 84.1365C123.983 84.2891 124.135 84.2891 124.345 83.9711C124.568 83.7103 124.657 83.3923 124.682 83.0616C124.828 82.6737 124.905 82.2475 124.93 81.8596C124.962 81.5416 124.854 81.2427 124.695 81.09Z" fill="#4AE0E0"/>
<path d="M79.0355 116.248C78.7112 115.485 78.0942 114.531 77.6808 113.958C77.1848 113.183 76.6696 112.057 76.1544 111.154C75.5184 109.971 74.7489 108.87 73.903 107.827C73.4514 107.032 73.1016 106.18 72.7073 105.353C72.3957 104.673 72.1476 103.948 71.6897 103.35C71.3145 102.848 70.9074 102.39 70.6149 101.874C69.7436 100.036 68.7641 98.262 67.7274 96.513C67.0914 95.171 66.6144 93.7464 65.8958 92.4426C64.7446 90.5855 64.5602 90.5791 63.657 88.4294C62.4804 86.1144 61.2466 83.7993 59.6312 81.7641C59.5485 81.5161 59.4213 81.1345 59.364 80.9691C58.5627 78.9785 58.5118 79.3728 57.8058 78.1453C57.7104 78.0054 57.6087 77.84 57.5069 77.6874C56.2095 75.614 55.3318 73.2672 53.7609 71.3783C51.6239 69.165 51.0579 67.4033 49.3916 64.7321C49.1817 64.3759 47.9924 62.4933 46.9557 62.3852C46.8666 62.3852 46.7776 62.3916 46.6949 62.4043C46.6695 62.3471 46.6504 62.2835 46.625 62.2199C46.5296 61.9337 46.396 61.5584 46.0716 61.4948C45.1622 61.3867 45.0922 63.123 45.2957 63.8671C45.0477 64.7766 45.1494 65.8959 45.4865 66.5828C45.9254 67.3524 45.8236 66.8754 46.4469 67.8039C46.644 68.1156 47.0574 68.7643 47.2864 69.1077C48.0941 70.437 48.9909 71.868 49.8876 73.229C50.3774 74.183 50.9498 75.0861 51.554 75.9702C51.8338 76.4981 52.1582 76.9878 52.508 77.3439C52.5207 77.3567 52.527 77.3694 52.5398 77.3821C53.64 79.2329 54.5877 81.179 55.866 82.9217C56.2286 83.4432 56.6292 83.9329 57.0045 84.4481C57.0045 84.4544 57.0045 84.4544 57.0108 84.4608C57.3225 85.8727 58.1302 87.0684 59.1224 88.0987C59.2305 88.2259 59.3386 88.3722 59.4149 88.4739C59.9046 89.2753 61.2148 91.266 61.2466 91.2787C61.9398 92.4044 62.5059 93.6128 63.2945 94.6749C64.0768 95.7053 64.2167 95.7307 64.6301 96.4367C65.7304 98.6245 66.8943 100.482 68.3634 102.434C68.497 102.638 69.6863 104.851 70.7421 105.703C70.8375 105.805 70.9392 105.9 71.0283 106.002C71.0855 106.11 71.1173 106.142 71.111 106.097C71.111 106.072 71.1173 106.085 71.1428 106.148C71.8296 107.3 72.472 108.482 73.2479 109.57C74.7298 110.95 75.9064 112.597 77.0194 114.276C78.1197 115.498 79.0864 116.808 79.8242 118.283C79.8941 118.417 79.9704 118.55 80.0213 118.69C79.7542 117.857 79.3853 117.056 79.0355 116.248Z" fill="#4AE0E0"/>
<path d="M57.793 78.1262C57.793 78.1326 57.7993 78.1326 57.7993 78.1389C57.9011 78.2916 57.9838 78.4188 58.0092 78.4633C57.9901 78.4251 57.9202 78.3234 57.793 78.1262Z" fill="#4AE0E0"/>
<path d="M58.0156 78.4697C58.0347 78.5015 58.0347 78.4952 58.0156 78.4697V78.4697Z" fill="#4AE0E0"/>
<path d="M60.5088 69.5465C60.5088 69.4701 60.5088 69.3875 60.5088 69.2921C60.5978 68.5034 60.0572 64.7001 58.798 65.5524C58.2001 66.2075 58.5372 67.0661 58.7789 67.8293C58.5754 68.4843 58.3591 69.1394 58.1302 69.7882C57.9076 70.227 57.7867 70.7994 58.0411 71.2509C58.1111 71.3718 58.2256 71.4545 58.3655 71.4799C58.4927 71.4735 58.6517 71.3654 58.7407 71.499C59.0206 71.8361 59.0206 71.906 59.205 72.1604C59.2622 72.3003 59.2177 73.0318 59.2114 73.3752C59.2114 73.3688 59.2114 73.3688 59.2114 73.3625C59.1986 73.7695 59.2368 74.2847 59.5866 74.5391C60.7187 74.8189 60.3625 71.887 60.5024 71.2637C60.7759 70.7485 60.7505 70.0616 60.5088 69.5465ZM58.6962 70.0362C58.7916 69.5719 58.8806 69.1076 58.9697 68.6433C59.046 69.1712 59.1032 69.7055 59.1478 70.2397C59.0714 70.1761 58.9951 70.1189 58.9061 70.068C58.8298 70.0489 58.7598 70.0426 58.6962 70.0362Z" fill="#4AE0E0"/>
<path d="M69.0502 88.264C69.0311 87.8569 69.0184 87.4499 69.0057 87.0429C68.9866 86.9157 68.8976 86.7185 68.7386 86.7821C68.6623 86.8775 68.6241 86.9856 68.5923 87.1001C68.5859 87.1001 68.5859 87.0937 68.5796 87.0937C68.5796 87.1128 68.5796 87.1319 68.5732 87.1573C68.5351 87.3354 68.5414 87.5326 68.5414 87.7297C68.5351 87.8506 68.5287 87.9714 68.5287 88.0859C68.3061 88.4548 68.1471 88.8491 68.287 89.2434C68.3188 89.3197 68.4015 89.3197 68.4587 89.2689C68.4905 89.2434 68.516 89.218 68.5414 89.1925C68.5669 89.7331 68.6114 90.2356 68.6305 90.7189C68.6623 91.9083 69.1583 91.7302 69.2347 90.6808C69.2347 89.8858 69.2665 89.0335 69.0502 88.264Z" fill="#4AE0E0"/>
<path d="M71.9131 97.5178C71.9131 97.5878 71.9131 97.6641 71.9131 97.7341C71.9068 98.0902 71.9576 98.4464 71.9258 98.7962C71.9258 98.8471 71.9004 98.9043 71.8813 98.9679C71.7859 98.7008 71.7478 98.4146 71.7796 98.1347C71.6714 98.5227 71.6524 99.076 71.894 99.394C71.9831 99.3622 71.9767 99.2223 72.0212 99.1396C72.1866 98.6117 71.9894 98.0521 71.9131 97.5178Z" fill="#4AE0E0"/>
<path d="M65.8828 51.2044C65.7747 50.7147 65.5584 50.6129 65.3231 50.7147C65.3167 50.702 65.3167 50.6829 65.3167 50.6638C64.7698 50.0978 64.6807 49.2137 64.4009 48.4696C64.5599 48.1135 64.6489 47.7064 64.6171 47.3439C64.4009 46.5425 64.0447 47.0513 63.7967 47.7573C63.6123 47.9545 63.5741 48.2152 63.5995 48.4823C63.5232 48.8703 63.4978 49.2137 63.5741 49.3409C63.6059 49.5826 63.7395 49.7861 63.8985 49.9642C63.8667 50.0723 63.8285 50.1868 63.7903 50.2949C63.0271 50.2568 62.9572 51.5542 63.6059 51.7577C63.7204 51.7768 63.8094 51.7132 63.8794 51.6305C63.8985 51.6433 63.9175 51.6623 63.9239 51.6878C64.102 52.0121 64.1465 52.3301 64.1719 52.6227C64.1147 52.9789 64.0765 53.4304 64.1338 53.7866C63.9239 53.5385 63.6949 53.2969 63.4596 53.0679C62.0095 50.8101 60.8011 48.3615 59.0776 46.3009C58.6133 45.4423 57.8692 44.7872 57.0487 45.5885C56.9152 45.7857 56.8007 45.9892 56.7053 46.2118C56.5717 46.1546 56.4509 46.1864 56.3555 46.3517C56.2537 46.2118 56.1583 46.0655 56.0629 45.9193C55.9866 45.7157 55.9103 45.5313 55.834 45.385C55.7386 45.3087 55.5796 45.3596 55.5351 45.4677C55.3761 45.8111 55.6177 46.1482 55.7259 46.4662C55.8467 46.7779 56.0057 47.1086 56.1838 47.4457C56.2156 47.6237 56.2728 47.7891 56.3428 47.9545C56.3237 48.9212 56.5781 49.907 57.0933 50.6829C57.2904 50.95 57.4749 51.2044 57.6466 51.4461C58.5179 53.2651 59.8026 54.8741 61.0301 56.4641C61.1573 56.6168 61.2845 56.7631 61.4117 56.9157C61.4753 57.0047 61.5389 57.0874 61.6025 57.1828C61.7488 57.3355 61.9141 57.5644 62.0986 57.8188C62.1813 57.9524 62.2767 58.0859 62.3784 58.2004C63.0971 59.1735 63.9939 60.1847 64.7634 58.9891C65.5203 57.7171 65.4185 55.9681 64.7889 54.6643C64.7253 54.5561 64.6553 54.4544 64.5853 54.3526C64.6362 54.359 64.6807 54.3653 64.7443 54.359C65.0242 54.1682 65.1196 53.6212 65.0878 52.9852C65.1514 52.8262 65.3358 52.6418 65.4567 52.4955C65.4885 52.4383 65.692 52.381 65.5393 52.4255C65.8446 52.292 66.01 51.7387 65.8828 51.2044Z" fill="#4AE0E0"/>
<path d="M81.4724 46.7651C81.2752 46.8097 81.1798 46.9814 81.1925 47.1786C81.1989 46.886 81.555 46.8606 81.7331 47.0259C81.943 47.1849 82.032 47.4775 82.0448 47.7001C82.0511 47.7891 82.0448 47.8336 81.9112 47.8972C81.7204 47.9735 81.5232 47.7573 81.4151 47.6174C81.3197 47.5029 81.4406 47.3884 81.4851 47.274C81.5296 47.1213 81.3515 47.134 81.2561 47.115C81.3006 47.1658 81.4278 47.1595 81.4406 47.2294C81.3515 47.2994 81.2816 47.4139 81.2816 47.5347C81.2752 47.9608 81.8858 48.6032 82.191 48.0499C82.3691 47.5792 82.0957 46.6634 81.4724 46.7651Z" fill="#4AE0E0"/>
<path d="M87.8318 54.1807C87.9462 53.939 87.9653 53.5892 87.8318 53.3666C87.7109 53.1058 87.5392 53.1949 87.4247 53.3539C87.3866 53.3412 87.3548 53.3157 87.323 53.2966C87.2339 53.233 87.1322 53.1567 87.0368 53.0677C87.1067 52.7306 87.1194 52.3426 87.024 52.0755C87.1958 51.6685 87.3929 51.2805 87.7491 51.0261C87.4502 51.0579 87.2212 51.2678 87.024 51.4968C87.094 51.1851 87.094 51.0897 86.8332 51.7066C86.8142 51.7321 86.8014 51.7639 86.7887 51.7893C86.7887 51.7957 86.7824 51.7957 86.7824 51.802C86.6933 51.7702 86.5788 51.7702 86.4389 51.8275C85.6185 52.5398 84.8235 53.8881 85.5422 54.9184C86.1082 55.2873 86.2227 55.8025 86.2481 56.4067C86.2481 56.4385 86.2545 56.4576 86.2545 56.4766C86.2736 56.7819 86.2545 57.0936 86.3753 57.3798C86.4262 57.596 86.6997 57.8695 86.9032 57.6596C87.1703 57.367 87.2021 56.9791 87.183 56.5848C87.2021 56.4512 87.1894 56.254 87.1576 55.9551C87.1512 55.8534 87.1449 55.7452 87.1322 55.6435C87.4438 55.211 87.6728 54.6704 87.8318 54.1807ZM86.5661 53.9326C86.6234 53.8945 86.687 53.8372 86.7506 53.7546C86.8205 53.8818 86.9032 54.0026 87.005 54.1171C86.9414 54.1998 86.8714 54.2824 86.8078 54.3588C86.7378 54.2061 86.6552 54.0662 86.5661 53.9326Z" fill="#4AE0E0"/>
<path d="M102.365 49.1246C102.269 49.4362 102.346 48.2024 102.288 47.8398C102.231 48.3423 102.142 48.8574 102.25 49.3535C102.256 49.379 102.282 49.4108 102.314 49.398C102.638 49.239 102.632 48.8702 102.67 48.5585C102.574 48.7493 102.581 49.0292 102.365 49.1246Z" fill="#4AE0E0"/>
<path d="M129.491 50.4665C129.465 50.4728 129.44 50.4855 129.414 50.4919C129.414 50.4855 129.414 50.4728 129.414 50.4665C129.109 50.6191 128.766 50.7018 128.479 50.8862C128.473 50.8862 128.467 50.8989 128.46 50.8989C128.333 50.8671 128.225 50.7654 128.142 50.6191C128.2 50.759 128.25 50.9053 128.34 51.0261C128.168 51.3123 128.072 51.9992 128.053 52.7561C127.971 52.6925 127.882 52.6352 127.799 52.5716C127.684 52.5017 127.57 52.419 127.455 52.349C127.837 51.4141 127.983 50.3838 128.047 49.3789C127.799 50.3075 127.545 51.2869 126.953 52.0628C126.756 52.3299 126.743 52.7497 126.928 53.0295C127.29 53.4048 127.742 53.7482 128.098 54.1489C128.2 55.122 128.441 55.8597 128.842 55.5354C129.192 55.2428 129.122 54.7086 129.096 54.2952C129.077 53.9263 128.925 53.6274 128.715 53.373C128.658 52.8133 128.632 52.3236 128.626 51.7512C128.874 51.3378 129.949 51.077 129.491 50.4665Z" fill="#4AE0E0"/>
<path d="M128.51 57.857C128.51 57.8506 128.504 57.8506 128.504 57.8442C128.497 57.8315 128.491 57.8188 128.485 57.8124C128.478 57.7997 128.478 57.7934 128.466 57.7806C128.097 57.31 127.868 56.744 127.613 56.2097C127.391 55.6691 127.136 55.1476 126.876 54.6324C126.856 54.3908 126.812 54.1618 126.748 53.9837C125.114 51.3825 124.103 48.1516 122.252 45.5758C121.794 45.0288 121.082 45.137 120.897 45.8556C120.522 46.8796 120.655 48.0435 121.12 49.0166C121.8 50.314 122.722 51.4397 123.689 52.5336C124.052 53.1696 124.421 53.7993 124.815 54.3971C124.917 54.6642 125.018 54.9186 125.114 55.154C125.305 55.6246 125.693 56.038 126.22 56.1016C126.354 56.0634 126.456 55.9871 126.545 55.8981C127.136 56.6931 127.677 57.539 128.466 58.1432C128.523 58.1686 128.555 58.0923 128.561 58.0478C128.561 57.9778 128.542 57.9142 128.51 57.857Z" fill="#4AE0E0"/>
<path d="M106.117 57.3925C105.722 57.1127 105.373 56.7947 105.061 56.4576C105.404 56.2923 105.589 55.7135 105.627 54.9503C105.614 54.4097 105.519 53.7483 105.048 53.4239C104.972 53.3857 104.927 53.3603 104.896 53.3412C104.838 53.2967 104.775 53.2458 104.718 53.1949C104.559 53.0105 103.827 52.3554 104.126 52.6098C103.878 52.3236 103.617 52.0438 103.363 51.7639C102.689 50.8799 102.116 49.9132 101.36 49.0927C101.347 49.08 101.328 49.0673 101.315 49.0546C101.029 48.4695 100.704 47.8971 100.329 47.3755C99.8649 46.6887 99.2162 46.0654 98.364 45.9382C98.0142 45.9 97.6771 45.5884 97.3146 45.741C96.5068 46.4215 96.5514 47.9098 97.1174 48.7366C98.8282 50.899 100.768 52.9024 102.778 54.7913C103.63 55.987 104.641 57.0173 106.117 57.3925Z" fill="#4AE0E0"/>
<path d="M86.8978 58.5439C86.5735 58.105 86.2173 57.5263 85.8293 56.8585C85.7975 55.6183 84.9771 54.448 84.1821 53.494C83.9531 53.1951 83.7305 52.8962 83.5079 52.5909C82.3377 50.4412 81.0657 48.2152 79.7746 46.6316C79.3294 46.2754 78.8079 45.1433 78.191 45.8493C77.7649 46.3963 77.7331 47.134 77.7967 47.7955C77.7839 48.0371 78.1719 48.953 77.9493 48.3742C78.0574 48.6477 78.1783 48.9148 78.2927 49.1756C78.3754 49.5317 78.4517 49.8179 78.4645 49.9006C78.4517 49.7543 78.4327 49.6017 78.4136 49.4554C79.6347 52.0567 81.4791 54.359 83.2981 56.5723C83.8132 57.38 84.6655 59.8604 85.5622 58.1114C85.6385 57.9524 85.6894 57.787 85.7339 57.628C86.0901 57.9842 86.4653 58.3213 86.8597 58.6329C86.8978 58.6202 86.9042 58.5693 86.8978 58.5439Z" fill="#4AE0E0"/>
<path d="M44.5714 54.9758C44.5396 54.9249 44.5078 54.874 44.4823 54.8232C44.4314 54.6832 44.3869 54.5433 44.3297 54.4161C44.2597 54.2571 44.1834 54.1045 44.1071 53.9455C44.158 54.1108 44.2088 54.2698 44.2534 54.4416C43.681 53.4812 43.1086 52.5208 42.5743 51.5414C42.3581 50.9054 42.1291 50.244 41.8684 49.5316C41.5631 48.6858 41.1878 47.8462 40.5836 47.1657C40.5773 47.1594 40.5773 47.1594 40.5709 47.153C40.5518 47.064 40.5264 46.9813 40.4819 46.8986C40.3738 46.5742 40.202 46.3962 40.024 46.3516C39.8395 45.8428 39.6424 45.334 39.3244 44.8952C38.9618 44.3546 38.1287 44.3546 37.7598 44.8952C36.6659 46.4025 36.9584 48.3805 37.3718 50.0786C37.5245 50.7464 37.7026 51.4142 37.9124 52.0756C38.0842 53.5512 38.5357 54.9949 39.2417 56.286C40.0621 57.6534 41.2133 58.7791 42.1037 60.0956C42.6379 60.8652 43.3693 62.3725 44.3806 61.2213C44.8258 60.6362 45.0611 59.9302 45.1438 59.1988C45.1883 59.0844 45.2264 58.9762 45.2582 58.8681C45.6462 57.5262 45.3346 56.1206 44.5714 54.9758Z" fill="#4AE0E0"/>
<path d="M46.7852 48.5839C46.6199 48.4122 46.5117 48.1387 46.3082 48.0179C46.1874 47.9924 46.0538 48.1133 45.9711 48.1896C45.7549 48.5076 45.774 48.921 45.8503 49.2835C45.8439 49.3725 45.8439 49.4679 45.8503 49.5697C45.7358 50.0276 45.7231 50.511 45.8249 50.9307C45.8312 50.9371 45.8376 50.9435 45.8376 50.9498C45.8376 51.5858 45.8885 52.6479 46.4736 52.2663C46.7407 52.0692 46.8043 51.7067 46.8615 51.395C46.8806 51.1979 46.9697 50.829 47.0651 50.3329C47.2368 49.9322 47.2686 49.08 46.7852 48.5839Z" fill="#4AE0E0"/>
<path d="M114.015 40.6086C109.652 38.1855 104.481 38.5289 99.6605 38.2109C96.436 38.0964 93.1988 38.0837 89.9679 38.1982C86.3554 38.0837 82.7366 38.1918 79.1432 38.5353C73.2856 38.1727 67.4344 38.4717 61.8567 40.1761C59.4145 40.0998 56.9659 40.1253 54.5236 40.2715C53.6332 40.3924 52.7492 40.5323 51.8651 40.6786C46.8789 40.7104 41.9626 41.5944 37.5742 44.1193C38.2102 43.9603 38.8526 43.8268 39.4949 43.6996C41.6637 43.8141 43.8388 43.8459 46.0076 43.8077C48.329 43.7505 50.6504 43.6169 52.9654 43.4388C55.6748 43.6296 59.0774 43.5342 61.5578 43.2353C64.8141 42.8855 68.0005 42.1287 71.1995 41.4736C72.5669 41.499 73.9471 41.5117 75.3017 41.5117C75.7088 41.5181 76.1095 41.5308 76.5165 41.5372C76.5737 41.5372 76.6246 41.5372 76.6819 41.5372C81.1784 41.7153 85.6622 41.5753 90.146 41.3273C90.8837 41.3845 91.6151 41.4354 92.3529 41.4799C96.9194 41.7534 101.505 41.5499 106.065 41.2446C108.278 41.0411 110.53 41.022 112.699 40.5132C111.649 40.3924 110.593 40.2715 109.544 40.1443C111.051 40.0998 112.546 40.2143 114.015 40.6086Z" fill="#D9FFFF"/>
<path d="M32.9261 45.2768C29.8733 50.651 26.7124 55.9616 23.4434 61.2086C23.4624 61.1768 23.914 61.0496 23.8822 61.0623C24.2384 60.9351 24.5882 60.8079 24.938 60.6807C25.2878 60.5535 25.6439 60.4263 25.9937 60.2927C26.0828 60.2609 26.3817 60.1973 26.4262 60.121C29.6952 54.874 32.8562 49.5634 35.909 44.1892C35.8899 44.221 35.4383 44.3482 35.4701 44.3355C35.114 44.4627 34.7642 44.5899 34.4144 44.7171C34.0646 44.8443 33.7084 44.9715 33.3586 45.105C33.2759 45.1368 32.9706 45.2004 32.9261 45.2768Z" fill="black"/>
<path d="M33.1797 45.5565C46.841 45.4293 60.5022 45.3021 74.1635 45.1749C87.8312 45.0477 101.499 44.9205 115.166 44.7933C122.9 44.7233 130.634 44.647 138.368 44.5771C138.819 44.5707 139.449 44.2018 139.869 44.0492C140.288 43.8965 140.912 43.4959 141.357 43.4895C127.689 43.6167 114.022 43.7439 100.354 43.8711C86.6864 43.9983 73.0187 44.1255 59.3511 44.2527C51.6237 44.3227 43.8963 44.399 36.1689 44.4689C35.7173 44.4753 35.0877 44.8442 34.6679 44.9968C34.2482 45.1495 33.6249 45.5565 33.1797 45.5565Z" fill="black"/>
<path d="M138.369 45.951C141.371 49.6398 144.131 53.513 146.637 57.5516C146.675 57.6089 148.017 57.0683 148.138 57.0237C148.253 56.9792 149.607 56.4323 149.626 56.4641C147.12 52.4255 144.36 48.5522 141.358 44.8634C141.295 44.7871 139.997 45.3404 139.857 45.3913C139.73 45.4422 138.42 46.0146 138.369 45.951Z" fill="black"/>
<path d="M23.7305 63.4535C31.4388 71.9696 39.2171 80.422 47.078 88.7981C54.9008 97.1361 62.7999 105.404 70.769 113.602C75.2783 118.239 79.813 122.85 84.3667 127.442C84.4557 127.531 85.715 126.965 85.8677 126.914C86.014 126.863 87.2732 126.271 87.3559 126.354C79.266 118.2 71.246 109.977 63.3024 101.677C55.3969 93.4155 47.5614 85.0839 39.8085 76.6887C35.4201 71.9314 31.0572 67.1614 26.7133 62.366C26.637 62.2833 25.3586 62.843 25.2123 62.8939C25.0788 62.9447 23.7941 63.5235 23.7305 63.4535Z" fill="black"/>
<path d="M147.037 58.6391C138.896 67.3777 130.819 76.1736 122.812 85.0331C114.805 93.8926 106.861 102.816 98.9872 111.796C94.5352 116.871 90.1087 121.966 85.7012 127.079C85.7393 127.035 86.14 126.933 86.14 126.933C86.4962 126.806 86.846 126.678 87.1958 126.551C87.5456 126.424 87.9017 126.297 88.2515 126.163C88.3596 126.125 88.6141 126.074 88.684 125.991C96.4814 116.948 104.349 107.955 112.28 99.0251C120.211 90.0956 128.211 81.2298 136.282 72.4212C140.842 67.4413 145.422 62.4869 150.026 57.5452C149.982 57.596 149.6 57.6914 149.587 57.6914C149.231 57.8186 148.881 57.9458 148.532 58.073C148.182 58.2002 147.826 58.3274 147.476 58.461C147.361 58.5119 147.12 58.55 147.037 58.6391Z" fill="black"/>
<path d="M24.0352 62.6205C39.6871 62.2198 55.3454 62.1753 70.9974 62.1944C86.7257 62.2135 102.46 62.3089 118.189 62.188C126.959 62.1244 135.729 61.9909 144.5 61.7365C144.958 61.7238 145.568 61.3612 146.001 61.2086C146.427 61.056 147.038 60.6616 147.489 60.6489C131.888 61.0941 116.274 61.1704 100.667 61.1577C84.9194 61.145 69.1784 61.0496 53.4311 61.145C44.6288 61.1959 35.8202 61.3104 27.018 61.533C26.5601 61.5457 25.9432 61.9082 25.517 62.0608C25.0973 62.2198 24.4867 62.6078 24.0352 62.6205Z" fill="black"/>
<path d="M33.2695 48.1005C36.1888 52.667 39.1017 57.2271 42.0209 61.7936C42.0336 61.8127 44.9083 60.9032 45.0101 60.706C47.9484 55.0583 51.4655 49.735 55.5105 44.8187C54.5119 45.1813 53.5198 45.5438 52.5213 45.9063C55.1797 51.9101 58.8176 57.437 63.2951 62.2451C63.3587 62.3151 66.2271 61.3229 66.2843 61.1576C68.4849 54.7594 72.4026 49.0418 77.5733 44.6788C76.5748 45.0413 75.5826 45.4039 74.5841 45.7664C77.1599 51.8147 80.6833 57.4243 85.0145 62.3723C85.0717 62.4359 87.9337 61.4565 88.0037 61.2848C90.3251 55.5035 93.2125 49.964 96.6342 44.7615C95.6357 45.124 94.6435 45.4865 93.645 45.8491C96.4561 52.1963 100.851 57.755 106.378 61.9526C106.511 62.0543 107.701 61.4883 107.879 61.4247C108.228 61.2975 108.585 61.1703 108.934 61.0367C109.017 61.0049 109.335 60.935 109.367 60.865C110.715 58.1111 112.203 55.4209 113.838 52.826C114.646 51.5476 115.485 50.2947 116.357 49.0609C117.113 47.9924 117.953 46.3515 119.238 45.8491C118.258 46.2052 117.279 46.5614 116.299 46.9112C117.902 46.5232 118.602 48.2595 119.021 49.4806C119.607 51.1724 120.319 52.8005 121.209 54.3524C122.984 57.4561 125.369 60.1781 128.186 62.3723C128.313 62.4741 129.509 61.9081 129.687 61.8445C130.037 61.7173 130.393 61.5901 130.743 61.4565C130.826 61.4247 131.137 61.3547 131.175 61.2848C134.152 55.5989 137.135 49.9195 140.13 44.2463C140.022 44.4499 138.865 44.6915 138.629 44.7742C138.28 44.9014 137.923 45.0286 137.574 45.1622C137.491 45.194 137.179 45.2639 137.141 45.3339C134.152 51.0134 131.169 56.6929 128.186 62.3723C129.185 62.0098 130.177 61.6473 131.175 61.2848C126.971 58.0094 123.779 53.5574 122.049 48.5139C121.737 47.5981 121.362 46.4024 120.44 45.919C120.02 45.7028 119.594 45.7219 119.155 45.8618C118.296 46.1289 117.451 46.4596 116.617 46.784C115.415 47.2419 114.786 48.1832 114.048 49.1944C113.158 50.4155 112.299 51.6557 111.478 52.9214C109.596 55.8215 107.898 58.8362 106.378 61.9462C107.376 61.5837 108.368 61.2212 109.367 60.8587C103.84 56.6611 99.4453 51.1024 96.6342 44.7551C96.6533 44.7933 93.7913 45.6265 93.645 45.8427C90.2233 51.0515 87.3359 56.5847 85.0145 62.366C86.013 62.0035 87.0052 61.6409 88.0037 61.2784C83.6725 56.3303 80.1491 50.7272 77.5733 44.6725C77.5733 44.6725 74.794 45.5819 74.5841 45.76C69.4134 50.123 65.4957 55.8406 63.2951 62.2388C64.2936 61.8763 65.2858 61.5137 66.2843 61.1512C61.8132 56.3431 58.1689 50.8226 55.5105 44.8124C55.5232 44.8378 52.693 45.6964 52.5213 45.8999C48.4763 50.8162 44.9529 56.1395 42.0209 61.7872C43.0194 61.4247 44.0116 61.0622 45.0101 60.6997C42.0908 56.1332 39.178 51.5731 36.2587 47.0066C36.1252 46.7967 33.384 48.2722 33.2695 48.1005Z" fill="black"/>
<path d="M40.9395 63.6317C51.9741 80.3458 63.015 97.0599 74.0496 113.774C77.1469 118.461 80.2379 123.149 83.3352 127.836C83.4815 128.059 86.2036 126.564 86.3244 126.748C75.2898 110.034 64.2489 93.3202 53.2143 76.6061C50.1169 71.9188 47.026 67.2315 43.9287 62.5442C43.7824 62.3216 41.0603 63.8162 40.9395 63.6317Z" fill="black"/>
<path d="M62.5137 65.3744C62.9589 65.3744 63.5949 64.9992 64.0146 64.8465C64.428 64.6939 65.0577 64.2869 65.5029 64.2869C65.0577 64.2869 64.4217 64.6621 64.0019 64.8147C63.5821 64.9674 62.9525 65.3744 62.5137 65.3744Z" fill="black"/>
<path d="M63.3088 61.5775C68.4985 78.3171 73.5166 95.1075 78.3629 111.949C79.7239 116.687 81.0786 121.432 82.4142 126.176C82.4015 126.125 85.4288 125.19 85.4034 125.089C80.6525 108.222 75.7362 91.3996 70.6418 74.6346C69.2108 69.9155 67.7608 65.2028 66.298 60.49C66.3043 60.5154 63.2833 61.5012 63.3088 61.5775Z" fill="black"/>
<path d="M84.4795 62.7858C85.3763 79.1628 85.5289 95.5843 84.9184 111.98C84.7466 116.604 84.5113 121.228 84.2188 125.845C84.2251 125.763 85.5798 125.368 85.7197 125.317C85.8724 125.26 87.2016 124.904 87.2079 124.758C88.2446 108.387 88.5308 91.9655 88.0538 75.5694C87.9203 70.9457 87.7231 66.322 87.4687 61.7046C87.4687 61.7555 86.0886 62.188 85.9678 62.2325C85.8406 62.277 84.4732 62.684 84.4795 62.7858Z" fill="black"/>
<path d="M106.695 62.1308C102.186 78.9593 97.0027 95.6098 91.1579 112.025C89.5106 116.661 87.8061 121.272 86.0508 125.871C86.1144 125.705 87.3546 125.413 87.5517 125.343C87.9015 125.216 88.2577 125.088 88.6075 124.955C88.6775 124.929 89.0145 124.847 89.04 124.783C95.2473 108.502 100.812 91.9783 105.703 75.2515C107.083 70.5323 108.406 65.7941 109.685 61.0369C109.646 61.1768 108.355 61.5011 108.184 61.5647C107.986 61.6474 106.753 61.9273 106.695 62.1308Z" fill="black"/>
<path d="M126.985 61.6921C116.345 77.8401 105.736 94.0136 95.1786 110.219C92.1767 114.823 89.1811 119.428 86.1855 124.039C86.211 124.001 86.6498 123.88 86.6244 123.893C86.9805 123.766 87.3304 123.638 87.6802 123.511C88.03 123.384 88.3861 123.257 88.7359 123.123C88.825 123.091 89.1175 123.028 89.1684 122.952C99.7069 106.734 110.29 90.541 120.911 74.3802C123.932 69.7883 126.953 65.1964 129.974 60.6045C129.949 60.6427 129.51 60.7635 129.535 60.7508C129.179 60.878 128.829 61.0052 128.48 61.1324C128.13 61.2596 127.774 61.3868 127.424 61.5203C127.322 61.5585 127.036 61.6157 126.985 61.6921Z" fill="black"/>
<path d="M34.9805 44.4881C48.9661 41.8678 63.1807 40.7167 77.3953 40.3478C91.6544 39.9725 105.92 40.3669 120.179 40.7866C126.921 40.9838 134.26 41.0029 140.022 45.0097C140.175 45.1114 141.332 44.5517 141.523 44.4818C141.708 44.4118 142.865 43.8203 143.011 43.9221C137.987 40.4305 131.691 39.9789 125.763 39.7817C118.704 39.5464 111.638 39.3556 104.572 39.2284C90.3315 38.974 76.0597 39.0631 61.8578 40.2397C53.8506 40.9011 45.8688 41.9187 37.9697 43.4006C36.9393 43.5977 36.0044 44.2973 34.9805 44.4881Z" fill="black"/>
<path d="M35.5971 45.5821C35.5526 45.5694 35.5081 45.5694 35.4636 45.5566C35.2346 44.9461 35.0311 44.3228 34.8975 43.6804C34.8721 43.9221 34.8784 44.2465 34.8975 44.5899C34.7067 44.8443 34.5032 45.0987 34.3251 45.3595C34.3506 44.8825 34.3569 44.4055 34.3569 43.9285C34.5795 43.2607 34.8657 42.5293 34.7703 41.8233C34.7194 41.7979 34.7194 41.7915 34.6495 41.7852C34.624 41.817 34.624 41.8615 34.605 41.8933C34.694 41.8424 34.7513 42.0777 34.6876 42.1477C34.446 42.8028 34.0516 43.3752 33.6319 43.9221C33.3202 44.3101 33.0468 44.7362 32.6842 45.0796C32.4298 45.2768 32.0737 45.3658 31.9783 45.7156C31.7048 46.3771 31.7366 47.4265 32.4744 47.7572C32.7161 47.8908 33.0468 47.8272 33.0722 48.018C33.0976 48.5077 33.0658 50.4475 33.0786 50.7973C32.8687 51.8785 33.7464 53.3667 34.3569 51.6495C34.7258 50.333 34.8466 48.9592 35.0502 47.6109C35.0947 47.4138 35.0565 47.1594 35.241 47.0322C35.2791 47.0067 35.3236 46.994 35.3682 46.9749C35.3872 47.0004 35.4 47.0258 35.4254 47.0512C36.125 47.3565 36.2077 45.6584 35.5971 45.5821ZM34.9929 45.6139C34.7385 45.7347 34.5414 45.9764 34.4078 46.2562C34.5859 45.7411 34.7385 45.2068 34.8975 44.6281C34.9166 44.9588 34.9484 45.3022 34.9929 45.6139ZM34.1216 44.4754C34.0071 45.0796 33.9181 45.6966 33.8481 46.3071C33.7464 46.1608 33.6319 46.0336 33.4856 45.9382C33.7146 45.474 33.9372 44.927 34.1216 44.4754Z" fill="white"/>
<path d="M76.283 37.8483C76.0477 37.1995 75.6343 36.6462 75.1636 36.7289C74.8838 36.042 74.4704 35.0626 74.3495 34.7382C74.2414 34.4965 74.0951 34.2612 73.9298 34.0577C73.9234 34.0513 73.9171 34.045 73.9107 34.0386C73.9107 34.0068 73.9171 33.9814 73.9171 33.9496C73.9807 33.1864 73.4019 31.2911 72.4352 32.2515C71.8055 33.1355 71.9264 34.3248 71.9264 35.3615C71.9582 35.7113 72.0091 36.0929 72.1045 36.4681C72.1235 36.8116 72.1426 37.155 72.1681 37.4985C72.0154 37.702 71.8373 37.8737 71.6275 38.02C71.1823 38.0073 70.7498 38.2744 70.718 38.7641C70.6162 39.9725 70.9406 40.3986 71.3921 40.2396C71.4812 40.246 71.5766 40.2651 71.6402 40.3223C71.9327 40.8756 71.9773 41.5243 72.1553 42.1222C72.1681 42.1667 72.1871 42.2049 72.1999 42.2494C71.9455 43.9221 72.1172 45.7919 72.4288 46.6441C72.6832 47.5027 73.5227 47.7699 73.9361 46.8477C74.3305 45.9382 74.2605 44.9142 74.2732 43.9348C74.2669 43.9411 74.2605 43.9411 74.2605 43.9475C74.2669 43.9411 74.2732 43.9411 74.2732 43.9348C74.2796 43.9284 74.2859 43.9284 74.2923 43.9221C74.3114 43.903 74.3305 43.8839 74.3495 43.8712C74.9537 43.3433 75.3544 42.6501 75.6788 41.9187C75.7742 41.8869 75.8632 41.8423 75.9332 41.7597C76.7854 40.9583 76.9253 38.9867 76.283 37.8483Z" fill="white"/>
<path d="M74.2734 43.9411C74.3116 43.9093 74.3498 43.8775 74.3879 43.8457C74.3752 43.8521 74.3625 43.8648 74.3498 43.8775C74.3307 43.8966 74.3116 43.9093 74.2925 43.9284C74.2862 43.9284 74.2798 43.9347 74.2734 43.9411Z" fill="white"/>
<path d="M101.436 77.6745C101.411 77.3565 101.347 76.9876 101.099 76.7714C100.908 76.6251 100.666 76.5997 100.552 76.4152C100.189 75.9955 99.5662 76.0845 99.1146 75.8365C98.8602 75.3913 98.8856 74.7934 98.5867 74.3482C98.5167 74.2147 98.4468 74.1193 98.3768 74.043C98.3768 74.0302 98.3705 74.0175 98.3705 74.0112C98.3705 74.0175 98.3705 74.0302 98.3705 74.0366C98.3196 73.9794 98.2624 73.9412 98.2115 73.9094C98.2433 73.496 98.2306 73.0762 98.1224 72.6692C98.0906 72.5802 98.0334 72.453 97.9253 72.4784C97.8553 72.4911 97.8172 72.5674 97.7981 72.6247C97.7218 72.9554 97.7027 73.2861 97.7154 73.6105C97.69 73.744 97.6582 73.8712 97.6264 73.9984C97.4674 74.1829 97.3783 74.4882 97.4419 74.7998C97.3338 75.2323 97.1875 75.8301 97.0412 76.4661C96.895 76.447 96.7487 76.428 96.596 76.4089C96.5833 76.4089 96.5897 76.4152 96.5833 76.4152C96.5452 76.3898 96.5197 76.358 96.4816 76.3389C95.8456 76.1227 95.6738 77.1148 95.6738 77.5664C95.6802 78.0243 95.782 78.5967 96.2144 78.832C96.6024 79.5189 97.0222 80.1994 97.461 80.8609C97.4419 80.8291 97.4355 80.8291 97.4928 80.9118C97.7408 81.2997 97.9698 81.7004 98.1415 82.1265C98.186 82.2982 98.186 82.2792 98.1415 82.0756C98.1733 82.3046 98.2433 82.5336 98.3832 82.7116C98.8666 83.1568 99.1464 82.4127 99.1846 81.9294C99.2164 81.834 99.2545 81.6877 99.28 81.5796C99.7061 80.8418 99.5026 79.9705 99.3245 79.15C99.8396 79.0928 100.348 78.9783 100.864 78.9656C101.417 78.8638 101.449 78.1197 101.436 77.6745ZM98.2369 76.6569C98.1479 76.6378 98.0588 76.6251 97.9762 76.6124C97.9507 76.4598 97.9253 76.3135 97.8935 76.1736C97.9316 75.9064 97.9762 75.6393 98.0143 75.3722C98.1288 75.6711 98.186 76.0146 98.2433 76.3516C98.2433 76.4534 98.2433 76.5552 98.2369 76.6569Z" fill="white"/>
<path d="M110.46 103.382C110.059 102.771 109.862 102.059 109.767 101.328C109.881 99.8774 109.862 98.4146 109.633 96.99C109.481 99.6358 108.628 102.326 107.592 104.66C107.585 104.667 107.585 104.667 107.579 104.679C107.547 104.717 107.522 104.749 107.496 104.781C107.159 104.66 106.758 104.654 106.281 104.832C105.2 105.347 105.245 107.211 105.855 108.075C106.097 108.4 106.536 108.317 106.879 108.273C107.032 108.26 107.172 108.228 107.312 108.177C107.318 108.184 107.324 108.184 107.337 108.19C107.337 108.196 107.337 108.196 107.344 108.196C107.204 109.316 107.35 110.448 107.865 111.345C108.113 111.694 108.558 111.764 108.838 111.402C109.582 110.391 109.264 109.01 109.156 107.847C109.131 107.662 109.099 107.465 109.054 107.268C109.169 106.969 109.334 106.702 109.57 106.581C110.085 106.377 110.733 106.447 111.185 106.117C111.834 104.908 111.051 104.304 110.46 103.382ZM109.283 104.514C109.398 104.005 109.5 103.49 109.576 102.975C109.608 103.197 109.652 103.42 109.716 103.636C109.798 103.916 109.9 104.19 110.008 104.457C109.767 104.45 109.512 104.45 109.283 104.514Z" fill="white"/>
<path d="M43.4898 82.3301C43.2036 82.0439 42.7075 81.5732 42.5358 81.446C42.3704 81.2743 41.6454 80.7719 41.3846 80.6129C40.5896 79.7797 40.8886 79.7034 40.7995 78.6731C40.8822 77.7318 40.8059 76.816 40.2271 76.0655C39.6102 75.6584 39.2604 76.4026 39.095 77.1212C39.0314 76.9813 38.9742 76.8478 38.9042 76.7142C38.5608 75.951 38.052 76.4153 37.982 77.0449C37.9121 77.8844 38.0456 79.1501 38.2619 80.4857C38.1538 81.0072 37.982 81.4842 37.7976 81.9167C37.3842 82.4509 37.4478 82.4 36.6782 82.8834C36.5892 82.9279 36.5002 82.9724 36.4175 83.0233C36.4111 83.0233 36.4048 83.0297 36.392 83.036C36.3984 83.036 36.4048 83.036 36.4048 83.0297C36.3984 83.036 36.3857 83.0424 36.3793 83.0424C36.3984 83.036 36.4429 83.0233 36.4874 83.0106C35.12 83.5067 35.2345 86.2924 36.0232 87.2527C36.1758 87.488 36.4366 87.5453 36.6846 87.5707C36.7927 87.5453 36.9644 87.4944 37.098 87.4499C37.1234 87.4435 37.1489 87.4435 37.1807 87.4435C37.2824 88.0414 37.4987 89.237 37.5941 89.555C37.6132 89.7077 37.7276 90.0384 37.8612 90.3818C37.6513 91.8701 37.4096 93.3901 37.8358 94.8529C38.0202 95.419 38.3064 96.1822 38.9488 96.303C40.3225 96.6083 40.666 94.1851 40.9204 93.2375C41.2066 92.1563 41.2829 91.0369 41.1366 89.9366C41.5691 89.5868 41.8616 88.9636 42.0143 88.2385C42.6439 87.558 42.345 87.7043 43.5979 87.5962C44.4883 87.6661 45.0671 86.9156 45.1943 85.968C45.5059 84.6133 45.277 82.2601 43.4898 82.3301ZM39.5212 83.494C39.5402 83.8438 39.553 84.1936 39.5784 84.5434C39.5084 84.6388 39.4512 84.7532 39.394 84.8677C39.3431 84.7151 39.2922 84.5688 39.235 84.4225C39.3494 84.1172 39.4448 83.8056 39.5212 83.494Z" fill="white"/>
<path d="M63.3126 77.414C62.7974 76.9624 62.6066 76.2501 62.0151 75.4996C61.977 75.4487 61.9579 75.4233 61.9452 75.4042C61.5763 74.7364 61.8561 75.207 61.5445 73.8714C61.519 73.7824 61.4554 73.5789 61.4109 73.4644C61.3791 73.2609 61.36 73.0574 61.341 72.8475C61.3473 72.3005 60.9212 71.0858 60.228 71.6136C59.8209 71.9889 59.7382 72.5486 59.7382 73.1019C59.7319 73.1019 59.7319 73.1019 59.7255 73.1019C59.7064 73.4326 59.7001 73.7633 59.7192 74.094C59.7382 74.4566 59.7637 74.8127 59.8527 75.1689C59.8591 75.2007 59.8654 75.2134 59.8654 75.2388C59.8654 75.3342 59.8718 75.4869 59.8782 75.6459C59.6683 76.2437 59.3948 76.8098 58.9878 77.2804C58.7715 77.4076 58.3518 77.8464 58.1673 78.0818C57.6522 78.5715 57.7285 80.1106 58.3645 80.3459C58.3963 80.3523 58.4217 80.3523 58.4472 80.3523C58.8415 80.7848 59.1976 81.2363 59.5729 81.6815C59.7128 81.955 59.7128 81.8596 59.751 82.1967C59.751 82.2094 59.751 82.2285 59.751 82.2476C59.6874 82.5338 59.6365 82.8072 59.592 83.0426C59.5093 83.8439 59.5029 84.6707 59.6937 85.4593C59.7955 86.2098 60.1198 87.113 60.9212 86.8586C61.7035 86.159 61.7226 85.1159 61.6399 84.0792C61.7544 83.6595 61.7671 83.6595 61.8498 83.456C62.5366 81.8914 62.0596 82.4193 62.8483 81.567C62.8546 81.5607 62.861 81.5607 62.8737 81.5543C64.1966 80.9183 64.0821 78.4443 63.3126 77.414Z" fill="#E3FDFF"/>
<path d="M37.0777 43.8458C36.9314 43.515 36.6388 42.9426 36.5816 42.8345C36.3908 42.1731 36.3017 40.3414 35.5449 39.2284C35.2269 38.4779 34.4637 37.7974 33.7959 38.5479C33.0581 39.4256 33.1217 40.6594 32.9945 41.7342C32.9437 42.3321 32.9055 42.9299 32.8737 43.5278C32.5175 43.9412 32.1232 44.3291 31.7098 44.6916C30.8639 44.3609 30.1771 45.563 30.1325 46.3452C30.0626 46.8032 30.158 47.9798 30.8449 47.7699C31.0547 47.6554 31.2201 47.49 31.3727 47.2992C31.3727 47.2992 31.3727 47.2992 31.3791 47.2992C31.3982 47.3183 31.4173 47.4392 31.4427 47.6172C31.1947 47.9543 30.9593 48.3041 30.724 48.6476C30.724 48.6539 30.7304 48.6603 30.7304 48.6666C30.6859 48.743 30.6731 48.832 30.724 48.9338C30.9466 48.9338 31.2074 48.5712 31.4236 48.4504C31.4554 48.4313 31.4872 48.4059 31.5127 48.3804C31.5508 48.8447 31.589 49.3535 31.6081 49.6715C31.5953 49.8305 31.6526 50.2248 31.7225 50.5874C31.4427 51.4778 31.2646 52.3872 31.36 53.3158C31.4363 54.0408 32.0087 55.4973 32.8991 54.7913C33.2807 54.3779 33.5224 53.8246 33.6814 53.2331C33.8341 52.8324 34.063 52.3427 34.4955 51.942C35.2142 51.2615 35.8057 50.4729 36.4289 49.716C36.4671 49.716 36.5116 49.716 36.5561 49.7097C36.9695 49.6397 37.3193 49.4426 37.6119 49.1436C38.6867 48.196 38.7694 44.1002 37.0777 43.8458ZM32.7974 45.9827C32.7783 45.9954 32.7592 46.0082 32.7401 46.0272C32.6829 45.8682 32.6193 45.7156 32.5366 45.5693C32.632 45.4167 32.7147 45.264 32.8037 45.1114C32.8037 45.404 32.8037 45.6902 32.7974 45.9827Z" fill="#E3FDFF"/>
<path d="M33.3638 91.8064C33.1539 91.7428 32.9186 91.7301 32.6769 91.7428C32.537 91.2531 32.4098 90.757 32.219 90.2864C31.8437 89.2624 31.7356 89.4596 31.6784 88.8109C31.6529 88.0731 31.6784 87.329 31.6657 86.5912C31.7547 85.7708 30.9915 84.0981 30.2474 85.4146C29.8213 86.623 29.9421 87.6915 29.834 88.4992C29.6941 89.5168 29.9803 90.897 30.2855 91.8255C30.0057 92.3343 29.7259 92.8368 29.4842 93.3646C29.3951 93.7462 29.3697 94.4204 29.8213 94.5667C29.8149 94.5667 29.834 94.5921 29.8403 94.5985C30.2728 95.0882 30.5081 95.7814 30.629 96.3793C30.559 97.6576 30.6989 98.8088 31.1887 99.1459C32.0918 99.3876 32.1745 97.7658 32.0981 97.1679C32.0981 97.1616 32.0981 97.1616 32.0981 97.1552C32.1363 96.8563 32.2699 96.3157 32.3843 95.8578C32.7341 95.9341 33.1412 95.7751 33.5991 95.2218C34.2224 94.2678 34.2923 92.5951 33.3638 91.8064Z" fill="#E3FDFF"/>
<path d="M111.922 51.3569C111.827 51.1279 111.598 51.0453 111.388 50.9371C111.222 50.8163 110.981 50.5492 110.777 50.2948C110.733 50.2312 110.726 50.2248 110.758 50.2821C110.555 49.9895 110.237 49.4235 110.097 49.1754C110.135 48.4949 110.319 46.7904 109.353 46.8222C108.926 46.9558 108.825 47.4837 108.742 47.8907C108.716 48.0052 108.672 48.1769 108.653 48.2596C108.475 48.9719 108.475 49.716 108.615 50.4411C108.373 50.7781 108.138 51.1152 107.896 51.4714C107.476 52.0183 107.133 52.7116 107.343 53.4112C107.419 53.7864 107.769 53.9963 108.1 53.7546C108.157 53.8055 108.214 53.8691 108.246 53.9454C108.488 54.5941 108.812 55.192 109.251 55.7135C109.289 57.3099 109.499 59.1415 110.497 58.3147C111 57.4689 111.095 56.3877 110.904 55.3891C110.911 55.2301 110.917 55.0711 110.923 54.9121C110.923 54.8867 110.923 54.8676 110.923 54.8422C111.133 54.7277 111.343 54.6069 111.547 54.4733C112.443 53.7928 112.45 52.2791 111.922 51.3569ZM108.615 51.9547C108.704 51.7385 108.793 51.5223 108.882 51.306C108.888 51.3187 108.895 51.3315 108.895 51.3505C108.888 51.3505 108.888 51.3505 108.888 51.3505C108.901 51.3633 108.907 51.3823 108.914 51.4014C108.971 51.5477 109.028 51.6876 109.092 51.8339C109.149 52.0883 109.155 52.3618 109.168 52.6353C109.028 52.4063 108.844 52.1328 108.615 51.9547Z" fill="#E3FDFF"/>
</svg>
