<svg width="48" height="48" viewBox="0 0 48 48" fill="none" xmlns="http://www.w3.org/2000/svg">
<path d="M20.152 22C21.352 22 22.324 22.9 22.302 24C22.302 25.1 21.354 26 20.152 26C18.972 26 18 25.1 18 24C18 22.9 18.95 22 20.152 22ZM27.848 22C29.05 22 30 22.9 30 24C30 25.1 29.05 26 27.848 26C26.668 26 25.698 25.1 25.698 24C25.698 22.9 26.646 22 27.848 22ZM37.782 4C40.108 4 42 5.932 42 8.326V46L37.578 42.01L35.088 39.658L32.454 37.158L33.546 41.044H10.218C7.892 41.044 6 39.112 6 36.718V8.326C6 5.932 7.892 4 10.218 4H37.78H37.782ZM29.842 31.426C34.388 31.28 36.138 28.234 36.138 28.234C36.138 21.472 33.174 15.99 33.174 15.99C30.214 13.724 27.394 13.786 27.394 13.786L27.106 14.122C30.604 15.214 32.228 16.79 32.228 16.79C30.3181 15.714 28.2133 15.0287 26.036 14.774C24.6549 14.618 23.2599 14.6314 21.882 14.814C21.758 14.814 21.654 14.836 21.532 14.856C20.812 14.92 19.062 15.192 16.862 16.18C16.102 16.536 15.648 16.79 15.648 16.79C15.648 16.79 17.356 15.13 21.058 14.038L20.852 13.786C20.852 13.786 18.034 13.724 15.072 15.992C15.072 15.992 12.11 21.472 12.11 28.234C12.11 28.234 13.838 31.278 18.384 31.426C18.384 31.426 19.144 30.482 19.764 29.684C17.15 28.884 16.164 27.204 16.164 27.204C16.164 27.204 16.368 27.352 16.738 27.562C16.758 27.582 16.778 27.604 16.82 27.624C16.882 27.668 16.944 27.688 17.006 27.73C17.52 28.024 18.034 28.254 18.506 28.444C19.35 28.78 20.358 29.116 21.532 29.348C23.2906 29.6927 25.0988 29.6995 26.86 29.368C27.8858 29.1849 28.8867 28.8822 29.842 28.466C30.562 28.192 31.364 27.792 32.208 27.226C32.208 27.226 31.18 28.948 28.484 29.726C29.102 30.524 29.844 31.426 29.844 31.426H29.842Z" fill="white"/>
</svg>
