<svg width="64" height="65" viewBox="0 0 64 65" fill="none" xmlns="http://www.w3.org/2000/svg">
<path d="M49.4585 9.03066L48.1906 8.05407L46.8765 7.28182C45.9651 6.77881 45.0081 6.36065 44.0179 6.0327C39.9438 4.66032 35.5017 4.79755 31.5229 6.41876C29.5133 7.27197 27.6291 8.38729 25.9209 9.73472C27.5221 8.22614 29.3208 6.93527 31.2693 5.89643C33.2805 4.88733 35.4589 4.24129 37.7013 3.98873C39.9752 3.73872 42.2758 3.877 44.502 4.39752C45.6196 4.67872 46.714 5.04311 47.7756 5.48764L49.3663 6.2825L50.7956 7.16828C51.0521 7.3312 51.2325 7.58773 51.2973 7.88149C51.3621 8.17525 51.3061 8.48229 51.1414 8.7354C51.0636 8.86472 50.96 8.97722 50.8368 9.06601C50.7137 9.15479 50.5735 9.21808 50.4249 9.25204C50.2762 9.286 50.1221 9.28987 49.9718 9.26354C49.8216 9.23722 49.6784 9.18124 49.5507 9.09886L49.4585 9.03066Z" fill="white" stroke="white" stroke-width="2"/>
<path d="M60.1322 23.5192C59.5179 21.546 58.6005 19.6771 57.4119 17.9776C56.199 16.2789 54.6931 14.803 52.9626 13.6169C49.3596 11.2424 45.0378 10.1599 40.7212 10.5508C45.1282 9.79279 49.6658 10.5378 53.585 12.663C55.5586 13.7701 57.3153 15.2161 58.772 16.9328C60.2211 18.6633 61.3949 20.6009 62.2531 22.6789C62.3142 22.816 62.347 22.9636 62.3499 23.1133C62.3528 23.263 62.3257 23.4119 62.2699 23.5512C62.2142 23.6906 62.1312 23.8177 62.0254 23.9252C61.9196 24.0328 61.7933 24.1185 61.6537 24.1778C61.3685 24.2859 61.0522 24.2826 60.7694 24.1687C60.4866 24.0547 60.2587 23.8387 60.1322 23.5647C60.1302 23.5496 60.1302 23.5343 60.1322 23.5192Z" fill="white" stroke="white" stroke-width="2"/>
<path d="M60.0858 41.4401L60.5699 40.1001C61.5944 36.565 61.4817 32.8041 60.2472 29.3348C58.8593 25.7919 56.4566 22.7226 53.3312 20.4999L51.9709 19.7505L53.3772 20.3863C56.7514 22.4253 59.4631 25.3726 61.1923 28.8805C62.8975 32.5279 63.413 36.6064 62.6678 40.5543L62.322 41.9397C62.2408 42.2289 62.0487 42.4758 61.7864 42.6283C61.5241 42.7808 61.212 42.827 60.9157 42.7573C60.7687 42.7203 60.6307 42.6551 60.5093 42.5653C60.388 42.4756 60.2859 42.3631 60.2088 42.2344C60.1317 42.1057 60.0812 41.9632 60.0601 41.8152C60.039 41.6673 60.0477 41.5166 60.0858 41.3719V41.4401Z" fill="white" stroke="white" stroke-width="2"/>
<path d="M49.3658 56.0438C50.9721 54.9085 52.4145 53.5638 53.6537 52.0465C54.8652 50.5112 55.8009 48.7828 56.4202 46.9363C57.7001 43.1394 57.7001 39.0366 56.4202 35.2398L55.7977 33.8544L56.5585 35.1944C58.203 39.01 58.5664 43.2436 57.5959 47.2771C57.1006 49.3241 56.259 51.2742 55.1061 53.0458C53.9108 54.785 52.4929 56.3651 50.8874 57.7471C50.7754 57.8485 50.6441 57.9272 50.5013 57.9786C50.3584 58.0301 50.2066 58.0533 50.0546 58.047C49.9026 58.0406 49.7534 58.0049 49.6154 57.9418C49.4775 57.8786 49.3535 57.7893 49.2505 57.6789C49.1476 57.5686 49.0678 57.4393 49.0155 57.2986C48.9633 57.1578 48.9397 57.0083 48.9461 56.8586C48.9525 56.7088 48.9889 56.5618 49.053 56.4259C49.1171 56.29 49.2077 56.1679 49.3197 56.0665L49.3658 56.0438Z" fill="white" stroke="white" stroke-width="2"/>
<path d="M31.8912 61.6087C34.0064 61.6393 36.1137 61.3482 38.1387 60.7457C40.1521 60.1268 42.0401 59.1661 43.7177 57.9067C45.405 56.6436 46.8627 55.1077 48.0287 53.3644C49.1505 51.5255 49.9968 49.5365 50.5415 47.4592C50.1718 49.6085 49.4966 51.6959 48.5358 53.6596C47.487 55.6167 46.1071 57.3833 44.4554 58.8833C42.7772 60.3994 40.8421 61.614 38.7381 62.4718C36.6189 63.2913 34.3903 63.8038 32.1218 63.9934C31.8168 64.0257 31.5111 63.9392 31.2699 63.7525C31.0287 63.5658 30.8711 63.2937 30.8308 62.9941C30.7984 62.6962 30.8868 62.3977 31.0768 62.1638C31.2668 61.9298 31.543 61.7792 31.8451 61.745L31.8912 61.6087Z" fill="white" stroke="white" stroke-width="2"/>
<path d="M14.6701 55.9529C16.3028 57.2249 18.1424 58.2155 20.1107 58.8826C24.1676 60.2328 28.5792 60.1201 32.5596 58.5646C34.588 57.7895 36.4611 56.6668 38.0924 55.2487C36.5663 56.8236 34.7717 58.1227 32.7902 59.0869C30.7845 60.0609 28.6249 60.6907 26.4043 60.9493C24.1441 61.1805 21.8606 61.0346 19.6496 60.5178C17.4159 59.9942 15.2933 59.087 13.3791 57.8378C13.1248 57.6671 12.9486 57.4051 12.8883 57.1078C12.828 56.8106 12.8883 56.5019 13.0564 56.248C13.2254 55.999 13.4873 55.826 13.7852 55.7664C14.0832 55.7069 14.393 55.7658 14.6471 55.9301L14.6701 55.9529Z" fill="white" stroke="white" stroke-width="2"/>
<path d="M3.90522 41.3722L4.38932 42.894C5.79448 46.6174 8.3713 49.8006 11.7434 51.9787C13.4695 53.0374 15.3628 53.805 17.3454 54.2499C19.3462 54.7079 21.4065 54.861 23.4545 54.704C21.4 55.0218 19.3077 55.0218 17.2531 54.704C15.1506 54.4363 13.1088 53.8221 11.2131 52.8871C7.36785 50.8635 4.28158 47.6798 2.40669 43.8024L1.78427 42.3262C1.66956 42.049 1.67059 41.7384 1.78715 41.4619C1.90372 41.1854 2.12637 40.9654 2.40669 40.8499C2.54564 40.7908 2.69526 40.7598 2.84661 40.7588C2.99796 40.7578 3.14802 40.7867 3.2878 40.8439C3.42757 40.9011 3.55425 40.9854 3.66032 41.0918C3.76638 41.1982 3.84966 41.3245 3.90522 41.4632V41.3722Z" fill="white" stroke="white" stroke-width="2"/>
<path d="M3.92776 23.3847L3.46673 24.8156L3.14395 26.2009C2.98111 27.1545 2.88866 28.1186 2.86732 29.0854C2.84541 31.0386 3.12529 32.9838 3.69728 34.8541C4.80929 38.7351 7.30608 42.0901 10.7286 44.3022L11.9273 45.1653L10.6363 44.4158C6.90377 42.4493 4.0149 39.2243 2.49845 35.3311C1.70077 33.3728 1.21853 31.3038 1.06915 29.1989C0.97695 28.1334 0.97695 27.0621 1.06915 25.9966L1.2997 24.3613L1.64549 22.8624C1.67818 22.7159 1.73998 22.5772 1.82735 22.4544C1.91472 22.3316 2.02596 22.2271 2.15457 22.1468C2.28317 22.0666 2.42658 22.0122 2.57662 21.9868C2.72666 21.9615 2.88033 21.9658 3.02871 21.9993C3.32475 22.0694 3.58059 22.2521 3.74041 22.5074C3.90022 22.7627 3.951 23.0699 3.88168 23.362C3.89835 23.3666 3.91397 23.3744 3.92776 23.3847Z" fill="white" stroke="white" stroke-width="2"/>
<path d="M14.6705 9.05258L13.3796 9.80211H13.4949C10.411 12.2723 8.21967 15.6579 7.24732 19.4546C6.72486 21.3778 6.5455 23.3758 6.71714 25.3596C6.9184 27.3679 7.42347 29.3354 8.2156 31.1965C7.25286 29.3811 6.56175 27.4381 6.16381 25.4278C5.81812 23.375 5.81812 21.2801 6.16381 19.2274C6.88674 15.0225 8.9545 11.1552 12.0655 8.18953L13.2643 7.32647C13.3854 7.237 13.5232 7.17191 13.6698 7.1349C13.8165 7.09789 13.9691 7.08969 14.1189 7.11078C14.2688 7.13187 14.413 7.18187 14.5432 7.25785C14.6735 7.33383 14.7872 7.43423 14.878 7.55353C14.9707 7.67307 15.0378 7.80987 15.0754 7.95567C15.1129 8.10148 15.12 8.2533 15.0963 8.4019C15.0726 8.55049 15.0186 8.69281 14.9375 8.82025C14.8564 8.9477 14.7499 9.05762 14.6245 9.14338L14.6705 9.05258Z" fill="white" stroke="white" stroke-width="2"/>
<path d="M32.1222 3.37468C30.9695 3.37468 29.8168 3.37472 28.8947 3.55642C27.8369 3.66914 26.7939 3.88982 25.7825 4.21501C23.7742 4.85056 21.894 5.82672 20.2266 7.09944C18.5519 8.36927 17.1029 9.90426 15.9386 11.6418C14.7836 13.4417 14.0002 15.4482 13.6333 17.5468C13.8562 15.3772 14.5061 13.2712 15.5467 11.3465C16.601 9.39894 17.9716 7.63443 19.6041 6.12285C21.2731 4.6001 23.2004 3.37776 25.2984 2.51163C26.3686 2.06567 27.4805 1.72335 28.6181 1.48957C29.7707 1.28517 30.9234 1.1717 31.9147 1.01272C32.2204 0.967539 32.5318 1.04379 32.7804 1.22481C33.029 1.40582 33.1944 1.67676 33.2402 1.97794C33.2861 2.27911 33.2086 2.58583 33.0249 2.83073C32.8411 3.07564 32.5662 3.23871 32.2605 3.28389H32.1452L32.1222 3.37468Z" fill="white" stroke="white" stroke-width="2"/>
</svg>
