<svg width="63" height="65" viewBox="0 0 63 65" fill="none" xmlns="http://www.w3.org/2000/svg">
<path d="M48.8628 8.84735L47.9904 8.04735H48.1051C46.3012 6.62933 44.2557 5.54595 42.0663 4.84849L40.8494 4.41418L42.1122 4.55142C44.4926 4.72552 46.824 5.31331 49.0006 6.28809H49.1154L50.1716 6.85935C50.3043 6.93137 50.4214 7.02848 50.5163 7.14555C50.6112 7.26261 50.682 7.39707 50.7247 7.54136C50.7673 7.68565 50.781 7.837 50.7649 7.98654C50.7488 8.13609 50.7033 8.281 50.6309 8.41304C50.5585 8.54507 50.4607 8.66171 50.3431 8.75613C50.2255 8.85056 50.0903 8.92095 49.9453 8.96338C49.8003 9.00582 49.6484 9.01928 49.4981 9.00327C49.3478 8.98726 49.2021 8.94196 49.0695 8.86994L48.8628 8.84735Z" fill="white" stroke="white" stroke-width="2"/>
<path d="M59.4718 23.5412C58.9602 20.4971 57.6178 17.6515 55.5913 15.3151C56.879 16.2648 58.0504 17.3613 59.0814 18.5825C60.0844 19.8697 60.9393 21.2648 61.6301 22.7415C61.7254 22.878 61.7903 23.0332 61.8204 23.1967C61.8504 23.3603 61.845 23.5286 61.8044 23.6899C61.7638 23.8512 61.689 24.0019 61.585 24.132C61.481 24.2621 61.3502 24.3685 61.2014 24.4441C61.0527 24.5198 60.8893 24.5631 60.7224 24.5708C60.5555 24.5784 60.3889 24.5505 60.2338 24.4888C60.0787 24.4271 59.9386 24.333 59.823 24.2129C59.7074 24.0929 59.6189 23.9494 59.5636 23.7925C59.5636 23.7925 59.4947 23.6326 59.4718 23.5412Z" fill="white" stroke="white" stroke-width="2"/>
<path d="M59.426 41.5712L59.8392 40.5202C60.723 38.4042 61.1907 36.1391 61.2169 33.8477L61.0792 32.7052L61.4925 33.7791C62.0586 36.1758 62.1523 38.6593 61.768 41.0915L61.6302 42.2111C61.5902 42.517 61.4299 42.7945 61.1846 42.9829C60.9393 43.1714 60.6289 43.2553 60.3215 43.2164C60.1711 43.1997 60.0256 43.1529 59.8938 43.0789C59.7619 43.0049 59.6464 42.9052 59.5543 42.7857C59.4621 42.6663 59.3951 42.5294 59.3573 42.3835C59.3195 42.2377 59.3115 42.0859 59.3341 41.9369C59.3442 41.8108 59.3752 41.6872 59.426 41.5712Z" fill="white" stroke="white" stroke-width="2"/>
<path d="M48.795 56.2629C49.4609 55.8059 50.1497 55.4173 50.7237 55.0289C51.3218 54.5873 51.8895 54.1064 52.4229 53.5893C53.5158 52.502 54.4859 51.2988 55.316 50.0016C54.8115 51.5026 54.1416 52.9433 53.3184 54.2975C52.8932 54.9866 52.4173 55.6437 51.8948 56.2629C51.3437 56.9027 50.7697 57.4509 50.2646 58.0222C50.0461 58.233 49.7537 58.351 49.4494 58.351C49.1451 58.351 48.8528 58.233 48.6343 58.0222C48.4156 57.8037 48.2927 57.508 48.2927 57.1996C48.2927 56.8912 48.4156 56.5954 48.6343 56.377C48.6917 56.3043 48.7617 56.2425 48.841 56.1943L48.795 56.2629Z" fill="white" stroke="white" stroke-width="2"/>
<path d="M31.4816 61.7479L32.6297 61.8851C32.989 61.9094 33.3495 61.9094 33.7089 61.8851C34.4768 61.8775 35.2435 61.8239 36.005 61.725C36.7783 61.6362 37.5452 61.499 38.3011 61.3139C39.0893 61.1172 39.8578 60.8496 40.5972 60.5142C39.9814 61.0155 39.3203 61.459 38.6225 61.8394C37.8801 62.2242 37.1131 62.5602 36.3264 62.845C35.5687 63.1192 34.811 63.3704 34.0303 63.5761C33.6162 63.6964 33.1942 63.788 32.7674 63.8503L31.5734 63.9875C31.4237 64.0099 31.2711 64.002 31.1245 63.9643C30.978 63.9267 30.8405 63.86 30.7205 63.7683C30.6004 63.6765 30.5002 63.5616 30.4258 63.4305C30.3514 63.2993 30.3044 63.1545 30.2876 63.0048C30.2481 62.7023 30.3295 62.3964 30.5141 62.1529C30.6987 61.9094 30.9718 61.7477 31.2749 61.7024L31.4816 61.7479Z" fill="white" stroke="white" stroke-width="2"/>
<path d="M14.1463 56.1497L15.0418 56.8125H15.2025C15.9519 57.5918 16.8393 58.2269 17.8201 58.6861C18.865 59.1959 19.9383 59.6459 21.0347 60.0342L22.1139 60.3084H20.9888C19.7916 60.2039 18.6026 60.0207 17.4298 59.76C16.1694 59.4983 14.9649 59.0188 13.8708 58.3433H14.0315L12.9982 57.9321C12.7174 57.8112 12.4953 57.5855 12.3794 57.3037C12.2636 57.0218 12.2632 56.706 12.3783 56.4239C12.4361 56.2835 12.5213 56.156 12.6291 56.0487C12.7369 55.9415 12.865 55.8568 13.0061 55.7994C13.1472 55.7419 13.2983 55.713 13.4507 55.7143C13.6031 55.7156 13.7537 55.747 13.8938 55.8069C13.9567 55.8444 14.0114 55.8942 14.0548 55.953C14.0982 56.0119 14.1292 56.0787 14.1463 56.1497Z" fill="white" stroke="white" stroke-width="2"/>
<path d="M3.49232 41.569C3.74107 42.856 4.14986 44.1072 4.70926 45.2937C5.2833 46.4819 6.01807 47.5786 6.66099 48.8811L7.39569 49.6582L6.47726 49.0869C5.58177 48.0587 4.59443 47.1445 3.67598 46.0476C2.76753 44.9404 1.99659 43.7283 1.37985 42.4373C1.27682 42.1666 1.27876 41.8674 1.38524 41.598C1.49173 41.3286 1.69515 41.1082 1.95591 40.9799C2.21667 40.8516 2.5161 40.8244 2.79587 40.9037C3.07564 40.9831 3.31569 41.1633 3.46933 41.4092C3.48037 41.462 3.48806 41.5153 3.49232 41.569Z" fill="white" stroke="white" stroke-width="2"/>
<path d="M3.53729 23.4034C3.23879 24.1803 2.94033 24.8657 2.71072 25.5512C2.49305 26.3027 2.31673 27.0656 2.18258 27.8362C1.91494 29.3442 1.80716 30.876 1.86109 32.4064C1.427 30.9156 1.15001 29.384 1.03452 27.8362C0.988494 27.0295 0.988494 26.221 1.03452 25.4142C1.03452 24.5687 1.24116 23.769 1.31004 23.1292C1.34471 22.8236 1.4993 22.5441 1.74015 22.3515C1.981 22.1589 2.28858 22.0686 2.59587 22.1007C2.74692 22.115 2.89363 22.1591 3.02751 22.2301C3.1614 22.3012 3.27983 22.3978 3.37591 22.5147C3.472 22.6315 3.54386 22.7661 3.58732 22.9108C3.63079 23.0554 3.64501 23.2074 3.62916 23.3576C3.64982 23.4479 3.64982 23.5416 3.62916 23.6318L3.53729 23.4034Z" fill="white" stroke="white" stroke-width="2"/>
<path d="M14.2371 8.84816L13.1809 9.41942H13.3187C12.2273 10.2191 11.1774 11.0732 10.173 11.9787C9.1956 12.9234 8.34648 13.9909 7.64722 15.1547C8.06404 13.8253 8.64235 12.5516 9.36931 11.3617C10.127 10.1506 11.0685 9.07668 11.8951 8.0027H12.0328L12.9053 7.2027C13.1306 6.99665 13.429 6.88832 13.7347 6.90117C14.0405 6.91403 14.3286 7.04709 14.5356 7.27132C14.7427 7.49556 14.8517 7.79244 14.8388 8.0967C14.8259 8.40096 14.692 8.68757 14.4667 8.89363L14.2371 8.84816Z" fill="white" stroke="white" stroke-width="2"/>
<path d="M31.4816 3.29422L30.3794 3.15699C28.1008 3.0192 25.8157 3.2824 23.6288 3.93411L22.4578 4.34526L23.491 3.65991C25.5719 2.44377 27.8477 1.59353 30.2187 1.1464L31.3209 1.00916C31.4718 0.990041 31.625 1.0009 31.7717 1.04124C31.9184 1.08158 32.0555 1.15048 32.1751 1.24403C32.2948 1.33758 32.3946 1.45402 32.4686 1.58629C32.5427 1.71855 32.5896 1.86399 32.6067 2.01446C32.6292 2.16514 32.6206 2.31908 32.5813 2.46634C32.5421 2.61359 32.473 2.75129 32.3785 2.87107C32.2839 2.99086 32.1658 3.09007 32.0313 3.16284C31.8968 3.23562 31.7488 3.28033 31.5964 3.29422H31.4816Z" fill="white" stroke="white" stroke-width="2"/>
</svg>
