<svg width="159" height="159" viewBox="0 0 159 159" fill="none" xmlns="http://www.w3.org/2000/svg">
<path d="M54.6376 21.732C54.5358 21.6366 54.4722 21.5921 54.4531 21.5793C54.5104 21.6239 54.5612 21.6747 54.6185 21.7193C54.6248 21.7256 54.6312 21.732 54.6376 21.732Z" fill="#AD0000"/>
<path d="M108.819 96.78C108.813 95.8197 108.412 94.0643 107.547 93.3202C107.541 93.3075 107.541 93.2947 107.534 93.282C107.471 93.0467 107.413 92.8177 107.35 92.5824C107.528 89.6632 107.725 83.5767 107.121 79.1692C107.242 78.3615 107.362 77.5537 107.477 76.746C107.928 74.6536 108.183 72.523 107.757 70.4051C107.649 69.6483 107.254 68.6243 106.625 68.0837C106.504 66.8689 106.338 65.7496 106.192 64.8655C106.199 64.4776 106.199 64.096 106.205 63.708C106.256 61.6728 106.224 59.6313 106.078 57.5961C106.186 57.3353 106.281 57.0682 106.364 56.8074C106.866 56.2732 107.286 55.5927 107.585 54.804C107.362 54.6005 107.184 54.3334 107.083 54.0217C106.86 53.3539 106.822 52.6162 106.803 51.9166C106.79 51.4777 106.803 51.0643 106.866 50.6255C106.898 50.4347 106.949 50.2503 107 50.0595C107 50.0531 107 50.0531 107 50.0467C107 50.0277 107.006 50.0086 107.006 49.9895C107.013 49.627 107.038 49.2708 107.057 48.9401C107.089 48.5267 107.146 48.1324 107.267 47.7508C106.911 47.0321 106.447 46.3643 105.855 45.7855C104.952 44.8188 103.731 43.9284 102.44 43.4514C102.612 43.833 102.675 44.2401 102.561 44.7107C102.44 45.2195 102.084 45.7983 101.607 46.0527C100.761 46.4979 99.7686 46.2498 98.9545 45.8619C97.8034 45.3213 96.9702 44.3927 96.4741 43.2543C96.1243 42.72 95.978 42.154 95.8 41.5116C95.7364 41.2827 95.6982 41.0537 95.6918 40.8247C95.4629 40.4622 95.2594 40.0806 95.0686 39.6736C94.8905 39.292 94.776 38.9104 94.687 38.5224C94.2227 38.3952 93.7457 38.3443 93.2623 38.3825C92.9825 36.996 92.4737 35.6731 91.7359 34.7064C91.7041 33.7397 91.5006 32.7666 91.0745 31.8381C90.3113 30.159 88.5814 29.5548 86.8642 30.1527C86.0755 30.3307 85.2869 30.5851 84.5428 30.9413C84.4792 30.954 84.4219 30.9731 84.3583 30.9858C82.3104 29.364 79.5629 28.9443 76.9744 29.2114C75.5879 29.0587 74.1887 29.0142 72.8022 29.1096C71.9182 28.9315 70.9451 29.1732 70.0483 29.1859C68.9862 29.2941 67.9241 29.4213 66.8683 29.5675C66.5185 29.752 66.1242 29.8283 65.7299 29.7583C65.7172 29.7583 65.7044 29.7647 65.6917 29.7647C65.6917 29.7583 65.6917 29.752 65.6917 29.752C65.3419 29.682 65.0048 29.4976 64.725 29.1605C64.5851 29.0397 64.4515 28.9061 64.3498 28.7471C64.3561 28.7407 64.3052 28.6135 64.248 28.4736C64.2289 28.4482 64.2035 28.4164 64.178 28.3909C64.1017 28.3146 64.0318 28.2319 63.9618 28.1429C63.6184 27.7677 63.2177 27.4115 62.906 27.0617C62.8997 27.0553 62.8933 27.049 62.887 27.049C62.8488 27.0172 62.8043 26.9981 62.7661 26.9663C62.6389 26.8709 62.5435 26.7628 62.4608 26.6483C62.4163 26.6101 62.3845 26.5656 62.34 26.5338C62.3209 26.5147 62.0729 26.3685 62.1428 26.4003C61.8566 26.254 61.5832 26.1331 61.3478 25.9678C60.8454 25.8024 60.3811 25.5417 59.9296 25.1283C59.9486 25.1346 59.9614 25.1473 59.9804 25.1537C59.9232 25.1092 59.8787 25.0583 59.8214 25.0138C59.6116 24.9947 59.4017 24.9883 59.1982 25.0392C59.0964 24.9247 58.9883 24.8293 58.8738 24.753C58.2887 24.1297 57.6654 23.5319 56.9658 23.0422C56.2789 22.5016 55.4076 22.2726 54.6889 21.7893C54.6571 21.7702 54.6317 21.7511 54.6062 21.7384C54.6253 21.7511 54.638 21.7638 54.6571 21.7829C54.6317 21.7638 54.6126 21.7447 54.5872 21.7257C54.4409 21.6239 54.39 21.5667 54.4218 21.5857C54.4154 21.5794 54.4154 21.5794 54.4091 21.573C54.3709 21.4713 54.3328 21.3631 54.2882 21.2487C54.1992 20.9625 54.0593 20.7144 53.8876 20.4982C53.8112 20.4664 53.7349 20.4346 53.6586 20.4028C53.4805 20.3201 53.3215 20.2056 53.1816 20.0657C53.1752 20.053 53.1689 20.0466 53.1625 20.0403C52.9463 19.9576 52.73 19.8622 52.5138 19.7541L52.3166 19.665C52.2403 19.6078 52.1894 19.5696 52.1386 19.5251C52.094 19.5187 52.0432 19.5124 52.005 19.4997C51.776 19.4297 51.5216 19.3343 51.3181 19.2071C51.2227 19.1371 51.1337 19.0608 51.0383 18.9909C51.0128 18.9781 50.9938 18.9718 50.9683 18.9591C50.9492 18.9654 50.8793 18.9527 50.7394 18.9209C50.504 18.9082 50.2814 18.8382 50.0843 18.711C49.7599 18.5647 49.6772 18.5075 49.4038 18.4312C49.302 18.4057 49.1748 18.3612 49.0603 18.3421C49.0285 18.3421 48.9967 18.3485 48.9713 18.3612C48.9967 18.3485 49.0094 18.3358 49.0158 18.3294C49.0094 18.3294 49.0031 18.3294 49.0031 18.3231C49.0094 18.3231 49.0158 18.3231 49.0222 18.3231C49.0858 18.2722 48.6533 18.4312 48.6151 18.4375C48.4116 18.4693 48.2144 18.4757 48.0109 18.463C47.5848 18.4439 47.146 18.3867 46.7326 18.2849C46.4209 18.2086 46.1093 18.145 45.7913 18.0877C45.645 18.1259 45.4987 18.1513 45.3524 18.145C45.2252 18.1386 45.0917 18.1259 44.9645 18.1068C44.9136 18.1005 44.8691 18.0877 44.8182 18.0814C44.7419 18.0687 44.6719 18.0559 44.5956 18.0432C44.5829 18.0432 44.5702 18.0369 44.5574 18.0369C44.5574 18.0369 44.5574 18.0369 44.5511 18.0369C44.5447 18.0369 44.5384 18.0369 44.532 18.0369C44.4938 18.0559 44.4493 18.0687 44.4112 18.0877C44.1377 18.1768 43.8133 18.1513 43.5208 18.1513C43.4317 18.1513 43.3109 18.1577 43.2028 18.1641C43.171 18.1704 43.1392 18.1704 43.101 18.1704C43.0628 18.1768 43.031 18.1831 42.9929 18.1895C42.6558 18.2467 42.3505 18.2785 42.0389 18.2722C41.9562 18.2913 41.8735 18.2976 41.7908 18.304C41.759 18.3167 41.7209 18.3294 41.6891 18.3421C41.0849 18.5902 40.4934 18.8573 39.8956 19.1308C39.355 19.3788 38.6299 19.5823 38.2483 19.7795C38.0003 19.9067 37.7459 20.0275 37.4915 20.1547C37.4533 20.1738 37.4215 20.1929 37.3834 20.2056C37.2307 20.2819 37.0844 20.3646 36.9382 20.4473C36.8873 20.5809 36.8491 20.7208 36.811 20.8671C36.3594 21.1596 35.9333 21.4967 35.5453 21.9037C34.0444 23.3538 34.3369 23.322 32.925 24.0471C31.1188 25.4781 29.427 27.1126 27.9706 28.8997C27.7289 29.205 27.5063 29.5294 27.2964 29.8601C27.1819 29.7075 27.0547 29.5548 26.9148 29.4213C26.9084 29.4149 26.8957 29.4085 26.8894 29.4022C26.6858 29.6884 26.476 29.9682 26.2724 30.2544C25.5792 31.2275 24.905 32.2133 24.1736 33.1546C24.0274 33.3454 23.9892 33.3963 24.0655 33.2945C24.1164 33.2309 24.1037 33.2436 24.0401 33.3263C23.9638 33.4217 23.8938 33.5235 23.8175 33.6189C23.5949 33.9178 23.3659 34.2103 23.137 34.5029C22.8317 34.8845 22.4946 35.2343 22.1448 35.5777C21.9794 35.7431 21.795 35.8576 21.5915 35.9403C21.318 36.5572 21.0763 37.1805 20.8601 37.8101C20.752 38.0899 20.6566 38.3761 20.5675 38.6623C20.3131 39.5591 20.1096 40.5449 20.0587 41.5243C19.6517 42.6946 19.3337 43.8903 19.1238 45.1114C18.9839 46.9176 18.8312 48.9592 19.5181 50.6764C19.5118 50.8036 19.499 50.9244 19.499 51.0516C19.4927 52.2664 19.6835 53.4748 20.0714 54.6259C20.0714 54.6259 20.0842 54.6705 20.116 54.7786C20.6502 56.712 21.2671 58.6137 22.1257 60.4263C22.59 63.5681 24.4217 66.57 25.7891 69.3811C26.0308 69.9217 26.2534 70.3987 26.4569 70.8312C27.0865 72.4721 27.8116 74.202 28.3967 75.5949C27.43 82.2856 27.4936 89.1289 27.7925 95.896C27.7925 95.9023 27.7925 95.9087 27.7861 95.9214C27.7925 95.9214 27.7925 95.9341 27.7925 95.9341C27.7925 95.9532 27.7925 95.9723 27.7925 95.9977C27.7162 96.8245 25.064 104.914 26.9212 107.713C26.9466 107.815 26.9593 107.916 26.9848 108.018C27.0674 108.215 27.1438 108.362 27.2264 108.476C26.7622 112.566 26.5268 116.712 27.5126 120.732C27.5508 120.904 27.608 121.069 27.6526 121.241C27.5635 121.66 27.519 122.061 27.5381 122.379C27.4363 123.053 27.589 124.726 27.6144 124.802C27.6589 125.521 27.7162 126.24 27.7925 126.958C27.748 128.644 27.9197 130.329 28.3967 131.944C28.4984 132.307 28.6384 132.67 28.8101 133.026C28.9182 133.395 29.039 133.763 29.1853 134.12C29.4461 134.698 29.993 135.474 30.6545 135.64C30.7817 135.881 30.9152 136.129 31.0742 136.358C31.424 136.683 31.7738 136.88 32.1173 136.963C32.13 136.982 32.1427 137.001 32.1554 137.02C32.5943 137.605 33.2812 137.726 33.8981 137.535C33.9935 137.586 34.0825 137.643 34.1843 137.688C34.2542 137.713 34.3178 137.726 34.3814 137.751C34.763 138.247 35.1955 138.711 35.6916 139.112C35.8506 139.29 36.016 139.456 36.1877 139.621C36.6011 140.111 37.0399 140.461 37.4851 140.689C38.8144 141.605 40.3598 142.165 42.0134 142.133C42.2806 142.101 42.7385 142.146 43.0056 142.171C43.419 142.362 43.8324 142.572 44.2522 142.75C45.3016 142.756 46.3573 142.782 47.4067 142.846C47.5466 142.852 47.6866 142.865 47.8265 142.871C48.3035 142.833 48.7741 142.801 49.2511 142.776C49.2829 142.763 49.3211 142.75 49.3529 142.737C49.3783 142.75 49.4038 142.756 49.4292 142.769C50.4341 142.718 51.439 142.693 52.4375 142.648C52.6346 142.642 52.8254 142.629 53.0226 142.623C53.0608 142.604 53.0989 142.591 53.1371 142.572C53.3851 142.438 53.6141 142.286 53.843 142.133C54.4663 142.165 55.0896 142.146 55.7383 141.93C57.0548 141.586 58.3841 142.038 59.7197 141.923C62.728 141.643 65.7426 141.815 68.7509 141.739C69.3869 141.574 69.8512 141.44 70.2455 141.325C73.6163 141.688 77.0125 141.783 80.3897 141.402C80.5868 141.389 80.784 141.364 80.9812 141.345C81.0766 141.434 81.1656 141.529 81.261 141.618C82.5966 141.497 83.9258 141.389 85.2614 141.294C86.1646 141.376 87.074 141.395 87.9772 141.389C88.5877 141.472 89.1983 141.542 89.8088 141.586C91.7486 141.682 93.6948 141.605 95.6282 141.421C95.6537 141.669 95.7364 141.904 95.8572 142.089C96.0353 142.311 96.366 142.19 96.614 142.197C96.8239 142.184 97.0338 142.152 97.2373 142.127C99.0626 142.025 100.888 141.879 102.681 141.484C103.165 141.332 103.108 140.486 102.866 140.143C102.815 140.092 102.751 140.066 102.681 140.053C102.681 140.047 102.681 140.047 102.681 140.041C102.605 140.041 102.522 140.041 102.446 140.041C102.681 139.888 102.93 139.742 103.152 139.576C103.387 139.564 103.616 139.538 103.852 139.526C104.151 138.832 104.329 138.088 104.399 137.325C104.583 137.274 104.774 137.172 104.965 136.994C105.397 136.708 105.633 136.231 105.823 135.748C106.428 134.38 106.765 132.918 107.051 131.455C108.361 125.387 107.14 116.909 106.707 112.381C107.502 107.204 108.774 102.04 108.819 96.78ZM54.6508 38.2617C52.641 41.1237 50.5168 43.9093 48.259 46.5805C47.96 46.9049 47.6738 47.2293 47.4194 47.5791C47.394 47.6045 47.3749 47.6363 47.3495 47.6617V47.6681C47.2286 47.8398 47.1142 48.0179 47.0188 48.2087C43.7815 50.263 40.5888 52.5271 38.3246 55.6372C37.3452 56.4258 36.3785 57.2208 35.3354 57.9268C35.1892 58.0413 35.0365 58.143 34.8775 58.2448L34.8712 58.2511C34.0316 58.7981 33.1031 59.2242 32.289 59.8093C31.6466 59.326 30.8771 59.1352 30.0376 59.4405C29.993 59.4723 29.9549 59.5041 29.9104 59.5359C29.0963 56.8647 28.3076 53.4748 27.8624 51.2869C28.2377 48.0052 28.8482 44.7552 29.0009 41.4544C28.9754 41.0791 29.1344 38.8531 28.8546 37.9055C29.0327 37.6575 29.2553 37.3267 29.5733 36.837C29.7832 36.4809 29.9422 36.1883 30.0757 35.9403C30.2474 36.0738 30.4382 36.1756 30.6545 36.2074C31.7484 36.0293 32.2763 34.4647 32.2508 32.9256C32.9822 32.1497 33.5165 31.1893 34.2924 30.4389C34.5277 30.3053 34.7249 30.0954 34.8902 29.8347C34.9093 29.8156 34.9284 29.7901 34.9538 29.7711C35.2591 29.8283 35.6407 29.7583 36.0668 29.6184C36.1241 29.5548 36.1686 29.4849 36.2258 29.4213C36.2449 29.3958 36.3403 29.3131 36.423 29.2305C36.4294 29.2241 36.4294 29.2177 36.4294 29.205C36.4993 29.0333 36.6774 28.8361 36.8046 28.7026C36.8936 28.6072 37.0081 28.5181 37.1226 28.4418C37.2816 28.2574 37.4597 28.0984 37.6568 27.9839C37.7204 27.9457 37.7904 27.9267 37.854 27.8949C37.8413 27.8949 37.8476 27.8885 37.9049 27.8503C37.9939 27.774 38.102 27.7231 38.1974 27.6595C38.3119 27.5832 38.42 27.5069 38.5345 27.4369C38.5727 27.4115 38.6299 27.3733 38.6808 27.3479C38.808 27.2525 38.9225 27.1571 39.037 27.0808C39.126 26.9981 39.2214 26.9218 39.3232 26.9091C39.3359 26.9027 39.3359 26.9027 39.3486 26.8963C39.5966 26.6865 39.8701 26.4893 40.1881 26.4003C40.4998 26.2603 40.8305 26.184 41.2184 26.1777C41.3202 26.1777 41.422 26.1777 41.5174 26.1777C41.9308 26.0695 42.3569 26.1077 42.7576 26.2985C42.8021 26.3112 42.8466 26.3303 42.8911 26.3367C42.9611 26.3494 43.0247 26.3621 43.0946 26.3812C43.3427 26.3812 43.5971 26.3875 43.826 26.4511C43.9469 26.4829 44.0614 26.5338 44.1822 26.5783C44.2585 26.6038 44.6846 26.6992 44.3285 26.6483C43.8451 26.5783 44.6974 26.7183 44.85 26.7628C44.9645 26.7946 45.0853 26.8073 45.2062 26.8327C45.2952 26.8455 45.3779 26.8645 45.4669 26.89C45.2125 26.8645 45.1807 26.8645 45.3715 26.89C45.6068 26.9281 45.8422 26.9409 46.0711 27.0108C46.1729 27.0426 46.2746 27.0808 46.3764 27.1253C46.5863 27.1444 46.7898 27.1762 46.9933 27.2589C47.5975 27.5133 46.5608 27.0744 47.2732 27.3797C47.2922 27.3861 47.305 27.3924 47.324 27.4051C47.3622 27.4179 47.394 27.4369 47.4322 27.456C47.4703 27.4751 47.5085 27.4942 47.5403 27.5133C47.7883 27.5959 48.0109 27.7231 48.2335 27.8885C48.5515 28.0157 48.8441 28.2129 49.1112 28.48C49.1366 28.5054 49.1621 28.5372 49.1875 28.5627C49.2002 28.569 49.213 28.5754 49.2257 28.5754C49.4165 28.5245 49.6009 28.48 49.7917 28.4227C49.9634 28.3591 50.1097 28.2574 50.2433 28.1365C50.6948 29.3131 51.3563 30.3943 52.2276 31.2975C52.6982 32.0925 53.2643 32.7984 53.9512 33.2691C54.0593 33.3072 54.1674 33.3327 54.2755 33.3517C54.7907 33.9814 55.3567 34.5729 55.9673 35.1198C56.0754 35.2343 56.1899 35.3488 56.3044 35.4569C55.7129 36.3727 55.1659 37.3077 54.6508 38.2617ZM78.6089 115.924C78.3799 116.464 77.833 116.852 77.2351 116.846C76.5737 116.833 75.9377 116.833 75.2826 116.706C74.672 116.591 74.0933 116.382 73.5145 116.146C73.1584 116 72.8022 115.847 72.446 115.695C72.357 115.657 72.2743 115.618 72.1853 115.58C71.7146 115.536 71.2885 115.402 70.9006 115.154C70.6398 115.084 70.3981 114.97 70.201 114.779C69.8575 114.448 69.7748 114.06 69.7176 113.615C69.6476 113.093 70.131 112.546 70.6462 112.4C70.7988 112.279 70.9769 112.178 71.1613 112.12C71.3839 111.93 71.6956 111.815 71.9945 111.828C72.0136 111.821 72.0326 111.821 72.0517 111.815C72.1408 111.796 72.2298 111.783 72.3188 111.771C72.4333 111.72 72.5414 111.669 72.6496 111.618C73.0121 111.44 73.3301 111.205 73.7562 111.224C73.7689 111.217 73.788 111.217 73.8007 111.211C73.8707 111.185 73.8834 111.185 73.8516 111.198C73.9088 111.173 73.9597 111.154 74.017 111.128C74.2332 111.058 74.5385 111.084 74.7674 111.103C75.0918 111.128 75.3971 111.255 75.6515 111.453C75.7787 111.421 75.9059 111.402 76.0331 111.389C76.6118 111.325 77.2478 111.968 77.1906 112.546C77.1842 112.616 77.1715 112.68 77.1588 112.75C77.3941 112.909 77.5913 113.138 77.7058 113.418C77.7821 113.596 77.8139 113.787 77.8202 113.977C77.9792 114.06 78.1319 114.156 78.2909 114.283C78.7552 114.658 78.8188 115.415 78.6089 115.924ZM96.8684 96.0931C96.7158 96.3857 96.4169 96.5765 96.1052 96.6783C95.8 96.78 95.3993 96.7101 95.1258 96.5511C94.8269 96.3793 94.6806 96.1249 94.5534 95.826C94.5788 95.8833 94.6043 95.9405 94.6297 95.9977C94.1654 94.9229 93.415 94.0007 92.8171 93.0022C92.4482 92.3916 92.7026 91.6284 93.275 91.2595C93.5422 91.0878 93.9492 91.0497 94.2545 91.1323C94.5661 91.2214 94.846 91.4376 95.0177 91.7175C95.342 92.2517 95.6982 92.7605 96.0353 93.2884C96.4169 93.8735 96.7349 94.465 96.9956 95.1137C97.1228 95.4253 97.0211 95.8133 96.8684 96.0931Z" fill="#AD0000"/>
<path d="M67.0664 140.486C66.9455 140.403 66.8247 140.314 66.6911 140.263C66.4495 140.174 66.2078 140.301 65.9661 140.295C64.8913 139.99 63.8291 140.263 62.7925 139.786C61.654 139.526 60.5728 139.112 59.4789 138.705C58.4677 138.54 57.4691 138.343 56.4579 138.177C56.0509 138.056 55.7329 137.764 55.364 137.567C54.6644 137.198 53.9012 136.988 53.1761 136.676C52.184 136.288 51.2809 135.697 50.2569 135.379C49.5446 135.093 48.9913 134.527 48.3235 134.151C47.0642 133.477 46.0084 132.51 44.8191 131.735C44.0305 131.041 43.0637 130.723 42.1225 130.323C41.3147 129.89 40.7233 129.229 39.9346 128.764C38.599 128.179 37.4669 127.276 36.3094 126.399C36.2077 126.329 36.0995 126.252 35.9978 126.182C35.8642 125.979 35.737 125.763 35.5907 125.502C35.4317 125.222 35.3109 124.974 35.2346 124.847C35.0501 123.912 35.0311 124.001 34.8403 123.11C34.8784 123.263 34.9039 123.371 34.8721 123.244C34.7385 122.385 34.5032 121.552 34.2997 120.713C34.2297 119.021 33.4601 113.761 33.0277 110.925C33.0213 110.867 33.0086 110.817 33.0022 110.759C32.9768 108.959 32.9641 107.153 32.5316 105.398C32.4807 104.145 32.3726 102.898 32.1945 101.658C32.2645 100.876 31.8701 97.8421 32.0101 95.5271C31.9401 93.7654 31.762 91.692 31.5649 89.7586C31.5776 89.7077 31.5903 89.6568 31.5967 89.6059C31.8638 87.9905 31.6603 86.197 31.444 84.7978C31.4377 84.607 31.4313 84.4225 31.4249 84.2317C31.4567 83.7802 31.4313 83.3223 31.3677 82.8898C31.2914 81.2425 31.2214 79.5953 31.1833 77.9417C31.3168 76.4789 31.5203 74.1384 31.5776 72.6756C31.4758 73.3689 31.355 74.0621 31.2214 74.7553C31.2405 74.202 31.1769 73.6423 30.967 73.1399C30.967 73.0827 30.967 73.0381 30.967 73.0254C30.9988 72.3831 30.9734 71.5054 30.7571 70.8185C30.8207 70.2524 30.7762 69.7055 30.6617 69.1649C30.6745 69.0059 30.6808 68.8469 30.6808 68.6879C30.6872 67.8611 30.4837 66.0294 29.6251 65.5906C29.4025 65.3362 29.1862 65.0818 28.9827 64.8147C28.9636 64.7574 28.9382 64.7002 28.9191 64.6366C28.652 64.0324 28.4103 63.4155 28.1686 62.7922C27.4499 60.6425 27.151 60.4899 26.5977 58.9762C26.4323 58.6518 26.2097 58.3593 25.9808 58.0794C25.9553 58.0285 25.9235 57.9649 25.8981 57.9013C25.8917 57.8823 25.8917 57.8759 25.879 57.8505C25.6055 56.871 25.0777 56.0188 24.6388 55.1157C24.1873 53.7546 23.6912 52.4127 23.4431 50.9944C22.769 48.1769 22.8199 48.5967 22.7499 46.1481C22.6227 44.6026 22.858 43.7313 23.1824 41.5434C23.5258 40.7739 23.8502 40.0043 24.1427 39.2157C24.448 38.3253 24.7851 37.3713 25.1731 36.3918C26.2543 36.4745 27.3863 34.2867 27.9969 33.6443C29.4724 31.7554 30.8907 29.8219 32.3662 27.9267C33.3075 26.7246 33.1739 26.7882 34.2679 26.0314C34.9357 25.5162 35.0819 24.6258 35.012 23.7863C35.0183 23.7799 35.0247 23.7799 35.0247 23.7736C35.8579 23.0167 36.7928 22.3998 37.7913 21.643C38.5163 21.2041 38.6626 20.3646 38.6435 19.576C38.6435 19.417 38.5927 19.2071 38.3828 19.2961C38.5481 19.506 38.6245 19.7032 38.5291 19.9639C38.4273 20.3773 38.3128 20.8035 37.874 20.9561C37.1108 21.3949 36.2713 21.6811 35.5017 22.1136C35.2409 22.2599 34.9802 22.4062 34.7194 22.5588C34.4523 22.0182 34.0961 21.9165 33.7209 22.0564C33.7209 22.05 33.7209 22.0437 33.7209 22.0437C33.6891 22.0627 33.6637 22.0818 33.6382 22.0945C33.5301 22.1454 33.422 22.2154 33.3139 22.2981C32.3026 22.9849 31.5331 23.9326 30.7381 24.8611C29.7205 25.9996 28.1241 28.0284 26.8903 29.6311C26.5913 29.9491 26.2924 30.2608 26.0062 30.5851C25.3193 31.4247 24.359 32.2006 24.1618 33.3199C24.041 33.9496 24.0155 34.7128 24.2254 35.3615C24.0601 35.6795 23.8947 35.9975 23.7357 36.3282C23.2205 37.5748 22.5146 38.7259 21.9295 39.9343C21.6751 40.2205 21.5479 40.6021 21.4143 40.971H21.4079C20.5557 41.2954 20.5175 42.3639 20.3776 43.2097C20.0596 44.5771 19.4809 45.8682 19.3091 47.2674C19.1819 47.8207 19.2455 48.5267 19.4363 49.1373C19.43 49.1881 19.4236 49.239 19.4173 49.2899C19.2837 49.5888 19.1692 49.9323 19.0929 50.3139C18.6604 51.3187 18.5141 52.7179 18.6604 53.4366C19.2837 55.7771 19.2455 55.9361 19.7035 58.4737C19.4872 57.4498 19.8625 59.2751 19.9833 59.6694C20.1296 60.2227 20.3649 60.7379 20.6575 61.2213C20.8801 62.5187 21.1408 64.026 22.3238 64.255C22.381 64.2423 22.4319 64.2232 22.4891 64.2105C22.8071 64.5603 23.1887 64.7129 23.6467 64.5157C23.9901 64.2359 24.2381 63.8925 24.4162 63.5045C24.448 63.5363 24.4735 63.5808 24.5053 63.6126C25.1603 64.8337 25.6501 66.1312 26.197 67.4032C26.8203 68.8723 27.4054 70.3542 28.0287 71.817C28.1114 72.0714 28.2131 72.2877 28.3213 72.4721C27.9333 75.544 28.493 80.2949 28.5121 82.0693C28.3531 82.5272 28.264 83.0488 28.2449 83.583C28.1241 83.971 28.0351 84.378 27.9397 84.7469C27.7361 85.7009 27.6789 86.6613 27.6853 87.6216C27.1319 91.6221 27.1319 95.6925 27.0556 99.731C27.1637 103.006 26.5913 106.314 27.2909 109.551C27.4817 110.886 27.7425 112.222 27.8443 113.57C27.8443 113.577 27.8443 113.577 27.8443 113.577C27.8761 114.372 27.8761 115.167 28.0096 115.949C28.3022 117.475 28.3721 117.24 28.4612 118.01C28.0287 120.019 28.0414 122.538 28.2704 124.739C28.334 125.394 28.3912 126.049 28.4612 126.71C28.4294 127.403 28.5248 128.09 28.7156 128.758C28.8555 129.655 29.0463 130.545 29.3261 131.41C29.3325 131.429 29.3452 131.442 29.3516 131.461C29.3325 131.983 29.377 132.498 29.4661 132.975C29.7141 134.469 30.9098 135.538 31.921 136.575C33.0658 137.732 33.6128 138.19 34.2806 138.731C34.5223 138.96 34.783 139.169 35.0629 139.367C35.2982 139.557 35.5589 139.78 35.8706 140.047C36.2267 140.232 36.9899 141.173 38.0711 141.535C38.1157 141.561 38.1602 141.599 38.2047 141.618C38.7962 141.828 39.464 142.114 40.0936 141.93C40.2653 141.891 40.6215 141.79 40.8632 141.72C40.9013 141.713 40.9395 141.701 40.984 141.701C41.0858 141.694 41.1875 141.688 41.2893 141.694C41.3529 141.726 41.4356 141.777 41.5373 141.841C41.5882 141.872 41.6327 141.911 41.6773 141.949C43.0637 143.825 44.0241 143.202 44.4693 141.917C45.2643 142.165 46.0402 142.4 47.4649 142.362C48.527 142.311 49.5319 142.826 50.6003 142.674C51.2363 142.706 51.9041 142.909 52.4956 142.591C52.6228 142.496 52.8454 142.292 52.9726 142.159C53.0489 142.12 53.1253 142.082 53.2079 142.05C53.6277 142.063 54.0411 142.07 54.4545 142.07C55.4085 142.082 56.2735 141.707 57.1448 141.376C57.3483 141.37 57.5518 141.357 57.749 141.345C58.1687 141.484 58.5694 141.516 58.9383 141.319C59.0973 141.37 59.2563 141.408 59.428 141.421C59.4407 141.395 59.428 141.364 59.428 141.338C59.4471 141.465 59.3072 141.351 59.2372 141.345C59.1736 141.313 59.11 141.275 59.0464 141.236C59.0528 141.23 59.0591 141.224 59.0719 141.217C59.1863 141.205 59.3008 141.192 59.4153 141.173C59.5425 141.084 59.6379 140.931 59.7015 140.747C59.7206 140.753 59.7397 140.747 59.7587 140.753C60.5792 140.785 61.3805 141.033 62.201 140.969C62.7988 140.969 63.3903 141.109 63.9881 140.995C64.4588 140.937 64.9103 140.753 65.3873 140.702C65.5845 140.696 65.788 140.753 65.9788 140.67C66.2269 140.6 66.4367 140.391 66.7102 140.435C66.8756 140.435 67.0346 140.581 67.1809 140.53C67.2381 140.416 67.1173 140.55 67.0664 140.486Z" fill="#850000"/>
<path d="M102.22 111.879C102.22 111.84 102.226 111.815 102.226 111.783C102.213 111.91 102.207 112.025 102.22 111.879Z" fill="#850000"/>
<path d="M102.283 107.363C102.219 107.045 102.181 106.721 102.136 106.396C102.111 105.531 102.13 103.032 102.2 101.041C102.257 98.1856 102.518 95.3172 102.283 92.4679C102.276 92.2453 102.314 93.0403 102.334 93.2184C102.334 92.9259 102.334 92.6397 102.34 92.3471C102.314 90.9606 102.626 90.8398 102.416 87.946C102.162 86.3115 102.257 84.7533 102.149 83.5385C101.876 79.2391 102.066 81.8722 101.812 76.6697C101.691 75.9319 101.481 75.2196 101.201 74.5264C101.163 74.2211 101.131 73.9222 101.106 73.6169C101.087 73.3371 101.055 73.0636 101.023 72.7837C101.017 72.6947 101.017 72.6756 101.023 72.7774V72.771C100.998 72.4021 100.972 72.0333 100.947 71.6644C100.82 70.4878 100.616 69.3175 100.426 68.1537C100.426 68.0583 100.426 67.9629 100.432 67.8675C100.47 67.524 100.502 67.1742 100.508 66.8244C100.47 64.7383 100.273 62.6459 99.9421 60.5853C99.586 59.3641 99.6496 57.4116 98.155 54.9694C97.9769 54.7086 97.7479 54.4924 97.5253 54.2698C97.2773 53.4112 96.6349 52.8897 96.088 53.3412C95.9608 53.1441 95.8145 52.9533 95.6301 52.8006C95.2993 52.4699 94.905 52.2473 94.5234 51.9993C94.1545 51.6304 93.8238 51.217 93.3659 50.9435C92.7108 50.5937 92.1829 50.1103 91.6869 49.5697C91.3307 49.239 90.8283 49.1118 90.4848 48.7557C89.9633 48.285 89.5817 47.6808 89.0602 47.2102C88.6722 46.8413 88.1761 46.6123 87.7882 46.2435C87.025 45.3976 86.2427 44.4945 85.2188 43.9539C86.1982 44.9651 86.8024 46.2562 87.5465 47.4264C88.2906 48.2469 88.9902 49.0737 89.5563 50.0213C90.0015 50.8417 90.8855 51.1979 91.4579 51.8721C91.8522 52.4508 92.4564 52.7752 93.0288 53.1441C92.9398 53.7165 93.0225 54.3143 93.2387 54.8676C93.1179 54.8295 93.0034 54.7786 92.8889 54.7404C93.0288 54.8231 93.1624 54.9249 93.3023 55.0139C93.6585 55.828 94.2881 56.5339 95.0449 56.9219C95.0831 56.941 95.1149 56.9728 95.1531 56.9919C95.4456 57.4053 95.7891 57.7869 96.1325 57.8759C96.1897 57.9777 96.2533 58.0858 96.3042 58.1748C96.4823 58.9571 96.7176 59.7267 96.9593 60.4835C96.972 60.6552 96.9847 60.8587 97.0102 61.1131C97.2709 63.6635 97.1437 62.3851 97.29 64.3695C97.3218 65.1072 97.3664 65.845 97.3727 66.5827C97.3664 66.6145 97.3663 66.6336 97.36 66.6718C97.1437 68.3635 97.3791 70.0489 97.5508 71.7343C97.589 72.1795 97.5953 72.2749 97.5953 72.205C97.6017 72.3385 97.6144 72.4721 97.6208 72.6057C97.6208 72.5739 97.6144 72.5357 97.6144 72.5039C97.6207 72.8728 97.6271 73.2417 97.6335 73.6169C97.7861 75.1942 97.5762 74.997 98.1295 77.8845C98.1995 78.1325 98.2885 78.3742 98.3839 78.6159C98.3839 81.2107 98.4348 81.2298 98.5875 83.0551C98.5938 83.2078 98.6065 83.3668 98.6193 83.5194C98.6383 83.7929 98.6574 84.0664 98.6829 84.3399C98.6892 84.5116 98.7019 84.6833 98.7019 84.855C98.7973 88.0732 98.6829 86.5849 99.0327 89.5042C99.039 89.6632 99.0327 89.8222 99.0327 89.9812C99.0009 90.4137 98.9691 90.8461 98.9627 91.2723C98.9945 94.6303 99.1344 93.5873 99.1789 96.4429C99.2871 99.165 99.2743 101.893 99.5605 104.603C99.6114 106.301 99.8086 107.986 100.362 109.602C100.247 110.689 100.311 111.79 100.381 112.884C100.54 114.944 100.623 115.428 100.769 117.081C100.515 117.361 100.254 117.634 100.139 118.003C99.9739 118.334 99.9739 118.747 99.7195 119.027C99.2998 119.466 98.7783 119.803 98.4158 120.287C98.1486 120.719 97.8815 121.158 97.3727 121.336C97.0547 121.463 96.9021 121.813 96.7621 122.099C96.4314 122.563 96.3615 123.168 96.5205 123.708C96.4505 123.244 96.5713 122.773 96.9275 122.455C97.2201 121.883 97.9769 122.131 98.3649 121.667C98.8291 121.043 99.6241 120.903 100.203 120.439C100.521 120.198 100.68 119.752 100.864 119.422C101.1 119.161 101.469 119.027 101.691 118.747C102.105 118.188 102.098 117.469 102.06 116.801C102.149 115.663 102.181 112.394 102.225 112.159C102.181 112.871 102.244 111.853 102.264 111.592C102.308 110.944 102.359 110.937 102.505 110.015C102.582 109.144 102.467 108.253 102.283 107.363Z" fill="#850000"/>
<path d="M102.238 111.573C102.238 111.586 102.238 111.599 102.231 111.624C102.225 111.669 102.225 111.726 102.219 111.783C102.231 111.675 102.238 111.561 102.238 111.573Z" fill="#850000"/>
<path d="M107.07 48.9467C107.108 48.3997 107.197 47.8909 107.426 47.3948C107.388 47.4711 107.375 47.4966 107.445 47.3503C107.439 47.363 107.432 47.3821 107.426 47.3948C107.471 47.3058 107.547 47.1531 107.56 47.1277C107.585 47.0768 107.68 46.9305 107.731 46.8669C107.769 46.7843 107.82 46.6316 107.865 46.5235C106.733 45.8684 105.671 45.0861 104.583 44.3547C103.871 43.8777 103.616 43.0382 103.998 42.2623C103.947 42.2178 103.903 42.1733 103.852 42.1224C103.375 41.6517 102.999 41.1048 102.535 40.6278C102.033 40.1126 102.058 39.324 102.535 38.8088C102.999 38.3 103.89 38.3255 104.354 38.8088C104.831 39.2985 105.213 39.8709 105.696 40.3543C105.938 40.596 106.179 40.8313 106.434 41.0539C106.491 41.0984 106.542 41.1429 106.599 41.1938C106.408 41.0348 106.606 41.1938 106.644 41.2256C106.777 41.321 106.924 41.4037 107.063 41.4864C107.451 41.7217 107.776 42.0588 108.113 42.3577C108.405 42.6185 108.698 42.8792 108.984 43.1463C109.086 43.2417 109.181 43.3371 109.277 43.4325C109.474 43.0064 109.69 42.6057 109.957 42.1987C109.652 40.526 108.812 39.2159 107.292 39.4639C106.669 39.006 105.836 38.8025 105.105 38.6117C105.092 38.6117 105.079 38.6117 105.06 38.6117C104.933 38.4972 104.799 38.3827 104.659 38.2809C104.062 38.052 103.426 37.5623 102.783 37.4096C102.65 37.2443 102.516 37.0789 102.376 36.9135C102.255 35.1327 101.664 33.3583 100.735 31.9655C100.265 31.9464 99.794 31.7174 99.5841 31.3167C99.5396 31.2341 99.4887 31.1577 99.4442 31.0814C99.4315 31.0687 99.4187 31.0433 99.3997 31.0242C99.2152 31.0496 99.0244 31.0496 98.8273 31.0115C98.2103 30.897 97.6061 30.7571 96.9956 30.6171C96.7157 30.5535 96.4041 30.5154 96.1306 30.4263C95.8126 30.3182 95.5455 30.1338 95.2784 29.9366C94.9731 29.7077 94.6615 29.5105 94.3943 29.2688C94.3562 29.2688 94.3244 29.2625 94.2862 29.2625C94.2544 29.3133 94.2226 29.3579 94.1908 29.4087C94.1717 29.4342 94.1527 29.466 94.1336 29.4914C93.5485 29.8349 93.1732 30.7189 92.9824 31.7174C92.9824 31.7238 92.9761 31.7238 92.9761 31.7301C92.8043 31.7492 92.639 31.8255 92.5118 31.9845C92.2065 32.4234 92.0348 32.9894 92.003 33.5555C91.7804 34.0515 91.6214 34.6303 91.5514 35.2599C91.2398 37.2633 91.7422 39.2858 92.9188 40.9331C93.2495 41.5118 93.6184 42.0588 94.0191 42.5867C94.1781 42.8792 94.3371 43.1654 94.5025 43.4516C95.2339 44.5583 95.6155 46.002 96.7221 46.797C97.1482 47.0387 97.568 46.975 97.9369 46.7588C98.0513 46.9369 98.1595 47.115 98.2739 47.2931C99.088 48.2343 99.8131 48.6668 100.43 48.7431C101.314 49.43 102.306 50.2314 103.394 49.9515C103.96 50.2823 104.64 50.4603 105.461 50.4095C105.766 50.3649 106.033 50.2695 106.281 50.1423C106.51 50.1678 106.739 50.1805 106.968 50.1678C106.981 50.1678 107 50.1614 107.013 50.1614C107.013 49.7353 107.038 49.3155 107.07 48.9467Z" fill="#7A0000"/>
<path d="M132.282 13.8202C131.862 13.3241 131.232 13.1396 130.641 12.9298C130.278 12.7962 129.878 12.6754 129.503 12.8153C129.35 12.8662 129.242 12.9806 129.146 13.1078C128.867 13.1206 128.587 13.1269 128.3 13.1396C127.684 13.1651 127.079 13.1269 126.475 13.076C126.176 13.2796 125.871 13.4767 125.578 13.6866C123.893 14.8886 122.131 15.938 120.376 17.032C116.776 19.277 113.164 21.5221 109.78 24.0916C109.57 24.365 109.348 24.6194 109.081 24.8548C108.826 25.071 108.495 25.2618 108.286 25.5226C107.961 25.9232 107.77 26.3112 107.3 26.5592C106.899 26.7691 106.505 26.7818 106.117 26.6674C104.584 27.6722 103.077 28.7662 102.148 30.1844C102.123 30.5597 102.034 30.9222 101.868 31.3165C101.697 31.7236 101.315 31.9207 100.908 31.9525C100.113 33.2372 100.107 36.2455 101.716 36.6653C101.767 36.6526 101.817 36.6271 101.875 36.608C102.085 37.0469 102.358 37.4094 102.708 37.6066C102.88 37.9754 103.058 38.2489 103.248 38.4524C103.643 38.4016 104.063 38.5224 104.336 38.8086C104.813 39.2983 105.195 39.8707 105.678 40.3541C105.92 40.5958 106.161 40.8311 106.416 41.0537C106.473 41.0982 106.524 41.1427 106.581 41.1936C106.39 41.0346 106.587 41.1936 106.626 41.2254C106.759 41.3208 106.905 41.4035 107.045 41.4862C107.433 41.7215 107.758 42.0586 108.095 42.3575C108.387 42.6182 108.68 42.879 108.966 43.1461C109.068 43.2415 109.163 43.3369 109.259 43.4323C109.551 42.79 109.895 42.2048 110.397 41.5688C111.008 40.7993 111.497 40.1124 112.229 39.3874C112.216 39.4064 112.203 39.4319 112.191 39.451C112.369 39.2347 112.585 39.0439 112.865 38.834C113.176 38.5924 113.622 38.5478 114.029 38.6242C114.62 38.0708 115.135 37.4348 115.663 36.8306C115.86 36.608 116.057 36.3854 116.255 36.1628C118.01 34.4838 119.772 32.8048 121.553 31.1512C123.187 29.5739 125.101 28.1747 126.176 26.1268C126.195 26.095 126.208 26.0568 126.221 26.025C126.342 26.0186 126.456 25.9996 126.571 25.9741C126.628 25.866 126.679 25.7642 126.736 25.6561C126.971 25.2427 127.289 24.8929 127.601 24.5368C127.913 24.1806 128.243 23.8435 128.568 23.4937C128.733 23.2584 128.898 23.0294 129.083 22.8132C129.382 22.457 129.712 22.139 130.043 21.8083C130.418 21.4331 130.736 20.9942 131.112 20.6317C131.162 20.5872 131.213 20.5427 131.271 20.4982C131.379 20.3519 131.5 20.2183 131.62 20.1166C131.665 19.7222 131.856 19.3343 132.186 19.0799C132.288 18.6919 132.365 18.2912 132.403 17.8906C132.428 17.7125 132.428 17.5344 132.434 17.3563C132.638 17.3627 132.848 17.3372 133.064 17.2736C134.075 16.2306 133.045 14.6915 132.282 13.8202Z" fill="#ABABAB"/>
<path d="M72.1866 123.632C72.18 123.639 72.18 123.645 72.1866 123.632V123.632Z" fill="#DBDB00"/>
<path d="M98.3065 111.007C98.3319 110.893 98.3574 110.772 98.3765 110.658C98.5482 109.284 98.5164 107.916 98.351 106.555C98.5736 105.226 98.6881 103.859 98.5927 102.517C98.7644 100.87 98.7644 99.216 98.5863 97.5751C98.8407 96.5702 98.8407 95.5018 98.739 94.4396C99.0252 91.1324 99.2923 87.8189 99.2287 84.4926C99.2223 82.0377 98.8789 79.6208 98.5736 77.1913C98.5927 76.7716 98.6054 76.4472 98.6118 76.1992C98.6754 75.614 98.7453 75.0098 98.8089 74.3675C99.057 72.434 99.2605 70.367 98.3765 68.5608C98.0648 68.0647 97.7723 67.734 97.4861 67.5241C97.556 66.551 97.3207 64.2742 96.6593 62.7541C96.6402 61.6856 96.4049 60.6172 96.0233 59.7268C95.559 58.6074 94.5986 57.8124 93.7019 57.0365C92.6715 56.1079 91.5903 55.2493 90.4901 54.4034C90.4646 54.1045 90.3883 53.812 90.2611 53.5512C89.4216 52.3428 88.4549 51.2107 87.4245 50.1486C87.4818 49.5889 87.4436 49.0165 87.3482 48.5268C87.2274 47.8018 86.8331 47.1403 86.2352 46.7142C85.7646 46.428 85.224 46.269 84.7088 46.0782C84.5562 46.0273 84.3781 45.9764 84.1937 45.9192C84.1809 45.9001 84.1619 45.8874 84.1491 45.8683C84.429 45.1178 84.3081 43.9094 83.5195 44.0684C82.8263 44.2974 82.1267 44.4755 81.4207 44.6345C80.1042 44.6663 78.635 44.5009 77.4139 44.4755V44.4818C77.3439 44.4882 77.274 44.5136 77.2167 44.5645C77.1341 44.6345 77.0768 44.7235 77.0323 44.8189C76.2437 44.6663 75.4041 44.5963 74.6028 44.679C74.3547 44.6726 74.1067 44.6726 73.8587 44.679C73.8459 44.6599 73.8396 44.6408 73.8269 44.6281C72.9683 43.8522 71.7217 44.1956 70.7168 44.4437C70.3479 44.5264 69.9727 44.6027 69.5975 44.679C68.5671 44.5645 67.5114 44.6027 66.7927 45.0352C66.6337 45.0415 66.4747 45.0542 66.3093 45.0542C66.2076 45.0542 66.1185 45.067 66.0295 45.086C65.9341 44.997 65.8323 44.927 65.7115 44.8825C64.9356 44.8507 64.5667 45.2387 64.2105 45.2578C63.1993 45.4867 62.1563 45.7348 61.9782 46.816C61.9146 46.9559 61.8764 47.1212 61.8573 47.293C61.8255 47.3057 61.8001 47.3184 61.7683 47.3311C61.7937 47.3311 61.8255 47.3248 61.851 47.3184C61.851 47.3438 61.851 47.3629 61.851 47.3884C61.6602 47.4138 61.4567 47.452 61.3358 47.5919C61.2213 47.7636 61.1387 47.9798 61.1005 48.2024C58.6392 48.7685 55.7899 54.3144 55.2239 56.0062C54.5624 57.7742 53.7038 59.6695 53.4431 61.5775C53.4113 61.603 53.3795 61.6284 53.354 61.6538C51.4524 62.6015 48.9465 65.0374 48.2279 65.9405C47.1912 67.187 46.1291 68.4209 45.2005 69.7565C45.0606 69.8646 44.927 69.9791 44.8062 70.119C43.7059 71.2829 43.6805 73.2163 44.1956 74.66C44.2783 74.9272 44.3991 75.1561 44.5454 75.3406C44.4309 76.2246 44.3928 77.0959 44.5645 77.9354C44.6535 78.2598 44.8507 78.6923 45.1433 78.9212C45.1369 79.0484 45.1242 79.1756 45.1178 79.3028C44.8253 82.7754 44.9779 83.5831 45.0924 85.3766C45.1814 90.7 45.1941 89.517 45.4803 93.6383C45.563 94.1471 45.6902 94.6495 45.8111 95.152C45.8492 95.3809 45.881 95.6162 45.9065 95.8452C45.9065 95.9088 45.9128 95.9788 45.9128 96.0424C45.8619 96.2459 45.8111 96.443 45.7602 96.6211C45.5058 97.6578 45.2259 98.6945 45.0987 99.7566C44.5899 104.088 45.1115 108.489 46.5043 112.604C46.5043 112.617 46.5043 112.623 46.5107 112.636C47.064 115.504 47.2166 118.671 49.0101 121.088C49.2137 121.393 49.4681 121.622 49.7415 121.8C49.7797 122.226 49.9069 122.634 50.1486 122.983C50.7655 123.454 51.5796 123.454 52.3746 123.422C52.4191 123.467 52.4573 123.524 52.5081 123.562C52.9915 123.861 53.583 123.81 54.149 123.677C54.6578 124.058 55.1921 124.414 55.739 124.701C56.6167 125.158 57.5707 125.267 58.4802 125.127C58.5756 125.534 58.8999 125.763 59.3324 125.845C60.1783 126.157 61.1259 126.112 62.0036 126.074C62.1881 125.985 62.3025 125.82 62.3598 125.629C62.4552 125.648 62.5506 125.674 62.646 125.693C63.1103 125.712 63.8226 125.992 64.1151 125.508C64.1215 125.502 64.1215 125.489 64.1279 125.483C64.7766 125.438 66.5065 125.833 66.4238 124.987C67.9947 124.923 69.5466 124.656 71.0094 124.109C71.2447 124.045 71.48 123.975 71.709 123.893C72.7584 123.899 73.8014 123.848 74.8381 123.715C75.4614 123.696 76.091 123.664 76.7143 123.607C78.7304 123.632 80.7465 123.581 82.7499 123.365C82.8135 123.378 82.8835 123.397 82.9471 123.409C85.3957 123.772 87.9015 123.473 90.3311 123.066C90.4901 123.568 90.8017 124.154 91.3677 124.198C91.6857 124.147 91.991 124.071 92.2836 123.969C92.7415 124.154 93.3393 124.052 94.0771 123.486C94.3697 123.219 94.605 122.901 94.8276 122.57C95.3936 122.659 95.9724 122.207 96.4875 121.571C97.7659 120.49 98.6245 118.964 98.7771 117.285C98.8916 116.28 98.8471 115.224 98.5609 114.245C98.9616 113.723 99.2605 113.151 99.216 112.464C99.2223 111.872 98.8789 111.243 98.3065 111.007ZM73.7633 111.217C73.776 111.211 73.7951 111.211 73.8078 111.205C73.8777 111.179 73.8905 111.179 73.8587 111.192C73.9159 111.166 73.9668 111.147 74.024 111.122C74.2403 111.052 74.5455 111.077 74.7745 111.096C75.0989 111.122 75.4041 111.249 75.6585 111.446C75.7857 111.414 75.9129 111.395 76.0401 111.383C76.6189 111.319 77.2549 111.961 77.1977 112.54C77.1977 112.553 77.1913 112.566 77.1913 112.578C76.9878 112.623 76.7906 112.655 76.5871 112.693C76.0529 112.585 75.5123 112.496 74.9653 112.432C74.3166 112.229 73.6679 112.031 73.0128 111.853C72.8919 111.802 72.7775 111.752 72.6503 111.701C72.6185 111.688 72.5803 111.669 72.5485 111.656C72.5867 111.637 72.6248 111.624 72.663 111.605C73.0191 111.434 73.3371 111.192 73.7633 111.217ZM98.1793 112.979C98.1475 113.011 98.1093 113.036 98.0775 113.062C97.9949 112.922 97.9058 112.782 97.8104 112.648C97.9313 112.368 98.033 112.089 98.1157 111.796C98.2683 111.885 98.3892 112.038 98.5037 112.165C98.8089 112.496 98.4273 112.763 98.1793 112.979Z" fill="#DBDB00"/>
<path d="M71.6971 123.13C71.6971 123.117 71.6971 123.104 71.6971 123.092C71.8815 123.13 72.066 123.174 72.2568 123.193C72.0851 123.142 71.9324 123.06 71.7861 122.958C71.7416 122.939 71.6971 122.913 71.6526 122.894C71.6081 122.78 71.5381 122.691 71.4173 122.653C71.3727 122.665 71.3282 122.672 71.2837 122.684C71.0547 122.532 70.8321 122.36 70.5841 122.258C69.9227 121.959 69.1849 121.979 68.4853 121.832C68.3517 121.8 68.2055 121.737 68.0528 121.667C67.9193 121.241 67.6839 120.866 67.2705 120.675C66.9017 120.592 66.5137 120.649 66.1257 120.675C66.0431 120.643 65.9667 120.605 65.8968 120.554C65.3117 120.128 64.7965 119.562 64.1096 119.282C63.6072 119.11 63.0348 119.123 62.6341 118.729C61.1967 117.094 59.435 115.32 57.9023 114.016C57.1263 112.966 56.4458 111.822 55.53 110.6C55.2819 110.187 54.9703 109.195 54.3152 108.311C54.258 108.228 54.2007 108.146 54.1435 108.063C53.075 106.199 53.3167 106.441 52.6425 104.641C52.2546 103.757 52.3118 102.46 51.7394 100.514C50.9762 98.6055 51.0653 98.0967 50.442 95.5337C49.5707 91.7813 49.1445 87.9525 47.9171 82.8454C47.5037 81.23 47.4337 80.1488 47.0585 77.7829C46.9185 77.2041 46.8041 76.6254 46.7087 76.0402C46.7087 76.0339 46.7087 76.0212 46.7087 76.0148C46.7087 75.8812 46.7087 75.7477 46.7087 75.6205H46.6832C46.6578 75.2834 46.6323 74.9527 46.6005 74.6156C46.5687 74.4185 46.5242 74.234 46.467 74.0687C46.4034 73.3118 46.3589 72.555 46.3652 71.7981C46.4415 71.4611 46.5242 71.1176 46.6069 70.7805C46.785 70.0555 47.4846 67.7277 46.2126 67.785C45.7419 67.9631 45.5003 68.51 45.2967 68.9425C45.1759 69.2669 45.0805 69.5976 45.0042 69.9283C44.6226 70.3862 44.6862 71.1621 44.718 71.7282C44.7243 71.8363 44.7243 71.9381 44.7307 72.0462C44.718 72.2815 44.7116 72.5168 44.7116 72.7458C44.6735 73.0065 44.6417 73.2609 44.6417 73.5217C44.5017 73.7189 44.3809 73.9732 44.2855 74.3103C44.2092 74.7492 44.1647 75.1817 44.1392 75.6205H44.1074C44.1074 75.7859 44.1138 75.9448 44.1201 76.1102C44.1074 76.7589 44.1265 77.4077 44.1837 78.0564C44.2219 78.915 44.2664 79.7799 44.3237 80.6385C44.241 82.2349 44.2473 83.8376 44.3745 85.434C44.4827 86.5406 44.5781 87.66 44.6798 88.7793C44.6862 91.3869 44.807 93.9882 45.0996 96.5767C45.3222 97.8996 45.5702 99.2288 45.8564 100.552C45.6465 100.73 45.4621 100.978 45.3031 101.302C44.5272 102.911 44.4191 104.743 44.5653 106.498C44.648 107.999 44.877 109.487 45.1823 110.963C45.2967 112.311 45.5511 113.647 46.0599 114.893C46.0727 114.919 46.0854 114.938 46.1045 114.963C46.4543 116.261 46.8422 117.437 47.0966 118.277C47.5482 119.632 48.4195 120.885 49.5389 121.8C50.2067 122.627 51.0144 123.333 51.9684 123.817C52.3627 123.969 52.8206 124.141 53.2531 124.154C53.552 124.809 54.4106 125.26 55.1738 125.292C55.4155 125.318 55.6572 125.33 55.8989 125.324C57.6669 125.96 59.8103 126.31 60.4335 124.904C60.7197 124.98 60.9996 125.031 61.2731 124.961C61.2921 124.936 61.2985 124.91 61.3112 124.885C62.3352 125.133 63.41 125.184 64.4785 125.114C65.0954 125.139 65.7123 125.133 66.3293 125.063C66.7872 125.012 67.3214 124.917 67.6267 124.548C68.9114 124.484 70.2343 124.306 71.3219 123.772C71.3537 123.772 71.3855 123.766 71.4173 123.766C71.4173 123.753 71.4173 123.74 71.4173 123.728C71.4745 123.696 71.5317 123.677 71.589 123.645C71.6081 123.613 71.6208 123.581 71.6335 123.543C71.6462 123.543 71.6589 123.543 71.6717 123.543C71.6971 123.549 71.7225 123.543 71.7416 123.549V123.543C71.7607 123.543 71.7798 123.543 71.8052 123.543C71.9261 123.327 71.8497 123.206 71.6971 123.13Z" fill="#9E9E00"/>
<path d="M83.061 83.9649C82.7557 83.2716 82.196 83.0427 81.7127 83.278C81.4901 82.1586 81.2357 80.0471 80.288 79.233C79.5312 77.8529 78.7362 77.4141 78.0366 77.6303C77.7377 76.4919 77.3879 75.3725 76.9236 74.2913C76.8663 74.1705 76.7964 74.0496 76.7328 73.9351C76.7137 73.8779 76.701 73.8207 76.6819 73.7571C76.6501 73.5981 76.6056 73.42 76.5356 73.2546C76.5293 73.2355 76.5229 73.2165 76.5165 73.1974C76.0777 71.919 75.9505 70.4753 75.1046 69.3814C74.7675 69.0507 74.4559 68.8917 74.1697 68.8408C74.1188 68.7136 74.0679 68.5864 74.0171 68.4592C73.8771 67.5815 73.7372 66.7102 73.6037 65.8389C73.5846 65.6417 73.5591 65.4509 73.5273 65.2601C73.521 65.2029 73.5146 65.152 73.5083 65.0947C73.5146 65.1202 73.5146 65.152 73.521 65.1965C73.203 63.0913 72.4843 61.4314 70.8434 61.9783C69.7368 62.9387 69.3234 64.2679 69.2598 65.7307C68.9736 66.354 68.7383 66.9964 68.522 67.4161C68.4012 67.6578 68.2931 67.9313 68.1977 68.2111C67.886 68.2684 67.568 68.4401 67.2818 68.7581C67.0847 69.0379 66.9066 69.3241 66.7349 69.6167C65.8508 69.8838 65.0367 71.1304 64.8587 73.0511C64.8205 73.4709 64.776 73.897 64.7378 74.3231C64.4325 75.3725 64.1718 76.4473 63.9428 77.5158C63.5739 78.9341 63.1923 80.346 62.8171 81.7643C62.5118 82.642 62.3401 83.5578 62.3528 84.4864C62.3465 84.55 62.3465 84.6136 62.3465 84.6835C62.1366 85.593 62.0221 86.5343 61.8949 87.4247C61.596 90.5475 61.914 93.7338 62.7726 96.7675C62.7917 96.8502 62.8044 96.9265 62.8298 97.0092C63.3068 99.5596 64.1527 102.072 65.7173 104.171C66.1434 104.857 66.6395 105.315 67.161 105.563C67.5935 106.492 68.1659 107.357 68.7891 108.171C69.2534 108.845 69.7749 109.475 70.4491 109.945C71.0406 110.327 71.5812 110.512 72.0709 110.55C72.0709 110.55 72.0773 110.55 72.0773 110.543C72.1027 110.524 72.1281 110.505 72.1663 110.473C72.2808 110.391 72.3889 110.295 72.5097 110.225C72.726 110.098 72.974 110.003 73.2093 109.92C73.2984 109.888 73.3874 109.856 73.4765 109.831C73.5337 109.818 73.61 109.793 73.6037 109.799C73.839 109.697 74.0679 109.577 74.3033 109.494C74.7039 109.348 75.1301 109.252 75.5498 109.15C75.9887 109.049 76.4339 108.953 76.8663 108.826C76.9681 108.794 77.0635 108.769 77.1653 108.731C77.1843 108.724 77.3052 108.68 77.3497 108.667C77.3942 108.648 77.5151 108.591 77.5341 108.578C77.6168 108.534 77.6995 108.489 77.7822 108.438C77.8458 108.343 77.9157 108.247 77.973 108.139C78.2465 108.063 78.5072 107.898 78.6853 107.637C78.8061 107.471 78.9079 107.3 79.0033 107.128C79.2641 106.88 79.5057 106.613 79.7411 106.339C80.1608 106.25 80.5043 105.869 80.7078 105.5C80.9685 105.112 81.1466 104.673 81.2802 104.221C81.5727 104.101 81.8589 103.846 82.107 103.401C82.8511 102.244 83.0165 100.959 82.9401 99.655C83.5189 98.8282 83.7415 97.8487 83.7797 96.8439C83.9959 96.1379 83.9832 95.3365 84.0531 94.6115C84.2757 90.8019 84.0404 86.5915 83.061 83.9649Z" fill="#3D3D3D" stroke="#ABABAB" stroke-miterlimit="10"/>
<path d="M74.7046 105.125C74.323 105.411 73.8778 105.29 73.4835 105.086C73.5089 104.927 73.5216 104.762 73.528 104.59C73.5916 104.609 73.617 104.616 73.5598 104.539C73.5534 104.527 73.5407 104.52 73.528 104.514C73.5343 104.126 73.4962 103.719 73.3881 103.35C72.6567 101.429 71.3274 99.7885 70.4307 97.9377C69.006 95.3937 68.4718 93.8292 68.1983 92.6716C68.1919 92.6335 68.1792 92.6081 68.1729 92.5826C68.1729 92.5508 68.1601 92.4872 68.1474 92.3791C68.1411 92.3282 68.1411 92.3028 68.1411 92.2837C68.1347 92.2201 68.1347 92.1756 68.1347 92.1438C68.2937 90.9036 68.052 88.792 66.6973 89.1418C66.6592 89.1673 66.6337 89.1991 66.6019 89.2245C66.5447 89.2372 66.4811 89.2563 66.4239 89.2818C65.9341 89.6252 65.7306 90.2103 65.5716 90.7573C65.1709 91.9466 64.9165 93.1804 64.8784 94.4397C64.7893 96.1251 65.5271 97.5625 66.4684 98.9044C66.8245 99.7758 67.2316 100.52 67.5305 100.921C67.7849 101.404 68.0075 101.913 68.3319 102.358C68.7325 102.771 68.7516 102.638 68.9615 103.07C69.4767 104.228 71.1112 105.512 71.6327 105.932C72.4277 106.956 73.0701 106.498 73.3626 105.582C73.4835 105.595 73.6043 105.608 73.7251 105.627C74.1004 105.633 74.4947 105.462 74.7173 105.15C74.7555 105.08 74.8127 105.035 74.7046 105.125Z" fill="#8C8C8C" stroke="#ABABAB" stroke-miterlimit="10"/>
<path d="M100.246 42.1287C101.257 42.7138 102.319 43.159 103.394 43.6042" stroke="#ABABAB" stroke-miterlimit="10"/>
<path d="M101.117 41.4482C101.709 41.9825 102.516 42.2305 103.267 42.4595" stroke="#ABABAB" stroke-miterlimit="10"/>
<path d="M107.069 48.9466C107.107 48.3996 107.196 47.8908 107.425 47.3947C107.387 47.471 107.375 47.4965 107.444 47.3502C107.438 47.3629 107.432 47.382 107.425 47.3947C107.47 47.3057 107.546 47.153 107.559 47.1276C107.584 47.0767 107.68 46.9304 107.731 46.8668C107.782 46.746 107.864 46.5107 107.896 46.4153C107.921 46.3262 107.947 46.2308 107.979 46.1418C108.08 45.8302 108.201 45.563 108.43 45.3214C108.475 45.1433 108.545 44.9779 108.64 44.8126C108.723 44.5582 108.831 44.3228 108.99 44.0939C109.162 43.6678 109.34 43.2671 109.543 42.8855C109.524 42.8728 109.505 42.8537 109.486 42.8346C109.124 40.8185 107.762 40.0171 106.134 39.0186C106.128 39.0122 106.122 39.0059 106.115 38.9995C104.334 37.3078 104.277 37.5049 103.272 36.4682C102.967 36.0803 102.636 35.7305 102.172 35.6351C102.064 35.6096 101.962 35.6096 101.86 35.6096C101.218 34.9546 100.359 34.6111 99.6217 35.4634C99.4182 35.7559 99.2528 36.0612 99.1129 36.3792C98.8712 36.093 98.6359 35.8132 98.4069 35.527V35.5333C98.2861 35.3998 98.1398 35.2916 97.9554 35.2408C96.6834 35.0372 96.4926 37.3777 96.6261 38.2681C96.8487 39.6864 97.8981 40.7994 98.5914 42.0205C99.5708 43.5787 100.741 45.0161 102.153 46.1863C103.291 47.4838 104.595 48.6413 106.103 49.4808C106.433 49.7161 106.739 49.8624 107.025 49.9451C107.025 49.5953 107.044 49.2582 107.069 48.9466Z" fill="#7A0000" stroke="#ABABAB" stroke-miterlimit="10"/>
<path d="M107.877 45.3214C107.973 45.4486 108.068 45.5567 108.17 45.6712C108.24 45.5503 108.316 45.4358 108.418 45.3277C108.463 45.1496 108.533 44.9843 108.628 44.8189C108.711 44.5645 108.819 44.3292 108.978 44.1002C109.347 43.178 109.728 42.4148 110.402 41.569C110.981 40.8376 111.458 40.1825 112.126 39.502C111.999 38.0519 111.496 36.6463 110.231 35.8259C110.148 35.775 110.072 35.7305 109.995 35.686C109.391 35.0309 108.73 34.6048 108.094 34.5984C107.776 34.2868 107.42 34.0387 107.032 33.8543C106.803 33.638 106.58 33.4663 106.376 33.3328C106.237 33.1038 106.052 32.824 105.931 32.665C105.295 31.8191 103.763 31.4693 103.247 32.6077C103.114 32.8494 102.993 33.0974 102.898 33.3582C102.433 33.2882 102.039 33.6253 101.81 34.6684C101.791 34.7065 101.791 34.751 101.772 34.7892C101.657 34.6302 101.492 34.6302 101.244 34.91C101.168 35.0563 101.123 35.209 101.091 35.3616C100.843 35.4634 100.888 35.8386 101.06 36.252C101.079 36.4555 101.117 36.6527 101.155 36.8498C101.168 37.206 101.231 37.5113 101.39 37.594C101.524 37.9438 101.664 38.3063 101.956 38.4971C102.16 38.5543 102.287 38.2999 102.338 38.1346C102.357 38.0646 102.357 37.9946 102.357 37.9183C102.522 38.1791 102.726 38.389 102.98 38.5034C103.037 38.6561 103.088 38.8151 103.152 38.9677C103.534 39.7882 104.017 40.5514 104.551 41.2828C104.99 42.2304 105.715 42.9809 106.555 43.6169C106.625 43.6868 106.688 43.7568 106.758 43.8268C107.038 44.3864 107.42 44.9398 107.877 45.3214Z" fill="#ABABAB" stroke="#ABABAB" stroke-miterlimit="10"/>
<path d="M107.928 46.2945C107.941 46.2436 107.96 46.1927 107.973 46.1418C108.075 45.8302 108.195 45.5631 108.424 45.3214C108.437 45.2832 108.45 45.2387 108.463 45.2005C108.475 45.1369 108.482 45.0797 108.494 45.0161C108.507 45.0161 108.52 45.0225 108.526 45.0225C108.558 44.9525 108.596 44.8825 108.634 44.8126C108.717 44.5582 108.825 44.3229 108.984 44.0939C109.086 43.8395 109.194 43.5915 109.302 43.3561C109.226 43.3625 109.143 43.3879 109.08 43.4007C109.048 43.407 109.016 43.4134 108.99 43.4134C108.679 42.9746 108.183 42.6438 107.68 42.5739C106.758 41.8488 104.939 40.9457 104.125 41.4227C103.769 41.2319 103.413 41.0411 103.05 40.8694C102.898 40.8058 102.745 40.7168 102.592 40.7994C102.433 40.8376 102.306 40.9393 102.211 41.0665C102.185 41.0538 102.16 41.0411 102.134 41.0284C101.899 40.933 101.651 40.6977 101.39 40.7358C101.098 40.8758 100.996 41.2065 100.983 41.5435C100.118 41.0284 99.3551 40.3097 98.7891 39.4829C99.3424 40.704 100.163 41.8361 101.193 42.7011C101.428 42.8791 101.664 43.0509 101.893 43.2162C102.001 43.6932 102.223 44.1384 102.599 44.4755C102.917 44.7553 103.235 44.9652 103.553 45.1306C104.449 46.1227 105.569 47.0895 106.51 46.1482C106.523 46.1227 106.536 46.0973 106.548 46.0719C106.669 46.1164 106.784 46.1673 106.898 46.2245C107.35 46.4853 107.68 46.4662 107.928 46.2945Z" fill="#7A0000" stroke="#ABABAB" stroke-miterlimit="10"/>
<path d="M108.139 40.9902C107.713 40.4624 107.223 40.2716 106.759 40.3161C106.415 39.82 106.002 39.413 105.544 39.2285C105.353 38.6243 105.08 38.0519 104.711 37.5495C103.903 36.163 102.536 35.2344 101.461 34.0515C101.321 33.7716 101.181 33.4918 101.048 33.212C100.85 32.6968 100.615 32.2007 100.272 31.7619C99.7692 31.1831 99.2604 31.0432 98.8025 31.1704C97.6259 30.5853 96.6274 31.6347 96.1885 33.1484C96.1186 33.39 96.074 33.6317 96.0295 33.8607C95.3554 34.1342 95.0119 35.2535 94.9292 35.9277C94.6303 37.7085 95.419 39.3557 96.4556 40.7486C96.5892 40.9712 96.78 41.251 97.0089 41.6008C97.3778 42.4531 97.7912 43.2862 98.2746 44.0812C98.5862 44.6218 98.8915 45.3405 99.4703 45.614C99.7437 45.6839 99.9791 45.6712 100.195 45.6203C100.361 46.4471 100.704 47.2167 101.162 47.6873C101.677 48.2025 102.37 48.2597 103.057 48.1389C103.115 48.1453 103.165 48.1389 103.223 48.1389C103.267 48.2025 103.305 48.2661 103.356 48.3233C103.89 48.9848 104.889 49.0865 105.595 48.6413C105.888 48.406 106.059 48.0689 106.136 47.7064C106.142 47.681 106.148 47.6555 106.155 47.6301C106.479 47.7636 106.816 47.8718 107.16 47.9354C107.808 47.9608 108.273 47.3757 108.565 46.8605C109.36 45.0225 109.303 42.6629 108.139 40.9902Z" fill="#7A0000"/>
<path d="M115.369 33.5554C115.401 33.4791 115.439 33.4027 115.471 33.3328C115.42 33.3964 115.369 33.4663 115.312 33.5299C115.242 33.4918 115.159 33.4727 115.064 33.4791C115.21 33.0211 115.274 32.5505 115.165 32.0862C114.981 31.5265 114.682 31.4884 114.434 31.6792C114.536 31.2785 114.568 30.846 114.58 30.5407C114.555 30.2991 114.523 30.0955 114.491 29.9111C115.649 27.8568 116.73 25.7517 118.174 23.8882C116.456 25.192 115.121 26.941 113.747 28.5882C113.69 28.6836 113.62 28.7727 113.544 28.8553C112.958 29.1225 112.278 30.28 111.877 31.2276C111.279 32.4933 110.853 33.6953 110.453 34.8528C110.154 35.7623 110.166 37.6321 111.14 37.9629C111.108 38.0392 111.076 38.1091 111.044 38.1855C111.006 38.2554 110.968 38.319 110.93 38.389C110.904 38.4208 110.879 38.4589 110.853 38.4907C110.732 38.7133 110.573 38.9359 110.516 39.184C110.332 39.5465 110.16 39.909 109.988 40.2779C109.982 40.2397 109.982 40.1952 109.976 40.1634C109.81 39.3239 109.187 38.9677 108.462 38.7006C108.57 37.0661 108.042 35.2853 106.878 35.1009C106.452 35.1708 106.115 35.457 105.854 35.8704C105.873 35.8259 105.893 35.7814 105.905 35.7305C105.848 35.8577 105.765 35.9913 105.683 36.1248C105.721 35.7877 105.829 35.457 106.09 35.2408C105.797 35.3553 105.664 35.6351 105.575 35.9277C105.549 35.8259 105.524 35.7178 105.492 35.616C105.32 35.209 105.148 34.5348 104.722 35.1835C104.512 35.4061 104.372 35.6733 104.277 35.9658C104.042 35.4761 103.679 35.527 103.609 36.2329C103.431 36.1948 103.247 36.1821 103.12 36.2202C102.961 36.3792 102.973 36.6718 103.056 36.8689C103.17 37.0597 103.457 37.0597 103.641 37.1679C103.692 37.1933 103.749 37.2124 103.8 37.2378C103.921 37.5049 104.093 37.7466 104.277 37.9756C104.493 38.5162 104.945 39.0123 105.339 39.1649C105.505 40.3288 106.02 41.3273 106.872 41.4609C107.075 41.4291 107.26 41.34 107.425 41.2192C107.552 41.3146 107.692 41.4036 107.832 41.4799C108.367 41.8425 108.812 42.3449 109.41 42.5993C109.467 42.6311 109.524 42.5802 109.55 42.523C109.823 42.0778 110.02 41.4672 109.944 40.9203C110.084 40.7167 110.23 40.5132 110.37 40.3033C110.364 40.3669 110.357 40.4242 110.357 40.4878C110.313 40.8249 110.325 41.1683 110.44 41.5054C110.516 41.6771 110.593 41.7916 110.675 41.8615C110.93 42.2559 111.337 42.5166 111.712 42.0651C112.049 41.5881 112.259 41.1937 112.418 40.9648C113.073 39.9281 115.064 39.025 115.312 37.5177C115.331 37.1869 115.318 36.9007 115.286 36.6591C115.681 36.2139 115.91 35.6733 115.884 35.0563C115.89 34.6239 115.77 33.8161 115.369 33.5554ZM105.04 36.1248C105.155 36.322 105.231 36.5509 105.288 36.7926C105.276 36.8244 105.263 36.8562 105.25 36.888C105.142 36.7545 104.996 36.6527 104.83 36.5827C104.83 36.5637 104.83 36.5573 104.837 36.5382C104.837 36.5382 104.837 36.5382 104.843 36.5255C104.849 36.4937 104.862 36.4555 104.875 36.4237C104.875 36.4174 104.881 36.4174 104.881 36.411C104.881 36.4047 104.881 36.4047 104.888 36.3983C104.919 36.3029 104.983 36.2139 105.04 36.1248ZM109.798 41.2701C109.766 41.5563 109.607 41.7852 109.441 42.0078C109.384 41.9633 109.257 41.9061 109.212 41.8552C109.047 41.6771 108.869 41.5181 108.691 41.3464C108.767 41.3909 108.837 41.4354 108.92 41.4672C109.123 41.5563 109.295 41.5563 109.448 41.5054C109.397 41.6326 109.34 41.7534 109.289 41.8806C109.403 41.728 109.511 41.5626 109.619 41.4036C109.696 41.3464 109.759 41.2637 109.81 41.1747C109.804 41.2128 109.804 41.2383 109.798 41.2701ZM113.989 32.5251C113.817 32.9448 113.575 33.6826 113.187 34.0769C112.997 34.2423 112.78 34.414 112.558 34.5603C112.615 34.3949 112.672 34.2423 112.723 34.1087C112.882 33.7144 113.111 33.142 113.353 32.595C113.404 32.6268 113.448 32.6586 113.499 32.6841C113.703 32.6841 113.862 32.6141 113.995 32.4996C113.989 32.4996 113.989 32.5123 113.989 32.5251Z" fill="#ABABAB"/>
<path d="M103.806 29.8156C103.291 29.981 102.821 30.2545 102.356 30.5343C102.261 30.4707 102.14 30.4516 101.975 30.5216C101.733 30.6933 101.536 30.9159 101.345 31.1449C100.9 31.2784 100.404 31.4247 100.149 31.8317C100.13 31.8826 100.111 31.9462 100.092 32.0098C99.8187 31.9844 99.5961 32.0671 99.5389 32.4232C99.3735 33.0974 99.7615 33.2309 100.219 33.1673C100.251 33.2055 100.289 33.2309 100.328 33.2627C100.385 33.479 100.499 33.6571 100.715 33.7207C100.811 33.6889 100.894 33.638 100.97 33.5744C100.976 33.5998 100.976 33.6253 100.989 33.6443C101.975 33.1928 102.821 32.207 103.724 31.5392C103.953 31.2975 104.283 31.183 104.385 30.8269C104.531 30.4135 104.398 29.5739 103.806 29.8156Z" fill="#ABABAB"/>
<path d="M131.779 15.2387C131.626 14.9843 131.416 14.7808 131.181 14.609C130.736 14.1448 130.119 13.8395 129.584 13.4897C129.203 13.2989 128.777 12.9554 128.332 13.0508C128.179 13.1272 128.064 13.2289 127.963 13.3498C127.791 13.4006 127.657 13.4897 127.537 13.5851C127.524 13.5088 127.505 13.4324 127.498 13.3498C127.492 13.4324 127.492 13.5151 127.492 13.5978C127.416 13.4388 127.333 13.2798 127.263 13.1144C127.301 13.318 127.352 13.5278 127.409 13.725C127.403 13.7377 127.397 13.7504 127.384 13.7568C127.371 13.6996 127.358 13.6423 127.339 13.5914C127.339 13.6614 127.346 13.7314 127.352 13.8013C127.25 13.9349 127.161 14.0748 127.11 14.2465C127.104 14.2402 127.104 14.2338 127.098 14.2338C127.098 14.2402 127.104 14.2465 127.104 14.2592C126.869 15.0797 127.18 16.2181 127.486 16.8923C127.899 17.9862 129.038 18.5332 130.131 18.7303C130.5 18.724 130.952 18.8066 131.251 18.5586C131.321 18.4823 131.378 18.3932 131.429 18.3042C132.211 17.5537 132.179 16.1609 131.779 15.2387Z" fill="#5C5C5C"/>
<path d="M66.863 101.951C66.7104 100.952 66.3479 100.004 65.8836 99.1077C65.572 97.9057 64.6243 95.9405 64.2364 95.12C63.8357 93.3837 63.6004 91.6475 63.4096 90.1211C63.3714 89.0017 63.3205 88.2321 63.276 87.6025C63.2887 87.3099 63.3014 87.011 63.3142 86.7185C63.3142 85.9553 63.4414 85.1475 63.3142 84.3907C63.4414 84.06 63.5749 83.7293 63.7085 83.4049C63.5495 83.6275 63.3968 83.8565 63.2506 84.0854C63.2251 83.9837 63.1933 83.8755 63.1488 83.7738C62.9962 83.0933 62.1439 82.6353 61.756 83.4176C61.438 83.8501 61.4189 84.4161 61.3171 84.9313C60.7638 89.8857 61.2281 98.6371 64.9042 103.833C65.8772 105.938 67.181 103.789 66.863 101.951Z" fill="#7A7A7A"/>
<path d="M73.7391 108.222C73.5038 108.222 73.2494 108.292 73.0141 108.273C73.879 108.228 74.3051 107.325 74.5214 106.587C75.2019 103.242 73.9681 101.544 71.9647 98.9235C71.5576 98.4083 71.1251 97.9123 70.6609 97.448C70.3874 96.9583 70.1139 96.4685 69.8531 95.9725C69.586 95.4891 69.3316 94.9803 68.9564 94.5733C68.6956 94.039 68.8165 94.109 68.6193 93.7083C68.7847 93.3076 68.9055 92.8942 68.861 92.4554C68.8482 91.9021 68.6511 91.336 68.2759 91.2661C68.2759 90.8209 68.1995 90.382 68.0087 89.9686C67.9579 89.8669 67.907 89.7842 67.8497 89.7142C67.7989 89.2881 67.6844 88.8747 67.4427 88.4995C67.1947 87.908 66.3488 87.9016 66.1007 88.4995C66.0689 88.5503 66.0435 88.6076 66.0117 88.6585C65.7319 88.862 65.4965 89.2309 65.4011 89.6633C65.0323 90.7827 64.7779 92.2709 65.3057 93.3839C65.0641 94.0963 65.204 96.494 65.1658 95.4064C65.2167 96.4177 65.3057 97.4353 65.6873 98.3829C66.2852 100.049 67.1438 101.607 68.0978 103.102C68.2949 103.814 68.543 104.52 68.8864 105.163C68.6066 104.934 68.3013 104.73 68.0151 104.508C67.2392 103.732 66.5841 102.848 65.8718 102.014C65.1913 100.971 64.6252 100.005 64.1991 98.9489C65.1785 97.2763 64.8224 93.6829 63.1433 93.4221C63.1179 93.4285 63.0925 93.4412 63.067 93.4475C63.0479 93.2949 63.0289 93.1423 62.9971 92.996C63.0034 93.1486 63.0034 93.3076 63.0034 93.473C62.997 93.473 62.9907 93.4793 62.9843 93.4793C62.9462 93.3267 62.908 93.1741 62.8889 93.0214C62.8444 92.5635 62.8571 92.0992 62.8762 91.6413C63.0861 88.5376 64.5298 85.4403 64.8923 82.3621C65.0513 81.4526 65.2294 80.4859 65.4075 79.6718C65.4202 79.5001 65.4329 79.3474 65.4393 79.2011C65.7955 78.4189 66.1007 77.6111 66.3297 76.7843C66.883 75.6713 67.2201 74.7046 67.5381 73.916C68.4921 72.2878 69.3316 71.0222 70.4192 69.5339C69.1472 70.4498 67.7289 71.7536 66.9085 73.0892C66.5587 73.8651 66.1834 74.6474 65.8972 75.4487C65.6873 75.6777 65.4775 75.913 65.3121 76.1801C64.8796 77.1023 64.8097 78.139 64.7015 79.1375C64.5171 79.8053 64.3454 80.4795 64.2054 81.16C63.951 82.4447 63.7094 83.5387 63.4804 84.6262C63.4422 84.7025 63.3977 84.7725 63.3596 84.8488C63.385 84.7343 63.4041 84.6199 63.4295 84.5054C63.5631 83.2079 63.544 81.8405 64.2054 80.6767C64.2627 79.888 64.2182 79.0867 64.4281 78.3171C64.1609 78.9404 64.0274 79.6082 63.9383 80.2823C63.7921 80.5749 63.5377 80.8229 63.4359 81.1537C62.9525 82.2412 62.8317 84.2065 62.7172 84.5245C61.8459 87.6345 62.183 90.8908 62.2084 94.0963C61.0954 95.6735 61.4071 99.515 63.1497 99.7885C63.2833 99.7694 63.4105 99.7249 63.5313 99.6613C63.5949 99.8902 63.6649 100.119 63.7603 100.342C64.3835 101.735 64.8987 103.204 65.9099 104.38C66.4124 105.023 66.9212 105.671 67.5254 106.218C68.155 106.708 68.8737 107.064 69.3952 107.694C69.8404 108.196 70.3683 108.597 71.0552 108.68C71.653 108.877 72.2063 109.195 72.8105 109.36C73.1667 109.411 73.472 109.182 73.8091 109.119C74.903 109.023 75.9842 108.75 76.9318 108.19C75.8697 108.438 74.7949 108.368 73.7391 108.222Z" fill="#C2C2C2"/>
<path d="M75.6722 83.9266C75.4687 83.2588 74.9281 82.7437 74.8009 82.2667C74.6037 81.5543 74.3175 80.8929 73.8596 80.3078C73.8024 80.2124 73.3063 79.4492 73.0964 79.3474C72.7085 78.9277 72.1742 78.8005 71.6654 78.616C71.2075 78.4507 70.6478 78.2917 70.2026 78.5524C69.3885 79.2202 69.5094 80.6512 70.2408 81.3381C70.3743 81.5035 70.5143 81.6688 70.6478 81.8278C70.9785 82.8581 71.6845 83.8121 72.3587 84.6453C72.5367 85.2749 72.6067 85.8601 72.7848 86.5024C72.9056 87.2593 72.7657 87.8317 73.0583 89.1418C73.4653 90.8781 74.4129 91.1071 75.0871 89.3326C75.8757 87.7426 76.2701 85.9173 75.6722 83.9266Z" fill="#C2C2C2"/>
<path d="M83.8518 98.0076C84.2271 96.3667 84.1507 94.6431 83.9218 92.9895C83.3685 90.4519 83.3748 89.7141 82.7579 86.9857C82.5607 85.9681 82.4145 84.925 81.9375 83.9901C81.912 83.9329 81.8929 83.882 81.8675 83.8248C81.4605 82.6672 81.2824 81.4334 80.7354 80.3267C80.0422 78.8067 79.1327 77.4838 78.255 76.3518C77.4091 74.5519 76.6587 72.6693 75.5584 71.003C75.0877 70.5959 74.7379 70.3034 74.4263 69.7183C73.9875 68.9741 73.3705 68.3509 72.9635 67.594C72.6264 66.8944 72.1494 66.2839 71.7169 65.6479C71.4435 65.0373 71.3671 64.3186 71.577 63.6763C71.1891 64.4458 71.259 65.3871 71.5007 66.1948C71.7678 66.8181 72.0985 67.4159 72.2067 67.8039C72.5437 68.9869 73.1543 70.049 73.6567 71.1683C73.9557 71.8807 74.2864 72.5739 74.8397 73.1272C75.1577 73.7696 75.3612 74.6536 75.6919 75.4105C76.188 76.4853 76.3279 77.5156 77.0466 79.201C78.4903 81.4461 79.279 83.0298 79.8641 85.8027C80.9707 88.6011 80.8626 89.8668 81.7339 92.9768C82.2873 95.4063 82.4208 95.0819 82.2364 97.7404C82.2364 97.6959 82.2427 97.6578 82.2427 97.6005C82.2427 97.6959 82.23 97.785 82.2237 97.8676C82.2237 97.8994 82.2173 97.9249 82.2173 97.9503C82.2173 97.9567 82.2173 97.9503 82.2173 97.9567C82.1283 98.7326 81.8166 99.1205 81.4923 100.049C81.4795 100.087 81.4287 100.227 81.4541 100.138C81.4795 100.081 81.4668 100.075 81.4223 100.132C81.2887 100.278 81.117 100.386 80.9835 100.532C80.5573 101.048 80.1312 102.04 79.8895 102.415C79.6924 102.599 79.2345 103.471 79.0182 103.903C78.6493 104.24 78.3695 104.647 78.2169 105.131C77.848 105.837 77.2756 106.428 77.1611 107.249C77.142 107.325 77.1102 107.497 77.0975 107.541C77.2565 107.204 77.3837 106.842 77.6572 106.574C78.2805 106.053 78.3886 105.875 78.8783 105.309C79.3171 105.112 79.597 104.73 79.9023 104.368C80.4683 103.859 80.9199 103.248 81.4159 102.676C81.7721 102.453 82.1855 102.275 82.3827 101.874C82.6053 101.512 82.7261 101.219 82.9423 100.959C83.5402 100.138 83.661 99.076 83.8391 98.103C83.8709 97.9376 83.8518 98.0139 83.8327 98.1157C83.8391 98.0839 83.8455 98.0457 83.8518 98.0076Z" fill="#C2C2C2"/>
<path d="M79.1951 92.2963C79.2206 92.1436 79.246 91.9973 79.246 91.8383C79.157 90.0385 78.203 90.3883 77.8532 91.8765C77.5797 93.0976 77.8659 94.217 77.7705 95.4254C77.2999 96.9963 76.543 98.4782 76.3204 100.113C76.3077 100.272 76.2759 100.399 76.3522 100.157C76.5367 99.6039 76.8101 99.0951 77.1154 98.6054C77.1027 98.828 77.09 99.0506 77.0582 99.2668C76.7783 100.348 75.7544 101.029 75.0039 101.792C75.7544 101.436 76.5557 101.086 77.1409 100.475C77.5861 99.9473 77.6878 99.2414 77.7959 98.5799C77.8214 97.9567 78.2284 97.4797 78.4765 96.9391C78.6927 96.3985 78.7627 95.8197 78.8135 95.2409C79.1379 94.1915 79.316 93.0658 79.1951 92.2963Z" fill="#C2C2C2"/>
<path d="M76.7089 106.244C76.3782 105.697 75.9775 105.423 75.5769 105.341C75.1953 104.921 74.7628 104.711 74.3112 104.889C73.9487 104.698 73.6243 104.431 73.3 104.164C73.3191 104.119 73.3318 104.075 73.3445 104.037C73.6053 103.229 73.4272 102.351 73.0138 101.626C72.9883 101.575 72.9629 101.531 72.9438 101.48C72.7721 99.3113 71.8054 98.3191 70.9659 96.6846C70.3362 95.5907 69.9165 94.9292 69.5221 94.3377C69.3123 93.8162 69.1215 93.2947 68.9307 92.7668C68.8416 92.4997 68.7526 92.2517 68.6699 92.01C67.9067 89.7458 67.2643 87.3672 66.5075 84.7278C66.3358 84.0663 66.0687 83.6975 65.7825 83.5576C65.7316 82.9851 65.6934 82.4127 65.6553 81.8403C65.9097 81.1153 66.1895 80.3203 66.463 79.5317C66.5202 79.4808 66.5775 79.4299 66.6283 79.3599C67.0417 78.7875 67.3343 78.1452 67.5633 77.471C67.6396 77.312 67.7159 77.153 67.7922 76.994C68.0975 76.6633 68.5173 75.5249 68.5936 75.3023C68.5872 75.315 68.5872 75.3213 68.5809 75.3341C68.6063 75.2768 68.6317 75.2196 68.6572 75.1623C68.7971 74.8761 68.9434 74.5963 69.0833 74.3101C69.2487 73.9794 69.3886 73.6423 69.5285 73.2989C69.9483 72.4848 70.3998 71.6771 70.8259 70.8693C71.1185 70.1952 72.0661 69.3493 72.3651 67.4031C72.7467 65.4951 71.5255 61.8127 69.4522 64.5602C69.3949 64.6365 69.3313 64.7256 69.2677 64.8273C69.0579 64.8273 68.8353 64.91 68.6063 65.1135C68.2247 65.4379 67.9894 65.8767 67.824 66.3474C67.3343 67.0597 67.576 66.6972 65.9987 69.114C64.7076 71.0665 63.7918 73.2225 63.0922 75.4485C62.4371 75.792 61.8202 76.8795 61.5467 78.8893C61.3813 79.5889 61.2414 80.3012 61.1142 80.9945C61.0125 81.287 60.9043 81.5732 60.8026 81.8658C60.2683 83.9837 59.5433 86.1397 59.8677 88.353C59.9313 88.6964 60.0012 89.0462 60.0903 89.3897C59.8231 91.145 59.6896 92.964 60.4719 94.3377C60.5673 95.1773 60.6881 96.0168 60.8598 96.8436C61.1397 98.0011 61.5721 99.1268 62.1 100.189C62.2781 100.494 62.5452 100.895 62.8378 101.048C63.1812 101.207 63.5056 101.162 63.7791 101.009C63.8236 101.175 63.8681 101.34 63.9444 101.499C64.1034 101.817 64.3069 102.097 64.5232 102.37C64.4596 103.21 64.6313 104.1 64.9048 104.813C65.4899 106.002 66.6283 106.733 67.5951 107.586C68.7526 108.425 69.8719 109.392 71.2203 109.913C71.8944 110.187 72.4032 110.015 72.753 109.602C72.9502 109.729 73.1537 109.85 73.3381 109.99C73.3445 109.996 73.3381 109.99 73.3445 109.996C73.4971 110.13 73.6879 110.212 73.8533 110.333C74.0759 110.505 74.2858 110.708 74.5783 110.74C74.8645 110.702 75.1062 110.575 75.3034 110.397C75.456 110.409 75.615 110.365 75.7613 110.219C75.8249 110.149 75.8694 110.06 75.9267 109.983C76.0093 109.99 76.092 109.983 76.1747 109.932C76.3273 109.831 76.4418 109.697 76.5181 109.532C76.7026 109.246 76.7662 108.8 76.728 108.292C77.0206 107.764 77.0333 107.045 76.7089 106.244ZM65.2864 82.9152C65.3309 82.7943 65.3754 82.6608 65.4199 82.5272C65.4136 82.8516 65.4136 83.1823 65.4199 83.5067C65.3182 83.5257 65.2228 83.5639 65.1274 83.6275C65.1592 83.4749 65.191 83.3286 65.2164 83.2014C65.2355 83.106 65.2609 83.0106 65.2864 82.9152Z" fill="#1F1F1F"/>
<path d="M75.6269 101.83C75.2835 101.34 74.7938 101.016 74.2595 100.768C74.1133 100.628 73.9479 100.494 73.7635 100.393C73.6871 100.348 73.6045 100.329 73.5281 100.316C73.3882 100.138 73.2483 99.9475 73.1338 99.744C73.172 99.8012 73.2419 99.922 73.2419 99.9093C72.8413 99.3814 72.5932 98.7327 72.1671 98.2366C72.059 98.0331 71.9509 97.8296 71.8427 97.6324C71.8745 97.4925 71.9 97.359 71.9191 97.2381C72.1162 95.8008 71.741 94.3189 70.8315 93.1804C70.7615 93.0978 70.6916 93.0087 70.6216 92.926C70.6025 92.8752 70.5835 92.8243 70.5707 92.7925C69.8775 90.7764 68.6055 87.6472 68.3066 86.8077C68.3002 86.7823 68.2939 86.7568 68.2875 86.725C68.7709 85.4785 69.1143 84.1683 69.0698 82.82C69.0571 82.5402 69.038 82.254 69.0062 81.9678C69.0825 81.7197 69.1652 81.478 69.2479 81.2364C69.7757 80.0852 70.3163 78.8832 70.1383 77.5921C70.1001 76.6508 69.6549 74.7492 68.4338 74.9972C68.1985 75.029 68.0077 75.1498 67.8677 75.3597C67.7533 75.5124 67.6579 75.6841 67.5625 75.8494C67.5625 75.8431 67.5625 75.8431 67.5561 75.8367C67.4734 75.9576 67.4162 76.0911 67.3589 76.2247C67.3144 76.3328 67.2699 76.4473 67.2254 76.5554C67.2127 76.5808 67.2063 76.6063 67.1936 76.6381C66.9201 77.3122 66.6721 77.9928 66.4431 78.686C66.3986 78.7941 66.3477 78.9022 66.2968 79.0104C65.5527 79.1503 64.9358 80.346 64.7577 81.0646C64.5033 81.9678 64.4143 82.8963 64.4397 83.8312C64.2743 84.5817 64.1153 85.3386 63.95 86.089C63.791 86.6487 63.6638 87.2211 63.5111 87.7744C63.1613 88.9002 63.0341 90.1722 63.4984 91.2788C63.5938 91.6159 63.8419 92.0166 64.1662 92.2201C64.1726 93.2504 64.2362 94.2807 64.4079 95.292C64.516 96.6212 64.8785 97.925 65.5145 99.0698C65.9661 99.604 67.2826 102.345 68.6437 102.892C69.0189 103.541 69.5277 104.183 70.0556 104.686C70.0683 104.73 70.081 104.775 70.0937 104.819C70.628 105.989 72.0335 106.218 73.1656 106.581C73.5091 106.848 73.8461 107.109 74.1769 107.37C74.5839 107.719 74.8828 107.586 75.0736 107.242C75.0863 107.242 75.0991 107.249 75.1118 107.255C76.8608 106.874 76.6064 102.93 75.6269 101.83Z" fill="#3D3D3D"/>
<path d="M72.1363 98.0585C72.0409 97.9059 71.9201 97.7787 71.7865 97.6706C71.8565 96.6148 71.6021 95.5782 70.9534 95.1266C70.4637 94.904 69.9167 95.0694 69.427 95.2347C68.9055 95.4446 68.3521 95.7117 68.0596 96.2141C67.3155 97.5052 66.6604 99.604 68.0723 100.666C68.6511 100.978 69.3252 101.086 69.9803 101.022C70.2156 101.137 70.4827 101.162 70.7817 101.048C70.8961 100.946 71.0043 100.825 71.0997 100.704C71.4367 100.533 71.7484 100.304 71.9964 100.005C72.3653 99.445 72.4353 98.6564 72.1363 98.0585Z" fill="#C2C2C2"/>
<path d="M127.182 14.418C126.921 14.2653 126.642 14.3671 126.425 14.5388C126.171 14.7233 125.936 14.9268 125.707 15.143C125.376 15.4038 125.052 15.6773 124.765 15.9889C124.594 16.167 124.466 16.3005 124.358 16.415C124.021 16.7012 123.684 16.9874 123.353 17.28C123.226 17.3754 123.093 17.4771 122.915 17.6043C121.369 18.8954 121.668 18.7491 120.326 19.8367C118.386 21.5984 115.41 24.9056 113.33 27.3733C111.772 29.0015 110.761 30.2735 108.993 31.7172C108.337 32.3723 107.899 33.1991 107.307 33.905C106.391 35.0816 105.38 36.1883 104.521 37.4094C105.444 36.5444 106.391 35.7431 107.326 34.9099C107.301 34.9481 107.269 34.9799 107.25 35.0117C106.932 35.5077 106.442 35.8512 106.048 36.2837C105.73 36.6271 105.475 37.0341 105.151 37.3712C105.081 37.4157 104.954 37.5811 105.075 37.4666C105.501 37.1995 105.832 36.7988 106.239 36.4999C107.473 35.8194 108.318 34.6364 109.463 33.8351C110.252 33.2945 110.831 32.5122 111.568 31.9207C112.007 31.6409 112.497 31.4373 112.885 31.0748C114.081 30.0827 114.723 28.6835 116.173 27.9775C117.591 27.1189 118.628 25.8151 119.792 24.6576C120.491 24.0852 121.267 23.6463 121.98 23.093C122.374 22.8513 123.055 22.1327 123.436 21.7129C124.365 21.0833 125.23 20.4027 125.967 19.5569C125.986 19.5378 125.999 19.5251 126.018 19.506C126.133 19.4042 126.241 19.3088 126.343 19.2198C127.03 18.7237 127.786 18.2276 127.875 17.3181C128.066 16.3705 128.034 15.0667 127.182 14.418Z" fill="#DBDBDB"/>
<path d="M120.478 17.5917C119.963 17.9478 119.518 18.393 118.977 18.7237C117.362 19.9385 115.715 21.1278 114.239 22.5143C113.66 23.0358 111.994 24.1997 111.186 25.1155C110.493 25.7961 109.883 26.5656 109.189 27.2461C108.515 27.7867 107.809 28.2828 107.275 28.9697C106.544 29.8283 105.749 30.636 105.004 31.4883C104.305 32.4804 103.453 33.3263 102.467 34.0386C103.472 33.657 104.572 32.8875 105.202 32.2133C106.346 31.3611 107.377 30.3562 108.509 29.4912C110.36 28.4736 111.568 26.6547 113.183 25.3381C113.928 24.8039 115.371 23.2012 116.274 22.209C117.871 20.6826 119.359 19.0417 120.834 17.4072C121.267 17.0129 120.682 17.4645 120.478 17.5917Z" fill="#DBDBDB"/>
<path d="M130.444 16.2498C130.432 16.2371 130.412 16.2307 130.393 16.218C130.349 15.9509 130.26 15.6965 130.107 15.4866C130.031 15.2322 129.891 14.9969 129.656 14.8506C129.554 14.8124 129.439 14.7806 129.319 14.7488C128.498 13.9029 126.953 12.3765 126.266 14.4117C126.088 15.1241 126.062 16.3706 126.934 16.6059C127.099 16.6187 127.207 16.5996 127.264 16.625C127.328 16.6441 127.398 16.6632 127.468 16.6823C127.843 17.5536 128.288 18.4949 129.229 18.7811C129.706 18.9273 130.342 18.8319 130.578 18.3422C130.883 17.7126 130.877 16.8349 130.444 16.2498Z" fill="#262626"/>
<path d="M84.3353 96.0869C84.437 93.1359 83.7947 90.1785 82.6817 87.4437C82.599 87.2211 82.5099 87.0049 82.4209 86.7823C82.122 85.8537 81.7849 84.9379 81.4224 84.0411C80.6719 82.3811 79.5144 79.411 77.8481 77.821C77.8354 77.5412 77.8163 77.2995 77.8036 77.1787C77.7018 75.1625 76.5761 73.4835 75.6348 71.779C75.4504 71.3275 75.3359 71.0158 75.2532 70.7614C75.2023 69.9664 75.0433 68.5927 75.0497 68.9425C75.0052 68.351 74.9034 67.7595 74.6617 67.2125C74.5536 66.7228 74.4391 66.2331 74.2928 65.7561C73.6632 63.7145 72.7092 63.0149 71.8252 63.2057C71.539 62.9068 71.1892 62.6969 70.7312 62.6143C69.4783 62.875 68.7978 64.1661 68.4671 65.7116C68.1809 66.0677 67.9201 66.5066 67.6848 66.9899C67.246 67.3843 66.9788 67.9312 66.7626 68.4782C66.0694 70.0491 65.8022 71.7472 65.4588 73.4199C65.3825 73.8587 65.2744 74.3485 65.1535 74.8827C64.8228 75.6332 64.5302 76.3964 64.2758 77.1787C63.8752 77.8465 63.5317 78.7496 63.2455 79.7099C62.9339 79.8244 62.6413 80.0852 62.406 80.524C61.5029 81.8723 61.5538 83.6213 61.3184 85.1732C61.0386 87.2529 60.8669 89.4217 61.0768 91.5268C60.7588 92.8688 60.4662 94.2362 60.2754 96.5067C60.3199 97.9631 60.5234 99.515 61.452 100.692C62.158 101.474 62.883 101.493 63.4681 101.124C63.6653 102.74 63.7734 104.438 64.7592 105.78C65.1281 106.161 65.4779 106.333 65.8022 106.352C65.8976 106.581 66.0121 106.804 66.1711 107.007C67.1251 108.438 68.0791 108.025 68.7342 107.083C68.7914 107.16 68.8423 107.242 68.8996 107.319C68.9314 107.37 68.9632 107.42 68.995 107.471C69.4783 108.514 70.1779 109.424 71.1001 110.06C71.7107 110.67 72.4039 111.179 73.2434 111.325C73.4088 111.256 73.5742 111.211 73.765 111.217C73.7777 111.211 73.7968 111.211 73.8095 111.205C73.8794 111.179 73.8922 111.179 73.8604 111.192C73.9176 111.167 73.9685 111.147 74.0257 111.122C74.242 111.052 74.5472 111.077 74.7762 111.097C74.8271 111.103 74.878 111.109 74.9352 111.122C75.7938 111.039 76.4552 110.62 76.9513 109.984C77.0149 109.977 77.0722 109.977 77.1358 109.971C78.6685 109.729 79.807 108.502 80.5702 107.217C80.7037 106.963 80.8118 106.702 80.9263 106.441C81.0472 106.339 81.168 106.237 81.2952 106.129C80.6274 106.702 81.9821 105.652 82.2365 105.194C83.941 102.714 84.6533 99.3242 84.3353 96.0869Z" fill="#858585"/>
<path d="M76.0339 107.878C75.3088 108.037 74.5584 108.139 73.8079 108.139C73.8079 107.923 73.7761 107.7 73.6998 107.497C73.6552 107.35 73.7506 107.815 73.7252 107.955C73.7252 108.024 73.7125 108.082 73.7061 108.139C73.6298 108.139 73.5598 108.133 73.4835 108.133C73.3245 107.904 73.1655 107.681 72.9302 107.522C72.8666 107.458 72.7966 107.427 72.7203 107.408C72.6822 106.899 72.5422 106.403 72.2688 105.977C71.7918 105.315 71.0604 104.889 70.3989 104.406C70.1509 104.164 69.9092 103.916 69.6612 103.674C69.7438 103.045 69.7438 102.402 69.6993 101.811C69.712 101.079 69.5403 100.297 69.2541 99.642C68.6436 97.1616 68.7517 98.2301 68.1856 96.5193C67.9312 95.9787 67.6132 95.4635 67.2698 94.9738C67.0472 93.8035 66.7101 92.646 66.1695 91.5839C66.2077 91.3931 66.2458 91.2023 66.2522 91.0878C66.3476 88.1686 66.2967 89.0526 66.5193 86.286C66.4875 84.7787 66.7038 84.7787 66.8691 82.6417C66.8882 82.3492 66.9009 82.0503 66.92 81.7577C66.9518 81.6496 66.9836 81.5415 67.0154 81.4333C67.2698 80.4857 67.5433 79.4554 67.6641 78.4251C68.0203 77.5537 68.351 76.9559 68.5418 76.0655C69.2923 74.6536 69.9474 73.1971 70.4689 71.6898C70.3608 71.976 70.2463 72.2622 70.1382 72.5484C70.3099 72.1159 70.4625 71.6835 70.6215 71.2446C70.6978 71.0602 70.7742 70.8694 70.8568 70.6913C71.1112 70.3797 71.3847 70.0935 71.5437 69.7182C71.6836 69.4575 71.7981 69.1204 71.8935 68.7579C72.3006 67.9883 72.5931 67.1551 72.6822 66.2838C72.8094 64.573 72.7903 62.4678 71.442 61.234C70.9141 60.6425 69.9283 60.8524 69.5022 61.482C69.464 61.5393 69.4322 61.5965 69.394 61.6474C69.2478 61.8573 69.1078 62.0735 68.9743 62.2897C68.58 62.8749 68.2938 63.6126 68.1538 64.2105C67.944 64.5412 67.7404 64.8783 67.5242 65.2026C67.3906 65.4252 67.2762 65.6478 67.1553 65.8768C66.2586 67.2315 65.5462 68.7515 65.1583 70.3351C65.1646 70.3161 65.1646 70.297 65.171 70.2843C65.1646 70.3097 65.1583 70.3415 65.1519 70.3669C65.1328 70.456 65.1138 70.545 65.0883 70.6277C65.0692 70.6977 65.0565 70.7676 65.0374 70.8312C64.7449 71.3909 64.4778 71.9569 64.2742 72.5611C64.2806 72.5357 64.2933 72.5166 64.2997 72.4912C64.287 72.523 64.2742 72.5548 64.2615 72.5866C64.2488 72.6184 64.2361 72.6438 64.2234 72.6756C63.9117 73.5215 63.9944 73.2544 64.1916 72.7583C64.1407 72.8855 64.0898 73.0127 64.0389 73.1399C62.7669 76.0909 62.8051 75.3913 62.239 78.724C61.6603 80.6256 61.1451 82.5527 61.196 84.5561C61.1642 84.7914 61.1388 85.0267 61.107 85.2621C61.0688 85.5355 61.0561 85.65 61.0561 85.6691C60.9289 86.3623 60.8398 87.0556 60.8208 87.7679C60.7762 88.6329 60.8589 89.4851 60.9861 90.331C60.9352 91.4249 60.9734 92.5315 61.0306 93.6191C61.0497 94.5413 61.1515 95.4444 61.3105 96.3348C61.3614 97.1553 61.514 97.9375 61.7557 98.688C61.9783 99.712 62.4553 100.647 62.9832 101.55C63.2757 102.186 63.581 102.816 63.9181 103.433C64.5223 104.565 64.9866 105.83 65.8642 106.784C66.2268 107.147 66.6656 107.465 67.149 107.643C67.1553 107.643 67.1617 107.649 67.168 107.649C67.3207 107.732 67.4988 107.802 67.6705 107.783C67.7595 107.764 67.8422 107.732 67.9249 107.7C68.58 108.253 69.3177 108.692 69.9855 109.227C70.6088 109.583 70.9713 110.492 71.7282 109.85C72.0843 109.697 72.3642 109.373 72.4723 108.998C72.4977 108.928 72.5168 108.851 72.5422 108.775C72.5804 108.788 72.6122 108.8 72.6504 108.807C73.846 108.839 74.9845 108.349 76.0339 107.878Z" fill="#4A4A4A"/>
<path d="M64.2995 72.5803C64.274 72.6503 64.2422 72.7202 64.2168 72.7838C64.2422 72.7266 64.2613 72.6694 64.2868 72.6121C64.2868 72.5994 64.2931 72.5867 64.2995 72.5803Z" fill="#4A4A4A"/>
<path d="M66.8887 82.6418C66.9078 82.4065 66.9268 82.1457 66.9396 81.8532C66.9586 81.567 66.9396 81.8277 66.8887 82.6418Z" fill="#4A4A4A"/>
<path d="M81.6759 93.8228C81.555 93.0596 81.5105 92.2582 81.0335 91.6222C80.5438 90.4075 79.6216 90.6555 79.3163 91.8194C79.1764 92.3409 79.1319 92.8815 79.2082 93.4094C79.2209 93.473 79.2336 93.5366 79.2463 93.5938C79.24 93.5747 79.24 93.562 79.2336 93.5429C79.2463 93.6256 79.2527 93.7147 79.2591 93.7973C79.2591 94.1281 79.2209 94.5605 79.1637 94.9676C78.9601 95.222 78.7503 95.4764 78.4959 95.6735C77.6691 96.1251 77.262 96.6275 76.7087 97.3526C76.1045 97.9313 75.8247 98.7327 75.6339 99.5213C75.5639 99.7694 75.5575 99.7376 75.6466 99.5086C75.4113 100.03 75.3286 100.609 75.354 101.175C75.4303 102.262 75.4049 103.496 76.2508 104.298C77.4655 105.754 78.1779 105.156 79.0301 103.783C79.1446 103.655 79.6279 102.771 79.7361 102.574C80.4738 101.779 81.1671 100.914 81.2752 99.8012C81.3006 99.7121 81.3515 99.515 81.4024 99.3751C81.4024 99.3687 81.4087 99.356 81.4087 99.3496C81.4533 99.2415 81.5105 99.0825 81.5359 98.9807C81.7267 98.2557 81.7013 97.4989 81.8476 96.7611C81.8476 96.8501 82.0384 95.7053 81.9939 95.4319C82.0956 95.0948 81.6695 93.6511 81.6759 93.8228Z" fill="#BFBFBF"/>
<path d="M79.5381 83.7739C78.9911 81.904 78.5523 80.6447 77.7763 78.9148C77.5347 77.9608 77.0767 77.1213 76.5934 76.2691C76.2436 75.0861 75.4549 74.113 75.0797 72.9428C74.8444 72.2114 74.2402 71.7026 73.8967 71.0348C73.5024 69.9345 72.9682 68.8978 72.5039 67.8293C72.8601 69.3685 73.1653 70.5451 73.4961 71.957C73.7059 72.5866 74.1511 73.1145 74.3356 73.7569C74.5963 74.7808 74.9843 75.7475 75.474 76.6761C75.703 77.4711 76.0401 78.2089 76.5361 78.8767C77.5855 81.5987 79.3663 83.7103 79.8815 86.5341C79.8942 86.6486 79.8879 86.6168 79.9197 86.7122C79.9133 85.7264 79.8179 84.7215 79.5381 83.7739Z" fill="#BFBFBF"/>
<path d="M76.2893 87.0494C76.2384 86.229 76.1684 85.4085 75.9013 84.6262C75.6469 83.8758 75.7932 83.1889 75.0363 82.3175C74.553 82.0504 74.2286 81.1982 73.599 81.4399C73.4972 81.4844 73.4082 81.548 73.3128 81.6052C73.3064 81.5925 73.3064 81.5734 73.3001 81.5607C73.3001 81.5798 73.3001 81.5925 73.3064 81.6116C72.5559 82.114 72.0662 83.0362 71.9072 83.9075C71.7228 84.8552 71.9517 85.7392 72.3015 86.5915C72.2697 86.9349 72.2761 87.2784 72.3397 87.6409C72.6577 88.9256 73.599 89.9814 74.871 90.3566C75.6215 90.4838 76.0158 89.5234 76.2511 88.951C76.4737 88.3341 76.3401 87.679 76.2893 87.0494Z" fill="#BFBFBF"/>
<path d="M81.3143 107.56C81.1808 107.306 80.5257 107.592 80.3158 107.808C80.2331 107.859 80.1441 107.904 80.0614 107.948C80.2268 107.77 80.3985 107.541 80.5893 107.389C80.602 107.376 80.6147 107.369 80.6274 107.357C80.8246 107.21 81.0472 107.16 81.2952 107.35C81.1935 107.21 81.0536 107.153 80.9136 107.134C80.9391 107.115 80.9709 107.09 80.9963 107.071C80.9518 107.09 80.9073 107.109 80.8628 107.128C80.7992 107.128 80.7356 107.147 80.672 107.16C80.85 107.013 81.0281 106.867 81.1998 106.714C80.1441 107.293 79.0311 107.802 78.0834 108.559C77.9372 108.661 77.7782 108.8 77.6128 108.947C76.7669 109.227 75.9465 109.564 75.1388 109.933C74.3374 109.964 73.5424 110.053 72.7538 110.161C72.6456 110.187 72.5248 110.2 72.4167 110.225C72.404 110.2 72.3912 110.168 72.3785 110.142C72.3276 110.098 72.2704 110.072 72.2068 110.053H72.2004C71.9969 109.99 71.7489 110.022 71.5454 109.971C70.7631 109.901 69.9744 109.92 69.1858 109.945C68.995 109.92 68.8678 109.933 68.7915 109.977C68.7788 109.977 68.766 109.971 68.7597 109.971C68.677 109.952 68.607 109.983 68.5498 110.034C68.4862 110.041 68.4226 110.041 68.359 110.053C68.1428 110.27 68.1618 110.658 68.27 110.931C68.3208 111.001 68.3908 111.046 68.4608 111.084V111.09C68.4735 111.09 68.4798 111.096 68.4926 111.096C68.5816 111.135 68.677 111.154 68.7851 111.16C68.995 111.205 69.2112 111.255 69.4211 111.294C69.7646 111.344 70.108 111.376 70.4578 111.395C70.4896 111.408 70.5214 111.414 70.5532 111.427C70.5341 111.796 70.6232 112.171 70.7885 112.464C70.8648 112.642 71.0493 112.705 71.2274 112.75C71.2719 112.763 71.3228 112.769 71.3673 112.782C71.3673 112.807 71.3673 112.839 71.3673 112.871C71.4182 113.621 71.6471 114.785 72.5312 114.912C73.924 114.868 75.3105 114.626 76.697 114.448C77.1867 114.385 77.6764 114.289 78.1661 114.219C78.2806 114.213 78.4014 114.213 78.5159 114.2C80.1504 114.149 80.0868 111.281 79.3236 110.314C79.1328 110.041 78.8021 110.022 78.4968 110.009C78.287 110.002 78.0707 110.009 77.8608 110.009C78.9993 109.436 80.1123 108.807 81.2126 108.164C80.9264 108.247 80.6465 108.336 80.3603 108.432C80.3921 108.4 80.4366 108.374 80.4684 108.343C80.5066 108.304 80.5448 108.273 80.5829 108.234C80.7928 108.145 80.99 108.044 81.1871 107.935C81.1998 107.935 81.2126 107.929 81.2253 107.929C81.2253 107.923 81.2253 107.923 81.2253 107.916C81.2507 107.904 81.2698 107.891 81.2952 107.878C81.3143 107.821 81.3207 107.776 81.3207 107.732C81.5115 107.617 81.6959 107.503 81.8867 107.395C81.7023 107.439 81.5115 107.503 81.3143 107.56Z" fill="#DBDB00"/>
<path d="M72.613 58.4548C72.5812 58.4739 72.5558 58.4993 72.524 58.5184C72.5621 58.4484 72.6003 58.3848 72.6384 58.3149C72.6575 58.3022 72.6766 58.2894 72.702 58.2831C72.702 58.2513 72.6957 58.2449 72.6893 58.2195C72.7084 58.1813 72.7338 58.1432 72.7529 58.105C72.7466 58.0732 72.7211 58.035 72.683 58.0478C72.5621 58.0986 72.4794 58.2068 72.4031 58.3276C72.2314 58.5311 72.0215 58.83 71.9134 58.9064C71.8562 58.9763 71.7926 59.0399 71.7353 59.1099C71.3346 59.4342 70.9467 59.7777 70.5714 60.1402C70.5587 60.1084 70.5587 60.0766 70.5396 60.0512C70.4951 60.0575 70.457 60.0766 70.4188 60.0957C70.6414 59.6314 70.8576 59.1671 71.0675 58.7092C71.0866 58.6838 71.112 58.6647 71.1311 58.6392C71.1311 58.6202 71.1248 58.6011 71.1248 58.5884C71.1438 58.5438 71.1693 58.493 71.1884 58.4484C71.182 58.194 71.093 58.2068 70.9658 58.3467C70.8131 58.4039 70.5969 58.8682 70.4124 59.0463C69.5538 60.2865 68.8479 61.3613 68.1483 62.4171C67.7412 62.8814 67.3596 63.3647 66.9971 63.8672C65.8587 64.9865 64.6439 66.0359 63.709 67.3397C64.3068 66.8882 64.9492 66.5129 65.6043 66.1377C65.5916 66.1631 65.5788 66.1886 65.5661 66.214C65.0828 66.9327 64.6248 67.6577 64.186 68.4018C63.2256 69.8774 62.3734 71.4228 61.712 73.0574C61.5084 73.6107 61.8137 72.9556 61.9727 72.7521C62.0427 72.644 62.1254 72.5486 62.2017 72.4404C61.9854 73.0001 61.7819 73.5662 61.6102 74.1513C61.394 74.87 61.3176 75.6204 61.2413 76.3646C60.2746 78.209 58.9517 81.0137 58.9199 81.8532C59.4478 80.8547 60.0138 79.8689 60.5735 78.8895C60.5544 78.9976 60.5417 79.0994 60.5354 79.182C60.5354 79.4492 60.917 79.5446 61.0187 79.2774C61.165 79.0358 61.2858 78.7814 61.3876 78.527C61.2731 79.0485 61.1841 79.5509 61.1268 80.0343C62.348 76.867 64.0016 73.8206 65.6679 70.7868C66.4883 69.712 67.2388 68.5863 67.9257 67.4097C68.4599 66.4557 69.0132 65.489 69.5475 64.5222C70.2407 63.4601 70.8894 62.3789 71.4491 61.2659C72.047 60.5854 72.6702 59.924 73.2999 59.2625C73.478 59.1417 73.5797 59.0336 73.637 58.9254C73.6751 58.9064 73.7133 58.8873 73.7514 58.8682C73.8341 58.8173 73.8786 58.7219 73.9041 58.6329C74.0949 57.3291 73.1854 58.0414 72.613 58.4548Z" fill="#DBDB00"/>
<path d="M33.3408 59.8921C40.712 54.5433 48.2677 49.0165 53.7182 41.6007C55.2382 39.5274 56.5611 37.3204 57.6487 34.9863C57.5596 35.1771 56.3703 35.4379 56.1477 35.5142C55.7979 35.6414 55.4418 35.7686 55.092 35.9022C55.0156 35.934 54.6913 36.0039 54.6595 36.0739C50.7608 44.4373 43.8475 50.7718 36.648 56.305C34.5746 57.895 32.4631 59.4405 30.3516 60.9733C30.7204 60.7062 31.42 60.598 31.8525 60.4454C32.3041 60.28 32.9464 60.1783 33.3408 59.8921Z" fill="black"/>
<path d="M57.2406 35.2789C55.3389 32.0226 53.1893 28.4546 49.7612 26.6102C48.0249 25.6753 46.0406 25.3255 44.0881 25.6308C43.185 25.7707 42.3264 26.0633 41.4678 26.3686C40.3357 26.7756 39.1782 27.1572 38.0906 27.6724C34.4082 29.4277 31.6225 32.7286 29.7081 36.2647C27.7874 39.8136 26.6935 43.8013 26.4582 47.8336C26.1974 52.3555 27.0433 56.9156 29.0022 61.0051C29.0594 61.1196 31.9596 59.8476 31.9914 59.9176C28.7351 53.1124 28.5888 45.0224 31.3681 38.0264C32.7482 34.5475 34.8597 31.2403 37.7154 28.7981C38.4213 28.1939 39.1782 27.6469 39.9732 27.1699C40.4565 26.8837 40.959 26.6357 41.4741 26.4004C42.7652 25.8152 38.3895 27.3671 40.1513 26.9092C40.4247 26.8392 40.6982 26.782 40.9781 26.7311C42.8161 26.4194 44.6987 26.6738 46.3713 27.4879C50.0156 29.2496 52.2798 32.983 54.245 36.3538C54.3595 36.5509 57.1579 35.139 57.2406 35.2789Z" fill="black"/>
<path d="M67.0097 29.7775C63.7407 24.8867 59.1933 20.6509 53.5329 18.762C50.5628 17.7698 47.351 17.4328 44.2536 17.9416C42.759 18.1832 41.3535 18.673 39.9352 19.1881C38.4406 19.7287 36.9651 20.2757 35.585 21.0643C32.9328 22.5716 30.6623 24.6641 28.5444 26.8328C26.4266 29.008 24.4486 31.3294 22.725 33.8288C19.4242 38.6243 17.0265 44.2084 16.8802 50.0914C16.7339 56.0761 18.8264 62.239 23.4819 66.1758C23.5964 66.2712 24.8175 65.7052 24.9828 65.6479C25.1418 65.5907 26.363 64.9992 26.4711 65.0882C22.5533 61.7747 20.4291 56.8648 19.9648 51.8213C19.456 46.358 20.957 40.9775 23.5709 36.2011C26.2994 31.2149 30.1662 26.6866 34.4465 22.9596C35.5595 21.9929 36.7361 21.0898 37.9954 20.3138C38.5614 19.964 39.1466 19.6397 39.7508 19.3535C39.9734 19.2454 40.2023 19.15 40.4313 19.0482C41.4362 18.5903 38.9303 19.557 39.0766 19.5379C39.5854 19.468 40.0942 19.2517 40.5966 19.15C43.4904 18.5585 46.5178 18.7302 49.3607 19.4934C55.5426 21.1597 60.5225 25.6308 64.0142 30.8651C64.1732 31.094 66.8825 29.5931 67.0097 29.7775Z" fill="black"/>
<path d="M23.7754 66.3413C25.6071 70.4626 25.9887 74.9846 25.9124 79.4493C25.8297 84.232 25.4035 89.0084 25.2318 93.7848C24.8757 103.77 24.9965 113.768 25.5816 123.734C25.836 128.021 26.1413 132.574 28.8062 136.136C31.0004 139.081 34.3393 140.963 37.8119 141.994C42.1621 143.285 46.7604 143.17 51.2379 142.808C56.1987 142.407 61.1086 141.936 66.0948 141.936C77.3711 141.93 88.6474 142.267 99.9237 142.451C100.363 142.458 101.011 142.07 101.425 141.924C101.774 141.796 102.131 141.669 102.48 141.536C102.595 141.491 102.798 141.364 102.913 141.364C92.775 141.199 82.6308 141.008 72.493 140.874C67.6212 140.811 62.794 140.938 57.9413 141.389C53.184 141.835 48.3186 142.369 43.5677 141.555C39.9043 140.925 36.2474 139.469 33.4871 136.918C30.3898 134.056 29.2323 130.145 28.8252 126.055C28.3355 121.165 28.221 116.21 28.1129 111.3C27.9984 106.257 27.9984 101.207 28.1256 96.1634C28.2592 90.7892 28.6599 85.4277 28.8634 80.0535C29.0542 75.0355 28.8379 69.9029 26.7709 65.2474C26.7264 65.1647 23.7945 66.3859 23.7754 66.3413Z" fill="black"/>
<path d="M65.4902 30.6872C72.9632 30.2929 80.4617 30.4391 87.9092 31.1387C88.3226 31.1769 88.736 31.2214 89.1494 31.2596C89.3593 31.2787 89.5628 31.3041 89.7664 31.3232C90.0526 31.355 90.2942 31.285 90.3578 31.514C90.4278 31.7493 90.2052 32.4044 90.1734 32.6524C90.1225 33.0785 90.0907 33.5047 90.078 33.9308C90.0271 35.4254 90.1988 36.9263 90.5741 38.3701C91.3436 41.3211 92.9845 43.9987 95.2932 45.9893C97.8308 48.1708 101.043 49.4746 104.375 49.6972C104.789 49.7227 105.488 49.3093 105.876 49.1693C106.226 49.0421 106.582 48.9149 106.932 48.7814C107.04 48.7432 107.256 48.6033 107.364 48.6097C101.284 48.2026 95.872 44.1704 93.894 38.3891C93.3979 36.9327 93.1117 35.4063 93.0608 33.8672C93.0354 33.1867 93.0608 32.4998 93.1308 31.8193C93.1689 31.4377 93.2262 31.0561 93.2962 30.6808C93.3788 30.242 93.4424 30.4391 93.0608 30.2674C92.851 30.172 92.5075 30.2102 92.2849 30.1847C88.5643 29.7968 84.831 29.5487 81.0913 29.4406C76.8874 29.3134 72.677 29.3707 68.4731 29.5933C68.0088 29.6187 67.411 29.9621 66.9721 30.1211C66.546 30.2865 65.9545 30.6617 65.4902 30.6872Z" fill="black"/>
<path d="M104.012 50.7465C106.073 63.0404 105.736 75.595 105.774 88.0097C105.812 100.692 105.927 113.373 105.889 126.055C105.869 131.976 105.221 138.864 99.9355 142.566C100.311 142.305 100.998 142.197 101.437 142.038C101.894 141.873 102.524 141.764 102.925 141.478C107.459 138.305 108.661 132.574 108.84 127.372C109.062 121.107 108.852 114.798 108.833 108.527C108.795 95.8961 108.897 83.2525 108.668 70.6215C108.541 63.6064 108.165 56.585 107.002 49.6589C107.027 49.8243 103.98 50.5303 104.012 50.7465Z" fill="black"/>
<path d="M107.516 48.6985C113.927 40.2779 120.624 32.0862 127.614 24.1426C129.585 21.8975 131.582 19.6779 133.598 17.4773C133.554 17.5282 133.166 17.6236 133.16 17.6236C132.803 17.7508 132.454 17.878 132.104 18.0052C131.754 18.1324 131.398 18.2596 131.048 18.3931C130.94 18.4377 130.692 18.4758 130.616 18.5649C123.473 26.3686 116.598 34.4203 110.028 42.7074C108.171 45.0479 106.339 47.4075 104.533 49.7861C104.565 49.7479 104.985 49.6335 104.972 49.6398C105.328 49.5126 105.678 49.3854 106.028 49.2582C106.378 49.131 106.734 49.0038 107.084 48.8703C107.185 48.8321 107.452 48.7812 107.516 48.6985Z" fill="black"/>
<path d="M94.6254 30.4898C94.6636 29.7457 95.1279 29.2623 95.7766 28.957C95.6303 29.0143 95.4904 29.0715 95.3441 29.1288C93.2835 29.7393 92.6538 29.981 93.4552 29.8665C93.5506 29.8538 93.6523 29.8411 93.7477 29.8411C93.9449 29.8411 94.1421 29.8602 94.3329 29.9047C94.7017 29.9937 95.0515 30.1782 95.3632 30.3944C96.0946 30.9032 96.6415 31.641 97.144 32.366C98.4923 34.2867 99.8088 36.2329 101.138 38.1663C102.264 39.8008 103.339 41.8424 105.094 42.8982C107.078 44.0938 108.935 43.1081 110.888 42.3703C110.818 42.3957 111.327 42.2113 111.32 42.1986C111.32 42.1922 110.812 42.3703 110.882 42.3449C110.176 42.5929 109.47 42.8473 108.77 43.1144C108.694 43.1462 108.611 43.1716 108.535 43.2034C109.387 42.8982 110.239 42.5929 111.091 42.2876C108.681 42.9554 106.862 40.9965 105.603 39.2157C104.045 36.9961 102.525 34.751 100.992 32.5187C99.9487 30.9986 98.5686 28.4165 96.349 28.7917C95.2169 28.9825 94.053 29.5295 92.9973 29.9619C92.2659 30.2609 91.6871 30.7315 91.6426 31.5774C91.6489 31.4947 93.01 31.1004 93.1435 31.0495C93.2898 30.9986 94.6191 30.6361 94.6254 30.4898Z" fill="black"/>
<path d="M101.513 31.4821C109.673 25.3129 117.833 19.1437 125.986 12.9745C124.988 13.337 123.996 13.6995 122.997 14.062C124.403 15.7411 125.598 18.107 127.831 18.8066C128.721 19.0864 129.618 19.0673 130.496 18.7748C131.24 18.5267 131.978 18.2469 132.715 17.9734C133.154 17.8081 133.618 17.6681 134 17.3947C135.864 16.0845 134.789 13.426 133.027 12.6183C130.585 11.4926 127.526 13.0699 125.268 13.9603C125.077 14.0366 125.522 13.8839 125.42 13.9157C125.719 13.8203 126.018 13.7059 126.317 13.5977C126.928 13.3751 127.545 13.1589 128.149 12.9172C125.942 13.6677 125.319 13.8967 126.273 13.6168C126.438 13.5659 126.603 13.5214 126.775 13.4833C126.998 13.4324 127.22 13.3942 127.449 13.3688C127.939 13.3115 128.435 13.3052 128.918 13.3751C129.777 13.5023 130.566 13.8776 131.151 14.5263C132.13 15.6075 132.391 17.3756 131.157 18.3741C131.043 18.4695 130.909 18.5331 130.788 18.6221C132.582 17.3056 133.682 17.7826 132.55 17.9035C132.232 17.9353 131.901 17.9289 131.583 17.8844C130.852 17.789 130.165 17.5091 129.561 17.0767C128.073 16.0082 127.138 14.3482 125.98 12.9681C125.885 12.8536 123.213 13.8839 122.991 14.0557C114.831 20.2249 106.671 26.3941 98.5176 32.5633C98.8737 32.2961 99.5988 32.188 100.019 32.0354C100.47 31.8827 101.132 31.7746 101.513 31.4821Z" fill="black"/>
<path d="M106.816 43.846C107.058 44.075 107.37 44.2085 107.7 44.2403C107.859 44.2531 108.025 44.2467 108.177 44.2085C108.483 44.1386 108.775 44.0114 109.068 43.9096C109.577 43.7252 110.092 43.5407 110.601 43.3499C110.849 43.2545 111.103 43.1719 111.351 43.0637C111.415 43.0383 111.421 43.0319 111.377 43.051C111.313 43.0701 111.256 43.0892 111.198 43.1083C110.9 43.21 110.601 43.3181 110.302 43.4263C109.92 43.5662 109.532 43.7061 109.151 43.846C108.922 43.9287 108.693 44.005 108.47 44.1068C108.451 44.1131 108.425 44.1259 108.406 44.1322C108.635 44.0432 108.864 43.9605 109.087 43.8715C109.081 43.8715 109.074 43.8778 109.068 43.8778C109.672 43.6616 110.276 43.439 110.88 43.2227C111.23 43.1083 111.338 43.0701 111.211 43.1083C111.198 43.1146 111.186 43.1146 111.179 43.121C111.198 43.1146 111.218 43.1083 111.237 43.1083C110.741 43.2418 110.194 43.1146 109.818 42.7648C109.799 42.7457 109.322 42.9302 109.379 42.9111C109.023 43.0383 108.674 43.1655 108.324 43.2927C107.974 43.4199 107.618 43.5471 107.268 43.6807C107.192 43.7125 107.115 43.7379 107.033 43.7697C106.944 43.7888 106.88 43.8142 106.816 43.846Z" fill="black"/>
<path d="M104.253 49.7543C103.884 50.7592 103.687 51.815 103.668 52.8834C103.687 52.8771 103.706 52.8707 103.725 52.8707C104.24 52.7117 104.743 52.5146 105.252 52.3301C105.741 52.152 106.244 51.9867 106.727 51.7768C106.899 51.7005 107.051 51.5987 107.172 51.4588C107.408 51.1853 107.509 50.8101 107.42 50.4539C107.42 50.4603 106.034 50.9436 105.919 50.9818C105.57 51.109 105.213 51.2362 104.864 51.3698C104.819 51.3888 104.425 51.5224 104.431 51.5415C104.558 52.063 104.279 52.6163 103.795 52.8389C103.814 52.8326 103.827 52.8262 103.846 52.8135C103.833 52.8198 103.821 52.8262 103.808 52.8262C104.539 52.5591 105.271 52.2856 106.002 52.0185C106.206 51.9485 106.409 51.8722 106.613 51.8022C106.632 51.7959 106.651 51.7895 106.67 51.7895C106.689 50.721 106.886 49.6653 107.255 48.6604C107.249 48.6795 106.765 48.8258 106.816 48.8067C106.46 48.9339 106.11 49.0611 105.76 49.1883C105.411 49.3155 105.054 49.4427 104.705 49.5762C104.628 49.608 104.552 49.6335 104.469 49.6653C104.387 49.6971 104.317 49.7225 104.253 49.7543Z" fill="black"/>
<path d="M42.4222 69.9474C42.4158 77.1151 42.5176 84.2828 42.7338 91.4506C42.9437 98.3257 43.0709 105.264 43.7005 112.121C43.9549 114.894 44.4446 117.743 45.8566 120.185C47.243 122.589 49.4754 124.268 52.0639 125.209C58.2077 127.448 64.6885 125.502 70.8959 124.662C78.6742 123.613 86.5542 124.09 94.3579 124.561C94.7713 124.586 95.4646 124.173 95.8589 124.033C96.2087 123.906 96.5648 123.778 96.9146 123.645C97.0228 123.607 97.239 123.467 97.3471 123.473C90.3575 123.047 83.3297 122.627 76.34 123.295C69.9673 123.906 63.4292 126.163 57.0184 124.701C54.4298 124.109 51.924 122.907 50.1432 120.904C48.2416 118.767 47.3766 115.968 46.9505 113.189C46.4671 110.034 46.4099 106.816 46.2509 103.636C46.0728 100.056 45.9265 96.475 45.7993 92.8943C45.5258 84.887 45.3986 76.8735 45.4114 68.8662C45.4114 68.9298 44.0376 69.3496 43.9104 69.3941C43.7705 69.4386 42.4222 69.8202 42.4222 69.9474Z" fill="black"/>
<path d="M46.4472 69.3368C52.3874 63.4538 57.2719 56.585 60.8971 49.0484C61.2723 48.2662 61.6476 47.4712 62.1437 46.7525C62.4171 46.3518 62.7351 45.9702 63.0977 45.6522C63.2185 45.5441 63.3457 45.4423 63.4793 45.3533C63.6192 45.2579 63.7655 45.1688 63.9117 45.0862C62.0419 45.6713 61.5395 45.8621 62.4044 45.6586C64.5923 45.3278 66.831 45.3469 69.0443 45.2642C71.4038 45.1688 73.7697 45.0798 76.1293 44.9844C77.2868 44.9399 78.438 44.8953 79.5955 44.8508C80.0725 44.8317 80.7021 44.7109 81.1728 44.7872C81.2809 44.7809 81.3827 44.7809 81.4908 44.7745C81.6371 44.9272 81.777 45.0861 81.9233 45.2388C82.1777 45.5123 82.4257 45.7794 82.6801 46.0529C85.9173 49.5445 89.1546 53.0361 92.3855 56.5278C93.066 57.2655 93.8419 57.9779 94.3889 58.8237C94.9867 59.7523 95.1012 60.8272 95.2284 61.902C95.5146 64.2934 95.769 66.6847 96.0043 69.0824C96.9265 78.4571 97.4925 87.8635 97.6961 97.2763C97.8105 102.504 97.8105 107.739 97.7024 112.973C97.6579 115.04 97.7533 117.183 97.2318 119.206C97.0219 120.007 96.723 120.815 96.2396 121.495C96.0361 121.775 95.8071 122.042 95.5337 122.258C95.4001 122.367 95.2538 122.443 95.1139 122.538C97.1936 121.107 98.0459 121.75 96.7548 121.781C96.2969 121.794 95.6799 122.157 95.2538 122.309C94.8277 122.462 94.2171 122.856 93.7656 122.869C94.6496 122.85 95.4828 122.449 96.3032 122.15C97.1618 121.839 98.0967 121.603 98.7709 120.948C99.8712 119.873 100.291 118.194 100.488 116.719C100.781 114.512 100.685 112.229 100.723 110.009C100.762 107.497 100.774 104.985 100.768 102.472C100.723 92.43 100.266 82.3812 99.3942 72.3769C99.1779 69.8774 98.9363 67.378 98.6691 64.8785C98.5356 63.6319 98.3957 62.379 98.2494 61.1324C98.1222 60.064 98.0522 58.9319 97.5116 57.9715C96.9519 56.973 96.0297 56.1589 95.2602 55.3257C94.3952 54.3972 93.5366 53.4623 92.6717 52.5337C90.9481 50.6702 89.2182 48.8067 87.4946 46.9433C86.6297 46.0147 85.7711 45.0798 84.9061 44.1512C84.8361 44.0749 84.7598 43.9986 84.6899 43.9159C84.5817 43.6806 84.4037 43.6043 84.162 43.6933C83.8758 43.6488 83.5069 43.7188 83.2143 43.7315C82.5847 43.7569 81.9551 43.7823 81.3254 43.8078C78.756 43.9095 76.1802 44.0113 73.6107 44.1131C71.1494 44.2085 68.6309 44.1576 66.1823 44.4502C65.2537 44.5583 64.4078 44.8508 63.5301 45.1625C62.4489 45.5504 61.2151 45.8684 60.2993 46.5935C58.5185 47.999 57.7553 50.5367 56.744 52.4828C55.5865 54.6897 54.3209 56.8394 52.9471 58.9128C50.1932 63.0659 47.0132 66.9264 43.4707 70.4307C43.5216 70.3799 43.8905 70.2908 43.9095 70.2845C44.2657 70.1573 44.6155 70.0301 44.9653 69.9029C45.3596 69.7502 46.1419 69.6357 46.4472 69.3368Z" fill="black"/>
<path d="M68.1357 65.7244C64.3706 72.466 60.4719 79.4557 59.3144 87.2021C58.3858 93.4159 59.4289 100.31 63.4102 105.341C65.509 107.987 68.6318 110.403 72.1489 110.442C73.9742 110.461 75.7232 109.659 77.3959 109.017C78.9159 108.438 80.207 107.535 81.3136 106.346C86.2172 101.08 87.2221 93.0597 84.8116 86.4517C84.0421 84.3338 83.0308 82.3177 82.0641 80.2888C81.0147 78.0946 79.9717 75.9004 78.9223 73.7126C76.8298 69.3242 74.7374 64.9421 72.645 60.5537C72.6386 60.5474 69.8466 61.4569 69.6558 61.6413C68.5046 62.7543 68.0276 64.3189 68.3583 65.8834C68.3329 65.7626 71.3793 64.9612 71.3475 64.7959C71.0168 63.2313 71.4938 61.6667 72.645 60.5537C71.6464 60.9163 70.6543 61.2788 69.6558 61.6413C73.2046 69.0761 76.8108 76.4919 80.3024 83.9585C81.8352 87.2467 83.069 90.6111 83.1199 94.2808C83.1644 97.7152 82.3185 101.162 80.6522 104.171C79.889 105.551 78.9541 106.861 77.8093 107.955C77.256 108.483 76.6518 108.96 75.9967 109.354C75.825 109.456 75.6469 109.545 75.4752 109.647C74.6738 110.124 76.9634 109.144 76.9062 109.144C76.4101 109.151 75.8949 109.335 75.3925 109.348C72.0153 109.43 68.9498 107.243 66.8319 104.781C62.806 100.1 61.5213 93.5431 62.1192 87.5201C62.9396 79.2394 67.1436 71.7601 71.1186 64.6305C71.0995 64.6623 70.6416 64.7895 70.6797 64.7768C70.3236 64.904 69.9738 65.0312 69.624 65.1584C69.2742 65.2856 68.918 65.4128 68.5682 65.5463C68.4792 65.5845 68.1739 65.6545 68.1357 65.7244Z" fill="black"/>
</svg>
