<svg width="64" height="65" viewBox="0 0 64 65" fill="none" xmlns="http://www.w3.org/2000/svg">
<path d="M49.3846 9.03242L47.7707 7.87273C43.9416 5.50431 39.3548 4.62875 34.9062 5.41701C30.3294 6.28017 26.23 8.76269 23.3788 12.3977L22.3413 13.9894L23.2405 12.3295C25.8886 8.39037 29.907 5.54328 34.5373 4.32554C39.3095 3.13833 44.3581 3.7294 48.716 5.98547L50.4221 7.03142C50.5501 7.10821 50.6615 7.2094 50.7495 7.32904C50.8376 7.44869 50.9006 7.58442 50.9349 7.72833C50.9692 7.87224 50.9742 8.02142 50.9495 8.16723C50.9247 8.31305 50.8709 8.45262 50.7909 8.57769C50.7128 8.70666 50.6094 8.819 50.4869 8.90834C50.3644 8.99769 50.2252 9.06225 50.0772 9.0982C49.9293 9.13415 49.7757 9.14076 49.6251 9.11777C49.4746 9.09477 49.3301 9.04259 49.2002 8.9642L49.3846 9.03242Z" fill="white" stroke="white" stroke-width="2"/>
<path d="M60.013 23.6082L59.3905 21.6754C58.0092 18.366 55.6546 15.5404 52.6304 13.5627C49.6061 11.585 46.0507 10.5458 42.4222 10.579C39.9453 10.6503 37.5013 11.1586 35.2061 12.0798C37.4574 10.9753 39.8958 10.2893 42.3991 10.0561C44.9394 9.85019 47.4957 10.1518 49.915 10.9429C52.3996 11.7535 54.6972 13.0407 56.6755 14.7304C58.6538 16.4201 60.2739 18.4791 61.4424 20.7886L62.2032 22.6759C62.2593 22.8147 62.2872 22.9631 62.2851 23.1126C62.2831 23.262 62.2511 23.4096 62.1911 23.5469C62.1312 23.6842 62.0444 23.8085 61.9357 23.9126C61.8269 24.0168 61.6985 24.0988 61.5576 24.1539C61.4172 24.2125 61.2663 24.2424 61.1138 24.2419C60.9614 24.2415 60.8106 24.2105 60.6706 24.151C60.5305 24.0916 60.4042 24.0047 60.2991 23.8958C60.194 23.7869 60.1124 23.6581 60.0591 23.5172L60.013 23.6082Z" fill="white" stroke="white" stroke-width="2"/>
<path d="M59.9901 41.5954L60.6126 39.7081V39.8218C61.6408 35.4967 61.0513 30.9508 58.9526 27.02C56.6711 23.0512 53.0106 20.0306 48.6472 18.5159L46.7336 18.0383L48.6933 18.3795C53.3025 19.6293 57.2933 22.4904 59.921 26.4288C62.5291 30.5307 63.5293 35.4306 62.7337 40.2083L62.2495 42.1411C62.1761 42.4426 61.9843 42.7031 61.7162 42.8651C61.4481 43.0272 61.1258 43.0775 60.8201 43.0052C60.5143 42.9328 60.2503 42.7436 60.086 42.4792C59.9217 42.2149 59.8706 41.8969 59.944 41.5954H59.9901Z" fill="white" stroke="white" stroke-width="2"/>
<path d="M49.316 56.0331C50.3524 55.3215 51.3244 54.5226 52.2209 53.6455C53.1088 52.765 53.8831 51.7798 54.5264 50.7123C55.8364 48.549 56.6764 46.1409 56.9932 43.6406C57.3338 41.0831 57.1104 38.4833 56.3385 36.0188C55.5666 33.5543 54.2643 31.2833 52.5206 29.3608C54.4563 31.2172 55.9615 33.4649 56.9325 35.9496C57.9036 38.4342 58.3175 41.0968 58.1459 43.7542C58.0029 46.4722 57.2802 49.1299 56.0249 51.5536C55.4007 52.7862 54.6265 53.9391 53.7195 54.987C52.8215 56.0182 51.8256 56.9624 50.7454 57.8067C50.6312 57.9042 50.4984 57.9781 50.3548 58.0241C50.2112 58.0702 50.0597 58.0873 49.9092 58.0746C49.7588 58.0619 49.6124 58.0196 49.4789 57.9501C49.3453 57.8806 49.2272 57.7855 49.1316 57.6702C48.9364 57.4366 48.8416 57.1369 48.8675 56.8352C48.8933 56.5336 49.0378 56.2538 49.2699 56.0558L49.316 56.0331Z" fill="white" stroke="white" stroke-width="2"/>
<path d="M31.8173 61.6514H33.8C34.4225 61.6514 35.045 61.5377 35.6444 61.424C39.4384 60.7735 42.9211 58.9405 45.581 56.1941C47.3462 54.3127 48.6965 52.0905 49.5464 49.6682C50.444 47.2086 50.7977 44.5881 50.5838 41.9825C50.9887 44.6017 50.8237 47.2759 50.0997 49.8273C49.405 52.4535 48.1402 54.8994 46.3926 56.9959C44.6451 59.0924 42.4567 60.7895 39.9787 61.9697C38.7247 62.5707 37.4113 63.0431 36.0594 63.3794C35.3908 63.5386 34.6761 63.6523 33.9845 63.7888L32.0017 63.9934C31.6967 64.0257 31.391 63.9391 31.1498 63.7522C30.9086 63.5653 30.751 63.2928 30.7107 62.9929C30.6947 62.8435 30.709 62.6924 30.7527 62.5485C30.7963 62.4045 30.8685 62.2705 30.9649 62.1542C31.0614 62.0379 31.1803 61.9416 31.3147 61.8709C31.4492 61.8002 31.5965 61.7565 31.7481 61.7423L31.8173 61.6514Z" fill="white" stroke="white" stroke-width="2"/>
<path d="M14.5724 55.9891L16.0479 57.0352C16.5551 57.3535 17.0623 57.6036 17.5465 57.8992L19.1603 58.6268C19.7137 58.8087 20.2669 59.0134 20.8433 59.1726C23.1558 59.7898 25.5702 59.9443 27.9442 59.6273C32.853 58.953 37.2938 56.3954 40.3015 52.5102L41.339 50.8958L40.4398 52.5784C37.6223 56.8055 33.2196 59.7577 28.1978 60.787C25.6506 61.3099 23.0216 61.3099 20.4744 60.787C19.8519 60.6733 19.2295 60.4914 18.584 60.3322L16.7395 59.6501L14.9413 58.786L13.3275 57.8083C13.1986 57.7293 13.0867 57.626 12.9984 57.5044C12.9101 57.3827 12.847 57.245 12.8128 57.0993C12.7785 56.9535 12.7737 56.8025 12.7987 56.655C12.8238 56.5074 12.8781 56.3661 12.9586 56.2393C13.0364 56.1098 13.14 55.9973 13.2632 55.9084C13.3863 55.8195 13.5265 55.7561 13.6751 55.7221C13.8238 55.6881 13.9779 55.6842 14.1282 55.7105C14.2784 55.7369 14.4217 55.793 14.5494 55.8755L14.5724 55.9891Z" fill="white" stroke="white" stroke-width="2"/>
<path d="M3.80562 41.5037L4.42808 43.3C6.33609 47.6759 9.87738 51.1605 14.3186 53.0321C16.5638 53.9705 18.981 54.4427 21.4194 54.4191C23.8978 54.3406 26.3418 53.8247 28.6356 52.8957C26.3826 54 23.9457 54.6933 21.4425 54.9421C18.9003 55.1616 16.3396 54.8517 13.9266 54.0326C8.95605 52.3379 4.83151 48.8313 2.39925 44.2323L1.63847 42.4814C1.57809 42.3427 1.54629 42.1936 1.54496 42.0426C1.54364 41.8917 1.57279 41.7421 1.63073 41.6024C1.68867 41.4627 1.77428 41.3358 1.88247 41.229C1.99066 41.1223 2.1193 41.0379 2.26092 40.9807C2.54233 40.8676 2.85764 40.8686 3.13828 40.9836C3.41892 41.0986 3.64217 41.3182 3.75947 41.5946L3.80562 41.5037Z" fill="white" stroke="white" stroke-width="2"/>
<path d="M3.85195 23.4723C3.48923 24.6844 3.18916 25.9138 2.95286 27.1559C2.80285 28.3869 2.80285 29.6313 2.95286 30.8623C3.16766 33.3673 3.91381 35.7998 5.14302 38.0021C6.39535 40.2362 8.09792 42.194 10.1459 43.7549C11.1842 44.5383 12.3049 45.2092 13.4888 45.7559C14.6877 46.2562 15.9557 46.6655 17.2007 47.0975C15.9327 46.7564 14.6416 46.4381 13.3736 46.0061C12.1305 45.539 10.9405 44.9445 9.82313 44.2325C7.55931 42.7578 5.62855 40.838 4.15168 38.5933C2.66461 36.3082 1.66815 33.7467 1.22375 31.0669C1.01236 29.7056 0.950485 28.3257 1.03927 26.9513C1.15454 25.5642 1.45425 24.2227 1.6848 22.972C1.74619 22.6753 1.9229 22.4139 2.17709 22.244C2.43129 22.074 2.74277 22.0089 3.04502 22.0625C3.19546 22.0897 3.33894 22.1462 3.46703 22.2286C3.59511 22.3111 3.70527 22.4179 3.7911 22.5428C3.87692 22.6676 3.93668 22.8081 3.96692 22.9559C3.99716 23.1038 3.99724 23.2562 3.9672 23.4041L3.85195 23.4723Z" fill="white" stroke="white" stroke-width="2"/>
<path d="M14.6641 8.9645L13.1886 10.056L11.8745 11.2156L10.6987 12.5117L9.63822 13.9215C8.31845 15.8988 7.41671 18.1184 6.98694 20.4474C6.56272 22.8333 6.61923 25.2782 7.15327 27.6425C7.6873 30.0069 8.68833 32.2443 10.0993 34.227L11.2982 35.6367L10.0071 34.3179C7.56763 31.3597 6.08535 27.747 5.75238 23.9481C5.41941 20.1492 6.25111 16.3391 8.13968 13.0119C9.43112 10.7719 11.1448 8.79612 13.1886 7.1909C13.4271 7.00094 13.7323 6.91216 14.0371 6.94414C14.3419 6.97613 14.6214 7.12627 14.814 7.36147C15.0066 7.59666 15.0966 7.89764 15.0642 8.19827C15.0318 8.4989 14.8795 8.77453 14.6411 8.9645H14.6641Z" fill="white" stroke="white" stroke-width="2"/>
<path d="M32.0018 3.34891H30.0191C29.3966 3.34891 28.7741 3.46261 28.1747 3.57631C26.9321 3.77813 25.7174 4.12153 24.5551 4.59956C22.1823 5.55096 20.0439 6.99313 18.2842 8.82888C16.5099 10.7269 15.1567 12.9691 14.3111 15.4123C13.4656 17.8555 13.1462 20.4458 13.3735 23.0177C12.6093 18.321 13.6648 13.5128 16.3302 9.54848C18.9956 5.58419 23.0757 2.75413 27.7597 1.62076C28.4283 1.46159 29.143 1.34794 29.8346 1.23425L31.8173 1.00685C31.9687 0.990427 32.1219 1.00361 32.2681 1.04557C32.4144 1.08753 32.5508 1.15743 32.6696 1.25139C32.7884 1.34535 32.8873 1.46149 32.9606 1.59315C33.0339 1.7248 33.0802 1.86943 33.0969 2.01873C33.1135 2.16803 33.1002 2.3191 33.0577 2.46332C33.0151 2.60755 32.9442 2.74209 32.8489 2.85928C32.7537 2.97646 32.6359 3.07397 32.5024 3.14628C32.3689 3.21859 32.2223 3.26427 32.0709 3.2807L32.0018 3.34891Z" fill="white" stroke="white" stroke-width="2"/>
</svg>
