<svg width="63" height="65" viewBox="0 0 63 65" fill="none" xmlns="http://www.w3.org/2000/svg">
<path d="M48.7899 8.89595C47.0936 7.62362 45.248 6.56462 43.2944 5.74238C41.3332 4.89342 39.2027 4.51007 37.0693 4.62248H35.2678L37.0464 4.34825C39.2427 3.89423 41.5141 3.95685 43.6821 4.53111C44.7845 4.78644 45.8668 5.12252 46.9201 5.53665C47.9918 5.948 48.9724 6.45073 49.9529 6.93063C50.0898 6.99439 50.2127 7.08475 50.3145 7.19649C50.4163 7.30823 50.495 7.43916 50.5459 7.5816C50.5968 7.72404 50.6189 7.87517 50.6111 8.02627C50.6032 8.17737 50.5656 8.32536 50.5002 8.46174C50.3626 8.73632 50.1243 8.94684 49.8352 9.0491C49.5461 9.15136 49.2287 9.13753 48.9496 9.01032L48.7899 8.89595Z" fill="white" stroke="white" stroke-width="2"/>
<path d="M59.2572 23.5689C58.8467 22.3805 58.5275 21.2836 58.0486 20.141C57.5677 19.0517 56.9714 18.0174 56.27 17.0558C55.5689 16.068 54.758 15.1633 53.8529 14.3591C52.9408 13.5593 51.8919 12.8966 50.8657 12.0739C52.0074 12.589 53.119 13.1689 54.1949 13.8107C56.3503 15.2168 58.178 17.0719 59.5536 19.2497C60.2605 20.3695 60.785 21.5349 61.3551 22.609C61.424 22.7425 61.4659 22.8884 61.4785 23.0382C61.4912 23.188 61.4742 23.3389 61.4287 23.4821C61.3832 23.6254 61.31 23.7582 61.2132 23.8731C61.1164 23.988 60.9981 24.0826 60.8648 24.1517C60.7316 24.2207 60.5861 24.2627 60.4366 24.2754C60.2871 24.288 60.1366 24.2711 59.9937 24.2254C59.8507 24.1798 59.7182 24.1063 59.6035 24.0094C59.4889 23.9124 59.3945 23.7938 59.3256 23.6603V23.5231L59.2572 23.5689Z" fill="white" stroke="white" stroke-width="2"/>
<path d="M59.2115 41.5767L59.8955 39.8399C60.8601 36.3271 60.8206 32.6133 59.7815 29.1219L59.0974 27.408L60.0552 28.9848C61.6855 32.4924 62.3092 36.3856 61.8566 40.2284L61.4461 42.0566C61.3796 42.3596 61.1957 42.6238 60.9348 42.7909C60.674 42.9581 60.3576 43.0145 60.0552 42.9479C59.7528 42.8812 59.4892 42.6968 59.3224 42.4354C59.1556 42.174 59.0993 41.8569 59.1658 41.5539C59.1814 41.5608 59.1966 41.5684 59.2115 41.5767Z" fill="white" stroke="white" stroke-width="2"/>
<path d="M48.6537 56.2479L49.9762 55.3337C50.3938 55.0693 50.7834 54.7631 51.1392 54.4197C51.8882 53.7122 52.5819 52.9482 53.2143 52.1344C54.5653 50.5072 55.5807 48.6273 56.2015 46.6039L56.7487 44.8444L56.4751 46.6726C56.156 48.8813 55.3792 50.9986 54.1948 52.8885C53.6624 53.8778 53.0444 54.8185 52.3478 55.6995C51.9836 56.1611 51.5874 56.5964 51.162 57.0021L49.9762 58.099C49.8702 58.2061 49.7442 58.2911 49.6053 58.3491C49.4663 58.4071 49.3173 58.4369 49.1668 58.4369C49.0163 58.4369 48.8672 58.4071 48.7283 58.3491C48.5894 58.2911 48.4632 58.2061 48.3572 58.099C48.2504 57.9928 48.1656 57.8664 48.1077 57.7271C48.0498 57.5879 48.02 57.4386 48.02 57.2877C48.02 57.1369 48.0498 56.9875 48.1077 56.8482C48.1656 56.709 48.2504 56.5826 48.3572 56.4764L48.6537 56.2479Z" fill="white" stroke="white" stroke-width="2"/>
<path d="M31.4372 61.7564L33.3526 61.9164H33.2158C36.8668 61.7342 40.3922 60.5222 43.3859 58.42L44.7085 57.2773L43.5683 58.6027C40.7692 61.2704 37.2757 63.0924 33.4895 63.859H33.3526L31.4372 63.9961C31.2874 64.0086 31.1366 63.9912 30.9934 63.945C30.8503 63.8989 30.7177 63.8249 30.6033 63.7272C30.4888 63.6295 30.3948 63.5101 30.3266 63.3758C30.2584 63.2415 30.2173 63.095 30.2058 62.9448C30.1934 62.7946 30.2107 62.6436 30.2567 62.5001C30.3027 62.3567 30.3766 62.2237 30.4741 62.109C30.5716 61.9943 30.6908 61.9001 30.8248 61.8317C30.9587 61.7634 31.1048 61.7223 31.2547 61.7108L31.4372 61.7564Z" fill="white" stroke="white" stroke-width="2"/>
<path d="M14.2667 56.179L15.7033 57.2532C17.2164 58.238 18.8388 59.0433 20.5375 59.6527C22.2381 60.3022 24.0567 60.5826 25.8734 60.4754H27.8116L25.8962 60.7725C24.0244 61.1704 22.0901 61.1704 20.2183 60.7725C18.3281 60.3987 16.485 59.8162 14.7228 59.0356L13.1493 58.1901C12.9045 58.0365 12.7269 57.7955 12.6525 57.5158C12.5781 57.2361 12.6124 56.9386 12.7485 56.6832C12.8846 56.4279 13.1123 56.2338 13.3856 56.1402C13.6589 56.0467 13.9576 56.0605 14.2211 56.179H14.2667Z" fill="white" stroke="white" stroke-width="2"/>
<path d="M3.61781 41.4851C4.00546 42.5363 4.27912 43.6104 4.64397 44.5245C5.05603 45.4852 5.55999 46.4037 6.1489 47.2669C7.29341 49.0797 8.79952 50.6358 10.5727 51.8375L12.0093 52.9115L10.4359 52.0659C8.41915 51.0976 6.61948 49.7293 5.14563 48.0438C4.35453 47.218 3.65847 46.3058 3.07056 45.3243C2.43207 44.2959 2.02157 43.2904 1.5199 42.3535C1.44451 42.2223 1.39646 42.0772 1.37864 41.9268C1.36082 41.7764 1.37366 41.624 1.41629 41.4788C1.45892 41.3335 1.53045 41.1984 1.62665 41.0817C1.72286 40.9649 1.84172 40.8689 1.97599 40.7995C2.24315 40.6594 2.5542 40.6287 2.84349 40.714C3.13278 40.7993 3.37767 40.9938 3.52657 41.2566V41.4166L3.61781 41.4851Z" fill="white" stroke="white" stroke-width="2"/>
<path d="M3.68648 23.3866C3.28584 24.5204 2.96576 25.6812 2.72873 26.8603C2.49832 28.0354 2.36867 29.2281 2.34111 30.4253C2.32739 31.6313 2.44979 32.8349 2.70597 34.0132C2.97961 35.2016 3.43562 36.2985 3.80047 37.5325C3.2532 36.4356 2.63751 35.2472 2.15865 34.1731C1.70126 32.9949 1.37997 31.7681 1.20097 30.5167C1.02654 29.2449 0.965451 27.9601 1.01851 26.6774C1.0901 25.4056 1.23476 24.1391 1.45177 22.8839C1.45819 22.7193 1.4994 22.5578 1.57264 22.4102C1.64589 22.2627 1.74957 22.1324 1.87675 22.0279C2.00393 21.9235 2.15176 21.8473 2.3105 21.8043C2.46923 21.7613 2.63526 21.7525 2.79762 21.7785C2.95998 21.8046 3.11496 21.8649 3.25238 21.9554C3.38981 22.0459 3.50652 22.1644 3.59483 22.3034C3.68314 22.4424 3.74104 22.5987 3.7647 22.7617C3.78836 22.9248 3.77722 23.0911 3.73206 23.2495C3.70932 23.2923 3.69393 23.3387 3.68648 23.3866Z" fill="white" stroke="white" stroke-width="2"/>
<path d="M14.4032 8.75925L12.9437 9.90189C11.2193 11.096 9.77889 12.6566 8.72518 14.4725C8.17272 15.3931 7.67773 16.3471 7.24301 17.3291C6.82203 18.3317 6.47155 19.3627 6.19409 20.4143C6.30642 19.3203 6.49694 18.2359 6.76417 17.1692C7.04246 16.0927 7.40071 15.0385 7.83591 14.0155C8.69919 11.8602 10.0404 9.92988 11.758 8.37079L13.035 7.02255C13.139 6.91614 13.2632 6.83157 13.4002 6.77386C13.5373 6.71614 13.6844 6.6864 13.8331 6.6864C13.9817 6.6864 14.1289 6.71614 14.2659 6.77386C14.403 6.83157 14.5271 6.91614 14.6311 7.02255C14.738 7.12878 14.8229 7.25503 14.8808 7.39428C14.9386 7.53352 14.9684 7.68294 14.9684 7.83379C14.9684 7.98463 14.9386 8.13391 14.8808 8.27316C14.8229 8.4124 14.738 8.53879 14.6311 8.64502L14.4032 8.75925Z" fill="white" stroke="white" stroke-width="2"/>
<path d="M31.5283 3.2984H29.6356C27.5862 3.22006 25.5471 3.6271 23.684 4.48665C22.6896 4.88022 21.7288 5.35406 20.8109 5.90352C19.8831 6.46004 18.9988 7.0865 18.1658 7.77747C18.8754 6.96673 19.6371 6.20334 20.4461 5.49219C21.3036 4.78807 22.2104 4.14662 23.1596 3.57263C25.1026 2.31521 27.3129 1.53245 29.6128 1.28734L31.3687 1.01312C31.5169 0.99041 31.6682 0.997232 31.8138 1.0332C31.9594 1.06918 32.0965 1.1336 32.2173 1.22276C32.338 1.31192 32.44 1.42405 32.5174 1.55278C32.5948 1.68151 32.6461 1.82426 32.6684 1.9729C32.6944 2.12018 32.6907 2.27119 32.6576 2.41701C32.6244 2.56283 32.5624 2.70051 32.4752 2.82193C32.3881 2.94335 32.2776 3.04601 32.1502 3.12391C32.0228 3.20181 31.8811 3.2534 31.7335 3.27553L31.5283 3.2984Z" fill="white" stroke="white" stroke-width="2"/>
</svg>
