<svg width="66" height="68" viewBox="0 0 66 68" fill="none" xmlns="http://www.w3.org/2000/svg">
<path d="M51.2019 9.15495C49.6866 7.94059 48.0375 6.90309 46.2867 6.0628C44.4538 5.32208 42.5376 4.80691 40.5803 4.52871H38.8779L40.5803 4.24109C42.6242 4.16939 44.6692 4.34655 46.6704 4.7685C48.6632 5.3535 50.585 6.15739 52.4007 7.16545C52.6475 7.32876 52.8266 7.57596 52.9049 7.86124C52.9832 8.14652 52.9554 8.45047 52.8266 8.71679C52.6978 8.98312 52.4767 9.19378 52.2044 9.30959C51.9321 9.42541 51.627 9.43851 51.3458 9.34661L51.2019 9.15495Z" fill="white" stroke="white" stroke-width="2"/>
<path d="M62.2069 24.4947L61.7753 22.8648C61.628 22.3519 61.4519 21.8478 61.2478 21.3547C60.8271 20.3502 60.3134 19.3872 59.7133 18.4783C59.1092 17.5438 58.4275 16.6619 57.6753 15.8418C56.8855 15.0285 56.0359 14.2753 55.1338 13.5886C56.1577 14.1045 57.1362 14.7059 58.0589 15.3863C58.9966 16.1009 59.8637 16.9036 60.6484 17.7833C61.474 18.6373 62.2055 19.5775 62.8303 20.5877C63.1622 21.0983 63.4663 21.6265 63.7414 22.1697L64.4607 23.7277C64.5974 24.0169 64.6136 24.3486 64.5057 24.6498C64.3978 24.951 64.1746 25.1971 63.8853 25.3337C63.5959 25.4704 63.2641 25.4865 62.9629 25.3786C62.6616 25.2708 62.4156 25.0476 62.2789 24.7583L62.2069 24.4947Z" fill="white" stroke="white" stroke-width="2"/>
<path d="M62.1827 43.4798L62.7581 41.9459C63.3157 40.0656 63.6536 38.1271 63.7652 36.1691C63.8043 35.1912 63.7481 34.2119 63.5973 33.2449C63.4422 32.2557 63.2178 31.2784 62.926 30.3206C63.381 31.2275 63.7735 32.1646 64.1008 33.1251C64.4389 34.0977 64.6798 35.1013 64.8202 36.1213C65.0599 38.1757 65.0599 40.2509 64.8202 42.3053L64.5324 43.9114C64.5063 44.0675 64.4496 44.2168 64.3654 44.3508C64.2812 44.4849 64.1713 44.6011 64.042 44.6925C63.9127 44.7838 63.7665 44.8486 63.612 44.8832C63.4575 44.9178 63.2977 44.9215 63.1418 44.8941C62.8293 44.8355 62.5519 44.6576 62.3683 44.3981C62.1848 44.1386 62.1096 43.8178 62.1587 43.5038L62.1827 43.4798Z" fill="white" stroke="white" stroke-width="2"/>
<path d="M51.0822 58.8199L52.4728 57.9331H52.353C53.8322 56.6581 55.2035 55.2631 56.453 53.7624C57.0506 53.012 57.5802 52.2098 58.0354 51.3654C58.4746 50.4738 58.8511 49.5527 59.1623 48.6089C59.0157 49.6055 58.7994 50.5908 58.515 51.5572C58.2061 52.5283 57.8047 53.4673 57.3162 54.3616C56.3297 56.1408 55.182 57.8257 53.8875 59.3952H53.7676L52.5688 60.5218C52.3272 60.6954 52.0307 60.775 51.7347 60.7458C51.4386 60.7166 51.1634 60.5804 50.9605 60.3629C50.7577 60.1454 50.6411 59.8614 50.6326 59.5641C50.6241 59.2669 50.7242 58.9768 50.9144 58.7481L51.0822 58.8199Z" fill="white" stroke="white" stroke-width="2"/>
<path d="M32.98 64.5965L34.7063 64.7643H34.5864C36.5124 64.733 38.4248 64.4345 40.2688 63.8774C42.1337 63.2445 43.895 62.3399 45.4958 61.1929C44.0895 62.6413 42.4729 63.8696 40.7005 64.8363C38.8572 65.7849 36.8869 66.4629 34.8501 66.8496H34.7302L33.0039 66.9934C32.8476 67.0099 32.6896 66.9949 32.5392 66.9493C32.3889 66.9036 32.2492 66.8283 32.1285 66.7278C32.0077 66.6272 31.9085 66.5034 31.8364 66.3638C31.7644 66.2242 31.7212 66.0716 31.7092 65.9149C31.6926 65.7574 31.7075 65.5981 31.7529 65.4463C31.7983 65.2946 31.8732 65.1533 31.9736 65.0307C32.0739 64.9081 32.1976 64.8066 32.3374 64.7321C32.4772 64.6576 32.6304 64.6115 32.7881 64.5965H32.98Z" fill="white" stroke="white" stroke-width="2"/>
<path d="M14.901 58.6761L16.2677 59.6828C17.5221 60.7241 18.9506 61.5356 20.4876 62.0798C22.091 62.6443 23.745 63.0537 25.4268 63.3022H27.0092L25.4508 63.5898C23.693 63.6372 21.9347 63.5169 20.1999 63.2304C18.3842 62.9449 16.6367 62.3273 15.0449 61.4087L13.5343 60.6656C13.2482 60.5258 13.0293 60.278 12.9259 59.9769C12.8225 59.6757 12.843 59.3456 12.9829 59.0596C13.1228 58.7735 13.3706 58.5548 13.6719 58.4514C13.9732 58.348 14.3032 58.3685 14.5893 58.5083L14.901 58.6761Z" fill="white" stroke="white" stroke-width="2"/>
<path d="M3.75142 43.3825L4.18298 45.0124V44.8685C4.80487 46.4431 5.55046 47.966 6.4128 49.4228C7.31712 50.8601 8.41431 52.1666 9.67366 53.3059L11.0403 54.2885L9.52981 53.5455C8.048 52.5865 6.69436 51.4428 5.50167 50.1419C4.34978 48.7999 3.29988 47.3737 2.36073 45.8752V45.7314L1.64146 44.1975C1.57316 44.0562 1.53388 43.9026 1.52592 43.7459C1.51797 43.5891 1.5415 43.4325 1.59514 43.285C1.64878 43.1375 1.73143 43.0024 1.83822 42.8874C1.94501 42.7724 2.07376 42.6798 2.21688 42.6154C2.35996 42.5467 2.5153 42.5071 2.67383 42.4988C2.83236 42.4906 2.99092 42.5139 3.14037 42.5674C3.28981 42.6209 3.42718 42.7036 3.54442 42.8106C3.66166 42.9176 3.75646 43.0467 3.82335 43.1907L3.75142 43.3825Z" fill="white" stroke="white" stroke-width="2"/>
<path d="M3.77547 24.399L3.20005 25.9809C3.05619 26.4603 2.9123 27.0117 2.79241 27.539C2.55144 28.6105 2.40702 29.7015 2.36085 30.7988C2.24118 33.0522 2.52539 35.309 3.20005 37.4624C2.67037 36.4423 2.2369 35.375 1.90529 34.2744C1.55897 33.1555 1.31029 32.0087 1.16202 30.8468C1.01796 29.6782 0.96985 28.4997 1.01816 27.3232C1.01816 26.724 1.01816 26.1247 1.16202 25.5015L1.47373 23.7758C1.50206 23.6184 1.56115 23.4681 1.64758 23.3335C1.73401 23.1989 1.84608 23.0827 1.97744 22.9915C2.1088 22.9002 2.25688 22.8358 2.41317 22.8017C2.56946 22.7677 2.73091 22.7648 2.88834 22.7931C3.04578 22.8214 3.19613 22.8803 3.33073 22.9667C3.46534 23.0531 3.5816 23.1653 3.67288 23.2966C3.76417 23.428 3.82869 23.5759 3.86276 23.7322C3.89683 23.8884 3.89973 24.0498 3.87139 24.2072L3.77547 24.399Z" fill="white" stroke="white" stroke-width="2"/>
<path d="M15.0202 9.08335L13.6296 9.97021C12.2679 10.9453 11.0353 12.0889 9.96116 13.3738C8.95461 14.7302 8.0719 16.1743 7.32371 17.6885L6.74829 19.2224L7.036 17.6165C7.56021 15.9326 8.20938 14.2901 8.9781 12.7028C9.87885 11.1465 10.9658 9.70581 12.215 8.41228L13.4138 7.30963C13.6459 7.09031 13.9556 6.9722 14.2749 6.98119C14.5941 6.99018 14.8967 7.12558 15.1161 7.35762C15.3355 7.58965 15.4537 7.89928 15.4447 8.21843C15.4357 8.53759 15.3003 8.84004 15.0682 9.05936L15.0202 9.08335Z" fill="white" stroke="white" stroke-width="2"/>
<path d="M32.9792 3.28198L31.3967 3.13817C29.4621 3.16119 27.5406 3.4598 25.6903 4.02503C24.7439 4.32996 23.8221 4.70651 22.933 5.15153C22.0459 5.60764 21.189 6.12007 20.3674 6.68561C21.1267 5.9758 21.9274 5.31144 22.7651 4.6961C23.5853 4.07517 24.46 3.52966 25.3785 3.06619C27.2414 2.1244 29.2393 1.47753 31.3008 1.14866L32.8833 1.00485C33.0407 0.990688 33.1994 1.0076 33.3502 1.05474C33.5011 1.10188 33.6412 1.17833 33.7626 1.2796C33.8839 1.38087 33.9841 1.50507 34.0574 1.64505C34.1308 1.78504 34.1758 1.93812 34.1899 2.09551C34.2041 2.25289 34.1872 2.41152 34.14 2.56234C34.0929 2.71317 34.0164 2.85316 33.9151 2.97447C33.8138 3.09577 33.6897 3.19594 33.5496 3.26926C33.4096 3.34257 33.2565 3.38764 33.099 3.4018L32.9792 3.28198Z" fill="white" stroke="white" stroke-width="2"/>
</svg>
