<svg width="65" height="66" viewBox="0 0 65 66" fill="none" xmlns="http://www.w3.org/2000/svg">
<path d="M50.3131 9.0609C47.7438 7.16799 44.7446 5.9314 41.5799 5.46023C38.4074 5.03605 35.1783 5.44453 32.2145 6.64495C29.1888 7.89562 26.5425 9.90487 24.5349 12.4757C22.5303 15.098 21.2329 18.1842 20.7654 21.4425C21.0527 18.1173 22.1889 14.9195 24.0667 12.1505C25.9971 9.34569 28.6376 7.09436 31.7228 5.62282C34.8671 4.14396 38.3432 3.49582 41.8141 3.74119C45.2939 4.07016 48.6426 5.22549 51.5774 7.10955C51.7223 7.1816 51.8505 7.28272 51.954 7.40648C52.0574 7.53024 52.1338 7.67396 52.1784 7.82854C52.223 7.98312 52.2346 8.1452 52.2128 8.30451C52.1909 8.46382 52.136 8.61689 52.0514 8.75404C51.9669 8.89119 51.8546 9.00943 51.7215 9.10127C51.5885 9.19311 51.4378 9.25655 51.2788 9.28758C51.1197 9.31861 50.956 9.31654 50.7978 9.28152C50.6397 9.24649 50.4906 9.17928 50.36 9.08412L50.3131 9.0609Z" fill="white" stroke="white" stroke-width="2"/>
<path d="M61.0591 23.9522C60.1589 21.0259 58.5513 18.3623 56.3764 16.1933C54.1698 13.991 51.4279 12.3908 48.4158 11.5473C45.3602 10.6994 42.1377 10.6354 39.0504 11.3615C35.9293 12.1241 33.0538 13.6586 30.6919 15.8216L29.8255 16.7741L30.645 15.7752C32.9144 13.4308 35.752 11.7031 38.8866 10.7575C42.0719 9.80977 45.4478 9.68185 48.6967 10.3858C51.9841 11.0994 55.0365 12.6257 57.5704 14.8228C60.0948 17.0841 62.0375 19.9117 63.2365 23.0695C63.3056 23.2138 63.344 23.3707 63.3492 23.5304C63.3544 23.6901 63.3263 23.8492 63.2667 23.9976C63.2071 24.1461 63.1173 24.2807 63.0029 24.3932C62.8885 24.5056 62.7519 24.5934 62.6017 24.6511C62.4515 24.7088 62.291 24.7351 62.1301 24.7284C61.9692 24.7217 61.8113 24.6821 61.6666 24.6122C61.5218 24.5422 61.393 24.4434 61.2885 24.3218C61.184 24.2002 61.1059 24.0586 61.0591 23.9057V23.9522Z" fill="white" stroke="white" stroke-width="2"/>
<path d="M61.0124 42.3498C61.9914 39.4421 62.272 36.3477 61.8319 33.3133C61.3173 30.2699 60.0278 27.4073 58.0857 24.9969C56.1203 22.5368 53.5588 20.6107 50.6403 19.3985C47.6757 18.201 44.4534 17.7693 41.2749 18.144L40.0106 18.3763L41.2749 18.0743C44.4921 17.4986 47.8041 17.7465 50.8978 18.7945C54.0009 19.9065 56.7767 21.7664 58.9754 24.2071C61.2305 26.6976 62.8027 29.7213 63.5411 32.988C64.2304 36.2697 64.1422 39.6652 63.2835 42.9073C63.2112 43.2056 63.023 43.4634 62.7598 43.6244C62.4966 43.7855 62.1798 43.8367 61.8787 43.7668C61.7282 43.7342 61.586 43.6718 61.4603 43.5834C61.3347 43.495 61.2283 43.3824 61.1474 43.2523C61.0666 43.1223 61.0129 42.9774 60.9898 42.8263C60.9666 42.6752 60.9743 42.5211 61.0124 42.373V42.3498Z" fill="white" stroke="white" stroke-width="2"/>
<path d="M50.102 57.2884L50.9682 56.4753C53.4257 54.694 55.3513 52.2858 56.5406 49.5063C57.7084 46.6028 58.1314 43.4571 57.7718 40.3514C57.4122 37.2457 56.2812 34.2772 54.4803 31.7121C52.6204 29.1173 50.1432 27.0186 47.269 25.6025C50.3182 26.8328 52.997 28.8211 55.0473 31.3762C57.0976 33.9312 58.4505 36.9669 58.9757 40.191C59.5636 43.4784 59.2977 46.8602 58.203 50.0174C57.0815 53.2382 55.0889 56.0911 52.4433 58.264L51.6238 59.1468C51.517 59.255 51.3895 59.3409 51.2488 59.3995C51.1081 59.4582 50.957 59.4884 50.8044 59.4884C50.6518 59.4884 50.5007 59.4582 50.36 59.3995C50.2193 59.3409 50.0917 59.255 49.9849 59.1468C49.8752 59.0388 49.7881 58.9103 49.7287 58.7688C49.6693 58.6273 49.6387 58.4754 49.6387 58.3221C49.6387 58.1688 49.6693 58.0169 49.7287 57.8754C49.7881 57.7339 49.8752 57.6055 49.9849 57.4975L50.102 57.2884Z" fill="white" stroke="white" stroke-width="2"/>
<path d="M32.5189 62.769H33.7831C36.8641 62.6193 39.8619 61.7262 42.5164 60.1672C45.1793 58.5476 47.3862 56.2861 48.9316 53.593C50.4624 50.8481 51.2678 47.7634 51.273 44.6263C51.2347 41.427 50.4323 38.2823 48.9316 35.4504C50.5987 38.2348 51.5775 41.3712 51.7881 44.603C51.9625 47.8874 51.2769 51.1606 49.7979 54.1041C48.3221 57.1104 46.088 59.6872 43.3124 61.5842C40.522 63.4709 37.3048 64.6439 33.947 64.999H32.5891C32.4365 65.0052 32.2841 64.9812 32.141 64.9282C31.9979 64.8752 31.867 64.7945 31.7557 64.6906C31.6445 64.5868 31.5553 64.4619 31.4934 64.3234C31.4314 64.1849 31.398 64.0355 31.395 63.884C31.3887 63.7315 31.4128 63.5791 31.4659 63.4358C31.519 63.2925 31.6001 63.161 31.7044 63.0488C31.8088 62.9366 31.9345 62.846 32.0742 62.782C32.2139 62.718 32.3651 62.682 32.5189 62.676V62.769Z" fill="white" stroke="white" stroke-width="2"/>
<path d="M14.8409 57.1024L16.9481 58.3568C17.6099 58.7932 18.3162 59.1592 19.0553 59.4486C19.7708 59.773 20.5155 60.0297 21.2796 60.2152C22.0441 60.4404 22.8278 60.5959 23.6209 60.6798C26.7975 61.1118 30.0327 60.6865 32.9863 59.4486C36.0082 58.2025 38.6423 56.1823 40.6191 53.5946C42.6191 50.9616 43.8868 47.8534 44.295 44.5814C44.0699 47.9484 42.9505 51.1964 41.0506 53.9954C39.1508 56.7943 36.538 59.0444 33.4779 60.5172C30.3482 62.0165 26.8764 62.6734 23.4102 62.4221C22.5352 62.3683 21.6661 62.2439 20.8113 62.0504C19.9469 61.8923 19.1 61.6511 18.2827 61.3303C17.4671 61.065 16.6823 60.7146 15.9413 60.2849L13.6 59.1234C13.3236 58.9786 13.1166 58.7308 13.0244 58.4346C12.9322 58.1383 12.9624 57.8179 13.1083 57.5438C13.2542 57.2696 13.504 57.0642 13.8025 56.9727C14.1011 56.8812 14.4241 56.9112 14.7004 57.0559L14.8409 57.1024Z" fill="white" stroke="white" stroke-width="2"/>
<path d="M3.97774 42.2345C5.40594 46.8439 8.60961 50.7079 12.8927 52.9871C17.1759 55.2663 22.1925 55.7766 26.8526 54.4071C30.0195 53.437 32.8871 51.6868 35.1878 49.3197C32.9885 51.8457 30.1876 53.7862 27.0399 54.9646C23.8212 56.103 20.3577 56.3833 16.9956 55.7776C13.5473 55.1589 10.3201 53.662 7.63023 51.4336C4.98211 49.1668 2.93926 46.2861 1.6832 43.0475C1.56832 42.7611 1.57283 42.4411 1.69578 42.1579C1.81872 41.8747 2.05003 41.6516 2.33877 41.5376C2.62752 41.4236 2.95009 41.4281 3.2355 41.5501C3.5209 41.6721 3.74575 41.9016 3.86063 42.188L3.97774 42.2345Z" fill="white" stroke="white" stroke-width="2"/>
<path d="M4.02471 23.8132C3.07992 26.7366 2.82358 29.836 3.27546 32.873C3.78522 35.9249 5.075 38.7961 7.02162 41.2126C9.00073 43.6672 11.58 45.5784 14.5139 46.7646C17.4927 47.909 20.6998 48.3466 23.8793 48.0422L25.0031 47.7867L23.8793 48.1119C20.6483 48.6244 17.3406 48.3615 14.233 47.3453C11.0664 46.2699 8.2307 44.4069 5.99672 41.9341C3.76273 39.4614 2.20509 36.4617 1.47266 33.2214C0.784512 29.9273 0.848482 26.5221 1.65993 23.2557C1.69285 23.1065 1.75576 22.9653 1.84485 22.8406C1.93394 22.716 2.04743 22.6104 2.17853 22.5302C2.30963 22.45 2.45562 22.3968 2.60789 22.3738C2.76015 22.3508 2.91553 22.3584 3.06475 22.3962C3.36541 22.4679 3.62525 22.6547 3.78756 22.9159C3.94987 23.177 4.00145 23.4913 3.93104 23.79L4.02471 23.8132Z" fill="white" stroke="white" stroke-width="2"/>
<path d="M14.9353 9.01442L13.9286 9.68807C11.525 11.608 9.62849 14.0796 8.40296 16.8894C7.2037 19.7514 6.7605 22.8697 7.11525 25.9491C7.47586 29.0749 8.61874 32.0616 10.4399 34.6372C12.3436 37.2096 14.8298 39.3024 17.6981 40.7467C14.706 39.4492 12.0663 37.467 9.99505 34.9624C7.9229 32.3984 6.54484 29.352 5.99138 26.1118C5.41563 22.8112 5.70594 19.4192 6.8343 16.2622C7.99723 13.0785 9.93566 10.2296 12.4769 7.96907L13.4368 7.24894C13.5555 7.13345 13.6975 7.04433 13.8535 6.98753C14.0096 6.93073 14.176 6.90754 14.3418 6.91951C14.5075 6.93147 14.6688 6.97832 14.8149 7.05693C14.961 7.13554 15.0886 7.2441 15.1891 7.37542C15.2896 7.50673 15.3608 7.6578 15.3979 7.81853C15.435 7.97926 15.4372 8.14598 15.4043 8.30762C15.3715 8.46926 15.3043 8.6221 15.2073 8.75598C15.1102 8.88986 14.9856 9.00173 14.8416 9.08411L14.9353 9.01442Z" fill="white" stroke="white" stroke-width="2"/>
<path d="M32.518 3.36944H31.4878C28.5106 3.47326 25.5995 4.26893 22.9887 5.69245C20.3575 7.18832 18.1444 9.31228 16.55 11.8717C14.9455 14.4697 14.02 17.4241 13.8575 20.4668C13.7025 23.5606 14.2798 26.6474 15.5433 29.4801L16.0817 30.479L15.4964 29.5265C14.0168 26.7283 13.2151 23.6262 13.1551 20.4668C13.1399 17.2379 13.9423 14.0569 15.4887 11.2157C17.035 8.37451 19.2758 5.96412 22.0053 4.20573C24.781 2.42741 27.9428 1.32869 31.2302 1H32.3541C32.6646 1 32.9623 1.12235 33.1819 1.34018C33.4014 1.558 33.5248 1.85345 33.5248 2.1615C33.5248 2.46955 33.4014 2.76497 33.1819 2.9828C32.9623 3.20062 32.6646 3.32301 32.3541 3.32301L32.518 3.36944Z" fill="white" stroke="white" stroke-width="2"/>
</svg>
