<svg width="61" height="62" viewBox="0 0 61 62" fill="none" xmlns="http://www.w3.org/2000/svg">
<path d="M47.0812 8.57228L45.7867 7.59432C45.326 7.33353 44.9091 7.05105 44.4484 6.812C43.5053 6.33549 42.5215 5.94283 41.5084 5.63852C39.4331 5.02435 37.261 4.79595 35.1018 4.96484C32.9154 5.14155 30.7808 5.71613 28.8049 6.65986C26.7859 7.58466 24.9791 8.90837 23.4953 10.5498C24.8768 8.78225 26.5997 7.30474 28.5635 6.20344C31.0736 4.75827 33.888 3.90995 36.7853 3.72517C39.6826 3.54039 42.5837 4.02421 45.2602 5.1386C45.8087 5.35591 46.3572 5.66013 46.9057 5.92091L48.3538 6.83375C48.5978 6.98964 48.7695 7.23497 48.8312 7.51606C48.8929 7.79715 48.8396 8.09107 48.6829 8.33326C48.6088 8.457 48.5102 8.56452 48.393 8.64948C48.2758 8.73443 48.1424 8.79499 48.0009 8.82748C47.8594 8.85998 47.7128 8.86382 47.5698 8.83862C47.4268 8.81343 47.2905 8.75974 47.169 8.68091L47.0812 8.57228Z" fill="white" stroke="white" stroke-width="2"/>
<path d="M57.2181 22.3943L56.7573 20.9383C55.3324 17.4448 52.8389 14.4809 49.6266 12.4628C46.2625 10.5088 42.3641 9.64981 38.481 10.0071L37.0109 10.3331L38.437 9.8767C42.4134 9.19318 46.5062 9.77124 50.1313 11.5283C53.7861 13.4285 56.7478 16.4153 58.6002 20.069L59.1927 21.4816C59.3032 21.7496 59.3017 22.0502 59.1886 22.3171C59.0754 22.5841 58.8599 22.7955 58.5893 22.905C58.3187 23.0145 58.0153 23.0131 57.7458 22.901C57.4763 22.7889 57.2627 22.5754 57.1522 22.3074C57.1522 22.3074 57.2181 22.4378 57.2181 22.3943Z" fill="white" stroke="white" stroke-width="2"/>
<path d="M57.1961 39.6067C57.9405 37.6264 58.3051 35.526 58.2711 33.4131C58.2468 31.2901 57.7994 29.1927 56.9547 27.2413C55.2065 23.204 52.0093 19.952 47.9811 18.1139C52.2763 19.6853 55.8272 22.7841 57.942 26.8067C59.0275 28.8298 59.6986 31.0454 59.9166 33.3263C60.1338 35.6261 59.9256 37.9459 59.3023 40.1717C59.2663 40.3144 59.2022 40.4487 59.1138 40.5669C59.0254 40.6851 58.9144 40.7849 58.7871 40.8605C58.6598 40.9362 58.5186 40.9863 58.3718 41.0079C58.2249 41.0296 58.0751 41.0224 57.931 40.9867C57.787 40.951 57.6514 40.8876 57.5321 40.8001C57.4128 40.7125 57.3121 40.6025 57.2357 40.4764C57.1593 40.3503 57.1087 40.2104 57.0869 40.065C57.065 39.9195 57.0723 39.7711 57.1083 39.6284L57.1961 39.6067Z" fill="white" stroke="white" stroke-width="2"/>
<path d="M47.0378 53.5143C47.9268 52.9361 48.7572 52.2738 49.517 51.5367C50.2776 50.8088 50.9545 49.9997 51.5355 49.1244C52.7602 47.3745 53.6455 45.4143 54.1464 43.3437C54.6572 41.2084 54.7614 38.9974 54.4536 36.8242C54.1546 34.6403 53.408 32.5399 52.2596 30.6522C53.5562 32.4734 54.4667 34.5361 54.9363 36.7155C55.4153 38.9301 55.4896 41.2118 55.1557 43.4524C54.5866 46.8877 53.0677 50.0997 50.7677 52.7319C49.9985 53.6001 49.1542 54.3999 48.2445 55.1224C48.1321 55.2123 48.003 55.2794 47.8644 55.3199C47.7259 55.3604 47.5807 55.3734 47.437 55.3582C47.2934 55.3431 47.1542 55.3001 47.0273 55.2317C46.9005 55.1633 46.7885 55.0707 46.6977 54.9594C46.6069 54.8481 46.5392 54.7202 46.4984 54.583C46.4575 54.4457 46.4443 54.302 46.4596 54.1597C46.4749 54.0174 46.5183 53.8795 46.5874 53.7538C46.6565 53.6282 46.7499 53.5173 46.8623 53.4274L47.0378 53.5143Z" fill="white" stroke="white" stroke-width="2"/>
<path d="M30.3848 58.8829C31.5257 58.8829 32.5789 58.8829 33.632 58.6873C34.6763 58.5438 35.7046 58.3037 36.7036 57.9701C39.8073 56.871 42.5357 54.9286 44.5767 52.3651C46.6177 49.8016 47.8887 46.7206 48.2442 43.4749C48.1188 48.0098 46.2327 52.322 42.9786 55.5144C41.3451 57.1498 39.418 58.4692 37.296 59.4045C36.2278 59.8863 35.1095 60.2507 33.9611 60.4911C32.7983 60.7301 31.6354 60.8605 30.5603 60.9909C30.2694 61.0283 29.9753 60.9498 29.7428 60.7725C29.5104 60.5952 29.3585 60.3337 29.3207 60.0455C29.2828 59.7573 29.3622 59.466 29.5412 59.2357C29.7201 59.0055 29.9841 58.8551 30.2751 58.8177L30.3848 58.8829Z" fill="white" stroke="white" stroke-width="2"/>
<path d="M13.9953 53.4703L15.2897 54.4483C15.7285 54.7091 16.1454 54.9917 16.6062 55.209C17.5487 55.6924 18.5325 56.0924 19.5462 56.4042C21.6114 56.9946 23.7634 57.2298 25.9089 57.0997C28.0822 56.9287 30.2035 56.3536 32.1619 55.4045C34.1302 54.3985 35.9169 53.0767 37.4495 51.4928C36.0285 53.2065 34.3307 54.6751 32.4252 55.8392C30.4574 56.9625 28.2897 57.7003 26.0405 58.0124C23.7511 58.3608 21.4168 58.2945 19.1513 57.8167C18.0021 57.5825 16.8781 57.2405 15.7944 56.7954C15.2459 56.5781 14.7193 56.2739 14.1708 56.0131L12.7227 55.1002C12.4948 54.9376 12.3386 54.6946 12.2862 54.4213C12.2338 54.1479 12.2892 53.8651 12.4411 53.6311C12.593 53.3971 12.8298 53.2296 13.1026 53.1633C13.3754 53.097 13.6635 53.137 13.9075 53.2748L13.9953 53.4703Z" fill="white" stroke="white" stroke-width="2"/>
<path d="M3.72715 39.5192L4.18788 40.9752C5.68264 44.7379 8.43076 47.8818 11.9767 49.8854C13.771 50.9029 15.744 51.5739 17.7909 51.8629C19.8715 52.1307 21.9817 52.0722 24.0439 51.6891C21.9854 52.237 19.8548 52.4713 17.7251 52.3844C15.5663 52.2454 13.4529 51.7074 11.494 50.7981C7.48904 48.9279 4.24665 45.7623 2.30098 41.8228L1.70861 40.4103C1.65387 40.2776 1.62603 40.1354 1.62672 39.992C1.62742 39.8487 1.65667 39.7069 1.71269 39.5748C1.76872 39.4426 1.85044 39.3225 1.95327 39.2217C2.0561 39.1208 2.17798 39.041 2.31196 38.9868C2.44593 38.9325 2.58939 38.905 2.73412 38.9057C2.87885 38.9064 3.02203 38.9352 3.15548 38.9907C3.28892 39.0462 3.41004 39.1272 3.51189 39.2291C3.61374 39.3309 3.6943 39.4517 3.74905 39.5844L3.72715 39.5192Z" fill="white" stroke="white" stroke-width="2"/>
<path d="M3.77059 22.2862C2.65828 25.3162 2.42637 28.5945 3.10123 31.7485C3.77608 34.9024 5.33062 37.8057 7.5882 40.1282C9.1549 41.6821 10.9715 42.9673 12.9636 43.9313C10.8693 43.1184 8.92653 41.9653 7.21525 40.5194C5.50456 39.0158 4.09101 37.2103 3.04659 35.195C2.00989 33.1539 1.34863 30.9462 1.09386 28.6754C0.869683 26.3734 1.04779 24.0503 1.62041 21.8082C1.6538 21.6677 1.71513 21.5351 1.80079 21.4184C1.88645 21.3016 1.99478 21.2029 2.11937 21.128C2.24397 21.0531 2.38234 21.0036 2.52647 20.9824C2.6706 20.9611 2.81759 20.9684 2.95881 21.004C3.24224 21.0759 3.48594 21.255 3.63768 21.5028C3.78943 21.7506 3.83713 22.0475 3.77059 22.3297V22.2862Z" fill="white" stroke="white" stroke-width="2"/>
<path d="M14.0392 8.55089C12.3328 9.62172 10.8443 11.0002 9.65116 12.6147C8.46148 14.2256 7.57684 16.037 7.04025 17.9609C5.90318 21.9433 6.23775 26.1969 7.98373 29.9569L8.7297 31.2825L7.89595 30.0221C5.81695 26.2729 5.1262 21.922 5.94323 17.7218C6.79687 13.4157 9.18809 9.55818 12.6789 6.85586C12.9101 6.70064 13.1922 6.63852 13.468 6.68224C13.7437 6.72595 13.9922 6.87211 14.1629 7.09104C14.3336 7.30996 14.4135 7.5852 14.3865 7.86049C14.3594 8.13577 14.2274 8.39042 14.0173 8.57264L14.0392 8.55089Z" fill="white" stroke="white" stroke-width="2"/>
<path d="M30.5822 3.16068C29.4852 3.16068 28.3882 3.16071 27.5106 3.33457C26.521 3.45901 25.5445 3.66986 24.5924 3.96475C22.6792 4.5886 20.89 5.53716 19.3048 6.76812C16.0419 9.32803 13.7775 12.9306 12.8983 16.9604L12.7008 18.5252V16.9604C13.1425 13.7782 14.4125 10.7645 16.3858 8.2155C18.3592 5.6665 20.9681 3.66987 23.9562 2.42173C24.9866 2.01196 26.051 1.692 27.1375 1.46552C28.2346 1.26993 29.3316 1.16136 30.297 1.00923C30.5874 0.971885 30.8811 1.04873 31.1149 1.22345C31.3487 1.39816 31.5041 1.6568 31.5476 1.94369C31.5853 2.23139 31.5076 2.52227 31.3312 2.75386C31.1548 2.98546 30.8938 3.13934 30.6042 3.18243L30.5822 3.16068Z" fill="white" stroke="white" stroke-width="2"/>
</svg>
