<svg width="63" height="64" viewBox="0 0 63 64" fill="none" xmlns="http://www.w3.org/2000/svg">
<path d="M48.7708 8.79667C47.629 7.95919 46.4267 7.20595 45.1733 6.54305C43.9093 5.93831 42.5802 5.47717 41.2114 5.16837C38.4128 4.50242 35.4945 4.50242 32.6958 5.16837L31.7168 5.50633L32.6503 5.05572C35.4283 3.97932 38.4265 3.57743 41.3936 3.88379C42.9067 4.02127 44.3974 4.33904 45.8335 4.83027C47.2325 5.36366 48.5941 5.98858 49.9092 6.70082C50.184 6.82634 50.3971 7.0547 50.5017 7.33575C50.6063 7.6168 50.5939 7.92748 50.467 8.19943C50.3402 8.47138 50.1095 8.6824 49.8256 8.78594C49.5416 8.88949 49.2277 8.87707 48.953 8.75155H48.8163L48.7708 8.79667Z" fill="white" stroke="white" stroke-width="2"/>
<path d="M59.2003 23.2204C58.8249 21.8066 58.2742 20.4439 57.5609 19.1638C56.8473 17.8812 55.9837 16.6862 54.988 15.6032C52.9228 13.3865 50.3213 11.7267 47.4287 10.7804C50.5065 11.3928 53.3751 12.7736 55.7622 14.7918C56.9793 15.8203 58.0719 16.985 59.0181 18.2624C59.9337 19.5626 60.6976 20.9612 61.295 22.4316V22.4316C61.3518 22.5692 61.3807 22.7166 61.38 22.8653C61.3793 23.0139 61.349 23.1609 61.2909 23.298C61.2327 23.4351 61.1478 23.5596 61.0411 23.6642C60.9344 23.7688 60.8079 23.8515 60.6689 23.9078C60.5299 23.964 60.381 23.9925 60.2308 23.9918C60.0806 23.9911 59.932 23.9612 59.7935 23.9036C59.655 23.8461 59.5293 23.7621 59.4236 23.6565C59.318 23.5508 59.2343 23.4256 59.1775 23.288C59.1775 23.288 59.2231 23.2655 59.2003 23.2204Z" fill="white" stroke="white" stroke-width="2"/>
<path d="M59.1542 41.0705C59.681 39.7011 60.0626 38.2812 60.2927 36.8337C60.4832 35.3372 60.4832 33.8229 60.2927 32.3264C59.9367 29.3324 58.7989 26.4819 56.9912 24.0557C59.1558 26.313 60.6795 29.0961 61.4083 32.1235C61.801 33.6558 61.9999 35.2304 62.0004 36.8111C61.9546 38.3901 61.7487 39.9605 61.3856 41.4987C61.3602 41.6466 61.3056 41.7882 61.2249 41.9153C61.1442 42.0424 61.039 42.1525 60.9153 42.2394C60.7916 42.3262 60.6518 42.3881 60.504 42.4215C60.3561 42.4549 60.2031 42.459 60.0536 42.4339C59.9041 42.4087 59.7611 42.3547 59.6327 42.2749C59.5043 42.195 59.393 42.0908 59.3053 41.9684C59.2175 41.846 59.155 41.7077 59.1213 41.5614C59.0876 41.4151 59.0833 41.2636 59.1087 41.1156C59.1087 41.1156 59.1087 41.1156 59.1087 40.9804L59.1542 41.0705Z" fill="white" stroke="white" stroke-width="2"/>
<path d="M48.6112 55.4932C49.8375 54.6821 50.9678 53.7371 51.981 52.6762C54.0223 50.509 55.4925 47.8773 56.2616 45.0138C56.6338 43.539 56.8324 42.0266 56.8535 40.5066C57.0176 42.0046 57.0176 43.5158 56.8535 45.0138C56.628 46.5597 56.2153 48.073 55.6241 49.5211C55.0409 50.984 54.276 52.3694 53.3472 53.6452C52.4081 54.9283 51.3232 56.1003 50.1139 57.1383V57.1383C50.0081 57.2439 49.8822 57.3278 49.7434 57.385C49.6047 57.4422 49.456 57.4716 49.3057 57.4716C49.1554 57.4716 49.0066 57.4422 48.8678 57.385C48.7291 57.3278 48.6032 57.2439 48.4973 57.1383C48.2888 56.9277 48.1719 56.6444 48.1719 56.3495C48.1719 56.0545 48.2888 55.7714 48.4973 55.5608L48.6112 55.4932Z" fill="white" stroke="white" stroke-width="2"/>
<path d="M31.4442 60.902H32.537C35.1649 60.9046 37.7638 60.3593 40.1647 59.3019C42.5948 58.1439 44.7575 56.5022 46.5172 54.4792V54.4792L47.132 53.5552L46.6539 54.5468C45.1181 56.8878 43.0747 58.861 40.6723 60.3228C38.2698 61.7846 35.5686 62.6984 32.7647 62.9979V62.9979H31.6718C31.5222 63.007 31.3724 62.9869 31.2307 62.9386C31.089 62.8903 30.9584 62.8147 30.8463 62.7163C30.7341 62.6179 30.6428 62.4986 30.5773 62.3651C30.5119 62.2317 30.4738 62.0868 30.4651 61.9387C30.4558 61.7907 30.4762 61.6422 30.525 61.502C30.5738 61.3618 30.6502 61.2325 30.7496 61.1215C30.849 61.0106 30.9696 60.9201 31.1044 60.8554C31.2392 60.7906 31.3856 60.7529 31.5352 60.7442L31.4442 60.902Z" fill="white" stroke="white" stroke-width="2"/>
<path d="M14.3441 55.4472L15.2548 56.1684C17.3926 57.7007 19.8494 58.7407 22.4455 59.2125C25.0415 59.6843 27.7113 59.5758 30.2596 58.8952V58.8952L31.3753 58.6925L30.3052 59.0304C27.705 60.0571 24.9056 60.495 22.1123 60.3117C19.3189 60.1284 16.6024 59.3287 14.1619 57.9713V57.9713L13.1601 57.3628C12.9035 57.2044 12.7208 56.9516 12.6525 56.66C12.5842 56.3684 12.6358 56.0618 12.7958 55.8077C12.9558 55.5537 13.2112 55.373 13.5059 55.3054C13.8005 55.2378 14.1102 55.2888 14.3669 55.4472C14.3593 55.4476 14.3517 55.4476 14.3441 55.4472V55.4472Z" fill="white" stroke="white" stroke-width="2"/>
<path d="M3.68876 40.9577C4.03885 42.295 4.54308 43.5879 5.19152 44.8113C5.84883 46.0288 6.65146 47.1637 7.58224 48.1917C9.4504 50.3074 11.7884 51.9659 14.4129 53.0371V53.0371L15.4831 53.3751L14.3674 53.1723C10.0015 52.0196 6.18726 49.3778 3.59766 45.7128C2.74077 44.4678 2.01588 43.1386 1.43458 41.7464C1.31893 41.4709 1.31604 41.1616 1.42652 40.8841C1.53699 40.6065 1.75219 40.3825 2.02659 40.2591C2.30825 40.1518 2.62065 40.155 2.89996 40.2681C3.17926 40.3812 3.40439 40.5956 3.52936 40.8674L3.68876 40.9577Z" fill="white" stroke="white" stroke-width="2"/>
<path d="M3.73449 23.0858C3.23911 24.4756 2.88073 25.9095 2.66435 27.3676C2.47386 28.8641 2.47386 30.3783 2.66435 31.8748C3.0918 34.871 4.20546 37.7308 5.9203 40.2358C3.84768 37.8946 2.35137 35.11 1.54869 32.1003C1.16127 30.5526 0.977553 28.9618 1.00219 27.3676C1.02646 25.7847 1.20183 24.2078 1.5259 22.6576V22.6576C1.58628 22.3587 1.76416 22.0958 2.02036 21.9268C2.27656 21.7577 2.59012 21.6963 2.89205 21.7561C3.19399 21.8159 3.45953 21.9919 3.63033 22.2455C3.80114 22.4991 3.86319 22.8094 3.8028 23.1082C3.8028 23.1082 3.73449 23.0632 3.73449 23.0858Z" fill="white" stroke="white" stroke-width="2"/>
<path d="M14.3448 8.72926L13.3429 9.33764C11.142 11.0566 9.32087 13.2042 7.99219 15.6478C7.32377 16.8962 6.81153 18.2205 6.4667 19.5916C6.15378 20.9837 5.97837 22.4027 5.94299 23.8284C5.79504 22.3898 5.79504 20.9401 5.94299 19.5015C6.12699 18.0373 6.48623 16.5998 7.01314 15.2196C8.11379 12.4232 9.78844 9.88327 11.9313 7.76008V7.76008L12.842 7.03904C13.0772 6.885 13.3618 6.82284 13.6407 6.86463C13.9195 6.90641 14.1728 7.04913 14.3514 7.26517C14.53 7.48122 14.6212 7.75513 14.6073 8.03394C14.5935 8.31275 14.4756 8.57655 14.2765 8.77424C14.2963 8.75524 14.3194 8.74006 14.3448 8.72926V8.72926Z" fill="white" stroke="white" stroke-width="2"/>
<path d="M31.4442 3.25385C29.9902 3.12137 28.5243 3.20504 27.0953 3.50185C25.6455 3.7824 24.2378 4.24431 22.9058 4.87653C20.1602 6.2036 17.7545 8.12997 15.8701 10.5106C17.5009 7.85962 19.7104 5.60347 22.3366 3.90749C23.6824 3.04063 25.1367 2.35114 26.6627 1.85662C28.2052 1.33959 29.8164 1.051 31.4442 1.00023V1.00023C31.5937 0.99724 31.7423 1.02351 31.8816 1.07739C32.0209 1.13128 32.1481 1.21171 32.2559 1.31426C32.3637 1.4168 32.4501 1.53946 32.5101 1.67505C32.5701 1.81064 32.6024 1.95664 32.6054 2.10462C32.6115 2.25338 32.5872 2.40184 32.5339 2.54107C32.4805 2.68029 32.3994 2.80729 32.2952 2.91465C32.1909 3.02202 32.0659 3.10753 31.9275 3.16582C31.789 3.22411 31.6401 3.25398 31.4897 3.25385H31.4442Z" fill="white" stroke="white" stroke-width="2"/>
</svg>
