<svg width="200" height="200" viewBox="0 0 200 200" fill="none" xmlns="http://www.w3.org/2000/svg">
<mask id="mask0_2127_12043" style="mask-type:alpha" maskUnits="userSpaceOnUse" x="0" y="0" width="200" height="200">
<rect width="200" height="200" fill="#D9D9D9"/>
</mask>
<g mask="url(#mask0_2127_12043)">
<rect opacity="0.8" width="200" height="200" fill="#D9D9D9"/>
<path opacity="0.7" d="M21.5 106C9.9 114.4 -8.33333 153.5 -16 172L-7.5 215.5L215 222L226.5 140C151 174 161.5 68.5 152 25C144.4 -9.80003 136.833 10.5 134 25C131.167 56 122.1 122.4 108.5 140C94.9 157.6 78.1667 147.333 71.5 140C59.6667 125.167 33.1 97.6 21.5 106Z" fill="#13FFDA"/>
<path opacity="0.7" d="M41 127.5C17.5 164.5 9.33333 164.833 -11.5 159.5L-15 209L219.5 218L230 155.5C217.167 157.5 190.4 153.9 186 123.5C181.6 93.1002 175.167 110.833 172.5 123.5C166.333 152 141.5 161.9 123.5 93.5002C101 8.00016 59.5274 98.3296 41 127.5Z" fill="#237EFF"/>
</g>
</svg>
