<svg width="43" height="43" viewBox="0 0 43 43" fill="none" xmlns="http://www.w3.org/2000/svg">
<rect x="1.5" y="1.5" width="40" height="40" rx="13.5" fill="#D9D9D9" fill-opacity="0.2" stroke="#FFF761" stroke-width="3"/>
<path d="M4.93934 19.9393C4.35355 20.5251 4.35355 21.4749 4.93934 22.0607L14.4853 31.6066C15.0711 32.1924 16.0208 32.1924 16.6066 31.6066C17.1924 31.0208 17.1924 30.0711 16.6066 29.4853L8.12132 21L16.6066 12.5147C17.1924 11.9289 17.1924 10.9792 16.6066 10.3934C16.0208 9.80761 15.0711 9.80761 14.4853 10.3934L4.93934 19.9393ZM39.0607 22.0607C39.6464 21.4749 39.6464 20.5251 39.0607 19.9393L29.5147 10.3934C28.9289 9.80761 27.9792 9.80761 27.3934 10.3934C26.8076 10.9792 26.8076 11.9289 27.3934 12.5147L35.8787 21L27.3934 29.4853C26.8076 30.0711 26.8076 31.0208 27.3934 31.6066C27.9792 32.1924 28.9289 32.1924 29.5147 31.6066L39.0607 22.0607ZM6 22.5L38 22.5V19.5L6 19.5V22.5Z" fill="#FFF761"/>
</svg>
