<svg width="206" height="150" viewBox="0 0 206 150" fill="none" xmlns="http://www.w3.org/2000/svg">
<path d="M170.577 72.4724C168.213 74.8235 165.717 74.4097 163.228 74.1273C163.248 73.4509 163.708 73.4706 164.121 73.3918C165.895 73.0437 167.05 71.9733 167.523 70.2526C167.72 69.5302 167.018 69.2478 166.518 69.2872C164.791 69.4316 163.018 69.4776 161.803 71.0998C161.356 71.6974 161.994 73.9697 160.01 72.4855C158.677 71.4872 158.23 70.0424 159.491 68.8209C161.882 66.5092 164.85 66.7128 167.793 67.5337C170.367 68.2496 172.409 69.6287 172.784 72.5249C173.125 75.1584 171.352 77.2337 167.766 77.9759C161.383 79.2959 155.163 78.9215 149.358 75.5459C147.664 74.5608 145.903 73.6742 144.163 72.7679C141.142 71.1983 138.318 70.535 135.698 73.7071C134.371 75.3161 132.513 75.0205 130.588 74.2324C125.656 72.2162 122.011 74.1142 120.435 79.0857C119.759 81.207 120.081 82.2577 122.484 82.0935C124.12 81.9819 125.558 82.3365 126.359 83.9324C126.825 84.8716 126.884 85.8435 126.031 86.6382C125.302 87.3146 124.441 87.4459 123.634 86.8614C120.251 84.4315 116.219 83.8011 112.351 82.7109C109.934 82.0279 109.225 80.0774 108.988 77.9627C108.542 73.9632 110.17 70.7386 113.71 68.9851C122.346 64.6966 131.475 62.9497 141.03 65.0775C144.61 65.8722 147.861 67.6848 149.929 70.8174C152.582 74.8301 156.392 76.0581 160.857 76.1041C162.933 76.1238 165.021 76.2486 167.083 76.0713C168.843 75.9334 170.63 75.5065 170.577 72.4724ZM144.34 68.9588C144.491 69.3528 144.662 69.7075 145.129 69.2544C144.853 69.169 144.577 69.0836 144.301 68.9982C141.825 67.4155 139.257 66.7981 136.256 67.4943C134.273 67.954 132.112 67.9606 130.07 67.7636C124.789 67.2513 119.995 68.7224 115.529 71.2574C113.145 72.6102 111.563 74.8694 112.43 77.8445C113.29 80.7866 115.766 81.3974 118.531 81.7258C117.296 75.454 119.227 72.7285 125.308 71.5464C127.285 71.1655 129.439 71.3362 131.843 69.8651C129.866 69.6878 128.579 69.5761 126.49 69.3923C132.953 67.3826 138.647 68.1313 144.34 68.9588Z" fill="#5CB2A4"/>
<path d="M143.014 9.87883C146.239 3.65297 151.204 0.0802919 158.356 0.00148347C161.173 -0.0313534 163.839 0.461212 165.173 3.4625C165.527 4.26372 166.151 4.54612 167.005 4.53298C167.99 4.51985 168.975 4.53955 169.954 4.61179C175.858 5.04524 175.969 5.15034 177.316 10.9559C177.342 11.061 177.335 11.1726 177.362 11.2777C180.028 21.0237 179.634 21.4702 171.11 26.9343C166.683 29.7714 162.211 30.7828 157.134 30.1064C146.147 28.6418 140.735 31.7745 136.71 41.8422C136.329 30.9667 144.794 26.2579 153.332 26.5665C155.072 26.6322 156.812 26.9343 158.52 27.2889C162.224 28.0507 165.645 27.8472 168.699 25.2399C169.757 24.3336 171.09 23.6834 172.397 23.1515C175.273 21.9759 176.659 19.8875 176.738 16.8402C176.81 13.9966 176.055 11.6455 173.08 10.575C172.778 10.4634 172.279 10.2795 172.259 10.089C171.747 5.13067 167.747 7.17309 165.133 6.6083C163.472 6.25366 161.692 7.1008 160.838 4.42788C160.359 2.91739 157.942 2.7598 156.136 3.0619C152.793 3.62013 149.818 4.95989 147.795 7.75759C146.548 9.4848 145.031 10.1087 143.021 9.87883H143.014Z" fill="#5CB2A4"/>
<path d="M131.113 57.0723C133.701 52.1861 137.083 48.0159 141.923 45.1853C142.941 44.5877 143.591 44.3775 143.237 42.6306C142.107 37.0943 148.957 31.4858 155.235 32.4709C157.639 32.8453 159.832 33.8172 162.006 34.8352C163.891 35.7218 165.815 35.6692 167.772 35.2752C169.316 34.9665 169.217 33.7515 169.454 32.53C169.637 31.5777 166.032 31.2691 169.119 30.0935C171.01 29.3711 172.882 28.6881 174.57 30.4416C176.402 32.3396 176.119 34.9534 173.617 36.5887C169.493 39.2813 165.001 39.3797 160.443 37.7576C158.703 37.1337 157.054 36.2208 155.288 35.7086C152.195 34.8154 149.174 36.3982 148.07 39.2418C147.781 39.9839 147.486 40.7721 148.011 41.4157C149.128 42.7883 148.95 40.6408 149.476 40.7918C151.255 41.3041 153.337 41.547 154.651 42.6569C155.596 43.4581 155.143 46.026 153.344 45.7896C143.473 44.463 138.094 51.49 131.803 56.8949C131.645 57.0328 131.422 57.092 131.232 57.1905C131.218 57.1839 131.113 57.0723 131.113 57.0723Z" fill="#5CB2A4"/>
<path d="M170.229 140.97C175.726 140.661 181.269 140.747 186.615 139.118C188.526 138.533 190.299 137.614 191.16 135.716C192.059 133.739 192.059 132.018 189.111 132.091C188.881 132.038 188.644 131.986 188.414 131.933C186.392 129.529 183.397 128.938 180.691 127.815C179.509 127.329 178.281 126.968 177.132 126.298C181.827 126.469 186.49 126.975 190.779 128.945C195.882 131.296 196.098 136.156 191.468 139.433C187.298 142.388 182.425 143.15 177.559 143.636C170.019 144.378 162.532 143.669 155.164 141.883C154.79 141.791 154.474 141.449 154.133 141.226C155.61 141.18 157.088 141.134 158.566 141.088C158.71 141.167 158.855 141.246 158.993 141.324C162.198 141.975 165.389 142.073 168.581 141.226L168.647 141.18C169.179 141.108 169.704 141.042 170.229 140.97Z" fill="#5CB2A4"/>
<path d="M101.777 74.6921C101.863 72.7942 101.804 71.1523 102.027 69.5433C102.841 63.7377 105.862 59.6134 111.602 57.9125C113.697 57.2951 114.275 56.5596 113.704 54.2807C112.732 50.3928 114.702 48.068 118.544 47.917C122.235 47.7725 124.113 50.5767 122.602 53.9655C121.493 56.448 119.476 58.1226 117.447 59.7842C117.132 60.0403 116.429 60.3752 116.317 60.2636C114.098 58.0635 112.088 59.6135 110.151 60.6445C107.452 62.0762 105.593 64.3944 104.411 67.1527C103.399 69.5039 102.697 71.9995 101.777 74.6921ZM119.036 52.5403C119.063 51.7326 118.531 51.5028 118.018 51.5422C116.423 51.6669 115.398 52.4681 115.464 54.1888C115.503 55.1345 115.582 56.448 116.856 56.2641C118.964 55.9554 117.289 53.1708 119.036 52.5403Z" fill="#5CB2A4"/>
<path d="M123.996 99.1436C120.66 92.7405 115.235 88.2812 108.635 83.8745C116.47 83.9139 123.74 91.7487 123.97 99.1764L123.996 99.1436Z" fill="#5CB2A4"/>
<path d="M153.39 19.5916C153.725 17.2077 155.61 15.6249 156.51 13.5299C156.91 12.6039 157.462 11.586 155.807 11.3561C154.034 11.1065 152.011 10.9752 152.569 8.42051C152.963 6.62105 154.605 6.03 156.207 6.54882C158.421 7.26467 159.471 9.01812 158.88 11.3561C158.027 14.712 156.313 17.582 153.535 19.7492L153.39 19.5916Z" fill="#5CB2A4"/>
<path d="M165.66 19.769C163.21 20.0448 162.205 18.9284 162.094 17.0238C161.975 15.0076 163.236 14.0291 165.101 13.9109C167.308 13.773 168.7 15.0011 168.891 17.1026C169.114 19.6376 166.98 19.5523 165.66 19.769Z" fill="#5CB2A4"/>
<path d="M173.854 130.016C174.32 132.302 172.488 131.986 171.246 132.275C169.453 132.696 167.825 131.803 166.964 130.594C166.058 129.327 167.332 127.928 168.304 126.923C169.493 125.695 171.095 125.754 172.56 126.214C173.446 126.49 173.473 127.33 172.783 128.04C172.107 128.729 171.246 129.274 170.99 130.325C172.08 131.474 172.901 129.583 173.913 130.069L173.854 130.016Z" fill="#5CB2A4"/>
<path d="M107.577 88.0114C107.59 88.9309 108.115 90.1458 106.979 90.5793C105.823 91.0193 105.41 89.7387 104.825 89.036C103.794 87.8013 102.993 86.3958 101.607 85.4567C100.813 84.9182 99.2298 84.6884 99.9063 83.2107C100.478 81.9695 101.824 81.9957 103.039 82.0942C103.945 82.1665 104.661 82.5999 105.16 83.3749C103.413 86.2514 105.994 86.8753 107.577 88.0114Z" fill="#5CB2A4"/>
<path d="M160.944 81.7061C152.872 82.4811 150.265 82.0805 142.877 78.7705C148.998 79.0792 154.777 81.7586 160.944 81.7061Z" fill="#5CB2A4"/>
<path d="M144.257 22.324C142.996 22.2649 141.604 22.0876 141.604 20.1174C141.604 18.2588 142.707 17.3065 144.421 17.2606C146.023 17.2212 146.969 18.0881 147.068 19.8416C147.166 21.7658 146.056 22.2452 144.257 22.324Z" fill="#5CB2A4"/>
<path d="M173.915 130.068C173.954 129.043 172.996 127.5 175.097 127.5C177.245 127.493 179.819 129.799 179.747 131.69C179.701 132.971 179.451 134.271 178.466 135.256C178.19 135.217 177.908 135.184 177.632 135.144C177.888 130.711 177.698 130.449 173.856 130.009C173.856 130.015 173.915 130.068 173.915 130.068Z" fill="#5CB2A4"/>
<path d="M175.26 137.352C171.103 139.736 166.604 138.574 162.25 138.436C159.8 138.357 157.377 137.588 154.967 136.886C161.711 137.221 168.423 138.324 175.168 137.234L175.26 137.352Z" fill="#547D77"/>
<path d="M111.091 90.0801C112.621 91.8664 114.716 92.4575 115.038 94.697C115.189 95.7543 115.018 96.7131 113.889 97.0546C112.628 97.4355 112.201 96.6081 111.951 95.5179C111.59 93.9548 110.887 92.4575 111.091 90.0801Z" fill="#5CB2A4"/>
<path d="M148.918 138.553C153.463 139.124 157.994 139.774 162.552 140.221C164.607 140.424 166.696 140.221 168.771 140.208C168.732 140.529 168.692 140.851 168.653 141.173L168.587 141.219C165.395 141.252 162.197 141.285 158.999 141.324C158.854 141.245 158.71 141.167 158.572 141.088C155.505 139.669 151.788 140.727 148.918 138.553Z" fill="#5CB2A4"/>
<path d="M148.918 138.553C151.788 140.727 155.512 139.669 158.572 141.088C157.094 141.134 155.617 141.18 154.132 141.226L154.172 141.239C153.338 140.135 152.451 140.221 151.538 141.134C149.791 140.595 148.038 140.05 146.291 139.512C146.889 138.375 147.979 138.638 148.957 138.572L148.918 138.553Z" fill="#92E4CF"/>
<path d="M107.578 88.0108C105.995 86.868 103.414 86.2442 105.154 83.3677C106.665 83.7026 107.413 84.9898 108.32 86.0143C109.147 86.9469 109.075 87.8137 107.578 88.0108Z" fill="#92E4CF"/>
<path d="M187.863 134.784C185.952 138.415 184.691 138.928 180.383 137.529C183.653 137.128 185.676 135.256 187.686 133.358C187.745 133.831 187.804 134.311 187.863 134.784Z" fill="#5CB2A4"/>
<path d="M168.654 141.173C168.694 140.851 168.733 140.529 168.773 140.207C169.83 139.577 170.913 139.741 172.063 140.011C171.741 141.009 170.677 140.385 170.23 140.969C169.705 141.042 169.18 141.107 168.654 141.173Z" fill="#92E4CF"/>
<path d="M187.863 134.784C187.804 134.311 187.745 133.832 187.686 133.359C187.929 132.886 188.178 132.407 188.421 131.927C188.651 131.98 188.887 132.032 189.117 132.085C189.728 133.464 189.249 134.338 187.863 134.784Z" fill="#92E4CF"/>
<path d="M177.632 135.144C177.908 135.183 178.19 135.216 178.466 135.256C178.177 136.116 177.567 136.609 176.693 136.806C176.601 136.707 176.509 136.609 176.424 136.517C176.824 136.057 177.232 135.604 177.632 135.144Z" fill="#547D77"/>
<path d="M151.539 141.134C152.452 140.221 153.339 140.136 154.173 141.239C153.299 141.2 152.419 141.167 151.539 141.134Z" fill="#5CB2A4"/>
<path d="M123.963 99.175C124.042 99.3327 124.12 99.4838 124.199 99.6414C124.134 99.4772 124.061 99.313 123.996 99.1488C123.996 99.1423 123.963 99.175 123.963 99.175Z" fill="#5CB2A4"/>
<path d="M175.174 137.233C175.404 136.668 175.909 136.59 176.428 136.511C176.52 136.609 176.606 136.708 176.697 136.8C176.336 137.292 175.844 137.43 175.266 137.338C175.259 137.351 175.174 137.233 175.174 137.233Z" fill="#547D77"/>
<path d="M143.028 9.88571C142.949 9.99078 142.87 10.0893 142.791 10.1944C142.791 10.1287 142.765 10.0499 142.798 10.0104C142.85 9.95134 142.942 9.91853 143.014 9.87256L143.028 9.88571Z" fill="#5CB2A4"/>
<path d="M153.535 19.7489C153.423 19.9131 153.318 20.0839 153.207 20.248C152.826 19.9065 153.036 19.7292 153.391 19.5913L153.535 19.7489Z" fill="#5CB2A4"/>
<path d="M131.219 57.1839C131.107 57.3416 131.002 57.4992 130.89 57.6568C130.496 57.2824 130.766 57.1642 131.114 57.0723L131.219 57.1839Z" fill="#5CB2A4"/>
<path d="M144.342 68.9583C138.648 68.1308 132.954 67.3821 126.505 69.3851C128.593 69.569 129.88 69.6807 131.857 69.858C129.447 71.3291 127.299 71.1518 125.322 71.5393C119.241 72.7214 117.317 75.4468 118.545 81.7187C115.774 81.3903 113.298 80.7795 112.444 77.8373C111.577 74.8558 113.153 72.6031 115.544 71.2503C120.009 68.7153 124.804 67.2442 130.084 67.7565C132.126 67.9535 134.287 67.9469 136.27 67.4872C139.272 66.791 141.833 67.4084 144.315 68.9911L144.342 68.9583Z" fill="#F8EFDD"/>
<path d="M144.309 68.9911C144.584 69.0765 144.86 69.1619 145.136 69.2472C144.67 69.7004 144.499 69.3457 144.341 68.9517C144.341 68.9582 144.309 68.9911 144.309 68.9911Z" fill="#F8EFDD"/>
<path d="M159 141.325C162.198 141.292 165.39 141.26 168.588 141.22C165.403 142.074 162.205 141.975 159 141.325Z" fill="#92E4CF"/>
<path d="M119.037 52.54C117.29 53.1704 118.971 55.955 116.856 56.2637C115.582 56.4476 115.503 55.1341 115.464 54.1884C115.398 52.4677 116.423 51.66 118.019 51.5418C118.524 51.5024 119.063 51.7322 119.037 52.54Z" fill="#F8EFDD"/>
<path d="M52.4633 74.1222C52.8377 74.1419 53.2186 74.1616 53.5929 74.1747C55.1625 73.8332 55.6157 72.1914 55.8718 71.226C56.7715 67.8898 59.0701 67.1476 61.9795 66.9834C62.6231 66.9506 63.2535 66.7207 63.884 66.5762C65.6112 66.1822 66.3205 66.55 65.8477 68.5662C64.6064 73.8266 65.0202 79.0937 66.1366 84.3344C66.3468 85.3327 66.4913 86.2783 67.5814 86.6855C67.8179 87.3029 68.0609 87.9202 68.3039 88.5376C68.1856 89.1286 68.2119 89.6671 68.8358 89.9889C68.7636 90.4289 68.6979 90.8624 68.6256 91.3024C67.8835 91.4797 67.7259 92.0379 67.4895 92.6947C66.4059 95.6763 66.7605 98.8483 66.2023 101.882C65.053 108.095 68.5731 113.014 70.5039 118.373C70.5827 118.59 71.2592 118.596 71.6532 118.701L71.581 118.774C71.7977 119.01 72.0144 119.247 72.2311 119.483L72.218 119.43C72.218 120.166 72.5267 120.599 73.2885 120.823C78.3651 122.307 83.4548 123.627 88.8203 122.714L89.0239 122.648L89.2144 122.74C89.6741 122.983 90.1338 123.423 90.6001 123.43C96.2349 123.476 101.87 123.509 107.504 123.417C108.654 123.397 110.309 123.24 110.854 122.497C112.903 119.719 115.523 120.521 118.13 120.823L118.111 120.816C118.334 121.039 118.564 121.269 118.787 121.493L118.768 121.473C119.011 121.683 119.254 121.893 119.496 122.103L119.503 122.038C119.805 124.343 121.572 123.194 122.754 123.417C122.951 123.417 123.148 123.423 123.345 123.437C123.765 123.397 124.54 123.397 124.553 123.305C124.665 122.451 123.792 122.53 123.345 122.189L123.325 122.156C123.01 119.614 123.923 118.117 126.694 118.196C130.589 119.168 134.477 120.192 137.997 122.189C139.251 122.898 140.926 123.568 140.624 125.505C140.328 127.364 139.153 128.546 137.347 129.157C131.764 131.048 125.952 131.803 120.166 132.736C115.517 133.485 110.716 133.498 106.257 135.324C105.515 135.915 105.725 136.604 105.955 137.366C106.368 138.732 106.782 140.669 105.048 140.893C102.691 141.195 103.787 138.922 103.682 137.78C103.433 135.021 100.596 131.922 97.6469 131.475L97.6666 131.488C97.4104 131.265 97.1477 131.048 96.8916 130.825L96.9376 130.877C96.8128 128.809 95.3877 129.505 94.245 129.603L94.442 129.511L94.2581 129.63C94.3041 128.92 94.1662 128.27 93.3387 128.178C88.4854 127.646 83.6058 126.871 78.7525 127.633C76.7298 127.948 74.3196 127.705 72.7434 129.616L72.6317 129.597C71.732 129.439 70.7995 129.183 70.2412 130.26H70.2544C67.6799 130.411 66.5372 129.15 66.6489 126.635L66.708 126.674C67.5289 126.366 67.4764 125.945 66.8722 125.446C67.2465 122.281 65.7097 119.417 65.4208 116.35C65.3288 115.385 64.4816 114.998 63.5294 114.991L63.5359 114.984C63.5688 114.183 63.6673 113.349 62.6231 113.054C62.2553 112.607 61.8941 112.167 61.5263 111.72C60.8827 109.507 59.1555 107.931 58.0916 105.954C57.6056 105.041 56.8372 104.798 56.0557 105.751C55.1034 105.6 54.7816 104.306 53.6783 104.437C53.6652 104.05 53.652 103.662 53.6323 103.275C51.1302 102.165 48.4047 102.914 47.1569 105.055L47.1044 105.074C46.0733 105.206 44.6876 104.713 44.6088 106.506L44.635 106.467C44.3855 106.67 44.1359 106.867 43.8864 107.071C43.2165 107.721 42.5532 108.378 41.8833 109.028C41.6797 109.258 41.4696 109.487 41.266 109.711L41.2726 109.698C41.0624 109.947 40.8588 110.197 40.6487 110.446L40.6881 110.413C39.2761 110.413 39.2629 111.372 39.3286 112.39L39.3549 112.364C36.439 113.546 35.6575 115.267 36.6951 118.202C36.8396 118.262 36.8921 118.373 36.8461 118.524C37.6277 120.79 36.8987 121.749 34.4491 121.552C33.4968 121.48 32.1899 120.98 31.6711 122.471L31.6054 122.445C30.7779 122.163 29.9898 122.025 29.471 122.983C29.2411 123.476 28.7945 123.522 28.3283 123.548C28.0393 123.758 27.7503 123.969 27.4614 124.179L27.5008 124.159C26.9032 124.179 26.3975 124.33 26.3318 125.052L26.3843 125C26.1151 125.203 25.8458 125.413 25.5831 125.617L25.6488 125.551C25.4124 125.788 25.1694 126.024 24.9329 126.26L24.992 126.201C24.7622 126.451 24.5258 126.694 24.2959 126.944L24.3616 126.878C24.1252 127.121 23.8887 127.37 23.6523 127.613L23.7114 127.581C22.2272 127.39 22.214 128.395 22.2272 129.419L22.2469 129.4C22.0367 129.649 21.82 129.905 21.6098 130.155L21.6624 130.116C20.0928 130.188 20.2635 131.291 20.3423 132.342C20.3292 132.664 20.3095 132.992 20.2964 133.314C19.1799 134.168 17.7285 134.614 16.9733 135.928C16.4282 135.98 15.9291 135.901 15.5941 135.409C15.4759 135.048 15.2986 134.929 15.0031 135.264C14.4383 135.337 13.972 135.166 13.6436 134.693C13.335 134.128 12.8227 134.023 12.2448 134.063C11.7457 133.879 11.2268 133.734 10.7474 133.498C8.88885 132.578 6.61655 131.718 6.69535 129.308C6.77416 127.009 8.90856 126.274 10.7803 125.197C16.9799 121.624 23.2451 118.137 29.0507 113.907C30.2788 113.014 30.1868 111.878 30.1277 110.709C29.9307 106.677 29.668 102.651 29.4053 98.1719C31.7236 100.149 32.5905 102.73 34.5673 105.087C34.8891 99.5641 33.5099 94.4547 34.2389 88.9184C36.0778 90.6194 36.8264 92.9443 39.2695 94.3103C40.1824 85.162 40.491 76.2763 42.0015 66.7996C45.6661 71.8762 47.019 77.3993 49.5015 82.6138C49.7313 81.8323 49.8824 81.32 50.0334 80.8078C52.4174 79.1396 51.3929 76.2501 52.4633 74.1222ZM59.011 87.4146C59.5036 87.3029 59.5955 87.119 59.1227 86.8235C61.7365 82.4956 62.7085 78.0429 60.2654 72.3687C58.6564 77.1366 57.2904 81.0179 56.0557 84.9387C55.6945 86.0945 55.0312 87.5985 57.0933 88.0647C56.765 89.5161 55.7273 90.2516 54.4204 90.7179C53.5798 87.362 55.642 83.9338 54.3219 80.5582C52.8968 83.901 52.3583 87.3423 52.5356 90.8887C52.5816 91.7753 53.3171 91.309 53.7834 91.3287C53.455 93.2792 51.7015 95.0393 53.212 97.9683C55.2019 94.0541 58.4068 91.5126 59.0439 87.3817L59.011 87.4146ZM63.5885 101.502C65.7294 95.7945 66.7605 90.2582 64.0482 84.4395C60.3902 87.9662 58.7352 96.0047 63.5885 101.502Z" fill="#18272A"/>
<path d="M97.6475 131.481C100.596 131.928 103.433 135.028 103.683 137.786C103.788 138.929 102.691 141.201 105.049 140.899C106.789 140.676 106.369 138.738 105.955 137.372C105.725 136.61 105.515 135.921 106.257 135.33C106.658 135.973 107.065 136.61 107.453 137.267C109.055 139.966 108.694 141.293 105.745 142.593C101.404 144.511 96.7346 145.095 92.0652 145.496C80.4935 146.481 68.9415 146.599 57.5208 143.966C54.9596 143.375 52.5231 142.725 50.9206 140.249C50.1194 139.021 48.4579 139.218 47.059 139.257C37.5298 139.5 28.0662 139.04 18.7865 136.65C18.1626 136.492 17.5847 136.183 16.9805 135.947C17.7423 134.634 19.1871 134.194 20.3036 133.333C20.737 133.491 21.1705 133.655 21.6105 133.813C24.8022 134.89 28.1056 135.369 31.4484 135.382C32.9589 135.389 34.6795 136.19 35.9733 134.653C36.6629 134.647 37.3459 134.634 38.0354 134.627C39.7233 136.236 41.7591 135.389 43.6177 135.303C51.1768 134.949 51.6562 134.036 48.1295 127.436C47.8143 126.983 47.499 126.523 47.1904 126.07L47.2823 126.109C46.4745 123.811 44.4518 123.311 42.4225 122.865C38.8761 122.083 35.2903 122.248 31.6979 122.504C32.2168 121.006 33.5237 121.505 34.4759 121.584C36.9321 121.781 37.6546 120.816 36.873 118.557C40.3406 118.852 43.8541 118.793 47.2166 119.89C51.6496 121.729 52.9828 125.84 54.27 129.853C55.1237 132.512 56.3912 132.342 58.3418 131.14C60.7979 129.623 60.1609 127.712 59.1036 125.82C56.0432 120.356 54.1846 114.531 53.6198 108.292C53.7118 107.018 52.6347 105.724 53.6789 104.463C54.7822 104.338 55.104 105.626 56.0563 105.777C56.4438 110.564 56.8378 115.345 59.1627 120.487C60.2069 117.02 59.0051 114.209 60.3448 111.7C61.2445 114.354 60.8702 117.105 60.9621 119.818C61.0606 122.655 61.9669 125.216 63.2279 128.335C63.6088 124.828 65.5133 127.035 66.6363 126.648C66.5181 129.163 67.6674 130.424 70.2418 130.273C67.7791 131.54 64.7384 131.645 62.8141 133.99C60.7454 135.527 58.3615 136.834 58.3746 139.927C62.5777 142.843 67.3325 142.764 72.1267 142.468C81.0977 142.961 90.0359 142.738 98.9084 141.234C101.608 140.774 101.588 140.656 101.654 138.581C101.358 135.625 99.3221 133.655 97.6475 131.481Z" fill="#2C2420"/>
<path d="M126.703 118.203C123.932 118.124 123.019 119.621 123.334 122.163C122.303 120.409 121.278 118.662 120.247 116.909C119.453 115.004 118.796 112.968 116.274 112.679C113.759 112.39 111.296 112.949 108.813 113.172C107.887 113.257 107.5 113.783 107.828 114.755C108.597 116.994 108.498 119.49 109.943 121.788C110.068 120.37 110.803 119.923 111.985 119.779C113.371 119.608 114.731 119.175 116.097 118.853C117.285 118.991 117.679 119.943 118.126 120.836C115.519 120.534 112.898 119.733 110.849 122.511C110.304 123.253 108.649 123.41 107.5 123.43C101.865 123.522 96.2304 123.489 90.5956 123.443C90.1293 123.437 89.6696 122.997 89.2098 122.754C95.416 122.445 101.662 123.115 108.065 122.077C106.443 115.681 104.847 109.383 103.251 103.078C103.553 103.117 103.862 103.163 104.164 103.203C105.648 102.52 105.714 103.787 105.904 104.595C106.311 106.289 106.574 108.01 106.902 109.724C107.086 110.67 107.073 111.898 108.479 111.74C111.145 111.438 113.897 112.174 116.491 111.097C116.563 111.064 116.642 110.886 116.615 110.808C116.018 108.877 116.274 106.591 114.704 105.081C113.22 103.649 111.769 104.595 110.508 105.731C109.431 104.47 109.102 102.986 108.728 101.508C107.789 97.7911 106.338 94.271 104.144 91.1186C103.349 89.9759 102.712 88.2882 100.736 88.6428C99.317 87.0995 99.2185 85.0898 99.0872 83.205C98.8704 80.1709 97.5438 78.9034 94.5163 79.6652C90.589 79.1923 86.5566 80.0067 82.695 78.6932C82.5965 77.9577 82.5046 77.2222 82.406 76.4932C87.279 77.4126 92.1455 78.3846 97.1301 77.2878C97.2352 77.2747 97.3599 77.2813 97.4519 77.2287C97.5241 77.1893 97.6095 77.0645 97.5964 76.9988C97.314 75.4358 95.7838 75.1797 94.7527 74.674C87.9029 71.3115 80.7642 68.6977 73.3496 66.8457C71.6947 66.4319 70.2104 66.6092 68.897 67.752C68.2993 67.9293 67.7083 68.1132 67.7411 68.9144C66.8939 69.7353 66.8611 70.8452 66.6509 71.9091C65.6658 76.92 66.5853 81.8061 67.5901 86.6922C66.4933 86.2785 66.3554 85.3394 66.1452 84.3412C65.0354 79.0938 64.6216 73.8334 65.8563 68.5729C66.3291 66.5567 65.6199 66.1889 63.8926 66.583C63.2556 66.7274 62.6251 66.9573 61.9881 66.9901C59.0788 67.1543 56.7736 67.8965 55.8804 71.2327C55.6243 72.1915 55.1646 73.8399 53.6016 74.1815C55.5455 65.5322 55.5718 65.7555 64.1553 64.6916C72.1018 63.7064 79.2406 66.1298 86.3333 69.0391C89.3543 70.2738 92.3228 71.653 95.265 73.0715C98.4633 74.6149 100.236 77.163 100.361 80.7882C100.473 83.9537 100.696 86.8302 104.144 88.7019C107.323 90.4225 107.92 94.2054 108.899 97.4102C109.299 98.7303 109.785 99.5249 111.283 100.037C111.401 99.0192 111.519 98.0407 111.723 96.2807C112.721 99.8205 113.805 102.467 116.51 104.096C117.042 104.418 117.358 105.376 117.456 106.079C117.824 108.686 118.907 110.164 121.856 109.842C123.347 109.678 123.531 111.287 124.056 112.285C125.081 114.196 125.14 116.534 126.703 118.203Z" fill="#2C2420"/>
<path d="M154.324 116.739C150.016 117.113 146.181 116.246 142.306 115.642C140.927 115.425 140.388 114.67 140.126 113.646C139.837 112.516 140.776 111.859 141.616 111.36C144.007 109.942 146.693 109.469 149.392 109.134C152.925 108.694 156.347 109.449 159.657 110.546C161.141 111.038 163.131 111.84 162.645 113.843C162.205 115.662 160.465 116.739 158.527 116.896C157.03 117.008 155.5 116.791 154.324 116.739ZM157.424 111.354C154.2 109.83 150.949 109.889 147.698 110.723C146.818 110.946 145.084 110.428 145.307 112.069C145.472 113.271 147.087 114.21 148.033 113.941C151.126 113.054 154.305 112.424 157.424 111.354Z" fill="#18272A"/>
<path d="M146.732 118.635C150.141 119.246 152.59 120.218 153.359 122.838C154.173 125.603 151.94 127.232 149.95 128.618C146.581 130.969 142.759 132.19 138.753 132.959C129.953 134.64 121.126 135.96 112.076 135.343C117.593 134.686 123.109 134.049 128.619 133.366C132.954 132.834 137.196 131.849 141.36 130.555C143.442 129.911 145.419 128.939 147.152 127.567C151.185 124.382 151.211 122.339 146.732 118.635Z" fill="#547D77"/>
<path d="M100.971 147.125C94.8961 149.089 88.5914 149.095 82.313 149.2C74.9181 149.325 67.5364 149.135 60.2598 147.578C60.286 147.204 60.3189 146.823 60.3451 146.449C65.3363 146.829 70.321 147.269 75.3122 147.572C83.3966 148.064 91.4219 147.059 99.4538 146.396C99.9595 146.639 100.465 146.882 100.971 147.125Z" fill="#5CB2A4"/>
<path d="M17.7168 138.948C13.0474 138.219 8.50938 137.017 4.45732 134.541C-0.632395 131.435 -0.573287 127.245 4.53613 124.165C6.65739 122.884 8.91656 121.833 12.3579 121.465C9.94107 122.877 8.22699 123.738 6.66395 124.821C2.30979 127.836 2.34919 130.968 6.84127 133.641C10.2169 135.651 13.8618 137.096 17.7037 138.008C17.7037 138.324 17.7103 138.632 17.7168 138.948Z" fill="#547D77"/>
<path d="M100.97 147.126C100.464 146.883 99.9588 146.64 99.4531 146.397C102.244 145.681 105.114 145.268 107.735 143.915C111.537 141.945 112.168 140.211 109.954 136.375C112.03 137.203 113.704 138.168 114.006 140.053C114.322 141.997 112.647 143.133 111.156 144.033C108.037 145.924 104.53 146.621 100.97 147.126Z" fill="#33615F"/>
<path d="M57.3645 146.889C54.4224 146.541 51.6181 145.7 48.9977 144.321C48.0389 143.815 47.0603 143.205 46.9618 141.957C46.9356 141.576 47.0932 141.064 47.3559 140.801C47.7565 140.4 48.1702 140.755 48.4132 141.123C50.7118 144.538 54.4946 145.044 58.0213 146.061C57.798 146.344 57.5813 146.613 57.3645 146.889Z" fill="#33615F"/>
<path d="M6.88672 119.686C9.23784 117.027 12.0421 116.179 15.3586 117.151C12.6332 118.366 10.0128 119.91 6.88672 119.686Z" fill="#547D77"/>
<path d="M141.958 120.625C143.758 121.452 145.203 122.799 144.94 124.795C144.684 126.752 143.068 127.783 140.605 128.118C142.431 125.721 143.791 123.508 141.157 121.229C141.426 121.026 141.689 120.829 141.958 120.625Z" fill="#68544B"/>
<path d="M52.4642 74.1226C51.3937 76.2569 52.4182 79.14 50.0605 80.8147C50.297 78.017 50.54 75.2258 50.7895 72.2705C52.0045 72.7368 52.1358 73.5052 52.4642 74.1226Z" fill="#2C2420"/>
<path d="M17.7182 138.948C17.7116 138.633 17.7116 138.325 17.7051 138.009C20.6932 138.515 23.6157 139.369 26.663 139.54C23.6091 140.124 20.6341 139.888 17.7182 138.948Z" fill="#5CB2A4"/>
<path d="M137.957 118.708C139.514 118.885 140.788 119.647 141.957 120.625C141.688 120.829 141.425 121.032 141.156 121.229C139.928 120.573 138.693 119.916 137.465 119.266C137.629 119.082 137.793 118.891 137.957 118.708Z" fill="#68544B"/>
<path d="M60.3475 146.449C60.3213 146.823 60.2884 147.204 60.2622 147.578C59.8484 147.46 59.4347 147.342 59.0209 147.23C58.8108 147.197 58.6006 147.158 58.3905 147.125C58.049 147.046 57.7009 146.968 57.3594 146.889C57.5761 146.613 57.7994 146.344 58.0161 146.068C58.7976 146.193 59.5726 146.317 60.3475 146.449Z" fill="#33615F"/>
<path d="M137.465 119.266C136.552 119.05 135.633 118.839 134.346 118.537C135.876 117.9 136.94 117.94 137.951 118.708C137.794 118.892 137.629 119.083 137.465 119.266Z" fill="#68544B"/>
<path d="M12.2598 134.063C12.8377 134.023 13.3565 134.128 13.6586 134.693C13.1004 134.693 12.5487 134.66 12.2598 134.063Z" fill="#2C2420"/>
<path d="M108.379 136.382C108.51 136.185 108.628 135.909 108.688 135.922C108.963 135.974 109.22 136.112 109.482 136.224C109.397 136.375 109.292 136.657 109.22 136.651C108.944 136.605 108.674 136.48 108.379 136.382Z" fill="#33615F"/>
<path d="M15.0176 135.271C15.3065 134.936 15.4904 135.054 15.6086 135.415H15.2934L15.0176 135.271Z" fill="#2C2420"/>
<path d="M58.3965 147.125C58.6066 147.158 58.8168 147.198 59.027 147.231C58.8102 147.191 58.6001 147.158 58.3965 147.125Z" fill="#5CB2A4"/>
<path d="M100.742 88.6432C102.725 88.2885 103.356 89.9763 104.151 91.119C106.344 94.2648 107.795 97.7849 108.735 101.509C109.109 102.986 109.437 104.47 110.514 105.731C111.775 104.595 113.227 103.65 114.711 105.081C116.274 106.592 116.024 108.877 116.622 110.808C116.648 110.887 116.569 111.064 116.497 111.097C113.903 112.174 111.151 111.438 108.485 111.741C107.08 111.898 107.093 110.67 106.909 109.724C106.581 108.017 106.318 106.29 105.911 104.595C105.714 103.787 105.655 102.52 104.17 103.203C104.032 102.618 103.881 101.765 103.264 101.87C102.627 101.975 102.916 102.651 103.257 103.078C104.853 109.383 106.449 115.681 108.071 122.078C101.675 123.115 95.4291 122.445 89.2164 122.754L89.0259 122.662L88.8223 122.728C86.9178 112.062 85.6306 101.292 83.2795 90.7053C83.3977 89.5495 83.1744 88.5118 82.1893 87.6449C81.7362 88.7548 81.7099 89.7267 82.4192 90.6396C82.9643 98.3694 83.5488 106.099 84.79 113.763C83.0431 113.291 83.1941 111.59 82.6425 110.368C82.2812 109.567 82.1499 108.72 80.9546 108.752C77.7892 108.851 75.8584 107.255 74.8733 104.287C73.8159 101.088 72.706 97.9031 71.5173 94.7508C70.7752 92.7806 70.8212 91.6247 73.4219 91.9991C74.1443 92.1042 75.5497 92.3668 75.1097 90.8957C73.9867 87.1064 75.8452 83.3827 75.1754 79.4357C73.9407 81.9379 74.2165 84.4598 74.0917 86.9159C73.9013 90.6528 73.2577 91.1059 69.7441 89.9829C69.7573 87.1458 69.7638 84.3087 69.777 81.4716C70.1251 79.5473 70.8475 77.6559 70.1907 75.6595C74.6762 75.3771 78.5378 77.6363 82.695 78.7067C86.5566 80.0136 90.589 79.1993 94.5163 79.6787C96.0859 82.0627 96.9068 84.7684 97.6423 87.461C98.2203 89.5297 99.1922 89.5889 100.742 88.6432ZM102.174 100.668C102.358 100.845 102.68 101.207 102.712 101.18C103.133 100.858 102.903 100.537 102.653 100.228C102.391 99.8208 102.128 99.4202 101.865 99.013C101.655 98.3234 101.222 97.8768 100.506 97.7127C100.158 97.3383 99.6125 96.9049 99.2842 97.358C98.8376 97.9753 99.7505 97.9294 100 98.2315C100.466 98.6256 100.933 99.0195 101.405 99.4136C101.662 99.8339 101.918 100.254 102.174 100.668ZM81.1845 85.5237C81.3487 85.8192 81.2042 86.5678 81.723 86.3117C82.1499 86.1016 81.7427 85.6025 81.3947 85.3463C81.2961 84.7618 81.4932 84.046 80.7445 83.757C80.6394 83.7176 80.3176 83.9015 80.311 84C80.2585 84.6896 80.6788 85.1362 81.1845 85.5237ZM91.7251 110.086C90.6218 99.847 88.6713 89.8056 84.3368 80.3486C86.2545 90.3967 88.2116 100.432 91.7251 110.086ZM98.4961 96.9378C97.4256 96.2548 96.6572 95.6505 95.37 96.1759C96.4011 96.7407 97.1169 97.4237 98.4961 96.9378Z" fill="#E3A09B"/>
<path d="M69.7519 89.9685C73.2654 91.0981 73.909 90.6385 74.0995 86.9016C74.2242 84.4389 73.9484 81.917 75.1831 79.4214C75.8529 83.3684 73.9944 87.0986 75.1174 90.8814C75.5508 92.3525 74.1454 92.0898 73.4296 91.9848C70.8223 91.6104 70.7764 92.7662 71.525 94.7365C72.7137 97.8888 73.8236 101.074 74.881 104.272C75.8595 107.241 77.7969 108.83 80.9624 108.738C82.1576 108.705 82.2824 109.546 82.6502 110.354C83.2018 111.575 83.0508 113.276 84.7977 113.749C85.2246 115.87 85.6777 117.985 86.0718 120.113C86.3148 121.439 85.9733 122.142 84.3446 121.932C80.2399 121.407 76.1091 121.045 72.2278 119.436C72.2278 119.436 72.2409 119.489 72.2343 119.489C72.0176 119.252 71.8009 119.016 71.5842 118.78C71.5842 118.78 71.6564 118.707 71.6564 118.714C70.9997 116.527 70.5925 114.215 69.6336 112.173C67.7028 108.062 67.3219 103.905 67.8933 99.4321C68.2348 96.7592 69.0229 94.0732 68.6288 91.3215C68.7011 90.8814 68.7668 90.448 68.839 90.008C69.1411 89.9883 69.4498 89.9817 69.7519 89.9685Z" fill="#A66866"/>
<path d="M47.2173 119.871C43.8548 118.774 40.3413 118.833 36.8737 118.537C36.9197 118.386 36.8671 118.275 36.7227 118.216C37.6093 116.272 38.4958 114.321 39.3824 112.377L39.3562 112.404C40.0655 111.924 40.4332 111.208 40.7156 110.427L40.6762 110.46C40.8864 110.21 41.09 109.961 41.3001 109.711L41.2935 109.724C41.4971 109.494 41.7073 109.264 41.9109 109.041C42.5808 108.391 43.2441 107.734 43.9139 107.084C44.1635 106.88 44.4131 106.683 44.6626 106.48L44.6363 106.519C45.4704 106.04 46.2979 105.567 47.1319 105.088L47.1845 105.068C49.3451 104.477 51.4992 103.879 53.6599 103.288C53.673 103.676 53.6862 104.063 53.7059 104.451C52.6617 105.711 53.7321 107.005 53.6468 108.279C52.793 107.55 52.4055 106.677 50.8294 107.905C46.6131 111.162 47.4931 115.622 47.2173 119.871Z" fill="#E3A09B"/>
<path d="M72.2188 119.438C76.1001 121.047 80.2309 121.408 84.3355 121.933C85.9577 122.143 86.3058 121.441 86.0628 120.114C85.6687 117.986 85.2156 115.871 84.7887 113.75C83.5475 106.086 82.9564 98.3628 82.4179 90.6265C82.7068 90.6462 82.9892 90.6725 83.2782 90.6922C85.6293 101.279 86.9231 112.049 88.8211 122.715C83.4555 123.628 78.3658 122.308 73.2892 120.823C72.5209 120.607 72.2188 120.173 72.2188 119.438Z" fill="#2C2420"/>
<path d="M62.8281 133.984C64.7524 131.639 67.7931 131.534 70.2558 130.267H70.2427C71.057 130.122 71.9568 130.267 72.6332 129.61L72.7449 129.63C79.9164 128.343 87.088 128.073 94.2596 129.636L94.4434 129.518L94.2464 129.61C95.1462 130.037 96.0459 130.457 96.939 130.884L96.8931 130.832C97.1492 131.055 97.4119 131.272 97.668 131.495L97.6483 131.482C99.3164 133.656 101.359 135.626 101.668 138.575C99.474 136.105 98.0555 132.822 94.3121 132.014C88.3095 130.72 82.3135 130.333 76.1796 131.055C71.6021 131.587 67.3793 133.491 62.8281 133.984Z" fill="#F8EFDD"/>
<path d="M21.6175 133.807C21.184 133.649 20.7506 133.485 20.3105 133.328C20.3237 133.006 20.3434 132.677 20.3565 132.349C20.7965 131.607 21.2365 130.865 21.6766 130.123L21.624 130.162C21.8342 129.913 22.0509 129.656 22.2611 129.407L22.2414 129.427C22.7339 128.816 23.233 128.198 23.7256 127.588C23.7256 127.588 23.6665 127.621 23.6665 127.614C23.9029 127.371 24.1393 127.121 24.3757 126.878L24.3101 126.944C24.5399 126.695 24.7764 126.452 25.0062 126.202L24.9471 126.261C25.1835 126.025 25.4265 125.788 25.663 125.552L25.5973 125.618C25.8337 125.565 26.0701 125.519 26.3 125.473C28.2768 125.164 30.2667 124.915 32.2303 124.534C33.3533 124.317 34.4632 123.654 35.4286 124.843C35.4746 125.972 35.4221 127.069 34.6537 127.995C31.4094 129.446 28.1454 130.839 24.9405 132.369C23.8504 132.901 22.1823 132.08 21.6175 133.807Z" fill="#E3A09B"/>
<path d="M63.5902 101.502C58.7369 96.0056 60.3919 87.9671 64.0499 84.4404C66.7622 90.2591 65.7246 95.7954 63.5902 101.502Z" fill="#33615F"/>
<path d="M70.1959 75.6525C70.8526 77.6489 70.1302 79.5403 69.7755 81.4646C68.4818 82.0491 68.9415 83.2443 68.8036 84.2294C68.6 85.6676 69.2042 87.1913 68.3045 88.5508C68.0615 87.9334 67.825 87.3161 67.582 86.6987C66.5838 81.8126 65.6578 76.9265 66.6429 71.9156C66.8531 70.8582 66.8859 69.7484 67.7331 68.9209C70.3863 69.3543 69.4537 71.8434 70.2615 73.3407C69.0991 74.0697 69.4669 74.8578 70.1959 75.6525Z" fill="#A66866"/>
<path d="M66.6509 126.642C65.5279 127.029 63.6168 124.822 63.2424 128.329C61.9815 125.203 61.0687 122.649 60.9767 119.812C60.8848 117.099 61.2591 114.348 60.3594 111.694C60.7534 111.707 61.1409 111.727 61.5349 111.74C61.9027 112.187 62.2639 112.627 62.6317 113.073C62.9338 113.717 63.2425 114.361 63.5446 115.004L63.538 115.011C64.4902 118.492 65.4425 121.972 66.3882 125.453C66.5327 125.781 66.6772 126.11 66.8217 126.431L66.7166 126.681L66.6509 126.642Z" fill="#A66866"/>
<path d="M57.094 88.0647C55.0319 87.605 55.6886 86.101 56.0564 84.9386C57.2911 81.0179 58.6505 77.1366 60.2661 72.3687C62.7091 78.0429 61.7372 82.5021 59.1234 86.8234C59.1299 87.027 59.0905 87.2241 59.0117 87.4145L59.0446 87.3816C58.6045 87.6181 58.1645 87.8479 57.7245 88.0843C57.4947 87.6377 57.2648 87.5984 57.0284 88.0778L57.094 88.0647Z" fill="#33615F"/>
<path d="M35.4353 124.855C34.4699 123.666 33.36 124.329 32.237 124.546C30.2733 124.927 28.2834 125.176 26.3066 125.485C26.3854 125.34 26.4183 125.183 26.4051 125.019L26.3526 125.071C26.7401 124.776 27.1341 124.48 27.5216 124.178L27.4822 124.198C27.7712 123.988 28.0601 123.777 28.3491 123.567C28.8088 123.548 29.262 123.495 29.4918 123.002C30.2011 122.825 30.9104 122.648 31.6262 122.471L31.6919 122.497C35.2777 122.241 38.8634 122.076 42.4164 122.858C44.4523 123.305 46.4685 123.804 47.2762 126.102C44.032 126.457 41.0964 124.487 37.8455 124.887C37.0443 124.874 36.2431 124.861 35.4353 124.855Z" fill="#F8EFDD"/>
<path d="M68.6274 91.3091C69.028 94.0674 68.2334 96.7468 67.8919 99.4198C67.3205 103.899 67.7014 108.049 69.6322 112.16C70.5911 114.209 70.9983 116.515 71.655 118.702C71.261 118.596 70.5845 118.59 70.5057 118.373C68.5749 113.014 65.0548 108.095 66.2041 101.883C66.7623 98.8484 66.4077 95.6829 67.4913 92.6948C67.7343 92.0512 67.8853 91.4864 68.6274 91.3091Z" fill="#2C2420"/>
<path d="M61.5344 111.733C61.1403 111.72 60.7528 111.7 60.3588 111.687C59.0125 114.196 60.2209 117.006 59.1767 120.474C56.8518 115.332 56.4578 110.551 56.0703 105.763C56.8518 104.811 57.6136 105.06 58.1062 105.967C59.1635 107.944 60.8908 109.52 61.5344 111.733Z" fill="#68544B"/>
<path d="M57.7252 88.084C58.1652 87.8476 58.6052 87.6178 59.0452 87.3813C58.4082 91.5057 55.2033 94.0472 53.2134 97.9679C51.6963 95.0323 53.4564 93.2789 53.7848 91.3283L53.7585 91.3481C54.2182 91.3612 54.4415 91.1313 54.4349 90.6782L54.4284 90.7175C55.7353 90.2513 56.7729 89.5158 57.1013 88.0644L57.029 88.084C57.2589 88.0775 57.4888 88.084 57.7252 88.084Z" fill="#A66866"/>
<path d="M118.132 120.829C117.685 119.929 117.291 118.984 116.103 118.846C116.096 117.939 115.676 116.816 117.344 116.954C118.303 117.033 119.275 116.928 120.247 116.908C121.278 118.662 122.302 120.409 123.333 122.162C123.333 122.162 123.353 122.195 123.346 122.195C123.346 122.615 123.346 123.029 123.34 123.449C123.143 123.436 122.946 123.43 122.749 123.43C121.797 122.655 120.667 122.32 119.498 122.051L119.491 122.116C119.248 121.906 119.005 121.696 118.762 121.486L118.782 121.505C118.559 121.282 118.329 121.052 118.106 120.829H118.132Z" fill="#A66866"/>
<path d="M94.2667 129.636C87.0951 128.066 79.9235 128.342 72.752 129.629C74.3281 127.718 76.7449 127.961 78.7611 127.646C83.6144 126.884 88.4939 127.665 93.3472 128.191C94.1747 128.276 94.3126 128.926 94.2667 129.636Z" fill="#2C2420"/>
<path d="M53.7785 91.3213C53.3122 91.3016 52.5766 91.7613 52.5307 90.8812C52.3534 87.3349 52.8919 83.8936 54.317 80.5508C55.637 83.9264 53.5814 87.3546 54.4155 90.7105L54.4221 90.6711C54.1988 90.8944 53.9689 91.1177 53.7456 91.341C53.7522 91.3476 53.7785 91.3213 53.7785 91.3213Z" fill="#33615F"/>
<path d="M66.3873 125.446C65.4351 121.965 64.4894 118.485 63.5371 115.004C64.4894 115.01 65.3366 115.398 65.4285 116.363C65.7175 119.43 67.2542 122.294 66.8799 125.459L66.8733 125.466C66.7091 125.466 66.545 125.459 66.3873 125.446Z" fill="#2C2420"/>
<path d="M39.3759 112.377C38.4893 114.321 37.6027 116.271 36.7161 118.215C35.6785 115.28 36.46 113.559 39.3759 112.377Z" fill="#2C2420"/>
<path d="M53.6473 103.288C51.4866 103.879 49.3325 104.477 47.1719 105.068C48.4131 102.927 51.1451 102.178 53.6473 103.288Z" fill="#2C2420"/>
<path d="M68.3115 88.5437C69.2112 87.1909 68.607 85.6606 68.8106 84.2224C68.9485 83.2373 68.4954 82.042 69.7826 81.4575C69.776 84.2946 69.7629 87.1317 69.7498 89.9688C69.4477 89.9754 69.1456 89.9885 68.8369 89.9951C68.213 89.6733 68.1867 89.1348 68.3115 88.5437Z" fill="#68544B"/>
<path d="M119.504 122.044C120.666 122.307 121.802 122.648 122.755 123.423C121.573 123.2 119.806 124.349 119.504 122.044Z" fill="#2C2420"/>
<path d="M47.1206 105.086C46.2865 105.566 45.4591 106.039 44.625 106.518C44.7038 104.725 46.0895 105.218 47.1206 105.086Z" fill="#2C2420"/>
<path d="M96.9446 130.89C96.0448 130.464 95.1517 130.043 94.252 129.616C95.3947 129.511 96.8198 128.822 96.9446 130.89Z" fill="#2C2420"/>
<path d="M40.7097 110.426C40.4339 111.201 40.0661 111.923 39.3503 112.403C39.2846 111.385 39.2977 110.426 40.7097 110.426Z" fill="#2C2420"/>
<path d="M23.7322 127.594C23.2397 128.204 22.7406 128.822 22.248 129.433C22.2349 128.415 22.248 127.41 23.7322 127.594Z" fill="#2C2420"/>
<path d="M21.6776 130.122C21.2376 130.864 20.7976 131.606 20.3575 132.348C20.2787 131.297 20.1014 130.194 21.6776 130.122Z" fill="#2C2420"/>
<path d="M123.346 123.443C123.346 123.023 123.346 122.609 123.352 122.188C123.799 122.537 124.672 122.451 124.561 123.305C124.541 123.403 123.766 123.403 123.346 123.443Z" fill="#2C2420"/>
<path d="M63.5437 114.997C63.2416 114.354 62.9395 113.71 62.6309 113.066C63.6751 113.362 63.57 114.196 63.5437 114.997Z" fill="#2C2420"/>
<path d="M31.6324 122.465C30.9232 122.642 30.2139 122.819 29.498 122.997C30.0103 122.044 30.805 122.182 31.6324 122.465Z" fill="#2C2420"/>
<path d="M72.6347 129.603C71.9582 130.267 71.0585 130.116 70.2441 130.26C70.8024 129.196 71.7349 129.446 72.6347 129.603Z" fill="#2C2420"/>
<path d="M27.5284 124.172C27.1409 124.468 26.7468 124.763 26.3594 125.066C26.425 124.343 26.9307 124.192 27.5284 124.172Z" fill="#2C2420"/>
<path d="M66.7168 126.681C66.7168 126.681 66.8219 126.432 66.8219 126.425C66.8416 126.103 66.8547 125.781 66.8744 125.46L66.881 125.453C67.4852 125.952 67.5377 126.379 66.7168 126.681Z" fill="#2C2420"/>
<path d="M59.0117 87.4138C59.0905 87.2234 59.1299 87.0263 59.1234 86.8228C59.5962 87.1183 59.5043 87.3022 59.0117 87.4138Z" fill="#A66866"/>
<path d="M41.8966 109.04C41.693 109.27 41.4829 109.5 41.2793 109.723C41.4895 109.5 41.693 109.27 41.8966 109.04Z" fill="#2C2420"/>
<path d="M41.2938 109.717C41.0837 109.967 40.8801 110.216 40.6699 110.466C40.8801 110.21 41.0837 109.96 41.2938 109.717Z" fill="#2C2420"/>
<path d="M118.113 120.823C118.337 121.046 118.566 121.276 118.79 121.499C118.566 121.269 118.337 121.046 118.113 120.823Z" fill="#2C2420"/>
<path d="M28.3552 123.56C28.0662 123.77 27.7772 123.98 27.4883 124.191C27.7838 123.98 28.0662 123.77 28.3552 123.56Z" fill="#2C2420"/>
<path d="M26.4125 125.013C26.4257 125.177 26.3928 125.334 26.314 125.479C26.0776 125.525 25.8412 125.577 25.6113 125.623C25.874 125.426 26.1433 125.216 26.4125 125.013Z" fill="#2C2420"/>
<path d="M25.0126 126.214C24.7827 126.457 24.5463 126.707 24.3164 126.956C24.5463 126.707 24.7761 126.464 25.0126 126.214Z" fill="#2C2420"/>
<path d="M24.3831 126.891C24.1467 127.134 23.9103 127.377 23.6738 127.626C23.9103 127.383 24.1467 127.134 24.3831 126.891Z" fill="#2C2420"/>
<path d="M22.262 129.412C22.0519 129.662 21.8352 129.918 21.625 130.167C21.8352 129.911 22.0519 129.662 22.262 129.412Z" fill="#2C2420"/>
<path d="M97.6753 131.495C97.4192 131.279 97.1565 131.055 96.9004 130.832C97.1565 131.055 97.4126 131.279 97.6753 131.495Z" fill="#2C2420"/>
<path d="M62.8283 133.985C67.3794 133.492 71.6023 131.581 76.1797 131.049C82.3202 130.333 88.3097 130.714 94.3122 132.008C98.0556 132.816 99.4742 136.099 101.668 138.569C101.602 140.644 101.622 140.769 98.9225 141.222C90.05 142.726 81.1118 142.949 72.1408 142.457C71.8847 139.048 69.6386 137.807 66.6439 136.986C63.0713 136.001 61.2849 139.396 58.3887 139.915C58.3756 136.828 60.7595 135.528 62.8283 133.985Z" fill="#E3A09B"/>
<path d="M47.2168 119.87C47.4926 115.621 46.6126 111.162 50.8091 107.904C52.3853 106.676 52.7794 107.549 53.6265 108.278C54.1913 114.517 56.0499 120.343 59.1103 125.807C60.1676 127.698 60.7981 129.609 58.3485 131.126C56.398 132.328 55.1305 132.499 54.2767 129.839C52.9829 125.82 51.6498 121.715 47.2168 119.87Z" fill="#A66866"/>
<path d="M37.8516 124.882C41.0958 124.481 44.038 126.458 47.2823 126.096L47.1904 126.057C47.2035 126.72 47.6501 127.088 48.1295 127.423C51.6627 134.023 51.1768 134.936 43.6177 135.291C41.7591 135.376 39.7233 136.23 38.0354 134.614C38.0289 131.37 38.5608 128.113 37.8516 124.882Z" fill="#E3A09B"/>
<path d="M21.6191 133.806C22.1839 132.086 23.852 132.907 24.9488 132.381C28.1537 130.851 31.4177 129.459 34.6619 128.007C35.7981 130.083 34.859 132.572 35.982 134.647C34.6948 136.184 32.9676 135.382 31.4571 135.376C28.1143 135.356 24.8109 134.883 21.6191 133.806Z" fill="#A66866"/>
<path d="M58.3965 139.922C61.2927 139.396 63.079 136.007 66.6517 136.992C69.6464 137.82 71.8859 139.055 72.1486 142.463C67.3478 142.759 62.593 142.844 58.3965 139.922Z" fill="#A66866"/>
<path d="M35.9802 134.647C34.8572 132.572 35.8029 130.083 34.6602 128.008C35.4351 127.082 35.4876 125.985 35.4351 124.855C36.2429 124.862 37.0441 124.875 37.8519 124.882C38.5677 128.113 38.0292 131.37 38.0358 134.621C37.3528 134.628 36.6632 134.634 35.9802 134.647Z" fill="#68544B"/>
<path d="M48.1305 127.422C47.6446 127.081 47.2045 126.719 47.1914 126.056C47.5001 126.516 47.8153 126.969 48.1305 127.422Z" fill="#F8EFDD"/>
<path d="M70.27 73.3342C69.4622 71.8434 70.3948 69.3544 67.7415 68.9144C67.7087 68.1132 68.2998 67.9293 68.8974 67.752C75.5633 71.1276 82.8793 72.5921 89.913 74.871C92.3232 75.6525 95.1603 75.2191 97.1371 77.2812C92.1524 78.378 87.286 77.406 82.413 76.4866C78.3675 75.4424 74.322 74.385 70.27 73.3342Z" fill="#E3A09B"/>
<path d="M97.1362 77.2877C95.1594 75.219 92.3223 75.659 89.9121 74.8775C82.8718 72.5986 75.5624 71.1341 68.8965 67.7585C70.21 66.6092 71.6942 66.4384 73.3492 66.8522C80.7637 68.7042 87.9024 71.318 94.7522 74.6805C95.7899 75.1862 97.3135 75.4423 97.5959 77.0053C97.609 77.0776 97.5236 77.1958 97.4514 77.2352C97.366 77.2812 97.2478 77.2746 97.1362 77.2877Z" fill="#F8EFDD"/>
<path d="M120.247 116.908C119.282 116.928 118.303 117.033 117.344 116.954C115.676 116.817 116.09 117.94 116.103 118.846C114.737 119.168 113.378 119.601 111.992 119.772C110.81 119.916 110.074 120.363 109.949 121.781C108.505 119.489 108.603 116.987 107.835 114.748C107.506 113.776 107.887 113.25 108.82 113.165C111.302 112.942 113.765 112.384 116.28 112.672C118.796 112.968 119.452 115.004 120.247 116.908Z" fill="#E3A09B"/>
<path d="M100.743 88.6426C99.1928 89.5883 98.2209 89.5292 97.6495 87.4473C96.914 84.7547 96.0865 82.0489 94.5234 79.665C97.551 78.9032 98.8776 80.1707 99.0943 83.2048C99.2257 85.0896 99.3242 87.0927 100.743 88.6426Z" fill="#F8EFDD"/>
<path d="M70.2684 73.334C74.3139 74.3848 78.3659 75.4421 82.4114 76.4929C82.5034 77.2285 82.6019 77.9574 82.6938 78.693C78.5367 77.6225 74.6751 75.3633 70.1896 75.6457C69.4672 74.8576 69.0994 74.0695 70.2684 73.334Z" fill="#68544B"/>
<path d="M103.25 103.072C102.902 102.645 102.62 101.968 103.257 101.863C103.874 101.758 104.032 102.618 104.163 103.196C103.861 103.157 103.559 103.111 103.25 103.072Z" fill="#68544B"/>
<path d="M91.7262 110.085C88.2061 100.424 86.2556 90.3892 84.3379 80.3477C88.6724 89.8112 90.6229 99.8461 91.7262 110.085Z" fill="#2C2420"/>
<path d="M83.2739 90.6923C82.9849 90.6726 82.7025 90.6462 82.4136 90.6265C81.7043 89.7137 81.7306 88.7417 82.1837 87.6318C83.1754 88.4987 83.3921 89.5364 83.2739 90.6923Z" fill="#A66866"/>
<path d="M98.4952 96.9372C97.1161 97.4232 96.4068 96.7401 95.3691 96.1753C96.6563 95.6499 97.4247 96.2542 98.4952 96.9372Z" fill="#68544B"/>
<path d="M81.1845 85.5302C80.6789 85.1427 80.2585 84.6895 80.3111 83.9999C80.3177 83.9014 80.6394 83.7175 80.7445 83.7569C81.4998 84.0524 81.2962 84.7683 81.3947 85.3462L81.1845 85.5302Z" fill="#A66866"/>
<path d="M100.505 97.7197C101.221 97.8839 101.654 98.3305 101.864 99.0201C101.713 99.158 101.562 99.2893 101.405 99.4207C100.938 99.0266 100.472 98.6326 100.006 98.2386C100.17 98.0613 100.341 97.8905 100.505 97.7197Z" fill="#68544B"/>
<path d="M81.3957 85.3457C81.7503 85.6018 82.151 86.1009 81.7241 86.3111C81.2053 86.5672 81.3497 85.8186 81.1855 85.523C81.1855 85.5296 81.3957 85.3457 81.3957 85.3457Z" fill="#A66866"/>
<path d="M99.9992 98.238C99.7496 97.9359 98.8367 97.9818 99.2833 97.3645C99.6117 96.9179 100.157 97.3448 100.505 97.7191C100.341 97.8899 100.17 98.0607 99.9992 98.238Z" fill="#68544B"/>
<path d="M102.175 100.668C101.919 100.247 101.662 99.8336 101.406 99.4133C101.564 99.2819 101.715 99.1506 101.866 99.0127C102.129 99.4199 102.391 99.8205 102.654 100.228C102.483 100.366 102.326 100.51 102.175 100.668Z" fill="#68544B"/>
<path d="M102.653 100.235C102.903 100.544 103.133 100.865 102.712 101.187C102.68 101.213 102.358 100.852 102.174 100.675C102.325 100.511 102.482 100.366 102.653 100.235Z" fill="#68544B"/>
<path d="M66.8747 125.466C66.855 125.788 66.8418 126.11 66.8221 126.432C66.6776 126.103 66.5332 125.781 66.3887 125.453C66.5463 125.46 66.7105 125.466 66.8747 125.466Z" fill="#18272A"/>
<path d="M57.7254 88.0841C57.4956 88.0841 57.2592 88.0776 57.0293 88.0776C57.2657 87.5982 57.4956 87.6375 57.7254 88.0841Z" fill="#18272A"/>
<path d="M53.752 91.3476C53.9752 91.1243 54.2051 90.901 54.4284 90.6777C54.435 91.1309 54.2117 91.3542 53.752 91.3476Z" fill="#18272A"/>
<path d="M197.373 115.639C195.771 115.928 194.234 116.624 192.553 116.42C191.837 115.698 191.2 115.632 190.675 116.63C188.494 117.497 186.163 117.353 183.91 117.405C170.533 117.727 157.122 118.627 143.856 115.869C142.799 115.645 141.722 115.422 140.717 115.048C139.581 114.627 138.477 113.984 138.234 112.67C137.978 111.298 139.18 110.601 140.093 110.306C141.754 109.767 141.597 107.554 143.311 107.232C145.537 110.844 148.492 111.849 152.315 109.767C153.037 110.47 153.766 111.173 154.488 111.876C155.598 113.189 157.194 112.23 158.475 112.723C160.819 113.498 163.171 113.445 165.522 112.769C171.702 113.084 177.888 113.366 184.068 112.769C184.265 112.749 184.462 112.736 184.666 112.716C185.552 112.65 186.439 112.585 187.325 112.519C188.153 112.309 188.98 112.092 189.814 111.882C190.084 112.112 190.353 112.342 190.622 112.572C191.029 113.189 191.45 113.209 191.896 112.618C192.776 112.598 193.656 112.578 194.536 112.559C195.062 113.977 197.406 113.714 197.373 115.639Z" fill="#18272A"/>
<path d="M154.495 111.875C153.773 111.173 153.044 110.47 152.321 109.767C153.372 108.29 155.854 108.657 156.439 106.582C156.367 105.689 156.912 104.658 155.848 103.994L155.835 103.968C155.073 100.54 152.597 100.1 149.307 102.825C149.254 102.3 149.195 101.775 149.143 101.249C149.944 97.9262 151.402 94.8527 152.906 91.615C153.28 92.5738 153.641 93.4932 154.193 94.9052C156.019 91.2997 156.242 87.471 159.138 84.0625C158.343 87.5038 157.247 90.2358 158.166 93.1058C157.076 97.3811 159.013 101.322 159.151 105.971C160.97 104.48 161.036 102.3 162.849 101.676C162.737 101.959 162.625 102.234 162.514 102.517C162.56 102.747 162.606 102.977 162.652 103.206C162.79 103.114 162.934 103.022 163.072 102.931C167.203 99.1346 171.944 96.3106 176.995 93.907C179.096 92.9022 180.935 93.0139 182.833 94.1894C188.396 97.6176 193.906 101.131 199.547 104.434C202.161 105.965 203.297 108.546 204.893 110.811C205.766 112.046 204.749 112.854 203.803 113.438C201.839 114.66 199.685 115.369 197.386 115.652C197.419 113.727 195.068 113.99 194.556 112.571C196.46 112.151 198.398 111.823 200.263 111.278C201.629 110.884 202.772 110.148 201.255 108.572C197.078 104.441 191.863 101.945 186.721 99.3382L186.734 99.3973C186.741 98.8982 186.373 98.8259 186.005 98.7537L186.045 98.7734C185.598 98.537 185.145 98.294 184.698 98.0576L184.764 98.1035C184.311 97.8671 183.851 97.6307 183.398 97.3943L183.451 97.4271C181.264 95.5685 178.991 94.6754 176.443 96.7835C172.627 98.1955 169.035 99.9096 166.92 103.673C162.422 105.86 159.164 109.931 154.495 111.875Z" fill="#2C2420"/>
<path d="M166.867 126.691C163.675 126.421 160.569 126.618 157.64 125.574C156.654 125.22 155.361 124.872 155.236 123.617C155.098 122.238 156.254 121.542 157.311 120.957C158.973 120.045 160.792 119.736 162.67 119.683C167.037 119.559 171.424 119.27 175.713 120.439C177.315 120.872 179.246 121.516 179.246 123.341C179.253 125.082 177.276 125.344 175.811 125.798C172.836 126.724 169.75 126.421 166.867 126.691ZM164.332 123.256C165.028 122.626 166.775 124.024 166.939 121.988C167.031 120.892 166.026 120.964 165.297 120.997C164.036 121.056 162.224 120.668 161.895 122.126C161.606 123.427 163.314 122.869 164.332 123.256ZM168.357 121.338C169.875 123.63 171.004 123.781 173.572 121.936C171.825 121.542 170.334 120.918 168.357 121.338Z" fill="#18272A"/>
<path d="M156.439 106.575C155.854 108.657 153.372 108.283 152.321 109.761C148.492 111.842 145.537 110.838 143.311 107.226C144.585 105.222 144.952 103.029 144.709 100.704C144.867 100.724 145.025 100.73 145.189 100.73L145.241 100.855C145.484 102.044 145.668 103.265 146.89 104.014C147.54 103.134 148.092 102.385 148.65 101.63C148.807 101.492 148.972 101.361 149.136 101.236C149.188 101.761 149.247 102.287 149.3 102.812C149.497 104.264 149.694 105.288 151.697 104.297C152.846 103.725 154.442 104.04 155.835 103.962L155.848 103.988C155.789 104.914 155.506 105.886 156.439 106.575Z" fill="#68544B"/>
<path d="M162.836 101.67C161.024 102.3 160.958 104.474 159.139 105.965C159.001 101.315 157.063 97.3746 158.154 93.0993C159.927 93.3554 159.598 91.6676 160.144 90.8466C160.84 89.8024 161.28 88.594 162.14 87.4907C161.365 92.3112 162.383 96.9741 162.836 101.67Z" fill="#68544B"/>
<path d="M148.651 101.637C148.099 102.386 147.541 103.135 146.891 104.021C145.669 103.272 145.485 102.044 145.242 100.862C146.457 100.796 147.692 100.619 148.651 101.637Z" fill="#E3A09B"/>
<path d="M145.189 100.737C145.032 100.737 144.867 100.73 144.71 100.71C143.941 100.087 143.968 99.3707 144.657 98.7928C144.881 98.6089 145.642 98.6745 145.82 98.8978C146.496 99.7385 145.15 100.021 145.189 100.737Z" fill="#E3A09B"/>
<path d="M190.674 116.624C191.199 115.632 191.843 115.692 192.552 116.414C191.928 116.486 191.304 116.558 190.674 116.624Z" fill="#2C2420"/>
<path d="M152.171 90.571C152.138 90.4922 152.066 90.4003 152.085 90.3412C152.112 90.2689 152.217 90.2295 152.289 90.1704C152.302 90.2558 152.341 90.3477 152.322 90.4265C152.309 90.4856 152.223 90.525 152.171 90.571Z" fill="#2C2420"/>
<path d="M163.066 102.924C162.928 103.015 162.784 103.107 162.646 103.199C162.6 102.97 162.554 102.74 162.508 102.51C162.692 102.648 162.876 102.786 163.066 102.924Z" fill="#68544B"/>
<path d="M154.496 111.875C159.165 109.931 162.423 105.859 166.915 103.653C172.254 103.672 177.403 100.927 182.854 102.582C182.795 103.002 182.959 103.259 183.386 103.337L183.498 103.475L183.406 103.626C183.307 104.375 183.347 105.071 184.141 105.459C186.065 107.429 187.471 109.629 187.333 112.525C186.446 112.591 185.56 112.656 184.673 112.722C184.47 112.67 184.273 112.683 184.076 112.775C177.896 113.366 171.709 113.09 165.529 112.775C165.982 111.73 166.436 110.693 166.915 109.583C162.889 112.584 162.889 112.584 158.476 112.729C157.202 112.23 155.606 113.188 154.496 111.875Z" fill="#A66866"/>
<path d="M201.247 108.565C202.758 110.141 201.615 110.87 200.255 111.271C198.384 111.816 196.453 112.144 194.548 112.564C193.668 112.584 192.788 112.604 191.908 112.623C191.481 112.61 191.061 112.597 190.634 112.578C190.365 112.348 190.096 112.118 189.826 111.888C188.986 109.064 187.403 106.601 185.965 104.073C187.252 104.086 188.533 104.106 189.82 104.119C192.309 105.353 194.752 106.68 197.294 107.79C198.502 108.315 199.671 109.675 201.247 108.565Z" fill="#A66866"/>
<path d="M185.959 104.066C187.397 106.595 188.98 109.057 189.82 111.881C188.993 112.092 188.165 112.308 187.331 112.518C187.463 109.622 186.064 107.422 184.14 105.452C184.192 104.723 183.943 104.112 183.404 103.62L183.496 103.469L183.384 103.331C183.371 103.107 183.365 102.878 183.352 102.654C184.632 102.365 185.079 103.613 185.959 104.066Z" fill="#2C2420"/>
<path d="M158.482 112.722C162.896 112.577 162.896 112.577 166.921 109.576C166.442 110.686 165.989 111.724 165.536 112.768C163.178 113.438 160.827 113.497 158.482 112.722Z" fill="#2C2420"/>
<path d="M190.629 112.571C191.056 112.584 191.476 112.597 191.903 112.617C191.456 113.208 191.036 113.188 190.629 112.571Z" fill="#2C2420"/>
<path d="M184.08 112.769C184.271 112.683 184.474 112.663 184.678 112.716C184.474 112.736 184.277 112.749 184.08 112.769Z" fill="#2C2420"/>
<path d="M185.96 104.067C185.087 103.607 184.634 102.366 183.353 102.655L183.405 102.721C183.359 102.576 183.313 102.425 183.267 102.281C183.13 102.379 182.992 102.477 182.854 102.576H182.847C177.396 100.921 172.247 103.666 166.908 103.646C169.016 99.8768 172.615 98.1693 176.431 96.7573C178.769 96.974 181.1 97.1908 183.438 97.401L183.386 97.3681C183.57 98.1234 184.22 97.992 184.752 98.0774L184.686 98.0314C184.87 98.7735 185.553 98.5699 186.032 98.7473L185.993 98.7275C186.236 98.9443 186.479 99.161 186.722 99.3712L186.709 99.312C186.374 101.795 189.743 101.88 189.809 104.1C188.528 104.1 187.241 104.087 185.96 104.067Z" fill="#E3A09B"/>
<path d="M189.815 104.113C189.749 101.887 186.38 101.808 186.715 99.3257C191.857 101.933 197.072 104.429 201.248 108.559C199.672 109.669 198.503 108.316 197.288 107.784C194.747 106.681 192.297 105.355 189.815 104.113Z" fill="#F8EFDD"/>
<path d="M155.835 103.969C154.443 104.054 152.847 103.732 151.698 104.304C149.701 105.295 149.498 104.271 149.301 102.819C152.598 100.101 155.074 100.534 155.835 103.969Z" fill="#A66866"/>
<path d="M183.437 97.4073C181.099 97.1906 178.768 96.9739 176.43 96.7637C178.984 94.6556 181.257 95.5488 183.437 97.4073Z" fill="#F8EFDD"/>
<path d="M156.439 106.574C155.506 105.878 155.789 104.906 155.848 103.987C156.912 104.657 156.367 105.688 156.439 106.574Z" fill="#A66866"/>
<path d="M184.751 98.0828C184.219 97.9974 183.569 98.1288 183.385 97.3735C183.844 97.61 184.298 97.8464 184.751 98.0828Z" fill="#F8EFDD"/>
<path d="M186.038 98.7529C185.552 98.5756 184.869 98.7792 184.691 98.0371C185.138 98.2801 185.585 98.5165 186.038 98.7529Z" fill="#F8EFDD"/>
<path d="M186.729 99.3833C186.486 99.1666 186.243 98.9499 186 98.7397C186.368 98.812 186.736 98.8842 186.729 99.3833Z" fill="#F8EFDD"/>
<path d="M164.334 123.256C163.316 122.868 161.609 123.427 161.898 122.126C162.226 120.668 164.039 121.056 165.3 120.997C166.029 120.964 167.033 120.892 166.941 121.988C166.771 124.024 165.024 122.625 164.334 123.256Z" fill="#5CB2A4"/>
<path d="M168.359 121.339C170.336 120.918 171.827 121.549 173.574 121.936C171.013 123.775 169.876 123.631 168.359 121.339Z" fill="#5CB2A4"/>
<path d="M183.405 103.62C183.95 104.113 184.193 104.723 184.14 105.452C183.339 105.065 183.306 104.369 183.405 103.62Z" fill="#E3A09B"/>
<path d="M183.35 102.661C183.363 102.884 183.37 103.114 183.383 103.337C182.963 103.258 182.792 102.996 182.851 102.582H182.858C183.048 102.615 183.232 102.661 183.409 102.727L183.35 102.661Z" fill="#E3A09B"/>
<path d="M183.405 102.727C183.228 102.661 183.044 102.608 182.854 102.582C182.991 102.484 183.129 102.385 183.267 102.287C183.313 102.431 183.359 102.576 183.405 102.727Z" fill="#2C2420"/>
</svg>
