<svg width="81" height="81" viewBox="0 0 81 81" fill="none" xmlns="http://www.w3.org/2000/svg">
<path d="M27.8348 11.0711C27.783 11.0225 27.7506 10.9998 27.7408 10.9933C27.77 11.016 27.7959 11.0419 27.8251 11.0646C27.8283 11.0679 27.8316 11.0711 27.8348 11.0711Z" fill="#AD0000"/>
<path d="M55.4364 49.3031C55.4331 48.8139 55.229 47.9196 54.7884 47.5405C54.7851 47.5341 54.7851 47.5276 54.7819 47.5211C54.7495 47.4012 54.7203 47.2846 54.6879 47.1647C54.7786 45.6775 54.8791 42.5769 54.5713 40.3315C54.6328 39.9201 54.6944 39.5086 54.7527 39.0971C54.9828 38.0311 55.1124 36.9457 54.8953 35.8668C54.8402 35.4813 54.6393 34.9596 54.3186 34.6842C54.257 34.0654 54.1728 33.4951 54.0983 33.0448C54.1015 32.8471 54.1015 32.6527 54.1047 32.4551C54.1307 31.4183 54.1144 30.3783 54.0399 29.3415C54.095 29.2086 54.1436 29.0725 54.1857 28.9397C54.4417 28.6675 54.6555 28.3209 54.8078 27.9191C54.6944 27.8154 54.6037 27.6793 54.5518 27.5206C54.4384 27.1804 54.419 26.8045 54.4093 26.4481C54.4028 26.2246 54.4093 26.014 54.4417 25.7904C54.4579 25.6932 54.4838 25.5993 54.5097 25.5021C54.5097 25.4988 54.5097 25.4988 54.5097 25.4956C54.5097 25.4859 54.513 25.4761 54.513 25.4664C54.5162 25.2817 54.5292 25.1003 54.5389 24.9318C54.5551 24.7212 54.5843 24.5203 54.6458 24.3259C54.4644 23.9598 54.2279 23.6196 53.9265 23.3248C53.4665 22.8323 52.8444 22.3787 52.1867 22.1357C52.2741 22.3301 52.3065 22.5375 52.2482 22.7772C52.1866 23.0364 52.0052 23.3313 51.7622 23.4609C51.3313 23.6877 50.8259 23.5613 50.4111 23.3637C49.8247 23.0883 49.4003 22.6152 49.1475 22.0353C48.9693 21.7631 48.8948 21.4747 48.8041 21.1475C48.7717 21.0309 48.7523 20.9142 48.749 20.7976C48.6324 20.6129 48.5287 20.4185 48.4315 20.2111C48.3408 20.0167 48.2825 19.8223 48.2371 19.6247C48.0006 19.5599 47.7576 19.534 47.5113 19.5534C47.3688 18.8471 47.1096 18.1732 46.7337 17.6807C46.7175 17.1882 46.6139 16.6925 46.3968 16.2195C46.008 15.3641 45.1267 15.0563 44.2519 15.3609C43.8501 15.4516 43.4484 15.5812 43.0693 15.7626C43.0369 15.7691 43.0077 15.7788 42.9753 15.7853C41.9321 14.9591 40.5324 14.7453 39.2137 14.8813C38.5074 14.8036 37.7946 14.7809 37.0883 14.8295C36.6379 14.7388 36.1422 14.8619 35.6853 14.8684C35.1443 14.9235 34.6032 14.9883 34.0653 15.0628C33.8871 15.1567 33.6863 15.1956 33.4854 15.16C33.4789 15.16 33.4724 15.1632 33.4659 15.1632C33.4659 15.16 33.4659 15.1567 33.4659 15.1567C33.2877 15.1211 33.116 15.0271 32.9735 14.8554C32.9022 14.7939 32.8341 14.7258 32.7823 14.6448C32.7855 14.6416 32.7596 14.5768 32.7305 14.5055C32.7207 14.4925 32.7078 14.4763 32.6948 14.4634C32.6559 14.4245 32.6203 14.3824 32.5847 14.337C32.4097 14.1459 32.2056 13.9644 32.0468 13.7862C32.0436 13.783 32.0403 13.7797 32.0371 13.7797C32.0177 13.7635 31.995 13.7538 31.9755 13.7376C31.9107 13.689 31.8621 13.6339 31.82 13.5756C31.7973 13.5562 31.7811 13.5335 31.7585 13.5173C31.7487 13.5076 31.6224 13.4331 31.658 13.4493C31.5122 13.3747 31.3729 13.3132 31.253 13.2289C30.9971 13.1447 30.7605 13.0119 30.5305 12.8013C30.5402 12.8045 30.5467 12.811 30.5564 12.8142C30.5273 12.7915 30.5046 12.7656 30.4754 12.7429C30.3685 12.7332 30.2616 12.73 30.1579 12.7559C30.1061 12.6976 30.051 12.649 29.9927 12.6101C29.6946 12.2926 29.3771 11.988 29.0207 11.7385C28.6707 11.4631 28.2269 11.3465 27.8607 11.1003C27.8445 11.0905 27.8316 11.0808 27.8186 11.0743C27.8283 11.0808 27.8348 11.0873 27.8445 11.097C27.8316 11.0873 27.8219 11.0776 27.8089 11.0679C27.7344 11.016 27.7085 10.9869 27.7247 10.9966C27.7214 10.9933 27.7214 10.9933 27.7182 10.9901C27.6987 10.9383 27.6793 10.8832 27.6566 10.8249C27.6113 10.6791 27.54 10.5527 27.4525 10.4425C27.4136 10.4263 27.3747 10.4101 27.3359 10.3939C27.2451 10.3518 27.1641 10.2935 27.0929 10.2222C27.0896 10.2157 27.0864 10.2125 27.0831 10.2093C26.973 10.1671 26.8628 10.1185 26.7527 10.0635L26.6522 10.0181C26.6133 9.98894 26.5874 9.9695 26.5615 9.94682C26.5388 9.94358 26.5129 9.94034 26.4935 9.93386C26.3768 9.89822 26.2472 9.84962 26.1435 9.78482C26.0949 9.74918 26.0496 9.7103 26.001 9.67466C25.988 9.66818 25.9783 9.66494 25.9653 9.65846C25.9556 9.6617 25.92 9.65522 25.8487 9.63902C25.7288 9.63254 25.6154 9.5969 25.515 9.5321C25.3497 9.45758 25.3076 9.42842 25.1683 9.38954C25.1165 9.37658 25.0517 9.3539 24.9933 9.34418C24.9771 9.34418 24.9609 9.34742 24.948 9.3539C24.9609 9.34742 24.9674 9.34094 24.9707 9.3377C24.9674 9.3377 24.9642 9.3377 24.9642 9.33446C24.9674 9.33446 24.9707 9.33446 24.9739 9.33446C25.0063 9.30854 24.786 9.38954 24.7665 9.39278C24.6629 9.40898 24.5624 9.41222 24.4587 9.40574C24.2417 9.39602 24.0181 9.36686 23.8075 9.31502C23.6487 9.27614 23.49 9.24374 23.328 9.21458C23.2535 9.23402 23.1789 9.24698 23.1044 9.24374C23.0396 9.2405 22.9716 9.23402 22.9068 9.2243C22.8809 9.22106 22.8582 9.21458 22.8323 9.21134C22.7934 9.20486 22.7577 9.19838 22.7189 9.1919C22.7124 9.1919 22.7059 9.18866 22.6994 9.18866C22.6994 9.18866 22.6994 9.18866 22.6962 9.18866C22.6929 9.18866 22.6897 9.18866 22.6865 9.18866C22.667 9.19838 22.6443 9.20486 22.6249 9.21458C22.4856 9.25994 22.3203 9.24698 22.1713 9.24698C22.1259 9.24698 22.0644 9.25022 22.0093 9.25346C21.9931 9.2567 21.9769 9.2567 21.9575 9.2567C21.938 9.25994 21.9218 9.26318 21.9024 9.26642C21.7307 9.29558 21.5751 9.31178 21.4164 9.30854C21.3743 9.31826 21.3321 9.3215 21.29 9.32474C21.2738 9.33122 21.2544 9.3377 21.2382 9.34418C20.9304 9.47054 20.6291 9.60662 20.3245 9.74594C20.0491 9.8723 19.6797 9.97598 19.4853 10.0764C19.359 10.1412 19.2294 10.2028 19.0998 10.2676C19.0803 10.2773 19.0641 10.287 19.0447 10.2935C18.9669 10.3324 18.8924 10.3745 18.8179 10.4166C18.792 10.4847 18.7725 10.5559 18.7531 10.6305C18.5231 10.7795 18.306 10.9512 18.1083 11.1586C17.3437 11.8973 17.4927 11.8811 16.7735 12.2505C15.8533 12.9795 14.9915 13.8121 14.2495 14.7226C14.1264 14.8781 14.013 15.0433 13.9061 15.2118C13.8477 15.1341 13.7829 15.0563 13.7117 14.9883C13.7084 14.985 13.7019 14.9818 13.6987 14.9785C13.595 15.1243 13.4881 15.2669 13.3844 15.4127C13.0313 15.9084 12.6878 16.4106 12.3152 16.8901C12.2407 16.9873 12.2213 17.0133 12.2601 16.9614C12.2861 16.929 12.2796 16.9355 12.2472 16.9776C12.2083 17.0262 12.1727 17.0781 12.1338 17.1267C12.0204 17.2789 11.9037 17.428 11.7871 17.577C11.6316 17.7714 11.4599 17.9496 11.2817 18.1246C11.1974 18.2088 11.1035 18.2671 10.9998 18.3093C10.8605 18.6235 10.7373 18.9411 10.6272 19.2618C10.5721 19.4044 10.5235 19.5502 10.4781 19.696C10.3485 20.1528 10.2449 20.655 10.2189 21.154C10.0116 21.7501 9.84958 22.3593 9.74266 22.9813C9.67138 23.9015 9.59362 24.9415 9.94354 25.8163C9.9403 25.8811 9.93382 25.9427 9.93382 26.0075C9.93058 26.6263 10.0278 27.2419 10.2254 27.8284C10.2254 27.8284 10.2319 27.8511 10.2481 27.9061C10.5203 28.8911 10.8345 29.8599 11.2719 30.7833C11.5085 32.3838 12.4416 33.9131 13.1382 35.3452C13.2613 35.6206 13.3747 35.8636 13.4784 36.0839C13.7991 36.9198 14.1685 37.8011 14.4666 38.5107C13.9741 41.9191 14.0065 45.4054 14.1588 48.8527C14.1588 48.856 14.1588 48.8592 14.1555 48.8657C14.1588 48.8657 14.1588 48.8722 14.1588 48.8722C14.1588 48.8819 14.1588 48.8916 14.1588 48.9046C14.1199 49.3258 12.7688 53.4471 13.7149 54.8727C13.7279 54.9245 13.7343 54.9763 13.7473 55.0282C13.7894 55.1286 13.8283 55.2031 13.8704 55.2615C13.6339 57.3448 13.514 59.4573 14.0162 61.5049C14.0357 61.5924 14.0648 61.6767 14.0875 61.7641C14.0421 61.978 14.0195 62.1821 14.0292 62.3441C13.9773 62.6875 14.0551 63.5397 14.0681 63.5785C14.0907 63.9447 14.1199 64.3108 14.1588 64.6769C14.1361 65.5355 14.2236 66.3941 14.4666 67.2171C14.5184 67.4017 14.5897 67.5864 14.6772 67.7679C14.7323 67.9558 14.7938 68.1437 14.8683 68.3251C15.0012 68.62 15.2798 69.0153 15.6168 69.0995C15.6816 69.2226 15.7496 69.349 15.8306 69.4656C16.0088 69.6309 16.187 69.7313 16.362 69.7734C16.3685 69.7831 16.3749 69.7929 16.3814 69.8026C16.605 70.1007 16.9549 70.1622 17.2692 70.065C17.3178 70.0909 17.3631 70.1201 17.415 70.1428C17.4506 70.1557 17.483 70.1622 17.5154 70.1752C17.7098 70.4279 17.9301 70.6644 18.1829 70.8685C18.2639 70.9593 18.3481 71.0435 18.4356 71.1277C18.6462 71.3772 18.8697 71.5554 19.0965 71.6721C19.7737 72.1386 20.561 72.4237 21.4034 72.4075C21.5395 72.3913 21.7728 72.414 21.9089 72.427C22.1195 72.5242 22.3301 72.6311 22.5439 72.7218C23.0785 72.7251 23.6163 72.738 24.1509 72.7704C24.2222 72.7737 24.2935 72.7801 24.3648 72.7834C24.6078 72.7639 24.8475 72.7477 25.0905 72.7348C25.1067 72.7283 25.1262 72.7218 25.1424 72.7153C25.1553 72.7218 25.1683 72.725 25.1813 72.7315C25.6932 72.7056 26.2051 72.6927 26.7138 72.67C26.8142 72.6667 26.9114 72.6603 27.0119 72.657C27.0313 72.6473 27.0507 72.6408 27.0702 72.6311C27.1965 72.5631 27.3132 72.4853 27.4298 72.4075C27.7473 72.4237 28.0649 72.414 28.3953 72.3039C29.066 72.1289 29.7432 72.3589 30.4236 72.3006C31.9561 72.1581 33.4919 72.2455 35.0244 72.2067C35.3484 72.1224 35.5849 72.0544 35.7858 71.9961C37.503 72.1807 39.2331 72.2293 40.9536 72.0349C41.054 72.0285 41.1545 72.0155 41.2549 72.0058C41.3035 72.0511 41.3489 72.0997 41.3975 72.1451C42.0779 72.0835 42.755 72.0285 43.4354 71.9799C43.8955 72.022 44.3588 72.0317 44.8189 72.0285C45.1299 72.0706 45.441 72.1062 45.752 72.1289C46.7402 72.1775 47.7317 72.1386 48.7166 72.0447C48.7296 72.171 48.7717 72.2909 48.8333 72.3849C48.924 72.4983 49.0925 72.4367 49.2188 72.4399C49.3257 72.4335 49.4327 72.4173 49.5363 72.4043C50.4662 72.3525 51.3961 72.2779 52.3098 72.0771C52.556 71.9993 52.5269 71.5684 52.4037 71.3934C52.3778 71.3675 52.3454 71.3545 52.3098 71.3481C52.3098 71.3448 52.3098 71.3448 52.3098 71.3416C52.2709 71.3416 52.2288 71.3416 52.1899 71.3416C52.3098 71.2638 52.4361 71.1893 52.5495 71.1051C52.6694 71.0986 52.786 71.0856 52.9059 71.0791C53.0582 70.726 53.1489 70.3469 53.1846 69.9581C53.2785 69.9322 53.3757 69.8803 53.4729 69.7896C53.6932 69.6438 53.8131 69.4008 53.9103 69.1546C54.2181 68.458 54.3899 67.7128 54.5357 66.9676C55.2031 63.8766 54.581 59.5577 54.3607 57.2508C54.7657 54.6135 55.4137 51.9826 55.4364 49.3031ZM27.8413 19.4919C26.8175 20.9499 25.7353 22.369 24.5851 23.7298C24.4328 23.895 24.287 24.0603 24.1574 24.2385C24.1445 24.2514 24.1347 24.2676 24.1218 24.2806V24.2838C24.0602 24.3713 24.0019 24.462 23.9533 24.5592C22.3041 25.6057 20.6777 26.7592 19.5242 28.3435C19.0253 28.7453 18.5328 29.1503 18.0014 29.5099C17.9269 29.5683 17.8491 29.6201 17.7681 29.6719L17.7649 29.6752C17.3372 29.9538 16.8642 30.1709 16.4495 30.469C16.1222 30.2227 15.7302 30.1255 15.3025 30.2811C15.2798 30.2973 15.2604 30.3135 15.2377 30.3297C14.823 28.9689 14.4212 27.2419 14.1944 26.1274C14.3856 24.4555 14.6966 22.7999 14.7744 21.1183C14.7614 20.9272 14.8424 19.7932 14.6999 19.3104C14.7906 19.1841 14.904 19.0156 15.066 18.7661C15.1729 18.5847 15.2539 18.4356 15.3219 18.3093C15.4094 18.3773 15.5066 18.4291 15.6168 18.4453C16.1741 18.3546 16.443 17.5576 16.43 16.7735C16.8026 16.3782 17.0748 15.889 17.4701 15.5067C17.5899 15.4386 17.6904 15.3317 17.7746 15.1989C17.7843 15.1891 17.7941 15.1762 17.807 15.1665C17.9625 15.1956 18.1569 15.16 18.374 15.0887C18.4032 15.0563 18.4259 15.0207 18.455 14.9883C18.4647 14.9753 18.5133 14.9332 18.5555 14.8911C18.5587 14.8878 18.5587 14.8846 18.5587 14.8781C18.5943 14.7906 18.6851 14.6902 18.7499 14.6221C18.7952 14.5735 18.8535 14.5282 18.9119 14.4893C18.9929 14.3953 19.0836 14.3143 19.184 14.256C19.2164 14.2366 19.2521 14.2269 19.2845 14.2107C19.278 14.2107 19.2812 14.2074 19.3104 14.188C19.3557 14.1491 19.4108 14.1232 19.4594 14.0908C19.5177 14.0519 19.5728 14.013 19.6311 13.9774C19.6506 13.9644 19.6797 13.945 19.7057 13.932C19.7705 13.8834 19.8288 13.8348 19.8871 13.7959C19.9325 13.7538 19.9811 13.7149 20.0329 13.7085C20.0394 13.7052 20.0394 13.7052 20.0459 13.702C20.1722 13.5951 20.3115 13.4946 20.4735 13.4493C20.6323 13.378 20.8008 13.3391 20.9984 13.3359C21.0503 13.3359 21.1021 13.3359 21.1507 13.3359C21.3613 13.2808 21.5784 13.3002 21.7825 13.3974C21.8052 13.4039 21.8279 13.4136 21.8505 13.4169C21.8862 13.4233 21.9186 13.4298 21.9542 13.4395C22.0806 13.4395 22.2102 13.4428 22.3268 13.4752C22.3884 13.4914 22.4467 13.5173 22.5083 13.54C22.5471 13.5529 22.7642 13.6015 22.5828 13.5756C22.3365 13.54 22.7707 13.6113 22.8485 13.6339C22.9068 13.6501 22.9683 13.6566 23.0299 13.6696C23.0753 13.6761 23.1174 13.6858 23.1627 13.6987C23.0331 13.6858 23.0169 13.6858 23.1141 13.6987C23.234 13.7182 23.3539 13.7247 23.4705 13.7603C23.5224 13.7765 23.5742 13.7959 23.6261 13.8186C23.733 13.8283 23.8367 13.8445 23.9403 13.8867C24.2481 14.0163 23.72 13.7927 24.0829 13.9482C24.0926 13.9515 24.0991 13.9547 24.1088 13.9612C24.1283 13.9677 24.1445 13.9774 24.1639 13.9871C24.1833 13.9968 24.2028 14.0065 24.219 14.0163C24.3453 14.0584 24.4587 14.1232 24.5721 14.2074C24.7341 14.2722 24.8832 14.3727 25.0193 14.5087C25.0322 14.5217 25.0452 14.5379 25.0581 14.5509C25.0646 14.5541 25.0711 14.5573 25.0776 14.5573C25.1748 14.5314 25.2687 14.5087 25.3659 14.4796C25.4534 14.4472 25.5279 14.3953 25.596 14.3338C25.826 14.9332 26.163 15.484 26.6069 15.9441C26.8466 16.3491 27.135 16.7087 27.4849 16.9485C27.54 16.9679 27.5951 16.9809 27.6501 16.9906C27.9126 17.3113 28.2009 17.6127 28.512 17.8913C28.5671 17.9496 28.6254 18.0079 28.6837 18.063C28.3824 18.5296 28.1037 19.0059 27.8413 19.4919ZM40.0464 59.0555C39.9297 59.3309 39.6511 59.5285 39.3465 59.5253C39.0096 59.5188 38.6856 59.5188 38.3519 59.454C38.0408 59.3957 37.746 59.2888 37.4511 59.1689C37.2697 59.0944 37.0883 59.0166 36.9068 58.9389C36.8615 58.9194 36.8193 58.9 36.774 58.8805C36.5342 58.8579 36.3171 58.7898 36.1195 58.6635C35.9867 58.6278 35.8635 58.5695 35.7631 58.4723C35.5881 58.3038 35.546 58.1062 35.5169 57.8794C35.4812 57.6137 35.7275 57.3351 35.9899 57.2605C36.0677 57.199 36.1584 57.1471 36.2523 57.118C36.3657 57.0208 36.5245 56.9625 36.6768 56.9689C36.6865 56.9657 36.6962 56.9657 36.7059 56.9625C36.7513 56.9527 36.7967 56.9463 36.842 56.9398C36.9003 56.9139 36.9554 56.8879 37.0105 56.862C37.1952 56.7713 37.3572 56.6514 37.5743 56.6611C37.5807 56.6579 37.5905 56.6579 37.5969 56.6547C37.6326 56.6417 37.6391 56.6417 37.6229 56.6482C37.652 56.6352 37.6779 56.6255 37.7071 56.6125C37.8173 56.5769 37.9728 56.5899 38.0894 56.5996C38.2547 56.6125 38.4102 56.6773 38.5398 56.7778C38.6046 56.7616 38.6694 56.7519 38.7342 56.7454C39.029 56.713 39.353 57.0402 39.3239 57.3351C39.3206 57.3707 39.3141 57.4031 39.3077 57.4387C39.4275 57.5197 39.528 57.6364 39.5863 57.7789C39.6252 57.8697 39.6414 57.9669 39.6446 58.0641C39.7256 58.1062 39.8034 58.1548 39.8844 58.2196C40.1209 58.4107 40.1533 58.7963 40.0464 59.0555ZM49.3484 48.9532C49.2706 49.1022 49.1184 49.1994 48.9596 49.2513C48.8041 49.3031 48.6 49.2675 48.4607 49.1865C48.3084 49.099 48.2339 48.9694 48.1691 48.8171C48.182 48.8463 48.195 48.8754 48.2079 48.9046C47.9714 48.357 47.5891 47.8872 47.2845 47.3785C47.0966 47.0675 47.2262 46.6787 47.5178 46.4908C47.6539 46.4033 47.8613 46.3839 48.0168 46.426C48.1755 46.4713 48.3181 46.5815 48.4056 46.7241C48.5708 46.9962 48.7523 47.2554 48.924 47.5243C49.1184 47.8224 49.2804 48.1237 49.4132 48.4542C49.478 48.613 49.4262 48.8106 49.3484 48.9532Z" fill="#24A6B6"/>
<path d="M34.1658 71.5684C34.1042 71.5262 34.0427 71.4809 33.9746 71.455C33.8515 71.4096 33.7284 71.4744 33.6053 71.4712C33.0577 71.3156 32.5166 71.455 31.9885 71.212C31.4085 71.0791 30.8577 70.8685 30.3005 70.6612C29.7853 70.5769 29.2766 70.4765 28.7615 70.3922C28.5541 70.3307 28.3921 70.1816 28.2042 70.0812C27.8478 69.8933 27.459 69.7864 27.0896 69.6276C26.5842 69.43 26.1241 69.1286 25.6025 68.9666C25.2396 68.8208 24.9577 68.5325 24.6175 68.3413C23.976 67.9979 23.4381 67.5054 22.8323 67.1101C22.4305 66.757 21.938 66.595 21.4585 66.3908C21.047 66.1705 20.7457 65.8336 20.3439 65.597C19.6635 65.299 19.0868 64.8389 18.4971 64.3918C18.4453 64.3561 18.3902 64.3172 18.3384 64.2816C18.2703 64.1779 18.2055 64.0678 18.131 63.9349C18.05 63.7924 17.9885 63.666 17.9496 63.6012C17.8556 63.1249 17.8459 63.1703 17.7487 62.7167C17.7681 62.7944 17.7811 62.8495 17.7649 62.7847C17.6969 62.3473 17.577 61.9229 17.4733 61.4952C17.4377 60.6334 17.0456 57.9539 16.8253 56.5088C16.8221 56.4797 16.8156 56.4538 16.8123 56.4246C16.7994 55.5077 16.7929 54.5875 16.5726 53.6933C16.5467 53.055 16.4916 52.42 16.4009 51.7882C16.4365 51.3896 16.2356 49.8442 16.3069 48.6648C16.2713 47.7673 16.1805 46.7111 16.0801 45.7261C16.0866 45.7002 16.0931 45.6743 16.0963 45.6484C16.2324 44.8254 16.1287 43.9117 16.0185 43.1989C16.0153 43.1017 16.0121 43.0078 16.0088 42.9106C16.025 42.6805 16.0121 42.4472 15.9797 42.2269C15.9408 41.3878 15.9051 40.5486 15.8857 39.7062C15.9537 38.961 16.0574 37.7687 16.0866 37.0235C16.0347 37.3766 15.9732 37.7298 15.9051 38.083C15.9149 37.8011 15.8825 37.516 15.7755 37.26C15.7755 37.2308 15.7755 37.2082 15.7755 37.2017C15.7917 36.8744 15.7788 36.4273 15.6686 36.0774C15.701 35.789 15.6783 35.5104 15.62 35.235C15.6265 35.154 15.6297 35.073 15.6297 34.992C15.633 34.5708 15.5293 33.6377 15.0919 33.4141C14.9785 33.2845 14.8683 33.1549 14.7647 33.0188C14.7549 32.9897 14.742 32.9605 14.7323 32.9281C14.5962 32.6203 14.4731 32.306 14.3499 31.9885C13.9838 30.8934 13.8315 30.8156 13.5497 30.0445C13.4654 29.8793 13.352 29.7302 13.2354 29.5877C13.2224 29.5618 13.2062 29.5294 13.1933 29.497C13.19 29.4872 13.19 29.484 13.1835 29.471C13.0442 28.9721 12.7753 28.5379 12.5517 28.0778C12.3217 27.3845 12.069 26.7008 11.9426 25.9783C11.5992 24.543 11.6251 24.7568 11.5895 23.5094C11.5247 22.7221 11.6445 22.2782 11.8098 21.1637C11.9847 20.7716 12.15 20.3796 12.299 19.9778C12.4545 19.5242 12.6263 19.0382 12.8239 18.5393C13.3747 18.5814 13.9514 17.4668 14.2625 17.1396C15.0141 16.1773 15.7367 15.1924 16.4883 14.2268C16.9679 13.6145 16.8998 13.6469 17.4571 13.2613C17.7973 12.9989 17.8718 12.5453 17.8362 12.1176C17.8394 12.1144 17.8427 12.1144 17.8427 12.1111C18.2671 11.7256 18.7434 11.4113 19.2521 11.0257C19.6214 10.8022 19.6959 10.3745 19.6862 9.97271C19.6862 9.89171 19.6603 9.78479 19.5534 9.83015C19.6376 9.93707 19.6765 10.0375 19.6279 10.1704C19.5761 10.381 19.5177 10.598 19.2942 10.6758C18.9054 10.8994 18.4777 11.0452 18.0857 11.2655C17.9528 11.34 17.82 11.4145 17.6871 11.4923C17.5511 11.2169 17.3696 11.165 17.1785 11.2363C17.1785 11.2331 17.1785 11.2298 17.1785 11.2298C17.1623 11.2396 17.1493 11.2493 17.1363 11.2558C17.0813 11.2817 17.0262 11.3173 16.9711 11.3594C16.4559 11.7094 16.0639 12.1921 15.6589 12.6652C15.1405 13.2451 14.3273 14.2787 13.6987 15.0952C13.5464 15.2572 13.3941 15.4159 13.2483 15.5812C12.8984 16.0088 12.4092 16.4041 12.3087 16.9744C12.2472 17.2951 12.2342 17.6839 12.3411 18.0144C12.2569 18.1764 12.1727 18.3384 12.0917 18.5069C11.8292 19.1419 11.4696 19.7284 11.1715 20.344C11.0419 20.4898 10.9771 20.6842 10.9091 20.8721H10.9058C10.4717 21.0373 10.4522 21.5816 10.3809 22.0126C10.2189 22.7092 9.92411 23.3669 9.83663 24.0797C9.77183 24.3616 9.80422 24.7212 9.90143 25.0322C9.89819 25.0582 9.89495 25.0841 9.89171 25.11C9.82367 25.2623 9.76535 25.4372 9.72647 25.6316C9.50615 26.1436 9.43163 26.8564 9.50615 27.2225C9.82367 28.4148 9.80422 28.4958 10.0375 29.7886C9.92735 29.2669 10.1185 30.1968 10.1801 30.3977C10.2546 30.6796 10.3745 30.942 10.5235 31.1882C10.6369 31.8492 10.7697 32.6171 11.3724 32.7337C11.4015 32.7272 11.4275 32.7175 11.4566 32.711C11.6186 32.8892 11.813 32.967 12.0463 32.8666C12.2213 32.724 12.3476 32.549 12.4383 32.3514C12.4545 32.3676 12.4675 32.3903 12.4837 32.4065C12.8174 33.0286 13.0669 33.6895 13.3455 34.3375C13.6631 35.086 13.9611 35.8409 14.2787 36.5861C14.3208 36.7157 14.3726 36.8258 14.4277 36.9198C14.2301 38.4847 14.5152 40.905 14.5249 41.809C14.4439 42.0422 14.3985 42.3079 14.3888 42.5801C14.3273 42.7777 14.2819 42.9851 14.2333 43.173C14.1296 43.659 14.1005 44.1482 14.1037 44.6375C13.8218 46.6754 13.8218 48.749 13.7829 50.8064C13.838 52.475 13.5464 54.1598 13.9028 55.809C14 56.4894 14.1329 57.1698 14.1847 57.8567C14.1847 57.8599 14.1847 57.8599 14.1847 57.8599C14.2009 58.2649 14.2009 58.6699 14.2689 59.0684C14.418 59.846 14.4536 59.7262 14.499 60.1182C14.2787 61.142 14.2851 62.4251 14.4018 63.5461C14.4342 63.8798 14.4633 64.2136 14.499 64.5505C14.4828 64.9037 14.5314 65.2536 14.6286 65.5938C14.6999 66.0506 14.7971 66.5042 14.9396 66.9449C14.9429 66.9546 14.9493 66.9611 14.9526 66.9708C14.9429 67.2365 14.9655 67.4989 15.0109 67.7419C15.1373 68.5033 15.7464 69.0476 16.2615 69.5758C16.8447 70.1654 17.1234 70.3987 17.4636 70.6741C17.5867 70.7908 17.7195 70.8977 17.8621 70.9981C17.982 71.0953 18.1148 71.2087 18.2736 71.3448C18.455 71.4388 18.8438 71.9183 19.3946 72.103C19.4173 72.1159 19.44 72.1354 19.4627 72.1451C19.764 72.252 20.1042 72.3978 20.4249 72.3038C20.5124 72.2844 20.6939 72.2326 20.817 72.1969C20.8364 72.1937 20.8559 72.1872 20.8785 72.1872C20.9304 72.184 20.9822 72.1807 21.0341 72.184C21.0665 72.2002 21.1086 72.2261 21.1604 72.2585C21.1863 72.2747 21.209 72.2941 21.2317 72.3136C21.938 73.2694 22.4273 72.9518 22.6541 72.2974C23.0591 72.4237 23.4543 72.5436 24.1801 72.5242C24.7212 72.4982 25.2331 72.7607 25.7774 72.6829C26.1014 72.6991 26.4416 72.8028 26.7429 72.6408C26.8077 72.5922 26.9211 72.4885 26.9859 72.4205C27.0248 72.401 27.0637 72.3816 27.1058 72.3654C27.3197 72.3719 27.5303 72.3751 27.7409 72.3751C28.2269 72.3816 28.6675 72.1904 29.1114 72.022C29.2151 72.0187 29.3187 72.0122 29.4192 72.0058C29.633 72.077 29.8371 72.0932 30.0251 71.9928C30.1061 72.0187 30.1871 72.0382 30.2745 72.0446C30.281 72.0317 30.2745 72.0155 30.2745 72.0025C30.2843 72.0673 30.213 72.009 30.1773 72.0058C30.1449 71.9896 30.1125 71.9701 30.0801 71.9507C30.0834 71.9474 30.0866 71.9442 30.0931 71.941C30.1514 71.9345 30.2097 71.928 30.2681 71.9183C30.3329 71.8729 30.3815 71.7952 30.4139 71.7012C30.4236 71.7044 30.4333 71.7012 30.443 71.7044C30.861 71.7206 31.2692 71.847 31.6872 71.8146C31.9917 71.8146 32.2931 71.8859 32.5976 71.8276C32.8374 71.7984 33.0674 71.7044 33.3104 71.6785C33.4109 71.6753 33.5145 71.7044 33.6117 71.6623C33.7381 71.6267 33.845 71.5198 33.9843 71.5424C34.0686 71.5424 34.1496 71.617 34.2241 71.591C34.2533 71.5327 34.1917 71.6008 34.1658 71.5684Z" fill="#195057"/>
<path d="M52.0733 56.9949C52.0733 56.9755 52.0765 56.9625 52.0765 56.9463C52.07 57.0111 52.0668 57.0694 52.0733 56.9949Z" fill="#B1E3E9"/>
<path d="M52.1057 54.6945C52.0733 54.5325 52.0538 54.3672 52.0311 54.202C52.0182 53.7613 52.0279 52.488 52.0636 51.4739C52.0927 50.0191 52.2256 48.5579 52.1057 47.1064C52.1024 46.993 52.1219 47.398 52.1316 47.4887C52.1316 47.3397 52.1316 47.1939 52.1348 47.0448C52.1219 46.3385 52.2806 46.2769 52.1737 44.8027C52.0441 43.9701 52.0927 43.1763 52.0376 42.5574C51.8983 40.3672 51.9955 41.7085 51.8659 39.0582C51.8044 38.6824 51.6974 38.3195 51.5549 37.9663C51.5354 37.8108 51.5192 37.6585 51.5063 37.503C51.4966 37.3605 51.4803 37.2211 51.4641 37.0786C51.4609 37.0332 51.4609 37.0235 51.4641 37.0753V37.0721C51.4512 36.8842 51.4382 36.6963 51.4253 36.5083C51.3605 35.9089 51.2568 35.3128 51.1596 34.7199C51.1596 34.6713 51.1596 34.6227 51.1628 34.5741C51.1823 34.3991 51.1985 34.2209 51.2017 34.0427C51.1823 32.98 51.0818 31.914 50.9134 30.8643C50.7319 30.2422 50.7643 29.2475 50.0029 28.0033C49.9122 27.8705 49.7955 27.7603 49.6821 27.6469C49.5558 27.2095 49.2286 26.9439 48.9499 27.1739C48.8851 27.0735 48.8106 26.9763 48.7166 26.8985C48.5482 26.73 48.3473 26.6166 48.1529 26.4903C47.9649 26.3023 47.7965 26.0917 47.5632 25.9524C47.2295 25.7742 46.9606 25.528 46.7078 25.2526C46.5264 25.0841 46.2704 25.0193 46.0955 24.8379C45.8298 24.5981 45.6354 24.2903 45.3697 24.0505C45.1721 23.8626 44.9193 23.746 44.7217 23.5581C44.3329 23.1271 43.9344 22.6671 43.4128 22.3917C43.9117 22.9068 44.2195 23.5645 44.5986 24.1607C44.9777 24.5787 45.3341 24.9999 45.6224 25.4826C45.8492 25.9006 46.2996 26.082 46.5912 26.4255C46.7921 26.7203 47.0999 26.8855 47.3915 27.0735C47.3461 27.3651 47.3882 27.6696 47.4984 27.9515C47.4368 27.9321 47.3785 27.9061 47.3202 27.8867C47.3915 27.9288 47.4595 27.9807 47.5308 28.026C47.7122 28.4407 48.033 28.8004 48.4186 28.998C48.438 29.0077 48.4542 29.0239 48.4736 29.0337C48.6227 29.2443 48.7976 29.4387 48.9726 29.484C49.0017 29.5359 49.0341 29.5909 49.0601 29.6363C49.1508 30.0348 49.2707 30.4269 49.3938 30.8124C49.4003 30.8999 49.4067 31.0036 49.4197 31.1332C49.5525 32.4324 49.4878 31.7812 49.5623 32.7921C49.5785 33.1679 49.6012 33.5437 49.6044 33.9196C49.6012 33.9358 49.6012 33.9455 49.5979 33.9649C49.4878 34.8268 49.6076 35.6854 49.6951 36.544C49.7146 36.7708 49.7178 36.8194 49.7178 36.7837C49.721 36.8518 49.7275 36.9198 49.7308 36.9879C49.7308 36.9717 49.7275 36.9522 49.7275 36.936C49.7307 37.1239 49.734 37.3119 49.7372 37.503C49.815 38.3065 49.7081 38.2061 49.9899 39.6771C50.0256 39.8034 50.071 39.9265 50.1196 40.0497C50.1196 41.3716 50.1455 41.3813 50.2232 42.3112C50.2265 42.3889 50.2329 42.4699 50.2394 42.5477C50.2491 42.687 50.2589 42.8263 50.2718 42.9657C50.2751 43.0531 50.2816 43.1406 50.2816 43.2281C50.3302 44.8675 50.2718 44.1094 50.45 45.5965C50.4533 45.6775 50.45 45.7585 50.45 45.8395C50.4338 46.0599 50.4176 46.2802 50.4144 46.4973C50.4306 48.208 50.5019 47.6766 50.5246 49.1314C50.5796 50.5181 50.5731 51.9081 50.7189 53.2883C50.7449 54.1534 50.8453 55.012 51.1272 55.8349C51.0689 56.389 51.1013 56.9495 51.1369 57.5068C51.2179 58.5565 51.26 58.8028 51.3346 59.6452C51.205 59.7877 51.0721 59.9271 51.0138 60.115C50.9295 60.2835 50.9295 60.4941 50.7999 60.6366C50.5861 60.8602 50.3204 61.0319 50.1358 61.2781C49.9997 61.4985 49.8636 61.722 49.6044 61.8127C49.4424 61.8775 49.3646 62.0557 49.2933 62.2015C49.1249 62.4381 49.0892 62.7459 49.1702 63.0213C49.1346 62.7847 49.1961 62.545 49.3776 62.383C49.5266 62.0914 49.9122 62.2177 50.1098 61.9812C50.3464 61.6637 50.7514 61.5924 51.0462 61.3559C51.2082 61.2328 51.2892 61.006 51.3831 60.8375C51.503 60.7047 51.691 60.6366 51.8044 60.4941C52.015 60.2089 52.0117 59.8428 51.9923 59.5026C52.0376 58.9227 52.0538 57.2573 52.0765 57.1374C52.0538 57.5003 52.0862 56.9819 52.0959 56.8491C52.1186 56.5186 52.1446 56.5153 52.2191 56.0455C52.258 55.6017 52.1996 55.1481 52.1057 54.6945Z" fill="#B1E3E9"/>
<path d="M52.083 56.8394C52.083 56.8458 52.083 56.8523 52.0798 56.8653C52.0765 56.888 52.0765 56.9171 52.0733 56.9463C52.0798 56.8912 52.083 56.8329 52.083 56.8394Z" fill="#B1E3E9"/>
<path d="M54.5454 24.935C54.5649 24.6564 54.6102 24.3972 54.7269 24.1445C54.7074 24.1833 54.7009 24.1963 54.7366 24.1218C54.7333 24.1283 54.7301 24.138 54.7269 24.1445C54.7495 24.0991 54.7884 24.0213 54.7949 24.0084C54.8079 23.9825 54.8565 23.9079 54.8824 23.8755C54.9018 23.8334 54.9277 23.7557 54.9504 23.7006C54.3737 23.3669 53.8326 22.9683 53.2786 22.5957C52.9157 22.3527 52.7861 21.9251 52.9805 21.5298C52.9546 21.5071 52.9319 21.4844 52.906 21.4585C52.663 21.2187 52.4718 20.9401 52.2353 20.6971C51.9793 20.4347 51.9923 20.0329 52.2353 19.7705C52.4718 19.5113 52.9254 19.5242 53.1619 19.7705C53.4049 20.0199 53.5993 20.3115 53.8456 20.5578C53.9687 20.6809 54.0918 20.8008 54.2214 20.9142C54.2506 20.9369 54.2765 20.9595 54.3057 20.9855C54.2085 20.9045 54.3089 20.9855 54.3283 21.0017C54.3964 21.0503 54.4709 21.0924 54.5422 21.1345C54.7398 21.2544 54.9051 21.4261 55.0768 21.5784C55.2258 21.7112 55.3749 21.8441 55.5207 21.9801C55.5725 22.0287 55.6211 22.0773 55.6697 22.1259C55.7701 21.9089 55.8803 21.7047 56.0164 21.4974C55.8609 20.6453 55.4332 19.9778 54.6588 20.1042C54.3413 19.8709 53.9169 19.7672 53.5443 19.67C53.5378 19.67 53.5313 19.67 53.5216 19.67C53.4568 19.6117 53.3887 19.5534 53.3175 19.5015C53.0129 19.3849 52.6889 19.1354 52.3617 19.0577C52.2936 18.9734 52.2256 18.8892 52.1543 18.8049C52.0927 17.8977 51.7914 16.9938 51.3184 16.2842C51.0786 16.2745 50.8389 16.1579 50.7319 15.9537C50.7093 15.9116 50.6833 15.8727 50.6607 15.8339C50.6542 15.8274 50.6477 15.8144 50.638 15.8047C50.544 15.8177 50.4468 15.8177 50.3464 15.7982C50.0321 15.7399 49.7243 15.6686 49.4133 15.5973C49.2707 15.5649 49.1119 15.5455 48.9726 15.5001C48.8106 15.4451 48.6745 15.3511 48.5385 15.2507C48.3829 15.134 48.2242 15.0336 48.0881 14.9105C48.0687 14.9105 48.0525 14.9072 48.033 14.9072C48.0168 14.9331 48.0006 14.9558 47.9844 14.9817C47.9747 14.9947 47.965 15.0109 47.9553 15.0239C47.6572 15.1988 47.466 15.6492 47.3688 16.1579C47.3688 16.1611 47.3656 16.1611 47.3656 16.1643C47.2781 16.1741 47.1939 16.2129 47.1291 16.2939C46.9735 16.5175 46.8861 16.8059 46.8699 17.0942C46.7565 17.3469 46.6755 17.6418 46.6398 17.9625C46.4811 18.9831 46.737 20.0135 47.3364 20.8526C47.5049 21.1475 47.6928 21.4261 47.8969 21.695C47.9779 21.8441 48.0589 21.9899 48.1432 22.1357C48.5158 22.6994 48.7102 23.4349 49.2739 23.8399C49.491 23.963 49.7049 23.9306 49.8928 23.8205C49.9511 23.9112 50.0062 24.0019 50.0645 24.0926C50.4792 24.5721 50.8486 24.7925 51.1629 24.8313C51.6132 25.1813 52.1187 25.5895 52.6727 25.4469C52.9611 25.6154 53.3077 25.7061 53.7257 25.6802C53.8812 25.6575 54.0173 25.6089 54.1437 25.5441C54.2603 25.5571 54.3769 25.5636 54.4936 25.5571C54.5001 25.5571 54.5098 25.5539 54.5163 25.5539C54.5163 25.3368 54.5292 25.1229 54.5454 24.935Z" fill="#2471B6"/>
<path d="M67.3888 7.04051C67.1749 6.78779 66.8542 6.69383 66.5529 6.58691C66.3682 6.51887 66.1641 6.45731 65.9729 6.52859C65.8951 6.55451 65.8401 6.61283 65.7915 6.67763C65.6489 6.68411 65.5063 6.68735 65.3605 6.69383C65.0463 6.70679 64.7385 6.68735 64.4307 6.66143C64.2784 6.76511 64.1229 6.86555 63.9738 6.97247C63.1152 7.58483 62.2177 8.11943 61.3235 8.67671C59.4897 9.82043 57.6493 10.9642 55.9257 12.2731C55.8187 12.4124 55.7053 12.542 55.5693 12.6619C55.4397 12.7721 55.2712 12.8693 55.1643 13.0021C54.999 13.2062 54.9018 13.4039 54.6621 13.5302C54.4579 13.6372 54.2571 13.6436 54.0594 13.5853C53.2786 14.0972 52.5107 14.6545 52.0377 15.377C52.0247 15.5682 51.9793 15.7529 51.8951 15.9538C51.8076 16.1611 51.6132 16.2616 51.4059 16.2778C51.0009 16.9322 50.9976 18.4648 51.8173 18.6786C51.8433 18.6721 51.8692 18.6592 51.8983 18.6494C52.0053 18.873 52.1446 19.0577 52.3228 19.1581C52.4103 19.346 52.501 19.4854 52.5982 19.589C52.7991 19.5631 53.0129 19.6247 53.1522 19.7705C53.3952 20.02 53.5896 20.3116 53.8359 20.5578C53.959 20.6809 54.0821 20.8008 54.2117 20.9142C54.2409 20.9369 54.2668 20.9595 54.2959 20.9855C54.1987 20.9045 54.2992 20.9855 54.3186 21.0017C54.3867 21.0503 54.4612 21.0924 54.5325 21.1345C54.7301 21.2544 54.8953 21.4261 55.0671 21.5784C55.2161 21.7112 55.3651 21.8441 55.5109 21.9802C55.5628 22.0287 55.6114 22.0774 55.66 22.126C55.809 21.7987 55.984 21.5006 56.2399 21.1766C56.551 20.7846 56.8005 20.4347 57.1731 20.0653C57.1666 20.075 57.1601 20.088 57.1536 20.0977C57.2443 19.9876 57.3545 19.8904 57.4971 19.7834C57.6558 19.6603 57.8826 19.6376 58.09 19.6765C58.3913 19.3946 58.6537 19.0706 58.9227 18.7628C59.0231 18.6494 59.1235 18.536 59.224 18.4226C60.1182 17.5673 61.0157 16.7119 61.9229 15.8695C62.7556 15.066 63.7308 14.3532 64.2784 13.3099C64.2881 13.2937 64.2946 13.2743 64.3011 13.2581C64.3626 13.2548 64.4209 13.2451 64.4793 13.2322C64.5084 13.1771 64.5343 13.1252 64.5635 13.0702C64.6834 12.8596 64.8454 12.6814 65.0041 12.4999C65.1629 12.3185 65.3314 12.1468 65.4966 11.9686C65.5809 11.8487 65.6651 11.732 65.7591 11.6219C65.9113 11.4404 66.0798 11.2784 66.2483 11.11C66.4395 10.9188 66.6015 10.6952 66.7926 10.5106C66.8185 10.4879 66.8445 10.4652 66.8736 10.4425C66.9287 10.368 66.9903 10.3 67.0518 10.2481C67.0745 10.0472 67.1717 9.84959 67.3402 9.71999C67.392 9.52235 67.4309 9.31823 67.4503 9.11411C67.4633 9.02339 67.4633 8.93267 67.4665 8.84195C67.5702 8.84519 67.6771 8.83223 67.7873 8.79983C68.3025 8.26847 67.7776 7.48439 67.3888 7.04051Z" fill="#ABABAB"/>
<path d="M36.7757 62.9824C36.7702 62.9879 36.7702 62.9935 36.7757 62.9824V62.9824Z" fill="#2471B6"/>
<path d="M50.0807 56.5509C50.0936 56.4926 50.1066 56.4311 50.1163 56.3727C50.2038 55.6729 50.1876 54.9763 50.1033 54.2829C50.2167 53.6058 50.2751 52.9092 50.2265 52.2255C50.3139 51.3864 50.3139 50.544 50.2232 49.7081C50.3528 49.1961 50.3528 48.6518 50.301 48.1107C50.4468 46.4259 50.5829 44.7379 50.5505 43.0434C50.5472 41.7927 50.3723 40.5615 50.2167 39.3239C50.2265 39.11 50.2329 38.9448 50.2362 38.8184C50.2686 38.5203 50.3042 38.2125 50.3366 37.8853C50.463 36.9003 50.5667 35.8473 50.1163 34.9272C49.9575 34.6745 49.8085 34.506 49.6627 34.3991C49.6983 33.9033 49.5785 32.7434 49.2415 31.9691C49.2318 31.4247 49.1119 30.8804 48.9175 30.4268C48.681 29.8566 48.1917 29.4516 47.7349 29.0563C47.21 28.5833 46.6592 28.1459 46.0987 27.7149C46.0857 27.5627 46.0469 27.4136 45.9821 27.2808C45.5544 26.6652 45.0619 26.0885 44.537 25.5474C44.5662 25.2623 44.5467 24.9707 44.4981 24.7212C44.4366 24.3518 44.2357 24.0149 43.9311 23.7978C43.6914 23.652 43.416 23.571 43.1535 23.4738C43.0758 23.4479 42.9851 23.4219 42.8911 23.3928C42.8846 23.3831 42.8749 23.3766 42.8684 23.3669C43.011 22.9845 42.9494 22.3689 42.5477 22.4499C42.1945 22.5666 41.8381 22.6573 41.4785 22.7383C40.8078 22.7545 40.0593 22.6703 39.4373 22.6573V22.6605C39.4016 22.6638 39.366 22.6767 39.3368 22.7027C39.2947 22.7383 39.2655 22.7837 39.2429 22.8323C38.8411 22.7545 38.4134 22.7189 38.0052 22.761C37.8788 22.7577 37.7525 22.7577 37.6261 22.761C37.6196 22.7513 37.6164 22.7415 37.6099 22.7351C37.1725 22.3398 36.5375 22.5147 36.0255 22.6411C35.8376 22.6832 35.6465 22.7221 35.4553 22.761C34.9304 22.7027 34.3926 22.7221 34.0265 22.9424C33.9455 22.9457 33.8645 22.9521 33.7802 22.9521C33.7284 22.9521 33.683 22.9586 33.6377 22.9683C33.5891 22.923 33.5372 22.8873 33.4757 22.8647C33.0804 22.8485 32.8925 23.0461 32.711 23.0558C32.1959 23.1725 31.6645 23.2988 31.5738 23.8496C31.5414 23.9209 31.5219 24.0051 31.5122 24.0926C31.496 24.0991 31.4831 24.1056 31.4669 24.1121C31.4798 24.1121 31.496 24.1088 31.509 24.1056C31.509 24.1185 31.509 24.1283 31.509 24.1412C31.4118 24.1542 31.3081 24.1736 31.2465 24.2449C31.1882 24.3324 31.1461 24.4425 31.1267 24.5559C29.8728 24.8443 28.4213 27.6696 28.1329 28.5314C27.7959 29.4321 27.3585 30.3977 27.2257 31.3697C27.2095 31.3826 27.1933 31.3956 27.1803 31.4085C26.2116 31.8913 24.935 33.1322 24.5689 33.5923C24.0408 34.2273 23.4997 34.8559 23.0267 35.5363C22.9554 35.5914 22.8873 35.6497 22.8258 35.721C22.2653 36.3139 22.2523 37.2989 22.5147 38.0343C22.5569 38.1704 22.6184 38.2871 22.6929 38.381C22.6346 38.8314 22.6152 39.2753 22.7027 39.7029C22.748 39.8682 22.8485 40.0885 22.9975 40.2051C22.9943 40.2699 22.9878 40.3347 22.9845 40.3995C22.8355 42.1686 22.9133 42.5801 22.9716 43.4937C23.0169 46.2056 23.0234 45.603 23.1692 47.7025C23.2113 47.9617 23.2761 48.2177 23.3377 48.4736C23.3571 48.5903 23.3733 48.7101 23.3863 48.8268C23.3863 48.8592 23.3895 48.8948 23.3895 48.9272C23.3636 49.0309 23.3377 49.1313 23.3118 49.2221C23.1822 49.7502 23.0396 50.2783 22.9748 50.8194C22.7156 53.0258 22.9813 55.2679 23.6909 57.3642C23.6909 57.3707 23.6909 57.3739 23.6941 57.3804C23.976 58.8416 24.0537 60.4551 24.9674 61.6863C25.0711 61.8419 25.2007 61.9585 25.34 62.0492C25.3595 62.2663 25.4243 62.4737 25.5474 62.6519C25.8617 62.8916 26.2764 62.8916 26.6814 62.8754C26.7041 62.8981 26.7235 62.9273 26.7494 62.9467C26.9957 63.099 27.297 63.0731 27.5853 63.005C27.8445 63.1994 28.1167 63.3809 28.3953 63.5267C28.8425 63.7599 29.3285 63.815 29.7918 63.7437C29.8404 63.9511 30.0056 64.0677 30.2259 64.1099C30.6569 64.2686 31.1396 64.2459 31.5867 64.2265C31.6807 64.1811 31.739 64.0969 31.7682 63.9997C31.8168 64.0094 31.8654 64.0224 31.914 64.0321C32.1505 64.0418 32.5134 64.1844 32.6624 63.9381C32.6657 63.9349 32.6657 63.9284 32.6689 63.9252C32.9994 63.9025 33.8807 64.1034 33.8385 63.6725C34.6388 63.6401 35.4294 63.504 36.1746 63.2253C36.2945 63.1929 36.4143 63.1573 36.531 63.1152C37.0656 63.1184 37.5969 63.0925 38.1251 63.0245C38.4426 63.0147 38.7633 62.9985 39.0809 62.9694C40.1079 62.9823 41.135 62.9564 42.1556 62.8463C42.188 62.8527 42.2237 62.8625 42.2561 62.8689C43.5035 63.0536 44.78 62.9013 46.0177 62.694C46.0987 62.9499 46.2575 63.248 46.5458 63.2707C46.7078 63.2448 46.8633 63.2059 47.0124 63.1541C47.2457 63.248 47.5502 63.1962 47.9261 62.9078C48.0751 62.7717 48.195 62.6097 48.3084 62.4413C48.5967 62.4866 48.8916 62.2566 49.154 61.9326C49.8053 61.3818 50.2427 60.6042 50.3204 59.7488C50.3787 59.2369 50.3561 58.6991 50.2103 58.2001C50.4144 57.9344 50.5667 57.6428 50.544 57.2929C50.5472 56.9916 50.3723 56.6708 50.0807 56.5509ZM37.5775 56.6579C37.584 56.6546 37.5937 56.6546 37.6002 56.6514C37.6358 56.6384 37.6423 56.6384 37.6261 56.6449C37.6553 56.6319 37.6812 56.6222 37.7103 56.6093C37.8205 56.5736 37.976 56.5866 38.0927 56.5963C38.2579 56.6093 38.4134 56.6741 38.543 56.7745C38.6078 56.7583 38.6726 56.7486 38.7374 56.7421C39.0323 56.7097 39.3563 57.0369 39.3271 57.3318C39.3271 57.3383 39.3239 57.3447 39.3239 57.3512C39.2202 57.3739 39.1197 57.3901 39.0161 57.4095C38.7439 57.3545 38.4685 57.3091 38.1899 57.2767C37.8594 57.173 37.5289 57.0726 37.1952 56.9819C37.1336 56.9559 37.0753 56.93 37.0105 56.9041C36.9943 56.8976 36.9749 56.8879 36.9587 56.8814C36.9781 56.8717 36.9975 56.8652 37.017 56.8555C37.1984 56.768 37.3604 56.6449 37.5775 56.6579ZM50.0159 57.5553C49.9997 57.5715 49.9802 57.5845 49.964 57.5975C49.9219 57.5262 49.8765 57.4549 49.8279 57.3869C49.8895 57.2443 49.9413 57.1017 49.9835 56.9527C50.0612 56.9981 50.1228 57.0758 50.1811 57.1406C50.3366 57.3091 50.1422 57.4452 50.0159 57.5553Z" fill="#2471B6"/>
<path d="M36.5245 62.7264C36.5245 62.7199 36.5245 62.7134 36.5245 62.7069C36.6185 62.7264 36.7124 62.7491 36.8096 62.7588C36.7221 62.7329 36.6444 62.6907 36.5699 62.6389C36.5472 62.6292 36.5245 62.6162 36.5018 62.6065C36.4791 62.5482 36.4435 62.5028 36.3819 62.4834C36.3593 62.4899 36.3366 62.4931 36.3139 62.4996C36.1973 62.4218 36.0839 62.3343 35.9575 62.2825C35.6206 62.1302 35.2447 62.1399 34.8883 62.0654C34.8203 62.0492 34.7457 62.0168 34.668 61.9812C34.5999 61.7641 34.4801 61.5729 34.2695 61.4757C34.0815 61.4336 33.8839 61.4628 33.6863 61.4757C33.6441 61.4595 33.6053 61.4401 33.5696 61.4142C33.2715 61.1971 33.0091 60.9087 32.6592 60.7662C32.4032 60.6787 32.1116 60.6852 31.9075 60.4843C31.1753 59.6516 30.2778 58.7477 29.497 58.0835C29.1017 57.5489 28.755 56.9657 28.2884 56.3436C28.1621 56.133 28.0033 55.6275 27.6696 55.1772C27.6404 55.1351 27.6113 55.0929 27.5821 55.0508C27.0378 54.1015 27.1609 54.2246 26.8175 53.3077C26.6198 52.8573 26.649 52.1964 26.3574 51.2049C25.9686 50.2329 26.0139 49.9737 25.6964 48.668C25.2526 46.7564 25.0355 44.8059 24.4101 42.2042C24.1995 41.3813 24.1639 40.8305 23.9728 39.6252C23.9015 39.3303 23.8432 39.0355 23.7946 38.7374C23.7946 38.7342 23.7946 38.7277 23.7946 38.7245C23.7946 38.6564 23.7946 38.5884 23.7946 38.5236H23.7816C23.7686 38.3519 23.7557 38.1834 23.7395 38.0117C23.7233 37.9112 23.7006 37.8173 23.6714 37.733C23.639 37.3475 23.6164 36.9619 23.6196 36.5763C23.6585 36.4046 23.7006 36.2297 23.7427 36.0579C23.8334 35.6886 24.1898 34.5027 23.5418 34.5319C23.3021 34.6226 23.179 34.9013 23.0753 35.1216C23.0137 35.2868 22.9651 35.4553 22.9262 35.6238C22.7318 35.8571 22.7642 36.2523 22.7804 36.5407C22.7837 36.5958 22.7837 36.6476 22.7869 36.7027C22.7804 36.8226 22.7772 36.9425 22.7772 37.0591C22.7578 37.1919 22.7416 37.3215 22.7416 37.4544C22.6703 37.5548 22.6087 37.6844 22.5601 37.8561C22.5212 38.0797 22.4986 38.3 22.4856 38.5236H22.4694C22.4694 38.6078 22.4726 38.6888 22.4759 38.7731C22.4694 39.1035 22.4791 39.434 22.5083 39.7645C22.5277 40.2019 22.5504 40.6425 22.5796 41.0799C22.5374 41.8932 22.5407 42.7097 22.6055 43.5229C22.6606 44.0867 22.7092 44.6569 22.761 45.2271C22.7642 46.5555 22.8258 47.8807 22.9748 49.1994C23.0882 49.8733 23.2146 50.5505 23.3604 51.2244C23.2535 51.3151 23.1595 51.4415 23.0785 51.6067C22.6832 52.4264 22.6282 53.3595 22.7027 54.2538C22.7448 55.0184 22.8614 55.7766 23.017 56.5283C23.0753 57.2151 23.2049 57.8955 23.4641 58.5306C23.4706 58.5435 23.477 58.5533 23.4868 58.5662C23.665 59.2272 23.8626 59.8266 23.9922 60.2543C24.2222 60.9444 24.6661 61.5827 25.2364 62.0492C25.5766 62.4704 25.988 62.8301 26.474 63.0763C26.6749 63.1541 26.9082 63.2415 27.1285 63.248C27.2808 63.5817 27.7182 63.8118 28.107 63.828C28.2301 63.8409 28.3532 63.8474 28.4764 63.8442C29.3771 64.1682 30.4689 64.3464 30.7865 63.6303C30.9323 63.6692 31.0748 63.6951 31.2141 63.6595C31.2239 63.6465 31.2271 63.6336 31.2336 63.6206C31.7552 63.747 32.3028 63.7729 32.8471 63.7373C33.1614 63.7502 33.4757 63.747 33.7899 63.7113C34.0232 63.6854 34.2954 63.6368 34.4509 63.4489C35.1054 63.4165 35.7793 63.3258 36.3333 63.0536C36.3495 63.0536 36.3657 63.0504 36.3819 63.0504C36.3819 63.0439 36.3819 63.0374 36.3819 63.0309C36.4111 63.0147 36.4403 63.005 36.4694 62.9888C36.4791 62.9726 36.4856 62.9564 36.4921 62.937C36.4986 62.937 36.5051 62.937 36.5115 62.937C36.5245 62.9402 36.5375 62.937 36.5472 62.9402V62.937C36.5569 62.937 36.5666 62.937 36.5796 62.937C36.6411 62.8268 36.6023 62.7653 36.5245 62.7264Z" fill="#243854"/>
<path d="M42.3144 42.7745C42.1589 42.4213 41.8738 42.3047 41.6275 42.4245C41.5141 41.8543 41.3845 40.7786 40.9018 40.3639C40.5162 39.6608 40.1112 39.4373 39.7548 39.5474C39.6025 38.9675 39.4243 38.3972 39.1878 37.8464C39.1586 37.7849 39.123 37.7233 39.0906 37.665C39.0809 37.6358 39.0744 37.6067 39.0647 37.5743C39.0485 37.4933 39.0258 37.4025 38.9902 37.3183C38.9869 37.3086 38.9837 37.2989 38.9804 37.2891C38.7569 36.6379 38.6921 35.9024 38.2612 35.3451C38.0894 35.1767 37.9307 35.0957 37.7849 35.0697C37.759 35.0049 37.733 34.9401 37.7071 34.8753C37.6358 34.4282 37.5646 33.9843 37.4965 33.5405C37.4868 33.44 37.4738 33.3428 37.4576 33.2456C37.4544 33.2165 37.4512 33.1905 37.4479 33.1614C37.4512 33.1743 37.4512 33.1905 37.4544 33.2132C37.2924 32.1408 36.9263 31.2951 36.0904 31.5738C35.5266 32.063 35.316 32.7402 35.2836 33.4854C35.1378 33.8029 35.0179 34.1301 34.9078 34.344C34.8462 34.4671 34.7911 34.6064 34.7425 34.749C34.5838 34.7781 34.4218 34.8656 34.276 35.0276C34.1755 35.1702 34.0848 35.316 33.9973 35.465C33.547 35.6011 33.1322 36.2361 33.0415 37.2146C33.0221 37.4285 32.9994 37.6455 32.98 37.8626C32.8244 38.3972 32.6916 38.9448 32.575 39.4891C32.387 40.2116 32.1926 40.9309 32.0015 41.6534C31.846 42.1005 31.7585 42.5671 31.765 43.0401C31.7617 43.0725 31.7617 43.1049 31.7617 43.1406C31.6548 43.6039 31.5965 44.0834 31.5317 44.537C31.3794 46.1279 31.5414 47.7511 31.9788 49.2966C31.9885 49.3387 31.995 49.3776 32.008 49.4197C32.251 50.7189 32.6819 51.9987 33.4789 53.0679C33.696 53.4179 33.9487 53.6511 34.2144 53.7775C34.4347 54.2505 34.7263 54.6912 35.0438 55.1059C35.2804 55.4493 35.546 55.7701 35.8895 56.0099C36.1908 56.2043 36.4662 56.2982 36.7157 56.3177C36.7157 56.3177 36.7189 56.3177 36.7189 56.3144C36.7319 56.3047 36.7448 56.295 36.7643 56.2788C36.8226 56.2367 36.8777 56.1881 36.9392 56.1524C37.0494 56.0876 37.1758 56.039 37.2956 55.9969C37.341 55.9807 37.3864 55.9645 37.4317 55.9515C37.4609 55.9451 37.4998 55.9321 37.4965 55.9353C37.6164 55.8835 37.733 55.8219 37.8529 55.7798C38.057 55.7053 38.2741 55.6567 38.488 55.6049C38.7115 55.553 38.9383 55.5044 39.1586 55.4396C39.2105 55.4234 39.2591 55.4105 39.3109 55.391C39.3206 55.3878 39.3822 55.3651 39.4049 55.3586C39.4276 55.3489 39.4891 55.3197 39.4988 55.3133C39.541 55.2906 39.5831 55.2679 39.6252 55.242C39.6576 55.1934 39.6932 55.1448 39.7224 55.0897C39.8617 55.0508 39.9946 54.9666 40.0853 54.8337C40.1468 54.7495 40.1987 54.662 40.2473 54.5745C40.3801 54.4482 40.5032 54.3121 40.6231 54.1728C40.837 54.1274 41.0119 53.933 41.1156 53.7451C41.2484 53.5475 41.3392 53.3239 41.4072 53.0939C41.5562 53.0323 41.702 52.9027 41.8284 52.6759C42.2075 52.0862 42.2917 51.4317 42.2528 50.7675C42.5477 50.3463 42.6611 49.8474 42.6805 49.3355C42.7907 48.9758 42.7842 48.5676 42.8198 48.1982C42.9332 46.2575 42.8134 44.1126 42.3144 42.7745Z" fill="#3D3D3D" stroke="#ABABAB" stroke-miterlimit="10"/>
<path d="M38.057 53.554C37.8626 53.6998 37.6358 53.6382 37.4349 53.5345C37.4479 53.4535 37.4544 53.3693 37.4576 53.2818C37.49 53.2915 37.503 53.2948 37.4738 53.2559C37.4706 53.2494 37.4641 53.2462 37.4576 53.2429C37.4609 53.0453 37.4414 52.8379 37.3863 52.65C37.0137 51.6715 36.3366 50.8356 35.8797 49.8928C35.154 48.5968 34.8818 47.7997 34.7425 47.2101C34.7393 47.1906 34.7328 47.1777 34.7296 47.1647C34.7296 47.1485 34.7231 47.1161 34.7166 47.061C34.7134 47.0351 34.7133 47.0221 34.7133 47.0124C34.7101 46.98 34.7101 46.9573 34.7101 46.9411C34.7911 46.3093 34.668 45.2337 33.9779 45.4119C33.9584 45.4248 33.9455 45.441 33.9293 45.454C33.9001 45.4605 33.8677 45.4702 33.8386 45.4831C33.5891 45.6581 33.4854 45.9562 33.4044 46.2348C33.2003 46.8407 33.0707 47.4693 33.0512 48.1108C33.0059 48.9694 33.3817 49.7016 33.8612 50.3853C34.0427 50.8291 34.25 51.2082 34.4023 51.4123C34.5319 51.6586 34.6453 51.9178 34.8106 52.1446C35.0147 52.3552 35.0244 52.2871 35.1313 52.5075C35.3937 53.0971 36.2264 53.7516 36.4921 53.9655C36.8971 54.4871 37.2243 54.2538 37.3734 53.7873C37.4349 53.7937 37.4965 53.8002 37.5581 53.8099C37.7492 53.8132 37.9501 53.7257 38.0635 53.5669C38.083 53.5313 38.1121 53.5086 38.057 53.554Z" fill="#8C8C8C" stroke="#ABABAB" stroke-miterlimit="10"/>
<path d="M51.0689 21.4617C51.584 21.7598 52.1251 21.9866 52.6727 22.2134" stroke="#ABABAB" stroke-miterlimit="10"/>
<path d="M51.5128 21.1151C51.8141 21.3872 52.2256 21.5136 52.6079 21.6302" stroke="#ABABAB" stroke-miterlimit="10"/>
<path d="M54.5454 24.935C54.5648 24.6564 54.6102 24.3972 54.7268 24.1445C54.7074 24.1834 54.7009 24.1963 54.7365 24.1218C54.7333 24.1283 54.7301 24.138 54.7268 24.1445C54.7495 24.0991 54.7884 24.0214 54.7949 24.0084C54.8078 23.9825 54.8564 23.908 54.8823 23.8756C54.9083 23.814 54.9504 23.6941 54.9666 23.6455C54.9795 23.6002 54.9925 23.5516 55.0087 23.5062C55.0605 23.3474 55.1221 23.2114 55.2387 23.0882C55.2614 22.9975 55.2971 22.9133 55.3457 22.829C55.3878 22.6994 55.4429 22.5796 55.5239 22.4629C55.6113 22.2458 55.7021 22.0417 55.8057 21.8473C55.796 21.8408 55.7863 21.8311 55.7766 21.8214C55.5919 20.7943 54.8985 20.3861 54.0691 19.8774C54.0659 19.8742 54.0626 19.8709 54.0594 19.8677C53.1522 19.0058 53.123 19.1063 52.6111 18.5782C52.4556 18.3805 52.2871 18.2023 52.0506 18.1537C51.9955 18.1408 51.9437 18.1408 51.8918 18.1408C51.5646 17.807 51.1272 17.6321 50.7513 18.0662C50.6477 18.2153 50.5634 18.3708 50.4921 18.5328C50.369 18.387 50.2491 18.2444 50.1325 18.0986V18.1019C50.0709 18.0338 49.9964 17.9788 49.9025 17.9528C49.2545 17.8492 49.1573 19.0415 49.2253 19.4951C49.3387 20.2176 49.8733 20.7846 50.2265 21.4067C50.7254 22.2005 51.3216 22.9327 52.0409 23.5289C52.6208 24.1898 53.285 24.7795 54.0529 25.2072C54.2214 25.3271 54.3769 25.4016 54.5227 25.4437C54.5227 25.2655 54.5324 25.0938 54.5454 24.935Z" fill="#7A0000" stroke="#ABABAB" stroke-miterlimit="10"/>
<path d="M54.9569 23.0882C55.0055 23.153 55.0541 23.2081 55.1059 23.2664C55.1416 23.2049 55.1804 23.1465 55.2323 23.0915C55.255 23.0007 55.2906 22.9165 55.3392 22.8323C55.3813 22.7027 55.4364 22.5828 55.5174 22.4661C55.7053 21.9963 55.8997 21.6075 56.2432 21.1766C56.538 20.804 56.781 20.4703 57.1212 20.1236C57.0564 19.3849 56.8004 18.6689 56.1557 18.2509C56.1136 18.225 56.0747 18.2023 56.0358 18.1796C55.728 17.8459 55.391 17.6288 55.067 17.6256C54.9051 17.4668 54.7236 17.3405 54.526 17.2465C54.4093 17.1363 54.2959 17.0489 54.1922 16.9808C54.121 16.8642 54.027 16.7216 53.9654 16.6406C53.6414 16.2097 52.8606 16.0315 52.5982 16.6115C52.5301 16.7346 52.4686 16.8609 52.42 16.9938C52.1834 16.9581 51.9826 17.1299 51.8659 17.6612C51.8562 17.6807 51.8562 17.7033 51.8465 17.7228C51.7882 17.6418 51.7039 17.6418 51.5776 17.7843C51.5387 17.8589 51.516 17.9366 51.4998 18.0144C51.3734 18.0662 51.3961 18.2574 51.4836 18.468C51.4933 18.5717 51.5128 18.6721 51.5322 18.7725C51.5387 18.954 51.5711 19.1095 51.6521 19.1516C51.7201 19.3298 51.7914 19.5145 51.9404 19.6117C52.0441 19.6409 52.1089 19.5113 52.1348 19.427C52.1446 19.3914 52.1446 19.3557 52.1446 19.3169C52.2288 19.4497 52.3325 19.5566 52.4621 19.6149C52.4912 19.6927 52.5172 19.7737 52.5496 19.8515C52.744 20.2694 52.9902 20.6582 53.2624 21.0308C53.4859 21.5136 53.8553 21.8959 54.283 22.2199C54.3186 22.2555 54.351 22.2912 54.3866 22.3268C54.5292 22.6119 54.7236 22.8938 54.9569 23.0882Z" fill="#ABABAB" stroke="#ABABAB" stroke-miterlimit="10"/>
<path d="M54.9828 23.5839C54.9893 23.558 54.999 23.5321 55.0055 23.5062C55.0573 23.3474 55.1189 23.2113 55.2355 23.0882C55.242 23.0688 55.2485 23.0461 55.2549 23.0267C55.2614 22.9943 55.2647 22.9651 55.2711 22.9327C55.2776 22.9327 55.2841 22.9359 55.2873 22.9359C55.3035 22.9003 55.323 22.8647 55.3424 22.829C55.3845 22.6994 55.4396 22.5795 55.5206 22.4629C55.5725 22.3333 55.6275 22.2069 55.6826 22.0871C55.6437 22.0903 55.6016 22.1033 55.5692 22.1097C55.553 22.113 55.5368 22.1162 55.5239 22.1162C55.3651 21.8927 55.1124 21.7242 54.8564 21.6885C54.3866 21.3192 53.46 20.8591 53.0453 21.1021C52.8638 21.0049 52.6824 20.9077 52.4977 20.8202C52.4199 20.7878 52.3422 20.7425 52.2644 20.7846C52.1834 20.804 52.1186 20.8559 52.07 20.9207C52.0571 20.9142 52.0441 20.9077 52.0311 20.9012C51.9113 20.8526 51.7849 20.7327 51.6521 20.7522C51.503 20.8235 51.4512 20.9919 51.4447 21.1637C51.0041 20.9012 50.6153 20.5351 50.3269 20.1139C50.6088 20.736 51.0267 21.3127 51.5516 21.7533C51.6715 21.8441 51.7914 21.9315 51.908 22.0158C51.9631 22.2588 52.0765 22.4856 52.2677 22.6573C52.4297 22.7999 52.5917 22.9068 52.7537 22.991C53.2105 23.4965 53.7807 23.9889 54.2603 23.5094C54.2667 23.4965 54.2732 23.4835 54.2797 23.4705C54.3413 23.4932 54.3996 23.5191 54.4579 23.5483C54.6879 23.6811 54.8564 23.6714 54.9828 23.5839Z" fill="#7A0000" stroke="#ABABAB" stroke-miterlimit="10"/>
<path d="M55.0897 20.8818C54.8726 20.6129 54.6232 20.5157 54.3866 20.5384C54.2117 20.2856 54.0011 20.0783 53.7678 19.9843C53.6706 19.6765 53.5313 19.3849 53.3434 19.129C52.9319 18.4226 52.2353 17.9496 51.6877 17.347C51.6164 17.2044 51.5452 17.0618 51.4771 16.9193C51.3767 16.6568 51.2568 16.4041 51.0818 16.1806C50.8259 15.8857 50.5667 15.8144 50.3334 15.8792C49.734 15.5812 49.2253 16.1158 49.0018 16.8869C48.9661 17.01 48.9434 17.1331 48.9208 17.2498C48.5773 17.3891 48.4024 17.9593 48.3602 18.3028C48.208 19.21 48.6097 20.0491 49.1378 20.7587C49.2059 20.8721 49.3031 21.0146 49.4197 21.1928C49.6076 21.627 49.8182 22.0514 50.0645 22.4564C50.2232 22.7318 50.3788 23.098 50.6736 23.2373C50.8129 23.2729 50.9328 23.2664 51.043 23.2405C51.1272 23.6617 51.3022 24.0538 51.5354 24.2935C51.7979 24.556 52.151 24.5851 52.501 24.5236C52.5301 24.5268 52.556 24.5236 52.5852 24.5236C52.6079 24.556 52.6273 24.5884 52.6532 24.6175C52.9254 24.9545 53.4341 25.0063 53.7937 24.7795C53.9428 24.6596 54.0302 24.4879 54.0691 24.3032C54.0724 24.2903 54.0756 24.2773 54.0788 24.2644C54.2441 24.3324 54.4158 24.3875 54.5908 24.4199C54.9212 24.4328 55.1578 24.1348 55.3068 23.8723C55.7118 22.936 55.6826 21.7339 55.0897 20.8818Z" fill="#243854"/>
<path d="M58.7736 17.0942C58.7898 17.0554 58.8092 17.0165 58.8254 16.9808C58.7995 17.0132 58.7736 17.0489 58.7444 17.0813C58.7088 17.0618 58.6667 17.0521 58.6181 17.0554C58.6926 16.8221 58.725 16.5823 58.6699 16.3458C58.576 16.0607 58.4237 16.0412 58.2973 16.1384C58.3491 15.9343 58.3654 15.714 58.3718 15.5585C58.3589 15.4354 58.3427 15.3317 58.3265 15.2377C58.9162 14.1912 59.467 13.1188 60.2024 12.1694C59.3276 12.8336 58.6472 13.7246 57.9474 14.5638C57.9182 14.6124 57.8826 14.6578 57.8437 14.6999C57.5456 14.836 57.199 15.4256 56.9948 15.9084C56.6903 16.5532 56.4732 17.1655 56.2691 17.7552C56.1168 18.2185 56.1233 19.1711 56.619 19.3396C56.6028 19.3784 56.5866 19.4141 56.5704 19.453C56.551 19.4886 56.5315 19.521 56.5121 19.5566C56.4991 19.5728 56.4862 19.5923 56.4732 19.6085C56.4116 19.7219 56.3306 19.8353 56.3015 19.9616C56.2075 20.1463 56.12 20.331 56.0326 20.5189C56.0293 20.4995 56.0293 20.4768 56.0261 20.4606C55.9418 20.0329 55.6243 19.8515 55.2549 19.7154C55.31 18.8827 55.0411 17.9755 54.4482 17.8816C54.2311 17.9172 54.0594 18.063 53.9266 18.2736C53.9363 18.2509 53.946 18.2282 53.9525 18.2023C53.9233 18.2671 53.8812 18.3352 53.8391 18.4032C53.8585 18.2315 53.9136 18.063 54.0464 17.9528C53.8974 18.0112 53.8293 18.1537 53.784 18.3028C53.771 18.2509 53.7581 18.1958 53.7419 18.144C53.6544 17.9366 53.5669 17.5932 53.3498 17.9237C53.2429 18.0371 53.1716 18.1732 53.123 18.3222C53.0032 18.0727 52.8185 18.0986 52.7828 18.4583C52.6921 18.4388 52.5981 18.4324 52.5333 18.4518C52.4523 18.5328 52.4588 18.6818 52.5009 18.7823C52.5593 18.8795 52.7051 18.8795 52.799 18.9346C52.825 18.9475 52.8541 18.9572 52.88 18.9702C52.9416 19.1063 53.0291 19.2294 53.123 19.346C53.2332 19.6214 53.4632 19.8742 53.6641 19.9519C53.7484 20.5448 54.0108 21.0535 54.4449 21.1216C54.5486 21.1054 54.6426 21.06 54.7268 20.9984C54.7916 21.047 54.8629 21.0924 54.9342 21.1313C55.2064 21.316 55.4332 21.5719 55.7377 21.7015C55.7669 21.7177 55.796 21.6918 55.809 21.6626C55.9483 21.4358 56.0487 21.1248 56.0099 20.8462C56.0811 20.7425 56.1557 20.6388 56.2269 20.5319C56.2237 20.5643 56.2205 20.5934 56.2205 20.6258C56.1978 20.7976 56.2043 20.9725 56.2626 21.1442C56.3015 21.2317 56.3404 21.29 56.3825 21.3257C56.5121 21.5266 56.7194 21.6594 56.9106 21.4294C57.0823 21.1864 57.1892 20.9855 57.2702 20.8688C57.6039 20.3407 58.6181 19.8806 58.7444 19.1128C58.7542 18.9443 58.7477 18.7985 58.7315 18.6754C58.9324 18.4486 59.049 18.1732 59.036 17.8589C59.0393 17.6386 58.9777 17.2271 58.7736 17.0942ZM53.5118 18.4032C53.5702 18.5036 53.609 18.6203 53.6382 18.7434C53.6317 18.7596 53.6252 18.7758 53.6188 18.792C53.5637 18.724 53.4892 18.6721 53.4049 18.6365C53.4049 18.6268 53.4049 18.6235 53.4081 18.6138C53.4081 18.6138 53.4082 18.6138 53.4114 18.6073C53.4146 18.5911 53.4211 18.5717 53.4276 18.5555C53.4276 18.5522 53.4308 18.5522 53.4308 18.549C53.4308 18.5458 53.4308 18.5458 53.4341 18.5425C53.4503 18.4939 53.4827 18.4486 53.5118 18.4032ZM55.9354 21.0244C55.9192 21.1702 55.8382 21.2868 55.7539 21.4002C55.7248 21.3775 55.66 21.3484 55.6373 21.3224C55.553 21.2317 55.4623 21.1507 55.3716 21.0632C55.4105 21.0859 55.4461 21.1086 55.4882 21.1248C55.5919 21.1702 55.6794 21.1702 55.7571 21.1442C55.7312 21.209 55.7021 21.2706 55.6761 21.3354C55.7345 21.2576 55.7896 21.1734 55.8446 21.0924C55.8835 21.0632 55.9159 21.0211 55.9418 20.9758C55.9386 20.9952 55.9386 21.0082 55.9354 21.0244ZM58.0705 16.5694C57.983 16.7832 57.8599 17.159 57.6623 17.3599C57.5651 17.4442 57.4549 17.5316 57.3415 17.6062C57.3707 17.5219 57.3998 17.4442 57.4258 17.3761C57.5068 17.1752 57.6234 16.8836 57.7465 16.605C57.7724 16.6212 57.7951 16.6374 57.821 16.6504C57.9247 16.6504 58.0057 16.6147 58.0738 16.5564C58.0705 16.5564 58.0705 16.5629 58.0705 16.5694Z" fill="#ABABAB"/>
<path d="M52.8833 15.1891C52.6208 15.2733 52.3811 15.4127 52.1445 15.5552C52.0959 15.5228 52.0344 15.5131 51.9501 15.5487C51.827 15.6362 51.7266 15.7496 51.6294 15.8663C51.4026 15.9343 51.1499 16.0088 51.0203 16.2162C51.0105 16.2421 51.0008 16.2745 50.9911 16.3069C50.8518 16.2939 50.7384 16.3361 50.7092 16.5175C50.625 16.8609 50.8226 16.929 51.0559 16.8966C51.0721 16.916 51.0915 16.929 51.111 16.9452C51.1401 17.0553 51.1985 17.1461 51.3086 17.1785C51.3572 17.1623 51.3993 17.1363 51.4382 17.1039C51.4415 17.1169 51.4415 17.1299 51.4479 17.1396C51.9501 16.9095 52.3811 16.4073 52.8411 16.0671C52.9578 15.944 53.1263 15.8857 53.1781 15.7043C53.2526 15.4937 53.1846 15.066 52.8833 15.1891Z" fill="#ABABAB"/>
<path d="M67.1328 7.76306C67.055 7.63346 66.9481 7.52978 66.8282 7.4423C66.6014 7.20578 66.2872 7.05026 66.015 6.87206C65.8206 6.77486 65.6035 6.5999 65.3767 6.6485C65.299 6.68738 65.2406 6.73922 65.1888 6.80078C65.1013 6.8267 65.0333 6.87206 64.9717 6.92066C64.9652 6.88178 64.9555 6.8429 64.9523 6.80078C64.949 6.8429 64.949 6.88502 64.949 6.92714C64.9102 6.84614 64.868 6.76514 64.8324 6.6809C64.8518 6.78458 64.8778 6.8915 64.9069 6.99194C64.9037 6.99842 64.9004 7.0049 64.894 7.00814C64.8875 6.97898 64.881 6.94982 64.8713 6.9239C64.8713 6.95954 64.8745 6.99518 64.8778 7.03082C64.8259 7.09886 64.7806 7.17014 64.7546 7.25762C64.7514 7.25438 64.7514 7.25114 64.7482 7.25114C64.7482 7.25438 64.7514 7.25762 64.7514 7.2641C64.6315 7.68206 64.7903 8.26202 64.9458 8.60546C65.1564 9.16274 65.7364 9.44138 66.2936 9.54182C66.4816 9.53858 66.7116 9.5807 66.8639 9.45434C66.8995 9.41546 66.9287 9.3701 66.9546 9.32474C67.3531 8.94242 67.3369 8.23286 67.1328 7.76306Z" fill="#5C5C5C"/>
<path d="M34.0621 51.9372C33.9844 51.4285 33.7997 50.9457 33.5632 50.4889C33.4044 49.8765 32.9216 48.8754 32.724 48.4574C32.5199 47.5729 32.4 46.6884 32.3028 45.9108C32.2834 45.3405 32.2574 44.9485 32.2348 44.6277C32.2412 44.4787 32.2477 44.3264 32.2542 44.1774C32.2542 43.7886 32.319 43.3771 32.2542 42.9915C32.319 42.8231 32.387 42.6546 32.4551 42.4893C32.3741 42.6027 32.2963 42.7194 32.2218 42.836C32.2088 42.7842 32.1926 42.7291 32.17 42.6773C32.0922 42.3306 31.658 42.0973 31.4604 42.4958C31.2984 42.7161 31.2887 43.0045 31.2368 43.2669C30.955 45.7909 31.1915 50.2491 33.0642 52.8962C33.5599 53.9687 34.2241 52.8735 34.0621 51.9372Z" fill="#7A7A7A"/>
<path d="M37.5646 55.1318C37.4447 55.1318 37.3151 55.1675 37.1952 55.1578C37.6358 55.1351 37.8529 54.675 37.9631 54.2992C38.3098 52.5949 37.6812 51.7298 36.6606 50.395C36.4532 50.1325 36.2329 49.8798 35.9964 49.6433C35.8571 49.3938 35.7178 49.1443 35.5849 48.8916C35.4488 48.6454 35.3192 48.3862 35.1281 48.1788C34.9952 47.9066 35.0568 47.9423 34.9564 47.7382C35.0406 47.534 35.1022 47.3234 35.0795 47.0999C35.073 46.818 34.9726 46.5296 34.7814 46.494C34.7814 46.2672 34.7425 46.0436 34.6453 45.833C34.6194 45.7812 34.5935 45.7391 34.5643 45.7034C34.5384 45.4864 34.4801 45.2758 34.357 45.0846C34.2306 44.7833 33.7997 44.78 33.6733 45.0846C33.6571 45.1105 33.6442 45.1397 33.628 45.1656C33.4854 45.2693 33.3655 45.4572 33.3169 45.6775C33.129 46.2478 32.9994 47.0059 33.2683 47.5729C33.1452 47.9358 33.2165 49.1573 33.197 48.6032C33.223 49.1184 33.2683 49.6368 33.4627 50.1196C33.7673 50.9684 34.2047 51.7622 34.6907 52.5236C34.7911 52.8865 34.9175 53.2462 35.0924 53.5734C34.9499 53.4568 34.7944 53.3531 34.6486 53.2397C34.2533 52.8444 33.9196 52.394 33.5567 51.9696C33.21 51.4382 32.9216 50.9458 32.7046 50.4079C33.2035 49.5558 33.0221 47.7252 32.1667 47.5924C32.1538 47.5956 32.1408 47.6021 32.1278 47.6053C32.1181 47.5276 32.1084 47.4498 32.0922 47.3753C32.0954 47.453 32.0954 47.534 32.0954 47.6183C32.0922 47.6183 32.089 47.6215 32.0857 47.6215C32.0663 47.5438 32.0468 47.466 32.0371 47.3882C32.0144 47.155 32.0209 46.9184 32.0306 46.6852C32.1376 45.104 32.873 43.5262 33.0577 41.958C33.1387 41.4947 33.2294 41.0022 33.3202 40.5875C33.3266 40.5 33.3331 40.4222 33.3364 40.3477C33.5178 39.9492 33.6733 39.5377 33.79 39.1165C34.0718 38.5495 34.2436 38.057 34.4056 37.6553C34.8916 36.8258 35.3192 36.1811 35.8733 35.4229C35.2253 35.8895 34.5028 36.5537 34.0848 37.2341C33.9066 37.6294 33.7154 38.0279 33.5696 38.4361C33.4627 38.5528 33.3558 38.6726 33.2716 38.8087C33.0512 39.2785 33.0156 39.8066 32.9605 40.3153C32.8666 40.6555 32.7791 40.999 32.7078 41.3456C32.5782 42.0001 32.4551 42.5574 32.3384 43.1114C32.319 43.1503 32.2963 43.186 32.2769 43.2248C32.2898 43.1665 32.2996 43.1082 32.3125 43.0499C32.3806 42.3889 32.3708 41.6923 32.7078 41.0994C32.737 40.6976 32.7143 40.2894 32.8212 39.8974C32.6851 40.2149 32.6171 40.5551 32.5717 40.8985C32.4972 41.0476 32.3676 41.1739 32.3158 41.3424C32.0695 41.8964 32.008 42.8976 31.9496 43.0596C31.5058 44.644 31.6775 46.3028 31.6904 47.9358C31.1234 48.7393 31.2822 50.6963 32.17 50.8356C32.238 50.8259 32.3028 50.8032 32.3644 50.7708C32.3968 50.8874 32.4324 51.0041 32.481 51.1175C32.7985 51.827 33.061 52.5755 33.5761 53.1749C33.8321 53.5021 34.0913 53.8326 34.3991 54.1112C34.7198 54.3607 35.086 54.5422 35.3516 54.8629C35.5784 55.1189 35.8474 55.323 36.1973 55.3651C36.5018 55.4656 36.7837 55.6276 37.0915 55.7118C37.273 55.7377 37.4285 55.6211 37.6002 55.5887C38.1575 55.5401 38.7083 55.4008 39.191 55.1156C38.65 55.242 38.1024 55.2064 37.5646 55.1318Z" fill="#C2C2C2"/>
<path d="M38.5495 42.755C38.4458 42.4148 38.1704 42.1524 38.1056 41.9094C38.0052 41.5465 37.8594 41.2095 37.6261 40.9114C37.5969 40.8628 37.3442 40.474 37.2373 40.4222C37.0397 40.2084 36.7675 40.1436 36.5083 40.0496C36.275 39.9654 35.9899 39.8844 35.7631 40.0172C35.3484 40.3574 35.41 41.0864 35.7826 41.4363C35.8506 41.5206 35.9219 41.6048 35.9899 41.6858C36.1584 42.2107 36.518 42.6967 36.8615 43.1211C36.9522 43.4419 36.9878 43.74 37.0786 44.0672C37.1401 44.4528 37.0688 44.7444 37.2179 45.4118C37.4252 46.2963 37.908 46.413 38.2514 45.509C38.6532 44.699 38.8541 43.7691 38.5495 42.755Z" fill="#C2C2C2"/>
<path d="M42.7161 49.9284C42.9073 49.0924 42.8684 48.2144 42.7518 47.372C42.4699 46.0792 42.4731 45.7034 42.1589 44.3134C42.0584 43.795 41.9839 43.2637 41.7409 42.7874C41.7279 42.7582 41.7182 42.7323 41.7053 42.7032C41.4979 42.1135 41.4072 41.4849 41.1285 40.9212C40.7754 40.1468 40.3121 39.4729 39.8649 38.8962C39.434 37.9792 39.0517 37.0202 38.4912 36.1713C38.2514 35.964 38.0732 35.8149 37.9145 35.5168C37.6909 35.1378 37.3766 34.8202 37.1693 34.4347C36.9975 34.0783 36.7545 33.7672 36.5342 33.4432C36.3949 33.1322 36.356 32.7661 36.4629 32.4388C36.2653 32.8309 36.3009 33.3104 36.4241 33.7219C36.5601 34.0394 36.7286 34.344 36.7837 34.5416C36.9554 35.1442 37.2665 35.6853 37.5224 36.2556C37.6747 36.6184 37.8432 36.9716 38.1251 37.2535C38.2871 37.5807 38.3907 38.0311 38.5592 38.4166C38.8119 38.9642 38.8832 39.4891 39.2493 40.3477C39.9848 41.4914 40.3866 42.2982 40.6847 43.7108C41.2484 45.1364 41.1933 45.7812 41.6372 47.3655C41.9191 48.6032 41.9871 48.438 41.8932 49.7923C41.8932 49.7696 41.8964 49.7502 41.8964 49.721C41.8964 49.7696 41.8899 49.815 41.8867 49.8571C41.8867 49.8733 41.8835 49.8862 41.8835 49.8992C41.8835 49.9024 41.8835 49.8992 41.8835 49.9024C41.8381 50.2977 41.6793 50.4954 41.5141 50.9684C41.5076 50.9878 41.4817 51.0591 41.4947 51.0138C41.5076 50.9846 41.5011 50.9814 41.4785 51.0105C41.4104 51.085 41.3229 51.1401 41.2549 51.2146C41.0378 51.4771 40.8207 51.9825 40.6976 52.1737C40.5972 52.2676 40.3639 52.7115 40.2537 52.9318C40.0658 53.1036 39.9233 53.3109 39.8455 53.5572C39.6576 53.9168 39.366 54.2181 39.3077 54.6361C39.2979 54.675 39.2817 54.7624 39.2753 54.7851C39.3563 54.6134 39.4211 54.4287 39.5604 54.2926C39.8779 54.027 39.933 53.9362 40.1825 53.6479C40.406 53.5474 40.5486 53.353 40.7041 53.1684C40.9925 52.9092 41.2225 52.5981 41.4752 52.3065C41.6567 52.1931 41.8673 52.1024 41.9677 51.8983C42.0811 51.7136 42.1427 51.5646 42.2528 51.4317C42.5574 51.0138 42.6189 50.4727 42.7097 49.977C42.7259 49.8927 42.7161 49.9316 42.7064 49.9834C42.7097 49.9672 42.7129 49.9478 42.7161 49.9284Z" fill="#C2C2C2"/>
<path d="M40.3445 47.0189C40.3574 46.9411 40.3704 46.8666 40.3704 46.7856C40.325 45.8687 39.839 46.0469 39.6608 46.805C39.5215 47.4271 39.6673 47.9973 39.6187 48.6129C39.379 49.4132 38.9934 50.1681 38.88 51.0008C38.8735 51.0818 38.8573 51.1466 38.8962 51.0235C38.9902 50.7416 39.1295 50.4824 39.285 50.2329C39.2785 50.3463 39.272 50.4597 39.2558 50.5699C39.1133 51.1207 38.5916 51.4674 38.2093 51.8562C38.5916 51.6747 38.9999 51.4965 39.298 51.1855C39.5248 50.9166 39.5766 50.5569 39.6317 50.22C39.6446 49.9025 39.852 49.6595 39.9784 49.3841C40.0885 49.1087 40.1242 48.8138 40.1501 48.519C40.3153 47.9844 40.406 47.4109 40.3445 47.0189Z" fill="#C2C2C2"/>
<path d="M39.0776 54.1241C38.9092 53.8455 38.705 53.7062 38.5009 53.6641C38.3065 53.4502 38.0862 53.3433 37.8562 53.434C37.6715 53.3368 37.5062 53.2007 37.341 53.0647C37.3507 53.042 37.3572 53.0193 37.3637 52.9999C37.4965 52.5884 37.4058 52.1413 37.1952 51.7719C37.1822 51.746 37.1693 51.7233 37.1596 51.6974C37.0721 50.5925 36.5796 50.0871 36.1519 49.2544C35.8312 48.6971 35.6173 48.3602 35.4164 48.0589C35.3095 47.7932 35.2123 47.5275 35.1151 47.2586C35.0698 47.1225 35.0244 46.9961 34.9823 46.873C34.5935 45.7196 34.2662 44.5078 33.8807 43.1632C33.7932 42.8263 33.6571 42.6383 33.5113 42.5671C33.4854 42.2755 33.466 41.9839 33.4465 41.6923C33.5761 41.3229 33.7187 40.9179 33.858 40.5161C33.8872 40.4902 33.9163 40.4643 33.9422 40.4287C34.1528 40.1371 34.3019 39.8098 34.4185 39.4664C34.4574 39.3854 34.4963 39.3044 34.5352 39.2234C34.6907 39.0549 34.9045 38.4749 34.9434 38.3615C34.9402 38.368 34.9402 38.3713 34.9369 38.3777C34.9499 38.3486 34.9628 38.3194 34.9758 38.2903C35.0471 38.1445 35.1216 38.0019 35.1929 37.8561C35.2771 37.6876 35.3484 37.5159 35.4197 37.3409C35.6335 36.9262 35.8636 36.5147 36.0806 36.1033C36.2297 35.7598 36.7124 35.3289 36.8647 34.3375C37.0591 33.3655 36.437 31.4895 35.3808 32.8892C35.3516 32.9281 35.3192 32.9734 35.2868 33.0253C35.1799 33.0253 35.0665 33.0674 34.9499 33.1711C34.7555 33.3363 34.6356 33.5599 34.5514 33.7996C34.3019 34.1625 34.425 33.9778 33.6215 35.209C32.9638 36.2037 32.4972 37.3021 32.1408 38.4361C31.8071 38.611 31.4928 39.1651 31.3535 40.1889C31.2692 40.5453 31.198 40.9082 31.1332 41.2613C31.0813 41.4104 31.0262 41.5562 30.9744 41.7052C30.7022 42.7841 30.3329 43.8825 30.4981 45.01C30.5305 45.185 30.5662 45.3632 30.6115 45.5381C30.4754 46.4324 30.4074 47.359 30.8059 48.0589C30.8545 48.4865 30.9161 48.9142 31.0036 49.3354C31.1461 49.9251 31.3664 50.4986 31.6354 51.0397C31.7261 51.1952 31.8622 51.3993 32.0112 51.4771C32.1862 51.5581 32.3514 51.5354 32.4907 51.4576C32.5134 51.5419 32.5361 51.6261 32.575 51.7071C32.656 51.8691 32.7596 52.0117 32.8698 52.151C32.8374 52.5787 32.9249 53.0323 33.0642 53.3951C33.3623 54.001 33.9422 54.3736 34.4347 54.8078C35.0244 55.2355 35.5946 55.728 36.2815 55.9936C36.625 56.1329 36.8842 56.0455 37.0624 55.8349C37.1628 55.8997 37.2665 55.9612 37.3604 56.0325C37.3637 56.0357 37.3604 56.0325 37.3637 56.0357C37.4414 56.1038 37.5386 56.1459 37.6229 56.2075C37.7363 56.2949 37.8432 56.3986 37.9922 56.4148C38.138 56.3954 38.2612 56.3306 38.3616 56.2399C38.4394 56.2463 38.5204 56.2237 38.5949 56.1491C38.6273 56.1135 38.65 56.0681 38.6791 56.0293C38.7212 56.0325 38.7634 56.0293 38.8055 56.0033C38.8832 55.9515 38.9416 55.8835 38.9804 55.7992C39.0744 55.6534 39.1068 55.4266 39.0874 55.1674C39.2364 54.8985 39.2429 54.5324 39.0776 54.1241ZM33.2586 42.2398C33.2813 42.1783 33.304 42.1102 33.3266 42.0422C33.3234 42.2074 33.3234 42.3759 33.3266 42.5411C33.2748 42.5509 33.2262 42.5703 33.1776 42.6027C33.1938 42.5249 33.21 42.4504 33.223 42.3856C33.2327 42.337 33.2456 42.2884 33.2586 42.2398Z" fill="#1F1F1F"/>
<path d="M38.5268 51.8756C38.3519 51.6262 38.1024 51.4609 37.8302 51.3346C37.7557 51.2633 37.6715 51.1952 37.5775 51.1434C37.5386 51.1207 37.4965 51.111 37.4576 51.1045C37.3863 51.0138 37.3151 50.9166 37.2567 50.8129C37.2762 50.8421 37.3118 50.9036 37.3118 50.8972C37.1077 50.6282 36.9813 50.2978 36.7643 50.045C36.7092 49.9414 36.6541 49.8377 36.599 49.7372C36.6152 49.666 36.6282 49.5979 36.6379 49.5364C36.7383 48.8041 36.5472 48.0492 36.0839 47.4692C36.0482 47.4271 36.0126 47.3818 35.9769 47.3396C35.9672 47.3137 35.9575 47.2878 35.951 47.2716C35.5979 46.2445 34.9499 44.6504 34.7976 44.2228C34.7943 44.2098 34.7911 44.1968 34.7879 44.1806C35.0341 43.5456 35.2091 42.8782 35.1864 42.1913C35.1799 42.0487 35.1702 41.9029 35.154 41.7571C35.1929 41.6308 35.235 41.5076 35.2771 41.3845C35.546 40.7981 35.8214 40.1857 35.7307 39.528C35.7113 39.0485 35.4845 38.0797 34.8624 38.2061C34.7425 38.2223 34.6453 38.2838 34.574 38.3908C34.5157 38.4685 34.4671 38.556 34.4185 38.6402C34.4185 38.637 34.4185 38.637 34.4153 38.6338C34.3731 38.6953 34.344 38.7634 34.3148 38.8314C34.2921 38.8865 34.2695 38.9448 34.2468 38.9999C34.2403 39.0128 34.2371 39.0258 34.2306 39.042C34.0913 39.3854 33.9649 39.7321 33.8483 40.0853C33.8256 40.1404 33.7997 40.1954 33.7737 40.2505C33.3947 40.3218 33.0804 40.9309 32.9897 41.297C32.8601 41.7571 32.8147 42.2302 32.8277 42.7064C32.7434 43.0888 32.6624 43.4743 32.5782 43.8566C32.4972 44.1418 32.4324 44.4334 32.3546 44.7152C32.1764 45.2887 32.1116 45.9367 32.3481 46.5005C32.3967 46.6722 32.5231 46.8763 32.6883 46.98C32.6916 47.5049 32.724 48.0298 32.8115 48.5449C32.8665 49.2221 33.0512 49.8863 33.3752 50.4695C33.6053 50.7416 34.2759 52.1381 34.9693 52.4167C35.1605 52.7472 35.4197 53.0744 35.6886 53.3304C35.6951 53.3531 35.7015 53.3758 35.708 53.3984C35.9802 53.9946 36.6962 54.1112 37.2729 54.2959C37.4479 54.432 37.6196 54.5648 37.7881 54.6977C37.9955 54.8759 38.1477 54.8078 38.2449 54.6329C38.2514 54.6329 38.2579 54.6361 38.2644 54.6394C39.1554 54.445 39.0258 52.4362 38.5268 51.8756Z" fill="#3D3D3D"/>
<path d="M36.7481 49.9543C36.6995 49.8766 36.6379 49.8118 36.5699 49.7567C36.6055 49.2188 36.4759 48.6907 36.1454 48.4607C35.8959 48.3473 35.6173 48.4315 35.3678 48.5158C35.1021 48.6227 34.8203 48.7588 34.6712 49.0147C34.2921 49.6724 33.9584 50.7416 34.6777 51.2827C34.9725 51.4415 35.316 51.4966 35.6497 51.4642C35.7696 51.5225 35.9057 51.5354 36.0579 51.4771C36.1163 51.4253 36.1713 51.3637 36.2199 51.3022C36.3917 51.2147 36.5504 51.098 36.6768 50.9458C36.8647 50.6606 36.9003 50.2589 36.7481 49.9543Z" fill="#C2C2C2"/>
<path d="M64.7903 7.34507C64.6574 7.26731 64.5149 7.31915 64.4047 7.40663C64.2751 7.50059 64.1552 7.60427 64.0386 7.71443C63.8701 7.84727 63.7049 7.98659 63.5591 8.14535C63.4716 8.23607 63.4068 8.30411 63.3517 8.36243C63.18 8.50823 63.0083 8.65403 62.8398 8.80307C62.775 8.85167 62.707 8.90351 62.6162 8.96831C61.8289 9.62603 61.9812 9.55151 61.2976 10.1056C60.3094 11.003 58.793 12.6878 57.7336 13.945C56.9398 14.7744 56.4246 15.4224 55.5239 16.1579C55.1902 16.4916 54.9666 16.9128 54.6653 17.2724C54.1987 17.8718 53.6836 18.4356 53.2462 19.0577C53.716 18.617 54.1987 18.2088 54.675 17.7844C54.662 17.8038 54.6458 17.82 54.6361 17.8362C54.4741 18.0889 54.2246 18.2639 54.0238 18.4842C53.8618 18.6592 53.7322 18.8665 53.5669 19.0382C53.5313 19.0609 53.4665 19.1452 53.528 19.0868C53.7451 18.9508 53.9136 18.7466 54.121 18.5943C54.7495 18.2477 55.1804 17.645 55.7636 17.2368C56.1654 16.9614 56.4602 16.5629 56.8361 16.2615C57.0596 16.119 57.3091 16.0153 57.5068 15.8306C58.1159 15.3252 58.4431 14.6124 59.1818 14.2528C59.9044 13.8154 60.4325 13.1512 61.0254 12.5615C61.3818 12.2699 61.7771 12.0463 62.14 11.7644C62.3408 11.6413 62.6875 11.2752 62.8819 11.0614C63.355 10.7406 63.7956 10.3939 64.1714 9.96299C64.1812 9.95327 64.1876 9.94679 64.1974 9.93707C64.2557 9.88523 64.3108 9.83663 64.3626 9.79127C64.7125 9.53855 65.0981 9.28583 65.1434 8.82251C65.2406 8.33975 65.2244 7.67555 64.7903 7.34507Z" fill="#DBDBDB"/>
<path d="M61.3753 8.96184C61.1129 9.14328 60.8861 9.37008 60.6107 9.53856C59.7877 10.1574 58.9486 10.7633 58.1969 11.4696C57.902 11.7353 57.0532 12.3282 56.6417 12.7948C56.2885 13.1414 55.9775 13.5335 55.6243 13.8802C55.2809 14.1556 54.9212 14.4083 54.6491 14.7582C54.2765 15.1956 53.8715 15.6071 53.4924 16.0412C53.136 16.5467 52.7018 16.9776 52.1996 17.3405C52.7116 17.1461 53.2721 16.754 53.5928 16.4106C54.176 15.9764 54.7009 15.4645 55.2776 15.0239C56.2205 14.5055 56.8361 13.5788 57.659 12.9082C58.0381 12.636 58.7736 11.8195 59.2337 11.3141C60.0469 10.5365 60.8051 9.70056 61.5568 8.86788C61.7771 8.667 61.479 8.89704 61.3753 8.96184Z" fill="#DBDBDB"/>
<path d="M66.4524 8.27817C66.4459 8.27169 66.4362 8.26845 66.4265 8.26197C66.4038 8.12589 66.3584 7.99629 66.2807 7.88937C66.2418 7.75977 66.1705 7.63989 66.0506 7.56537C65.9988 7.54593 65.9405 7.52973 65.8789 7.51353C65.461 7.08261 64.6736 6.30501 64.3237 7.34181C64.233 7.70469 64.22 8.33973 64.6639 8.45961C64.7482 8.46609 64.8032 8.45637 64.8324 8.46933C64.8648 8.47905 64.9004 8.48877 64.9361 8.49849C65.1272 8.94237 65.354 9.42189 65.8336 9.56769C66.0766 9.64221 66.4006 9.59361 66.5204 9.34413C66.676 9.02337 66.6727 8.57625 66.4524 8.27817Z" fill="#262626"/>
<path d="M42.9624 48.9499C43.0142 47.4465 42.687 45.9399 42.12 44.5467C42.0779 44.4333 42.0325 44.3232 41.9872 44.2098C41.8349 43.7367 41.6632 43.2702 41.4785 42.8133C41.0962 41.9677 40.5065 40.4546 39.6576 39.6446C39.6511 39.502 39.6414 39.3789 39.6349 39.3174C39.5831 38.2903 39.0096 37.4349 38.5301 36.5666C38.4361 36.3366 38.3778 36.1778 38.3357 36.0482C38.3098 35.6432 38.2288 34.9434 38.232 35.1216C38.2093 34.8202 38.1575 34.5189 38.0344 34.2403C37.9793 33.9908 37.921 33.7413 37.8464 33.4983C37.5257 32.4583 37.0397 32.1019 36.5893 32.1991C36.4435 32.0468 36.2653 31.9399 36.032 31.8978C35.3938 32.0306 35.0471 32.6883 34.8786 33.4756C34.7328 33.6571 34.6 33.8806 34.4801 34.1269C34.2565 34.3278 34.1204 34.6064 34.0103 34.885C33.6571 35.6853 33.521 36.5504 33.3461 37.4025C33.3072 37.6261 33.2521 37.8756 33.1906 38.1477C33.0221 38.53 32.873 38.9188 32.7434 39.3174C32.5393 39.6576 32.3644 40.1176 32.2186 40.6069C32.0598 40.6652 31.9108 40.798 31.7909 41.0216C31.3308 41.7085 31.3567 42.5995 31.2368 43.39C31.0943 44.4495 31.0068 45.5544 31.1137 46.6268C30.9517 47.3104 30.8027 48.007 30.7055 49.1637C30.7282 49.9057 30.8318 50.6962 31.3049 51.2956C31.6645 51.6942 32.0339 51.7039 32.332 51.516C32.4324 52.3389 32.4875 53.204 32.9897 53.8876C33.1776 54.082 33.3558 54.1695 33.521 54.1792C33.5696 54.2959 33.628 54.4093 33.709 54.513C34.195 55.242 34.681 55.0314 35.0147 54.5518C35.0438 54.5907 35.0698 54.6328 35.0989 54.6717C35.1151 54.6976 35.1313 54.7236 35.1475 54.7495C35.3938 55.2808 35.7502 55.7442 36.22 56.0682C36.531 56.3792 36.8842 56.6384 37.3118 56.7129C37.3961 56.6773 37.4803 56.6546 37.5775 56.6578C37.584 56.6546 37.5937 56.6546 37.6002 56.6514C37.6358 56.6384 37.6423 56.6384 37.6261 56.6449C37.6553 56.6319 37.6812 56.6222 37.7104 56.6092C37.8205 56.5736 37.976 56.5866 38.0927 56.5963C38.1186 56.5995 38.1445 56.6028 38.1737 56.6092C38.6111 56.5671 38.948 56.3533 39.2008 56.0293C39.2332 56.026 39.2623 56.026 39.2947 56.0228C40.0756 55.8997 40.6555 55.2744 41.0443 54.6199C41.1124 54.4903 41.1674 54.3574 41.2258 54.2246C41.2873 54.1728 41.3489 54.1209 41.4137 54.0658C41.0735 54.3574 41.7636 53.8228 41.8932 53.5896C42.7615 52.326 43.1244 50.599 42.9624 48.9499Z" fill="#858585"/>
<path d="M38.7342 54.9568C38.3648 55.0378 37.9825 55.0897 37.6002 55.0897C37.6002 54.9795 37.584 54.8661 37.5451 54.7625C37.5224 54.6879 37.571 54.9245 37.5581 54.9957C37.5581 55.0314 37.5516 55.0605 37.5483 55.0897C37.5095 55.0897 37.4738 55.0865 37.4349 55.0865C37.3539 54.9698 37.2729 54.8564 37.1531 54.7754C37.1207 54.743 37.085 54.7268 37.0461 54.7171C37.0267 54.4579 36.9554 54.2052 36.8161 53.9881C36.5731 53.6511 36.2005 53.4341 35.8635 53.1878C35.7372 53.0647 35.6141 52.9383 35.4877 52.8152C35.5298 52.4944 35.5298 52.1672 35.5071 51.8659C35.5136 51.4933 35.4261 51.0948 35.2803 50.761C34.9693 49.4974 35.0244 50.0418 34.736 49.1702C34.6064 48.8948 34.4444 48.6324 34.2695 48.3829C34.1561 47.7867 33.9843 47.1971 33.7089 46.656C33.7284 46.5588 33.7478 46.4616 33.7511 46.4033C33.7997 44.9161 33.7737 45.3664 33.8871 43.957C33.8709 43.1892 33.9811 43.1892 34.0653 42.1005C34.0751 41.9515 34.0815 41.7992 34.0913 41.6502C34.1075 41.5951 34.1237 41.54 34.1399 41.4849C34.2695 41.0022 34.4088 40.4773 34.4703 39.9524C34.6518 39.5085 34.8203 39.204 34.9175 38.7504C35.2998 38.0311 35.6335 37.2891 35.8992 36.5212C35.8441 36.667 35.7858 36.8128 35.7307 36.9586C35.8182 36.7383 35.8959 36.518 35.9769 36.2944C36.0158 36.2005 36.0547 36.1033 36.0968 36.0126C36.2264 35.8538 36.3657 35.708 36.4467 35.5168C36.518 35.384 36.5763 35.2123 36.6249 35.0276C36.8323 34.6356 36.9813 34.2111 37.0267 33.7672C37.0915 32.8957 37.0818 31.8232 36.3949 31.1947C36.126 30.8934 35.6238 31.0003 35.4067 31.321C35.3873 31.3502 35.3711 31.3794 35.3516 31.4053C35.2771 31.5122 35.2058 31.6224 35.1378 31.7325C34.9369 32.0306 34.7911 32.4064 34.7198 32.711C34.6129 32.8795 34.5092 33.0512 34.3991 33.2164C34.331 33.3298 34.2727 33.4432 34.2111 33.5599C33.7543 34.25 33.3914 35.0244 33.1938 35.8311C33.197 35.8214 33.197 35.8117 33.2003 35.8052C33.197 35.8182 33.1938 35.8344 33.1905 35.8473C33.1808 35.8927 33.1711 35.9381 33.1581 35.9802C33.1484 36.0158 33.1419 36.0515 33.1322 36.0838C32.9832 36.369 32.8471 36.6573 32.7434 36.9651C32.7467 36.9522 32.7531 36.9425 32.7564 36.9295C32.7499 36.9457 32.7434 36.9619 32.7369 36.9781C32.7305 36.9943 32.724 37.0072 32.7175 37.0234C32.5587 37.4544 32.6009 37.3183 32.7013 37.0656C32.6754 37.1304 32.6495 37.1952 32.6235 37.26C31.9755 38.7633 31.995 38.4069 31.7066 40.1047C31.4118 41.0734 31.1493 42.0552 31.1753 43.0758C31.1591 43.1956 31.1461 43.3155 31.1299 43.4354C31.1105 43.5747 31.104 43.633 31.104 43.6428C31.0392 43.9959 30.9938 44.3491 30.9841 44.712C30.9614 45.1526 31.0035 45.5868 31.0683 46.0177C31.0424 46.575 31.0619 47.1387 31.091 47.6928C31.1007 48.1626 31.1526 48.6227 31.2336 49.0763C31.2595 49.4942 31.3373 49.8927 31.4604 50.275C31.5738 50.7967 31.8168 51.273 32.0857 51.733C32.2347 52.0571 32.3903 52.3778 32.562 52.6921C32.8698 53.2688 33.1063 53.9136 33.5534 54.3996C33.7381 54.5842 33.9617 54.7463 34.2079 54.837C34.2111 54.837 34.2144 54.8402 34.2176 54.8402C34.2954 54.8823 34.3861 54.918 34.4736 54.9083C34.5189 54.8985 34.5611 54.8823 34.6032 54.8661C34.9369 55.148 35.3127 55.3716 35.6529 55.6437C35.9705 55.8252 36.1551 56.2885 36.5407 55.9613C36.7221 55.8835 36.8647 55.7183 36.9198 55.5271C36.9327 55.4915 36.9425 55.4526 36.9554 55.4137C36.9749 55.4202 36.9911 55.4267 37.0105 55.4299C37.6196 55.4461 38.1996 55.1966 38.7342 54.9568Z" fill="#4A4A4A"/>
<path d="M32.7564 36.9749C32.7434 37.0105 32.7272 37.0461 32.7143 37.0785C32.7272 37.0494 32.7369 37.0202 32.7499 36.9911C32.7499 36.9846 32.7531 36.9781 32.7564 36.9749Z" fill="#4A4A4A"/>
<path d="M34.0751 42.1005C34.0848 41.9806 34.0945 41.8478 34.101 41.6988C34.1107 41.553 34.101 41.6858 34.0751 42.1005Z" fill="#4A4A4A"/>
<path d="M41.6081 47.7965C41.5465 47.4077 41.5238 46.9994 41.2808 46.6754C41.0313 46.0566 40.5615 46.1829 40.406 46.7759C40.3347 47.0415 40.3121 47.3169 40.3509 47.5859C40.3574 47.6183 40.3639 47.6507 40.3704 47.6798C40.3671 47.6701 40.3671 47.6636 40.3639 47.6539C40.3704 47.696 40.3736 47.7414 40.3769 47.7835C40.3769 47.952 40.3574 48.1723 40.3283 48.3797C40.2246 48.5093 40.1177 48.6389 39.9881 48.7393C39.5669 48.9693 39.3595 49.2253 39.0776 49.5947C38.7698 49.8895 38.6273 50.2977 38.5301 50.6995C38.4944 50.8259 38.4912 50.8097 38.5365 50.693C38.4167 50.9587 38.3745 51.2535 38.3875 51.5419C38.4264 52.0959 38.4134 52.7245 38.8443 53.1327C39.4632 53.8747 39.8261 53.5701 40.2602 52.8703C40.3185 52.8055 40.5648 52.3551 40.6199 52.2547C40.9957 51.8497 41.3489 51.4091 41.4039 50.8421C41.4169 50.7967 41.4428 50.6963 41.4687 50.625C41.4687 50.6217 41.472 50.6153 41.472 50.612C41.4947 50.5569 41.5238 50.4759 41.5368 50.4241C41.634 50.0547 41.621 49.6692 41.6955 49.2933C41.6955 49.3387 41.7927 48.7555 41.7701 48.6162C41.8219 48.4445 41.6048 47.709 41.6081 47.7965Z" fill="#BFBFBF"/>
<path d="M40.5194 42.6772C40.2408 41.7247 40.0172 41.0832 39.622 40.2019C39.4988 39.7159 39.2656 39.2882 39.0193 38.854C38.8411 38.2514 38.4394 37.7557 38.2482 37.1595C38.1283 36.7869 37.8205 36.5277 37.6456 36.1875C37.4447 35.627 37.1725 35.0989 36.936 34.5546C37.1174 35.3386 37.273 35.938 37.4414 36.6573C37.5484 36.9781 37.7752 37.247 37.8691 37.5742C38.002 38.0959 38.1996 38.5884 38.4491 39.0614C38.5657 39.4664 38.7374 39.8422 38.9902 40.1824C39.5248 41.5692 40.432 42.6448 40.6944 44.0834C40.7009 44.1417 40.6976 44.1255 40.7138 44.1741C40.7106 43.6719 40.662 43.16 40.5194 42.6772Z" fill="#BFBFBF"/>
<path d="M38.8638 44.3458C38.8379 43.9279 38.8022 43.5099 38.6662 43.1114C38.5366 42.7291 38.6111 42.3792 38.2255 41.9353C37.9793 41.7992 37.814 41.365 37.4933 41.4882C37.4414 41.5108 37.3961 41.5432 37.3475 41.5724C37.3442 41.5659 37.3442 41.5562 37.341 41.5497C37.341 41.5594 37.341 41.5659 37.3442 41.5756C36.9619 41.8316 36.7124 42.3014 36.6314 42.7453C36.5375 43.228 36.6541 43.6784 36.8323 44.1126C36.8161 44.2875 36.8194 44.4625 36.8518 44.6472C37.0138 45.3016 37.4933 45.8395 38.1413 46.0306C38.5236 46.0954 38.7245 45.6062 38.8444 45.3146C38.9578 45.0003 38.8897 44.6666 38.8638 44.3458Z" fill="#BFBFBF"/>
<path d="M41.4234 54.7949C41.3553 54.6653 41.0216 54.8111 40.9147 54.9212C40.8726 54.9472 40.8272 54.9698 40.7851 54.9925C40.8693 54.9018 40.9568 54.7852 41.054 54.7074C41.0605 54.7009 41.067 54.6977 41.0735 54.6912C41.1739 54.6167 41.2873 54.5908 41.4137 54.688C41.3618 54.6167 41.2905 54.5875 41.2193 54.5778C41.2322 54.5681 41.2484 54.5551 41.2614 54.5454C41.2387 54.5551 41.216 54.5648 41.1933 54.5746C41.1609 54.5746 41.1285 54.5843 41.0961 54.5908C41.1869 54.5162 41.2776 54.4417 41.3651 54.364C40.8272 54.6588 40.2602 54.918 39.7775 55.3036C39.7029 55.3554 39.6219 55.4267 39.5377 55.5012C39.1068 55.6438 38.6888 55.8155 38.2773 56.0034C37.8691 56.0196 37.4641 56.065 37.0623 56.12C37.0073 56.133 36.9457 56.1395 36.8906 56.1524C36.8841 56.1395 36.8777 56.1233 36.8712 56.1103C36.8453 56.0876 36.8161 56.0747 36.7837 56.065H36.7805C36.6768 56.0326 36.5504 56.0488 36.4467 56.0228C36.0482 55.9872 35.6465 55.9969 35.2447 56.0099C35.1475 55.9969 35.0827 56.0034 35.0438 56.0261C35.0373 56.0261 35.0309 56.0228 35.0276 56.0228C34.9855 56.0131 34.9499 56.0293 34.9207 56.0552C34.8883 56.0585 34.8559 56.0585 34.8235 56.065C34.7133 56.1751 34.7231 56.3728 34.7781 56.5121C34.8041 56.5477 34.8397 56.5704 34.8753 56.5898V56.5931C34.8818 56.5931 34.8851 56.5963 34.8915 56.5963C34.9369 56.6158 34.9855 56.6255 35.0406 56.6287C35.1475 56.6514 35.2577 56.6773 35.3646 56.6968C35.5395 56.7227 35.7145 56.7389 35.8927 56.7486C35.9089 56.7551 35.9251 56.7583 35.9413 56.7648C35.9316 56.9527 35.9769 57.1439 36.0612 57.2929C36.1001 57.3836 36.194 57.416 36.2847 57.4387C36.3074 57.4452 36.3333 57.4484 36.356 57.4549C36.356 57.4679 36.356 57.4841 36.356 57.5003C36.3819 57.8826 36.4986 58.4755 36.9489 58.5403C37.6585 58.5176 38.3648 58.3945 39.0711 58.3038C39.3206 58.2714 39.5701 58.2228 39.8196 58.1872C39.8779 58.1839 39.9395 58.1839 39.9978 58.1774C40.8305 58.1515 40.7981 56.6903 40.4093 56.1978C40.3121 56.0585 40.1436 56.0488 39.9881 56.0423C39.8811 56.039 39.771 56.0423 39.6641 56.0423C40.244 55.7507 40.811 55.4299 41.3715 55.1027C41.2257 55.1448 41.0832 55.1902 40.9374 55.2388C40.9536 55.2226 40.9763 55.2096 40.9925 55.1934C41.0119 55.174 41.0313 55.1578 41.0508 55.1383C41.1577 55.093 41.2581 55.0411 41.3586 54.986C41.3651 54.986 41.3715 54.9828 41.378 54.9828C41.378 54.9796 41.378 54.9796 41.378 54.9763C41.391 54.9698 41.4007 54.9634 41.4137 54.9569C41.4234 54.9277 41.4266 54.905 41.4266 54.8824C41.5238 54.824 41.6178 54.7657 41.715 54.7106C41.621 54.7333 41.5238 54.7657 41.4234 54.7949Z" fill="#B1E3E9"/>
<path d="M36.9911 29.7788C36.9749 29.7885 36.9619 29.8015 36.9457 29.8112C36.9652 29.7756 36.9846 29.7432 37.004 29.7075C37.0138 29.701 37.0235 29.6946 37.0364 29.6913C37.0364 29.6751 37.0332 29.6719 37.03 29.6589C37.0397 29.6395 37.0526 29.62 37.0624 29.6006C37.0591 29.5844 37.0462 29.565 37.0267 29.5714C36.9652 29.5974 36.923 29.6524 36.8842 29.714C36.7967 29.8177 36.6898 29.97 36.6347 30.0088C36.6055 30.0445 36.5731 30.0769 36.544 30.1125C36.3398 30.2778 36.1422 30.4527 35.951 30.6374C35.9446 30.6212 35.9446 30.605 35.9348 30.592C35.9122 30.5953 35.8927 30.605 35.8733 30.6147C35.9867 30.3782 36.0968 30.1417 36.2038 29.9084C36.2135 29.8954 36.2264 29.8857 36.2361 29.8728C36.2361 29.863 36.2329 29.8533 36.2329 29.8468C36.2426 29.8242 36.2556 29.7982 36.2653 29.7756C36.2621 29.646 36.2167 29.6524 36.1519 29.7237C36.0742 29.7529 35.964 29.9894 35.87 30.0801C35.4326 30.7119 35.073 31.2595 34.7166 31.7973C34.5092 32.0338 34.3148 32.2801 34.1301 32.536C33.5502 33.1063 32.9314 33.6409 32.4551 34.3051C32.7596 34.075 33.0869 33.8839 33.4206 33.6927C33.4141 33.7057 33.4076 33.7186 33.4011 33.7316C33.1549 34.0977 32.9216 34.4671 32.6981 34.8462C32.2088 35.5978 31.7747 36.3852 31.4377 37.2178C31.334 37.4997 31.4896 37.166 31.5706 37.0623C31.6062 37.0072 31.6483 36.9586 31.6872 36.9036C31.577 37.1887 31.4734 37.477 31.3859 37.7751C31.2757 38.1412 31.2368 38.5236 31.198 38.9026C30.7055 39.8422 30.0316 41.2711 30.0154 41.6988C30.2843 41.1901 30.5726 40.6879 30.8577 40.1889C30.848 40.244 30.8416 40.2958 30.8383 40.338C30.8383 40.474 31.0327 40.5226 31.0846 40.3866C31.1591 40.2634 31.2206 40.1338 31.2725 40.0042C31.2141 40.2699 31.1688 40.5259 31.1396 40.7721C31.7617 39.1586 32.6041 37.6066 33.453 36.0612C33.871 35.5136 34.2533 34.9401 34.6032 34.3407C34.8754 33.8547 35.1572 33.3622 35.4294 32.8698C35.7826 32.3287 36.113 31.7779 36.3981 31.2109C36.7027 30.8642 37.0202 30.5272 37.341 30.1903C37.4317 30.1287 37.4836 30.0736 37.5127 30.0186C37.5322 30.0088 37.5516 29.9991 37.571 29.9894C37.6132 29.9635 37.6358 29.9149 37.6488 29.8695C37.746 29.2053 37.2827 29.5682 36.9911 29.7788Z" fill="#B1E3E9"/>
<path d="M16.9841 30.511C20.7392 27.7862 24.5884 24.9706 27.365 21.1928C28.1394 20.1366 28.8133 19.0123 29.3674 17.8232C29.322 17.9204 28.7161 18.0532 28.6027 18.0921C28.4245 18.1569 28.2431 18.2217 28.0649 18.2898C28.026 18.306 27.8608 18.3416 27.8446 18.3773C25.8584 22.6378 22.3366 25.8649 18.6689 28.6837C17.6126 29.4937 16.537 30.281 15.4613 31.0618C15.6492 30.9258 16.0056 30.8707 16.2259 30.7929C16.456 30.7087 16.7832 30.6568 16.9841 30.511Z" fill="black"/>
<path d="M29.16 17.9723C28.1912 16.3134 27.0961 14.4957 25.3497 13.5561C24.4652 13.0799 23.4544 12.9017 22.4597 13.0572C21.9996 13.1285 21.5622 13.2775 21.1248 13.433C20.5481 13.6404 19.9584 13.8348 19.4044 14.0972C17.5284 14.9915 16.1093 16.673 15.134 18.4745C14.1556 20.2824 13.5983 22.3139 13.4784 24.368C13.3456 26.6716 13.7765 28.9947 14.7744 31.078C14.8036 31.1364 16.281 30.4884 16.2972 30.524C14.6383 27.0572 14.5638 22.9359 15.9797 19.3719C16.6828 17.5997 17.7584 15.9149 19.2132 14.6707C19.5728 14.3629 19.9584 14.0843 20.3634 13.8413C20.6096 13.6955 20.8656 13.5691 21.128 13.4492C21.7858 13.1511 19.5566 13.9417 20.4541 13.7084C20.5934 13.6728 20.7328 13.6436 20.8753 13.6177C21.8117 13.4589 22.7707 13.5885 23.6228 14.0033C25.4794 14.9007 26.6328 16.8026 27.6339 18.5198C27.6923 18.6203 29.1179 17.901 29.16 17.9723Z" fill="black"/>
<path d="M34.1366 15.1697C32.4713 12.6781 30.1547 10.5203 27.2711 9.55797C25.758 9.05253 24.1218 8.88081 22.5439 9.14001C21.7825 9.26313 21.0665 9.51261 20.344 9.77505C19.5826 10.0505 18.8309 10.3291 18.1278 10.7309C16.7767 11.4987 15.62 12.5647 14.5411 13.6695C13.4622 14.7776 12.4546 15.9602 11.5765 17.2335C9.89495 19.6765 8.67347 22.5212 8.59895 25.5182C8.52443 28.5671 9.59039 31.7066 11.9621 33.7122C12.0204 33.7608 12.6425 33.4724 12.7267 33.4433C12.8077 33.4141 13.4298 33.1128 13.4849 33.1581C11.489 31.4701 10.4069 28.9688 10.1704 26.3995C9.91115 23.6163 10.6758 20.8753 12.0074 18.4421C13.3974 15.9019 15.3673 13.595 17.5478 11.6964C18.1148 11.2039 18.7142 10.7438 19.3558 10.3485C19.6441 10.1703 19.9422 10.0051 20.25 9.85929C20.3634 9.80421 20.48 9.75561 20.5967 9.70377C21.1086 9.47049 19.832 9.96297 19.9066 9.95325C20.1658 9.91761 20.425 9.80745 20.6809 9.75561C22.1551 9.45429 23.6974 9.54177 25.1456 9.93057C28.2949 10.7795 30.8318 13.0572 32.6106 15.7237C32.6916 15.8403 34.0718 15.0757 34.1366 15.1697Z" fill="black"/>
<path d="M12.1111 33.7964C13.0442 35.8959 13.2386 38.1996 13.1998 40.4741C13.1576 42.9105 12.9406 45.3438 12.8531 47.777C12.6716 52.8638 12.7332 57.9571 13.0313 63.0342C13.1609 65.2179 13.3164 67.5378 14.674 69.3522C15.7918 70.8523 17.4928 71.8113 19.2618 72.3362C21.478 72.9939 23.8205 72.9356 26.1014 72.7509C28.6286 72.5468 31.1299 72.3071 33.6701 72.3071C39.4146 72.3038 45.1591 72.4755 50.9036 72.5695C51.1272 72.5727 51.4577 72.3751 51.6683 72.3006C51.8465 72.2358 52.0279 72.171 52.2061 72.1029C52.2644 72.0802 52.3681 72.0154 52.4264 72.0154C47.2619 71.9312 42.0941 71.834 36.9295 71.766C34.4477 71.7336 31.9885 71.7984 29.5164 72.0284C27.0929 72.2552 24.6143 72.5274 22.194 72.1127C20.3278 71.7919 18.4648 71.0499 17.0586 69.7507C15.4807 68.2927 14.891 66.3001 14.6837 64.2168C14.4342 61.7252 14.3759 59.2013 14.3208 56.7C14.2625 54.1306 14.2625 51.5581 14.3273 48.9888C14.3953 46.251 14.5994 43.5197 14.7031 40.7819C14.8003 38.2255 14.6902 35.6108 13.6372 33.2391C13.6145 33.197 12.1208 33.8191 12.1111 33.7964Z" fill="black"/>
<path d="M33.3623 15.633C37.1693 15.4321 40.9892 15.5066 44.7833 15.863C44.9939 15.8825 45.2045 15.9051 45.4151 15.9246C45.522 15.9343 45.6257 15.9473 45.7294 15.957C45.8751 15.9732 45.9983 15.9375 46.0307 16.0542C46.0663 16.1741 45.9529 16.5078 45.9367 16.6341C45.9108 16.8512 45.8946 17.0683 45.8881 17.2854C45.8622 18.0468 45.9497 18.8114 46.1408 19.5469C46.5329 21.0503 47.3688 22.4143 48.5449 23.4284C49.8377 24.5397 51.4739 25.2039 53.1716 25.3173C53.3822 25.3303 53.7386 25.1197 53.9363 25.0484C54.1145 24.9836 54.2959 24.9188 54.4741 24.8508C54.5292 24.8313 54.6393 24.7601 54.6944 24.7633C51.597 24.5559 48.8398 22.5018 47.8321 19.5566C47.5794 18.8147 47.4336 18.0371 47.4077 17.253C47.3947 16.9063 47.4077 16.5564 47.4433 16.2097C47.4627 16.0153 47.4919 15.8209 47.5276 15.6297C47.5697 15.4062 47.6021 15.5066 47.4077 15.4191C47.3008 15.3705 47.1258 15.39 47.0124 15.377C45.117 15.1794 43.2151 15.053 41.31 14.9979C39.1684 14.9331 37.0235 14.9623 34.8818 15.0757C34.6453 15.0887 34.3408 15.2636 34.1172 15.3446C33.9001 15.4289 33.5988 15.62 33.3623 15.633Z" fill="black"/>
<path d="M52.9869 25.8519C54.0367 32.1149 53.865 38.5106 53.8844 44.8351C53.9039 51.2957 53.9622 57.7562 53.9428 64.2168C53.933 67.2332 53.6026 70.7421 50.9101 72.6278C51.1013 72.495 51.4512 72.4399 51.6748 72.3589C51.908 72.2747 52.2288 72.2196 52.4329 72.0738C54.743 70.457 55.3554 67.5378 55.4461 64.8874C55.5595 61.696 55.4526 58.482 55.4429 55.2873C55.4234 48.8527 55.4753 42.4116 55.3586 35.9769C55.2938 32.4032 55.1027 28.8263 54.5098 25.2979C54.5227 25.3821 52.9707 25.7418 52.9869 25.8519Z" fill="black"/>
<path d="M54.7722 24.8087C58.0381 20.5189 61.4498 16.3458 65.0106 12.299C66.015 11.1553 67.0323 10.0245 68.0594 8.90349C68.0367 8.92941 67.8391 8.97801 67.8359 8.97801C67.6544 9.04281 67.4762 9.10761 67.298 9.17241C67.1198 9.23721 66.9384 9.30201 66.7602 9.37005C66.7051 9.39273 66.5788 9.41217 66.5399 9.45753C62.9013 13.433 59.3989 17.5349 56.052 21.7566C55.1059 22.9489 54.1728 24.1509 53.2526 25.3627C53.2688 25.3433 53.4827 25.2849 53.4762 25.2882C53.6576 25.2234 53.8358 25.1586 54.014 25.0938C54.1922 25.029 54.3737 24.9642 54.5519 24.8961C54.6037 24.8767 54.7398 24.8508 54.7722 24.8087Z" fill="black"/>
<path d="M48.2047 15.5325C48.2241 15.1535 48.4607 14.9072 48.7911 14.7517C48.7166 14.7809 48.6454 14.81 48.5708 14.8392C47.5211 15.1502 47.2003 15.2733 47.6086 15.215C47.6572 15.2085 47.709 15.2021 47.7576 15.2021C47.858 15.2021 47.9585 15.2118 48.0557 15.2345C48.2436 15.2798 48.4218 15.3738 48.5805 15.4839C48.9531 15.7431 49.2318 16.119 49.4878 16.4883C50.1746 17.4668 50.8453 18.4583 51.5225 19.4432C52.0959 20.2759 52.6435 21.3159 53.5378 21.8538C54.5486 22.4629 55.4947 21.9607 56.4894 21.5849C56.4538 21.5978 56.7129 21.5038 56.7097 21.4974C56.7097 21.4941 56.4505 21.5849 56.4861 21.5719C56.1265 21.6983 55.7669 21.8279 55.4105 21.9639C55.3716 21.9801 55.3295 21.9931 55.2906 22.0093C55.7247 21.8538 56.1589 21.6983 56.5931 21.5427C55.3651 21.8829 54.4385 20.885 53.7969 19.9778C53.0031 18.8471 52.2288 17.7033 51.4479 16.5661C50.9166 15.7917 50.2135 14.4763 49.0828 14.6675C48.506 14.7647 47.9131 15.0433 47.3753 15.2636C47.0027 15.4159 46.7078 15.6557 46.6851 16.0866C46.6884 16.0445 47.3817 15.8436 47.4498 15.8177C47.5243 15.7917 48.2015 15.6071 48.2047 15.5325Z" fill="black"/>
<path d="M51.7136 16.038C55.8705 12.8952 60.0275 9.75237 64.1811 6.60957C63.6725 6.79425 63.167 6.97893 62.6583 7.16361C63.3744 8.01897 63.9835 9.22425 65.1208 9.58065C65.5744 9.72321 66.0312 9.71349 66.4783 9.56445C66.8574 9.43809 67.2332 9.29553 67.6091 9.15621C67.8326 9.07197 68.0691 9.00069 68.2635 8.86137C69.2129 8.19393 68.6653 6.83961 67.7678 6.42813C66.5237 5.85465 64.9652 6.65817 63.815 7.11177C63.7178 7.15065 63.9446 7.07289 63.8928 7.08909C64.0451 7.04049 64.1973 6.98217 64.3496 6.92709C64.6607 6.81369 64.975 6.70353 65.2828 6.58041C64.1585 6.96273 63.8409 7.07937 64.3269 6.93681C64.4112 6.91089 64.4954 6.88821 64.5829 6.86877C64.6963 6.84285 64.8097 6.82341 64.9263 6.81045C65.1758 6.78129 65.4286 6.77805 65.6748 6.81369C66.1122 6.87849 66.514 7.06965 66.812 7.40013C67.311 7.95093 67.4438 8.85165 66.8153 9.36033C66.757 9.40893 66.6889 9.44133 66.6273 9.48669C67.541 8.81601 68.1016 9.05901 67.5248 9.12057C67.3628 9.13677 67.1943 9.13353 67.0323 9.11085C66.6597 9.06225 66.3098 8.91969 66.002 8.69937C65.2439 8.15505 64.7676 7.30941 64.1779 6.60633C64.1293 6.54801 62.7685 7.07289 62.6551 7.16037C58.4982 10.3032 54.3413 13.446 50.1876 16.5888C50.369 16.4527 50.7384 16.3976 50.9522 16.3199C51.1823 16.2421 51.5192 16.187 51.7136 16.038Z" fill="black"/>
<path d="M54.4158 22.3365C54.5389 22.4532 54.6977 22.5212 54.8661 22.5374C54.9472 22.5439 55.0314 22.5407 55.1091 22.5212C55.2647 22.4856 55.4137 22.4208 55.5628 22.3689C55.822 22.275 56.0844 22.181 56.3436 22.0838C56.4699 22.0352 56.5996 21.9931 56.7259 21.938C56.7583 21.925 56.7616 21.9218 56.7389 21.9315C56.7065 21.9413 56.6773 21.951 56.6482 21.9607C56.4959 22.0125 56.3436 22.0676 56.1913 22.1227C55.9969 22.194 55.7993 22.2653 55.6049 22.3365C55.4882 22.3787 55.3716 22.4175 55.2582 22.4694C55.2485 22.4726 55.2355 22.4791 55.2258 22.4823C55.3424 22.437 55.4591 22.3949 55.5725 22.3495C55.5692 22.3495 55.566 22.3527 55.5628 22.3527C55.8706 22.2426 56.1784 22.1292 56.4862 22.019C56.6644 21.9607 56.7194 21.9412 56.6546 21.9607C56.6482 21.9639 56.6417 21.9639 56.6384 21.9672C56.6482 21.9639 56.6579 21.9607 56.6676 21.9607C56.4149 22.0287 56.1362 21.9639 55.9451 21.7857C55.9354 21.776 55.6924 21.87 55.7215 21.8603C55.5401 21.9251 55.3619 21.9899 55.1837 22.0547C55.0055 22.1195 54.824 22.1843 54.6458 22.2523C54.607 22.2685 54.5681 22.2815 54.5259 22.2977C54.4806 22.3074 54.4482 22.3203 54.4158 22.3365Z" fill="black"/>
<path d="M53.1101 25.3465C52.9221 25.8584 52.8217 26.3963 52.812 26.9406C52.8217 26.9373 52.8314 26.9341 52.8411 26.9341C53.1036 26.8531 53.3596 26.7526 53.6188 26.6587C53.8682 26.568 54.1242 26.4837 54.3704 26.3768C54.4579 26.3379 54.5357 26.2861 54.5972 26.2148C54.7171 26.0755 54.7689 25.8843 54.7236 25.7029C54.7236 25.7061 54.0173 25.9524 53.9589 25.9718C53.7807 26.0366 53.5993 26.1014 53.4211 26.1694C53.3984 26.1792 53.1975 26.2472 53.2008 26.2569C53.2656 26.5226 53.123 26.8045 52.8768 26.9179C52.8865 26.9146 52.893 26.9114 52.9027 26.9049C52.8962 26.9082 52.8898 26.9114 52.8833 26.9114C53.2559 26.7753 53.6285 26.636 54.0011 26.4999C54.1048 26.4643 54.2084 26.4254 54.3121 26.3898C54.3218 26.3865 54.3316 26.3833 54.3413 26.3833C54.351 25.839 54.4514 25.3011 54.6393 24.7892C54.6361 24.7989 54.3899 24.8734 54.4158 24.8637C54.2344 24.9285 54.0561 24.9933 53.8779 25.0581C53.6997 25.1229 53.5183 25.1877 53.3401 25.2558C53.3012 25.272 53.2623 25.2849 53.2202 25.3011C53.1781 25.3173 53.1425 25.3303 53.1101 25.3465Z" fill="black"/>
<path d="M21.6108 35.6335C21.6076 39.285 21.6594 42.9364 21.7696 46.5879C21.8765 50.0904 21.9413 53.6252 22.262 57.1179C22.3916 58.5306 22.6411 59.9821 23.3604 61.2262C24.0667 62.451 25.204 63.3063 26.5226 63.7858C29.6525 64.9263 32.954 63.9349 36.1163 63.5072C40.0788 62.9726 44.0931 63.2156 48.0686 63.4554C48.2792 63.4683 48.6324 63.2577 48.8333 63.1865C49.0115 63.1217 49.1929 63.0569 49.3711 62.9888C49.4262 62.9694 49.5363 62.8981 49.5914 62.9013C46.0307 62.6842 42.4505 62.4704 38.8897 62.8106C35.6432 63.1217 32.3125 64.2719 29.0466 63.5267C27.7279 63.2253 26.4513 62.613 25.5441 61.5924C24.5754 60.5037 24.1348 59.0781 23.9177 57.6623C23.6714 56.0552 23.6423 54.4158 23.5613 52.7958C23.4706 50.9716 23.396 49.1475 23.3312 47.3234C23.1919 43.2443 23.1271 39.1618 23.1336 35.0827C23.1336 35.1151 22.4338 35.3289 22.369 35.3516C22.2977 35.3743 21.6108 35.5687 21.6108 35.6335Z" fill="black"/>
<path d="M23.6617 35.3224C26.6879 32.3254 29.1762 28.8263 31.023 24.9869C31.2142 24.5883 31.4053 24.1833 31.658 23.8172C31.7974 23.6131 31.9594 23.4187 32.144 23.2567C32.2056 23.2016 32.2704 23.1498 32.3384 23.1044C32.4097 23.0558 32.4842 23.0105 32.5588 22.9683C31.6062 23.2664 31.3502 23.3636 31.7909 23.2599C32.9054 23.0914 34.0459 23.1012 35.1734 23.0591C36.3755 23.0105 37.5808 22.9651 38.7828 22.9165C39.3725 22.8938 39.9589 22.8711 40.5486 22.8484C40.7916 22.8387 41.1124 22.7772 41.3521 22.816C41.4072 22.8128 41.459 22.8128 41.5141 22.8096C41.5886 22.8873 41.6599 22.9683 41.7344 23.0461C41.864 23.1854 41.9904 23.3215 42.12 23.4608C43.7692 25.2396 45.4183 27.0183 47.0642 28.7971C47.4109 29.1729 47.8062 29.5358 48.0848 29.9667C48.3894 30.4398 48.4477 30.9873 48.5125 31.5349C48.6583 32.7531 48.7879 33.9714 48.9078 35.1929C49.3776 39.9686 49.666 44.7606 49.7696 49.5558C49.8279 52.2191 49.8279 54.8856 49.7729 57.5521C49.7502 58.6051 49.7988 59.697 49.5331 60.7273C49.4262 61.1355 49.2739 61.547 49.0277 61.8937C48.924 62.0363 48.8074 62.1723 48.668 62.2825C48.6 62.3376 48.5255 62.3764 48.4542 62.425C49.5137 61.696 49.9478 62.0233 49.2901 62.0395C49.0568 62.046 48.7426 62.2306 48.5255 62.3084C48.3084 62.3862 47.9973 62.5871 47.7673 62.5935C48.2177 62.5838 48.6421 62.3797 49.0601 62.2274C49.4975 62.0687 49.9738 61.9488 50.3172 61.6151C50.8777 61.0675 51.0915 60.2121 51.192 59.4605C51.341 58.3362 51.2924 57.173 51.3119 56.0423C51.3313 54.7625 51.3378 53.4826 51.3346 52.2029C51.3119 47.0869 51.0786 41.9677 50.6347 36.8712C50.5246 35.5979 50.4014 34.3245 50.2654 33.0512C50.1973 32.4162 50.126 31.7779 50.0515 31.1429C49.9867 30.5985 49.9511 30.0218 49.6757 29.5326C49.3906 29.0239 48.9207 28.6092 48.5287 28.1847C48.0881 27.7117 47.6507 27.2354 47.21 26.7624C46.332 25.813 45.4507 24.8637 44.5727 23.9144C44.132 23.4414 43.6946 22.9651 43.254 22.4921C43.2183 22.4532 43.1795 22.4143 43.1438 22.3722C43.0888 22.2523 42.998 22.2134 42.8749 22.2588C42.7291 22.2361 42.5412 22.2717 42.3921 22.2782C42.0714 22.2912 41.7506 22.3041 41.4299 22.3171C40.1209 22.3689 38.8087 22.4208 37.4998 22.4726C36.2459 22.5212 34.9628 22.4953 33.7154 22.6443C33.2424 22.6994 32.8115 22.8485 32.3644 23.0072C31.8136 23.2049 31.185 23.3669 30.7184 23.7362C29.8112 24.4523 29.4224 25.745 28.9073 26.7365C28.3176 27.8607 27.6728 28.9559 26.973 30.0121C25.5701 32.1278 23.9501 34.0945 22.1454 35.8797C22.1713 35.8538 22.3592 35.8085 22.369 35.8052C22.5504 35.7404 22.7286 35.6756 22.9068 35.6108C23.1077 35.5331 23.5062 35.4747 23.6617 35.3224Z" fill="black"/>
<path d="M34.7101 33.4821C32.792 36.9165 30.8059 40.4773 30.2162 44.4236C29.7432 47.5891 30.2746 51.1012 32.3028 53.6641C33.372 55.0119 34.9628 56.2431 36.7546 56.2626C37.6844 56.2723 38.5754 55.864 39.4276 55.5368C40.2019 55.242 40.8596 54.7819 41.4234 54.176C43.9214 51.4933 44.4334 47.4076 43.2054 44.0413C42.8134 42.9624 42.2982 41.9353 41.8057 40.9017C41.2711 39.7839 40.7397 38.6661 40.2052 37.5516C39.1392 35.316 38.0732 33.0836 37.0073 30.848C37.004 30.8448 35.5817 31.3081 35.4845 31.402C34.898 31.969 34.655 32.7661 34.8235 33.5631C34.8106 33.5016 36.3625 33.0933 36.3463 33.0091C36.1778 32.212 36.4208 31.415 37.0073 30.848C36.4986 31.0327 35.9932 31.2174 35.4845 31.402C37.2924 35.1896 39.1295 38.9674 40.9082 42.7712C41.6891 44.4463 42.3176 46.1602 42.3436 48.0297C42.3662 49.7793 41.9353 51.5354 41.0864 53.0679C40.6976 53.771 40.2214 54.4384 39.6382 54.9957C39.3563 55.2646 39.0485 55.5076 38.7148 55.7085C38.6273 55.7604 38.5366 55.8057 38.4491 55.8576C38.0408 56.1006 39.2072 55.6016 39.1781 55.6016C38.9254 55.6048 38.6629 55.6988 38.407 55.7053C36.6865 55.7474 35.1248 54.6328 34.0459 53.379C31.995 50.9943 31.3405 47.6539 31.6451 44.5856C32.063 40.3671 34.2047 36.5569 36.2297 32.9249C36.22 32.941 35.9867 33.0058 36.0061 32.9994C35.8247 33.0642 35.6465 33.129 35.4683 33.1938C35.2901 33.2586 35.1086 33.3234 34.9304 33.3914C34.8851 33.4108 34.7296 33.4465 34.7101 33.4821Z" fill="black"/>
</svg>
