<svg viewBox="0 0 1920 591" fill="none" xmlns="http://www.w3.org/2000/svg">
<path d="M1117.5 215.066C1091.5 7.40454 853 -47.5955 -89.5 49.4045" stroke="url(#paint0_linear_1416_63807)" stroke-width="6"/>
<path d="M1151.5 411.905C1158.67 444.238 1203.2 505.305 1324 490.905" stroke="url(#paint1_linear_1416_63807)" stroke-width="7"/>
<path d="M1514.5 395.405C1552.59 374.231 1563.3 328.577 1548.52 282.133" stroke="url(#paint2_linear_1416_63807)" stroke-width="5"/>
<path d="M1536.24 163.145C1602.5 25.4045 1866.5 163.145 1942.5 242.905" stroke="url(#paint3_linear_1416_63807)" stroke-width="3"/>
<g clip-path="url(#clip0_1416_63807)">
<path d="M1172.6 350.419C1172.55 350.241 1172.43 350.065 1172.29 349.897C1171.61 349.169 1170.92 348.446 1170.25 347.718C1170.16 347.628 1170.07 347.558 1169.98 347.496C1165.49 342.929 1160.66 338.661 1155.55 334.795C1155.58 334.621 1155.58 334.44 1155.55 334.246C1155.68 334.857 1158.28 330.274 1158.5 329.505C1159.14 327.362 1159.31 325.195 1158.82 323.005C1157.81 318.368 1154.25 314.373 1150.02 312.333C1142.39 308.652 1133.75 312.866 1131.2 320.647C1128.08 319.34 1124.89 318.184 1121.65 317.205C1118.25 308.988 1111.26 303.352 1104.08 298.45C1096.73 293.44 1088.81 289.473 1080.43 286.473C1079.22 286.044 1077.87 287.206 1078.67 288.443C1084.38 297.399 1090.95 305.729 1098.22 313.467C1095.53 313.415 1092.83 313.482 1090.11 313.69C1089.71 313.727 1089.41 313.896 1089.2 314.132C1089.11 314.215 1089.02 314.319 1088.95 314.449C1087.79 316.445 1086.81 318.515 1086 320.67C1079.06 319.764 1072.03 320.098 1065.12 322.407C1063.94 322.802 1063.9 324.347 1064.92 324.937C1070.12 327.941 1076.6 330.975 1083.37 332.922C1083.46 336.496 1084.97 338.591 1087.19 339.984C1080.34 344.366 1073.82 349.178 1067.62 354.448C1066.86 355.104 1066.75 356.822 1068.09 356.938C1076.3 357.627 1084.51 357.55 1092.68 356.46C1100.07 355.474 1108.56 354.465 1114.77 350.08C1114.8 350.063 1114.82 350.038 1114.83 350.028C1116.87 350.811 1118.91 351.559 1120.97 352.245C1137.5 357.787 1156.36 361.955 1172.11 352.064C1172.8 351.652 1172.86 350.965 1172.6 350.419ZM1159.5 354.329C1159.41 352.467 1160.02 350.731 1161.02 349.091C1161.69 347.983 1162.66 346.328 1163.86 345.376C1165.69 347.083 1167.48 348.832 1169.21 350.628C1166.08 352.382 1162.83 353.578 1159.5 354.329ZM1152.89 317.851C1156.26 321.403 1157.28 326.076 1155.2 330.551C1154.77 331.459 1153.91 332.288 1153.36 333.192C1147.18 328.724 1140.59 324.851 1133.7 321.743C1136.27 312.833 1146.84 311.482 1152.89 317.851ZM1103.04 343.006C1100.09 341.841 1097.47 340.683 1094.38 339.908C1092.93 339.547 1091.55 339.175 1090.32 338.657C1089.92 337.286 1089.85 335.876 1090.15 334.464C1097.56 335.672 1104.96 335.207 1111.13 331.672C1111.56 331.425 1111.75 331.066 1111.76 330.7C1112.27 330.078 1112.3 329.066 1111.36 328.629C1105.16 325.784 1098.62 323.279 1091.93 321.755C1092.71 319.807 1093.67 317.972 1094.84 316.231C1105.33 316.014 1115.48 317.84 1125.09 321.245C1117.62 328.119 1114.84 338.503 1117.72 348.324C1112.79 346.656 1107.85 344.908 1103.04 343.006ZM1086.62 330.592C1084.78 330.183 1082.96 329.692 1081.18 329.136C1080.58 328.021 1080.04 326.881 1079.58 325.705C1081.6 324.289 1084.72 324.144 1087.08 323.652C1087.11 323.644 1087.13 323.625 1087.15 323.6C1094.34 324.725 1101.41 327.205 1108.09 330.152C1101.42 333.204 1093.6 332.151 1086.62 330.592ZM1084.26 323.224C1082.39 323.524 1080.45 323.917 1079.08 324.957C1078.94 325.058 1079.03 325.323 1079.07 325.448C1079.54 326.659 1080.08 327.827 1080.67 328.965C1076.69 327.692 1072.85 326.058 1069.14 324.12C1074.16 322.896 1079.23 322.706 1084.26 323.224ZM1118.2 316.254C1113.8 315.116 1109.3 314.291 1104.71 313.853C1099.83 306.4 1094.41 299.347 1088.46 292.732C1092.4 294.558 1096.22 296.627 1099.9 298.965C1106.86 303.393 1114.35 308.751 1118.2 316.254ZM1100.97 312.428C1094.47 305.61 1088.55 298.285 1083.29 290.493C1084.67 291.045 1086.04 291.622 1087.4 292.227C1093.57 298.975 1099.18 306.177 1104.22 313.806C1103.27 313.721 1102.31 313.642 1101.34 313.591C1101.4 313.206 1101.31 312.789 1100.97 312.428ZM1091.01 316.386C1091.95 316.324 1092.89 316.27 1093.83 316.243C1092.78 317.922 1091.9 319.71 1091.2 321.578C1090.39 321.4 1089.58 321.237 1088.77 321.087C1089.41 319.482 1090.17 317.914 1091.01 316.386ZM1086.2 333.67C1087.35 333.948 1088.51 334.184 1089.66 334.376C1089.46 335.75 1089.53 337.124 1089.88 338.447C1087.95 337.543 1086.55 336.156 1086.2 333.67ZM1093.08 342.308C1086.75 346.076 1080.64 350.18 1074.75 354.613C1073.79 354.584 1072.82 354.546 1071.85 354.486C1077.45 349.92 1083.28 345.708 1089.39 341.843C1089.64 341.685 1089.79 341.5 1089.88 341.296C1090.9 341.67 1091.98 341.997 1093.08 342.308ZM1091 353.925C1086.07 354.512 1081.11 354.739 1076.15 354.641C1081.97 350.315 1087.99 346.303 1094.24 342.625C1095.06 342.85 1095.89 343.074 1096.7 343.324C1101.73 344.845 1106.69 346.846 1111.67 348.797C1105.69 352.255 1097.65 353.136 1091 353.925ZM1123.91 350.351C1121.99 349.729 1120.07 349.099 1118.14 348.455C1115.17 338.645 1118.38 328.199 1126.01 321.554C1139.02 326.305 1151.04 333.945 1161.57 343.288C1160.37 344.56 1159.31 345.928 1158.41 347.422C1158.27 347.659 1158.67 348.415 1158.79 348.23C1159.75 346.626 1160.88 345.168 1162.18 343.83C1162.52 344.125 1162.84 344.439 1163.17 344.739C1161.81 345.832 1160.74 347.759 1160.03 349.056C1159.1 350.76 1158.65 352.559 1158.89 354.453C1147.43 356.829 1135.11 353.952 1123.91 350.351Z" fill="white"/>
<path d="M1148.77 318.234C1148.85 316.734 1147.55 315.528 1146.13 315.597C1144.33 315.42 1140.87 315.313 1141.12 317.706C1141.28 319.214 1142.63 320.184 1144.02 320.434C1145.67 320.731 1148.64 320.454 1148.77 318.234ZM1146.86 319.371C1145.88 319.843 1144.64 319.864 1143.59 319.664C1141.27 319.228 1141.19 316.941 1143.4 316.467C1144.25 316.285 1145.14 316.255 1146.01 316.308C1146.08 316.359 1146.15 316.396 1146.2 316.385C1146.31 316.364 1146.42 316.351 1146.53 316.352C1146.69 316.365 1146.85 316.378 1147.01 316.396C1147.01 316.396 1147.01 316.396 1147.02 316.391C1147.79 316.568 1148.38 317.242 1148.05 318.176C1147.83 318.745 1147.37 319.118 1146.86 319.371Z" fill="white"/>
<path d="M1139.68 319.361C1139.59 319.002 1139.41 318.64 1139.08 318.44C1138.81 318.281 1138.47 318.248 1138.3 318.543C1138.29 318.548 1138.29 318.556 1138.29 318.57C1137.73 318.936 1137.37 319.418 1137.57 320.147C1137.74 320.731 1138.3 321.311 1138.95 321.145C1139.7 320.934 1139.83 319.987 1139.68 319.361ZM1138.52 320.273C1138.39 320.274 1138.26 320.248 1138.15 320.189C1138.09 320.16 1138.03 320.112 1137.98 320.065C1137.98 320.059 1137.99 320.032 1138 319.99C1138.1 319.672 1138.48 319.471 1138.75 319.318C1138.79 319.296 1138.81 319.258 1138.83 319.211C1139.07 319.125 1139.36 319.374 1139.27 319.687C1139.16 320.01 1138.86 320.265 1138.52 320.273Z" fill="white"/>
</g>
<g clip-path="url(#clip1_1416_63807)">
<path d="M1555.82 247.14C1553.66 241.105 1551.93 234.921 1549.82 228.874C1549.77 228.655 1549.69 228.448 1549.6 228.239C1549.57 228.181 1549.56 228.115 1549.53 228.057C1549.48 227.908 1549.4 227.805 1549.31 227.739C1548.98 227.273 1548.5 226.858 1547.86 226.525C1551.03 220.2 1553.7 213.652 1555.76 206.872C1557.57 200.906 1558.86 194.029 1555.38 188.401C1552.22 183.271 1545.8 181.749 1540.23 183.285C1534.17 184.944 1529.65 189.835 1526.22 194.865C1522.01 201.054 1519.03 207.966 1517.33 215.222C1517.31 215.216 1517.28 215.209 1517.26 215.204C1516.15 215.05 1514.9 214.932 1513.81 215.247C1513.73 215.258 1513.66 215.27 1513.58 215.313C1513.56 215.327 1513.54 215.332 1513.51 215.346C1513.36 215.4 1513.22 215.467 1513.09 215.536C1505.97 218.832 1498.71 221.788 1491.59 225.106C1491.06 225.35 1491.05 226.039 1491.48 226.378C1495.57 229.693 1499.9 232.649 1504.45 235.245C1504.42 235.332 1504.42 235.424 1504.43 235.531C1505.52 243.46 1513.94 248.128 1520.83 250.426C1527.67 252.699 1537.51 253.375 1542.92 247.673C1546.95 248.101 1551.01 248.279 1555.09 248.191C1555.67 248.177 1556.01 247.688 1555.82 247.14ZM1552.17 240.873C1551.07 241.246 1549.95 241.628 1548.85 242.004C1548.77 241.309 1548.68 240.615 1548.58 239.908C1548.56 239.779 1548.31 239.714 1548.22 239.711C1546.55 239.639 1544.9 239.675 1543.24 239.812C1543.19 239.819 1543.15 239.819 1543.14 239.879C1543.13 240.393 1543.5 241.76 1543.24 242.085C1543.07 242.299 1542.5 242.306 1541.92 242.269C1542.05 240.029 1542.1 237.779 1542.05 235.535C1544.9 235.821 1547.92 235.655 1549.76 233.281C1550.59 235.811 1551.37 238.35 1552.17 240.873ZM1527.95 241.593C1527.15 241.147 1526.36 240.703 1525.56 240.247C1525.04 239.958 1524.79 239.883 1524.9 239.261C1524.98 238.827 1525.28 238.335 1525.45 237.924C1525.48 237.82 1525.25 237.728 1525.19 237.713C1524.47 237.537 1523.77 237.334 1523.07 237.121C1524.2 235.318 1525.33 233.523 1526.46 231.72C1526.76 231.839 1527.05 231.965 1527.34 232.082C1531.31 233.703 1535.46 234.586 1539.69 235.219C1540.31 235.31 1540.98 235.411 1541.65 235.492C1541.69 237.746 1541.64 239.984 1541.51 242.234C1541.16 242.194 1540.84 242.152 1540.65 242.146C1539 242.087 1537.33 242.015 1535.67 241.956C1535.93 241.083 1536.01 240.237 1535.92 239.315C1535.92 239.189 1535.65 239.13 1535.56 239.117C1533.5 238.953 1531.43 238.778 1529.36 238.611C1529.34 238.606 1529.28 238.62 1529.27 238.649C1528.96 239.706 1528.54 240.67 1527.95 241.593ZM1527.66 195.393C1528.09 194.771 1528.54 194.154 1529 193.552C1529.5 194.136 1530.11 194.593 1530.82 194.903C1531.09 195.015 1531.17 194.838 1530.9 194.717C1530.2 194.41 1529.63 193.931 1529.18 193.319C1529.41 193.017 1529.65 192.729 1529.89 192.43C1530.35 192.849 1530.89 193.165 1531.5 193.364C1531.7 193.427 1531.99 193.316 1531.67 193.201C1531.06 193.001 1530.54 192.64 1530.12 192.178C1530.53 191.687 1530.95 191.218 1531.4 190.744C1531.72 191.045 1532.07 191.323 1532.45 191.566C1532.63 191.675 1532.94 191.641 1532.66 191.464C1532.25 191.203 1531.89 190.913 1531.55 190.578C1531.96 190.157 1532.38 189.739 1532.81 189.346C1533.14 189.647 1533.46 189.958 1533.76 190.283C1533.84 190.376 1534.3 190.526 1534.13 190.338C1533.77 189.934 1533.38 189.555 1532.98 189.202C1536.63 185.874 1541.11 183.609 1546.3 184.286C1556.08 185.577 1557.11 195.961 1555.13 203.733C1554.12 207.706 1552.73 211.6 1551.24 215.419C1550.48 217.359 1549.67 219.278 1548.81 221.183C1548.42 222.062 1548.01 222.927 1547.59 223.801C1547.13 224.767 1546.37 227.297 1545.52 227.922C1544.42 228.732 1541.7 227.993 1539.74 227.403C1539.78 227.4 1539.81 227.398 1539.83 227.384C1542.2 225.728 1544.73 223.935 1546.02 221.254C1546.74 219.757 1546.79 217.992 1547.68 216.572C1548.47 215.349 1549.69 214.5 1550.48 213.258C1551.26 212.014 1551.74 210.58 1551.87 209.116C1551.96 208.096 1552.04 206.712 1551.41 205.845C1550.5 204.594 1548.84 205.413 1548.54 206.742C1548.24 208.1 1549.16 209.433 1549.02 210.802C1548.84 212.503 1547.73 213.434 1546.41 214.287C1545.17 215.081 1545.07 215.759 1545.03 217.173C1544.98 218.637 1544.27 219.953 1543.08 220.81C1542.53 221.205 1541.73 221.617 1541.04 221.613C1539.25 221.601 1539.63 220.254 1540.07 219.336C1540.81 217.822 1541.93 216.482 1542.87 215.093C1544.82 212.211 1546.39 209.075 1547.51 205.782C1548.86 201.833 1550.05 195.531 1544.78 193.954C1539.42 192.354 1535.39 197.589 1533.78 202.006C1532.67 205.035 1532.61 208.117 1532.71 211.295C1532.76 212.93 1532.81 214.575 1532.59 216.203C1532.51 216.792 1532.41 217.397 1532.19 217.948C1532.05 218.303 1531.85 218.697 1531.56 218.951C1530.82 219.597 1529.86 219.12 1529.54 218.345C1528.94 216.855 1529.93 215.419 1529.96 213.928C1529.97 212.836 1529.44 211.934 1528.92 211.022C1528.1 209.622 1527.57 208.305 1527.95 206.659C1528.1 206.066 1528.34 205.479 1528.69 204.971C1529.24 204.183 1530.13 203.691 1530.64 202.884C1531.9 200.906 1529.66 199.891 1528.1 200.818C1525.88 202.131 1524.66 204.996 1524.58 207.486C1524.53 208.839 1524.8 210.2 1525.4 211.421C1525.73 212.074 1526.24 212.661 1526.44 213.364C1526.7 214.322 1526.43 215.088 1525.95 215.923C1525.21 217.199 1524.55 218.267 1524.89 219.782C1525.16 220.987 1525.88 222.063 1526.63 223.043C1523.72 221.823 1520.89 220.445 1518.13 218.901C1519.52 210.503 1522.78 202.454 1527.66 195.393ZM1539.48 227.335C1538.93 227.169 1538.45 227.015 1538.11 226.927C1535.99 226.385 1533.9 225.769 1531.83 225.066C1530.26 224.535 1528.71 223.945 1527.18 223.32C1526.45 222.386 1525.76 221.39 1525.41 220.247C1524.92 218.62 1525.59 217.484 1526.39 216.109C1527.06 214.951 1527.18 214.033 1526.57 212.829C1525.99 211.708 1525.38 210.754 1525.15 209.495C1524.69 207.041 1525.36 204.362 1526.96 202.435C1527.32 202.011 1527.73 201.6 1528.18 201.272C1528.7 200.891 1529.93 200.148 1530.42 201.307C1530.51 201.539 1530.46 201.958 1530.4 202.19C1530.08 203.524 1528.4 204.245 1527.8 205.503C1526.71 207.783 1527.67 209.613 1528.77 211.615C1529.55 213.036 1529.45 214.158 1529.07 215.702C1528.81 216.791 1528.62 217.971 1529.37 218.921C1530.32 220.118 1531.85 219.667 1532.48 218.426C1533.6 216.249 1533.17 213.14 1533.1 210.777C1532.93 204.998 1534.38 197.338 1540.25 194.596C1543.5 193.083 1547.33 194.451 1548.06 198.134C1548.59 200.803 1547.72 203.615 1546.84 206.112C1545.77 209.091 1544.36 211.937 1542.61 214.572C1541.78 215.823 1540.86 217.02 1540.07 218.303C1539.61 219.05 1538.86 220.208 1539.3 221.129C1539.94 222.464 1542.1 221.836 1543.05 221.297C1543.91 220.798 1544.62 220.033 1545.05 219.13C1545.62 217.896 1545.03 216.193 1545.93 215.175C1546.88 214.09 1548.29 213.837 1549 212.451C1549.66 211.164 1549.44 210.013 1549.13 208.681C1548.95 207.913 1548.77 207.11 1549.16 206.386C1549.77 205.233 1550.97 205.377 1551.26 206.695C1551.61 208.19 1551.35 209.899 1550.83 211.326C1550.23 213.028 1549.12 214.196 1547.92 215.507C1546.8 216.724 1546.5 218.144 1546.04 219.7C1545.04 223.127 1542.16 225.262 1539.36 227.21C1539.34 227.224 1539.39 227.28 1539.48 227.335ZM1514.75 216.546C1515.42 216.368 1516.32 216.551 1517.02 216.659C1516.84 217.492 1516.68 218.33 1516.54 219.17C1516.49 219.468 1516.61 219.685 1516.8 219.806C1516.86 219.893 1516.93 219.974 1517.05 220.048C1525.94 225.013 1535.54 228.346 1545.6 229.938C1545.83 229.977 1546.16 229.834 1546.26 229.624C1546.59 229.026 1546.9 228.415 1547.21 227.804C1547.23 227.819 1547.25 227.824 1547.27 227.839C1547.65 228.032 1547.94 228.231 1548.16 228.444C1548.16 228.517 1548.18 228.582 1548.21 228.663C1548.36 229.093 1548.5 229.514 1548.65 229.945C1548.42 231.042 1547.16 232.068 1546.38 232.393C1545.39 232.818 1544.28 232.839 1543.24 232.786C1541.86 232.727 1540.46 232.425 1539.09 232.204C1535.27 231.581 1531.48 230.804 1527.9 229.274C1524.56 227.836 1521.46 225.896 1518.46 223.874C1517.17 223.013 1515.82 222.186 1514.62 221.202C1513.3 220.146 1511.39 217.449 1514.75 216.546ZM1511.42 217.912C1511.28 219.104 1511.77 220.389 1512.56 221.318C1514.32 223.418 1517.25 224.903 1519.51 226.37C1522.28 228.154 1525.16 229.811 1528.23 231.033C1531.23 232.225 1534.38 232.921 1537.56 233.468C1540.29 233.939 1543.45 234.813 1546.2 234.041C1547.51 233.667 1548.59 232.792 1549.25 231.733C1549.36 232.062 1549.47 232.4 1549.58 232.728C1547.81 235.276 1544.78 235.49 1541.94 235.226C1541.82 235.132 1541.66 235.061 1541.66 235.143C1541.65 235.162 1541.66 235.184 1541.66 235.194C1541.13 235.141 1540.61 235.068 1540.11 235C1536.2 234.437 1532.3 233.712 1528.57 232.331C1527.86 232.063 1527.14 231.772 1526.43 231.475C1526.38 231.44 1526.3 231.41 1526.25 231.395C1523.25 230.121 1520.33 228.597 1517.57 226.919C1514.3 224.922 1511.32 222.245 1510.31 218.431C1510.68 218.247 1511.05 218.083 1511.42 217.912ZM1509.99 218.554C1510.9 221.621 1513.11 224.055 1515.68 225.9C1518.81 228.151 1522.41 229.996 1525.99 231.526C1524.86 233.34 1523.72 235.15 1522.59 236.964C1520.8 236.375 1519.07 235.658 1517.38 234.796C1517.31 234.756 1517.13 234.677 1517.06 234.763C1516.54 235.464 1516.21 236.184 1515.99 237.026C1515.29 236.68 1514.49 236.357 1513.91 235.876C1513.41 235.467 1513.46 235.491 1513.8 234.857C1514.02 234.468 1514.36 234.103 1514.63 233.749C1514.66 233.696 1514.52 233.607 1514.5 233.59C1512.6 232.694 1510.71 231.789 1508.81 230.893C1508.75 230.866 1508.54 230.772 1508.49 230.861C1508.28 231.17 1507.87 232.116 1507.55 232.271C1507.08 232.5 1506.44 232.064 1506.07 231.845C1505.97 231.788 1504.76 231.151 1504.64 230.925C1504.37 230.41 1505.05 229.791 1505.31 229.415C1505.34 229.372 1505.26 229.308 1505.23 229.29C1504.71 228.948 1504.2 228.59 1503.7 228.211C1504.37 227.827 1505.03 227.44 1505.7 227.056C1507.92 225.765 1510.15 224.473 1512.37 223.179C1512.48 223.115 1512.07 222.885 1511.94 222.955C1509.58 224.325 1507.21 225.693 1504.84 227.072C1504.34 227.366 1503.83 227.657 1503.33 227.951C1502.67 227.438 1502.03 226.898 1501.41 226.325C1501.33 226.251 1501.12 226.135 1501.01 226.21C1500.24 226.712 1499.58 227.295 1498.99 228C1498.47 227.69 1497.88 227.369 1498.13 226.784C1498.3 226.395 1498.73 226.011 1498.97 225.638C1498.99 225.592 1498.91 225.53 1498.88 225.513C1498.29 225.068 1497.69 224.634 1497.09 224.189C1501.41 222.316 1505.71 220.469 1509.99 218.554ZM1493.32 225.946C1494.51 225.4 1495.72 224.846 1496.92 224.311C1497.34 224.575 1497.82 224.865 1498.09 225.202C1498.64 225.884 1497.87 226.479 1497.33 227C1497.28 227.048 1497.35 227.119 1497.39 227.151C1497.93 227.517 1498.47 227.886 1499.01 228.262C1499.09 228.314 1499.31 228.423 1499.39 228.319C1499.95 227.619 1500.57 227.057 1501.31 226.557C1501.9 227.094 1502.5 227.611 1503.14 228.097C1502.61 228.403 1502.07 228.718 1501.54 229.023C1500.93 229.372 1499.93 229.753 1499.24 230.265C1497.22 228.913 1495.24 227.458 1493.32 225.946ZM1499.66 230.551C1500.01 230.331 1500.41 230.155 1500.71 229.976C1501.27 229.656 1501.82 229.334 1502.38 229.004C1502.75 228.792 1503.13 228.57 1503.5 228.355C1503.86 228.574 1504.47 228.898 1504.57 229.129C1504.8 229.684 1504.19 230.21 1503.91 230.632C1503.88 230.675 1503.96 230.739 1503.99 230.756C1505.1 231.562 1506.27 232.247 1507.52 232.831C1507.59 232.858 1507.74 232.908 1507.79 232.829C1508.16 232.274 1508.52 231.718 1508.9 231.163C1510.04 231.71 1511.19 232.257 1512.36 232.796C1512.78 232.999 1513.83 233.283 1513.9 233.735C1513.98 234.199 1513.08 235.061 1512.81 235.425C1512.77 235.475 1512.92 235.566 1512.94 235.584C1513.99 236.156 1515.05 236.741 1516.1 237.313C1516.14 237.333 1516.4 237.442 1516.42 237.345C1516.62 236.489 1516.96 235.769 1517.46 235.063C1519.08 235.888 1520.76 236.583 1522.49 237.155C1521.71 238.389 1520.93 239.624 1520.17 240.861C1520.16 240.88 1520.16 240.89 1520.17 240.912C1512.97 238.276 1506.08 234.811 1499.66 230.551ZM1506.05 236.138C1508.07 237.241 1510.13 238.271 1512.22 239.23C1511.95 241.34 1512.33 243.422 1513.33 245.294C1509.85 243.086 1506.92 240.104 1506.05 236.138ZM1519.66 248.426C1517.82 247.72 1515.89 246.848 1514.08 245.767C1514.04 245.664 1513.84 245.529 1513.74 245.514C1512.72 243.637 1512.34 241.545 1512.63 239.427C1515.68 240.809 1518.8 242.034 1521.98 243.109C1521.12 244.838 1520.35 246.611 1519.66 248.426ZM1520.61 241.059C1521.39 239.805 1522.18 238.563 1522.96 237.309C1523.61 237.519 1524.28 237.702 1524.94 237.876C1524.7 238.475 1524.46 239.062 1524.21 239.659C1524.18 239.724 1524.3 239.796 1524.35 239.818C1525.57 240.509 1526.8 241.189 1528.02 241.88C1528.09 241.917 1528.29 242.001 1528.35 241.912C1528.72 241.317 1529.06 240.713 1529.32 240.059C1529.73 239.039 1529.97 238.925 1531.06 239.022C1532.53 239.145 1534.01 239.261 1535.47 239.383C1535.54 240.289 1535.44 241.141 1535.16 242.01C1535.12 242.143 1535.45 242.228 1535.53 242.229C1537.52 242.303 1539.51 242.375 1541.5 242.459C1541.43 243.64 1541.33 244.822 1541.21 246C1534.17 245.09 1527.27 243.44 1520.61 241.059ZM1520.6 248.774C1520.44 248.712 1520.29 248.662 1520.13 248.6C1520.15 248.554 1520.18 248.499 1520.19 248.441C1520.19 248.431 1520.2 248.421 1520.19 248.419C1520.86 246.662 1521.61 244.944 1522.45 243.252C1525.67 244.315 1528.94 245.207 1532.24 245.931C1531.56 246.88 1530.81 247.761 1529.94 248.536C1529.55 248.889 1529.13 249.225 1528.71 249.548C1528.55 249.663 1528 250.129 1527.53 250.411C1525.05 250.116 1522.64 249.502 1520.6 248.774ZM1528.26 250.507C1528.86 250.125 1529.44 249.563 1529.78 249.28C1530.92 248.347 1531.9 247.247 1532.75 246.052C1535.49 246.64 1538.25 247.1 1541.03 247.451C1537.72 250.331 1532.89 250.965 1528.26 250.507ZM1543.15 246.205C1542.94 246.077 1542.67 246.028 1542.43 246.13C1542.16 246.101 1541.9 246.065 1541.63 246.036C1541.75 244.848 1541.84 243.653 1541.91 242.461C1542.56 242.486 1543.21 242.512 1543.86 242.535C1543.89 242.532 1543.98 242.524 1543.96 242.468C1543.8 241.993 1543.56 241.363 1543.62 240.849C1543.7 239.981 1544.08 240.029 1544.86 239.995C1545.95 239.937 1547.04 239.942 1548.14 239.979C1548.24 240.717 1548.33 241.465 1548.42 242.201C1548.44 242.33 1548.72 242.425 1548.83 242.389C1549.97 241.995 1551.13 241.603 1552.27 241.218C1552.86 243.065 1553.46 244.897 1554.1 246.727C1550.44 246.756 1546.79 246.581 1543.15 246.205Z" fill="white"/>
<path d="M1543.85 207.443C1543.88 207.307 1543.47 207.046 1543.43 207.201C1542.93 209.292 1542.01 211.944 1539.74 212.678C1535.55 214.028 1535.65 208.494 1535.97 206.108C1535.99 205.968 1535.57 205.726 1535.56 205.867C1535.22 208.384 1535.11 211.97 1538.06 213.006C1541.44 214.185 1543.24 209.962 1543.85 207.443Z" fill="white"/>
<path d="M1539.92 204.396C1539.92 204.408 1539.93 204.421 1539.95 204.426C1540 204.521 1540.05 204.616 1540.11 204.716C1540.16 204.779 1540.4 204.956 1540.49 204.877C1541.5 204.001 1541.93 202.72 1541.64 201.414C1541.62 201.295 1541.35 201.111 1541.23 201.183C1541.07 201.276 1540.93 201.396 1540.8 201.506C1540.75 201.493 1540.71 201.503 1540.68 201.536C1540.16 202.259 1539.66 203.079 1539.78 203.917C1539.79 204.085 1539.83 204.24 1539.92 204.396Z" fill="white"/>
</g>
<g clip-path="url(#clip2_1416_63807)">
<path d="M1214.01 45.48C1213.41 48.96 1212.77 52.44 1212.11 55.91C1211.3 54.2 1210.51 52.49 1209.69 50.79C1209.32 50.03 1208.17 50.68 1208.54 51.43C1209.38 53.18 1210.2 54.94 1211.02 56.7C1208.97 55.7 1207 54.54 1204.83 53.78C1204.04 53.5 1203.7 54.77 1204.5 55.05C1206.47 55.75 1208.27 56.81 1210.13 57.75C1208.73 57.59 1207.28 57.53 1205.92 57.45C1205.81 57.44 1205.47 57.68 1205.62 57.69C1207.34 57.79 1209.18 57.86 1210.91 58.14C1208.36 59.67 1205.82 61.25 1203.32 62.86C1202.61 63.32 1203.25 64.47 1203.96 64.01C1206.34 62.48 1208.74 60.98 1211.16 59.52C1211.14 59.58 1211.12 59.63 1211.11 59.65C1210.83 60.27 1210.56 60.89 1210.31 61.52C1209.87 62.6 1209.48 63.7 1209.12 64.81C1209.05 65.02 1209.37 64.73 1209.4 64.63C1209.84 63.29 1210.33 61.98 1210.88 60.68C1211.01 60.37 1211.2 60.04 1211.39 59.69C1210.62 63.61 1209.81 67.53 1208.96 71.44C1208.78 72.27 1210.05 72.61 1210.23 71.78C1211.06 67.9 1211.86 64 1212.63 60.1C1213.58 62.09 1214.55 64.06 1215.59 66C1215.99 66.75 1217.14 66.1 1216.74 65.36C1215.74 63.48 1214.79 61.58 1213.87 59.66C1215.03 60.53 1216.16 61.43 1217.26 62.37C1217.36 62.46 1217.66 62.14 1217.58 62.07C1216.52 61.16 1215.43 60.29 1214.32 59.45C1216.86 60.3 1219.41 61.08 1221.74 62.46C1222.47 62.89 1223.13 61.75 1222.4 61.32C1219.95 59.88 1217.28 59.06 1214.61 58.16C1215.62 58.29 1216.64 58.42 1217.65 58.57C1217.65 58.57 1217.65 58.57 1217.66 58.57C1217.72 58.58 1217.78 58.58 1217.85 58.59C1217.97 58.6 1218.21 58.26 1218.09 58.24C1216.8 58.05 1215.5 57.88 1214.2 57.72C1215.68 56.86 1217.16 56 1218.65 55.16C1219.39 54.75 1218.75 53.6 1218.01 54.01C1216.42 54.9 1214.85 55.81 1213.28 56.73C1213.28 56.72 1213.28 56.72 1213.28 56.71C1214.25 54.96 1215.19 53.21 1216.08 51.42C1216.15 51.29 1215.77 51.45 1215.72 51.55C1214.99 53.01 1214.22 54.45 1213.44 55.89C1214.08 52.53 1214.7 49.17 1215.28 45.81C1215.42 44.99 1214.15 44.64 1214.01 45.48Z" fill="white"/>
</g>
<g clip-path="url(#clip3_1416_63807)">
<path d="M1619.7 385.282C1619.33 387.324 1618.95 389.367 1618.54 391.403C1618.05 390.4 1617.57 389.396 1617.07 388.398C1616.85 387.952 1616.15 388.334 1616.37 388.774C1616.88 389.801 1617.38 390.834 1617.88 391.867C1616.63 391.28 1615.43 390.599 1614.11 390.153C1613.63 389.989 1613.43 390.734 1613.91 390.899C1615.11 391.309 1616.21 391.932 1617.34 392.483C1616.49 392.389 1615.6 392.354 1614.78 392.307C1614.71 392.301 1614.5 392.442 1614.59 392.448C1615.64 392.507 1616.76 392.548 1617.81 392.712C1616.26 393.61 1614.72 394.538 1613.2 395.483C1612.76 395.753 1613.15 396.428 1613.58 396.158C1615.03 395.26 1616.49 394.379 1617.97 393.522C1617.95 393.557 1617.94 393.587 1617.94 393.599C1617.76 393.962 1617.6 394.326 1617.45 394.696C1617.18 395.33 1616.94 395.976 1616.72 396.627C1616.68 396.75 1616.88 396.58 1616.89 396.522C1617.16 395.735 1617.46 394.966 1617.8 394.203C1617.87 394.021 1617.99 393.827 1618.11 393.622C1617.64 395.923 1617.14 398.224 1616.63 400.519C1616.52 401.006 1617.29 401.205 1617.4 400.718C1617.9 398.441 1618.39 396.152 1618.86 393.863C1619.44 395.031 1620.03 396.187 1620.66 397.326C1620.9 397.766 1621.6 397.384 1621.36 396.95C1620.75 395.847 1620.17 394.731 1619.61 393.604C1620.32 394.115 1621.01 394.643 1621.68 395.195C1621.74 395.248 1621.92 395.06 1621.87 395.019C1621.23 394.485 1620.56 393.974 1619.89 393.481C1621.43 393.98 1622.99 394.438 1624.4 395.248C1624.85 395.5 1625.25 394.831 1624.81 394.579C1623.31 393.734 1621.69 393.252 1620.07 392.724C1620.68 392.8 1621.3 392.877 1621.92 392.965C1621.92 392.965 1621.92 392.965 1621.92 392.965C1621.96 392.971 1621.99 392.971 1622.04 392.976C1622.11 392.982 1622.26 392.783 1622.18 392.771C1621.4 392.659 1620.61 392.56 1619.82 392.466C1620.72 391.961 1621.62 391.456 1622.52 390.963C1622.97 390.723 1622.58 390.048 1622.13 390.288C1621.17 390.811 1620.21 391.345 1619.26 391.885C1619.26 391.879 1619.26 391.879 1619.26 391.873C1619.85 390.846 1620.42 389.819 1620.96 388.768C1621 388.692 1620.77 388.786 1620.74 388.844C1620.3 389.701 1619.83 390.546 1619.35 391.392C1619.74 389.42 1620.12 387.447 1620.47 385.475C1620.56 384.994 1619.79 384.789 1619.7 385.282Z" fill="white"/>
</g>
<g clip-path="url(#clip4_1416_63807)">
<path d="M1170.37 570.37C1169.92 573.051 1169.43 575.732 1168.93 578.405C1168.31 577.087 1167.71 575.77 1167.09 574.46C1166.81 573.875 1165.93 574.376 1166.21 574.953C1166.85 576.302 1167.48 577.657 1168.1 579.013C1166.54 578.243 1165.04 577.349 1163.39 576.764C1162.79 576.548 1162.53 577.526 1163.14 577.742C1164.64 578.281 1166.01 579.098 1167.42 579.822C1166.36 579.699 1165.26 579.653 1164.22 579.591C1164.14 579.583 1163.88 579.768 1163.99 579.776C1165.3 579.853 1166.7 579.907 1168.02 580.123C1166.08 581.301 1164.14 582.518 1162.24 583.759C1161.7 584.113 1162.19 584.999 1162.73 584.645C1164.54 583.466 1166.37 582.31 1168.21 581.186C1168.19 581.232 1168.18 581.27 1168.17 581.286C1167.96 581.763 1167.75 582.241 1167.56 582.726C1167.23 583.558 1166.93 584.406 1166.65 585.261C1166.6 585.423 1166.84 585.199 1166.87 585.122C1167.2 584.09 1167.58 583.081 1167.99 582.079C1168.09 581.84 1168.24 581.586 1168.38 581.317C1167.8 584.336 1167.18 587.356 1166.53 590.368C1166.4 591.008 1167.36 591.27 1167.5 590.63C1168.13 587.641 1168.74 584.637 1169.32 581.632C1170.05 583.165 1170.79 584.683 1171.58 586.178C1171.88 586.755 1172.76 586.255 1172.45 585.685C1171.69 584.236 1170.97 582.773 1170.27 581.293C1171.15 581.964 1172.01 582.657 1172.85 583.381C1172.92 583.451 1173.15 583.204 1173.09 583.15C1172.28 582.449 1171.45 581.779 1170.61 581.132C1172.54 581.787 1174.48 582.387 1176.25 583.451C1176.81 583.782 1177.31 582.904 1176.76 582.572C1174.89 581.463 1172.86 580.831 1170.83 580.138C1171.6 580.238 1172.37 580.338 1173.14 580.454C1173.14 580.454 1173.14 580.454 1173.15 580.454C1173.2 580.462 1173.24 580.462 1173.3 580.469C1173.39 580.477 1173.57 580.215 1173.48 580.2C1172.5 580.053 1171.51 579.922 1170.52 579.799C1171.64 579.136 1172.77 578.474 1173.9 577.827C1174.47 577.511 1173.98 576.625 1173.42 576.941C1172.21 577.627 1171.01 578.328 1169.82 579.036C1169.82 579.029 1169.82 579.029 1169.82 579.021C1170.56 577.673 1171.27 576.325 1171.95 574.946C1172 574.846 1171.71 574.969 1171.68 575.046C1171.12 576.171 1170.53 577.28 1169.94 578.389C1170.43 575.801 1170.9 573.212 1171.34 570.624C1171.45 569.992 1170.48 569.723 1170.37 570.37Z" fill="white"/>
</g>
<g clip-path="url(#clip5_1416_63807)">
<path d="M1231.96 404.616C1231.2 409.084 1230.39 413.553 1229.55 418.008C1228.52 415.812 1227.52 413.617 1226.48 411.434C1226.01 410.458 1224.55 411.293 1225.02 412.256C1226.09 414.503 1227.13 416.762 1228.17 419.022C1225.57 417.738 1223.07 416.249 1220.32 415.273C1219.32 414.913 1218.89 416.544 1219.9 416.904C1222.4 417.802 1224.68 419.163 1227.04 420.37C1225.26 420.165 1223.43 420.088 1221.7 419.985C1221.56 419.972 1221.13 420.28 1221.32 420.293C1223.5 420.422 1225.83 420.511 1228.03 420.871C1224.8 422.835 1221.58 424.864 1218.41 426.931C1217.51 427.522 1218.32 428.998 1219.22 428.408C1222.23 426.443 1225.28 424.517 1228.34 422.643C1228.32 422.72 1228.29 422.784 1228.28 422.81C1227.93 423.606 1227.58 424.402 1227.27 425.211C1226.71 426.597 1226.22 428.01 1225.76 429.435C1225.67 429.704 1226.08 429.332 1226.11 429.204C1226.67 427.483 1227.29 425.801 1227.99 424.132C1228.15 423.734 1228.4 423.31 1228.64 422.861C1227.66 427.894 1226.63 432.927 1225.56 437.947C1225.33 439.013 1226.94 439.449 1227.17 438.384C1228.22 433.402 1229.23 428.395 1230.21 423.387C1231.41 425.942 1232.64 428.472 1233.96 430.963C1234.47 431.926 1235.93 431.091 1235.42 430.141C1234.15 427.727 1232.95 425.288 1231.78 422.822C1233.25 423.94 1234.68 425.095 1236.08 426.302C1236.2 426.418 1236.59 426.007 1236.48 425.917C1235.14 424.748 1233.76 423.631 1232.35 422.553C1235.57 423.644 1238.8 424.646 1241.76 426.418C1242.68 426.97 1243.52 425.506 1242.59 424.954C1239.49 423.105 1236.1 422.052 1232.72 420.897C1234 421.064 1235.29 421.23 1236.57 421.423C1236.57 421.423 1236.57 421.423 1236.59 421.423C1236.66 421.436 1236.74 421.436 1236.83 421.449C1236.98 421.462 1237.28 421.025 1237.13 420.999C1235.49 420.755 1233.85 420.537 1232.2 420.332C1234.08 419.227 1235.95 418.123 1237.84 417.045C1238.78 416.518 1237.97 415.042 1237.03 415.568C1235.01 416.711 1233.02 417.879 1231.03 419.061C1231.03 419.048 1231.03 419.048 1231.03 419.035C1232.26 416.788 1233.45 414.541 1234.58 412.243C1234.67 412.076 1234.19 412.281 1234.13 412.41C1233.2 414.284 1232.22 416.133 1231.24 417.982C1232.05 413.668 1232.83 409.354 1233.57 405.04C1233.75 403.987 1232.14 403.538 1231.96 404.616Z" fill="white"/>
</g>
<g clip-path="url(#clip6_1416_63807)">
<path d="M1443.79 118.074C1444.59 121.512 1445.36 124.966 1446.11 128.418C1444.69 127.16 1443.3 125.894 1441.88 124.649C1441.24 124.093 1440.44 125.14 1441.07 125.687C1442.53 126.97 1443.97 128.271 1445.41 129.571C1443.13 129.45 1440.87 129.151 1438.57 129.298C1437.74 129.348 1437.92 130.65 1438.77 130.596C1440.85 130.472 1442.92 130.745 1445 130.885C1443.65 131.284 1442.29 131.795 1441.01 132.252C1440.9 132.285 1440.68 132.639 1440.83 132.59C1442.45 132.011 1444.17 131.357 1445.87 130.94C1444.12 133.344 1442.4 135.789 1440.73 138.247C1440.25 138.948 1441.29 139.757 1441.76 139.056C1443.36 136.719 1444.98 134.401 1446.64 132.113C1446.65 132.176 1446.65 132.23 1446.65 132.252C1446.63 132.932 1446.62 133.608 1446.64 134.286C1446.66 135.452 1446.73 136.617 1446.83 137.78C1446.85 138 1447.03 137.608 1447.02 137.505C1446.9 136.099 1446.84 134.702 1446.84 133.29C1446.84 132.954 1446.88 132.576 1446.92 132.18C1447.74 136.089 1448.52 140.015 1449.27 143.946C1449.43 144.781 1450.73 144.598 1450.57 143.764C1449.82 139.868 1449.03 135.965 1448.22 132.073C1449.87 133.535 1451.53 134.97 1453.25 136.351C1453.91 136.885 1454.72 135.838 1454.06 135.313C1452.4 133.972 1450.79 132.593 1449.19 131.184C1450.6 131.533 1451.99 131.92 1453.37 132.357C1453.5 132.4 1453.65 131.989 1453.55 131.956C1452.22 131.531 1450.87 131.156 1449.52 130.815C1452.19 130.607 1454.85 130.33 1457.53 130.691C1458.37 130.802 1458.53 129.495 1457.69 129.384C1454.88 129.014 1452.1 129.301 1449.29 129.514C1450.27 129.24 1451.26 128.962 1452.25 128.706C1452.25 128.706 1452.25 128.706 1452.26 128.702C1452.32 128.688 1452.37 128.664 1452.44 128.646C1452.55 128.608 1452.64 128.202 1452.52 128.23C1451.26 128.559 1450 128.909 1448.74 129.269C1449.77 127.9 1450.79 126.531 1451.84 125.176C1452.36 124.51 1451.32 123.7 1450.8 124.367C1449.68 125.807 1448.59 127.257 1447.51 128.717C1447.5 128.708 1447.5 128.708 1447.5 128.698C1447.71 126.709 1447.89 124.731 1448.01 122.735C1448.02 122.588 1447.74 122.884 1447.73 122.995C1447.63 124.624 1447.48 126.251 1447.32 127.881C1446.6 124.538 1445.86 121.202 1445.09 117.882C1444.89 117.072 1443.59 117.246 1443.79 118.074Z" fill="white"/>
</g>
<g clip-path="url(#clip7_1416_63807)">
<path d="M1172.8 171.446C1173.36 173.855 1173.9 176.275 1174.42 178.694C1173.43 177.812 1172.45 176.925 1171.46 176.052C1171.01 175.663 1170.45 176.397 1170.89 176.78C1171.91 177.679 1172.92 178.59 1173.93 179.501C1172.34 179.416 1170.75 179.207 1169.14 179.31C1168.56 179.345 1168.68 180.257 1169.28 180.219C1170.74 180.132 1172.19 180.324 1173.65 180.422C1172.7 180.701 1171.75 181.059 1170.85 181.379C1170.78 181.403 1170.62 181.651 1170.72 181.616C1171.86 181.21 1173.06 180.752 1174.26 180.46C1173.03 182.144 1171.82 183.858 1170.65 185.58C1170.32 186.071 1171.05 186.637 1171.38 186.147C1172.5 184.509 1173.63 182.885 1174.8 181.282C1174.8 181.326 1174.8 181.364 1174.8 181.379C1174.79 181.856 1174.78 182.33 1174.79 182.804C1174.81 183.621 1174.85 184.438 1174.93 185.252C1174.94 185.407 1175.06 185.132 1175.06 185.059C1174.97 184.075 1174.93 183.096 1174.93 182.107C1174.93 181.871 1174.96 181.606 1174.99 181.329C1175.57 184.068 1176.11 186.818 1176.63 189.572C1176.75 190.157 1177.66 190.029 1177.55 189.445C1177.02 186.715 1176.47 183.98 1175.9 181.254C1177.06 182.278 1178.22 183.284 1179.42 184.251C1179.89 184.625 1180.45 183.892 1179.99 183.524C1178.83 182.584 1177.7 181.618 1176.58 180.631C1177.57 180.875 1178.54 181.147 1179.51 181.453C1179.6 181.483 1179.7 181.195 1179.63 181.172C1178.7 180.874 1177.76 180.611 1176.81 180.373C1178.69 180.227 1180.54 180.033 1182.42 180.286C1183.01 180.364 1183.13 179.448 1182.54 179.37C1180.56 179.111 1178.62 179.312 1176.65 179.461C1177.34 179.269 1178.03 179.074 1178.72 178.895C1178.72 178.895 1178.72 178.895 1178.73 178.892C1178.77 178.882 1178.81 178.866 1178.86 178.853C1178.94 178.827 1179 178.542 1178.92 178.562C1178.03 178.792 1177.15 179.038 1176.26 179.29C1176.98 178.33 1177.7 177.371 1178.43 176.422C1178.8 175.955 1178.07 175.388 1177.71 175.855C1176.93 176.864 1176.16 177.88 1175.4 178.903C1175.4 178.896 1175.4 178.896 1175.39 178.89C1175.54 177.496 1175.67 176.11 1175.75 174.712C1175.76 174.609 1175.56 174.816 1175.56 174.894C1175.49 176.036 1175.38 177.175 1175.27 178.317C1174.77 175.975 1174.25 173.638 1173.7 171.312C1173.57 170.745 1172.66 170.866 1172.8 171.446Z" fill="white"/>
</g>
<path d="M1290 84L1293.07 93.5538H1303L1294.97 99.4462L1298.03 109L1290 103.108L1281.97 109L1285.03 99.4462L1277 93.5538H1286.93L1290 84Z" fill="white"/>
<g clip-path="url(#clip8_1416_63807)">
<path d="M1485.07 349.262L1488.79 355.215L1495.6 353.509L1491.1 358.886L1494.82 364.838L1488.31 362.222L1483.8 367.598L1484.29 360.591L1477.78 357.975L1484.59 356.269L1485.07 349.262Z" fill="white"/>
</g>
<g clip-path="url(#clip9_1416_63807)">
<path d="M1121.91 469.233L1125.64 475.186L1132.45 473.48L1127.94 478.856L1131.67 484.809L1125.16 482.193L1120.65 487.569L1121.13 480.562L1114.62 477.946L1121.43 476.24L1121.91 469.233Z" fill="white"/>
</g>
<g clip-path="url(#clip10_1416_63807)">
<path d="M1607 262.347L1605.84 268.096L1610.95 270.966L1605.13 271.642L1603.98 277.39L1601.53 272.069L1595.72 272.745L1600.03 268.771L1597.58 263.451L1602.69 266.321L1607 262.347Z" fill="white"/>
</g>
<g clip-path="url(#clip11_1416_63807)">
<path d="M1394.26 429.181C1394.15 429.859 1394.05 430.536 1393.93 431.217C1393.9 431.433 1393.75 433.068 1393.57 433.387C1393.5 433.359 1393.45 433.357 1393.47 433.422C1393.48 433.455 1393.48 433.476 1393.49 433.509C1393.52 433.606 1393.69 433.762 1393.81 433.733C1393.84 433.724 1393.87 433.721 1393.89 433.708C1393.92 433.702 1393.92 433.695 1393.92 433.67C1394.37 430.822 1394.83 427.974 1395.28 425.126C1395.3 425.009 1394.95 424.787 1394.94 424.904C1394.71 426.333 1394.49 427.763 1394.26 429.181Z" fill="white"/>
<path d="M1392.13 434.888C1392.34 432.617 1392.54 430.352 1392.75 428.081C1392.77 427.953 1392.47 427.701 1392.47 427.79C1392.26 430.061 1392.05 432.325 1391.84 434.597C1391.83 434.724 1392.12 434.973 1392.13 434.888Z" fill="white"/>
<path d="M1484.78 486.38C1485.06 485.99 1484.87 485.453 1484.39 485.354C1480.24 484.541 1476.07 484.729 1472.03 485.881C1473.52 481.686 1474.74 477.402 1475.66 473.044C1475.73 472.701 1475.46 472.381 1475.14 472.324C1471.08 471.521 1466.98 471.458 1462.9 472.135C1462.42 467.048 1462.73 461.984 1463.86 456.992C1463.92 456.684 1463.66 456.286 1463.33 456.271C1460.64 456.15 1458.24 456.167 1455.83 456.733C1456.08 456.517 1456.33 456.301 1456.6 456.082C1457.77 455.096 1459.89 453.938 1459.72 452.132C1459.54 450.243 1457.6 448.136 1456.42 446.787C1456.07 446.39 1455.71 446.003 1455.33 445.627C1455.36 445.602 1455.37 445.567 1455.4 445.543C1455.92 444.823 1456.74 444.43 1457.17 443.714C1460.92 446.136 1465.27 445.105 1469.29 443.821C1469.55 443.862 1469.82 443.761 1469.94 443.465C1470.74 441.425 1471.35 439.706 1471.12 437.437C1470.88 435.186 1469.98 433.094 1468.56 431.358C1469.22 430.493 1469.88 429.628 1470.55 428.774C1470.65 428.638 1470.68 428.493 1470.67 428.35C1471.17 428.531 1471.84 428.415 1472.25 428.165C1473.21 427.575 1472.89 426.283 1472.11 425.708C1471.39 425.169 1470.14 424.951 1469.79 425.988C1469.63 426.478 1469.69 427.236 1470.05 427.669C1470.05 427.676 1470.04 427.69 1470.05 427.705L1470.05 427.715C1469.93 427.715 1469.82 427.75 1469.69 427.846C1468.81 428.536 1467.93 429.236 1467.04 429.926C1464.66 427.17 1461.91 424.886 1458.13 424.67C1457.91 424.659 1457.73 424.746 1457.61 424.877C1457.45 424.836 1457.28 424.851 1457.11 424.953C1451.29 428.479 1449.84 436.056 1453.92 441.449C1453.41 441.831 1452.93 442.278 1452.33 442.549C1452.22 442.592 1452.15 442.661 1452.08 442.733C1450.34 441.368 1448.48 440.149 1446.6 438.983C1447.53 434.472 1448.7 429.859 1448.34 425.236C1448.33 425.111 1448.01 424.907 1448.01 425C1448.01 425.057 1448.01 425.11 1448.02 425.168C1447.96 425.126 1447.9 425.092 1447.86 425.098C1447.62 425.115 1447.43 425.154 1447.22 425.226C1447.86 424.966 1448.2 424.172 1447.81 423.577C1447.47 423.067 1446.86 422.817 1446.31 422.595C1446.28 422.58 1446.25 422.564 1446.23 422.571C1446.03 422.618 1445.86 422.715 1445.71 422.835C1445.7 422.827 1445.69 422.813 1445.67 422.794C1445.65 422.783 1445.64 422.775 1445.61 422.764C1445.57 422.659 1445.37 422.513 1445.29 422.567L1445.28 422.563C1445.27 422.556 1445.26 422.563 1445.25 422.555C1441.07 420.111 1436.4 418.161 1431.75 416.874C1431.43 416.364 1430.82 415.915 1430.41 415.787C1429.32 415.428 1427.93 416.197 1427.91 417.416C1427.89 418.442 1428.84 419.402 1429.84 419.518C1430.79 419.626 1431.54 418.91 1431.75 418.065C1431.76 418.062 1431.76 418.062 1431.77 418.059C1431.82 418.01 1431.86 417.958 1431.89 417.902C1436.43 419.421 1440.83 421.33 1445.04 423.628L1445.04 423.632C1445.06 423.64 1445.08 423.651 1445.09 423.659C1445.16 423.697 1445.19 423.694 1445.2 423.673C1445.23 423.66 1445.24 423.621 1445.22 423.581C1445.21 423.57 1445.19 423.559 1445.19 423.548C1445.22 423.563 1445.19 423.494 1445.21 423.449C1445.22 423.367 1445.26 423.297 1445.31 423.231C1445.37 423.123 1445.46 423.026 1445.55 422.936C1445.56 422.944 1445.58 422.951 1445.6 422.963C1445.6 422.967 1445.61 422.97 1445.63 422.971C1445.28 423.351 1445.14 423.921 1445.35 424.427C1445.65 425.122 1446.49 425.514 1447.21 425.254C1447.15 425.277 1447.08 425.303 1447.02 425.333C1447.01 425.343 1446.99 425.353 1446.99 425.371C1447.24 427.491 1446.61 429.662 1446.28 431.744C1446.1 432.89 1445.94 434.025 1445.79 435.175C1445.71 435.714 1445.65 436.251 1445.58 436.794C1445.55 437.085 1445.56 437.82 1445.45 438.273C1444.94 437.959 1444.43 437.657 1443.92 437.35C1443.66 437.195 1443.35 437.341 1443.17 437.524C1440.81 439.9 1438.44 442.257 1436.05 444.593C1437.55 441.317 1438.41 437.824 1438.63 434.187C1438.65 433.799 1438.39 433.402 1437.95 433.461C1432.88 434.125 1427.81 433.983 1422.79 433.04C1423.84 429.036 1424.15 424.942 1423.72 420.816C1423.68 420.48 1423.37 420.209 1423.03 420.25C1418.58 420.754 1414.22 421.573 1409.91 422.677C1411.42 418.757 1411.97 414.604 1411.54 410.402C1411.49 409.905 1410.95 409.701 1410.54 409.944C1400.46 416.08 1390.86 422.97 1381.82 430.561C1381.58 430.76 1381.51 431.004 1381.59 431.299C1382.61 435.081 1383.08 438.92 1383.05 442.834C1383.05 443.159 1383.44 443.45 1383.74 443.4C1389.1 442.564 1394.47 441.886 1399.86 441.344C1399.07 446.452 1398.26 451.548 1397.46 456.655C1397.39 457.141 1397.86 457.496 1398.3 457.347C1403.31 455.715 1408.32 454.076 1413.32 452.444C1413.35 452.448 1413.36 452.449 1413.38 452.432L1413.39 452.425C1413.45 452.406 1413.51 452.383 1413.57 452.363C1413.75 456.206 1413.93 460.038 1414.11 463.881C1414.12 464.281 1414.44 464.453 1414.74 464.427C1414.18 464.929 1413.62 465.43 1413.05 465.931C1413.02 465.923 1412.99 465.908 1412.97 465.91C1412.67 465.85 1412.36 466.032 1412.25 466.317C1411.49 467.033 1410.52 468.173 1410.61 469.203C1410.7 470.147 1412.14 471.509 1413.22 472.527C1410.64 476.97 1408 481.368 1405.08 485.604C1403.88 484.147 1401.69 484.703 1400.4 485.864C1399.07 487.07 1398.93 489.019 1399.95 490.445C1398.46 491.813 1396.92 493.115 1395.32 494.351C1395.28 493.276 1392.69 493.233 1393.03 495.024C1393.15 495.624 1393.72 496.246 1394.36 496.293C1395.26 496.363 1395.68 495.486 1395.5 494.745C1397.13 493.489 1398.7 492.167 1400.22 490.771C1401.59 492.277 1403.83 491.962 1405.22 490.64C1406.17 489.728 1406.68 488.155 1406.24 486.96C1411.31 484.795 1416.5 482.909 1421.68 480.997C1422.41 481.693 1423.14 482.381 1423.88 483.073C1424.15 483.329 1424.53 483.203 1424.77 482.986C1425.68 482.137 1426.58 481.287 1427.49 480.438C1427.65 480.461 1427.82 480.428 1427.94 480.328C1428.96 479.461 1429.98 478.602 1431 477.731C1431.08 477.848 1431.22 477.938 1431.4 477.959C1435.2 478.481 1439.01 479.008 1442.8 479.531C1440.69 484.457 1438.57 489.373 1436.45 494.299C1436.26 494.749 1436.62 495.214 1437.09 495.181C1442.24 494.844 1447.38 494.511 1452.54 494.175C1451.51 499.503 1450.34 504.801 1449.02 510.061C1448.95 510.372 1449.22 510.76 1449.55 510.782C1453.45 511.109 1457.22 511.933 1460.9 513.29C1461.19 513.393 1461.43 513.326 1461.65 513.116C1470.02 504.807 1477.75 495.873 1484.78 486.38ZM1430.42 419.082C1429.38 419.588 1428.24 418.704 1428.26 417.599C1428.27 416.79 1428.96 416.147 1429.72 415.991C1430.36 415.863 1430.91 416.121 1431.29 416.634C1431.32 416.677 1431.36 416.725 1431.38 416.776C1431.37 416.808 1431.36 416.843 1431.35 416.874C1431.34 416.913 1431.36 416.953 1431.39 416.99C1431.6 417.81 1431.18 418.709 1430.42 419.082ZM1431.87 417.114C1434.61 417.878 1437.27 418.918 1439.87 420.077C1440.96 420.557 1442.03 421.061 1443.09 421.6C1443.53 421.822 1443.98 422.055 1444.42 422.284C1444.63 422.398 1444.84 422.563 1445.07 422.649C1445.1 422.664 1445.13 422.683 1445.16 422.698C1445.01 422.871 1444.85 423.101 1444.84 423.304C1440.71 421.058 1436.4 419.188 1431.95 417.683C1431.98 417.492 1431.95 417.302 1431.87 417.114ZM1447.18 424.768C1446.61 425.173 1445.54 424.99 1445.51 424.151C1445.5 423.58 1445.89 423.041 1446.44 422.906C1446.79 423.039 1447.18 423.181 1447.47 423.426C1447.92 423.827 1447.61 424.472 1447.18 424.768ZM1483.16 486.435C1476.7 495.077 1469.66 503.24 1462.06 510.902C1459.03 509.977 1455.99 509.053 1452.96 508.128C1452.97 508.079 1452.98 508.033 1452.99 507.983C1454.21 506.859 1455.37 505.672 1456.48 504.448C1456.94 505.106 1458.17 505.073 1458.86 505.161C1460.24 505.341 1461.63 505.342 1463.01 505.204C1463.13 505.194 1462.91 504.851 1462.79 504.865C1461.77 504.965 1460.76 504.995 1459.74 504.931C1459.53 504.917 1457.62 504.794 1456.88 504.526C1456.88 504.501 1456.88 504.473 1456.88 504.455C1456.88 504.373 1456.8 504.256 1456.71 504.206C1457.67 503.141 1458.6 502.043 1459.51 500.933C1459.51 500.951 1459.52 500.966 1459.53 500.98C1459.54 501.006 1459.55 501.027 1459.56 501.053C1459.6 501.136 1459.74 501.248 1459.83 501.244C1459.85 501.244 1459.87 501.249 1459.9 501.242C1460.05 501.244 1459.78 500.953 1459.67 500.946C1460.19 500.96 1460.54 501.076 1461.08 501.041C1461.35 501.025 1461.62 501.002 1461.89 500.987C1462.65 500.934 1463.4 500.889 1464.15 500.836C1465.59 500.74 1467.03 500.65 1468.47 500.553C1468.63 500.541 1468.35 500.253 1468.24 500.256C1466.59 500.367 1464.96 500.475 1463.31 500.586C1462.49 500.64 1461.66 500.697 1460.84 500.751C1460.56 500.77 1459.85 500.674 1459.59 500.847C1463.27 496.349 1466.66 491.58 1470.61 487.312C1470.77 487.453 1470.99 487.528 1471.24 487.444C1475.12 486.13 1479.14 485.808 1483.16 486.435ZM1452.69 508.248C1452.74 508.281 1452.79 508.308 1452.82 508.316C1455.84 509.233 1458.87 510.161 1461.89 511.078C1461.58 511.385 1461.29 511.688 1460.98 511.991C1457.75 510.836 1454.45 510.055 1451.05 509.667C1451.62 509.213 1452.16 508.736 1452.69 508.248ZM1470.44 486.593C1470.39 486.706 1470.39 486.819 1470.41 486.931C1464.36 493.437 1459.61 501.158 1453.17 507.273C1454.38 502.215 1455.29 497.098 1455.91 491.934C1459.04 489.503 1461.7 486.524 1464.35 483.552C1467.38 480.141 1470.49 476.889 1474.14 474.154C1473.17 478.375 1471.94 482.523 1470.44 486.593ZM1453.68 492.998C1453.55 492.912 1453.41 492.861 1453.25 492.873C1448.45 493.186 1443.65 493.495 1438.85 493.808C1439.46 493.333 1440.06 492.862 1440.67 492.376C1440.74 492.443 1440.86 492.497 1440.91 492.488C1445.74 491.702 1450.62 491.439 1455.51 491.692C1454.92 492.15 1454.3 492.585 1453.68 492.998ZM1474.28 473.453C1474.28 473.478 1474.27 473.503 1474.27 473.528C1470.46 476.317 1467.23 479.672 1464.09 483.198C1461.49 486.125 1458.86 489.062 1455.78 491.477C1455.73 491.439 1455.67 491.416 1455.63 491.415C1450.77 491.137 1445.9 491.383 1441.09 492.13C1441.11 492.088 1441.13 492.036 1441.15 491.994C1442.84 490.643 1444.5 489.253 1446.14 487.851C1446.18 487.923 1446.24 488.004 1446.31 488.031C1446.73 488.231 1447.23 487.917 1447.65 487.788C1448.5 487.525 1449.35 487.273 1450.2 487.01C1451.91 486.494 1453.61 485.968 1455.31 485.452C1455.44 485.414 1455.21 485.071 1455.1 485.103C1453.59 485.561 1452.09 486.023 1450.58 486.481C1449.86 486.698 1449.14 486.919 1448.42 487.137C1448.05 487.246 1447.04 487.739 1446.47 487.759C1446.46 487.733 1446.44 487.715 1446.43 487.696C1446.41 487.678 1446.4 487.67 1446.38 487.652C1447.93 486.318 1449.46 484.966 1450.97 483.581C1451 483.618 1451.05 483.64 1451.07 483.627C1453.72 482.984 1456.35 481.926 1458.9 480.954C1458.99 480.922 1458.78 480.562 1458.65 480.611C1456.31 481.504 1453.9 482.469 1451.46 483.113C1454.99 479.854 1458.41 476.459 1461.69 472.945C1461.74 473.254 1462.04 473.546 1462.37 473.489C1466.35 472.76 1470.33 472.747 1474.28 473.453ZM1461.65 472.391C1455.41 479.108 1448.69 485.371 1441.56 491.138C1443.69 486.607 1445.48 481.937 1446.91 477.137C1452.85 471.59 1455.78 463.093 1462.35 458.066C1461.41 462.791 1461.18 467.583 1461.65 472.391ZM1462.42 457.474C1455.77 462.379 1452.82 470.836 1446.99 476.476C1446.92 476.41 1446.81 476.356 1446.75 476.361C1442.52 476.818 1438.26 476.337 1434.25 474.979C1435.02 474.328 1435.79 473.67 1436.57 473.019C1438.46 473.195 1440.35 473.363 1442.24 473.539C1442.39 473.555 1442.12 473.264 1442.01 473.249C1440.29 473.094 1438.57 472.931 1436.86 472.78C1437.75 472.022 1438.64 471.265 1439.54 470.511C1440.26 470.482 1440.97 470.443 1441.69 470.407C1442.49 470.37 1443.3 470.366 1444.1 470.294C1444.45 470.259 1444.87 470.217 1444.82 469.78C1444.81 469.673 1444.5 469.412 1444.51 469.566C1444.58 470.157 1442.06 470.049 1441.62 470.069C1441.16 470.093 1440.7 470.112 1440.24 470.136C1440.15 470.14 1440.06 470.148 1439.97 470.152C1440.94 469.329 1441.91 468.507 1442.88 467.681C1444.6 467.476 1446.32 467.275 1448.05 467.07C1448.14 467.056 1447.88 466.772 1447.76 466.786C1446.27 466.96 1444.8 467.137 1443.32 467.304C1446.61 464.521 1449.91 461.732 1453.19 458.946C1456.28 457.569 1459.11 457.367 1462.42 457.474ZM1453.1 443.56C1453.53 443.315 1453.91 443.014 1454.31 442.696C1454.76 442.348 1455.96 441.498 1456.19 442.5C1456.38 443.359 1455.29 443.796 1454.79 444.253C1454.67 444.359 1454.58 444.52 1454.49 444.66C1454.42 444.615 1454.34 444.58 1454.26 444.563C1453.88 444.229 1453.49 443.891 1453.1 443.56ZM1456.75 426.741C1456.47 433.974 1460.68 440.391 1467.34 443.087C1466.84 443.237 1466.33 443.37 1465.82 443.491C1462.44 442.409 1459.42 439.185 1457.7 436.266C1456.34 433.958 1454.78 431.031 1455.17 428.277C1455.63 427.719 1456.16 427.209 1456.75 426.741ZM1466.5 431.951C1465.04 433.851 1463.59 435.755 1462.13 437.655C1462.06 437.739 1462.02 437.827 1462.01 437.908C1461.58 437.44 1461.18 436.942 1460.82 436.419C1462.71 434.926 1464.61 433.444 1466.5 431.951ZM1468.84 442.304C1468.97 442.159 1469.09 442.013 1469.19 441.86C1469.13 442.018 1469.07 442.184 1469.01 442.349C1468.95 442.337 1468.89 442.324 1468.84 442.304ZM1468.57 442.213C1466.33 441.448 1464.37 440.225 1462.76 438.679C1462.88 438.655 1463.01 438.588 1463.11 438.452C1464.38 436.795 1465.66 435.131 1466.92 433.47C1468.95 435.697 1470.84 439.51 1468.5 442.04C1468.47 442.078 1468.51 442.154 1468.57 442.213ZM1469.85 437.54C1469.9 437.983 1469.91 438.394 1469.88 438.799C1469.64 436.798 1468.34 434.731 1467.03 433.331C1467.28 433.012 1467.53 432.692 1467.77 432.38C1468.92 433.874 1469.66 435.618 1469.85 437.54ZM1470.04 426.767C1470.04 426.496 1470.09 426.205 1470.23 425.971C1470.51 425.495 1470.93 425.517 1471.42 425.602C1472.37 425.763 1472.85 426.895 1472.21 427.625C1472.01 427.847 1471.07 428.285 1470.61 428.116C1470.58 428.058 1470.55 428.014 1470.51 427.967C1470.53 427.967 1470.55 427.975 1470.57 427.979C1470.71 428.009 1470.46 427.701 1470.35 427.676C1470.09 427.617 1470.04 426.938 1470.04 426.767ZM1466.06 430.695C1464.08 432.249 1462.11 433.8 1460.14 435.358C1458.72 432.935 1457.95 430.113 1458 427.158C1460.72 427.655 1463.14 428.983 1465.03 431.027C1465.12 431.123 1465.47 431.213 1465.29 431.014C1463.34 428.9 1460.82 427.483 1458.02 426.931C1458.02 426.599 1458.05 426.269 1458.08 425.931C1461.46 426.165 1463.91 428.203 1466.06 430.695ZM1454.76 428.805C1454.74 429.639 1454.89 430.475 1455.18 431.33C1455.85 433.307 1456.78 435.268 1457.93 437.005C1459.64 439.613 1462.37 442.385 1465.42 443.574C1462.74 444.148 1460.01 444.186 1457.61 442.485C1457.56 442.448 1457.51 442.421 1457.46 442.401C1457.37 441.5 1456.69 440.813 1455.73 440.78C1455.49 440.768 1455.26 440.8 1455.06 440.86C1452.16 437.134 1452.21 432.312 1454.76 428.805ZM1445.82 437.769C1445.89 437.161 1445.96 436.557 1446.04 435.947C1446.2 434.665 1446.39 433.388 1446.58 432.114C1446.76 430.944 1446.97 429.789 1447.17 428.615C1447.26 428.048 1447.35 427.48 1447.37 426.903C1447.4 426.195 1447.16 425.48 1448.03 425.364C1448.3 429.877 1447.17 434.367 1446.26 438.761C1446.09 438.662 1445.93 438.553 1445.76 438.455C1445.81 438.228 1445.8 437.939 1445.82 437.769ZM1443.73 438.692C1446.62 440.424 1449.52 442.21 1452.11 444.364C1447.45 449.007 1442.79 453.657 1438.14 458.3C1438.06 458.383 1438.21 458.591 1438.27 458.636C1439.52 459.485 1437.76 460.605 1437.23 461.143C1436.71 461.667 1436.21 462.202 1435.71 462.749C1435.31 463.184 1434.76 464.139 1434.25 464.414C1433.65 464.732 1432.71 463.483 1432.29 463.102C1432.27 463.083 1432.21 463.021 1432.17 463.048C1428.66 466.571 1425.15 470.095 1421.64 473.622C1419.1 471.331 1416.56 469.043 1414.01 466.752C1424.23 457.729 1434.13 448.367 1443.73 438.692ZM1433.48 446.733C1433.4 446.869 1433.38 446.997 1433.41 447.119C1430.78 449.657 1428.14 452.165 1425.47 454.652C1425.9 452.616 1426.33 450.573 1426.76 448.542C1426.79 448.428 1426.44 448.202 1426.42 448.326C1425.96 450.507 1425.5 452.688 1425.04 454.869C1425.03 454.9 1425.06 454.955 1425.1 454.996C1424.24 455.804 1423.37 456.601 1422.5 457.406C1422.47 457.38 1422.44 457.364 1422.41 457.356C1422.4 457.352 1422.39 457.345 1422.37 457.348C1422.51 457.16 1422.58 456.945 1422.57 456.702C1422.61 456.439 1422.65 456.181 1422.68 455.918C1422.76 455.396 1422.83 454.882 1422.9 454.36C1422.96 453.938 1423.06 451.445 1423.66 451.569C1423.81 451.596 1423.59 451.267 1423.47 451.242C1422.61 451.062 1422.63 453.805 1422.56 454.284C1422.45 455.129 1422.32 455.977 1422.21 456.822C1422.16 457.17 1422.1 457.353 1422.27 457.615C1421.44 458.375 1420.62 459.124 1419.79 459.88C1419.79 457.819 1419.79 455.761 1419.79 453.7C1419.78 453.572 1419.44 453.374 1419.44 453.485C1419.44 455.682 1419.44 457.868 1419.45 460.064C1419.45 460.093 1419.46 460.118 1419.49 460.151C1418.83 460.746 1418.18 461.344 1417.52 461.938C1416.38 457.591 1416.24 453.079 1417.12 448.67C1417.13 448.603 1417.06 448.525 1416.98 448.473C1423.12 443.196 1431.8 441.031 1437.28 434.847C1436.9 439.07 1435.64 443.063 1433.48 446.733ZM1436.73 434.842C1431.11 440.928 1422.35 443.059 1416.29 448.524C1411.39 449.514 1406.57 450.86 1401.88 452.571C1408.27 445.987 1415.12 439.861 1422.38 434.242C1427.14 435.147 1431.94 435.344 1436.73 434.842ZM1421.37 433.426C1421.28 433.751 1421.57 434.06 1421.86 434.138C1418.05 437.099 1414.35 440.195 1410.77 443.427C1411.64 441.054 1412.82 438.738 1413.92 436.479C1413.97 436.37 1413.7 436.061 1413.65 436.177C1412.46 438.622 1411.17 441.134 1410.29 443.71C1410.28 443.742 1410.29 443.792 1410.32 443.836C1408.8 445.221 1407.3 446.631 1405.82 448.064C1405.81 448.049 1405.8 448.035 1405.79 448.031C1405.78 448.016 1405.76 447.998 1405.75 447.983C1405.73 447.965 1405.72 447.95 1405.71 447.942C1405.78 447.374 1406.33 446.513 1406.5 446.112C1406.78 445.412 1407.07 444.716 1407.35 444.019C1407.95 442.557 1408.54 441.101 1409.14 439.638C1409.18 439.525 1408.89 439.234 1408.85 439.346C1408.18 440.996 1407.5 442.641 1406.83 444.297C1406.52 445.06 1406.21 445.82 1405.9 446.583C1405.73 446.984 1405.28 447.635 1405.44 448.087C1405.46 448.144 1405.52 448.235 1405.58 448.298C1404.02 449.817 1402.48 451.354 1400.96 452.918C1400.94 452.924 1400.92 452.937 1400.89 452.94C1402.08 448.206 1402.76 443.373 1402.93 438.494C1402.93 438.447 1402.89 438.393 1402.85 438.348C1405.52 435.523 1408.66 433.185 1411.8 430.879C1415.6 428.061 1419.26 425.149 1422.39 421.591C1422.42 421.588 1422.45 421.585 1422.47 421.583C1422.83 425.574 1422.46 429.538 1421.37 433.426ZM1400.84 440.041C1400.75 440.002 1400.65 439.995 1400.55 440.002C1395.13 440.529 1389.73 441.213 1384.35 442.034C1384.35 442.016 1384.34 441.991 1384.31 441.968C1384.99 441.275 1385.69 440.604 1386.41 439.958C1391.6 439.174 1396.85 438.698 1402.1 438.544C1401.67 439.031 1401.24 439.527 1400.84 440.041ZM1408.71 424.194C1408.82 424.219 1408.95 424.223 1409.07 424.188C1413.26 423.056 1417.49 422.21 1421.78 421.652C1418.74 425.02 1415.23 427.813 1411.57 430.511C1408.35 432.886 1405.12 435.292 1402.39 438.229C1397.19 438.364 1392 438.81 1386.85 439.556C1393.52 433.67 1401.66 429.639 1408.71 424.194ZM1410.36 411.542C1410.63 415.613 1409.93 419.586 1408.26 423.344C1408.16 423.587 1408.21 423.806 1408.35 423.971C1402.58 428.419 1396.08 431.933 1390.26 436.286C1390.22 436.181 1390.12 436.074 1390.02 436.064C1390 436.063 1389.99 436.066 1389.98 436.059C1389.73 434.082 1389.77 432.125 1390.14 430.17C1390.16 430.046 1389.87 429.786 1389.85 429.885C1389.58 431.288 1389.46 432.703 1389.52 434.132C1389.55 434.821 1389.43 435.968 1390 436.487C1388.66 437.493 1387.36 438.547 1386.12 439.673C1386.09 439.68 1386.08 439.679 1386.05 439.686C1385.41 436.557 1384.75 433.436 1384.11 430.312C1392.42 423.455 1401.19 417.185 1410.36 411.542ZM1382.89 431.308C1383.21 431.044 1383.53 430.784 1383.85 430.513C1384.49 433.602 1385.13 436.687 1385.77 439.776C1385.78 439.819 1385.81 439.863 1385.85 439.903C1385.33 440.392 1384.81 440.887 1384.3 441.408C1384.22 437.989 1383.74 434.628 1382.89 431.308ZM1401.24 440.732C1401.26 440.572 1401.23 440.425 1401.15 440.301C1401.61 439.725 1402.08 439.174 1402.58 438.639C1402.39 443.531 1401.68 448.374 1400.46 453.114C1400.45 453.171 1400.51 453.251 1400.59 453.304C1400.06 453.86 1399.53 454.423 1399 454.99C1399.74 450.24 1400.5 445.488 1401.24 440.732ZM1398.87 455.841C1398.87 455.798 1398.88 455.766 1398.89 455.724C1399.68 454.867 1400.48 454.024 1401.28 453.182C1406.02 451.412 1410.87 450.006 1415.82 448.968C1415.19 449.57 1414.6 450.209 1414.05 450.896C1414.01 450.906 1413.98 450.905 1413.95 450.914C1408.91 452.56 1403.89 454.202 1398.87 455.841ZM1415.36 463.757C1415.17 459.653 1414.98 455.55 1414.8 451.45C1414.79 451.236 1414.66 451.067 1414.49 450.976C1415.14 450.196 1415.84 449.478 1416.58 448.812C1416.64 448.803 1416.68 448.79 1416.73 448.781C1415.89 453.213 1416.07 457.748 1417.27 462.1C1417.27 462.111 1417.28 462.126 1417.3 462.144C1416.66 462.728 1416.01 463.301 1415.37 463.878C1415.36 463.846 1415.36 463.803 1415.36 463.757ZM1412.78 467.594C1412.86 467.611 1412.94 467.603 1413.03 467.571C1417.51 471.601 1421.99 475.641 1426.46 479.671C1425.74 480.356 1425 481.037 1424.28 481.721C1422.09 479.671 1419.92 477.61 1417.83 475.473C1416.66 474.285 1415.51 473.072 1414.39 471.836C1413.16 470.488 1411.48 469.229 1412.78 467.594ZM1418.3 477.711C1414.69 480.097 1411.07 482.483 1407.45 484.862C1410.25 481.649 1413.06 478.44 1415.85 475.227C1416.66 476.064 1417.48 476.898 1418.3 477.711ZM1414.16 473.443C1414.62 473.94 1415.09 474.438 1415.56 474.932C1412.96 477.923 1410.34 480.918 1407.73 483.909C1409.98 480.488 1412.09 476.97 1414.15 473.429C1414.15 473.429 1414.15 473.432 1414.16 473.443ZM1395.06 495.493C1394.6 496.162 1394.32 495.924 1393.84 495.366C1393.31 494.745 1393.22 494.457 1393.94 494.054C1394.56 493.708 1395.21 494.254 1394.65 494.88C1394.56 494.97 1394.84 495.265 1394.93 495.189C1395.04 495.104 1395.15 495.019 1395.26 494.933C1395.24 495.122 1395.17 495.319 1395.06 495.493ZM1400.86 489.513C1400.3 488.528 1400.48 487.428 1401.35 486.695C1402.15 486.024 1403.56 485.52 1404.24 486.588C1404.25 486.602 1404.25 486.606 1404.26 486.621C1404.27 486.625 1404.27 486.635 1404.28 486.639C1404.32 486.691 1404.36 486.738 1404.42 486.769C1404.42 487.133 1404.7 487.477 1405.09 487.409C1405.68 489.034 1402.44 492.267 1400.86 489.513ZM1408.58 484.612C1411.91 482.409 1415.26 480.21 1418.6 478.007C1419.28 478.679 1419.97 479.352 1420.66 480.017C1416.62 481.512 1412.57 482.991 1408.58 484.612ZM1427.59 478.975C1425.71 477.285 1423.83 475.591 1421.96 473.9C1423.85 472.001 1425.73 470.104 1427.63 468.205C1428.64 467.188 1429.65 466.167 1430.67 465.15C1431.05 464.76 1431.62 463.91 1432.11 463.695C1432.78 463.404 1433.67 464.622 1434.11 465.026C1434.13 465.044 1434.2 465.111 1434.23 465.08C1435.78 463.229 1437.44 461.475 1439.19 459.816C1439.23 459.782 1439.21 459.728 1439.2 459.691C1439.07 459.213 1438.84 458.845 1438.49 458.537C1443.12 453.918 1447.75 449.295 1452.39 444.677C1452.4 444.659 1452.41 444.635 1452.41 444.606C1453.3 445.364 1454.15 446.164 1454.94 447.029C1455.82 447.979 1456.62 448.994 1457.33 450.085C1457.61 450.519 1457.95 450.994 1458.13 451.482C1458.54 452.633 1457.84 453.194 1457.14 453.958C1455.85 455.358 1454.23 456.589 1452.68 457.805C1452.59 457.842 1452.51 457.878 1452.43 457.914C1452.26 457.994 1452.15 458.119 1452.1 458.263C1451.76 458.533 1451.42 458.803 1451.1 459.081C1443.25 465.714 1435.42 472.341 1427.59 478.975ZM1432.11 476.785C1432.76 476.236 1433.41 475.692 1434.05 475.143C1438.09 476.559 1442.36 477.087 1446.63 476.685C1446.61 476.749 1446.58 476.815 1446.57 476.879C1445.84 477.546 1445.08 478.165 1444.25 478.732C1444.17 478.558 1444 478.424 1443.79 478.392C1439.91 477.859 1436.01 477.325 1432.11 476.785ZM1444.28 479.275C1444.3 479.254 1444.3 479.229 1444.3 479.205C1445.02 478.716 1445.71 478.197 1446.35 477.631C1444.87 482.458 1443.02 487.169 1440.84 491.722C1439.94 492.433 1439.05 493.144 1438.14 493.841C1438.1 493.846 1438.06 493.848 1438.02 493.847C1440.1 488.998 1442.19 484.142 1444.28 479.275ZM1453.93 493.599C1453.94 493.507 1453.94 493.421 1453.92 493.338C1454.45 492.986 1454.98 492.619 1455.48 492.24C1454.85 497.464 1453.9 502.637 1452.65 507.75C1451.95 508.397 1451.24 509.014 1450.5 509.62C1450.47 509.615 1450.45 509.611 1450.43 509.617C1451.74 504.307 1452.91 498.966 1453.93 493.599Z" fill="white"/>
<path d="M1465.11 502.456C1462.84 502.46 1460.56 502.456 1458.28 502.46C1458.18 502.456 1458.37 502.809 1458.5 502.806C1460.78 502.803 1463.06 502.806 1465.33 502.802C1465.44 502.806 1465.25 502.457 1465.11 502.456Z" fill="white"/>
<path d="M1434.61 451.935C1434.79 452.334 1435.36 452.653 1435.68 452.945C1436.37 453.586 1437.07 454.216 1437.76 454.857C1437.78 454.879 1437.89 454.961 1437.93 454.913C1440.9 451.702 1443.88 448.488 1446.85 445.278C1446.91 445.212 1446.77 445.061 1446.72 445.028C1445.88 444.285 1445.01 443.578 1444.12 442.888C1444.14 442.853 1444.12 442.802 1444.1 442.777C1444.05 442.682 1443.8 442.566 1443.62 442.496C1443.56 442.444 1443.5 442.392 1443.43 442.347C1443.4 442.325 1443.38 442.309 1443.36 442.309C1443.29 442.217 1443.19 442.128 1443.14 442.187C1440.74 444.782 1438.32 447.381 1435.92 449.976C1435.49 450.428 1434.27 451.217 1434.61 451.935ZM1435.78 450.735C1436.64 449.819 1437.48 448.9 1438.33 447.984C1440 446.187 1441.66 444.386 1443.32 442.589C1443.34 442.608 1443.36 442.626 1443.39 442.641C1443.46 442.701 1443.51 442.706 1443.61 442.752C1443.65 442.768 1443.68 442.783 1443.71 442.792C1444.66 443.516 1445.58 444.261 1446.48 445.048C1444.87 446.779 1443.27 448.503 1441.67 450.235C1440.83 451.14 1440 452.046 1439.16 452.944C1438.85 453.283 1438.31 454.159 1437.91 454.302C1437.32 454.51 1436.86 453.806 1436.46 453.432C1436.08 453.08 1435.59 452.743 1435.27 452.339C1434.67 451.591 1435.26 451.294 1435.78 450.735Z" fill="white"/>
<path d="M1433.02 454.309C1431.21 456.24 1429.42 458.175 1427.62 460.103C1427.56 460.169 1427.68 460.315 1427.73 460.367C1428.12 460.737 1428.43 461.176 1428.65 461.675C1428.67 461.722 1428.82 461.952 1428.9 461.876C1429.96 460.893 1430.99 459.873 1431.98 458.827C1432.53 458.261 1433.07 457.684 1433.6 457.103C1433.91 456.771 1434.3 456.421 1434.44 455.973C1434.61 455.412 1433.57 453.668 1433.02 454.309ZM1433.61 456.483C1433.44 456.68 1433.25 456.866 1433.07 457.06C1432.58 457.588 1432.08 458.117 1431.58 458.634C1430.66 459.601 1429.71 460.538 1428.73 461.446C1428.51 461.053 1428.25 460.695 1427.95 460.36C1429.67 458.505 1431.39 456.656 1433.12 454.801C1433.16 454.824 1433.2 454.825 1433.21 454.793C1433.23 454.74 1433.25 454.691 1433.27 454.638C1434.15 455.096 1434.37 455.56 1433.94 456.038C1433.86 456.199 1433.74 456.355 1433.61 456.483Z" fill="white"/>
<path d="M1424.45 462.921C1424.46 463.678 1425.15 464.208 1425.87 464.211C1426.74 464.223 1427.4 463.501 1427.17 462.64C1426.99 461.942 1426.34 461.4 1425.62 461.371C1424.86 461.366 1424.44 462.265 1424.45 462.921ZM1426.85 462.929C1426.79 463.551 1426.22 463.963 1425.61 463.942C1424.26 463.906 1424.79 461.635 1425.87 461.633C1426.51 461.666 1426.91 462.325 1426.85 462.929Z" fill="white"/>
<path d="M1449.81 451.923C1449.28 451.858 1448.89 452.597 1448.77 453.025C1448.62 453.604 1448.9 454.163 1449.53 454.27C1450.35 454.409 1451.09 453.604 1450.93 452.803C1450.83 452.322 1450.29 451.818 1449.81 451.923ZM1449.09 453.813C1448.86 453.516 1449.16 452.792 1449.56 452.446C1449.62 452.505 1449.69 452.543 1449.72 452.505C1449.95 452.195 1450.52 452.108 1450.65 452.64C1450.72 452.913 1450.59 453.269 1450.42 453.477C1450.18 453.779 1449.4 454.22 1449.09 453.813Z" fill="white"/>
<path d="M1445.8 456.845C1445.36 456.423 1444.7 456.9 1444.39 457.253C1443.79 457.058 1443.92 457.989 1444.13 458.299C1444.48 458.846 1445.22 458.911 1445.66 458.438C1446.05 458.03 1446.27 457.289 1445.8 456.845ZM1444.76 458.406C1444.48 458.4 1444.19 458.237 1444.2 457.931C1444.21 457.717 1444.3 457.531 1444.54 457.625C1444.56 457.637 1444.58 457.641 1444.59 457.627C1444.78 457.412 1445.01 457.214 1445.29 457.109C1445.39 457.073 1445.62 456.992 1445.73 457.074C1445.9 457.216 1445.72 457.616 1445.64 457.781C1445.48 458.11 1445.16 458.406 1444.76 458.406Z" fill="white"/>
</g>
<path d="M1329.44 156C1287.27 156 1250.62 179.178 1231.97 213.263H1273.47V237.82H1222.26C1221.68 240.075 1221.17 242.363 1220.74 244.671H1295.45V269.227H1219C1219.1 271.53 1219.27 273.818 1219.52 276.078H1317.43V300.635H1225.18C1226.01 302.954 1226.93 305.241 1227.91 307.486H1339.41V332.042H1242.92C1244.85 334.409 1246.86 336.696 1248.97 338.893H1361.4V363.45H1284.03C1297.88 369.582 1313.26 373 1329.45 373C1390.5 373 1440 324.426 1440 264.505C1440 204.585 1390.5 156 1329.44 156ZM1314.96 245.743C1314.35 245.743 1313.85 245.257 1313.85 244.655C1313.85 244.053 1314.35 243.567 1314.96 243.567C1315.58 243.567 1316.07 244.053 1316.07 244.655C1316.07 245.257 1315.58 245.743 1314.96 245.743ZM1322.27 210.527C1322.62 210.527 1322.97 210.517 1323.3 210.501C1320.62 211.674 1317.65 212.323 1314.53 212.323C1302.6 212.323 1292.94 202.831 1292.94 191.126C1292.94 179.421 1302.6 169.94 1314.53 169.94C1317.65 169.94 1320.62 170.594 1323.3 171.762C1322.97 171.746 1322.62 171.735 1322.27 171.735C1311.36 171.735 1302.51 180.419 1302.51 191.126C1302.51 201.844 1311.36 210.527 1322.27 210.527ZM1340.77 189.806H1343.6L1344.47 187.17L1345.34 189.806H1348.17L1345.88 191.432L1346.76 194.068L1344.47 192.441L1342.19 194.068L1343.06 191.432L1340.77 189.806ZM1352.35 271.515L1349.34 269.365L1346.33 271.515L1347.48 268.039L1344.46 265.889H1348.19L1349.34 262.414L1350.49 265.889H1354.22L1351.2 268.039L1352.35 271.515ZM1389.12 190.814C1390.34 190.814 1391.33 191.786 1391.33 192.98C1391.33 194.174 1390.34 195.146 1389.12 195.146C1387.9 195.146 1386.91 194.174 1386.91 192.98C1386.91 191.786 1387.9 190.814 1389.12 190.814ZM1369.66 292.68C1369.09 292.68 1368.62 292.226 1368.62 291.666C1368.62 291.106 1369.09 290.652 1369.66 290.652C1370.23 290.652 1370.69 291.106 1370.69 291.666C1370.69 292.226 1370.23 292.68 1369.66 292.68ZM1381.55 345.977C1380.2 345.977 1379.1 344.899 1379.1 343.568C1379.1 342.237 1380.2 341.159 1381.55 341.159C1382.91 341.159 1384.01 342.237 1384.01 343.568C1384.01 344.899 1382.91 345.977 1381.55 345.977ZM1398.71 310.74L1396.55 309.203L1394.39 310.74L1395.21 308.252L1393.05 306.715H1395.72L1396.55 304.227L1397.37 306.715H1400.04L1397.88 308.252L1398.71 310.74ZM1401.16 235.813C1400.33 235.929 1399.43 236.029 1398.49 236.124C1396.95 241.591 1391.84 245.601 1385.78 245.601C1379.72 245.601 1374.62 241.586 1373.08 236.124C1372.14 236.029 1371.25 235.929 1370.41 235.813C1364.03 234.941 1363.15 233.779 1363.15 232.659C1363.15 231.54 1364.03 230.378 1370.41 229.506C1371.24 229.39 1372.13 229.289 1373.08 229.194C1374.62 223.727 1379.72 219.718 1385.78 219.718C1391.84 219.718 1396.95 223.733 1398.49 229.194C1399.43 229.289 1400.32 229.39 1401.16 229.506C1407.53 230.378 1408.41 231.54 1408.41 232.659C1408.41 233.784 1407.53 234.941 1401.16 235.813ZM1420.6 273.041C1419.75 273.041 1419.05 272.36 1419.05 271.52C1419.05 270.68 1419.75 269.999 1420.6 269.999C1421.46 269.999 1422.15 270.68 1422.15 271.52C1422.15 272.36 1421.46 273.041 1420.6 273.041Z" fill="white"/>
<defs>
<linearGradient id="paint0_linear_1416_63807" x1="1117" y1="181.405" x2="-6.50004" y2="29.4044" gradientUnits="userSpaceOnUse">
<stop stop-color="#13FFDA"/>
<stop offset="0.529357" stop-color="#237EFF"/>
<stop offset="0.836655" stop-color="#FF398C"/>
<stop offset="1" stop-opacity="0"/>
</linearGradient>
<linearGradient id="paint1_linear_1416_63807" x1="1151" y1="400.905" x2="1324" y2="492.905" gradientUnits="userSpaceOnUse">
<stop stop-color="#13FFDA"/>
<stop offset="0.529357" stop-color="#237EFF"/>
<stop offset="1" stop-color="#FF398C"/>
</linearGradient>
<linearGradient id="paint2_linear_1416_63807" x1="1486.27" y1="408.746" x2="1537.68" y2="227.202" gradientUnits="userSpaceOnUse">
<stop stop-color="#FF398C"/>
<stop offset="0.529357" stop-color="#237EFF" stop-opacity="0.61"/>
<stop offset="0.831447" stop-color="#13FFDA" stop-opacity="0"/>
<stop offset="1" stop-opacity="0"/>
</linearGradient>
<linearGradient id="paint3_linear_1416_63807" x1="1537" y1="155.405" x2="1837.54" y2="324.789" gradientUnits="userSpaceOnUse">
<stop stop-color="#13FFDA" stop-opacity="0.75"/>
<stop offset="0.529357" stop-color="#237EFF" stop-opacity="0.61"/>
<stop offset="0.75332" stop-color="#FF398C" stop-opacity="0.44"/>
<stop offset="1" stop-opacity="0"/>
</linearGradient>
<clipPath id="clip0_1416_63807">
<rect width="105.65" height="95.86" fill="white" transform="translate(1119.12 260.502) rotate(56.8959)"/>
</clipPath>
<clipPath id="clip1_1416_63807">
<rect width="68.13" height="72.02" fill="white" transform="translate(1505.12 172) rotate(14.5703)"/>
</clipPath>
<clipPath id="clip2_1416_63807">
<rect width="19.72" height="27.26" fill="white" transform="translate(1203 45)"/>
</clipPath>
<clipPath id="clip3_1416_63807">
<rect width="12" height="16" fill="white" transform="translate(1613 385)"/>
</clipPath>
<clipPath id="clip4_1416_63807">
<rect width="15" height="21" fill="white" transform="translate(1162 570)"/>
</clipPath>
<clipPath id="clip5_1416_63807">
<rect width="25" height="35" fill="white" transform="translate(1218 404)"/>
</clipPath>
<clipPath id="clip6_1416_63807">
<rect width="19.72" height="27.26" fill="white" transform="translate(1433.46 121.928) rotate(-22.9675)"/>
</clipPath>
<clipPath id="clip7_1416_63807">
<rect width="13.8157" height="19.0982" fill="white" transform="translate(1165.56 174.146) rotate(-22.9675)"/>
</clipPath>
<clipPath id="clip8_1416_63807">
<rect width="18.38" height="17.48" fill="white" transform="translate(1476.15 351.495) rotate(-14.0619)"/>
</clipPath>
<clipPath id="clip9_1416_63807">
<rect width="18.38" height="17.48" fill="white" transform="translate(1113 471.466) rotate(-14.0619)"/>
</clipPath>
<clipPath id="clip10_1416_63807">
<rect width="15.3419" height="14.5906" fill="white" transform="translate(1600.31 258.59) rotate(29.3311)"/>
</clipPath>
<clipPath id="clip11_1416_63807">
<rect width="117.179" height="99.2895" fill="white" transform="translate(1404.43 388.859) rotate(28.5346)"/>
</clipPath>
</defs>
</svg>
