<svg width="86" height="85" viewBox="0 0 86 85" fill="none" xmlns="http://www.w3.org/2000/svg">
<g clip-path="url(#clip0_1943_33430)">
<path d="M32.0476 3.50422L31.2239 1.76374L20.7598 7.80492L21.8557 9.38943L24.1505 12.7062C26.926 10.2599 30.1857 8.35048 33.7689 7.14274L32.0476 3.50422ZM63.6933 9.38943L64.7899 7.80492L54.3263 1.76374L53.5015 3.50422L51.7796 7.14241C55.3632 8.35006 58.6232 10.2596 61.3989 12.7061L63.6933 9.38943ZM73.1229 23.1262L74.8648 22.3019L68.8235 11.838L67.2387 12.9344L63.9216 15.2288C66.368 18.0044 68.2775 21.2642 69.4851 24.8475L73.1229 23.1262ZM48.3297 6.22133L48.6584 2.20713L48.8159 0.287109H36.733L36.8906 2.20713L37.2191 6.22149C39.0484 5.85596 40.9093 5.67211 42.7747 5.67263C44.6765 5.67263 46.5338 5.86225 48.3297 6.22133ZM18.3107 12.9344L16.7268 11.838L10.6849 22.3019L12.4266 23.1262L16.0644 24.8476C17.272 21.2646 19.1813 18.005 21.6274 15.2296L18.3107 12.9344ZM53.5022 64.2016L54.3263 65.9422L64.7899 59.901L63.6933 58.3169L61.399 54.9998C58.6234 57.4461 55.3636 59.3555 51.7804 60.5633L53.5022 64.2016ZM12.4267 44.5803L10.685 45.404L16.7269 55.868L18.3108 54.7715L21.6279 52.4768C19.1818 49.7015 17.2725 46.442 16.0649 42.8591L12.4267 44.5803ZM67.2394 54.7715L68.8235 55.868L74.8648 45.404L73.1229 44.5796L69.4853 42.8581C68.2777 46.4413 66.3683 49.701 63.9221 52.4765L67.2394 54.7715ZM21.8557 58.3169L20.7598 59.901L31.2239 65.9422L32.0476 64.2016L33.7691 60.5631C30.186 59.3555 26.9264 57.4461 24.1511 55L21.8557 58.3169ZM70.4062 39.4089L74.4207 39.7371L76.3406 39.8941V27.8119L74.4207 27.9688L70.4062 28.2967C70.7718 30.1262 70.9557 31.9873 70.9552 33.853C70.9557 35.7185 70.7718 37.5795 70.4062 39.4089ZM15.1433 28.2977L11.1283 27.9688L9.20898 27.8119V39.8941L11.1283 39.7371L15.1434 39.4087C14.7778 37.5794 14.594 35.7184 14.5945 33.853C14.5945 31.9512 14.7841 30.0939 15.1433 28.2977ZM37.2189 61.4843L36.8906 65.4989L36.733 67.4188H48.8159L48.6595 65.4989L48.3312 61.4843C46.5017 61.8499 44.6405 62.0338 42.7748 62.0333C40.8728 62.0333 39.0152 61.8436 37.2189 61.4843Z" fill="#F2B471"/>
<path d="M51.7328 71.4068H33.8141L32.4061 71.0288L22.8398 65.5059V84.9304L36.13 80.0812L42.7753 77.657L49.4191 80.0812L62.7096 84.9304V65.5059L53.1442 71.0286L51.7328 71.4068Z" fill="#F2B471"/>
<path d="M18.5605 33.8533C18.5605 37.0329 19.1868 40.1815 20.4036 43.1191C21.6204 46.0567 23.4039 48.7259 25.6523 50.9742C27.9006 53.2226 30.5698 55.0061 33.5074 56.2229C36.445 57.4397 39.5936 58.0659 42.7732 58.0659C45.9529 58.0659 49.1014 57.4397 52.039 56.2229C54.9766 55.0061 57.6458 53.2226 59.8941 50.9742C62.1425 48.7259 63.926 46.0567 65.1428 43.1191C66.3596 40.1815 66.9859 37.0329 66.9859 33.8533C66.9859 27.4317 64.4349 21.2731 59.8941 16.7323C55.3534 12.1916 49.1948 9.64063 42.7732 9.64062C36.3516 9.64063 30.193 12.1916 25.6523 16.7323C21.1115 21.2731 18.5605 27.4317 18.5605 33.8533Z" fill="#F2B471"/>
<path d="M34.7044 43C33.9151 43 33.2111 42.808 32.5924 42.424C31.9738 42.04 31.4724 41.5387 31.0884 40.92C30.7044 40.3013 30.5124 39.608 30.5124 38.84V37.88H34.0004V38.744C34.0004 38.9573 34.0751 39.1493 34.2244 39.32C34.3738 39.4693 34.5551 39.544 34.7684 39.544H49.3284C49.5418 39.544 49.7231 39.4693 49.8724 39.32C50.0218 39.1493 50.0964 38.9573 50.0964 38.744V33.816C50.0964 33.6027 50.0218 33.4213 49.8724 33.272C49.7231 33.1013 49.5418 33.016 49.3284 33.016H34.7044V29.56H48.3364C48.5711 29.56 48.7631 29.4853 48.9124 29.336C49.0618 29.1653 49.1364 28.9733 49.1364 28.76V24.216C49.1364 24.0027 49.0618 23.8213 48.9124 23.672C48.7631 23.5013 48.5711 23.416 48.3364 23.416H34.7684C34.5551 23.416 34.3738 23.5013 34.2244 23.672C34.0751 23.8213 34.0004 24.0027 34.0004 24.216V25.4H30.5124V24.12C30.5124 23.3307 30.6938 22.6267 31.0564 22.008C31.4404 21.3893 31.9524 20.888 32.5924 20.504C33.2324 20.12 33.9364 19.928 34.7044 19.928H48.4324C49.2218 19.928 49.9258 20.12 50.5444 20.504C51.1844 20.888 51.6858 21.3893 52.0484 22.008C52.4111 22.6267 52.5924 23.3307 52.5924 24.12V28.856C52.5924 29.1333 52.5604 29.4107 52.4964 29.688C52.4538 29.9653 52.3791 30.2213 52.2724 30.456C52.7418 30.9253 53.0724 31.448 53.2644 32.024C53.4564 32.6 53.5524 33.1653 53.5524 33.72V38.84C53.5524 39.608 53.3604 40.3013 52.9764 40.92C52.6138 41.5387 52.1124 42.04 51.4724 42.424C50.8538 42.808 50.1711 43 49.4244 43H34.7044Z" fill="#A83D39"/>
</g>
<defs>
<clipPath id="clip0_1943_33430">
<rect width="84.6435" height="84.6435" fill="white" transform="translate(0.453125 0.287109)"/>
</clipPath>
</defs>
</svg>
