<svg width="85" height="86" viewBox="0 0 85 86" fill="none" xmlns="http://www.w3.org/2000/svg">
<g clip-path="url(#clip0_1943_33425)">
<path d="M31.6472 4.13899L30.8235 2.39851L20.3595 8.43969L21.4554 10.0242L23.7502 13.341C26.5256 10.8947 29.7853 8.98524 33.3685 7.7775L31.6472 4.13899ZM63.2929 10.0242L64.3895 8.43969L53.9259 2.39851L53.1011 4.13899L51.3792 7.77717C54.9628 8.98483 58.2228 10.8943 60.9985 13.3409L63.2929 10.0242ZM72.7225 23.761L74.4644 22.9367L68.4231 12.4727L66.8383 13.5692L63.5213 15.8636C65.9677 18.6391 67.8771 21.899 69.0847 25.4823L72.7225 23.761ZM47.9293 6.85609L48.258 2.84189L48.4155 0.921875H36.3326L36.4902 2.84189L36.8187 6.85626C38.648 6.49073 40.5089 6.30688 42.3744 6.3074C44.2761 6.3074 46.1334 6.49702 47.9293 6.85609ZM17.9103 13.5692L16.3264 12.4727L10.2845 22.9367L12.0262 23.761L15.6641 25.4824C16.8716 21.8993 18.7809 18.6397 21.227 15.8643L17.9103 13.5692ZM53.1018 64.8364L53.9259 66.577L64.3895 60.5358L63.2929 58.9517L60.9986 55.6345C58.223 58.0809 54.9632 59.9903 51.38 61.198L53.1018 64.8364ZM12.0263 45.215L10.2846 46.0388L16.3265 56.5027L17.9104 55.4062L21.2275 53.1115C18.7814 50.3362 16.8721 47.0768 15.6645 43.4939L12.0263 45.215ZM66.839 55.4062L68.4231 56.5027L74.4644 46.0388L72.7225 45.2144L69.0849 43.4928C67.8773 47.076 65.9679 50.3358 63.5217 53.1113L66.839 55.4062ZM21.4554 58.9517L20.3595 60.5358L30.8235 66.577L31.6472 64.8364L33.3687 61.1979C29.7856 59.9903 26.526 58.0809 23.7507 55.6348L21.4554 58.9517ZM70.0058 40.0436L74.0203 40.3719L75.9402 40.5288V28.4466L74.0203 28.6036L70.0058 28.9314C70.3714 30.7609 70.5553 32.6221 70.5548 34.4877C70.5553 36.3533 70.3714 38.2143 70.0058 40.0436ZM14.7429 28.9325L10.728 28.6036L8.80859 28.4466V40.5288L10.728 40.3719L14.743 40.0434C14.3774 38.2141 14.1936 36.3532 14.1941 34.4877C14.1941 32.586 14.3837 30.7286 14.7429 28.9325ZM36.8185 62.1191L36.4902 66.1336L36.3326 68.0536H48.4155L48.2591 66.1336L47.9308 62.119C46.1013 62.4847 44.2401 62.6686 42.3744 62.6681C40.4724 62.6681 38.6148 62.4784 36.8185 62.1191Z" fill="#8EB4BD"/>
<path d="M51.3324 72.0416H33.4137L32.0057 71.6636L22.4395 66.1406V85.5651L35.7296 80.716L42.3749 78.2918L49.0187 80.716L62.3092 85.5651V66.1407L52.7438 71.6634L51.3324 72.0416Z" fill="#8EB4BD"/>
<path d="M18.1602 34.4881C18.1602 37.6677 18.7864 40.8162 20.0032 43.7538C21.22 46.6915 23.0035 49.3606 25.2519 51.609C27.5002 53.8573 30.1694 55.6408 33.107 56.8576C36.0446 58.0744 39.1932 58.7007 42.3728 58.7007C45.5525 58.7007 48.701 58.0744 51.6386 56.8576C54.5762 55.6408 57.2454 53.8573 59.4938 51.609C61.7421 49.3606 63.5256 46.6915 64.7424 43.7538C65.9592 40.8162 66.5855 37.6677 66.5855 34.4881C66.5855 28.0665 64.0345 21.9079 59.4938 17.3671C54.953 12.8264 48.7944 10.2754 42.3728 10.2754C35.9512 10.2754 29.7926 12.8264 25.2519 17.3671C20.7111 21.9079 18.1602 28.0665 18.1602 34.4881Z" fill="#8EB4BD"/>
<path d="M30.0935 43V34.264C30.0935 33.4747 30.2748 32.7707 30.6375 32.152C31.0215 31.5333 31.5228 31.0427 32.1415 30.68C32.7815 30.296 33.4855 30.104 34.2535 30.104H48.8775C49.0908 30.104 49.2721 30.0293 49.4215 29.88C49.5921 29.7093 49.6775 29.5173 49.6775 29.304V24.216C49.6775 24.0027 49.5921 23.8213 49.4215 23.672C49.2721 23.5013 49.0908 23.416 48.8775 23.416H34.3495C34.1361 23.416 33.9441 23.5013 33.7735 23.672C33.6241 23.8213 33.5495 24.0027 33.5495 24.216V25.464H30.0935V24.12C30.0935 23.3307 30.2748 22.6267 30.6375 22.008C31.0215 21.3893 31.5228 20.888 32.1415 20.504C32.7815 20.12 33.4855 19.928 34.2535 19.928H48.9735C49.7201 19.928 50.4028 20.12 51.0215 20.504C51.6615 20.888 52.1735 21.3893 52.5575 22.008C52.9415 22.6267 53.1335 23.3307 53.1335 24.12V29.4C53.1335 30.168 52.9415 30.872 52.5575 31.512C52.1735 32.1307 51.6615 32.632 51.0215 33.016C50.4028 33.3787 49.7201 33.56 48.9735 33.56H34.3495C34.1361 33.56 33.9441 33.6453 33.7735 33.816C33.6241 33.9653 33.5495 34.1467 33.5495 34.36V38.744C33.5495 38.9573 33.6241 39.1493 33.7735 39.32C33.9441 39.4693 34.1361 39.544 34.3495 39.544H53.1335V43H30.0935Z" fill="#2A484D"/>
</g>
<defs>
<clipPath id="clip0_1943_33425">
<rect width="84.6435" height="84.6435" fill="white" transform="translate(0.0527344 0.921875)"/>
</clipPath>
</defs>
</svg>
