<svg width="48" height="48" viewBox="0 0 48 48" fill="none" xmlns="http://www.w3.org/2000/svg">
<path d="M8 6H40C40.5304 6 41.0391 6.21071 41.4142 6.58579C41.7893 6.96086 42 7.46957 42 8V40C42 40.5304 41.7893 41.0391 41.4142 41.4142C41.0391 41.7893 40.5304 42 40 42H8C7.46957 42 6.96086 41.7893 6.58579 41.4142C6.21071 41.0391 6 40.5304 6 40V8C6 7.46957 6.21071 6.96086 6.58579 6.58579C6.96086 6.21071 7.46957 6 8 6ZM34.6 31.88C34.4 31.78 34.3 31.48 34.3 31.278V16.012C34.3 15.812 34.4 15.512 34.6 15.31L36.51 13.1V13H29.68L24.56 25.956L18.732 13H11.704V13.1L13.51 15.612C13.912 16.012 14.012 16.616 14.012 17.118V28.164C14.112 28.768 14.012 29.47 13.712 30.072L11 33.788V33.888H18.232V33.788L15.52 30.174C15.22 29.57 15.118 28.968 15.22 28.266V18.22C15.32 18.42 15.42 18.42 15.52 18.822L22.348 34.088H22.448L29.08 17.52C28.98 18.12 28.98 18.824 28.98 19.328V31.178C28.98 31.478 28.88 31.678 28.68 31.88L26.67 33.788V33.888H36.512V33.788L34.604 31.88H34.6Z" fill="white"/>
</svg>
