<?xml version="1.0" encoding="utf-8"?>
<!-- Generator: Adobe Illustrator 25.4.1, SVG Export Plug-In . SVG Version: 6.00 Build 0)  -->
<svg version="1.1" id="Layer_1" xmlns="http://www.w3.org/2000/svg" xmlns:xlink="http://www.w3.org/1999/xlink" x="0px" y="0px"
	 viewBox="0 0 296.8 424.5" style="enable-background:new 0 0 296.8 424.5;" xml:space="preserve">
<style type="text/css">
	.st0{fill:none;stroke:#FFF830;stroke-width:3;stroke-miterlimit:10;}
	.st1{fill:none;stroke:#FFF830;stroke-width:3;stroke-miterlimit:10;stroke-dasharray:8.0243,8.0243;}
	.st2{fill:none;stroke:#FFF830;stroke-width:3;stroke-miterlimit:10;stroke-dasharray:7.9611,7.9611;}
	.st3{fill:#FFF830;}
	.st4{font-family:'MyriadPro-Regular';}
	.st5{font-size:72px;}
</style>
<g>
	<g>
		<path class="st0" d="M253.9,160.2c-0.4-1.3-0.7-2.6-1.1-3.8c0.9-0.8,1.6-2,1.9-3.4"/>
		<path class="st1" d="M254.3,145c-0.8-5.9-2.2-11.8-4.7-17.3c-9.3-20.5-25.4-33.3-46.2-40.5c-15.2-5.2-30.8-6.4-46.7-4.4
			c-19.2,2.4-36.4,8.1-51.8,19.9c-2.2,1.8-4.4,3.7-6.4,5.8c-4.9,5.2-9.9,10.4-14.5,15.9c-2.8,3.2-5.5,6.7-7.9,10.3
			c-2.9,4.5-5.5,9.1-7.8,13.9c-1.8,4-4.9,9.4-7.3,18.5c-1.8,5-3.3,10-3.7,15.3c-0.4,5.1-1.3,10.3,0.9,15.3
			c3.5,8.1,7.7,12.6,16.6,17.9c6.2,3.7,12.7,6.8,19.4,9.5c13.4,5.2,26.8,10.2,40.2,15.2c2.3,0.9,3,1.9,2.3,4.3c-0.9,3-2,5.9-4.2,8.2
			c-4,4.3-8,8.5-12.1,12.7c-4.3,4.3-8.2,9-11.9,13.8c-9,12.2-14.6,25.9-18.8,40.4c-2.8,9.9-5.2,19.9-5.8,30.3
			c-0.2,3.3,1,5.9,3.5,8.2c2.9,2.9,7,4.2,11.1,3.4c3.2-0.5,4.8,0,5.3,3.4c0.2,2,1.7,3.7,3.8,4c1.8,0.2,3.6-1,4.6-2.5
			c0.7-1.1,1.3-2.4,1.7-3.7c0.6-2.4,2.1-2.6,4.2-2.6c10.4-0.1,20.9,0.7,31.1,2.6c2.2,0.4,3.1,0.9,3.1,3.3c0.1,2.9,1.6,5.4,4.5,6.3
			c3,0.9,4.2-1.6,5.2-3.5c1.4-2.5,3.3-3.2,6.1-3.3c2.9-0.1,6.2,0.1,7.8-3.2c1.7-3.4,2.3-7.3,1.7-11.1c-1.3-9.9-4-19.5-6.4-29.2
			c-1.3-5.2-2.9-10.3-4.2-15.5"/>
		<path class="st0" d="M166,302.9c-0.3-1.3-0.5-2.6-0.8-3.9c1.2,0.5,2.4,1.2,3.5,2"/>
		<path class="st2" d="M175.3,305.4c2.5,1.4,5.2,1.9,7.9,0.4c2.9-1.6,4.2-4.4,4.2-7.8c0-5.3-2.8-7.1-7.5-4.8
			c-1.9,0.9-3.6,1.4-5.6,0.3c-3.3-1.7-6.6-3.3-9.8-5c-2.6-1.3-4.4-3.7-5-6.5c-2.2-9.2-3.8-18.4-3.2-27.9c0.4-6.7-0.7-6.1,5.9-4.4
			c21.7,5.7,43.7,6.9,65.9,6.4c6.3-0.1,12.1-2.2,16-7.4c8.7-11.8,14.1-25.2,14.9-39.8c1-15.1-0.3-30.2-4-44.9"/>
	</g>
</g>
<text transform="matrix(1 0 0 1 148.4 212.25)" class="st3 st4 st5">?</text>
</svg>
