<svg width="315" height="321" viewBox="0 0 315 321" fill="none" xmlns="http://www.w3.org/2000/svg">
<g clip-path="url(#clip0_2712_4206)">
<g style="mix-blend-mode:lighten">
<path d="M224.54 209.725C202.063 241.403 158.163 248.861 126.485 226.385C94.8075 203.908 87.3485 160.008 109.825 128.33C132.302 96.6526 176.202 89.1937 207.88 111.67C239.557 134.147 247.016 178.047 224.54 209.725Z" stroke="#39ACFF" stroke-width="8"/>
</g>
<g style="mix-blend-mode:lighten">
<path d="M111.901 232.17C112.432 233.002 112.718 233.895 112.758 234.85C112.785 235.783 112.579 236.674 112.14 237.523C111.702 238.373 111.067 239.063 110.236 239.594L108.618 240.628L106.034 236.583L107.517 235.635C107.697 235.521 107.807 235.371 107.847 235.187C107.888 235.003 107.851 234.821 107.736 234.641L98.2176 219.742C98.1027 219.562 97.9532 219.452 97.7691 219.411C97.5706 219.348 97.3814 219.374 97.2017 219.489L92.3814 222.569C92.2241 222.669 92.1323 222.823 92.1061 223.029C92.043 223.228 92.0689 223.417 92.1838 223.597L101.788 238.631C102.319 239.462 102.605 240.355 102.646 241.31C102.672 242.243 102.477 243.127 102.062 243.962C101.623 244.812 100.989 245.502 100.157 246.033L95.0671 249.285C94.2356 249.816 93.3424 250.102 92.3873 250.143C91.4322 250.183 90.5371 249.996 89.7019 249.58C88.8524 249.142 88.162 248.507 87.6308 247.675L77.9186 232.473C77.3874 231.641 77.1087 230.759 77.0825 229.827C77.042 228.872 77.2408 227.969 77.679 227.12C78.1029 226.248 78.7306 225.546 79.562 225.015L81.18 223.981L83.7857 228.06L82.3026 229.008C82.1228 229.122 82.0198 229.283 81.9936 229.49C81.953 229.674 81.9901 229.856 82.105 230.036L91.6234 244.935C91.7382 245.115 91.8877 245.225 92.0719 245.265C92.256 245.306 92.438 245.269 92.6178 245.154L97.438 242.074C97.5953 241.974 97.7055 241.824 97.7686 241.626C97.8092 241.442 97.772 241.26 97.6572 241.08L88.0311 226.012C87.4999 225.181 87.2212 224.299 87.195 223.366C87.1545 222.411 87.3533 221.509 87.7915 220.659C88.1929 219.802 88.8093 219.107 89.6408 218.576L94.7308 215.324C95.5623 214.793 96.4627 214.519 97.4321 214.5C98.3872 214.46 99.2895 214.659 100.139 215.097C100.974 215.513 101.657 216.136 102.189 216.968L111.901 232.17Z" fill="#39ACFF"/>
</g>
<g style="mix-blend-mode:lighten">
<path d="M95.1158 206.149C95.4681 207.071 95.5675 208.004 95.4143 208.947C95.2266 209.875 94.8448 210.706 94.2688 211.44C93.6929 212.174 92.9441 212.717 92.0224 213.07L68.5949 222.023L66.8957 217.576L73.6587 214.992L70.3458 206.323L74.7922 204.624L78.105 213.293L90.1737 208.68C90.373 208.604 90.5236 208.475 90.6254 208.294C90.6929 208.097 90.6885 207.898 90.6123 207.699L87.5708 199.741L92.0172 198.041L95.1158 206.149Z" fill="#39ACFF"/>
</g>
<g style="mix-blend-mode:lighten">
<path d="M87.5989 191.284C87.6465 192.269 87.4506 193.187 87.011 194.036C86.5435 194.859 85.9218 195.53 85.1459 196.048C84.37 196.566 83.4893 196.849 82.5038 196.896L73.8739 197.313L72.9666 178.535L69.2909 178.713C69.0778 178.723 68.9086 178.811 68.7831 178.978C68.6297 179.118 68.5582 179.295 68.5685 179.509L69.439 197.528L64.6846 197.757L63.8063 179.578C63.7574 178.566 63.9667 177.648 64.4342 176.825C64.875 176.003 65.4834 175.333 66.2593 174.815C67.0352 174.296 67.9159 174.014 68.9014 173.966L86.7206 173.105L87.5989 191.284ZM82.8367 191.354L82.1959 178.089L77.3216 178.325L77.9991 192.348L82.1143 192.15C82.3274 192.139 82.5106 192.064 82.664 191.923C82.7894 191.757 82.847 191.567 82.8367 191.354Z" fill="#39ACFF"/>
</g>
<g style="mix-blend-mode:lighten">
<path d="M84.788 170.708L67.2719 167.324C66.3031 167.137 65.4715 166.732 64.7771 166.109C64.0878 165.459 63.5833 164.696 63.2638 163.82C62.9231 162.912 62.8439 161.987 63.026 161.044L65.4769 148.359L70.1504 149.262L67.7299 161.79C67.6894 162 67.7326 162.198 67.8593 162.386C67.9649 162.542 68.1225 162.64 68.3319 162.681L85.6909 166.034L84.788 170.708Z" fill="#39ACFF"/>
</g>
<g style="mix-blend-mode:lighten">
<path d="M89.4505 146.007C89.068 146.917 88.4953 147.659 87.7324 148.235C86.9552 148.776 86.1049 149.113 85.1814 149.245C84.2578 149.378 83.3413 149.253 82.4318 148.87L59.313 139.148L61.1583 134.76L67.8321 137.566L71.4296 129.012L75.8174 130.857L72.2199 139.412L84.1296 144.42C84.3262 144.503 84.5242 144.514 84.7233 144.453C84.9083 144.357 85.0421 144.211 85.1248 144.014L88.4276 136.161L92.8154 138.006L89.4505 146.007Z" fill="#39ACFF"/>
</g>
<g style="mix-blend-mode:lighten">
<path d="M103.213 117.641L87.6995 99.3808L78.5543 107.15L75.4206 103.462L97.3692 84.8149L100.503 88.5035L91.3576 96.273L106.871 114.533L103.213 117.641Z" fill="#39ACFF"/>
</g>
<g style="mix-blend-mode:lighten">
<path d="M114.868 103.62L102.93 75.2281L107.317 73.383L110.263 80.3888L122.69 75.1637C123.574 74.7916 124.484 74.684 125.418 74.8409C126.366 74.963 127.216 75.2997 127.969 75.8511C128.721 76.4025 129.289 77.133 129.671 78.0425L136.586 94.4877L132.199 96.3328L125.345 80.035C125.263 79.8384 125.122 79.7096 124.923 79.6487C124.738 79.5529 124.559 79.5412 124.387 79.6136L112.809 84.4821C112.637 84.5544 112.508 84.6954 112.423 84.9049C112.327 85.0898 112.32 85.2806 112.403 85.4773L119.256 101.775L114.868 103.62Z" fill="#39ACFF"/>
</g>
<g style="mix-blend-mode:lighten">
<path d="M142.35 90.2164C141.366 90.2963 140.456 90.1294 139.62 89.7157C138.782 89.2755 138.078 88.6772 137.508 87.9209C136.965 87.1624 136.653 86.2914 136.573 85.308L135.563 72.8689C135.483 71.8855 135.65 70.9757 136.063 70.1394C136.504 69.301 137.103 68.6102 137.862 68.0671C138.618 67.4973 139.488 67.1724 140.471 67.0926L153.269 66.053C154.279 65.9709 155.203 66.15 156.042 66.5903C156.878 67.0039 157.568 67.59 158.111 68.3485C158.654 69.107 158.966 69.978 159.045 70.9614L159.745 79.5731L141.007 81.0952L141.305 84.7631C141.322 84.9757 141.403 85.1564 141.549 85.3051C141.72 85.425 141.911 85.4763 142.124 85.4591L160.104 83.9985L160.49 88.7429L142.35 90.2164ZM140.654 76.7495L154.648 75.6128L154.314 71.5063C154.297 71.2937 154.203 71.1274 154.033 71.0074C153.887 70.8588 153.708 70.793 153.495 70.8103L141.016 71.824C140.803 71.8413 140.624 71.9361 140.477 72.1085C140.355 72.2522 140.303 72.4304 140.32 72.643L140.654 76.7495Z" fill="#39ACFF"/>
</g>
<g style="mix-blend-mode:lighten">
<path d="M178.722 85.9113C177.822 85.5081 177.092 84.9185 176.534 84.1426C175.976 83.3667 175.646 82.5034 175.546 81.5528C175.446 80.6021 175.597 79.6766 176 78.776L183.356 62.3477C183.76 61.4472 184.349 60.7177 185.125 60.1594C185.901 59.6011 186.764 59.2718 187.715 59.1715C188.666 59.0712 189.591 59.2227 190.492 59.6259L206.92 66.9818C207.82 67.385 208.538 67.9691 209.072 68.7341C209.63 69.5101 209.959 70.3733 210.06 71.324C210.184 72.2855 210.045 73.2166 209.642 74.1171L208.841 75.9059L204.423 73.928L205.159 72.2852C205.246 72.0905 205.244 71.8996 205.152 71.7125C205.085 71.5363 204.966 71.4101 204.796 71.3338L188.623 64.0924C188.453 64.0161 188.267 64.0061 188.067 64.0624C187.891 64.1296 187.759 64.2606 187.672 64.4553L180.447 80.5916C180.36 80.7863 180.35 80.9717 180.417 81.1479C180.508 81.335 180.639 81.4667 180.81 81.5429L196.982 88.7844C197.153 88.8607 197.326 88.8652 197.502 88.798C197.703 88.7417 197.847 88.6162 197.934 88.4215L200.239 83.2739L194.178 80.5604L196.156 76.143L206.634 80.8344L202.286 90.5454C201.883 91.446 201.281 92.1699 200.481 92.7174C199.705 93.2757 198.841 93.605 197.891 93.7053C196.965 93.8164 196.051 93.6704 195.151 93.2672L178.722 85.9113Z" fill="#39ACFF"/>
</g>
<g style="mix-blend-mode:lighten">
<path d="M208.132 97.3062C207.404 96.6406 206.896 95.8518 206.61 94.9398C206.361 94.0261 206.329 93.1121 206.515 92.1977C206.7 91.2834 207.126 90.462 207.791 89.7337L213.62 83.3558L227.498 96.0382L229.98 93.3216C230.124 93.1641 230.182 92.9822 230.154 92.7759C230.163 92.5678 230.089 92.3918 229.932 92.2479L216.615 80.0782L219.826 76.5644L233.261 88.8421C234.009 89.5257 234.507 90.3243 234.756 91.238C235.023 92.132 235.064 93.0362 234.878 93.9505C234.693 94.8649 234.267 95.6862 233.602 96.4146L221.567 109.584L208.132 97.3062ZM211.461 93.9004L221.264 102.859L224.556 99.2567L214.192 89.7853L211.413 92.8267C211.269 92.9841 211.192 93.1669 211.183 93.375C211.211 93.5813 211.304 93.7565 211.461 93.9004Z" fill="#39ACFF"/>
</g>
<g style="mix-blend-mode:lighten">
<path d="M229.751 107.764L251.361 99.3235L261.984 126.522C262.353 127.466 262.447 128.403 262.266 129.333C262.11 130.252 261.747 131.081 261.176 131.819C260.606 132.558 259.861 133.106 258.942 133.465L242.324 139.956L240.593 135.522L257.061 129.09C257.26 129.012 257.392 128.874 257.458 128.677C257.559 128.494 257.57 128.304 257.492 128.105L254.364 120.095C254.296 119.921 254.158 119.788 253.951 119.697C253.778 119.622 253.592 119.623 253.394 119.7L236.925 126.133L235.164 121.624L251.633 115.192C251.832 115.114 251.969 114.989 252.044 114.817C252.145 114.634 252.156 114.444 252.079 114.245L248.935 106.197C248.867 106.023 248.73 105.891 248.523 105.8C248.35 105.724 248.164 105.725 247.966 105.803L231.497 112.235L229.751 107.764Z" fill="#39ACFF"/>
</g>
<g style="mix-blend-mode:lighten">
<path d="M246.613 146.418C246.558 145.433 246.748 144.528 247.183 143.702C247.644 142.876 248.261 142.187 249.031 141.637C249.803 141.113 250.682 140.824 251.667 140.769L264.128 140.076C265.113 140.021 266.018 140.211 266.844 140.646C267.671 141.107 268.346 141.724 268.87 142.496C269.42 143.267 269.722 144.145 269.777 145.13L270.49 157.95C270.547 158.962 270.344 159.881 269.882 160.708C269.448 161.533 268.844 162.208 268.072 162.732C267.3 163.255 266.421 163.545 265.436 163.599L256.81 164.079L255.765 145.308L252.091 145.513C251.878 145.524 251.695 145.601 251.543 145.743C251.419 145.911 251.363 146.101 251.375 146.314L252.376 164.326L247.624 164.59L246.613 146.418ZM260.119 145.066L260.898 159.084L265.012 158.856C265.225 158.844 265.394 158.754 265.518 158.587C265.67 158.445 265.741 158.268 265.729 158.055L265.033 145.554C265.022 145.341 264.931 145.159 264.763 145.008C264.622 144.882 264.445 144.825 264.232 144.837L260.119 145.066Z" fill="#39ACFF"/>
</g>
<g style="mix-blend-mode:lighten">
<path d="M228.389 208.897C205.913 240.575 162.012 248.033 130.335 225.557C98.6571 203.08 91.1981 159.18 113.675 127.502C136.151 95.8246 180.052 88.3657 211.729 110.842C243.407 133.319 250.866 177.219 228.389 208.897Z" stroke="#FF2784" stroke-width="8"/>
</g>
<g style="mix-blend-mode:lighten">
<path d="M115.75 231.342C116.282 232.174 116.567 233.067 116.608 234.022C116.634 234.955 116.428 235.846 115.99 236.695C115.552 237.545 114.917 238.235 114.085 238.766L112.467 239.8L109.883 235.755L111.366 234.807C111.546 234.693 111.656 234.543 111.697 234.359C111.738 234.175 111.7 233.993 111.586 233.813L102.067 218.914C101.952 218.734 101.803 218.624 101.619 218.583C101.42 218.52 101.231 218.546 101.051 218.661L96.231 221.741C96.0737 221.841 95.9819 221.995 95.9557 222.201C95.8926 222.4 95.9185 222.589 96.0334 222.769L105.638 237.803C106.169 238.634 106.455 239.527 106.496 240.482C106.522 241.415 106.327 242.299 105.911 243.134C105.473 243.984 104.838 244.674 104.007 245.205L98.9167 248.457C98.0852 248.988 97.192 249.274 96.2369 249.315C95.2819 249.355 94.3867 249.168 93.5515 248.752C92.702 248.314 92.0116 247.679 91.4804 246.847L81.7682 231.645C81.237 230.813 80.9583 229.931 80.9321 228.999C80.8916 228.044 81.0904 227.141 81.5286 226.292C81.9525 225.42 82.5802 224.718 83.4116 224.187L85.0296 223.153L87.6354 227.232L86.1522 228.18C85.9724 228.294 85.8694 228.455 85.8432 228.662C85.8026 228.846 85.8397 229.028 85.9546 229.208L95.473 244.107C95.5878 244.287 95.7373 244.397 95.9215 244.437C96.1056 244.478 96.2876 244.441 96.4674 244.326L101.288 241.246C101.445 241.146 101.555 240.996 101.618 240.798C101.659 240.614 101.622 240.432 101.507 240.252L91.8807 225.184C91.3495 224.353 91.0708 223.471 91.0446 222.538C91.0041 221.583 91.2029 220.681 91.6411 219.831C92.0425 218.974 92.659 218.279 93.4904 217.748L98.5804 214.496C99.4119 213.965 100.312 213.69 101.282 213.672C102.237 213.632 103.139 213.831 103.989 214.269C104.824 214.685 105.507 215.308 106.038 216.14L115.75 231.342Z" fill="#FF2784"/>
</g>
<g style="mix-blend-mode:lighten">
<path d="M98.9654 205.321C99.3177 206.243 99.4171 207.176 99.2639 208.119C99.0762 209.047 98.6944 209.878 98.1184 210.612C97.5425 211.346 96.7937 211.889 95.872 212.242L72.4445 221.195L70.7453 216.748L77.5083 214.164L74.1955 205.495L78.6418 203.796L81.9546 212.465L94.0233 207.852C94.2226 207.776 94.3732 207.647 94.475 207.466C94.5425 207.269 94.5381 207.07 94.462 206.871L91.4205 198.913L95.8668 197.213L98.9654 205.321Z" fill="#FF2784"/>
</g>
<g style="mix-blend-mode:lighten">
<path d="M91.4485 190.456C91.4961 191.441 91.3002 192.359 90.8606 193.208C90.3931 194.031 89.7715 194.702 88.9956 195.22C88.2196 195.738 87.3389 196.021 86.3534 196.068L77.7235 196.485L76.8163 177.707L73.1405 177.885C72.9275 177.895 72.7582 177.983 72.6327 178.15C72.4793 178.29 72.4078 178.467 72.4181 178.681L73.2887 196.7L68.5342 196.929L67.6559 178.75C67.607 177.738 67.8163 176.82 68.2838 175.997C68.7246 175.175 69.333 174.505 70.1089 173.987C70.8848 173.468 71.7655 173.186 72.751 173.138L90.5702 172.277L91.4485 190.456ZM86.6863 190.526L86.0455 177.261L81.1712 177.497L81.8487 191.52L85.9639 191.322C86.177 191.311 86.3602 191.236 86.5136 191.095C86.6391 190.929 86.6966 190.739 86.6863 190.526Z" fill="#FF2784"/>
</g>
<g style="mix-blend-mode:lighten">
<path d="M88.6376 169.88L71.1215 166.496C70.1527 166.309 69.3212 165.904 68.6267 165.281C67.9374 164.631 67.4329 163.868 67.1134 162.992C66.7727 162.084 66.6935 161.159 66.8756 160.216L69.3265 147.531L74 148.434L71.5795 160.962C71.539 161.172 71.5822 161.37 71.7089 161.558C71.8145 161.714 71.9721 161.812 72.1815 161.853L89.5405 165.206L88.6376 169.88Z" fill="#FF2784"/>
</g>
<g style="mix-blend-mode:lighten">
<path d="M93.3001 145.179C92.9177 146.089 92.3449 146.831 91.582 147.407C90.8048 147.948 89.9545 148.285 89.031 148.417C88.1075 148.55 87.1909 148.425 86.2814 148.042L63.1626 138.32L65.0079 133.932L71.6817 136.738L75.2792 128.184L79.667 130.029L76.0695 138.584L87.9792 143.592C88.1758 143.675 88.3738 143.686 88.5729 143.625C88.7579 143.529 88.8917 143.383 88.9744 143.186L92.2773 135.333L96.665 137.178L93.3001 145.179Z" fill="#FF2784"/>
</g>
<g style="mix-blend-mode:lighten">
<path d="M107.062 116.813L91.5492 98.5528L82.4039 106.322L79.2702 102.634L101.219 83.9869L104.352 87.6755L95.2072 95.445L110.72 113.705L107.062 116.813Z" fill="#FF2784"/>
</g>
<g style="mix-blend-mode:lighten">
<path d="M118.718 102.792L106.779 74.4001L111.167 72.555L114.113 79.5608L126.539 74.3357C127.424 73.9636 128.333 73.856 129.267 74.0129C130.215 74.135 131.066 74.4717 131.818 75.0231C132.571 75.5745 133.138 76.3049 133.521 77.2145L140.436 93.6597L136.048 95.5048L129.195 79.207C129.112 79.0104 128.971 78.8816 128.772 78.8207C128.587 78.7249 128.409 78.7132 128.237 78.7855L116.659 83.6541C116.487 83.7264 116.358 83.8674 116.272 84.0769C116.177 84.2618 116.17 84.4526 116.253 84.6492L123.106 100.947L118.718 102.792Z" fill="#FF2784"/>
</g>
<g style="mix-blend-mode:lighten">
<path d="M146.199 89.3884C145.216 89.4683 144.306 89.3014 143.47 88.8877C142.631 88.4475 141.927 87.8492 141.357 87.0929C140.814 86.3344 140.503 85.4634 140.423 84.48L139.412 72.0409C139.333 71.0575 139.499 70.1477 139.913 69.3114C140.353 68.473 140.953 67.7822 141.711 67.239C142.468 66.6693 143.337 66.3444 144.321 66.2646L157.119 65.225C158.129 65.1429 159.053 65.322 159.891 65.7623C160.728 66.1759 161.417 66.762 161.96 67.5205C162.504 68.279 162.815 69.15 162.895 70.1334L163.595 78.7451L144.856 80.2672L145.154 83.9351C145.172 84.1477 145.253 84.3284 145.399 84.4771C145.569 84.597 145.761 84.6483 145.973 84.6311L163.954 83.1705L164.339 87.9149L146.199 89.3884ZM144.503 75.9215L158.497 74.7848L158.164 70.6783C158.146 70.4657 158.053 70.2994 157.882 70.1794C157.737 70.0307 157.557 69.965 157.345 69.9823L144.866 70.996C144.653 71.0133 144.474 71.1081 144.327 71.2805C144.205 71.4242 144.152 71.6024 144.17 71.815L144.503 75.9215Z" fill="#FF2784"/>
</g>
<g style="mix-blend-mode:lighten">
<path d="M182.572 85.0833C181.671 84.6801 180.942 84.0905 180.384 83.3146C179.825 82.5387 179.496 81.6754 179.396 80.7248C179.295 79.7741 179.447 78.8486 179.85 77.948L187.206 61.5197C187.609 60.6192 188.199 59.8897 188.975 59.3314C189.751 58.7731 190.614 58.4438 191.564 58.3435C192.515 58.2432 193.441 58.3947 194.341 58.7979L210.77 66.1538C211.67 66.557 212.387 67.1411 212.921 67.9061C213.48 68.6821 213.809 69.5453 213.909 70.496C214.034 71.4575 213.895 72.3885 213.491 73.2891L212.69 75.0779L208.273 73.1L209.009 71.4572C209.096 71.2625 209.094 71.0716 209.002 70.8845C208.935 70.7083 208.816 70.5821 208.646 70.5058L192.473 63.2644C192.302 63.1881 192.117 63.1781 191.917 63.2344C191.74 63.3016 191.609 63.4326 191.521 63.6273L184.296 79.7636C184.209 79.9583 184.199 80.1437 184.266 80.3199C184.358 80.507 184.489 80.6387 184.659 80.7149L200.832 87.9564C201.002 88.0327 201.176 88.0372 201.352 87.97C201.552 87.9137 201.696 87.7882 201.783 87.5935L204.088 82.4459L198.028 79.7324L200.006 75.315L210.484 80.0064L206.135 89.7174C205.732 90.618 205.131 91.3419 204.33 91.8894C203.554 92.4477 202.691 92.777 201.74 92.8773C200.814 92.9884 199.901 92.8424 199 92.4392L182.572 85.0833Z" fill="#FF2784"/>
</g>
<g style="mix-blend-mode:lighten">
<path d="M211.982 96.4782C211.253 95.8126 210.746 95.0238 210.459 94.1118C210.211 93.1981 210.179 92.2841 210.364 91.3697C210.55 90.4554 210.975 89.634 211.641 88.9057L217.469 82.5278L231.347 95.2102L233.83 92.4936C233.974 92.3361 234.032 92.1542 234.003 91.9479C234.013 91.7398 233.939 91.5638 233.781 91.4199L220.464 79.2502L223.676 75.7364L237.111 88.0141C237.859 88.6977 238.357 89.4963 238.606 90.41C238.873 91.304 238.913 92.2082 238.728 93.1225C238.543 94.0369 238.117 94.8582 237.451 95.5866L225.417 108.756L211.982 96.4782ZM215.311 93.0724L225.114 102.031L228.406 98.4286L218.042 88.9573L215.262 91.9987C215.119 92.1561 215.042 92.3389 215.032 92.547C215.061 92.7533 215.153 92.9285 215.311 93.0724Z" fill="#FF2784"/>
</g>
<g style="mix-blend-mode:lighten">
<path d="M233.6 106.936L255.211 98.4955L265.834 125.694C266.203 126.638 266.297 127.575 266.116 128.505C265.96 129.424 265.596 130.253 265.026 130.991C264.455 131.73 263.71 132.278 262.791 132.637L246.174 139.128L244.442 134.694L260.911 128.262C261.109 128.184 261.242 128.046 261.308 127.849C261.408 127.666 261.42 127.476 261.342 127.277L258.213 119.267C258.145 119.093 258.008 118.96 257.8 118.869C257.628 118.794 257.442 118.795 257.243 118.872L240.775 125.305L239.014 120.796L255.482 114.364C255.681 114.286 255.818 114.161 255.894 113.989C255.995 113.806 256.006 113.616 255.928 113.417L252.785 105.369C252.717 105.195 252.58 105.063 252.372 104.972C252.2 104.896 252.014 104.897 251.815 104.975L235.347 111.407L233.6 106.936Z" fill="#FF2784"/>
</g>
<g style="mix-blend-mode:lighten">
<path d="M250.463 145.59C250.408 144.605 250.598 143.7 251.033 142.874C251.494 142.048 252.11 141.359 252.881 140.809C253.653 140.285 254.532 139.996 255.517 139.941L267.977 139.248C268.963 139.193 269.868 139.383 270.693 139.818C271.52 140.279 272.195 140.896 272.719 141.668C273.269 142.439 273.572 143.317 273.627 144.302L274.34 157.122C274.396 158.134 274.194 159.053 273.732 159.88C273.297 160.705 272.694 161.38 271.922 161.904C271.15 162.427 270.271 162.717 269.286 162.771L260.659 163.251L259.615 144.48L255.941 144.685C255.728 144.696 255.545 144.773 255.393 144.915C255.268 145.083 255.212 145.273 255.224 145.486L256.226 163.498L251.473 163.762L250.463 145.59ZM263.968 144.238L264.748 158.256L268.862 158.028C269.075 158.016 269.243 157.926 269.368 157.759C269.52 157.617 269.59 157.44 269.578 157.227L268.883 144.726C268.871 144.513 268.781 144.331 268.612 144.18C268.472 144.054 268.295 143.997 268.082 144.009L263.968 144.238Z" fill="#FF2784"/>
</g>
<g style="mix-blend-mode:lighten">
<path d="M225.316 207.17C202.84 238.847 158.939 246.306 127.261 223.83C95.5838 201.353 88.1249 157.452 110.601 125.775C133.078 94.0973 176.979 86.6383 208.656 109.115C240.334 131.591 247.793 175.492 225.316 207.17Z" stroke="#13FFDA" stroke-width="8"/>
</g>
<g style="mix-blend-mode:lighten">
<path d="M112.677 229.615C113.208 230.446 113.494 231.34 113.535 232.295C113.561 233.227 113.355 234.118 112.917 234.968C112.479 235.817 111.844 236.508 111.012 237.039L109.394 238.073L106.81 234.028L108.293 233.08C108.473 232.965 108.583 232.816 108.624 232.632C108.664 232.447 108.627 232.266 108.512 232.086L98.9939 217.187C98.8791 217.007 98.7296 216.897 98.5454 216.856C98.3469 216.793 98.1578 216.819 97.978 216.934L93.1577 220.013C93.0004 220.114 92.9087 220.267 92.8824 220.474C92.8194 220.672 92.8453 220.862 92.9601 221.041L102.565 236.075C103.096 236.907 103.382 237.8 103.422 238.755C103.448 239.688 103.254 240.572 102.838 241.407C102.4 242.256 101.765 242.947 100.933 243.478L95.8435 246.73C95.012 247.261 94.1187 247.547 93.1637 247.587C92.2086 247.628 91.3135 247.44 90.4783 247.024C89.6287 246.586 88.9384 245.951 88.4072 245.12L78.695 229.917C78.1638 229.086 77.8851 228.204 77.8589 227.271C77.8183 226.316 78.0172 225.414 78.4554 224.564C78.8793 223.692 79.5069 222.991 80.3384 222.46L81.9564 221.426L84.5621 225.505L83.0789 226.452C82.8992 226.567 82.7962 226.728 82.7699 226.934C82.7294 227.119 82.7665 227.301 82.8814 227.48L92.3997 242.379C92.5146 242.559 92.6641 242.669 92.8482 242.71C93.0324 242.75 93.2143 242.713 93.3941 242.599L98.2144 239.519C98.3717 239.419 98.4819 239.269 98.5449 239.071C98.5855 238.886 98.5484 238.704 98.4335 238.525L88.8075 223.457C88.2763 222.626 87.9976 221.744 87.9714 220.811C87.9308 219.856 88.1297 218.954 88.5679 218.104C88.9693 217.246 89.5857 216.552 90.4172 216.021L95.5071 212.769C96.3386 212.238 97.2391 211.963 98.2085 211.945C99.1635 211.905 100.066 212.103 100.915 212.542C101.751 212.957 102.434 213.581 102.965 214.412L112.677 229.615Z" fill="#13FFDA"/>
</g>
<g style="mix-blend-mode:lighten">
<path d="M95.8922 203.594C96.2444 204.516 96.3439 205.448 96.1906 206.392C96.0029 207.32 95.6211 208.151 95.0452 208.885C94.4693 209.619 93.7205 210.162 92.7988 210.514L69.3713 219.467L67.6721 215.021L74.435 212.437L71.1222 203.768L75.5686 202.069L78.8814 210.737L90.9501 206.125C91.1494 206.049 91.2999 205.92 91.4018 205.738C91.4692 205.541 91.4649 205.343 91.3887 205.144L88.3472 197.185L92.7936 195.486L95.8922 203.594Z" fill="#13FFDA"/>
</g>
<g style="mix-blend-mode:lighten">
<path d="M88.3753 188.729C88.4229 189.714 88.2269 190.631 87.7874 191.48C87.3199 192.304 86.6982 192.974 85.9223 193.493C85.1464 194.011 84.2657 194.293 83.2802 194.341L74.6502 194.758L73.743 175.98L70.0673 176.157C69.8542 176.168 69.6849 176.256 69.5595 176.422C69.4061 176.563 69.3346 176.74 69.3449 176.953L70.2154 194.972L65.461 195.202L64.5827 177.023C64.5338 176.011 64.7431 175.093 65.2105 174.27C65.6514 173.447 66.2597 172.777 67.0356 172.259C67.8116 171.741 68.6923 171.458 69.6778 171.411L87.497 170.55L88.3753 188.729ZM83.6131 188.798L82.9722 175.534L78.0979 175.769L78.7755 189.793L82.8907 189.594C83.1037 189.584 83.287 189.508 83.4404 189.367C83.5658 189.201 83.6234 189.012 83.6131 188.798Z" fill="#13FFDA"/>
</g>
<g style="mix-blend-mode:lighten">
<path d="M85.5643 168.153L68.0482 164.769C67.0795 164.581 66.2479 164.176 65.5535 163.553C64.8641 162.904 64.3597 162.141 64.0402 161.265C63.6995 160.357 63.6202 159.432 63.8023 158.489L66.2532 145.804L70.9268 146.707L68.5063 159.235C68.4658 159.444 68.5089 159.643 68.6357 159.83C68.7413 159.986 68.8988 160.085 69.1083 160.125L86.4673 163.479L85.5643 168.153Z" fill="#13FFDA"/>
</g>
<g style="mix-blend-mode:lighten">
<path d="M90.2269 143.452C89.8444 144.361 89.2717 145.104 88.5088 145.68C87.7316 146.221 86.8812 146.558 85.9577 146.69C85.0342 146.822 84.1177 146.697 83.2082 146.315L60.0894 136.592L61.9346 132.204L68.6085 135.011L72.206 126.457L76.5937 128.302L72.9963 136.856L84.906 141.865C85.1026 141.948 85.3005 141.958 85.4997 141.898C85.6846 141.802 85.8184 141.656 85.9011 141.459L89.204 133.605L93.5918 135.45L90.2269 143.452Z" fill="#13FFDA"/>
</g>
<g style="mix-blend-mode:lighten">
<path d="M103.989 115.085L88.4759 96.8254L79.3307 104.595L76.197 100.906L98.1455 82.2595L101.279 85.9481L92.134 93.7176L107.647 111.978L103.989 115.085Z" fill="#13FFDA"/>
</g>
<g style="mix-blend-mode:lighten">
<path d="M115.645 101.065L103.706 72.6727L108.094 70.8276L111.04 77.8335L123.466 72.6083C124.351 72.2362 125.26 72.1286 126.194 72.2856C127.142 72.4076 127.993 72.7443 128.745 73.2957C129.498 73.8471 130.065 74.5776 130.448 75.4871L137.363 91.9324L132.975 93.7774L126.122 77.4797C126.039 77.283 125.898 77.1543 125.699 77.0934C125.514 76.9976 125.336 76.9858 125.163 77.0582L113.585 81.9267C113.413 81.9991 113.285 82.14 113.199 82.3495C113.103 82.5344 113.097 82.7252 113.179 82.9219L120.033 99.2196L115.645 101.065Z" fill="#13FFDA"/>
</g>
<g style="mix-blend-mode:lighten">
<path d="M143.126 87.661C142.143 87.7409 141.233 87.574 140.396 87.1604C139.558 86.7202 138.854 86.1219 138.284 85.3655C137.741 84.607 137.429 83.736 137.35 82.7526L136.339 70.3136C136.259 69.3301 136.426 68.4203 136.84 67.5841C137.28 66.7457 137.879 66.0549 138.638 65.5117C139.394 64.9419 140.264 64.6171 141.248 64.5372L154.045 63.4976C155.055 63.4156 155.98 63.5947 156.818 64.0349C157.654 64.4486 158.344 65.0347 158.887 65.7932C159.43 66.5517 159.742 67.4226 159.822 68.4061L160.521 77.0177L141.783 78.5398L142.081 82.2077C142.098 82.4204 142.18 82.601 142.326 82.7497C142.496 82.8697 142.687 82.921 142.9 82.9037L160.881 81.4431L161.266 86.1875L143.126 87.661ZM141.43 74.1941L155.424 73.0574L155.09 68.9509C155.073 68.7383 154.979 68.572 154.809 68.4521C154.663 68.3034 154.484 68.2377 154.271 68.255L141.792 69.2686C141.58 69.2859 141.4 69.3807 141.254 69.5532C141.132 69.6969 141.079 69.875 141.097 70.0877L141.43 74.1941Z" fill="#13FFDA"/>
</g>
<g style="mix-blend-mode:lighten">
<path d="M179.499 83.356C178.598 82.9527 177.869 82.3632 177.31 81.5873C176.752 80.8113 176.423 79.9481 176.322 78.9974C176.222 78.0468 176.374 77.1212 176.777 76.2207L184.133 59.7923C184.536 58.8918 185.125 58.1624 185.901 57.604C186.677 57.0457 187.541 56.7164 188.491 56.6161C189.442 56.5159 190.367 56.6674 191.268 57.0706L207.696 64.4264C208.597 64.8297 209.314 65.4138 209.848 66.1788C210.406 66.9547 210.736 67.818 210.836 68.7686C210.961 69.7302 210.821 70.6612 210.418 71.5617L209.617 73.3506L205.2 71.3727L205.935 69.7298C206.022 69.5351 206.02 69.3442 205.929 69.1572C205.862 68.981 205.743 68.8547 205.572 68.7785L189.4 61.537C189.229 61.4607 189.044 61.4507 188.843 61.507C188.667 61.5742 188.535 61.7052 188.448 61.8999L181.223 78.0362C181.136 78.2309 181.126 78.4164 181.193 78.5925C181.285 78.7796 181.416 78.9113 181.586 78.9876L197.759 86.229C197.929 86.3053 198.102 86.3099 198.279 86.2427C198.479 86.1863 198.623 86.0608 198.71 85.8661L201.015 80.7186L194.955 78.0051L196.933 73.5877L207.41 78.2791L203.062 87.9901C202.659 88.8906 202.057 89.6146 201.257 90.162C200.481 90.7203 199.618 91.0496 198.667 91.1499C197.741 91.2611 196.827 91.115 195.927 90.7118L179.499 83.356Z" fill="#13FFDA"/>
</g>
<g style="mix-blend-mode:lighten">
<path d="M208.908 94.7509C208.18 94.0853 207.673 93.2965 207.386 92.3845C207.137 91.4708 207.106 90.5567 207.291 89.6424C207.476 88.728 207.902 87.9067 208.568 87.1783L214.396 80.8004L228.274 93.4828L230.756 90.7663C230.9 90.6088 230.958 90.4269 230.93 90.2205C230.94 90.0124 230.866 89.8365 230.708 89.6925L217.391 77.5228L220.602 74.0091L234.037 86.2867C234.785 86.9703 235.284 87.7689 235.533 88.6826C235.799 89.5766 235.84 90.4808 235.655 91.3952C235.469 92.3095 235.044 93.1309 234.378 93.8592L222.343 107.028L208.908 94.7509ZM212.238 91.345L222.041 100.304L225.333 96.7013L214.969 87.23L212.189 90.2713C212.045 90.4288 211.969 90.6116 211.959 90.8196C211.987 91.026 212.08 91.2011 212.238 91.345Z" fill="#13FFDA"/>
</g>
<g style="mix-blend-mode:lighten">
<path d="M230.527 105.209L252.137 96.7682L262.761 123.967C263.129 124.911 263.223 125.848 263.042 126.777C262.886 127.697 262.523 128.526 261.953 129.264C261.382 130.002 260.637 130.551 259.718 130.91L243.101 137.4L241.369 132.967L257.837 126.534C258.036 126.457 258.168 126.319 258.234 126.121C258.335 125.939 258.346 125.749 258.269 125.55L255.14 117.539C255.072 117.365 254.934 117.233 254.727 117.142C254.555 117.066 254.369 117.067 254.17 117.145L237.702 123.577L235.941 119.069L252.409 112.637C252.608 112.559 252.745 112.434 252.821 112.261C252.921 112.079 252.933 111.888 252.855 111.69L249.712 103.642C249.644 103.468 249.506 103.335 249.299 103.245C249.126 103.169 248.941 103.17 248.742 103.247L232.274 109.68L230.527 105.209Z" fill="#13FFDA"/>
</g>
<g style="mix-blend-mode:lighten">
<path d="M247.389 143.863C247.335 142.878 247.525 141.972 247.959 141.147C248.421 140.32 249.037 139.632 249.808 139.081C250.58 138.558 251.458 138.268 252.443 138.214L264.904 137.52C265.889 137.466 266.795 137.656 267.62 138.09C268.447 138.552 269.122 139.169 269.646 139.941C270.196 140.711 270.499 141.589 270.554 142.575L271.267 155.395C271.323 156.406 271.12 157.326 270.659 158.153C270.224 158.978 269.621 159.653 268.848 160.176C268.076 160.7 267.198 160.989 266.213 161.044L257.586 161.524L256.542 142.753L252.868 142.957C252.655 142.969 252.472 143.046 252.319 143.188C252.195 143.355 252.139 143.545 252.151 143.758L253.153 161.77L248.4 162.035L247.389 143.863ZM260.895 142.511L261.675 156.529L265.788 156.3C266.001 156.288 266.17 156.199 266.294 156.032C266.447 155.89 266.517 155.712 266.505 155.499L265.81 142.999C265.798 142.786 265.708 142.604 265.539 142.453C265.399 142.327 265.222 142.27 265.009 142.282L260.895 142.511Z" fill="#13FFDA"/>
</g>
</g>
<defs>
<clipPath id="clip0_2712_4206">
<rect width="240.334" height="214.184" fill="white" transform="translate(0.306641 196.355) rotate(-54.6428)"/>
</clipPath>
</defs>
</svg>
