<svg width="374" height="696" viewBox="0 0 374 696" fill="none" xmlns="http://www.w3.org/2000/svg">
<path d="M236.523 84.3316C232.051 93.6603 225.134 120.474 255.717 141.643C262.081 146.048 279.919 145.613 286.25 144.725C320.752 139.885 316.464 99.1369 311.406 84.3316C306.348 69.5096 260.256 34.7407 236.523 84.3316Z" fill="#0D3C49"/>
<path d="M310.769 125.097C293.267 138.495 275.614 139.852 259.552 122.367C250.91 112.971 243.792 101.717 240.961 88.5693C240.392 85.9566 240.141 83.5951 241.547 81.2504C245.869 79.0397 247.828 74.6517 250.759 71.1681C252.066 70.3139 253.389 69.4765 254.695 68.6224C278.495 52.9965 309.228 65.9762 313.951 93.9119C315.76 104.463 314.689 114.998 310.769 125.097Z" fill="#33585C"/>
<path d="M265.491 488.112C261.685 496.065 255.788 518.922 281.859 536.98C287.284 540.738 302.494 540.371 307.895 539.603C337.311 535.467 333.659 500.734 329.346 488.1C325.032 475.49 285.735 445.839 265.491 488.112Z" fill="#0D3C49"/>
<path d="M327.951 526.804C321.675 530.35 315.211 534.262 308.108 534.782C300.887 535.313 294.493 531.461 288.619 527.053C284.613 524.051 282.438 519.371 278.219 516.688C278.113 516.286 278.077 515.861 277.9 515.495C271.896 503.121 270.88 490.925 279.094 479.024C279.956 477.771 280.228 476.507 278.952 475.313C286.74 469.96 295.155 467.052 304.681 469.286C318.402 472.5 329.31 484.744 331.438 498.689C332.726 507.115 331.402 515.116 328.625 523.023C328.199 524.216 326.828 525.315 327.951 526.804Z" fill="#335D5F"/>
<path d="M327.951 526.804C326.816 525.315 328.187 524.228 328.613 523.034C331.39 515.128 332.714 507.127 331.425 498.701C329.298 484.755 318.39 472.512 304.668 469.297C295.143 467.064 286.74 469.971 278.94 475.325C277.049 476.518 275.146 477.7 273.255 478.894C272.404 478.504 271.813 477.865 271.458 477.003C280.937 465.965 293.027 462.443 306.855 465.728C321.427 469.179 330.551 478.965 334.451 493.17C337.76 505.212 335.692 516.664 327.951 526.804Z" fill="#57AB91"/>
<path d="M259.787 426.26C252.987 429.76 246.606 429.425 240.577 430.195C210.597 434.081 180.533 437.447 150.536 441.199C124.408 444.465 98.3142 448.015 72.2199 451.449C72.0189 451.482 71.8348 451.532 71.6338 451.516C69.4732 451.298 66.0062 453.056 65.5875 450.042C65.1687 446.943 69.0545 447.479 70.9973 447.228C103.322 443.091 135.68 439.122 168.038 435.17C193.027 432.121 218.033 429.107 243.055 426.193C248.214 425.59 253.439 425.104 259.787 426.26Z" fill="#D5B777"/>
<path d="M192.826 15.2126C191.687 17.9257 189.711 19.2824 187.868 20.6892C168.44 35.5112 149.012 50.3332 129.516 65.0547C117.977 73.7804 106.353 82.3889 94.6794 90.9304C93.2223 92.0023 91.4637 94.8327 89.3366 92.0525C87.5612 89.7246 89.7553 87.9493 91.2627 86.6094C100.474 78.3861 110.691 71.4692 120.539 64.0833C140.872 48.8259 161.205 33.5852 181.571 18.378C183.916 16.6362 186.411 15.0619 188.957 13.6215C190.967 12.4827 192.072 13.722 192.826 15.2126Z" fill="#D5B777"/>
<path d="M263.689 188.522C256.286 193.512 249.168 195.673 242.402 198.52C205.454 214.146 168.557 229.889 131.945 246.286C130.337 247.006 128.176 249.133 126.971 246.47C125.815 243.924 128.964 243.455 130.387 242.752C151.976 231.916 174.335 222.738 196.494 213.175C214.901 205.219 233.525 197.75 252.066 190.113C255.248 188.79 258.497 187.55 263.689 188.522Z" fill="#D5B777"/>
<path d="M295.411 215.787C225.201 242.031 153.969 265.428 83.458 290.852C152.613 261.593 224.364 239.687 295.411 215.787Z" fill="#C5A771"/>
<path d="M206.208 385.864C204.55 388.962 202.775 391.977 202.49 395.628C202.339 397.504 201.15 399.781 199.224 397.905C192.039 390.938 184.133 393.702 176.178 395.444C175.474 395.594 174.687 395.46 174.034 395.46C173.816 394.774 173.498 394.288 173.615 394.07C178.456 386.014 177.501 378.561 171.723 371.326C169.143 368.094 169.847 365.85 174.469 365.984C177.25 371.628 183.246 371.896 188.086 373.973C189.811 374.709 191.486 373.554 191.972 371.46C192.256 370.171 192.156 368.63 194.049 368.446C193.931 373.52 194.986 378.076 199.576 381.124C201.837 382.631 204.014 384.273 206.208 385.864Z" fill="#BF5B26"/>
<path d="M310.77 125.096C314.672 114.997 315.76 104.463 313.968 93.9116C309.229 65.9592 278.495 52.9794 254.712 68.6221C253.406 69.4762 252.082 70.3304 250.776 71.1678C249.436 70.7323 248.582 69.9117 248.582 68.4044C262.065 56.1113 277.44 52.9794 294.088 60.3988C310.686 67.7847 318.625 81.3841 319.144 99.4719C319.345 106.205 318.691 112.736 315.861 118.933C314.705 121.462 313.583 123.974 310.77 125.096Z" fill="#57AB91"/>
<path d="M67.4294 539.878C65.7546 538.924 64.0462 538.003 62.3881 537.014C58.9379 534.938 55.5881 534.67 51.9872 536.847C49.0562 538.605 46.008 540.364 41.3687 540.096C44.6514 532.425 47.0799 525.04 43.144 517.436C44.0819 516.481 44.8356 515.376 46.5774 515.895C53.0759 517.855 58.4186 516.029 62.5723 510.687C63.326 513.651 63.5604 516.85 66.3239 518.893C66.5417 521.774 66.4579 524.688 69.1545 526.765C72.1022 529.026 72.387 537.986 69.7575 541.168L69.8746 541.151C69.3219 540.23 68.4511 539.929 67.4294 539.878Z" fill="#BF5B26"/>
<path d="M215.52 572.838C216.525 576.255 219.942 580.174 217.179 583.072C214.616 585.768 210.63 582.938 207.464 581.598C202.339 579.454 197.985 581.648 193.546 583.725C191.503 584.679 189.275 586.79 187.132 585.065C185.289 583.574 186.562 581.095 187.065 579.035C188.455 573.408 187.433 568.233 183.815 563.644C184.753 562.421 186.06 562.019 187.45 562.488C192.927 564.314 198.47 564.146 204.048 563.225C208.268 565.938 210.06 571.599 215.52 572.838Z" fill="#BF5B26"/>
<path d="M68.4009 664.618C81.9505 665.89 95.2488 668.637 108.631 670.948C128.143 674.315 147.689 677.547 167.167 681.064C172.409 682.019 177.803 682.471 182.81 684.548C183.162 685.268 183.53 685.988 183.882 686.708C172.577 685.05 161.255 683.442 149.95 681.734C124.19 677.849 98.5651 673.293 73.057 668.034C69.6403 667.331 66.2738 666.359 62.8906 665.505C62.8906 664.919 62.9074 664.316 62.9074 663.73C63.7783 663.881 64.6325 664.048 65.5034 664.199C66.4581 664.333 67.4294 664.484 68.4009 664.618Z" fill="#D5B777"/>
<path d="M215.52 572.838C210.06 571.599 208.285 565.938 204.047 563.225C203.98 562.857 203.88 562.488 203.763 562.136C203.796 561.801 203.746 561.466 203.629 561.165C203.294 558.485 202.959 555.806 200.949 552.439C196.695 559.055 190.481 559.088 184.133 558.653C182.76 558.569 181.37 558.686 180.365 559.859C179.243 559.105 178.221 558.251 177.518 556.241C188.27 555.772 197.499 552.741 200.48 540.515C204.952 543.797 206.426 547.683 208.301 551.2C209.926 554.248 211.685 555.889 215.537 555.471C218.434 555.169 221.483 556.308 224.966 556.877C222.086 563.057 216.157 566.424 215.52 572.838Z" fill="#EEB65D"/>
<path d="M232.219 534.017C238.7 531.957 252.669 532.442 257.66 534.904C257.961 534.703 258.38 534.569 258.564 534.285C259.954 532.04 257.961 527.066 262.182 527.569C265.146 527.92 264.476 532.342 265.046 535.089C265.649 537.952 266.419 540.766 267.073 543.613C267.374 544.936 267.625 546.293 267.776 547.65C267.893 548.738 266.871 550.128 266.369 549.827C260.557 546.31 260.959 559.859 254.494 554.098C254.377 551.2 252.133 549.676 250.223 548.202C245.065 544.183 239.705 540.414 234.446 536.546C239.873 536.931 245.299 537.366 250.726 537.634C252.15 537.701 254.26 538.003 254.327 535.758C254.377 533.38 252.25 533.883 250.826 533.899C245.768 533.983 240.693 534.184 235.635 534.335C234.497 534.234 233.358 534.117 232.219 534.017Z" fill="#7E1912"/>
<path d="M131.007 112.904C129.583 112.335 127.892 111.983 127.691 110.09C127.507 108.432 129.064 108.181 130.069 108.064C138.912 107.076 145.361 102.905 148.141 93.5601C151.373 96.558 152.562 99.6898 154.02 102.571C155.862 106.205 158.19 108.583 162.595 108.298C164.018 108.198 166.062 107.746 166.581 109.789C167 111.48 165.66 112.804 164.404 113.658C161.322 115.718 160.166 118.632 159.999 122.132C154.991 124.309 154.455 118.247 151.122 117.309C148.861 114.462 150.653 110.224 147.22 107.092C143.686 110.124 139.13 110.693 134.44 110.911C133.134 110.961 131.828 111.681 131.007 112.904Z" fill="#EEB65D"/>
<path d="M277.925 484.861C280.605 483.17 283.302 481.495 285.982 479.803C287.79 481.495 287.422 483.27 286.183 485.062C274.542 501.927 275.983 519.211 284.491 536.747C284.742 537.266 284.792 537.869 284.943 538.438C281.979 539.996 281.225 537.768 280.321 535.758C275.262 524.487 268.697 513.634 270.841 500.403C271.092 498.862 270.874 497.255 269.618 496.049C270.908 491.225 276.669 489.718 277.925 484.861Z" fill="#33585C"/>
<path d="M222.521 474.46C187.332 477.626 152.177 481.176 116.871 482.7C116.804 481.913 116.737 481.109 116.687 480.322C151.926 477.626 187.182 474.929 222.421 472.233C222.437 472.987 222.471 473.724 222.521 474.46Z" fill="#D5B777"/>
<path d="M181.403 637.804C183.179 634.136 185.105 633.969 187.098 634.186C205.287 636.112 223.459 638.072 241.648 640.048C241.983 640.082 242.268 640.45 242.519 641.371C222.22 643.029 202.188 640.299 181.403 637.804Z" fill="#D5B777"/>
<path d="M371.081 89.2724C365.889 88.2172 361.233 86.7434 356.694 90.8634C357.13 85.5041 357.967 80.8314 353.16 76.9291C357.783 75.472 359.96 72.0722 362.707 68.7896C365.738 72.2061 366.793 77.465 373.392 77.0966C370.461 81.0993 367.849 84.5662 371.081 89.2724Z" fill="#C6351D"/>
<path d="M336.16 244.912C306.934 255.782 277.205 265.161 247.46 274.472C247.259 273.87 247.058 273.267 246.857 272.664C276.435 262.833 305.996 253.002 335.574 243.17C335.775 243.757 335.959 244.326 336.16 244.912Z" fill="#C5A771"/>
<path d="M206.208 385.864C203.998 384.273 201.837 382.631 199.576 381.124C194.987 378.076 193.932 373.52 194.049 368.446C193.63 365.548 193.881 362.467 191.872 359.988C192.089 359.552 192.324 359.117 192.542 358.682C192.893 358.514 193.111 358.246 193.178 357.844C193.731 356.32 194.819 356.203 195.824 357.191C196.762 358.112 197.566 359.268 198.169 360.44C200.313 364.56 200.799 369.4 203.596 373.202C206.376 376.97 211.819 376.334 215.169 379.818C213.092 383.251 209.525 384.373 206.208 385.864Z" fill="#EEB65D"/>
<path d="M151.122 117.309C154.438 118.23 154.974 124.309 159.999 122.132C160.099 123.69 160.2 125.264 160.317 126.821C160.937 131.36 159.346 132.432 155.158 130.473C151.658 128.831 148.091 128.714 145.16 131.946H145.21C138.678 132.7 138.678 132.7 139.18 126.168C139.231 125.582 139.314 124.962 139.147 124.427C137.706 119.804 140.537 119.151 144.054 118.933C146.466 118.766 149.196 119.754 151.122 117.309Z" fill="#BF5B26"/>
<path d="M66.3409 518.893C63.5607 516.85 63.343 513.651 62.5893 510.686C62.7903 506.834 60.6632 504.875 57.1963 503.987C58.151 501.91 58.5696 499.482 61.6681 497.807C65.1853 508.526 71.2817 516.23 84.3289 514.488C82.8215 519.479 79.6225 521.522 77.127 524.118C74.7152 519.931 69.4897 521.556 66.3409 518.893Z" fill="#EEB65D"/>
<path d="M151.122 117.309C149.196 119.754 146.466 118.766 144.037 118.916C140.503 119.134 137.673 119.771 139.13 124.41C139.297 124.946 139.197 125.582 139.163 126.152C138.661 132.683 138.661 132.683 145.193 131.93C142.547 134.877 138.627 134.81 133.67 137.423C138.359 127.508 138.895 119.436 131.007 112.921C131.828 111.681 133.134 110.978 134.44 110.911C139.13 110.693 143.686 110.14 147.22 107.092C150.653 110.224 148.861 114.461 151.122 117.309Z" fill="#C76F35"/>
<path d="M160.422 638.093C155.648 635.715 151.461 635.916 146.805 638.043C147.157 633.705 147.14 630.07 142.97 627.374C147.324 625.934 149.636 623.237 151.31 619C154.04 622.534 155.749 626.453 160.639 626.285C162.097 626.235 162.331 628.546 161.259 629.602C158.713 632.08 158.864 634.676 160.422 638.093Z" fill="#C76F35"/>
<path d="M120.569 541.456C118.944 538.894 120.954 537.889 122.679 537.052C124.588 536.114 126.632 535.142 128.692 534.841C133.499 534.154 136.497 531.742 137.786 527.019C138.188 525.546 138.942 524.122 140.701 523C143.665 525.278 144.184 528.879 144.955 532.128C145.658 535.142 146.897 536.834 150.013 537.721C155.741 539.363 155.791 540.351 151.051 544.705C149.946 545.091 149.259 545.777 147.584 545.359C138.724 543.131 129.646 542.26 120.569 541.456Z" fill="#D2371C"/>
<path d="M120.568 541.456C129.646 542.277 138.724 543.148 147.567 545.375C149.259 545.794 149.928 545.107 151.034 544.722C151.034 549.11 151.034 553.498 151.034 557.584C149.342 558.17 148.706 557.685 148.27 557.048C144.083 550.818 138.858 546.564 130.919 545.76C127.301 545.408 123.181 544.889 120.568 541.456Z" fill="#7E1912"/>
<path d="M183.882 686.692C183.531 685.972 183.162 685.251 182.811 684.531C194.032 684.916 204.852 687.864 215.839 689.757C223.426 691.063 231.113 692.034 238.432 694.731C219.992 693.726 201.988 689.874 183.882 686.692Z" fill="#C5A771"/>
<path d="M57.1961 503.987C60.6631 504.875 62.8069 506.834 62.5891 510.687C58.4355 516.029 53.0927 517.855 46.5943 515.895C44.8524 515.376 44.0988 516.481 43.1608 517.436C42.0219 515.895 40.8663 514.354 39.3589 512.311C45.6061 509.631 54.2484 512.479 57.1961 503.987Z" fill="#EC7C48"/>
<path d="M232.219 534.017C233.358 534.134 234.48 534.234 235.619 534.352C235.217 535.088 234.831 535.825 234.429 536.562C239.705 540.431 245.065 544.199 250.207 548.219C252.116 549.709 254.343 551.217 254.477 554.114C245.082 551.301 237.411 545.573 229.958 539.51C228.752 538.522 227.295 537.199 227.697 535.624C228.299 533.28 230.628 534.368 232.219 534.017Z" fill="#BF5B26"/>
<path d="M191.871 359.971C193.881 362.466 193.63 365.531 194.048 368.428C192.156 368.596 192.273 370.137 191.972 371.443C191.503 373.537 189.811 374.692 188.086 373.955C183.245 371.879 177.233 371.611 174.469 365.967C181.118 366.435 187.332 365.648 191.871 359.971Z" fill="#EC7C48"/>
<path d="M72.8457 13.2645C76.5639 13.365 78.9087 12.0586 79.3274 7.8716C79.5451 5.69435 80.7845 3.61758 82.1077 0C86.3785 7.05092 89.9627 12.9462 93.5302 18.8415C88.6229 19.411 84.084 18.6406 79.7796 15.9274C77.7363 14.6378 75.1738 14.1186 72.8457 13.2645Z" fill="#E94621"/>
<path d="M72.8456 13.2646C75.1736 14.1355 77.7361 14.6379 79.7962 15.9443C84.0838 18.6575 88.6394 19.4279 93.5468 18.8584C94.2837 20.8682 92.3744 22.5095 91.5537 22.074C86.4789 19.3943 83.5981 23.0287 80.1479 25.3734C78.9588 26.194 77.5017 26.998 75.3244 26.2778C76.8652 21.6721 76.681 17.6693 71.6899 15.0901C70.1658 14.3197 71.3047 13.1976 72.8456 13.2646Z" fill="#C6351D"/>
<path d="M121.661 629.363C105.214 631.122 89.3199 627.705 73.5093 623.686C89.5544 625.595 105.6 627.487 121.661 629.363Z" fill="#C5A771"/>
<path d="M203.746 562.137C203.88 562.488 203.98 562.857 204.031 563.225C198.453 564.146 192.91 564.314 187.433 562.488C186.043 562.019 184.736 562.421 183.798 563.644C182.408 562.589 181.018 561.55 180.348 559.859C181.37 558.703 182.743 558.569 184.117 558.653C190.481 559.072 196.678 559.055 200.932 552.439C202.942 555.806 203.277 558.485 203.612 561.165C203.528 561.282 203.344 561.416 203.377 561.483C203.461 561.718 203.612 561.919 203.746 562.137Z" fill="#C76F35"/>
<path d="M66.3408 518.893C69.4895 521.556 74.7151 519.931 77.1269 524.118C74.0117 528.305 72.3703 532.543 74.2629 538.036C75.586 541.888 74.1289 542.675 69.7743 541.151C72.387 537.969 72.1191 529.026 69.1713 526.748C66.4748 524.688 66.5586 521.774 66.3408 518.893Z" fill="#C76F35"/>
<path d="M277.926 484.861C276.686 489.718 270.908 491.209 269.635 496.049C268.731 496.685 267.826 497.305 266.922 497.941C268.295 491.744 270.674 486.301 275.397 482.165C275.866 483.404 276.72 484.308 277.926 484.861Z" fill="#356365"/>
<path d="M248.582 68.4043C248.582 69.9116 249.436 70.7323 250.776 71.1677C247.828 74.6513 245.886 79.0226 241.564 81.2501C242.435 76.1754 243.96 71.4524 248.582 68.4043Z" fill="#356365"/>
<path d="M145.143 131.93C148.074 128.697 151.642 128.814 155.142 130.456C159.329 132.432 160.92 131.343 160.301 126.805C160.937 128.814 161.573 130.807 162.528 133.822C156.365 132.348 150.838 130.556 145.143 131.93Z" fill="#C76F35"/>
<path d="M62.9072 663.713C62.9072 664.299 62.8904 664.902 62.8904 665.488C59.4067 665.405 56.258 664.115 53.1763 662.239C56.4087 662.742 59.658 663.227 62.9072 663.713Z" fill="#C5A771"/>
<path d="M67.4292 539.878C68.4509 539.929 69.3218 540.23 69.908 541.135C68.8528 541.151 67.9819 540.833 67.4292 539.878Z" fill="#C76F35"/>
<path d="M193.178 357.827C193.111 358.212 192.893 358.497 192.542 358.665C192.759 358.38 192.96 358.112 193.178 357.827Z" fill="#EC7C48"/>
<path d="M28.7236 695.166C29.0754 694.747 29.3768 694.781 29.5611 695.266C29.6113 695.4 29.494 695.618 29.4605 695.785C29.2427 695.534 29.0251 695.3 28.8074 695.049L28.7236 695.166Z" fill="#C5A771"/>
<path d="M0.720176 589.403C0.485696 589.537 0.251228 589.654 0 589.788C0.11724 589.536 0.234431 589.302 0.368419 589.051L0.720176 589.403Z" fill="#EC7C48"/>
<path d="M203.746 562.136C203.612 561.919 203.461 561.718 203.378 561.483C203.361 561.416 203.528 561.266 203.612 561.165C203.729 561.483 203.78 561.801 203.746 562.136Z" fill="#BF5B26"/>
<path d="M234.446 536.562C234.848 535.826 235.234 535.089 235.635 534.352C240.694 534.201 245.768 534 250.826 533.916C252.25 533.899 254.377 533.397 254.327 535.775C254.277 538.019 252.15 537.718 250.726 537.651C245.283 537.383 239.873 536.931 234.446 536.562Z" fill="#EC7C48"/>
<path d="M41.6311 625.118C38.3759 629.333 34.7739 633.255 29.6511 635.043C20.9929 638.071 11.0674 634.79 5.63775 627.439C-0.752453 618.795 -1.25935 608.736 4.27706 600.678C5.57111 601.225 6.10474 602.266 6.19812 603.627C6.39823 606.882 7.13192 610.057 7.2253 613.352C7.43875 621.436 14.6428 627.612 22.5138 626.825C23.7411 626.705 25.0752 626.719 25.2353 624.944C24.0746 623.731 22.5138 623.517 21.0196 623.224C18.5249 622.73 17.4043 620.902 16.7239 618.755C16.3103 617.447 15.9235 615.806 17.4977 615.019C19.272 614.125 19.7255 615.726 20.5527 616.9C24.0479 621.903 30.2914 622.703 34.5205 618.808C35.8945 618.621 36.6149 616.9 38.4293 617.22C39.1497 619.928 39.4966 622.917 41.6311 625.118Z" fill="#7E1912"/>
<path d="M34.5071 618.794C30.2781 622.69 24.0346 621.903 20.5394 616.887C19.7122 615.699 19.2586 614.112 17.4843 615.006C15.8967 615.806 16.297 617.434 16.7106 618.741C17.3776 620.889 18.5115 622.716 21.0063 623.21C22.5004 623.503 24.0613 623.717 25.2219 624.931C25.0618 626.705 23.7278 626.692 22.5004 626.812C14.6294 627.599 7.42537 621.422 7.21192 613.338C7.11853 610.043 6.38485 606.868 6.18474 603.613C6.10469 602.252 5.57106 601.225 4.26367 600.665C5.74449 597.57 7.42541 594.662 11.1742 593.861C10.6939 595.449 10.2136 597.036 9.71998 598.624C9.6266 598.824 9.53325 599.011 9.42653 599.211C9.6133 599.104 9.80006 599.011 10.0002 598.904C10.2803 598.891 10.5471 598.837 10.8273 598.784C11.5477 600.598 9.70669 601.479 9.26644 602.893C8.1725 606.441 9.81342 608.389 12.695 610.043C15.9101 611.884 16.1636 609.683 16.7239 607.509C16.7772 607.295 17.8712 607.362 18.4715 607.295C18.4181 608.602 18.0847 609.963 19.2987 610.99L19.2586 610.857C20.4593 614.112 21.7266 611.631 22.9807 610.897L22.914 610.964C23.2475 610.63 23.581 610.283 23.9145 609.95C23.9412 609.349 23.9545 608.762 23.9812 608.162C24.2614 607.855 24.5415 607.535 24.835 607.228C27.0763 607.295 28.0501 609.443 29.8111 610.297C27.81 612.271 25.5021 614.139 27.8634 617.327C26.7028 618.661 27.2898 619.341 28.7706 619.261C30.5983 619.155 32.3993 618.728 34.2003 618.447L34.5071 618.794Z" fill="#C6351D"/>
<path d="M10.827 598.797C10.5602 598.864 10.2801 598.904 9.99991 598.917L9.71973 598.637C10.2 597.05 10.6803 595.462 11.1739 593.875C21.8065 587.605 30.9582 588.899 40.6969 598.09C40.1766 600.064 37.7486 598.344 37.0416 599.971C28.5836 593.434 19.9121 591.433 10.827 598.797Z" fill="#EC7C48"/>
<path d="M37.042 599.971C37.7491 598.344 40.177 600.065 40.6973 598.09C47.5411 604.907 48.2082 615.339 42.3649 624.05C39.6834 619.835 42.6718 615.312 41.6446 611.017C42.2849 606.414 38.6962 603.6 37.042 599.971Z" fill="#C76F35"/>
<path d="M41.6443 611.003C42.6716 615.299 39.6832 619.821 42.3647 624.037C42.1246 624.397 41.8711 624.757 41.631 625.117C39.4965 622.916 39.1496 619.928 38.4158 617.207C36.6015 616.9 35.8811 618.607 34.507 618.794L34.2136 618.447C34.5071 616.179 36.5882 613.605 33.1596 611.937C31.9189 612.044 30.8116 611.83 30.2246 610.55C30.8516 609.563 31.9856 609.483 32.5993 610.056C35.4275 612.671 38.536 611.684 41.6443 611.003Z" fill="#C6351D"/>
<path d="M41.6443 611.003C38.5359 611.684 35.4275 612.671 32.5993 610.043C31.9856 609.469 30.8516 609.549 30.2246 610.537C30.1045 610.416 29.9711 610.336 29.8244 610.283C28.0634 609.429 27.0896 607.282 24.8483 607.215C24.208 607.215 23.581 607.215 22.9406 607.215L22.9939 607.268C22.9939 606.921 22.9939 606.588 22.9806 606.241C21.6732 605.094 20.4458 604.934 19.3119 606.481C19.0317 606.748 18.7649 607.015 18.4848 607.281C17.8711 607.348 16.7905 607.295 16.7371 607.495C16.1768 609.669 15.9234 611.857 12.7083 610.03C9.82669 608.375 8.18577 606.441 9.27971 602.879C9.71996 601.465 11.561 600.598 10.8406 598.77C19.9256 591.42 28.5971 593.408 37.0551 599.944C38.696 603.6 42.2847 606.414 41.6443 611.003Z" fill="#D2371C"/>
<path d="M29.8245 610.297C29.9846 610.35 30.118 610.43 30.2247 610.55C30.8117 611.831 31.919 612.044 33.1597 611.938C33.5065 615.806 32.5461 618.394 27.8768 617.327C25.5022 614.152 27.8234 612.271 29.8245 610.297Z" fill="#7E1912"/>
<path d="M27.8771 617.327C32.5597 618.394 33.5202 615.806 33.16 611.938C36.5752 613.605 34.5075 616.166 34.214 618.448C32.3996 618.728 30.5986 619.155 28.7843 619.261C27.3035 619.341 26.7165 618.648 27.8771 617.327Z" fill="#D2371C"/>
<path d="M23.9942 608.162C23.9675 608.763 23.9542 609.35 23.9275 609.95C23.594 610.283 23.2605 610.63 22.9269 610.964L22.9936 610.897C21.7529 610.884 20.5123 610.87 19.2716 610.857L19.3116 610.99C18.858 608.096 20.4589 607.228 22.9803 607.282L22.9269 607.228C23.2871 607.535 23.6473 607.855 23.9942 608.162Z" fill="#D5B777"/>
<path d="M22.9805 607.282C20.4592 607.242 18.8583 608.096 19.3119 610.99C18.0978 609.977 18.418 608.602 18.4847 607.295C18.7649 607.028 19.0317 606.761 19.3119 606.495C20.5392 606.415 21.7532 606.335 22.9805 606.255C22.9805 606.601 22.9805 606.935 22.9805 607.282Z" fill="#7E1912"/>
<path d="M19.2856 610.844C20.5263 610.857 21.767 610.87 23.0077 610.884C21.7536 611.631 20.4863 614.099 19.2856 610.844Z" fill="#7E1912"/>
<path d="M23.9948 608.162C23.6479 607.855 23.2878 607.535 22.9409 607.228C23.5813 607.228 24.2083 607.228 24.8486 607.228C24.5551 607.549 24.275 607.855 23.9948 608.162Z" fill="#7E1912"/>
<path d="M22.9272 610.964C23.2608 610.63 23.5943 610.283 23.9278 609.95C23.5943 610.297 23.2608 610.63 22.9272 610.964Z" fill="#7E1912"/>
<path d="M22.9807 606.255C21.7534 606.335 20.5394 606.415 19.312 606.495C20.446 604.947 21.6733 605.107 22.9807 606.255Z" fill="#C6351D"/>
<path d="M287.519 365.58C282.551 372.631 275.753 377.106 267.151 376.518C257.388 375.85 249.922 370.414 245.595 361.52C241.054 352.157 241.107 342.942 248.132 334.541C248.186 336.999 248.092 339.456 248.319 341.9C248.506 343.917 249.481 342.154 250.096 342.1L250.082 342.087C249.668 350.448 253.368 357.112 259.084 362.695C265.348 368.812 273.535 369.934 281.415 366.247C283.085 365.459 284.648 364.364 286.638 364.618L286.611 364.591C286.932 364.912 287.225 365.246 287.519 365.58Z" fill="#7E1912"/>
<path d="M249.294 332.738C261.048 317.5 283.326 320.318 291.94 335.85C296.802 344.638 295.707 356.632 289.416 362.601C289.817 358.849 290.231 355.096 290.631 351.329C292.662 342.662 286.104 331.59 276.167 327.97C270.103 325.767 263.973 326.234 258.697 330.668C257.816 330.641 257.054 330.842 256.614 331.697L256.52 331.616C253.755 331.79 252.981 334.621 250.897 335.944C250.336 334.822 249.815 333.78 249.294 332.738Z" fill="#EC7C48"/>
<path d="M290.631 351.329C290.231 355.082 289.817 358.835 289.416 362.602C288.788 363.59 288.16 364.592 287.519 365.58C287.225 365.246 286.932 364.912 286.638 364.591C286.838 364.391 287.025 364.191 287.225 363.991C287.079 363.91 286.945 363.844 286.798 363.763C286.758 364.044 286.705 364.324 286.664 364.605C284.674 364.351 283.112 365.46 281.442 366.234C273.549 369.92 265.362 368.799 259.111 362.682C253.395 357.099 249.695 350.435 250.109 342.074C250.697 341.62 251.178 341.126 250.643 340.271C249.829 340.712 250.203 341.46 250.136 342.087C249.521 342.127 248.546 343.904 248.359 341.887C248.132 339.456 248.212 336.985 248.172 334.528C248.56 333.927 248.934 333.326 249.321 332.725C249.842 333.767 250.363 334.822 250.924 335.957C253.021 334.635 253.782 331.803 256.547 331.63C256.907 334.034 256.587 336.157 254.757 338.054C251.618 341.313 251.605 345.039 252.86 349.286C254.049 353.306 256.68 356.378 258.951 359.543C263.438 365.834 273.041 367.543 278.758 362.602C282.831 359.089 287.64 356.097 290.631 351.329Z" fill="#C6351D"/>
<path d="M290.631 351.329C287.639 356.084 282.831 359.075 278.744 362.601C273.028 367.543 263.425 365.833 258.937 359.543C256.68 356.378 254.049 353.292 252.847 349.286C251.591 345.052 251.605 341.312 254.743 338.054C256.573 336.157 256.894 334.034 256.533 331.63L256.627 331.71C257.495 331.71 258.203 331.389 258.71 330.681C263.986 326.234 270.116 325.78 276.18 327.984C286.103 331.59 292.661 342.661 290.631 351.329ZM271.505 344.932L271.545 344.959C270.21 342.087 268.099 342.728 266.43 344.251C265.001 345.546 264.56 347.79 265.976 349.286C268.006 351.423 270.25 350.221 272.093 348.631C273.696 347.229 273.949 345.813 271.505 344.932Z" fill="#D2371C"/>
<path d="M258.71 330.681C258.189 331.389 257.495 331.71 256.626 331.71C257.054 330.842 257.829 330.655 258.71 330.681Z" fill="#C6351D"/>
<path d="M250.109 342.1C250.175 341.486 249.802 340.725 250.616 340.284C251.15 341.126 250.67 341.62 250.082 342.087L250.109 342.1Z" fill="#7E1912"/>
<path d="M286.664 364.605C286.705 364.324 286.758 364.044 286.798 363.764C286.945 363.844 287.078 363.91 287.225 363.991C287.025 364.191 286.838 364.391 286.638 364.592L286.664 364.605Z" fill="#7E1912"/>
<path d="M271.505 344.932C273.949 345.813 273.696 347.229 272.08 348.631C270.25 350.221 268.006 351.423 265.962 349.286C264.547 347.79 264.987 345.546 266.417 344.251C268.099 342.728 270.196 342.087 271.532 344.959C270.784 344.798 270.023 344.424 269.301 344.518C268.206 344.651 267.258 345.292 266.991 346.468C266.804 347.323 267.311 347.977 268.099 348.257C269.301 348.671 270.223 348.057 270.797 347.082C271.198 346.454 271.278 345.653 271.505 344.932Z" fill="#7E1912"/>
<path d="M271.505 344.932C271.291 345.653 271.198 346.454 270.824 347.082C270.236 348.044 269.315 348.658 268.126 348.257C267.338 347.99 266.83 347.322 267.017 346.468C267.284 345.292 268.233 344.665 269.328 344.518C270.036 344.424 270.81 344.798 271.558 344.959C271.545 344.972 271.505 344.932 271.505 344.932Z" fill="#C5A771"/>
</svg>
