<svg width="142" height="57" viewBox="0 0 142 57" fill="none" xmlns="http://www.w3.org/2000/svg">
<path d="M126.5 33.3203L110.5 35.3203L129 25.3203L140 6.32031L141 20.3203L136 29.3203L126.5 33.3203Z" fill="#FFE24B" stroke="black"/>
<path d="M57.5 3.32047C15.9 -5.87953 2.5 14.4871 1 25.8205C1 50.6206 74.6667 42.4871 111.5 35.3203L128.5 25.8205C122.167 22.1538 99.1 12.5205 57.5 3.32047Z" fill="url(#paint0_linear_914_30868)" stroke="black"/>
<path d="M11.5 35.3203L18.5 51.876" stroke="black"/>
<path d="M105.5 33.6533L94.5 51.8755" stroke="black"/>
<path d="M21 36.8203L25 51.8755" stroke="black"/>
<path d="M31.5 37.6533L33 51.4311" stroke="black"/>
<path d="M41.5 38.0977V51.8754" stroke="black"/>
<path d="M51.5 38.0977L50 51.8754" stroke="black"/>
<path d="M64 37.209L58.5 52.3201" stroke="black"/>
<path d="M73.5 36.7646L68.5 51.4313" stroke="black"/>
<path d="M86 35.876L77 51.876" stroke="black"/>
<path d="M95.5 34.543L86 51.8763" stroke="black"/>
<path d="M13.5 52.3203L3 31.8203C19 42.1314 83.6667 36.6166 115 32.3203L100 50.987L13.5 52.3203Z" stroke="black"/>
<path d="M123 28.8203L126 33.3203" stroke="black"/>
<path d="M129.5 25.3203L135.5 29.3203" stroke="black"/>
<path d="M133.5 17.3203L140.5 20.3203" stroke="black"/>
<path d="M14 53.3203L10 49.8203C10 49.8203 33.1419 51.5556 48 51.8203C70.4652 52.2206 105.5 49.8203 105.5 49.8203L94.5 53.3203C94.5 53.3203 66.1921 56.7494 48 56.3203C34.6743 56.006 14 53.3203 14 53.3203Z" fill="#FFAD29" stroke="black"/>
<path d="M7.62 30.3203V15.9403H19.22C19.7267 15.9403 20.1933 16.067 20.62 16.3203C21.0467 16.5736 21.3867 16.9136 21.64 17.3403C21.8933 17.7536 22.02 18.2136 22.02 18.7203V22.6003C22.02 23.107 21.8933 23.5736 21.64 24.0003C21.3867 24.427 21.0467 24.767 20.62 25.0203C20.1933 25.2603 19.7267 25.3803 19.22 25.3803L10.26 25.4003V30.3203H7.62ZM10.5 22.7203H19.1C19.1667 22.7203 19.2267 22.7003 19.28 22.6603C19.3333 22.6203 19.36 22.567 19.36 22.5003V18.8203C19.36 18.7536 19.3333 18.7003 19.28 18.6603C19.2267 18.607 19.1667 18.5803 19.1 18.5803H10.5C10.4333 18.5803 10.3733 18.607 10.32 18.6603C10.28 18.7003 10.26 18.7536 10.26 18.8203V22.5003C10.26 22.567 10.28 22.6203 10.32 22.6603C10.3733 22.7003 10.4333 22.7203 10.5 22.7203ZM23.3603 30.3203V21.4803C23.3603 20.9736 23.487 20.5136 23.7403 20.1003C23.9936 19.687 24.327 19.3536 24.7403 19.1003C25.167 18.847 25.627 18.7203 26.1203 18.7203H32.5603V21.3403H26.2203C26.1536 21.3403 26.0936 21.367 26.0403 21.4203C26.0003 21.4603 25.9803 21.5136 25.9803 21.5803V30.3203H23.3603ZM36.6863 30.3203C36.1796 30.3203 35.7196 30.1936 35.3063 29.9403C34.8929 29.687 34.5596 29.3536 34.3063 28.9403C34.0529 28.527 33.9263 28.067 33.9263 27.5603V21.4803C33.9263 20.9736 34.0529 20.5136 34.3063 20.1003C34.5596 19.687 34.8929 19.3536 35.3063 19.1003C35.7196 18.847 36.1796 18.7203 36.6863 18.7203H42.9463C43.4529 18.7203 43.9129 18.847 44.3263 19.1003C44.7529 19.3536 45.0863 19.687 45.3263 20.1003C45.5796 20.5136 45.7063 20.9736 45.7063 21.4803V25.8403H36.5463V27.4603C36.5463 27.527 36.5663 27.587 36.6063 27.6403C36.6596 27.6803 36.7196 27.7003 36.7863 27.7003H45.7063V30.3203H36.6863ZM36.5463 23.4803H43.0863V21.5803C43.0863 21.5136 43.0596 21.4603 43.0062 21.4203C42.9663 21.367 42.9129 21.3403 42.8463 21.3403H36.7863C36.7196 21.3403 36.6596 21.367 36.6063 21.4203C36.5663 21.4603 36.5463 21.5136 36.5463 21.5803V23.4803ZM52.6555 30.3203L46.2755 18.7203H49.2955L53.8755 27.1403L58.4355 18.7203H61.4555L55.0555 30.3203H52.6555ZM62.833 30.3203V18.7203H65.453V30.3203H62.833ZM62.833 17.5603V14.9203H65.453V17.5603H62.833ZM70.0066 30.3203C69.4999 30.3203 69.0399 30.1936 68.6266 29.9403C68.2132 29.687 67.8799 29.3536 67.6266 28.9403C67.3732 28.527 67.2466 28.067 67.2466 27.5603V21.4803C67.2466 20.9736 67.3732 20.5136 67.6266 20.1003C67.8799 19.687 68.2132 19.3536 68.6266 19.1003C69.0399 18.847 69.4999 18.7203 70.0066 18.7203H76.2666C76.7732 18.7203 77.2332 18.847 77.6466 19.1003C78.0732 19.3536 78.4066 19.687 78.6466 20.1003C78.8999 20.5136 79.0266 20.9736 79.0266 21.4803V27.5603C79.0266 28.067 78.8999 28.527 78.6466 28.9403C78.4066 29.3536 78.0799 29.687 77.6666 29.9403C77.2532 30.1936 76.7866 30.3203 76.2666 30.3203H70.0066ZM70.1066 27.7003H76.1666C76.2332 27.7003 76.2866 27.6803 76.3266 27.6403C76.3799 27.587 76.4066 27.527 76.4066 27.4603V21.5803C76.4066 21.5136 76.3799 21.4603 76.3266 21.4203C76.2866 21.367 76.2332 21.3403 76.1666 21.3403H70.1066C70.0399 21.3403 69.9799 21.367 69.9266 21.4203C69.8866 21.4603 69.8666 21.5136 69.8666 21.5803V27.4603C69.8666 27.527 69.8866 27.587 69.9266 27.6403C69.9799 27.6803 70.0399 27.7003 70.1066 27.7003ZM83.3669 30.3203C82.8602 30.3203 82.3935 30.1936 81.9669 29.9403C81.5535 29.687 81.2202 29.3536 80.9669 28.9403C80.7269 28.527 80.6069 28.067 80.6069 27.5603V18.7203H83.2269V27.4603C83.2269 27.527 83.2469 27.587 83.2869 27.6403C83.3402 27.6803 83.4002 27.7003 83.4669 27.7003H89.5269C89.5935 27.7003 89.6469 27.6803 89.6869 27.6403C89.7402 27.587 89.7669 27.527 89.7669 27.4603V18.7203H92.3869V27.5603C92.3869 28.067 92.2602 28.527 92.0069 28.9403C91.7669 29.3536 91.4402 29.687 91.0269 29.9403C90.6135 30.1936 90.1469 30.3203 89.6269 30.3203H83.3669ZM96.763 30.3203C96.2563 30.3203 95.7963 30.1936 95.383 29.9403C94.9696 29.687 94.6363 29.3536 94.383 28.9403C94.1296 28.527 94.003 28.067 94.003 27.5603V27.1203H96.623V27.4603C96.623 27.527 96.643 27.587 96.683 27.6403C96.7363 27.6803 96.7963 27.7003 96.863 27.7003H102.923C102.99 27.7003 103.043 27.6803 103.083 27.6403C103.136 27.587 103.163 27.527 103.163 27.4603V26.0803C103.163 26.0136 103.136 25.9603 103.083 25.9203C103.043 25.867 102.99 25.8403 102.923 25.8403H96.763C96.2563 25.8403 95.7963 25.7136 95.383 25.4603C94.9696 25.207 94.6363 24.8736 94.383 24.4603C94.1296 24.047 94.003 23.587 94.003 23.0803V21.4803C94.003 20.9736 94.1296 20.5136 94.383 20.1003C94.6363 19.687 94.9696 19.3536 95.383 19.1003C95.7963 18.847 96.2563 18.7203 96.763 18.7203H103.023C103.543 18.7203 104.01 18.847 104.423 19.1003C104.836 19.3536 105.17 19.687 105.423 20.1003C105.676 20.5136 105.803 20.9736 105.803 21.4803V21.9203H103.163V21.5803C103.163 21.5136 103.136 21.4603 103.083 21.4203C103.043 21.367 102.99 21.3403 102.923 21.3403H96.863C96.7963 21.3403 96.7363 21.367 96.683 21.4203C96.643 21.4603 96.623 21.5136 96.623 21.5803V22.9603C96.623 23.027 96.643 23.087 96.683 23.1403C96.7363 23.1803 96.7963 23.2003 96.863 23.2003H103.023C103.543 23.2003 104.01 23.327 104.423 23.5803C104.836 23.8336 105.17 24.167 105.423 24.5803C105.676 24.9936 105.803 25.4536 105.803 25.9603V27.5603C105.803 28.067 105.676 28.527 105.423 28.9403C105.17 29.3536 104.836 29.687 104.423 29.9403C104.01 30.1936 103.543 30.3203 103.023 30.3203H96.763Z" fill="black"/>
<defs>
<linearGradient id="paint0_linear_914_30868" x1="37.5" y1="-0.679683" x2="57" y2="49.3203" gradientUnits="userSpaceOnUse">
<stop stop-color="#FFFDD5"/>
<stop offset="1" stop-color="#FFF873"/>
</linearGradient>
</defs>
</svg>
