<svg width="45" height="45" viewBox="0 0 45 45" fill="none" xmlns="http://www.w3.org/2000/svg">
<rect width="45" height="45" rx="15" fill="black" fill-opacity="0.2"/>
<rect x="1.5" y="1.5" width="42" height="42" rx="13.5" stroke="#FDDC2D" stroke-opacity="0.5" stroke-width="3"/>
<path d="M37.1714 23.633H34.2995C34.6681 23.1635 34.8881 22.5715 34.8881 21.9288C34.8881 20.4075 33.6547 19.1699 32.1385 19.1699C31.2284 19.1699 30.4205 19.6158 29.9197 20.3012C29.4189 19.6158 28.6109 19.1699 27.7009 19.1699C26.1847 19.1699 24.9512 20.4075 24.9512 21.9288C24.9512 22.5715 25.1713 23.1635 25.5399 23.633H22.6679C21.6874 23.633 20.8896 24.4334 20.8896 25.4172V27.6364C20.8896 28.4446 21.4282 29.1286 22.164 29.3472V35.447C22.164 36.4069 22.9423 37.1878 23.899 37.1878H29.7124C29.7762 37.2149 29.8461 37.2299 29.9196 37.2299C29.9932 37.2299 30.0631 37.2149 30.1268 37.1878H35.9403C36.897 37.1878 37.6752 36.407 37.6752 35.447V29.3472C38.4111 29.1286 38.9496 28.4446 38.9496 27.6364V25.4173C38.9496 24.4334 38.1519 23.633 37.1713 23.633H37.1714ZM32.1384 20.2353C33.0692 20.2353 33.8263 20.995 33.8263 21.9288C33.8263 22.8621 33.07 23.6215 32.1402 23.6223H30.4505L30.4506 21.9308C30.4506 21.9294 30.4506 21.9279 30.4505 21.9264C30.4519 20.9937 31.2085 20.2353 32.1384 20.2353ZM27.7009 20.2353C28.6311 20.2353 29.388 20.9943 29.3887 21.9275V23.6223H27.6976C26.7684 23.6206 26.013 22.8615 26.013 21.9288C26.0131 20.995 26.7702 20.2353 27.7009 20.2353H27.7009ZM21.9515 27.6364V25.4173C21.9515 25.0219 22.274 24.6984 22.668 24.6984H29.3887V28.3552H22.668C22.274 28.3552 21.9515 28.0318 21.9515 27.6364ZM23.2259 35.447V29.4207H29.3887V36.1223H23.899C23.5279 36.1223 23.2259 35.8195 23.2259 35.447ZM35.9403 36.1223H30.4506V29.4207H36.6134V35.447C36.6134 35.8195 36.3116 36.1223 35.9404 36.1223H35.9403ZM37.8878 27.6364C37.8878 28.0318 37.5654 28.3552 37.1713 28.3552H30.4507V24.6984H37.1714C37.5654 24.6984 37.8879 25.0219 37.8879 25.4173V27.6364H37.8878Z" fill="#FDDC2D" fill-opacity="0.5"/>
<path fill-rule="evenodd" clip-rule="evenodd" d="M15.8119 25.9624C12.8596 23.0101 12.8596 18.179 15.8119 15.2267C18.7642 12.2744 23.5953 12.2744 26.5476 15.2267C27.3791 16.0581 27.9872 17.0491 28.3522 18.1201H26.8659C26.5628 17.4118 26.1272 16.7582 25.5717 16.2027C23.1561 13.7871 19.2034 13.7871 16.7879 16.2027C14.3723 18.6182 14.3723 22.5709 16.7879 24.9865C17.5922 25.7907 18.5732 26.3446 19.6298 26.6117V28.03C18.2055 27.7312 16.8742 27.0247 15.8119 25.9624ZM19.6298 30.137C17.6504 29.8194 15.8025 28.881 14.3479 27.4264C10.5904 23.6689 10.5904 17.5202 14.3479 13.7627C18.1054 10.0052 24.2541 10.0052 28.0116 13.7627C29.2407 14.9918 30.0927 16.495 30.5169 18.1201H31.9529C31.4968 16.1302 30.4799 14.279 28.9876 12.7868C24.6933 8.49246 17.6663 8.49246 13.372 12.7868C9.07767 17.0811 9.07766 24.1081 13.372 28.4024C15.086 30.1164 17.2835 31.1903 19.6298 31.5187V30.137ZM19.6298 33.6181C16.7266 33.293 14.0302 31.9886 11.908 29.8663C6.78412 24.7425 6.78412 16.4467 11.908 11.3228C17.0319 6.19892 25.3277 6.19892 30.4515 11.3228C32.339 13.2102 33.5796 15.5518 34.07 18.1201H35.4575C34.9502 15.1852 33.5617 12.4809 31.4275 10.3468C25.7669 4.68615 16.5927 4.68615 10.932 10.3468C5.27136 16.0075 5.27136 25.1817 10.932 30.8423C13.3221 33.2324 16.3607 34.6857 19.6298 35.001V33.6181Z" fill="#FDDC2D" fill-opacity="0.5"/>
<path d="M31.6449 17.0825H29.3199V14.7575C29.3199 10.991 26.2665 7.9375 22.4999 7.9375C18.7332 7.9375 15.6799 10.9908 15.6799 14.7575V17.0825H13.3549C11.6428 17.0825 10.2549 18.4704 10.2549 20.1825V31.9625C10.2549 33.6746 11.6428 35.0625 13.3549 35.0625H31.6449C33.357 35.0625 34.7449 33.6746 34.7449 31.9625V20.1825C34.7449 18.4704 33.357 17.0825 31.6449 17.0825ZM17.8499 14.7575C17.8499 12.1935 19.9359 10.1075 22.4999 10.1075C25.0639 10.1075 27.1499 12.1935 27.1499 14.7575V17.0825H17.8499V14.7575ZM32.5749 31.9625C32.5749 32.4752 32.1578 32.8925 31.6449 32.8925H13.3549C12.842 32.8925 12.4249 32.4752 12.4249 31.9625V20.1825C12.4249 19.6698 12.842 19.2525 13.3549 19.2525H31.6449C32.1578 19.2525 32.5749 19.6698 32.5749 20.1825V31.9625Z" fill="black"/>
<path d="M22.5 22.6624C22.2123 22.6624 21.9363 22.7767 21.7328 22.9801C21.5294 23.1836 21.415 23.4596 21.415 23.7474V29.0174C21.415 29.1598 21.4431 29.3009 21.4976 29.4326C21.5522 29.5642 21.6321 29.6838 21.7328 29.7846C21.8336 29.8853 21.9532 29.9652 22.0848 30.0198C22.2165 30.0743 22.3576 30.1024 22.5 30.1024C22.6425 30.1024 22.7836 30.0743 22.9153 30.0198C23.0469 29.9652 23.1665 29.8853 23.2673 29.7846C23.368 29.6838 23.4479 29.5642 23.5024 29.4326C23.557 29.3009 23.585 29.1598 23.585 29.0174V23.7474C23.585 23.4596 23.4707 23.1836 23.2673 22.9801C23.0638 22.7767 22.7878 22.6624 22.5 22.6624Z" fill="black"/>
</svg>
