<svg width="171" height="80" viewBox="0 0 171 80" fill="none" xmlns="http://www.w3.org/2000/svg">
<rect x="116.5" y="3.5" width="50" height="50" rx="13.5" fill="black" fill-opacity="0.2" stroke="#F2D861" stroke-width="3"/>
<g style="mix-blend-mode:lighten">
<path d="M27.1873 76V64.48C27.1873 63.9467 27.314 63.4667 27.5673 63.04C27.834 62.6 28.1807 62.2533 28.6073 62C29.0473 61.7333 29.534 61.6 30.0673 61.6H38.6873C39.2207 61.6 39.7007 61.7333 40.1273 62C40.5673 62.2533 40.9207 62.6 41.1873 63.04C41.454 63.4667 41.5873 63.9467 41.5873 64.48V76H38.6673V71.26H30.0673V76H27.1873ZM30.0673 68.38H38.6673V64.62C38.6673 64.58 38.654 64.5533 38.6273 64.54C38.614 64.5133 38.5873 64.5 38.5473 64.5H30.1873C30.1473 64.5 30.114 64.5133 30.0873 64.54C30.074 64.5533 30.0673 64.58 30.0673 64.62V68.38ZM46.6061 76C46.0994 76 45.6328 75.8733 45.2061 75.62C44.7794 75.3533 44.4328 75.0067 44.1661 74.58C43.9128 74.1533 43.7861 73.6867 43.7861 73.18V60.58H46.6461V73.04C46.6461 73.0667 46.6594 73.0933 46.6861 73.12C46.7128 73.1467 46.7394 73.16 46.7661 73.16H49.0461V76H46.6061ZM53.4225 76C52.9158 76 52.4492 75.8733 52.0225 75.62C51.5958 75.3533 51.2492 75.0067 50.9825 74.58C50.7292 74.1533 50.6025 73.6867 50.6025 73.18V60.58H53.4625V73.04C53.4625 73.0667 53.4758 73.0933 53.5025 73.12C53.5292 73.1467 53.5558 73.16 53.5825 73.16H55.8625V76H53.4225ZM63.6717 76V64.48C63.6717 63.9467 63.7984 63.4667 64.0517 63.04C64.3184 62.6 64.6651 62.2533 65.0917 62C65.5317 61.7333 66.0184 61.6 66.5517 61.6H75.1717C75.7051 61.6 76.1851 61.7333 76.6117 62C77.0517 62.2533 77.4051 62.6 77.6717 63.04C77.9384 63.4667 78.0717 63.9467 78.0717 64.48V76H75.1517V71.26H66.5517V76H63.6717ZM66.5517 68.38H75.1517V64.62C75.1517 64.58 75.1384 64.5533 75.1117 64.54C75.0984 64.5133 75.0717 64.5 75.0317 64.5H66.6717C66.6317 64.5 66.5984 64.5133 66.5717 64.54C66.5584 64.5533 66.5517 64.58 66.5517 64.62V68.38ZM83.0705 76C82.5638 76 82.0971 75.8733 81.6705 75.62C81.2438 75.3533 80.8971 75.0067 80.6305 74.58C80.3771 74.1533 80.2505 73.6867 80.2505 73.18V67.22C80.2505 66.7133 80.3771 66.2467 80.6305 65.82C80.8971 65.3933 81.2438 65.0533 81.6705 64.8C82.0971 64.5333 82.5638 64.4 83.0705 64.4H91.9905V67.24H83.2105C83.1838 67.24 83.1571 67.2533 83.1305 67.28C83.1038 67.3067 83.0905 67.3333 83.0905 67.36V73.04C83.0905 73.0667 83.1038 73.0933 83.1305 73.12C83.1571 73.1467 83.1838 73.16 83.2105 73.16H92.0105V76H83.0705ZM96.4898 76C95.9698 76 95.4965 75.8733 95.0698 75.62C94.6432 75.3533 94.2965 75.0067 94.0298 74.58C93.7765 74.1533 93.6498 73.6867 93.6498 73.18V60.9H96.4898V64.4H100.91V67.24H96.4898V73.04C96.4898 73.0667 96.5032 73.0933 96.5298 73.12C96.5565 73.1467 96.5832 73.16 96.6098 73.16H100.91V76H96.4898ZM102.556 76V64.4H105.396V76H102.556ZM102.556 63.46V60.6H105.396V63.46H102.556ZM112.984 76L106.604 64.4H109.884L114.244 72.44L118.624 64.4H121.904L115.504 76H112.984ZM123.2 76V64.4H126.04V76H123.2ZM123.2 63.46V60.6H126.04V63.46H123.2ZM130.904 76C130.384 76 129.911 75.8733 129.484 75.62C129.057 75.3533 128.711 75.0067 128.444 74.58C128.191 74.1533 128.064 73.6867 128.064 73.18V60.9H130.904V64.4H135.324V67.24H130.904V73.04C130.904 73.0667 130.917 73.0933 130.944 73.12C130.971 73.1467 130.997 73.16 131.024 73.16H135.324V76H130.904ZM136.97 76V64.4H139.81V76H136.97ZM136.97 63.46V60.6H139.81V63.46H136.97ZM144.457 76C143.951 76 143.484 75.8733 143.057 75.62C142.631 75.3533 142.284 75.0067 142.017 74.58C141.764 74.1533 141.637 73.6867 141.637 73.18V67.22C141.637 66.7133 141.764 66.2467 142.017 65.82C142.284 65.3933 142.631 65.0533 143.057 64.8C143.484 64.5333 143.951 64.4 144.457 64.4H150.577C151.097 64.4 151.571 64.5333 151.997 64.8C152.424 65.0533 152.764 65.3933 153.017 65.82C153.271 66.2467 153.397 66.7133 153.397 67.22V71.64H144.477V73.04C144.477 73.0667 144.491 73.0933 144.517 73.12C144.544 73.1467 144.571 73.16 144.597 73.16H153.397V76H144.457ZM144.477 69.1H150.557V67.36C150.557 67.3333 150.544 67.3067 150.517 67.28C150.491 67.2533 150.464 67.24 150.437 67.24H144.597C144.571 67.24 144.544 67.2533 144.517 67.28C144.491 67.3067 144.477 67.3333 144.477 67.36V69.1ZM158.069 76C157.562 76 157.096 75.8733 156.669 75.62C156.242 75.3533 155.896 75.0067 155.629 74.58C155.376 74.1533 155.249 73.6867 155.249 73.18V72.66H158.089V73.04C158.089 73.0667 158.102 73.0933 158.129 73.12C158.156 73.1467 158.182 73.16 158.209 73.16H164.049C164.076 73.16 164.102 73.1467 164.129 73.12C164.156 73.0933 164.169 73.0667 164.169 73.04V71.74C164.169 71.7133 164.156 71.6933 164.129 71.68C164.102 71.6533 164.076 71.64 164.049 71.64H158.069C157.562 71.64 157.096 71.5133 156.669 71.26C156.242 70.9933 155.896 70.6467 155.629 70.22C155.376 69.7933 155.249 69.32 155.249 68.8V67.22C155.249 66.7133 155.376 66.2467 155.629 65.82C155.896 65.3933 156.242 65.0533 156.669 64.8C157.096 64.5333 157.562 64.4 158.069 64.4H164.189C164.709 64.4 165.182 64.5333 165.609 64.8C166.036 65.0533 166.376 65.3933 166.629 65.82C166.896 66.2467 167.029 66.7133 167.029 67.22V67.74H164.169V67.36C164.169 67.3333 164.156 67.3067 164.129 67.28C164.102 67.2533 164.076 67.24 164.049 67.24H158.209C158.182 67.24 158.156 67.2533 158.129 67.28C158.102 67.3067 158.089 67.3333 158.089 67.36V68.66C158.089 68.6867 158.102 68.7133 158.129 68.74C158.156 68.7533 158.182 68.76 158.209 68.76H164.189C164.709 68.76 165.182 68.8933 165.609 69.16C166.036 69.4133 166.376 69.7533 166.629 70.18C166.896 70.6067 167.029 71.08 167.029 71.6V73.18C167.029 73.6867 166.896 74.1533 166.629 74.58C166.376 75.0067 166.036 75.3533 165.609 75.62C165.182 75.8733 164.709 76 164.189 76H158.069Z" fill="#F2D861"/>
</g>
<path d="M131.585 21.9575C134.288 17.7241 137.767 14.579 141.184 12.9036C144.611 11.2235 147.891 11.0536 150.303 12.5937C152.715 14.1339 153.94 17.1808 153.858 20.9961C153.776 24.801 152.387 29.2807 149.683 33.5141C146.98 37.7475 143.501 40.8926 140.084 42.5681C136.657 44.2481 133.377 44.418 130.965 42.8779C128.553 41.3377 127.327 38.2908 127.41 34.4755C127.492 30.6706 128.881 26.1909 131.585 21.9575Z" stroke="#F2D861"/>
<path d="M136.518 38.6234C131.668 36.362 127.902 33.1462 125.704 29.8485C123.489 26.5249 122.997 23.3544 124.126 20.9325C125.255 18.5106 128 16.8499 131.97 16.41C135.909 15.9735 140.793 16.7912 145.643 19.0526C150.493 21.3139 154.26 24.5297 156.457 27.8274C158.672 31.151 159.165 34.3215 158.036 36.7434C156.907 39.1653 154.161 40.826 150.192 41.2659C146.253 41.7024 141.368 40.8847 136.518 38.6234Z" stroke="#F2D861" stroke-width="3"/>
<path d="M140.47 20.1695C145.899 19.7386 150.86 20.5516 154.483 22.1651C158.146 23.7963 160.211 26.122 160.408 28.6106C160.606 31.0993 158.933 33.7215 155.574 35.9101C152.251 38.0748 147.48 39.6601 142.051 40.091C136.622 40.5218 131.661 39.7088 128.039 38.0954C124.376 36.4641 122.311 34.1384 122.114 31.6498C121.916 29.1611 123.588 26.5389 126.948 24.3503C130.271 22.1857 135.041 20.6003 140.47 20.1695Z" stroke="#F2D861" stroke-width="2"/>
<circle cx="130.56" cy="24.5333" r="4.56237" transform="rotate(-108.058 130.56 24.5333)" fill="#F2D861"/>
<circle cx="134.453" cy="10.1094" r="2.03641" transform="rotate(-108.058 134.453 10.1094)" fill="#F2D861"/>
<circle cx="150.347" cy="35.375" r="1.40982" transform="rotate(-108.058 150.347 35.375)" fill="#F2D861"/>
<circle cx="151.166" cy="35.7371" r="8.47827" transform="rotate(-108.058 151.166 35.7371)" fill="#F2D861"/>
<circle cx="121.743" cy="31.0253" r="1.40982" transform="rotate(-108.058 121.743 31.0253)" fill="#F2D861"/>
<circle cx="156.611" cy="16.9387" r="0.548265" transform="rotate(-108.058 156.611 16.9387)" fill="#F2D861"/>
</svg>
