<svg width="679" height="148" viewBox="0 0 679 148" fill="none" xmlns="http://www.w3.org/2000/svg">
<path d="M537.9 124.2C535.3 123.6 536.9 121 535.3 119.3L513.4 121.3C506.9 121.9 500.5 122.7 494.1 123C475.2 123.8 456.2 123.9 437.3 125.2C419 126.5 400.6 125.1 382.4 126.2C365.6 127.2 348.8 127.1 332 126.9C322.4 126.8 312.7 125.9 303.1 126C288.6 126.2 274.1 127 259.8 125.8C236.4 123.8 213 123.9 189.6 122.2C178.7 121.4 167.7 121.3 156.9 119.1C153.5 118.4 152.1 120.5 151 123.1C147.9 121.5 147.5 119.2 147.7 115.7C148.2 109.4 149.7 102.9 145.6 97C147.6 95.3 149.7 95.2 151.9 95C155 94.7 158.2 95.7001 161.1 93.9001C162 93.1001 163.1 93.4001 164.1 93.4001C164.7 93.6001 165.4 93.8001 166 93.9001C181.2 93.9001 196.4 93.9001 211.7 93.9001C212.4 94.0001 213 93.9 213.6 93.6C214.2 93.3 214.7 92.9001 215.1 92.4001L221.9 92.3C224.1 93.4 226.5 93 228.8 93C265.9 92.7 303 93.4 340.2 92.2C351.1 91.8 362.1 93 373 93C422.1 92.8 471.2 93 520.3 94.1C526 94.2 531.7 94.5001 537.3 95.9001C537 105.9 541.1 115 537.9 124.2Z" fill="#191A22"/>
<path d="M635.5 129.2C632.3 132.8 627.8 132.8 623.6 133C606.3 134 589.2 132.6 572.1 130.3C564.2 129.2 556.3 128.7 548.3 127.9C545.2 127.6 542 127.5 539.4 125.3L539 124.1C539.7 120.1 542.7 118.5 546.1 117.3C551.6 115.5 557.4 114.4 562.5 111.5C567.6 108.6 571.7 104.7 572.5 98C574.4 83 576.9 68.1 579.1 53.2C579.3 52.1 579.7 51 580 49.9C581.5 48.7 583.2 49.1 584.8 49.4C593.9 51 603 52.6 612 54.5C615.1 55.1 618.7 55.3 620.8 58.3C612.3 57.8 604.3 59.3 596.2 65.2H613.7L613.9 65.3C606 68.6 596.9 67.3 588.2 71.5C594.7 72.9 600.7 70.9 607.1 74C601.7 73.7 597.4 73.5 593.1 73.3C589.7 73.1 588.3 74.6 587.7 78.2C585.7 90.3 583.5 102.4 579.8 114.2C578.7 117.8 575.7 120.5 575.1 124.7C590.1 127.4 605.1 128.3 620 128.9C623.3 129.1 626.7 129.6 629.8 128.1C631.9 128.5 633.9 127.5 635.5 129.2Z" fill="#C57034"/>
<path d="M52.9001 134.2C70.6001 137.9 88.3001 135.7 106 134.5C120.4 133.6 134.7 131.7 149 130.1C142 139.2 131.5 141.1 121.3 143.1C100 147.2 78.4001 147.5 56.8001 147.1C46.5001 146.9 36.3001 145.8 26.0001 145.1C24.7001 145 23.3001 145 22.6001 142.8C33.2001 141.2 44.0001 141.2 53.9001 138.8C55.0001 136.4 53.5001 135.4 52.9001 134.2Z" fill="#191A22"/>
<path d="M538.9 128.1C554.1 130.6 569.5 131.6 584.8 133.2C595.4 134.3 605.9 135.5 616.6 135.1C622.7 134.9 628.8 133.5 635 134.1C634.9 135.6 633.4 136.7 633.9 138.6C639.9 141.6 647 139 654.6 142.3C646.8 143.3 640.2 144.2 633.6 145.1C613.2 148 593.1 144.9 573.1 141.7C562.3 140 551.8 137.9 542.7 131.3C541.4 130.4 540.2 129.2 538.9 128.1Z" fill="#191A22"/>
<path d="M30.7001 97.3C31.7001 93.8 33.1001 90.5 30.4001 86.9C28.8001 84.8 29.6001 82.2 32.3001 81.2C36.7001 79.6 39.6001 76.8 40.4001 71.5C46.0001 74.8 50.3001 79.2 56.1001 81.3C58.5001 82.2 58.3001 85.9 56.9001 87.5C53.2001 92.1 53.3001 96.9 54.5001 102.1C52.8001 101.3 51.4001 101.6 50.4001 103.2H48.6001C45.6001 101.2 42.1001 100.9 38.7001 100.5C35.7001 100 32.9001 99.7 30.7001 97.3ZM51.7001 88.7C53.2001 87.3 55.4001 86.4 55.4001 83.4C50.9001 82.6 46.6001 80.9 42.8001 78.4C42.0001 81.3 39.0001 82.2 38.7001 85C37.4001 85.2 36.0001 84.9 35.2001 86.6C38.5001 89.9 33.3001 94 36.3001 98.2C41.2001 94.2 45.3001 101.5 50.6001 99.2C50.5001 95.7 50.9001 92.1 51.7001 88.7Z" fill="#3E1A14"/>
<path d="M30.7001 97.3C32.8001 99.7 35.7001 100.1 38.7001 100.5C42.1001 100.9 45.6001 101.2 48.6001 103.2C43.6001 104.5 38.5001 105.3 33.7001 107.7C31.5001 108.8 29.8001 107.3 29.7001 104.9C29.6001 102.3 29.1001 99.6 30.7001 97.3Z" fill="#191A22"/>
<path d="M50.5 103.2C51.5 101.6 52.9 101.3 54.6 102.1C53.4 103.3 52 103.2 50.5 103.2Z" fill="#191A22"/>
<path d="M635.9 133.3C636 132.8 636.2 132.3 636.6 131.9C637 131.5 637.4 131.2 637.9 131.1C637.8 131.6 637.6 132.1 637.2 132.5C636.8 132.9 636.4 133.1 635.9 133.3Z" fill="#191A22"/>
<path d="M161 94.2001C149.4 94.1001 137.8 94.5 126.4 97.1C123.3 97.8 121.4 100.3 117.4 101.1C113 87.4 112.2 73.2001 112.3 59.0001C112.3 57.9001 113 57.4001 114 57.2001C115.7 65.5001 119.5 72.8001 123.9 79.9001C126.9 84.7001 130.8 87.0001 136.8 86.4001C156.2 84.3001 175.7 85 195.2 84.6C258.1 83.6 321.1 84.5001 384 83.5001C437.3 82.6001 490.5 84.6 543.8 85.1C562.7 85.3 560.4 87.2001 569.6 68.9001C570.3 67.5001 570.3 65.4 572.9 66.1C571.5 77.8 570.6 89.6001 566.7 101.4C554.3 93.4001 540.4 93.9001 527.1 93.5001C456.2 91.2001 385.3 91.1 314.4 91.6C286.4 91.8 258.4 92 230.5 92.3C227.7 92.3 224.8 92.5 222 92.6L215.2 92.7001C205.8 92.9001 196.4 93.0001 187 93.2001C179.4 93.4001 171.8 92.8001 164.2 93.7001C163 93.6001 161.9 93.4001 161 94.2001Z" fill="#C57034"/>
<path d="M164 93.7001C171.6 92.8001 179.2 93.4001 186.8 93.2001C196.2 93.0001 205.6 92.8001 215 92.7001C214.6 93.2001 214.1 93.7001 213.5 93.9001C212.9 94.2001 212.2 94.3001 211.6 94.2001C196.4 94.2001 181.2 94.2001 165.9 94.2001C165.3 94.1001 164.6 93.9001 164 93.7001Z" fill="#3E1A14"/>
<path d="M572.8 66.1C570.3 65.3 570.2 67.5001 569.5 68.9001C560.3 87.2001 562.6 85.3 543.7 85.1C490.4 84.6 437.2 82.6 383.9 83.5C320.9 84.6 258 83.6 195.1 84.6C175.7 84.9 156.1 84.2001 136.7 86.4001C130.8 87.1001 126.9 84.8001 123.8 79.9001C119.4 72.8001 115.6 65.5001 113.9 57.2001C113.8 55.7001 113.8 54.2001 113.6 52.7001C111.8 37.6001 120.3 24.6 137.2 23.3C144.8 22.7 152.4 21.7 160 21.3C183.6 20.2 207.2 18.9 230.8 18.3C254.1 17.7 277.4 17.8001 300.7 17.4001C328 16.9001 355.3 17.1 382.6 17.8C425.3 19 468.2 16.5001 510.8 21.2001C523.5 22.6001 536.4 22.5 549 24.3C557.5 25.5 564.8 28.8001 569.8 37.2001C573.1 42.7001 573.4 48.4 574.8 54.1C574.8 58.3 572.2 61.9 572.8 66.1ZM545.9 73.9001C552 75.6001 560.1 69.7 562 62.1C557 67.2 552.3 71.7001 545.9 73.9001Z" fill="#F0BB5F"/>
<path d="M574.8 54.2C573.5 48.5 573.1 42.9 569.8 37.4C564.8 29 557.5 25.7 549 24.5C536.4 22.7 523.5 22.7 510.8 21.4C468.2 16.7 425.3 19.1 382.6 18C355.3 17.3 328 17.1 300.7 17.6C277.4 18 254.1 17.8 230.8 18.5C207.2 19.1 183.6 20.3 160 21.5C152.4 21.9 144.8 22.9 137.2 23.5C120.2 24.8 111.8 37.8 113.6 52.9C113.8 54.4 113.8 55.9 113.9 57.4C112.9 57.6 112.3 58.1 112.2 59.2C112.1 53.7 111.8 48.2 111.9 42.7C112.3 28.4 119.2 20.4 133.3 18.4C152.5 15.7 171.8 15.1 191.1 14.6C282.4 12.2 373.8 11.6 465.2 13.6C493.3 14.2 521.5 14.7 549.4 18.5C571.1 21.4 578.7 31.3 575 53C574.9 53.2 574.8 53.7 574.8 54.2Z" fill="#F0D590"/>
<path d="M99 46.1C100 46.1 101.1 46.4 102 46C106 44.2 107.1 46.5 107.4 49.8C108.3 60.8 109.1 71.7 110.1 82.7C110.5 87.7 111.2 92.6 112.2 97.5C113.8 105.5 118.7 110.7 126.5 113.4C132.3 115.4 138.4 116.2 143.6 120C145.8 121.6 147.9 123.3 147.4 125.7C146.9 128.5 143.8 128.9 141.3 129.1C134.2 129.8 127.1 130.5 120 131.1C102.6 132.6 85.3 135 67.8 134C62.9 133.7 57.4 134.5 53 130.9C53.1 128.3 55.7 128.6 56.9 127.3C69.2 129.6 81.4 128.6 93.7 127.7C98.9 127.3 104.3 127 109.7 123.8C100.1 110.1 98.5 94.3 97.2 78.8C93.5 77.5 89.5 81.7 87.2 76.6C90.6 74.5 95 75.4 99 72.6C90.2 68.7 81 70.1001 72.5 66.4001C77.4 66.2001 82 66.4001 86.5 63.4001C79.4 58.7001 71.7 58.9 64.5 57.2C70 53.5 76.5 52.5 82.7 51.1C88.2 49.9 94.2 49.9 99 46.1Z" fill="#C57034"/>
<path d="M630 128.2C626.8 129.7 623.4 129.1 620.2 129C605.3 128.3 590.4 127.5 575.3 124.8C575.8 120.6 578.8 117.9 580 114.3C583.7 102.5 585.9 90.4 587.9 78.3C588.5 74.7 589.9 73.3 593.3 73.4C597.6 73.6 601.9 73.8 607.3 74.1C600.9 71 594.9 72.9 588.4 71.6C597.1 67.4 606.2 68.6 614.1 65.4L614.3 65.1L614 65.3H596.5C604.5 59.3 612.5 57.9 621.1 58.4H621L622.5 59.5C628.7 61 624.4 65.5 625.1 68.6L625.2 68.5C622.1 69.3 621.5 71.9 621.1 74.5L621.2 74.4L620.1 75.5L620.2 75.4L619.1 76.5L619.2 76.4L618.1 77.6L618.3 77.4L617.1 79.3L616.1 80.4L615.1 81.5L614.2 82.5L613.1 83.6L613.2 83.5L612.1 84.6L612.2 84.5L611.1 85.6L611.2 85.5L610.1 86.6L610.2 86.5C609.8 86.9 609.4 87.3 609.1 87.6H609.4C604.3 90.5 602.9 94 605.6 99.1C611.1 109.6 617.3 119.6 628.3 125.5C628.9 125.8 629.4 126.2 629.7 126.7C629.8 127 630 127.6 630 128.2Z" fill="#F0BB5F"/>
<path d="M64.4 57.2001C71.6 58.9001 79.3 58.7001 86.4 63.4001C82 66.3001 77.4 66.2001 72.4 66.4001C80.9 70.1001 90.2 68.7 98.9 72.6C94.9 75.4 90.5 74.5 87.1 76.6C89.4 81.7 93.4 77.5 97.1 78.8C98.4 94.3 100.1 110.1 109.6 123.8C104.2 127 98.8 127.3 93.6 127.7C81.3 128.6 69 129.5 56.8 127.3C62.5 122.3 68.4 117.5 72.5 111C74.3 108.1 76.5 105.2 74.9 101.4C78.1 96.2001 77.1 91.4001 74 86.5001C70.1 80.5001 64.7 75.7001 61.9 69.0001C61.6 67.5001 61.6 65.9001 59.9 65.2001C59.7 61.5001 60.7 58.6001 64.4 57.2001ZM84.4 79.3V79.9001L86.8 79.6L84.4 79.3Z" fill="#F0BB5F"/>
<path d="M625 68.3C624.4 65.2 628.6 60.7 622.4 59.2C621.9 58.9 621.4 58.5 620.9 58.1H621C618.8 55.1 615.3 55 612.2 54.3C603.2 52.4 594.1 50.8 585 49.2C583.4 48.9 581.7 48.6 580.2 49.7C580.4 48.1 580.5 46.4 580.7 44.4C594.1 45.8 607.3 46.9 619.9 51.5C629.2 55 630.6 59.7 625 68.3Z" fill="#F0D590"/>
<path d="M64.4001 57.2001C60.7001 58.6001 59.7001 61.5001 60.0001 65.1001C56.6001 57.7001 58.4001 52.9001 65.9001 50.4001C73.1001 48.0001 80.4001 46.1001 88.2001 46.1001C91.8001 46.1001 95.4001 43.5001 99.0001 46.0001C94.2001 49.8001 88.3001 49.8001 82.7001 51.1001C76.4001 52.5001 70.0001 53.6001 64.4001 57.2001Z" fill="#F0D590"/>
<path d="M630 128.2C630 127.5 629.8 126.9 629.4 126.3C629 125.7 628.5 125.3 628 125C617 119.2 610.8 109.2 605.3 98.6C602.6 93.5 604 90.1 609.2 87.1C605.7 90.8 606.7 94.3 608.9 98.3C615.2 109.5 624.1 118.3 634.1 126C635.3 126.9 636.3 127.4 635.6 129.1C633.9 127.5 631.9 128.5 630 128.2Z" fill="#F0D590"/>
<path d="M75.0001 101.3C76.7001 105.1 74.5001 107.9 72.6001 110.9C68.5001 117.4 62.6001 122.2 56.9001 127.2C55.7001 128.5 53.0001 128.3 53.0001 130.8C50.3001 129.3 52.4001 127.9 53.1001 126.5C56.5001 120.4 63.0001 117.1 66.8001 111.2C69.1001 107.7 71.0001 103.6 75.0001 101.3Z" fill="#F0D590"/>
<path d="M620.9 74.3C621.3 71.6 621.9 69.1 625 68.3C624.2 70.6 622.8 72.6 620.9 74.3Z" fill="#F0D590"/>
<path d="M60 65.1C61.7 65.9 61.7 67.5 62 69C60.9 68 60.2 66.6 60 65.1Z" fill="#F0D590"/>
<path d="M616.9 79.1L618.1 77.2001C618.2 77.6001 618.1 78.0001 617.9 78.4001C617.6 78.7001 617.3 78.9 616.9 79.1Z" fill="#F0D590"/>
<path d="M618.9 76.3L620 75.2001C619.9 75.8001 619.7 76.3 618.9 76.3Z" fill="#F0D590"/>
<path d="M617.9 77.3L619 76.1C619.1 76.9 618.8 77.4 617.9 77.3Z" fill="#F0D590"/>
<path d="M608.9 87.3C609.3 86.9 609.6 86.5001 610 86.2001C609.9 86.8001 609.6 87.3 608.9 87.3Z" fill="#F0D590"/>
<path d="M506.1 0.400024C505.6 0.600024 505.4 0.6 505.7 0C505.9 0.1 506 0.300024 506.1 0.400024Z" fill="#222E36"/>
<path d="M51.7 88.7C50.8 92.2 50.4 95.7 50.4 99.2C45.2 101.5 41 94.3 36.1 98.2C33.2 94 38.3 90 35 86.6C35.8 84.9 37.2 85.2 38.5 85C40 87.5 42.5 86.8 44.7 87C47.1 87.2 49.9 86 51.7 88.7Z" fill="#C57034"/>
<path d="M51.7001 88.7C49.9001 86 47.2001 87.3 44.8001 87.1C42.5001 86.9 40.1001 87.6 38.6001 85.1C39.0001 82.3 42.0001 81.3 42.7001 78.5C46.6001 81 50.8001 82.7 55.3001 83.5C55.4001 86.4 53.2001 87.3 51.7001 88.7Z" fill="#F0BB5F"/>
<path d="M11.9 138.4C10.2 136.9 8.69999 135.2 5.89999 136.1C4.19999 136.7 3.00001 135.5 3.20001 133.5C3.50001 130.1 2.8 127.5 0 125.7C3.5 122.7 7.20001 120.9 10.1 117.5C11.3 116.1 13.3 117.1 13.9 118.5C15.4 122.1 18.2 123.2 21.5 123.6C20.6 124.5 20.3 125.5 20.9 126.6L20.4 127.8C18.4 129.3 17.2 131.7 16 133.8C14.9 135.7 13.9 137.5 11.9 138.4ZM13.1 122.2C12.8 120.8 12.9 119.1 11.2 118.4C9.40001 121.2 7.20001 123.7 4.70001 125.7C6.10001 126.9 5.80002 129.2 7.30002 130.1C7.10002 131 6.50001 131.9 7.20001 132.9C10 131.5 10.8 135.9 14.1 135C13.3 130.8 18.5 129.7 18.8 125.6C16.7 124.7 14.8 123.6 13.1 122.2Z" fill="#3E1A14"/>
<path d="M11.9001 138.4C13.9001 137.5 14.9002 135.7 16.0002 133.8C17.2002 131.6 18.4001 129.3 20.4001 127.8C19.7001 131.5 18.7002 135.1 18.7002 138.9C18.7002 140.7 17.4002 141.4 16.0002 140.9C14.4002 140.4 12.8001 140.1 11.9001 138.4Z" fill="#191A22"/>
<path d="M20.9 126.5C20.3 125.4 20.5 124.4 21.5 123.5C21.9 124.6 21.4 125.5 20.9 126.5Z" fill="#191A22"/>
<path d="M13.1002 122.2C14.8002 123.6 16.7002 124.8 18.7002 125.6C18.5002 129.7 13.2002 130.7 14.0002 135C10.8002 136 10.0002 131.5 7.10016 132.9C6.40016 132 7.00016 131.1 7.20016 130.1C9.00016 129.7 9.40016 127.8 10.1002 126.4C10.8002 125 11.1002 122.8 13.1002 122.2Z" fill="#C57034"/>
<path d="M13.1002 122.2C11.1002 122.8 11.0002 124.9 10.2002 126.4C9.4002 127.9 9.1002 129.7 7.3002 130.1C5.8002 129.2 6.1002 126.9 4.7002 125.7C7.2002 123.7 9.4002 121.2 11.2002 118.4C12.9002 119.1 12.7002 120.8 13.1002 122.2Z" fill="#F0BB5F"/>
<path d="M645.7 95.7C644 94.2 642.5 92.5001 639.7 93.4001C638 94.0001 636.8 92.8 637 90.8C637.3 87.4 636.6 84.8 633.8 83C637.3 80 641 78.2 643.9 74.8C645.1 73.4 647.1 74.4 647.7 75.8C649.2 79.4 652 80.5001 655.3 80.9001C654.4 81.8001 654.1 82.8001 654.7 83.9001L654.2 85.1C652.2 86.6 651 89 649.8 91.1C648.8 93 647.7 94.8 645.7 95.7ZM646.9 79.4001C646.6 78.0001 646.7 76.3 645 75.6C643.2 78.4 641 80.9001 638.5 82.9001C639.9 84.1001 639.6 86.4 641.1 87.3C640.9 88.2 640.3 89.1 641 90.1C643.8 88.7 644.6 93.1 647.9 92.2C647.1 88 652.3 86.9 652.6 82.8C650.5 82 648.6 80.9001 646.9 79.4001Z" fill="#3E1A14"/>
<path d="M645.7 95.7C647.7 94.8 648.7 93 649.8 91.1C651 88.9 652.2 86.6 654.2 85.1C653.5 88.8 652.5 92.4 652.5 96.2C652.5 98 651.2 98.7 649.8 98.2C648.3 97.7 646.6 97.3 645.7 95.7Z" fill="#191A22"/>
<path d="M654.8 83.8C654.2 82.7 654.4 81.7 655.4 80.8C655.7 81.8 655.2 82.8 654.8 83.8Z" fill="#191A22"/>
<path d="M646.9 79.5C648.6 80.9 650.5 82.1 652.5 82.9C652.3 87 647 88 647.8 92.3C644.6 93.3 643.8 88.8 640.9 90.2C640.2 89.3 640.8 88.4 641 87.4C642.8 87 643.2 85.1 643.9 83.7C644.8 82.2 644.9 80 646.9 79.5Z" fill="#C57034"/>
<path d="M646.9 79.5001C644.9 80.1001 644.8 82.2001 644 83.7001C643.2 85.2001 642.9 87.0001 641.1 87.4001C639.6 86.5001 639.9 84.2001 638.5 83.0001C641 81.0001 643.2 78.5001 645 75.7001C646.7 76.4001 646.6 78.1001 646.9 79.5001Z" fill="#F0BB5F"/>
<path d="M668.8 137.6C667.1 136.1 665.6 134.4 662.8 135.3C661.1 135.9 659.9 134.7 660.1 132.7C660.4 129.3 659.7 126.7 656.9 124.9C660.4 121.9 664.1 120.1 667 116.7C668.2 115.3 670.2 116.3 670.8 117.7C672.3 121.3 675.1 122.4 678.4 122.8C677.5 123.7 677.2 124.7 677.8 125.8L677.3 127C675.3 128.5 674.1 130.9 672.9 133C671.9 134.9 670.8 136.7 668.8 137.6ZM670 121.4C669.7 120 669.8 118.3 668.1 117.6C666.3 120.4 664.1 122.9 661.6 124.9C663 126.1 662.7 128.4 664.2 129.3C664 130.2 663.4 131.1 664.1 132.1C666.9 130.7 667.7 135.1 671 134.2C670.2 130 675.4 128.9 675.7 124.8C673.6 123.9 671.7 122.8 670 121.4Z" fill="#3E1A14"/>
<path d="M668.8 137.6C670.8 136.7 671.8 134.9 672.9 133C674.1 130.8 675.3 128.5 677.3 127C676.6 130.7 675.6 134.3 675.6 138.1C675.6 139.9 674.3 140.6 672.9 140.1C671.4 139.6 669.7 139.3 668.8 137.6Z" fill="#191A22"/>
<path d="M677.9 125.7C677.3 124.6 677.5 123.6 678.5 122.7C678.8 123.8 678.4 124.7 677.9 125.7Z" fill="#191A22"/>
<path d="M670 121.4C671.7 122.8 673.6 124 675.6 124.8C675.4 128.9 670.1 129.9 670.9 134.2C667.7 135.2 666.9 130.7 664 132.1C663.3 131.2 663.9 130.3 664.1 129.3C665.9 128.9 666.3 127 667 125.6C667.9 124.2 668 122 670 121.4Z" fill="#C57034"/>
<path d="M670 121.4C668 122 667.9 124.1 667.1 125.6C666.3 127.1 666 128.9 664.2 129.3C662.7 128.4 663 126.1 661.6 124.9C664.1 122.9 666.3 120.4 668.1 117.6C669.8 118.4 669.7 120.1 670 121.4Z" fill="#F0BB5F"/>
<path d="M545.9 73.9C552.3 71.7 556.9 67.2 562 62.1C560.2 69.7 552 75.6 545.9 73.9Z" fill="#C57034"/>
<path d="M620.9 58.1C621.4 58.5 621.9 58.8 622.4 59.2L620.9 58.1Z" fill="#C57034"/>
<path d="M613.9 65.1L614.2 64.9L614 65.2L613.9 65.1Z" fill="#C57034"/>
<path d="M84.5002 79.3L86.8002 79.7001L84.4001 80.0001L84.5002 79.3Z" fill="#C57034"/>
<path d="M618 77.3C618.1 77.3 618.1 77.3 618.2 77.3C618.2 77.2 618.2 77.2 618.2 77.1L618 77.3Z" fill="#3E1A14"/>
<path d="M636.4 123.6C628.1 118.7 621.7 111.7 615.7 104.4C611 98.8001 610.9 94.5001 615.7 88.8001C620.2 83.3001 624.2 77.4001 627.7 71.2001C634.2 60.0001 631.5 52.6001 619.4 48.3001C608.5 44.5001 597.2 42.5001 585.7 42.3001C581.6 42.2001 579.3 40.8001 578.7 36.4001C577.9 30.0001 574.5 25.1001 569.4 21.0001C563.8 16.5001 557.2 15.6001 549.9 14.8001C543.3 14.1001 495.1 11.5001 492.4 11.4001C489.6 11.6001 486.8 11.5 484.1 11.1H484C471.1 10.7 458 10.3 445.7 10.1C439.8 10 432.6 9.80008 424.5 9.70008C424.5 9.70008 377.9 9.30006 376 9.30006C375.7 9.30006 375.4 9.30006 375.1 9.30006C369 9.30006 331 9.20006 321.2 9.30006C320.9 9.30006 320.6 9.30006 320.3 9.30006C313.9 9.30006 288.5 9.90005 288.1 9.60005C287.9 9.60005 287.7 9.60005 287.4 9.60005C286.2 9.60005 229 10.8001 223.9 11.0001C224.3 11.6001 194.8 12.0001 194.8 12.0001L155.7 13.9001C155.7 13.9001 134.5 15.4001 125.6 16.3001C117.6 19.7001 110.9 24.8001 109.4 34.2001C108.5 39.6001 105.2 41.2001 100.4 41.3001C89.4002 41.7001 78.6002 44.0001 67.9002 46.3001C58.3002 48.4001 55.4002 52.5001 56.1002 62.2001C56.4002 64.9001 57.2002 67.4001 58.4002 69.8001C61.2002 75.8001 65.7002 80.5001 69.7002 85.5001C75.0002 92.1001 74.8002 96.1001 69.6002 102.8C63.7002 110.3 57.8002 117.6 50.7002 124C45.8002 128.3 46.6002 131 52.9002 134.4C70.6002 138.1 88.3002 135.9 106 134.7C120.4 133.8 134.7 131.9 149 130.3C151.4 128.5 150.8 125.9 150.9 123.5C147.8 121.9 147.4 119.6 147.6 116.1C148.1 109.8 149.6 103.3 145.5 97.4001C147.5 95.7001 149.6 95.6001 151.8 95.4001C154.9 95.1001 158.1 96.1001 161 94.3001C149.4 94.2001 137.8 94.6001 126.4 97.2001C123.3 97.9001 121.4 100.4 117.4 101.2C113 87.5001 112.2 73.4 112.3 59.1C112.2 53.6 111.8 48.1 112 42.6C112.4 28.3 119.3 20.3001 133.4 18.3001C152.6 15.6001 171.9 15.0001 191.2 14.5001C282.5 12.1001 373.9 11.5001 465.2 13.5001C493.3 14.1001 521.4 14.6001 549.4 18.4001C571.1 21.3001 578.7 31.2001 575 52.9001C574.9 53.4001 574.8 53.9001 574.7 54.4001C574.8 58.5001 572.2 62.2001 572.8 66.3001C571.4 78.0001 570.5 89.8 566.6 101.6C554.2 93.7 540.3 94.1001 527 93.7001C456.1 91.4001 385.2 91.3001 314.3 91.8001C286.3 92.0001 258.4 92.2001 230.4 92.5001C227.6 92.5001 224.7 92.7001 221.9 92.8001C224.1 93.9001 226.5 93.5001 228.8 93.5001C265.9 93.2001 303 93.9001 340.2 92.7001C351.1 92.3001 362.1 93.5001 373 93.5001C422.1 93.3001 471.2 93.5 520.3 94.6C526 94.7 531.8 95.0001 537.3 96.4001C537.1 106.2 541.2 115.2 538 124.5L539.2 124.4C539.9 120.4 542.9 118.8 546.3 117.6C551.8 115.8 557.5 114.8 562.7 111.8C567.9 108.8 571.9 105 572.7 98.3001C574.6 83.3001 577.1 68.4001 579.3 53.5001C579.5 52.4001 579.9 51.3001 580.2 50.2001C580.3 48.6001 580.5 46.9001 580.7 44.9001C594.2 46.3001 607.3 47.4001 619.9 52.0001C629.3 55.4001 630.7 60.1001 625.1 68.7001L625.2 68.6C624.3 70.9 622.9 73 621.1 74.6L621.2 74.5001C620.9 74.8001 620.5 75.2001 620.2 75.5001C620.1 76.1001 619.9 76.5 619.2 76.6C619.2 77.3 618.9 77.6001 618.3 77.7001C618.3 78.1001 618.2 78.4001 618.1 78.7001C617.9 79.0001 617.6 79.3001 617.2 79.4001L616.2 80.5001L615.2 81.6L614.3 82.6L613.2 83.7001L613.3 83.6L612.2 84.7001L612.3 84.6L611.2 85.7001L611.3 85.6C610.9 86 610.6 86.4001 610.2 86.7001L610.3 86.6C610.2 87.2 609.9 87.7001 609.2 87.7001H609.5C606 91.4001 607 94.9001 609.2 98.9001C615.5 110.1 624.4 118.9 634.4 126.6C635.6 127.5 636.6 128 635.9 129.7C632.7 133.3 628.2 133.3 624 133.5C606.7 134.5 589.6 133.1 572.5 130.8C564.6 129.7 556.7 129.2 548.7 128.4C545.6 128.1 542.3 128 539.8 125.8L539.3 128.5C554.5 131 569.9 132 585.2 133.6C595.8 134.7 606.3 135.9 617 135.5C623.1 135.3 629.2 134 635.4 134.5L636.3 133.6C636.4 133.1 636.6 132.6 637 132.2C637.4 131.8 637.8 131.5 638.3 131.4C640 128.1 639.7 125.6 636.4 123.6Z" fill="#3E1A14"/>
<path d="M112.1 97.4001C113.8 105.4 118.6 110.6 126.4 113.3C132.2 115.3 138.3 116.1 143.5 119.9C145.7 121.5 147.8 123.2 147.3 125.6C146.8 128.4 143.7 128.8 141.2 129C134.1 129.8 127 130.4 119.9 131C102.5 132.5 85.2 134.9 67.7 133.9C62.8 133.6 57.3 134.4 52.9 130.8C50.2 129.3 52.3 127.9 53 126.5C56.4 120.4 62.9 117.1 66.7 111.2C69 107.7 70.9 103.5 74.9 101.3C78.1 96.1001 77.1 91.3001 74 86.4001C70.1 80.4001 64.7 75.6001 61.9 68.9001C60.8 67.9001 60 66.5001 59.9 65.0001V64.9001C56.5 57.5001 58.2 52.7001 65.8 50.3001C73 47.9001 80.3 46.0001 88.1 46.0001C91.7 46.0001 95.3 43.4001 98.9 45.9001C99.9 45.9001 101.1 46.2001 101.9 45.8001C105.9 44.0001 107 46.3001 107.3 49.6001C108.2 60.5001 109 71.5001 110 82.5001C110.4 87.6001 111.1 92.5001 112.1 97.4001Z" fill="#3E1A14"/>
<path d="M619 76.2H619.1V76.1L619 76.2Z" fill="#3E1A14"/>
</svg>
