<svg width="899" height="109" viewBox="0 0 899 109" fill="none" xmlns="http://www.w3.org/2000/svg">
<g filter="url(#filter0_d_569_178698)">
<path d="M77.6414 17L23.9948 70.7404H10L63.6466 17" fill="#8DF6F5"/>
<path d="M553.423 17L499.776 70.7404H485.781L539.428 17" fill="#8DF6F5"/>
<path d="M102.521 17.2595L48.8742 70.9999H34.8794L88.526 17.2595" fill="#8DF6F5"/>
<path d="M578.302 17.2595L524.655 70.9999H510.661L564.307 17.2595" fill="#8DF6F5"/>
<path d="M127.401 17.2595L73.754 70.9999H59.7593L113.406 17.2595" fill="#8DF6F5"/>
<path d="M603.181 17.2595L549.535 70.9999H535.54L589.187 17.2595" fill="#8DF6F5"/>
<path d="M540.2 17.2595L486.553 70.9999H73.3345L126.981 17.2595" fill="url(#paint0_linear_569_178698)"/>
<path d="M237.086 59V24.488H265.358C266.51 24.488 267.566 24.776 268.526 25.352C269.486 25.928 270.238 26.696 270.782 27.656C271.358 28.584 271.646 29.608 271.646 30.728V40.424C271.646 41.576 271.358 42.632 270.782 43.592C270.238 44.52 269.486 45.272 268.526 45.848C267.566 46.392 266.51 46.664 265.358 46.664L242.27 46.712V59H237.086ZM243.47 41.432H265.262C265.582 41.432 265.854 41.32 266.078 41.096C266.302 40.872 266.414 40.6 266.414 40.28V30.872C266.414 30.552 266.302 30.28 266.078 30.056C265.854 29.8 265.582 29.672 265.262 29.672H243.47C243.15 29.672 242.862 29.8 242.606 30.056C242.382 30.28 242.27 30.552 242.27 30.872V40.28C242.27 40.6 242.382 40.872 242.606 41.096C242.862 41.32 243.15 41.432 243.47 41.432ZM281.103 59C279.951 59 278.911 58.712 277.983 58.136C277.055 57.56 276.303 56.808 275.727 55.88C275.151 54.952 274.863 53.912 274.863 52.76V22.04H280.047V52.616C280.047 52.936 280.159 53.224 280.383 53.48C280.639 53.704 280.927 53.816 281.247 53.816H286.287V59H281.103ZM296.15 59C294.998 59 293.942 58.712 292.982 58.136C292.054 57.56 291.302 56.808 290.726 55.88C290.182 54.952 289.91 53.912 289.91 52.76V42.488H312.998V37.544C312.998 37.224 312.886 36.952 312.662 36.728C312.438 36.472 312.166 36.344 311.846 36.344H289.91V31.16H311.99C313.142 31.16 314.182 31.448 315.11 32.024C316.07 32.568 316.822 33.32 317.366 34.28C317.942 35.24 318.23 36.28 318.23 37.4V59H296.15ZM296.294 53.816H312.998V47.336H295.094V52.616C295.094 52.936 295.206 53.224 295.43 53.48C295.686 53.704 295.974 53.816 296.294 53.816ZM327.654 69.656V64.424H344.694C345.014 64.424 345.286 64.296 345.51 64.04C345.766 63.816 345.894 63.544 345.894 63.224V59H328.998C327.878 59 326.838 58.728 325.878 58.184C324.918 57.608 324.15 56.84 323.574 55.88C323.03 54.92 322.758 53.88 322.758 52.76V31.256H327.942V52.616C327.942 52.936 328.054 53.224 328.278 53.48C328.534 53.704 328.822 53.816 329.142 53.816H344.694C345.014 53.816 345.286 53.704 345.51 53.48C345.766 53.224 345.894 52.936 345.894 52.616V31.256H351.078V63.416C351.078 64.568 350.79 65.608 350.214 66.536C349.67 67.496 348.918 68.248 347.958 68.792C347.03 69.368 345.99 69.656 344.838 69.656H327.654Z" fill="white"/>
<path d="M29 30L59 2H102" stroke="white" stroke-width="3"/>
<path d="M584 59L554 87L511 87" stroke="white" stroke-width="3"/>
</g>
<defs>
<filter id="filter0_d_569_178698" x="0" y="0.5" width="909" height="108" filterUnits="userSpaceOnUse" color-interpolation-filters="sRGB">
<feFlood flood-opacity="0" result="BackgroundImageFix"/>
<feColorMatrix in="SourceAlpha" type="matrix" values="0 0 0 0 0 0 0 0 0 0 0 0 0 0 0 0 0 0 127 0" result="hardAlpha"/>
<feOffset dy="10"/>
<feGaussianBlur stdDeviation="5"/>
<feComposite in2="hardAlpha" operator="out"/>
<feColorMatrix type="matrix" values="0 0 0 0 0 0 0 0 0 0 0 0 0 0 0 0 0 0 0.25 0"/>
<feBlend mode="normal" in2="BackgroundImageFix" result="effect1_dropShadow_569_178698"/>
<feBlend mode="normal" in="SourceGraphic" in2="effect1_dropShadow_569_178698" result="shape"/>
</filter>
<linearGradient id="paint0_linear_569_178698" x1="42.4396" y1="71.1607" x2="814.811" y2="71.0007" gradientUnits="userSpaceOnUse">
<stop stop-color="#8DF6F5"/>
<stop offset="0.341688" stop-color="#FFAD29"/>
<stop offset="0.672144" stop-color="#8DF6F5"/>
</linearGradient>
</defs>
</svg>
