<svg width="924" height="37" viewBox="0 0 924 37" fill="none" xmlns="http://www.w3.org/2000/svg">
<g opacity="0.9">
<path d="M0.0160001 28V2.08H5.776L14.56 12.556L23.308 2.08H29.104V28H23.488V10.612L14.56 21.268L5.596 10.648V28H0.0160001ZM38.1389 28C37.1789 28 36.3029 27.76 35.5109 27.28C34.7189 26.8 34.0829 26.164 33.6029 25.372C33.1469 24.58 32.9189 23.716 32.9189 22.78V14.788H48.5789V12.628H32.9189V7.12H48.8669C49.8269 7.12 50.7029 7.36 51.4949 7.84C52.2869 8.32 52.9109 8.956 53.3669 9.748C53.8469 10.54 54.0869 11.404 54.0869 12.34V28H38.1389ZM38.4269 22.492H48.5789V19.612H38.4269V22.492ZM56.9607 28V26.2L64.1607 17.38L56.9607 8.92V7.12H62.6127L67.7247 13.168L72.8007 7.12H78.4887V8.92L71.2887 17.38L78.4887 26.2V28H72.8367L67.7247 21.736L62.6127 28H56.9607ZM82.1025 28V7.12H87.6105V28H82.1025ZM82.1025 5.824V0.279999H87.6105V5.824H82.1025ZM90.401 28V7.12H115.529C116.489 7.12 117.365 7.36 118.157 7.84C118.949 8.32 119.573 8.956 120.029 9.748C120.509 10.54 120.749 11.404 120.749 12.34V28H115.277V12.628H108.365V28H102.821V12.628H95.909V28H90.401ZM125.52 28V7.12H131.028V28H125.52ZM125.52 5.824V0.279999H131.028V5.824H125.52ZM134.171 28V22.348L146.735 12.628H134.171V7.12H155.339V12.772L142.775 22.492H155.339V28H134.171ZM163.505 28C162.569 28 161.705 27.76 160.913 27.28C160.121 26.8 159.485 26.164 159.005 25.372C158.525 24.58 158.285 23.716 158.285 22.78V12.34C158.285 11.404 158.525 10.54 159.005 9.748C159.485 8.956 160.121 8.32 160.913 7.84C161.705 7.36 162.569 7.12 163.505 7.12H174.233C175.193 7.12 176.069 7.36 176.861 7.84C177.653 8.32 178.277 8.956 178.733 9.748C179.213 10.54 179.453 11.404 179.453 12.34V20.332H163.793V22.492H179.453V28H163.505ZM163.793 15.508H173.945V12.628H163.793V15.508ZM197.801 35.488V29.944H210.185V28H199.745C198.785 28 197.909 27.76 197.117 27.28C196.325 26.8 195.689 26.164 195.209 25.372C194.729 24.58 194.489 23.716 194.489 22.78V7.192H199.997V22.492H210.185V7.192H215.693V30.268C215.693 31.228 215.453 32.104 214.973 32.896C214.517 33.688 213.893 34.312 213.101 34.768C212.309 35.248 211.433 35.488 210.473 35.488H197.801ZM223.763 28C222.827 28 221.963 27.76 221.171 27.28C220.379 26.8 219.743 26.164 219.263 25.372C218.783 24.58 218.543 23.716 218.543 22.78V12.34C218.543 11.404 218.783 10.54 219.263 9.748C219.743 8.956 220.379 8.32 221.171 7.84C221.963 7.36 222.827 7.12 223.763 7.12H234.491C235.451 7.12 236.327 7.36 237.119 7.84C237.911 8.32 238.535 8.956 238.991 9.748C239.471 10.54 239.711 11.404 239.711 12.34V22.78C239.711 23.716 239.471 24.58 238.991 25.372C238.535 26.164 237.911 26.8 237.119 27.28C236.327 27.76 235.451 28 234.491 28H223.763ZM224.051 22.492H234.203V12.628H224.051V22.492ZM247.776 28C246.816 28 245.94 27.76 245.148 27.28C244.356 26.8 243.72 26.164 243.24 25.372C242.784 24.58 242.556 23.716 242.556 22.78V7.12H248.064V22.492H258.216V7.12H263.724V22.78C263.724 23.716 263.484 24.58 263.004 25.372C262.548 26.164 261.924 26.8 261.132 27.28C260.34 27.76 259.464 28 258.504 28H247.776ZM267.552 28V12.34C267.552 11.404 267.792 10.54 268.272 9.748C268.752 8.956 269.388 8.32 270.18 7.84C270.972 7.36 271.848 7.12 272.808 7.12H284.328V12.628H273.06V28H267.552ZM298.246 28V2.08H304.006L312.79 12.556L321.538 2.08H327.334V28H321.718V10.612L312.79 21.268L303.826 10.648V28H298.246ZM331.501 28V7.12H337.009V28H331.501ZM331.501 5.824V0.279999H337.009V5.824H331.501ZM346.037 28C345.101 28 344.237 27.76 343.445 27.28C342.653 26.8 342.017 26.164 341.537 25.372C341.057 24.58 340.817 23.716 340.817 22.78V0.243999H346.361V22.492H350.573V28H346.037ZM358.517 28C357.581 28 356.717 27.76 355.925 27.28C355.133 26.8 354.497 26.164 354.017 25.372C353.537 24.58 353.297 23.716 353.297 22.78V12.34C353.297 11.404 353.537 10.54 354.017 9.748C354.497 8.956 355.133 8.32 355.925 7.84C356.717 7.36 357.581 7.12 358.517 7.12H369.245C370.205 7.12 371.081 7.36 371.873 7.84C372.665 8.32 373.289 8.956 373.745 9.748C374.225 10.54 374.465 11.404 374.465 12.34V20.332H358.805V22.492H374.465V28H358.517ZM358.805 15.508H368.957V12.628H358.805V15.508ZM383.479 28C382.519 28 381.643 27.76 380.851 27.28C380.059 26.8 379.423 26.164 378.943 25.372C378.487 24.58 378.259 23.716 378.259 22.78V14.788H393.919V12.628H378.259V7.12H394.207C395.167 7.12 396.043 7.36 396.835 7.84C397.627 8.32 398.251 8.956 398.707 9.748C399.187 10.54 399.427 11.404 399.427 12.34V28H383.479ZM383.767 22.492H393.919V19.612H383.767V22.492ZM405.819 36.244V30.7H418.203V28H407.763C406.803 28 405.927 27.76 405.135 27.28C404.343 26.8 403.707 26.164 403.227 25.372C402.747 24.58 402.507 23.716 402.507 22.78V12.34C402.507 11.404 402.747 10.54 403.227 9.748C403.707 8.956 404.343 8.32 405.135 7.84C405.927 7.36 406.803 7.12 407.763 7.12H418.491C419.451 7.12 420.327 7.36 421.119 7.84C421.911 8.32 422.535 8.956 422.991 9.748C423.471 10.54 423.711 11.404 423.711 12.34V31.024C423.711 31.984 423.471 32.86 422.991 33.652C422.535 34.444 421.911 35.068 421.119 35.524C420.327 36.004 419.451 36.244 418.491 36.244H405.819ZM408.015 22.492H418.203V12.628H408.015V22.492ZM431.853 28C430.917 28 430.053 27.76 429.261 27.28C428.469 26.8 427.833 26.164 427.353 25.372C426.873 24.58 426.633 23.716 426.633 22.78V12.34C426.633 11.404 426.873 10.54 427.353 9.748C427.833 8.956 428.469 8.32 429.261 7.84C430.053 7.36 430.917 7.12 431.853 7.12H442.581C443.541 7.12 444.417 7.36 445.209 7.84C446.001 8.32 446.625 8.956 447.081 9.748C447.561 10.54 447.801 11.404 447.801 12.34V20.332H432.141V22.492H447.801V28H431.853ZM432.141 15.508H442.293V12.628H432.141V15.508ZM473.564 28L462.08 7.12H468.416L475.94 20.98L483.464 7.12H489.8L478.28 28H473.564ZM495.697 28C494.737 28 493.861 27.76 493.069 27.28C492.277 26.8 491.641 26.164 491.161 25.372C490.705 24.58 490.477 23.716 490.477 22.78V14.788H506.137V12.628H490.477V7.12H506.425C507.385 7.12 508.261 7.36 509.053 7.84C509.845 8.32 510.469 8.956 510.925 9.748C511.405 10.54 511.645 11.404 511.645 12.34V28H495.697ZM495.985 22.492H506.137V19.612H495.985V22.492ZM519.744 28C518.808 28 517.944 27.76 517.152 27.28C516.36 26.8 515.724 26.164 515.244 25.372C514.764 24.58 514.524 23.716 514.524 22.78V0.243999H520.068V22.492H524.28V28H519.744ZM532.296 28C531.336 28 530.46 27.76 529.668 27.28C528.876 26.8 528.24 26.164 527.76 25.372C527.304 24.58 527.076 23.716 527.076 22.78V7.12H532.584V22.492H542.736V7.12H548.244V22.78C548.244 23.716 548.004 24.58 547.524 25.372C547.068 26.164 546.444 26.8 545.652 27.28C544.86 27.76 543.984 28 543.024 28H532.296ZM556.376 28C555.44 28 554.576 27.76 553.784 27.28C552.992 26.8 552.356 26.164 551.876 25.372C551.396 24.58 551.156 23.716 551.156 22.78V12.34C551.156 11.404 551.396 10.54 551.876 9.748C552.356 8.956 552.992 8.32 553.784 7.84C554.576 7.36 555.44 7.12 556.376 7.12H567.104C568.064 7.12 568.94 7.36 569.732 7.84C570.524 8.32 571.148 8.956 571.604 9.748C572.084 10.54 572.324 11.404 572.324 12.34V20.332H556.664V22.492H572.324V28H556.376ZM556.664 15.508H566.816V12.628H556.664V15.508ZM595.316 28L587.108 7.12H592.94L597.44 17.956L602.156 7.12H607.484L612.524 18.1L616.7 7.12H622.532L614.684 28H610.508L604.856 15.544L599.456 28H595.316ZM624.915 28V7.12H630.423V28H624.915ZM624.915 5.824V0.279999H630.423V5.824H624.915ZM639.137 28C638.177 28 637.301 27.76 636.509 27.28C635.717 26.8 635.081 26.164 634.601 25.372C634.121 24.58 633.881 23.716 633.881 22.78V0.927999H639.389V7.12H647.129V12.628H639.389V22.492H647.129V28H639.137ZM650.862 28V0.279999H656.37V7.12H666.81C667.746 7.12 668.61 7.36 669.402 7.84C670.194 8.32 670.83 8.956 671.31 9.748C671.79 10.54 672.03 11.404 672.03 12.34V28H666.522V12.628H656.37V28H650.862ZM686.69 28V2.08H706.274C707.234 2.08 708.11 2.32 708.902 2.8C709.718 3.28 710.366 3.928 710.846 4.744C711.35 5.536 711.602 6.424 711.602 7.408V12.268C711.602 12.58 711.578 12.88 711.53 13.168C711.506 13.432 711.446 13.684 711.35 13.924C711.71 14.38 712.01 14.908 712.25 15.508C712.49 16.108 712.61 16.708 712.61 17.308V22.672C712.61 23.632 712.358 24.52 711.854 25.336C711.374 26.152 710.726 26.8 709.91 27.28C709.118 27.76 708.23 28 707.246 28H686.69ZM692.27 22.384H706.958V17.632H692.27V22.384ZM692.27 12.016H705.95V7.696H692.27V12.016ZM721.612 28C720.652 28 719.776 27.76 718.984 27.28C718.192 26.8 717.556 26.164 717.076 25.372C716.62 24.58 716.392 23.716 716.392 22.78V14.788H732.052V12.628H716.392V7.12H732.34C733.3 7.12 734.176 7.36 734.968 7.84C735.76 8.32 736.384 8.956 736.84 9.748C737.32 10.54 737.56 11.404 737.56 12.34V28H721.612ZM721.9 22.492H732.052V19.612H721.9V22.492ZM740.405 28V0.279999H745.913V7.12H756.353C757.313 7.12 758.189 7.36 758.981 7.84C759.773 8.32 760.397 8.956 760.853 9.748C761.333 10.54 761.573 11.404 761.573 12.34V22.78C761.573 23.716 761.333 24.58 760.853 25.372C760.397 26.164 759.773 26.8 758.981 27.28C758.189 27.76 757.313 28 756.353 28H740.405ZM745.913 22.492H756.065V12.628H745.913V22.492ZM767.297 35.488V29.944H779.681V28H769.241C768.281 28 767.405 27.76 766.613 27.28C765.821 26.8 765.185 26.164 764.705 25.372C764.225 24.58 763.985 23.716 763.985 22.78V7.192H769.493V22.492H779.681V7.192H785.189V30.268C785.189 31.228 784.949 32.104 784.469 32.896C784.013 33.688 783.389 34.312 782.597 34.768C781.805 35.248 780.929 35.488 779.969 35.488H767.297ZM800.735 28V2.08H806.495L815.279 12.556L824.027 2.08H829.823V28H824.207V10.612L815.279 21.268L806.315 10.648V28H800.735ZM839.173 28C838.237 28 837.373 27.76 836.581 27.28C835.789 26.8 835.153 26.164 834.673 25.372C834.193 24.58 833.953 23.716 833.953 22.78V12.34C833.953 11.404 834.193 10.54 834.673 9.748C835.153 8.956 835.789 8.32 836.581 7.84C837.373 7.36 838.237 7.12 839.173 7.12H849.901C850.861 7.12 851.737 7.36 852.529 7.84C853.321 8.32 853.945 8.956 854.401 9.748C854.881 10.54 855.121 11.404 855.121 12.34V20.332H839.461V22.492H855.121V28H839.173ZM839.461 15.508H849.613V12.628H839.461V15.508ZM858.669 28V12.34C858.669 11.404 858.909 10.54 859.389 9.748C859.869 8.956 860.505 8.32 861.297 7.84C862.089 7.36 862.965 7.12 863.925 7.12H875.445V12.628H864.177V28H858.669ZM882.802 28C881.866 28 881.002 27.76 880.21 27.28C879.418 26.8 878.782 26.164 878.302 25.372C877.822 24.58 877.582 23.716 877.582 22.78V12.34C877.582 11.404 877.822 10.54 878.302 9.748C878.782 8.956 879.418 8.32 880.21 7.84C881.002 7.36 881.866 7.12 882.802 7.12H898.714V12.628H883.09V22.492H898.75V28H882.802ZM907.725 28C906.789 28 905.925 27.76 905.133 27.28C904.341 26.8 903.705 26.164 903.225 25.372C902.745 24.58 902.505 23.716 902.505 22.78V21.736H908.013V22.492H918.165V20.332H907.725C906.789 20.332 905.925 20.092 905.133 19.612C904.341 19.132 903.705 18.496 903.225 17.704C902.745 16.912 902.505 16.048 902.505 15.112V12.34C902.505 11.404 902.745 10.54 903.225 9.748C903.705 8.956 904.341 8.32 905.133 7.84C905.925 7.36 906.789 7.12 907.725 7.12H918.453C919.413 7.12 920.289 7.36 921.081 7.84C921.873 8.32 922.509 8.956 922.989 9.748C923.469 10.54 923.709 11.404 923.709 12.34V13.384H918.165V12.628H908.013V14.788H918.453C919.413 14.788 920.289 15.028 921.081 15.508C921.873 15.988 922.509 16.624 922.989 17.416C923.469 18.208 923.709 19.072 923.709 20.008V22.78C923.709 23.716 923.469 24.58 922.989 25.372C922.509 26.164 921.873 26.8 921.081 27.28C920.289 27.76 919.413 28 918.453 28H907.725Z" fill="white"/>
<path d="M0.016 28H-1.984V30H0.016V28ZM0.016 2.08V0.079999H-1.984V2.08H0.016ZM5.776 2.08L7.30855 0.794974L6.70905 0.079999H5.776V2.08ZM14.56 12.556L13.0274 13.841L14.5632 15.6725L16.0951 13.8379L14.56 12.556ZM23.308 2.08V0.079999H22.3725L21.7729 0.798074L23.308 2.08ZM29.104 2.08H31.104V0.079999H29.104V2.08ZM29.104 28V30H31.104V28H29.104ZM23.488 28H21.488V30H23.488V28ZM23.488 10.612H25.488V5.1107L21.955 9.32756L23.488 10.612ZM14.56 21.268L13.0317 22.558L14.5657 24.3754L16.093 22.5524L14.56 21.268ZM5.596 10.648L7.12434 9.35797L3.596 5.17781V10.648H5.596ZM5.596 28V30H7.596V28H5.596ZM2.016 28V2.08H-1.984V28H2.016ZM0.016 4.08H5.776V0.079999H0.016V4.08ZM4.24345 3.36502L13.0274 13.841L16.0926 11.271L7.30855 0.794974L4.24345 3.36502ZM16.0951 13.8379L24.8431 3.36192L21.7729 0.798074L13.0249 11.2741L16.0951 13.8379ZM23.308 4.08H29.104V0.079999H23.308V4.08ZM27.104 2.08V28H31.104V2.08H27.104ZM29.104 26H23.488V30H29.104V26ZM25.488 28V10.612H21.488V28H25.488ZM21.955 9.32756L13.027 19.9836L16.093 22.5524L25.021 11.8964L21.955 9.32756ZM16.0883 19.978L7.12434 9.35797L4.06766 11.938L13.0317 22.558L16.0883 19.978ZM3.596 10.648V28H7.596V10.648H3.596ZM5.596 26H0.016V30H5.596V26ZM33.6029 25.372L31.8696 26.3699L31.8808 26.3894L31.8925 26.4086L33.6029 25.372ZM32.9189 14.788V12.788H30.9189V14.788H32.9189ZM48.5789 14.788V16.788H50.5789V14.788H48.5789ZM48.5789 12.628H50.5789V10.628H48.5789V12.628ZM32.9189 12.628H30.9189V14.628H32.9189V12.628ZM32.9189 7.12V5.12H30.9189V7.12H32.9189ZM51.4949 7.84L50.4583 9.55039V9.5504L51.4949 7.84ZM53.3669 9.748L51.6336 10.7459L51.6448 10.7654L51.6565 10.7846L53.3669 9.748ZM54.0869 28V30H56.0869V28H54.0869ZM38.4269 22.492H36.4269V24.492H38.4269V22.492ZM48.5789 22.492V24.492H50.5789V22.492H48.5789ZM48.5789 19.612H50.5789V17.612H48.5789V19.612ZM38.4269 19.612V17.612H36.4269V19.612H38.4269ZM38.1389 26C37.5304 26 37.0151 25.853 36.5475 25.5696L34.4743 28.9904C35.5906 29.667 36.8274 30 38.1389 30V26ZM36.5475 25.5696C36.0311 25.2566 35.6262 24.8518 35.3133 24.3354L31.8925 26.4086C32.5395 27.4762 33.4067 28.3434 34.4743 28.9904L36.5475 25.5696ZM35.3361 24.3741C35.0593 23.8932 34.9189 23.3746 34.9189 22.78H30.9189C30.9189 24.0574 31.2345 25.2668 31.8696 26.3699L35.3361 24.3741ZM34.9189 22.78V14.788H30.9189V22.78H34.9189ZM32.9189 16.788H48.5789V12.788H32.9189V16.788ZM50.5789 14.788V12.628H46.5789V14.788H50.5789ZM48.5789 10.628H32.9189V14.628H48.5789V10.628ZM34.9189 12.628V7.12H30.9189V12.628H34.9189ZM32.9189 9.12H48.8669V5.12H32.9189V9.12ZM48.8669 9.12C49.4754 9.12 49.9906 9.26698 50.4583 9.55039L52.5315 6.12961C51.4151 5.45302 50.1784 5.12 48.8669 5.12V9.12ZM50.4583 9.5504C50.9657 9.85793 51.3484 10.2504 51.6336 10.7459L55.1001 8.75007C54.4734 7.66155 53.6081 6.78207 52.5315 6.1296L50.4583 9.5504ZM51.6565 10.7846C51.9449 11.2605 52.0869 11.7654 52.0869 12.34H56.0869C56.0869 11.0426 55.7488 9.81948 55.0773 8.71139L51.6565 10.7846ZM52.0869 12.34V28H56.0869V12.34H52.0869ZM54.0869 26H38.1389V30H54.0869V26ZM38.4269 24.492H48.5789V20.492H38.4269V24.492ZM50.5789 22.492V19.612H46.5789V22.492H50.5789ZM48.5789 17.612H38.4269V21.612H48.5789V17.612ZM36.4269 19.612V22.492H40.4269V19.612H36.4269ZM56.9607 28H54.9607V30H56.9607V28ZM56.9607 26.2L55.4114 24.9352L54.9607 25.4873V26.2H56.9607ZM64.1607 17.38L65.71 18.6448L66.7642 17.3533L65.6838 16.0838L64.1607 17.38ZM56.9607 8.92H54.9607V9.65585L55.4376 10.2162L56.9607 8.92ZM56.9607 7.12V5.12H54.9607V7.12H56.9607ZM62.6127 7.12L64.1402 5.82893L63.5409 5.12H62.6127V7.12ZM67.7247 13.168L66.1972 14.4591L67.7301 16.2726L69.2566 14.4537L67.7247 13.168ZM72.8007 7.12V5.12H71.8682L71.2687 5.83426L72.8007 7.12ZM78.4887 7.12H80.4887V5.12H78.4887V7.12ZM78.4887 8.92L80.0118 10.2162L80.4887 9.65585V8.92H78.4887ZM71.2887 17.38L69.7656 16.0838L68.6851 17.3533L69.7394 18.6448L71.2887 17.38ZM78.4887 26.2H80.4887V25.4873L80.038 24.9352L78.4887 26.2ZM78.4887 28V30H80.4887V28H78.4887ZM72.8367 28L71.2872 29.2645L71.8874 30H72.8367V28ZM67.7247 21.736L69.2742 20.4715L67.7247 18.5728L66.1752 20.4715L67.7247 21.736ZM62.6127 28V30H63.562L64.1622 29.2645L62.6127 28ZM58.9607 28V26.2H54.9607V28H58.9607ZM58.51 27.4648L65.71 18.6448L62.6114 16.1152L55.4114 24.9352L58.51 27.4648ZM65.6838 16.0838L58.4838 7.62376L55.4376 10.2162L62.6376 18.6762L65.6838 16.0838ZM58.9607 8.92V7.12H54.9607V8.92H58.9607ZM56.9607 9.12H62.6127V5.12H56.9607V9.12ZM61.0852 8.41107L66.1972 14.4591L69.2522 11.8769L64.1402 5.82893L61.0852 8.41107ZM69.2566 14.4537L74.3326 8.40574L71.2687 5.83426L66.1927 11.8823L69.2566 14.4537ZM72.8007 9.12H78.4887V5.12H72.8007V9.12ZM76.4887 7.12V8.92H80.4887V7.12H76.4887ZM76.9656 7.62376L69.7656 16.0838L72.8118 18.6762L80.0118 10.2162L76.9656 7.62376ZM69.7394 18.6448L76.9394 27.4648L80.038 24.9352L72.838 16.1152L69.7394 18.6448ZM76.4887 26.2V28H80.4887V26.2H76.4887ZM78.4887 26H72.8367V30H78.4887V26ZM74.3862 26.7355L69.2742 20.4715L66.1752 23.0005L71.2872 29.2645L74.3862 26.7355ZM66.1752 20.4715L61.0632 26.7355L64.1622 29.2645L69.2742 23.0005L66.1752 20.4715ZM62.6127 26H56.9607V30H62.6127V26ZM82.1025 28H80.1025V30H82.1025V28ZM82.1025 7.12V5.12H80.1025V7.12H82.1025ZM87.6105 7.12H89.6105V5.12H87.6105V7.12ZM87.6105 28V30H89.6105V28H87.6105ZM82.1025 5.824H80.1025V7.824H82.1025V5.824ZM82.1025 0.279999V-1.72H80.1025V0.279999H82.1025ZM87.6105 0.279999H89.6105V-1.72H87.6105V0.279999ZM87.6105 5.824V7.824H89.6105V5.824H87.6105ZM84.1025 28V7.12H80.1025V28H84.1025ZM82.1025 9.12H87.6105V5.12H82.1025V9.12ZM85.6105 7.12V28H89.6105V7.12H85.6105ZM87.6105 26H82.1025V30H87.6105V26ZM84.1025 5.824V0.279999H80.1025V5.824H84.1025ZM82.1025 2.28H87.6105V-1.72H82.1025V2.28ZM85.6105 0.279999V5.824H89.6105V0.279999H85.6105ZM87.6105 3.824H82.1025V7.824H87.6105V3.824ZM90.401 28H88.401V30H90.401V28ZM90.401 7.12V5.12H88.401V7.12H90.401ZM118.157 7.84L117.12 9.55039V9.5504L118.157 7.84ZM120.029 9.748L118.296 10.7459L118.307 10.7654L118.319 10.7846L120.029 9.748ZM120.749 28V30H122.749V28H120.749ZM115.277 28H113.277V30H115.277V28ZM115.277 12.628H117.277V10.628H115.277V12.628ZM108.365 12.628V10.628H106.365V12.628H108.365ZM108.365 28V30H110.365V28H108.365ZM102.821 28H100.821V30H102.821V28ZM102.821 12.628H104.821V10.628H102.821V12.628ZM95.909 12.628V10.628H93.909V12.628H95.909ZM95.909 28V30H97.909V28H95.909ZM92.401 28V7.12H88.401V28H92.401ZM90.401 9.12H115.529V5.12H90.401V9.12ZM115.529 9.12C116.138 9.12 116.653 9.26698 117.12 9.55039L119.194 6.12961C118.077 5.45302 116.841 5.12 115.529 5.12V9.12ZM117.12 9.5504C117.628 9.85793 118.011 10.2504 118.296 10.7459L121.762 8.75007C121.136 7.66155 120.27 6.78207 119.194 6.1296L117.12 9.5504ZM118.319 10.7846C118.607 11.2605 118.749 11.7654 118.749 12.34H122.749C122.749 11.0426 122.411 9.81948 121.739 8.7114L118.319 10.7846ZM118.749 12.34V28H122.749V12.34H118.749ZM120.749 26H115.277V30H120.749V26ZM117.277 28V12.628H113.277V28H117.277ZM115.277 10.628H108.365V14.628H115.277V10.628ZM106.365 12.628V28H110.365V12.628H106.365ZM108.365 26H102.821V30H108.365V26ZM104.821 28V12.628H100.821V28H104.821ZM102.821 10.628H95.909V14.628H102.821V10.628ZM93.909 12.628V28H97.909V12.628H93.909ZM95.909 26H90.401V30H95.909V26ZM125.52 28H123.52V30H125.52V28ZM125.52 7.12V5.12H123.52V7.12H125.52ZM131.028 7.12H133.028V5.12H131.028V7.12ZM131.028 28V30H133.028V28H131.028ZM125.52 5.824H123.52V7.824H125.52V5.824ZM125.52 0.279999V-1.72H123.52V0.279999H125.52ZM131.028 0.279999H133.028V-1.72H131.028V0.279999ZM131.028 5.824V7.824H133.028V5.824H131.028ZM127.52 28V7.12H123.52V28H127.52ZM125.52 9.12H131.028V5.12H125.52V9.12ZM129.028 7.12V28H133.028V7.12H129.028ZM131.028 26H125.52V30H131.028V26ZM127.52 5.824V0.279999H123.52V5.824H127.52ZM125.52 2.28H131.028V-1.72H125.52V2.28ZM129.028 0.279999V5.824H133.028V0.279999H129.028ZM131.028 3.824H125.52V7.824H131.028V3.824ZM134.171 28H132.171V30H134.171V28ZM134.171 22.348L132.947 20.7661L132.171 21.3666V22.348H134.171ZM146.735 12.628L147.958 14.2099L152.588 10.628H146.735V12.628ZM134.171 12.628H132.171V14.628H134.171V12.628ZM134.171 7.12V5.12H132.171V7.12H134.171ZM155.339 7.12H157.339V5.12H155.339V7.12ZM155.339 12.772L156.562 14.3539L157.339 13.7534V12.772H155.339ZM142.775 22.492L141.551 20.9101L136.921 24.492H142.775V22.492ZM155.339 22.492H157.339V20.492H155.339V22.492ZM155.339 28V30H157.339V28H155.339ZM136.171 28V22.348H132.171V28H136.171ZM135.394 23.9299L147.958 14.2099L145.511 11.0461L132.947 20.7661L135.394 23.9299ZM146.735 10.628H134.171V14.628H146.735V10.628ZM136.171 12.628V7.12H132.171V12.628H136.171ZM134.171 9.12H155.339V5.12H134.171V9.12ZM153.339 7.12V12.772H157.339V7.12H153.339ZM154.115 11.1901L141.551 20.9101L143.998 24.0739L156.562 14.3539L154.115 11.1901ZM142.775 24.492H155.339V20.492H142.775V24.492ZM153.339 22.492V28H157.339V22.492H153.339ZM155.339 26H134.171V30H155.339V26ZM159.005 25.372L157.295 26.4086L159.005 25.372ZM159.005 9.748L157.295 8.7114L159.005 9.748ZM160.913 7.84L161.95 9.5504V9.55039L160.913 7.84ZM176.861 7.84L175.825 9.55039V9.5504L176.861 7.84ZM178.733 9.748L177 10.7459L177.011 10.7654L177.023 10.7846L178.733 9.748ZM179.453 20.332V22.332H181.453V20.332H179.453ZM163.793 20.332V18.332H161.793V20.332H163.793ZM163.793 22.492H161.793V24.492H163.793V22.492ZM179.453 22.492H181.453V20.492H179.453V22.492ZM179.453 28V30H181.453V28H179.453ZM163.793 15.508H161.793V17.508H163.793V15.508ZM173.945 15.508V17.508H175.945V15.508H173.945ZM173.945 12.628H175.945V10.628H173.945V12.628ZM163.793 12.628V10.628H161.793V12.628H163.793ZM163.505 26C162.931 26 162.426 25.858 161.95 25.5696L159.877 28.9904C160.985 29.662 162.208 30 163.505 30V26ZM161.95 25.5696C161.433 25.2566 161.029 24.8518 160.716 24.3354L157.295 26.4086C157.942 27.4762 158.809 28.3434 159.877 28.9904L161.95 25.5696ZM160.716 24.3354C160.427 23.8595 160.285 23.3546 160.285 22.78H156.285C156.285 24.0774 156.623 25.3005 157.295 26.4086L160.716 24.3354ZM160.285 22.78V12.34H156.285V22.78H160.285ZM160.285 12.34C160.285 11.7654 160.427 11.2605 160.716 10.7846L157.295 8.7114C156.623 9.81948 156.285 11.0426 156.285 12.34H160.285ZM160.716 10.7846C161.029 10.2682 161.433 9.86336 161.95 9.5504L159.877 6.1296C158.809 6.77664 157.942 7.64379 157.295 8.7114L160.716 10.7846ZM161.95 9.55039C162.426 9.26196 162.931 9.12 163.505 9.12V5.12C162.208 5.12 160.985 5.45804 159.877 6.12961L161.95 9.55039ZM163.505 9.12H174.233V5.12H163.505V9.12ZM174.233 9.12C174.842 9.12 175.357 9.26698 175.825 9.55039L177.898 6.12961C176.781 5.45302 175.545 5.12 174.233 5.12V9.12ZM175.825 9.5504C176.332 9.85793 176.715 10.2504 177 10.7459L180.466 8.75007C179.84 7.66155 178.974 6.78207 177.898 6.1296L175.825 9.5504ZM177.023 10.7846C177.311 11.2605 177.453 11.7654 177.453 12.34H181.453C181.453 11.0426 181.115 9.81948 180.444 8.71139L177.023 10.7846ZM177.453 12.34V20.332H181.453V12.34H177.453ZM179.453 18.332H163.793V22.332H179.453V18.332ZM161.793 20.332V22.492H165.793V20.332H161.793ZM163.793 24.492H179.453V20.492H163.793V24.492ZM177.453 22.492V28H181.453V22.492H177.453ZM179.453 26H163.505V30H179.453V26ZM163.793 17.508H173.945V13.508H163.793V17.508ZM175.945 15.508V12.628H171.945V15.508H175.945ZM173.945 10.628H163.793V14.628H173.945V10.628ZM161.793 12.628V15.508H165.793V12.628H161.793ZM197.801 35.488H195.801V37.488H197.801V35.488ZM197.801 29.944V27.944H195.801V29.944H197.801ZM210.185 29.944V31.944H212.185V29.944H210.185ZM210.185 28H212.185V26H210.185V28ZM195.209 25.372L196.919 24.3354L195.209 25.372ZM194.489 7.192V5.192H192.489V7.192H194.489ZM199.997 7.192H201.997V5.192H199.997V7.192ZM199.997 22.492H197.997V24.492H199.997V22.492ZM210.185 22.492V24.492H212.185V22.492H210.185ZM210.185 7.192V5.192H208.185V7.192H210.185ZM215.693 7.192H217.693V5.192H215.693V7.192ZM214.973 32.896L213.262 31.8594L213.251 31.8786L213.239 31.8981L214.973 32.896ZM213.101 34.768L212.103 33.0348L212.083 33.046L212.064 33.0576L213.101 34.768ZM199.801 35.488V29.944H195.801V35.488H199.801ZM197.801 31.944H210.185V27.944H197.801V31.944ZM212.185 29.944V28H208.185V29.944H212.185ZM210.185 26H199.745V30H210.185V26ZM199.745 26C199.136 26 198.621 25.853 198.153 25.5696L196.08 28.9904C197.196 29.667 198.433 30 199.745 30V26ZM198.153 25.5696C197.637 25.2566 197.232 24.8518 196.919 24.3354L193.498 26.4086C194.145 27.4762 195.012 28.3434 196.08 28.9904L198.153 25.5696ZM196.919 24.3354C196.631 23.8595 196.489 23.3546 196.489 22.78H192.489C192.489 24.0774 192.827 25.3005 193.498 26.4086L196.919 24.3354ZM196.489 22.78V7.192H192.489V22.78H196.489ZM194.489 9.192H199.997V5.192H194.489V9.192ZM197.997 7.192V22.492H201.997V7.192H197.997ZM199.997 24.492H210.185V20.492H199.997V24.492ZM212.185 22.492V7.192H208.185V22.492H212.185ZM210.185 9.192H215.693V5.192H210.185V9.192ZM213.693 7.192V30.268H217.693V7.192H213.693ZM213.693 30.268C213.693 30.8765 213.546 31.3918 213.262 31.8594L216.683 33.9326C217.36 32.8162 217.693 31.5795 217.693 30.268H213.693ZM213.239 31.8981C212.959 32.3844 212.589 32.7547 212.103 33.0348L214.098 36.5012C215.196 35.8693 216.074 34.9916 216.706 33.8939L213.239 31.8981ZM212.064 33.0576C211.596 33.341 211.081 33.488 210.473 33.488V37.488C211.784 37.488 213.021 37.155 214.137 36.4784L212.064 33.0576ZM210.473 33.488H197.801V37.488H210.473V33.488ZM219.263 25.372L217.553 26.4086L219.263 25.372ZM219.263 9.748L217.553 8.7114L219.263 9.748ZM221.171 7.84L222.208 9.5504V9.55039L221.171 7.84ZM237.119 7.84L236.082 9.55039V9.5504L237.119 7.84ZM238.991 9.748L237.258 10.7459L237.269 10.7654L237.281 10.7846L238.991 9.748ZM238.991 25.372L237.281 24.3354L237.269 24.3546L237.258 24.3741L238.991 25.372ZM224.051 22.492H222.051V24.492H224.051V22.492ZM234.203 22.492V24.492H236.203V22.492H234.203ZM234.203 12.628H236.203V10.628H234.203V12.628ZM224.051 12.628V10.628H222.051V12.628H224.051ZM223.763 26C223.188 26 222.684 25.858 222.208 25.5696L220.134 28.9904C221.243 29.662 222.466 30 223.763 30V26ZM222.208 25.5696C221.691 25.2566 221.286 24.8518 220.973 24.3354L217.553 26.4086C218.2 27.4762 219.067 28.3434 220.134 28.9904L222.208 25.5696ZM220.973 24.3354C220.685 23.8595 220.543 23.3546 220.543 22.78H216.543C216.543 24.0774 216.881 25.3005 217.553 26.4086L220.973 24.3354ZM220.543 22.78V12.34H216.543V22.78H220.543ZM220.543 12.34C220.543 11.7654 220.685 11.2605 220.973 10.7846L217.553 8.7114C216.881 9.81948 216.543 11.0426 216.543 12.34H220.543ZM220.973 10.7846C221.286 10.2682 221.691 9.86336 222.208 9.5504L220.134 6.1296C219.067 6.77664 218.2 7.64379 217.553 8.7114L220.973 10.7846ZM222.208 9.55039C222.684 9.26196 223.188 9.12 223.763 9.12V5.12C222.466 5.12 221.243 5.45804 220.134 6.12961L222.208 9.55039ZM223.763 9.12H234.491V5.12H223.763V9.12ZM234.491 9.12C235.1 9.12 235.615 9.26698 236.082 9.55039L238.156 6.12961C237.039 5.45302 235.803 5.12 234.491 5.12V9.12ZM236.082 9.5504C236.59 9.85793 236.973 10.2504 237.258 10.7459L240.724 8.75007C240.098 7.66155 239.232 6.78207 238.156 6.1296L236.082 9.5504ZM237.281 10.7846C237.569 11.2605 237.711 11.7654 237.711 12.34H241.711C241.711 11.0426 241.373 9.81948 240.701 8.71139L237.281 10.7846ZM237.711 12.34V22.78H241.711V12.34H237.711ZM237.711 22.78C237.711 23.3546 237.569 23.8595 237.281 24.3354L240.701 26.4086C241.373 25.3005 241.711 24.0774 241.711 22.78H237.711ZM237.258 24.3741C236.973 24.8696 236.59 25.2621 236.082 25.5696L238.156 28.9904C239.232 28.3379 240.098 27.4584 240.724 26.3699L237.258 24.3741ZM236.082 25.5696C235.615 25.853 235.1 26 234.491 26V30C235.803 30 237.039 29.667 238.156 28.9904L236.082 25.5696ZM234.491 26H223.763V30H234.491V26ZM224.051 24.492H234.203V20.492H224.051V24.492ZM236.203 22.492V12.628H232.203V22.492H236.203ZM234.203 10.628H224.051V14.628H234.203V10.628ZM222.051 12.628V22.492H226.051V12.628H222.051ZM245.148 27.28L244.112 28.9904L245.148 27.28ZM243.24 25.372L241.507 26.3699L241.518 26.3894L241.53 26.4086L243.24 25.372ZM242.556 7.12V5.12H240.556V7.12H242.556ZM248.064 7.12H250.064V5.12H248.064V7.12ZM248.064 22.492H246.064V24.492H248.064V22.492ZM258.216 22.492V24.492H260.216V22.492H258.216ZM258.216 7.12V5.12H256.216V7.12H258.216ZM263.724 7.12H265.724V5.12H263.724V7.12ZM263.004 25.372L261.294 24.3354L261.282 24.3546L261.271 24.3741L263.004 25.372ZM261.132 27.28L260.096 25.5696L261.132 27.28ZM247.776 26C247.168 26 246.653 25.853 246.185 25.5696L244.112 28.9904C245.228 29.667 246.465 30 247.776 30V26ZM246.185 25.5696C245.669 25.2566 245.264 24.8518 244.951 24.3354L241.53 26.4086C242.177 27.4762 243.044 28.3434 244.112 28.9904L246.185 25.5696ZM244.974 24.3741C244.697 23.8932 244.556 23.3746 244.556 22.78H240.556C240.556 24.0574 240.872 25.2668 241.507 26.3699L244.974 24.3741ZM244.556 22.78V7.12H240.556V22.78H244.556ZM242.556 9.12H248.064V5.12H242.556V9.12ZM246.064 7.12V22.492H250.064V7.12H246.064ZM248.064 24.492H258.216V20.492H248.064V24.492ZM260.216 22.492V7.12H256.216V22.492H260.216ZM258.216 9.12H263.724V5.12H258.216V9.12ZM261.724 7.12V22.78H265.724V7.12H261.724ZM261.724 22.78C261.724 23.3546 261.582 23.8595 261.294 24.3354L264.715 26.4086C265.386 25.3005 265.724 24.0774 265.724 22.78H261.724ZM261.271 24.3741C260.986 24.8696 260.603 25.2621 260.096 25.5696L262.169 28.9904C263.246 28.3379 264.111 27.4584 264.738 26.3699L261.271 24.3741ZM260.096 25.5696C259.628 25.853 259.113 26 258.504 26V30C259.816 30 261.053 29.667 262.169 28.9904L260.096 25.5696ZM258.504 26H247.776V30H258.504V26ZM267.552 28H265.552V30H267.552V28ZM270.18 7.84L271.216 9.5504V9.55039L270.18 7.84ZM284.328 7.12H286.328V5.12H284.328V7.12ZM284.328 12.628V14.628H286.328V12.628H284.328ZM273.06 12.628V10.628H271.06V12.628H273.06ZM273.06 28V30H275.06V28H273.06ZM269.552 28V12.34H265.552V28H269.552ZM269.552 12.34C269.552 11.7654 269.694 11.2605 269.982 10.7846L266.561 8.7114C265.89 9.81948 265.552 11.0426 265.552 12.34H269.552ZM269.982 10.7846C270.295 10.2682 270.7 9.86336 271.216 9.5504L269.143 6.1296C268.075 6.77664 267.208 7.64379 266.561 8.7114L269.982 10.7846ZM271.216 9.55039C271.684 9.26698 272.199 9.12 272.808 9.12V5.12C271.496 5.12 270.259 5.45302 269.143 6.12961L271.216 9.55039ZM272.808 9.12H284.328V5.12H272.808V9.12ZM282.328 7.12V12.628H286.328V7.12H282.328ZM284.328 10.628H273.06V14.628H284.328V10.628ZM271.06 12.628V28H275.06V12.628H271.06ZM273.06 26H267.552V30H273.06V26ZM298.246 28H296.246V30H298.246V28ZM298.246 2.08V0.079999H296.246V2.08H298.246ZM304.006 2.08L305.539 0.794974L304.94 0.079999H304.006V2.08ZM312.79 12.556L311.258 13.841L312.794 15.6725L314.326 13.8379L312.79 12.556ZM321.538 2.08V0.079999H320.603L320.003 0.798074L321.538 2.08ZM327.334 2.08H329.334V0.079999H327.334V2.08ZM327.334 28V30H329.334V28H327.334ZM321.718 28H319.718V30H321.718V28ZM321.718 10.612H323.718V5.1107L320.185 9.32756L321.718 10.612ZM312.79 21.268L311.262 22.558L312.796 24.3754L314.324 22.5524L312.79 21.268ZM303.826 10.648L305.355 9.35797L301.826 5.17781V10.648H303.826ZM303.826 28V30H305.826V28H303.826ZM300.246 28V2.08H296.246V28H300.246ZM298.246 4.08H304.006V0.079999H298.246V4.08ZM302.474 3.36502L311.258 13.841L314.323 11.271L305.539 0.794974L302.474 3.36502ZM314.326 13.8379L323.074 3.36192L320.003 0.798074L311.255 11.2741L314.326 13.8379ZM321.538 4.08H327.334V0.079999H321.538V4.08ZM325.334 2.08V28H329.334V2.08H325.334ZM327.334 26H321.718V30H327.334V26ZM323.718 28V10.612H319.718V28H323.718ZM320.185 9.32756L311.257 19.9836L314.324 22.5524L323.251 11.8964L320.185 9.32756ZM314.319 19.978L305.355 9.35797L302.298 11.938L311.262 22.558L314.319 19.978ZM301.826 10.648V28H305.826V10.648H301.826ZM303.826 26H298.246V30H303.826V26ZM331.501 28H329.501V30H331.501V28ZM331.501 7.12V5.12H329.501V7.12H331.501ZM337.009 7.12H339.009V5.12H337.009V7.12ZM337.009 28V30H339.009V28H337.009ZM331.501 5.824H329.501V7.824H331.501V5.824ZM331.501 0.279999V-1.72H329.501V0.279999H331.501ZM337.009 0.279999H339.009V-1.72H337.009V0.279999ZM337.009 5.824V7.824H339.009V5.824H337.009ZM333.501 28V7.12H329.501V28H333.501ZM331.501 9.12H337.009V5.12H331.501V9.12ZM335.009 7.12V28H339.009V7.12H335.009ZM337.009 26H331.501V30H337.009V26ZM333.501 5.824V0.279999H329.501V5.824H333.501ZM331.501 2.28H337.009V-1.72H331.501V2.28ZM335.009 0.279999V5.824H339.009V0.279999H335.009ZM337.009 3.824H331.501V7.824H337.009V3.824ZM343.445 27.28L342.409 28.9904L343.445 27.28ZM341.537 25.372L343.248 24.3354L341.537 25.372ZM340.817 0.243999V-1.756H338.817V0.243999H340.817ZM346.361 0.243999H348.361V-1.756H346.361V0.243999ZM346.361 22.492H344.361V24.492H346.361V22.492ZM350.573 22.492H352.573V20.492H350.573V22.492ZM350.573 28V30H352.573V28H350.573ZM346.037 26C345.463 26 344.958 25.858 344.482 25.5696L342.409 28.9904C343.517 29.662 344.74 30 346.037 30V26ZM344.482 25.5696C343.966 25.2566 343.561 24.8518 343.248 24.3354L339.827 26.4086C340.474 27.4762 341.341 28.3434 342.409 28.9904L344.482 25.5696ZM343.248 24.3354C342.959 23.8595 342.817 23.3546 342.817 22.78H338.817C338.817 24.0774 339.155 25.3005 339.827 26.4086L343.248 24.3354ZM342.817 22.78V0.243999H338.817V22.78H342.817ZM340.817 2.244H346.361V-1.756H340.817V2.244ZM344.361 0.243999V22.492H348.361V0.243999H344.361ZM346.361 24.492H350.573V20.492H346.361V24.492ZM348.573 22.492V28H352.573V22.492H348.573ZM350.573 26H346.037V30H350.573V26ZM354.017 25.372L352.307 26.4086L354.017 25.372ZM354.017 9.748L352.307 8.7114L354.017 9.748ZM355.925 7.84L356.962 9.5504V9.55039L355.925 7.84ZM371.873 7.84L370.836 9.55039V9.5504L371.873 7.84ZM373.745 9.748L372.012 10.7459L372.023 10.7654L372.035 10.7846L373.745 9.748ZM374.465 20.332V22.332H376.465V20.332H374.465ZM358.805 20.332V18.332H356.805V20.332H358.805ZM358.805 22.492H356.805V24.492H358.805V22.492ZM374.465 22.492H376.465V20.492H374.465V22.492ZM374.465 28V30H376.465V28H374.465ZM358.805 15.508H356.805V17.508H358.805V15.508ZM368.957 15.508V17.508H370.957V15.508H368.957ZM368.957 12.628H370.957V10.628H368.957V12.628ZM358.805 12.628V10.628H356.805V12.628H358.805ZM358.517 26C357.942 26 357.437 25.858 356.962 25.5696L354.888 28.9904C355.996 29.662 357.22 30 358.517 30V26ZM356.962 25.5696C356.445 25.2566 356.04 24.8518 355.727 24.3354L352.307 26.4086C352.954 27.4762 353.821 28.3434 354.888 28.9904L356.962 25.5696ZM355.727 24.3354C355.439 23.8595 355.297 23.3546 355.297 22.78H351.297C351.297 24.0774 351.635 25.3005 352.307 26.4086L355.727 24.3354ZM355.297 22.78V12.34H351.297V22.78H355.297ZM355.297 12.34C355.297 11.7654 355.439 11.2605 355.727 10.7846L352.307 8.7114C351.635 9.81948 351.297 11.0426 351.297 12.34H355.297ZM355.727 10.7846C356.04 10.2682 356.445 9.86336 356.962 9.5504L354.888 6.1296C353.821 6.77664 352.954 7.64379 352.307 8.7114L355.727 10.7846ZM356.962 9.55039C357.437 9.26196 357.942 9.12 358.517 9.12V5.12C357.22 5.12 355.996 5.45804 354.888 6.12961L356.962 9.55039ZM358.517 9.12H369.245V5.12H358.517V9.12ZM369.245 9.12C369.853 9.12 370.369 9.26698 370.836 9.55039L372.91 6.12961C371.793 5.45302 370.556 5.12 369.245 5.12V9.12ZM370.836 9.5504C371.344 9.85793 371.726 10.2504 372.012 10.7459L375.478 8.75007C374.851 7.66155 373.986 6.78207 372.91 6.1296L370.836 9.5504ZM372.035 10.7846C372.323 11.2605 372.465 11.7654 372.465 12.34H376.465C376.465 11.0426 376.127 9.81948 375.455 8.71139L372.035 10.7846ZM372.465 12.34V20.332H376.465V12.34H372.465ZM374.465 18.332H358.805V22.332H374.465V18.332ZM356.805 20.332V22.492H360.805V20.332H356.805ZM358.805 24.492H374.465V20.492H358.805V24.492ZM372.465 22.492V28H376.465V22.492H372.465ZM374.465 26H358.517V30H374.465V26ZM358.805 17.508H368.957V13.508H358.805V17.508ZM370.957 15.508V12.628H366.957V15.508H370.957ZM368.957 10.628H358.805V14.628H368.957V10.628ZM356.805 12.628V15.508H360.805V12.628H356.805ZM378.943 25.372L377.209 26.3699L377.221 26.3894L377.232 26.4086L378.943 25.372ZM378.259 14.788V12.788H376.259V14.788H378.259ZM393.919 14.788V16.788H395.919V14.788H393.919ZM393.919 12.628H395.919V10.628H393.919V12.628ZM378.259 12.628H376.259V14.628H378.259V12.628ZM378.259 7.12V5.12H376.259V7.12H378.259ZM396.835 7.84L395.798 9.55039V9.5504L396.835 7.84ZM398.707 9.748L396.973 10.7459L396.985 10.7654L396.996 10.7846L398.707 9.748ZM399.427 28V30H401.427V28H399.427ZM383.767 22.492H381.767V24.492H383.767V22.492ZM393.919 22.492V24.492H395.919V22.492H393.919ZM393.919 19.612H395.919V17.612H393.919V19.612ZM383.767 19.612V17.612H381.767V19.612H383.767ZM383.479 26C382.87 26 382.355 25.853 381.887 25.5696L379.814 28.9904C380.93 29.667 382.167 30 383.479 30V26ZM381.887 25.5696C381.371 25.2566 380.966 24.8518 380.653 24.3354L377.232 26.4086C377.879 27.4762 378.747 28.3434 379.814 28.9904L381.887 25.5696ZM380.676 24.3741C380.399 23.8932 380.259 23.3746 380.259 22.78H376.259C376.259 24.0574 376.574 25.2668 377.209 26.3699L380.676 24.3741ZM380.259 22.78V14.788H376.259V22.78H380.259ZM378.259 16.788H393.919V12.788H378.259V16.788ZM395.919 14.788V12.628H391.919V14.788H395.919ZM393.919 10.628H378.259V14.628H393.919V10.628ZM380.259 12.628V7.12H376.259V12.628H380.259ZM378.259 9.12H394.207V5.12H378.259V9.12ZM394.207 9.12C394.815 9.12 395.33 9.26698 395.798 9.55039L397.871 6.12961C396.755 5.45302 395.518 5.12 394.207 5.12V9.12ZM395.798 9.5504C396.306 9.85793 396.688 10.2504 396.973 10.7459L400.44 8.75007C399.813 7.66155 398.948 6.78207 397.871 6.1296L395.798 9.5504ZM396.996 10.7846C397.285 11.2605 397.427 11.7654 397.427 12.34H401.427C401.427 11.0426 401.089 9.81948 400.417 8.71139L396.996 10.7846ZM397.427 12.34V28H401.427V12.34H397.427ZM399.427 26H383.479V30H399.427V26ZM383.767 24.492H393.919V20.492H383.767V24.492ZM395.919 22.492V19.612H391.919V22.492H395.919ZM393.919 17.612H383.767V21.612H393.919V17.612ZM381.767 19.612V22.492H385.767V19.612H381.767ZM405.819 36.244H403.819V38.244H405.819V36.244ZM405.819 30.7V28.7H403.819V30.7H405.819ZM418.203 30.7V32.7H420.203V30.7H418.203ZM418.203 28H420.203V26H418.203V28ZM405.135 27.28L406.172 25.5696L405.135 27.28ZM403.227 25.372L404.938 24.3354L403.227 25.372ZM403.227 9.748L404.938 10.7846L403.227 9.748ZM405.135 7.84L406.172 9.5504V9.55039L405.135 7.84ZM421.119 7.84L420.083 9.55039V9.5504L421.119 7.84ZM422.991 9.748L421.258 10.7459L421.269 10.7654L421.281 10.7846L422.991 9.748ZM422.991 33.652L421.281 32.6154L421.269 32.6346L421.258 32.6541L422.991 33.652ZM421.119 35.524L420.121 33.7908L420.102 33.802L420.083 33.8136L421.119 35.524ZM408.015 22.492H406.015V24.492H408.015V22.492ZM418.203 22.492V24.492H420.203V22.492H418.203ZM418.203 12.628H420.203V10.628H418.203V12.628ZM408.015 12.628V10.628H406.015V12.628H408.015ZM407.819 36.244V30.7H403.819V36.244H407.819ZM405.819 32.7H418.203V28.7H405.819V32.7ZM420.203 30.7V28H416.203V30.7H420.203ZM418.203 26H407.763V30H418.203V26ZM407.763 26C407.155 26 406.639 25.853 406.172 25.5696L404.099 28.9904C405.215 29.667 406.452 30 407.763 30V26ZM406.172 25.5696C405.655 25.2566 405.251 24.8518 404.938 24.3354L401.517 26.4086C402.164 27.4762 403.031 28.3434 404.099 28.9904L406.172 25.5696ZM404.938 24.3354C404.649 23.8595 404.507 23.3546 404.507 22.78H400.507C400.507 24.0774 400.845 25.3005 401.517 26.4086L404.938 24.3354ZM404.507 22.78V12.34H400.507V22.78H404.507ZM404.507 12.34C404.507 11.7654 404.649 11.2605 404.938 10.7846L401.517 8.7114C400.845 9.81948 400.507 11.0426 400.507 12.34H404.507ZM404.938 10.7846C405.251 10.2682 405.655 9.86336 406.172 9.5504L404.099 6.1296C403.031 6.77664 402.164 7.64379 401.517 8.7114L404.938 10.7846ZM406.172 9.55039C406.639 9.26698 407.155 9.12 407.763 9.12V5.12C406.452 5.12 405.215 5.45302 404.099 6.12961L406.172 9.55039ZM407.763 9.12H418.491V5.12H407.763V9.12ZM418.491 9.12C419.1 9.12 419.615 9.26698 420.083 9.55039L422.156 6.12961C421.039 5.45302 419.803 5.12 418.491 5.12V9.12ZM420.083 9.5504C420.59 9.85793 420.973 10.2504 421.258 10.7459L424.724 8.75007C424.098 7.66155 423.232 6.78207 422.156 6.1296L420.083 9.5504ZM421.281 10.7846C421.569 11.2605 421.711 11.7654 421.711 12.34H425.711C425.711 11.0426 425.373 9.81948 424.702 8.71139L421.281 10.7846ZM421.711 12.34V31.024H425.711V12.34H421.711ZM421.711 31.024C421.711 31.6325 421.564 32.1478 421.281 32.6154L424.702 34.6886C425.378 33.5722 425.711 32.3355 425.711 31.024H421.711ZM421.258 32.6541C420.978 33.1404 420.608 33.5107 420.121 33.7908L422.117 37.2572C423.215 36.6253 424.092 35.7476 424.724 34.6499L421.258 32.6541ZM420.083 33.8136C419.615 34.097 419.1 34.244 418.491 34.244V38.244C419.803 38.244 421.039 37.911 422.156 37.2344L420.083 33.8136ZM418.491 34.244H405.819V38.244H418.491V34.244ZM408.015 24.492H418.203V20.492H408.015V24.492ZM420.203 22.492V12.628H416.203V22.492H420.203ZM418.203 10.628H408.015V14.628H418.203V10.628ZM406.015 12.628V22.492H410.015V12.628H406.015ZM427.353 25.372L425.642 26.4086L427.353 25.372ZM427.353 9.748L425.642 8.7114L427.353 9.748ZM429.261 7.84L430.297 9.5504V9.55039L429.261 7.84ZM445.209 7.84L444.172 9.55039V9.5504L445.209 7.84ZM447.081 9.748L445.348 10.7459L445.359 10.7654L445.37 10.7846L447.081 9.748ZM447.801 20.332V22.332H449.801V20.332H447.801ZM432.141 20.332V18.332H430.141V20.332H432.141ZM432.141 22.492H430.141V24.492H432.141V22.492ZM447.801 22.492H449.801V20.492H447.801V22.492ZM447.801 28V30H449.801V28H447.801ZM432.141 15.508H430.141V17.508H432.141V15.508ZM442.293 15.508V17.508H444.293V15.508H442.293ZM442.293 12.628H444.293V10.628H442.293V12.628ZM432.141 12.628V10.628H430.141V12.628H432.141ZM431.853 26C431.278 26 430.773 25.858 430.297 25.5696L428.224 28.9904C429.332 29.662 430.555 30 431.853 30V26ZM430.297 25.5696C429.781 25.2566 429.376 24.8518 429.063 24.3354L425.642 26.4086C426.29 27.4762 427.157 28.3434 428.224 28.9904L430.297 25.5696ZM429.063 24.3354C428.775 23.8595 428.633 23.3546 428.633 22.78H424.633C424.633 24.0774 424.971 25.3005 425.642 26.4086L429.063 24.3354ZM428.633 22.78V12.34H424.633V22.78H428.633ZM428.633 12.34C428.633 11.7654 428.775 11.2605 429.063 10.7846L425.642 8.7114C424.971 9.81948 424.633 11.0426 424.633 12.34H428.633ZM429.063 10.7846C429.376 10.2682 429.781 9.86336 430.297 9.5504L428.224 6.1296C427.157 6.77664 426.29 7.64379 425.642 8.7114L429.063 10.7846ZM430.297 9.55039C430.773 9.26196 431.278 9.12 431.853 9.12V5.12C430.555 5.12 429.332 5.45804 428.224 6.12961L430.297 9.55039ZM431.853 9.12H442.581V5.12H431.853V9.12ZM442.581 9.12C443.189 9.12 443.705 9.26698 444.172 9.55039L446.245 6.12961C445.129 5.45302 443.892 5.12 442.581 5.12V9.12ZM444.172 9.5504C444.68 9.85793 445.062 10.2504 445.348 10.7459L448.814 8.75007C448.187 7.66155 447.322 6.78207 446.245 6.1296L444.172 9.5504ZM445.37 10.7846C445.659 11.2605 445.801 11.7654 445.801 12.34H449.801C449.801 11.0426 449.463 9.81948 448.791 8.71139L445.37 10.7846ZM445.801 12.34V20.332H449.801V12.34H445.801ZM447.801 18.332H432.141V22.332H447.801V18.332ZM430.141 20.332V22.492H434.141V20.332H430.141ZM432.141 24.492H447.801V20.492H432.141V24.492ZM445.801 22.492V28H449.801V22.492H445.801ZM447.801 26H431.853V30H447.801V26ZM432.141 17.508H442.293V13.508H432.141V17.508ZM444.293 15.508V12.628H440.293V15.508H444.293ZM442.293 10.628H432.141V14.628H442.293V10.628ZM430.141 12.628V15.508H434.141V12.628H430.141ZM473.564 28L471.812 28.9638L472.382 30H473.564V28ZM462.08 7.12V5.12H458.698L460.328 8.08384L462.08 7.12ZM468.416 7.12L470.174 6.16581L469.606 5.12H468.416V7.12ZM475.94 20.98L474.183 21.9342L475.94 25.1721L477.698 21.9342L475.94 20.98ZM483.464 7.12V5.12H482.274L481.707 6.16581L483.464 7.12ZM489.8 7.12L491.551 8.08615L493.188 5.12H489.8V7.12ZM478.28 28V30H479.461L480.031 28.9662L478.28 28ZM475.317 27.0362L463.833 6.15616L460.328 8.08384L471.812 28.9638L475.317 27.0362ZM462.08 9.12H468.416V5.12H462.08V9.12ZM466.659 8.07418L474.183 21.9342L477.698 20.0258L470.174 6.16581L466.659 8.07418ZM477.698 21.9342L485.222 8.07418L481.707 6.16581L474.183 20.0258L477.698 21.9342ZM483.464 9.12H489.8V5.12H483.464V9.12ZM488.049 6.15384L476.529 27.0338L480.031 28.9662L491.551 8.08615L488.049 6.15384ZM478.28 26H473.564V30H478.28V26ZM491.161 25.372L489.428 26.3699L489.439 26.3894L489.451 26.4086L491.161 25.372ZM490.477 14.788V12.788H488.477V14.788H490.477ZM506.137 14.788V16.788H508.137V14.788H506.137ZM506.137 12.628H508.137V10.628H506.137V12.628ZM490.477 12.628H488.477V14.628H490.477V12.628ZM490.477 7.12V5.12H488.477V7.12H490.477ZM509.053 7.84L508.017 9.55039V9.5504L509.053 7.84ZM510.925 9.748L509.192 10.7459L509.203 10.7654L509.215 10.7846L510.925 9.748ZM511.645 28V30H513.645V28H511.645ZM495.985 22.492H493.985V24.492H495.985V22.492ZM506.137 22.492V24.492H508.137V22.492H506.137ZM506.137 19.612H508.137V17.612H506.137V19.612ZM495.985 19.612V17.612H493.985V19.612H495.985ZM495.697 26C495.089 26 494.574 25.853 494.106 25.5696L492.033 28.9904C493.149 29.667 494.386 30 495.697 30V26ZM494.106 25.5696C493.59 25.2566 493.185 24.8518 492.872 24.3354L489.451 26.4086C490.098 27.4762 490.965 28.3434 492.033 28.9904L494.106 25.5696ZM492.895 24.3741C492.618 23.8932 492.477 23.3746 492.477 22.78H488.477C488.477 24.0574 488.793 25.2668 489.428 26.3699L492.895 24.3741ZM492.477 22.78V14.788H488.477V22.78H492.477ZM490.477 16.788H506.137V12.788H490.477V16.788ZM508.137 14.788V12.628H504.137V14.788H508.137ZM506.137 10.628H490.477V14.628H506.137V10.628ZM492.477 12.628V7.12H488.477V12.628H492.477ZM490.477 9.12H506.425V5.12H490.477V9.12ZM506.425 9.12C507.034 9.12 507.549 9.26698 508.017 9.55039L510.09 6.12961C508.974 5.45302 507.737 5.12 506.425 5.12V9.12ZM508.017 9.5504C508.524 9.85793 508.907 10.2504 509.192 10.7459L512.659 8.75007C512.032 7.66155 511.167 6.78207 510.09 6.1296L508.017 9.5504ZM509.215 10.7846C509.504 11.2605 509.645 11.7654 509.645 12.34H513.645C513.645 11.0426 513.307 9.81948 512.636 8.71139L509.215 10.7846ZM509.645 12.34V28H513.645V12.34H509.645ZM511.645 26H495.697V30H511.645V26ZM495.985 24.492H506.137V20.492H495.985V24.492ZM508.137 22.492V19.612H504.137V22.492H508.137ZM506.137 17.612H495.985V21.612H506.137V17.612ZM493.985 19.612V22.492H497.985V19.612H493.985ZM517.152 27.28L516.116 28.9904L517.152 27.28ZM515.244 25.372L516.955 24.3354L515.244 25.372ZM514.524 0.243999V-1.756H512.524V0.243999H514.524ZM520.068 0.243999H522.068V-1.756H520.068V0.243999ZM520.068 22.492H518.068V24.492H520.068V22.492ZM524.28 22.492H526.28V20.492H524.28V22.492ZM524.28 28V30H526.28V28H524.28ZM519.744 26C519.17 26 518.665 25.858 518.189 25.5696L516.116 28.9904C517.224 29.662 518.447 30 519.744 30V26ZM518.189 25.5696C517.673 25.2566 517.268 24.8518 516.955 24.3354L513.534 26.4086C514.181 27.4762 515.048 28.3434 516.116 28.9904L518.189 25.5696ZM516.955 24.3354C516.666 23.8595 516.524 23.3546 516.524 22.78H512.524C512.524 24.0774 512.862 25.3005 513.534 26.4086L516.955 24.3354ZM516.524 22.78V0.243999H512.524V22.78H516.524ZM514.524 2.244H520.068V-1.756H514.524V2.244ZM518.068 0.243999V22.492H522.068V0.243999H518.068ZM520.068 24.492H524.28V20.492H520.068V24.492ZM522.28 22.492V28H526.28V22.492H522.28ZM524.28 26H519.744V30H524.28V26ZM529.668 27.28L528.631 28.9904L529.668 27.28ZM527.76 25.372L526.027 26.3699L526.038 26.3894L526.05 26.4086L527.76 25.372ZM527.076 7.12V5.12H525.076V7.12H527.076ZM532.584 7.12H534.584V5.12H532.584V7.12ZM532.584 22.492H530.584V24.492H532.584V22.492ZM542.736 22.492V24.492H544.736V22.492H542.736ZM542.736 7.12V5.12H540.736V7.12H542.736ZM548.244 7.12H550.244V5.12H548.244V7.12ZM547.524 25.372L545.814 24.3354L545.802 24.3546L545.791 24.3741L547.524 25.372ZM545.652 27.28L544.615 25.5696L545.652 27.28ZM532.296 26C531.687 26 531.172 25.853 530.705 25.5696L528.631 28.9904C529.748 29.667 530.984 30 532.296 30V26ZM530.705 25.5696C530.188 25.2566 529.783 24.8518 529.47 24.3354L526.05 26.4086C526.697 27.4762 527.564 28.3434 528.631 28.9904L530.705 25.5696ZM529.493 24.3741C529.216 23.8932 529.076 23.3746 529.076 22.78H525.076C525.076 24.0574 525.392 25.2668 526.027 26.3699L529.493 24.3741ZM529.076 22.78V7.12H525.076V22.78H529.076ZM527.076 9.12H532.584V5.12H527.076V9.12ZM530.584 7.12V22.492H534.584V7.12H530.584ZM532.584 24.492H542.736V20.492H532.584V24.492ZM544.736 22.492V7.12H540.736V22.492H544.736ZM542.736 9.12H548.244V5.12H542.736V9.12ZM546.244 7.12V22.78H550.244V7.12H546.244ZM546.244 22.78C546.244 23.3546 546.102 23.8595 545.814 24.3354L549.234 26.4086C549.906 25.3005 550.244 24.0774 550.244 22.78H546.244ZM545.791 24.3741C545.505 24.8696 545.123 25.2621 544.615 25.5696L546.689 28.9904C547.765 28.3379 548.63 27.4584 549.257 26.3699L545.791 24.3741ZM544.615 25.5696C544.148 25.853 543.633 26 543.024 26V30C544.335 30 545.572 29.667 546.689 28.9904L544.615 25.5696ZM543.024 26H532.296V30H543.024V26ZM551.876 25.372L550.166 26.4086L551.876 25.372ZM551.876 9.748L550.166 8.7114L551.876 9.748ZM553.784 7.84L554.821 9.5504V9.55039L553.784 7.84ZM569.732 7.84L568.696 9.55039L568.696 9.5504L569.732 7.84ZM571.604 9.748L569.871 10.7459L569.882 10.7654L569.894 10.7846L571.604 9.748ZM572.324 20.332V22.332H574.324V20.332H572.324ZM556.664 20.332V18.332H554.664V20.332H556.664ZM556.664 22.492H554.664V24.492H556.664V22.492ZM572.324 22.492H574.324V20.492H572.324V22.492ZM572.324 28V30H574.324V28H572.324ZM556.664 15.508H554.664V17.508H556.664V15.508ZM566.816 15.508V17.508H568.816V15.508H566.816ZM566.816 12.628H568.816V10.628H566.816V12.628ZM556.664 12.628V10.628H554.664V12.628H556.664ZM556.376 26C555.802 26 555.297 25.858 554.821 25.5696L552.748 28.9904C553.856 29.662 555.079 30 556.376 30V26ZM554.821 25.5696C554.305 25.2566 553.9 24.8518 553.587 24.3354L550.166 26.4086C550.813 27.4762 551.68 28.3434 552.748 28.9904L554.821 25.5696ZM553.587 24.3354C553.298 23.8595 553.156 23.3546 553.156 22.78H549.156C549.156 24.0774 549.494 25.3005 550.166 26.4086L553.587 24.3354ZM553.156 22.78V12.34H549.156V22.78H553.156ZM553.156 12.34C553.156 11.7654 553.298 11.2605 553.587 10.7846L550.166 8.7114C549.494 9.81948 549.156 11.0426 549.156 12.34H553.156ZM553.587 10.7846C553.9 10.2682 554.305 9.86336 554.821 9.5504L552.748 6.1296C551.68 6.77664 550.813 7.64379 550.166 8.7114L553.587 10.7846ZM554.821 9.55039C555.297 9.26196 555.802 9.12 556.376 9.12V5.12C555.079 5.12 553.856 5.45804 552.748 6.12961L554.821 9.55039ZM556.376 9.12H567.104V5.12H556.376V9.12ZM567.104 9.12C567.713 9.12 568.228 9.26698 568.696 9.55039L570.769 6.12961C569.653 5.45302 568.416 5.12 567.104 5.12V9.12ZM568.696 9.5504C569.203 9.85793 569.586 10.2504 569.871 10.7459L573.338 8.75007C572.711 7.66155 571.845 6.78207 570.769 6.1296L568.696 9.5504ZM569.894 10.7846C570.182 11.2605 570.324 11.7654 570.324 12.34H574.324C574.324 11.0426 573.986 9.81948 573.315 8.71139L569.894 10.7846ZM570.324 12.34V20.332H574.324V12.34H570.324ZM572.324 18.332H556.664V22.332H572.324V18.332ZM554.664 20.332V22.492H558.664V20.332H554.664ZM556.664 24.492H572.324V20.492H556.664V24.492ZM570.324 22.492V28H574.324V22.492H570.324ZM572.324 26H556.376V30H572.324V26ZM556.664 17.508H566.816V13.508H556.664V17.508ZM568.816 15.508V12.628H564.816V15.508H568.816ZM566.816 10.628H556.664V14.628H566.816V10.628ZM554.664 12.628V15.508H558.664V12.628H554.664ZM595.316 28L593.454 28.7317L593.953 30H595.316V28ZM587.108 7.12V5.12H584.172L585.246 7.8517L587.108 7.12ZM592.94 7.12L594.787 6.35295L594.275 5.12H592.94V7.12ZM597.44 17.956L595.593 18.7231L597.397 23.0669L599.273 18.7541L597.44 17.956ZM602.156 7.12V5.12H600.845L600.322 6.32188L602.156 7.12ZM607.484 7.12L609.301 6.28566L608.766 5.12H607.484V7.12ZM612.524 18.1L610.706 18.9343L612.697 23.2712L614.393 18.811L612.524 18.1ZM616.7 7.12V5.12H615.321L614.83 6.40903L616.7 7.12ZM622.532 7.12L624.404 7.82366L625.42 5.12H622.532V7.12ZM614.684 28V30H616.069L616.556 28.7037L614.684 28ZM610.508 28L608.686 28.8264L609.219 30H610.508V28ZM604.856 15.544L606.677 14.7176L604.814 10.612L603.021 14.7485L604.856 15.544ZM599.456 28V30H600.768L601.291 28.7955L599.456 28ZM597.177 27.2683L588.969 6.3883L585.246 7.8517L593.454 28.7317L597.177 27.2683ZM587.108 9.12H592.94V5.12H587.108V9.12ZM591.093 7.88705L595.593 18.7231L599.287 17.1889L594.787 6.35295L591.093 7.88705ZM599.273 18.7541L603.99 7.91812L600.322 6.32188L595.606 17.1579L599.273 18.7541ZM602.156 9.12H607.484V5.12H602.156V9.12ZM605.666 7.95433L610.706 18.9343L614.341 17.2657L609.301 6.28566L605.666 7.95433ZM614.393 18.811L618.569 7.83097L614.83 6.40903L610.654 17.389L614.393 18.811ZM616.7 9.12H622.532V5.12H616.7V9.12ZM620.66 6.41634L612.812 27.2963L616.556 28.7037L624.404 7.82366L620.66 6.41634ZM614.684 26H610.508V30H614.684V26ZM612.329 27.1736L606.677 14.7176L603.034 16.3704L608.686 28.8264L612.329 27.1736ZM603.021 14.7485L597.621 27.2045L601.291 28.7955L606.691 16.3395L603.021 14.7485ZM599.456 26H595.316V30H599.456V26ZM624.915 28H622.915V30H624.915V28ZM624.915 7.12V5.12H622.915V7.12H624.915ZM630.423 7.12H632.423V5.12H630.423V7.12ZM630.423 28V30H632.423V28H630.423ZM624.915 5.824H622.915V7.824H624.915V5.824ZM624.915 0.279999V-1.72H622.915V0.279999H624.915ZM630.423 0.279999H632.423V-1.72H630.423V0.279999ZM630.423 5.824V7.824H632.423V5.824H630.423ZM626.915 28V7.12H622.915V28H626.915ZM624.915 9.12H630.423V5.12H624.915V9.12ZM628.423 7.12V28H632.423V7.12H628.423ZM630.423 26H624.915V30H630.423V26ZM626.915 5.824V0.279999H622.915V5.824H626.915ZM624.915 2.28H630.423V-1.72H624.915V2.28ZM628.423 0.279999V5.824H632.423V0.279999H628.423ZM630.423 3.824H624.915V7.824H630.423V3.824ZM636.509 27.28L635.472 28.9904L636.509 27.28ZM634.601 25.372L636.311 24.3354L634.601 25.372ZM633.881 0.927999V-1.072H631.881V0.927999H633.881ZM639.389 0.927999H641.389V-1.072H639.389V0.927999ZM639.389 7.12H637.389V9.12H639.389V7.12ZM647.129 7.12H649.129V5.12H647.129V7.12ZM647.129 12.628V14.628H649.129V12.628H647.129ZM639.389 12.628V10.628H637.389V12.628H639.389ZM639.389 22.492H637.389V24.492H639.389V22.492ZM647.129 22.492H649.129V20.492H647.129V22.492ZM647.129 28V30H649.129V28H647.129ZM639.137 26C638.528 26 638.013 25.853 637.545 25.5696L635.472 28.9904C636.588 29.667 637.825 30 639.137 30V26ZM637.545 25.5696C637.029 25.2566 636.624 24.8518 636.311 24.3354L632.89 26.4086C633.537 27.4762 634.404 28.3434 635.472 28.9904L637.545 25.5696ZM636.311 24.3354C636.023 23.8595 635.881 23.3546 635.881 22.78H631.881C631.881 24.0774 632.219 25.3005 632.89 26.4086L636.311 24.3354ZM635.881 22.78V0.927999H631.881V22.78H635.881ZM633.881 2.928H639.389V-1.072H633.881V2.928ZM637.389 0.927999V7.12H641.389V0.927999H637.389ZM639.389 9.12H647.129V5.12H639.389V9.12ZM645.129 7.12V12.628H649.129V7.12H645.129ZM647.129 10.628H639.389V14.628H647.129V10.628ZM637.389 12.628V22.492H641.389V12.628H637.389ZM639.389 24.492H647.129V20.492H639.389V24.492ZM645.129 22.492V28H649.129V22.492H645.129ZM647.129 26H639.137V30H647.129V26ZM650.862 28H648.862V30H650.862V28ZM650.862 0.279999V-1.72H648.862V0.279999H650.862ZM656.37 0.279999H658.37V-1.72H656.37V0.279999ZM656.37 7.12H654.37V9.12H656.37V7.12ZM669.402 7.84L668.365 9.55039V9.5504L669.402 7.84ZM672.03 28V30H674.03V28H672.03ZM666.522 28H664.522V30H666.522V28ZM666.522 12.628H668.522V10.628H666.522V12.628ZM656.37 12.628V10.628H654.37V12.628H656.37ZM656.37 28V30H658.37V28H656.37ZM652.862 28V0.279999H648.862V28H652.862ZM650.862 2.28H656.37V-1.72H650.862V2.28ZM654.37 0.279999V7.12H658.37V0.279999H654.37ZM656.37 9.12H666.81V5.12H656.37V9.12ZM666.81 9.12C667.385 9.12 667.889 9.26196 668.365 9.55039L670.439 6.12961C669.331 5.45804 668.107 5.12 666.81 5.12V9.12ZM668.365 9.5504C668.882 9.86337 669.287 10.2682 669.6 10.7846L673.02 8.7114C672.373 7.64379 671.506 6.77663 670.439 6.1296L668.365 9.5504ZM669.6 10.7846C669.888 11.2605 670.03 11.7654 670.03 12.34H674.03C674.03 11.0426 673.692 9.81948 673.02 8.7114L669.6 10.7846ZM670.03 12.34V28H674.03V12.34H670.03ZM672.03 26H666.522V30H672.03V26ZM668.522 28V12.628H664.522V28H668.522ZM666.522 10.628H656.37V14.628H666.522V10.628ZM654.37 12.628V28H658.37V12.628H654.37ZM656.37 26H650.862V30H656.37V26ZM686.69 28H684.69V30H686.69V28ZM686.69 2.08V0.079999H684.69V2.08H686.69ZM708.902 2.8L707.866 4.5104L707.877 4.5172L707.888 4.52387L708.902 2.8ZM710.846 4.744L709.123 5.75804L709.14 5.78821L709.159 5.81775L710.846 4.744ZM711.53 13.168L709.558 12.8392L709.545 12.9127L709.539 12.9869L711.53 13.168ZM711.35 13.924L709.493 13.1812L709.064 14.2553L709.781 15.1633L711.35 13.924ZM712.25 15.508L710.393 16.2508V16.2508L712.25 15.508ZM711.854 25.336L710.153 24.285L710.141 24.3034L710.131 24.322L711.854 25.336ZM709.91 27.28L708.896 25.5561L708.885 25.5628L708.874 25.5696L709.91 27.28ZM692.27 22.384H690.27V24.384H692.27V22.384ZM706.958 22.384V24.384H708.958V22.384H706.958ZM706.958 17.632H708.958V15.632H706.958V17.632ZM692.27 17.632V15.632H690.27V17.632H692.27ZM692.27 12.016H690.27V14.016H692.27V12.016ZM705.95 12.016V14.016H707.95V12.016H705.95ZM705.95 7.696H707.95V5.696H705.95V7.696ZM692.27 7.696V5.696H690.27V7.696H692.27ZM688.69 28V2.08H684.69V28H688.69ZM686.69 4.08H706.274V0.079999H686.69V4.08ZM706.274 4.08C706.883 4.08 707.398 4.22698 707.866 4.5104L709.939 1.0896C708.823 0.41302 707.586 0.079999 706.274 0.079999V4.08ZM707.888 4.52387C708.411 4.83145 708.815 5.23515 709.123 5.75804L712.57 3.72996C711.918 2.62085 711.026 1.72855 709.916 1.07613L707.888 4.52387ZM709.159 5.81775C709.449 6.27299 709.602 6.78512 709.602 7.408H713.602C713.602 6.06288 713.252 4.79901 712.534 3.67025L709.159 5.81775ZM709.602 7.408V12.268H713.602V7.408H709.602ZM709.602 12.268C709.602 12.4773 709.586 12.667 709.558 12.8392L713.503 13.4968C713.57 13.093 713.602 12.6827 713.602 12.268H709.602ZM709.539 12.9869C709.532 13.0631 709.516 13.1255 709.493 13.1812L713.207 14.6668C713.377 14.2425 713.481 13.8009 713.522 13.3491L709.539 12.9869ZM709.781 15.1633C710.009 15.4526 710.217 15.8094 710.393 16.2508L714.107 14.7652C713.804 14.0066 713.412 13.3074 712.92 12.6847L709.781 15.1633ZM710.393 16.2508C710.546 16.6329 710.61 16.9815 710.61 17.308H714.61C714.61 16.4345 714.435 15.5831 714.107 14.7652L710.393 16.2508ZM710.61 17.308V22.672H714.61V17.308H710.61ZM710.61 22.672C710.61 23.2611 710.462 23.7852 710.153 24.285L713.556 26.387C714.255 25.2548 714.61 24.0029 714.61 22.672H710.61ZM710.131 24.322C709.823 24.8449 709.419 25.2485 708.896 25.5561L710.924 29.0039C712.034 28.3515 712.926 27.4591 713.578 26.35L710.131 24.322ZM708.874 25.5696C708.414 25.8482 707.889 26 707.246 26V30C708.572 30 709.823 29.6718 710.947 28.9904L708.874 25.5696ZM707.246 26H686.69V30H707.246V26ZM692.27 24.384H706.958V20.384H692.27V24.384ZM708.958 22.384V17.632H704.958V22.384H708.958ZM706.958 15.632H692.27V19.632H706.958V15.632ZM690.27 17.632V22.384H694.27V17.632H690.27ZM692.27 14.016H705.95V10.016H692.27V14.016ZM707.95 12.016V7.696H703.95V12.016H707.95ZM705.95 5.696H692.27V9.696H705.95V5.696ZM690.27 7.696V12.016H694.27V7.696H690.27ZM717.076 25.372L715.342 26.3699L715.354 26.3894L715.365 26.4086L717.076 25.372ZM716.392 14.788V12.788H714.392V14.788H716.392ZM732.052 14.788V16.788H734.052V14.788H732.052ZM732.052 12.628H734.052V10.628H732.052V12.628ZM716.392 12.628H714.392V14.628H716.392V12.628ZM716.392 7.12V5.12H714.392V7.12H716.392ZM734.968 7.84L733.931 9.55039V9.5504L734.968 7.84ZM736.84 9.748L735.106 10.7459L735.117 10.7654L735.129 10.7846L736.84 9.748ZM737.56 28V30H739.56V28H737.56ZM721.9 22.492H719.9V24.492H721.9V22.492ZM732.052 22.492V24.492H734.052V22.492H732.052ZM732.052 19.612H734.052V17.612H732.052V19.612ZM721.9 19.612V17.612H719.9V19.612H721.9ZM721.612 26C721.003 26 720.488 25.853 720.02 25.5696L717.947 28.9904C719.063 29.667 720.3 30 721.612 30V26ZM720.02 25.5696C719.504 25.2566 719.099 24.8518 718.786 24.3354L715.365 26.4086C716.012 27.4762 716.879 28.3434 717.947 28.9904L720.02 25.5696ZM718.809 24.3741C718.532 23.8932 718.392 23.3746 718.392 22.78H714.392C714.392 24.0574 714.707 25.2668 715.342 26.3699L718.809 24.3741ZM718.392 22.78V14.788H714.392V22.78H718.392ZM716.392 16.788H732.052V12.788H716.392V16.788ZM734.052 14.788V12.628H730.052V14.788H734.052ZM732.052 10.628H716.392V14.628H732.052V10.628ZM718.392 12.628V7.12H714.392V12.628H718.392ZM716.392 9.12H732.34V5.12H716.392V9.12ZM732.34 9.12C732.948 9.12 733.463 9.26698 733.931 9.55039L736.004 6.12961C734.888 5.45302 733.651 5.12 732.34 5.12V9.12ZM733.931 9.5504C734.438 9.85793 734.821 10.2504 735.106 10.7459L738.573 8.75007C737.946 7.66155 737.081 6.78207 736.004 6.1296L733.931 9.5504ZM735.129 10.7846C735.418 11.2605 735.56 11.7654 735.56 12.34H739.56C739.56 11.0426 739.221 9.81948 738.55 8.71139L735.129 10.7846ZM735.56 12.34V28H739.56V12.34H735.56ZM737.56 26H721.612V30H737.56V26ZM721.9 24.492H732.052V20.492H721.9V24.492ZM734.052 22.492V19.612H730.052V22.492H734.052ZM732.052 17.612H721.9V21.612H732.052V17.612ZM719.9 19.612V22.492H723.9V19.612H719.9ZM740.405 28H738.405V30H740.405V28ZM740.405 0.279999V-1.72H738.405V0.279999H740.405ZM745.913 0.279999H747.913V-1.72H745.913V0.279999ZM745.913 7.12H743.913V9.12H745.913V7.12ZM758.981 7.84L757.944 9.5504L758.981 7.84ZM760.853 9.748L759.12 10.7459L759.131 10.7654L759.143 10.7846L760.853 9.748ZM760.853 25.372L759.143 24.3354L759.131 24.3546L759.12 24.3741L760.853 25.372ZM758.981 27.28L760.018 28.9904L758.981 27.28ZM745.913 22.492H743.913V24.492H745.913V22.492ZM756.065 22.492V24.492H758.065V22.492H756.065ZM756.065 12.628H758.065V10.628H756.065V12.628ZM745.913 12.628V10.628H743.913V12.628H745.913ZM742.405 28V0.279999H738.405V28H742.405ZM740.405 2.28H745.913V-1.72H740.405V2.28ZM743.913 0.279999V7.12H747.913V0.279999H743.913ZM745.913 9.12H756.353V5.12H745.913V9.12ZM756.353 9.12C756.961 9.12 757.477 9.26698 757.944 9.5504L760.018 6.1296C758.901 5.45302 757.664 5.12 756.353 5.12V9.12ZM757.944 9.5504C758.452 9.85793 758.834 10.2504 759.12 10.7459L762.586 8.75007C761.959 7.66155 761.094 6.78207 760.018 6.1296L757.944 9.5504ZM759.143 10.7846C759.431 11.2605 759.573 11.7654 759.573 12.34H763.573C763.573 11.0426 763.235 9.81948 762.563 8.7114L759.143 10.7846ZM759.573 12.34V22.78H763.573V12.34H759.573ZM759.573 22.78C759.573 23.3546 759.431 23.8595 759.143 24.3354L762.563 26.4086C763.235 25.3005 763.573 24.0774 763.573 22.78H759.573ZM759.12 24.3741C758.834 24.8696 758.452 25.2621 757.944 25.5696L760.018 28.9904C761.094 28.3379 761.959 27.4584 762.586 26.3699L759.12 24.3741ZM757.944 25.5696C757.477 25.853 756.961 26 756.353 26V30C757.664 30 758.901 29.667 760.018 28.9904L757.944 25.5696ZM756.353 26H740.405V30H756.353V26ZM745.913 24.492H756.065V20.492H745.913V24.492ZM758.065 22.492V12.628H754.065V22.492H758.065ZM756.065 10.628H745.913V14.628H756.065V10.628ZM743.913 12.628V22.492H747.913V12.628H743.913ZM767.297 35.488H765.297V37.488H767.297V35.488ZM767.297 29.944V27.944H765.297V29.944H767.297ZM779.681 29.944V31.944H781.681V29.944H779.681ZM779.681 28H781.681V26H779.681V28ZM764.705 25.372L766.415 24.3354L764.705 25.372ZM763.985 7.192V5.192H761.985V7.192H763.985ZM769.493 7.192H771.493V5.192H769.493V7.192ZM769.493 22.492H767.493V24.492H769.493V22.492ZM779.681 22.492V24.492H781.681V22.492H779.681ZM779.681 7.192V5.192H777.681V7.192H779.681ZM785.189 7.192H787.189V5.192H785.189V7.192ZM784.469 32.896L782.758 31.8594L782.747 31.8786L782.735 31.8981L784.469 32.896ZM782.597 34.768L781.599 33.0348L781.579 33.046L781.56 33.0576L782.597 34.768ZM769.297 35.488V29.944H765.297V35.488H769.297ZM767.297 31.944H779.681V27.944H767.297V31.944ZM781.681 29.944V28H777.681V29.944H781.681ZM779.681 26H769.241V30H779.681V26ZM769.241 26C768.632 26 768.117 25.853 767.649 25.5696L765.576 28.9904C766.692 29.667 767.929 30 769.241 30V26ZM767.649 25.5696C767.133 25.2566 766.728 24.8518 766.415 24.3354L762.994 26.4086C763.641 27.4762 764.508 28.3434 765.576 28.9904L767.649 25.5696ZM766.415 24.3354C766.127 23.8595 765.985 23.3546 765.985 22.78H761.985C761.985 24.0774 762.323 25.3005 762.994 26.4086L766.415 24.3354ZM765.985 22.78V7.192H761.985V22.78H765.985ZM763.985 9.192H769.493V5.192H763.985V9.192ZM767.493 7.192V22.492H771.493V7.192H767.493ZM769.493 24.492H779.681V20.492H769.493V24.492ZM781.681 22.492V7.192H777.681V22.492H781.681ZM779.681 9.192H785.189V5.192H779.681V9.192ZM783.189 7.192V30.268H787.189V7.192H783.189ZM783.189 30.268C783.189 30.8765 783.042 31.3918 782.758 31.8594L786.179 33.9326C786.856 32.8162 787.189 31.5795 787.189 30.268H783.189ZM782.735 31.8981C782.455 32.3844 782.085 32.7547 781.599 33.0348L783.595 36.5012C784.692 35.8693 785.57 34.9916 786.202 33.8939L782.735 31.8981ZM781.56 33.0576C781.092 33.341 780.577 33.488 779.969 33.488V37.488C781.28 37.488 782.517 37.155 783.633 36.4784L781.56 33.0576ZM779.969 33.488H767.297V37.488H779.969V33.488ZM800.735 28H798.735V30H800.735V28ZM800.735 2.08V0.079999H798.735V2.08H800.735ZM806.495 2.08L808.027 0.794974L807.428 0.079999H806.495V2.08ZM815.279 12.556L813.746 13.841L815.282 15.6725L816.814 13.8379L815.279 12.556ZM824.027 2.08V0.079999H823.091L822.492 0.798074L824.027 2.08ZM829.823 2.08H831.823V0.079999H829.823V2.08ZM829.823 28V30H831.823V28H829.823ZM824.207 28H822.207V30H824.207V28ZM824.207 10.612H826.207V5.1107L822.674 9.32756L824.207 10.612ZM815.279 21.268L813.75 22.558L815.284 24.3754L816.812 22.5524L815.279 21.268ZM806.315 10.648L807.843 9.35797L804.315 5.17781V10.648H806.315ZM806.315 28V30H808.315V28H806.315ZM802.735 28V2.08H798.735V28H802.735ZM800.735 4.08H806.495V0.079999H800.735V4.08ZM804.962 3.36502L813.746 13.841L816.811 11.271L808.027 0.794974L804.962 3.36502ZM816.814 13.8379L825.562 3.36192L822.492 0.798074L813.744 11.2741L816.814 13.8379ZM824.027 4.08H829.823V0.079999H824.027V4.08ZM827.823 2.08V28H831.823V2.08H827.823ZM829.823 26H824.207V30H829.823V26ZM826.207 28V10.612H822.207V28H826.207ZM822.674 9.32756L813.746 19.9836L816.812 22.5524L825.74 11.8964L822.674 9.32756ZM816.807 19.978L807.843 9.35797L804.786 11.938L813.75 22.558L816.807 19.978ZM804.315 10.648V28H808.315V10.648H804.315ZM806.315 26H800.735V30H806.315V26ZM834.673 25.372L832.963 26.4086L834.673 25.372ZM834.673 9.748L832.963 8.7114L834.673 9.748ZM836.581 7.84L837.618 9.5504V9.55039L836.581 7.84ZM852.529 7.84L851.493 9.55039L851.493 9.5504L852.529 7.84ZM854.401 9.748L852.668 10.7459L852.679 10.7654L852.691 10.7846L854.401 9.748ZM855.121 20.332V22.332H857.121V20.332H855.121ZM839.461 20.332V18.332H837.461V20.332H839.461ZM839.461 22.492H837.461V24.492H839.461V22.492ZM855.121 22.492H857.121V20.492H855.121V22.492ZM855.121 28V30H857.121V28H855.121ZM839.461 15.508H837.461V17.508H839.461V15.508ZM849.613 15.508V17.508H851.613V15.508H849.613ZM849.613 12.628H851.613V10.628H849.613V12.628ZM839.461 12.628V10.628H837.461V12.628H839.461ZM839.173 26C838.599 26 838.094 25.858 837.618 25.5696L835.545 28.9904C836.653 29.662 837.876 30 839.173 30V26ZM837.618 25.5696C837.101 25.2566 836.697 24.8518 836.384 24.3354L832.963 26.4086C833.61 27.4762 834.477 28.3434 835.545 28.9904L837.618 25.5696ZM836.384 24.3354C836.095 23.8595 835.953 23.3546 835.953 22.78H831.953C831.953 24.0774 832.291 25.3005 832.963 26.4086L836.384 24.3354ZM835.953 22.78V12.34H831.953V22.78H835.953ZM835.953 12.34C835.953 11.7654 836.095 11.2605 836.384 10.7846L832.963 8.7114C832.291 9.81948 831.953 11.0426 831.953 12.34H835.953ZM836.384 10.7846C836.697 10.2682 837.101 9.86336 837.618 9.5504L835.545 6.1296C834.477 6.77664 833.61 7.64379 832.963 8.7114L836.384 10.7846ZM837.618 9.55039C838.094 9.26196 838.599 9.12 839.173 9.12V5.12C837.876 5.12 836.653 5.45804 835.545 6.12961L837.618 9.55039ZM839.173 9.12H849.901V5.12H839.173V9.12ZM849.901 9.12C850.51 9.12 851.025 9.26698 851.493 9.55039L853.566 6.12961C852.449 5.45302 851.213 5.12 849.901 5.12V9.12ZM851.493 9.5504C852 9.85793 852.383 10.2504 852.668 10.7459L856.134 8.75007C855.508 7.66155 854.642 6.78207 853.566 6.1296L851.493 9.5504ZM852.691 10.7846C852.979 11.2605 853.121 11.7654 853.121 12.34H857.121C857.121 11.0426 856.783 9.81948 856.112 8.71139L852.691 10.7846ZM853.121 12.34V20.332H857.121V12.34H853.121ZM855.121 18.332H839.461V22.332H855.121V18.332ZM837.461 20.332V22.492H841.461V20.332H837.461ZM839.461 24.492H855.121V20.492H839.461V24.492ZM853.121 22.492V28H857.121V22.492H853.121ZM855.121 26H839.173V30H855.121V26ZM839.461 17.508H849.613V13.508H839.461V17.508ZM851.613 15.508V12.628H847.613V15.508H851.613ZM849.613 10.628H839.461V14.628H849.613V10.628ZM837.461 12.628V15.508H841.461V12.628H837.461ZM858.669 28H856.669V30H858.669V28ZM861.297 7.84L862.333 9.5504V9.55039L861.297 7.84ZM875.445 7.12H877.445V5.12H875.445V7.12ZM875.445 12.628V14.628H877.445V12.628H875.445ZM864.177 12.628V10.628H862.177V12.628H864.177ZM864.177 28V30H866.177V28H864.177ZM860.669 28V12.34H856.669V28H860.669ZM860.669 12.34C860.669 11.7654 860.811 11.2605 861.099 10.7846L857.678 8.7114C857.007 9.81948 856.669 11.0426 856.669 12.34H860.669ZM861.099 10.7846C861.412 10.2682 861.817 9.86336 862.333 9.5504L860.26 6.1296C859.193 6.77664 858.326 7.64379 857.678 8.7114L861.099 10.7846ZM862.333 9.55039C862.801 9.26698 863.316 9.12 863.925 9.12V5.12C862.613 5.12 861.377 5.45302 860.26 6.12961L862.333 9.55039ZM863.925 9.12H875.445V5.12H863.925V9.12ZM873.445 7.12V12.628H877.445V7.12H873.445ZM875.445 10.628H864.177V14.628H875.445V10.628ZM862.177 12.628V28H866.177V12.628H862.177ZM864.177 26H858.669V30H864.177V26ZM878.302 25.372L876.592 26.4086L878.302 25.372ZM878.302 9.748L876.592 8.7114L878.302 9.748ZM880.21 7.84L881.247 9.5504V9.55039L880.21 7.84ZM898.714 7.12H900.714V5.12H898.714V7.12ZM898.714 12.628V14.628H900.714V12.628H898.714ZM883.09 12.628V10.628H881.09V12.628H883.09ZM883.09 22.492H881.09V24.492H883.09V22.492ZM898.75 22.492H900.75V20.492H898.75V22.492ZM898.75 28V30H900.75V28H898.75ZM882.802 26C882.227 26 881.723 25.858 881.247 25.5696L879.173 28.9904C880.282 29.662 881.505 30 882.802 30V26ZM881.247 25.5696C880.73 25.2566 880.325 24.8518 880.013 24.3354L876.592 26.4086C877.239 27.4762 878.106 28.3434 879.173 28.9904L881.247 25.5696ZM880.013 24.3354C879.724 23.8595 879.582 23.3546 879.582 22.78H875.582C875.582 24.0774 875.92 25.3005 876.592 26.4086L880.013 24.3354ZM879.582 22.78V12.34H875.582V22.78H879.582ZM879.582 12.34C879.582 11.7654 879.724 11.2605 880.013 10.7846L876.592 8.7114C875.92 9.81948 875.582 11.0426 875.582 12.34H879.582ZM880.013 10.7846C880.325 10.2682 880.73 9.86336 881.247 9.5504L879.173 6.1296C878.106 6.77664 877.239 7.64379 876.592 8.7114L880.013 10.7846ZM881.247 9.55039C881.723 9.26196 882.227 9.12 882.802 9.12V5.12C881.505 5.12 880.282 5.45804 879.173 6.12961L881.247 9.55039ZM882.802 9.12H898.714V5.12H882.802V9.12ZM896.714 7.12V12.628H900.714V7.12H896.714ZM898.714 10.628H883.09V14.628H898.714V10.628ZM881.09 12.628V22.492H885.09V12.628H881.09ZM883.09 24.492H898.75V20.492H883.09V24.492ZM896.75 22.492V28H900.75V22.492H896.75ZM898.75 26H882.802V30H898.75V26ZM905.133 27.28L904.097 28.9904L905.133 27.28ZM903.225 25.372L904.936 24.3354L903.225 25.372ZM902.505 21.736V19.736H900.505V21.736H902.505ZM908.013 21.736H910.013V19.736H908.013V21.736ZM908.013 22.492H906.013V24.492H908.013V22.492ZM918.165 22.492V24.492H920.165V22.492H918.165ZM918.165 20.332H920.165V18.332H918.165V20.332ZM905.133 19.612L904.097 21.3224L905.133 19.612ZM905.133 7.84L906.17 9.5504V9.55039L905.133 7.84ZM921.081 7.84L920.045 9.55039V9.5504L921.081 7.84ZM922.989 9.748L924.7 8.7114V8.71139L922.989 9.748ZM923.709 13.384V15.384H925.709V13.384H923.709ZM918.165 13.384H916.165V15.384H918.165V13.384ZM918.165 12.628H920.165V10.628H918.165V12.628ZM908.013 12.628V10.628H906.013V12.628H908.013ZM908.013 14.788H906.013V16.788H908.013V14.788ZM921.081 15.508L920.045 17.2184L921.081 15.508ZM922.989 17.416L924.7 16.3794L922.989 17.416ZM922.989 25.372L924.7 26.4086L922.989 25.372ZM907.725 26C907.151 26 906.646 25.858 906.17 25.5696L904.097 28.9904C905.205 29.662 906.428 30 907.725 30V26ZM906.17 25.5696C905.654 25.2566 905.249 24.8518 904.936 24.3354L901.515 26.4086C902.162 27.4762 903.029 28.3434 904.097 28.9904L906.17 25.5696ZM904.936 24.3354C904.647 23.8595 904.505 23.3546 904.505 22.78H900.505C900.505 24.0774 900.843 25.3005 901.515 26.4086L904.936 24.3354ZM904.505 22.78V21.736H900.505V22.78H904.505ZM902.505 23.736H908.013V19.736H902.505V23.736ZM906.013 21.736V22.492H910.013V21.736H906.013ZM908.013 24.492H918.165V20.492H908.013V24.492ZM920.165 22.492V20.332H916.165V22.492H920.165ZM918.165 18.332H907.725V22.332H918.165V18.332ZM907.725 18.332C907.151 18.332 906.646 18.19 906.17 17.9016L904.097 21.3224C905.205 21.994 906.428 22.332 907.725 22.332V18.332ZM906.17 17.9016C905.654 17.5886 905.249 17.1838 904.936 16.6674L901.515 18.7406C902.162 19.8082 903.029 20.6754 904.097 21.3224L906.17 17.9016ZM904.936 16.6674C904.647 16.1915 904.505 15.6866 904.505 15.112H900.505C900.505 16.4094 900.843 17.6325 901.515 18.7406L904.936 16.6674ZM904.505 15.112V12.34H900.505V15.112H904.505ZM904.505 12.34C904.505 11.7654 904.647 11.2605 904.936 10.7846L901.515 8.7114C900.843 9.81948 900.505 11.0426 900.505 12.34H904.505ZM904.936 10.7846C905.249 10.2682 905.654 9.86336 906.17 9.5504L904.097 6.1296C903.029 6.77664 902.162 7.64379 901.515 8.7114L904.936 10.7846ZM906.17 9.55039C906.646 9.26196 907.151 9.12 907.725 9.12V5.12C906.428 5.12 905.205 5.45804 904.097 6.12961L906.17 9.55039ZM907.725 9.12H918.453V5.12H907.725V9.12ZM918.453 9.12C919.062 9.12 919.577 9.26698 920.045 9.55039L922.118 6.12961C921.002 5.45302 919.765 5.12 918.453 5.12V9.12ZM920.045 9.5504C920.561 9.86336 920.966 10.2682 921.279 10.7846L924.7 8.71139C924.053 7.64379 923.186 6.77664 922.118 6.1296L920.045 9.5504ZM921.279 10.7846C921.567 11.2605 921.709 11.7654 921.709 12.34H925.709C925.709 11.0426 925.371 9.81948 924.7 8.7114L921.279 10.7846ZM921.709 12.34V13.384H925.709V12.34H921.709ZM923.709 11.384H918.165V15.384H923.709V11.384ZM920.165 13.384V12.628H916.165V13.384H920.165ZM918.165 10.628H908.013V14.628H918.165V10.628ZM906.013 12.628V14.788H910.013V12.628H906.013ZM908.013 16.788H918.453V12.788H908.013V16.788ZM918.453 16.788C919.062 16.788 919.577 16.935 920.045 17.2184L922.118 13.7976C921.002 13.121 919.765 12.788 918.453 12.788V16.788ZM920.045 17.2184C920.561 17.5314 920.966 17.9362 921.279 18.4526L924.7 16.3794C924.053 15.3118 923.186 14.4446 922.118 13.7976L920.045 17.2184ZM921.279 18.4526C921.567 18.9285 921.709 19.4334 921.709 20.008H925.709C925.709 18.7106 925.371 17.4875 924.7 16.3794L921.279 18.4526ZM921.709 20.008V22.78H925.709V20.008H921.709ZM921.709 22.78C921.709 23.3546 921.567 23.8595 921.279 24.3354L924.7 26.4086C925.371 25.3005 925.709 24.0774 925.709 22.78H921.709ZM921.279 24.3354C920.966 24.8518 920.561 25.2566 920.045 25.5696L922.118 28.9904C923.186 28.3434 924.053 27.4762 924.7 26.4086L921.279 24.3354ZM920.045 25.5696C919.577 25.853 919.062 26 918.453 26V30C919.765 30 921.002 29.667 922.118 28.9904L920.045 25.5696ZM918.453 26H907.725V30H918.453V26Z" fill="url(#paint0_linear_1703_27020)"/>
</g>
<defs>
<linearGradient id="paint0_linear_1703_27020" x1="617.5" y1="-8" x2="617.5" y2="48" gradientUnits="userSpaceOnUse">
<stop stop-color="#00FFFF"/>
<stop offset="1" stop-color="#C16710"/>
</linearGradient>
</defs>
</svg>
