<svg width="276" height="26" viewBox="0 0 276 26" fill="none" xmlns="http://www.w3.org/2000/svg">
<g opacity="0.9">
<path d="M0.124 26V0.079999H19.708C20.668 0.079999 21.544 0.319999 22.336 0.799998C23.152 1.28 23.8 1.928 24.28 2.744C24.784 3.536 25.036 4.424 25.036 5.408V10.268C25.036 10.58 25.012 10.88 24.964 11.168C24.94 11.432 24.88 11.684 24.784 11.924C25.144 12.38 25.444 12.908 25.684 13.508C25.924 14.108 26.044 14.708 26.044 15.308V20.672C26.044 21.632 25.792 22.52 25.288 23.336C24.808 24.152 24.16 24.8 23.344 25.28C22.552 25.76 21.664 26 20.68 26H0.124ZM5.704 20.384H20.392V15.632H5.704V20.384ZM5.704 10.016H19.384V5.696H5.704V10.016ZM30.0411 26V5.408C30.0411 4.424 30.2811 3.536 30.7611 2.744C31.2411 1.928 31.8891 1.28 32.7051 0.799998C33.5211 0.319999 34.4091 0.079999 35.3691 0.079999H50.5971C51.5811 0.079999 52.4691 0.319999 53.2611 0.799998C54.0771 1.28 54.7251 1.928 55.2051 2.744C55.7091 3.536 55.9611 4.424 55.9611 5.408V26H50.3091V17.648H35.6211V26H30.0411ZM35.6211 12.032H50.3091V5.696H35.6211V12.032ZM60.1709 26V0.079999H79.7549C80.7149 0.079999 81.5909 0.319999 82.3829 0.799998C83.1989 1.28 83.8469 1.928 84.3269 2.744C84.8309 3.536 85.0829 4.424 85.0829 5.408V10.268C85.0829 10.58 85.0589 10.88 85.0109 11.168C84.9869 11.432 84.9269 11.684 84.8309 11.924C85.1909 12.38 85.4909 12.908 85.7309 13.508C85.9709 14.108 86.0909 14.708 86.0909 15.308V20.672C86.0909 21.632 85.8389 22.52 85.3349 23.336C84.8549 24.152 84.2069 24.8 83.3909 25.28C82.5989 25.76 81.7109 26 80.7269 26H60.1709ZM65.7509 20.384H80.4389V15.632H65.7509V20.384ZM65.7509 10.016H79.4309V5.696H65.7509V10.016ZM98.1874 26V16.316L86.1994 0.079999H92.8594L100.995 10.304L109.095 0.079999H115.827L103.803 16.352V26H98.1874ZM129.145 26V0.079999H134.905L143.689 10.556L152.437 0.079999H158.233V26H152.617V8.612L143.689 19.268L134.725 8.648V26H129.145ZM162.615 26V0.079999H186.555V5.696H168.267V10.232H182.991V15.848H168.267V20.384H186.555V26H162.615ZM210.23 26L202.706 17.036H210.014L215.99 24.092V26H210.23ZM190.106 26V0.115999H210.662C211.646 0.115999 212.534 0.355998 213.326 0.835998C214.142 1.316 214.79 1.964 215.27 2.78C215.774 3.596 216.026 4.484 216.026 5.444V12.14C216.026 13.1 215.774 13.988 215.27 14.804C214.79 15.62 214.142 16.268 213.326 16.748C212.534 17.228 211.646 17.468 210.662 17.468L195.686 17.504V26H190.106ZM195.686 11.852H210.374V5.696H195.686V11.852ZM225.141 26C224.157 26 223.257 25.76 222.441 25.28C221.649 24.8 221.013 24.164 220.533 23.372C220.053 22.556 219.813 21.656 219.813 20.672V5.408C219.813 4.424 220.053 3.536 220.533 2.744C221.013 1.928 221.649 1.28 222.441 0.799998C223.257 0.319999 224.157 0.079999 225.141 0.079999H245.661V5.696H226.581C226.197 5.696 225.897 5.792 225.681 5.984C225.489 6.176 225.393 6.476 225.393 6.884V19.196C225.393 19.58 225.489 19.88 225.681 20.096C225.897 20.288 226.197 20.384 226.581 20.384H245.661V26H225.141ZM254.67 26C253.71 26 252.822 25.76 252.006 25.28C251.19 24.8 250.542 24.152 250.062 23.336C249.582 22.52 249.342 21.632 249.342 20.672V18.26H254.922V20.384H269.61V15.848H254.67C253.71 15.848 252.822 15.608 252.006 15.128C251.19 14.648 250.542 14.012 250.062 13.22C249.582 12.404 249.342 11.504 249.342 10.52V5.408C249.342 4.424 249.582 3.536 250.062 2.744C250.542 1.928 251.19 1.28 252.006 0.799998C252.822 0.319999 253.71 0.079999 254.67 0.079999H269.934C270.894 0.079999 271.77 0.319999 272.562 0.799998C273.378 1.28 274.026 1.928 274.506 2.744C275.01 3.536 275.262 4.424 275.262 5.408V7.82H269.61V5.696H254.922V10.232H269.934C270.894 10.232 271.77 10.472 272.562 10.952C273.378 11.432 274.026 12.08 274.506 12.896C275.01 13.688 275.262 14.576 275.262 15.56V20.672C275.262 21.632 275.01 22.52 274.506 23.336C274.026 24.152 273.378 24.8 272.562 25.28C271.77 25.76 270.894 26 269.934 26H254.67Z" fill="white"/>
<path d="M0.124 26H-1.876V28H0.124V26ZM0.124 0.079999V-1.92H-1.876V0.079999H0.124ZM22.336 0.799998L21.2994 2.5104L21.3106 2.5172L21.322 2.52387L22.336 0.799998ZM24.28 2.744L22.5561 3.75804L22.5739 3.78821L22.5927 3.81775L24.28 2.744ZM24.964 11.168L22.9912 10.8392L22.979 10.9127L22.9722 10.9869L24.964 11.168ZM24.784 11.924L22.927 11.1812L22.4974 12.2553L23.2142 13.1633L24.784 11.924ZM25.684 13.508L23.827 14.2508L23.827 14.2508L25.684 13.508ZM25.288 23.336L23.5864 22.285L23.5751 22.3034L23.5641 22.322L25.288 23.336ZM23.344 25.28L22.33 23.5561L22.3186 23.5628L22.3074 23.5696L23.344 25.28ZM5.704 20.384H3.704V22.384H5.704V20.384ZM20.392 20.384V22.384H22.392V20.384H20.392ZM20.392 15.632H22.392V13.632H20.392V15.632ZM5.704 15.632V13.632H3.704V15.632H5.704ZM5.704 10.016H3.704V12.016H5.704V10.016ZM19.384 10.016V12.016H21.384V10.016H19.384ZM19.384 5.696H21.384V3.696H19.384V5.696ZM5.704 5.696V3.696H3.704V5.696H5.704ZM2.124 26V0.079999H-1.876V26H2.124ZM0.124 2.08H19.708V-1.92H0.124V2.08ZM19.708 2.08C20.3165 2.08 20.8318 2.22698 21.2994 2.5104L23.3726 -0.910398C22.2562 -1.58698 21.0195 -1.92 19.708 -1.92V2.08ZM21.322 2.52387C21.8449 2.83145 22.2485 3.23515 22.5561 3.75804L26.0039 1.72996C25.3515 0.620852 24.4592 -0.271452 23.35 -0.923869L21.322 2.52387ZM22.5927 3.81775C22.8824 4.27299 23.036 4.78512 23.036 5.408H27.036C27.036 4.06288 26.6856 2.79901 25.9673 1.67025L22.5927 3.81775ZM23.036 5.408V10.268H27.036V5.408H23.036ZM23.036 10.268C23.036 10.4773 23.0199 10.667 22.9912 10.8392L26.9368 11.4968C27.0041 11.093 27.036 10.6827 27.036 10.268H23.036ZM22.9722 10.9869C22.9653 11.0631 22.9493 11.1255 22.927 11.1812L26.641 12.6668C26.8107 12.2425 26.9147 11.8009 26.9558 11.3491L22.9722 10.9869ZM23.2142 13.1633C23.4426 13.4526 23.6505 13.8094 23.827 14.2508L27.541 12.7652C27.2375 12.0066 26.8454 11.3074 26.3538 10.6847L23.2142 13.1633ZM23.827 14.2508C23.9799 14.6329 24.044 14.9815 24.044 15.308H28.044C28.044 14.4345 27.8681 13.5831 27.541 12.7652L23.827 14.2508ZM24.044 15.308V20.672H28.044V15.308H24.044ZM24.044 20.672C24.044 21.2611 23.8951 21.7852 23.5864 22.285L26.9896 24.387C27.6889 23.2548 28.044 22.0029 28.044 20.672H24.044ZM23.5641 22.322C23.2565 22.8449 22.8529 23.2485 22.33 23.5561L24.358 27.0039C25.4671 26.3515 26.3595 25.4591 27.0119 24.35L23.5641 22.322ZM22.3074 23.5696C21.8477 23.8482 21.3223 24 20.68 24V28C22.0057 28 23.2563 27.6718 24.3806 26.9904L22.3074 23.5696ZM20.68 24H0.124V28H20.68V24ZM5.704 22.384H20.392V18.384H5.704V22.384ZM22.392 20.384V15.632H18.392V20.384H22.392ZM20.392 13.632H5.704V17.632H20.392V13.632ZM3.704 15.632V20.384H7.704V15.632H3.704ZM5.704 12.016H19.384V8.016H5.704V12.016ZM21.384 10.016V5.696H17.384V10.016H21.384ZM19.384 3.696H5.704V7.696H19.384V3.696ZM3.704 5.696V10.016H7.704V5.696H3.704ZM30.0411 26H28.0411V28H30.0411V26ZM30.7611 2.744L32.4715 3.7806L32.4783 3.76937L32.485 3.75804L30.7611 2.744ZM32.7051 0.799998L31.6911 -0.923871L31.6911 -0.923869L32.7051 0.799998ZM53.2611 0.799998L52.2245 2.51039L52.2358 2.5172L52.2471 2.52387L53.2611 0.799998ZM55.2051 2.744L53.4813 3.75804L53.499 3.78821L53.5178 3.81775L55.2051 2.744ZM55.9611 26V28H57.9611V26H55.9611ZM50.3091 26H48.3091V28H50.3091V26ZM50.3091 17.648H52.3091V15.648H50.3091V17.648ZM35.6211 17.648V15.648H33.6211V17.648H35.6211ZM35.6211 26V28H37.6211V26H35.6211ZM35.6211 12.032H33.6211V14.032H35.6211V12.032ZM50.3091 12.032V14.032H52.3091V12.032H50.3091ZM50.3091 5.696H52.3091V3.696H50.3091V5.696ZM35.6211 5.696V3.696H33.6211V5.696H35.6211ZM32.0411 26V5.408H28.0411V26H32.0411ZM32.0411 5.408C32.0411 4.7657 32.1929 4.24027 32.4715 3.7806L29.0507 1.7074C28.3693 2.83172 28.0411 4.08229 28.0411 5.408H32.0411ZM32.485 3.75804C32.7926 3.23515 33.1963 2.83145 33.7192 2.52387L31.6911 -0.923869C30.582 -0.271453 29.6897 0.620852 29.0373 1.72996L32.485 3.75804ZM33.7192 2.52387C34.2233 2.22731 34.7604 2.08 35.3691 2.08V-1.92C34.0578 -1.92 32.8189 -1.58732 31.6911 -0.923871L33.7192 2.52387ZM35.3691 2.08H50.5971V-1.92H35.3691V2.08ZM50.5971 2.08C51.2394 2.08 51.7649 2.2318 52.2245 2.51039L54.2977 -0.910398C53.1734 -1.59181 51.9228 -1.92 50.5971 -1.92V2.08ZM52.2471 2.52387C52.77 2.83145 53.1737 3.23515 53.4813 3.75804L56.929 1.72996C56.2766 0.620852 55.3843 -0.271453 54.2752 -0.92387L52.2471 2.52387ZM53.5178 3.81775C53.8075 4.27299 53.9611 4.78512 53.9611 5.408H57.9611C57.9611 4.06288 57.6108 2.79901 56.8924 1.67025L53.5178 3.81775ZM53.9611 5.408V26H57.9611V5.408H53.9611ZM55.9611 24H50.3091V28H55.9611V24ZM52.3091 26V17.648H48.3091V26H52.3091ZM50.3091 15.648H35.6211V19.648H50.3091V15.648ZM33.6211 17.648V26H37.6211V17.648H33.6211ZM35.6211 24H30.0411V28H35.6211V24ZM35.6211 14.032H50.3091V10.032H35.6211V14.032ZM52.3091 12.032V5.696H48.3091V12.032H52.3091ZM50.3091 3.696H35.6211V7.696H50.3091V3.696ZM33.6211 5.696V12.032H37.6211V5.696H33.6211ZM60.1709 26H58.1709V28H60.1709V26ZM60.1709 0.079999V-1.92H58.1709V0.079999H60.1709ZM82.3829 0.799998L81.3463 2.5104L81.3575 2.5172L81.3688 2.52387L82.3829 0.799998ZM84.3269 2.744L82.603 3.75804L82.6208 3.78821L82.6396 3.81775L84.3269 2.744ZM85.0109 11.168L83.0381 10.8392L83.0258 10.9127L83.0191 10.9869L85.0109 11.168ZM84.8309 11.924L82.9739 11.1812L82.5443 12.2553L83.2611 13.1633L84.8309 11.924ZM85.7309 13.508L83.8739 14.2508V14.2508L85.7309 13.508ZM85.3349 23.336L83.6333 22.285L83.6219 22.3034L83.611 22.322L85.3349 23.336ZM83.3909 25.28L82.3768 23.5561L82.3655 23.5628L82.3543 23.5696L83.3909 25.28ZM65.7509 20.384H63.7509V22.384H65.7509V20.384ZM80.4389 20.384V22.384H82.4389V20.384H80.4389ZM80.4389 15.632H82.4389V13.632H80.4389V15.632ZM65.7509 15.632V13.632H63.7509V15.632H65.7509ZM65.7509 10.016H63.7509V12.016H65.7509V10.016ZM79.4309 10.016V12.016H81.4309V10.016H79.4309ZM79.4309 5.696H81.4309V3.696H79.4309V5.696ZM65.7509 5.696V3.696H63.7509V5.696H65.7509ZM62.1709 26V0.079999H58.1709V26H62.1709ZM60.1709 2.08H79.7549V-1.92H60.1709V2.08ZM79.7549 2.08C80.3634 2.08 80.8786 2.22698 81.3463 2.5104L83.4195 -0.910398C82.3031 -1.58698 81.0664 -1.92 79.7549 -1.92V2.08ZM81.3688 2.52387C81.8917 2.83145 82.2954 3.23515 82.603 3.75804L86.0507 1.72996C85.3983 0.620852 84.506 -0.271452 83.3969 -0.923869L81.3688 2.52387ZM82.6396 3.81775C82.9292 4.27299 83.0829 4.78512 83.0829 5.408H87.0829C87.0829 4.06288 86.7325 2.79901 86.0142 1.67025L82.6396 3.81775ZM83.0829 5.408V10.268H87.0829V5.408H83.0829ZM83.0829 10.268C83.0829 10.4773 83.0668 10.667 83.0381 10.8392L86.9837 11.4968C87.051 11.093 87.0829 10.6827 87.0829 10.268H83.0829ZM83.0191 10.9869C83.0122 11.0631 82.9962 11.1255 82.9739 11.1812L86.6878 12.6668C86.8576 12.2425 86.9616 11.8009 87.0027 11.3491L83.0191 10.9869ZM83.2611 13.1633C83.4895 13.4526 83.6974 13.8094 83.8739 14.2508L87.5878 12.7652C87.2844 12.0066 86.8923 11.3074 86.4006 10.6847L83.2611 13.1633ZM83.8739 14.2508C84.0268 14.6329 84.0909 14.9815 84.0909 15.308H88.0909C88.0909 14.4345 87.915 13.5831 87.5878 12.7652L83.8739 14.2508ZM84.0909 15.308V20.672H88.0909V15.308H84.0909ZM84.0909 20.672C84.0909 21.2611 83.942 21.7852 83.6333 22.285L87.0365 24.387C87.7357 23.2548 88.0909 22.0029 88.0909 20.672H84.0909ZM83.611 22.322C83.3034 22.8449 82.8997 23.2485 82.3768 23.5561L84.4049 27.0039C85.514 26.3515 86.4063 25.4591 87.0587 24.35L83.611 22.322ZM82.3543 23.5696C81.8946 23.8482 81.3692 24 80.7269 24V28C82.0526 28 83.3032 27.6718 84.4275 26.9904L82.3543 23.5696ZM80.7269 24H60.1709V28H80.7269V24ZM65.7509 22.384H80.4389V18.384H65.7509V22.384ZM82.4389 20.384V15.632H78.4389V20.384H82.4389ZM80.4389 13.632H65.7509V17.632H80.4389V13.632ZM63.7509 15.632V20.384H67.7509V15.632H63.7509ZM65.7509 12.016H79.4309V8.016H65.7509V12.016ZM81.4309 10.016V5.696H77.4309V10.016H81.4309ZM79.4309 3.696H65.7509V7.696H79.4309V3.696ZM63.7509 5.696V10.016H67.7509V5.696H63.7509ZM98.1874 26H96.1874V28H98.1874V26ZM98.1874 16.316H100.187V15.6576L99.7964 15.128L98.1874 16.316ZM86.1994 0.079999V-1.92H82.2366L84.5905 1.26798L86.1994 0.079999ZM92.8594 0.079999L94.4244 -1.16535L93.8239 -1.92H92.8594V0.079999ZM100.995 10.304L99.4305 11.5494L100.999 13.5203L102.563 11.546L100.995 10.304ZM109.095 0.079999V-1.92H108.128L107.528 -1.16197L109.095 0.079999ZM115.827 0.079999L117.436 1.26858L119.792 -1.92H115.827V0.079999ZM103.803 16.352L102.195 15.1634L101.803 15.6932V16.352H103.803ZM103.803 26V28H105.803V26H103.803ZM100.187 26V16.316H96.1874V26H100.187ZM99.7964 15.128L87.8084 -1.10798L84.5905 1.26798L96.5785 17.504L99.7964 15.128ZM86.1994 2.08H92.8594V-1.92H86.1994V2.08ZM91.2945 1.32535L99.4305 11.5494L102.56 9.05865L94.4244 -1.16535L91.2945 1.32535ZM102.563 11.546L110.663 1.32197L107.528 -1.16197L99.4278 9.06203L102.563 11.546ZM109.095 2.08H115.827V-1.92H109.095V2.08ZM114.219 -1.10858L102.195 15.1634L105.412 17.5406L117.436 1.26858L114.219 -1.10858ZM101.803 16.352V26H105.803V16.352H101.803ZM103.803 24H98.1874V28H103.803V24ZM129.145 26H127.145V28H129.145V26ZM129.145 0.079999V-1.92H127.145V0.079999H129.145ZM134.905 0.079999L136.437 -1.20503L135.838 -1.92H134.905V0.079999ZM143.689 10.556L142.156 11.841L143.692 13.6725L145.224 11.8379L143.689 10.556ZM152.437 0.079999V-1.92H151.501L150.902 -1.20193L152.437 0.079999ZM158.233 0.079999H160.233V-1.92H158.233V0.079999ZM158.233 26V28H160.233V26H158.233ZM152.617 26H150.617V28H152.617V26ZM152.617 8.612H154.617V3.1107L151.084 7.32756L152.617 8.612ZM143.689 19.268L142.161 20.558L143.695 22.3754L145.222 20.5524L143.689 19.268ZM134.725 8.648L136.253 7.35797L132.725 3.17781V8.648H134.725ZM134.725 26V28H136.725V26H134.725ZM131.145 26V0.079999H127.145V26H131.145ZM129.145 2.08H134.905V-1.92H129.145V2.08ZM133.372 1.36502L142.156 11.841L145.221 9.27098L136.437 -1.20503L133.372 1.36502ZM145.224 11.8379L153.972 1.36192L150.902 -1.20193L142.154 9.27407L145.224 11.8379ZM152.437 2.08H158.233V-1.92H152.437V2.08ZM156.233 0.079999V26H160.233V0.079999H156.233ZM158.233 24H152.617V28H158.233V24ZM154.617 26V8.612H150.617V26H154.617ZM151.084 7.32756L142.156 17.9836L145.222 20.5524L154.15 9.89644L151.084 7.32756ZM145.217 17.978L136.253 7.35797L133.197 9.93802L142.161 20.558L145.217 17.978ZM132.725 8.648V26H136.725V8.648H132.725ZM134.725 24H129.145V28H134.725V24ZM162.615 26H160.615V28H162.615V26ZM162.615 0.079999V-1.92H160.615V0.079999H162.615ZM186.555 0.079999H188.555V-1.92H186.555V0.079999ZM186.555 5.696V7.696H188.555V5.696H186.555ZM168.267 5.696V3.696H166.267V5.696H168.267ZM168.267 10.232H166.267V12.232H168.267V10.232ZM182.991 10.232H184.991V8.232H182.991V10.232ZM182.991 15.848V17.848H184.991V15.848H182.991ZM168.267 15.848V13.848H166.267V15.848H168.267ZM168.267 20.384H166.267V22.384H168.267V20.384ZM186.555 20.384H188.555V18.384H186.555V20.384ZM186.555 26V28H188.555V26H186.555ZM164.615 26V0.079999H160.615V26H164.615ZM162.615 2.08H186.555V-1.92H162.615V2.08ZM184.555 0.079999V5.696H188.555V0.079999H184.555ZM186.555 3.696H168.267V7.696H186.555V3.696ZM166.267 5.696V10.232H170.267V5.696H166.267ZM168.267 12.232H182.991V8.232H168.267V12.232ZM180.991 10.232V15.848H184.991V10.232H180.991ZM182.991 13.848H168.267V17.848H182.991V13.848ZM166.267 15.848V20.384H170.267V15.848H166.267ZM168.267 22.384H186.555V18.384H168.267V22.384ZM184.555 20.384V26H188.555V20.384H184.555ZM186.555 24H162.615V28H186.555V24ZM210.23 26L208.698 27.2858L209.297 28H210.23V26ZM202.706 17.036V15.036H198.416L201.174 18.3218L202.706 17.036ZM210.014 17.036L211.54 15.7434L210.941 15.036H210.014V17.036ZM215.99 24.092H217.99V23.3589L217.516 22.7994L215.99 24.092ZM215.99 26V28H217.99V26H215.99ZM190.106 26H188.106V28H190.106V26ZM190.106 0.115998V-1.884H188.106V0.115998H190.106ZM213.326 0.835998L212.289 2.54639L212.3 2.5532L212.312 2.55986L213.326 0.835998ZM215.27 2.78L213.546 3.79404L213.557 3.81263L213.568 3.83098L215.27 2.78ZM215.27 14.804L213.568 13.753L213.557 13.7714L213.546 13.79L215.27 14.804ZM213.326 16.748L212.312 15.0241L212.3 15.0308L212.289 15.0376L213.326 16.748ZM210.662 17.468V15.468L210.657 15.468L210.662 17.468ZM195.686 17.504L195.681 15.504L193.686 15.5088V17.504H195.686ZM195.686 26V28H197.686V26H195.686ZM195.686 11.852H193.686V13.852H195.686V11.852ZM210.374 11.852V13.852H212.374V11.852H210.374ZM210.374 5.696H212.374V3.696H210.374V5.696ZM195.686 5.696V3.696H193.686V5.696H195.686ZM211.762 24.7142L204.238 15.7502L201.174 18.3218L208.698 27.2858L211.762 24.7142ZM202.706 19.036H210.014V15.036H202.706V19.036ZM208.488 18.3286L214.464 25.3846L217.516 22.7994L211.54 15.7434L208.488 18.3286ZM213.99 24.092V26H217.99V24.092H213.99ZM215.99 24H210.23V28H215.99V24ZM192.106 26V0.115998H188.106V26H192.106ZM190.106 2.116H210.662V-1.884H190.106V2.116ZM210.662 2.116C211.304 2.116 211.83 2.26781 212.289 2.54639L214.362 -0.874398C213.238 -1.55581 211.988 -1.884 210.662 -1.884V2.116ZM212.312 2.55986C212.835 2.86745 213.238 3.27115 213.546 3.79404L216.994 1.76596C216.341 0.656851 215.449 -0.235453 214.34 -0.88787L212.312 2.55986ZM213.568 3.83098C213.877 4.33082 214.026 4.85486 214.026 5.444H218.026C218.026 4.11314 217.671 2.86117 216.971 1.72901L213.568 3.83098ZM214.026 5.444V12.14H218.026V5.444H214.026ZM214.026 12.14C214.026 12.7291 213.877 13.2532 213.568 13.753L216.971 15.855C217.671 14.7228 218.026 13.4709 218.026 12.14H214.026ZM213.546 13.79C213.238 14.3129 212.835 14.7165 212.312 15.0241L214.34 18.4719C215.449 17.8195 216.341 16.9271 216.994 15.818L213.546 13.79ZM212.289 15.0376C211.83 15.3162 211.304 15.468 210.662 15.468V19.468C211.988 19.468 213.238 19.1398 214.362 18.4584L212.289 15.0376ZM210.657 15.468L195.681 15.504L195.691 19.504L210.667 19.468L210.657 15.468ZM193.686 17.504V26H197.686V17.504H193.686ZM195.686 24H190.106V28H195.686V24ZM195.686 13.852H210.374V9.852H195.686V13.852ZM212.374 11.852V5.696H208.374V11.852H212.374ZM210.374 3.696H195.686V7.696H210.374V3.696ZM193.686 5.696V11.852H197.686V5.696H193.686ZM222.441 25.28L221.404 26.9904L221.416 26.9972L221.427 27.0039L222.441 25.28ZM220.533 23.372L218.809 24.386L218.816 24.3974L218.822 24.4086L220.533 23.372ZM220.533 2.744L222.243 3.7806L222.25 3.76937L222.257 3.75804L220.533 2.744ZM222.441 0.799998L221.427 -0.92387L221.416 -0.917208L221.404 -0.910397L222.441 0.799998ZM245.661 0.079999H247.661V-1.92H245.661V0.079999ZM245.661 5.696V7.696H247.661V5.696H245.661ZM225.681 5.984L224.352 4.48918L224.308 4.52822L224.267 4.56979L225.681 5.984ZM225.681 20.096L224.186 21.4247L224.264 21.5127L224.352 21.5908L225.681 20.096ZM245.661 20.384H247.661V18.384H245.661V20.384ZM245.661 26V28H247.661V26H245.661ZM225.141 24C224.499 24 223.951 23.848 223.455 23.5561L221.427 27.0039C222.563 27.672 223.815 28 225.141 28V24ZM223.477 23.5696C222.961 23.2566 222.556 22.8518 222.243 22.3354L218.822 24.4086C219.47 25.4762 220.337 26.3434 221.404 26.9904L223.477 23.5696ZM222.257 22.358C221.965 21.8617 221.813 21.3141 221.813 20.672H217.813C217.813 21.9979 218.141 23.2503 218.809 24.386L222.257 22.358ZM221.813 20.672V5.408H217.813V20.672H221.813ZM221.813 5.408C221.813 4.7657 221.965 4.24028 222.243 3.7806L218.822 1.7074C218.141 2.83172 217.813 4.08229 217.813 5.408H221.813ZM222.257 3.75804C222.573 3.22086 222.975 2.81482 223.477 2.51039L221.404 -0.910397C220.323 -0.254821 219.453 0.635138 218.809 1.72996L222.257 3.75804ZM223.455 2.52387C223.951 2.23196 224.499 2.08 225.141 2.08V-1.92C223.815 -1.92 222.563 -1.59196 221.427 -0.92387L223.455 2.52387ZM225.141 2.08H245.661V-1.92H225.141V2.08ZM243.661 0.079999V5.696H247.661V0.079999H243.661ZM245.661 3.696H226.581V7.696H245.661V3.696ZM226.581 3.696C225.871 3.696 225.04 3.87734 224.352 4.48918L227.01 7.47882C226.891 7.58429 226.769 7.64355 226.677 7.67285C226.593 7.69995 226.552 7.696 226.581 7.696V3.696ZM224.267 4.56979C223.547 5.2891 223.393 6.20884 223.393 6.884H227.393C227.393 6.8292 227.4 6.86722 227.37 6.96255C227.336 7.06735 227.258 7.23535 227.095 7.39821L224.267 4.56979ZM223.393 6.884V19.196H227.393V6.884H223.393ZM223.393 19.196C223.393 19.9062 223.574 20.7364 224.186 21.4247L227.176 18.7673C227.281 18.8859 227.34 19.0079 227.37 19.0994C227.397 19.1841 227.393 19.2248 227.393 19.196H223.393ZM224.352 21.5908C225.04 22.2027 225.871 22.384 226.581 22.384V18.384C226.552 18.384 226.593 18.38 226.677 18.4072C226.769 18.4365 226.891 18.4957 227.01 18.6012L224.352 21.5908ZM226.581 22.384H245.661V18.384H226.581V22.384ZM243.661 20.384V26H247.661V20.384H243.661ZM245.661 24H225.141V28H245.661V24ZM252.006 25.28L253.02 23.5561L252.006 25.28ZM250.062 23.336L248.339 24.35L250.062 23.336ZM249.342 18.26V16.26H247.342V18.26H249.342ZM254.922 18.26H256.922V16.26H254.922V18.26ZM254.922 20.384H252.922V22.384H254.922V20.384ZM269.61 20.384V22.384H271.61V20.384H269.61ZM269.61 15.848H271.61V13.848H269.61V15.848ZM252.006 15.128L253.02 13.4041L252.006 15.128ZM250.062 13.22L248.339 14.234L248.345 14.2454L248.352 14.2566L250.062 13.22ZM250.062 2.744L251.773 3.7806L251.78 3.76937L251.786 3.75804L250.062 2.744ZM252.006 0.799998L250.992 -0.92387V-0.923869L252.006 0.799998ZM272.562 0.799998L271.526 2.5104L271.537 2.5172L271.548 2.52387L272.562 0.799998ZM274.506 2.744L272.783 3.75804L272.8 3.78821L272.819 3.81775L274.506 2.744ZM275.262 7.82V9.82H277.262V7.82H275.262ZM269.61 7.82H267.61V9.82H269.61V7.82ZM269.61 5.696H271.61V3.696H269.61V5.696ZM254.922 5.696V3.696H252.922V5.696H254.922ZM254.922 10.232H252.922V12.232H254.922V10.232ZM272.562 10.952L271.526 12.6624L271.537 12.6692L271.548 12.6759L272.562 10.952ZM274.506 12.896L272.783 13.91L272.8 13.9402L272.819 13.9698L274.506 12.896ZM274.506 23.336L272.805 22.285L272.794 22.3034L272.783 22.322L274.506 23.336ZM272.562 25.28L271.548 23.5561L271.537 23.5628L271.526 23.5696L272.562 25.28ZM254.67 24C254.062 24 253.525 23.8527 253.02 23.5561L250.992 27.0039C252.12 27.6673 253.359 28 254.67 28V24ZM253.02 23.5561C252.498 23.2485 252.094 22.8449 251.786 22.322L248.339 24.35C248.991 25.4591 249.883 26.3515 250.992 27.0039L253.02 23.5561ZM251.786 22.322C251.49 21.8178 251.342 21.2807 251.342 20.672H247.342C247.342 21.9833 247.675 23.2222 248.339 24.35L251.786 22.322ZM251.342 20.672V18.26H247.342V20.672H251.342ZM249.342 20.26H254.922V16.26H249.342V20.26ZM252.922 18.26V20.384H256.922V18.26H252.922ZM254.922 22.384H269.61V18.384H254.922V22.384ZM271.61 20.384V15.848H267.61V20.384H271.61ZM269.61 13.848H254.67V17.848H269.61V13.848ZM254.67 13.848C254.062 13.848 253.525 13.7007 253.02 13.4041L250.992 16.8519C252.12 17.5153 253.359 17.848 254.67 17.848V13.848ZM253.02 13.4041C252.483 13.0881 252.077 12.6857 251.773 12.1834L248.352 14.2566C249.008 15.3383 249.898 16.2079 250.992 16.8519L253.02 13.4041ZM251.786 12.206C251.494 11.7097 251.342 11.1621 251.342 10.52H247.342C247.342 11.8459 247.67 13.0983 248.339 14.234L251.786 12.206ZM251.342 10.52V5.408H247.342V10.52H251.342ZM251.342 5.408C251.342 4.7657 251.494 4.24027 251.773 3.7806L248.352 1.7074C247.671 2.83172 247.342 4.08229 247.342 5.408H251.342ZM251.786 3.75804C252.094 3.23515 252.498 2.83145 253.02 2.52387L250.992 -0.923869C249.883 -0.271453 248.991 0.620852 248.339 1.72996L251.786 3.75804ZM253.02 2.52387C253.525 2.22731 254.062 2.08 254.67 2.08V-1.92C253.359 -1.92 252.12 -1.58732 250.992 -0.92387L253.02 2.52387ZM254.67 2.08H269.934V-1.92H254.67V2.08ZM269.934 2.08C270.543 2.08 271.058 2.22698 271.526 2.5104L273.599 -0.910398C272.483 -1.58698 271.246 -1.92 269.934 -1.92V2.08ZM271.548 2.52387C272.071 2.83145 272.475 3.23515 272.783 3.75804L276.23 1.72996C275.578 0.620852 274.686 -0.271452 273.576 -0.923869L271.548 2.52387ZM272.819 3.81775C273.109 4.27299 273.262 4.78512 273.262 5.408H277.262C277.262 4.06288 276.912 2.79901 276.194 1.67025L272.819 3.81775ZM273.262 5.408V7.82H277.262V5.408H273.262ZM275.262 5.82H269.61V9.82H275.262V5.82ZM271.61 7.82V5.696H267.61V7.82H271.61ZM269.61 3.696H254.922V7.696H269.61V3.696ZM252.922 5.696V10.232H256.922V5.696H252.922ZM254.922 12.232H269.934V8.232H254.922V12.232ZM269.934 12.232C270.543 12.232 271.058 12.379 271.526 12.6624L273.599 9.2416C272.483 8.56502 271.246 8.232 269.934 8.232V12.232ZM271.548 12.6759C272.071 12.9835 272.475 13.3871 272.783 13.91L276.23 11.882C275.578 10.7729 274.686 9.88055 273.576 9.22813L271.548 12.6759ZM272.819 13.9698C273.109 14.425 273.262 14.9371 273.262 15.56H277.262C277.262 14.2149 276.912 12.951 276.194 11.8222L272.819 13.9698ZM273.262 15.56V20.672H277.262V15.56H273.262ZM273.262 20.672C273.262 21.2611 273.114 21.7852 272.805 22.285L276.208 24.387C276.907 23.2548 277.262 22.0029 277.262 20.672H273.262ZM272.783 22.322C272.475 22.8449 272.071 23.2485 271.548 23.5561L273.576 27.0039C274.686 26.3515 275.578 25.4591 276.23 24.35L272.783 22.322ZM271.526 23.5696C271.058 23.853 270.543 24 269.934 24V28C271.246 28 272.483 27.667 273.599 26.9904L271.526 23.5696ZM269.934 24H254.67V28H269.934V24Z" fill="url(#paint0_linear_1948_33859)"/>
</g>
<defs>
<linearGradient id="paint0_linear_1948_33859" x1="138" y1="-10" x2="138" y2="35" gradientUnits="userSpaceOnUse">
<stop stop-color="#00FFFF"/>
<stop offset="1" stop-color="#C16710"/>
</linearGradient>
</defs>
</svg>
