<?xml version="1.0" encoding="utf-8"?>
<!-- Generator: Adobe Illustrator 25.4.1, SVG Export Plug-In . SVG Version: 6.00 Build 0)  -->
<svg version="1.1" id="Layer_1" xmlns="http://www.w3.org/2000/svg" xmlns:xlink="http://www.w3.org/1999/xlink" x="0px" y="0px"
	 viewBox="0 0 481.6 127.8" style="enable-background:new 0 0 481.6 127.8;" xml:space="preserve">
<g>
	<path d="M64,121.2c-0.4-1.3-1.1-2.2-2.6-2.2c-0.9,0-1.9,0.2-2.8,0c-1.6-0.4-3-1.2-4.5-1.8c1.4-0.1,2.9-0.2,4.3-0.4
		c1.9-0.3,3.8-0.7,7-0.8c0.5,0,0.1-0.2-0.3-0.3c-0.3-0.1-0.7,0-1,0c0.3,0.4,0.4,0.9,0.8,1.1c0.4,0.1,0.9-0.2,0.6-0.7
		c-1.5-1-1.4-2.1-1.8-2.3c-1.8-1-3.6-2.1-5.6-2.4c-2.4-0.4-2.3-1-1.1-2.6c0.3-0.3,0.2-1,0.3-1.5c-0.5,0.2-1,0.4-1.6,0.6
		c-1,0.3-2,0.7-3,0.7c-0.7,0-1.4-0.4-2.4-0.6c-0.1,0,0.1,0,0.3,0c-0.1-0.3-0.2-0.6-0.3-0.8c-0.1-0.1-0.4,0.1-0.7,0.2
		c0.2,0.2,0.3,0.4,0.8,0.7c-0.4,0.6-1.1,1.3-1.7,1.9c-0.4-2.5-1.1-1.5-2.4-0.5c-1.5,1.2-1.8-0.5-2.3-1.4c-0.2-0.3-0.5-0.6-0.8-0.9
		c-0.1,0.3-0.4,0.7-0.3,1c0.5,2.5-1.1,2.1-2.7,2.2c-1.4,0.1-2.7-1.8-4.6,0.1c-0.1-0.2,0.2-0.4,0.5-0.6c-0.3-0.2-0.5-0.6-0.8-0.6
		c-0.5,0-0.9,0.3-1.4,0.4c0.3,0.3,0.7,0.5,1.6,0.8c2.5,1.1,4.4,1.5,6.2,1.5c0.7,0,1.4,0.4,2.1,0.6c1.4,0.5,2.7,2.2,4.1,0
		c0.2-0.3,1.1-0.2,1.6,0c0.4,0.1,1,0.6,1,0.9c0,0.4-0.4,1.2-0.6,1.2c-1.1,0.1-2.2,0-3.3,0.1c-0.5,0-1,0.3-1.5,0.4
		c0.6,0.3,1.2,0.5,1.7,0.8c0.1,0-0.1,0.8-0.3,0.9c-0.4,0.3-0.9,0.4-1.4,0.6c0.5,0.2,1,0.6,1.4,0.5c1-0.3,1.9-0.8,2.8-1.3
		c1.6-1.1,3.1-0.7,3.6,1.1c0.1,0.4-0.2,1.1-0.6,1.3c-0.4,0.2-1.1,0.1-1.6,0.1c-1.7,0-3.4-0.1-5,0c-1.4,0.2-2.7,0.7-4,1.1
		c-0.1-0.3-0.3-0.9-0.4-0.9c-3.9,0-7.7,0-11.6,0c-1.5,1.8-2.3-0.7-3.5-0.6c0,0-0.3-0.7-0.2-0.9c0.2-0.4,0.7-0.9,1.1-0.9
		c0.8,0.1,1.6,0.6,2.5,0.7c1,0.1,2,0.1,3-0.1c0.5-0.1,0.8-0.7,1.2-1.1c-0.4-0.2-0.9-0.6-1.3-0.6c-1.2,0-2.3,0-2.1-1.7
		c0.1-0.5-0.4-1-0.6-1.6c0.5,0.1,1,0.1,1.5,0.2c0.4,0.1,0.8,0.3,1.2,0.5c0-0.5,0.2-1.2,0-1.5c-0.6-0.6-1.4-1.1-2.1-1.5
		c-0.8-0.4-1.7-0.5-2.4-0.9c-1.4-0.8,0.3-1.6,0.2-1.9c-0.4-0.7-1.2-1.4-2-1.6c-0.8-0.3-1.9-0.2-2.8,0c-2.4,0.3-0.9-1-1-1.9
		s-0.8-2.3-1.5-2.5c-2.9-0.9-5.1-3.1-7.6-4.5c-1.2-0.7-2.5-1.3-3.7-2c0.6-0.7,4.4-0.4,5.7,0.5c1.5,1,2.8,2.1,4.3,3.1
		c0.2,0.2,0.9,0,1.1-0.2c0.4-0.3,0.7-0.7,0.7-1.2c0-0.2-0.6-0.5-0.7-0.8c-0.5-1.1-0.9-2.2-1.3-3.4c1.2-0.2,2.4-0.4,3.6-0.7
		c0.3-0.1,0.6-0.3,0.9-0.5c-0.3-0.2-0.6-0.6-0.8-0.5c-2.7,0.8-3.6-3.3-6.4-2.3c-0.2-0.6-0.5-1.3-0.7-1.9c-0.7-2.3-1.4-4.5-4.6-3.7
		c-0.3,0.1-0.6-0.3-0.9-0.4c0.4-0.2,0.8-0.4,1.1-0.7c0.7-0.7,1.4-1.5,2.1-2.2c0.4-0.5,0.7-1,1.1-1.4c-1.5-0.7,0.3-2.9-0.8-2.9
		c-2,0-0.8-2.3-2.3-2.4c-0.5,0-1-0.7-1.3-1.2c-0.7-0.9-2-2-1.9-2.8c0.2-1.2,1.8-1.4,3.1-1.6c2.4-0.4,2.2-2.5,2.4-4.9
		c0.1-0.3-0.1-0.2-0.3,0c0.2,0.2,0.3,0.3,0.5,0.5c0.2-0.2,0.4-0.4,0.5-0.7c0,0-0.2-0.2-0.7,0.2c-1,0.4-1.7,0.3-2.4,0.1
		c0.1-0.6,0.1-1.3,0.4-1.9c0.6-1.1,1.7-1.1,2.8-1.2c0.3,0,0.9-0.6,1-0.9c0-0.4-0.4-1.2-0.6-1.2c-2.1-0.2-2-1.1-0.9-2.5
		c0.2-0.2-0.3-1.2-0.7-1.5c-1-0.8-1.2-1.7-1.1-2.9c0.2-1.4,1.3-1.8,2.8-1.1c0.9,0.4,1.9,0.8,3.4,1.5c0.3,0.1,0.2-0.1,0-0.3
		c-0.2,0.2-0.3,0.3-0.5,0.5c0.2,0.2,0.4,0.4,0.7,0.5c0,0,0.2-0.2-0.2-0.7c0.2-1.1,1-1.8,3.1-2.2c0.5,0,0.1-0.2-0.3-0.3
		c-0.3-0.1-0.7,0-1,0c0.3,0.4,0.4,0.9,0.8,1.1c0.4,0.1,0.9-0.2,0.6-0.7c-3.1-2.6-4.8-4.9-6.5-7.1c-1.1-1.4-1.7-1-1.6,0.7
		c0,0.1-0.5,0.2-0.8,0.3c-0.5-3-5.7-2.8-4.8-6.8c-0.4-0.1-0.7-0.3-1.1-0.2c-0.6,0.1-1.3,0.3-1.9,0.4C5.4,36,6,35.3,5.8,34.9
		c-0.7-1.5-3.8-2.2-5.3-1.3c-0.8,0.5-2.3,0.9-2.7,0.8c-1.4-0.4-0.6-1.2-0.1-1.3c0.9-0.2-0.6-3.1,1.6-1.3c2,1.6,3.3-0.6,5-0.9
		c0.9-0.1,0.8-2.7-0.2-3.2c-0.9-0.5-2-0.7-2.9-1.2c-1.2-0.6-1.2-1.3,0-2.2c0.3-0.2,1-0.2,1-0.3c0-1-0.5-2.3-0.1-3
		c0.4-0.8,1.7-1.1,2.6-1.6c-0.4-0.2-0.8-0.5-1.2-0.7c-0.3-0.2-0.6-0.3-0.9-0.5c0.9-1.3,1.6-2.9,2.7-3.8c0.9-0.7,2.8-1.2,3.7-0.8
		c1.2,0.6,1.9,0.8,2.8-0.2c0.7-0.8,1.4-1.9,2.4-2.3c1.2-0.4,2.6-2.2,4,0.1c0.4,0.6,1.9,0.7,2.9,0.7c0.6,0,1.2-1,1.8-0.9
		c1.9,0.2,3.8,0.7,5.7,1s3.2-2.3,5.6-0.6c1,0.7,3.2-0.4,4.8-0.5c3.4-0.1,6.7,0.1,10.1-0.1c1,0,1.9-0.8,2.9-1c1.8-0.4,0.9-1.7,1-2.7
		c0.1-0.9-0.1-1.9,1.3-1.8c1.7,0.1,2-3.8,4.4-1.6c0.9,0.9,1.5-1.5,2.5,0c0.4,0.6,2,0.4,3.1,0.4c1.1,0,2.4,0.4,2.2-1.5
		c0-0.2,0.8-0.7,1.2-0.7c3.6,0.5,7.3-1,10.9,0.9c0.6,0.3,3.6,1.7,3.6-1.5c0-0.1,0.7-0.3,0.7-0.3c2.1,3.1,5.4,1.8,8.2,1.9
		c2.2,0.1,4.2-0.2,5.6,0.6c1.6,0.9,2.1,0.9,2.5-1.1c0.2-1,1.6-0.8,2.2,0.1c1,1.6,2.1,0.6,3.4,0.6c2.3,0.1,4.6-1.5,7-0.2
		c0.4,0.2,1.1,0.2,1.7,0c2-0.5,3.7-1.8,6.1-0.6c1.4,0.7,3.6-0.4,5.4-0.4c2.2-0.1,4.5,0,6.7,0c2.1,0,4.1,0,6.2,0
		c2.2,0,4.6,0.4,6.7-0.1c1.3-0.3,1.7,2,3.3,0.6c0.6-0.5,2.9,0.9,3.6,0.4c1.2-0.9,2.4-0.8,3.6-0.8c1.3-0.1,2.6,0,3.9,0
		c4.1,0,8.2-0.1,12.4,0c2.9,0.1,5.7-1.6,8.7-0.1c0.6,0.3,1.6-0.4,2.5-0.7c0.7-0.2,1.6-0.6,2.1-0.3c4,2.1,8.3,0.5,12.5,1.1
		c2.5,0.3,5.2-1,7.4,1.1c0.2,0.2,0.9,0.2,1.1,0c2.9-2.3,5.8,0.1,8.6-0.1c3-0.2,6.1,0.8,9.2-0.8c2.5-1.3,5.7,0.5,8.6-0.8
		c1-0.5,2.8,0.7,4.2,1c0.6,0.2,1.8,0.6,1.8,0.5c1.8-3.3,3.4-0.5,5,0.2c0.7,0.3,1.8,0.9,2.1,0.6c1.3-1.1,2.5,2,3.6-0.1
		c0.1-0.3,0.6-0.5,0.9-0.5c7.4,0,14.6-1.8,22-1.2c1.1,0.1,2.1,1.8,3.7,0.2c0.6-0.6,2.7-0.5,3.8,0c1.5,0.7,2.7,1.6,4.2,0
		c0.3-0.3,1.6,0.3,2.5,0.5c0.7,0.2,1.6,0.7,2,0.5c2.6-1.6,4.9-0.9,7.6-0.1c1.2,0.4,2.9,0.7,4.2-0.6c0.4-0.4,1.5-0.6,2-0.3
		c3.9,2.1,8.3-2.1,12.1,1.1c2.3-1.9,5.3-0.5,7.8-1.5c0.7-0.3,0.9-0.3,1.7-0.1c1.3,0.4,2.7,0.1,4.1,0c0.9-0.1,2-0.9,2.5-0.6
		c3.7,2.3,8-2.2,11.6,1c2-2,4.5-0.9,6.8-1c1.3-0.1,2.8,0.5,4,1.1c1.4,0.7,2.1-1.7,3.8-0.4c0.9,0.7,2.9,0.1,4.3,0.4
		c1.6,0.2,3.1,1,4.6,1s3-0.8,4.6-1c0.9-0.1,2-0.1,2.6,0.3c2,1.6,3.3,0.6,4.7-0.8c0.4-0.4,1.4-0.8,1.9-0.6c1.4,0.5,2.7,0.5,4.2,0
		c1.4-0.4,3-0.2,4.5-0.1c1.6,0.1,3.2-0.5,4.7,0.9c0.7,0.6,2.8,0.4,3.6-0.2c1.4-1.1,3.1-1.1,4.2-0.6c4.7,1.8,9.5,0.6,14.2,1
		c2.1,0.2,4.4-0.8,6.4,1c0.4,0.4,1.9-0.4,2.9-0.8c2.3-0.8,1.9,0.8,1,2.7c-0.3,0.4,0.3,0.1,0.9-0.1c-0.4-0.2-0.7-0.5-1.1-0.5
		c-0.8,0.1-1.5,0.4-2.2,0.6c0.5,0.2,0.9,0.4,2.4,0c1.7-0.4,2.5,0.1,3.4,0.1c2.1,0.1-1,5,3.1,3.3c1.7-0.7,2.9,1.1,4.4,1.5
		c0.6,0.2,1.6,0.1,2.1-0.3c1.7-1.3,3.3-1.3,5,0c0.1,0.1,0.3,0.4,0.4,0.3c4-2.2,6.7,1.4,10,2.1c1.2,0.2,2.7,0.4,3.7-0.2
		c2.1-1.1,4-1.1,6.1-0.1c0.6,0.3,1.4,0.3,2.1,0.4s1.4,0.2,2.1,0.4c-0.2,0.5-0.5,1-0.6,1.6c0,0,0.3,0.3,0.4,0.3
		c3.7,0.1-0.6,1.7,0.6,2.6c-0.4-0.1-0.6-0.4-0.7-0.4c-0.5,0-1,0.2-1.5,0.3c0.1,0.2,0.1,0.7,0.2,0.7c0.6,0,1.2-0.1,2-0.6
		c0.7-0.3,2.1-0.9,2,0.9c0,1-0.1,1.8,1.5,2.2c1.4,0.3,2.6,1.9,4.1,0.4c0.1-0.1,0-0.3,0-0.5c0.7,0.5,1.4,1.1,2.1,1.6
		c-0.6,0.3-1.4,0.4-1.7,0.8c-0.7,1.1-1.1,2.3,0.4,3.2c0.1,0.1,0.5-0.1,0.5,0c0.7,0.8,2,1.7,1.9,2.3c-0.2,1.5-1.5,2.4-3.5,2.1
		c-0.1,0,0.1,0,0.3,0c-0.1-0.3-0.2-0.6-0.3-0.8c-0.1-0.1-0.4,0.1-0.7,0.2c0.2,0.2,0.3,0.4,0.8,0.7c0,0.4-0.3,0.9-0.5,1.3
		c-0.1,0.1-0.2,0.3-0.3,0.4c2.3,1-1.6,2.8,0.5,3.9c0.1,0.1-0.6,1.3-0.4,1.5c0.7,0.7,1.5,1.4,2.4,1.8c3.3,1.2,3.4,3.9,3.8,6.8
		c0.2,1.2-0.4,0.8-0.8,1.1c-0.8,0.6-1.4,1.4-2.1,2.2c-0.7,0-1.6-0.2-2.2,0c-1.1,0.4-2.2,1-3.3,1.5c-0.3,0.2-0.6,0.5-0.8,0.8
		c-0.1,0.2-0.2,0.7-0.1,0.7c1.8,1.1-0.7,1.6-0.4,2.6c0.2,0.7,2.1,1.5,0.3,2.5c0,0,0.2,0.7,0.4,0.7c0.9,0.1,1.9,0.1,2.8,0
		c1.6-0.2,2.4,0.2,2.3,2c0,0.7,0.7,1.8,1.4,2.1c1.7,0.9-0.8,1.7,0.1,2.4c0.7,0.5,1.5,0.8,2.2,1.3c0.2,0.1,0.4,0.4,0.6,0.7
		c-0.3,0.1-0.7,0.5-0.9,0.4c-2.4-0.6-2.4,2.6-4.4,2.7c-0.1,0-0.2,0.4-0.1,0.5c2,3.1,0,7.6,3.4,10.3c-0.7,0.1-2,0.3-2,0.4
		c0.1,1.8-2.2,3.7,0.4,5.4c0.6,0.4-1.1,1.9,0.5,2.7c0.9,0.5,1.5,2.1,2.4,2.2c3.2,0.5,1,2.5,0.7,3.1c-0.5,0.9-1.9,1.4-2.9,2l-3.1,2
		c1.9,1.7-1.5,2.8-0.5,4.3c1.7,2.4-0.2,4.1-1.6,4.4c-2,0.5-2.7,3.3-5.6,2.6c-0.1-0.2,0.2-0.4,0.5-0.6c-0.3-0.2-0.5-0.6-0.8-0.6
		c-0.5,0-0.9,0.3-1.4,0.4c0.3,0.3,0.7,0.5,1.6,0.8c0.2,2.3-3-0.1-3.3,2s-3.3,2.2-3.1,4.8c0,0.7-2,1.7-3.1,2.4
		c-0.3,0.2-0.8,0.1-1.2,0.1c0-0.4-0.1-0.8,0-1.1c0.3-0.5,1-0.8,1-1.2c0-0.5-0.6-1.5-0.9-1.5c-1.6,0.1-3.2,0.3-4.8,0.6
		c-0.9,0.1-1.8,0.6-2.6,0.4c-1-0.2-2.7-1-2.6-1.4c0.2-1.6,1.7-0.8,2.6-0.7c2.3,0.2,4.6-1.3,6.9-0.1c0.3,0.2,0.9-0.3,1.4-0.5
		c-0.4-0.4-0.8-1.1-1.2-1.1c-4.4-0.1-8.7-2.3-13.2-1.2c-1.1,0.3-1.8,0.9-2.8-0.1c-0.3-0.3-1.3-0.4-1.4-0.2c-1.1,1.5-2.7,0.9-4.1,1
		c-0.7,0-1.3-0.3-2-0.5c0.6-0.2,1.3-0.4,1.9-0.6c0.5-0.2,0.9-0.4,1.4-0.6c-0.5-0.2-1-0.4-1.5-0.5s-1.2,0-1.5-0.3
		c-0.9-0.8-1.6-1.8-2.4-2.7c1.5-0.8,2.8-0.4,3.8,0.9c1.1,1.3,2.3,1.5,3.8,0.5c1.8-1.1,3.8-1,5.7,0c0.4,0.2,1,0.4,1.5,0.5
		c3.7,0.4,5.7-0.1,5.1-1.2c-1.2-2.2-3.3-0.6-4.9-0.9c-2.6-0.5-5.3-0.7-7.9-1.2c-2.6-0.4-5.5,1-8-1.1c-0.3-0.3-1.1,0-1.6-0.1
		c-1.7-0.2-3.2,0.9-4.6,0.9c-1.2,0-2.5-1.3-4-0.9c-0.5,0.1-1,0.7-2.5,2.2c-0.8,1.1-0.6,1.2-0.5,1.1c0.5-0.3,1.2-0.6,1.4-1.1
		c0.4-0.9-0.1-1.2-1.1-1.1c-0.4,0-0.9-0.6-1.4-0.7c-2.2-0.8-4.3-0.5-4.2,0.6c0.2,2.1,2.5,1.4,3.6,2.4c0.2,0.2,0.7,0,2.1-1.1
		c2.3-0.1,3.9,0.1,5.5,0s3.2,0.1,4.5,1.1c0.7,1.7,2.5,1.5,3.7,2.3c0.2,0.1,0.4,0.9,0.2,1c-0.4,0.4-1.2,0.9-1.5,0.8
		c-1.4-0.8-2.6-1.8-3.9-2.7c-0.6-0.4-0.6-0.2-2,1.4c-0.3,0.3-1.3,0.6-1.4,0.5c-1.7-2-4.4-0.2-6.1-1.4c-1.9-1.4-3.9-0.4-5.8-0.7
		c-0.3-0.1-0.7,0.4-1.1,0.7c0.3,0.1,0.6,0.4,0.9,0.4c1.4,0.1,1.5,1,0.9,1.8c-0.3,0.4-1.3,0.3-2,0.4c-0.2-1.9-2-1.3-2.5-1
		c-1.8,1.1-3.4,1.8-5.2,0.3c1.5-0.9,3-1.8,4.5-2.7c0.1-0.1,0.4,0.1,0.5,0c0.9-0.5,1.8-1.1,2.7-1.6c-1-0.2-2-0.5-3.1-0.6
		c-0.7-0.1-1.5-0.1-2.1,0.2c-2.6,1.3-5,1.4-7.6-0.1c-0.9-0.5-2.2-0.1-3.3-0.1c-0.1,0-0.2,0.7-0.1,1.1c0.5,2.3,0.3,2.8-1.7,2.1
		c-3.4-1.1-6.6-0.2-9.6,0.4c-2.6,0.6-4.9,2.1-7.4,0.1c-0.2-0.1-0.8,0.3-1.2,0.4c-1.9,0.4-3.8,0.8-5.7-0.5c-0.8-0.5-2.1-0.3-3.2-0.3
		c-0.3,0-0.6,0.3-0.9,0.5c0.3,0.3,0.5,0.6,0.8,0.8c2.4,1.3,4.8,2.3,7.6,2c1.2-0.1,2.8-1.4,3.4-0.9c1.2,0.9,2.5,0.6,3.5,1.1
		c3.2,1.4,6.4,1,9.7,1c1.7,0,3.4,0,5,0c1.5,0,2.3,0.9,0.9,3.6c-0.7,0.8,0.3,0.2,1.4-0.4c0.2-0.1,0.4-0.3,0.4-0.4
		c-0.2-0.2-0.3-0.5-0.5-0.5c-1.1-0.1-2.3-0.2-3.3,0c-0.6,0.1-1.1,1-1.6,1.5c0.5,0.3,1.1,0.6,3.7-0.2c2.5-1.5,3.2-1.4,3.8-1.7
		c1.8-0.9,4.2-0.9,5.3-3c2.3,0.8,4-1.3,6.1-1.1c-0.2,0.8,0.5,2-0.9,2.2c-0.7,0.1-1.5-0.1-2.2,0c-0.8,0.1-1.7,0.2-2.4,0.7
		c-0.3,0.2,2.3,2,3.2,1.5c2.8-1.5,5.4-1.5,8.1,0c0.3,0.2,0.8,0.1,1.1,0c2.1-0.6,4.2-0.6,6.4-0.1c2.1,0.5,4.5,0.1,6.7,0.1
		c0.6,0,1.2-0.2,1.7,0c1.4,0.8,2.7,1.7,4,2.6c-1.2,1.3-2.3,2.8-3.7,3.8c-0.4,0.3-1.7-0.7-2.6-1.2c0,0,0.1-0.6,0.3-0.7
		c0.5-0.2,1-0.3,1.5-0.4c-0.5-0.2-1.1-0.5-1.6-0.8c-2.3-1.4-4.9-0.9-7.4-1.1c-4.9-0.4-9.9,1.2-14.7-1.1c-0.2-0.1-0.4-0.1-0.6,0
		c-1.2,0.6-2.5,1-3.6,1.8c-0.4,0.3,2.5,2,3.7,1.5c2.8-1.2,5.3-1,8.1-0.1c1.5,0.5,3.7,1,5.3-0.7c0.1-0.1,1,0.7,1.5,1.1
		c-0.2,0.3-0.5,0.9-0.7,0.8c-1.9-0.2-3.8,2.1-5.9,0.1c-0.5-0.5-2.1,0.3-2.7-0.1c-1.6-1.3-2.5,1.9-4.4,0.4c-1.1-0.8-3.2-0.2-4.9-0.4
		c-0.9-0.1-1.8-0.2-2.6-0.6c-1-0.4-2-1.7-2.7-1.5c-1.6,0.4,0.8,1.4,0.2,1.7c-0.9,0.4-2.1,0.5-3.2,0.4c-2.7-0.1-6.1,1.2-7.1-3.1
		c-0.1-0.5-1.2-0.2-1.9,0.8c-1.4,2.1-6.5,3.1-8.6,1.9c-0.2-0.1-0.3-0.7-0.2-1c0-0.3,0.3-0.8,0.5-0.9c0.7-0.1,1.5,0,2.2-0.1
		c0.6,0,1,2.3,1.6,0.1c0.1-0.3-0.8-1.2-1.2-1.2c-2.1,0.2-3.6-0.5-4.8-2.1c-0.3-0.5-0.5-0.3-0.9,1.3c-0.4,1.7-1.8,0.4-2.6,0.8
		c-0.4-1.9-1.6-2.5-3.5-2.3c-1.6,0.2-3.2-0.2-4.7,1.1c-0.5,0.5-2,0.4-2.7,0c-2-1-3.9,0.2-5.8,0.1c-1.5-0.1-3-0.1-3.9,1.4
		c-0.2,0.4-0.9,0.8-1.3,0.8c-1.4,0.1-3,0.5-4-1c-1,0.7-1.9,1.8-3,2.1c-2.2,0.6-4.6-0.6-6.9,1c-1.9,1.3-4.8-0.9-6.7,1.3
		c-1.9-1.6-3.7-1.5-5.8,0c-1.6,1.1-3.4-0.7-5.3-0.2c-2.1,0.5-4.4,0-6.6,0.4c-2.3,0.4-4.5-0.9-7-0.2c-2.1,0.6-4.5,0.2-6.8,1.2
		c-2.1,0.8-4.7-0.8-6.9,1.1c-0.5,0.4-2.2-0.9-3.4-1c-2.8-0.2-5.6,0.1-8.4-0.1c-2.3-0.2-4.8,1-6.9-0.9c-2.5,1.8-4-0.1-5.8-1.3
		c-0.3-0.2-1.3,0.1-1.4,0.3c-1.2,3.5-3.8,1.9-5.7,1.2c-1.3-0.4-1.8-0.4-2.8,0.3c-1.2,0.9-2.4-0.3-2.6-1.1c-0.4-1.5,1.1-0.5,1.7-0.8
		c0.4-0.2,0.7-0.5,1.1-0.7c-0.3-0.1-0.6-0.4-1-0.4c-1.5,0-3.4-0.7-3.7,1.9c-0.1,0.5-1,1.3-1.5,1.3c-1.2-0.1-2.3-0.7-3.4-1.1
		c-0.1,0-0.1-0.7,0.1-0.7c0.3-0.1,0.7-0.2,1.1-0.2c0.9,0,2.2,0.1,1.8-1.2c-0.5-2.2-1.1,0.2-1.6,0.1c-1.9-0.5-3.6-1.3-5.7-1.2
		c-1.7,0.1-3.6,0.8-5.3-0.7c-0.8-0.6-2.8-0.7-3.6-0.1c-1.2,1-2.4,0.8-3.6,0.9c-0.5,0.1-1.2,0.3-1.4,0.6c-0.4,0.8,0.7,2.6-1,2.6
		c-2.3,0-4.9,1.2-6.7-1.3c-0.8-1.2-1.6-0.9-2.8-0.1c-0.5,0.3-2-0.9-2.7-0.6c-3,1.2-6.5-1.6-9.3,1c-1.4-0.9-2.9-1.3-4.6-1.1
		c-0.1-0.3-0.2-0.6-0.4-0.9c-0.3,0.3-0.5,0.6-0.8,0.9c-0.7,0-1.5-0.1-2.2,0c-0.3,0.1-0.8,0.4-0.9,0.8c-0.4,1.6-0.4,1.7-0.9,1.3
		c-1.6-1.1-3.1-2.4-4.7-3.5c-0.7-0.5-1.9-1.1-2.4-0.8c-3.3,1.8-6.8,0.7-10.2,1.1c-0.3,0-0.6,0.3-1,0.4c0.4,0.2,0.7,0.7,1.1,0.7
		c1.9,0.1,3.7-0.1,5.6,0.1c0.8,0.1,1.7,0.5,2.4,0.8c0.3,0.1,0.5,0.5,0.8,0.8c-0.3,0.2-0.5,0.6-0.8,0.6c-5.6,0-11.2-0.1-16.7-0.1
		c-1.1-2.1-1.9,0.4-3.1,0.2c-2.4-0.4-4.9,0.4-7.2-0.9c-1.7,2.1-4.9-0.5-6.5,1.9c-2.7-3-5.3,0.3-8,0.1c-2.8-0.2-5.6,0.1-8.4-0.1
		c-1.6-0.1-3.2,0.6-4.8-0.7c-0.6-0.5-2.5,0.5-3.7,1c-0.6,0.2-0.9,1.1-1.6,0.2c-1.8-2.4-4.1-1.7-6.5-1.2c-1.2,0.3-2.4,0.7-3.6,0.7
		c-1.4,0-2.9-0.2-4.3-0.4c1.3-0.7,2.7-1.3,4-2c0.2-0.1,0.3-0.6,0.4-0.9c0.3-0.1,0.6-0.2,0.9-0.4c-0.3-0.2-0.6-0.5-1.2-0.7
		c-0.1,0,0.1,0,0.3,0c-0.1-0.3-0.2-0.6-0.3-0.8c-0.1-0.1-0.4,0.1-0.7,0.2c0.2,0.2,0.3,0.4,0.8,0.7c0.3,0.4,0.3,0.7,0.3,1.1
		c-2.9-0.3-5.5,1.6-8.5,1.3c-1.3-0.1,1.7,1.6-0.2,2c-0.9,0.2-1.8,0-2.8,0c-1.1,0-2.2,0-3.3,0s-2.4,0.3-2.1-1.6
		c-0.4,0-0.9-0.3-1.1-0.1c-1.2,1-2.1,2.8-4,0.7c-0.2-0.2-1.2,0.4-1.8,0.6c-3.4,1-5.3,0.5-7.2-1.9c-0.1-0.2,0.1-1,0.2-1
		c3.7-0.2-0.7-1.7,0.4-2.3c0.3-0.1,0.6-0.2,0.9-0.4c-0.3-0.2-0.6-0.5-1.9-0.7c0-0.3,1.2-0.7,2.4-1.2c0.3-0.1,0.5-0.4,0.8-0.6
		c-0.3-0.2-0.7-0.5-0.9-0.5c-1.4,0.3-2.7,0.7-4,1.1c-0.2,0.1-0.3,0.5-0.5,0.7c0.3,0.1,0.6,0.3,2.3,0.5c0.9,0.3,0.9,0.7,0.9,1
		c-1.3,0-2.7-0.2-3.9,0.1c-1,0.3-1.8,1.2-2.6,1.8c0.9,0.5,1.8,1,2.7,1.4c0.3,0.1,0.9-0.1,1,0.1c0.6,0.6,1.2,1.3,1.6,2.1
		c0.1,0.2-0.5,1.1-0.8,1.1c-0.9-0.1-1.9,0.6-2.7-1c-0.7-1.6-3.8-1.8-5.2-0.9c-2,1.3-6.8,1.2-8.6-0.3C65.9,121.5,65.1,121,64,121.2z
		 M215.7,114.5c-0.3,0.1-0.6,0.2-0.9,0.4c0.3,0.2,0.6,0.5,0.9,0.7c0.3,0.4,0.6,0.7,0.8,1.1c0.5-0.4,0.9-0.7,2.6-2.3
		c-0.3,0.2-0.7,0.4-1.2,0.7c0.2,0.2,0.4,0.5,0.5,0.5c0.6-0.2,1.1-0.4,1.6-0.6c-0.3-0.2-0.6-0.3-2.2,0.7c-0.7,0-1.5,0-2.2,0
		c0-0.4,0-0.7,0.7-2.1c-0.2,0.2-0.4,0.4-0.7,0.5c0.2,0.2,0.3,0.3,0.5,0.5c0.2-0.2,0.4-0.4,0.5-0.7
		C216.7,113.8,216.5,113.6,215.7,114.5z M173.4,116.3c-0.9-0.4-1.3-0.6-1.7-0.7c-0.3-0.1-0.7,0-1,0c0.3,0.4,0.4,0.9,0.8,1.1
		c0.4,0.1,0.9-0.2-1.8-0.8c0.4-0.3,0.7-0.5,1-0.7c-0.3-0.2-0.5-0.6-0.8-0.6c-0.5,0-0.9,0.3-1.4,0.4
		C168.9,115.2,169.2,115.5,173.4,116.3z M225.7,120.7c-0.2-0.2-0.4-0.4-0.5-0.6c-0.2,0.2-0.3,0.3-0.5,0.5c0.2,0.2,0.4,0.4,0.7,0.5
		c0,0,0.2-0.2-2.2-1c0.8,0,1.2,0,1.5,0c-0.5-0.7-1-1.3-1.5-2c-0.3,0.3-0.8,0.6-0.7,0.8C222.6,119.3,223,119.8,225.7,120.7z
		 M29.7,92.2c0.2,0,0.3,0,0.5,0c-0.1-0.3-0.2-0.6-0.3-0.8c-0.1-0.1-0.4,0.1-0.7,0.2c0.2,0.2,0.3,0.4,1,0.7c0,0.7,0,1.5-3,3.3
		c0.7,0,1.5,0.1,2.2,0c0.3,0,0.6-0.4,0.8-0.6c-0.4-0.2-0.7-0.5-1.1-0.5c-1.1,0-2.1-0.1-2.9-1.1c-0.1-0.2-1,0.1-1.4,0.3
		c-0.2,0.1-0.4,0.7-0.2,0.9c0.2,0.4,0.6,0.8,1,0.9c0.5,0.2,1.1,0,4.6-1.1c0.7-0.6,1.4-1.3,2-1.9C31.6,92.4,30.9,92.3,29.7,92.2z
		 M365.2,101.1c-0.4,0-0.8-0.1-1.1,0c-0.7,0.3-2.1-0.7-1.9,0.7c0,0.5,1.4,1.4,2.1,1.4c1.3-0.1,2.6-0.8,3.9-1.2
		c0.2-0.1,0.4-0.3,0.4-0.4c-0.2-0.2-0.3-0.5-0.5-0.5c-0.9-0.1-1.9,0,1.2-1.1c-0.2,0.2-0.4,0.4-0.7,0.5c0.2,0.2,0.3,0.3,0.5,0.5
		c0.2-0.2,0.4-0.4,0.5-0.7C369.5,100.4,369.3,100.2,365.2,101.1z M35.4,115.6c0.2,0,0.3,0,0.5,0c-0.1-0.3-0.2-0.6-0.3-0.8
		c-0.1-0.1-0.4,0.1-0.7,0.2c0.2,0.2,0.3,0.4,4.1,1.8c1.2-0.4,2.9,0.9,3.7-1c0.4-1.1-1-1.5-3.9-1.3c-0.2,0-0.4-0.1-0.5,0
		c-0.8,0.5-1.5,1.1-2.3,1.6c0.6,0.2,1.3,0.4,1.9,0.6C38.1,116.8,38.5,116.7,35.4,115.6z M19.1,35.5c0.4-0.3,0.7-0.5,1-0.7
		c-0.3-0.2-0.5-0.6-0.8-0.6c-0.5,0-0.9,0.3-1.4,0.4c0.3,0.3,0.7,0.5,5.2,3.2c-0.8-0.7-2-1.6-3.1-2.5c0,0.2,0.1,0.4,0,0.5
		c-0.3,0.8-1.1,1.6-1,2.3c0.1,0.9,0.9,1.8,1.5,2.6c0.2,0.2,1.2,0.1,1.4-0.1C22.5,39.9,22.7,39,19.1,35.5z M78,110.3
		c0.2,0.2-0.1-0.2-0.3-0.2c-0.8,0.1-1.6,0.4-2.4,0.6c0.2,0.5,0.4,1,0.6,1.6c-0.6-0.2-1.3-0.5-1.9-0.7c-0.9-0.2-1.7-0.3-2.6-0.4
		c-0.1,0-0.2,0.5-0.4,0.7c2,0.8,4.1,1.6,6.1,2.4c0,0,0.3-0.6,0.4-0.9C77.6,112.6,77.7,111.7,78,110.3z M315.7,113.5
		c1.8-0.6,3.8,0.6,5.5-0.9c-1.8-0.1-3.6-0.5-5.4-0.3c-1.4,0.1-3.1-0.9-4.4,0.7C312.8,113.2,314.2,113.3,315.7,113.5z M105.7,119.3
		c-0.3-0.7-0.4-1.2-0.5-1.2c-1.1-0.1-2.5-1.1-3,0.9c-0.2,0.7-0.5,1.4-0.7,2.1c0.6-0.1,1.3-0.2,1.9-0.4
		C104.1,120.2,104.9,119.7,105.7,119.3z M453.8,108c0.9-0.2,1.5-0.4,2.2-0.5c-0.4-0.5-0.7-1-1.1-1.5c-0.3-0.4-0.7-0.9-1.2-1.1
		c-0.3-0.1-0.9,0.2-1.1,0.4c-0.4,0.5-0.6,1.2-0.9,1.8C452.4,107.4,453.1,107.7,453.8,108z M385.2,116.7c0.1,0,1.2-0.2,2.2-0.4
		c-0.8-1.5-2.2-0.5-3.2-0.7c-0.9-0.2-1.8,0-2.8,0c-0.1,0-0.4,0.3-0.4,0.4c0.1,0.3,0.3,0.7,0.4,0.7
		C382.4,116.8,383.4,116.7,385.2,116.7z M228.2,115.5c-1.5-0.4-2.8-0.7-4.1-1c0,0.4-0.2,0.8,0,1.1c0.7,1.4,2.1,1.2,3.3,1.1
		C227.6,116.7,227.7,116.2,228.2,115.5z M67.5,112c-0.7,0.4-1,0.6-1.2,0.8c0.7,0.9,1.3,1.9,2,2.8c0.1,0.1,0.6-0.1,1-0.2
		c-0.1-0.4-0.2-0.8-0.4-1.1C68.4,113.5,67.9,112.8,67.5,112z M96.1,117.3c-0.2-0.4-0.3-0.8-0.5-1.2c-0.9-0.2-1.7-0.4-2.6-0.6
		c-0.3,0-0.6,0.3-0.9,0.5c0.8,0.6,1.6,1.2,2.6,1.6C95,117.9,95.6,117.5,96.1,117.3z M6.1,21.9c-0.2,0.1-0.9,0.4-1.6,0.7
		c0.7,0.1,1.4,0.3,2,0.4c0.5,0.1,1.1,0.1,1.6,0c0.2,0,0.3-0.4,0.4-0.7c0-0.1-0.2-0.4-0.4-0.4C7.8,21.8,7.2,21.9,6.1,21.9z
		 M256.7,113.4c0.2-0.1,0.9-0.4,1.6-0.7c-0.7-0.1-1.4-0.3-2-0.4c-0.5-0.1-1.1-0.1-1.6,0c-0.2,0-0.3,0.4-0.4,0.7
		c0,0.1,0.2,0.4,0.4,0.4C255,113.4,255.6,113.4,256.7,113.4z M472.1,79.4c-0.6-0.5-1.3-1-2.1-1.6c-0.1,0.3-0.4,0.8-0.3,0.9
		c0.6,0.7,1.2,1.4,1.9,2C471.7,80.5,471.8,80.2,472.1,79.4z M379.2,100.9c-0.9-0.5-1.5-1-1.7-0.9c-0.5,0.3-0.8,0.9-1.2,1.3
		c0.4,0.3,0.8,0.9,1.1,0.8C378,102,378.4,101.5,379.2,100.9z M188.2,115.6c0.7,0,1.5,0,2.2,0c0.1,0,0.2-0.5,0.3-0.7
		c-1.4,0-2.7,0-4.1,0c0.2,0.2,0.3,0.6,0.5,0.7C187.4,115.7,187.8,115.6,188.2,115.6z M264.6,118.9c-0.2,0.1-0.9,0.4-1.6,0.7
		c0.7,0.1,1.4,0.3,2,0.4c0.5,0.1,1.1,0.1,1.6,0c0.2,0,0.3-0.4,0.4-0.7c0-0.1-0.2-0.4-0.4-0.4C266.3,118.9,265.7,118.9,264.6,118.9z
		 M247.9,115.4c-0.6,0.3-1.3,0.5-1.9,0.7c0.5,0.2,0.9,0.5,1.4,0.5c0.7,0,1.3-0.3,2-0.5C248.9,115.9,248.5,115.7,247.9,115.4z
		 M236.7,116.9c0.4-0.3,0.9-0.6,1.3-1c-0.5-0.1-1-0.4-1.5-0.3c-0.5,0.1-1,0.4-1.5,0.7C235.4,116.5,235.9,116.7,236.7,116.9z
		 M100.7,115.4c-0.8,0.3-1.3,0.4-1.7,0.6c0.5,0.3,1,0.6,1.5,0.7c0.5,0.1,1-0.2,1.5-0.3C101.5,116,101.1,115.7,100.7,115.4z
		 M377.2,114.3c-0.6,0.3-1.3,0.5-1.9,0.7c0.5,0.2,0.9,0.5,1.4,0.5c0.7,0,1.3-0.3,2-0.5C378.2,114.8,377.7,114.6,377.2,114.3z
		 M324.3,108.7c-0.6,0.3-1.3,0.5-1.9,0.7c0.5,0.2,0.9,0.5,1.4,0.5c0.7,0,1.3-0.3,2-0.5C325.4,109.2,324.9,109,324.3,108.7z
		 M341.7,103.1c-0.6,0.4-0.9,0.6-1.2,0.8c0.6,0.5,1.2,1,1.9,1.5c0.1-0.3,0.4-0.7,0.3-0.9C342.4,103.9,342,103.5,341.7,103.1z
		 M119.8,121.4c0.4-0.3,0.9-0.6,1.3-1c-0.5-0.1-1-0.4-1.5-0.3c-0.5,0.1-1,0.4-1.5,0.7C118.6,121,119,121.1,119.8,121.4z
		 M383.5,101.3c0.6-0.3,1.3-0.5,1.9-0.7c-0.5-0.2-0.9-0.5-1.4-0.5c-0.7,0-1.3,0.3-2,0.5C382.5,100.8,382.9,101,383.5,101.3z
		 M346.8,103.1c-0.6,0.3-1.3,0.5-1.9,0.7c0.5,0.2,0.9,0.5,1.4,0.5c0.7,0,1.3-0.3,2-0.5C347.8,103.7,347.4,103.4,346.8,103.1z
		 M385.8,105.3c-0.4,0.3-0.9,0.6-1.3,1c0.5,0.1,1,0.4,1.5,0.3c0.5-0.1,1-0.4,1.5-0.7C387,105.8,386.5,105.6,385.8,105.3z
		 M346.4,102.4c0.6-0.3,1.3-0.5,1.9-0.7c-0.5-0.2-0.9-0.5-1.4-0.5c-0.7,0-1.3,0.3-2,0.5C345.4,101.9,345.8,102.1,346.4,102.4z
		 M376.7,108.7c0.6-1.4,0.9-1.9,0.8-2c-0.4-0.4-0.9-0.8-1.3-1.2c-0.2,0.3-0.6,0.7-0.5,0.9C375.8,107.1,376.2,107.7,376.7,108.7z
		 M57.5,105.8c0.8-0.3,1.3-0.4,1.7-0.6c-0.5-0.3-1-0.6-1.5-0.7c-0.5-0.1-1,0.2-1.5,0.3C56.7,105.1,57.2,105.5,57.5,105.8z
		 M473.7,94.2c0.6-0.5,1.1-1,1.6-1.5c-0.5-0.2-1.2-0.6-1.3-0.5c-0.4,0.4-0.6,1-0.8,1.6C473.1,93.9,473.5,94.1,473.7,94.2z M81,110.8
		c-0.3-0.6-0.5-1.3-0.8-1.9c-0.2,0.5-0.5,0.9-0.5,1.4c0,0.7,0.3,1.3,0.5,1.9C80.5,111.8,80.7,111.4,81,110.8z M462,76.6
		c-0.4-0.6-0.6-0.9-0.8-1.2c-0.5,0.6-1,1.2-1.5,1.9c0.3,0.1,0.7,0.4,0.9,0.3C461.2,77.4,461.6,77,462,76.6z M347.9,112.5
		c0.4-0.3,0.9-0.6,1.3-1c-0.5-0.1-1-0.4-1.5-0.3c-0.5,0.1-1,0.4-1.5,0.7C346.7,112,347.2,112.2,347.9,112.5z M471.9,36.1
		c-0.3-0.4-0.4-0.9-0.6-0.9c-0.5,0-1,0.2-1.5,0.3c0.1,0.2,0.3,0.7,0.4,0.7C470.8,36.4,471.3,36.2,471.9,36.1z M21.1,53.2
		c0.4-0.2,0.8-0.4,1.3-0.6c-0.3-0.2-0.6-0.5-0.8-0.5c-0.5,0.1-0.9,0.3-1.4,0.5C20.4,52.7,20.7,52.9,21.1,53.2z M16.7,76.7
		c0.3,0.4,0.5,0.7,0.7,1c0.2-0.5,0.5-0.9,0.5-1.4c0-0.3-0.3-0.6-0.5-0.8C17.1,75.9,16.9,76.3,16.7,76.7z M22.2,87.6
		c-0.4,0.3-0.7,0.5-1,0.6c0.5,0.2,0.9,0.5,1.4,0.5c0.3,0,0.6-0.3,0.8-0.5C23.1,88,22.6,87.8,22.2,87.6z M23.5,95.3
		c-0.3-0.4-0.4-0.9-0.6-0.9c-0.5,0-1,0.2-1.5,0.3c0.1,0.2,0.3,0.7,0.4,0.7C22.3,95.5,22.9,95.4,23.5,95.3z M468.6,99
		c-0.2-0.4-0.4-0.8-0.7-1.3c-0.2,0.3-0.6,0.6-0.5,0.8c0.1,0.5,0.3,0.9,0.5,1.4C468.2,99.7,468.4,99.4,468.6,99z M336.8,103.3
		c0.1-0.6,0.2-1.1,0.2-1.6c0-0.2-0.5-0.3-0.7-0.4c-0.1,0.5-0.3,1-0.3,1.5C336,102.9,336.4,103,336.8,103.3z M333.9,102.8
		c-0.2-0.1-0.6-0.2-1-0.4c-0.1,0.3-0.4,0.7-0.3,0.9c0.1,0.4,0.5,0.6,0.7,1C333.4,104,333.6,103.7,333.9,102.8z M356.8,102
		c-0.1,0.2-0.2,0.6-0.4,1c0.3,0.1,0.7,0.4,0.9,0.3c0.4-0.1,0.7-0.5,1-0.7C357.9,102.5,357.6,102.3,356.8,102z M317.7,104.4
		c0-0.4,0-0.8-0.1-0.9c-0.5-0.1-1,0-1.5,0v0.7C316.6,104.3,317.1,104.3,317.7,104.4z M199.9,107.6c-0.3-0.4-0.4-0.9-0.6-0.9
		c-0.5,0-1,0.2-1.5,0.3c0.1,0.2,0.3,0.7,0.4,0.7C198.8,107.8,199.3,107.6,199.9,107.6z M167.3,110.2c-0.6-0.1-1.1-0.2-1.6-0.2
		c-0.2,0-0.3,0.5-0.4,0.7c0.5,0.1,1,0.3,1.5,0.3C166.9,111.1,167.1,110.7,167.3,110.2z M356.3,109.9c-0.4,0.2-0.8,0.4-1.3,0.6
		c0.3,0.2,0.6,0.5,0.8,0.5c0.5-0.1,0.9-0.3,1.4-0.5C357,110.4,356.7,110.2,356.3,109.9z M351.1,112.5c0.9-0.4,1.2-0.5,1.5-0.6
		c-0.3-0.2-0.6-0.6-1-0.7c-0.3-0.1-0.6,0.2-0.9,0.3C350.9,111.9,351.1,112.3,351.1,112.5z M233.9,116.1c-0.4-0.9-0.5-1.2-0.6-1.5
		c-0.2,0.3-0.6,0.6-0.7,1c-0.1,0.3,0.2,0.6,0.3,0.9C233.3,116.4,233.7,116.2,233.9,116.1z M77.4,115.8c-0.6-0.1-1.1-0.2-1.6-0.2
		c-0.2,0-0.3,0.5-0.4,0.7c0.5,0.1,1,0.3,1.5,0.3C77,116.7,77.1,116.2,77.4,115.8z M209.1,115.5c-0.4,0.2-0.8,0.4-1.3,0.6
		c0.3,0.2,0.6,0.5,0.8,0.5c0.5-0.1,0.9-0.3,1.4-0.5C209.8,116,209.5,115.8,209.1,115.5z M93.1,119.8c-0.3-0.4-0.4-0.9-0.6-0.9
		c-0.5,0-1,0.2-1.5,0.3c0.1,0.2,0.3,0.7,0.4,0.7C92,120.1,92.5,119.9,93.1,119.8z M72,120c-0.4,0.2-0.8,0.4-1.3,0.6
		c0.3,0.2,0.6,0.5,0.8,0.5c0.5-0.1,0.9-0.3,1.4-0.5C72.7,120.4,72.4,120.2,72,120z M8.8,16.4c0.4-0.2,0.8-0.4,1.3-0.6
		c-0.3-0.2-0.6-0.5-0.8-0.5c-0.5,0.1-0.9,0.3-1.4,0.5C8.1,15.9,8.3,16.1,8.8,16.4z M181.6,115.4c0.2-0.1,0.3-0.3,0.4-0.4
		c-0.2-0.1-0.5-0.3-0.8-0.3c-0.1,0-0.2,0.2-0.4,0.3C181.1,115.2,181.3,115.3,181.6,115.4z M318.1,101.8c0.2,0.1,0.3,0.3,0.4,0.4
		c0.1-0.2,0.3-0.5,0.4-0.7c0-0.1-0.2-0.2-0.4-0.4C318.4,101.3,318.2,101.6,318.1,101.8z M93.7,111.1c-0.1,0.1-0.4,0.3-0.4,0.4
		c0.1,0.3,0.2,0.5,0.4,0.7c0.1-0.1,0.4-0.3,0.4-0.4C94,111.6,93.9,111.4,93.7,111.1z M178,108.9c-0.1,0.1-0.4,0.3-0.4,0.4
		c0.1,0.3,0.2,0.5,0.4,0.7c0.1-0.1,0.4-0.3,0.4-0.4C178.3,109.4,178.2,109.2,178,108.9z M243.8,115c-0.1-0.1-0.3-0.4-0.4-0.3
		c-0.3,0.1-0.5,0.2-0.8,0.3c0.1,0.1,0.3,0.4,0.4,0.3C243.3,115.3,243.5,115.2,243.8,115z M266.3,115c-0.1-0.1-0.3-0.4-0.4-0.3
		c-0.3,0.1-0.5,0.2-0.8,0.3c0.1,0.1,0.3,0.4,0.4,0.3C265.8,115.3,266,115.2,266.3,115z M342.8,115.2c0.2,0.1,0.3,0.3,0.4,0.4
		c0.1-0.2,0.3-0.5,0.4-0.7c0-0.1-0.2-0.2-0.4-0.4C343.1,114.7,343,115,342.8,115.2z M246,97.2c-0.1-0.1-0.3-0.4-0.4-0.3
		c-0.3,0.1-0.5,0.2-0.8,0.3c0.1,0.1,0.3,0.4,0.4,0.3C245.5,97.5,245.8,97.3,246,97.2z M91.3,111c0.2-0.1,0.5-0.3,0.7-0.4
		c-0.1-0.1-0.3-0.4-0.4-0.3c-0.3,0.1-0.5,0.2-0.8,0.3C91.1,110.7,91.2,110.8,91.3,111z M171.3,108.9c-0.1,0.1-0.4,0.3-0.4,0.4
		c0.1,0.3,0.2,0.5,0.4,0.7c0.1-0.1,0.4-0.3,0.4-0.4C171.6,109.4,171.4,109.2,171.3,108.9z M256.9,107.6c0.2-0.1,0.3-0.3,0.4-0.4
		c-0.2-0.1-0.5-0.3-0.8-0.3c-0.1,0-0.2,0.2-0.4,0.3C256.4,107.4,256.6,107.5,256.9,107.6z M306.9,113c0.2,0.1,0.3,0.3,0.4,0.4
		c0.1-0.2,0.3-0.5,0.4-0.7c0-0.1-0.2-0.2-0.4-0.4C307.1,112.5,307,112.7,306.9,113z M323.4,113c-0.1-0.2-0.3-0.5-0.4-0.7
		c-0.1,0.1-0.4,0.3-0.4,0.4c0.1,0.3,0.2,0.5,0.4,0.7C323.1,113.2,323.3,113.1,323.4,113z M334.4,112.4c-0.2,0.1-0.5,0.3-0.7,0.4
		c0.1,0.1,0.3,0.4,0.4,0.3c0.3-0.1,0.5-0.2,0.8-0.3C334.7,112.7,334.6,112.6,334.4,112.4z M30.2,88.3c-0.1-0.1-0.3-0.4-0.4-0.3
		c-0.3,0.1-0.5,0.2-0.8,0.3c0.1,0.1,0.3,0.4,0.4,0.3C29.8,88.5,30,88.4,30.2,88.3z M467,77.5c0.2-0.1,0.3-0.3,0.4-0.4
		c-0.2-0.1-0.5-0.3-0.8-0.3c-0.1,0-0.2,0.2-0.4,0.3C466.5,77.2,466.8,77.4,467,77.5z M447.4,76.9c0.1,0.2,0.3,0.5,0.4,0.7
		c0.1-0.1,0.4-0.3,0.4-0.4c-0.1-0.3-0.2-0.5-0.4-0.7C447.6,76.7,447.5,76.8,447.4,76.9z M398.3,115.6c-0.1,0.1-0.4,0.3-0.4,0.4
		c0.1,0.3,0.2,0.5,0.4,0.7c0.1-0.1,0.4-0.3,0.4-0.4C398.6,116.1,398.4,115.8,398.3,115.6z M22,76.7c-0.2,0.1-0.5,0.3-0.7,0.4
		c0.1,0.1,0.3,0.4,0.4,0.3c0.3-0.1,0.5-0.2,0.8-0.3C22.3,77,22.1,76.9,22,76.7z M355.8,113.2c0.2-0.1,0.3-0.3,0.4-0.4
		c-0.2-0.1-0.5-0.3-0.8-0.3c-0.1,0-0.2,0.2-0.4,0.3C355.3,112.9,355.5,113.1,355.8,113.2z M209.7,113.5c-0.2,0.1-0.5,0.3-0.7,0.4
		c0.1,0.1,0.3,0.4,0.4,0.3c0.3-0.1,0.5-0.2,0.8-0.3C209.9,113.8,209.8,113.7,209.7,113.5z M25.4,51c-0.2,0.1-0.5,0.3-0.7,0.4
		c0.1,0.1,0.3,0.4,0.4,0.3c0.3-0.1,0.5-0.2,0.8-0.3C25.6,51.3,25.5,51.2,25.4,51z M24.1,46.4c-0.1,0.1-0.4,0.3-0.4,0.4
		c0.1,0.3,0.2,0.5,0.4,0.7c0.1-0.1,0.4-0.3,0.4-0.4C24.4,46.9,24.2,46.7,24.1,46.4z M21.1,44.6c-0.2-0.1-0.3-0.3-0.4-0.4
		c-0.1,0.2-0.3,0.5-0.4,0.7c0,0.1,0.2,0.2,0.4,0.4C20.8,45,21,44.8,21.1,44.6z M10.7,38.4c0.2-0.1,0.3-0.3,0.4-0.4
		c-0.2-0.1-0.5-0.3-0.8-0.3c-0.1,0-0.2,0.2-0.4,0.3C10.3,38.2,10.5,38.3,10.7,38.4z M23.3,31.5c-0.1-0.2-0.3-0.5-0.4-0.7
		c-0.1,0.1-0.4,0.3-0.4,0.4c0.1,0.3,0.2,0.5,0.4,0.7C23.1,31.8,23.2,31.7,23.3,31.5z M28.7,104.3c0.2-0.1,0.3-0.3,0.4-0.4
		c-0.2-0.1-0.5-0.3-0.8-0.3c-0.1,0-0.2,0.2-0.4,0.3C28.2,104,28.5,104.2,28.7,104.3z M71.4,115.4c0.2-0.1,0.3-0.3,0.4-0.4
		c-0.2-0.1-0.5-0.3-0.8-0.3c-0.1,0-0.2,0.2-0.4,0.3C70.9,115.2,71.2,115.3,71.4,115.4z M404.5,101.7c-0.1-0.1-0.3-0.4-0.4-0.3
		c-0.3,0.1-0.5,0.2-0.8,0.3c0.1,0.1,0.3,0.4,0.4,0.3C404,101.9,404.2,101.8,404.5,101.7z M209.7,111c0.2-0.1,0.3-0.3,0.4-0.4
		c-0.2-0.1-0.5-0.3-0.8-0.3c-0.1,0-0.2,0.2-0.4,0.3C209.2,110.7,209.4,110.8,209.7,111z M110.4,119.1c-0.2,0.1-0.3,0.3-0.4,0.4
		c0.2,0.1,0.5,0.3,0.8,0.3c0.1,0,0.2-0.2,0.4-0.3C110.9,119.4,110.7,119.2,110.4,119.1z"/>
	<path d="M355.4,117.8c1.6-0.9,3.1,1.3,5.1,0.2c1.5-0.8,3.9,0.2,5.6-1.2c0.1-0.1,1.1,0.3,1.2,0.7s-0.1,1.2-0.4,1.4
		c-0.4,0.3-1.1,0-1.6,0.2c-1.9,0.6-8.9,1.3-10.9,1.1c-0.5-0.1-1.1-0.2-1.5-0.4c-0.5-0.3-0.8-0.8-1.2-1.1c0.4-0.2,0.8-0.6,1.2-0.6
		C353.7,117.8,354.5,117.8,355.4,117.8z"/>
	<path d="M52.7,122.3c0.6-0.4,1.2-0.7,1.7-1.1c1-1,1.8-1.8,3.1-0.3c0.2,0.2,0.8,0.4,0.9,0.3c1.9-2.1,3.8,0.3,5.6,0
		c-0.2,0.8,0.5,1.9-0.8,2.2c-1.7,0.4-3.4-0.4-5.2,0.7c-1,0.6-3.2-0.5-4.8-0.9C52.9,123.1,52.9,122.6,52.7,122.3z"/>
	<path d="M441,122.5c-1.8-0.5-3.2-1-4.7-1.4c-0.8-0.2-1.7-0.4-2.5-0.5c0.8-0.9,1.6-2.1,3.1-1.7c1.3,0.3,2.6,0.8,3.9,1.1
		c0.8,0.2,2.1-0.3,1.9,1.1C442.5,121.7,441.5,122.1,441,122.5z"/>
	<path d="M33.1,126.8c-3.2,0.6-4.2-2.4-6.1-3.8c0,0,0.1-0.3,0.2-0.4c0.3-0.1,0.8-0.4,1-0.3c1.8,1.4,4.7,0.7,5.9,3.1
		c0.2,0.5,0.5,0.9,0.8,1.3C34.2,126.8,33.6,126.8,33.1,126.8z"/>
	<path d="M43.9,124.5c-2.2,0.5-3.1-1.4-4.3-2.6c-0.1-0.1,0.6-1.1,1-1.5c1.4-1.2,0.9,0.2,0.9,0.7c0.3,2.4,3.2,0.1,3.8,2.1
		c0.1,0.3,0.4,0.5,0.7,0.8c-0.3,0.2-0.6,0.4-0.9,0.5C44.7,124.6,44.3,124.5,43.9,124.5z"/>
	<path d="M15.5,108.5c-0.3,0.1-0.6,0.4-1,0.4c-1.6,0-3.1,0-4.5,1.1c-0.4,0.3-1.3-0.2-2-0.3c0.5-0.6,0.9-1.8,1.5-1.8
		c1.8-0.2,3.7-0.1,5.5-0.1C15.2,107.8,15.3,108.2,15.5,108.5z"/>
	<path d="M12.3,79.9c-1.4,0-3.1-1.3-3.2-2.6c0-0.5,0.7-1,1.2-1.6c0.3,0.2,0.6,0.4,0.8,0.7c0.6,0.8,1.3,1.7,1.9,2.5
		c0.2,0.3,0.3,0.6,0.4,0.9C13,79.9,12.7,79.9,12.3,79.9z"/>
	<path d="M21.3,121.6c0.5-0.5,0.8-1,1.3-1.2c0.3-0.1,1,0.1,1.1,0.4c0.4,0.9,0.7,1.9,0.9,2.8c0.1,0.2-0.3,0.5-0.5,0.8
		c-0.1-0.1-0.4-0.3-0.4-0.4C23.9,122.4,22.1,122.5,21.3,121.6z"/>
	<path d="M6.6,38.6c-0.5,0.7-1,1.4-1.5,2.1c0,0-0.6-0.3-0.7-0.4c-0.1-0.7-0.1-1.4,0-2.2c0-0.1,0.2-0.4,0.4-0.4c0.5,0,1-0.1,1.5,0
		C6.4,37.8,6.5,38.3,6.6,38.6z"/>
	<path d="M13.8,118.5c-1.4,0.7-2.4,1.2-3.4,1.5c-0.4,0.1-1-0.3-1.5-0.5c0.1-0.1,0.2-0.3,0.3-0.4c1-0.5,2-0.9,3-1.3
		C12.5,117.8,12.9,118.1,13.8,118.5z"/>
	<path d="M442.2,114.2c-0.8,0.7-1.2,1.4-1.4,1.3c-0.5-0.2-1-0.6-1.4-1.1c-0.1-0.1,0.5-1,0.8-1C440.7,113.4,441.2,113.8,442.2,114.2z
		"/>
	<path d="M8.3,93.3c-0.8,0.6-1.1,1-1.5,1.1c-1.3,0.2-1.4-0.7-1.2-1.7c0-0.2,0.7-0.6,1-0.5C7.1,92.4,7.5,92.8,8.3,93.3z"/>
	<path d="M15.8,101.6c0.5,0.9,1,1.5,0.9,1.7c-0.3,0.5-0.9,0.8-1.3,1.2c-0.3-0.4-0.9-0.8-0.8-1.1C14.7,102.8,15.2,102.4,15.8,101.6z"
		/>
	<path d="M434.9,122.1c0.5,0.3,0.7,0.4,0.7,0.5c0,0.3,0,0.6-0.2,0.8c-0.5,0.4-1.1,0.9-1.7,1.2c-0.3,0.1-0.7,0-1.1,0
		c0,0-0.1-0.4,0-0.5C433.4,123.3,434.2,122.7,434.9,122.1z"/>
	<path d="M475.3,50.9c0.4-0.7,0.7-1.5,1.1-2.2c0.4,0.5,1.1,1,1.1,1.4C477.3,51.4,476.1,50.7,475.3,50.9z"/>
	<path d="M432.7,125.1c-0.7,0.6-1.3,1.1-1.9,1.6c-0.1-0.3-0.4-0.6-0.4-0.9c-0.1-1.3,0.8-1.3,1.7-1.2
		C432.3,124.6,432.4,124.8,432.7,125.1z"/>
	<path d="M478.1,35c0.9,0.4,1.2,0.5,1.5,0.6c-0.3,0.2-0.6,0.6-1,0.7c-0.3,0.1-0.6-0.2-0.9-0.3C477.9,35.6,478.1,35.2,478.1,35z"/>
	<path d="M12.2,54.4c-0.3,0.4-0.4,0.9-0.6,0.9c-0.5,0-1-0.2-1.5-0.3c0.1-0.2,0.3-0.7,0.4-0.7C11.1,54.2,11.6,54.4,12.2,54.4z"/>
	<path d="M480.2,80.6c-1,0.2-1.5,0.5-1.9,0.4c-0.3-0.1-0.5-0.7-0.8-1.1c0.3,0,0.7-0.1,1,0C479,80,479.4,80.2,480.2,80.6z"/>
	<path d="M5,97.5c0.9,0.4,1.2,0.5,1.5,0.6c-0.3,0.2-0.6,0.6-1,0.7c-0.3,0.1-0.9-0.3-0.9-0.3C4.7,98.1,4.9,97.7,5,97.5z"/>
	<path d="M23.5,108.7c-0.6,0.1-1.1,0.2-1.6,0.2c-0.2,0-0.3-0.5-0.4-0.7c0.5-0.1,1-0.3,1.5-0.3C23,107.8,23.2,108.3,23.5,108.7z"/>
	<path d="M16.2,112.5c-0.1-0.2-0.2-0.6-0.4-1c0.3-0.1,0.7-0.4,0.9-0.3c0.4,0.1,0.7,0.5,1,0.7C17.4,112,17.1,112.1,16.2,112.5z"/>
	<path d="M9,116.9c-0.5-0.4-0.8-0.6-1.1-0.9c0.5-0.2,0.9-0.4,1.4-0.4c0.2,0,0.5,0.4,0.8,0.6C9.7,116.4,9.4,116.7,9,116.9z"/>
	<path d="M19.2,116.3c-0.6,0.2-1.1,0.4-1.6,0.4c-0.3,0-0.6-0.3-0.9-0.5c0.5-0.2,0.9-0.5,1.4-0.5C18.4,115.6,18.7,116,19.2,116.3z"/>
	<path d="M21.4,118.5c-0.6,0.2-1.1,0.4-1.6,0.4c-0.3,0-0.6-0.3-0.9-0.5c0.5-0.2,0.9-0.5,1.4-0.5C20.7,117.8,21,118.2,21.4,118.5z"/>
	<path d="M17.8,119.2c-0.3,0.4-0.4,0.9-0.6,0.9c-0.5,0-1-0.2-1.5-0.3c0.1-0.2,0.3-0.7,0.4-0.7C16.7,119,17.2,119.1,17.8,119.2z"/>
	<path d="M37.4,127.4c-1,0.2-1.5,0.5-1.9,0.4c-0.3-0.1-0.5-0.7-0.8-1.1c0.3,0,0.7-0.1,1,0C36.2,126.9,36.6,127.1,37.4,127.4z"/>
	<path d="M51.9,122.7c-0.1-1-0.2-1.6-0.2-2.2c0-0.1,0.5-0.1,0.7-0.2c0.1,0.5,0.2,1,0.3,1.4C52.7,122,52.4,122.2,51.9,122.7z"/>
	<path d="M199.9,120.1c0,0.4,0.1,0.8,0,1.1c-0.1,0.4-0.5,0.6-0.7,1c-0.1-0.3-0.3-0.6-0.4-0.9c-0.1-0.4,0-0.7,0-1.1
		C199.2,120.1,199.6,120.1,199.9,120.1z"/>
	<path d="M264.6,124.8c-0.1-0.2-0.2-0.6-0.4-1c0.3-0.1,0.7-0.4,0.9-0.3c0.4,0.1,0.7,0.5,1,0.7C265.8,124.3,265.5,124.4,264.6,124.8z
		"/>
	<path d="M475.3,51.4c-0.2,0.2-0.4,0.3-0.7,0.5c-0.1-0.2-0.3-0.6-0.2-0.7c0.2-0.2,0.6-0.2,0.9-0.3C475.3,51,475.3,51.2,475.3,51.4z"
		/>
	<path d="M5,92.2c-0.2-0.2-0.3-0.4-0.5-0.7c0.2-0.1,0.6-0.3,0.7-0.2c0.2,0.2,0.2,0.6,0.3,0.8C5.4,92.2,5.2,92.2,5,92.2z"/>
	<path d="M10,116.7c0.4,0.4,0.7,0.7,1.1,1.1C10.8,117.5,10.4,117.1,10,116.7z"/>
	<path d="M3.8,74.3c0.1,0.2,0.3,0.5,0.4,0.7c0,0.1-0.2,0.2-0.4,0.4c-0.1-0.2-0.3-0.5-0.4-0.7C3.5,74.6,3.7,74.4,3.8,74.3z"/>
	<path d="M-3.1,70.8c-0.2-0.1-0.3-0.3-0.4-0.4c0.2-0.1,0.5-0.3,0.8-0.3c0.1,0,0.2,0.2,0.4,0.3C-2.6,70.5-2.8,70.7-3.1,70.8z"/>
	<path d="M436.7,113.2c-0.2-0.1-0.5-0.3-0.7-0.4c0.1-0.1,0.3-0.4,0.4-0.3c0.3,0.1,0.5,0.2,0.8,0.3
		C437,112.9,436.8,113.1,436.7,113.2z"/>
	<path d="M57.9,113.5c0.2,0.1,0.3,0.3,0.4,0.4c-0.2,0.1-0.5,0.3-0.8,0.3c-0.1,0-0.2-0.2-0.4-0.3C57.5,113.8,57.7,113.7,57.9,113.5z"
		/>
	<path d="M426.5,105.6c0.1,0.1,0.4,0.3,0.3,0.4c-0.1,0.2-0.3,0.5-0.5,0.7c-0.2-0.2-0.3-0.3-0.5-0.5
		C426.1,106,426.3,105.8,426.5,105.6z"/>
	<path d="M473.7,19.6c-0.2-0.2-0.3-0.4-0.5-0.7c0.2-0.1,0.6-0.3,0.7-0.2c0.2,0.2,0.2,0.6,0.3,0.8C474,19.6,473.8,19.6,473.7,19.6z"
		/>
	<path d="M73.7,124.7c0.2,0.1,0.3,0.3,0.4,0.4c-0.2,0.1-0.5,0.3-0.8,0.3c-0.1,0-0.2-0.2-0.4-0.3C73.2,125,73.4,124.8,73.7,124.7z"/>
</g>
</svg>
