<svg width="54" height="54" viewBox="0 0 54 54" fill="none" xmlns="http://www.w3.org/2000/svg">
<rect x="1.5" y="2.0376" width="50.0636" height="50.0636" rx="13.5" fill="black" fill-opacity="0.2" stroke="#FDDC2D" stroke-width="3"/>
<circle cx="26.3473" cy="27.254" r="9.97912" fill="black" fill-opacity="0.5"/>
<path d="M34.7483 30.2538L34.7483 30.2538C34.7484 30.2543 34.7492 30.2595 34.7455 30.2731C34.7414 30.2884 34.7311 30.3155 34.7062 30.3546C34.6542 30.436 34.5546 30.5449 34.3857 30.6742C34.0476 30.9331 33.5124 31.2134 32.7981 31.49C31.3771 32.0403 29.3529 32.5356 27.0664 32.8346C24.7798 33.1337 22.6964 33.1757 21.1816 33.0094C20.4202 32.9259 19.831 32.7926 19.4377 32.6294C19.2411 32.5479 19.1169 32.4683 19.0458 32.403C19.0117 32.3716 18.9947 32.3481 18.9868 32.3344C18.9797 32.3222 18.9792 32.3169 18.9791 32.3164L18.9791 32.3164L18.9791 32.3164C18.9791 32.3159 18.9782 32.3106 18.9819 32.2971C18.986 32.2818 18.9964 32.2547 19.0213 32.2156C19.0732 32.1342 19.1728 32.0253 19.3417 31.896C19.6799 31.6371 20.215 31.3568 20.9293 31.0802C22.3504 30.5299 24.3745 30.0346 26.661 29.7356C28.9476 29.4365 31.031 29.3945 32.5458 29.5608C33.3072 29.6443 33.8964 29.7776 34.2897 29.9408C34.4863 30.0223 34.6105 30.1019 34.6816 30.1672C34.7158 30.1986 34.7327 30.2221 34.7406 30.2358C34.7477 30.248 34.7482 30.2533 34.7483 30.2538L34.7483 30.2538Z" stroke="#FDDC2D"/>
<ellipse cx="25.6124" cy="31.3333" rx="8.73575" ry="1.58115" transform="rotate(11.3276 25.6124 31.3333)" stroke="#FDDC2D" stroke-dasharray="2 2"/>
<ellipse cx="35.3382" cy="26.636" rx="0.632835" ry="0.632835" transform="rotate(29.0162 35.3382 26.636)" fill="#FDDC2D"/>
<ellipse cx="20.0522" cy="33.2893" rx="0.63315" ry="0.63315" transform="rotate(29.0162 20.0522 33.2893)" fill="#FDDC2D"/>
<circle cx="26.5319" cy="27.0692" r="11.8815" stroke="#FDDC2D"/>
<ellipse cx="17.8466" cy="18.7533" rx="1.47839" ry="1.47839" fill="#FDDC2D"/>
<circle cx="33.369" cy="37.2333" r="1.47839" fill="#FDDC2D"/>
<path d="M27.1236 21.0929V22.597C27.1236 22.8029 27.0419 23.0003 26.8963 23.1459C26.7508 23.2914 26.5533 23.3732 26.3475 23.3732C26.1416 23.3732 25.9442 23.2914 25.7987 23.1459C25.6531 23.0003 25.5713 22.8029 25.5713 22.597V20.2686C25.5713 20.1667 25.5914 20.0657 25.6304 19.9716C25.6694 19.8774 25.7266 19.7918 25.7987 19.7198C25.8707 19.6477 25.9563 19.5905 26.0505 19.5515C26.1446 19.5125 26.2456 19.4924 26.3475 19.4924C30.6342 19.4924 34.109 22.9673 34.109 27.254C34.109 31.5407 30.6342 35.0155 26.3475 35.0155C22.0608 35.0155 18.5859 31.5407 18.5859 27.254C18.5846 26.2345 18.7848 25.2249 19.1749 24.283C19.5651 23.3412 20.1375 22.4857 20.8593 21.7658C20.9316 21.6926 21.0178 21.6345 21.1127 21.5949C21.2077 21.5553 21.3096 21.5349 21.4125 21.5351C21.5154 21.5352 21.6173 21.5558 21.7121 21.5957C21.807 21.6356 21.893 21.6939 21.9651 21.7673C22.0372 21.8407 22.094 21.9277 22.1322 22.0233C22.1704 22.1188 22.1892 22.221 22.1875 22.3239C22.1858 22.4268 22.1637 22.5283 22.1224 22.6226C22.0812 22.7168 22.0216 22.802 21.9471 22.873C21.3726 23.4486 20.9171 24.1318 20.6067 24.8835C20.2964 25.6352 20.1372 26.4407 20.1383 27.254C20.1383 30.6834 22.918 33.4632 26.3475 33.4632C29.7769 33.4632 32.5567 30.6834 32.5567 27.254C32.5567 24.0873 30.1867 21.4747 27.1236 21.0929ZM25.7863 27.7907L24.1797 26.184C24.0341 26.0385 23.9523 25.841 23.9523 25.6351C23.9523 25.4292 24.0341 25.2318 24.1797 25.0862C24.3253 24.9406 24.5227 24.8588 24.7286 24.8588C24.9345 24.8588 25.132 24.9406 25.2776 25.0862L26.8842 26.6928C27.1688 26.6418 27.4623 26.683 27.722 26.8104C27.9816 26.9377 28.1938 27.1447 28.3276 27.401C28.4615 27.6573 28.5101 27.9497 28.4663 28.2355C28.4225 28.5214 28.2886 28.7858 28.0841 28.9902C27.8797 29.1947 27.6153 29.3286 27.3294 29.3724C27.0436 29.4162 26.7512 29.3676 26.4949 29.2337C26.2386 29.0999 26.0316 28.8877 25.9043 28.6281C25.7769 28.3684 25.7357 28.0749 25.7867 27.7903L25.7863 27.7907Z" fill="#FDDC2D"/>
<circle cx="26.6208" cy="27.5763" r="15.86" stroke="#FDDC2D" stroke-width="2"/>
<path d="M10.4627 22.6589L11.722 25.9659V27.2252V28.4844L10.4627 31.7914L10.3206 31.4181C9.60995 29.5519 8.13605 28.078 6.26978 27.3673L5.89648 27.2252L6.26978 27.083C8.13605 26.3724 9.60995 24.8985 10.3206 23.0322L10.4627 22.6589Z" fill="#FDDC2D"/>
<path d="M42.6017 32.1426L41.3425 28.8356L41.3425 27.5763L41.3425 26.3171L42.6017 23.0101L42.7439 23.3834C43.4545 25.2496 44.9284 26.7235 46.7947 27.4342L47.168 27.5763L46.7947 27.7185C44.9284 28.4291 43.4545 29.903 42.7439 31.7693L42.6017 32.1426Z" fill="#FDDC2D"/>
<path d="M31.4531 10.9996L28.1461 12.2588L26.8869 12.2588L25.6276 12.2588L22.3206 10.9996L22.6939 10.8575C24.5602 10.1468 26.0341 8.67292 26.7447 6.80665L26.8869 6.43335L27.029 6.80665C27.7397 8.67292 29.2136 10.1468 31.0798 10.8575L31.4531 10.9996Z" fill="#FDDC2D"/>
<path d="M22.0537 43.5583L25.3607 42.299L26.62 42.299L27.8792 42.299L31.1862 43.5583L30.8129 43.7004C28.9466 44.411 27.4727 45.8849 26.7621 47.7512L26.62 48.1245L26.4778 47.7512C25.7672 45.8849 24.2933 44.411 22.427 43.7004L22.0537 43.5583Z" fill="#FDDC2D"/>
</svg>
