<svg width="43" height="35" viewBox="0 0 43 35" fill="none" xmlns="http://www.w3.org/2000/svg">
<g filter="url(#filter0_d_2214_2253)">
<path d="M23.4754 26.0925C22.3447 27.0807 20.6575 27.0807 19.5268 26.0925L8.99754 16.8893C6.66696 14.8522 8.57358 11.0486 11.6003 11.697L20.873 13.6835C21.2873 13.7722 21.7156 13.7722 22.1299 13.6835L31.4019 11.6971C34.4286 11.0487 36.3352 14.8523 34.0046 16.8894L23.4754 26.0925Z" fill="#FDDC2D"/>
</g>
<g filter="url(#filter1_d_2214_2253)">
<path d="M23.4754 16.8198C22.3447 17.808 20.6575 17.808 19.5268 16.8198L9.22259 7.81328C6.87723 5.7633 8.82355 1.9392 11.8612 2.62896L20.8367 4.66703C21.274 4.76633 21.728 4.76633 22.1653 4.66703L31.1411 2.62891C34.1788 1.93916 36.1251 5.76325 33.7797 7.81322L23.4754 16.8198Z" fill="#FDDC2D"/>
</g>
<defs>
<filter id="filter0_d_2214_2253" x="3.95898" y="11.6235" width="35.084" height="23.2102" filterUnits="userSpaceOnUse" color-interpolation-filters="sRGB">
<feFlood flood-opacity="0" result="BackgroundImageFix"/>
<feColorMatrix in="SourceAlpha" type="matrix" values="0 0 0 0 0 0 0 0 0 0 0 0 0 0 0 0 0 0 127 0" result="hardAlpha"/>
<feOffset dy="4"/>
<feGaussianBlur stdDeviation="2"/>
<feComposite in2="hardAlpha" operator="out"/>
<feColorMatrix type="matrix" values="0 0 0 0 0 0 0 0 0 0 0 0 0 0 0 0 0 0 0.25 0"/>
<feBlend mode="normal" in2="BackgroundImageFix" result="effect1_dropShadow_2214_2253"/>
<feBlend mode="normal" in="SourceGraphic" in2="effect1_dropShadow_2214_2253" result="shape"/>
</filter>
<filter id="filter1_d_2214_2253" x="4.18359" y="2.54688" width="34.6357" height="23.0142" filterUnits="userSpaceOnUse" color-interpolation-filters="sRGB">
<feFlood flood-opacity="0" result="BackgroundImageFix"/>
<feColorMatrix in="SourceAlpha" type="matrix" values="0 0 0 0 0 0 0 0 0 0 0 0 0 0 0 0 0 0 127 0" result="hardAlpha"/>
<feOffset dy="4"/>
<feGaussianBlur stdDeviation="2"/>
<feComposite in2="hardAlpha" operator="out"/>
<feColorMatrix type="matrix" values="0 0 0 0 0 0 0 0 0 0 0 0 0 0 0 0 0 0 0.25 0"/>
<feBlend mode="normal" in2="BackgroundImageFix" result="effect1_dropShadow_2214_2253"/>
<feBlend mode="normal" in="SourceGraphic" in2="effect1_dropShadow_2214_2253" result="shape"/>
</filter>
</defs>
</svg>
