<svg width="54" height="54" viewBox="0 0 54 54" fill="none" xmlns="http://www.w3.org/2000/svg">
<rect x="2.43652" y="2.2168" width="50.0636" height="50.0636" rx="13.5" fill="black" fill-opacity="0.2" stroke="#FDDC2D" stroke-width="3"/>
<path d="M16.6856 36.6624C14.4157 36.8516 12.3349 36.8516 10.065 36.4732V35.1491V29.0959C10.065 27.3935 10.8216 26.2585 12.5241 25.5019C12.7132 25.5019 12.7132 25.3127 12.7132 25.3127C12.9024 25.3127 12.9024 25.1235 13.0916 25.1235L13.4699 24.7452C13.4699 24.556 13.659 24.3669 13.659 24.1777V23.6102C13.659 23.4211 13.4699 23.2319 13.4699 23.0428L13.0916 22.6644C11.3891 21.7186 11.1999 20.0162 11.3891 19.0704C11.7674 17.7462 12.9024 16.9896 14.2265 16.9896C15.7398 16.9896 16.8748 18.1245 17.064 19.0704C17.4423 20.3945 16.6856 21.9078 15.3615 22.4753C14.6049 23.0428 14.2265 23.4211 14.2265 24.1777C14.2265 24.7452 14.6049 25.3127 15.1723 25.5019C15.1723 25.5019 15.3615 25.5019 15.3615 25.691C15.7398 25.8802 16.1181 26.0693 16.4965 26.4477C17.064 27.0152 18.0098 26.826 18.5773 26.2585C19.1447 25.691 18.9556 24.7452 18.3881 24.1777L18.1989 23.9886C19.5231 22.6644 19.9014 20.5836 19.5231 18.692C18.7664 16.2329 16.6856 14.5305 14.0374 14.3413C11.5783 14.3413 9.30832 15.8546 8.55167 18.3137C7.98419 20.0162 8.36251 22.2861 9.68664 23.9886C8.17335 25.3127 7.22754 27.0152 7.22754 29.0959V37.7974C7.22754 38.554 7.79502 39.1215 8.36251 39.1215C10.2541 39.4998 12.1457 39.4998 13.8482 39.4998C14.794 39.4998 15.7398 39.4998 16.8748 39.3107C17.6314 39.3107 18.1989 38.554 18.1989 37.7974C18.0098 37.2299 17.4423 36.6624 16.6856 36.6624Z" fill="#FDDC2D"/>
<path d="M32.5757 22.0969C33.1432 21.5295 33.7107 20.7728 34.089 19.827C34.8457 18.1245 35.0348 16.4221 34.4673 14.5305C33.5215 11.5039 30.6841 9.4231 27.4683 9.4231C24.2526 9.4231 21.4152 11.5039 20.4694 14.5305C19.9019 16.0438 20.091 17.7462 20.6585 19.2595C21.0368 20.3945 21.6043 21.3403 22.5501 22.0969C20.2802 23.6102 18.9561 26.2585 18.9561 28.9068V40.2565C18.9561 41.0131 19.5235 41.5806 20.091 41.5806C22.5501 41.9589 25.1984 42.1481 27.6575 42.1481C30.1166 42.1481 32.7649 41.9589 35.224 41.5806C35.9806 41.3915 36.3589 40.824 36.3589 40.2565V29.0959C36.3589 28.5284 36.3589 28.1501 36.1698 27.3935C35.6023 25.3127 34.2782 23.4211 32.5757 22.0969ZM33.3324 39.3107C29.36 39.8782 25.3876 39.8782 21.4152 39.3107V37.0407V29.0959C21.4152 26.826 22.9285 24.556 25.1984 23.7994C25.3876 23.7994 25.5767 23.6102 25.7659 23.6102C26.1442 23.4211 26.5225 22.8536 26.3334 22.2861C26.3334 21.7186 25.955 21.3403 25.5767 21.1511C24.2526 20.5836 23.4959 19.6378 23.1176 18.5029C22.7393 17.5571 22.7393 16.6112 23.1176 15.6654C23.6851 13.7738 25.3876 12.4497 27.4683 12.4497C29.36 12.4497 31.2516 13.7738 31.8191 15.6654C32.1974 16.8004 32.1974 17.7462 31.6299 18.8812C31.0624 19.827 30.3058 20.5836 29.36 21.1511C28.7925 21.3403 28.6033 21.9078 28.6033 22.4753C28.6033 23.0428 28.9816 23.6102 29.36 23.7994L29.7383 23.9886C29.9274 24.1777 30.1166 24.1777 30.4949 24.3669C32.0082 25.3127 32.954 26.6368 33.3324 28.3393C33.3324 28.7176 33.5215 29.0959 33.5215 29.4743V39.3107H33.3324Z" fill="#FDDC2D"/>
<path d="M47.7087 28.1502C47.5196 26.2586 46.5738 24.9344 45.2496 23.7995C46.3846 22.4753 46.9521 20.5837 46.5738 18.8812C46.0063 16.4221 43.9255 14.5305 41.4664 14.3414C39.0073 14.1522 36.5482 15.4763 35.6024 17.7463C35.0349 19.2596 35.0349 20.5837 35.6024 22.097C35.7915 22.6645 36.1699 23.232 36.7373 23.7995C36.1699 24.3669 35.9807 25.1236 36.5482 25.8802C37.1157 26.4477 37.8723 26.6369 38.629 26.0694C38.8181 25.8802 39.1964 25.6911 39.5748 25.5019L39.9531 25.3127C40.5206 25.1236 40.8989 24.5561 40.8989 23.9886C40.8989 23.4211 40.7097 22.8536 40.1423 22.6645C39.3856 22.2862 38.8181 21.7187 38.4398 20.962C38.0615 20.2054 38.0615 19.4487 38.4398 18.6921C39.0073 17.5571 40.1423 16.8005 41.4664 16.9896C42.7905 17.1788 43.7363 18.1246 44.1147 19.2596C44.3038 20.5837 43.7363 21.9078 42.4122 22.4753C41.8447 22.6645 41.6556 23.232 41.6556 23.7995C41.6556 24.3669 42.0339 24.9344 42.6014 25.1236C44.1147 25.6911 44.8713 26.826 45.0605 28.3393V36.4733C42.9797 36.8516 40.7097 36.8516 38.4398 36.6625C37.6832 36.6625 36.9265 37.2299 36.9265 37.9866C36.9265 38.7432 37.494 39.4999 38.2506 39.4999C39.1964 39.4999 40.1423 39.689 41.0881 39.689C42.9797 39.689 44.8713 39.4999 46.7629 39.1216C47.3304 38.9324 47.8979 38.3649 47.8979 37.7974V29.096C47.8979 28.7177 47.7087 28.3393 47.7087 28.1502Z" fill="#FDDC2D"/>
</svg>
