<svg width="47" height="54" viewBox="0 0 47 54" fill="none" xmlns="http://www.w3.org/2000/svg">
<g clip-path="url(#clip0_2759_179999)">
<path d="M17.8081 9.81207C17.7766 9.78243 17.7569 9.7686 17.751 9.76465C17.7687 9.77848 17.7845 9.79429 17.8022 9.80812C17.8042 9.8101 17.8062 9.81207 17.8081 9.81207Z" fill="#AD0000"/>
<path d="M34.6017 33.1284C34.5997 32.83 34.4755 32.2846 34.2074 32.0535C34.2054 32.0495 34.2054 32.0456 34.2034 32.0416C34.1837 31.9685 34.166 31.8974 34.1463 31.8242C34.2015 30.9173 34.2626 29.0263 34.0753 27.657C34.1128 27.406 34.1502 27.1551 34.1857 26.9041C34.3257 26.254 34.4045 25.5921 34.2724 24.9341C34.2389 24.6989 34.1167 24.3808 33.9215 24.2129C33.8841 23.8355 33.8328 23.4877 33.7875 23.213C33.7895 23.0925 33.7895 22.9739 33.7914 22.8534C33.8072 22.2211 33.7974 21.5868 33.752 20.9545C33.7855 20.8735 33.8151 20.7905 33.8407 20.7095C33.9965 20.5435 34.1266 20.3321 34.2192 20.0871C34.1502 20.0238 34.095 19.9408 34.0635 19.844C33.9945 19.6365 33.9827 19.4073 33.9767 19.19C33.9728 19.0536 33.9767 18.9252 33.9965 18.7889C34.0063 18.7296 34.0221 18.6723 34.0379 18.613C34.0379 18.611 34.0379 18.611 34.0379 18.6091C34.0379 18.6031 34.0398 18.5972 34.0398 18.5913C34.0418 18.4786 34.0497 18.368 34.0556 18.2652C34.0655 18.1368 34.0832 18.0143 34.1207 17.8957C34.0103 17.6724 33.8664 17.465 33.683 17.2852C33.4031 16.9848 33.0246 16.7082 32.6244 16.56C32.6776 16.6785 32.6973 16.805 32.6619 16.9512C32.6244 17.1093 32.514 17.2891 32.3662 17.3681C32.104 17.5065 31.7964 17.4294 31.5441 17.3089C31.1873 17.1409 30.9291 16.8524 30.7753 16.4987C30.6669 16.3327 30.6215 16.1569 30.5663 15.9573C30.5466 15.8862 30.5348 15.815 30.5328 15.7439C30.4618 15.6313 30.3988 15.5127 30.3396 15.3863C30.2844 15.2677 30.2489 15.1492 30.2213 15.0286C30.0774 14.9891 29.9296 14.9733 29.7798 14.9851C29.693 14.5544 29.5353 14.1434 29.3066 13.843C29.2968 13.5427 29.2337 13.2404 29.1016 12.9519C28.8651 12.4302 28.3289 12.2425 27.7966 12.4283C27.5522 12.4836 27.3077 12.5626 27.0771 12.6733C27.0573 12.6772 27.0396 12.6832 27.0199 12.6871C26.3851 12.1832 25.5335 12.0528 24.7312 12.1358C24.3014 12.0884 23.8677 12.0746 23.438 12.1042C23.1639 12.0489 22.8623 12.124 22.5844 12.1279C22.2552 12.1615 21.9259 12.201 21.5987 12.2465C21.4903 12.3038 21.3681 12.3275 21.2458 12.3057C21.2419 12.3057 21.2379 12.3077 21.234 12.3077C21.234 12.3057 21.234 12.3038 21.234 12.3038C21.1256 12.282 21.0211 12.2247 20.9344 12.12C20.891 12.0825 20.8496 12.041 20.8181 11.9916C20.82 11.9896 20.8043 11.9501 20.7865 11.9066C20.7806 11.8987 20.7727 11.8888 20.7648 11.8809C20.7412 11.8572 20.7195 11.8315 20.6978 11.8039C20.5913 11.6873 20.4672 11.5766 20.3706 11.4679C20.3686 11.466 20.3666 11.464 20.3646 11.464C20.3528 11.4541 20.339 11.4482 20.3272 11.4383C20.2878 11.4087 20.2582 11.3751 20.2326 11.3395C20.2188 11.3277 20.2089 11.3138 20.1951 11.3039C20.1892 11.298 20.1123 11.2526 20.134 11.2624C20.0453 11.217 19.9605 11.1795 19.8876 11.1281C19.7318 11.0767 19.5879 10.9957 19.448 10.8673C19.4539 10.8692 19.4578 10.8732 19.4637 10.8752C19.446 10.8613 19.4322 10.8455 19.4145 10.8317C19.3494 10.8258 19.2844 10.8238 19.2213 10.8396C19.1897 10.804 19.1562 10.7744 19.1207 10.7507C18.9394 10.557 18.7462 10.3713 18.5293 10.2191C18.3164 10.0512 18.0463 9.98005 17.8236 9.82988C17.8137 9.82395 17.8058 9.81802 17.798 9.81407C17.8039 9.81802 17.8078 9.82197 17.8137 9.8279C17.8058 9.82197 17.7999 9.81604 17.792 9.81012C17.7467 9.7785 17.7309 9.76072 17.7408 9.76665C17.7388 9.76467 17.7388 9.76467 17.7369 9.76269C17.725 9.73108 17.7132 9.69749 17.6994 9.66192C17.6718 9.573 17.6284 9.49594 17.5752 9.42876C17.5515 9.41888 17.5279 9.409 17.5042 9.39912C17.449 9.37343 17.3998 9.33786 17.3564 9.29439C17.3544 9.29044 17.3524 9.28846 17.3505 9.28649C17.2834 9.2608 17.2164 9.23116 17.1494 9.19757L17.0883 9.16991C17.0646 9.15212 17.0489 9.14027 17.0331 9.12644C17.0193 9.12446 17.0035 9.12248 16.9917 9.11853C16.9207 9.0968 16.8419 9.06716 16.7788 9.02764C16.7492 9.0059 16.7216 8.98219 16.692 8.96046C16.6842 8.9565 16.6782 8.95453 16.6704 8.95058C16.6644 8.95255 16.6428 8.9486 16.5994 8.93872C16.5264 8.93477 16.4574 8.91303 16.3963 8.87351C16.2958 8.82807 16.2702 8.81028 16.1854 8.78657C16.1539 8.77867 16.1144 8.76484 16.079 8.75891C16.0691 8.75891 16.0592 8.76088 16.0514 8.76484C16.0592 8.76088 16.0632 8.75693 16.0652 8.75496C16.0632 8.75496 16.0612 8.75496 16.0612 8.75298C16.0632 8.75298 16.0652 8.75298 16.0671 8.75298C16.0868 8.73717 15.9528 8.78657 15.941 8.78855C15.8779 8.79843 15.8168 8.8004 15.7537 8.79645C15.6216 8.79052 15.4856 8.77274 15.3574 8.74112C15.2608 8.71741 15.1643 8.69765 15.0657 8.67987C15.0203 8.69173 14.975 8.69963 14.9297 8.69765C14.8902 8.69568 14.8488 8.69173 14.8094 8.6858C14.7936 8.68382 14.7798 8.67987 14.7641 8.67789C14.7404 8.67394 14.7187 8.66999 14.6951 8.66604C14.6911 8.66604 14.6872 8.66406 14.6832 8.66406C14.6832 8.66406 14.6832 8.66406 14.6813 8.66406C14.6793 8.66406 14.6773 8.66406 14.6754 8.66406C14.6635 8.66999 14.6497 8.67394 14.6379 8.67987C14.5531 8.70753 14.4526 8.69963 14.3619 8.69963C14.3343 8.69963 14.2969 8.70161 14.2633 8.70358C14.2535 8.70556 14.2436 8.70556 14.2318 8.70556C14.22 8.70753 14.2101 8.70951 14.1983 8.71149C14.0938 8.72927 13.9992 8.73915 13.9026 8.73717C13.877 8.7431 13.8513 8.74508 13.8257 8.74705C13.8159 8.751 13.804 8.75496 13.7942 8.75891C13.6069 8.83597 13.4236 8.91896 13.2383 9.00393C13.0707 9.08099 12.846 9.14422 12.7277 9.20547C12.6508 9.24499 12.5719 9.28254 12.4931 9.32206C12.4813 9.32798 12.4714 9.33391 12.4596 9.33786C12.4123 9.36158 12.3669 9.38726 12.3216 9.41295C12.3058 9.45445 12.294 9.49792 12.2822 9.54336C12.1422 9.63426 12.0101 9.73898 11.8899 9.86544C11.4246 10.316 11.5153 10.3061 11.0777 10.5313C10.5178 10.9759 9.99343 11.4838 9.54199 12.039C9.46708 12.1338 9.39808 12.2346 9.33303 12.3374C9.29754 12.2899 9.25812 12.2425 9.21475 12.201C9.21278 12.199 9.20883 12.1971 9.20686 12.1951C9.14378 12.284 9.07873 12.371 9.01564 12.4599C8.80077 12.7622 8.5918 13.0685 8.3651 13.3609C8.31976 13.4202 8.30793 13.436 8.33159 13.4044C8.34736 13.3846 8.34342 13.3886 8.3237 13.4143C8.30005 13.4439 8.27836 13.4755 8.25471 13.5052C8.18571 13.598 8.11474 13.6889 8.04377 13.7798C7.94915 13.8984 7.84467 14.007 7.73624 14.1137C7.68499 14.1651 7.62782 14.2007 7.56474 14.2264C7.47997 14.418 7.40506 14.6117 7.33803 14.8073C7.30452 14.8943 7.27495 14.9832 7.24735 15.0721C7.1685 15.3507 7.10541 15.657 7.08964 15.9613C6.96348 16.3248 6.86491 16.6963 6.79986 17.0757C6.75649 17.6369 6.70917 18.2712 6.92208 18.8047C6.92011 18.8442 6.91617 18.8817 6.91617 18.9213C6.91419 19.2987 6.97333 19.6741 7.09359 20.0317C7.09359 20.0317 7.09753 20.0456 7.10739 20.0792C7.27298 20.6799 7.4642 21.2707 7.73033 21.8338C7.87424 22.8099 8.44198 23.7426 8.86582 24.616C8.94073 24.7839 9.00973 24.9321 9.07281 25.0665C9.26797 25.5763 9.49271 26.1137 9.67407 26.5465C9.37443 28.6252 9.39414 30.7513 9.48679 32.8537C9.48679 32.8557 9.48679 32.8577 9.48482 32.8616C9.48679 32.8616 9.48679 32.8656 9.48679 32.8656C9.48679 32.8715 9.48679 32.8774 9.48679 32.8853C9.46314 33.1422 8.64109 35.6556 9.21672 36.525C9.2246 36.5567 9.22855 36.5883 9.23643 36.6199C9.26206 36.6811 9.28572 36.7266 9.31134 36.7622C9.16744 38.0327 9.0945 39.321 9.40005 40.5698C9.41188 40.6232 9.42962 40.6746 9.44342 40.7279C9.41582 40.8583 9.40202 40.9828 9.40794 41.0816C9.3764 41.2911 9.42371 41.8107 9.43159 41.8344C9.44539 42.0577 9.46314 42.281 9.48679 42.5043C9.47299 43.0279 9.52622 43.5515 9.67407 44.0534C9.70561 44.1661 9.74898 44.2787 9.80221 44.3894C9.83572 44.504 9.87317 44.6186 9.91852 44.7292C9.99934 44.909 10.1689 45.1501 10.3739 45.2015C10.4133 45.2766 10.4547 45.3536 10.504 45.4248C10.6124 45.5255 10.7209 45.5868 10.8273 45.6125C10.8312 45.6184 10.8352 45.6243 10.8391 45.6302C10.9752 45.812 11.1881 45.8496 11.3793 45.7903C11.4088 45.8061 11.4364 45.8239 11.468 45.8377C11.4897 45.8456 11.5094 45.8496 11.5291 45.8575C11.6474 46.0116 11.7814 46.1559 11.9352 46.2803C11.9845 46.3357 12.0357 46.387 12.089 46.4384C12.2171 46.5906 12.3531 46.6992 12.4911 46.7704C12.9031 47.0549 13.3822 47.2288 13.8947 47.2189C13.9775 47.209 14.1194 47.2229 14.2022 47.2308C14.3304 47.2901 14.4585 47.3553 14.5886 47.4106C14.9139 47.4126 15.2411 47.4205 15.5664 47.4402C15.6098 47.4422 15.6531 47.4462 15.6965 47.4481C15.8444 47.4363 15.9902 47.4264 16.1381 47.4185C16.148 47.4145 16.1598 47.4106 16.1696 47.4066C16.1775 47.4106 16.1854 47.4126 16.1933 47.4165C16.5048 47.4007 16.8162 47.3928 17.1257 47.379C17.1868 47.377 17.246 47.373 17.3071 47.3711C17.3189 47.3651 17.3308 47.3612 17.3426 47.3553C17.4195 47.3138 17.4904 47.2663 17.5614 47.2189C17.7546 47.2288 17.9478 47.2229 18.1489 47.1557C18.5569 47.049 18.9689 47.1893 19.3829 47.1537C20.3154 47.0668 21.2498 47.1201 22.1822 47.0964C22.3794 47.045 22.5233 47.0035 22.6455 46.968C23.6903 47.0806 24.743 47.1102 25.7898 46.9917C25.8509 46.9877 25.912 46.9798 25.9731 46.9739C26.0027 47.0016 26.0303 47.0312 26.0598 47.0589C26.4738 47.0213 26.8858 46.9877 27.2998 46.9581C27.5797 46.9838 27.8617 46.9897 28.1416 46.9877C28.3308 47.0134 28.5201 47.0352 28.7093 47.049C29.3106 47.0786 29.9138 47.0549 30.5131 46.9976C30.521 47.0747 30.5466 47.1478 30.5841 47.2051C30.6393 47.2743 30.7418 47.2367 30.8187 47.2387C30.8837 47.2347 30.9488 47.2248 31.0119 47.2169C31.5776 47.1853 32.1434 47.1399 32.6993 47.0174C32.8491 46.97 32.8314 46.7071 32.7565 46.6004C32.7407 46.5846 32.721 46.5767 32.6993 46.5728C32.6993 46.5708 32.6993 46.5708 32.6993 46.5688C32.6757 46.5688 32.65 46.5688 32.6264 46.5688C32.6993 46.5214 32.7762 46.476 32.8452 46.4246C32.9181 46.4206 32.9891 46.4127 33.062 46.4088C33.1547 46.1934 33.2099 45.9622 33.2316 45.7251C33.2887 45.7093 33.3479 45.6777 33.407 45.6223C33.5411 45.5334 33.614 45.3852 33.6732 45.2351C33.8604 44.8102 33.9649 44.3558 34.0536 43.9013C34.4597 42.0162 34.0812 39.3823 33.9472 37.9754C34.1936 36.367 34.5879 34.7625 34.6017 33.1284ZM17.8118 14.9476C17.1888 15.8368 16.5304 16.7023 15.8306 17.5322C15.7379 17.6329 15.6492 17.7337 15.5703 17.8424C15.5625 17.8503 15.5565 17.8602 15.5487 17.8681V17.87C15.5112 17.9234 15.4757 17.9787 15.4462 18.038C14.4427 18.6762 13.4531 19.3797 12.7513 20.3459C12.4477 20.5909 12.1481 20.8379 11.8248 21.0573C11.7795 21.0928 11.7321 21.1244 11.6829 21.1561L11.6809 21.158C11.4207 21.328 11.1329 21.4604 10.8805 21.6421C10.6814 21.492 10.4429 21.4327 10.1827 21.5275C10.1689 21.5374 10.157 21.5473 10.1432 21.5572C9.89092 20.7273 9.64647 19.6741 9.50848 18.9944C9.62479 17.9748 9.81403 16.9651 9.86135 15.9395C9.85346 15.823 9.90274 15.1314 9.81601 14.8369C9.8712 14.7599 9.9402 14.6571 10.0388 14.505C10.1038 14.3943 10.1531 14.3034 10.1945 14.2264C10.2477 14.2679 10.3069 14.2995 10.3739 14.3094C10.713 14.254 10.8766 13.768 10.8687 13.2898C11.0954 13.0487 11.261 12.7503 11.5015 12.5172C11.5744 12.4757 11.6356 12.4105 11.6868 12.3295C11.6927 12.3235 11.6986 12.3156 11.7065 12.3097C11.8011 12.3275 11.9194 12.3057 12.0515 12.2623C12.0692 12.2425 12.083 12.2208 12.1008 12.201C12.1067 12.1931 12.1363 12.1674 12.1619 12.1417C12.1639 12.1398 12.1639 12.1378 12.1639 12.1338C12.1856 12.0805 12.2408 12.0192 12.2802 11.9777C12.3078 11.9481 12.3433 11.9204 12.3787 11.8967C12.428 11.8394 12.4832 11.79 12.5443 11.7545C12.5641 11.7426 12.5857 11.7367 12.6055 11.7268C12.6015 11.7268 12.6035 11.7248 12.6212 11.713C12.6488 11.6893 12.6823 11.6734 12.7119 11.6537C12.7474 11.63 12.7809 11.6063 12.8164 11.5845C12.8282 11.5766 12.846 11.5648 12.8617 11.5569C12.9012 11.5272 12.9366 11.4976 12.9721 11.4739C12.9997 11.4482 13.0293 11.4245 13.0608 11.4205C13.0648 11.4185 13.0648 11.4185 13.0687 11.4166C13.1456 11.3514 13.2304 11.2901 13.3289 11.2624C13.4255 11.219 13.528 11.1953 13.6483 11.1933C13.6798 11.1933 13.7114 11.1933 13.7409 11.1933C13.8691 11.1597 14.0012 11.1716 14.1254 11.2308C14.1392 11.2348 14.153 11.2407 14.1668 11.2427C14.1884 11.2466 14.2082 11.2506 14.2298 11.2565C14.3067 11.2565 14.3856 11.2585 14.4565 11.2783C14.494 11.2881 14.5295 11.3039 14.5669 11.3178C14.5906 11.3257 14.7227 11.3553 14.6123 11.3395C14.4625 11.3178 14.7266 11.3612 14.7739 11.3751C14.8094 11.385 14.8469 11.3889 14.8843 11.3968C14.9119 11.4008 14.9375 11.4067 14.9651 11.4146C14.8863 11.4067 14.8764 11.4067 14.9356 11.4146C15.0085 11.4264 15.0815 11.4304 15.1524 11.4521C15.184 11.462 15.2155 11.4739 15.247 11.4877C15.3121 11.4936 15.3752 11.5035 15.4383 11.5292C15.6255 11.6082 15.3042 11.4719 15.525 11.5667C15.5309 11.5687 15.5349 11.5707 15.5408 11.5746C15.5526 11.5786 15.5625 11.5845 15.5743 11.5905C15.5861 11.5964 15.5979 11.6023 15.6078 11.6082C15.6847 11.6339 15.7537 11.6734 15.8227 11.7248C15.9212 11.7643 16.0119 11.8256 16.0947 11.9086C16.1026 11.9165 16.1105 11.9264 16.1184 11.9343C16.1223 11.9362 16.1263 11.9382 16.1302 11.9382C16.1893 11.9224 16.2465 11.9086 16.3057 11.8908C16.3589 11.871 16.4042 11.8394 16.4456 11.8019C16.5856 12.1674 16.7906 12.5033 17.0607 12.7839C17.2066 13.0309 17.382 13.2503 17.5949 13.3965C17.6284 13.4083 17.6619 13.4162 17.6955 13.4222C17.8551 13.6178 18.0306 13.8015 18.2198 13.9715C18.2533 14.007 18.2888 14.0426 18.3243 14.0762C18.141 14.3607 17.9714 14.6512 17.8118 14.9476ZM25.2378 39.076C25.1668 39.244 24.9973 39.3645 24.812 39.3625C24.607 39.3586 24.4098 39.3586 24.2068 39.319C24.0175 39.2835 23.8381 39.2183 23.6588 39.1452C23.5484 39.0997 23.438 39.0523 23.3276 39.0049C23.3 38.993 23.2743 38.9812 23.2467 38.9693C23.1009 38.9555 22.9688 38.914 22.8485 38.8369C22.7677 38.8152 22.6928 38.7796 22.6317 38.7203C22.5252 38.6176 22.4996 38.497 22.4819 38.3587C22.4602 38.1967 22.61 38.0268 22.7697 37.9813C22.817 37.9438 22.8722 37.9122 22.9294 37.8944C22.9984 37.8351 23.0949 37.7995 23.1876 37.8035C23.1935 37.8015 23.1994 37.8015 23.2053 37.7995C23.2329 37.7936 23.2605 37.7897 23.2881 37.7857C23.3236 37.7699 23.3571 37.7541 23.3907 37.7383C23.503 37.683 23.6016 37.6098 23.7337 37.6158C23.7376 37.6138 23.7435 37.6138 23.7475 37.6118C23.7691 37.6039 23.7731 37.6039 23.7632 37.6079C23.781 37.6 23.7967 37.594 23.8145 37.5861C23.8815 37.5644 23.9761 37.5723 24.0471 37.5782C24.1476 37.5861 24.2423 37.6257 24.3211 37.6869C24.3605 37.677 24.4 37.6711 24.4394 37.6671C24.6188 37.6474 24.8159 37.847 24.7982 38.0268C24.7962 38.0485 24.7923 38.0683 24.7883 38.09C24.8613 38.1394 24.9224 38.2105 24.9579 38.2975C24.9815 38.3528 24.9914 38.4121 24.9934 38.4714C25.0426 38.4971 25.0899 38.5267 25.1392 38.5662C25.2831 38.6828 25.3029 38.9179 25.2378 39.076ZM30.8975 32.915C30.8502 33.0059 30.7575 33.0651 30.661 33.0968C30.5663 33.1284 30.4421 33.1066 30.3574 33.0572C30.2647 33.0039 30.2194 32.9249 30.1799 32.832C30.1878 32.8498 30.1957 32.8675 30.2036 32.8853C30.0597 32.5514 29.8271 32.2649 29.6418 31.9547C29.5274 31.765 29.6063 31.5279 29.7837 31.4132C29.8665 31.3599 29.9927 31.348 30.0873 31.3737C30.1839 31.4014 30.2706 31.4686 30.3239 31.5555C30.4244 31.7215 30.5348 31.8796 30.6393 32.0436C30.7575 32.2254 30.8561 32.4091 30.9369 32.6107C30.9764 32.7075 30.9448 32.828 30.8975 32.915Z" fill="#24A6B6"/>
<path d="M21.6596 46.7073C21.6221 46.6816 21.5847 46.6539 21.5433 46.6381C21.4684 46.6105 21.3934 46.65 21.3185 46.648C20.9854 46.5532 20.6562 46.6381 20.3348 46.4899C19.982 46.4089 19.6468 46.2805 19.3078 46.154C18.9943 46.1026 18.6848 46.0414 18.3714 45.99C18.2452 45.9525 18.1466 45.8616 18.0323 45.8003C17.8155 45.6857 17.5789 45.6205 17.3542 45.5237C17.0466 45.4031 16.7667 45.2194 16.4493 45.1206C16.2285 45.0317 16.057 44.8558 15.85 44.7392C15.4597 44.5298 15.1325 44.2294 14.7638 43.9884C14.5194 43.773 14.2197 43.6742 13.928 43.5497C13.6776 43.4153 13.4943 43.2098 13.2498 43.0656C12.8359 42.8838 12.485 42.6032 12.1262 42.3305C12.0946 42.3088 12.0611 42.2851 12.0296 42.2634C11.9882 42.2001 11.9488 42.1329 11.9034 42.0519C11.8541 41.965 11.8167 41.8879 11.793 41.8484C11.7358 41.5579 11.7299 41.5856 11.6708 41.309C11.6826 41.3564 11.6905 41.39 11.6807 41.3505C11.6393 41.0837 11.5663 40.8249 11.5032 40.564C11.4815 40.0384 11.243 38.4043 11.109 37.523C11.107 37.5053 11.103 37.4894 11.1011 37.4717C11.0932 36.9125 11.0892 36.3513 10.9552 35.8059C10.9394 35.4167 10.9059 35.0294 10.8507 34.6441C10.8724 34.401 10.7502 33.4585 10.7935 32.7392C10.7719 32.1919 10.7167 31.5477 10.6556 30.947C10.6595 30.9312 10.6634 30.9154 10.6654 30.8996C10.7482 30.3977 10.6851 29.8405 10.6181 29.4058C10.6161 29.3465 10.6142 29.2892 10.6122 29.2299C10.622 29.0896 10.6142 28.9474 10.5944 28.813C10.5708 28.3012 10.5491 27.7895 10.5373 27.2757C10.5787 26.8212 10.6418 26.0941 10.6595 25.6396C10.628 25.855 10.5905 26.0704 10.5491 26.2858C10.555 26.1139 10.5353 25.94 10.4702 25.7839C10.4702 25.7661 10.4702 25.7523 10.4702 25.7483C10.4801 25.5487 10.4722 25.2761 10.4052 25.0626C10.4249 24.8868 10.4111 24.7169 10.3756 24.5489C10.3796 24.4995 10.3815 24.4501 10.3815 24.4007C10.3835 24.1438 10.3204 23.5748 10.0543 23.4384C9.9853 23.3594 9.91827 23.2803 9.85519 23.1973C9.84928 23.1796 9.84139 23.1618 9.83548 23.142C9.75268 22.9543 9.67777 22.7626 9.60286 22.569C9.3801 21.9011 9.28744 21.8537 9.11594 21.3834C9.06468 21.2826 8.99569 21.1917 8.92472 21.1048C8.91683 21.089 8.90698 21.0692 8.89909 21.0495C8.89712 21.0436 8.89712 21.0416 8.89318 21.0337C8.80841 20.7294 8.64479 20.4646 8.50877 20.184C8.3688 19.7612 8.21504 19.3442 8.13815 18.9036C7.92919 18.0282 7.94496 18.1587 7.92328 17.3979C7.88385 16.9178 7.95679 16.647 8.05733 15.9673C8.16378 15.7282 8.26432 15.4891 8.355 15.2441C8.44962 14.9675 8.55411 14.6711 8.67436 14.3668C9.00949 14.3925 9.36038 13.7128 9.54963 13.5132C10.007 12.9263 10.4466 12.3256 10.9039 11.7368C11.1957 11.3633 11.1543 11.3831 11.4934 11.148C11.7004 10.9879 11.7457 10.7113 11.724 10.4505C11.726 10.4485 11.728 10.4485 11.728 10.4465C11.9862 10.2114 12.276 10.0197 12.5855 9.78455C12.8102 9.64821 12.8556 9.38739 12.8497 9.14237C12.8497 9.09297 12.8339 9.02776 12.7688 9.05542C12.8201 9.12063 12.8437 9.18189 12.8142 9.2629C12.7826 9.39134 12.7471 9.52373 12.6111 9.57115C12.3746 9.70749 12.1143 9.79641 11.8758 9.93077C11.795 9.97622 11.7142 10.0217 11.6333 10.0691C11.5505 9.90113 11.4401 9.86952 11.3238 9.91299C11.3238 9.91101 11.3238 9.90904 11.3238 9.90904C11.314 9.91497 11.3061 9.92089 11.2982 9.92485C11.2647 9.94065 11.2312 9.96239 11.1977 9.98808C10.8842 10.2015 10.6457 10.4959 10.3993 10.7844C10.0839 11.1381 9.58906 11.7684 9.20662 12.2664C9.11397 12.3652 9.02131 12.462 8.9326 12.5627C8.7197 12.8236 8.42203 13.0646 8.36091 13.4124C8.32346 13.608 8.31557 13.8451 8.38063 14.0467C8.32937 14.1455 8.27812 14.2443 8.22883 14.347C8.06916 14.7343 7.85034 15.092 7.66897 15.4674C7.59012 15.5563 7.55069 15.6749 7.5093 15.7895H7.50732C7.24316 15.8903 7.23134 16.2222 7.18797 16.485C7.0894 16.9099 6.91001 17.311 6.85678 17.7457C6.81736 17.9176 6.83707 18.1369 6.89621 18.3266C6.89424 18.3424 6.89227 18.3582 6.8903 18.374C6.8489 18.4669 6.81341 18.5736 6.78976 18.6922C6.65571 19.0044 6.61036 19.4391 6.65571 19.6624C6.8489 20.3895 6.83707 20.4389 6.97901 21.2273C6.91198 20.9092 7.02829 21.4763 7.06574 21.5988C7.11109 21.7707 7.18402 21.9308 7.27471 22.0809C7.3437 22.484 7.42453 22.9523 7.7912 23.0235C7.80894 23.0195 7.82471 23.0136 7.84245 23.0096C7.94102 23.1183 8.0593 23.1657 8.20124 23.1045C8.30769 23.0175 8.38457 22.9108 8.43977 22.7903C8.44962 22.8002 8.45751 22.814 8.46737 22.8239C8.67041 23.2033 8.82221 23.6064 8.99174 24.0016C9.18493 24.458 9.3663 24.9184 9.55949 25.3729C9.58512 25.4519 9.61666 25.5191 9.65017 25.5764C9.52992 26.5308 9.7034 28.0068 9.70931 28.5581C9.66003 28.7004 9.63243 28.8624 9.62651 29.0284C9.58906 29.1489 9.56146 29.2754 9.53189 29.39C9.46881 29.6864 9.45107 29.9848 9.45304 30.2831C9.28153 31.526 9.28153 32.7906 9.25787 34.0453C9.29139 35.063 9.11397 36.0905 9.33081 37.0962C9.38995 37.5112 9.47078 37.9261 9.50232 38.345C9.50232 38.347 9.50232 38.347 9.50232 38.347C9.51218 38.594 9.51218 38.841 9.55358 39.084C9.64426 39.5583 9.66594 39.4852 9.69354 39.7242C9.55949 40.3486 9.56343 41.1311 9.6344 41.8148C9.65411 42.0183 9.67186 42.2219 9.69354 42.4274C9.68368 42.6427 9.71325 42.8561 9.77239 43.0636C9.81576 43.3422 9.8749 43.6189 9.96164 43.8876C9.96361 43.8935 9.96756 43.8975 9.96953 43.9034C9.96361 44.0654 9.97741 44.2255 10.005 44.3737C10.0819 44.838 10.4525 45.17 10.7659 45.4921C11.1208 45.8517 11.2903 45.994 11.4973 46.1619C11.5722 46.233 11.6531 46.2983 11.7398 46.3595C11.8127 46.4188 11.8936 46.4879 11.9902 46.5709C12.1005 46.6282 12.3371 46.9207 12.6722 47.0333C12.686 47.0412 12.6998 47.0531 12.7136 47.059C12.897 47.1242 13.104 47.2131 13.2991 47.1558C13.3523 47.144 13.4627 47.1124 13.5377 47.0906C13.5495 47.0886 13.5613 47.0847 13.5751 47.0847C13.6067 47.0827 13.6382 47.0807 13.6697 47.0827C13.6894 47.0926 13.7151 47.1084 13.7466 47.1282C13.7624 47.138 13.7762 47.1499 13.79 47.1618C14.2197 47.7447 14.5174 47.551 14.6554 47.1519C14.9018 47.2289 15.1423 47.302 15.5839 47.2902C15.9131 47.2744 16.2246 47.4344 16.5558 47.387C16.7529 47.3969 16.9599 47.4601 17.1432 47.3613C17.1827 47.3317 17.2517 47.2685 17.2911 47.227C17.3147 47.2151 17.3384 47.2032 17.364 47.1934C17.4941 47.1973 17.6223 47.1993 17.7504 47.1993C18.0461 47.2032 18.3142 47.0867 18.5843 46.9839C18.6474 46.9819 18.7105 46.978 18.7716 46.974C18.9017 47.0175 19.0259 47.0274 19.1402 46.9661C19.1895 46.9819 19.2388 46.9938 19.292 46.9977C19.2959 46.9898 19.292 46.98 19.292 46.9721C19.2979 47.0116 19.2545 46.976 19.2329 46.974C19.2131 46.9642 19.1934 46.9523 19.1737 46.9404C19.1757 46.9385 19.1777 46.9365 19.1816 46.9345C19.2171 46.9306 19.2526 46.9266 19.2881 46.9207C19.3275 46.893 19.357 46.8456 19.3768 46.7883C19.3827 46.7903 19.3886 46.7883 19.3945 46.7903C19.6488 46.8001 19.8972 46.8772 20.1515 46.8574C20.3368 46.8574 20.5201 46.9009 20.7054 46.8654C20.8513 46.8476 20.9913 46.7903 21.1391 46.7745C21.2003 46.7725 21.2633 46.7903 21.3225 46.7646C21.3994 46.7428 21.4644 46.6776 21.5492 46.6915C21.6004 46.6915 21.6497 46.7369 21.6951 46.7211C21.7128 46.6855 21.6753 46.727 21.6596 46.7073Z" fill="#195057"/>
<path d="M32.5559 37.8187C32.5559 37.8068 32.5578 37.7989 32.5578 37.7891C32.5539 37.8286 32.5519 37.8642 32.5559 37.8187Z" fill="#B1E3E9"/>
<path d="M32.5752 36.4161C32.5555 36.3173 32.5437 36.2165 32.5299 36.1158C32.522 35.847 32.5279 35.0705 32.5496 34.452C32.5674 33.5648 32.6482 32.6736 32.5752 31.7884C32.5733 31.7193 32.5851 31.9663 32.591 32.0216C32.591 31.9307 32.591 31.8418 32.593 31.7509C32.5851 31.3201 32.6817 31.2826 32.6166 30.3835C32.5378 29.8757 32.5674 29.3916 32.5338 29.0142C32.4491 27.6784 32.5082 28.4965 32.4294 26.8801C32.3919 26.6509 32.3268 26.4296 32.2401 26.2142C32.2283 26.1194 32.2184 26.0265 32.2105 25.9317C32.2046 25.8447 32.1948 25.7598 32.1849 25.6728C32.1829 25.6452 32.1829 25.6392 32.1849 25.6709V25.6689C32.177 25.5543 32.1691 25.4397 32.1613 25.3251C32.1218 24.9595 32.0587 24.5959 31.9996 24.2343C31.9996 24.2047 31.9996 24.1751 32.0016 24.1454C32.0134 24.0387 32.0233 23.93 32.0252 23.8214C32.0134 23.1732 31.9523 22.5232 31.8498 21.8829C31.7394 21.5036 31.7591 20.8969 31.2958 20.1382C31.2406 20.0572 31.1697 19.99 31.1007 19.9208C31.0238 19.6541 30.8247 19.492 30.6552 19.6323C30.6157 19.5711 30.5704 19.5118 30.5132 19.4644C30.4107 19.3616 30.2885 19.2925 30.1702 19.2154C30.0559 19.1008 29.9534 18.9724 29.8114 18.8874C29.6084 18.7787 29.4447 18.6285 29.291 18.4606C29.1806 18.3578 29.0249 18.3183 28.9184 18.2077C28.7568 18.0614 28.6385 17.8737 28.4768 17.7275C28.3566 17.6129 28.2028 17.5418 28.0826 17.4272C27.846 17.1644 27.6035 16.8838 27.2861 16.7158C27.5897 17.03 27.777 17.4311 28.0076 17.7947C28.2383 18.0496 28.4551 18.3065 28.6306 18.6009C28.7686 18.8558 29.0426 18.9664 29.22 19.1759C29.3422 19.3557 29.5295 19.4565 29.7069 19.5711C29.6793 19.7489 29.705 19.9347 29.772 20.1066C29.7345 20.0947 29.6991 20.0789 29.6636 20.067C29.7069 20.0927 29.7483 20.1243 29.7917 20.152C29.9021 20.4049 30.0973 20.6243 30.3319 20.7448C30.3437 20.7507 30.3535 20.7606 30.3654 20.7665C30.456 20.895 30.5625 21.0135 30.669 21.0412C30.6867 21.0728 30.7064 21.1064 30.7222 21.1341C30.7774 21.3771 30.8503 21.6162 30.9252 21.8513C30.9292 21.9047 30.9331 21.9679 30.941 22.0469C31.0218 22.8393 30.9824 22.4421 31.0277 23.0586C31.0376 23.2879 31.0514 23.5171 31.0534 23.7463C31.0514 23.7562 31.0514 23.7621 31.0494 23.7739C30.9824 24.2995 31.0553 24.8232 31.1086 25.3468C31.1204 25.4851 31.1224 25.5148 31.1224 25.493C31.1243 25.5345 31.1283 25.576 31.1302 25.6175C31.1302 25.6076 31.1283 25.5958 31.1283 25.5859C31.1302 25.7005 31.1322 25.8151 31.1342 25.9317C31.1815 26.4217 31.1164 26.3605 31.288 27.2575C31.3096 27.3346 31.3372 27.4097 31.3668 27.4848C31.3668 28.291 31.3826 28.2969 31.4299 28.864C31.4319 28.9114 31.4358 28.9608 31.4397 29.0082C31.4457 29.0932 31.4516 29.1782 31.4595 29.2631C31.4614 29.3165 31.4654 29.3698 31.4654 29.4232C31.4949 30.423 31.4595 29.9607 31.5679 30.8676C31.5699 30.917 31.5679 30.9664 31.5679 31.0158C31.558 31.1502 31.5482 31.2845 31.5462 31.4169C31.5561 32.4602 31.5994 32.1362 31.6132 33.0234C31.6467 33.8691 31.6428 34.7168 31.7315 35.5585C31.7473 36.0861 31.8084 36.6097 31.9799 37.1116C31.9444 37.4495 31.9641 37.7914 31.9858 38.1312C32.0351 38.7714 32.0607 38.9216 32.1061 39.4354C32.0272 39.5223 31.9464 39.6073 31.9109 39.7219C31.8596 39.8246 31.8596 39.9531 31.7808 40.04C31.6507 40.1763 31.489 40.2811 31.3767 40.4312C31.2939 40.5656 31.2111 40.702 31.0534 40.7573C30.9548 40.7968 30.9075 40.9055 30.8641 40.9944C30.7616 41.1386 30.7399 41.3264 30.7892 41.4943C30.7675 41.3501 30.805 41.2038 30.9154 41.105C31.006 40.9272 31.2406 41.0043 31.3609 40.86C31.5048 40.6664 31.7512 40.6229 31.9306 40.4787C32.0292 40.4036 32.0785 40.2653 32.1356 40.1625C32.2086 40.0815 32.3229 40.04 32.3919 39.9531C32.52 39.7792 32.5181 39.5559 32.5062 39.3484C32.5338 38.9947 32.5437 37.9791 32.5575 37.906C32.5437 38.1273 32.5634 37.8111 32.5693 37.7301C32.5831 37.5286 32.5989 37.5266 32.6442 37.2401C32.6679 36.9694 32.6324 36.6927 32.5752 36.4161Z" fill="#B1E3E9"/>
<path d="M32.5616 37.7239C32.5616 37.7279 32.5616 37.7318 32.5596 37.7397C32.5576 37.7536 32.5576 37.7714 32.5557 37.7891C32.5596 37.7555 32.5616 37.72 32.5616 37.7239Z" fill="#B1E3E9"/>
<path d="M34.0598 18.2679C34.0716 18.098 34.0992 17.9399 34.1702 17.7858C34.1584 17.8095 34.1544 17.8174 34.1761 17.772C34.1741 17.7759 34.1722 17.7818 34.1702 17.7858C34.184 17.7581 34.2076 17.7107 34.2116 17.7028C34.2195 17.687 34.249 17.6416 34.2648 17.6218C34.2766 17.5961 34.2924 17.5487 34.3062 17.5151C33.9553 17.3116 33.6261 17.0685 33.289 16.8413C33.0682 16.6931 32.9894 16.4323 33.1076 16.1912C33.0919 16.1774 33.0781 16.1635 33.0623 16.1477C32.9144 16.0015 32.7981 15.8316 32.6542 15.6834C32.4985 15.5233 32.5064 15.2783 32.6542 15.1183C32.7981 14.9602 33.0741 14.9681 33.218 15.1183C33.3659 15.2704 33.4842 15.4482 33.634 15.5984C33.7089 15.6735 33.7838 15.7466 33.8627 15.8158C33.8804 15.8296 33.8962 15.8434 33.9139 15.8592C33.8548 15.8098 33.9159 15.8592 33.9277 15.8691C33.9691 15.8988 34.0145 15.9244 34.0578 15.9501C34.1781 16.0232 34.2786 16.128 34.3831 16.2208C34.4738 16.3019 34.5645 16.3829 34.6532 16.4659C34.6847 16.4955 34.7143 16.5251 34.7439 16.5548C34.805 16.4224 34.872 16.2979 34.9548 16.1714C34.8602 15.6518 34.5999 15.2447 34.1288 15.3218C33.9356 15.1795 33.6774 15.1163 33.4507 15.057C33.4467 15.057 33.4428 15.057 33.4369 15.057C33.3974 15.0214 33.356 14.9859 33.3127 14.9543C33.1274 14.8831 32.9302 14.731 32.7311 14.6835C32.6897 14.6322 32.6483 14.5808 32.6049 14.5294C32.5675 13.9762 32.3842 13.4249 32.0963 12.9921C31.9505 12.9862 31.8046 12.9151 31.7395 12.7906C31.7257 12.7649 31.71 12.7412 31.6962 12.7175C31.6922 12.7135 31.6883 12.7056 31.6824 12.6997C31.6252 12.7076 31.5661 12.7076 31.5049 12.6957C31.3137 12.6602 31.1264 12.6167 30.9372 12.5732C30.8505 12.5535 30.7539 12.5416 30.6691 12.5139C30.5705 12.4804 30.4877 12.4231 30.4049 12.3618C30.3103 12.2907 30.2137 12.2294 30.1309 12.1543C30.1191 12.1543 30.1092 12.1523 30.0974 12.1523C30.0875 12.1682 30.0777 12.182 30.0678 12.1978C30.0619 12.2057 30.056 12.2156 30.0501 12.2235C29.8687 12.3302 29.7524 12.6048 29.6933 12.9151C29.6933 12.917 29.6913 12.917 29.6913 12.919C29.6381 12.9249 29.5868 12.9487 29.5474 12.9981C29.4528 13.1344 29.3995 13.3103 29.3897 13.4861C29.3207 13.6402 29.2714 13.8201 29.2497 14.0157C29.1531 14.6381 29.3089 15.2665 29.6736 15.7782C29.7761 15.958 29.8904 16.128 30.0146 16.292C30.0639 16.3829 30.1132 16.4718 30.1644 16.5607C30.3911 16.9045 30.5094 17.3531 30.8524 17.6001C30.9845 17.6751 31.1146 17.6554 31.229 17.5882C31.2644 17.6435 31.2979 17.6989 31.3334 17.7542C31.5858 18.0466 31.8105 18.181 32.0017 18.2047C32.2757 18.4181 32.5833 18.6671 32.9204 18.5801C33.0958 18.6829 33.3067 18.7382 33.561 18.7224C33.6557 18.7086 33.7385 18.6789 33.8154 18.6394C33.8863 18.6473 33.9573 18.6513 34.0283 18.6473C34.0322 18.6473 34.0381 18.6453 34.0421 18.6453C34.0421 18.5129 34.0499 18.3825 34.0598 18.2679Z" fill="#2471B6"/>
<path d="M41.8741 7.35403C41.744 7.19991 41.5488 7.14261 41.3655 7.0774C41.2531 7.03591 41.1289 6.99836 41.0126 7.04183C40.9653 7.05764 40.9318 7.09321 40.9022 7.13273C40.8155 7.13668 40.7288 7.13866 40.64 7.14261C40.4488 7.15051 40.2615 7.13866 40.0743 7.12285C39.9816 7.18608 39.887 7.24733 39.7963 7.31254C39.2739 7.686 38.7278 8.01203 38.1838 8.35189C37.068 9.04941 35.9483 9.74692 34.8995 10.5452C34.8344 10.6302 34.7654 10.7092 34.6827 10.7823C34.6038 10.8495 34.5013 10.9088 34.4362 10.9898C34.3357 11.1143 34.2766 11.2348 34.1307 11.3119C34.0065 11.3771 33.8843 11.381 33.764 11.3455C33.2889 11.6577 32.8217 11.9975 32.5339 12.4382C32.526 12.5548 32.4984 12.6674 32.4472 12.7899C32.3939 12.9164 32.2756 12.9776 32.1495 12.9875C31.9031 13.3866 31.9011 14.3213 32.3998 14.4517C32.4156 14.4477 32.4314 14.4398 32.4491 14.4339C32.5142 14.5702 32.5989 14.6829 32.7074 14.7441C32.7606 14.8587 32.8158 14.9437 32.8749 15.0069C32.9972 14.9911 33.1273 15.0287 33.212 15.1176C33.3599 15.2697 33.4782 15.4476 33.628 15.5977C33.7029 15.6728 33.7778 15.7459 33.8567 15.8151C33.8744 15.8289 33.8902 15.8427 33.9079 15.8586C33.8488 15.8092 33.9099 15.8586 33.9217 15.8684C33.9631 15.8981 34.0085 15.9238 34.0518 15.9494C34.1721 16.0226 34.2726 16.1273 34.3771 16.2202C34.4678 16.3012 34.5585 16.3822 34.6472 16.4652C34.6787 16.4948 34.7083 16.5244 34.7378 16.5541C34.8285 16.3545 34.935 16.1727 35.0907 15.9751C35.28 15.736 35.4318 15.5226 35.6585 15.2974C35.6545 15.3033 35.6506 15.3112 35.6466 15.3171C35.7018 15.25 35.7689 15.1907 35.8556 15.1255C35.9522 15.0504 36.0902 15.0366 36.2164 15.0603C36.3997 14.8884 36.5594 14.6908 36.723 14.503C36.7841 14.4339 36.8452 14.3647 36.9063 14.2956C37.4504 13.7739 37.9965 13.2523 38.5484 12.7385C39.0551 12.2485 39.6485 11.8138 39.9816 11.1775C39.9875 11.1676 39.9915 11.1558 39.9954 11.1459C40.0329 11.1439 40.0684 11.138 40.1038 11.1301C40.1216 11.0965 40.1374 11.0649 40.1551 11.0313C40.228 10.9029 40.3266 10.7942 40.4232 10.6835C40.5198 10.5729 40.6223 10.4681 40.7228 10.3595C40.7741 10.2864 40.8253 10.2152 40.8825 10.148C40.9752 10.0374 41.0777 9.93859 41.1802 9.83584C41.2965 9.71926 41.3951 9.58291 41.5114 9.47028C41.5271 9.45645 41.5429 9.44262 41.5607 9.42879C41.5942 9.38334 41.6316 9.34185 41.6691 9.31023C41.6829 9.18772 41.742 9.06719 41.8445 8.98815C41.8761 8.86762 41.8997 8.74313 41.9116 8.61865C41.9194 8.56332 41.9194 8.50799 41.9214 8.45267C41.9845 8.45464 42.0495 8.44674 42.1166 8.42698C42.43 8.10292 42.1107 7.62474 41.8741 7.35403Z" fill="#ABABAB"/>
<path d="M23.2486 41.4707C23.2452 41.4741 23.2452 41.4775 23.2486 41.4707V41.4707Z" fill="#2471B6"/>
<path d="M31.3435 37.5484C31.3513 37.5129 31.3592 37.4753 31.3651 37.4398C31.4184 37.013 31.4085 36.5881 31.3573 36.1653C31.4262 35.7523 31.4617 35.3275 31.4322 34.9105C31.4854 34.3988 31.4854 33.885 31.4302 33.3752C31.509 33.063 31.509 32.7311 31.4775 32.4011C31.5662 31.3736 31.649 30.3441 31.6293 29.3107C31.6273 28.548 31.5209 27.7971 31.4262 27.0423C31.4322 26.9119 31.4361 26.8111 31.4381 26.734C31.4578 26.5522 31.4795 26.3645 31.4992 26.165C31.5761 25.5643 31.6392 24.9221 31.3651 24.3609C31.2685 24.2068 31.1779 24.104 31.0891 24.0388C31.1108 23.7365 31.0379 23.0291 30.8329 22.5569C30.827 22.2249 30.754 21.8929 30.6357 21.6163C30.4918 21.2685 30.1942 21.0215 29.9162 20.7805C29.5968 20.492 29.2617 20.2252 28.9207 19.9624C28.9128 19.8696 28.8891 19.7787 28.8497 19.6976C28.5895 19.3222 28.2898 18.9705 27.9705 18.6405C27.9882 18.4666 27.9764 18.2888 27.9468 18.1366C27.9094 17.9114 27.7872 17.7059 27.6018 17.5735C27.456 17.4846 27.2884 17.4352 27.1287 17.3759C27.0814 17.3601 27.0262 17.3443 26.969 17.3265C26.9651 17.3206 26.9592 17.3166 26.9552 17.3107C27.042 17.0775 27.0045 16.7021 26.7601 16.7515C26.5452 16.8226 26.3284 16.878 26.1095 16.9274C25.7015 16.9372 25.2461 16.8859 24.8676 16.878V16.8799C24.8459 16.8819 24.8242 16.8898 24.8065 16.9056C24.7809 16.9274 24.7631 16.955 24.7493 16.9847C24.5049 16.9372 24.2447 16.9155 23.9963 16.9412C23.9194 16.9392 23.8425 16.9392 23.7656 16.9412C23.7617 16.9353 23.7597 16.9293 23.7558 16.9254C23.4896 16.6843 23.1033 16.791 22.7918 16.8681C22.6774 16.8938 22.5611 16.9175 22.4448 16.9412C22.1255 16.9056 21.7982 16.9175 21.5755 17.0518C21.5262 17.0538 21.4769 17.0578 21.4256 17.0578C21.3941 17.0578 21.3665 17.0617 21.3389 17.0676C21.3093 17.04 21.2778 17.0183 21.2403 17.0044C20.9998 16.9945 20.8855 17.1151 20.7751 17.121C20.4617 17.1921 20.1384 17.2692 20.0832 17.6051C20.0634 17.6486 20.0516 17.7 20.0457 17.7533C20.0358 17.7573 20.028 17.7612 20.0181 17.7652C20.026 17.7652 20.0358 17.7632 20.0437 17.7612C20.0437 17.7691 20.0437 17.775 20.0437 17.7829C19.9846 17.7909 19.9215 17.8027 19.8841 17.8462C19.8486 17.8995 19.8229 17.9667 19.8111 18.0359C19.0482 18.2117 18.165 19.9348 17.9896 20.4604C17.7846 21.0097 17.5184 21.5985 17.4376 22.1913C17.4278 22.1992 17.4179 22.2071 17.41 22.215C16.8206 22.5094 16.0439 23.2662 15.8211 23.5468C15.4998 23.9341 15.1706 24.3174 14.8828 24.7324C14.8394 24.766 14.798 24.8015 14.7605 24.845C14.4195 25.2066 14.4116 25.8073 14.5713 26.2558C14.5969 26.3388 14.6344 26.41 14.6797 26.4673C14.6442 26.7419 14.6324 27.0126 14.6856 27.2735C14.7132 27.3742 14.7743 27.5086 14.865 27.5797C14.8631 27.6193 14.8591 27.6588 14.8571 27.6983C14.7665 28.7772 14.8138 29.0281 14.8493 29.5853C14.8768 31.2392 14.8808 30.8717 14.9695 32.1521C14.9951 32.3102 15.0346 32.4663 15.072 32.6224C15.0838 32.6935 15.0937 32.7666 15.1016 32.8378C15.1016 32.8575 15.1036 32.8793 15.1036 32.899C15.0878 32.9622 15.072 33.0235 15.0562 33.0788C14.9774 33.4009 14.8906 33.723 14.8512 34.053C14.6935 35.3986 14.8552 36.766 15.2869 38.0444C15.2869 38.0484 15.2869 38.0503 15.2889 38.0543C15.4604 38.9454 15.5077 39.9295 16.0636 40.6803C16.1267 40.7752 16.2055 40.8463 16.2903 40.9016C16.3021 41.034 16.3416 41.1605 16.4165 41.2692C16.6077 41.4154 16.86 41.4154 17.1064 41.4055C17.1202 41.4193 17.1321 41.4371 17.1478 41.449C17.2977 41.5418 17.481 41.526 17.6564 41.4845C17.8141 41.6031 17.9797 41.7138 18.1493 41.8027C18.4213 41.9449 18.717 41.9785 18.9989 41.9351C19.0285 42.0615 19.129 42.1327 19.2631 42.1583C19.5253 42.2552 19.819 42.2413 20.091 42.2295C20.1482 42.2018 20.1837 42.1504 20.2014 42.0912C20.231 42.0971 20.2606 42.105 20.2901 42.1109C20.4341 42.1169 20.6548 42.2038 20.7455 42.0536C20.7475 42.0516 20.7475 42.0477 20.7495 42.0457C20.9505 42.0319 21.4868 42.1544 21.4611 41.8916C21.948 41.8718 22.4291 41.7888 22.8825 41.6189C22.9554 41.5991 23.0283 41.5774 23.0993 41.5517C23.4246 41.5537 23.7479 41.5379 24.0692 41.4964C24.2624 41.4905 24.4576 41.4806 24.6508 41.4628C25.2757 41.4707 25.9006 41.4549 26.5216 41.3877C26.5413 41.3917 26.563 41.3976 26.5827 41.4016C27.3416 41.5142 28.1183 41.4213 28.8714 41.2949C28.9207 41.451 29.0173 41.6327 29.1927 41.6466C29.2913 41.6308 29.3859 41.6071 29.4766 41.5754C29.6185 41.6327 29.8038 41.6011 30.0325 41.4253C30.1232 41.3423 30.1961 41.2435 30.2651 41.1407C30.4406 41.1684 30.62 41.0281 30.7796 40.8305C31.1759 40.4946 31.442 40.0204 31.4893 39.4987C31.5248 39.1865 31.511 38.8585 31.4223 38.5542C31.5465 38.3922 31.6392 38.2143 31.6254 38.0009C31.6273 37.8172 31.5209 37.6215 31.3435 37.5484ZM23.7361 37.6136C23.74 37.6117 23.7459 37.6117 23.7499 37.6097C23.7715 37.6018 23.7755 37.6018 23.7656 37.6057C23.7834 37.5978 23.7991 37.5919 23.8169 37.584C23.8839 37.5623 23.9785 37.5702 24.0495 37.5761C24.15 37.584 24.2447 37.6235 24.3235 37.6848C24.3629 37.6749 24.4024 37.669 24.4418 37.665C24.6212 37.6453 24.8183 37.8448 24.8006 38.0246C24.8006 38.0286 24.7986 38.0325 24.7986 38.0365C24.7355 38.0503 24.6744 38.0602 24.6113 38.0721C24.4457 38.0385 24.2782 38.0108 24.1086 37.9911C23.9076 37.9278 23.7065 37.8666 23.5034 37.8112C23.466 37.7954 23.4305 37.7796 23.3911 37.7638C23.3812 37.7599 23.3694 37.7539 23.3595 37.75C23.3714 37.7441 23.3832 37.7401 23.395 37.7342C23.5054 37.6808 23.604 37.6057 23.7361 37.6136ZM31.304 38.161C31.2942 38.1709 31.2823 38.1788 31.2725 38.1867C31.2469 38.1432 31.2193 38.0997 31.1897 38.0582C31.2271 37.9713 31.2587 37.8843 31.2843 37.7935C31.3316 37.8211 31.3691 37.8685 31.4046 37.9081C31.4992 38.0108 31.3809 38.0938 31.304 38.161Z" fill="#2471B6"/>
<path d="M23.0946 41.3152C23.0946 41.3113 23.0946 41.3073 23.0946 41.3034C23.1518 41.3152 23.209 41.329 23.2681 41.335C23.2149 41.3192 23.1676 41.2935 23.1222 41.2619C23.1084 41.2559 23.0946 41.248 23.0808 41.2421C23.067 41.2065 23.0454 41.1789 23.0079 41.167C22.9941 41.171 22.9803 41.1729 22.9665 41.1769C22.8955 41.1295 22.8265 41.0761 22.7497 41.0445C22.5446 40.9516 22.316 40.9576 22.0991 40.9121C22.0577 40.9022 22.0124 40.8825 21.9651 40.8607C21.9237 40.7284 21.8507 40.6118 21.7226 40.5525C21.6083 40.5268 21.488 40.5446 21.3677 40.5525C21.3421 40.5426 21.3185 40.5308 21.2968 40.515C21.1154 40.3826 20.9557 40.2067 20.7428 40.1198C20.5871 40.0664 20.4097 40.0704 20.2855 39.9479C19.84 39.44 19.2939 38.8887 18.8188 38.4837C18.5783 38.1576 18.3674 37.802 18.0835 37.4226C18.0066 37.2941 17.91 36.9859 17.707 36.7112C17.6892 36.6855 17.6715 36.6599 17.6537 36.6342C17.3226 36.0552 17.3975 36.1303 17.1885 35.5711C17.0683 35.2964 17.086 34.8934 16.9086 34.2887C16.672 33.6959 16.6996 33.5378 16.5064 32.7415C16.2363 31.5757 16.1043 30.3862 15.7238 28.7995C15.5957 28.2976 15.574 27.9617 15.4577 27.2266C15.4143 27.0468 15.3788 26.867 15.3492 26.6852C15.3492 26.6833 15.3492 26.6793 15.3492 26.6773C15.3492 26.6358 15.3492 26.5943 15.3492 26.5548H15.3414C15.3335 26.4501 15.3256 26.3473 15.3157 26.2426C15.3059 26.1814 15.2921 26.1241 15.2743 26.0727C15.2546 25.8375 15.2408 25.6024 15.2428 25.3673C15.2665 25.2625 15.2921 25.1558 15.3177 25.0511C15.3729 24.8259 15.5898 24.1027 15.1955 24.1204C15.0496 24.1758 14.9747 24.3457 14.9116 24.4801C14.8742 24.5808 14.8446 24.6836 14.8209 24.7863C14.7026 24.9286 14.7224 25.1697 14.7322 25.3455C14.7342 25.3791 14.7342 25.4107 14.7362 25.4443C14.7322 25.5174 14.7302 25.5906 14.7302 25.6617C14.7184 25.7427 14.7086 25.8217 14.7086 25.9028C14.6652 25.964 14.6277 26.043 14.5982 26.1478C14.5745 26.2841 14.5607 26.4185 14.5528 26.5548H14.543C14.543 26.6062 14.5449 26.6556 14.5469 26.707C14.543 26.9085 14.5489 27.1101 14.5666 27.3116C14.5785 27.5784 14.5923 27.8471 14.61 28.1138C14.5844 28.6098 14.5863 29.1078 14.6258 29.6037C14.6593 29.9475 14.6888 30.2953 14.7204 30.6431C14.7224 31.4532 14.7598 32.2614 14.8505 33.0656C14.9195 33.4766 14.9964 33.8896 15.0851 34.3006C15.02 34.3559 14.9629 34.433 14.9136 34.5337C14.6731 35.0336 14.6396 35.6027 14.6849 36.1481C14.7105 36.6144 14.7815 37.0768 14.8761 37.5352C14.9116 37.9541 14.9905 38.3691 15.1482 38.7563C15.1521 38.7643 15.1561 38.7702 15.162 38.7781C15.2704 39.1812 15.3906 39.5467 15.4695 39.8076C15.6095 40.2284 15.8795 40.6177 16.2265 40.9022C16.4335 41.1591 16.6838 41.3784 16.9795 41.5286C17.1018 41.576 17.2437 41.6294 17.3778 41.6333C17.4704 41.8369 17.7365 41.9772 17.9731 41.987C18.048 41.9949 18.1229 41.9989 18.1978 41.9969C18.7459 42.1945 19.4102 42.3032 19.6034 41.8665C19.6921 41.8902 19.7788 41.906 19.8636 41.8843C19.8695 41.8764 19.8715 41.8685 19.8754 41.8606C20.1928 41.9376 20.526 41.9534 20.8572 41.9317C21.0484 41.9396 21.2396 41.9376 21.4308 41.9159C21.5728 41.9001 21.7384 41.8705 21.833 41.7559C22.2312 41.7361 22.6412 41.6808 22.9783 41.5148C22.9882 41.5148 22.998 41.5128 23.0079 41.5128C23.0079 41.5089 23.0079 41.5049 23.0079 41.501C23.0256 41.4911 23.0434 41.4851 23.0611 41.4753C23.067 41.4654 23.071 41.4555 23.0749 41.4437C23.0789 41.4437 23.0828 41.4437 23.0868 41.4437C23.0946 41.4456 23.1025 41.4436 23.1084 41.4456V41.4437C23.1144 41.4437 23.1203 41.4437 23.1282 41.4437C23.1656 41.3765 23.142 41.3389 23.0946 41.3152Z" fill="#243854"/>
<path d="M26.6181 29.1478C26.5234 28.9324 26.35 28.8613 26.2001 28.9344C26.1311 28.5866 26.0523 27.9306 25.7586 27.6777C25.524 27.2489 25.2776 27.1125 25.0607 27.1797C24.9681 26.826 24.8596 26.4783 24.7157 26.1423C24.698 26.1048 24.6763 26.0673 24.6566 26.0317C24.6507 26.0139 24.6467 25.9961 24.6408 25.9764C24.631 25.927 24.6172 25.8716 24.5955 25.8203C24.5935 25.8143 24.5915 25.8084 24.5896 25.8025C24.4535 25.4053 24.4141 24.9568 24.1519 24.6169C24.0474 24.5142 23.9508 24.4648 23.8621 24.449C23.8464 24.4094 23.8306 24.3699 23.8148 24.3304C23.7715 24.0577 23.7281 23.787 23.6867 23.5163C23.6808 23.455 23.6729 23.3958 23.663 23.3365C23.6611 23.3187 23.6591 23.3029 23.6571 23.2851C23.6591 23.293 23.6591 23.3029 23.6611 23.3167C23.5625 22.6627 23.3397 22.147 22.8311 22.3169C22.4881 22.6153 22.36 23.0282 22.3403 23.4827C22.2516 23.6764 22.1786 23.8759 22.1116 24.0063C22.0741 24.0814 22.0406 24.1664 22.011 24.2533C21.9145 24.2711 21.8159 24.3245 21.7272 24.4233C21.6661 24.5102 21.6109 24.5991 21.5576 24.69C21.2836 24.773 21.0313 25.1603 20.9761 25.757C20.9643 25.8874 20.9505 26.0198 20.9386 26.1522C20.844 26.4783 20.7632 26.8122 20.6922 27.1442C20.5779 27.5848 20.4596 28.0235 20.3433 28.4641C20.2487 28.7368 20.1954 29.0213 20.1994 29.3098C20.1974 29.3296 20.1974 29.3493 20.1974 29.3711C20.1324 29.6536 20.0969 29.9461 20.0575 30.2227C19.9648 31.1929 20.0634 32.1828 20.3295 33.1254C20.3354 33.1511 20.3394 33.1748 20.3472 33.2005C20.4951 33.9928 20.7573 34.7733 21.2422 35.4254C21.3743 35.6388 21.5281 35.7811 21.6897 35.8581C21.8238 36.1466 22.0012 36.4153 22.1944 36.6683C22.3383 36.8777 22.4999 37.0733 22.7089 37.2196C22.8922 37.3381 23.0598 37.3954 23.2116 37.4073C23.2116 37.4073 23.2136 37.4073 23.2136 37.4053C23.2215 37.3994 23.2293 37.3934 23.2412 37.3836C23.2766 37.3579 23.3102 37.3282 23.3476 37.3065C23.4146 37.267 23.4915 37.2373 23.5645 37.2117C23.5921 37.2018 23.6197 37.1919 23.6473 37.184C23.665 37.18 23.6887 37.1721 23.6867 37.1741C23.7596 37.1425 23.8306 37.105 23.9035 37.0793C24.0277 37.0338 24.1598 37.0042 24.2899 36.9726C24.4259 36.9409 24.5639 36.9113 24.698 36.8718C24.7295 36.8619 24.7591 36.854 24.7906 36.8422C24.7966 36.8402 24.834 36.8263 24.8478 36.8224C24.8616 36.8165 24.8991 36.7987 24.905 36.7947C24.9306 36.7809 24.9562 36.7671 24.9819 36.7513C25.0016 36.7216 25.0233 36.692 25.041 36.6584C25.1258 36.6347 25.2066 36.5833 25.2618 36.5023C25.2992 36.4509 25.3308 36.3976 25.3604 36.3442C25.4412 36.2671 25.5161 36.1842 25.589 36.0992C25.7191 36.0715 25.8256 35.953 25.8887 35.8384C25.9695 35.7178 26.0247 35.5815 26.0661 35.4412C26.1568 35.4037 26.2455 35.3246 26.3224 35.1863C26.553 34.8267 26.6043 34.4275 26.5806 34.0225C26.76 33.7656 26.829 33.4613 26.8408 33.1491C26.9079 32.9298 26.9039 32.6808 26.9256 32.4555C26.9946 31.2719 26.9217 29.9638 26.6181 29.1478Z" fill="#3D3D3D" stroke="#ABABAB" stroke-miterlimit="10"/>
<path d="M24.0275 35.7217C23.9092 35.8106 23.7712 35.7731 23.649 35.7098C23.6569 35.6604 23.6608 35.6091 23.6628 35.5557C23.6825 35.5617 23.6904 35.5636 23.6726 35.5399C23.6707 35.536 23.6667 35.534 23.6628 35.532C23.6647 35.4115 23.6529 35.285 23.6194 35.1704C23.3927 34.5737 22.9807 34.0639 22.7027 33.4889C22.2612 32.6985 22.0956 32.2124 22.0108 31.8528C22.0088 31.8409 22.0049 31.833 22.0029 31.8251C22.0029 31.8152 21.999 31.7955 21.995 31.7619C21.993 31.7461 21.993 31.7382 21.993 31.7322C21.9911 31.7125 21.9911 31.6987 21.9911 31.6888C22.0404 31.3035 21.9655 30.6474 21.5456 30.7561C21.5337 30.764 21.5258 30.7739 21.516 30.7818C21.4982 30.7858 21.4785 30.7917 21.4608 30.7996C21.309 30.9063 21.2459 31.0881 21.1966 31.258C21.0724 31.6275 20.9936 32.0109 20.9818 32.4021C20.9542 32.9257 21.1828 33.3723 21.4746 33.7892C21.585 34.0599 21.7111 34.2911 21.8038 34.4156C21.8827 34.5658 21.9517 34.7238 22.0522 34.8622C22.1764 34.9906 22.1823 34.9491 22.2474 35.0835C22.407 35.4431 22.9137 35.8422 23.0753 35.9726C23.3217 36.2908 23.5208 36.1485 23.6115 35.864C23.649 35.8679 23.6864 35.8719 23.7239 35.8778C23.8402 35.8798 23.9624 35.8264 24.0314 35.7296C24.0432 35.7079 24.061 35.694 24.0275 35.7217Z" fill="#8C8C8C" stroke="#ABABAB" stroke-miterlimit="10"/>
<path d="M31.9443 16.1494C32.2578 16.3312 32.587 16.4695 32.9202 16.6078" stroke="#ABABAB" stroke-miterlimit="10"/>
<path d="M32.2148 15.9385C32.3982 16.1045 32.6485 16.1815 32.8812 16.2527" stroke="#ABABAB" stroke-miterlimit="10"/>
<path d="M34.0597 18.2673C34.0715 18.0974 34.0991 17.9393 34.1701 17.7852C34.1583 17.8089 34.1543 17.8168 34.176 17.7713C34.174 17.7753 34.1721 17.7812 34.1701 17.7852C34.1839 17.7575 34.2076 17.7101 34.2115 17.7022C34.2194 17.6864 34.249 17.6409 34.2647 17.6212C34.2805 17.5836 34.3061 17.5105 34.316 17.4809C34.3239 17.4532 34.3318 17.4236 34.3416 17.3959C34.3732 17.2991 34.4106 17.2161 34.4816 17.141C34.4954 17.0857 34.5171 17.0343 34.5466 16.9829C34.5723 16.9039 34.6058 16.8308 34.6551 16.7597C34.7083 16.6273 34.7635 16.5028 34.8266 16.3842C34.8206 16.3803 34.8147 16.3743 34.8088 16.3684C34.6965 15.742 34.2746 15.4931 33.7699 15.1828C33.768 15.1809 33.766 15.1789 33.764 15.1769C33.212 14.6513 33.1943 14.7126 32.8828 14.3905C32.7882 14.27 32.6857 14.1613 32.5418 14.1316C32.5083 14.1237 32.4767 14.1237 32.4452 14.1237C32.2461 13.9202 31.9799 13.8135 31.7513 14.0783C31.6882 14.1692 31.6369 14.264 31.5936 14.3628C31.5187 14.2739 31.4457 14.187 31.3747 14.098V14.1C31.3373 14.0585 31.2919 14.0249 31.2348 14.0091C30.8405 13.9459 30.7814 14.673 30.8228 14.9497C30.8918 15.3903 31.217 15.7361 31.4319 16.1155C31.7355 16.5996 32.0982 17.0462 32.5359 17.4097C32.8887 17.8128 33.2929 18.1725 33.7601 18.4333C33.8626 18.5064 33.9572 18.5518 34.0459 18.5775C34.0459 18.4689 34.0518 18.3641 34.0597 18.2673Z" fill="#7A0000" stroke="#ABABAB" stroke-miterlimit="10"/>
<path d="M34.3105 17.1414C34.34 17.1809 34.3696 17.2145 34.4012 17.2501C34.4228 17.2126 34.4465 17.177 34.478 17.1434C34.4918 17.0881 34.5135 17.0367 34.5431 16.9853C34.5687 16.9063 34.6022 16.8332 34.6515 16.762C34.7659 16.4755 34.8841 16.2384 35.0931 15.9756C35.2725 15.7484 35.4203 15.5448 35.6273 15.3334C35.5879 14.8829 35.4322 14.4462 35.0399 14.1913C35.0142 14.1755 34.9906 14.1617 34.9669 14.1478C34.7796 13.9443 34.5746 13.8119 34.3775 13.81C34.2789 13.7131 34.1685 13.6361 34.0483 13.5788C33.9773 13.5116 33.9083 13.4582 33.8452 13.4167C33.8019 13.3456 33.7447 13.2587 33.7072 13.2093C33.5101 12.9465 33.035 12.8378 32.8753 13.1915C32.8339 13.2666 32.7965 13.3436 32.7669 13.4246C32.623 13.4029 32.5008 13.5076 32.4298 13.8317C32.4239 13.8435 32.4239 13.8574 32.418 13.8692C32.3825 13.8198 32.3312 13.8198 32.2544 13.9068C32.2307 13.9522 32.2169 13.9996 32.2071 14.0471C32.1302 14.0787 32.144 14.1953 32.1972 14.3237C32.2031 14.3869 32.2149 14.4482 32.2268 14.5094C32.2307 14.6201 32.2504 14.7149 32.2997 14.7406C32.3411 14.8493 32.3845 14.9619 32.4752 15.0212C32.5382 15.039 32.5777 14.96 32.5934 14.9086C32.5993 14.8869 32.5993 14.8651 32.5993 14.8414C32.6506 14.9224 32.7137 14.9876 32.7925 15.0232C32.8103 15.0706 32.8261 15.12 32.8458 15.1674C32.964 15.4223 33.1139 15.6595 33.2795 15.8867C33.4155 16.1811 33.6402 16.4143 33.9004 16.6119C33.9221 16.6336 33.9418 16.6553 33.9635 16.6771C34.0503 16.851 34.1685 17.0229 34.3105 17.1414Z" fill="#ABABAB" stroke="#ABABAB" stroke-miterlimit="10"/>
<path d="M34.326 17.4434C34.3299 17.4276 34.3358 17.4118 34.3398 17.396C34.3713 17.2992 34.4088 17.2162 34.4797 17.1411C34.4837 17.1292 34.4876 17.1154 34.4916 17.1035C34.4955 17.0838 34.4975 17.066 34.5014 17.0462C34.5054 17.0462 34.5093 17.0482 34.5113 17.0482C34.5211 17.0265 34.533 17.0047 34.5448 16.983C34.5704 16.904 34.6039 16.8309 34.6532 16.7597C34.6848 16.6807 34.7183 16.6036 34.7518 16.5305C34.7281 16.5325 34.7025 16.5404 34.6828 16.5443C34.6729 16.5463 34.6631 16.5483 34.6552 16.5483C34.5586 16.4119 34.4048 16.3092 34.2491 16.2875C33.9633 16.0622 33.3994 15.7816 33.1471 15.9298C33.0367 15.8705 32.9263 15.8113 32.814 15.7579C32.7666 15.7381 32.7193 15.7105 32.672 15.7362C32.6227 15.748 32.5833 15.7796 32.5537 15.8192C32.5459 15.8152 32.538 15.8113 32.5301 15.8073C32.4571 15.7777 32.3803 15.7046 32.2994 15.7164C32.2088 15.7599 32.1772 15.8626 32.1733 15.9674C31.9052 15.8073 31.6686 15.584 31.4932 15.3271C31.6647 15.7065 31.919 16.0583 32.2383 16.327C32.3113 16.3823 32.3842 16.4357 32.4552 16.487C32.4887 16.6352 32.5577 16.7735 32.674 16.8783C32.7726 16.9652 32.8711 17.0304 32.9697 17.0818C33.2477 17.39 33.5946 17.6904 33.8864 17.398C33.8903 17.39 33.8943 17.3821 33.8982 17.3742C33.9357 17.3881 33.9711 17.4039 34.0066 17.4217C34.1466 17.5027 34.2491 17.4967 34.326 17.4434Z" fill="#7A0000" stroke="#ABABAB" stroke-miterlimit="10"/>
<path d="M34.3907 15.7954C34.2586 15.6314 34.1068 15.5721 33.9629 15.5859C33.8564 15.4318 33.7283 15.3053 33.5864 15.248C33.5272 15.0603 33.4425 14.8825 33.3281 14.7264C33.0778 14.2956 32.6539 14.0071 32.3208 13.6396C32.2774 13.5526 32.234 13.4657 32.1926 13.3788C32.1315 13.2187 32.0586 13.0646 31.9521 12.9282C31.7964 12.7484 31.6387 12.705 31.4968 12.7445C31.1321 12.5627 30.8226 12.8887 30.6865 13.359C30.6648 13.4341 30.651 13.5092 30.6372 13.5803C30.4283 13.6653 30.3218 14.013 30.2962 14.2225C30.2035 14.7758 30.448 15.2875 30.7693 15.7203C30.8107 15.7894 30.8699 15.8764 30.9408 15.9851C31.0552 16.2498 31.1833 16.5087 31.3331 16.7557C31.4297 16.9236 31.5243 17.1469 31.7037 17.2319C31.7885 17.2536 31.8614 17.2497 31.9285 17.2339C31.9797 17.4907 32.0862 17.7298 32.2281 17.876C32.3878 18.0361 32.6027 18.0539 32.8156 18.0163C32.8333 18.0183 32.8491 18.0163 32.8668 18.0163C32.8806 18.0361 32.8925 18.0559 32.9082 18.0736C33.0738 18.2791 33.3833 18.3108 33.6021 18.1724C33.6928 18.0993 33.746 17.9946 33.7697 17.882C33.7717 17.8741 33.7736 17.8662 33.7756 17.8583C33.8762 17.8998 33.9806 17.9333 34.0871 17.9531C34.2882 17.961 34.4321 17.7792 34.5228 17.6192C34.7692 17.0481 34.7514 16.315 34.3907 15.7954Z" fill="#243854"/>
<path d="M36.6329 13.4859C36.6428 13.4622 36.6546 13.4385 36.6645 13.4167C36.6487 13.4365 36.6329 13.4582 36.6152 13.478C36.5935 13.4661 36.5679 13.4602 36.5383 13.4622C36.5836 13.3199 36.6033 13.1737 36.5698 13.0294C36.5127 12.8555 36.42 12.8437 36.3431 12.903C36.3747 12.7785 36.3845 12.6441 36.3885 12.5493C36.3806 12.4742 36.3707 12.411 36.3609 12.3537C36.7197 11.7154 37.0548 11.0614 37.5023 10.4824C36.97 10.8875 36.556 11.4309 36.1302 11.9427C36.1125 11.9723 36.0908 12 36.0671 12.0256C35.8858 12.1086 35.6748 12.4683 35.5507 12.7627C35.3653 13.1559 35.2333 13.5293 35.1091 13.889C35.0164 14.1715 35.0204 14.7525 35.322 14.8552C35.3121 14.8789 35.3023 14.9007 35.2924 14.9244C35.2806 14.9461 35.2687 14.9659 35.2569 14.9876C35.249 14.9975 35.2412 15.0093 35.2333 15.0192C35.1958 15.0884 35.1465 15.1575 35.1288 15.2346C35.0716 15.3472 35.0184 15.4599 34.9652 15.5745C34.9632 15.5626 34.9632 15.5488 34.9612 15.5389C34.91 15.2781 34.7168 15.1674 34.492 15.0844C34.5256 14.5766 34.3619 14.0233 34.0012 13.966C33.8691 13.9878 33.7646 14.0767 33.6838 14.2051C33.6897 14.1913 33.6956 14.1775 33.6996 14.1617C33.6818 14.2012 33.6562 14.2427 33.6306 14.2842C33.6424 14.1794 33.6759 14.0767 33.7567 14.0095C33.6661 14.0451 33.6247 14.132 33.5971 14.2229C33.5892 14.1913 33.5813 14.1577 33.5714 14.1261C33.5182 13.9996 33.465 13.7902 33.3329 13.9917C33.2678 14.0609 33.2245 14.1439 33.1949 14.2348C33.122 14.0826 33.0096 14.0984 32.9879 14.3178C32.9327 14.3059 32.8755 14.3019 32.8361 14.3138C32.7868 14.3632 32.7908 14.4541 32.8164 14.5153C32.8519 14.5746 32.9406 14.5746 32.9978 14.6082C33.0135 14.6161 33.0313 14.622 33.0471 14.63C33.0845 14.7129 33.1377 14.788 33.1949 14.8592C33.2619 15.0271 33.4019 15.1812 33.5241 15.2287C33.5754 15.5903 33.735 15.9005 33.9992 15.942C34.0623 15.9321 34.1195 15.9044 34.1707 15.8669C34.2101 15.8965 34.2535 15.9242 34.2969 15.9479C34.4625 16.0605 34.6005 16.2166 34.7858 16.2957C34.8035 16.3056 34.8213 16.2898 34.8291 16.272C34.9139 16.1337 34.975 15.944 34.9514 15.774C34.9947 15.7108 35.0401 15.6476 35.0834 15.5824C35.0815 15.6021 35.0795 15.6199 35.0795 15.6397C35.0657 15.7444 35.0696 15.8511 35.1051 15.9558C35.1288 16.0092 35.1524 16.0447 35.1781 16.0665C35.2569 16.189 35.3831 16.27 35.4994 16.1297C35.6039 15.9815 35.6689 15.859 35.7182 15.7879C35.9213 15.4658 36.5383 15.1852 36.6152 14.7169C36.6211 14.6141 36.6171 14.5252 36.6073 14.4501C36.7295 14.3118 36.8005 14.1439 36.7926 13.9522C36.7946 13.8178 36.7571 13.5669 36.6329 13.4859ZM33.4315 14.2842C33.4669 14.3454 33.4906 14.4165 33.5083 14.4916C33.5044 14.5015 33.5005 14.5114 33.4965 14.5213C33.463 14.4798 33.4177 14.4482 33.3664 14.4264C33.3664 14.4205 33.3664 14.4185 33.3684 14.4126C33.3684 14.4126 33.3684 14.4126 33.3704 14.4086C33.3723 14.3988 33.3763 14.3869 33.3802 14.377C33.3802 14.3751 33.3822 14.3751 33.3822 14.3731C33.3822 14.3711 33.3822 14.3711 33.3841 14.3691C33.394 14.3395 33.4137 14.3118 33.4315 14.2842ZM34.906 15.8827C34.8962 15.9716 34.8469 16.0428 34.7956 16.1119C34.7779 16.0981 34.7385 16.0803 34.7247 16.0645C34.6734 16.0092 34.6182 15.9598 34.563 15.9064C34.5867 15.9203 34.6084 15.9341 34.634 15.944C34.6971 15.9716 34.7503 15.9716 34.7976 15.9558C34.7818 15.9953 34.7641 16.0329 34.7483 16.0724C34.7838 16.025 34.8173 15.9736 34.8508 15.9242C34.8745 15.9064 34.8942 15.8807 34.91 15.8531C34.908 15.8649 34.908 15.8728 34.906 15.8827ZM36.2051 13.1658C36.1519 13.2962 36.077 13.5254 35.9567 13.6479C35.8976 13.6993 35.8306 13.7526 35.7616 13.7981C35.7793 13.7467 35.7971 13.6993 35.8128 13.6578C35.8621 13.5353 35.9331 13.3574 36.008 13.1875C36.0238 13.1974 36.0376 13.2073 36.0533 13.2152C36.1164 13.2152 36.1657 13.1934 36.2071 13.1579C36.2051 13.1579 36.2051 13.1618 36.2051 13.1658Z" fill="#ABABAB"/>
<path d="M33.0487 12.3239C32.889 12.3753 32.7431 12.4602 32.5992 12.5472C32.5696 12.5274 32.5322 12.5215 32.4809 12.5432C32.406 12.5966 32.3449 12.6657 32.2858 12.7369C32.1478 12.7783 31.994 12.8238 31.9152 12.9503C31.9092 12.9661 31.9033 12.9858 31.8974 13.0056C31.8127 12.9977 31.7437 13.0234 31.7259 13.134C31.6747 13.3435 31.7949 13.385 31.9368 13.3652C31.9467 13.3771 31.9585 13.385 31.9704 13.3948C31.9881 13.462 32.0236 13.5174 32.0906 13.5371C32.1202 13.5272 32.1458 13.5114 32.1695 13.4917C32.1714 13.4996 32.1714 13.5075 32.1754 13.5134C32.4809 13.3731 32.7431 13.0668 33.0231 12.8594C33.094 12.7843 33.1965 12.7487 33.2281 12.6381C33.2734 12.5096 33.232 12.2488 33.0487 12.3239Z" fill="#ABABAB"/>
<path d="M41.7187 7.79518C41.6714 7.71614 41.6063 7.65291 41.5334 7.59956C41.3954 7.45531 41.2042 7.36047 41.0386 7.25179C40.9203 7.19251 40.7882 7.08581 40.6502 7.11545C40.6029 7.13916 40.5674 7.17078 40.5359 7.20832C40.4826 7.22413 40.4412 7.25179 40.4038 7.28143C40.3999 7.25772 40.3939 7.23401 40.392 7.20832C40.39 7.23401 40.39 7.2597 40.39 7.28538C40.3663 7.23598 40.3407 7.18659 40.319 7.13521C40.3309 7.19844 40.3466 7.26365 40.3644 7.3249C40.3624 7.32885 40.3604 7.33281 40.3565 7.33478C40.3525 7.317 40.3486 7.29921 40.3427 7.28341C40.3427 7.30514 40.3447 7.32688 40.3466 7.34861C40.3151 7.39011 40.2875 7.43358 40.2717 7.48693C40.2697 7.48495 40.2697 7.48298 40.2678 7.48298C40.2678 7.48495 40.2697 7.48693 40.2697 7.49088C40.1968 7.74578 40.2934 8.09948 40.388 8.30893C40.5162 8.64879 40.869 8.81873 41.2081 8.87998C41.3224 8.878 41.4624 8.90369 41.5551 8.82663C41.5767 8.80292 41.5945 8.77525 41.6103 8.74759C41.8527 8.51443 41.8429 8.08169 41.7187 7.79518Z" fill="#5C5C5C"/>
<path d="M21.5965 34.7351C21.5492 34.4249 21.4369 34.1305 21.293 33.8518C21.1964 33.4784 20.9026 32.8678 20.7824 32.6129C20.6582 32.0735 20.5852 31.534 20.5261 31.0598C20.5143 30.712 20.4985 30.473 20.4847 30.2773C20.4887 30.1864 20.4926 30.0936 20.4965 30.0027C20.4965 29.7656 20.536 29.5146 20.4965 29.2795C20.536 29.1767 20.5774 29.074 20.6188 28.9732C20.5695 29.0424 20.5222 29.1135 20.4768 29.1846C20.4689 29.153 20.4591 29.1194 20.4453 29.0878C20.398 28.8764 20.1338 28.7341 20.0136 28.9772C19.915 29.1115 19.9091 29.2874 19.8775 29.4474C19.706 30.9867 19.8499 33.7056 20.9894 35.32C21.291 35.974 21.6951 35.3061 21.5965 34.7351Z" fill="#7A7A7A"/>
<path d="M23.7282 36.6828C23.6553 36.6828 23.5764 36.7046 23.5035 36.6986C23.7716 36.6848 23.9037 36.4042 23.9707 36.175C24.1816 35.1357 23.7992 34.6081 23.1782 33.794C23.052 33.6339 22.918 33.4798 22.7741 33.3356C22.6893 33.1834 22.6045 33.0313 22.5237 32.8771C22.4409 32.727 22.3621 32.5689 22.2458 32.4424C22.1649 32.2764 22.2024 32.2982 22.1413 32.1737C22.1925 32.0492 22.23 31.9208 22.2162 31.7844C22.2122 31.6125 22.1511 31.4367 22.0348 31.4149C22.0348 31.2766 22.0112 31.1403 21.952 31.0118C21.9363 30.9802 21.9205 30.9545 21.9027 30.9328C21.887 30.8004 21.8515 30.672 21.7766 30.5554C21.6997 30.3716 21.4375 30.3696 21.3606 30.5554C21.3508 30.5712 21.3429 30.589 21.333 30.6048C21.2463 30.668 21.1734 30.7826 21.1438 30.917C21.0294 31.2648 20.9506 31.7271 21.1142 32.0729C21.0393 32.2942 21.0827 33.0392 21.0708 32.7013C21.0866 33.0155 21.1142 33.3316 21.2325 33.626C21.4178 34.1437 21.6839 34.6278 21.9796 35.0922C22.0407 35.3135 22.1176 35.5328 22.2241 35.7324C22.1373 35.6613 22.0427 35.598 21.954 35.5289C21.7135 35.2878 21.5105 35.0131 21.2897 34.7543C21.0787 34.4302 20.9033 34.1299 20.7712 33.8019C21.0748 33.2822 20.9644 32.1658 20.444 32.0848C20.4361 32.0868 20.4282 32.0907 20.4203 32.0927C20.4144 32.0453 20.4085 31.9978 20.3986 31.9524C20.4006 31.9998 20.4006 32.0492 20.4006 32.1006C20.3986 32.1006 20.3966 32.1026 20.3947 32.1026C20.3828 32.0551 20.371 32.0077 20.3651 31.9603C20.3513 31.818 20.3552 31.6738 20.3612 31.5315C20.4262 30.5672 20.8737 29.605 20.9861 28.6486C21.0354 28.366 21.0906 28.0657 21.1458 27.8128C21.1497 27.7594 21.1536 27.712 21.1556 27.6665C21.266 27.4235 21.3606 27.1726 21.4316 26.9157C21.6031 26.5699 21.7076 26.2695 21.8062 26.0245C22.1019 25.5187 22.3621 25.1255 22.6992 24.6631C22.3049 24.9476 21.8653 25.3527 21.611 25.7676C21.5026 26.0087 21.3863 26.2518 21.2975 26.5007C21.2325 26.5719 21.1674 26.645 21.1162 26.728C20.9821 27.0145 20.9604 27.3366 20.9269 27.6468C20.8698 27.8543 20.8165 28.0637 20.7732 28.2751C20.6943 28.6743 20.6194 29.0141 20.5484 29.352C20.5366 29.3757 20.5228 29.3975 20.511 29.4212C20.5189 29.3856 20.5248 29.3501 20.5327 29.3145C20.5741 28.9114 20.5682 28.4866 20.7732 28.125C20.7909 27.8799 20.7771 27.631 20.8422 27.3919C20.7594 27.5855 20.718 27.793 20.6904 28.0025C20.645 28.0933 20.5662 28.1704 20.5346 28.2732C20.3848 28.611 20.3474 29.2216 20.3119 29.3204C20.0418 30.2867 20.1463 31.2983 20.1542 32.2942C19.8092 32.7843 19.9058 33.9777 20.4459 34.0627C20.4873 34.0568 20.5268 34.0429 20.5642 34.0232C20.5839 34.0943 20.6056 34.1655 20.6352 34.2346C20.8284 34.6674 20.988 35.1238 21.3015 35.4893C21.4572 35.6889 21.6149 35.8905 21.8022 36.0604C21.9974 36.2125 22.2201 36.3232 22.3818 36.5188C22.5198 36.6749 22.6834 36.7994 22.8963 36.8251C23.0816 36.8864 23.2531 36.9851 23.4404 37.0365C23.5508 37.0523 23.6454 36.9812 23.7499 36.9614C24.089 36.9318 24.4241 36.8468 24.7178 36.6729C24.3886 36.75 24.0555 36.7283 23.7282 36.6828Z" fill="#C2C2C2"/>
<path d="M24.3276 29.1354C24.2645 28.928 24.0969 28.7679 24.0575 28.6197C23.9964 28.3984 23.9077 28.1929 23.7657 28.0111C23.748 27.9815 23.5942 27.7444 23.5292 27.7128C23.4089 27.5823 23.2433 27.5428 23.0856 27.4855C22.9437 27.4341 22.7702 27.3847 22.6322 27.4658C22.3799 27.6732 22.4173 28.1178 22.644 28.3312C22.6854 28.3826 22.7288 28.434 22.7702 28.4834C22.8727 28.8035 23.0915 29.0999 23.3005 29.3587C23.3557 29.5543 23.3774 29.7361 23.4326 29.9357C23.47 30.1708 23.4267 30.3487 23.5173 30.7557C23.6435 31.2952 23.9372 31.3663 24.1462 30.815C24.3906 30.321 24.5129 29.7539 24.3276 29.1354Z" fill="#C2C2C2"/>
<path d="M26.8624 33.51C26.9787 33.0002 26.955 32.4647 26.884 31.9509C26.7125 31.1625 26.7145 30.9333 26.5233 30.0856C26.4622 29.7695 26.4168 29.4454 26.269 29.155C26.2611 29.1372 26.2552 29.1214 26.2473 29.1036C26.1211 28.744 26.0659 28.3606 25.8964 28.0168C25.6815 27.5446 25.3996 27.1336 25.1276 26.7818C24.8654 26.2226 24.6328 25.6378 24.2917 25.1201C24.1459 24.9936 24.0374 24.9027 23.9408 24.7209C23.8048 24.4897 23.6136 24.2961 23.4874 24.0609C23.3829 23.8436 23.2351 23.6539 23.101 23.4563C23.0163 23.2666 22.9926 23.0433 23.0577 22.8438C22.9374 23.0828 22.9591 23.3753 23.034 23.6262C23.1168 23.8199 23.2193 24.0056 23.2528 24.1261C23.3573 24.4937 23.5466 24.8237 23.7023 25.1714C23.795 25.3927 23.8975 25.6081 24.069 25.78C24.1675 25.9796 24.2306 26.2543 24.3331 26.4894C24.4869 26.8233 24.5303 27.1434 24.753 27.6671C25.2005 28.3646 25.445 28.8566 25.6263 29.7181C25.9693 30.5875 25.9358 30.9807 26.2059 31.947C26.3774 32.7018 26.4188 32.601 26.3616 33.427C26.3616 33.4131 26.3636 33.4013 26.3636 33.3835C26.3636 33.4131 26.3597 33.4408 26.3577 33.4665C26.3577 33.4764 26.3557 33.4843 26.3557 33.4922C26.3557 33.4942 26.3557 33.4922 26.3557 33.4942C26.3281 33.7352 26.2315 33.8558 26.131 34.1442C26.1271 34.1561 26.1113 34.1996 26.1192 34.1719C26.1271 34.1541 26.1231 34.1522 26.1093 34.1699C26.0679 34.2154 26.0147 34.249 25.9733 34.2944C25.8412 34.4545 25.7091 34.7627 25.6342 34.8793C25.5731 34.9366 25.4312 35.2073 25.3641 35.3417C25.2498 35.4464 25.1631 35.5729 25.1158 35.723C25.0014 35.9424 24.824 36.1261 24.7885 36.381C24.7826 36.4047 24.7727 36.4581 24.7688 36.4719C24.8181 36.3672 24.8575 36.2546 24.9423 36.1716C25.1355 36.0096 25.169 35.9542 25.3208 35.7784C25.4568 35.7171 25.5435 35.5986 25.6382 35.4859C25.8136 35.3278 25.9536 35.1382 26.1073 34.9603C26.2177 34.8912 26.3459 34.8358 26.407 34.7113C26.476 34.5987 26.5134 34.5078 26.5805 34.4268C26.7658 34.1719 26.8032 33.8419 26.8584 33.5396C26.8683 33.4882 26.8624 33.5119 26.8564 33.5436C26.8584 33.5337 26.8604 33.5218 26.8624 33.51Z" fill="#C2C2C2"/>
<path d="M25.4192 31.7356C25.4271 31.6882 25.435 31.6427 25.435 31.5933C25.4074 31.0341 25.1117 31.1428 25.0033 31.6052C24.9185 31.9846 25.0072 32.3323 24.9776 32.7078C24.8318 33.1958 24.5972 33.6562 24.5282 34.164C24.5242 34.2134 24.5144 34.253 24.538 34.1779C24.5952 34.006 24.68 33.8479 24.7746 33.6957C24.7707 33.7649 24.7667 33.8341 24.7569 33.9012C24.6701 34.2372 24.3527 34.4486 24.1201 34.6857C24.3527 34.575 24.6011 34.4664 24.7825 34.2767C24.9205 34.1127 24.952 33.8933 24.9855 33.6878C24.9934 33.4942 25.1196 33.346 25.1965 33.178C25.2635 33.0101 25.2852 32.8303 25.3009 32.6505C25.4015 32.3244 25.4567 31.9747 25.4192 31.7356Z" fill="#C2C2C2"/>
<path d="M24.6484 36.0685C24.5459 35.8986 24.4217 35.8136 24.2975 35.7879C24.1792 35.6575 24.0452 35.5923 23.9052 35.6476C23.7928 35.5883 23.6923 35.5053 23.5918 35.4224C23.5977 35.4085 23.6016 35.3947 23.6056 35.3828C23.6864 35.1319 23.6312 34.8592 23.503 34.634C23.4952 34.6181 23.4873 34.6043 23.4814 34.5885C23.4281 33.9147 23.1285 33.6065 22.8683 33.0986C22.6731 32.7588 22.543 32.5533 22.4208 32.3695C22.3557 32.2075 22.2966 32.0455 22.2374 31.8814C22.2098 31.7985 22.1822 31.7214 22.1566 31.6463C21.9201 30.9429 21.721 30.2039 21.4864 29.3838C21.4331 29.1783 21.3503 29.0637 21.2616 29.0203C21.2459 28.8424 21.234 28.6646 21.2222 28.4868C21.3011 28.2615 21.3878 28.0145 21.4726 27.7695C21.4903 27.7537 21.508 27.7379 21.5238 27.7161C21.652 27.5383 21.7426 27.3387 21.8136 27.1293C21.8373 27.0799 21.8609 27.0305 21.8846 26.9811C21.9792 26.8783 22.1093 26.5246 22.133 26.4555C22.131 26.4594 22.131 26.4614 22.129 26.4653C22.1369 26.4476 22.1448 26.4298 22.1527 26.412C22.196 26.3231 22.2414 26.2361 22.2848 26.1472C22.336 26.0445 22.3794 25.9397 22.4228 25.833C22.5529 25.5801 22.6928 25.3292 22.8249 25.0782C22.9156 24.8688 23.2093 24.606 23.302 24.0013C23.4202 23.4085 23.0418 22.2645 22.3991 23.1181C22.3814 23.1418 22.3616 23.1695 22.3419 23.2011C22.2769 23.2011 22.2079 23.2268 22.1369 23.29C22.0186 23.3908 21.9457 23.5271 21.8944 23.6733C21.7426 23.8946 21.8175 23.782 21.3287 24.5329C20.9285 25.1395 20.6446 25.8093 20.4278 26.5009C20.2247 26.6076 20.0335 26.9455 19.9487 27.5699C19.8975 27.7873 19.8541 28.0086 19.8147 28.2239C19.7831 28.3148 19.7496 28.4038 19.7181 28.4947C19.5525 29.1526 19.3277 29.8225 19.4283 30.5101C19.448 30.6168 19.4697 30.7255 19.4973 30.8322C19.4145 31.3776 19.3731 31.9427 19.6156 32.3695C19.6451 32.6303 19.6826 32.8912 19.7358 33.148C19.8226 33.5077 19.9566 33.8574 20.1202 34.1874C20.1754 34.2822 20.2582 34.4067 20.3489 34.4541C20.4554 34.5035 20.5559 34.4897 20.6407 34.4423C20.6545 34.4937 20.6683 34.545 20.6919 34.5944C20.7412 34.6932 20.8043 34.7802 20.8713 34.8651C20.8516 35.126 20.9048 35.4026 20.9896 35.6239C21.171 35.9934 21.5238 36.2206 21.8235 36.4854C22.1822 36.7463 22.5292 37.0466 22.9471 37.2086C23.1561 37.2936 23.3138 37.2402 23.4222 37.1118C23.4833 37.1513 23.5464 37.1889 23.6036 37.2323C23.6056 37.2343 23.6036 37.2323 23.6056 37.2343C23.6529 37.2758 23.712 37.3015 23.7633 37.339C23.8323 37.3924 23.8973 37.4556 23.988 37.4655C24.0767 37.4536 24.1516 37.4141 24.2127 37.3588C24.26 37.3627 24.3093 37.3489 24.3547 37.3035C24.3744 37.2817 24.3882 37.2541 24.4059 37.2304C24.4315 37.2323 24.4572 37.2304 24.4828 37.2146C24.5301 37.1829 24.5656 37.1414 24.5893 37.0901C24.6464 37.0011 24.6661 36.8628 24.6543 36.7048C24.745 36.5408 24.7489 36.3175 24.6484 36.0685ZM21.1079 28.8207C21.1217 28.7831 21.1355 28.7416 21.1493 28.7002C21.1473 28.8009 21.1473 28.9037 21.1493 29.0045C21.1177 29.0104 21.0882 29.0222 21.0586 29.042C21.0684 28.9946 21.0783 28.9491 21.0862 28.9096C21.0921 28.88 21.1 28.8503 21.1079 28.8207Z" fill="#1F1F1F"/>
<path d="M24.3136 34.6969C24.2072 34.5448 24.0554 34.444 23.8898 34.367C23.8444 34.3235 23.7932 34.282 23.736 34.2504C23.7124 34.2365 23.6867 34.2306 23.6631 34.2267C23.6197 34.1713 23.5763 34.1121 23.5409 34.0488C23.5527 34.0666 23.5744 34.1042 23.5744 34.1002C23.4502 33.9362 23.3733 33.7347 23.2412 33.5805C23.2077 33.5173 23.1742 33.4541 23.1407 33.3928C23.1505 33.3493 23.1584 33.3078 23.1643 33.2703C23.2254 32.8237 23.1091 32.3633 22.8272 32.0096C22.8056 31.984 22.7839 31.9563 22.7622 31.9306C22.7563 31.9148 22.7504 31.899 22.7464 31.8891C22.5315 31.2627 22.1373 30.2906 22.0446 30.0297C22.0426 30.0218 22.0407 30.0139 22.0387 30.004C22.1885 29.6168 22.295 29.2097 22.2812 28.7908C22.2772 28.7039 22.2713 28.615 22.2615 28.526C22.2851 28.449 22.3107 28.3739 22.3364 28.2988C22.5 27.9411 22.6676 27.5677 22.6124 27.1666C22.6005 26.8741 22.4625 26.2833 22.084 26.3604C22.0111 26.3703 21.952 26.4078 21.9086 26.473C21.8731 26.5204 21.8435 26.5738 21.814 26.6252C21.814 26.6232 21.814 26.6232 21.812 26.6212C21.7864 26.6588 21.7686 26.7002 21.7509 26.7417C21.7371 26.7753 21.7233 26.8109 21.7095 26.8445C21.7055 26.8524 21.7036 26.8603 21.6996 26.8702C21.6149 27.0796 21.538 27.2911 21.467 27.5064C21.4532 27.54 21.4374 27.5736 21.4217 27.6072C21.191 27.6507 20.9998 28.0222 20.9446 28.2454C20.8658 28.526 20.8382 28.8145 20.846 29.105C20.7948 29.3381 20.7455 29.5733 20.6942 29.8065C20.645 29.9803 20.6055 30.1582 20.5582 30.3301C20.4498 30.6798 20.4104 31.075 20.5543 31.4188C20.5839 31.5236 20.6607 31.648 20.7613 31.7113C20.7632 32.0314 20.783 32.3515 20.8362 32.6657C20.8697 33.0786 20.9821 33.4837 21.1792 33.8394C21.3192 34.0054 21.7272 34.857 22.1491 35.0269C22.2654 35.2285 22.4231 35.428 22.5867 35.5841C22.5907 35.598 22.5946 35.6118 22.5986 35.6256C22.7642 35.9892 23.1998 36.0604 23.5507 36.173C23.6572 36.256 23.7617 36.337 23.8642 36.418C23.9903 36.5267 24.083 36.4852 24.1421 36.3785C24.1461 36.3785 24.15 36.3805 24.1539 36.3824C24.6961 36.2639 24.6172 35.0388 24.3136 34.6969Z" fill="#3D3D3D"/>
<path d="M23.2315 33.5255C23.2019 33.478 23.1644 33.4385 23.123 33.4049C23.1447 33.0769 23.0659 32.7548 22.8648 32.6145C22.713 32.5454 22.5435 32.5968 22.3917 32.6481C22.23 32.7133 22.0585 32.7963 21.9678 32.9524C21.7372 33.3536 21.5341 34.0056 21.9718 34.3356C22.1512 34.4324 22.3601 34.466 22.5632 34.4463C22.6361 34.4818 22.7189 34.4897 22.8116 34.4542C22.8471 34.4225 22.8806 34.385 22.9101 34.3475C23.0146 34.2941 23.1112 34.223 23.1881 34.1301C23.3024 33.9562 23.3241 33.7112 23.2315 33.5255Z" fill="#C2C2C2"/>
<path d="M40.2934 7.53982C40.2126 7.49239 40.1259 7.52401 40.0588 7.57736C39.98 7.63466 39.907 7.69789 39.8361 7.76507C39.7336 7.84609 39.633 7.93106 39.5443 8.02788C39.4911 8.0832 39.4517 8.1247 39.4181 8.16027C39.3137 8.24918 39.2092 8.3381 39.1067 8.429C39.0672 8.45864 39.0258 8.49025 38.9706 8.52977C38.4916 8.93089 38.5843 8.88544 38.1683 9.22333C37.5671 9.77067 36.6445 10.7982 35.9998 11.5648C35.5169 12.0707 35.2034 12.4659 34.6554 12.9144C34.4523 13.1179 34.3163 13.3748 34.133 13.5941C33.8491 13.9597 33.5357 14.3035 33.2695 14.6829C33.5554 14.4142 33.8491 14.1652 34.1389 13.9063C34.131 13.9182 34.1212 13.9281 34.1152 13.938C34.0167 14.0921 33.8649 14.1988 33.7427 14.3332C33.6441 14.4399 33.5652 14.5663 33.4647 14.671C33.443 14.6849 33.4036 14.7362 33.441 14.7007C33.5731 14.6177 33.6756 14.4932 33.8018 14.4003C34.1842 14.1889 34.4464 13.8214 34.8013 13.5724C35.0457 13.4045 35.2251 13.1614 35.4538 12.9776C35.5898 12.8907 35.7416 12.8275 35.8618 12.7148C36.2325 12.4066 36.4316 11.9719 36.881 11.7526C37.3206 11.4858 37.642 11.0807 38.0027 10.7211C38.2196 10.5433 38.4601 10.4069 38.6809 10.235C38.8031 10.1599 39.014 9.93665 39.1323 9.80624C39.4201 9.61062 39.6882 9.39919 39.9169 9.13639C39.9228 9.13046 39.9267 9.12651 39.9327 9.12058C39.9681 9.08897 40.0017 9.05933 40.0332 9.03166C40.2461 8.87754 40.4807 8.72341 40.5083 8.44085C40.5674 8.14643 40.5576 7.74136 40.2934 7.53982Z" fill="#DBDBDB"/>
<path d="M38.2156 8.5254C38.056 8.63605 37.918 8.77437 37.7504 8.87712C37.2497 9.25452 36.7391 9.62403 36.2818 10.0548C36.1024 10.2168 35.5859 10.5784 35.3355 10.863C35.1206 11.0744 34.9314 11.3135 34.7165 11.5249C34.5076 11.6929 34.2887 11.847 34.1231 12.0604C33.8964 12.3271 33.65 12.5781 33.4194 12.8429C33.2025 13.1511 32.9384 13.4139 32.6328 13.6352C32.9443 13.5167 33.2853 13.2776 33.4805 13.0681C33.8353 12.8033 34.1547 12.4911 34.5056 12.2224C35.0792 11.9063 35.4538 11.3411 35.9545 10.9321C36.1852 10.7661 36.6327 10.2682 36.9126 9.95994C37.4074 9.48571 37.8687 8.97591 38.326 8.46809C38.4601 8.34558 38.2787 8.48588 38.2156 8.5254Z" fill="#DBDBDB"/>
<path d="M41.3046 8.10889C41.3007 8.10494 41.2947 8.10297 41.2888 8.09901C41.275 8.01602 41.2474 7.93699 41.2001 7.87178C41.1765 7.79274 41.1331 7.71963 41.0601 7.67418C41.0286 7.66233 40.9931 7.65245 40.9557 7.64257C40.7014 7.37977 40.2223 6.90554 40.0094 7.53784C39.9542 7.75915 39.9463 8.14644 40.2164 8.21955C40.2677 8.2235 40.3012 8.21757 40.3189 8.22547C40.3386 8.2314 40.3603 8.23733 40.382 8.24326C40.4983 8.51396 40.6363 8.80641 40.9281 8.89532C41.0759 8.94077 41.2731 8.91113 41.346 8.75898C41.4406 8.56336 41.4386 8.29068 41.3046 8.10889Z" fill="#262626"/>
<path d="M27.0123 32.9131C27.0438 31.9963 26.8447 31.0775 26.4997 30.2278C26.4741 30.1586 26.4465 30.0915 26.4189 30.0223C26.3262 29.7338 26.2218 29.4493 26.1094 29.1707C25.8768 28.6549 25.518 27.7322 25.0015 27.2382C24.9976 27.1512 24.9916 27.0762 24.9877 27.0386C24.9562 26.4122 24.6072 25.8906 24.3155 25.361C24.2583 25.2207 24.2228 25.1239 24.1972 25.0449C24.1814 24.7979 24.1321 24.3711 24.1341 24.4797C24.1203 24.296 24.0888 24.1122 24.0139 23.9423C23.9803 23.7901 23.9449 23.638 23.8995 23.4898C23.7044 22.8555 23.4087 22.6382 23.1346 22.6974C23.0459 22.6046 22.9375 22.5394 22.7956 22.5137C22.4072 22.5947 22.1963 22.9958 22.0938 23.476C22.0051 23.5866 21.9242 23.723 21.8513 23.8731C21.7153 23.9956 21.6325 24.1656 21.5655 24.3355C21.3506 24.8236 21.2678 25.3511 21.1613 25.8708C21.1377 26.0072 21.1042 26.1593 21.0667 26.3253C20.9642 26.5585 20.8735 26.7956 20.7947 27.0386C20.6705 27.2461 20.564 27.5267 20.4753 27.825C20.3787 27.8606 20.288 27.9416 20.2151 28.078C19.9352 28.4969 19.9509 29.0403 19.878 29.5224C19.7912 30.1685 19.738 30.8423 19.8031 31.4964C19.7045 31.9133 19.6138 32.3381 19.5547 33.0435C19.5685 33.496 19.6316 33.9782 19.9194 34.3437C20.1382 34.5868 20.3629 34.5927 20.5443 34.4781C20.6054 34.98 20.6389 35.5076 20.9445 35.9245C21.0588 36.043 21.1672 36.0964 21.2678 36.1023C21.2974 36.1735 21.3328 36.2426 21.3821 36.3058C21.6778 36.7504 21.9735 36.622 22.1766 36.3296C22.1943 36.3533 22.2101 36.379 22.2278 36.4027C22.2377 36.4185 22.2475 36.4343 22.2574 36.4501C22.4072 36.7741 22.6241 37.0567 22.9099 37.2543C23.0992 37.444 23.314 37.6021 23.5743 37.6475C23.6255 37.6258 23.6768 37.612 23.7359 37.6139C23.7398 37.612 23.7458 37.612 23.7497 37.61C23.7714 37.6021 23.7753 37.6021 23.7655 37.606C23.7832 37.5981 23.799 37.5922 23.8167 37.5843C23.8837 37.5626 23.9784 37.5705 24.0493 37.5764C24.0651 37.5784 24.0809 37.5803 24.0986 37.5843C24.3648 37.5586 24.5698 37.4282 24.7235 37.2306C24.7433 37.2286 24.761 37.2286 24.7807 37.2266C25.2558 37.1516 25.6087 36.7702 25.8452 36.3711C25.8866 36.292 25.9201 36.211 25.9556 36.13C25.9931 36.0984 26.0305 36.0668 26.07 36.0332C25.863 36.211 26.2829 35.885 26.3617 35.7427C26.89 34.9721 27.1108 33.9189 27.0123 32.9131Z" fill="#858585"/>
<path d="M24.4399 36.5769C24.2152 36.6263 23.9826 36.6579 23.75 36.6579C23.75 36.5907 23.7401 36.5215 23.7164 36.4583C23.7026 36.4129 23.7322 36.5571 23.7243 36.6006C23.7243 36.6223 23.7204 36.6401 23.7184 36.6579C23.6948 36.6579 23.6731 36.6559 23.6494 36.6559C23.6001 36.5848 23.5508 36.5156 23.4779 36.4662C23.4582 36.4465 23.4365 36.4366 23.4129 36.4307C23.401 36.2726 23.3577 36.1185 23.2729 35.9861C23.125 35.7806 22.8983 35.6482 22.6933 35.498C22.6164 35.4229 22.5415 35.3459 22.4646 35.2708C22.4903 35.0751 22.4903 34.8756 22.4765 34.6918C22.4804 34.4646 22.4272 34.2215 22.3385 34.018C22.1492 33.2474 22.1827 33.5793 22.0073 33.0478C21.9284 32.8799 21.8299 32.7198 21.7234 32.5677C21.6544 32.2041 21.5499 31.8445 21.3824 31.5145C21.3942 31.4552 21.406 31.3959 21.408 31.3603C21.4376 30.4534 21.4218 30.728 21.4908 29.8685C21.4809 29.4002 21.548 29.4002 21.5992 28.7363C21.6051 28.6454 21.6091 28.5525 21.615 28.4616C21.6248 28.428 21.6347 28.3944 21.6446 28.3608C21.7234 28.0664 21.8082 27.7463 21.8456 27.4262C21.956 27.1555 22.0585 26.9698 22.1177 26.6931C22.3503 26.2545 22.5533 25.802 22.715 25.3337C22.6815 25.4226 22.646 25.5115 22.6125 25.6004C22.6657 25.4661 22.713 25.3317 22.7623 25.1954C22.786 25.1381 22.8096 25.0788 22.8353 25.0235C22.9141 24.9266 22.9989 24.8377 23.0482 24.7211C23.0915 24.6401 23.127 24.5354 23.1566 24.4228C23.2827 24.1837 23.3734 23.9248 23.401 23.6541C23.4405 23.1226 23.4345 22.4685 23.0166 22.0852C22.853 21.9014 22.5474 21.9667 22.4154 22.1623C22.4035 22.1801 22.3937 22.1978 22.3818 22.2136C22.3365 22.2789 22.2931 22.346 22.2517 22.4132C22.1295 22.595 22.0408 22.8242 21.9974 23.01C21.9324 23.1127 21.8693 23.2174 21.8023 23.3182C21.7609 23.3874 21.7254 23.4565 21.6879 23.5277C21.41 23.9485 21.1892 24.4208 21.0689 24.9128C21.0709 24.9069 21.0709 24.9009 21.0729 24.897C21.0709 24.9049 21.0689 24.9148 21.067 24.9227C21.061 24.9503 21.0551 24.978 21.0472 25.0037C21.0413 25.0254 21.0374 25.0472 21.0315 25.0669C20.9408 25.2408 20.858 25.4167 20.7949 25.6044C20.7969 25.5965 20.8008 25.5906 20.8028 25.5827C20.7989 25.5925 20.7949 25.6024 20.791 25.6123C20.787 25.6222 20.7831 25.6301 20.7791 25.64C20.6825 25.9028 20.7082 25.8198 20.7693 25.6656C20.7535 25.7052 20.7377 25.7447 20.722 25.7842C20.3277 26.701 20.3395 26.4837 20.1641 27.5191C19.9847 28.1099 19.825 28.7086 19.8408 29.331C19.8309 29.4042 19.823 29.4773 19.8132 29.5504C19.8014 29.6353 19.7974 29.6709 19.7974 29.6768C19.758 29.8922 19.7304 30.1076 19.7245 30.3289C19.7107 30.5976 19.7363 30.8624 19.7757 31.1252C19.76 31.4651 19.7718 31.8089 19.7895 32.1468C19.7954 32.4333 19.827 32.7139 19.8763 32.9905C19.892 33.2454 19.9394 33.4885 20.0143 33.7216C20.0833 34.0397 20.2311 34.3302 20.3947 34.6108C20.4854 34.8084 20.58 35.004 20.6845 35.1957C20.8718 35.5474 21.0157 35.9406 21.2877 36.237C21.4001 36.3496 21.5361 36.4484 21.686 36.5038C21.6879 36.5038 21.6899 36.5057 21.6919 36.5057C21.7392 36.5314 21.7944 36.5532 21.8476 36.5472C21.8752 36.5413 21.9008 36.5314 21.9265 36.5215C22.1295 36.6935 22.3582 36.8298 22.5652 36.9958C22.7584 37.1064 22.8707 37.389 23.1053 37.1894C23.2157 37.142 23.3025 37.0412 23.336 36.9246C23.3439 36.9029 23.3498 36.8792 23.3577 36.8555C23.3695 36.8594 23.3793 36.8634 23.3912 36.8654C23.7618 36.8752 24.1146 36.7231 24.4399 36.5769Z" fill="#4A4A4A"/>
<path d="M20.803 25.6104C20.7951 25.6321 20.7852 25.6538 20.7773 25.6736C20.7852 25.6558 20.7911 25.638 20.799 25.6202C20.799 25.6163 20.801 25.6123 20.803 25.6104Z" fill="#4A4A4A"/>
<path d="M21.6055 28.7359C21.6114 28.6628 21.6173 28.5818 21.6212 28.4909C21.6272 28.402 21.6212 28.483 21.6055 28.7359Z" fill="#4A4A4A"/>
<path d="M26.1884 32.2099C26.151 31.9728 26.1372 31.7238 25.9893 31.5263C25.8375 31.1488 25.5517 31.2259 25.4571 31.5875C25.4137 31.7495 25.3999 31.9175 25.4235 32.0815C25.4275 32.1013 25.4314 32.121 25.4354 32.1388C25.4334 32.1329 25.4334 32.1289 25.4314 32.123C25.4354 32.1487 25.4373 32.1763 25.4393 32.202C25.4393 32.3048 25.4275 32.4391 25.4097 32.5656C25.3467 32.6446 25.2816 32.7237 25.2027 32.7849C24.9465 32.9252 24.8203 33.0813 24.6488 33.3066C24.4615 33.4864 24.3748 33.7354 24.3156 33.9804C24.294 34.0575 24.292 34.0476 24.3196 33.9764C24.2467 34.1385 24.221 34.3183 24.2289 34.4941C24.2526 34.832 24.2447 35.2154 24.5069 35.4643C24.8834 35.9168 25.1042 35.7311 25.3683 35.3043C25.4038 35.2648 25.5536 34.9901 25.5872 34.9289C25.8158 34.6819 26.0307 34.4131 26.0642 34.0673C26.0721 34.0397 26.0879 33.9784 26.1037 33.9349C26.1037 33.933 26.1056 33.929 26.1056 33.927C26.1194 33.8935 26.1372 33.8441 26.145 33.8124C26.2042 33.5872 26.1963 33.352 26.2416 33.1228C26.2416 33.1505 26.3008 32.7948 26.287 32.7099C26.3185 32.6051 26.1864 32.1566 26.1884 32.2099Z" fill="#BFBFBF"/>
<path d="M25.526 29.0875C25.3565 28.5066 25.2204 28.1153 24.9799 27.5779C24.905 27.2815 24.7631 27.0207 24.6133 26.7559C24.5049 26.3884 24.2604 26.086 24.1441 25.7225C24.0712 25.4952 23.8839 25.3371 23.7774 25.1297C23.6552 24.7878 23.4896 24.4657 23.3457 24.1338C23.4561 24.612 23.5507 24.9775 23.6532 25.4162C23.7183 25.6118 23.8563 25.7758 23.9134 25.9754C23.9943 26.2935 24.1145 26.5939 24.2663 26.8823C24.3373 27.1293 24.4418 27.3585 24.5955 27.566C24.9208 28.4117 25.4728 29.0678 25.6325 29.9451C25.6364 29.9806 25.6344 29.9708 25.6443 30.0004C25.6423 29.6941 25.6127 29.3819 25.526 29.0875Z" fill="#BFBFBF"/>
<path d="M24.5182 30.1057C24.5024 29.8508 24.4807 29.5959 24.3979 29.3528C24.3191 29.1197 24.3644 28.9062 24.1298 28.6355C23.98 28.5526 23.8795 28.2878 23.6843 28.3629C23.6528 28.3767 23.6252 28.3965 23.5956 28.4142C23.5936 28.4103 23.5936 28.4044 23.5917 28.4004C23.5917 28.4063 23.5917 28.4103 23.5936 28.4162C23.361 28.5723 23.2092 28.8588 23.1599 29.1295C23.1028 29.4239 23.1737 29.6986 23.2822 29.9634C23.2723 30.0701 23.2743 30.1768 23.294 30.2894C23.3925 30.6886 23.6843 31.0166 24.0786 31.1332C24.3112 31.1727 24.4334 30.8743 24.5064 30.6965C24.5754 30.5048 24.534 30.3013 24.5182 30.1057Z" fill="#BFBFBF"/>
<path d="M26.0754 36.4776C26.034 36.3986 25.8309 36.4875 25.7659 36.5547C25.7403 36.5705 25.7127 36.5843 25.687 36.5982C25.7383 36.5429 25.7915 36.4717 25.8506 36.4243C25.8546 36.4203 25.8585 36.4184 25.8625 36.4144C25.9236 36.369 25.9926 36.3532 26.0695 36.4124C26.0379 36.369 25.9946 36.3512 25.9512 36.3453C25.9591 36.3393 25.9689 36.3314 25.9768 36.3255C25.963 36.3314 25.9492 36.3374 25.9354 36.3433C25.9157 36.3433 25.896 36.3492 25.8763 36.3532C25.9315 36.3077 25.9867 36.2623 26.0399 36.2148C25.7127 36.3947 25.3677 36.5527 25.0739 36.7879C25.0286 36.8195 24.9793 36.863 24.9281 36.9084C24.6659 36.9953 24.4116 37.1001 24.1612 37.2147C23.9128 37.2246 23.6664 37.2522 23.422 37.2858C23.3884 37.2937 23.351 37.2977 23.3175 37.3056C23.3135 37.2977 23.3096 37.2878 23.3056 37.2799C23.2899 37.2661 23.2721 37.2581 23.2524 37.2522H23.2504C23.1874 37.2325 23.1105 37.2423 23.0474 37.2265C22.8049 37.2048 22.5605 37.2107 22.316 37.2186C22.2569 37.2107 22.2175 37.2147 22.1938 37.2285C22.1899 37.2285 22.1859 37.2265 22.184 37.2265C22.1583 37.2206 22.1366 37.2305 22.1189 37.2463C22.0992 37.2483 22.0795 37.2483 22.0598 37.2522C21.9927 37.3194 21.9986 37.4399 22.0322 37.5249C22.0479 37.5466 22.0696 37.5605 22.0913 37.5723V37.5743C22.0952 37.5743 22.0972 37.5763 22.1012 37.5763C22.1288 37.5881 22.1583 37.5941 22.1918 37.596C22.2569 37.6099 22.3239 37.6257 22.389 37.6375C22.4954 37.6533 22.6019 37.6632 22.7103 37.6691C22.7202 37.6731 22.73 37.6751 22.7399 37.679C22.734 37.7936 22.7616 37.9102 22.8128 38.0011C22.8365 38.0564 22.8936 38.0762 22.9488 38.09C22.9626 38.094 22.9784 38.096 22.9922 38.0999C22.9922 38.1078 22.9922 38.1177 22.9922 38.1276C23.008 38.3607 23.0789 38.7223 23.353 38.7619C23.7847 38.748 24.2144 38.6729 24.6442 38.6176C24.796 38.5978 24.9478 38.5682 25.0996 38.5465C25.1351 38.5445 25.1725 38.5445 25.208 38.5405C25.7146 38.5247 25.6949 37.6336 25.4584 37.3332C25.3992 37.2483 25.2967 37.2423 25.2021 37.2384C25.137 37.2364 25.07 37.2384 25.0049 37.2384C25.3578 37.0606 25.7028 36.8649 26.0438 36.6654C25.9551 36.6911 25.8684 36.7187 25.7797 36.7484C25.7895 36.7385 25.8033 36.7306 25.8132 36.7207C25.825 36.7088 25.8368 36.699 25.8487 36.6871C25.9137 36.6594 25.9748 36.6278 26.036 36.5942C26.0399 36.5942 26.0438 36.5923 26.0478 36.5923C26.0478 36.5903 26.0478 36.5903 26.0478 36.5883C26.0557 36.5843 26.0616 36.5804 26.0695 36.5764C26.0754 36.5587 26.0774 36.5448 26.0774 36.531C26.1365 36.4954 26.1937 36.4599 26.2528 36.4263C26.1956 36.4401 26.1365 36.4599 26.0754 36.4776Z" fill="#B1E3E9"/>
<path d="M23.3791 21.2209C23.3692 21.2268 23.3613 21.2347 23.3515 21.2407C23.3633 21.2189 23.3751 21.1992 23.3869 21.1774C23.3929 21.1735 23.3988 21.1695 23.4067 21.1675C23.4067 21.1577 23.4047 21.1557 23.4027 21.1478C23.4086 21.1359 23.4165 21.1241 23.4224 21.1122C23.4205 21.1023 23.4126 21.0905 23.4007 21.0944C23.3633 21.1102 23.3377 21.1438 23.314 21.1814C23.2608 21.2446 23.1957 21.3375 23.1622 21.3612C23.1445 21.3829 23.1248 21.4027 23.107 21.4244C22.9828 21.5252 22.8626 21.6319 22.7463 21.7445C22.7423 21.7346 22.7423 21.7248 22.7364 21.7169C22.7226 21.7188 22.7108 21.7248 22.6989 21.7307C22.7679 21.5864 22.835 21.4422 22.9 21.2999C22.9059 21.292 22.9138 21.2861 22.9197 21.2782C22.9197 21.2723 22.9178 21.2663 22.9178 21.2624C22.9237 21.2486 22.9316 21.2327 22.9375 21.2189C22.9355 21.1399 22.9079 21.1438 22.8685 21.1873C22.8212 21.2051 22.7541 21.3493 22.697 21.4047C22.4308 21.79 22.212 22.1239 21.9952 22.4519C21.869 22.5962 21.7507 22.7463 21.6384 22.9024C21.2855 23.2502 20.909 23.5762 20.6192 23.9813C20.8045 23.841 21.0036 23.7244 21.2066 23.6078C21.2027 23.6158 21.1988 23.6237 21.1948 23.6316C21.045 23.8548 20.9031 24.0801 20.767 24.3113C20.4694 24.7697 20.2052 25.2499 20.0002 25.7577C19.9371 25.9296 20.0317 25.7261 20.081 25.6628C20.1027 25.6293 20.1283 25.5996 20.152 25.566C20.085 25.7399 20.0219 25.9158 19.9686 26.0976C19.9016 26.3208 19.878 26.554 19.8543 26.7852C19.5547 27.3582 19.1446 28.2296 19.1348 28.4904C19.2984 28.1802 19.4738 27.8739 19.6473 27.5696C19.6414 27.6032 19.6375 27.6348 19.6355 27.6605C19.6355 27.7435 19.7538 27.7732 19.7853 27.6902C19.8306 27.6151 19.8681 27.5361 19.8996 27.457C19.8642 27.619 19.8366 27.7751 19.8188 27.9253C20.1973 26.9413 20.7099 25.9948 21.2264 25.0523C21.4807 24.7183 21.7133 24.3686 21.9262 24.003C22.0918 23.7066 22.2633 23.4063 22.4289 23.106C22.6437 22.776 22.8448 22.4401 23.0183 22.0943C23.2036 21.8828 23.3968 21.6773 23.592 21.4718C23.6472 21.4343 23.6787 21.4007 23.6964 21.3671C23.7083 21.3612 23.7201 21.3553 23.7319 21.3493C23.7576 21.3335 23.7714 21.3039 23.7792 21.2762C23.8384 20.8712 23.5565 21.0925 23.3791 21.2209Z" fill="#B1E3E9"/>
<path d="M11.2056 21.668C13.4904 20.0062 15.8323 18.2891 17.5218 15.9851C17.9929 15.341 18.403 14.6553 18.7401 13.9301C18.7125 13.9894 18.3438 14.0704 18.2748 14.0941C18.1664 14.1337 18.056 14.1732 17.9476 14.2147C17.9239 14.2246 17.8234 14.2463 17.8135 14.268C16.6051 16.8664 14.4623 18.8345 12.2307 20.5535C11.588 21.0475 10.9336 21.5277 10.2791 22.0039C10.3934 21.9209 10.6103 21.8873 10.7443 21.8399C10.8843 21.7885 11.0834 21.7569 11.2056 21.668Z" fill="black"/>
<path d="M18.6139 14.021C18.0245 13.0093 17.3582 11.9008 16.2956 11.3278C15.7574 11.0373 15.1424 10.9287 14.5372 11.0235C14.2572 11.067 13.9911 11.1579 13.725 11.2527C13.3741 11.3792 13.0153 11.4977 12.6782 11.6578C11.5368 12.2032 10.6733 13.2287 10.08 14.3273C9.48463 15.4299 9.14556 16.6688 9.07262 17.9216C8.99179 19.3265 9.25398 20.7432 9.86115 22.0138C9.8789 22.0493 10.7778 21.6542 10.7877 21.6759C9.77836 19.5616 9.73302 17.0482 10.5945 14.8747C11.0223 13.7938 11.6768 12.7663 12.5619 12.0075C12.7807 11.8198 13.0153 11.6499 13.2617 11.5017C13.4115 11.4128 13.5673 11.3357 13.727 11.2626C14.1271 11.0808 12.7709 11.5629 13.3169 11.4207C13.4017 11.3989 13.4864 11.3812 13.5732 11.3654C14.1429 11.2685 14.7264 11.3476 15.2449 11.6005C16.3745 12.1478 17.0763 13.3077 17.6854 14.355C17.7209 14.4162 18.5883 13.9776 18.6139 14.021Z" fill="black"/>
<path d="M21.6419 12.3118C20.6286 10.7923 19.2191 9.47634 17.4646 8.88948C16.544 8.58123 15.5485 8.4765 14.5884 8.63458C14.1252 8.70967 13.6895 8.86182 13.2499 9.02187C12.7866 9.18982 12.3293 9.35976 11.9015 9.60477C11.0794 10.0731 10.3757 10.7232 9.71922 11.397C9.06276 12.0727 8.44967 12.794 7.91544 13.5705C6.89232 15.0604 6.14912 16.7953 6.10378 18.623C6.05844 20.4824 6.70701 22.3971 8.15003 23.6202C8.18552 23.6499 8.56401 23.474 8.61527 23.4562C8.66455 23.4384 9.04305 23.2547 9.07656 23.2823C7.86222 22.2529 7.20379 20.7274 7.05988 19.1605C6.90217 17.4632 7.36741 15.7915 8.17763 14.3076C9.02334 12.7584 10.2219 11.3515 11.5486 10.1936C11.8936 9.89326 12.2583 9.61268 12.6486 9.37161C12.8241 9.26293 13.0054 9.16216 13.1927 9.07324C13.2617 9.03965 13.3327 9.01001 13.4037 8.9784C13.7151 8.83613 12.9384 9.13647 12.9838 9.13054C13.1415 9.10881 13.2992 9.04163 13.4549 9.01001C14.3519 8.82625 15.2902 8.8796 16.1714 9.11671C18.0876 9.63441 19.6311 11.0235 20.7134 12.6497C20.7627 12.7209 21.6025 12.2545 21.6419 12.3118Z" fill="black"/>
<path d="M8.24071 23.6716C8.80846 24.952 8.92674 26.3569 8.90308 27.7441C8.87746 29.23 8.74538 30.7139 8.69215 32.1979C8.58175 35.3001 8.61921 38.4063 8.80057 41.5026C8.87943 42.8344 8.97405 44.2492 9.80004 45.3558C10.4802 46.2706 11.5151 46.8555 12.5915 47.1756C13.9399 47.5767 15.3651 47.5412 16.753 47.4285C18.2906 47.304 19.8125 47.1578 21.358 47.1578C24.8532 47.1559 28.3484 47.2606 31.8436 47.3179C31.9796 47.3199 32.1807 47.1993 32.3088 47.1539C32.4172 47.1144 32.5276 47.0748 32.636 47.0333C32.6715 47.0195 32.7346 46.98 32.7701 46.98C29.6278 46.9286 26.4835 46.8693 23.3412 46.8278C21.8311 46.8081 20.3349 46.8476 18.8307 46.9879C17.3562 47.1262 15.8481 47.2922 14.3755 47.0393C13.24 46.8437 12.1065 46.3912 11.2509 45.5988C10.2909 44.7096 9.93212 43.4944 9.80596 42.2239C9.65416 40.7044 9.61868 39.1651 9.58517 37.6396C9.54968 36.0727 9.54968 34.5038 9.58911 32.9369C9.63051 31.2672 9.7547 29.6015 9.81779 27.9318C9.87693 26.3727 9.8099 24.7781 9.16921 23.3317C9.15542 23.3061 8.24663 23.6854 8.24071 23.6716Z" fill="black"/>
<path d="M21.1707 12.5944C23.4871 12.4719 25.8113 12.5173 28.1197 12.7347C28.2478 12.7465 28.376 12.7604 28.5041 12.7722C28.5692 12.7782 28.6323 12.7861 28.6953 12.792C28.784 12.8019 28.859 12.7801 28.8787 12.8513C28.9004 12.9244 28.8314 13.1279 28.8215 13.205C28.8057 13.3374 28.7959 13.4697 28.7919 13.6021C28.7762 14.0665 28.8294 14.5328 28.9457 14.9814C29.1842 15.8982 29.6928 16.7301 30.4084 17.3485C31.195 18.0263 32.1905 18.4314 33.2235 18.5005C33.3516 18.5084 33.5685 18.38 33.6887 18.3365C33.7972 18.297 33.9076 18.2575 34.016 18.216C34.0495 18.2041 34.1165 18.1607 34.15 18.1626C32.2654 18.0362 30.5878 16.7834 29.9747 14.9873C29.821 14.5348 29.7323 14.0606 29.7165 13.5824C29.7086 13.3709 29.7165 13.1575 29.7382 12.9461C29.75 12.8276 29.7677 12.709 29.7894 12.5924C29.8151 12.4561 29.8348 12.5173 29.7165 12.464C29.6514 12.4343 29.545 12.4462 29.476 12.4383C28.3228 12.3178 27.1656 12.2407 26.0064 12.2071C24.7034 12.1676 23.3983 12.1854 22.0953 12.2545C21.9514 12.2624 21.7661 12.3691 21.6301 12.4185C21.498 12.4699 21.3146 12.5865 21.1707 12.5944Z" fill="black"/>
<path d="M33.1111 18.8266C33.7499 22.6461 33.6454 26.5466 33.6572 30.4037C33.669 34.3437 33.7045 38.2838 33.6927 42.2239C33.6868 44.0635 33.4857 46.2034 31.8475 47.3534C31.9638 47.2724 32.1767 47.2388 32.3127 47.1894C32.4547 47.1381 32.6498 47.1045 32.774 47.0156C34.1796 46.0296 34.5522 44.2492 34.6074 42.6329C34.6764 40.6866 34.6113 38.7264 34.6054 36.7781C34.5936 32.8539 34.6251 28.9257 34.5542 25.0014C34.5147 22.8219 34.3984 20.6405 34.0377 18.4887C34.0456 18.54 33.1013 18.7594 33.1111 18.8266Z" fill="black"/>
<path d="M34.1973 18.1903C36.1845 15.5741 38.2603 13.0291 40.4268 10.5611C41.0379 9.86362 41.6569 9.17402 42.2818 8.49033C42.268 8.50614 42.1478 8.53578 42.1458 8.53578C42.0354 8.5753 41.927 8.61482 41.8185 8.65434C41.7101 8.69386 41.5997 8.73338 41.4913 8.77487C41.4578 8.7887 41.3809 8.80056 41.3573 8.82822C39.1434 11.2527 37.0124 13.7543 34.976 16.329C34.4004 17.0561 33.8326 17.7892 33.2728 18.5282C33.2826 18.5163 33.4128 18.4808 33.4088 18.4827C33.5192 18.4432 33.6276 18.4037 33.7361 18.3642C33.8445 18.3247 33.9549 18.2852 34.0633 18.2437C34.0948 18.2318 34.1776 18.216 34.1973 18.1903Z" fill="black"/>
<path d="M30.2014 12.5331C30.2133 12.302 30.3572 12.1518 30.5582 12.0569C30.5129 12.0747 30.4695 12.0925 30.4242 12.1103C29.7855 12.3 29.5903 12.3751 29.8387 12.3395C29.8683 12.3355 29.8998 12.3316 29.9294 12.3316C29.9905 12.3316 30.0516 12.3375 30.1108 12.3514C30.2251 12.379 30.3335 12.4363 30.4301 12.5035C30.6568 12.6616 30.8264 12.8908 30.9821 13.116C31.4 13.7128 31.8081 14.3174 32.2201 14.9181C32.569 15.4259 32.9022 16.0602 33.4463 16.3882C34.0613 16.7597 34.637 16.4534 35.2422 16.2242C35.2205 16.2321 35.3782 16.1748 35.3762 16.1709C35.3762 16.1689 35.2185 16.2242 35.2402 16.2163C35.0214 16.2934 34.8025 16.3724 34.5857 16.4554C34.562 16.4653 34.5364 16.4732 34.5128 16.4831C34.7769 16.3882 35.0411 16.2934 35.3052 16.1985C34.5581 16.406 33.9943 15.7974 33.604 15.2442C33.121 14.5545 32.6498 13.857 32.1747 13.1635C31.8514 12.6912 31.4237 11.889 30.7357 12.0056C30.3848 12.0648 30.024 12.2348 29.6968 12.3691C29.4701 12.462 29.2907 12.6082 29.2769 12.871C29.2789 12.8453 29.7007 12.7228 29.7421 12.707C29.7875 12.6912 30.1995 12.5786 30.2014 12.5331Z" fill="black"/>
<path d="M32.3364 12.8414C34.8656 10.9247 37.3949 9.00804 39.9221 7.09136C39.6126 7.20399 39.3051 7.31662 38.9956 7.42925C39.4313 7.9509 39.8019 8.68595 40.4938 8.90331C40.7698 8.99025 41.0477 8.98432 41.3198 8.89343C41.5504 8.81637 41.7791 8.72943 42.0078 8.64446C42.1438 8.59308 42.2877 8.54961 42.406 8.46465C42.9836 8.0576 42.6504 7.23165 42.1044 6.9807C41.3474 6.63096 40.3992 7.121 39.6994 7.39763C39.6402 7.42134 39.7782 7.37392 39.7467 7.3838C39.8393 7.35416 39.932 7.31859 40.0246 7.285C40.2139 7.21584 40.4051 7.14866 40.5924 7.07357C39.9083 7.30674 39.7151 7.37787 40.0108 7.29093C40.0621 7.27512 40.1133 7.26129 40.1666 7.24943C40.2356 7.23363 40.3046 7.22177 40.3755 7.21387C40.5273 7.19608 40.6811 7.19411 40.8309 7.21584C41.097 7.25536 41.3415 7.37194 41.5228 7.57349C41.8264 7.9094 41.9073 8.45872 41.5248 8.76894C41.4893 8.79858 41.4479 8.81834 41.4105 8.84601C41.9664 8.43698 42.3074 8.58518 41.9565 8.62272C41.858 8.6326 41.7555 8.63063 41.6569 8.6168C41.4302 8.58716 41.2173 8.50021 41.03 8.36585C40.5687 8.03389 40.2789 7.51816 39.9201 7.08938C39.8906 7.05381 39.0626 7.37392 38.9936 7.42727C36.4644 9.34395 33.9352 11.2606 31.4079 13.1773C31.5183 13.0943 31.743 13.0607 31.8731 13.0133C32.0131 12.9659 32.2181 12.9323 32.3364 12.8414Z" fill="black"/>
<path d="M33.9805 16.6827C34.0554 16.7538 34.152 16.7953 34.2545 16.8052C34.3038 16.8091 34.3551 16.8071 34.4024 16.7953C34.497 16.7735 34.5877 16.734 34.6784 16.7024C34.8361 16.6451 34.9957 16.5878 35.1534 16.5285C35.2303 16.4989 35.3092 16.4732 35.3861 16.4396C35.4058 16.4317 35.4077 16.4297 35.3939 16.4357C35.3742 16.4416 35.3565 16.4475 35.3388 16.4534C35.2461 16.4851 35.1534 16.5186 35.0608 16.5522C34.9425 16.5957 34.8223 16.6392 34.704 16.6827C34.633 16.7083 34.562 16.732 34.493 16.7637C34.4871 16.7656 34.4792 16.7696 34.4733 16.7716C34.5443 16.7439 34.6153 16.7182 34.6843 16.6906C34.6823 16.6906 34.6803 16.6925 34.6784 16.6925C34.8656 16.6253 35.0529 16.5562 35.2402 16.489C35.3486 16.4534 35.3821 16.4416 35.3427 16.4534C35.3388 16.4554 35.3348 16.4554 35.3328 16.4574C35.3388 16.4554 35.3447 16.4534 35.3506 16.4534C35.1968 16.4949 35.0273 16.4554 34.911 16.3467C34.9051 16.3408 34.7572 16.3981 34.7749 16.3922C34.6646 16.4317 34.5561 16.4712 34.4477 16.5107C34.3393 16.5503 34.2289 16.5898 34.1205 16.6313C34.0968 16.6412 34.0731 16.6491 34.0475 16.6589C34.0199 16.6649 34.0002 16.6728 33.9805 16.6827Z" fill="black"/>
<path d="M33.186 18.5183C33.0717 18.8305 33.0106 19.1585 33.0047 19.4905C33.0106 19.4885 33.0165 19.4865 33.0224 19.4865C33.1821 19.4371 33.3378 19.3759 33.4956 19.3186C33.6473 19.2632 33.8031 19.2119 33.9529 19.1467C34.0061 19.123 34.0534 19.0913 34.0909 19.0479C34.1638 18.9629 34.1954 18.8463 34.1678 18.7357C34.1678 18.7376 33.738 18.8878 33.7025 18.8997C33.5941 18.9392 33.4837 18.9787 33.3753 19.0202C33.3615 19.0261 33.2393 19.0676 33.2412 19.0736C33.2807 19.2356 33.1939 19.4075 33.0441 19.4767C33.05 19.4747 33.054 19.4727 33.0599 19.4687C33.0559 19.4707 33.052 19.4727 33.0481 19.4727C33.2748 19.3897 33.5015 19.3047 33.7282 19.2218C33.7913 19.2 33.8543 19.1763 33.9174 19.1546C33.9233 19.1526 33.9292 19.1506 33.9352 19.1506C33.9411 18.8187 34.0022 18.4907 34.1165 18.1784C34.1145 18.1844 33.9647 18.2298 33.9805 18.2239C33.8701 18.2634 33.7617 18.3029 33.6533 18.3425C33.5448 18.382 33.4344 18.4215 33.326 18.463C33.3024 18.4729 33.2787 18.4808 33.2531 18.4906C33.2274 18.5005 33.2058 18.5084 33.186 18.5183Z" fill="black"/>
<path d="M14.0207 24.792C14.0187 27.0189 14.0503 29.2458 14.1173 31.4727C14.1823 33.6087 14.2218 35.7645 14.4169 37.8945C14.4958 38.7561 14.6476 39.6413 15.0852 40.4001C15.515 41.147 16.2069 41.6686 17.0092 41.9611C18.9135 42.6566 20.9223 42.052 22.8464 41.7911C25.2573 41.4651 27.6998 41.6133 30.1186 41.7595C30.2468 41.7674 30.4617 41.639 30.5839 41.5955C30.6923 41.556 30.8027 41.5165 30.9111 41.475C30.9446 41.4631 31.0117 41.4196 31.0452 41.4216C28.8787 41.2892 26.7003 41.1588 24.5338 41.3663C22.5586 41.556 20.532 42.2575 18.5449 41.803C17.7426 41.6192 16.9659 41.2458 16.4139 40.6233C15.8245 39.9594 15.5564 39.09 15.4243 38.2265C15.2745 37.2464 15.2567 36.2466 15.2074 35.2586C15.1522 34.1462 15.1069 33.0337 15.0675 31.9212C14.9827 29.4335 14.9433 26.9438 14.9472 24.4561C14.9472 24.4758 14.5214 24.6062 14.482 24.6201C14.4386 24.6339 14.0207 24.7525 14.0207 24.792Z" fill="black"/>
<path d="M15.2685 24.6023C17.1098 22.7745 18.6238 20.6405 19.7474 18.299C19.8637 18.0559 19.98 17.8089 20.1338 17.5857C20.2186 17.4612 20.3171 17.3426 20.4295 17.2438C20.467 17.2102 20.5064 17.1786 20.5478 17.151C20.5912 17.1213 20.6365 17.0936 20.6818 17.068C20.1023 17.2497 19.9465 17.309 20.2146 17.2458C20.8928 17.143 21.5867 17.149 22.2727 17.1233C23.0041 17.0936 23.7374 17.066 24.4688 17.0363C24.8276 17.0225 25.1844 17.0087 25.5432 16.9949C25.691 16.9889 25.8862 16.9514 26.0321 16.9751C26.0656 16.9731 26.0971 16.9731 26.1306 16.9711C26.176 17.0186 26.2193 17.068 26.2647 17.1154C26.3435 17.2003 26.4204 17.2833 26.4993 17.3683C27.5027 18.4531 28.5061 19.5379 29.5075 20.6227C29.7185 20.8519 29.959 21.0732 30.1285 21.336C30.3138 21.6245 30.3493 21.9585 30.3887 22.2924C30.4774 23.0354 30.5563 23.7783 30.6292 24.5232C30.9151 27.4358 31.0905 30.3582 31.1536 33.2827C31.1891 34.9069 31.1891 36.5331 31.1556 38.1593C31.1418 38.8015 31.1713 39.4674 31.0097 40.0958C30.9446 40.3447 30.852 40.5957 30.7022 40.8071C30.6391 40.894 30.5681 40.977 30.4833 41.0442C30.4419 41.0778 30.3966 41.1015 30.3532 41.1312C30.9979 40.6866 31.262 40.8861 30.8618 40.896C30.7199 40.9 30.5287 41.0126 30.3966 41.06C30.2645 41.1074 30.0753 41.23 29.9353 41.2339C30.2093 41.228 30.4676 41.1035 30.7219 41.0106C30.988 40.9138 31.2778 40.8407 31.4868 40.6372C31.8278 40.3032 31.9579 39.7816 32.019 39.3232C32.1097 38.6375 32.0801 37.9281 32.092 37.2385C32.1038 36.458 32.1077 35.6775 32.1058 34.897C32.092 31.777 31.95 28.655 31.6799 25.5468C31.6129 24.7702 31.538 23.9937 31.4552 23.2171C31.4138 22.8299 31.3704 22.4406 31.3251 22.0533C31.2857 21.7213 31.264 21.3696 31.0964 21.0712C30.923 20.761 30.6371 20.5081 30.3986 20.2493C30.1305 19.9608 29.8643 19.6703 29.5962 19.3818C29.062 18.8029 28.5258 18.2239 27.9916 17.6449C27.7235 17.3565 27.4573 17.066 27.1892 16.7775C27.1675 16.7538 27.1439 16.7301 27.1222 16.7044C27.0887 16.6313 27.0335 16.6076 26.9586 16.6352C26.8699 16.6214 26.7555 16.6431 26.6649 16.6471C26.4697 16.655 26.2745 16.6629 26.0794 16.6708C25.2829 16.7024 24.4846 16.734 23.6881 16.7656C22.9252 16.7953 22.1446 16.7795 21.3856 16.8704C21.0978 16.904 20.8356 16.9949 20.5636 17.0917C20.2284 17.2122 19.846 17.311 19.5621 17.5363C19.0101 17.9729 18.7736 18.7614 18.4601 19.366C18.1014 20.0517 17.7091 20.7195 17.2832 21.3637C16.4297 22.654 15.444 23.8534 14.346 24.9421C14.3617 24.9263 14.4761 24.8987 14.482 24.8967C14.5924 24.8572 14.7008 24.8177 14.8092 24.7781C14.9314 24.7307 15.1739 24.6952 15.2685 24.6023Z" fill="black"/>
<path d="M21.9908 23.4799C20.8238 25.5745 19.6153 27.746 19.2566 30.1527C18.9687 32.0833 19.292 34.2252 20.5261 35.7882C21.1766 36.6102 22.1446 37.361 23.2347 37.3729C23.8005 37.3788 24.3426 37.1298 24.8611 36.9303C25.3322 36.7505 25.7324 36.4699 26.0754 36.1004C27.5953 34.4643 27.9068 31.9726 27.1597 29.9196C26.9211 29.2616 26.6077 28.6352 26.308 28.0049C25.9828 27.3232 25.6595 26.6415 25.3342 25.9617C24.6856 24.5983 24.0371 23.2369 23.3885 21.8735C23.3865 21.8715 22.5211 22.1541 22.462 22.2114C22.1051 22.5572 21.9573 23.0433 22.0598 23.5293C22.0519 23.4918 22.9962 23.2428 22.9863 23.1914C22.8838 22.7054 23.0317 22.2193 23.3885 21.8735C23.079 21.9861 22.7715 22.0987 22.462 22.2114C23.562 24.5213 24.6797 26.8252 25.762 29.145C26.2371 30.1666 26.6195 31.2119 26.6353 32.352C26.6491 33.419 26.3869 34.49 25.8704 35.4246C25.6338 35.8534 25.3441 36.2604 24.9892 36.6003C24.8177 36.7643 24.6304 36.9125 24.4274 37.035C24.3742 37.0666 24.319 37.0943 24.2657 37.1259C24.0173 37.2741 24.727 36.9698 24.7093 36.9698C24.5555 36.9718 24.3958 37.0291 24.2401 37.033C23.1933 37.0587 22.2431 36.379 21.5867 35.6143C20.3388 34.16 19.9406 32.1228 20.1259 30.2515C20.3802 27.6788 21.6833 25.3551 22.9154 23.1401C22.9095 23.15 22.7675 23.1895 22.7793 23.1855C22.6689 23.225 22.5605 23.2646 22.4521 23.3041C22.3437 23.3436 22.2333 23.3831 22.1249 23.4246C22.0973 23.4365 22.0026 23.4582 21.9908 23.4799Z" fill="black"/>
</g>
<defs>
<clipPath id="clip0_2759_179999">
<rect width="46.6667" height="53.3333" fill="white"/>
</clipPath>
</defs>
</svg>
