<svg width="168" height="77" viewBox="0 0 168 77" fill="none" xmlns="http://www.w3.org/2000/svg">
<rect x="116.5" y="1.5" width="50" height="50" rx="13.5" fill="black" fill-opacity="0.2" stroke="#F2D861" stroke-width="3"/>
<rect x="126" y="23" width="6" height="22" fill="#F2D861"/>
<rect x="144" y="31" width="6" height="14" fill="#F2D861"/>
<rect x="153" y="25" width="6" height="20" fill="#F2D861"/>
<rect x="135" y="15" width="6" height="30" fill="#F2D861"/>
<g style="mix-blend-mode:lighten">
<path d="M24.1205 73V58.58H27.0005V70.1H38.5205V73H24.1205ZM42.4064 73C41.8997 73 41.4331 72.8733 41.0064 72.62C40.5797 72.3533 40.2331 72.0067 39.9664 71.58C39.7131 71.1533 39.5864 70.6867 39.5864 70.18V64.22C39.5864 63.7133 39.7131 63.2467 39.9664 62.82C40.2331 62.3933 40.5797 62.0533 41.0064 61.8C41.4331 61.5333 41.8997 61.4 42.4064 61.4H48.5264C49.0464 61.4 49.5197 61.5333 49.9464 61.8C50.3731 62.0533 50.7131 62.3933 50.9664 62.82C51.2197 63.2467 51.3464 63.7133 51.3464 64.22V68.64H42.4264V70.04C42.4264 70.0667 42.4397 70.0933 42.4664 70.12C42.4931 70.1467 42.5197 70.16 42.5464 70.16H51.3464V73H42.4064ZM42.4264 66.1H48.5064V64.36C48.5064 64.3333 48.4931 64.3067 48.4664 64.28C48.4397 64.2533 48.4131 64.24 48.3864 64.24H42.5464C42.5197 64.24 42.4931 64.2533 42.4664 64.28C42.4397 64.3067 42.4264 64.3333 42.4264 64.36V66.1ZM56.2741 73C55.7674 73 55.2941 72.8733 54.8541 72.62C54.4274 72.3533 54.0874 72.0067 53.8341 71.58C53.5807 71.1533 53.4541 70.6867 53.4541 70.18V65.76H62.3741V64.36C62.3741 64.3333 62.3607 64.3067 62.3341 64.28C62.3074 64.2533 62.2807 64.24 62.2541 64.24H53.4541V61.4H62.3941C62.9141 61.4 63.3874 61.5333 63.8141 61.8C64.2407 62.0533 64.5807 62.3933 64.8341 62.82C65.0874 63.2467 65.2141 63.7133 65.2141 64.22V73H56.2741ZM56.4141 70.16H62.3741V68.3H56.2941V70.04C56.2941 70.0667 56.3074 70.0933 56.3341 70.12C56.3607 70.1467 56.3874 70.16 56.4141 70.16ZM69.6008 73C69.0674 73 68.5874 72.8733 68.1608 72.62C67.7341 72.3533 67.3941 72.0067 67.1408 71.58C66.8874 71.1533 66.7608 70.6867 66.7608 70.18V64.22C66.7608 63.7133 66.8874 63.2467 67.1408 62.82C67.3941 62.3933 67.7341 62.0533 68.1608 61.8C68.5874 61.5333 69.0674 61.4 69.6008 61.4H75.7008V57.6H78.5408V73H69.6008ZM69.7408 70.16H75.5808C75.6074 70.16 75.6341 70.1467 75.6608 70.12C75.6874 70.0933 75.7008 70.0667 75.7008 70.04V64.36C75.7008 64.3333 75.6874 64.3067 75.6608 64.28C75.6341 64.2533 75.6074 64.24 75.5808 64.24H69.7408C69.7141 64.24 69.6874 64.2533 69.6608 64.28C69.6341 64.3067 69.6208 64.3333 69.6208 64.36V70.04C69.6208 70.0667 69.6341 70.0933 69.6608 70.12C69.6874 70.1467 69.7141 70.16 69.7408 70.16ZM83.0119 73C82.5052 73 82.0385 72.8733 81.6119 72.62C81.1852 72.3533 80.8385 72.0067 80.5719 71.58C80.3185 71.1533 80.1919 70.6867 80.1919 70.18V64.22C80.1919 63.7133 80.3185 63.2467 80.5719 62.82C80.8385 62.3933 81.1852 62.0533 81.6119 61.8C82.0385 61.5333 82.5052 61.4 83.0119 61.4H89.1319C89.6519 61.4 90.1252 61.5333 90.5519 61.8C90.9785 62.0533 91.3185 62.3933 91.5719 62.82C91.8252 63.2467 91.9519 63.7133 91.9519 64.22V68.64H83.0319V70.04C83.0319 70.0667 83.0452 70.0933 83.0719 70.12C83.0985 70.1467 83.1252 70.16 83.1519 70.16H91.9519V73H83.0119ZM83.0319 66.1H89.1119V64.36C89.1119 64.3333 89.0985 64.3067 89.0719 64.28C89.0452 64.2533 89.0185 64.24 88.9919 64.24H83.1519C83.1252 64.24 83.0985 64.2533 83.0719 64.28C83.0452 64.3067 83.0319 64.3333 83.0319 64.36V66.1ZM93.9228 73V64.22C93.9228 63.7133 94.0495 63.2467 94.3028 62.82C94.5695 62.3933 94.9161 62.0533 95.3428 61.8C95.7828 61.5333 96.2561 61.4 96.7628 61.4H103.183V64.24H96.8828C96.8561 64.24 96.8295 64.2533 96.8028 64.28C96.7761 64.3067 96.7628 64.3333 96.7628 64.36V73H93.9228ZM104.627 73V57.6H107.467V61.4H113.567C114.087 61.4 114.56 61.5333 114.987 61.8C115.414 62.0533 115.754 62.3933 116.007 62.82C116.26 63.2467 116.387 63.7133 116.387 64.22V70.18C116.387 70.6867 116.26 71.1533 116.007 71.58C115.754 72.0067 115.414 72.3533 114.987 72.62C114.56 72.8733 114.087 73 113.567 73H104.627ZM107.587 70.16H113.427C113.467 70.16 113.494 70.1467 113.507 70.12C113.534 70.0933 113.547 70.0667 113.547 70.04V64.36C113.547 64.3333 113.534 64.3067 113.507 64.28C113.494 64.2533 113.467 64.24 113.427 64.24H107.587C107.56 64.24 107.534 64.2533 107.507 64.28C107.48 64.3067 107.467 64.3333 107.467 64.36V70.04C107.467 70.0667 107.48 70.0933 107.507 70.12C107.534 70.1467 107.56 70.16 107.587 70.16ZM120.727 73C120.22 73 119.753 72.8733 119.327 72.62C118.9 72.3533 118.553 72.0067 118.287 71.58C118.033 71.1533 117.907 70.6867 117.907 70.18V64.22C117.907 63.7133 118.033 63.2467 118.287 62.82C118.553 62.3933 118.9 62.0533 119.327 61.8C119.753 61.5333 120.22 61.4 120.727 61.4H126.847C127.367 61.4 127.84 61.5333 128.267 61.8C128.693 62.0533 129.033 62.3933 129.287 62.82C129.54 63.2467 129.667 63.7133 129.667 64.22V70.18C129.667 70.6867 129.54 71.1533 129.287 71.58C129.033 72.0067 128.693 72.3533 128.267 72.62C127.84 72.8733 127.367 73 126.847 73H120.727ZM120.867 70.16H126.707C126.733 70.16 126.76 70.1467 126.787 70.12C126.813 70.0933 126.827 70.0667 126.827 70.04V64.36C126.827 64.3333 126.813 64.3067 126.787 64.28C126.76 64.2533 126.733 64.24 126.707 64.24H120.867C120.84 64.24 120.813 64.2533 120.787 64.28C120.76 64.3067 120.747 64.3333 120.747 64.36V70.04C120.747 70.0667 120.76 70.0933 120.787 70.12C120.813 70.1467 120.84 70.16 120.867 70.16ZM134.106 73C133.599 73 133.126 72.8733 132.686 72.62C132.259 72.3533 131.919 72.0067 131.666 71.58C131.413 71.1533 131.286 70.6867 131.286 70.18V65.76H140.206V64.36C140.206 64.3333 140.193 64.3067 140.166 64.28C140.139 64.2533 140.113 64.24 140.086 64.24H131.286V61.4H140.226C140.746 61.4 141.219 61.5333 141.646 61.8C142.073 62.0533 142.413 62.3933 142.666 62.82C142.919 63.2467 143.046 63.7133 143.046 64.22V73H134.106ZM134.246 70.16H140.206V68.3H134.126V70.04C134.126 70.0667 134.139 70.0933 134.166 70.12C134.193 70.1467 134.219 70.16 134.246 70.16ZM144.685 73V64.22C144.685 63.7133 144.811 63.2467 145.065 62.82C145.331 62.3933 145.678 62.0533 146.105 61.8C146.545 61.5333 147.018 61.4 147.525 61.4H153.945V64.24H147.645C147.618 64.24 147.591 64.2533 147.565 64.28C147.538 64.3067 147.525 64.3333 147.525 64.36V73H144.685ZM157.96 73C157.427 73 156.947 72.8733 156.52 72.62C156.093 72.3533 155.753 72.0067 155.5 71.58C155.247 71.1533 155.12 70.6867 155.12 70.18V64.22C155.12 63.7133 155.247 63.2467 155.5 62.82C155.753 62.3933 156.093 62.0533 156.52 61.8C156.947 61.5333 157.427 61.4 157.96 61.4H164.06V57.6H166.9V73H157.96ZM158.1 70.16H163.94C163.967 70.16 163.993 70.1467 164.02 70.12C164.047 70.0933 164.06 70.0667 164.06 70.04V64.36C164.06 64.3333 164.047 64.3067 164.02 64.28C163.993 64.2533 163.967 64.24 163.94 64.24H158.1C158.073 64.24 158.047 64.2533 158.02 64.28C157.993 64.3067 157.98 64.3333 157.98 64.36V70.04C157.98 70.0667 157.993 70.0933 158.02 70.12C158.047 70.1467 158.073 70.16 158.1 70.16Z" fill="#F2D861"/>
</g>
</svg>
