<svg width="47" height="47" viewBox="0 0 47 47" fill="none" xmlns="http://www.w3.org/2000/svg">
<g clip-path="url(#clip0_2214_2149)">
<g filter="url(#filter0_d_2214_2149)">
<path d="M17.8715 2.66682L17.4225 1.71962L11.7189 5.00732L12.3162 5.86963L13.5671 7.67469C15.0799 6.34337 16.8566 5.30422 18.8098 4.64695L17.8715 2.66682ZM35.1207 5.86963L35.7184 5.00732L30.015 1.71962L29.5654 2.66682L28.6269 4.64677C30.5802 5.304 32.3571 6.34319 33.8701 7.67464L35.1207 5.86963ZM40.2605 13.3454L41.2099 12.8968L37.917 7.20217L37.0532 7.79889L35.2451 9.04753C36.5786 10.558 37.6194 12.3321 38.2776 14.2822L40.2605 13.3454ZM26.7464 4.14551L26.9256 1.96092L27.0115 0.916016H20.4254L20.5113 1.96092L20.6904 4.1456C21.6874 3.94667 22.7018 3.84662 23.7186 3.8469C24.7552 3.8469 25.7675 3.95009 26.7464 4.14551ZM10.3839 7.79889L9.52059 7.20217L6.22732 12.8968L7.17668 13.3454L9.15957 14.2822C9.81778 12.3323 10.8585 10.5583 12.1917 9.04793L10.3839 7.79889ZM29.5658 35.6993L30.015 36.6465L35.7184 33.3588L35.1207 32.4967L33.8701 30.6915C32.3572 32.0228 30.5804 33.0619 28.6273 33.7192L29.5658 35.6993ZM7.17672 25.021L6.22736 25.4693L9.52064 31.1639L10.384 30.5672L12.192 29.3184C10.8587 27.8081 9.81805 26.0342 9.15979 24.0844L7.17672 25.021ZM37.0535 30.5672L37.917 31.1639L41.2099 25.4693L40.2605 25.0207L38.2777 24.0838C37.6195 26.0338 36.5787 27.8078 35.2454 29.3183L37.0535 30.5672ZM12.3162 32.4967L11.7189 33.3588L17.4225 36.6465L17.8715 35.6993L18.8098 33.7191C16.8568 33.0619 15.0801 32.0228 13.5674 30.6916L12.3162 32.4967ZM38.7797 22.2067L40.9679 22.3853L42.0144 22.4707V15.8954L40.9679 15.9808L38.7797 16.1592C38.979 17.1549 39.0792 18.1677 39.0789 19.1831C39.0792 20.1983 38.979 21.2111 38.7797 22.2067ZM8.65747 16.1598L6.46904 15.9808L5.42285 15.8954V22.4707L6.46904 22.3853L8.65751 22.2066C8.45827 21.211 8.35806 20.1983 8.35835 19.1831C8.35835 18.1481 8.4617 17.1373 8.65747 16.1598ZM20.6902 34.2205L20.5113 36.4052L20.4254 37.4501H27.0115L26.9262 36.4052L26.7472 34.2204C25.75 34.4194 24.7356 34.5195 23.7186 34.5192C22.6819 34.5192 21.6694 34.416 20.6902 34.2205Z" fill="#FFAD29"/>
<path d="M20.9682 1.41602H26.4687L26.4273 1.91996L26.4273 1.92006L26.2932 3.55521C25.4552 3.41841 24.5952 3.34691 23.7187 3.3469L20.9682 1.41602ZM20.9682 1.41602L21.0096 1.91994L21.0096 1.92008L21.1437 3.55533C21.9946 3.41642 22.8557 3.34667 23.7186 3.3469L20.9682 1.41602ZM41.5144 16.4379V21.9282L41.0085 21.8869L39.3703 21.7532C39.5093 20.9039 39.5791 20.0444 39.5789 19.1832L41.5144 16.4379ZM41.5144 16.4379L41.0085 16.4792L41.0085 16.4792L39.3703 16.6127C39.5093 17.4621 39.5791 18.3217 39.5789 19.1829L41.5144 16.4379ZM20.9682 36.9501L21.0096 36.4462L21.0096 36.4461L21.1436 34.8108C21.9818 34.9477 22.8418 35.0192 23.7185 35.0192L20.9682 36.9501ZM20.9682 36.9501H26.469M20.9682 36.9501H26.469M26.469 36.9501L26.4278 36.4461L26.4278 36.4459L26.2939 34.8107M26.469 36.9501L26.2939 34.8107M26.2939 34.8107C25.4429 34.9497 24.5816 35.0195 23.7186 35.0192L26.2939 34.8107ZM5.92285 21.9282V16.4379L6.42828 16.4792L6.42835 16.4792L8.06686 16.6132C7.92991 17.4497 7.85835 18.308 7.85835 19.1829L5.92285 21.9282ZM5.92285 21.9282L6.42835 21.8869L8.06694 21.7531M5.92285 21.9282L8.06694 21.7531M8.06694 21.7531C7.92792 20.9038 7.85811 20.0443 7.85835 19.1831L8.06694 21.7531ZM34.7098 5.5848L34.7097 5.58487L33.7732 6.93648C32.4496 5.85166 30.9469 4.97609 29.3154 4.36149L30.0171 2.88121L30.0172 2.88099L30.2345 2.42327L34.9979 5.16911L34.7098 5.5848ZM38.5627 13.5945C37.9473 11.9659 37.0706 10.4659 35.9845 9.14454L37.3373 8.21031L37.3374 8.21028L37.7554 7.9215L40.5051 12.6768L40.0469 12.8933L38.5627 13.5945ZM10.0997 8.2102L10.0997 8.21025L11.4524 9.14487C10.3665 10.4661 9.48993 11.966 8.87454 13.5946L7.39029 12.8933L7.39026 12.8933L6.93212 12.6768L9.68212 7.92162L10.0997 8.2102ZM29.3158 34.0045C30.9471 33.3899 32.4497 32.5144 33.7732 31.4297L34.7097 32.7814L34.7098 32.7816L34.9978 33.197L30.2346 35.9428L30.0176 35.4851L30.0176 35.485L29.3158 34.0045ZM7.39021 25.4732L7.39027 25.4731L8.87476 24.772C9.49017 26.4004 10.3667 27.9002 11.4527 29.2214L10.0998 30.1558L10.0997 30.1559L9.68216 30.4445L6.93224 25.6894L7.39021 25.4732ZM37.3378 30.1559L37.3377 30.1558L35.9847 29.2213C37.0707 27.9 37.9474 26.4001 38.5628 24.7715L40.0469 25.4727L40.5052 25.6893L37.7555 30.4445L37.3378 30.1559ZM12.4393 5.1692L17.2028 2.4234L17.4197 2.88091L17.4197 2.88098L18.1213 4.36166C16.4899 4.97629 14.9874 5.85181 13.6639 6.93655L12.7273 5.58491L12.7272 5.58485L12.4393 5.1692ZM17.2028 35.9427L12.4393 33.197L12.7272 32.7815L12.7272 32.7815L13.6642 31.4297C14.9876 32.5143 16.4901 33.3898 18.1214 34.0044L17.4197 35.4851L17.4197 35.4851L17.2028 35.9427Z" stroke="#FFF530"/>
</g>
<g filter="url(#filter1_d_2214_2149)">
<path d="M28.6012 39.6201H18.8343L18.0668 39.4144L12.8525 36.4087V46.9798L20.0966 44.3408L23.7188 43.0215L27.3401 44.3408L34.5844 46.9798V36.4087L29.3706 39.4142L28.6012 39.6201Z" fill="#FFAD29"/>
<path d="M28.6012 40.1201H28.667L28.7305 40.1031L29.4998 39.8973L29.5633 39.8803L29.6203 39.8474L34.0844 37.2741V46.2655L27.5113 43.871L27.5113 43.871L23.8899 42.5517L23.7188 42.4894L23.5477 42.5517L19.9255 43.871L19.9255 43.871L13.3525 46.2655V37.274L17.8171 39.8476L17.874 39.8803L17.9374 39.8973L18.7048 40.103L18.7684 40.1201H18.8343H28.6012Z" stroke="#FFF530"/>
</g>
<g filter="url(#filter2_d_2214_2149)">
<path d="M10.5215 19.1832C10.5215 20.9137 10.8629 22.6271 11.5261 24.2258C12.1893 25.8245 13.1615 27.2771 14.387 28.5007C15.6125 29.7243 17.0674 30.6949 18.6686 31.3571C20.2698 32.0193 21.986 32.3601 23.7191 32.3601C25.4522 32.3601 27.1684 32.0193 28.7696 31.3571C30.3708 30.6949 31.8257 29.7243 33.0512 28.5007C34.2768 27.2771 35.2489 25.8245 35.9121 24.2258C36.5754 22.6271 36.9167 20.9137 36.9167 19.1832C36.9167 15.6885 35.5263 12.3369 33.0512 9.86577C30.5762 7.39462 27.2193 6.00635 23.7191 6.00635C20.2189 6.00635 16.862 7.39462 14.387 9.86577C11.9119 12.3369 10.5215 15.6885 10.5215 19.1832Z" fill="#FFAD29"/>
<path d="M11.9879 24.0342C11.3499 22.4963 11.0215 20.8479 11.0215 19.1832C11.0215 15.8214 12.3591 12.597 14.7403 10.2196C17.1215 7.84214 20.3512 6.50635 23.7191 6.50635C27.087 6.50635 30.3168 7.84214 32.698 10.2196C35.0791 12.597 36.4167 15.8214 36.4167 19.1832C36.4167 20.8479 36.0883 22.4963 35.4503 24.0342C34.8122 25.5722 33.877 26.9697 32.698 28.1469C31.5189 29.3241 30.1191 30.2579 28.5785 30.8951C27.0379 31.5322 25.3867 31.8601 23.7191 31.8601C22.0515 31.8601 20.4003 31.5322 18.8597 30.8951C17.3191 30.2579 15.9193 29.3241 14.7403 28.1469C13.5612 26.9697 12.626 25.5722 11.9879 24.0342Z" stroke="#FFF530"/>
</g>
</g>
<defs>
<filter id="filter0_d_2214_2149" x="5.42285" y="0.916016" width="39.5918" height="39.5342" filterUnits="userSpaceOnUse" color-interpolation-filters="sRGB">
<feFlood flood-opacity="0" result="BackgroundImageFix"/>
<feColorMatrix in="SourceAlpha" type="matrix" values="0 0 0 0 0 0 0 0 0 0 0 0 0 0 0 0 0 0 127 0" result="hardAlpha"/>
<feOffset dx="2" dy="2"/>
<feGaussianBlur stdDeviation="0.5"/>
<feComposite in2="hardAlpha" operator="out"/>
<feColorMatrix type="matrix" values="0 0 0 0 0.811765 0 0 0 0 0.494118 0 0 0 0 0.105882 0 0 0 1 0"/>
<feBlend mode="normal" in2="BackgroundImageFix" result="effect1_dropShadow_2214_2149"/>
<feBlend mode="normal" in="SourceGraphic" in2="effect1_dropShadow_2214_2149" result="shape"/>
</filter>
<filter id="filter1_d_2214_2149" x="12.8525" y="36.4087" width="24.7314" height="13.571" filterUnits="userSpaceOnUse" color-interpolation-filters="sRGB">
<feFlood flood-opacity="0" result="BackgroundImageFix"/>
<feColorMatrix in="SourceAlpha" type="matrix" values="0 0 0 0 0 0 0 0 0 0 0 0 0 0 0 0 0 0 127 0" result="hardAlpha"/>
<feOffset dx="2" dy="2"/>
<feGaussianBlur stdDeviation="0.5"/>
<feComposite in2="hardAlpha" operator="out"/>
<feColorMatrix type="matrix" values="0 0 0 0 0.811765 0 0 0 0 0.494118 0 0 0 0 0.105882 0 0 0 1 0"/>
<feBlend mode="normal" in2="BackgroundImageFix" result="effect1_dropShadow_2214_2149"/>
<feBlend mode="normal" in="SourceGraphic" in2="effect1_dropShadow_2214_2149" result="shape"/>
</filter>
<filter id="filter2_d_2214_2149" x="10.5215" y="6.00635" width="29.3955" height="29.3538" filterUnits="userSpaceOnUse" color-interpolation-filters="sRGB">
<feFlood flood-opacity="0" result="BackgroundImageFix"/>
<feColorMatrix in="SourceAlpha" type="matrix" values="0 0 0 0 0 0 0 0 0 0 0 0 0 0 0 0 0 0 127 0" result="hardAlpha"/>
<feOffset dx="2" dy="2"/>
<feGaussianBlur stdDeviation="0.5"/>
<feComposite in2="hardAlpha" operator="out"/>
<feColorMatrix type="matrix" values="0 0 0 0 0.811765 0 0 0 0 0.494118 0 0 0 0 0.105882 0 0 0 1 0"/>
<feBlend mode="normal" in2="BackgroundImageFix" result="effect1_dropShadow_2214_2149"/>
<feBlend mode="normal" in="SourceGraphic" in2="effect1_dropShadow_2214_2149" result="shape"/>
</filter>
<clipPath id="clip0_2214_2149">
<rect width="46.1367" height="46.0643" fill="white" transform="translate(0.650391 0.915771)"/>
</clipPath>
</defs>
</svg>
