<svg width="464" height="102" viewBox="0 0 464 102" fill="none" xmlns="http://www.w3.org/2000/svg">
<path d="M211.246 1.46618C261.764 1.46618 312.281 1.5711 362.798 1.46618C377.185 1.46618 391.59 0.671746 405.959 0.0571877C413.78 -0.206809 421.606 0.444145 429.207 1.99079C451.983 6.32267 461.822 17.6395 463.634 36.3461C464.648 46.8385 463.326 57.331 462.438 67.9284C461.006 84.7762 440.568 101.564 418.117 100.485C384.198 98.8811 350.26 102.224 316.322 101.609C294.161 101.204 271.965 103.108 249.768 100.53C237.302 99.1359 224.636 100.92 212.043 101.684C194.939 102.733 177.87 100.62 160.765 100.395C126.827 99.9304 92.9435 102.808 58.9693 101.774C43.0603 101.279 27.9305 98.7762 15.3736 89.9925C10.873 86.9284 7.19938 83.1174 4.59014 78.8056C1.9809 74.4938 0.494089 69.7772 0.225694 64.9605C-0.613616 52.9284 0.89144 40.863 4.68315 29.2262C6.97708 21.2192 12.52 14.1049 20.3875 9.06954C28.255 4.03421 37.9714 1.38231 47.9164 1.55611C102.384 1.44619 156.827 1.41621 211.246 1.46618ZM12.6557 31.9992C3.28787 43.436 12.0396 60.4787 21.951 68.423C33.2758 77.4165 47.3184 78.3609 62.1402 78.3459C178.432 78.226 294.729 78.171 411.033 78.181C414.928 78.181 418.86 78.181 422.738 77.8662C443.557 76.1724 460.789 61.6928 459.575 46.8685C460.97 43.421 457.944 40.3782 458.433 36.9307C460.245 23.4404 450.95 16.0806 437.741 9.95006C427.123 5.00362 415.997 5.28841 404.727 5.28841C290.876 5.28841 177.036 5.34337 63.2093 5.45329C56.6058 5.37528 50.0017 5.57541 43.4228 6.05288C26.2998 7.49184 11.188 20.4125 12.6557 31.9992Z" fill="#171922"/>
<path d="M459.575 46.8686C460.716 61.6929 443.557 76.1725 422.738 77.8663C418.86 78.181 414.928 78.181 411.033 78.181C294.717 78.181 178.419 78.236 62.1402 78.3459C47.3908 78.3459 33.2757 77.4466 21.951 68.4231C12.0396 60.5387 3.28782 43.436 12.6556 31.9993L16.0621 34.2027C16.5876 36.1213 17.2037 38.0249 17.6205 39.9436C20.9182 54.648 28.8183 60.9284 46.956 63.6265C54.6721 64.6315 62.4895 65.0031 70.294 64.7357C129.454 64.0612 188.633 65.2004 247.866 63.9113C285.409 63.1019 323.008 63.5965 360.57 63.7914C381.57 63.8963 402.589 63.0719 423.607 64.6908C430.636 65.0372 437.619 63.5479 443.569 60.4333C449.519 57.3186 454.135 52.7361 456.766 47.3332L459.575 46.8686Z" fill="#C56B33"/>
<path d="M16.0624 34.2031L12.6559 31.9997C11.1882 20.413 26.2999 7.49228 43.4591 6.02334C50.0381 5.54587 56.6422 5.34576 63.2458 5.42378C177.085 5.33384 290.924 5.27888 404.763 5.2589C416.015 5.2589 427.159 4.9741 437.777 9.92054C450.986 16.0811 460.354 23.5008 458.47 36.9011C457.98 40.3487 461.006 43.3915 459.611 46.839L456.73 47.3036C454.32 42.3122 452.345 37.1409 449.482 32.3144C441.039 18.3445 426.09 13.2781 408.061 13.2482C331.572 13.1382 255.084 13.1082 178.595 13.1582C138.732 13.1582 98.7239 13.2631 58.7883 13.1582C39.7447 13.1582 23.6183 16.9055 16.6966 33.4986C16.5563 33.772 16.3388 34.0135 16.0624 34.2031Z" fill="#F8D788"/>
<path d="M16.0618 34.2029C16.293 34.0458 16.4839 33.8522 16.6235 33.6333C23.5451 17.0402 39.6716 13.2629 58.7153 13.2929C98.5783 13.2929 138.586 13.2929 178.522 13.2929C255.023 13.2929 331.511 13.3229 407.988 13.3828C426.108 13.3828 440.966 18.4792 449.409 32.4491C452.308 37.2457 454.283 42.417 456.657 47.4383C454.026 52.8412 449.41 57.4237 443.46 60.5384C437.51 63.653 430.527 65.1423 423.498 64.7959C402.48 63.177 381.461 64.0014 360.46 63.8965C322.899 63.7016 285.301 63.207 247.757 64.0164C188.596 65.3055 129.418 64.1663 70.1849 64.8408C62.3804 65.1082 54.563 64.7366 46.8469 63.7316C28.7273 60.9886 20.8091 54.7381 17.5113 40.0486C17.2033 38.0251 16.5872 36.1215 16.0618 34.2029Z" fill="#F1BE62"/>
</svg>
