<svg width="663" height="129" viewBox="0 0 663 129" fill="none" xmlns="http://www.w3.org/2000/svg">
<path d="M301.845 1.85428C374.029 1.85428 446.212 1.98698 518.395 1.85428C538.952 1.85428 559.535 0.849561 580.066 0.0723256C591.241 -0.261553 602.424 0.561712 613.284 2.51776C645.829 7.99632 659.888 22.3088 662.477 45.9671C663.927 59.237 662.036 72.5068 660.768 85.9094C658.722 107.217 629.518 128.449 597.439 127.084C548.972 125.056 500.479 129.283 451.985 128.506C420.321 127.994 388.605 130.401 356.889 127.141C339.076 125.378 320.978 127.634 302.984 128.6C278.544 129.927 254.155 127.255 229.714 126.97C181.221 126.383 132.805 130.022 84.26 128.714C61.528 128.089 39.9093 124.923 21.9671 113.814C15.5362 109.939 10.287 105.119 6.55875 99.6659C2.83047 94.2128 0.705994 88.2477 0.322489 82.1559C-0.876783 66.9389 1.27376 51.6796 6.69165 36.9625C9.96941 26.8361 17.8896 17.8385 29.1312 11.4703C40.3729 5.10209 54.2565 1.74822 68.4668 1.96802C146.294 1.829 224.087 1.79109 301.845 1.85428ZM18.0835 40.4696C4.69797 54.9337 17.2032 76.4878 31.3654 86.535C47.5471 97.9092 67.6123 99.1034 88.7909 99.0845C254.957 98.9328 421.132 98.8633 587.316 98.8759C592.882 98.8759 598.501 98.8759 604.041 98.4778C633.79 96.3357 658.412 78.0233 656.677 59.2749C658.67 54.9148 654.347 51.0665 655.046 46.7064C657.635 29.6452 644.353 20.3373 625.479 12.5839C610.307 6.3281 594.41 6.68828 578.306 6.68828C415.626 6.68828 252.964 6.75779 90.3185 6.89681C80.8828 6.79814 71.4465 7.05125 62.0459 7.65511C37.5792 9.47497 15.9863 25.8159 18.0835 40.4696Z" fill="#171922"/>
<path d="M656.677 59.2749C658.308 78.0233 633.789 96.3357 604.041 98.4779C598.5 98.876 592.882 98.876 587.316 98.876C421.115 98.876 254.94 98.9455 88.7908 99.0845C67.7158 99.0845 47.547 97.9471 31.3653 86.535C17.2031 76.5636 4.69788 54.9338 18.0834 40.4696L22.9508 43.2563C23.7016 45.6828 24.582 48.0903 25.1775 50.5168C29.8896 69.1136 41.1778 77.0565 67.0944 80.4688C78.1198 81.7398 89.2899 82.2097 100.442 81.8716C184.975 81.0185 269.534 82.4592 354.17 80.8289C407.816 79.8053 461.539 80.4308 515.21 80.6773C545.218 80.81 575.251 79.7674 605.284 81.8147C615.327 82.2529 625.304 80.3693 633.806 76.4303C642.308 72.4912 648.905 66.6957 652.664 59.8626L656.677 59.2749Z" fill="#C56B33"/>
<path d="M22.9512 43.2567L18.0837 40.47C15.9866 25.8163 37.5794 9.47539 62.0979 7.61761C71.4984 7.01375 80.9349 6.76067 90.3706 6.85934C253.033 6.7456 415.695 6.67609 578.358 6.65081C594.436 6.65081 610.359 6.29063 625.531 12.5464C644.405 20.3377 657.79 29.7214 655.098 46.6689C654.399 51.029 658.723 54.8773 656.729 59.2374L652.612 59.825C649.169 53.5124 646.347 46.9722 642.256 40.8681C630.191 23.2002 608.831 16.7928 583.07 16.7549C473.777 16.6159 364.484 16.5779 255.191 16.6411C198.231 16.6411 141.064 16.7738 84.0014 16.6411C56.7903 16.6411 33.7477 21.3804 23.8574 42.3657C23.6569 42.7114 23.3461 43.017 22.9512 43.2567Z" fill="#F8D788"/>
<path d="M22.9502 43.2564C23.2806 43.0578 23.5534 42.8129 23.7528 42.5361C33.643 21.5507 56.6858 16.7736 83.8969 16.8115C140.856 16.8115 198.023 16.8115 255.086 16.8115C364.397 16.8115 473.69 16.8494 582.966 16.9252C608.856 16.9252 630.086 23.3706 642.152 41.0385C646.294 47.1047 649.116 53.6449 652.508 59.9954C648.749 66.8285 642.152 72.624 633.651 76.5631C625.149 80.5022 615.171 82.3858 605.128 81.9476C575.095 79.9002 545.062 80.9429 515.054 80.8102C461.383 80.5637 407.66 79.9382 354.014 80.9618C269.481 82.5921 184.922 81.1514 100.286 82.0045C89.1339 82.3426 77.9639 81.8727 66.9384 80.6016C41.0478 77.1325 29.7335 69.2275 25.0214 50.6497C24.5813 48.0905 23.701 45.6829 22.9502 43.2564Z" fill="#F1BE62"/>
</svg>
