<svg width="116" height="116" viewBox="0 0 116 116" fill="none" xmlns="http://www.w3.org/2000/svg">
<path d="M39.8626 15.8548C39.7883 15.7852 39.7419 15.7527 39.728 15.7434C39.7698 15.7759 39.8069 15.813 39.8487 15.8455C39.8533 15.8501 39.8579 15.8548 39.8626 15.8548Z" fill="#AD0000"/>
<path d="M79.3906 70.6068C79.386 69.9061 79.0937 68.6255 78.4626 68.0826C78.458 68.0733 78.458 68.0641 78.4533 68.0548C78.4069 67.8831 78.3652 67.7161 78.3188 67.5444C78.4487 65.4146 78.5925 60.9741 78.1517 57.7586C78.2399 57.1693 78.3281 56.58 78.4116 55.9908C78.741 54.4642 78.9266 52.9098 78.6157 51.3647C78.5369 50.8125 78.2492 50.0655 77.7898 49.6711C77.7017 48.7849 77.581 47.9682 77.4743 47.3232C77.4789 47.0402 77.4789 46.7618 77.4836 46.4788C77.5207 44.994 77.4975 43.5045 77.3908 42.0197C77.4697 41.8295 77.5393 41.6346 77.5996 41.4444C77.9661 41.0546 78.2724 40.5581 78.4905 39.9828C78.3281 39.8343 78.1981 39.6394 78.1239 39.4121C77.9615 38.9249 77.9337 38.3866 77.9197 37.8762C77.9105 37.5561 77.9197 37.2545 77.9661 36.9343C77.9893 36.7951 78.0265 36.6605 78.0636 36.5213C78.0636 36.5167 78.0636 36.5167 78.0636 36.5121C78.0636 36.4981 78.0682 36.4842 78.0682 36.4703C78.0729 36.2058 78.0914 35.946 78.1053 35.7047C78.1285 35.4031 78.1703 35.1154 78.2585 34.837C77.9986 34.3127 77.6599 33.8255 77.2284 33.4033C76.5695 32.698 75.6786 32.0484 74.7367 31.7004C74.862 31.9788 74.9084 32.2757 74.8249 32.6191C74.7367 32.9903 74.4769 33.4125 74.1289 33.5981C73.5117 33.9229 72.7879 33.742 72.194 33.4589C71.3541 33.0645 70.7463 32.3871 70.3844 31.5565C70.1292 31.1668 70.0225 30.7538 69.8925 30.2852C69.8461 30.1181 69.8183 29.9511 69.8137 29.7841C69.6466 29.5196 69.4981 29.2412 69.3589 28.9442C69.229 28.6658 69.1455 28.3874 69.0805 28.1044C68.7418 28.0116 68.3938 27.9745 68.0412 28.0023C67.837 26.9908 67.4658 26.0257 66.9276 25.3204C66.9044 24.6151 66.7559 23.9052 66.445 23.2277C65.8882 22.0028 64.6261 21.562 63.3733 21.9981C62.798 22.1281 62.2226 22.3137 61.6797 22.5735C61.6333 22.5828 61.5916 22.5967 61.5452 22.606C60.0511 21.4228 58.0466 21.1165 56.1581 21.3114C55.1466 21.2001 54.1258 21.1676 53.1143 21.2372C52.4693 21.1073 51.7594 21.2836 51.1052 21.2929C50.3303 21.3717 49.5554 21.4645 48.7852 21.5713C48.53 21.7058 48.2423 21.7615 47.9546 21.7105C47.9453 21.7105 47.9361 21.7151 47.9268 21.7151C47.9268 21.7105 47.9268 21.7058 47.9268 21.7058C47.6716 21.6548 47.4257 21.5202 47.2215 21.2743C47.1194 21.1861 47.022 21.0887 46.9477 20.9727C46.9524 20.9681 46.9153 20.8753 46.8735 20.7732C46.8596 20.7546 46.841 20.7314 46.8225 20.7129C46.7668 20.6572 46.7157 20.5969 46.6647 20.5319C46.4141 20.2581 46.1218 19.9983 45.8945 19.7431C45.8898 19.7385 45.8852 19.7338 45.8805 19.7338C45.8527 19.7106 45.8202 19.6967 45.7924 19.6735C45.6996 19.6039 45.63 19.525 45.5697 19.4415C45.5372 19.4137 45.514 19.3812 45.4815 19.358C45.4676 19.3441 45.2866 19.2373 45.3377 19.2605C45.1289 19.1538 44.9293 19.0657 44.7577 18.945C44.3911 18.8244 44.0524 18.6341 43.7229 18.3325C43.7369 18.3372 43.7461 18.3465 43.7601 18.3511C43.7183 18.3186 43.6858 18.2815 43.6441 18.249C43.4909 18.2351 43.3378 18.2305 43.1893 18.2676C43.1151 18.1841 43.0362 18.1145 42.9527 18.0588C42.5258 17.6041 42.0711 17.1679 41.5607 16.8106C41.0596 16.4162 40.4239 16.2492 39.8996 15.8965C39.8764 15.8826 39.8578 15.8687 39.8393 15.8594C39.8532 15.8687 39.8625 15.878 39.8764 15.8919C39.8578 15.878 39.8439 15.8641 39.8253 15.8501C39.7186 15.7759 39.6815 15.7341 39.7047 15.7481C39.7001 15.7434 39.7001 15.7434 39.6954 15.7388C39.6676 15.6645 39.6397 15.5857 39.6073 15.5021C39.5423 15.2933 39.4402 15.1124 39.3149 14.9546C39.2593 14.9314 39.2036 14.9082 39.1479 14.885C39.018 14.8247 38.902 14.7412 38.7999 14.6391C38.7953 14.6298 38.7906 14.6252 38.786 14.6205C38.6282 14.5602 38.4705 14.4906 38.3127 14.4117L38.1689 14.3468C38.1132 14.305 38.0761 14.2772 38.0389 14.2447C38.0065 14.2401 37.9693 14.2354 37.9415 14.2261C37.7745 14.1751 37.5889 14.1055 37.4404 14.0127C37.3708 13.9617 37.3058 13.906 37.2362 13.8549C37.2177 13.8457 37.2037 13.841 37.1852 13.8317C37.1713 13.8364 37.1202 13.8271 37.0181 13.8039C36.8465 13.7946 36.6841 13.7436 36.5402 13.6508C36.3036 13.5441 36.2433 13.5023 36.0437 13.4466C35.9695 13.4281 35.8767 13.3956 35.7932 13.3817C35.77 13.3817 35.7468 13.3863 35.7282 13.3956C35.7468 13.3863 35.7561 13.377 35.7607 13.3724C35.7561 13.3724 35.7514 13.3724 35.7514 13.3677C35.7561 13.3677 35.7607 13.3677 35.7653 13.3677C35.8117 13.3306 35.4962 13.4466 35.4684 13.4513C35.3199 13.4745 35.1761 13.4791 35.0276 13.4698C34.7167 13.4559 34.3965 13.4141 34.0949 13.3399C33.8676 13.2842 33.6402 13.2378 33.4082 13.1961C33.3015 13.2239 33.1948 13.2425 33.0881 13.2378C32.9953 13.2332 32.8978 13.2239 32.805 13.21C32.7679 13.2053 32.7354 13.1961 32.6983 13.1914C32.6426 13.1821 32.5916 13.1729 32.5359 13.1636C32.5266 13.1636 32.5173 13.1589 32.5081 13.1589C32.5081 13.1589 32.5081 13.1589 32.5034 13.1589C32.4988 13.1589 32.4941 13.1589 32.4895 13.1589C32.4617 13.1729 32.4292 13.1821 32.4013 13.1961C32.2018 13.261 31.9652 13.2425 31.7517 13.2425C31.6868 13.2425 31.5986 13.2471 31.5197 13.2517C31.4965 13.2564 31.4733 13.2564 31.4455 13.2564C31.4177 13.261 31.3945 13.2657 31.3666 13.2703C31.1207 13.3121 30.898 13.3353 30.6706 13.3306C30.6103 13.3445 30.55 13.3492 30.4897 13.3538C30.4665 13.3631 30.4386 13.3724 30.4154 13.3817C29.9746 13.5626 29.5431 13.7575 29.1069 13.957C28.7125 14.138 28.1836 14.2865 27.9052 14.4303C27.7242 14.5231 27.5386 14.6113 27.353 14.7041C27.3252 14.718 27.302 14.7319 27.2741 14.7412C27.1628 14.7969 27.0561 14.8572 26.9493 14.9175C26.9122 15.0149 26.8844 15.117 26.8565 15.2237C26.5271 15.4372 26.2162 15.6831 25.9332 15.9801C24.8381 17.038 25.0516 17.0148 24.0215 17.5437C22.7037 18.5877 21.4695 19.7802 20.4069 21.0841C20.2306 21.3068 20.0682 21.5434 19.9151 21.7847C19.8316 21.6733 19.7388 21.562 19.6367 21.4645C19.6321 21.4599 19.6228 21.4553 19.6181 21.4506C19.4697 21.6594 19.3165 21.8636 19.1681 22.0724C18.6623 22.7823 18.1705 23.5015 17.6369 24.1882C17.5301 24.3274 17.5023 24.3645 17.558 24.2903C17.5951 24.2439 17.5858 24.2532 17.5394 24.3135C17.4837 24.3831 17.4327 24.4573 17.377 24.5269C17.2146 24.745 17.0476 24.9585 16.8805 25.1719C16.6578 25.4503 16.4119 25.7055 16.1567 25.9561C16.0361 26.0767 15.9015 26.1602 15.753 26.2205C15.5535 26.6706 15.3772 27.1253 15.2194 27.5847C15.1405 27.7889 15.0709 27.9977 15.006 28.2065C14.8204 28.8607 14.6719 29.5799 14.6348 30.2945C14.3378 31.1482 14.1058 32.0205 13.9527 32.9114C13.8506 34.2292 13.7393 35.7186 14.2404 36.9714C14.2357 37.0642 14.2265 37.1524 14.2265 37.2452C14.2218 38.1314 14.361 39.013 14.6441 39.8529C14.6441 39.8529 14.6533 39.8853 14.6765 39.9642C15.0663 41.3748 15.5164 42.7621 16.1428 44.0845C16.4815 46.3767 17.8178 48.5668 18.8154 50.6176C18.9917 51.012 19.1541 51.3601 19.3026 51.6756C19.762 52.8727 20.2909 54.1348 20.7178 55.1509C20.0125 60.0322 20.0589 65.0248 20.277 69.9618C20.277 69.9664 20.277 69.9711 20.2724 69.9804C20.277 69.9804 20.277 69.9897 20.277 69.9897C20.277 70.0036 20.277 70.0175 20.277 70.036C20.2213 70.6393 18.2865 76.5413 19.6413 78.5829C19.6599 78.6572 19.6692 78.7314 19.6877 78.8056C19.7481 78.9495 19.8037 79.0562 19.8641 79.1397C19.5253 82.1232 19.3537 85.1485 20.0729 88.081C20.1007 88.2063 20.1425 88.3269 20.1749 88.4522C20.11 88.7584 20.0775 89.0508 20.0914 89.2828C20.0172 89.7746 20.1285 90.9949 20.1471 91.0506C20.1796 91.5749 20.2213 92.0993 20.277 92.6236C20.2445 93.8532 20.3698 95.0828 20.7178 96.2613C20.7921 96.5258 20.8941 96.7903 21.0194 97.0501C21.0983 97.3193 21.1865 97.5884 21.2932 97.8482C21.4834 98.2704 21.8825 98.8365 22.365 98.9572C22.4578 99.1335 22.5553 99.3144 22.6713 99.4815C22.9265 99.7181 23.1817 99.862 23.4322 99.9223C23.4415 99.9362 23.4508 99.9501 23.4601 99.964C23.7802 100.391 24.2813 100.479 24.7314 100.34C24.801 100.377 24.866 100.419 24.9402 100.451C24.9913 100.47 25.0377 100.479 25.0841 100.498C25.3625 100.86 25.678 101.198 26.0399 101.491C26.1559 101.621 26.2765 101.741 26.4018 101.862C26.7034 102.219 27.0236 102.474 27.3484 102.641C28.3181 103.309 29.4457 103.718 30.6521 103.695C30.8469 103.671 31.181 103.704 31.3759 103.722C31.6775 103.862 31.9791 104.015 32.2853 104.145C33.0509 104.149 33.8212 104.168 34.5868 104.214C34.6889 104.219 34.7909 104.228 34.893 104.233C35.241 104.205 35.5844 104.182 35.9324 104.163C35.9556 104.154 35.9834 104.145 36.0066 104.135C36.0252 104.145 36.0437 104.149 36.0623 104.159C36.7954 104.121 37.5285 104.103 38.257 104.07C38.4009 104.066 38.5401 104.057 38.6839 104.052C38.7117 104.038 38.7396 104.029 38.7674 104.015C38.9484 103.917 39.1154 103.806 39.2825 103.695C39.7372 103.718 40.1919 103.704 40.6652 103.546C41.6257 103.296 42.5954 103.625 43.5698 103.541C45.7645 103.337 47.9639 103.463 50.1586 103.407C50.6226 103.286 50.9613 103.189 51.249 103.105C53.7082 103.37 56.186 103.439 58.6498 103.161C58.7937 103.152 58.9375 103.133 59.0813 103.119C59.1509 103.184 59.2159 103.254 59.2855 103.319C60.2599 103.231 61.2297 103.152 62.2041 103.082C62.8629 103.142 63.5265 103.156 64.1853 103.152C64.6308 103.212 65.0762 103.263 65.5217 103.296C66.9369 103.365 68.3567 103.309 69.7673 103.175C69.7858 103.356 69.8461 103.528 69.9343 103.662C70.0642 103.825 70.3055 103.736 70.4865 103.741C70.6396 103.732 70.7927 103.709 70.9412 103.69C72.2729 103.616 73.6045 103.509 74.913 103.221C75.2657 103.11 75.2239 102.493 75.0476 102.242C75.0105 102.205 74.9641 102.187 74.913 102.177C74.913 102.173 74.913 102.173 74.913 102.168C74.8573 102.168 74.797 102.168 74.7413 102.168C74.913 102.057 75.094 101.95 75.2564 101.829C75.4281 101.82 75.5951 101.801 75.7668 101.792C75.9849 101.286 76.1148 100.744 76.1658 100.187C76.3004 100.15 76.4396 100.075 76.5788 99.9455C76.8943 99.7367 77.066 99.3887 77.2052 99.036C77.646 98.0385 77.8919 96.9712 78.1007 95.904C79.0565 91.4775 78.1657 85.2924 77.8501 81.9887C78.4301 78.2117 79.3581 74.444 79.3906 70.6068ZM39.8717 27.9141C38.4055 30.0021 36.8557 32.0345 35.2085 33.9833C34.9905 34.2199 34.7817 34.4565 34.5961 34.7117C34.5775 34.7303 34.5636 34.7535 34.545 34.7721V34.7767C34.4569 34.902 34.3733 35.0319 34.3037 35.1711C31.942 36.6698 29.6127 38.3217 27.9609 40.5906C27.2463 41.166 26.541 41.746 25.7801 42.261C25.6733 42.3445 25.562 42.4188 25.446 42.493L25.4413 42.4977C24.8289 42.8967 24.1514 43.2076 23.5575 43.6345C23.0889 43.2818 22.5274 43.1426 21.9149 43.3653C21.8825 43.3885 21.8546 43.4117 21.8221 43.4349C21.2282 41.4861 20.6529 39.013 20.3281 37.4169C20.6018 35.0226 21.0473 32.6516 21.1586 30.2434C21.1401 29.9697 21.2561 28.3457 21.0519 27.6543C21.1818 27.4733 21.3442 27.2321 21.5762 26.8748C21.7293 26.6149 21.8453 26.4015 21.9428 26.2205C22.0681 26.318 22.2073 26.3922 22.365 26.4154C23.1631 26.2855 23.5482 25.1441 23.5297 24.0212C24.0633 23.4551 24.453 22.7545 25.0191 22.2069C25.1908 22.1095 25.3346 21.9564 25.4553 21.7661C25.4692 21.7522 25.4831 21.7337 25.5017 21.7197C25.7244 21.7615 26.0028 21.7105 26.3137 21.6084C26.3554 21.562 26.3879 21.5109 26.4297 21.4645C26.4436 21.446 26.5132 21.3857 26.5735 21.3253C26.5781 21.3207 26.5781 21.3161 26.5781 21.3068C26.6292 21.1815 26.7591 21.0377 26.8519 20.9402C26.9169 20.8706 27.0004 20.8057 27.0839 20.75C27.1999 20.6154 27.3298 20.4994 27.4737 20.4159C27.5201 20.3881 27.5711 20.3741 27.6175 20.3509C27.6082 20.3509 27.6129 20.3463 27.6546 20.3185C27.7196 20.2628 27.7985 20.2257 27.8681 20.1793C27.9516 20.1236 28.0305 20.0679 28.114 20.0169C28.1418 19.9983 28.1836 19.9705 28.2207 19.9519C28.3135 19.8823 28.397 19.8127 28.4805 19.757C28.5455 19.6967 28.6151 19.641 28.6893 19.6317C28.6986 19.6271 28.6986 19.6271 28.7079 19.6225C28.8889 19.4693 29.0884 19.3255 29.3204 19.2605C29.5477 19.1585 29.789 19.1028 30.0721 19.0981C30.1463 19.0981 30.2205 19.0981 30.2901 19.0981C30.5917 19.0193 30.9026 19.0471 31.1949 19.1863C31.2274 19.1956 31.2599 19.2095 31.2924 19.2141C31.3434 19.2234 31.3898 19.2327 31.4409 19.2466C31.6218 19.2466 31.8074 19.2513 31.9745 19.2977C32.0626 19.3209 32.1461 19.358 32.2343 19.3905C32.29 19.409 32.6009 19.4786 32.341 19.4415C31.9884 19.3905 32.6101 19.4925 32.7215 19.525C32.805 19.5482 32.8932 19.5575 32.9813 19.5761C33.0463 19.5853 33.1066 19.5993 33.1716 19.6178C32.986 19.5993 32.9628 19.5993 33.102 19.6178C33.2737 19.6457 33.4453 19.6549 33.6124 19.706C33.6866 19.7292 33.7609 19.757 33.8351 19.7895C33.9882 19.8034 34.1367 19.8266 34.2852 19.8869C34.726 20.0725 33.9697 19.7524 34.4893 19.9751C34.5033 19.9797 34.5125 19.9844 34.5265 19.9937C34.5543 20.0029 34.5775 20.0169 34.6053 20.0308C34.6332 20.0447 34.661 20.0586 34.6842 20.0725C34.8652 20.1329 35.0276 20.2257 35.19 20.3463C35.422 20.4391 35.6354 20.5829 35.8303 20.7778C35.8489 20.7964 35.8674 20.8196 35.886 20.8381C35.8953 20.8428 35.9045 20.8474 35.9138 20.8474C36.053 20.8103 36.1876 20.7778 36.3268 20.7361C36.4521 20.6897 36.5588 20.6154 36.6562 20.5273C36.9857 21.3857 37.4682 22.1745 38.1039 22.8333C38.4473 23.4133 38.8602 23.9284 39.3613 24.2717C39.4402 24.2996 39.5191 24.3181 39.598 24.3321C39.9738 24.7914 40.3868 25.2229 40.8322 25.622C40.9111 25.7055 40.9946 25.789 41.0781 25.8679C40.6466 26.5361 40.2476 27.2181 39.8717 27.9141ZM57.3506 84.5732C57.1836 84.9676 56.7845 85.2506 56.3484 85.246C55.8658 85.2367 55.4018 85.2367 54.9239 85.1439C54.4785 85.0604 54.0562 84.9072 53.634 84.7356C53.3741 84.6288 53.1143 84.5175 52.8545 84.4061C52.7895 84.3783 52.7292 84.3504 52.6642 84.3226C52.3209 84.2901 52.01 84.1927 51.7269 84.0117C51.5367 83.9607 51.3604 83.8772 51.2165 83.738C50.966 83.4967 50.9057 83.2136 50.8639 82.8888C50.8129 82.5084 51.1655 82.1093 51.5413 82.0026C51.6527 81.9144 51.7826 81.8402 51.9172 81.7984C52.0796 81.6592 52.3069 81.5757 52.525 81.585C52.5389 81.5804 52.5529 81.5804 52.5668 81.5757C52.6317 81.5618 52.6967 81.5525 52.7617 81.5433C52.8452 81.5061 52.9241 81.469 53.0029 81.4319C53.2674 81.302 53.4994 81.1303 53.8103 81.1442C53.8196 81.1396 53.8335 81.1396 53.8428 81.1349C53.8938 81.1164 53.9031 81.1164 53.8799 81.1256C53.9217 81.1071 53.9588 81.0932 54.0005 81.0746C54.1583 81.0236 54.381 81.0421 54.5481 81.056C54.7847 81.0746 55.0074 81.1674 55.193 81.3112C55.2858 81.288 55.3786 81.2741 55.4714 81.2648C55.8937 81.2184 56.3577 81.6871 56.3159 82.1093C56.3113 82.1604 56.302 82.2068 56.2927 82.2578C56.4644 82.3738 56.6082 82.5408 56.6917 82.745C56.7474 82.8749 56.7706 83.0141 56.7753 83.1533C56.8913 83.2137 57.0026 83.2832 57.1186 83.3761C57.4573 83.6498 57.5037 84.202 57.3506 84.5732ZM70.6721 70.1056C70.5607 70.3191 70.3426 70.4583 70.1153 70.5325C69.8925 70.6068 69.6002 70.5557 69.4007 70.4397C69.1826 70.3144 69.0759 70.1288 68.9831 69.9108C69.0017 69.9525 69.0202 69.9943 69.0388 70.036C68.7001 69.2519 68.1525 68.5791 67.7164 67.8506C67.4473 67.4052 67.6329 66.8484 68.0505 66.5793C68.2453 66.454 68.5423 66.4261 68.765 66.4864C68.9924 66.5514 69.1965 66.7092 69.3218 66.9133C69.5585 67.3031 69.8183 67.6743 70.0642 68.0594C70.3426 68.4863 70.5746 68.9178 70.7649 69.3911C70.8577 69.6185 70.7834 69.9015 70.6721 70.1056Z" fill="#24A6B6"/>
<path d="M48.9289 102.493C48.8407 102.433 48.7525 102.368 48.6551 102.331C48.4788 102.266 48.3025 102.358 48.1261 102.354C47.342 102.131 46.5671 102.331 45.8108 101.983C44.9802 101.792 44.1914 101.491 43.3933 101.194C42.6556 101.073 41.9271 100.929 41.1893 100.809C40.8924 100.72 40.6604 100.507 40.3913 100.363C39.8809 100.094 39.3241 99.941 38.7951 99.7136C38.0713 99.4306 37.4124 98.999 36.6653 98.767C36.1457 98.5582 35.742 98.1453 35.2548 97.8715C34.3361 97.3797 33.5658 96.6744 32.6981 96.1083C32.1228 95.6026 31.4175 95.3706 30.7308 95.0782C30.1415 94.7627 29.71 94.2802 29.1346 93.9414C28.1602 93.5146 27.3343 92.8557 26.4898 92.2154C26.4156 92.1643 26.3367 92.1086 26.2625 92.0576C26.165 91.9091 26.0722 91.7514 25.9655 91.5611C25.8495 91.357 25.7613 91.176 25.7057 91.0832C25.5711 90.4011 25.5572 90.4661 25.418 89.8165C25.4458 89.9278 25.4644 90.0067 25.4412 89.9139C25.3437 89.2875 25.1721 88.6797 25.0236 88.0672C24.9725 86.833 24.4111 82.9957 24.0956 80.9262C24.0909 80.8845 24.0817 80.8474 24.077 80.8056C24.0585 79.4925 24.0492 78.1747 23.7337 76.8941C23.6965 75.98 23.6177 75.0706 23.4877 74.1658C23.5388 73.595 23.2511 71.3817 23.3532 69.6928C23.3021 68.4075 23.1722 66.8949 23.0284 65.4843C23.0377 65.4472 23.0469 65.4101 23.0516 65.3729C23.2465 64.1944 23.098 62.8859 22.9402 61.8651C22.9356 61.7259 22.9309 61.5914 22.9263 61.4521C22.9495 61.1227 22.9309 60.7886 22.8845 60.4731C22.8289 59.2713 22.7778 58.0696 22.75 56.8632C22.8474 55.796 22.9959 54.0885 23.0377 53.0213C22.9634 53.527 22.8753 54.0328 22.7778 54.5385C22.7917 54.1349 22.7453 53.7265 22.5922 53.36C22.5922 53.3182 22.5922 53.2857 22.5922 53.2765C22.6154 52.8078 22.5969 52.1675 22.4391 51.6664C22.4855 51.2534 22.453 50.8544 22.3695 50.46C22.3788 50.344 22.3834 50.228 22.3834 50.112C22.3881 49.5088 22.2396 48.1725 21.6132 47.8523C21.4508 47.6667 21.293 47.4811 21.1445 47.2862C21.1306 47.2445 21.1121 47.2027 21.0981 47.1563C20.9033 46.7155 20.7269 46.2654 20.5506 45.8107C20.0263 44.2424 19.8082 44.131 19.4045 43.0267C19.2839 42.7901 19.1215 42.5766 18.9545 42.3725C18.9359 42.3353 18.9127 42.2889 18.8941 42.2425C18.8895 42.2286 18.8895 42.224 18.8802 42.2054C18.6807 41.4909 18.2956 40.8691 17.9754 40.2102C17.646 39.2173 17.2841 38.2382 17.1031 37.2035C16.6113 35.148 16.6484 35.4542 16.5973 33.6678C16.5045 32.5403 16.6762 31.9046 16.9129 30.3085C17.1634 29.747 17.4001 29.1856 17.6135 28.6102C17.8362 27.9606 18.0821 27.2646 18.3652 26.5501C19.154 26.6104 19.9799 25.0142 20.4253 24.5456C21.5018 23.1675 22.5365 21.7569 23.613 20.3742C24.2997 19.4973 24.2023 19.5437 25.0004 18.9915C25.4876 18.6157 25.5943 17.9661 25.5433 17.3536C25.5479 17.3489 25.5525 17.3489 25.5525 17.3443C26.1604 16.7921 26.8425 16.3421 27.5709 15.7899C28.0999 15.4697 28.2066 14.8573 28.1927 14.2819C28.1927 14.1659 28.1556 14.0128 28.0025 14.0777C28.1231 14.2309 28.1788 14.3747 28.1092 14.5649C28.0349 14.8665 27.9514 15.1774 27.6313 15.2888C27.0745 15.6089 26.462 15.8177 25.9005 16.1333C25.7103 16.24 25.5201 16.3467 25.3298 16.4581C25.1349 16.0637 24.8751 15.9894 24.6013 16.0915C24.6013 16.0869 24.6013 16.0822 24.6013 16.0822C24.5781 16.0961 24.5596 16.1101 24.541 16.1193C24.4621 16.1565 24.3833 16.2075 24.3044 16.2678C23.5666 16.7689 23.0052 17.4603 22.4252 18.1377C21.6828 18.9683 20.5181 20.4485 19.618 21.6177C19.3999 21.8497 19.1818 22.0771 18.973 22.3137C18.4719 22.9262 17.7713 23.4923 17.6274 24.3089C17.5393 24.7683 17.5207 25.3251 17.6738 25.7984C17.5532 26.0304 17.4325 26.2624 17.3165 26.5037C16.9407 27.4131 16.4257 28.2529 15.9988 29.1345C15.8132 29.3433 15.7204 29.6217 15.6229 29.8909H15.6183C14.9965 30.1275 14.9687 30.907 14.8666 31.5241C14.6346 32.5217 14.2124 33.4637 14.0871 34.4845C13.9943 34.8881 14.0407 35.4032 14.1799 35.8486C14.1753 35.8857 14.1706 35.9229 14.166 35.96C14.0685 36.1781 13.985 36.4286 13.9293 36.707C13.6138 37.4401 13.5071 38.4609 13.6138 38.9853C14.0685 40.6928 14.0407 40.8088 14.3748 42.6601C14.217 41.9131 14.4908 43.2448 14.5789 43.5325C14.6857 43.9361 14.8573 44.312 15.0708 44.6646C15.2332 45.6112 15.4234 46.7109 16.2865 46.8779C16.3282 46.8686 16.3653 46.8547 16.4071 46.8454C16.6391 47.1006 16.9175 47.212 17.2516 47.0681C17.5021 46.864 17.6831 46.6134 17.813 46.3304C17.8362 46.3536 17.8548 46.3861 17.878 46.4093C18.3559 47.3001 18.7132 48.2467 19.1122 49.1747C19.5669 50.2466 19.9938 51.3277 20.4485 52.3949C20.5089 52.5805 20.5831 52.7382 20.662 52.8728C20.3789 55.1139 20.7873 58.58 20.8012 59.8745C20.6852 60.2086 20.6202 60.5891 20.6063 60.9789C20.5181 61.2619 20.4532 61.5589 20.3836 61.828C20.2351 62.524 20.1933 63.2246 20.198 63.9253C19.7943 66.8438 19.7943 69.8134 19.7386 72.7598C19.8175 75.1494 19.3999 77.5622 19.9103 79.924C20.0495 80.8984 20.2397 81.8728 20.314 82.8565C20.314 82.8611 20.314 82.8611 20.314 82.8611C20.3372 83.4411 20.3372 84.0211 20.4346 84.5918C20.6481 85.7054 20.6991 85.5338 20.7641 86.0952C20.4485 87.5614 20.4578 89.3989 20.6249 91.0043C20.6713 91.4822 20.713 91.9602 20.7641 92.4427C20.7409 92.9485 20.8105 93.4496 20.9497 93.9368C21.0517 94.591 21.1909 95.2406 21.3951 95.8717C21.3997 95.8856 21.409 95.8949 21.4137 95.9088C21.3997 96.2893 21.4322 96.6651 21.4972 97.0131C21.6781 98.1035 22.5505 98.883 23.2882 99.6394C24.1234 100.484 24.5225 100.818 25.0097 101.212C25.186 101.379 25.3762 101.532 25.5804 101.676C25.7521 101.816 25.9423 101.978 26.1697 102.173C26.4295 102.307 26.9863 102.994 27.7751 103.259C27.8076 103.277 27.8401 103.305 27.8725 103.319C28.3041 103.472 28.7913 103.681 29.2506 103.546C29.3759 103.518 29.6357 103.444 29.8121 103.393C29.8399 103.388 29.8677 103.379 29.9002 103.379C29.9745 103.375 30.0487 103.37 30.1229 103.375C30.1693 103.398 30.2297 103.435 30.3039 103.481C30.341 103.504 30.3735 103.532 30.406 103.56C31.4175 104.929 32.1181 104.474 32.4429 103.537C33.0229 103.718 33.589 103.89 34.6284 103.862C35.4033 103.825 36.1364 104.2 36.9159 104.089C37.3799 104.112 37.8671 104.261 38.2986 104.029C38.3914 103.959 38.5538 103.811 38.6466 103.713C38.7023 103.685 38.758 103.658 38.8183 103.634C39.1245 103.644 39.4261 103.648 39.7277 103.648C40.4237 103.658 41.0548 103.384 41.6905 103.143C41.8389 103.138 41.9874 103.129 42.1313 103.119C42.4375 103.221 42.7298 103.245 42.9989 103.101C43.1149 103.138 43.2309 103.166 43.3562 103.175C43.3655 103.156 43.3562 103.133 43.3562 103.115C43.3701 103.208 43.2681 103.124 43.217 103.119C43.1706 103.096 43.1242 103.068 43.0778 103.04C43.0825 103.036 43.0871 103.031 43.0964 103.027C43.1799 103.017 43.2634 103.008 43.3469 102.994C43.4397 102.929 43.5093 102.818 43.5557 102.683C43.5697 102.688 43.5836 102.683 43.5975 102.688C44.1961 102.711 44.7807 102.892 45.3793 102.846C45.8154 102.846 46.2469 102.948 46.6831 102.864C47.0265 102.822 47.3559 102.688 47.7039 102.651C47.8477 102.646 47.9962 102.688 48.1354 102.628C48.3164 102.576 48.4695 102.423 48.669 102.456C48.7897 102.456 48.9057 102.563 49.0124 102.525C49.0541 102.442 48.966 102.539 48.9289 102.493Z" fill="#195057"/>
<path d="M74.5739 81.6221C74.5739 81.5943 74.5785 81.5757 74.5785 81.5525C74.5693 81.6453 74.5646 81.7288 74.5739 81.6221Z" fill="#B1E3E9"/>
<path d="M74.6205 78.3277C74.5741 78.0957 74.5463 77.859 74.5138 77.6224C74.4952 76.9914 74.5091 75.1678 74.5602 73.7155C74.6019 71.6322 74.7922 69.5395 74.6205 67.4608C74.6159 67.2984 74.6437 67.8784 74.6576 68.0083C74.6576 67.7949 74.6576 67.5861 74.6623 67.3727C74.6437 66.3611 74.8711 66.273 74.7179 64.1618C74.5323 62.9693 74.6019 61.8325 74.5231 60.9463C74.3235 57.8096 74.4627 59.7306 74.2771 55.9351C74.189 55.3968 74.0359 54.8771 73.8317 54.3714C73.8039 54.1487 73.7807 53.9306 73.7621 53.7079C73.7482 53.5037 73.725 53.3042 73.7018 53.1C73.6971 53.0351 73.6971 53.0211 73.7018 53.0954V53.0907C73.6832 52.8216 73.6647 52.5525 73.6461 52.2834C73.5533 51.425 73.4048 50.5712 73.2656 49.7221C73.2656 49.6525 73.2656 49.5829 73.2703 49.5133C73.2981 49.2627 73.3213 49.0075 73.3259 48.7523C73.2981 47.2304 73.1543 45.7039 72.913 44.2005C72.6531 43.3096 72.6995 41.8851 71.6091 40.1034C71.4792 39.9131 71.3122 39.7554 71.1498 39.593C70.9688 38.9666 70.5002 38.5861 70.1011 38.9155C70.0083 38.7717 69.9016 38.6325 69.7671 38.5211C69.5258 38.2799 69.2381 38.1175 68.9597 37.9365C68.6906 37.6674 68.4493 37.3658 68.1152 37.1663C67.6373 36.9111 67.2522 36.5584 66.8903 36.164C66.6304 35.9227 66.2639 35.8299 66.0133 35.5701C65.6328 35.2267 65.3544 34.7859 64.9739 34.4426C64.6909 34.1735 64.329 34.0064 64.0459 33.7373C63.4891 33.1202 62.9184 32.4613 62.1714 32.0669C62.8859 32.8047 63.3267 33.7466 63.8696 34.6003C64.4125 35.1989 64.9229 35.8021 65.3359 36.4935C65.6607 37.092 66.3056 37.3519 66.7232 37.8437C67.0109 38.2659 67.4517 38.5026 67.8693 38.7717C67.8043 39.1893 67.8647 39.6255 68.0224 40.0291C67.9343 40.0013 67.8507 39.9642 67.7672 39.9363C67.8693 39.9967 67.9667 40.0709 68.0688 40.1359C68.3287 40.7298 68.788 41.2448 69.3402 41.5279C69.368 41.5418 69.3912 41.565 69.4191 41.5789C69.6325 41.8805 69.8831 42.1589 70.1336 42.2239C70.1754 42.2981 70.2218 42.377 70.2589 42.4419C70.3888 43.0127 70.5605 43.5741 70.7368 44.1263C70.7461 44.2515 70.7554 44.4 70.7739 44.5856C70.9642 46.4463 70.8714 45.5136 70.9781 46.9613C71.0013 47.4995 71.0338 48.0378 71.0384 48.576C71.0338 48.5992 71.0338 48.6131 71.0291 48.641C70.8714 49.8752 71.0431 51.1048 71.1683 52.3344C71.1962 52.6592 71.2008 52.7288 71.2008 52.6778C71.2055 52.7752 71.2147 52.8727 71.2194 52.9701C71.2194 52.9469 71.2147 52.9191 71.2147 52.8959C71.2194 53.165 71.224 53.4341 71.2287 53.7079C71.34 54.8586 71.1869 54.7147 71.5906 56.8213C71.6416 57.0023 71.7066 57.1786 71.7762 57.3549C71.7762 59.248 71.8133 59.2619 71.9247 60.5936C71.9293 60.705 71.9386 60.821 71.9479 60.9323C71.9618 61.1319 71.9757 61.3314 71.9943 61.5309C71.9989 61.6562 72.0082 61.7815 72.0082 61.9067C72.0778 64.2546 71.9943 63.1688 72.2495 65.2986C72.2541 65.4146 72.2495 65.5306 72.2495 65.6466C72.2263 65.9621 72.2031 66.2776 72.1984 66.5885C72.2216 69.0384 72.3237 68.2775 72.3562 70.3608C72.4351 72.3467 72.4258 74.3373 72.6346 76.3139C72.6717 77.5528 72.8155 78.7824 73.2192 79.961C73.1357 80.7544 73.1821 81.5571 73.2331 82.3552C73.3491 83.8586 73.4095 84.2112 73.5162 85.4176C73.3306 85.6218 73.1403 85.8213 73.0568 86.0904C72.9362 86.3317 72.9362 86.6333 72.7506 86.8374C72.4443 87.1576 72.0639 87.4035 71.7994 87.7562C71.6045 88.0717 71.4096 88.3918 71.0384 88.5218C70.8064 88.6146 70.6951 88.8698 70.593 89.0786C70.3517 89.4173 70.3007 89.8581 70.4167 90.2525C70.3656 89.9138 70.4538 89.5704 70.7136 89.3384C70.9271 88.9208 71.4792 89.1018 71.7623 88.7631C72.101 88.3083 72.681 88.2062 73.1032 87.8675C73.3352 87.6912 73.4512 87.3664 73.5858 87.1251C73.7575 86.9349 74.0266 86.8375 74.189 86.6333C74.4906 86.225 74.4859 85.7006 74.4581 85.2134C74.5231 84.3829 74.5463 81.9979 74.5787 81.8263C74.5463 82.3459 74.5927 81.6035 74.6066 81.4133C74.6391 80.94 74.6762 80.9354 74.7829 80.2626C74.8386 79.6269 74.7551 78.9773 74.6205 78.3277Z" fill="#B1E3E9"/>
<path d="M74.5881 81.3994C74.5881 81.4087 74.5881 81.418 74.5835 81.4365C74.5789 81.469 74.5789 81.5108 74.5742 81.5525C74.5835 81.4736 74.5881 81.3901 74.5881 81.3994Z" fill="#B1E3E9"/>
<path d="M78.1142 35.7094C78.142 35.3104 78.207 34.9392 78.374 34.5773C78.3462 34.633 78.3369 34.6515 78.3879 34.5448C78.3833 34.5541 78.3787 34.568 78.374 34.5773C78.4065 34.5123 78.4622 34.401 78.4715 34.3824C78.49 34.3453 78.5596 34.2386 78.5967 34.1922C78.6246 34.1318 78.6617 34.0205 78.6942 33.9416C77.8683 33.4637 77.0934 32.893 76.2999 32.3594C75.7803 32.0114 75.5947 31.3989 75.8731 30.8328C75.8359 30.8003 75.8035 30.7678 75.7663 30.7307C75.4183 30.3874 75.1446 29.9883 74.8059 29.6403C74.4393 29.2645 74.4579 28.6891 74.8059 28.3133C75.1446 27.9421 75.7942 27.9606 76.1329 28.3133C76.4809 28.6706 76.7593 29.0882 77.1119 29.4408C77.2883 29.6171 77.4646 29.7888 77.6502 29.9512C77.6919 29.9837 77.7291 30.0162 77.7708 30.0533C77.6316 29.9373 77.7755 30.0533 77.8033 30.0765C77.9007 30.1461 78.0075 30.2064 78.1095 30.2667C78.3926 30.4384 78.6292 30.6843 78.8751 30.9024C79.0886 31.0926 79.302 31.2829 79.5108 31.4778C79.5851 31.5474 79.6547 31.617 79.7243 31.6866C79.8681 31.3757 80.0259 31.0834 80.2207 30.7864C79.998 29.5661 79.3855 28.6102 78.2766 28.7912C77.8219 28.4571 77.214 28.3086 76.6804 28.1694C76.6711 28.1694 76.6619 28.1694 76.6479 28.1694C76.5551 28.0859 76.4577 28.0024 76.3556 27.9282C75.9195 27.7611 75.4555 27.4038 74.9868 27.2925C74.8894 27.1718 74.7919 27.0512 74.6899 26.9306C74.6017 25.6314 74.1702 24.3368 73.4927 23.3206C73.1494 23.3067 72.806 23.1397 72.6529 22.8474C72.6204 22.787 72.5833 22.7314 72.5508 22.6757C72.5415 22.6664 72.5323 22.6478 72.5183 22.6339C72.3838 22.6525 72.2446 22.6525 72.1007 22.6246C71.6507 22.5411 71.2099 22.439 70.7644 22.337C70.5603 22.2906 70.3329 22.2627 70.1334 22.1978C69.9014 22.1189 69.7065 21.9843 69.5116 21.8405C69.2889 21.6734 69.0615 21.5296 68.8667 21.3533C68.8388 21.3533 68.8156 21.3486 68.7878 21.3486C68.7646 21.3858 68.7414 21.4182 68.7182 21.4554C68.7043 21.4739 68.6903 21.4971 68.6764 21.5157C68.2495 21.7662 67.9758 22.4112 67.8366 23.1397C67.8366 23.1443 67.8319 23.1443 67.8319 23.149C67.7067 23.1629 67.586 23.2186 67.4932 23.3346C67.2705 23.6547 67.1452 24.0677 67.122 24.4806C66.9596 24.8426 66.8436 25.2648 66.7926 25.7242C66.5652 27.1858 66.9318 28.6613 67.7902 29.863C68.0315 30.2853 68.3006 30.6843 68.5929 31.0694C68.7089 31.2829 68.8249 31.4917 68.9455 31.7005C69.4791 32.5078 69.7575 33.5611 70.5649 34.1411C70.8758 34.3174 71.182 34.271 71.4511 34.1133C71.5347 34.2432 71.6135 34.3731 71.6971 34.503C72.291 35.1898 72.8199 35.5053 73.27 35.561C73.915 36.0621 74.6388 36.6467 75.4323 36.4426C75.8452 36.6838 76.3417 36.8138 76.9403 36.7766C77.163 36.7442 77.3579 36.6746 77.5388 36.5818C77.7059 36.6003 77.8729 36.6096 78.0399 36.6003C78.0492 36.6003 78.0631 36.5957 78.0724 36.5957C78.0724 36.2848 78.091 35.9786 78.1142 35.7094Z" fill="#2471B6"/>
<path d="M96.5072 10.0828C96.2009 9.72089 95.7416 9.58633 95.3101 9.43321C95.0456 9.33577 94.7532 9.24761 94.4795 9.34969C94.3681 9.38681 94.2892 9.47033 94.2196 9.56313C94.0155 9.57241 93.8113 9.57705 93.6025 9.58633C93.1524 9.60489 92.7116 9.57705 92.2708 9.53993C92.0528 9.68841 91.83 9.83225 91.6166 9.98537C90.387 10.8623 89.1017 11.6279 87.8211 12.426C85.1948 14.0639 82.5593 15.7019 80.0908 17.5764C79.9377 17.7759 79.7753 17.9615 79.5804 18.1332C79.3948 18.291 79.1536 18.4302 79.0004 18.6204C78.7638 18.9127 78.6246 19.1958 78.2812 19.3767C77.9889 19.5299 77.7012 19.5391 77.4182 19.4556C76.3 20.1887 75.2003 20.9868 74.5228 22.0215C74.5043 22.2953 74.4393 22.5598 74.3187 22.8475C74.1934 23.1444 73.915 23.2883 73.618 23.3115C73.038 24.2487 73.0334 26.4435 74.2073 26.7497C74.2444 26.7404 74.2816 26.7219 74.3233 26.7079C74.4764 27.0281 74.676 27.2926 74.9312 27.4364C75.0564 27.7055 75.1864 27.9051 75.3256 28.0535C75.6132 28.0164 75.9195 28.1046 76.119 28.3134C76.467 28.6707 76.7454 29.0883 77.098 29.4409C77.2744 29.6172 77.4507 29.7889 77.6363 29.9513C77.678 29.9838 77.7152 30.0162 77.7569 30.0534C77.6177 29.9374 77.7616 30.0534 77.7894 30.0766C77.8868 30.1462 77.9936 30.2065 78.0956 30.2668C78.3787 30.4385 78.6153 30.6844 78.8612 30.9025C79.0747 31.0927 79.2881 31.283 79.4969 31.4778C79.5712 31.5474 79.6408 31.6171 79.7104 31.6867C79.9238 31.218 80.1744 30.7911 80.5409 30.3271C80.9864 29.7657 81.3436 29.2646 81.8772 28.7356C81.868 28.7495 81.8587 28.7681 81.8494 28.782C81.9793 28.6243 82.1371 28.4851 82.3412 28.3319C82.5686 28.1556 82.8934 28.1231 83.1904 28.1788C83.6219 27.7751 83.9977 27.3111 84.3828 26.8703C84.5267 26.7079 84.6705 26.5455 84.8144 26.3831C86.095 25.1582 87.3803 23.9332 88.6795 22.7268C89.872 21.5761 91.2686 20.5553 92.0528 19.0612C92.0667 19.038 92.076 19.0102 92.0853 18.987C92.1734 18.9823 92.2569 18.9684 92.3404 18.9499C92.3822 18.871 92.4193 18.7967 92.4611 18.7179C92.6328 18.4163 92.8648 18.1611 93.0921 17.9012C93.3195 17.6414 93.5608 17.3955 93.7974 17.1403C93.918 16.9686 94.0387 16.8015 94.1733 16.6438C94.3913 16.3839 94.6326 16.1519 94.8739 15.9107C95.1476 15.6369 95.3796 15.3167 95.6534 15.0523C95.6905 15.0198 95.7276 14.9873 95.7694 14.9548C95.8483 14.8481 95.9364 14.7507 96.0246 14.6764C96.0571 14.3887 96.1963 14.1057 96.4376 13.9201C96.5118 13.6371 96.5675 13.3447 96.5953 13.0524C96.6139 12.9225 96.6139 12.7926 96.6185 12.6627C96.767 12.6673 96.9201 12.6487 97.0779 12.6023C97.8156 11.8414 97.064 10.7185 96.5072 10.0828Z" fill="#ABABAB"/>
<path d="M52.6666 90.197C52.6586 90.205 52.6586 90.213 52.6666 90.197V90.197Z" fill="#2471B6"/>
<path d="M71.7207 80.9865C71.7393 80.903 71.7578 80.8148 71.7718 80.7313C71.897 79.7291 71.8738 78.7315 71.7532 77.7385C71.9156 76.7688 71.9991 75.7712 71.9295 74.7921C72.0548 73.5904 72.0548 72.384 71.9249 71.1868C72.1105 70.4537 72.1105 69.6742 72.0362 68.8993C72.245 66.4865 72.4399 64.0691 72.3935 61.6424C72.3889 59.8513 72.1383 58.0881 71.9156 56.3157C71.9295 56.0094 71.9388 55.7728 71.9434 55.5918C71.9898 55.1649 72.0409 54.7241 72.0873 54.2555C72.2682 52.8449 72.4167 51.3369 71.7718 50.0192C71.5444 49.6573 71.331 49.416 71.1222 49.2628C71.1732 48.5529 71.0015 46.8918 70.519 45.7828C70.505 45.0033 70.3334 44.2238 70.055 43.5742C69.7162 42.7576 69.0156 42.1776 68.3614 41.6115C67.6097 40.9341 66.8209 40.3077 66.0182 39.6905C65.9996 39.4725 65.9439 39.259 65.8511 39.0688C65.2386 38.1872 64.5334 37.3612 63.7817 36.5864C63.8234 36.1781 63.7956 35.7605 63.726 35.4032C63.6378 34.8742 63.3502 34.3916 62.914 34.0808C62.5706 33.872 62.1762 33.756 61.8004 33.6168C61.689 33.5796 61.5591 33.5425 61.4246 33.5008C61.4153 33.4868 61.4014 33.4776 61.3921 33.4637C61.5962 32.9161 61.5081 32.0345 60.9327 32.1505C60.427 32.3176 59.9166 32.4475 59.4015 32.5635C58.441 32.5867 57.3692 32.4661 56.4783 32.4475V32.4521C56.4273 32.4568 56.3762 32.4753 56.3345 32.5125C56.2742 32.5635 56.2324 32.6285 56.1999 32.6981C55.6246 32.5867 55.0121 32.5357 54.4274 32.596C54.2465 32.5913 54.0655 32.5913 53.8846 32.596C53.8753 32.5821 53.8706 32.5681 53.8614 32.5588C53.235 31.9928 52.3255 32.2433 51.5924 32.4243C51.3233 32.4846 51.0495 32.5403 50.7758 32.596C50.0241 32.5125 49.2538 32.5403 48.7295 32.8558C48.6135 32.8604 48.4975 32.8697 48.3769 32.8697C48.3026 32.8697 48.2377 32.879 48.1727 32.8929C48.1031 32.828 48.0289 32.7769 47.9407 32.7445C47.3746 32.7213 47.1055 33.0043 46.8457 33.0182C46.1079 33.1853 45.347 33.3662 45.217 34.155C45.1706 34.2571 45.1428 34.3777 45.1289 34.503C45.1057 34.5123 45.0871 34.5216 45.0639 34.5308C45.0825 34.5308 45.1057 34.5262 45.1242 34.5216C45.1242 34.5401 45.1242 34.5541 45.1242 34.5726C44.985 34.5912 44.8366 34.619 44.7484 34.7211C44.6649 34.8464 44.6046 35.0041 44.5767 35.1665C42.781 35.5795 40.7023 39.6256 40.2894 40.8598C39.8068 42.1497 39.1804 43.5325 38.9902 44.9244C38.967 44.943 38.9438 44.9616 38.9252 44.9801C37.5378 45.6715 35.7097 47.4486 35.1854 48.1075C34.429 49.0169 33.6542 49.9171 32.9767 50.8915C32.8746 50.9704 32.7772 51.0539 32.689 51.156C31.8863 52.0051 31.8678 53.4157 32.2436 54.4689C32.3039 54.6638 32.3921 54.8309 32.4988 54.9654C32.4153 55.6104 32.3874 56.2461 32.5127 56.8585C32.5777 57.0952 32.7215 57.4107 32.935 57.5777C32.9303 57.6705 32.921 57.7633 32.9164 57.8561C32.703 60.3896 32.8143 60.9789 32.8978 62.2873C32.9628 66.171 32.9721 65.308 33.1809 68.3147C33.2412 68.6859 33.334 69.0524 33.4222 69.419C33.45 69.586 33.4732 69.7577 33.4918 69.9248C33.4918 69.9712 33.4964 70.0222 33.4964 70.0686C33.4593 70.2171 33.4222 70.3609 33.385 70.4908C33.1994 71.2472 32.9953 72.0035 32.9025 72.7784C32.5313 75.9382 32.9118 79.1491 33.9279 82.1512C33.9279 82.1604 33.9279 82.1651 33.9326 82.1744C34.3362 84.267 34.4476 86.5777 35.7561 88.3409C35.9046 88.5636 36.0902 88.7307 36.2897 88.8606C36.3175 89.1715 36.4103 89.4684 36.5866 89.7236C37.0367 90.067 37.6306 90.067 38.2106 90.0438C38.2431 90.0763 38.271 90.118 38.3081 90.1459C38.6607 90.364 39.0922 90.3269 39.5052 90.2294C39.8764 90.5078 40.2662 90.7677 40.6652 90.9765C41.3055 91.3105 42.0015 91.3894 42.665 91.2873C42.7346 91.5843 42.9713 91.7513 43.2868 91.8116C43.9039 92.039 44.5953 92.0065 45.2356 91.9787C45.3702 91.9137 45.4537 91.7931 45.4954 91.6539C45.565 91.6678 45.6346 91.6864 45.7042 91.7003C46.043 91.7142 46.5626 91.9184 46.7761 91.5657C46.7807 91.5611 46.7807 91.5518 46.7854 91.5472C47.2586 91.5147 48.5207 91.8024 48.4604 91.1852C49.6065 91.1389 50.7386 90.944 51.8058 90.5449C51.9775 90.4985 52.1492 90.4475 52.3162 90.3872C53.0818 90.3918 53.8428 90.3547 54.5991 90.2573C55.0538 90.2433 55.5132 90.2201 55.9679 90.1784C57.4388 90.1969 58.9097 90.1598 60.3713 90.002C60.4177 90.0113 60.4687 90.0252 60.5151 90.0345C62.3015 90.299 64.1297 90.0809 65.9022 89.784C66.0182 90.1505 66.2455 90.5774 66.6585 90.6099C66.8905 90.5728 67.1132 90.5171 67.3266 90.4428C67.6607 90.5774 68.0969 90.5032 68.6351 90.0902C68.8486 89.8953 69.0202 89.6633 69.1826 89.4221C69.5956 89.487 70.0178 89.1576 70.3937 88.6936C71.3263 87.9048 71.9527 86.7912 72.0641 85.5662C72.1476 84.8331 72.1151 84.0629 71.9063 83.3483C72.1986 82.9678 72.4167 82.5502 72.3842 82.0491C72.3889 81.6176 72.1383 81.1582 71.7207 80.9865ZM53.815 81.1396C53.8242 81.135 53.8382 81.135 53.8474 81.1304C53.8985 81.1118 53.9078 81.1118 53.8846 81.1211C53.9263 81.1025 53.9634 81.0886 54.0052 81.07C54.163 81.019 54.3857 81.0376 54.5527 81.0515C54.7894 81.07 55.0121 81.1628 55.1977 81.3067C55.2905 81.2835 55.3833 81.2696 55.4761 81.2603C55.8983 81.2139 56.3623 81.6825 56.3206 82.1048C56.3206 82.114 56.3159 82.1233 56.3159 82.1326C56.1674 82.1651 56.0236 82.1883 55.8751 82.2161C55.4854 82.1372 55.091 82.0723 54.6919 82.0259C54.2186 81.8774 53.7454 81.7336 53.2674 81.6036C53.1793 81.5665 53.0958 81.5294 53.003 81.4923C52.9798 81.483 52.9519 81.4691 52.9287 81.4598C52.9566 81.4459 52.9844 81.4366 53.0122 81.4227C53.2721 81.2974 53.5041 81.1211 53.815 81.1396ZM71.6279 82.4249C71.6047 82.4481 71.5769 82.4667 71.5537 82.4852C71.4934 82.3832 71.4284 82.2811 71.3588 82.1836C71.4469 81.9795 71.5212 81.7753 71.5815 81.5619C71.6929 81.6268 71.781 81.7382 71.8646 81.831C72.0873 82.0723 71.8089 82.2672 71.6279 82.4249Z" fill="#2471B6"/>
<path d="M52.3065 89.8304C52.3065 89.8212 52.3065 89.8119 52.3065 89.8026C52.4411 89.8304 52.5757 89.8629 52.7149 89.8768C52.5896 89.8397 52.4782 89.7794 52.3715 89.7052C52.339 89.6912 52.3065 89.6727 52.2741 89.6587C52.2416 89.5752 52.1905 89.5103 52.1024 89.4824C52.0699 89.4917 52.0374 89.4963 52.0049 89.5056C51.8379 89.3943 51.6755 89.269 51.4945 89.1947C51.012 88.9767 50.4737 88.9906 49.9633 88.8839C49.8659 88.8607 49.7592 88.8143 49.6478 88.7632C49.5504 88.4524 49.3787 88.1786 49.0771 88.0394C48.808 87.9791 48.5249 88.0208 48.2419 88.0394C48.1816 88.0162 48.1259 87.9884 48.0749 87.9512C47.648 87.6404 47.2721 87.2274 46.771 87.0232C46.4045 86.898 45.9869 86.9072 45.6945 86.6195C44.6459 85.4271 43.3606 84.1325 42.2424 83.1813C41.6763 82.4157 41.1798 81.5805 40.5117 80.6896C40.3307 80.388 40.1033 79.6642 39.6254 79.0192C39.5837 78.9589 39.5419 78.8986 39.5001 78.8383C38.7206 77.4788 38.8969 77.6551 38.4051 76.3419C38.1221 75.697 38.1638 74.7504 37.7462 73.3306C37.1894 71.9386 37.2544 71.5674 36.7997 69.6975C36.164 66.9599 35.8531 64.1666 34.9576 60.4407C34.656 59.2621 34.6049 58.4733 34.3312 56.7472C34.2291 56.325 34.1456 55.9027 34.076 55.4759C34.076 55.4712 34.076 55.4619 34.076 55.4573C34.076 55.3599 34.076 55.2624 34.076 55.1696H34.0574C34.0389 54.9237 34.0203 54.6824 33.9971 54.4365C33.9739 54.2927 33.9414 54.1581 33.8997 54.0375C33.8533 53.4853 33.8208 52.9331 33.8254 52.381C33.8811 52.1351 33.9414 51.8845 34.0017 51.6386C34.1317 51.1096 34.6421 49.4114 33.7141 49.4531C33.3707 49.5831 33.1944 49.9821 33.0459 50.2976C32.9577 50.5343 32.8881 50.7755 32.8325 51.0168C32.5541 51.3509 32.6005 51.917 32.6237 52.3299C32.6283 52.4088 32.6283 52.4831 32.6329 52.5619C32.6237 52.7336 32.619 52.9053 32.619 53.0723C32.5912 53.2626 32.568 53.4482 32.568 53.6384C32.4659 53.7823 32.3777 53.9679 32.3081 54.2138C32.2525 54.5339 32.22 54.8495 32.2014 55.1696H32.1782C32.1782 55.2903 32.1829 55.4063 32.1875 55.5269C32.1782 56.0002 32.1921 56.4735 32.2339 56.9468C32.2617 57.5732 32.2942 58.2042 32.336 58.8306C32.2757 59.9952 32.2803 61.1645 32.3731 62.3291C32.452 63.1365 32.5216 63.9531 32.5958 64.7698C32.6005 66.6722 32.6886 68.57 32.9021 70.4584C33.0645 71.4236 33.2454 72.3933 33.4542 73.3584C33.3011 73.4884 33.1665 73.6693 33.0505 73.906C32.4845 75.0799 32.4056 76.4162 32.5123 77.6968C32.5726 78.7919 32.7397 79.8776 32.9624 80.9541C33.0459 81.9378 33.2315 82.9122 33.6027 83.8216C33.612 83.8402 33.6213 83.8541 33.6352 83.8727C33.8904 84.8192 34.1734 85.6776 34.359 86.2901C34.6885 87.2784 35.3241 88.1925 36.1408 88.8607C36.628 89.4639 37.2173 89.9789 37.9133 90.3315C38.2009 90.4429 38.535 90.5682 38.8505 90.5775C39.0686 91.0554 39.695 91.3848 40.2518 91.408C40.4281 91.4266 40.6045 91.4359 40.7808 91.4312C42.0707 91.8952 43.6344 92.1504 44.0891 91.125C44.2979 91.1807 44.5021 91.2178 44.7016 91.1667C44.7155 91.1482 44.7201 91.1296 44.7294 91.1111C45.4765 91.292 46.2606 91.3292 47.0401 91.2781C47.4902 91.2967 47.9403 91.292 48.3904 91.241C48.7245 91.2039 49.1142 91.1343 49.3369 90.8652C50.2742 90.8188 51.2393 90.6888 52.0328 90.2991C52.056 90.2991 52.0792 90.2944 52.1024 90.2944C52.1024 90.2852 52.1024 90.2759 52.1024 90.2666C52.1441 90.2434 52.1859 90.2295 52.2277 90.2063C52.2416 90.1831 52.2509 90.1599 52.2601 90.132C52.2694 90.132 52.2787 90.132 52.288 90.132C52.3065 90.1367 52.3251 90.132 52.339 90.1367V90.132C52.3529 90.132 52.3669 90.132 52.3854 90.132C52.4736 89.9743 52.4179 89.8861 52.3065 89.8304Z" fill="#243854"/>
<path d="M60.5986 61.2572C60.3759 60.7514 59.9676 60.5844 59.615 60.7561C59.4526 59.9394 59.267 58.399 58.5756 57.805C58.0234 56.7982 57.4434 56.478 56.933 56.6358C56.715 55.8052 56.4598 54.9886 56.121 54.1998C56.0793 54.1116 56.0282 54.0234 55.9818 53.9399C55.9679 53.8982 55.9586 53.8564 55.9447 53.81C55.9215 53.694 55.889 53.5641 55.838 53.4434C55.8334 53.4295 55.8287 53.4156 55.8241 53.4017C55.5039 52.469 55.4111 51.4158 54.794 50.6177C54.5481 50.3764 54.3207 50.2604 54.1119 50.2233C54.0748 50.1305 54.0377 50.0377 54.0006 49.9449C53.8985 49.3046 53.7964 48.6689 53.699 48.0332C53.685 47.8894 53.6665 47.7502 53.6433 47.611C53.6386 47.5692 53.634 47.5321 53.6294 47.4903C53.634 47.5089 53.634 47.5321 53.6386 47.5646C53.4066 46.0287 52.8823 44.8177 51.6852 45.2167C50.8778 45.9174 50.5762 46.8871 50.5298 47.9543C50.321 48.409 50.1494 48.8777 49.9916 49.1839C49.9034 49.3602 49.8246 49.5598 49.755 49.7639C49.5276 49.8057 49.2956 49.931 49.0868 50.163C48.943 50.3671 48.813 50.5759 48.6878 50.7894C48.0428 50.9842 47.4489 51.8937 47.319 53.295C47.2911 53.6012 47.2586 53.9121 47.2308 54.223C47.0081 54.9886 46.8178 55.7727 46.6508 56.5522C46.3817 57.587 46.1033 58.617 45.8295 59.6518C45.6068 60.2921 45.4815 60.9602 45.4908 61.6377C45.4862 61.6841 45.4862 61.7305 45.4862 61.7815C45.333 62.445 45.2495 63.1318 45.1567 63.7814C44.9386 66.0596 45.1706 68.3842 45.797 70.5975C45.811 70.6578 45.8202 70.7135 45.8388 70.7738C46.1868 72.6345 46.8039 74.4673 47.9454 75.9985C48.2562 76.4996 48.6182 76.8337 48.9986 77.0146C49.3142 77.6921 49.7318 78.3231 50.1865 78.917C50.5252 79.4089 50.9057 79.8682 51.3975 80.2116C51.829 80.49 52.2234 80.6246 52.5807 80.6524C52.5807 80.6524 52.5854 80.6524 52.5854 80.6478C52.6039 80.6338 52.6225 80.6199 52.6503 80.5967C52.7338 80.5364 52.8127 80.4668 52.9009 80.4158C53.0586 80.323 53.2396 80.2534 53.4113 80.193C53.4762 80.1698 53.5412 80.1466 53.6062 80.1281C53.6479 80.1188 53.7036 80.1002 53.699 80.1049C53.8706 80.0306 54.0377 79.9425 54.2094 79.8822C54.5017 79.7754 54.8126 79.7058 55.1188 79.6316C55.439 79.5574 55.7638 79.4878 56.0793 79.395C56.1535 79.3718 56.2231 79.3532 56.2974 79.3254C56.3113 79.3207 56.3994 79.2882 56.4319 79.279C56.4644 79.265 56.5526 79.2233 56.5665 79.214C56.6268 79.1815 56.6871 79.149 56.7474 79.1119C56.7938 79.0423 56.8449 78.9727 56.8866 78.8938C57.0862 78.8382 57.2764 78.7175 57.4063 78.5273C57.4945 78.4066 57.5687 78.2814 57.6383 78.1561C57.8286 77.9751 58.0049 77.7802 58.1766 77.5807C58.4828 77.5158 58.7334 77.2374 58.8818 76.9682C59.0721 76.6852 59.202 76.365 59.2994 76.0356C59.5129 75.9474 59.7217 75.7618 59.9026 75.437C60.4455 74.5926 60.5662 73.6553 60.5105 72.7041C60.9327 72.1009 61.0951 71.3863 61.123 70.6532C61.2807 70.1382 61.2714 69.5535 61.3225 69.0246C61.4849 66.2452 61.3132 63.1735 60.5986 61.2572Z" fill="#3D3D3D" stroke="#ABABAB" stroke-miterlimit="10"/>
<path d="M54.5018 76.6946C54.2234 76.9034 53.8986 76.8152 53.6109 76.6667C53.6294 76.5507 53.6387 76.4301 53.6434 76.3048C53.6898 76.3187 53.7083 76.3234 53.6666 76.2677C53.6619 76.2584 53.6526 76.2538 53.6434 76.2491C53.648 75.9661 53.6202 75.6691 53.5413 75.4C53.0077 73.9987 52.0379 72.8016 51.3837 71.4514C50.3443 69.5954 49.9546 68.4539 49.755 67.6094C49.7504 67.5816 49.7411 67.563 49.7365 67.5445C49.7365 67.5213 49.7272 67.4749 49.7179 67.396C49.7133 67.3589 49.7133 67.3403 49.7133 67.3264C49.7086 67.28 49.7086 67.2475 49.7086 67.2243C49.8246 66.3195 49.6483 64.779 48.66 65.0342C48.6322 65.0528 48.6136 65.076 48.5904 65.0946C48.5486 65.1038 48.5022 65.1178 48.4605 65.1363C48.1032 65.3869 47.9547 65.8138 47.8387 66.2128C47.5464 67.0805 47.3608 67.9806 47.333 68.8994C47.268 70.129 47.8062 71.1776 48.493 72.1566C48.7528 72.7923 49.0498 73.3352 49.2678 73.6275C49.4534 73.9802 49.6158 74.3514 49.8525 74.6762C50.1448 74.9778 50.1587 74.8803 50.3118 75.1958C50.6877 76.0403 51.8802 76.9776 52.2606 77.2838C52.8406 78.0309 53.3093 77.6968 53.5227 77.0286C53.6109 77.0379 53.699 77.0472 53.7872 77.0611C54.061 77.0658 54.3486 76.9405 54.511 76.7131C54.5389 76.6621 54.5806 76.6296 54.5018 76.6946Z" fill="#8C8C8C" stroke="#ABABAB" stroke-miterlimit="10"/>
<path d="M73.1357 30.7354C73.8735 31.1622 74.6484 31.487 75.4325 31.8118" stroke="#ABABAB" stroke-miterlimit="10"/>
<path d="M73.7715 30.2388C74.203 30.6285 74.7923 30.8095 75.3398 30.9765" stroke="#ABABAB" stroke-miterlimit="10"/>
<path d="M78.1146 35.7093C78.1424 35.3103 78.2074 34.9391 78.3744 34.5771C78.3466 34.6328 78.3373 34.6514 78.3883 34.5447C78.3837 34.5539 78.3791 34.5679 78.3744 34.5771C78.4069 34.5122 78.4626 34.4008 78.4719 34.3823C78.4904 34.3451 78.56 34.2384 78.5971 34.192C78.6343 34.1039 78.6946 33.9322 78.7178 33.8626C78.7363 33.7976 78.7549 33.728 78.7781 33.6631C78.8523 33.4357 78.9405 33.2408 79.1075 33.0645C79.14 32.9346 79.1911 32.8139 79.2607 32.6933C79.321 32.5077 79.3999 32.336 79.5159 32.169C79.6411 31.8581 79.7711 31.5658 79.9195 31.2874C79.9056 31.2781 79.8917 31.2642 79.8778 31.2503C79.6133 29.7794 78.6203 29.1947 77.4325 28.4663C77.4279 28.4616 77.4232 28.457 77.4186 28.4523C76.1194 27.2181 76.0776 27.3619 75.3445 26.6056C75.1218 26.3226 74.8805 26.0674 74.5418 25.9978C74.4629 25.9792 74.3887 25.9792 74.3144 25.9792C73.8458 25.5013 73.2194 25.2507 72.6811 25.8725C72.5327 26.0859 72.412 26.3087 72.3099 26.5407C72.1336 26.3319 71.9619 26.1277 71.7949 25.9189V25.9235C71.7067 25.8261 71.6 25.7472 71.4655 25.7101C70.5375 25.5616 70.3983 27.2691 70.4957 27.9187C70.6581 28.9535 71.4237 29.7655 71.9295 30.6563C72.644 31.7931 73.4978 32.8418 74.5279 33.6955C75.3584 34.6421 76.3096 35.4866 77.4093 36.0991C77.6506 36.2707 77.8733 36.3775 78.0821 36.4378C78.0821 36.1826 78.096 35.9367 78.1146 35.7093Z" fill="#7A0000" stroke="#ABABAB" stroke-miterlimit="10"/>
<path d="M78.7038 33.0645C78.7734 33.1573 78.843 33.2361 78.9173 33.3197C78.9683 33.2315 79.024 33.148 79.0982 33.0691C79.1307 32.9392 79.1817 32.8185 79.2513 32.6979C79.3117 32.5123 79.3905 32.3406 79.5065 32.1736C79.7757 31.5008 80.0541 30.944 80.5459 30.3269C80.9681 29.7933 81.3161 29.3153 81.8033 28.8189C81.7105 27.7609 81.344 26.7355 80.4206 26.1369C80.3603 26.0998 80.3046 26.0673 80.2489 26.0349C79.8081 25.5569 79.3256 25.2461 78.8616 25.2414C78.6296 25.0141 78.3697 24.8331 78.0867 24.6985C77.9197 24.5408 77.7573 24.4155 77.6088 24.3181C77.5067 24.151 77.3721 23.9469 77.284 23.8309C76.82 23.2137 75.7017 22.9585 75.3259 23.7891C75.2285 23.9654 75.1403 24.1464 75.0707 24.3366C74.732 24.2856 74.4443 24.5315 74.2773 25.2925C74.2633 25.3203 74.2633 25.3528 74.2494 25.3806C74.1659 25.2646 74.0453 25.2646 73.8643 25.4688C73.8086 25.5755 73.7761 25.6869 73.7529 25.7982C73.572 25.8725 73.6045 26.1462 73.7297 26.4478C73.7437 26.5963 73.7715 26.7401 73.7993 26.884C73.8086 27.1438 73.855 27.3665 73.971 27.4269C74.0685 27.6821 74.1705 27.9465 74.384 28.0857C74.5325 28.1275 74.6253 27.9419 74.6624 27.8213C74.6763 27.7702 74.6763 27.7192 74.6763 27.6635C74.7969 27.8537 74.9454 28.0069 75.131 28.0904C75.1728 28.2017 75.2099 28.3177 75.2563 28.4291C75.5347 29.0277 75.8873 29.5845 76.2771 30.1181C76.5973 30.8094 77.1262 31.3569 77.7387 31.8209C77.7897 31.872 77.8361 31.923 77.8872 31.9741C78.0913 32.3824 78.3697 32.7861 78.7038 33.0645Z" fill="#ABABAB" stroke="#ABABAB" stroke-miterlimit="10"/>
<path d="M78.7409 33.7744C78.7502 33.7373 78.7641 33.7001 78.7734 33.663C78.8476 33.4357 78.9358 33.2408 79.1028 33.0645C79.1121 33.0366 79.1214 33.0041 79.1307 32.9763C79.14 32.9299 79.1446 32.8881 79.1539 32.8417C79.1632 32.8417 79.1724 32.8464 79.1771 32.8464C79.2003 32.7953 79.2281 32.7443 79.256 32.6932C79.3163 32.5076 79.3952 32.336 79.5112 32.1689C79.5854 31.9833 79.6643 31.8024 79.7432 31.6307C79.6875 31.6353 79.6272 31.6539 79.5808 31.6632C79.5576 31.6678 79.5344 31.6725 79.5158 31.6725C79.2884 31.3523 78.9265 31.111 78.56 31.06C77.8872 30.531 76.5601 29.8721 75.9662 30.2201C75.7064 30.0809 75.4465 29.9417 75.182 29.8165C75.0707 29.7701 74.9593 29.7051 74.848 29.7654C74.732 29.7933 74.6392 29.8675 74.5696 29.9603C74.551 29.951 74.5324 29.9417 74.5139 29.9325C74.3422 29.8629 74.1612 29.6912 73.971 29.719C73.7576 29.8211 73.6833 30.0624 73.674 30.3083C73.043 29.9325 72.4862 29.4081 72.0732 28.8049C72.4769 29.6958 73.0755 30.5217 73.8272 31.1528C73.9988 31.2827 74.1705 31.408 74.3376 31.5286C74.4164 31.8766 74.5788 32.2014 74.8526 32.4473C75.0846 32.6515 75.3166 32.8046 75.5486 32.9252C76.2028 33.6491 77.0195 34.3544 77.7062 33.6676C77.7155 33.6491 77.7248 33.6305 77.734 33.612C77.8222 33.6445 77.9057 33.6816 77.9892 33.7233C78.3187 33.9136 78.56 33.8997 78.7409 33.7744Z" fill="#7A0000" stroke="#ABABAB" stroke-miterlimit="10"/>
<path d="M78.8939 29.9048C78.583 29.5197 78.2258 29.3805 77.8871 29.413C77.6365 29.0511 77.3349 28.7541 77.0008 28.6195C76.8616 28.1787 76.6621 27.7611 76.393 27.3946C75.8037 26.3831 74.8061 25.7056 74.0219 24.8426C73.9198 24.6384 73.8178 24.4343 73.7203 24.2301C73.5765 23.8543 73.4048 23.4923 73.1543 23.1722C72.7877 22.7499 72.4165 22.6479 72.0824 22.7407C71.224 22.3138 70.4955 23.0794 70.1754 24.1837C70.1243 24.36 70.0919 24.5363 70.0594 24.7034C69.5675 24.9029 69.317 25.7195 69.2566 26.2114C69.0386 27.5106 69.6139 28.7123 70.3703 29.7285C70.4677 29.8909 70.6069 30.0951 70.7739 30.3503C71.043 30.972 71.3447 31.5799 71.6973 32.1599C71.9247 32.5543 72.1474 33.0786 72.5696 33.2781C72.7691 33.3291 72.9408 33.3199 73.0986 33.2827C73.2192 33.8859 73.4698 34.4474 73.8038 34.7907C74.1797 35.1666 74.6854 35.2083 75.1866 35.1202C75.2283 35.1248 75.2655 35.1202 75.3072 35.1202C75.3397 35.1666 75.3675 35.213 75.4046 35.2547C75.7944 35.7373 76.5229 35.8115 77.0379 35.4867C77.2514 35.3151 77.3767 35.0691 77.4323 34.8047C77.437 34.7861 77.4416 34.7675 77.4463 34.749C77.6829 34.8464 77.9288 34.9253 78.1794 34.9717C78.6527 34.9903 78.9914 34.5634 79.2048 34.1875C79.7848 32.8466 79.743 31.1251 78.8939 29.9048Z" fill="#243854"/>
<path d="M84.1698 24.4805C84.193 24.4249 84.2208 24.3692 84.244 24.3181C84.2069 24.3645 84.1698 24.4156 84.128 24.462C84.077 24.4341 84.0167 24.4202 83.9471 24.4249C84.0538 24.0908 84.1002 23.7474 84.0213 23.4087C83.8867 23.0004 83.6686 22.9725 83.4877 23.1117C83.5619 22.8194 83.5851 22.5039 83.5944 22.2812C83.5759 22.1049 83.5527 21.9564 83.5295 21.8218C84.3739 20.3231 85.1627 18.7873 86.216 17.4277C84.9632 18.3789 83.9888 19.6549 82.9866 20.8567C82.9448 20.9263 82.8938 20.9913 82.8381 21.0516C82.4112 21.2465 81.9147 22.0909 81.6224 22.7823C81.1863 23.7057 80.8754 24.5826 80.5831 25.4271C80.365 26.0906 80.3743 27.4548 81.0842 27.6961C81.061 27.7517 81.0378 27.8028 81.0146 27.8585C80.9867 27.9095 80.9589 27.9559 80.9311 28.0069C80.9125 28.0301 80.8939 28.058 80.8754 28.0812C80.7872 28.2436 80.6712 28.406 80.6295 28.5869C80.4949 28.8514 80.3696 29.1159 80.2443 29.385C80.2397 29.3572 80.2397 29.3247 80.2351 29.3015C80.1144 28.689 79.6597 28.4292 79.1307 28.2343C79.2096 27.0418 78.8245 25.7426 77.9754 25.6081C77.6645 25.6591 77.4186 25.8679 77.2283 26.1695C77.2423 26.137 77.2562 26.1045 77.2655 26.0674C77.2237 26.1602 77.1634 26.2577 77.1031 26.3551C77.1309 26.1092 77.2098 25.8679 77.4 25.7101C77.1866 25.7937 77.0891 25.9978 77.0242 26.2113C77.0056 26.137 76.987 26.0581 76.9638 25.9839C76.8386 25.6869 76.7133 25.1951 76.4024 25.6684C76.2493 25.8308 76.1472 26.0257 76.0776 26.2391C75.9059 25.8818 75.6415 25.9189 75.5904 26.434C75.4605 26.4061 75.3259 26.3969 75.2331 26.4247C75.1171 26.5407 75.1264 26.7541 75.1867 26.898C75.2702 27.0372 75.4791 27.0372 75.6136 27.1161C75.6507 27.1346 75.6925 27.1485 75.7296 27.1671C75.8178 27.362 75.9431 27.5383 76.0776 27.7053C76.2354 28.0997 76.5648 28.4617 76.8525 28.573C76.9731 29.4221 77.349 30.1506 77.9707 30.2481C78.1192 30.2249 78.2538 30.1599 78.3744 30.0717C78.4672 30.1413 78.5693 30.2063 78.6714 30.262C79.0611 30.5265 79.3859 30.893 79.8221 31.0786C79.8639 31.1018 79.9056 31.0647 79.9242 31.0229C80.1237 30.6981 80.2675 30.2527 80.2119 29.8537C80.3139 29.7052 80.4206 29.5567 80.5227 29.4036C80.5181 29.45 80.5135 29.4917 80.5135 29.5381C80.481 29.7841 80.4902 30.0346 80.5738 30.2805C80.6294 30.4058 80.6851 30.4893 80.7455 30.5404C80.9311 30.8281 81.228 31.0183 81.5018 30.6889C81.7477 30.3409 81.9008 30.0532 82.0168 29.8861C82.4947 29.1298 83.9471 28.4709 84.128 27.3713C84.1419 27.13 84.1327 26.9212 84.1095 26.7449C84.3971 26.4201 84.5642 26.0257 84.5456 25.5756C84.5503 25.2601 84.4621 24.6708 84.1698 24.4805ZM76.6344 26.3551C76.7179 26.4989 76.7736 26.666 76.8154 26.8423C76.8061 26.8655 76.7968 26.8887 76.7875 26.9119C76.7087 26.8145 76.6019 26.7402 76.4813 26.6892C76.4813 26.6753 76.4813 26.6706 76.4859 26.6567C76.4859 26.6567 76.4859 26.6567 76.4906 26.6474C76.4952 26.6242 76.5045 26.5964 76.5138 26.5732C76.5138 26.5685 76.5184 26.5685 76.5184 26.5639C76.5184 26.5593 76.5184 26.5593 76.5231 26.5546C76.5463 26.485 76.5927 26.4201 76.6344 26.3551ZM80.1051 30.1089C80.0819 30.3177 79.9659 30.4847 79.8453 30.6471C79.8035 30.6146 79.7107 30.5729 79.6783 30.5357C79.5576 30.4058 79.4277 30.2898 79.2978 30.1645C79.3534 30.197 79.4045 30.2295 79.4648 30.2527C79.6133 30.3176 79.7386 30.3177 79.8499 30.2805C79.8128 30.3733 79.7711 30.4615 79.7339 30.5543C79.8175 30.4429 79.8963 30.3223 79.9752 30.2063C80.0309 30.1645 80.0773 30.1042 80.1144 30.0393C80.1098 30.0671 80.1098 30.0857 80.1051 30.1089ZM83.1629 23.7289C83.0376 24.0351 82.8613 24.5733 82.5783 24.861C82.4391 24.9817 82.2813 25.1069 82.1189 25.2137C82.1607 25.093 82.2024 24.9817 82.2395 24.8842C82.3555 24.5965 82.5226 24.1789 82.6989 23.7799C82.736 23.8031 82.7685 23.8263 82.8056 23.8449C82.9541 23.8449 83.0701 23.7938 83.1675 23.7103C83.1629 23.7103 83.1629 23.7196 83.1629 23.7289Z" fill="#ABABAB"/>
<path d="M75.7341 21.7523C75.3582 21.8729 75.0149 22.0724 74.6762 22.2766C74.6066 22.2302 74.5184 22.2163 74.3978 22.2673C74.2214 22.3926 74.0776 22.555 73.9384 22.722C73.6136 22.8195 73.2517 22.9262 73.0661 23.2231C73.0522 23.2603 73.0382 23.3067 73.0243 23.3531C72.8248 23.3345 72.6624 23.3948 72.6206 23.6547C72.5 24.1465 72.783 24.2439 73.1171 24.1975C73.1403 24.2254 73.1682 24.2439 73.196 24.2671C73.2378 24.4249 73.3213 24.5548 73.479 24.6012C73.5486 24.578 73.609 24.5409 73.6646 24.4945C73.6693 24.5131 73.6693 24.5316 73.6786 24.5455C74.3978 24.2161 75.0149 23.4969 75.6738 23.0097C75.8408 22.8334 76.0821 22.7499 76.1563 22.49C76.263 22.1884 76.1656 21.5759 75.7341 21.7523Z" fill="#ABABAB"/>
<path d="M96.1406 11.1174C96.0292 10.9318 95.8761 10.7833 95.7044 10.6581C95.3796 10.3193 94.9295 10.0966 94.5398 9.84141C94.2614 9.70221 93.9505 9.45165 93.6257 9.52125C93.5143 9.57693 93.4308 9.65117 93.3566 9.73933C93.2313 9.77645 93.1339 9.84141 93.0457 9.91101C93.0364 9.85533 93.0225 9.79965 93.0179 9.73933C93.0132 9.79965 93.0132 9.85997 93.0132 9.92029C92.9575 9.80429 92.8972 9.68829 92.8462 9.56765C92.874 9.71613 92.9111 9.86925 92.9529 10.0131C92.9483 10.0224 92.9436 10.0317 92.9343 10.0363C92.9251 9.99453 92.9158 9.95277 92.9019 9.91565C92.9019 9.96669 92.9065 10.0177 92.9111 10.0688C92.8369 10.1662 92.7719 10.2683 92.7348 10.3936C92.7302 10.3889 92.7302 10.3843 92.7255 10.3843C92.7255 10.3889 92.7302 10.3936 92.7302 10.4029C92.5585 11.0014 92.7859 11.832 93.0086 12.3238C93.3102 13.1219 94.1407 13.5209 94.9388 13.6648C95.2079 13.6601 95.5374 13.7205 95.7555 13.5395C95.8065 13.4838 95.8483 13.4189 95.8854 13.3539C96.4561 12.8064 96.4329 11.7902 96.1406 11.1174Z" fill="#5C5C5C"/>
<path d="M48.7804 74.3791C48.6691 73.6506 48.4046 72.9592 48.0659 72.305C47.8385 71.428 47.1472 69.9943 46.8641 69.3957C46.5718 68.129 46.4001 66.8623 46.2609 65.7487C46.2331 64.932 46.196 64.3706 46.1635 63.9112C46.1728 63.6978 46.182 63.4797 46.1913 63.2663C46.1913 62.7095 46.2841 62.1202 46.1913 61.568C46.2841 61.3267 46.3816 61.0855 46.479 60.8488C46.363 61.0112 46.2516 61.1783 46.1449 61.3453C46.1264 61.2711 46.1032 61.1922 46.0707 61.1179C45.9593 60.6215 45.3376 60.2874 45.0545 60.8581C44.8225 61.1736 44.8086 61.5866 44.7344 61.9624C44.3307 65.577 44.6694 71.9616 47.3513 75.7525C48.0612 77.2883 49.0124 75.72 48.7804 74.3791Z" fill="#7A7A7A"/>
<path d="M53.796 78.9541C53.6244 78.9541 53.4388 79.0052 53.2671 78.9912C53.8981 78.9588 54.209 78.2999 54.3667 77.7616C54.8632 75.321 53.9631 74.0821 52.5015 72.1704C52.2045 71.7946 51.889 71.4327 51.5503 71.094C51.3507 70.7367 51.1512 70.3794 50.961 70.0175C50.7661 69.6648 50.5805 69.2936 50.3067 68.9967C50.1165 68.6069 50.2047 68.658 50.0608 68.3656C50.1815 68.0733 50.2696 67.7717 50.2371 67.4516C50.2279 67.0479 50.084 66.6349 49.8103 66.5839C49.8103 66.2591 49.7546 65.9389 49.6154 65.6373C49.5783 65.5631 49.5411 65.5028 49.4994 65.4517C49.4623 65.1408 49.3787 64.8392 49.2024 64.5655C49.0215 64.134 48.4043 64.1293 48.2234 64.5655C48.2002 64.6026 48.1816 64.6444 48.1584 64.6815C47.9543 64.83 47.7826 65.0991 47.713 65.4146C47.4439 66.2312 47.2583 67.317 47.6434 68.129C47.4671 68.6487 47.5691 70.398 47.5413 69.6045C47.5784 70.3423 47.6434 71.0847 47.9218 71.776C48.3579 72.9917 48.9843 74.1285 49.6803 75.2189C49.8242 75.7386 50.0051 76.2536 50.2557 76.7223C50.0515 76.5552 49.8288 76.4068 49.62 76.2444C49.054 75.6783 48.576 75.0333 48.0563 74.4255C47.5599 73.6645 47.1469 72.9592 46.836 72.189C47.5506 70.9687 47.2907 68.3471 46.0658 68.1568C46.0472 68.1615 46.0287 68.1708 46.0101 68.1754C45.9962 68.064 45.9823 67.9527 45.9591 67.846C45.9637 67.9573 45.9637 68.0733 45.9637 68.194C45.9591 68.194 45.9544 68.1986 45.9498 68.1986C45.9219 68.0872 45.8941 67.9759 45.8802 67.8645C45.8477 67.5304 45.857 67.1917 45.8709 66.8576C46.024 64.5933 47.0773 62.3336 47.3418 60.0879C47.4578 59.4244 47.5877 58.7191 47.7176 58.1252C47.7269 57.9999 47.7362 57.8885 47.7408 57.7818C48.0007 57.2111 48.2234 56.6218 48.3904 56.0186C48.7941 55.2066 49.04 54.5013 49.272 53.926C49.968 52.7381 50.5805 51.8148 51.374 50.729C50.446 51.3972 49.4112 52.3484 48.8127 53.3228C48.5575 53.8888 48.2837 54.4596 48.0749 55.0442C47.9218 55.2112 47.7687 55.3829 47.648 55.5778C47.3325 56.2506 47.2815 57.0069 47.2026 57.7354C47.068 58.2226 46.9427 58.7144 46.8407 59.2109C46.6551 60.1482 46.4787 60.9463 46.3117 61.7397C46.2839 61.7954 46.2514 61.8464 46.2236 61.9021C46.2421 61.8186 46.256 61.7351 46.2746 61.6516C46.372 60.705 46.3581 59.7074 46.8407 58.8583C46.8824 58.2829 46.85 57.6983 47.0031 57.1368C46.8082 57.5916 46.7107 58.0788 46.6458 58.5706C46.5391 58.784 46.3535 58.965 46.2792 59.2063C45.9266 59.9997 45.8384 61.4335 45.7549 61.6655C45.1192 63.9344 45.3651 66.3101 45.3837 68.6487C44.5717 69.7994 44.7991 72.602 46.0704 72.8015C46.1679 72.7876 46.2607 72.7551 46.3488 72.7087C46.3952 72.8757 46.4463 73.0428 46.5159 73.2052C46.9706 74.2213 47.3464 75.2932 48.0842 76.1516C48.4507 76.6202 48.8219 77.0935 49.2627 77.4925C49.7221 77.8498 50.2464 78.1096 50.6269 78.569C50.9517 78.9356 51.3368 79.2279 51.838 79.2882C52.2741 79.432 52.6778 79.664 53.1186 79.7847C53.3784 79.8218 53.6012 79.6548 53.8471 79.6084C54.6452 79.5388 55.4339 79.3392 56.1253 78.9309C55.3504 79.1119 54.5663 79.0608 53.796 78.9541Z" fill="#C2C2C2"/>
<path d="M55.2066 61.2293C55.0581 60.7421 54.6637 60.3663 54.5709 60.0183C54.427 59.4986 54.2182 59.016 53.8842 58.5892C53.8424 58.5196 53.4805 57.9628 53.3274 57.8885C53.0443 57.5823 52.6546 57.4895 52.2834 57.3549C51.9493 57.2343 51.541 57.1183 51.2162 57.3085C50.6222 57.7957 50.7104 58.8397 51.244 59.3408C51.3414 59.4615 51.4435 59.5821 51.541 59.6981C51.7822 60.4498 52.2973 61.1458 52.7891 61.7536C52.919 62.213 52.9701 62.6399 53.1 63.1085C53.1882 63.6607 53.0861 64.0783 53.2995 65.0341C53.5965 66.3008 54.2878 66.4679 54.7797 65.1733C55.355 64.0133 55.6427 62.6816 55.2066 61.2293Z" fill="#C2C2C2"/>
<path d="M61.1739 71.5023C61.4476 70.3052 61.3919 69.0477 61.2249 67.8413C60.8212 65.99 60.8259 65.4517 60.3758 63.4612C60.2319 62.7188 60.1252 61.9578 59.7772 61.2757C59.7587 61.234 59.7447 61.1968 59.7262 61.1551C59.4292 60.3106 59.2993 59.4104 58.9003 58.6031C58.3945 57.4941 57.731 56.529 57.0907 55.7031C56.4735 54.39 55.926 53.0165 55.1233 51.8008C54.7799 51.5039 54.5247 51.2904 54.2974 50.8636C53.9772 50.3207 53.5271 49.866 53.2302 49.3138C52.9843 48.8034 52.6363 48.358 52.3207 47.894C52.1212 47.4485 52.0655 46.9242 52.2187 46.4556C51.9356 47.017 51.9867 47.7037 52.163 48.293C52.3579 48.7477 52.5991 49.1839 52.678 49.4669C52.9239 50.33 53.3694 51.1048 53.7359 51.9215C53.954 52.4412 54.1953 52.9469 54.599 53.3506C54.831 53.8192 54.9795 54.4642 55.2207 55.0164C55.5827 55.8005 55.6847 56.5522 56.2091 57.7818C57.2623 59.4197 57.8377 60.5751 58.2646 62.5981C59.0719 64.6397 58.9931 65.5631 59.6287 67.8321C60.0324 69.6045 60.1299 69.3679 59.9953 71.3074C59.9953 71.2749 59.9999 71.2471 59.9999 71.2053C59.9999 71.2749 59.9907 71.3399 59.986 71.4002C59.986 71.4234 59.9814 71.442 59.9814 71.4605C59.9814 71.4652 59.9814 71.4605 59.9814 71.4652C59.9164 72.0313 59.6891 72.3143 59.4524 72.9917C59.4431 73.0196 59.406 73.1216 59.4246 73.0567C59.4431 73.0149 59.4339 73.0103 59.4014 73.0521C59.3039 73.1588 59.1787 73.2377 59.0812 73.3444C58.7703 73.7202 58.4595 74.444 58.2831 74.7178C58.1393 74.8524 57.8052 75.488 57.6475 75.8036C57.3783 76.0495 57.1742 76.3465 57.0628 76.6991C56.7937 77.2141 56.3761 77.6457 56.2926 78.2442C56.2787 78.2999 56.2555 78.4252 56.2462 78.4576C56.3622 78.2117 56.455 77.9473 56.6545 77.7524C57.1092 77.3719 57.1881 77.242 57.5454 76.829C57.8655 76.6852 58.0697 76.4068 58.2924 76.1423C58.7054 75.7711 59.0348 75.3257 59.3967 74.9081C59.6566 74.7457 59.9582 74.6157 60.102 74.3234C60.2644 74.0589 60.3526 73.8455 60.5103 73.6553C60.9465 73.0567 61.0347 72.2818 61.1646 71.5719C61.1878 71.4513 61.1739 71.5069 61.1599 71.5812C61.1646 71.558 61.1692 71.5301 61.1739 71.5023Z" fill="#C2C2C2"/>
<path d="M57.777 67.3356C57.7956 67.2243 57.8141 67.1176 57.8141 67.0016C57.7492 65.6884 57.0532 65.9436 56.798 67.0294C56.5984 67.9203 56.8072 68.7369 56.7376 69.6185C56.3943 70.7646 55.8421 71.8457 55.6797 73.0382C55.6704 73.1542 55.6472 73.247 55.7029 73.0707C55.8375 72.667 56.037 72.2958 56.2597 71.9385C56.2504 72.1009 56.2412 72.2633 56.218 72.4211C56.0138 73.2099 55.2668 73.7064 54.7192 74.2632C55.2668 74.0033 55.8514 73.7481 56.2783 73.3027C56.6031 72.9176 56.6773 72.4025 56.7562 71.92C56.7748 71.4652 57.0717 71.1172 57.2527 70.7228C57.4104 70.3284 57.4615 69.9062 57.4986 69.484C57.7352 68.7184 57.8652 67.8971 57.777 67.3356Z" fill="#C2C2C2"/>
<path d="M55.9632 77.5112C55.7219 77.1122 55.4296 76.9126 55.1372 76.8523C54.8588 76.5461 54.5433 76.3929 54.2139 76.5229C53.9494 76.3837 53.7128 76.1888 53.4761 75.9939C53.49 75.9614 53.4993 75.929 53.5086 75.9011C53.6988 75.3118 53.5689 74.6715 53.2673 74.1425C53.2488 74.1054 53.2302 74.0729 53.2163 74.0358C53.091 72.4536 52.3857 71.7298 51.7732 70.5373C51.3139 69.7392 51.0076 69.2566 50.72 68.8251C50.5668 68.4446 50.4276 68.0641 50.2884 67.679C50.2235 67.4841 50.1585 67.3032 50.0982 67.1269C49.5414 65.475 49.0728 63.7397 48.5206 61.8141C48.3953 61.3315 48.2004 61.0624 47.9916 60.9603C47.9545 60.5427 47.9267 60.1251 47.8988 59.7075C48.0844 59.1785 48.2886 58.5985 48.4881 58.0232C48.5299 57.9861 48.5716 57.9489 48.6088 57.8979C48.9104 57.4803 49.1238 57.0117 49.2908 56.5198C49.3465 56.4038 49.4022 56.2878 49.4579 56.1718C49.6806 55.9305 49.9868 55.1 50.0425 54.9376C50.0379 54.9469 50.0379 54.9515 50.0332 54.9608C50.0518 54.919 50.0704 54.8773 50.0889 54.8355C50.191 54.6267 50.2977 54.4225 50.3998 54.2137C50.5204 53.9725 50.6225 53.7265 50.7246 53.476C51.0308 52.8821 51.3603 52.2928 51.6712 51.7035C51.8846 51.2117 52.576 50.5945 52.794 49.1747C53.0724 47.7827 52.1816 45.0961 50.6689 47.1006C50.6272 47.1563 50.5808 47.2213 50.5344 47.2955C50.3812 47.2955 50.2188 47.3558 50.0518 47.5043C49.7734 47.7409 49.6017 48.0611 49.4811 48.4045C49.1238 48.9241 49.3001 48.6597 48.1494 50.4229C47.2075 51.8473 46.5393 53.4203 46.0289 55.0443C45.551 55.2949 45.1009 56.0883 44.9014 57.5545C44.7808 58.0649 44.6787 58.5846 44.5859 59.0904C44.5116 59.3038 44.4328 59.5126 44.3585 59.7261C43.9688 61.2712 43.4398 62.8441 43.6764 64.4589C43.7228 64.7094 43.7739 64.9646 43.8388 65.2152C43.644 66.4958 43.5465 67.8229 44.1172 68.8251C44.1868 69.4376 44.275 70.0501 44.4003 70.6533C44.6044 71.4978 44.92 72.319 45.3051 73.0939C45.435 73.3166 45.6299 73.609 45.8433 73.7203C46.0939 73.8363 46.3305 73.8038 46.53 73.6925C46.5625 73.8131 46.595 73.9337 46.6507 74.0497C46.7667 74.2817 46.9152 74.4859 47.0729 74.6854C47.0265 75.2979 47.1518 75.9475 47.3513 76.4672C47.7782 77.3349 48.6088 77.8685 49.314 78.4902C50.1585 79.1027 50.9752 79.808 51.9588 80.1885C52.4507 80.388 52.8219 80.2627 53.0771 79.9611C53.2209 80.0539 53.3694 80.1421 53.504 80.2442C53.5086 80.2488 53.504 80.2441 53.5086 80.2488C53.62 80.3462 53.7592 80.4065 53.8798 80.4947C54.0422 80.62 54.1953 80.7685 54.4088 80.7917C54.6176 80.7638 54.7939 80.671 54.9377 80.5411C55.0491 80.5504 55.1651 80.5179 55.2718 80.4112C55.3182 80.3601 55.3507 80.2952 55.3924 80.2395C55.4528 80.2441 55.5131 80.2395 55.5734 80.2024C55.6848 80.1282 55.7683 80.0307 55.824 79.9101C55.9585 79.7013 56.0049 79.3765 55.9771 79.0053C56.1905 78.6202 56.1998 78.0958 55.9632 77.5112ZM47.6297 60.4917C47.6622 60.4035 47.6947 60.3061 47.7272 60.2086C47.7225 60.4453 47.7225 60.6866 47.7272 60.9232C47.6529 60.9371 47.5833 60.965 47.5137 61.0114C47.5369 60.9 47.5601 60.7933 47.5787 60.7005C47.5926 60.6309 47.6112 60.5613 47.6297 60.4917Z" fill="#1F1F1F"/>
<path d="M55.1741 74.291C54.9236 73.9337 54.5663 73.6971 54.1765 73.5161C54.0698 73.4141 53.9492 73.3166 53.8146 73.2424C53.7589 73.2099 53.6986 73.196 53.6429 73.1867C53.5409 73.0568 53.4388 72.9176 53.3553 72.7691C53.3831 72.8109 53.4341 72.899 53.4341 72.8897C53.1418 72.5046 52.9609 72.0313 52.65 71.6694C52.5711 71.5209 52.4922 71.3725 52.4133 71.2286C52.4365 71.1265 52.4551 71.0291 52.469 70.9409C52.6129 69.8923 52.3391 68.8112 51.6756 67.9806C51.6245 67.9203 51.5735 67.8553 51.5225 67.795C51.5085 67.7579 51.4946 67.7208 51.4853 67.6976C50.9796 66.2267 50.0516 63.9438 49.8335 63.3313C49.8289 63.3128 49.8242 63.2942 49.8196 63.271C50.1722 62.3616 50.4228 61.4057 50.3903 60.4221C50.381 60.2179 50.3671 60.0091 50.3439 59.8003C50.3996 59.6193 50.4599 59.443 50.5202 59.2667C50.9053 58.4269 51.2997 57.5499 51.1698 56.608C51.142 55.9213 50.8172 54.5339 49.9263 54.7149C49.7546 54.7381 49.6154 54.8262 49.5133 54.9793C49.4298 55.0907 49.3602 55.216 49.2906 55.3366C49.2906 55.332 49.2906 55.332 49.286 55.3273C49.2257 55.4155 49.1839 55.5129 49.1421 55.6104C49.1097 55.6893 49.0772 55.7728 49.0447 55.8517C49.0354 55.8702 49.0308 55.8888 49.0215 55.912C48.822 56.4038 48.641 56.9003 48.474 57.4061C48.4415 57.4849 48.4044 57.5638 48.3673 57.6427C47.8244 57.7448 47.3743 58.6171 47.2444 59.1414C47.0588 59.8003 46.9938 60.4777 47.0124 61.1598C46.8917 61.7073 46.7757 62.2595 46.6551 62.807C46.5391 63.2153 46.4463 63.6329 46.3349 64.0366C46.0797 64.8579 45.9869 65.7859 46.3257 66.5933C46.3953 66.8392 46.5762 67.1315 46.8129 67.28C46.8175 68.0317 46.8639 68.7833 46.9892 69.5211C47.0681 70.4909 47.3325 71.4421 47.7965 72.2773C48.126 72.667 49.0865 74.6669 50.0794 75.0659C50.3532 75.5392 50.7244 76.0078 51.1095 76.3744C51.1188 76.4069 51.1281 76.4393 51.1373 76.4718C51.5271 77.3256 52.5525 77.4926 53.3785 77.7571C53.629 77.952 53.8749 78.1422 54.1162 78.3325C54.4132 78.5877 54.6313 78.4902 54.7705 78.2397C54.7797 78.2397 54.789 78.2443 54.7983 78.2489C56.0743 77.9705 55.8887 75.0937 55.1741 74.291Z" fill="#3D3D3D"/>
<path d="M52.6267 71.5395C52.5571 71.4281 52.4689 71.3353 52.3715 71.2564C52.4225 70.4862 52.2369 69.7299 51.7637 69.4004C51.4064 69.238 51.0073 69.3587 50.6501 69.4793C50.2696 69.6324 49.8659 69.8273 49.6525 70.1939C49.1096 71.1358 48.6317 72.667 49.6617 73.4419C50.084 73.6692 50.5758 73.7481 51.0537 73.7017C51.2254 73.7852 51.4203 73.8038 51.6384 73.7203C51.7219 73.646 51.8008 73.5579 51.8704 73.4697C52.1163 73.3444 52.3437 73.1774 52.5246 72.9593C52.7937 72.551 52.8448 71.9756 52.6267 71.5395Z" fill="#C2C2C2"/>
<path d="M92.7862 10.5189C92.596 10.4075 92.3918 10.4817 92.2341 10.607C92.0485 10.7416 91.8768 10.8901 91.7097 11.0478C91.4685 11.2381 91.2318 11.4376 91.023 11.6649C90.8977 11.7949 90.8049 11.8923 90.7261 11.9758C90.4801 12.1846 90.2342 12.3934 89.9929 12.6069C89.9001 12.6765 89.8027 12.7507 89.6728 12.8435C88.5453 13.7854 88.7633 13.6787 87.7843 14.4721C86.3691 15.7574 84.1976 18.1702 82.6803 19.9705C81.5435 21.1584 80.8057 22.0864 79.5158 23.1397C79.0379 23.6176 78.7177 24.2208 78.2862 24.7358C77.6181 25.5942 76.8803 26.4016 76.2539 27.2925C76.9267 26.6614 77.6181 26.0768 78.3001 25.4689C78.2816 25.4968 78.2584 25.52 78.2445 25.5432C78.0125 25.9051 77.6552 26.1557 77.3675 26.4712C77.1355 26.7217 76.9499 27.0187 76.7133 27.2646C76.6622 27.2971 76.5694 27.4177 76.6576 27.3342C76.9685 27.1393 77.2097 26.847 77.5067 26.6289C78.4069 26.1325 79.024 25.2694 79.8592 24.6848C80.4345 24.2904 80.8568 23.7197 81.395 23.2881C81.7152 23.084 82.0725 22.9355 82.3555 22.671C83.2278 21.9472 83.6965 20.9264 84.7544 20.4113C85.7891 19.7849 86.5454 18.8337 87.3945 17.9893C87.905 17.5717 88.471 17.2515 88.9907 16.8478C89.2784 16.6715 89.7749 16.1472 90.0533 15.8409C90.7307 15.3816 91.3617 14.8851 91.9 14.268C91.9139 14.2541 91.9232 14.2448 91.9371 14.2309C92.0206 14.1566 92.0995 14.087 92.1737 14.0221C92.6749 13.6601 93.227 13.2982 93.292 12.6347C93.4312 11.9433 93.408 10.9921 92.7862 10.5189Z" fill="#DBDBDB"/>
<path d="M87.8954 12.8342C87.5195 13.094 87.1947 13.4188 86.8003 13.6601C85.6218 14.5464 84.42 15.414 83.3435 16.4256C82.9213 16.806 81.7056 17.6552 81.1163 18.3233C80.6106 18.8198 80.1651 19.3812 79.6594 19.8777C79.1675 20.2721 78.6525 20.634 78.2627 21.1352C77.7291 21.7616 77.1491 22.3508 76.6062 22.9726C76.0958 23.6964 75.4741 24.3136 74.7549 24.8332C75.488 24.5548 76.2907 23.9934 76.7501 23.5016C77.5853 22.8798 78.337 22.1467 79.1629 21.5156C80.5131 20.7732 81.3947 19.4462 82.5733 18.4857C83.1162 18.096 84.1694 16.9267 84.8283 16.2028C85.993 15.0892 87.0787 13.8921 88.1552 12.6996C88.4707 12.412 88.0438 12.7414 87.8954 12.8342Z" fill="#DBDBDB"/>
<path d="M95.1662 11.8552C95.1569 11.8459 95.143 11.8412 95.129 11.832C95.0966 11.6371 95.0316 11.4515 94.9202 11.2984C94.8646 11.1128 94.7625 10.9411 94.5908 10.8344C94.5166 10.8065 94.433 10.7833 94.3449 10.7601C93.7463 10.143 92.6188 9.0294 92.1177 10.5142C91.9878 11.0339 91.9692 11.9433 92.6049 12.115C92.7255 12.1243 92.8044 12.1104 92.8462 12.1289C92.8926 12.1428 92.9436 12.1568 92.9946 12.1707C93.2684 12.8064 93.5932 13.4931 94.2799 13.7019C94.6279 13.8086 95.0919 13.739 95.2636 13.3817C95.4863 12.9224 95.4817 12.282 95.1662 11.8552Z" fill="#262626"/>
<path d="M61.5263 70.101C61.6005 67.948 61.1319 65.7904 60.3199 63.7952C60.2595 63.6328 60.1946 63.4751 60.1296 63.3127C59.9115 62.6352 59.6656 61.9671 59.4011 61.3128C58.8536 60.1018 58.0091 57.9349 56.7935 56.7749C56.7842 56.5707 56.7703 56.3944 56.761 56.3063C56.6867 54.8354 55.8655 53.6104 55.1787 52.3669C55.0442 52.0375 54.9607 51.8101 54.9003 51.6245C54.8632 51.0445 54.7472 50.0423 54.7519 50.2975C54.7194 49.8659 54.6451 49.4344 54.4688 49.0354C54.3899 48.6781 54.3064 48.3208 54.1997 47.9728C53.7403 46.4834 53.0443 45.973 52.3994 46.1122C52.1906 45.8941 51.9354 45.741 51.6013 45.6807C50.6872 45.8709 50.1907 46.8128 49.9495 47.9403C49.7407 48.2002 49.5504 48.5203 49.3787 48.873C49.0586 49.1607 48.8637 49.5597 48.7059 49.9587C48.2002 51.1048 48.0053 52.3437 47.7547 53.564C47.6991 53.8842 47.6202 54.2415 47.532 54.6312C47.2907 55.1787 47.0773 55.7355 46.8917 56.3063C46.5994 56.7935 46.3488 57.4523 46.14 58.153C45.9127 58.2365 45.6992 58.4267 45.5275 58.7469C44.8687 59.7306 44.9058 61.0066 44.7341 62.1387C44.5299 63.656 44.4047 65.2383 44.5578 66.7741C44.3258 67.7531 44.1123 68.7507 43.9731 70.4072C44.0056 71.4698 44.1541 72.6019 44.8315 73.4603C45.3466 74.0311 45.8755 74.045 46.3024 73.7759C46.4463 74.9544 46.5251 76.1933 47.2443 77.1723C47.5135 77.4507 47.7687 77.576 48.0053 77.5899C48.0749 77.757 48.1584 77.9194 48.2744 78.0679C48.9704 79.1119 49.6664 78.8103 50.1443 78.1235C50.1861 78.1792 50.2232 78.2395 50.265 78.2952C50.2882 78.3323 50.3114 78.3695 50.3346 78.4066C50.6872 79.1675 51.1976 79.8311 51.8704 80.2951C52.3159 80.7405 52.8216 81.1117 53.4341 81.2184C53.5547 81.1674 53.6754 81.1349 53.8146 81.1395C53.8239 81.1349 53.8378 81.1349 53.8471 81.1303C53.8981 81.1117 53.9074 81.1117 53.8842 81.121C53.9259 81.1024 53.9631 81.0885 54.0048 81.0699C54.1626 81.0189 54.3853 81.0375 54.5523 81.0514C54.5895 81.056 54.6266 81.0607 54.6683 81.0699C55.2947 81.0096 55.7773 80.7034 56.1392 80.2394C56.1856 80.2347 56.2274 80.2347 56.2738 80.2301C57.392 80.0538 58.2226 79.1583 58.7794 78.221C58.8768 78.0354 58.9557 77.8451 59.0392 77.6549C59.1274 77.5807 59.2155 77.5064 59.3083 77.4275C58.8211 77.8451 59.8095 77.0795 59.9951 76.7455C61.2386 74.9359 61.7583 72.4627 61.5263 70.101Z" fill="#858585"/>
<path d="M55.471 78.7036C54.9421 78.8196 54.3946 78.8938 53.847 78.8938C53.847 78.7361 53.8238 78.5737 53.7682 78.4252C53.7357 78.3185 53.8053 78.6572 53.7867 78.7593C53.7867 78.8103 53.7774 78.8521 53.7728 78.8938C53.7171 78.8938 53.6661 78.8892 53.6104 78.8892C53.4944 78.7221 53.3784 78.5597 53.2067 78.4437C53.1603 78.3973 53.1093 78.3741 53.0536 78.3602C53.0258 77.989 52.9237 77.6271 52.7242 77.3162C52.3762 76.8337 51.8426 76.5228 51.36 76.1701C51.179 75.9938 51.0027 75.8129 50.8218 75.6365C50.8821 75.1772 50.8821 74.7085 50.8496 74.277C50.8589 73.7434 50.7336 73.1727 50.5248 72.6948C50.0794 70.8852 50.1582 71.6647 49.7453 70.4165C49.5597 70.0221 49.3277 69.6463 49.0771 69.289C48.9147 68.4353 48.6688 67.5908 48.2744 66.8159C48.3022 66.6767 48.3301 66.5375 48.3347 66.454C48.4043 64.3242 48.3672 64.9692 48.5296 62.9508C48.5064 61.8511 48.6642 61.8511 48.7848 60.2921C48.7987 60.0786 48.808 59.8605 48.8219 59.6471C48.8451 59.5682 48.8683 59.4893 48.8915 59.4105C49.0771 58.7191 49.2766 57.9674 49.3648 57.2157C49.6246 56.5801 49.8659 56.1439 50.0051 55.4943C50.5526 54.4642 51.0306 53.4017 51.411 52.302C51.3322 52.5108 51.2486 52.7196 51.1698 52.9284C51.295 52.6129 51.4064 52.2973 51.5224 51.9772C51.5781 51.8426 51.6338 51.7034 51.6941 51.5735C51.8797 51.3461 52.0792 51.1373 52.1952 50.8636C52.2973 50.6733 52.3808 50.4274 52.4504 50.1629C52.7474 49.6015 52.9608 48.9937 53.0258 48.358C53.1186 47.1098 53.1046 45.574 52.121 44.6738C51.7358 44.2423 51.0166 44.3954 50.7058 44.8548C50.6779 44.8965 50.6547 44.9383 50.6269 44.9754C50.5202 45.1285 50.4181 45.2863 50.3206 45.4441C50.033 45.8709 49.8242 46.4092 49.7221 46.8453C49.569 47.0866 49.4205 47.3325 49.2627 47.5692C49.1653 47.7316 49.0818 47.894 48.9936 48.061C48.3394 49.0493 47.8197 50.1583 47.5366 51.3137C47.5413 51.2997 47.5413 51.2858 47.5459 51.2765C47.5413 51.2951 47.5366 51.3183 47.532 51.3369C47.5181 51.4018 47.5042 51.4668 47.4856 51.5271C47.4717 51.5781 47.4624 51.6292 47.4485 51.6756C47.235 52.0839 47.0402 52.4969 46.8917 52.9377C46.8963 52.9191 46.9056 52.9052 46.9102 52.8866C46.901 52.9098 46.8917 52.933 46.8824 52.9562C46.8731 52.9794 46.8638 52.998 46.8546 53.0212C46.6272 53.6383 46.6875 53.4434 46.8314 53.0815C46.7942 53.1743 46.7571 53.2671 46.72 53.3599C45.792 55.5129 45.8198 55.0025 45.4069 57.4338C44.9846 58.8212 44.6088 60.2271 44.6459 61.6887C44.6227 61.8604 44.6042 62.0321 44.581 62.2037C44.5531 62.4033 44.5438 62.4868 44.5438 62.5007C44.451 63.0065 44.3861 63.5122 44.3722 64.0319C44.3397 64.6629 44.4 65.2847 44.4928 65.9018C44.4557 66.6999 44.4835 67.5073 44.5253 68.3007C44.5392 68.9735 44.6134 69.6324 44.7294 70.282C44.7666 70.8805 44.8779 71.4513 45.0542 71.9988C45.2166 72.7458 45.5646 73.4279 45.9498 74.0868C46.1632 74.5508 46.3859 75.0101 46.6318 75.4602C47.0726 76.2861 47.4114 77.2095 48.0517 77.9055C48.3162 78.17 48.6363 78.402 48.989 78.5319C48.9936 78.5319 48.9982 78.5365 49.0029 78.5365C49.1142 78.5969 49.2442 78.6479 49.3694 78.634C49.4344 78.6201 49.4947 78.5969 49.555 78.5737C50.033 78.9773 50.5712 79.2975 51.0584 79.6873C51.5131 79.9471 51.7776 80.6106 52.3298 80.142C52.5896 80.0306 52.7938 79.794 52.8726 79.5202C52.8912 79.4692 52.9051 79.4135 52.9237 79.3578C52.9515 79.3671 52.9747 79.3764 53.0026 79.381C53.8749 79.4042 54.7054 79.0469 55.471 78.7036Z" fill="#4A4A4A"/>
<path d="M46.9104 52.9517C46.8919 53.0027 46.8687 53.0537 46.8501 53.1001C46.8687 53.0584 46.8826 53.0166 46.9011 52.9749C46.9011 52.9656 46.9058 52.9563 46.9104 52.9517Z" fill="#4A4A4A"/>
<path d="M48.7988 60.292C48.8127 60.1203 48.8267 59.9301 48.8359 59.7166C48.8499 59.5078 48.8359 59.6981 48.7988 60.292Z" fill="#4A4A4A"/>
<path d="M59.5866 68.4492C59.4984 67.8924 59.4659 67.3078 59.1179 66.8438C58.7607 65.9575 58.0879 66.1385 57.8651 66.9876C57.7631 67.3681 57.7306 67.7625 57.7863 68.1476C57.7955 68.194 57.8048 68.2404 57.8141 68.2822C57.8095 68.2683 57.8095 68.259 57.8048 68.2451C57.8141 68.3054 57.8187 68.3703 57.8234 68.4307C57.8234 68.6719 57.7955 68.9875 57.7538 69.2844C57.6053 69.47 57.4522 69.6556 57.2666 69.7995C56.6634 70.1289 56.3664 70.4955 55.9627 71.0244C55.5219 71.4467 55.3178 72.0313 55.1786 72.6067C55.1275 72.7876 55.1229 72.7644 55.1879 72.5974C55.0162 72.9779 54.9559 73.4001 54.9744 73.8131C55.0301 74.6065 55.0115 75.5067 55.6287 76.0913C56.5149 77.1539 57.0346 76.7177 57.6563 75.7155C57.7399 75.6227 58.0925 74.9777 58.1714 74.8339C58.7096 74.2539 59.2154 73.6228 59.2943 72.8108C59.3128 72.7459 59.3499 72.602 59.3871 72.4999C59.3871 72.4953 59.3917 72.486 59.3917 72.4814C59.4242 72.4025 59.4659 72.2865 59.4845 72.2123C59.6237 71.6833 59.6051 71.1311 59.7119 70.5929C59.7119 70.6579 59.8511 69.8227 59.8186 69.6231C59.8928 69.3772 59.5819 68.3239 59.5866 68.4492Z" fill="#BFBFBF"/>
<path d="M58.0278 61.1181C57.6288 59.7539 57.3086 58.8352 56.7426 57.5731C56.5662 56.8771 56.2322 56.2646 55.8795 55.6429C55.6243 54.7798 55.049 54.0699 54.7752 53.2162C54.6035 52.6826 54.1627 52.3114 53.9122 51.8242C53.6245 51.0214 53.2347 50.2651 52.896 49.4856C53.1558 50.6085 53.3786 51.4669 53.6198 52.497C53.773 52.9563 54.0978 53.3414 54.2323 53.8101C54.4226 54.5571 54.7056 55.2624 55.0629 55.9398C55.2299 56.5198 55.4758 57.0581 55.8378 57.5453C56.6034 59.5312 57.9026 61.0717 58.2784 63.1318C58.2877 63.2154 58.283 63.1922 58.3062 63.2618C58.3016 62.5426 58.232 61.8094 58.0278 61.1181Z" fill="#BFBFBF"/>
<path d="M55.6568 63.5076C55.6197 62.9091 55.5686 62.3105 55.3738 61.7398C55.1882 61.1923 55.2949 60.6912 54.7427 60.0555C54.3901 59.8606 54.1534 59.2388 53.6941 59.4152C53.6198 59.4476 53.5549 59.494 53.4853 59.5358C53.4806 59.5265 53.4806 59.5126 53.476 59.5033C53.476 59.5172 53.476 59.5265 53.4806 59.5404C52.9331 59.907 52.5758 60.5798 52.4598 61.2155C52.3253 61.9068 52.4923 62.5518 52.7475 63.1736C52.7243 63.4241 52.729 63.6747 52.7754 63.9392C53.0074 64.8764 53.6941 65.6467 54.6221 65.9204C55.1696 66.0132 55.4573 65.3126 55.629 64.895C55.7914 64.4449 55.6939 63.967 55.6568 63.5076Z" fill="#BFBFBF"/>
<path d="M59.3225 78.4716C59.225 78.286 58.7471 78.4948 58.594 78.6526C58.5337 78.6897 58.4687 78.7222 58.4084 78.7547C58.529 78.6247 58.6543 78.4577 58.7935 78.3463C58.8028 78.3371 58.8121 78.3324 58.8214 78.3231C58.9652 78.2164 59.1276 78.1793 59.3086 78.3185C59.2343 78.2164 59.1322 78.1747 59.0302 78.1607C59.0487 78.1468 59.0719 78.1283 59.0905 78.1143C59.058 78.1283 59.0255 78.1422 58.993 78.1561C58.9466 78.1561 58.9002 78.17 58.8538 78.1793C58.9838 78.0726 59.1137 77.9659 59.239 77.8545C58.4687 78.2767 57.6567 78.6479 56.9654 79.2001C56.8586 79.2743 56.7426 79.3764 56.622 79.4831C56.0049 79.6873 55.4063 79.9332 54.817 80.2023C54.2324 80.2255 53.6524 80.2905 53.077 80.3694C52.9982 80.3879 52.91 80.3972 52.8311 80.4158C52.8218 80.3972 52.8126 80.374 52.8033 80.3555C52.7662 80.323 52.7244 80.3044 52.678 80.2905H52.6734C52.5249 80.2441 52.3439 80.2673 52.1954 80.2302C51.6247 80.1791 51.0494 80.1931 50.474 80.2116C50.3348 80.1931 50.242 80.2023 50.1863 80.2348C50.177 80.2348 50.1678 80.2302 50.1631 80.2302C50.1028 80.2163 50.0518 80.2395 50.01 80.2766C49.9636 80.2812 49.9172 80.2812 49.8708 80.2905C49.713 80.4483 49.727 80.7313 49.8058 80.9308C49.843 80.9819 49.894 81.0143 49.945 81.0422V81.0468C49.9543 81.0468 49.959 81.0515 49.9682 81.0515C50.0332 81.0793 50.1028 81.0932 50.1817 81.0979C50.3348 81.1303 50.4926 81.1675 50.6457 81.1953C50.8962 81.2324 51.1468 81.2556 51.402 81.2695C51.4252 81.2788 51.4484 81.2835 51.4716 81.2927C51.4577 81.5619 51.5226 81.8356 51.6433 82.0491C51.699 82.179 51.8335 82.2254 51.9634 82.2579C51.9959 82.2671 52.033 82.2718 52.0655 82.2811C52.0655 82.2996 52.0655 82.3228 52.0655 82.346C52.1026 82.8935 52.2697 83.7427 52.9146 83.8355C53.9308 83.803 54.9423 83.6267 55.9538 83.4967C56.3111 83.4503 56.6684 83.3807 57.0257 83.3297C57.1092 83.3251 57.1974 83.3251 57.2809 83.3158C58.4734 83.2787 58.427 81.186 57.8702 80.4807C57.731 80.2812 57.4897 80.2673 57.267 80.258C57.1138 80.2534 56.9561 80.258 56.803 80.258C57.6335 79.8404 58.4455 79.3811 59.2482 78.9124C59.0394 78.9727 58.8353 79.0377 58.6265 79.1073C58.6497 79.0841 58.6822 79.0655 58.7054 79.0423C58.7332 79.0145 58.761 78.9913 58.7889 78.9635C58.942 78.8985 59.0858 78.8243 59.2297 78.7454C59.239 78.7454 59.2482 78.7407 59.2575 78.7407C59.2575 78.7361 59.2575 78.7361 59.2575 78.7315C59.2761 78.7222 59.29 78.7129 59.3086 78.7036C59.3225 78.6619 59.3271 78.6294 59.3271 78.5969C59.4663 78.5134 59.6009 78.4299 59.7401 78.351C59.6055 78.3835 59.4663 78.4299 59.3225 78.4716Z" fill="#B1E3E9"/>
<path d="M52.9748 42.6462C52.9516 42.6602 52.933 42.6787 52.9098 42.6926C52.9377 42.6416 52.9655 42.5952 52.9933 42.5441C53.0073 42.5349 53.0212 42.5256 53.0397 42.5209C53.0397 42.4977 53.0351 42.4931 53.0305 42.4745C53.0444 42.4467 53.0629 42.4189 53.0769 42.391C53.0722 42.3678 53.0537 42.34 53.0258 42.3493C52.9377 42.3864 52.8773 42.4653 52.8217 42.5534C52.6964 42.7019 52.5433 42.92 52.4644 42.9757C52.4226 43.0267 52.3762 43.0731 52.3345 43.1241C52.0421 43.3608 51.7591 43.6113 51.4853 43.8758C51.4761 43.8526 51.4761 43.8294 51.4621 43.8109C51.4297 43.8155 51.4018 43.8294 51.374 43.8433C51.5364 43.5046 51.6941 43.1659 51.8473 42.8318C51.8612 42.8133 51.8797 42.7993 51.8937 42.7808C51.8937 42.7669 51.889 42.7529 51.889 42.7437C51.9029 42.7112 51.9215 42.6741 51.9354 42.6416C51.9308 42.456 51.8658 42.4653 51.773 42.5673C51.6617 42.6091 51.5039 42.9478 51.3693 43.0777C50.7429 43.9825 50.2279 44.7667 49.7175 45.5369C49.4205 45.8757 49.1421 46.2283 48.8777 46.5949C48.0471 47.4115 47.1609 48.1771 46.4788 49.1283C46.9149 48.7989 47.3836 48.5251 47.8615 48.2513C47.8522 48.2699 47.8429 48.2885 47.8337 48.307C47.481 48.8313 47.1469 49.3603 46.8268 49.9032C46.1261 50.9797 45.5044 52.1072 45.0218 53.2997C44.8733 53.7033 45.0961 53.2254 45.2121 53.0769C45.2631 52.9981 45.3234 52.9285 45.3791 52.8496C45.2213 53.2579 45.0729 53.6709 44.9476 54.0977C44.7898 54.6221 44.7341 55.1696 44.6785 55.7125C43.9732 57.0581 43.0081 59.1043 42.9849 59.7168C43.37 58.9883 43.7829 58.2691 44.1913 57.5545C44.1773 57.6334 44.1681 57.7077 44.1634 57.768C44.1634 57.9629 44.4418 58.0325 44.5161 57.8376C44.6228 57.6613 44.7109 57.4757 44.7852 57.2901C44.7017 57.6705 44.6367 58.0371 44.5949 58.3897C45.4858 56.079 46.6922 53.8565 47.9079 51.6432C48.5065 50.859 49.054 50.0377 49.5551 49.1793C49.9449 48.4833 50.3485 47.7781 50.7383 47.0728C51.2441 46.2979 51.7173 45.5091 52.1257 44.6971C52.5618 44.2006 53.0165 43.7181 53.4759 43.2355C53.6058 43.1473 53.6801 43.0685 53.7218 42.9896C53.7497 42.9757 53.7775 42.9617 53.8053 42.9478C53.8657 42.9107 53.8981 42.8411 53.9167 42.7761C54.0559 41.8249 53.3924 42.3446 52.9748 42.6462Z" fill="#B1E3E9"/>
<path d="M24.3231 43.6949C29.7009 39.7927 35.2132 35.7605 39.1897 30.3503C40.2986 28.8376 41.2638 27.2276 42.0572 25.5247C41.9922 25.6639 41.1246 25.8541 40.9622 25.9098C40.707 26.0026 40.4471 26.0954 40.1919 26.1928C40.1362 26.216 39.8996 26.2671 39.8764 26.3181C37.0321 32.4197 31.9884 37.0412 26.7359 41.078C25.2233 42.238 23.6828 43.3655 22.1423 44.4837C22.4114 44.2888 22.9218 44.21 23.2374 44.0986C23.5668 43.978 24.0354 43.9037 24.3231 43.6949Z" fill="black"/>
<path d="M41.7602 25.7381C40.3729 23.3624 38.8045 20.7594 36.3036 19.4138C35.0369 18.7317 33.5892 18.4765 32.1647 18.6992C31.5058 18.8013 30.8794 19.0148 30.253 19.2375C29.4271 19.5344 28.5826 19.8128 27.7892 20.1887C25.1026 21.4693 23.0703 23.8775 21.6737 26.4573C20.2724 29.0464 19.4743 31.9557 19.3026 34.8975C19.1124 38.1965 19.7295 41.5234 21.1586 44.5069C21.2004 44.5904 23.3162 43.6624 23.3394 43.7135C20.9637 38.7487 20.857 32.8466 22.8847 27.7426C23.8916 25.2045 25.4321 22.7917 27.5154 21.01C28.0305 20.5692 28.5826 20.1701 29.1626 19.8221C29.5153 19.6133 29.8818 19.4324 30.2577 19.2607C31.1996 18.8338 28.0073 19.966 29.2926 19.6319C29.4921 19.5808 29.6916 19.5391 29.8957 19.502C31.2367 19.2746 32.6101 19.4602 33.8305 20.0541C36.4892 21.3394 38.141 24.0631 39.5748 26.5223C39.6583 26.6661 41.6999 25.636 41.7602 25.7381Z" fill="black"/>
<path d="M48.8873 21.7245C46.5023 18.1564 43.1847 15.0661 39.0551 13.688C36.8882 12.9642 34.545 12.7183 32.2853 13.0895C31.195 13.2658 30.1695 13.6231 29.1348 13.9989C28.0444 14.3933 26.9679 14.7924 25.961 15.3677C24.0262 16.4674 22.3697 17.994 20.8246 19.5762C19.2794 21.1631 17.8364 22.8567 16.579 24.6802C14.1708 28.1788 12.4215 32.2527 12.3148 36.5447C12.2081 40.9109 13.7346 45.4071 17.1311 48.2792C17.2146 48.3489 18.1055 47.9359 18.2262 47.8941C18.3422 47.8524 19.233 47.4208 19.3119 47.4858C16.4537 45.0684 14.9039 41.4863 14.5652 37.8068C14.194 33.821 15.289 29.8956 17.1961 26.4109C19.1866 22.7732 22.0077 19.4695 25.1305 16.7504C25.9425 16.0452 26.8009 15.3863 27.7196 14.8202C28.1326 14.565 28.5594 14.3284 29.0002 14.1196C29.1626 14.0407 29.3297 13.9711 29.4967 13.8968C30.2298 13.5628 28.4017 14.268 28.5084 14.2541C28.8796 14.2031 29.2508 14.0453 29.6173 13.9711C31.7285 13.5396 33.9372 13.6648 36.0113 14.2216C40.5214 15.4373 44.1545 18.6992 46.7018 22.518C46.8178 22.685 48.7945 21.59 48.8873 21.7245Z" fill="black"/>
<path d="M17.3446 48.3999C18.6809 51.4066 18.9593 54.7057 18.9036 57.9629C18.8433 61.4522 18.5324 64.9369 18.4071 68.4215C18.1473 75.7063 18.2354 83.0004 18.6623 90.2712C18.8479 93.3986 19.0706 96.7208 21.0148 99.3193C22.6156 101.468 25.0516 102.841 27.585 103.593C30.7588 104.535 34.1135 104.451 37.3801 104.187C40.9993 103.894 44.5813 103.551 48.2191 103.551C56.4458 103.546 64.6725 103.792 72.8993 103.927C73.2194 103.931 73.6927 103.648 73.9943 103.542C74.2495 103.449 74.5093 103.356 74.7645 103.259C74.8481 103.226 74.9965 103.133 75.0801 103.133C67.6839 103.013 60.2831 102.873 52.887 102.776C49.3327 102.73 45.8109 102.822 42.2706 103.152C38.7999 103.477 35.2503 103.866 31.7842 103.273C29.1116 102.813 26.4436 101.751 24.4298 99.89C22.1702 97.802 21.3257 94.9484 21.0287 91.9649C20.6714 88.3967 20.5879 84.7821 20.509 81.2001C20.4255 77.5205 20.4255 73.8364 20.5183 70.1568C20.6158 66.236 20.9081 62.3245 21.0566 58.4037C21.1958 54.7428 21.038 50.9983 19.53 47.6018C19.4975 47.5415 17.3585 48.4324 17.3446 48.3999Z" fill="black"/>
<path d="M47.7783 22.388C53.2303 22.1004 58.7009 22.2071 64.1343 22.7175C64.4359 22.7453 64.7375 22.7778 65.0391 22.8056C65.1922 22.8196 65.3407 22.8381 65.4892 22.852C65.698 22.8752 65.8743 22.8242 65.9207 22.9912C65.9718 23.1629 65.8093 23.6408 65.7861 23.8218C65.749 24.1327 65.7258 24.4436 65.7166 24.7544C65.6794 25.8448 65.8047 26.9399 66.0785 27.9932C66.6399 30.1461 67.837 32.0996 69.5213 33.5519C71.3727 35.1434 73.7159 36.0946 76.1473 36.257C76.4489 36.2756 76.9593 35.974 77.2423 35.8719C77.4975 35.7791 77.7573 35.6863 78.0126 35.5888C78.0914 35.561 78.2492 35.4589 78.3281 35.4636C73.8922 35.1666 69.9436 32.2248 68.5005 28.0071C68.1386 26.9445 67.9298 25.8309 67.8927 24.708C67.8742 24.2116 67.8927 23.7104 67.9437 23.214C67.9716 22.9356 68.0134 22.6572 68.0644 22.3834C68.1247 22.0632 68.1711 22.2071 67.8927 22.0818C67.7396 22.0122 67.489 22.04 67.3266 22.0215C64.6122 21.7384 61.8885 21.5575 59.1602 21.4786C56.0932 21.3858 53.0215 21.4276 49.9545 21.59C49.6158 21.6085 49.1796 21.8591 48.8594 21.9751C48.5486 22.0957 48.117 22.3695 47.7783 22.388Z" fill="black"/>
<path d="M75.8828 37.0226C77.3861 45.9917 77.1402 55.1511 77.1681 64.2084C77.1959 73.4605 77.2794 82.7127 77.2516 91.9648C77.2377 96.2847 76.7644 101.31 72.9086 104.01C73.1823 103.82 73.6834 103.741 74.0036 103.625C74.3377 103.505 74.797 103.426 75.0894 103.217C78.3977 100.901 79.2746 96.7208 79.4046 92.9253C79.567 88.3549 79.4138 83.752 79.3999 79.177C79.3721 69.962 79.4463 60.7376 79.2793 51.5226C79.1865 46.4047 78.9127 41.2821 78.0636 36.2292C78.0822 36.3498 75.8596 36.8648 75.8828 37.0226Z" fill="black"/>
<path d="M78.4394 35.5285C83.1165 29.3852 88.0025 23.4088 93.1018 17.6135C94.5402 15.9756 95.9972 14.3562 97.4681 12.7508C97.4356 12.7879 97.1525 12.8575 97.1479 12.8575C96.8881 12.9503 96.6329 13.0431 96.3777 13.1359C96.1225 13.2287 95.8626 13.3215 95.6074 13.4189C95.5285 13.4514 95.3476 13.4792 95.2919 13.5442C90.0812 19.2375 85.0653 25.1117 80.2722 31.1576C78.9173 32.8652 77.581 34.5866 76.2633 36.322C76.2865 36.2941 76.5927 36.2106 76.5834 36.2152C76.8433 36.1224 77.0985 36.0296 77.3537 35.9368C77.6089 35.844 77.8687 35.7512 78.1239 35.6538C78.1981 35.626 78.393 35.5888 78.4394 35.5285Z" fill="black"/>
<path d="M69.0341 22.2442C69.062 21.7013 69.4007 21.3487 69.874 21.126C69.7673 21.1677 69.6652 21.2095 69.5585 21.2512C68.0551 21.6967 67.5957 21.873 68.1804 21.7895C68.25 21.7802 68.3242 21.7709 68.3938 21.7709C68.5377 21.7709 68.6815 21.7848 68.8207 21.8173C69.0898 21.8823 69.345 22.0168 69.5724 22.1746C70.106 22.5458 70.505 23.084 70.8716 23.613C71.8553 25.0143 72.8157 26.4341 73.7855 27.8447C74.6068 29.0372 75.3909 30.5266 76.6716 31.2968C78.1193 32.1692 79.4741 31.45 80.8986 30.9117C80.8476 30.9303 81.2188 30.7957 81.2141 30.7864C81.2141 30.7818 80.8429 30.9117 80.894 30.8932C80.3789 31.0741 79.8639 31.2597 79.3535 31.4546C79.2978 31.4778 79.2375 31.4964 79.1818 31.5196C79.8036 31.2968 80.4253 31.0741 81.0471 30.8514C79.2885 31.3386 77.9615 29.9095 77.0428 28.6103C75.906 26.9909 74.797 25.353 73.6788 23.7244C72.9178 22.6154 71.9109 20.7316 70.2916 21.0053C69.4657 21.1445 68.6165 21.5436 67.8463 21.8591C67.3127 22.0772 66.8905 22.4205 66.858 23.0376C66.8626 22.9773 67.8556 22.6896 67.953 22.6525C68.0597 22.6154 69.0295 22.3509 69.0341 22.2442Z" fill="black"/>
<path d="M74.0593 22.968C80.0124 18.4672 85.9655 13.9664 91.914 9.46565C91.1855 9.73013 90.4617 9.99461 89.7332 10.2591C90.7586 11.484 91.631 13.2101 93.2596 13.7205C93.9092 13.9247 94.5634 13.9108 95.2037 13.6973C95.7466 13.5164 96.2849 13.3122 96.8231 13.1127C97.1433 12.992 97.482 12.89 97.7604 12.6904C99.1199 11.7346 98.3357 9.79509 97.0505 9.20581C95.2687 8.38453 93.0369 9.53525 91.3897 10.1848C91.2505 10.2405 91.5753 10.1292 91.501 10.1524C91.7191 10.0828 91.9372 9.99925 92.1553 9.92037C92.6007 9.75797 93.0508 9.60021 93.4916 9.42389C91.8815 9.97141 91.4268 10.1384 92.1228 9.93429C92.2434 9.89717 92.3641 9.86469 92.4893 9.83685C92.6517 9.79973 92.8141 9.77189 92.9812 9.75333C93.3385 9.71157 93.7004 9.70693 94.053 9.75797C94.6794 9.85077 95.2548 10.1245 95.6817 10.5978C96.3962 11.3866 96.5865 12.6765 95.6863 13.405C95.6028 13.4746 95.5053 13.521 95.4172 13.586C96.7257 12.6255 97.5284 12.9735 96.7025 13.0616C96.4705 13.0848 96.2292 13.0802 95.9972 13.0477C95.4636 12.9781 94.9625 12.774 94.5217 12.4584C93.4359 11.6789 92.7538 10.4679 91.9093 9.46101C91.8397 9.37749 89.8909 10.1292 89.7285 10.2544C83.7754 14.7552 77.8223 19.256 71.8738 23.7568C72.1337 23.562 72.6626 23.4831 72.9689 23.3717C73.2983 23.2604 73.7809 23.1815 74.0593 22.968Z" fill="black"/>
<path d="M77.929 31.9882C78.1053 32.1552 78.3327 32.2527 78.574 32.2759C78.69 32.2852 78.8106 32.2805 78.922 32.2527C79.1447 32.2016 79.3581 32.1088 79.5716 32.0346C79.9428 31.9 80.3186 31.7655 80.6898 31.6263C80.8708 31.5567 81.0564 31.4964 81.2374 31.4175C81.2837 31.3989 81.2884 31.3943 81.2559 31.4082C81.2095 31.4221 81.1677 31.436 81.126 31.45C80.9079 31.5242 80.6898 31.6031 80.4717 31.682C80.1933 31.784 79.9103 31.8861 79.6319 31.9882C79.4649 32.0485 79.2978 32.1042 79.1354 32.1784C79.1215 32.1831 79.103 32.1924 79.089 32.197C79.2561 32.132 79.4231 32.0717 79.5855 32.0068C79.5809 32.0068 79.5762 32.0114 79.5716 32.0114C80.0124 31.8536 80.4532 31.6912 80.894 31.5335C81.1492 31.45 81.2281 31.4221 81.1353 31.45C81.126 31.4546 81.1167 31.4546 81.1121 31.4592C81.126 31.4546 81.1399 31.45 81.1538 31.45C80.7919 31.5474 80.3929 31.4546 80.1191 31.1994C80.1052 31.1855 79.7572 31.32 79.799 31.3061C79.5391 31.3989 79.2839 31.4917 79.0287 31.5845C78.7735 31.6773 78.5137 31.7701 78.2585 31.8676C78.2028 31.8908 78.1471 31.9093 78.0868 31.9325C78.0218 31.9464 77.9754 31.965 77.929 31.9882Z" fill="black"/>
<path d="M76.0591 36.2988C75.79 37.0319 75.6461 37.8021 75.6322 38.5816C75.6461 38.577 75.6601 38.5724 75.674 38.5724C76.0498 38.4564 76.4164 38.3125 76.7876 38.178C77.1449 38.048 77.5114 37.9274 77.8641 37.7743C77.9893 37.7186 78.1007 37.6444 78.1889 37.5423C78.3605 37.3428 78.4348 37.069 78.3698 36.8092C78.3698 36.8138 77.3583 37.1664 77.2748 37.1943C77.0196 37.2871 76.7598 37.3799 76.5045 37.4773C76.4721 37.4912 76.1844 37.5887 76.189 37.6026C76.2818 37.9831 76.0777 38.3868 75.725 38.5492C75.7389 38.5445 75.7482 38.5399 75.7621 38.5306C75.7529 38.5352 75.7436 38.5399 75.7343 38.5399C76.2679 38.345 76.8015 38.1455 77.3351 37.9506C77.4836 37.8996 77.6321 37.8439 77.7805 37.7928C77.7945 37.7882 77.8084 37.7836 77.8223 37.7836C77.8362 37.004 77.9801 36.2338 78.2492 35.5007C78.2445 35.5146 77.8919 35.6213 77.929 35.6074C77.6692 35.7002 77.414 35.793 77.1588 35.8858C76.9036 35.9786 76.6438 36.0714 76.3885 36.1688C76.3329 36.192 76.2772 36.2106 76.2169 36.2338C76.1565 36.257 76.1055 36.2756 76.0591 36.2988Z" fill="black"/>
<path d="M30.949 51.0308C30.9444 56.2601 31.0186 61.4893 31.1764 66.7186C31.3295 71.7344 31.4223 76.7967 31.8817 81.7986C32.0673 83.8216 32.4245 85.9004 33.4546 87.6821C34.4661 89.4361 36.0948 90.661 37.9833 91.3477C42.4655 92.981 47.1937 91.5612 51.7223 90.9487C57.397 90.1831 63.146 90.5311 68.8393 90.8745C69.1409 90.893 69.6466 90.5914 69.9343 90.4893C70.1895 90.3965 70.4493 90.3037 70.7045 90.2063C70.7834 90.1785 70.9412 90.0764 71.0201 90.081C65.9207 89.7701 60.7935 89.4639 55.6941 89.9511C51.0449 90.3965 46.2749 92.0437 41.5978 90.9765C39.7093 90.545 37.8812 89.6681 36.582 88.2065C35.1946 86.6474 34.5636 84.6058 34.2527 82.5781C33.9001 80.2767 33.8583 77.9288 33.7423 75.6088C33.6124 72.9965 33.5057 70.3842 33.4129 67.7719C33.2134 61.9301 33.1206 56.0837 33.1298 50.242C33.1298 50.2884 32.1276 50.5946 32.0348 50.6271C31.9327 50.6596 30.949 50.938 30.949 51.0308Z" fill="black"/>
<path d="M33.8862 50.5853C38.2199 46.2933 41.7834 41.2821 44.4282 35.7837C44.702 35.213 44.9757 34.633 45.3377 34.1087C45.5372 33.8164 45.7692 33.538 46.0337 33.306C46.1218 33.2271 46.2146 33.1528 46.3121 33.0879C46.4141 33.0183 46.5209 32.9533 46.6276 32.893C45.2634 33.3199 44.8969 33.4591 45.5279 33.3106C47.1241 33.0693 48.7573 33.0832 50.3721 33.0229C52.0935 32.9533 53.8196 32.8884 55.541 32.8188C56.3855 32.7863 57.2254 32.7538 58.0698 32.7213C58.4178 32.7074 58.8772 32.6192 59.2206 32.6749C59.2994 32.6703 59.3737 32.6703 59.4526 32.6656C59.5593 32.777 59.6613 32.893 59.7681 33.0044C59.9537 33.2039 60.1346 33.3988 60.3202 33.5983C62.682 36.1456 65.0437 38.693 67.4009 41.2404C67.8973 41.7786 68.4634 42.2983 68.8625 42.9154C69.2986 43.5928 69.3821 44.377 69.4749 45.1612C69.6837 46.9058 69.8693 48.6504 70.041 50.3997C70.7138 57.2391 71.1268 64.1016 71.2753 70.9688C71.3588 74.7829 71.3588 78.6016 71.2799 82.4204C71.2474 83.9284 71.317 85.492 70.9366 86.9676C70.7834 87.5522 70.5653 88.1415 70.2127 88.638C70.0642 88.8421 69.8972 89.037 69.6977 89.1948C69.6002 89.2737 69.4935 89.3293 69.3914 89.3989C70.9087 88.3549 71.5305 88.8236 70.5886 88.8468C70.2545 88.856 69.8044 89.1205 69.4935 89.2319C69.1826 89.3432 68.7372 89.6309 68.4077 89.6402C69.0527 89.6263 69.6605 89.334 70.2591 89.1159C70.8855 88.8885 71.5676 88.7169 72.0594 88.2389C72.8621 87.4548 73.1684 86.2298 73.3122 85.1533C73.5257 83.5433 73.4561 81.8775 73.4839 80.2581C73.5117 78.4253 73.521 76.5925 73.5164 74.7597C73.4839 67.4332 73.1498 60.102 72.5141 52.8032C72.3564 50.9797 72.1801 49.1562 71.9852 47.3327C71.8877 46.4232 71.7857 45.5092 71.6789 44.5997C71.5861 43.8202 71.5351 42.9943 71.1407 42.2936C70.7324 41.5652 70.0596 40.9712 69.4981 40.3634C68.8671 39.686 68.2407 39.0039 67.6097 38.3264C66.3522 36.9669 65.0902 35.6074 63.8327 34.2479C63.2017 33.5704 62.5753 32.8884 61.9442 32.2109C61.8932 32.1552 61.8375 32.0996 61.7865 32.0392C61.7076 31.8676 61.5777 31.8119 61.4013 31.8768C61.1925 31.8444 60.9234 31.8954 60.71 31.9047C60.2506 31.9232 59.7913 31.9418 59.3319 31.9604C57.4574 32.0346 55.5781 32.1088 53.7036 32.1831C51.9079 32.2527 50.0705 32.2156 48.2841 32.429C47.6066 32.5079 46.9895 32.7213 46.3492 32.9487C45.5604 33.2317 44.6602 33.4637 43.9921 33.9927C42.6929 35.0181 42.1361 36.8695 41.3983 38.2893C40.5538 39.8994 39.6305 41.4677 38.6282 42.9804C36.6191 46.0103 34.2991 48.8268 31.7146 51.3834C31.7518 51.3463 32.0209 51.2813 32.0348 51.2767C32.2946 51.1839 32.5498 51.0911 32.805 50.9983C33.0927 50.8869 33.6634 50.8034 33.8862 50.5853Z" fill="black"/>
<path d="M49.7085 47.9498C46.9617 52.8682 44.1174 57.9676 43.2729 63.6191C42.5954 68.1524 43.3564 73.1821 46.261 76.8524C47.7922 78.7826 50.0705 80.5458 52.6364 80.5736C53.9681 80.5876 55.2441 80.0029 56.4644 79.5343C57.5734 79.112 58.5153 78.4532 59.3226 77.5855C62.9001 73.7436 63.6332 67.8925 61.8746 63.0716C61.3132 61.5264 60.5754 60.0556 59.8701 58.5754C59.1045 56.9746 58.3436 55.3738 57.578 53.7776C56.0514 50.576 54.5249 47.3791 52.9983 44.1775C52.9937 44.1728 50.9567 44.8364 50.8175 44.9709C49.9777 45.7829 49.6297 46.9244 49.871 48.0658C49.8524 47.9776 52.075 47.393 52.0518 47.2724C51.8105 46.1309 52.1585 44.9895 52.9983 44.1775C52.2698 44.442 51.546 44.7064 50.8175 44.9709C53.4066 50.3951 56.0375 55.8053 58.5849 61.2527C59.7031 63.6516 60.6033 66.1061 60.6404 68.7834C60.6729 71.289 60.0557 73.8039 58.8401 75.9986C58.2833 77.0055 57.6012 77.9613 56.766 78.7594C56.3623 79.1445 55.9215 79.4925 55.4436 79.7802C55.3183 79.8544 55.1884 79.9194 55.0631 79.9936C54.4785 80.3416 56.1489 79.6271 56.1071 79.6271C55.7452 79.6317 55.3694 79.7663 55.0028 79.7756C52.539 79.8359 50.3025 78.2397 48.7574 76.444C45.8202 73.029 44.8829 68.2452 45.3191 63.8511C45.9177 57.8098 48.9847 52.3532 51.8847 47.1517C51.8708 47.1749 51.5367 47.2677 51.5645 47.2584C51.3047 47.3512 51.0495 47.444 50.7943 47.5368C50.5391 47.6296 50.2793 47.7224 50.0241 47.8199C49.9591 47.8477 49.7364 47.8988 49.7085 47.9498Z" fill="black"/>
</svg>
