<svg width="321" height="307" viewBox="0 0 321 307" fill="none" xmlns="http://www.w3.org/2000/svg">
<path d="M282.689 142.106C282.637 142.102 282.58 142.102 282.528 142.102C282.5 142.082 282.456 142.082 282.388 142.098C282.312 142.098 282.235 142.09 282.159 142.09C280.939 142.002 279.719 142.034 278.5 142.114C278.496 142.114 278.496 142.114 278.492 142.114C277.934 142.062 277.38 142.018 276.822 141.986C276.81 141.982 276.794 141.978 276.782 141.974C277.781 141.769 278.785 141.565 279.784 141.364C279.29 141.304 278.797 141.252 278.299 141.208C278.817 141.063 279.334 140.923 279.848 140.774C279.848 140.766 279.844 140.762 279.844 140.758C279.86 140.754 279.876 140.754 279.892 140.75C279.952 140.69 279.908 140.574 279.82 140.578C278.183 140.61 276.538 140.614 274.896 140.65C271.329 139.835 267.614 139.57 264.059 140.305C263.674 140.329 263.336 140.357 263.032 140.389C262.875 140.373 262.714 140.365 262.538 140.381C262.129 140.369 261.667 140.361 261.17 140.353C258.333 139.807 255.974 139.703 252.491 139.679C252.434 139.679 252.378 139.683 252.322 139.683C251.303 139.599 250.284 139.55 249.261 139.603C246.572 139.723 242.921 140.092 241.111 140.184C239.976 140.072 238.836 139.972 237.705 139.863C235.726 139.687 233.74 139.603 231.754 139.611C229.487 139.438 227.216 139.354 224.941 139.458C224.243 139.462 223.544 139.478 222.846 139.498C218.108 139.306 213.317 139.346 208.586 139.847C205.087 139.554 201.58 139.394 198.065 139.43C196.099 139.466 194.129 139.458 192.163 139.53C191.569 139.442 190.967 139.454 190.373 139.518C189.539 139.354 188.704 139.201 187.861 139.101C187.195 139.049 186.529 139.013 185.863 138.989C183.167 138.615 181.1 138.403 177.421 138.27C173.352 138.126 169.291 138.311 165.227 138.539C163.622 138.515 162.017 138.543 160.42 138.736C160.36 138.748 160.299 138.768 160.243 138.784C153.795 137.58 147.11 137.492 140.574 137.953C135.546 137.412 130.523 136.806 125.459 136.698C119.777 136.413 112.037 136.377 108.121 135.795C107.696 135.751 107.274 135.835 106.897 136.007C105.902 135.871 105.015 135.771 104.345 135.686C101.147 135.389 97.9412 135.281 94.7312 135.261C93.2666 134.932 91.7058 134.88 90.2412 134.78C83.3116 134.386 76.366 134.703 69.4364 134.948C67.695 135.024 65.9535 135.093 64.2161 135.189C63.4016 135.265 62.2661 135.249 61.283 135.474C59.5255 135.59 57.9607 136.718 56.797 138.21C56.2473 138.443 55.7096 138.708 55.196 139.025C54.4858 139.342 53.9923 140.044 53.9441 140.782C53.9321 140.794 53.9201 140.802 53.912 140.814C53.5148 141.224 53.2781 141.817 53.246 142.411C53.1537 142.849 53.1818 143.294 53.3182 143.711C51.4885 143.659 50.4493 145.97 51.9901 147.142C52.0262 147.17 52.0663 147.19 52.1024 147.214C52.7885 148.049 54.0083 148.081 55.0075 148.189C55.7899 148.262 56.5763 148.318 57.3628 148.37C60.1595 149.164 63.5661 150.336 66.2264 151.074C64.8782 151.331 63.534 151.64 62.1818 151.849C62.0614 151.869 61.9451 151.889 61.8247 151.909C60.8497 152.057 59.8746 152.226 58.9076 152.418C58.3458 152.523 57.7881 152.631 57.2304 152.756C55.3285 151.748 52.624 152.551 51.4764 152.808C51.1073 152.92 50.7141 153.044 50.3128 153.181C50.2045 153.209 50.0962 153.237 49.9878 153.261C49.077 152.238 46.2763 153.241 44.7916 153.883C44.4466 153.991 44.1256 154.136 43.8527 154.353C43.7203 154.461 43.62 154.597 43.5437 154.746C43.4916 154.774 43.4354 154.798 43.3832 154.83C43.3431 154.854 43.3231 154.902 43.3351 154.95C43.3632 154.986 43.3993 155.019 43.4314 155.051C43.3271 155.472 43.4153 155.941 43.7083 156.258C43.6521 156.419 43.628 156.587 43.64 156.752C43.2308 156.969 42.8175 157.177 42.4082 157.394C42.4082 157.398 42.4122 157.398 42.4122 157.402C42.2878 157.482 42.1955 157.591 42.1715 157.759C42.1354 157.936 42.2236 158.108 42.3601 158.213C41.8826 158.754 41.4452 159.332 41.0319 159.926C40.2294 161.11 39.4991 162.365 38.8892 163.674C38.0867 165.058 37.4126 166.514 36.6703 167.927C36.5339 168.151 36.4657 168.392 36.4456 168.625C35.0533 170.427 33.685 172.248 32.405 174.134C31.9757 174.756 31.5745 175.394 31.2013 176.052C31.0408 176.321 30.7358 176.839 31.0408 177.031C30.8562 177.268 30.6797 177.509 30.5111 177.757C30.3426 178.111 30.3466 178.464 30.463 178.781C30.4108 178.809 30.3627 178.837 30.3105 178.865C30.154 178.937 29.9935 179.013 29.837 179.102C29.4559 179.31 29.3836 179.824 29.5963 180.161C29.3395 180.305 29.0827 180.45 28.8299 180.594C28.7336 180.65 28.7657 180.791 28.854 180.823C28.7416 180.875 28.6293 180.927 28.5209 180.979C28.854 180.935 29.183 180.883 29.512 180.831C29.2873 181.088 29.0666 181.353 28.85 181.625C28.7577 181.706 28.6654 181.79 28.5731 181.87C28.6213 181.846 28.6694 181.826 28.7135 181.802C28.5169 182.063 28.3203 182.328 28.1357 182.609C28.8821 182.031 29.6565 181.493 30.451 180.987C34.5317 180.939 38.476 179.828 42.3601 178.572C42.5968 178.52 42.8375 178.468 43.0743 178.419C43.1706 178.399 43.2629 178.375 43.3592 178.355C43.5879 178.624 43.8407 178.873 44.1095 179.106C44.0614 179.407 44.0132 179.708 43.9731 180.008C43.6922 181.975 43.7644 184.013 44.27 185.939C44.0132 186.729 43.8527 187.52 43.8166 188.314C43.7925 189.779 44.2901 191.223 45.1608 192.391C45.0645 192.8 44.9642 193.21 44.8518 193.615C44.7395 194.012 44.6231 194.413 44.5108 194.819C44.1175 195.701 43.6762 196.704 43.1786 198C42.7332 198.984 42.5767 200.215 42.9058 201.255C42.8335 201.483 42.7653 201.712 42.7132 201.945C42.5045 202.675 42.4885 203.369 42.6289 203.975C42.4243 204.079 42.2357 204.212 42.0712 204.38C41.2366 205.287 40.8473 205.576 40.7551 205.636C40.731 205.652 40.7109 205.672 40.6868 205.688C40.6868 205.821 40.6828 205.957 40.6628 206.102C40.5504 206.952 40.5464 207.795 40.4381 208.638C40.4461 208.762 40.4541 208.882 40.4621 209.007C40.731 208.975 40.9798 208.943 41.1724 208.931C42.9098 208.83 44.6151 208.373 46.3445 208.325C46.3525 208.325 46.3565 208.325 46.3645 208.325C46.6173 208.212 46.8701 208.1 47.1229 207.984C47.2232 207.935 47.3235 207.891 47.4238 207.843C47.6887 207.863 47.9655 207.839 48.2544 207.763C48.7359 207.651 49.1933 207.466 49.6427 207.261C50.3369 207.181 51.019 207.057 51.6971 206.9C52.0422 207.189 52.4715 207.402 52.9571 207.518C55.1118 207.98 57.0859 206.631 59.1002 206.07C59.5055 205.929 59.9107 205.797 60.316 205.66C61.937 205.624 63.847 205.022 65.2153 204.577C65.4119 204.962 65.8131 205.255 66.2665 205.255C66.7159 205.279 67.1292 205.143 67.5224 204.942C67.6348 205.054 67.7592 205.159 67.8916 205.247C67.9758 205.231 68.0561 205.211 68.1363 205.195C69.5407 204.758 70.9852 204.485 72.4498 204.272C74.6205 203.758 76.7953 203.253 78.9099 202.563C79.9291 202.23 80.9723 202.174 81.9714 201.78C82.6616 201.507 83.3397 201.202 84.0299 200.926C85.7793 200.231 87.6612 199.786 89.4548 199.216C90.7187 198.815 92.0428 198.358 93.3469 198.109C94.8716 197.816 96.3362 197.042 97.9372 196.765C100.75 196.279 102.122 195.713 104.337 194.931C105.168 194.116 106.524 193.94 107.655 194.373C109.706 193.611 111.772 192.905 113.851 192.227C119.476 190.947 125.074 189.542 130.643 188.045C131.718 188.07 132.85 187.708 133.805 187.291C134.266 187.123 134.732 186.962 135.193 186.802C135.39 186.745 135.586 186.693 135.783 186.637C135.883 186.77 135.992 186.886 136.1 186.982C137.765 186.308 139.491 185.798 141.244 185.397C141.513 185.313 141.786 185.233 142.055 185.152C143.307 184.631 144.57 184.161 145.871 183.76C146.641 183.523 147.435 183.303 148.242 183.11C152.122 181.722 156.524 180.197 160.653 180.145C161.022 180.012 161.391 179.88 161.764 179.752C163.871 179.25 165.985 178.769 168.104 178.303C169.308 177.384 171.23 177.244 172.602 176.726C174.628 175.964 176.482 175.009 178.584 174.411C178.761 174.359 178.938 174.311 179.118 174.263C180.908 173.464 183.014 173.003 184.671 172.549C185.378 172.353 186 172.381 186.521 172.557C188.596 171.919 190.742 171.422 192.777 170.82C192.993 170.756 193.218 170.687 193.443 170.615C193.691 170.198 194.016 169.829 194.418 169.56C195.421 168.886 196.914 168.581 198.238 168.806C199.213 168.609 200.216 168.513 201.171 168.284C201.311 168.252 201.448 168.212 201.588 168.172C204.256 167.104 207.005 166.205 209.77 165.555C213.281 164.5 216.916 163.357 220.487 162.903C220.563 162.895 220.639 162.887 220.716 162.883C220.928 162.811 221.141 162.739 221.354 162.666C223.055 162.189 224.768 161.748 226.49 161.338C226.919 161.266 227.276 161.09 227.569 160.849C228.203 160.72 228.833 160.592 229.467 160.456C230.269 159.97 231.216 159.713 232.167 159.489C233.841 159.099 234.796 158.546 236.669 157.948C239.779 156.953 242.54 155.785 245.425 154.585C247.154 153.863 249.096 153.048 250.922 152.611C251.203 152.543 251.471 152.495 251.732 152.451C252.013 152.298 252.314 152.146 252.382 152.106C252.856 151.833 253.381 151.612 253.875 151.379C254.449 151.11 255.023 150.842 255.612 150.609C255.978 150.484 256.339 150.356 256.696 150.216C257.33 149.959 257.486 149.959 257.169 150.212C257.49 150.035 257.839 149.931 258.192 149.887C258.413 149.802 258.63 149.718 258.85 149.654C259.011 149.606 259.119 149.574 259.184 149.554C259.36 149.413 259.537 149.265 259.737 149.152C260.913 148.482 262.289 148.033 263.581 147.668C263.637 147.652 263.698 147.632 263.758 147.616C264.239 147.379 264.721 147.134 265.19 146.861C265.407 146.737 265.624 146.64 265.836 146.572C265.792 146.508 265.748 146.448 265.692 146.392C266.663 146.163 267.634 145.918 268.601 145.681C269.732 145.441 270.868 145.22 271.987 144.919C273.38 144.831 274.768 144.67 276.144 144.377C278.379 143.932 280.538 143.146 282.745 142.616C282.921 142.512 282.905 142.187 282.689 142.106ZM31.0408 180.711C31.2133 180.63 31.3899 180.554 31.5624 180.474C31.7791 180.434 31.9918 180.398 32.2084 180.354C31.8192 180.482 31.43 180.594 31.0408 180.711ZM45.1487 164.657C45.0886 164.701 45.0244 164.749 44.9642 164.793C45.0565 164.645 45.1528 164.5 45.2491 164.356C45.3454 164.271 45.4376 164.191 45.5339 164.111C45.4015 164.291 45.2771 164.476 45.1487 164.657ZM74.0989 145.617C74.3196 145.625 74.5403 145.633 74.761 145.641C74.777 145.698 74.8011 145.754 74.8212 145.81C74.5804 145.746 74.3397 145.681 74.0989 145.617Z" fill="#EBD85B"/>
<path d="M283.166 143.33C281.405 143.114 279.635 143.049 277.862 143.065C277.814 143.029 277.765 142.997 277.709 142.965C277.22 142.68 276.638 142.756 276.088 142.74C276.489 142.175 276.329 141.276 275.691 140.923C275.486 140.822 275.27 140.778 275.049 140.758V140.75C275.029 140.754 275.009 140.754 274.989 140.758C274.427 140.73 273.829 140.883 273.275 140.875C270.896 141.095 268.529 141.408 266.173 141.773C264.275 141.986 262.377 142.199 260.484 142.427C259.569 142.532 258.654 142.648 257.739 142.765C257.342 142.532 256.896 142.379 256.427 142.303C253.265 141.87 250.011 141.753 246.861 142.339C246.215 142.46 245.573 142.608 244.935 142.769C241.994 142.56 239.037 142.56 236.104 142.785C234.218 142.941 232.344 143.162 230.474 143.435C226.125 143.238 221.759 143.214 217.425 143.659C217.124 143.615 216.824 143.579 216.535 143.535C213.076 143.15 209.585 143.338 206.114 143.467C203.326 143.535 200.553 143.736 197.784 144.028C195.256 144.024 192.724 144.117 190.205 144.305C189.848 144.289 189.494 144.281 189.145 144.261C187.448 144.257 185.751 144.386 184.061 144.522C179.64 144.137 173.38 143.695 171.109 145.296C171.041 145.296 170.973 145.292 170.905 145.292C170.584 145.14 170.254 144.999 169.942 144.867C167.245 143.9 164.312 143.736 161.475 143.487C157.463 143.487 153.462 144.125 149.53 144.875C148.422 145.144 147.327 145.453 146.236 145.778C145.084 145.922 143.961 146.071 142.681 146.203C140.999 146.364 139.314 146.496 137.629 146.617C134.615 146.576 131.602 146.669 128.589 146.837C120.508 147.299 112.434 147.892 104.361 148.45C97.3233 148.968 90.2693 149.317 83.2795 150.344C80.1257 150.838 76.996 151.448 73.8502 151.981C73.5733 152.029 73.3004 152.078 73.0236 152.126C72.5782 151.765 72.0084 151.532 71.4467 151.48C71.1859 151.452 70.9291 151.436 70.6682 151.419C70.4917 151.395 70.3151 151.375 70.1346 151.359C67.4181 150.456 64.485 151.042 61.6843 151.139C59.7382 151.323 57.8122 151.692 55.9343 152.238C55.4569 152.31 54.225 152.519 53.9201 152.579C53.4948 152.627 53.0734 152.707 52.7003 152.936C52.7003 152.936 52.7003 152.936 52.6963 152.94C52.0101 153.061 51.328 153.189 50.6459 153.333C49.7872 153.502 48.9165 153.622 48.11 153.979C48.0899 153.987 48.0699 153.996 48.0538 154.004C47.2152 154.012 46.3686 153.923 45.534 154.008C44.9441 154.08 44.591 154.465 44.3342 154.95C43.9972 155.027 43.6922 155.175 43.4916 155.476C43.4033 155.621 43.4073 155.809 43.4916 155.954C43.3712 156.158 43.291 156.379 43.2468 156.608C43.1545 156.78 43.0984 156.957 43.0783 157.141C42.5286 157.888 42.2758 158.911 41.8705 159.717C41.694 160.139 41.3248 160.913 40.7511 161.96C39.1621 163.886 37.7016 165.909 36.4818 168.095C36.0805 168.83 35.6672 169.56 35.278 170.306C34.9169 170.908 34.5999 171.502 34.3471 172.064C33.3921 173.011 32.4372 173.958 31.4822 174.901C30.784 175.587 30.0858 176.277 29.4198 176.991C29.1228 177.284 28.9302 177.657 28.842 178.058C27.7385 178.729 26.8477 179.503 26.7635 180.414C26.595 181.264 27.0765 182.111 27.7907 182.56C28.5571 183.034 29.4639 182.845 30.2544 182.532C31.0609 182.223 31.8634 181.906 32.6538 181.561C34.4554 180.839 36.1126 179.856 37.7337 178.801C38.5642 178.624 39.3948 178.448 40.2334 178.319C40.5625 178.255 41.3008 178.147 42.2437 178.018C45.3614 178.496 48.5072 177.649 51.5647 177.011C52.7083 176.939 53.8519 176.875 54.9954 176.815C56.2874 176.75 57.764 176.847 58.7832 175.908C58.8595 175.836 58.9237 175.751 58.9879 175.671C60.6651 175.418 62.3062 175.218 64.156 175.045C64.7338 175.041 65.3156 175.021 65.8934 174.981C67.1051 174.844 68.5858 175.121 69.5327 174.202C69.7855 173.962 69.958 173.673 70.0583 173.36C70.4235 173.384 70.7926 173.408 71.1578 173.432C72.1047 173.488 73.1761 173.585 73.9906 173.007C74.1912 172.882 74.3638 172.742 74.5042 172.589C74.7891 172.573 75.074 172.553 75.3508 172.545C79.4356 172.228 83.4882 171.626 87.5328 170.968C88.0223 170.928 88.5118 170.884 88.9974 170.84C89.1819 171.113 89.4387 171.33 89.7597 171.446C90.2011 171.699 90.7147 171.558 91.1922 171.518C92.2916 171.41 93.367 171.177 94.4503 170.96C96.2961 170.583 98.1418 170.186 99.9836 169.801C101.015 169.56 102.05 169.343 103.085 169.139C107.944 168.521 112.555 167.935 117.514 167.257C120.307 166.888 123.088 166.458 125.876 166.057C127.289 165.772 128.882 165.744 130.226 165.174C130.442 165.15 130.663 165.122 130.892 165.098C131.542 165.287 132.26 165.154 132.934 165.146C134.21 165.05 135.474 164.861 136.738 164.681C137.581 164.661 138.423 164.649 139.266 164.637C139.587 164.637 139.884 164.556 140.161 164.396C140.165 164.392 140.169 164.388 140.177 164.384C141.637 164.292 143.094 164.199 144.554 164.091C145.758 163.999 147.199 163.742 147.736 163.682C149.028 163.557 150.393 163.601 151.564 162.967C151.793 162.863 151.998 162.707 152.174 162.522C152.957 162.454 153.839 162.398 154.983 162.366C156.496 162.325 158.016 162.309 159.525 162.474C160.348 162.642 161.174 162.883 162.013 162.691C162.952 162.506 163.694 161.679 163.766 160.728C163.975 160.684 164.188 160.644 164.396 160.592C165.6 160.335 167 160.09 168.521 159.866C171.314 159.689 174.102 159.529 176.899 159.388C177.389 159.352 177.878 159.328 178.368 159.28C178.5 159.272 178.765 159.24 178.962 159.212C179.419 159.18 179.884 159.099 180.214 158.746C180.25 158.71 180.278 158.666 180.31 158.626C182.18 158.538 184.053 158.53 185.919 158.429C186.963 158.333 188.295 158.614 188.969 157.603C189.153 157.394 189.27 157.149 189.334 156.893C191.188 156.876 193.041 156.848 194.875 156.596C195.369 156.543 195.79 156.299 196.107 155.95C198.527 155.813 200.942 155.653 203.358 155.484C203.442 155.528 203.546 155.532 203.659 155.508C203.815 155.58 204.112 155.464 204.573 155.468C205.288 155.42 206.002 155.364 206.72 155.312C209.396 155.107 212.073 154.854 214.741 154.561C220.471 153.907 225.354 153.169 230.819 152.19C232.304 152.017 233.784 151.825 235.261 151.604C238.327 151.135 239.133 151.123 242.588 150.565C243.816 150.34 245.043 150.039 246.139 149.429C246.211 149.405 246.283 149.381 246.352 149.345C246.444 149.313 246.528 149.269 246.612 149.221C247.788 148.988 248.964 148.755 250.139 148.518C250.272 148.486 250.364 148.39 250.408 148.274C251.167 148.334 251.925 148.41 252.683 148.486C253.458 148.522 254.3 148.803 255.027 148.43C255.279 148.342 255.496 148.197 255.681 148.021C258.229 147.864 260.764 147.608 263.28 147.11C263.3 147.106 263.32 147.102 263.336 147.098C264.119 146.97 264.897 146.821 265.672 146.653C265.945 146.548 266.209 146.488 266.466 146.468C267.088 146.32 267.706 146.163 268.32 145.983C268.689 145.966 269.054 145.954 269.423 145.934C270.102 145.914 270.784 145.89 271.462 145.87C272.525 145.485 273.669 145.224 274.84 145.04C275.41 144.895 275.98 144.759 276.522 144.618C277.152 144.454 277.793 144.329 278.439 144.249C278.439 144.193 278.435 144.133 278.431 144.077C280.024 143.776 281.605 143.511 283.166 143.33Z" fill="#F3EE92"/>
<path d="M110.011 193.282C100.264 195.866 90.5181 198.454 80.7718 201.038C79.4837 201.379 78.284 202.069 77 202.41C86.7464 199.826 96.4927 197.238 106.239 194.654C107.531 194.309 108.727 193.623 110.011 193.282Z" fill="black"/>
<path d="M161.748 179.005C155.99 180.574 150.256 182.211 144.538 183.917C143.383 184.262 141.814 184.98 140.907 185.249C146.577 183.556 152.266 181.93 157.976 180.378C159.268 180.029 160.468 179.354 161.748 179.005Z" fill="black"/>
<path d="M264.717 147.098C257.446 149.854 250.175 152.611 242.905 155.368C242.191 155.637 243.527 155.171 243.591 155.147C244.454 154.842 245.312 154.525 246.167 154.2C253.438 151.443 260.708 148.687 267.979 145.93C268.693 145.661 267.357 146.127 267.293 146.151C266.43 146.46 265.571 146.773 264.717 147.098Z" fill="black"/>
<path d="M222.253 162.253C205.107 166.567 188.162 171.739 171.161 176.594C170.006 176.923 168.437 177.669 167.53 177.926C184.483 173.087 201.383 167.927 218.481 163.625C219.777 163.3 220.969 162.574 222.253 162.253Z" fill="black"/>
<path d="M279.306 143.142C279.346 143.134 279.374 143.126 279.403 143.118C280.386 143.049 281.365 142.881 282.328 142.676C281.196 142.411 280.033 142.423 278.869 142.544C277.292 142.427 275.687 142.48 274.11 142.728C274.062 142.724 274.018 142.72 273.97 142.712C272.337 142.576 270.716 142.684 269.107 142.937C268.938 142.921 268.769 142.905 268.601 142.893C268.348 142.335 267.863 141.878 267.241 141.697C265.604 141.34 263.886 141.573 262.221 141.553C259.633 141.661 257.041 141.842 254.461 142.114C254.457 142.114 254.453 142.114 254.453 142.114C248.615 141.729 242.74 141.26 236.91 141.962C236.786 141.954 236.657 141.946 236.533 141.938C233.295 141.862 229.92 140.774 226.763 141.898C225.884 142.255 224.969 142.692 224.343 143.423C224.291 143.418 224.239 143.418 224.191 143.41C221.92 143.246 219.648 143.057 217.381 142.873C214.492 142.688 211.611 142.379 208.71 142.407C204.999 142.355 201.259 142.251 197.6 142.977C194.943 143.374 192.331 144.012 189.779 144.851C188.134 144.369 186.264 144.249 184.836 144.065C181.128 143.651 177.401 143.394 173.669 143.314C162.009 143.021 150.389 144.474 138.837 145.894C136.14 146.243 133.404 146.528 130.82 147.419C130.595 147.507 130.37 147.587 130.142 147.676C130.021 147.688 129.905 147.708 129.785 147.724C124.785 147.535 119.785 147.307 114.786 147.467C109.168 147.7 103.631 148.719 98.17 150.011C97.7206 149.822 97.2632 149.658 96.8058 149.517C93.2065 148.494 89.4268 148.888 85.7794 149.421C82.6256 149.955 79.3273 150.721 76.017 151.572C73.5694 151.564 71.1298 151.712 68.6982 151.969C68.4855 151.905 68.2608 151.877 68.0361 151.869V151.861C68.0241 151.861 68.0081 151.865 67.996 151.865C67.4864 151.853 66.9608 151.937 66.4592 151.957C64.6215 152.11 62.7798 152.214 60.9461 152.419C60.276 152.495 59.6139 152.603 58.9518 152.727C57.5194 152.788 56.0989 153.036 54.6865 153.321C53.6393 153.329 52.6161 153.586 51.605 153.871C50.9469 153.65 50.1444 153.699 49.4864 153.883C49.3339 153.907 49.1774 153.935 49.0249 153.963C49.2055 153.815 49.3218 153.638 49.2135 153.382C49.1092 153.153 48.9086 153.093 48.6678 153.117V153.113C48.6638 153.113 48.6598 153.117 48.6558 153.117C48.3749 153.153 48.0419 153.301 47.7329 153.462C47.5804 153.518 47.432 153.574 47.2795 153.634C46.485 153.967 45.4779 154.18 45.0164 154.946C44.3504 155.183 43.8167 155.604 43.7485 156.435C43.7284 156.547 43.7204 156.66 43.7244 156.776C42.8457 157.322 42.0151 157.956 41.2046 158.594C37.9665 161.106 35.242 164.504 34.0342 168.456C33.9219 168.982 33.8978 169.448 33.95 169.853C33.4243 170.467 32.9268 171.101 32.4974 171.791C31.723 172.922 31.1091 174.728 31.4462 176.044C31.3378 176.494 31.398 176.955 31.5826 177.364C31.394 177.529 31.2174 177.709 31.081 177.93C30.2103 179.226 31.0529 181.224 32.6499 181.345C33.3681 181.493 34.0784 181.124 34.7805 180.992C35.9602 180.667 37.0877 180.181 38.2152 179.712C40.8876 179.098 43.6161 178.704 46.3044 178.199C54.0044 176.815 61.6643 175.218 69.3081 173.54C69.3723 173.552 69.4365 173.568 69.5047 173.572C70.2109 173.689 70.9131 173.4 71.6193 173.352C72.9234 173.111 74.2194 172.842 75.5074 172.537C76.6951 172.304 77.8828 172.072 79.0705 171.847C79.8208 171.747 80.511 171.65 81.0848 171.566C81.5623 171.478 82.0357 171.386 82.5092 171.289C86.4535 170.756 90.2052 170.326 94.9399 169.564C97.6484 169.143 100.349 168.673 103.053 168.212C107.17 167.814 111.427 167.59 116.178 167.702C117.378 167.678 118.662 168.075 119.765 167.445C120.223 167.193 120.548 166.767 120.72 166.286C121.202 166.631 121.82 166.795 122.466 166.651C131.682 165.58 141.878 162.622 150.521 161.106C152.989 161.126 155.456 161.202 157.92 161.282C159.942 161.242 165.203 161.968 167.883 161.19C168.561 161.166 169.239 160.985 169.918 160.917C171.671 160.592 173.42 160.259 175.162 159.886C177.409 159.416 179.339 159.023 181.153 158.698C183.187 158.53 185.35 158.341 187.159 158.092C189.86 157.839 192.564 157.506 195.281 157.498C195.818 157.502 196.276 157.318 196.641 157.025C199.638 156.756 202.631 156.403 205.593 155.841C205.821 156.254 206.178 156.592 206.648 156.756C208.285 157.386 210.014 156.375 211.615 156.014C212.318 155.793 213.024 155.596 213.734 155.412C214.043 155.492 214.38 155.544 214.741 155.548C215.837 155.532 216.86 155.143 217.883 154.802C218.356 154.658 218.83 154.513 219.299 154.365C219.231 154.373 219.163 154.385 219.095 154.393C219.115 154.389 219.135 154.385 219.155 154.381C219.207 154.373 219.259 154.369 219.307 154.361C219.323 154.357 219.343 154.349 219.36 154.345C221.787 153.951 227.814 153.843 229.539 152.025C229.892 151.949 230.245 151.873 230.599 151.797C234.362 151.347 238.134 150.966 241.902 150.549C244.739 150.159 247.628 149.899 250.364 149.024C251.038 148.851 251.524 148.374 251.777 147.792C252.627 147.88 253.474 147.973 254.324 148.049C256.511 148.173 258.706 148.049 260.889 147.9C261.796 147.868 262.707 147.824 263.613 147.832C264.091 147.836 264.6 147.904 265.03 147.656C265.776 147.395 266.306 146.624 266.374 145.838C267.229 145.738 268.095 145.581 268.537 144.763C268.557 144.727 268.569 144.686 268.589 144.646C268.854 144.594 269.119 144.546 269.387 144.506C271.518 144.586 274.17 144.61 275.462 144.349C277.075 144.105 278.773 143.916 280.297 143.35C279.828 143.326 279.354 143.29 278.881 143.25C279.021 143.21 279.162 143.182 279.306 143.142Z" fill="#F1EEAF"/>
<path d="M219.677 154.304C219.552 154.32 219.428 154.337 219.299 154.353C219.295 154.353 219.291 154.357 219.287 154.357C219.416 154.341 219.548 154.325 219.677 154.304Z" fill="#F1EEAF"/>
<path d="M265.395 146.524C264.528 146.745 263.653 146.925 262.783 147.118C260.419 147.431 258.084 147.587 255.773 148.346C255.175 148.526 254.573 148.723 253.999 148.976C252.109 148.944 250.212 149.028 248.338 149.273C244.044 149.253 239.759 149.895 235.899 151.821C233.01 151.748 230.105 152.102 227.248 152.679C225.976 152.908 224.712 153.193 223.46 153.522C221.647 153.594 219.861 153.935 218.108 154.389C211.876 154.649 205.677 155.448 199.586 156.78C199.205 156.868 198.823 156.957 198.442 157.041C197.11 157.185 195.794 157.394 194.454 157.695C194.374 157.703 194.297 157.711 194.217 157.723C194.161 157.731 194.105 157.739 194.045 157.747C194.113 157.735 194.085 157.735 193.84 157.763C193.611 157.787 193.383 157.815 193.158 157.847C192.544 157.779 191.918 157.755 191.336 157.703C187.348 157.583 183.432 158.481 179.543 159.272C178.653 159.412 179.287 159.312 178.103 159.444C174.672 159.789 171.262 160.267 167.875 160.909C167.121 161.094 166.358 161.266 165.6 161.443C163.481 161.535 161.359 161.695 159.24 161.812C157.527 161.88 155.83 162.061 154.128 162.273C152.965 162.345 151.805 162.422 150.641 162.502C145.393 163.048 140.117 163.674 135.001 165.002C134.383 165.162 133.765 165.331 133.151 165.503C130.242 165.539 127.337 165.832 124.46 166.246C124.143 166.294 123.826 166.342 123.509 166.39C122.076 166.446 120.644 166.543 119.219 166.715C116.19 167.12 113.654 167.638 111.889 168.127C111.207 168.356 110.701 168.533 110.296 168.689C110.015 168.753 109.73 168.822 109.449 168.886C108.972 168.894 108.494 168.902 108.017 168.906C104.052 168.874 100.108 169.335 96.2118 170.037C91.0156 170.964 85.8315 171.975 80.7236 173.304C79.8529 172.862 78.8136 173.055 77.8707 173.115C74.0508 173.352 70.279 174.022 66.5153 174.676C63.6584 175.238 60.8135 175.86 57.9807 176.526C56.3998 176.674 54.8229 176.823 53.242 176.971C51.4203 177.188 48.5513 177.144 47.1269 178.412C46.5491 178.275 45.9232 178.347 45.4136 178.656C45.3734 178.676 45.3494 178.688 45.3253 178.7C45.2892 178.716 45.2491 178.728 45.2129 178.745C44.5589 179.037 43.7564 179.19 43.3552 179.832C43.3351 179.852 43.3231 179.88 43.303 179.9C43.0342 179.98 42.7774 180.089 42.5687 180.289C41.3008 181.136 41.4733 183.239 42.7934 183.957C43.0021 184.077 43.2147 184.149 43.4274 184.194C43.4314 184.382 43.4314 184.571 43.4234 184.759C43.4194 184.98 43.4033 185.201 43.3873 185.417C43.3792 185.465 43.3752 185.518 43.3632 185.566C43.2749 185.935 43.1666 186.304 43.0462 186.665C42.8496 187.095 42.7051 187.544 42.7132 188.025C42.7172 188.17 42.7372 188.306 42.7653 188.443C42.653 188.816 42.5807 189.201 42.5727 189.594C42.5767 189.795 42.6008 189.984 42.6369 190.164C42.4523 191.408 42.6128 192.684 43.2067 193.783C42.9659 194.614 42.8295 195.465 43.0181 196.331C43.0542 196.488 43.1104 196.632 43.1706 196.773C43.0903 197.499 43.2548 198.193 43.7524 198.699C43.4394 199.256 43.1425 199.822 42.8897 200.412C42.8456 200.48 42.4202 201.463 42.5165 201.84C42.5165 201.869 42.5246 201.893 42.5246 201.921C42.5206 201.925 42.5206 201.925 42.5165 201.929C41.8826 202.599 41.5576 203.546 41.8184 204.445C41.8705 204.625 41.9387 204.794 42.027 204.954C41.9829 205.697 42.356 206.435 42.9539 206.884C42.986 207.017 43.0261 207.153 43.0903 207.293C43.4194 208.196 44.4546 208.786 45.4015 208.634C46.4087 208.553 47.3677 208.248 48.3186 207.927C50.056 207.35 51.8055 206.8 53.5509 206.246C54.7787 205.913 56.0106 205.608 57.2464 205.319C58.8956 205.191 60.5327 205.006 62.0895 204.433C63.3856 204.244 64.6415 204.091 66.3468 203.919C69.1034 203.779 71.876 203.373 74.444 202.314C74.6165 202.238 74.7931 202.166 74.9777 202.097C75.3348 202.133 75.6959 202.137 76.057 202.137C80.1899 202.145 83.8934 200.071 87.7454 198.847C89.1137 198.386 90.486 197.932 91.8623 197.483C92.6006 197.286 93.3389 197.094 94.0772 196.897C104.421 194.309 114.746 191.641 125.162 189.358C125.21 189.354 125.262 189.35 125.314 189.342C125.363 189.33 125.403 189.309 125.447 189.297C126.013 189.173 126.574 189.045 127.14 188.924C127.975 188.776 128.898 188.663 129.66 188.29C130.142 188.158 130.619 188.001 131.096 187.925C140.377 185.425 149.345 181.894 158.61 179.322C161.03 178.58 163.481 177.958 165.929 177.316C166.162 177.288 166.39 177.224 166.583 177.115C166.723 177.071 166.864 177.019 167.004 176.967C167.036 176.963 167.073 176.959 167.105 176.955C167.137 176.955 167.165 176.951 167.197 176.951C167.959 177.248 168.854 176.851 169.572 176.682C170.279 176.465 170.985 176.257 171.691 176.044C172.273 176.012 172.867 175.783 173.432 175.671C173.818 175.567 174.199 175.454 174.584 175.346C174.881 175.394 175.174 175.318 175.463 175.226C177.212 174.86 178.942 174.439 180.655 173.934C180.759 173.95 180.868 173.958 180.98 173.962C181.06 173.974 181.148 173.986 181.233 173.994C183.263 173.934 185.165 173.079 187.095 172.521C187.131 172.509 187.163 172.497 187.199 172.485C188.379 172.14 189.551 171.771 190.742 171.466C193.29 170.82 195.842 170.19 198.41 169.64C198.856 169.584 199.518 169.492 198.707 169.6C199.863 169.391 201.195 169.492 202.23 168.898C203.45 168.737 204.742 168.593 205.48 167.63C205.613 167.606 205.741 167.578 205.865 167.542C205.881 167.538 205.894 167.538 205.91 167.534L205.906 167.53C206.202 167.437 206.479 167.293 206.716 167.064C206.961 166.807 207.113 166.518 207.186 166.226C208.088 165.981 208.983 165.716 209.89 165.507C213.032 164.934 216.153 164.259 219.291 163.666C220.503 163.437 221.791 162.963 222.903 162.51C227.818 161.595 232.705 160.492 237.335 158.598C239.065 157.863 240.738 156.981 242.279 155.905C242.748 155.572 243.238 155.231 243.523 154.714C243.33 154.918 243.105 155.071 242.861 155.203C243.097 155.031 243.334 154.854 243.571 154.678C243.932 154.581 244.293 154.489 244.65 154.385C246.348 153.823 248.225 153.414 249.806 152.571C252.266 152.013 254.702 151.347 257.057 150.452C259.922 149.405 262.779 148.278 265.347 146.608C265.299 146.62 265.246 146.628 265.198 146.641C265.262 146.608 265.331 146.568 265.395 146.524Z" fill="#D7C878"/>
<path d="M279.31 140.802C279.146 140.69 278.925 140.794 278.74 140.762C277.954 140.706 277.183 140.662 276.429 140.622C276.377 140.529 276.321 140.445 276.245 140.369C275.583 139.843 274.64 139.835 273.853 139.578C271.739 139.306 269.6 139.318 267.465 139.414C267.188 139.386 266.911 139.358 266.631 139.338C263.954 139.105 261.282 139.31 258.61 139.51C256.475 139.129 254.324 138.832 252.158 138.712C248.586 138.623 244.979 138.86 241.468 139.558C237.813 139.667 234.141 139.932 230.542 140.562C225.679 139.747 220.76 139.314 215.824 139.217C211.09 139.125 206.327 139.334 201.656 140.14C201.375 140.128 201.09 140.12 200.81 140.112C200.095 140.076 199.281 140.048 198.398 140.028C197.796 139.611 196.917 139.446 196.155 139.406C194.863 139.306 193.567 139.31 192.271 139.31C191.043 139.314 189.815 139.354 188.592 139.414C185.213 139.314 181.57 139.245 178.749 139.209C176.891 139.173 175.037 139.121 173.18 139.113C172.642 139.173 171.988 139.085 171.37 139.089C165.736 138.158 160.035 137.669 154.333 137.368C150.116 137.275 145.886 137.099 141.673 137.215C141.838 137.195 141.946 137.183 141.697 137.187C141.256 137.235 140.783 137.187 140.385 137.404C140.076 137.512 139.8 137.725 139.591 137.99C136.67 137.584 134.294 137.348 131.157 137.095C128.496 136.774 126.109 136.477 122.847 136.469C120.499 136.296 118.148 136.176 115.801 136.272C115.544 136.292 115.279 136.324 115.018 136.372C113.241 135.943 111.427 135.767 109.597 135.71C108.747 135.662 107.896 135.65 107.045 135.65C106.424 135.084 105.641 134.759 104.794 134.715C103.663 134.615 102.527 134.611 101.392 134.635C98.4266 134.619 95.4814 134.884 92.5483 135.269C90.1609 135.213 87.7734 135.197 85.386 135.289C82.7016 135.317 80.0253 135.49 77.3449 135.67C74.8893 135.606 72.4296 135.534 69.974 135.518C69.3199 134.792 68.2406 134.663 67.2816 134.675C66.776 134.679 66.2745 134.711 65.7729 134.763C64.2401 134.759 62.7033 134.792 61.1866 134.968C60.8817 134.956 60.5767 135.008 60.2718 135.092C59.4452 135.225 58.6266 135.405 57.8161 135.662C56.7889 135.927 56.0947 136.609 55.8099 137.376C55.0475 138.106 54.8148 139.117 55.0676 139.952C55.1237 140.297 55.2561 140.626 55.4568 140.915C55.3484 140.959 55.2401 140.999 55.1317 141.047C54.8428 141.216 54.6101 141.448 54.4376 141.717C54.0484 141.862 53.6551 142.002 53.2659 142.15C52.7684 142.347 52.2387 142.572 51.9458 143.041C51.344 143.768 51.368 144.67 51.7572 145.381C51.6329 146.239 52.0341 147.19 52.8165 147.62C53.9561 148.241 55.2922 147.704 56.4238 147.307C56.7528 147.166 57.0658 147.042 57.3667 146.921C57.463 146.953 57.5593 146.982 57.6556 147.006C57.8562 147.218 58.097 147.383 58.3738 147.479C59.2084 147.84 60.1915 147.676 61.0743 147.563C61.2147 147.539 61.3551 147.507 61.4996 147.483C62.5509 147.776 63.5941 148.105 64.6534 148.286C64.8099 148.711 65.0948 149.084 65.5081 149.309C65.8331 149.501 66.1741 149.57 66.5232 149.57C66.4751 149.862 66.4871 150.163 66.5754 150.456C66.8482 151.604 67.9035 152.11 69.015 152.23C69.1514 152.254 69.2919 152.27 69.4363 152.278C69.6209 152.322 69.8135 152.358 70.0221 152.358C71.2821 152.386 72.7506 152.394 73.7698 151.564C73.9504 151.544 74.1309 151.516 74.3075 151.488C76.2255 151.223 75.11 151.371 77.0039 151.151C80.3784 150.874 83.6807 150.208 86.987 149.533C87.8537 149.457 88.7164 149.365 89.5791 149.257C89.7355 149.293 89.896 149.313 90.0686 149.313C90.7748 149.333 91.473 149.229 92.1711 149.112C92.4119 149.14 92.6486 149.168 92.8653 149.204C96.0833 149 100.682 148.462 105.408 147.953C108.831 147.824 112.254 147.72 115.672 147.511C116.058 147.483 116.447 147.455 116.832 147.431C117.037 147.435 117.245 147.419 117.454 147.387C118.533 147.315 119.613 147.23 120.684 147.07C121.226 146.961 121.836 146.982 122.329 146.725C122.807 146.709 123.296 146.576 123.77 146.564C125.162 146.408 126.558 146.34 127.951 146.195C131.04 145.898 134.138 145.754 137.232 145.517C137.954 145.489 138.584 145.465 139.182 145.433C141.184 145.457 143.186 145.433 145.188 145.312C145.678 145.292 146.167 145.236 146.661 145.208C146.805 145.204 146.954 145.196 147.102 145.184C147.748 145.26 148.394 145.34 149.04 145.421C149.064 145.425 149.076 145.425 149.096 145.429C149.229 145.449 149.361 145.469 149.498 145.485C150.874 145.714 152.266 145.846 153.643 145.573C154.084 145.481 154.557 145.397 154.967 145.196C155.681 145.292 156.271 145.381 157.037 145.489C158.393 145.702 159.397 145.011 159.738 144.133C160.203 144.141 160.669 144.157 161.13 144.185C165.351 144.245 169.047 144.373 171.988 144.185C172.176 144.181 172.369 144.161 172.554 144.121C172.59 144.117 172.622 144.113 172.67 144.109C172.991 144.113 173.3 144.02 173.581 143.876C173.701 143.884 173.826 143.888 173.946 143.892C174.187 143.896 174.427 143.844 174.652 143.759C174.861 143.751 175.069 143.747 175.278 143.739C175.286 143.739 175.294 143.739 175.302 143.739C175.334 143.739 175.362 143.735 175.394 143.735C175.435 143.735 175.471 143.731 175.511 143.731C175.563 143.727 175.619 143.723 175.671 143.723C175.743 143.723 175.812 143.719 175.884 143.711C178.649 143.575 181.413 143.346 184.174 143.174C186.248 143.109 188.323 143.049 190.401 143.005C192.319 143.057 194.233 143.258 196.151 143.266C196.211 143.266 196.275 143.262 196.336 143.254C196.356 143.254 196.368 143.254 196.392 143.25C196.893 143.282 197.435 143.202 197.901 142.997C197.913 142.997 197.925 142.997 197.941 142.997C199.774 143.041 201.608 143.126 203.438 143.274C204.092 143.326 204.65 143.065 204.983 142.664C209.039 142.672 213.096 142.688 217.152 142.845C219.291 142.945 221.45 142.772 223.564 143.15C224.411 143.298 225.254 143.491 226.096 143.651C225.294 143.338 224.495 143.005 223.681 142.724C223.203 142.56 222.718 142.431 222.228 142.315C223.207 142.319 224.214 142.455 225.182 142.279C225.462 142.179 225.579 141.974 225.579 141.769C225.583 141.769 225.583 141.769 225.587 141.769C227.673 141.882 229.76 141.99 231.846 142.07C232.308 142.034 232.926 142.251 233.271 141.882C234.141 141.91 235.008 141.938 235.879 141.962C236.192 141.573 235.088 141.408 234.852 141.328C234.663 141.28 234.478 141.232 234.29 141.179C234.478 141.284 234.679 141.368 234.876 141.456C234.519 141.38 234.149 141.308 233.953 141.252C233.712 141.191 233.467 141.147 233.223 141.095C233.006 140.935 232.641 140.874 232.284 140.842C232.26 140.838 232.239 140.834 232.215 140.83C235.02 140.963 237.817 141.2 240.626 141.216C245.581 141.191 250.532 141.472 255.484 141.356C254.288 141.083 253.092 140.826 251.889 140.594C253.225 140.61 254.557 140.626 255.893 140.638C256.94 140.79 257.996 140.895 259.059 140.907C261.414 140.959 263.782 141.007 266.145 141.035C266.221 141.167 266.33 141.28 266.462 141.352C267.241 141.749 268.135 141.777 268.986 141.878C270.282 142.014 271.582 142.142 272.878 142.255C273.721 142.327 274.567 142.423 275.41 142.347C275.719 142.351 276.02 142.223 276.237 142.002C276.373 141.866 276.465 141.697 276.517 141.521C276.943 141.472 277.368 141.42 277.789 141.372C277.709 141.468 277.733 141.577 277.982 141.689C277.773 141.496 277.886 141.396 278.11 141.332C278.175 141.324 278.243 141.316 278.307 141.308C278.532 141.284 278.756 141.252 278.977 141.2C279.15 141.171 279.29 141.131 279.338 141.071C279.418 141.011 279.398 140.862 279.31 140.802Z" fill="#D7C878"/>
<path d="M22.2454 183.62C55.5652 176.128 89.3584 171.057 123.204 166.635C157.214 162.189 191.312 158.381 225.246 153.329C244.305 150.493 263.308 147.254 282.175 143.322C283.475 143.049 284.655 142.219 285.947 141.95C252.503 148.924 218.653 153.678 184.78 157.984C150.762 162.309 116.68 166.21 82.798 171.554C63.7707 174.556 44.8157 178.022 26.0171 182.247C24.7211 182.54 23.5374 183.331 22.2454 183.62Z" fill="black"/>
<path d="M42.0991 154.228C36.1165 163.914 30.2422 173.669 24.4802 183.487C25.7361 183.03 26.9921 182.573 28.252 182.115C28.3724 181.734 28.4927 181.349 28.6131 180.968C28.3764 181.722 25.0941 181.541 24.8414 182.34C24.721 182.721 24.6006 183.106 24.4802 183.487C24.5404 183.299 26.1414 182.902 26.3741 182.821C26.7433 182.689 28.0473 182.468 28.252 182.115C34.0139 172.297 39.8882 162.542 45.8709 152.856C45.6983 153.133 44.306 153.406 43.977 153.522C43.5958 153.662 42.3198 153.871 42.0991 154.228Z" fill="black"/>
<path d="M43.7605 153.831C74.9537 150.858 106.207 148.47 137.488 146.681C168.906 144.883 200.356 143.683 231.822 143.085C249.477 142.748 267.14 142.604 284.799 142.644C286.063 142.648 287.327 141.268 288.571 141.272C257.234 141.204 225.9 141.721 194.582 142.837C163.132 143.956 131.706 145.678 100.325 147.997C82.7138 149.297 65.115 150.789 47.5363 152.463C46.2362 152.583 45.0405 153.711 43.7605 153.831Z" fill="black"/>
<path d="M41.0801 181.381C41.0119 186.44 40.9878 191.5 41.0159 196.56C42.2718 196.103 43.5278 195.645 44.7877 195.188C44.7435 189.422 44.4466 183.664 43.8969 177.922C42.641 178.379 41.3851 178.837 40.1252 179.294C40.5063 181.549 40.8835 183.8 41.2647 186.055C41.2286 185.847 45.0806 184.952 45.0365 184.683C44.6553 182.428 44.2781 180.177 43.8969 177.922C43.937 178.167 40.0971 178.977 40.1252 179.294C40.6749 185.036 40.9718 190.79 41.0159 196.56C41.0119 196.139 44.7877 195.665 44.7877 195.188C44.7596 190.128 44.7837 185.068 44.8519 180.008C44.8439 180.454 41.0882 180.875 41.0801 181.381Z" fill="black"/>
<path d="M85.7873 199.87C78.3522 201.877 70.8327 203.522 63.2411 204.818C59.4413 205.468 55.6254 206.021 51.8015 206.519C50.0119 206.752 48.2263 206.972 46.4367 207.189C45.9272 207.249 45.4136 207.314 44.904 207.374C44.1536 207.715 43.9209 207.534 44.2018 206.828C44.1938 206.463 44.3302 205.937 44.5669 205.648C43.311 206.106 42.0551 206.563 40.7952 207.021C41.4813 206.844 40.9557 208.549 40.6146 208.77C41.8705 208.313 43.1264 207.855 44.3864 207.398C43.9289 207.514 44.3101 205.323 44.3583 204.762C44.4546 203.606 44.5469 202.446 44.6432 201.291C44.8317 198.976 45.0243 196.664 45.2129 194.349C45.1688 194.879 41.4893 195.136 41.4412 195.721C41.1443 199.321 40.8513 202.92 40.5544 206.519C40.5023 207.173 40.1572 208.63 40.6146 208.77C40.727 208.806 41.052 208.622 41.1723 208.581C42.0952 208.272 43.303 208.02 44.1336 207.498C44.6913 207.149 45.4617 205.921 44.4987 205.664C43.8968 205.504 42.3199 206.439 41.7261 206.659C40.8594 206.984 40.6628 207.005 40.4742 207.952C40.2134 209.252 40.8714 208.77 41.9026 208.65C42.7974 208.541 43.6922 208.433 44.587 208.325C46.3766 208.104 48.1661 207.879 49.9517 207.639C53.5148 207.161 57.0699 206.615 60.6129 205.993C67.8194 204.729 74.9616 203.149 82.0236 201.243C83.3036 200.894 84.5033 200.215 85.7873 199.87Z" fill="black"/>
<path d="M147.134 182.978C134.487 185.927 122.237 190.329 109.609 193.354C108.313 193.663 107.126 194.417 105.838 194.726C118.465 191.701 130.715 187.299 143.363 184.35C144.659 184.049 145.846 183.279 147.134 182.978Z" fill="black"/>
<path d="M171.527 176.602C167.887 177.44 164.24 178.247 160.677 179.378C159.529 179.744 157.948 180.426 157.045 180.711C160.564 179.595 164.164 178.805 167.759 177.974C169.051 177.677 170.239 176.899 171.527 176.602Z" fill="black"/>
<path d="M245.553 154.32C237.982 157.053 230.338 159.585 222.654 161.988C221.502 162.349 219.925 163.04 219.022 163.321C227.597 160.636 236.112 157.771 244.566 154.722C245.32 154.449 246.171 154.244 246.881 153.863C246.797 153.907 245.846 154.212 245.553 154.32Z" fill="black"/>
<path d="M251.395 152.202C251.155 152.29 250.914 152.382 250.673 152.471C250.617 152.491 250.216 152.639 250.509 152.531C250.814 152.418 250.34 152.595 250.288 152.611C249.915 152.748 249.538 152.884 249.164 153.028C249.241 153 248.747 153.165 248.98 153.113C249.273 153.048 249.57 152.908 249.851 152.808C250.336 152.635 250.822 152.459 251.303 152.282C251.973 152.037 252.643 151.789 253.313 151.54C253.578 151.439 253.919 151.351 254.176 151.215C254.381 151.106 253.915 151.291 253.979 151.271C253.109 151.568 252.25 151.881 251.395 152.202Z" fill="black"/>
<path d="M267.502 145.882C266.683 146.219 265.864 146.556 265.046 146.889C264.801 146.99 265.363 146.793 265.242 146.833C265.62 146.705 265.997 146.568 266.374 146.432C267.148 146.151 267.927 145.886 268.689 145.573C269.508 145.24 270.326 144.903 271.145 144.566C271.386 144.466 270.828 144.662 270.948 144.622C270.571 144.751 270.194 144.887 269.817 145.023C269.042 145.3 268.26 145.565 267.502 145.882Z" fill="black"/>
<path d="M69.4605 149.79C64.5131 148.298 59.4855 147.094 54.3896 146.231C54.201 146.199 52.929 146.119 52.8608 145.982C52.7926 145.85 53.7998 144.113 53.876 143.956C54.3856 142.941 54.8912 141.93 55.4007 140.915C56.3718 138.981 57.1703 136.284 59.2247 135.261C57.9928 135.71 56.757 136.164 55.5251 136.613C58.9719 135.558 63.0927 135.638 66.6759 135.401C70.3553 135.157 74.0428 135.008 77.7263 134.948C84.9809 134.824 92.2355 135.016 99.4821 135.369C114.152 136.088 128.777 137.484 143.439 138.343C173.007 140.076 202.643 139.603 232.248 139.815C248.839 139.936 265.435 140.281 281.999 141.324C283.235 141.4 284.559 139.875 285.77 139.952C250.769 137.741 215.684 138.712 180.643 138.146C163.128 137.861 145.674 136.962 128.212 135.654C110.833 134.354 93.4071 133.026 75.9688 133.732C71.2301 133.925 66.4913 134.262 61.7766 134.804C60.2759 134.976 58.9959 135.325 57.5835 135.835C56.448 136.248 55.1078 136.565 54.2612 137.476C52.8327 139.013 52.0543 141.436 51.1194 143.298C50.6098 144.313 50.1042 145.324 49.5947 146.34C49.5385 146.452 49.4823 146.564 49.4261 146.677C48.8925 147.202 48.9085 147.447 49.4703 147.415C49.8314 147.704 50.8827 147.648 51.3802 147.736C56.2153 148.587 60.9861 149.746 65.6888 151.163C66.732 151.48 68.4534 149.489 69.4605 149.79Z" fill="black"/>
</svg>
