<svg width="36" height="36" viewBox="0 0 36 36" fill="none" xmlns="http://www.w3.org/2000/svg">
<rect x="1.5" y="1.67285" width="32.2118" height="32.2118" rx="8.5" fill="url(#paint0_linear_1729_10129)" stroke="black" stroke-width="3"/>
<circle cx="17.5" cy="16.8848" r="8.5" fill="#FFDB4B"/>
<path d="M13.9316 13.1154V21.3418C13.9317 21.499 13.9737 21.6534 14.0534 21.7889C14.133 21.9243 14.2474 22.036 14.3846 22.1122C14.5217 22.1885 14.6768 22.2266 14.8336 22.2225C14.9904 22.2185 15.1433 22.1724 15.2764 22.0892L21.8421 17.976C21.9685 17.8968 22.0728 17.7866 22.1451 17.6559C22.2174 17.5251 22.2553 17.3781 22.2553 17.2286C22.2553 17.0791 22.2174 16.9321 22.1451 16.8013C22.0728 16.6706 21.9685 16.5604 21.8421 16.4812L15.2764 12.368C15.1433 12.2847 14.9904 12.2387 14.8336 12.2347C14.6768 12.2306 14.5217 12.2687 14.3846 12.3449C14.2474 12.4212 14.133 12.5328 14.0534 12.6683C13.9737 12.8038 13.9317 12.9582 13.9316 13.1154ZM15.6903 14.7043L19.7176 17.2286L15.6903 19.7517V14.7043Z" fill="#2B2B2B"/>
<defs>
<linearGradient id="paint0_linear_1729_10129" x1="35.2307" y1="0.172852" x2="35.2307" y2="43.3157" gradientUnits="userSpaceOnUse">
<stop stop-color="#6CAEAD"/>
<stop offset="0.485428" stop-color="#C7FFFE"/>
<stop offset="1" stop-color="#6CAEAD"/>
<stop offset="1" stop-color="#6CAEAD"/>
</linearGradient>
</defs>
</svg>
