<svg width="27" height="24" viewBox="0 0 27 24" fill="none" xmlns="http://www.w3.org/2000/svg">
<path d="M2 10.5C1.17157 10.5 0.5 11.1716 0.5 12C0.5 12.8284 1.17157 13.5 2 13.5V10.5ZM25.9382 13.0607C26.524 12.4749 26.524 11.5251 25.9382 10.9393L16.3922 1.3934C15.8064 0.807611 14.8567 0.807611 14.2709 1.3934C13.6851 1.97919 13.6851 2.92893 14.2709 3.51472L22.7562 12L14.2709 20.4853C13.6851 21.0711 13.6851 22.0208 14.2709 22.6066C14.8567 23.1924 15.8064 23.1924 16.3922 22.6066L25.9382 13.0607ZM2 13.5H24.8775V10.5H2V13.5Z" fill="#4A4A4A"/>
</svg>
