<svg width="5002" height="1443" viewBox="0 0 5002 1443" fill="none" xmlns="http://www.w3.org/2000/svg">
<ellipse cx="1131.75" cy="1217.33" rx="44.7504" ry="44.7456" fill="#FBD161"/>
<path d="M1305.68 1136.55C1306.01 1139.07 1306.23 1141.62 1306.34 1144.2L1305.84 1144.22C1305.89 1145.49 1305.92 1146.77 1305.92 1148.05C1305.92 1149.33 1305.89 1150.6 1305.84 1151.87L1306.34 1151.89C1306.23 1154.47 1306.01 1157.03 1305.68 1159.55L1305.18 1159.48C1304.85 1162.03 1304.41 1164.54 1303.86 1167.01L1304.35 1167.11C1303.8 1169.63 1303.13 1172.1 1302.37 1174.53L1301.89 1174.38C1301.12 1176.82 1300.25 1179.22 1299.28 1181.56L1299.74 1181.75C1298.75 1184.13 1297.67 1186.45 1296.49 1188.71L1296.04 1188.48C1294.86 1190.75 1293.59 1192.95 1292.22 1195.09L1292.64 1195.36C1291.26 1197.53 1289.79 1199.62 1288.23 1201.65L1287.83 1201.35C1286.28 1203.37 1284.64 1205.32 1282.92 1207.2L1283.29 1207.53C1281.55 1209.42 1279.74 1211.23 1277.85 1212.97L1277.51 1212.6C1275.64 1214.32 1273.69 1215.96 1271.67 1217.51L1271.97 1217.91C1269.94 1219.46 1267.84 1220.94 1265.68 1222.32L1265.41 1221.9C1263.27 1223.26 1261.06 1224.54 1258.8 1225.72L1259.03 1226.16C1256.77 1227.35 1254.44 1228.43 1252.07 1229.42L1251.88 1228.95C1249.53 1229.92 1247.14 1230.8 1244.7 1231.57L1244.85 1232.04C1242.42 1232.81 1239.95 1233.47 1237.43 1234.03L1237.32 1233.54C1234.85 1234.08 1232.34 1234.52 1229.8 1234.86L1229.86 1235.35C1227.34 1235.68 1224.79 1235.9 1222.21 1236.01L1222.19 1235.51C1220.92 1235.57 1219.64 1235.6 1218.36 1235.6C1217.08 1235.6 1215.81 1235.57 1214.54 1235.51L1214.52 1236.01C1211.94 1235.9 1209.38 1235.68 1206.86 1235.35L1206.93 1234.86C1204.38 1234.52 1201.88 1234.08 1199.41 1233.54L1199.3 1234.03C1196.78 1233.47 1194.31 1232.81 1191.88 1232.04L1192.03 1231.57C1189.59 1230.8 1187.19 1229.92 1184.85 1228.95L1184.66 1229.42C1182.28 1228.43 1179.96 1227.35 1177.7 1226.16L1177.93 1225.72C1175.66 1224.54 1173.46 1223.26 1171.32 1221.9L1171.05 1222.32C1168.88 1220.94 1166.79 1219.46 1164.76 1217.91L1165.06 1217.51C1163.04 1215.96 1161.09 1214.32 1159.21 1212.6L1158.87 1212.97C1156.99 1211.23 1155.17 1209.42 1153.44 1207.53L1153.81 1207.2C1152.09 1205.32 1150.45 1203.37 1148.9 1201.35L1148.5 1201.65C1146.94 1199.62 1145.47 1197.53 1144.09 1195.36L1144.51 1195.09C1143.14 1192.95 1141.87 1190.75 1140.68 1188.48L1140.24 1188.71C1139.06 1186.45 1137.97 1184.13 1136.99 1181.75L1137.45 1181.56C1136.48 1179.22 1135.61 1176.82 1134.84 1174.38L1134.36 1174.53C1133.6 1172.1 1132.93 1169.63 1132.38 1167.11L1132.86 1167.01C1132.32 1164.54 1131.88 1162.03 1131.55 1159.48L1131.05 1159.55C1130.72 1157.03 1130.5 1154.47 1130.39 1151.89L1130.89 1151.87C1130.83 1150.6 1130.81 1149.33 1130.81 1148.05C1130.81 1146.77 1130.83 1145.49 1130.89 1144.22L1130.39 1144.2C1130.5 1141.62 1130.72 1139.07 1131.05 1136.55L1131.55 1136.61C1131.88 1134.07 1132.32 1131.56 1132.86 1129.09L1132.38 1128.98C1132.93 1126.47 1133.59 1123.99 1134.36 1121.56L1134.84 1121.71C1135.61 1119.27 1136.48 1116.88 1137.45 1114.53L1136.99 1114.34C1137.97 1111.97 1139.06 1109.65 1140.24 1107.38L1140.68 1107.61C1141.87 1105.35 1143.14 1103.14 1144.51 1101L1144.09 1100.73C1145.47 1098.57 1146.94 1096.47 1148.5 1094.44L1148.9 1094.75C1150.45 1092.73 1152.09 1090.78 1153.81 1088.9L1153.44 1088.56C1155.17 1086.67 1156.99 1084.86 1158.87 1083.13L1159.21 1083.5C1161.09 1081.78 1163.04 1080.14 1165.06 1078.59L1164.76 1078.19C1166.79 1076.63 1168.88 1075.16 1171.05 1073.78L1171.32 1074.2C1173.46 1072.83 1175.66 1071.56 1177.93 1070.37L1177.7 1069.93C1179.96 1068.75 1182.28 1067.67 1184.66 1066.68L1184.85 1067.14C1187.19 1066.17 1189.59 1065.3 1192.03 1064.53L1191.88 1064.05C1194.31 1063.29 1196.78 1062.62 1199.3 1062.07L1199.41 1062.56C1201.88 1062.01 1204.38 1061.57 1206.93 1061.24L1206.86 1060.74C1209.38 1060.42 1211.94 1060.19 1214.52 1060.08L1214.54 1060.58C1215.81 1060.53 1217.08 1060.5 1218.36 1060.5C1219.64 1060.5 1220.92 1060.53 1222.19 1060.58L1222.21 1060.08C1224.79 1060.19 1227.34 1060.42 1229.86 1060.74L1229.8 1061.24C1232.34 1061.57 1234.85 1062.01 1237.32 1062.56L1237.43 1062.07C1239.95 1062.62 1242.42 1063.29 1244.85 1064.05L1244.7 1064.53C1247.14 1065.3 1249.53 1066.17 1251.88 1067.14L1252.07 1066.68C1254.44 1067.67 1256.77 1068.75 1259.03 1069.93L1258.8 1070.37C1261.06 1071.56 1263.27 1072.83 1265.41 1074.2L1265.68 1073.78C1267.84 1075.16 1269.94 1076.63 1271.97 1078.19L1271.67 1078.59C1273.69 1080.14 1275.64 1081.78 1277.51 1083.5L1277.85 1083.13C1279.74 1084.86 1281.55 1086.67 1283.29 1088.56L1282.92 1088.9C1284.64 1090.78 1286.28 1092.73 1287.83 1094.75L1288.23 1094.44C1289.79 1096.47 1291.26 1098.57 1292.64 1100.73L1292.22 1101C1293.59 1103.14 1294.86 1105.35 1296.04 1107.61L1296.49 1107.38C1297.67 1109.65 1298.75 1111.97 1299.74 1114.34L1299.28 1114.53C1300.25 1116.88 1301.12 1119.27 1301.89 1121.71L1302.37 1121.56C1303.13 1123.99 1303.8 1126.47 1304.35 1128.98L1303.86 1129.09C1304.41 1131.56 1304.85 1134.07 1305.18 1136.61L1305.68 1136.55Z" fill="url(#paint0_radial_2755_179904)" stroke="#FBD161" stroke-dasharray="8 8"/>
<path d="M1562.46 491.841C1562.69 494.402 1562.85 496.985 1562.92 499.587L1562.42 499.602C1562.46 500.889 1562.48 502.181 1562.48 503.477C1562.48 504.773 1562.46 506.065 1562.42 507.352L1562.92 507.367C1562.85 509.969 1562.69 512.552 1562.46 515.113L1561.96 515.068C1561.73 517.648 1561.42 520.206 1561.04 522.74L1561.54 522.815C1561.15 525.387 1560.68 527.934 1560.14 530.453L1559.66 530.349C1559.11 532.881 1558.5 535.385 1557.81 537.859L1558.29 537.993C1557.6 540.495 1556.83 542.966 1555.98 545.403L1555.51 545.24C1554.67 547.684 1553.75 550.093 1552.77 552.467L1553.23 552.659C1552.24 555.055 1551.17 557.414 1550.04 559.734L1549.59 559.515C1548.46 561.836 1547.26 564.119 1545.99 566.359L1546.43 566.605C1545.15 568.861 1543.81 571.075 1542.4 573.243L1541.98 572.971C1540.58 575.137 1539.11 577.257 1537.59 579.33L1537.99 579.627C1536.45 581.711 1534.85 583.747 1533.2 585.733L1532.81 585.413C1531.16 587.393 1529.45 589.322 1527.68 591.198L1528.05 591.541C1526.27 593.425 1524.44 595.255 1522.56 597.029L1522.22 596.665C1520.34 598.432 1518.41 600.142 1516.43 601.794L1516.75 602.178C1514.76 603.834 1512.73 605.432 1510.64 606.968L1510.35 606.566C1508.27 608.093 1506.15 609.56 1503.99 610.963L1504.26 611.382C1502.09 612.787 1499.88 614.129 1497.62 615.404L1497.37 614.968C1495.13 616.235 1492.85 617.435 1490.53 618.567L1490.75 619.017C1488.43 620.148 1486.07 621.212 1483.67 622.206L1483.48 621.744C1481.11 622.728 1478.7 623.643 1476.25 624.486L1476.42 624.959C1473.98 625.8 1471.51 626.569 1469.01 627.265L1468.87 626.784C1466.4 627.472 1463.89 628.088 1461.36 628.629L1461.47 629.118C1458.95 629.656 1456.4 630.12 1453.83 630.508L1453.75 630.014C1451.22 630.396 1448.66 630.705 1446.08 630.936L1446.13 631.434C1443.57 631.664 1440.98 631.819 1438.38 631.896L1438.37 631.396C1437.08 631.435 1435.79 631.454 1434.49 631.454C1433.19 631.454 1431.9 631.435 1430.62 631.396L1430.6 631.896C1428 631.819 1425.42 631.664 1422.85 631.434L1422.9 630.936C1420.32 630.705 1417.76 630.396 1415.23 630.014L1415.15 630.508C1412.58 630.12 1410.03 629.656 1407.51 629.118L1407.62 628.629C1405.09 628.088 1402.58 627.472 1400.11 626.784L1399.97 627.265C1397.47 626.569 1395 625.8 1392.56 624.959L1392.73 624.486C1390.28 623.643 1387.87 622.728 1385.5 621.744L1385.31 622.206C1382.91 621.212 1380.55 620.148 1378.23 619.017L1378.45 618.567C1376.13 617.435 1373.85 616.235 1371.61 614.968L1371.36 615.404C1369.1 614.129 1366.89 612.787 1364.72 611.382L1364.99 610.963C1362.83 609.56 1360.71 608.093 1358.63 606.566L1358.34 606.968C1356.25 605.432 1354.22 603.835 1352.23 602.178L1352.55 601.794C1350.57 600.142 1348.64 598.432 1346.76 596.665L1346.42 597.029C1344.54 595.255 1342.71 593.425 1340.93 591.541L1341.3 591.198C1339.53 589.322 1337.82 587.393 1336.17 585.413L1335.78 585.733C1334.13 583.748 1332.53 581.711 1330.99 579.627L1331.39 579.33C1329.87 577.257 1328.4 575.137 1327 572.971L1326.58 573.243C1325.17 571.075 1323.83 568.861 1322.55 566.605L1322.99 566.359C1321.72 564.119 1320.52 561.836 1319.39 559.515L1318.94 559.734C1317.81 557.414 1316.74 555.055 1315.75 552.659L1316.21 552.467C1315.23 550.093 1314.31 547.684 1313.47 545.24L1313 545.403C1312.16 542.966 1311.39 540.495 1310.69 537.993L1311.17 537.859C1310.48 535.385 1309.87 532.881 1309.33 530.349L1308.84 530.453C1308.3 527.934 1307.83 525.387 1307.45 522.815L1307.94 522.74C1307.56 520.206 1307.25 517.648 1307.02 515.068L1306.52 515.112C1306.29 512.552 1306.14 509.969 1306.06 507.367L1306.56 507.352C1306.52 506.065 1306.5 504.773 1306.5 503.477C1306.5 502.181 1306.52 500.889 1306.56 499.602L1306.06 499.587C1306.14 496.985 1306.29 494.402 1306.52 491.841L1307.02 491.886C1307.25 489.306 1307.56 486.748 1307.94 484.214L1307.45 484.139C1307.83 481.567 1308.3 479.02 1308.84 476.5L1309.33 476.605C1309.87 474.073 1310.48 471.569 1311.17 469.095L1310.69 468.961C1311.39 466.459 1312.16 463.988 1313 461.55L1313.47 461.714C1314.31 459.27 1315.23 456.861 1316.21 454.487L1315.75 454.295C1316.74 451.899 1317.81 449.54 1318.94 447.22L1319.39 447.439C1320.52 445.117 1321.72 442.835 1322.99 440.595L1322.55 440.349C1323.83 438.093 1325.17 435.879 1326.58 433.71L1327 433.982C1328.4 431.817 1329.87 429.697 1331.39 427.624L1330.99 427.327C1332.53 425.243 1334.13 423.206 1335.78 421.221L1336.17 421.541C1337.82 419.561 1339.53 417.632 1341.3 415.756L1340.93 415.413C1342.71 413.529 1344.54 411.699 1346.42 409.925L1346.76 410.289C1348.64 408.522 1350.57 406.812 1352.55 405.16L1352.23 404.776C1354.22 403.119 1356.25 401.522 1358.34 399.985L1358.63 400.388C1360.71 398.86 1362.83 397.394 1364.99 395.991L1364.72 395.571C1366.89 394.166 1369.1 392.825 1371.36 391.55L1371.61 391.985C1373.85 390.719 1376.13 389.519 1378.45 388.386L1378.23 387.937C1380.55 386.805 1382.91 385.741 1385.31 384.748L1385.5 385.21C1387.87 384.226 1390.28 383.311 1392.73 382.468L1392.56 381.995C1395 381.154 1397.47 380.384 1399.97 379.688L1400.11 380.17C1402.58 379.482 1405.09 378.866 1407.62 378.325L1407.51 377.836C1410.03 377.298 1412.58 376.834 1415.15 376.445L1415.23 376.94C1417.76 376.557 1420.32 376.249 1422.9 376.018L1422.86 375.52C1425.42 375.29 1428 375.135 1430.6 375.058L1430.62 375.558C1431.9 375.519 1433.19 375.5 1434.49 375.5C1435.79 375.5 1437.08 375.519 1438.37 375.558L1438.38 375.058C1440.98 375.135 1443.57 375.29 1446.13 375.52L1446.08 376.018C1448.66 376.249 1451.22 376.557 1453.75 376.94L1453.83 376.445C1456.4 376.834 1458.95 377.298 1461.47 377.836L1461.36 378.325C1463.89 378.866 1466.4 379.482 1468.87 380.17L1469.01 379.688C1471.51 380.384 1473.98 381.154 1476.42 381.995L1476.25 382.468C1478.7 383.311 1481.11 384.226 1483.48 385.21L1483.67 384.748C1486.07 385.741 1488.43 386.805 1490.75 387.937L1490.53 388.386C1492.85 389.519 1495.13 390.719 1497.37 391.985L1497.62 391.55C1499.88 392.825 1502.09 394.166 1504.26 395.571L1503.99 395.991C1506.15 397.394 1508.27 398.86 1510.35 400.388L1510.64 399.985C1512.73 401.522 1514.76 403.119 1516.75 404.776L1516.43 405.16C1518.41 406.812 1520.34 408.522 1522.22 410.289L1522.56 409.925C1524.44 411.699 1526.27 413.529 1528.05 415.413L1527.68 415.756C1529.45 417.632 1531.16 419.561 1532.81 421.541L1533.2 421.221C1534.85 423.206 1536.45 425.243 1537.99 427.327L1537.59 427.624C1539.11 429.697 1540.58 431.817 1541.98 433.982L1542.4 433.71C1543.81 435.879 1545.15 438.093 1546.43 440.349L1545.99 440.595C1547.26 442.835 1548.46 445.117 1549.59 447.439L1550.04 447.22C1551.17 449.54 1552.24 451.899 1553.23 454.295L1552.77 454.487C1553.75 456.861 1554.67 459.27 1555.51 461.714L1555.98 461.55C1556.83 463.988 1557.6 466.459 1558.29 468.961L1557.81 469.095C1558.5 471.569 1559.11 474.073 1559.66 476.605L1560.14 476.5C1560.68 479.02 1561.15 481.567 1561.54 484.139L1561.04 484.214C1561.42 486.748 1561.73 489.306 1561.96 491.886L1562.46 491.841Z" fill="url(#paint1_radial_2755_179904)" stroke="#FBD161" stroke-dasharray="8 8"/>
<ellipse cx="3192.5" cy="357.491" rx="83.5" ry="83.491" fill="url(#paint2_radial_2755_179904)"/>
<ellipse cx="99.2654" cy="99.2598" rx="99.2654" ry="99.2598" transform="matrix(-0.995557 0.094159 -0.0940691 -0.995566 3743.32 1011.82)" fill="url(#paint3_radial_2755_179904)"/>
<path d="M4418.35 532.51C4420.06 549.377 4410.01 568.922 4385.87 591.075C4361.91 613.051 4325.28 636.446 4276.95 660.807C4180.35 709.492 4038.37 761.369 3861.29 813.315C3507.23 917.181 3013.89 1021.04 2465.22 1100.21C1916.55 1179.39 1416.69 1218.85 1052.09 1218.69C869.747 1218.61 721.495 1208.62 617.962 1188.81C566.155 1178.9 525.911 1166.6 498.259 1152.07C470.385 1137.43 456.729 1121.3 455.021 1104.43C453.312 1087.57 463.356 1068.02 487.503 1045.87C511.457 1023.89 548.086 1000.5 596.422 976.137C693.019 927.452 835.004 875.575 1012.08 823.629C1366.14 719.763 1859.48 615.908 2408.15 536.732C2956.82 457.557 3456.69 418.089 3821.28 418.25C4003.62 418.33 4151.88 428.325 4255.41 448.13C4307.22 458.041 4347.46 470.343 4375.11 484.872C4402.98 499.518 4416.64 515.643 4418.35 532.51Z" stroke="#FBD161" stroke-width="12"/>
<path d="M4809.49 834.958C4796.46 859.899 4767.75 884.223 4724.68 907.699C4681.62 931.17 4624.35 953.699 4554.53 975.036C4414.88 1017.71 4225.24 1055.53 3998.98 1086.65C3546.48 1148.89 2947.73 1184.28 2310.01 1178.06C1672.28 1171.83 1116.38 1125.18 733.14 1054.8C541.512 1019.6 393.098 978.479 299.208 933.53C252.26 911.054 218.991 887.642 200.752 863.573C182.511 839.5 179.372 814.864 192.397 789.923C205.422 764.982 234.13 740.657 277.202 717.182C320.267 693.71 377.528 671.182 447.357 649.845C587.004 607.174 776.647 569.349 1002.91 538.23C1455.41 475.994 2054.15 440.605 2691.88 446.826C3329.6 453.046 3885.5 499.697 4268.74 570.085C4460.37 605.28 4608.78 646.402 4702.67 691.351C4749.62 713.827 4782.89 737.238 4801.13 761.308C4819.37 785.381 4822.51 810.017 4809.49 834.958Z" stroke="#FBD161" stroke-width="2"/>
<path d="M4744.73 568.123C4745.68 571.946 4746.23 575.83 4746.38 579.776L4744.39 580.138C4744.44 581.409 4744.44 582.685 4744.4 583.969C4744.36 585.252 4744.28 586.539 4744.15 587.83L4746.13 587.742C4745.74 591.749 4744.94 595.787 4743.74 599.854L4741.84 599.543C4741.1 602.036 4740.21 604.545 4739.16 607.068L4740.98 607.61C4739.41 611.41 4737.49 615.233 4735.24 619.079L4733.57 618.249C4732.22 620.547 4730.76 622.857 4729.17 625.178L4730.75 626.155C4728.41 629.562 4725.82 632.984 4722.98 636.423L4721.53 635.269C4719.75 637.419 4717.87 639.578 4715.89 641.745L4717.26 642.992C4714.52 645.986 4711.6 648.991 4708.49 652.007L4707.22 650.653C4705.17 652.642 4703.04 654.637 4700.82 656.639L4702.02 658.052C4698.98 660.797 4695.79 663.55 4692.45 666.311L4691.33 664.827C4689.21 666.579 4687.03 668.335 4684.79 670.095L4685.86 671.617C4682.47 674.275 4678.95 676.94 4675.29 679.611L4674.29 678.038C4672.1 679.636 4669.87 681.236 4667.58 682.839L4668.55 684.439C4665.2 686.792 4661.74 689.151 4658.18 691.514L4657.26 689.879C4654.9 691.447 4652.49 693.017 4650.04 694.59L4650.92 696.246C4647.37 698.526 4643.72 700.81 4639.97 703.099L4639.13 701.415C4636.83 702.82 4634.5 704.226 4632.13 705.633L4632.95 707.332C4629.38 709.451 4625.74 711.573 4622.01 713.698L4621.24 711.978C4618.76 713.391 4616.25 714.804 4613.71 716.22L4614.46 717.952C4610.81 719.984 4607.08 722.019 4603.29 724.057L4602.56 722.308C4600.19 723.585 4597.78 724.864 4595.34 726.143L4596.05 727.902C4592.39 729.825 4588.67 731.751 4584.88 733.679L4584.2 731.906C4581.68 733.189 4579.14 734.472 4576.57 735.756L4577.23 737.537C4573.43 739.431 4569.58 741.327 4565.67 743.224L4565.03 741.432C4562.62 742.602 4560.18 743.773 4557.72 744.945L4558.35 746.744C4554.66 748.505 4550.91 750.268 4547.12 752.031L4546.51 750.222C4543.99 751.396 4541.44 752.57 4538.87 753.745L4539.46 755.56C4535.6 757.325 4531.69 759.092 4527.74 760.859L4527.16 759.036C4524.62 760.173 4522.05 761.31 4519.46 762.448L4520.03 764.276C4516.33 765.9 4512.6 767.525 4508.82 769.151L4508.28 767.316C4505.77 768.398 4503.24 769.481 4500.69 770.564L4501.22 772.404C4497.39 774.03 4493.52 775.658 4489.61 777.286L4489.09 775.44C4486.49 776.524 4483.87 777.609 4481.23 778.693L4481.74 780.543C4477.87 782.133 4473.96 783.723 4470.02 785.314L4469.52 783.458C4467.03 784.463 4464.52 785.468 4462 786.473L4462.49 788.333C4458.7 789.842 4454.88 791.352 4451.03 792.862L4450.55 790.998C4447.98 792.004 4445.4 793.01 4442.8 794.016L4443.27 795.883C4439.37 797.394 4435.44 798.905 4431.47 800.416L4431.01 798.544C4428.37 799.551 4425.72 800.557 4423.04 801.564L4423.49 803.439C4419.67 804.879 4415.82 806.319 4411.93 807.76L4411.5 805.881C4408.97 806.82 4406.42 807.759 4403.87 808.697L4404.3 810.578C4400.46 811.988 4396.6 813.398 4392.7 814.807L4392.28 812.922C4389.69 813.861 4387.08 814.8 4384.46 815.739L4384.88 817.626C4380.94 819.036 4376.98 820.446 4373 821.855L4372.59 819.965C4371.54 820.337 4370.48 820.709 4369.43 821.081C4367.82 821.648 4366.2 822.215 4364.58 822.782L4364.98 824.674C4361.14 826.02 4357.27 827.365 4353.38 828.71L4352.99 826.815C4350.44 827.696 4347.88 828.576 4345.31 829.457L4345.69 831.354C4341.83 832.676 4337.95 833.998 4334.04 835.319L4333.67 833.419C4331.06 834.299 4328.45 835.179 4325.82 836.06L4326.2 837.962C4322.26 839.283 4318.29 840.604 4314.3 841.924L4313.94 840.02C4311.28 840.899 4308.62 841.779 4305.94 842.659L4306.3 844.565C4302.38 845.852 4298.44 847.139 4294.47 848.426L4294.12 846.517C4291.57 847.347 4289 848.176 4286.43 849.005L4286.78 850.915C4282.91 852.159 4279.03 853.403 4275.12 854.647L4274.78 852.735C4272.18 853.563 4269.57 854.392 4266.95 855.22L4267.29 857.134C4263.35 858.377 4259.4 859.62 4255.43 860.862L4255.1 858.946L4252.61 859.723C4250.79 860.292 4248.96 860.86 4247.13 861.429L4247.45 863.346C4243.45 864.588 4239.43 865.829 4235.39 867.07L4235.07 865.15C4232.48 865.945 4229.88 866.74 4227.28 867.534L4227.59 869.454C4223.73 870.63 4219.86 871.805 4215.97 872.979L4215.66 871.057C4213.07 871.84 4210.46 872.622 4207.85 873.404L4208.16 875.328C4204.24 876.502 4200.31 877.675 4196.35 878.848L4196.06 876.923C4193.42 877.704 4190.78 878.485 4188.13 879.267L4188.42 881.193C4184.45 882.365 4180.45 883.537 4176.44 884.708L4176.15 882.779C4173.48 883.56 4170.8 884.34 4168.11 885.119L4168.39 887.049C4164.47 888.186 4160.53 889.323 4156.57 890.46L4156.29 888.529L4153.01 889.47C4151.52 889.898 4150.02 890.326 4148.53 890.753L4148.8 892.685C4144.91 893.797 4140.99 894.908 4137.07 896.019L4136.8 894.086C4134.18 894.826 4131.55 895.566 4128.92 896.306L4129.19 898.24C4125.24 899.35 4121.28 900.459 4117.3 901.568L4117.04 899.632C4114.38 900.371 4111.72 901.11 4109.06 901.848L4109.32 903.784C4105.32 904.892 4101.3 905.999 4097.27 907.105L4097.01 905.168C4094.33 905.903 4091.64 906.639 4088.95 907.374L4089.2 909.313C4085.33 910.369 4081.44 911.425 4077.54 912.48L4077.29 910.54C4075.81 910.943 4074.32 911.345 4072.82 911.747L4069.48 912.649L4069.72 914.589C4065.8 915.643 4061.87 916.697 4057.92 917.749L4057.68 915.808C4055.05 916.509 4052.42 917.21 4049.77 917.911L4050.01 919.854C4046.05 920.905 4042.07 921.956 4038.07 923.006L4037.84 921.063C4035.18 921.763 4032.51 922.462 4029.84 923.161L4030.07 925.106C4026.06 926.155 4022.04 927.203 4018 928.251L4017.77 926.305C4015.11 926.996 4012.45 927.685 4009.78 928.375L4010 930.321C4006.11 931.324 4002.21 932.327 3998.29 933.329L3998.07 931.382C3996.4 931.811 3994.72 932.24 3993.04 932.669L3990.23 933.385L3990.45 935.332C3986.52 936.333 3982.57 937.334 3978.62 938.333L3978.41 936.384C3975.77 937.05 3973.13 937.716 3970.48 938.382L3970.69 940.331C3966.72 941.329 3962.74 942.327 3958.74 943.324L3958.53 941.373L3955.44 942.144C3953.81 942.551 3952.17 942.958 3950.53 943.365L3950.73 945.316C3946.72 946.311 3942.7 947.306 3938.66 948.3L3938.46 946.348C3935.78 947.008 3933.1 947.667 3930.41 948.326L3930.61 950.278C3926.71 951.233 3922.8 952.188 3918.88 953.141L3918.69 951.188C3916.07 951.823 3913.46 952.458 3910.83 953.093L3911.03 955.047C3907.09 955.999 3903.15 956.95 3899.19 957.901L3899 955.946L3894.81 956.951L3891.08 957.845L3891.26 959.8C3887.29 960.75 3883.31 961.698 3879.32 962.646L3879.14 960.69C3876.48 961.321 3873.81 961.952 3871.14 962.583L3871.32 964.54C3867.31 965.486 3863.3 966.431 3859.27 967.376L3859.09 965.418C3856.41 966.048 3853.72 966.677 3851.02 967.306L3851.2 969.264C3847.25 970.184 3843.3 971.104 3839.34 972.022L3839.16 970.064L3836.11 970.771C3834.51 971.141 3832.91 971.51 3831.31 971.879L3831.48 973.838C3827.55 974.745 3823.61 975.651 3819.65 976.556L3819.49 974.596C3816.85 975.2 3814.22 975.803 3811.57 976.405L3811.74 978.366C3807.77 979.27 3803.8 980.173 3799.81 981.075L3799.65 979.114C3797 979.715 3794.34 980.316 3791.67 980.917L3791.83 982.878C3787.83 983.779 3783.83 984.679 3779.81 985.578L3779.66 983.616C3776.98 984.215 3774.3 984.813 3771.61 985.412L3771.77 987.374C3767.74 988.271 3763.71 989.166 3759.67 990.06L3759.52 988.097C3756.91 988.674 3754.29 989.252 3751.68 989.828L3751.83 991.792C3747.9 992.657 3743.96 993.522 3740.02 994.385L3739.87 992.42C3737.24 992.996 3734.61 993.571 3731.97 994.145L3732.12 996.11C3728.16 996.972 3724.19 997.833 3720.22 998.693L3720.08 996.728C3717.43 997.301 3714.78 997.874 3712.12 998.446L3712.26 1000.41C3708.27 1001.27 3704.28 1002.13 3700.28 1002.99L3700.14 1001.02C3697.47 1001.59 3694.8 1002.16 3692.13 1002.73L3692.26 1004.7C3688.25 1005.55 3684.23 1006.41 3680.2 1007.26L3680.06 1005.29C3678.48 1005.63 3676.89 1005.96 3675.3 1006.3L3671.99 1007L3672.12 1008.97C3668.18 1009.8 3664.23 1010.63 3660.28 1011.45L3660.15 1009.49C3657.52 1010.04 3654.9 1010.58 3652.27 1011.13L3652.39 1013.1C3648.45 1013.92 3644.49 1014.75 3640.53 1015.57L3640.41 1013.6C3637.77 1014.15 3635.12 1014.69 3632.48 1015.24L3632.6 1017.21C3628.63 1018.03 3624.64 1018.85 3620.66 1019.66L3620.54 1017.69C3617.88 1018.24 3615.22 1018.78 3612.55 1019.33L3612.67 1021.3C3608.67 1022.11 3604.67 1022.93 3600.66 1023.74L3600.54 1021.77C3597.87 1022.31 3595.19 1022.85 3592.51 1023.4L3592.62 1025.37C3588.6 1026.18 3584.57 1026.99 3580.53 1027.8L3580.42 1025.83C3577.77 1026.36 3575.12 1026.89 3572.46 1027.42L3572.57 1029.4C3568.63 1030.18 3564.69 1030.97 3560.74 1031.75L3560.64 1029.78C3558 1030.3 3555.37 1030.82 3552.73 1031.35L3552.83 1033.32C3548.88 1034.1 3544.91 1034.88 3540.94 1035.66L3540.84 1033.69C3538.19 1034.21 3535.54 1034.73 3532.88 1035.25L3532.99 1037.22C3529 1038 3525.02 1038.78 3521.02 1039.56L3520.92 1037.58C3518.26 1038.1 3515.59 1038.62 3512.92 1039.14L3513.02 1041.11C3509.02 1041.89 3505 1042.66 3500.99 1043.43L3500.89 1041.46C3498.21 1041.97 3495.53 1042.49 3492.85 1043L3492.94 1044.98C3488.92 1045.75 3484.89 1046.52 3480.85 1047.29L3480.76 1045.31C3478.13 1045.81 3475.51 1046.31 3472.88 1046.81L3472.97 1048.79C3469.02 1049.54 3465.07 1050.28 3461.11 1051.03L3461.03 1049.05C3458.39 1049.55 3455.75 1050.05 3453.11 1050.54L3453.19 1052.52C3449.23 1053.26 3445.25 1054.01 3441.28 1054.75L3441.19 1052.77L3438.2 1053.33C3436.54 1053.64 3434.89 1053.95 3433.23 1054.26L3433.31 1056.23C3429.33 1056.97 3425.33 1057.71 3421.34 1058.45L3421.26 1056.47C3418.59 1056.97 3415.92 1057.46 3413.25 1057.95L3413.33 1059.93C3409.32 1060.67 3405.31 1061.4 3401.29 1062.14L3401.22 1060.16L3397.96 1060.75L3393.17 1061.63L3393.24 1063.6C3389.23 1064.33 3385.21 1065.06 3381.18 1065.79L3381.11 1063.81C3378.48 1064.29 3375.85 1064.76 3373.22 1065.24L3373.29 1067.22C3369.34 1067.93 3365.38 1068.64 3361.42 1069.35L3361.35 1067.37L3359.61 1067.68C3357.55 1068.05 3355.49 1068.42 3353.43 1068.79L3353.49 1070.77C3349.52 1071.48 3345.55 1072.18 3341.57 1072.89L3341.5 1070.91C3338.85 1071.38 3336.19 1071.85 3333.54 1072.32L3333.6 1074.3C3329.61 1075 3325.62 1075.71 3321.62 1076.41L3321.56 1074.43L3318.84 1074.91C3317.08 1075.21 3315.32 1075.52 3313.55 1075.83L3313.61 1077.81C3309.61 1078.51 3305.6 1079.21 3301.58 1079.91L3301.52 1077.93L3296.84 1078.74L3293.48 1079.32L3293.54 1081.31C3289.52 1082 3285.49 1082.7 3281.46 1083.39L3281.4 1081.41C3278.77 1081.86 3276.14 1082.31 3273.51 1082.76L3273.56 1084.75C3269.61 1085.42 3265.65 1086.1 3261.68 1086.77L3261.63 1084.79C3258.99 1085.24 3256.35 1085.69 3253.7 1086.14L3253.75 1088.12C3249.78 1088.79 3245.81 1089.47 3241.82 1090.14L3241.78 1088.15L3237.8 1088.82L3233.81 1089.49L3233.86 1091.48C3229.87 1092.15 3225.88 1092.82 3221.88 1093.48L3221.84 1091.5C3219.17 1091.94 3216.51 1092.39 3213.84 1092.83L3213.88 1094.82C3209.88 1095.48 3205.87 1096.14 3201.86 1096.81L3201.81 1094.82C3199.14 1095.27 3196.46 1095.71 3193.78 1096.15L3193.82 1098.13C3189.8 1098.79 3185.78 1099.45 3181.75 1100.11L3181.71 1098.13L3179.24 1098.53C3177.41 1098.83 3175.58 1099.13 3173.75 1099.43L3173.78 1101.41C3169.83 1102.06 3165.87 1102.7 3161.91 1103.34L3161.88 1101.35C3159.23 1101.78 3156.59 1102.21 3153.94 1102.63L3153.98 1104.62C3150.01 1105.26 3146.03 1105.9 3142.06 1106.54L3142.03 1104.55C3139.37 1104.98 3136.72 1105.4 3134.06 1105.82L3134.09 1107.81C3130.11 1108.45 3126.12 1109.08 3122.13 1109.71L3122.1 1107.73C3119.44 1108.15 3116.77 1108.57 3114.11 1108.99L3114.13 1110.98C3110.13 1111.61 3106.13 1112.24 3102.12 1112.87L3102.1 1110.88C3099.42 1111.3 3096.75 1111.72 3094.08 1112.14L3094.1 1114.13C3090.08 1114.75 3086.06 1115.38 3082.04 1116.01L3082.02 1114.02C3079.34 1114.43 3076.66 1114.85 3073.97 1115.27L3073.99 1117.25C3070.03 1117.87 3066.07 1118.48 3062.11 1119.09L3062.09 1117.1C3059.45 1117.5 3056.81 1117.91 3054.16 1118.31L3054.18 1120.3C3050.21 1120.91 3046.24 1121.52 3042.26 1122.12L3042.25 1120.13C3039.6 1120.54 3036.95 1120.94 3034.3 1121.34L3034.31 1123.33C3030.33 1123.93 3026.34 1124.54 3022.35 1125.14L3022.34 1123.15L3018.77 1123.68L3014.36 1124.35L3014.37 1126.34C3010.38 1126.94 3006.38 1127.53 3002.37 1128.13L3002.37 1126.14C2999.7 1126.54 2997.03 1126.93 2994.36 1127.33L2994.36 1129.32C2990.36 1129.92 2986.34 1130.51 2982.33 1131.1L2982.32 1129.11C2979.65 1129.51 2976.97 1129.9 2974.29 1130.29L2974.29 1132.29C2970.29 1132.87 2966.29 1133.46 2962.29 1134.04L2962.28 1132.05C2959.64 1132.44 2957 1132.82 2954.36 1133.21L2954.36 1135.2C2950.4 1135.77 2946.43 1136.35 2942.46 1136.92L2942.46 1134.93C2939.81 1135.31 2937.16 1135.7 2934.51 1136.08L2934.51 1138.07C2930.53 1138.64 2926.55 1139.21 2922.57 1139.78L2922.57 1137.79C2919.92 1138.17 2917.26 1138.55 2914.6 1138.93L2914.59 1140.92C2910.61 1141.48 2906.61 1142.05 2902.62 1142.62L2902.62 1140.62C2899.96 1141 2897.29 1141.38 2894.63 1141.75L2894.62 1143.74C2890.62 1144.31 2886.61 1144.87 2882.61 1145.43L2882.62 1143.44C2879.94 1143.81 2877.27 1144.19 2874.6 1144.56L2874.58 1146.55C2870.57 1147.11 2866.56 1147.67 2862.54 1148.22L2862.55 1146.23C2859.88 1146.6 2857.21 1146.97 2854.54 1147.34L2854.53 1149.33C2850.57 1149.87 2846.6 1150.42 2842.64 1150.96L2842.65 1148.97C2840.01 1149.33 2837.36 1149.69 2834.71 1150.05L2834.7 1152.05C2830.72 1152.59 2826.75 1153.13 2822.77 1153.67L2822.79 1151.67C2820.14 1152.03 2817.48 1152.39 2814.83 1152.75L2814.81 1154.74C2810.82 1155.28 2806.84 1155.82 2802.85 1156.35L2802.87 1154.36C2800.21 1154.71 2797.55 1155.07 2794.89 1155.42L2794.86 1157.42C2790.87 1157.95 2786.87 1158.48 2782.87 1159.01L2782.9 1157.02C2780.23 1157.37 2777.56 1157.72 2774.89 1158.08L2774.87 1160.07C2770.86 1160.6 2766.85 1161.13 2762.84 1161.65L2762.87 1159.66C2760.2 1160.01 2757.52 1160.36 2754.84 1160.7L2754.82 1162.7C2750.82 1163.22 2746.81 1163.74 2742.81 1164.26L2742.84 1162.27C2740.2 1162.61 2737.55 1162.95 2734.91 1163.29L2734.88 1165.29C2730.91 1165.8 2726.94 1166.31 2722.96 1166.82L2723 1164.82C2720.35 1165.16 2717.7 1165.5 2715.05 1165.84L2715.01 1167.83C2711.03 1168.34 2707.05 1168.85 2703.07 1169.35L2703.11 1167.35C2700.45 1167.69 2697.8 1168.03 2695.14 1168.36L2695.1 1170.36C2691.11 1170.86 2687.12 1171.36 2683.13 1171.86L2683.17 1169.87C2680.51 1170.2 2677.84 1170.53 2675.18 1170.86L2675.14 1172.86C2671.14 1173.36 2667.14 1173.86 2663.14 1174.35L2663.18 1172.35C2660.51 1172.68 2657.84 1173.01 2655.17 1173.34L2655.13 1175.34C2651.12 1175.83 2647.11 1176.33 2643.1 1176.82L2643.15 1174.82L2638.63 1175.37L2635.12 1175.8L2635.07 1177.8C2631.1 1178.28 2627.13 1178.76 2623.15 1179.24L2623.2 1177.25C2620.56 1177.56 2617.91 1177.88 2615.26 1178.2L2615.21 1180.2C2611.24 1180.68 2607.27 1181.15 2603.29 1181.63L2603.34 1179.63C2600.69 1179.95 2598.04 1180.27 2595.38 1180.58L2595.33 1182.58C2591.35 1183.05 2587.36 1183.52 2583.38 1183.99L2583.43 1182C2580.77 1182.31 2578.12 1182.62 2575.46 1182.94L2575.4 1184.93C2571.41 1185.4 2567.42 1185.87 2563.43 1186.34L2563.48 1184.34C2560.82 1184.65 2558.16 1184.96 2555.49 1185.27L2555.43 1187.27C2551.43 1187.73 2547.43 1188.19 2543.43 1188.65L2543.49 1186.66C2540.82 1186.96 2538.15 1187.27 2535.48 1187.58L2535.42 1189.57C2531.42 1190.03 2527.41 1190.49 2523.39 1190.95L2523.46 1188.95L2519.44 1189.41L2515.43 1189.86L2515.37 1191.86C2511.36 1192.31 2507.35 1192.77 2503.34 1193.22L2503.41 1191.22C2500.74 1191.52 2498.07 1191.82 2495.4 1192.12L2495.33 1194.11C2491.33 1194.56 2487.33 1195.01 2483.33 1195.45L2483.4 1193.45C2480.74 1193.75 2478.07 1194.04 2475.41 1194.34L2475.34 1196.34C2471.35 1196.78 2467.36 1197.22 2463.37 1197.65L2463.44 1195.65C2460.78 1195.94 2458.12 1196.23 2455.47 1196.52L2455.39 1198.52C2451.41 1198.96 2447.43 1199.39 2443.45 1199.82L2443.52 1197.82L2439.28 1198.28L2435.57 1198.68L2435.49 1200.68C2431.52 1201.11 2427.54 1201.53 2423.57 1201.96L2423.65 1199.96L2419.65 1200.38L2415.71 1200.8L2415.63 1202.8C2411.66 1203.22 2407.69 1203.64 2403.72 1204.06L2403.8 1202.06C2401.12 1202.34 2398.45 1202.62 2395.78 1202.9L2395.7 1204.9C2391.69 1205.32 2387.68 1205.74 2383.68 1206.16L2383.76 1204.15C2381.09 1204.43 2378.42 1204.71 2375.75 1204.98L2375.67 1206.98C2371.67 1207.4 2367.67 1207.81 2363.68 1208.22L2363.76 1206.22L2360.81 1206.52C2359.13 1206.69 2357.46 1206.86 2355.78 1207.03L2355.69 1209.03C2351.7 1209.44 2347.72 1209.84 2343.73 1210.25L2343.82 1208.24C2341.16 1208.51 2338.51 1208.78 2335.86 1209.05L2335.77 1211.05C2331.79 1211.45 2327.81 1211.85 2323.84 1212.24L2323.93 1210.24C2321.28 1210.5 2318.63 1210.76 2315.98 1211.03L2315.89 1213.03C2311.92 1213.42 2307.96 1213.81 2303.99 1214.2L2304.08 1212.2C2301.44 1212.46 2298.8 1212.72 2296.16 1212.97L2296.07 1214.98C2292.07 1215.37 2288.07 1215.75 2284.07 1216.14L2284.17 1214.14C2281.49 1214.4 2278.82 1214.65 2276.15 1214.91L2276.05 1216.91C2272.05 1217.3 2268.04 1217.68 2264.04 1218.06L2264.14 1216.06C2261.48 1216.31 2258.81 1216.56 2256.15 1216.82L2256.05 1218.82C2252.05 1219.2 2248.06 1219.57 2244.07 1219.95L2244.17 1217.94L2240.26 1218.31L2236.2 1218.69L2236.1 1220.69C2232.11 1221.06 2228.13 1221.43 2224.15 1221.8L2224.26 1219.79L2220.73 1220.12C2219.25 1220.25 2217.78 1220.39 2216.31 1220.52L2216.2 1222.53C2212.23 1222.89 2208.26 1223.25 2204.29 1223.61L2204.4 1221.61L2200.34 1221.98L2196.47 1222.33L2196.36 1224.33C2192.4 1224.69 2188.44 1225.04 2184.49 1225.39L2184.6 1223.39C2181.93 1223.63 2179.27 1223.86 2176.61 1224.1L2176.49 1226.1C2172.48 1226.46 2168.47 1226.81 2164.46 1227.17L2164.58 1225.16C2161.91 1225.4 2159.24 1225.63 2156.57 1225.86L2156.46 1227.87C2152.45 1228.21 2148.46 1228.56 2144.46 1228.9L2144.58 1226.9C2141.92 1227.13 2139.26 1227.36 2136.6 1227.59L2136.48 1229.59C2132.49 1229.93 2128.5 1230.27 2124.52 1230.61L2124.64 1228.6L2121.42 1228.88C2119.84 1229.01 2118.26 1229.14 2116.68 1229.28L2116.56 1231.28C2112.59 1231.61 2108.61 1231.95 2104.64 1232.28L2104.77 1230.27C2102.12 1230.49 2099.48 1230.71 2096.83 1230.93L2096.71 1232.93C2092.75 1233.26 2088.79 1233.59 2084.83 1233.91L2084.96 1231.9C2082.32 1232.12 2079.68 1232.33 2077.05 1232.55L2076.92 1234.55C2072.92 1234.88 2068.93 1235.2 2064.94 1235.52L2065.07 1233.51C2062.39 1233.73 2059.72 1233.94 2057.05 1234.15L2056.92 1236.16C2052.91 1236.48 2048.91 1236.79 2044.91 1237.11L2045.04 1235.1C2042.38 1235.31 2039.71 1235.52 2037.05 1235.73L2036.92 1237.73C2032.92 1238.04 2028.94 1238.35 2024.95 1238.66L2025.08 1236.65C2022.43 1236.86 2019.77 1237.06 2017.12 1237.26L2016.98 1239.27C2013.01 1239.57 2009.03 1239.87 2005.06 1240.17L2005.2 1238.17C2002.55 1238.37 1999.9 1238.57 1997.26 1238.76L1997.12 1240.77C1993.15 1241.07 1989.19 1241.36 1985.24 1241.65L1985.38 1239.65C1982.74 1239.84 1980.1 1240.03 1977.47 1240.23L1977.33 1242.23C1973.37 1242.52 1969.42 1242.81 1965.48 1243.1L1965.62 1241.09C1962.94 1241.28 1960.26 1241.47 1957.59 1241.67L1957.44 1243.67C1953.43 1243.96 1949.42 1244.24 1945.42 1244.53L1945.57 1242.52C1942.9 1242.71 1940.23 1242.9 1937.57 1243.08L1937.42 1245.09C1933.42 1245.37 1929.43 1245.65 1925.44 1245.92L1925.59 1243.92C1922.93 1244.1 1920.28 1244.28 1917.62 1244.46L1917.47 1246.47C1913.49 1246.74 1909.51 1247.01 1905.54 1247.28L1905.69 1245.27C1903.04 1245.45 1900.4 1245.63 1897.75 1245.8L1897.6 1247.81C1893.63 1248.08 1889.67 1248.34 1885.71 1248.6L1885.87 1246.59C1883.23 1246.76 1880.59 1246.94 1877.96 1247.11L1877.8 1249.12C1873.85 1249.37 1869.9 1249.63 1865.96 1249.88L1866.12 1247.87L1863.2 1248.06C1861.53 1248.17 1859.86 1248.27 1858.19 1248.38L1858.03 1250.39C1854.01 1250.64 1850 1250.89 1845.99 1251.14L1846.15 1249.13C1843.48 1249.3 1840.81 1249.47 1838.15 1249.63L1837.98 1251.64C1833.98 1251.89 1829.99 1252.13 1826 1252.37L1826.16 1250.36C1823.5 1250.53 1820.84 1250.69 1818.19 1250.85L1818.02 1252.85C1814.04 1253.09 1810.06 1253.33 1806.09 1253.56L1806.26 1251.55C1803.61 1251.71 1800.96 1251.87 1798.32 1252.02L1798.15 1254.03C1794.18 1254.26 1790.22 1254.49 1786.26 1254.72L1786.43 1252.71C1783.8 1252.86 1781.16 1253.01 1778.53 1253.16L1778.36 1255.17C1774.41 1255.39 1770.46 1255.61 1766.52 1255.83L1766.7 1253.82C1764.08 1253.97 1761.45 1254.11 1758.83 1254.25L1758.65 1256.26C1754.64 1256.48 1750.63 1256.7 1746.62 1256.92L1746.8 1254.91C1744.13 1255.05 1741.46 1255.19 1738.79 1255.33L1738.61 1257.34C1734.61 1257.56 1730.61 1257.77 1726.62 1257.97L1726.8 1255.96C1724.14 1256.1 1721.48 1256.24 1718.83 1256.38L1718.64 1258.38C1714.66 1258.59 1710.68 1258.79 1706.71 1258.99L1706.9 1256.98C1704.25 1257.11 1701.6 1257.25 1698.96 1257.38L1698.77 1259.39C1694.81 1259.58 1690.85 1259.77 1686.9 1259.97L1687.09 1257.96C1684.45 1258.08 1681.82 1258.21 1679.19 1258.34L1679 1260.34C1675.05 1260.53 1671.11 1260.72 1667.18 1260.9L1667.38 1258.89C1664.75 1259.01 1662.13 1259.13 1659.52 1259.25L1659.32 1261.26C1655.31 1261.45 1651.31 1261.63 1647.31 1261.81L1647.51 1259.8C1644.84 1259.92 1642.17 1260.04 1639.5 1260.15L1639.3 1262.16C1635.3 1262.34 1631.3 1262.51 1627.31 1262.68L1627.52 1260.67C1624.86 1260.79 1622.2 1260.9 1619.55 1261.01L1619.34 1263.02C1615.36 1263.19 1611.39 1263.35 1607.42 1263.51L1607.63 1261.5C1606.55 1261.55 1605.47 1261.59 1604.39 1261.64C1602.83 1261.7 1601.26 1261.76 1599.7 1261.82L1599.49 1263.83C1595.53 1263.99 1591.58 1264.15 1587.63 1264.3L1587.84 1262.29C1585.21 1262.4 1582.58 1262.5 1579.96 1262.6L1579.75 1264.61C1575.81 1264.76 1571.88 1264.91 1567.95 1265.05L1568.16 1263.04C1566.77 1263.09 1565.37 1263.14 1563.98 1263.19C1562.76 1263.24 1561.54 1263.28 1560.32 1263.33L1560.11 1265.34C1556.09 1265.48 1552.08 1265.63 1548.07 1265.77L1548.29 1263.76C1545.62 1263.85 1542.95 1263.94 1540.29 1264.03L1540.07 1266.04C1536.07 1266.18 1532.08 1266.31 1528.09 1266.44L1528.31 1264.43C1527.04 1264.48 1525.78 1264.52 1524.51 1264.56C1523.12 1264.6 1521.74 1264.65 1520.36 1264.69L1520.13 1266.7C1516.16 1266.83 1512.19 1266.96 1508.23 1267.08L1508.45 1265.07C1505.81 1265.15 1503.18 1265.23 1500.54 1265.31L1500.32 1267.32C1496.37 1267.44 1492.42 1267.56 1488.48 1267.67L1488.71 1265.66C1486.09 1265.73 1483.47 1265.81 1480.85 1265.88L1480.62 1267.89C1476.69 1268 1472.77 1268.11 1468.86 1268.22L1469.09 1266.2C1466.45 1266.28 1463.81 1266.34 1461.17 1266.41L1460.94 1268.42C1456.92 1268.53 1452.91 1268.63 1448.91 1268.73L1449.15 1266.72C1446.48 1266.78 1443.82 1266.85 1441.16 1266.91L1440.92 1268.92C1436.93 1269.02 1432.95 1269.11 1428.97 1269.2L1429.21 1267.19C1426.57 1267.24 1423.92 1267.3 1421.28 1267.36L1421.03 1269.37C1417.07 1269.46 1413.11 1269.54 1409.16 1269.62L1409.41 1267.61C1406.78 1267.66 1404.15 1267.71 1401.52 1267.76L1401.27 1269.77C1397.34 1269.85 1393.41 1269.92 1389.48 1269.99L1389.73 1267.98C1387.12 1268.03 1384.51 1268.08 1381.9 1268.12L1381.65 1270.13C1377.71 1270.2 1373.79 1270.26 1369.87 1270.32L1370.13 1268.31C1367.45 1268.35 1364.78 1268.4 1362.11 1268.43L1361.85 1270.45C1357.84 1270.51 1353.85 1270.56 1349.86 1270.61L1350.12 1268.6C1347.46 1268.64 1344.8 1268.67 1342.15 1268.7L1341.89 1270.72C1337.91 1270.77 1333.94 1270.81 1329.99 1270.86L1330.25 1268.84C1329.17 1268.86 1328.08 1268.87 1327 1268.88C1325.45 1268.89 1323.89 1268.91 1322.34 1268.93L1322.08 1270.94C1318.13 1270.98 1314.19 1271.01 1310.26 1271.05L1310.53 1269.03C1307.91 1269.06 1305.29 1269.08 1302.68 1269.1L1302.41 1271.11C1298.49 1271.14 1294.58 1271.17 1290.68 1271.19L1290.95 1269.18L1288.65 1269.19C1286.82 1269.2 1284.99 1269.21 1283.16 1269.22L1282.89 1271.23C1278.87 1271.25 1274.87 1271.27 1270.87 1271.28L1271.15 1269.27C1268.48 1269.28 1265.82 1269.29 1263.16 1269.3L1262.88 1271.31C1258.89 1271.32 1254.92 1271.32 1250.95 1271.33L1251.23 1269.32C1248.58 1269.32 1245.94 1269.32 1243.31 1269.32L1243.02 1271.33C1239.06 1271.33 1235.12 1271.33 1231.18 1271.32L1231.47 1269.31C1228.85 1269.3 1226.23 1269.3 1223.61 1269.29L1223.32 1271.3C1219.4 1271.29 1215.48 1271.27 1211.58 1271.26L1211.87 1269.25C1209.27 1269.23 1206.67 1269.22 1204.08 1269.21L1203.78 1271.22C1199.85 1271.2 1195.92 1271.17 1192.01 1271.14L1192.31 1269.13C1189.63 1269.11 1186.96 1269.09 1184.3 1269.07L1184 1271.08C1180 1271.05 1176.02 1271.01 1172.04 1270.97L1172.34 1268.96C1169.69 1268.93 1167.05 1268.9 1164.41 1268.87L1164.1 1270.89C1160.14 1270.84 1156.19 1270.79 1152.25 1270.74L1152.56 1268.73C1149.94 1268.7 1147.32 1268.66 1144.7 1268.62L1144.39 1270.63C1140.46 1270.58 1136.55 1270.52 1132.65 1270.46L1132.96 1268.44C1130.36 1268.4 1127.76 1268.36 1125.17 1268.32L1124.85 1270.33C1120.97 1270.26 1117.09 1270.19 1113.22 1270.12L1113.55 1268.1C1110.88 1268.05 1108.22 1268 1105.56 1267.95L1105.24 1269.96C1101.23 1269.88 1097.24 1269.79 1093.27 1269.7L1093.59 1267.69C1090.94 1267.63 1088.3 1267.57 1085.66 1267.51L1085.33 1269.52C1081.36 1269.43 1077.41 1269.33 1073.48 1269.23L1073.81 1267.22C1071.19 1267.15 1068.57 1267.08 1065.96 1267.01L1065.62 1269.03C1061.7 1268.92 1057.79 1268.81 1053.89 1268.7L1054.23 1266.69C1051.64 1266.61 1049.05 1266.54 1046.46 1266.46L1046.12 1268.47C1042.24 1268.35 1038.37 1268.23 1034.52 1268.11L1034.86 1266.1C1032.22 1266.01 1029.58 1265.92 1026.94 1265.83L1026.59 1267.84C1022.59 1267.71 1018.6 1267.57 1014.63 1267.43L1014.98 1265.42C1012.33 1265.32 1009.69 1265.23 1007.06 1265.13L1006.7 1267.14C1002.74 1266.99 998.803 1266.84 994.876 1266.68L995.236 1264.67C992.619 1264.57 990.008 1264.46 987.403 1264.35L987.039 1266.36C983.131 1266.2 979.236 1266.04 975.355 1265.87L975.723 1263.86C973.136 1263.75 970.556 1263.63 967.982 1263.52L967.612 1265.53C963.75 1265.35 959.902 1265.18 956.068 1265L956.443 1262.99C953.774 1262.86 951.113 1262.73 948.458 1262.6L948.08 1264.61C944.089 1264.41 940.114 1264.21 936.154 1264.01L936.537 1262C933.898 1261.87 931.266 1261.73 928.642 1261.59L928.256 1263.6C924.317 1263.39 920.394 1263.17 916.487 1262.96L916.878 1260.95C915.725 1260.88 914.574 1260.82 913.424 1260.75C911.976 1260.67 910.531 1260.59 909.088 1260.5L908.694 1262.51C904.808 1262.29 900.938 1262.06 897.085 1261.83L897.484 1259.82C894.916 1259.67 892.355 1259.51 889.801 1259.35L889.398 1261.36C885.484 1261.12 881.587 1260.87 877.706 1260.62L878.114 1258.61C877.109 1258.54 876.106 1258.48 875.104 1258.41C873.453 1258.3 871.804 1258.2 870.159 1258.09L869.747 1260.09C865.78 1259.83 861.83 1259.56 857.899 1259.28L858.316 1257.28C855.696 1257.09 853.084 1256.91 850.481 1256.72L850.06 1258.73C846.153 1258.45 842.264 1258.16 838.392 1257.87L838.819 1255.87C836.239 1255.67 833.668 1255.48 831.105 1255.28L830.675 1257.29C826.828 1256.99 823 1256.69 819.19 1256.39L819.626 1254.38C817.051 1254.17 814.485 1253.97 811.928 1253.76L811.488 1255.76C807.495 1255.43 803.522 1255.1 799.57 1254.76L800.016 1252.75C797.383 1252.53 794.759 1252.3 792.144 1252.07L791.694 1254.07C787.769 1253.73 783.866 1253.38 779.983 1253.02L780.44 1251.02C777.853 1250.78 775.276 1250.54 772.707 1250.3L772.246 1252.3C768.391 1251.94 764.557 1251.57 760.745 1251.2L761.213 1249.2C758.673 1248.95 756.142 1248.7 753.621 1248.45L753.148 1250.45C749.236 1250.05 745.347 1249.66 741.481 1249.25L741.961 1247.25C739.319 1246.98 736.688 1246.7 734.068 1246.42L733.582 1248.42C729.649 1248 725.74 1247.57 721.855 1247.14L722.348 1245.14C719.76 1244.85 717.183 1244.56 714.616 1244.26L714.118 1246.26C710.266 1245.82 706.438 1245.38 702.634 1244.92L703.14 1242.93C700.607 1242.62 698.084 1242.32 695.572 1242.02L695.06 1244.01C691.222 1243.55 687.41 1243.07 683.624 1242.59L684.145 1240.6C681.503 1240.26 678.873 1239.92 676.256 1239.58L675.73 1241.58C671.802 1241.07 667.902 1240.55 664.03 1240.03L664.566 1238.03C661.987 1237.68 659.421 1237.33 656.867 1236.98L656.325 1238.97C652.492 1238.44 648.687 1237.9 644.911 1237.36L645.463 1235.36C642.948 1235 640.445 1234.63 637.956 1234.26L637.397 1236.26C633.577 1235.69 629.787 1235.12 626.028 1234.54L626.597 1232.55C623.969 1232.14 621.356 1231.73 618.758 1231.32L618.182 1233.31C614.281 1232.69 610.414 1232.07 606.581 1231.44L607.169 1229.45C604.616 1229.03 602.078 1228.6 599.556 1228.17L598.96 1230.16C595.172 1229.52 591.418 1228.87 587.698 1228.21L588.307 1226.23C585.83 1225.79 583.368 1225.35 580.922 1224.9L580.305 1226.89C576.432 1226.18 572.597 1225.47 568.801 1224.75L569.431 1222.77C566.841 1222.28 564.268 1221.79 561.714 1221.29L561.075 1223.27C557.239 1222.52 553.444 1221.76 549.689 1220.99L550.344 1219.02C547.844 1218.51 545.363 1217.99 542.9 1217.48L542.235 1219.45C538.536 1218.67 534.877 1217.89 531.26 1217.09L531.94 1215.12C529.406 1214.57 526.893 1214.01 524.4 1213.44L523.709 1215.41C519.833 1214.53 516.006 1213.64 512.229 1212.74L512.939 1210.78C510.425 1210.18 507.934 1209.58 505.465 1208.97L504.742 1210.93C501.032 1210.02 497.372 1209.1 493.762 1208.17L494.504 1206.21C492.102 1205.59 489.723 1204.97 487.366 1204.34L486.61 1206.29C482.789 1205.27 479.027 1204.24 475.324 1203.2L476.103 1201.25C473.593 1200.55 471.11 1199.83 468.654 1199.12L467.859 1201.06C464.167 1199.98 460.538 1198.88 456.972 1197.78L457.793 1195.85C455.421 1195.12 453.077 1194.38 450.761 1193.63L449.922 1195.56C446.227 1194.37 442.603 1193.17 439.051 1191.96L439.92 1190.04C437.447 1189.19 435.008 1188.34 432.604 1187.48L431.713 1189.39C428.097 1188.1 424.559 1186.79 421.101 1185.47L422.027 1183.58C419.73 1182.7 417.468 1181.81 415.242 1180.92L414.291 1182.81C410.664 1181.36 407.13 1179.89 403.691 1178.4L404.683 1176.53C402.311 1175.51 399.985 1174.48 397.704 1173.44L396.68 1175.29C393.243 1173.72 389.909 1172.13 386.679 1170.53L387.752 1168.7C385.552 1167.6 383.4 1166.5 381.298 1165.39L380.189 1167.2C376.673 1165.35 373.292 1163.47 370.049 1161.56L371.222 1159.78C369.075 1158.52 366.988 1157.25 364.964 1155.97L363.744 1157.72C360.553 1155.7 357.511 1153.65 354.621 1151.58L355.918 1149.88C353.811 1148.37 351.786 1146.85 349.845 1145.31L348.487 1146.97C345.544 1144.64 342.786 1142.28 340.217 1139.89L341.672 1138.32C339.812 1136.59 338.054 1134.84 336.398 1133.08L334.868 1134.57C332.22 1131.76 329.825 1128.9 327.687 1126L329.341 1124.66C327.884 1122.68 326.551 1120.69 325.342 1118.68L323.603 1119.9C321.58 1116.54 319.891 1113.13 318.541 1109.66L320.407 1108.7C319.511 1106.39 318.77 1104.07 318.186 1101.73L316.253 1102.47C315.3 1098.65 314.747 1094.77 314.6 1090.82L316.586 1090.46C316.539 1089.19 316.535 1087.91 316.575 1086.63C316.615 1085.34 316.699 1084.06 316.826 1082.77L314.848 1082.86C315.243 1078.85 316.044 1074.81 317.243 1070.74L319.143 1071.05C319.878 1068.56 320.769 1066.05 321.816 1063.53L319.997 1062.99C321.573 1059.19 323.488 1055.36 325.737 1051.52L327.412 1052.35C328.755 1050.05 330.222 1047.74 331.813 1045.42L330.232 1044.44C332.566 1041.04 335.157 1037.61 338 1034.17L339.448 1035.33C341.226 1033.18 343.105 1031.02 345.087 1028.85L343.719 1027.61C346.457 1024.61 349.382 1021.61 352.492 1018.59L353.756 1019.94C355.807 1017.96 357.942 1015.96 360.158 1013.96L358.958 1012.55C361.999 1009.8 365.19 1007.05 368.53 1004.29L369.649 1005.77C371.768 1004.02 373.949 1002.26 376.191 1000.5L375.12 998.98C378.506 996.322 382.029 993.658 385.686 990.986L386.689 992.559C388.876 990.962 391.112 989.362 393.396 987.758L392.43 986.158C395.784 983.805 399.241 981.447 402.801 979.084L403.716 980.719C406.078 979.151 408.485 977.58 410.939 976.007L410.056 974.351C413.613 972.071 417.263 969.787 421.008 967.499L421.847 969.182C424.144 967.778 426.478 966.372 428.847 964.964L428.033 963.265C431.598 961.147 435.242 959.025 438.965 956.9L439.743 958.619C442.218 957.207 444.727 955.793 447.271 954.378L446.516 952.646C450.17 950.613 453.894 948.578 457.69 946.54L458.415 948.289C460.793 947.012 463.2 945.734 465.635 944.455L464.929 942.696C468.59 940.772 472.313 938.846 476.098 936.919L476.778 938.691C479.295 937.409 481.841 936.125 484.413 934.841L483.75 933.06C487.545 931.166 491.398 929.271 495.31 927.373L495.949 929.166C498.362 927.995 500.798 926.824 503.256 925.652L502.631 923.853C506.324 922.092 510.068 920.33 513.862 918.566L514.467 920.375C516.992 919.201 519.538 918.027 522.107 916.852L521.515 915.037C525.375 913.272 529.285 911.506 533.243 909.738L533.816 911.561C536.362 910.425 538.929 909.287 541.515 908.15L540.954 906.321C544.646 904.697 548.38 903.072 552.154 901.446L552.7 903.282C555.213 902.199 557.744 901.117 560.293 900.034L559.758 898.194C563.587 896.567 567.457 894.939 571.367 893.311L571.887 895.157C574.49 894.073 577.112 892.989 579.751 891.904L579.241 890.054C583.109 888.464 587.016 886.874 590.96 885.283L591.457 887.139C593.949 886.134 596.455 885.129 598.977 884.124L598.489 882.265C602.276 880.755 606.097 879.245 609.953 877.735L610.428 879.599C612.996 878.593 615.578 877.588 618.175 876.581L617.708 874.714C621.608 873.204 625.541 871.693 629.508 870.181L629.964 872.053C632.607 871.047 635.264 870.04 637.936 869.033L637.487 867.159C641.31 865.719 645.162 864.278 649.045 862.838L649.483 864.716C652.013 863.778 654.556 862.839 657.112 861.9L656.681 860.019C660.518 858.609 664.383 857.2 668.277 855.79L668.698 857.675C671.292 856.736 673.899 855.797 676.518 854.858L676.103 852.971C680.035 851.561 683.995 850.152 687.983 848.742L688.388 850.633C691.045 849.694 693.714 848.755 696.396 847.816L695.997 845.923C699.84 844.578 703.709 843.232 707.603 841.887L707.993 843.783C710.542 842.902 713.102 842.021 715.673 841.141L715.288 839.243C719.147 837.921 723.03 836.6 726.937 835.278L727.314 837.179C729.917 836.298 732.531 835.418 735.155 834.538L734.784 832.636C738.724 831.315 742.687 829.994 746.675 828.673L747.038 830.578C749.695 829.698 752.362 828.818 755.04 827.939L754.682 826.032C758.6 824.745 762.542 823.458 766.506 822.171L766.857 824.08C769.412 823.251 771.977 822.422 774.551 821.593L774.204 819.682C778.067 818.438 781.951 817.194 785.856 815.95L786.195 817.863C788.797 817.034 791.408 816.206 794.028 815.378L793.693 813.464C797.626 812.22 801.579 810.978 805.553 809.735L805.881 811.651C808.529 810.824 811.186 809.996 813.852 809.169L813.528 807.251C817.529 806.01 821.551 804.768 825.593 803.528L825.911 805.447C828.5 804.652 831.097 803.858 833.702 803.064L833.389 801.143C837.245 799.967 841.12 798.792 845.012 797.618L845.32 799.54C847.913 798.758 850.515 797.975 853.125 797.193L852.821 795.269C856.738 794.096 860.673 792.922 864.625 791.749L864.923 793.675C867.557 792.893 870.199 792.112 872.849 791.331L872.555 789.404C876.531 788.232 880.526 787.061 884.538 785.89L884.827 787.818C887.5 787.038 890.182 786.258 892.871 785.478L892.586 783.549C896.51 782.411 900.45 781.274 904.408 780.137L904.687 782.068C907.269 781.327 909.858 780.585 912.454 779.844L912.178 777.913C916.074 776.801 919.986 775.689 923.913 774.578L924.184 776.511C926.801 775.771 929.426 775.031 932.057 774.292L931.789 772.358C935.737 771.248 939.702 770.138 943.681 769.03L943.944 770.965C946.596 770.226 949.255 769.488 951.921 768.75L951.662 766.813C955.662 765.706 959.678 764.599 963.71 763.492L963.965 765.43C966.646 764.694 969.335 763.958 972.03 763.223L971.779 761.285C975.651 760.228 979.538 759.172 983.438 758.117L983.685 760.057C986.285 759.354 988.89 758.651 991.502 757.949L991.257 756.008C995.176 754.954 999.109 753.901 1003.06 752.848L1003.3 754.79C1005.93 754.088 1008.56 753.387 1011.21 752.686L1010.97 750.744C1014.93 749.692 1018.91 748.641 1022.9 747.591L1023.14 749.534C1025.8 748.835 1028.47 748.135 1031.14 747.436L1030.91 745.492C1034.92 744.442 1038.94 743.394 1042.98 742.347L1043.21 744.292C1045.87 743.602 1048.53 742.912 1051.2 742.223L1050.98 740.277C1054.87 739.273 1058.77 738.27 1062.69 737.268L1062.91 739.215C1065.51 738.547 1068.13 737.88 1070.75 737.213L1070.53 735.265C1074.46 734.264 1078.41 733.264 1082.36 732.264L1082.57 734.213C1085.21 733.547 1087.85 732.881 1090.5 732.216L1090.29 730.266C1094.26 729.268 1098.24 728.271 1102.24 727.274L1102.44 729.224C1105.11 728.56 1107.78 727.896 1110.45 727.233L1110.25 725.282C1114.26 724.286 1118.28 723.291 1122.32 722.298L1122.52 724.249C1125.2 723.59 1127.88 722.93 1130.57 722.272L1130.37 720.319C1134.27 719.364 1138.18 718.41 1142.1 717.456L1142.29 719.41C1144.91 718.774 1147.52 718.139 1150.14 717.505L1149.95 715.551C1153.89 714.599 1157.83 713.647 1161.79 712.697L1161.98 714.651C1164.61 714.018 1167.26 713.385 1169.9 712.752L1169.72 710.797C1173.69 709.848 1177.67 708.899 1181.66 707.952L1181.84 709.908C1184.5 709.276 1187.17 708.645 1189.84 708.014L1189.66 706.058C1193.67 705.111 1197.68 704.166 1201.71 703.222L1201.89 705.179C1204.57 704.549 1207.26 703.92 1209.96 703.292L1209.78 701.334C1213.72 700.413 1217.68 699.494 1221.64 698.575L1221.82 700.534C1224.43 699.928 1227.04 699.323 1229.67 698.719L1229.5 696.76C1233.43 695.853 1237.37 694.946 1241.32 694.041L1241.49 696.001C1244.12 695.398 1246.76 694.795 1249.41 694.192L1249.24 692.232C1253.21 691.328 1257.18 690.425 1261.17 689.522L1261.33 691.483C1263.98 690.882 1266.64 690.281 1269.31 689.681L1269.15 687.719C1273.15 686.818 1277.15 685.919 1281.17 685.02L1281.32 686.982C1284 686.383 1286.68 685.784 1289.37 685.186L1289.21 683.223C1293.24 682.327 1297.27 681.431 1301.31 680.537L1301.46 682.5C1304.07 681.923 1306.68 681.346 1309.3 680.769L1309.15 678.805C1313.08 677.94 1317.02 677.076 1320.96 676.213L1321.11 678.177C1323.74 677.601 1326.37 677.026 1329.01 676.452L1328.86 674.487C1332.82 673.625 1336.79 672.764 1340.76 671.904L1340.9 673.869C1343.55 673.296 1346.2 672.723 1348.86 672.151L1348.72 670.185C1352.7 669.326 1356.7 668.469 1360.7 667.612L1360.84 669.578C1363.51 669.007 1366.18 668.437 1368.85 667.867L1368.72 665.9C1372.73 665.045 1376.75 664.19 1380.78 663.337L1380.92 665.304C1383.6 664.736 1386.29 664.167 1388.99 663.599L1388.86 661.632C1392.8 660.801 1396.75 659.971 1400.7 659.143L1400.83 661.111C1403.46 660.562 1406.08 660.013 1408.71 659.464L1408.59 657.496C1412.53 656.673 1416.49 655.851 1420.45 655.03L1420.57 656.999C1423.21 656.452 1425.86 655.905 1428.5 655.359L1428.38 653.39C1432.35 652.57 1436.33 651.752 1440.32 650.934L1440.44 652.904C1443.1 652.36 1445.76 651.815 1448.42 651.271L1448.31 649.301C1452.3 648.485 1456.31 647.67 1460.32 646.856L1460.44 648.827C1463.11 648.285 1465.79 647.743 1468.47 647.201L1468.36 645.23C1472.38 644.417 1476.41 643.606 1480.45 642.796L1480.56 644.767C1483.21 644.236 1485.86 643.705 1488.52 643.174L1488.41 641.202C1492.35 640.415 1496.29 639.63 1500.24 638.846L1500.34 640.819C1502.98 640.296 1505.61 639.774 1508.25 639.252L1508.14 637.279C1512.1 636.496 1516.07 635.715 1520.04 634.934L1520.14 636.908C1522.79 636.387 1525.44 635.867 1528.09 635.348L1527.99 633.374C1531.98 632.595 1535.96 631.817 1539.96 631.04L1540.06 633.014C1542.72 632.496 1545.39 631.979 1548.06 631.462L1547.96 629.487C1551.96 628.712 1555.97 627.937 1559.99 627.164L1560.09 629.139C1562.77 628.624 1565.45 628.109 1568.13 627.594L1568.04 625.619C1572.06 624.847 1576.09 624.077 1580.13 623.308L1580.22 625.284C1582.85 624.784 1585.47 624.285 1588.1 623.786L1588.01 621.81C1591.96 621.062 1595.91 620.315 1599.86 619.569L1599.95 621.545C1602.59 621.048 1605.23 620.551 1607.87 620.055L1607.79 618.078C1611.75 617.334 1615.72 616.59 1619.7 615.848L1619.79 617.825C1622.44 617.33 1625.09 616.836 1627.75 616.342L1627.67 614.364C1631.65 613.624 1635.65 612.884 1639.64 612.145L1639.72 614.123C1642.39 613.631 1645.06 613.139 1647.73 612.648L1647.65 610.669C1651.66 609.932 1655.67 609.196 1659.69 608.461L1659.76 610.44C1662.44 609.95 1665.12 609.461 1667.81 608.972L1667.74 606.993C1671.75 606.262 1675.77 605.533 1679.8 604.804L1679.87 606.783C1682.5 606.308 1685.13 605.833 1687.76 605.358L1687.69 603.379C1691.64 602.667 1695.59 601.956 1699.56 601.246L1699.62 603.226C1702.26 602.753 1704.91 602.28 1707.55 601.808L1707.49 599.828C1711.46 599.12 1715.43 598.413 1719.41 597.707L1719.48 599.688C1722.13 599.217 1724.78 598.747 1727.44 598.278L1727.38 596.297C1731.37 595.592 1735.36 594.889 1739.36 594.187L1739.42 596.168C1742.09 595.7 1744.75 595.233 1747.42 594.766L1747.37 592.785C1751.37 592.084 1755.38 591.385 1759.4 590.687L1759.46 592.669C1762.14 592.203 1764.82 591.739 1767.5 591.274L1767.44 589.292C1771.46 588.596 1775.49 587.902 1779.52 587.208L1779.58 589.191C1782.21 588.738 1784.84 588.286 1787.47 587.835L1787.42 585.852C1791.37 585.175 1795.33 584.499 1799.3 583.824L1799.35 585.807C1801.99 585.357 1804.63 584.908 1807.28 584.459L1807.23 582.476C1811.2 581.802 1815.17 581.13 1819.15 580.459L1819.2 582.443C1821.85 581.996 1824.51 581.549 1827.17 581.103L1827.12 579.119C1831.11 578.45 1835.1 577.781 1839.1 577.114L1839.14 579.099C1841.81 578.654 1844.47 578.21 1847.14 577.766L1847.1 575.782C1851.1 575.117 1855.11 574.452 1859.12 573.789L1859.16 575.774C1861.84 575.332 1864.52 574.891 1867.2 574.45L1867.16 572.465C1871.18 571.804 1875.2 571.144 1879.23 570.485L1879.27 572.47C1881.92 572.037 1884.57 571.604 1887.23 571.171L1887.19 569.186C1891.15 568.542 1895.11 567.899 1899.07 567.258L1899.1 569.244C1901.74 568.816 1904.39 568.389 1907.03 567.963L1907 565.977C1910.97 565.337 1914.95 564.698 1918.92 564.061L1918.95 566.047C1921.61 565.622 1924.26 565.198 1926.92 564.774L1926.89 562.788C1930.87 562.152 1934.86 561.517 1938.85 560.884L1938.88 562.871C1941.54 562.449 1944.21 562.027 1946.87 561.606L1946.85 559.619C1950.85 558.987 1954.85 558.357 1958.86 557.728L1958.88 559.715C1961.55 559.296 1964.23 558.877 1966.9 558.458L1966.88 556.471C1970.9 555.843 1974.91 555.217 1978.94 554.592L1978.96 556.58C1981.64 556.163 1984.32 555.747 1987.01 555.332L1986.99 553.344C1990.95 552.732 1994.91 552.121 1998.87 551.511L1998.89 553.5C2001.53 553.094 2004.17 552.688 2006.82 552.283L2006.8 550.295C2010.77 549.687 2014.74 549.081 2018.71 548.476L2018.73 550.465C2021.38 550.061 2024.03 549.659 2026.68 549.256L2026.67 547.267C2030.65 546.664 2034.64 546.062 2038.63 545.461L2038.64 547.45C2041.3 547.05 2043.96 546.65 2046.62 546.251L2046.61 544.261C2050.6 543.662 2054.6 543.064 2058.6 542.467L2058.61 544.457C2061.28 544.06 2063.95 543.662 2066.62 543.266L2066.62 541.276C2070.62 540.681 2074.64 540.087 2078.65 539.495L2078.66 541.485C2081.33 541.09 2084.01 540.696 2086.69 540.302L2086.69 538.312C2090.69 537.725 2094.69 537.139 2098.69 536.554L2098.7 538.545C2101.34 538.16 2103.98 537.775 2106.62 537.391L2106.62 535.4C2110.58 534.824 2114.55 534.249 2118.52 533.675L2118.52 535.666C2121.17 535.284 2123.82 534.902 2126.47 534.521L2126.47 532.529C2130.45 531.958 2134.43 531.387 2138.41 530.817L2138.41 532.809C2141.06 532.429 2143.72 532.05 2146.38 531.672L2146.38 529.68C2150.37 529.113 2154.37 528.546 2158.36 527.981L2158.36 529.973C2161.02 529.597 2163.68 529.22 2166.35 528.845L2166.36 526.853C2170.36 526.289 2174.37 525.727 2178.37 525.167L2178.36 527.159C2181.04 526.785 2183.71 526.412 2186.38 526.039L2186.39 524.047C2190.41 523.488 2194.42 522.93 2198.44 522.374L2198.43 524.367C2201.1 523.998 2203.77 523.629 2206.44 523.261L2206.45 521.269C2210.41 520.723 2214.38 520.178 2218.34 519.635L2218.33 521.628C2220.97 521.266 2223.62 520.905 2226.27 520.544L2226.28 518.55C2230.26 518.009 2234.23 517.469 2238.21 516.93L2238.19 518.924C2240.84 518.564 2243.5 518.206 2246.15 517.848L2246.17 515.854C2250.15 515.317 2254.14 514.781 2258.13 514.247L2258.11 516.241C2260.77 515.884 2263.43 515.529 2266.09 515.174L2266.12 513.18C2270.11 512.647 2274.11 512.116 2278.11 511.586L2278.08 513.58C2280.75 513.227 2283.42 512.874 2286.09 512.522L2286.11 510.527C2290.12 509.999 2294.13 509.472 2298.14 508.947L2298.11 510.942C2300.78 510.591 2303.46 510.242 2306.13 509.893L2306.16 507.898C2310.16 507.376 2314.17 506.856 2318.17 506.337L2318.14 508.332C2320.78 507.99 2323.43 507.648 2326.07 507.307L2326.1 505.312C2330.07 504.8 2334.04 504.29 2338.02 503.781L2337.98 505.776C2340.63 505.437 2343.28 505.098 2345.93 504.76L2345.97 502.764C2349.94 502.257 2353.93 501.751 2357.91 501.247L2357.87 503.242C2360.53 502.906 2363.18 502.57 2365.84 502.235L2365.88 500.239C2369.87 499.737 2373.86 499.235 2377.85 498.735L2377.81 500.731C2380.47 500.398 2383.14 500.066 2385.8 499.733L2385.84 497.737C2389.84 497.239 2393.84 496.742 2397.84 496.247L2397.8 498.243C2400.47 497.913 2403.14 497.583 2405.81 497.254L2405.85 495.258C2409.86 494.764 2413.87 494.272 2417.88 493.781L2417.83 495.778C2420.51 495.451 2423.18 495.124 2425.86 494.798L2425.91 492.801C2429.88 492.318 2433.85 491.836 2437.83 491.355L2437.78 493.352C2440.42 493.033 2443.07 492.713 2445.72 492.395L2445.77 490.397C2449.74 489.919 2453.71 489.443 2457.69 488.967L2457.64 490.965C2460.29 490.648 2462.94 490.332 2465.6 490.016L2465.65 488.019C2469.63 487.545 2473.61 487.073 2477.6 486.603L2477.55 488.601C2480.2 488.287 2482.86 487.974 2485.52 487.661L2485.58 485.663C2489.57 485.194 2493.56 484.727 2497.55 484.261L2497.5 486.259C2500.16 485.949 2502.82 485.639 2505.49 485.329L2505.55 483.331C2509.54 482.867 2513.54 482.404 2517.55 481.943L2517.49 483.942C2520.16 483.634 2522.83 483.327 2525.5 483.021L2525.56 481.022C2529.56 480.563 2533.57 480.105 2537.58 479.649L2537.52 481.647L2541.53 481.192L2545.55 480.737L2545.61 478.737C2549.62 478.283 2553.63 477.831 2557.64 477.381L2557.57 479.38C2560.24 479.08 2562.91 478.781 2565.58 478.482L2565.65 476.483C2569.65 476.035 2573.65 475.59 2577.65 475.146L2577.58 477.146C2580.24 476.85 2582.91 476.555 2585.57 476.261L2585.64 474.262C2589.63 473.821 2593.62 473.382 2597.61 472.945L2597.54 474.945C2600.2 474.653 2602.86 474.363 2605.51 474.073L2605.59 472.073C2609.57 471.639 2613.55 471.207 2617.53 470.777L2617.46 472.777C2620.11 472.49 2622.76 472.204 2625.41 471.919L2625.49 469.919C2629.46 469.491 2633.44 469.065 2637.41 468.642L2637.33 470.642C2639.98 470.36 2642.62 470.078 2645.27 469.797L2645.35 467.797C2649.32 467.375 2653.29 466.955 2657.26 466.537L2657.18 468.538C2659.86 468.256 2662.53 467.976 2665.2 467.696L2665.28 465.695C2669.29 465.275 2673.3 464.857 2677.3 464.441L2677.22 466.442C2679.89 466.165 2682.56 465.889 2685.23 465.614L2685.31 463.612C2689.31 463.199 2693.31 462.788 2697.3 462.379L2697.22 464.381C2699.88 464.108 2702.54 463.836 2705.2 463.565L2705.28 461.564C2709.27 461.158 2713.26 460.753 2717.25 460.351L2717.16 462.353C2719.81 462.085 2722.47 461.818 2725.12 461.551L2725.21 459.549C2729.19 459.15 2733.17 458.752 2737.14 458.357L2737.05 460.359C2739.7 460.095 2742.35 459.833 2745 459.571L2745.09 457.569C2749.06 457.176 2753.02 456.785 2756.99 456.396L2756.89 458.399C2759.54 458.14 2762.18 457.881 2764.82 457.624L2764.91 455.622C2768.91 455.232 2772.91 454.843 2776.91 454.457L2776.81 456.46C2779.49 456.202 2782.16 455.944 2784.83 455.688L2784.93 453.685C2788.93 453.301 2792.94 452.918 2796.94 452.537L2796.84 454.54C2799.5 454.286 2802.17 454.034 2804.83 453.782L2804.93 451.779C2808.93 451.401 2812.92 451.025 2816.91 450.652L2816.81 452.655C2819.47 452.406 2822.12 452.158 2824.78 451.911L2824.88 449.907C2828.87 449.537 2832.85 449.168 2836.83 448.801L2836.72 450.804C2839.37 450.56 2842.02 450.317 2844.67 450.074L2844.78 448.07C2848.75 447.707 2852.72 447.345 2856.69 446.985L2856.58 448.989C2859.22 448.749 2861.87 448.51 2864.51 448.272L2864.62 446.268C2868.58 445.911 2872.54 445.556 2876.49 445.203L2876.38 447.207C2879.05 446.969 2881.71 446.733 2884.37 446.497L2884.49 444.493C2888.5 444.137 2892.51 443.783 2896.52 443.432L2896.4 445.436C2899.07 445.202 2901.74 444.969 2904.41 444.736L2904.52 442.732C2908.53 442.383 2912.52 442.037 2916.52 441.693L2916.4 443.697C2919.06 443.468 2921.72 443.239 2924.38 443.011L2924.5 441.007C2928.49 440.666 2932.48 440.326 2936.46 439.989L2936.34 441.994C2938.99 441.769 2941.64 441.545 2944.3 441.322L2944.42 439.317C2948.39 438.983 2952.37 438.651 2956.33 438.321L2956.21 440.326C2958.86 440.106 2961.5 439.887 2964.14 439.669L2964.27 437.664C2968.23 437.336 2972.19 437.011 2976.15 436.688L2976.02 438.693C2978.66 438.478 2981.3 438.264 2983.93 438.05L2984.06 436.045C2988.05 435.721 2992.05 435.4 2996.04 435.08L2995.91 437.085C2998.58 436.871 3001.26 436.658 3003.93 436.446L3004.06 434.44C3008.07 434.122 3012.07 433.805 3016.07 433.491L3015.94 435.497C3018.6 435.288 3021.27 435.079 3023.93 434.872L3024.06 432.866C3028.05 432.555 3032.04 432.246 3036.03 431.939L3035.89 433.945C3038.55 433.741 3041.21 433.537 3043.86 433.335L3043.99 431.329C3047.97 431.025 3051.95 430.723 3055.92 430.424L3055.78 432.43C3058.43 432.231 3061.08 432.032 3063.72 431.834L3063.86 429.828C3067.82 429.532 3071.79 429.237 3075.74 428.945L3075.6 430.952C3078.24 430.757 3080.88 430.563 3083.51 430.37L3083.65 428.364C3087.61 428.074 3091.56 427.787 3095.5 427.502L3095.36 429.509C3098.04 429.315 3100.71 429.123 3103.39 428.931L3103.53 426.925C3107.55 426.637 3111.56 426.352 3115.56 426.07L3115.41 428.077C3118.08 427.888 3120.75 427.701 3123.41 427.514L3123.56 425.507C3127.56 425.228 3131.55 424.95 3135.54 424.675L3135.39 426.682C3138.05 426.499 3140.7 426.316 3143.36 426.135L3143.51 424.128C3147.49 423.856 3151.47 423.586 3155.44 423.318L3155.29 425.326C3157.94 425.147 3160.58 424.97 3163.23 424.794L3163.38 422.786C3167.35 422.522 3171.31 422.259 3175.27 421.999L3175.11 424.007C3177.75 423.834 3180.39 423.661 3183.02 423.49L3183.18 421.482C3187.13 421.225 3191.07 420.971 3195.02 420.718L3194.86 422.726C3197.5 422.556 3200.15 422.388 3202.79 422.22L3202.95 420.212C3206.97 419.958 3210.98 419.705 3214.99 419.455L3214.83 421.463C3217.5 421.297 3220.17 421.131 3222.83 420.967L3223 418.959C3227 418.712 3230.99 418.467 3234.98 418.225L3234.82 420.233C3237.48 420.072 3240.13 419.912 3242.79 419.752L3242.96 417.744C3246.94 417.505 3250.92 417.268 3254.89 417.034L3254.72 419.042C3257.37 418.886 3260.02 418.731 3262.66 418.577L3262.83 416.569C3266.8 416.337 3270.76 416.109 3274.72 415.882L3274.54 417.891C3277.18 417.74 3279.82 417.59 3282.45 417.441L3282.62 415.432C3286.57 415.209 3290.52 414.988 3294.46 414.769L3294.28 416.778C3296.9 416.632 3299.53 416.487 3302.15 416.344L3302.33 414.335C3306.34 414.115 3310.35 413.897 3314.36 413.682L3314.18 415.691C3316.85 415.547 3319.52 415.404 3322.19 415.263L3322.37 413.254C3326.37 413.041 3330.37 412.832 3334.36 412.624L3334.18 414.633C3336.84 414.495 3339.5 414.358 3342.15 414.222L3342.34 412.213C3346.32 412.009 3350.3 411.807 3354.27 411.608L3354.08 413.617C3356.73 413.484 3359.37 413.352 3362.02 413.222L3362.21 411.212C3366.17 411.016 3370.13 410.823 3374.08 410.631L3373.89 412.641C3376.53 412.514 3379.16 412.387 3381.79 412.262L3381.98 410.252C3385.93 410.065 3389.86 409.879 3393.8 409.696L3393.6 411.706C3396.23 411.584 3398.85 411.463 3401.46 411.343L3401.66 409.333C3405.67 409.15 3409.67 408.969 3413.67 408.79L3413.47 410.8C3416.14 410.68 3418.81 410.562 3421.48 410.445L3421.68 408.435C3425.68 408.259 3429.68 408.086 3433.67 407.916L3433.46 409.926C3436.12 409.812 3438.78 409.699 3441.43 409.588L3441.64 407.578C3445.62 407.411 3449.59 407.246 3453.56 407.084L3453.35 409.094C3456 408.986 3458.64 408.879 3461.28 408.773L3461.49 406.763C3465.45 406.604 3469.4 406.448 3473.35 406.294L3473.14 408.304C3475.77 408.202 3478.4 408.101 3481.02 408.001L3481.23 405.99C3485.17 405.84 3489.1 405.692 3493.03 405.547L3492.82 407.557C3495.43 407.461 3498.05 407.365 3500.66 407.27L3500.87 405.26C3504.89 405.115 3508.9 404.972 3512.91 404.832L3512.69 406.842C3515.36 406.749 3518.03 406.656 3520.69 406.565L3520.91 404.555C3524.91 404.418 3528.9 404.284 3532.89 404.153L3532.67 406.163C3535.32 406.076 3537.97 405.989 3540.62 405.904L3540.85 403.893C3544.82 403.766 3548.79 403.64 3552.75 403.518L3552.52 405.529C3555.16 405.447 3557.8 405.367 3560.44 405.287L3560.66 403.277C3564.61 403.158 3568.56 403.041 3572.5 402.928L3572.27 404.939C3574.89 404.863 3577.51 404.788 3580.13 404.715L3580.36 402.704C3584.29 402.594 3588.21 402.487 3592.12 402.382L3591.89 404.393C3594.53 404.322 3597.17 404.253 3599.81 404.185L3600.04 402.173C3604.06 402.069 3608.07 401.968 3612.07 401.87L3611.83 403.881C3614.5 403.815 3617.16 403.751 3619.82 403.688L3620.06 401.677C3624.05 401.582 3628.03 401.49 3632.01 401.401L3631.76 403.412C3634.41 403.353 3637.06 403.295 3639.7 403.238L3639.95 401.226C3643.91 401.141 3647.87 401.058 3651.82 400.979L3651.57 402.99C3654.2 402.937 3656.83 402.885 3659.46 402.834L3659.7 400.823C3663.64 400.747 3667.57 400.674 3671.5 400.603L3671.25 402.615C3673.86 402.568 3676.47 402.522 3679.08 402.478L3679.33 400.466C3683.26 400.399 3687.19 400.335 3691.11 400.273L3690.85 402.285C3693.53 402.243 3696.2 402.202 3698.87 402.163L3699.13 400.151C3703.14 400.092 3707.13 400.036 3711.12 399.983L3710.86 401.995C3713.52 401.959 3716.18 401.925 3718.83 401.892L3719.09 399.881C3723.07 399.832 3727.03 399.786 3730.99 399.742L3730.73 401.754C3733.37 401.725 3736.01 401.698 3738.64 401.671L3738.9 399.66C3742.85 399.621 3746.79 399.584 3750.72 399.551L3750.45 401.562C3753.07 401.54 3755.69 401.519 3758.3 401.5L3758.57 399.488C3762.49 399.459 3766.4 399.432 3770.3 399.409L3770.03 401.42C3772.63 401.405 3775.23 401.39 3777.82 401.377L3778.09 399.365C3782.11 399.345 3786.11 399.328 3790.11 399.314L3789.83 401.326C3792.5 401.317 3795.16 401.309 3797.82 401.302L3798.1 399.29C3802.09 399.281 3806.06 399.274 3810.03 399.271L3809.75 401.282C3812.4 401.28 3815.04 401.279 3817.67 401.279L3817.96 399.268C3821.92 399.268 3825.86 399.272 3829.8 399.279L3829.51 401.291C3832.13 401.296 3834.75 401.302 3837.37 401.309L3837.66 399.297C3841.58 399.309 3845.5 399.323 3849.4 399.34L3849.11 401.352C3851.71 401.364 3854.31 401.377 3856.9 401.391L3857.2 399.379C3861.13 399.401 3865.06 399.426 3868.97 399.455L3868.67 401.466C3871.35 401.486 3874.01 401.506 3876.68 401.529L3876.98 399.517C3880.98 399.551 3884.96 399.587 3888.94 399.628L3888.63 401.639C3891.28 401.666 3893.93 401.694 3896.57 401.724L3896.88 399.712C3900.84 399.757 3904.79 399.805 3908.73 399.856L3908.42 401.868C3911.04 401.902 3913.66 401.938 3916.28 401.975L3916.59 399.964C3920.52 400.019 3924.43 400.078 3928.33 400.141L3928.02 402.152C3930.62 402.194 3933.22 402.237 3935.81 402.282L3936.12 400.27C3940.01 400.337 3943.89 400.408 3947.76 400.481L3947.43 402.493C3950.1 402.544 3952.76 402.596 3955.42 402.65L3955.74 400.639C3959.75 400.72 3963.74 400.805 3967.71 400.893L3967.39 402.905C3970.04 402.964 3972.68 403.024 3975.32 403.087L3975.65 401.075C3979.62 401.169 3983.56 401.266 3987.5 401.366L3987.17 403.377C3989.79 403.444 3992.41 403.513 3995.02 403.583L3995.36 401.572C3999.28 401.677 4003.19 401.786 4007.08 401.899L4006.74 403.91C4009.34 403.985 4011.93 404.061 4014.52 404.14L4014.86 402.129C4018.74 402.246 4022.61 402.367 4026.46 402.492L4026.11 404.502C4028.76 404.588 4031.4 404.675 4034.04 404.764L4034.39 402.753C4038.39 402.888 4042.38 403.027 4046.35 403.17L4046 405.18C4048.65 405.275 4051.29 405.372 4053.92 405.471L4054.28 403.46C4058.23 403.608 4062.18 403.76 4066.1 403.916L4065.74 405.926C4068.36 406.03 4070.97 406.135 4073.58 406.243L4073.94 404.232C4077.85 404.393 4081.74 404.558 4085.62 404.727L4085.26 406.737C4087.84 406.849 4090.42 406.963 4093 407.079L4093.37 405.069C4097.23 405.243 4101.08 405.421 4104.91 405.602L4104.54 407.612C4107.2 407.738 4109.87 407.866 4112.52 407.997L4112.9 405.987C4116.89 406.183 4120.87 406.383 4124.83 406.587L4124.44 408.596C4127.08 408.732 4129.71 408.87 4132.34 409.009L4132.72 407C4136.66 407.21 4140.59 407.424 4144.49 407.642L4144.1 409.651C4146.7 409.796 4149.3 409.944 4151.89 410.093L4152.29 408.084C4156.17 408.308 4160.04 408.536 4163.89 408.768L4163.5 410.777C4166.06 410.931 4168.62 411.088 4171.18 411.246L4171.58 409.238C4175.5 409.481 4179.39 409.729 4183.27 409.98L4182.87 411.988C4185.53 412.161 4188.18 412.335 4190.82 412.512L4191.23 410.504C4195.2 410.769 4199.15 411.039 4203.08 411.314L4202.66 413.321C4205.28 413.503 4207.89 413.688 4210.5 413.875L4210.92 411.868C4214.83 412.149 4218.72 412.434 4222.59 412.724L4222.16 414.73C4224.74 414.923 4227.31 415.119 4229.87 415.316L4230.3 413.31C4234.15 413.606 4237.98 413.906 4241.79 414.211L4241.35 416.217C4243.93 416.423 4246.49 416.632 4249.05 416.842L4249.49 414.837C4253.48 415.165 4257.46 415.499 4261.41 415.838L4260.96 417.843C4263.6 418.069 4266.22 418.297 4268.84 418.527L4269.29 416.522C4273.21 416.868 4277.11 417.219 4281 417.575L4280.54 419.579C4283.13 419.816 4285.7 420.055 4288.27 420.297L4288.73 418.294C4292.59 418.656 4296.42 419.024 4300.23 419.397L4299.77 421.4C4302.31 421.648 4304.84 421.899 4307.36 422.152L4307.83 420.15C4311.74 420.542 4315.63 420.94 4319.5 421.344L4319.02 423.346C4321.66 423.621 4324.29 423.899 4326.91 424.18L4327.4 422.179C4331.33 422.601 4335.24 423.028 4339.12 423.461L4338.63 425.461C4341.22 425.749 4343.8 426.04 4346.36 426.334L4346.86 424.334C4350.71 424.775 4354.54 425.221 4358.35 425.673L4357.84 427.671C4360.37 427.973 4362.9 428.276 4365.41 428.582L4365.92 426.584C4369.76 427.052 4373.57 427.525 4377.35 428.005L4376.83 430.002C4379.48 430.336 4382.11 430.674 4384.72 431.014L4385.25 429.018C4389.18 429.529 4393.08 430.046 4396.95 430.57L4396.41 432.565C4398.99 432.914 4401.56 433.265 4404.11 433.62L4404.65 431.626C4408.49 432.158 4412.29 432.697 4416.07 433.242L4415.52 435.235C4418.03 435.598 4420.53 435.964 4423.02 436.333L4423.58 434.341C4427.4 434.907 4431.19 435.48 4434.95 436.06L4434.38 438.05C4437.01 438.455 4439.62 438.863 4442.22 439.275L4442.8 437.286C4446.7 437.904 4450.57 438.529 4454.4 439.162L4453.81 441.149C4456.36 441.571 4458.9 441.995 4461.42 442.423L4462.02 440.437C4465.81 441.08 4469.56 441.73 4473.28 442.387L4472.67 444.371C4475.15 444.809 4477.61 445.25 4480.06 445.694L4480.67 443.712C4484.55 444.415 4488.38 445.126 4492.18 445.846L4491.55 447.826C4494.14 448.317 4496.71 448.812 4499.26 449.31L4499.9 447.332C4503.74 448.081 4507.54 448.838 4511.29 449.604L4510.64 451.579C4513.14 452.089 4515.62 452.603 4518.08 453.12L4518.74 451.148C4522.44 451.925 4526.1 452.711 4529.72 453.505L4529.04 455.474C4531.57 456.031 4534.09 456.592 4536.58 457.156L4537.27 455.189C4541.15 456.068 4544.97 456.956 4548.75 457.854L4548.04 459.817C4550.55 460.415 4553.05 461.017 4555.51 461.624L4556.24 459.664C4559.95 460.576 4563.61 461.498 4567.22 462.429L4566.47 464.384C4568.88 465.004 4571.26 465.629 4573.61 466.258L4574.37 464.307C4578.19 465.326 4581.95 466.357 4585.66 467.4L4584.88 469.345C4587.39 470.052 4589.87 470.765 4592.32 471.482L4593.12 469.542C4596.81 470.621 4600.44 471.713 4604.01 472.816L4603.19 474.748C4605.56 475.482 4607.9 476.221 4610.22 476.965L4611.06 475.038C4614.75 476.226 4618.38 477.427 4621.93 478.641L4621.06 480.558C4623.53 481.403 4625.97 482.255 4628.37 483.114L4629.27 481.205C4632.88 482.497 4636.42 483.803 4639.88 485.125L4638.95 487.021C4641.25 487.899 4643.51 488.783 4645.74 489.674L4646.69 487.788C4650.32 489.239 4653.85 490.708 4657.29 492.194L4656.3 494.063C4658.67 495.088 4660.99 496.121 4663.28 497.162L4664.3 495.306C4667.74 496.875 4671.07 498.463 4674.3 500.069L4673.23 501.9C4675.43 502.994 4677.58 504.096 4679.68 505.207L4680.79 503.394C4684.31 505.251 4687.69 507.132 4690.93 509.037L4689.76 510.815C4691.9 512.076 4693.99 513.347 4696.02 514.629L4697.24 512.88C4700.43 514.899 4703.47 516.945 4706.36 519.016L4705.06 520.713C4707.17 522.224 4709.19 523.747 4711.13 525.283L4712.49 523.631C4715.44 525.96 4718.19 528.32 4720.76 530.712L4719.31 532.279C4721.17 534.01 4722.93 535.756 4724.58 537.516L4726.11 536.024C4728.76 538.839 4731.15 541.696 4733.29 544.595L4731.64 545.94C4733.1 547.915 4734.43 549.906 4735.64 551.914L4737.38 550.697C4739.4 554.058 4741.09 557.472 4742.44 560.941L4740.57 561.9C4741.47 564.203 4742.21 566.526 4742.79 568.87L4744.73 568.123Z" stroke="#FBD161" stroke-width="4" stroke-dasharray="8 12"/>
<path d="M3200.32 614.786C3199.1 617.178 3197.85 619.562 3196.57 621.937L3196.13 621.699C3195.49 622.885 3194.84 624.069 3194.19 625.251C3193.53 626.432 3192.87 627.608 3192.2 628.779L3192.64 629.026C3191.3 631.371 3189.94 633.693 3188.56 635.994L3188.13 635.736C3186.74 638.041 3185.33 640.325 3183.9 642.586L3184.32 642.853C3182.87 645.134 3181.41 647.391 3179.91 649.626L3179.5 649.348C3178 651.584 3176.49 653.797 3174.95 655.987L3175.36 656.274C3173.81 658.484 3172.23 660.671 3170.63 662.834L3170.23 662.537C3168.64 664.698 3167.02 666.835 3165.38 668.949L3165.77 669.256C3164.12 671.39 3162.44 673.499 3160.74 675.584L3160.35 675.269C3158.65 677.351 3156.93 679.409 3155.19 681.443L3155.57 681.768C3153.82 683.819 3152.04 685.846 3150.24 687.848L3149.87 687.514C3148.08 689.513 3146.26 691.488 3144.42 693.437L3144.79 693.78C3142.94 695.744 3141.06 697.682 3139.17 699.595L3138.82 699.243C3136.93 701.155 3135.02 703.041 3133.09 704.901L3133.44 705.261C3131.5 707.132 3129.53 708.978 3127.55 710.798L3127.22 710.429C3125.24 712.248 3123.24 714.041 3121.22 715.807L3121.55 716.183C3119.52 717.959 3117.47 719.708 3115.41 721.43L3115.09 721.046C3113.02 722.768 3110.94 724.463 3108.84 726.132L3109.15 726.523C3107.04 728.199 3104.91 729.848 3102.77 731.469L3102.47 731.07C3100.32 732.691 3098.16 734.285 3095.98 735.851L3096.27 736.257C3094.09 737.83 3091.88 739.375 3089.66 740.892L3089.38 740.479C3087.16 741.995 3084.93 743.484 3082.67 744.945L3082.95 745.365C3080.69 746.831 3078.41 748.268 3076.12 749.678L3075.86 749.252C3073.57 750.661 3071.27 752.041 3068.95 753.394L3069.2 753.826C3066.87 755.182 3064.53 756.51 3062.18 757.808L3061.94 757.371C3059.58 758.669 3057.21 759.938 3054.83 761.179L3055.06 761.623C3052.68 762.866 3050.28 764.081 3047.86 765.267L3047.64 764.818C3045.23 766.003 3042.8 767.159 3040.37 768.285L3040.57 768.739C3038.13 769.868 3035.68 770.968 3033.21 772.037L3033.01 771.579C3030.54 772.648 3028.07 773.687 3025.58 774.697L3025.76 775.16C3023.27 776.172 3020.77 777.154 3018.25 778.106L3018.07 777.638C3015.56 778.589 3013.04 779.511 3010.5 780.401L3010.67 780.873C3008.13 781.766 3005.58 782.628 3003.02 783.46L3002.87 782.984C3000.31 783.815 2997.75 784.616 2995.17 785.386L2995.32 785.865C2992.74 786.637 2990.15 787.377 2987.56 788.088L2987.42 787.605C2984.83 788.314 2982.23 788.993 2979.62 789.641L2979.75 790.126C2977.13 790.774 2974.52 791.392 2971.89 791.979L2971.78 791.491C2969.16 792.077 2966.53 792.631 2963.89 793.155L2963.99 793.645C2961.35 794.17 2958.71 794.663 2956.06 795.124L2955.97 794.632C2953.32 795.093 2950.67 795.522 2948.01 795.921L2948.09 796.415C2945.43 796.814 2942.76 797.181 2940.09 797.517L2940.03 797.021C2937.37 797.356 2934.7 797.659 2932.02 797.931L2932.07 798.428C2929.4 798.7 2926.72 798.941 2924.03 799.149L2923.99 798.651C2921.32 798.859 2918.64 799.035 2915.95 799.18L2915.98 799.679C2913.29 799.824 2910.6 799.936 2907.91 800.017L2907.9 799.517C2905.21 799.598 2902.53 799.647 2899.84 799.663L2899.84 800.163C2897.15 800.18 2894.46 800.164 2891.77 800.117L2891.78 799.617C2889.1 799.569 2886.41 799.49 2883.73 799.378L2883.7 799.878C2881.02 799.766 2878.33 799.622 2875.64 799.446L2875.68 798.947C2873 798.772 2870.32 798.564 2867.64 798.324L2867.6 798.822C2864.92 798.582 2862.24 798.31 2859.56 798.005L2859.62 797.508C2856.96 797.205 2854.29 796.869 2851.63 796.501L2851.56 796.997C2848.9 796.629 2846.23 796.228 2843.57 795.796L2843.65 795.302C2841.01 794.872 2838.36 794.409 2835.72 793.914L2835.63 794.405C2832.98 793.91 2830.34 793.382 2827.71 792.822L2827.81 792.333C2825.19 791.776 2822.57 791.187 2819.95 790.566L2819.84 791.053C2817.22 790.431 2814.61 789.777 2812 789.091L2812.13 788.607C2809.54 787.926 2806.95 787.213 2804.37 786.467L2804.23 786.947C2801.64 786.201 2799.06 785.422 2796.49 784.611L2796.64 784.134C2794.09 783.33 2791.54 782.494 2789 781.626L2788.83 782.099C2786.29 781.23 2783.75 780.329 2781.21 779.395L2781.39 778.926C2778.87 778.001 2776.37 777.045 2773.87 776.056L2773.69 776.521C2771.19 775.532 2768.69 774.511 2766.21 773.458L2766.4 772.998C2763.94 771.954 2761.48 770.88 2759.03 769.773L2758.82 770.229C2756.37 769.123 2753.93 767.986 2751.5 766.817L2751.71 766.366C2749.3 765.207 2746.9 764.017 2744.5 762.795L2744.27 763.241C2741.88 762.022 2739.5 760.772 2737.12 759.491L2737.36 759.051C2736.17 758.411 2734.99 757.763 2733.81 757.108C2732.63 756.453 2731.45 755.791 2730.28 755.124L2730.03 755.559C2727.69 754.222 2725.36 752.862 2723.06 751.478L2723.32 751.049C2721.02 749.663 2718.73 748.252 2716.47 746.819L2716.2 747.241C2713.92 745.796 2711.66 744.327 2709.43 742.835L2709.71 742.419C2707.47 740.926 2705.26 739.411 2703.07 737.873L2702.78 738.282C2700.57 736.73 2698.38 735.154 2696.22 733.557L2696.52 733.155C2694.36 731.559 2692.22 729.94 2690.11 728.3L2689.8 728.695C2687.67 727.04 2685.56 725.362 2683.47 723.662L2683.79 723.275C2681.7 721.578 2679.65 719.859 2677.61 718.119L2677.29 718.499C2675.23 716.744 2673.21 714.968 2671.21 713.17L2671.54 712.798C2669.54 711.003 2667.57 709.187 2665.62 707.35L2665.27 707.714C2663.31 705.864 2661.37 703.993 2659.46 702.102L2659.81 701.747C2657.9 699.858 2656.01 697.948 2654.15 696.019L2653.79 696.366C2651.92 694.425 2650.07 692.464 2648.25 690.484L2648.62 690.146C2646.8 688.167 2645.01 686.168 2643.24 684.151L2642.87 684.481C2641.09 682.453 2639.34 680.407 2637.62 678.342L2638 678.022C2636.28 675.958 2634.59 673.875 2632.92 671.775L2632.53 672.086C2630.85 669.976 2629.2 667.849 2627.58 665.704L2627.98 665.403C2626.36 663.258 2624.76 661.097 2623.2 658.918L2622.79 659.21C2621.22 657.024 2619.67 654.82 2618.16 652.6L2618.57 652.318C2617.05 650.099 2615.56 647.863 2614.1 645.612L2613.68 645.884C2612.22 643.625 2610.78 641.351 2609.37 639.061L2609.8 638.799C2608.39 636.51 2607.01 634.206 2605.65 631.887L2605.22 632.139C2603.87 629.813 2602.54 627.473 2601.24 625.118L2601.68 624.877C2600.38 622.524 2599.11 620.156 2597.87 617.775L2597.42 618.006C2596.18 615.619 2594.97 613.218 2593.78 610.805L2594.23 610.584C2593.04 608.172 2591.89 605.747 2590.76 603.309L2590.31 603.519C2589.18 601.076 2588.08 598.62 2587.01 596.153L2587.47 595.954C2586.4 593.488 2585.36 591.011 2584.35 588.523L2583.88 588.71C2582.87 586.217 2581.89 583.712 2580.94 581.196L2581.41 581.019C2580.45 578.506 2579.53 575.983 2578.64 573.449L2578.17 573.615C2577.28 571.076 2576.42 568.528 2575.58 565.97L2576.06 565.815C2575.23 563.26 2574.43 560.695 2573.66 558.122L2573.18 558.265C2572.41 555.688 2571.67 553.101 2570.95 550.506L2571.44 550.374C2570.73 547.783 2570.05 545.184 2569.4 542.576L2568.92 542.697C2568.27 540.086 2567.65 537.468 2567.06 534.842L2567.55 534.733C2566.96 532.111 2566.41 529.482 2565.89 526.847L2565.4 526.944C2564.87 524.306 2564.38 521.661 2563.92 519.01L2564.41 518.924C2563.95 516.278 2563.52 513.626 2563.12 510.969L2562.63 511.043C2562.23 508.383 2561.86 505.718 2561.52 503.047L2562.02 502.985C2561.68 500.321 2561.38 497.651 2561.11 494.978L2560.61 495.028C2560.34 492.353 2560.1 489.673 2559.89 486.989L2560.39 486.95C2560.18 484.274 2560 481.593 2559.86 478.909L2559.36 478.936C2559.22 476.251 2559.1 473.562 2559.02 470.871L2559.52 470.856C2559.44 468.173 2559.39 465.487 2559.38 462.799L2558.88 462.803C2558.86 460.114 2558.87 457.423 2558.92 454.73L2559.42 454.739C2559.47 452.056 2559.55 449.371 2559.66 446.685L2559.16 446.664C2559.27 443.978 2559.42 441.291 2559.59 438.603L2560.09 438.636C2560.27 435.958 2560.47 433.281 2560.71 430.603L2560.22 430.559C2560.46 427.88 2560.73 425.203 2561.03 422.526L2561.53 422.582C2561.83 419.917 2562.17 417.253 2562.54 414.59L2562.04 414.522C2562.41 411.858 2562.81 409.196 2563.24 406.536L2563.74 406.616C2564.17 403.97 2564.63 401.325 2565.12 398.683L2564.63 398.591C2565.13 395.948 2565.66 393.307 2566.22 390.669L2566.71 390.773C2567.26 388.152 2567.85 385.533 2568.47 382.918L2567.99 382.803C2568.61 380.186 2569.26 377.573 2569.95 374.963L2570.43 375.091C2571.11 372.5 2571.83 369.914 2572.57 367.333L2572.09 367.194C2572.84 364.609 2573.62 362.029 2574.43 359.453L2574.91 359.604C2575.71 357.051 2576.55 354.503 2577.41 351.961L2576.94 351.799C2577.81 349.253 2578.71 346.713 2579.64 344.179L2580.11 344.352C2581.04 341.841 2582 339.336 2582.98 336.838L2582.52 336.654C2583.51 334.153 2584.53 331.66 2585.58 329.173L2586.04 329.368C2587.09 326.903 2588.16 324.446 2589.27 321.996L2588.81 321.79C2589.92 319.341 2591.06 316.9 2592.22 314.466L2592.68 314.682C2593.83 312.269 2595.03 309.864 2596.25 307.467L2595.8 307.24C2597.02 304.848 2598.27 302.464 2599.55 300.089L2599.99 300.326C2600.63 299.14 2601.28 297.957 2601.94 296.775C2602.59 295.594 2603.25 294.418 2603.92 293.247L2603.48 292.999C2604.82 290.655 2606.18 288.332 2607.57 286.032L2607.99 286.29C2609.38 283.984 2610.79 281.701 2612.23 279.44L2611.8 279.172C2613.25 276.892 2614.72 274.634 2616.21 272.4L2616.63 272.677C2618.12 270.441 2619.64 268.229 2621.17 266.039L2620.76 265.751C2622.32 263.541 2623.89 261.355 2625.49 259.192L2625.89 259.489C2627.49 257.328 2629.11 255.19 2630.75 253.076L2630.35 252.77C2632.01 250.636 2633.69 248.527 2635.39 246.441L2635.77 246.757C2637.47 244.675 2639.19 242.617 2640.93 240.583L2640.55 240.258C2642.31 238.206 2644.08 236.18 2645.88 234.178L2646.25 234.512C2648.05 232.512 2649.86 230.538 2651.7 228.588L2651.34 228.246C2653.19 226.282 2655.06 224.344 2656.95 222.431L2657.31 222.782C2659.2 220.871 2661.11 218.985 2663.03 217.125L2662.69 216.765C2664.63 214.893 2666.59 213.048 2668.57 211.228L2668.91 211.596C2670.89 209.777 2672.89 207.985 2674.9 206.218L2674.57 205.842C2676.6 204.067 2678.65 202.318 2680.71 200.595L2681.03 200.979C2683.1 199.257 2685.18 197.562 2687.28 195.894L2686.97 195.502C2689.08 193.827 2691.21 192.178 2693.35 190.556L2693.66 190.955C2695.8 189.334 2697.96 187.74 2700.14 186.174L2699.85 185.768C2702.04 184.196 2704.24 182.651 2706.46 181.134L2706.74 181.547C2708.96 180.03 2711.2 178.541 2713.45 177.08L2713.18 176.661C2715.44 175.195 2717.71 173.757 2720 172.348L2720.26 172.774C2722.55 171.365 2724.86 169.984 2727.18 168.632L2726.92 168.2C2729.25 166.844 2731.59 165.516 2733.95 164.217L2734.19 164.655C2736.54 163.357 2738.91 162.087 2741.29 160.846L2741.06 160.403C2743.45 159.159 2745.85 157.944 2748.26 156.759L2748.48 157.207C2750.9 156.023 2753.32 154.867 2755.76 153.74L2755.55 153.287C2757.99 152.158 2760.45 151.058 2762.92 149.988L2763.11 150.447C2765.58 149.378 2768.06 148.338 2770.55 147.329L2770.36 146.865C2772.85 145.853 2775.36 144.872 2777.87 143.919L2778.05 144.387C2780.56 143.436 2783.09 142.515 2785.62 141.624L2785.46 141.152C2788 140.26 2790.54 139.398 2793.1 138.566L2793.26 139.041C2795.81 138.21 2798.38 137.409 2800.95 136.639L2800.81 136.16C2803.39 135.389 2805.97 134.648 2808.57 133.938L2808.7 134.42C2811.29 133.711 2813.89 133.033 2816.5 132.385L2816.38 131.9C2818.99 131.251 2821.61 130.633 2824.23 130.047L2824.34 130.535C2826.97 129.949 2829.59 129.394 2832.23 128.871L2832.13 128.38C2834.77 127.856 2837.42 127.363 2840.07 126.901L2840.15 127.394C2842.8 126.933 2845.45 126.503 2848.11 126.105L2848.04 125.61C2850.7 125.212 2853.36 124.844 2856.03 124.509L2856.09 125.005C2858.76 124.67 2861.43 124.366 2864.1 124.095L2864.05 123.597C2866.73 123.325 2869.41 123.085 2872.09 122.876L2872.13 123.375C2874.81 123.167 2877.49 122.99 2880.17 122.846L2880.15 122.346C2882.83 122.202 2885.52 122.089 2888.21 122.008L2888.23 122.508C2890.91 122.428 2893.6 122.379 2896.28 122.362L2896.28 121.862C2898.97 121.846 2901.66 121.861 2904.35 121.909L2904.34 122.409C2907.03 122.456 2909.71 122.536 2912.4 122.647L2912.42 122.148C2915.11 122.26 2917.79 122.403 2920.48 122.58L2920.45 123.079C2923.13 123.254 2925.8 123.462 2928.48 123.702L2928.53 123.204C2931.2 123.444 2933.88 123.716 2936.56 124.021L2936.5 124.517C2939.17 124.821 2941.83 125.156 2944.5 125.524L2944.56 125.029C2947.23 125.397 2949.89 125.797 2952.55 126.23L2952.47 126.723C2955.12 127.154 2957.76 127.617 2960.4 128.112L2960.5 127.62C2963.14 128.116 2965.78 128.643 2968.42 129.203L2968.31 129.693C2970.94 130.249 2973.55 130.838 2976.17 131.459L2976.28 130.973C2978.9 131.594 2981.52 132.248 2984.12 132.935L2984 133.418C2986.59 134.1 2989.17 134.813 2991.76 135.559L2991.89 135.078C2994.48 135.825 2997.06 136.604 2999.64 137.415L2999.49 137.892C3002.04 138.696 3004.59 139.532 3007.13 140.4L3007.29 139.926C3009.84 140.796 3012.38 141.697 3014.91 142.63L3014.74 143.1C3017.25 144.025 3019.75 144.981 3022.25 145.969L3022.44 145.504C3024.94 146.494 3027.43 147.515 3029.92 148.567L3029.72 149.028C3032.19 150.071 3034.64 151.146 3037.1 152.252L3037.3 151.797C3039.75 152.902 3042.19 154.04 3044.63 155.209L3044.41 155.659C3046.82 156.819 3049.23 158.009 3051.63 159.23L3051.85 158.785C3054.24 160.004 3056.63 161.254 3059 162.535L3058.77 162.975C3059.95 163.615 3061.14 164.262 3062.32 164.917C3063.5 165.573 3064.67 166.234 3065.85 166.901L3066.09 166.467C3068.44 167.803 3070.76 169.164 3073.06 170.548L3072.8 170.976C3075.11 172.363 3077.39 173.773 3079.65 175.207L3079.92 174.784C3082.2 176.23 3084.46 177.699 3086.69 179.191L3086.42 179.607C3088.65 181.099 3090.87 182.615 3093.06 184.153L3093.34 183.744C3095.55 185.296 3097.74 186.871 3099.9 188.468L3099.61 188.871C3101.77 190.467 3103.9 192.085 3106.02 193.725L3106.32 193.33C3108.46 194.986 3110.57 196.664 3112.65 198.363L3112.34 198.751C3114.42 200.448 3116.48 202.166 3118.51 203.906L3118.84 203.526C3120.89 205.281 3122.92 207.058 3124.92 208.856L3124.58 209.228C3126.58 211.023 3128.56 212.839 3130.51 214.676L3130.85 214.312C3132.81 216.162 3134.75 218.032 3136.67 219.923L3136.31 220.279C3138.23 222.168 3140.11 224.078 3141.97 226.007L3142.33 225.66C3144.2 227.601 3146.05 229.561 3147.87 231.541L3147.5 231.88C3149.32 233.859 3151.11 235.857 3152.88 237.874L3153.26 237.545C3155.03 239.572 3156.78 241.619 3158.5 243.683L3158.12 244.004C3159.84 246.068 3161.54 248.15 3163.2 250.251L3163.6 249.94C3165.27 252.049 3166.92 254.177 3168.54 256.321L3168.14 256.623C3169.77 258.767 3171.36 260.929 3172.93 263.107L3173.33 262.815C3174.9 265.002 3176.45 267.205 3177.97 269.425L3177.55 269.707C3179.07 271.927 3180.56 274.162 3182.02 276.414L3182.44 276.141C3183.91 278.4 3185.34 280.675 3186.75 282.965L3186.33 283.227C3187.74 285.516 3189.12 287.82 3190.47 290.139L3190.9 289.887C3192.26 292.212 3193.59 294.553 3194.89 296.907L3194.45 297.149C3195.75 299.502 3197.02 301.869 3198.26 304.251L3198.7 304.019C3199.94 306.406 3201.16 308.807 3202.34 311.221L3201.9 311.441C3203.08 313.854 3204.24 316.279 3205.36 318.716L3205.82 318.507C3206.95 320.95 3208.05 323.405 3209.12 325.873L3208.66 326.072C3209.73 328.537 3210.77 331.014 3211.78 333.503L3212.24 333.315C3213.25 335.809 3214.23 338.313 3215.19 340.829L3214.72 341.006C3215.67 343.519 3216.59 346.043 3217.48 348.577L3217.95 348.411C3218.85 350.949 3219.71 353.498 3220.54 356.056L3220.07 356.211C3220.9 358.766 3221.7 361.33 3222.47 363.904L3222.95 363.76C3223.72 366.338 3224.46 368.924 3225.17 371.519L3224.69 371.651C3225.4 374.242 3226.07 376.842 3226.72 379.449L3227.21 379.329C3227.86 381.939 3228.47 384.558 3229.06 387.184L3228.57 387.293C3229.16 389.914 3229.71 392.543 3230.24 395.179L3230.73 395.081C3231.25 397.719 3231.75 400.364 3232.21 403.015L3231.71 403.101C3232.18 405.747 3232.61 408.399 3233 411.057L3233.5 410.983C3233.9 413.642 3234.26 416.308 3234.6 418.978L3234.1 419.04C3234.44 421.705 3234.74 424.374 3235.02 427.048L3235.51 426.997C3235.78 429.673 3236.03 432.353 3236.23 435.036L3235.74 435.075C3235.94 437.752 3236.12 440.433 3236.26 443.116L3236.76 443.09C3236.91 445.775 3237.02 448.463 3237.1 451.154L3236.6 451.169C3236.68 453.852 3236.73 456.538 3236.75 459.226L3237.25 459.223C3237.27 461.912 3237.25 464.603 3237.2 467.295L3236.7 467.286C3236.65 469.97 3236.58 472.655 3236.46 475.34L3236.96 475.361C3236.85 478.048 3236.71 480.735 3236.53 483.423L3236.03 483.39C3235.86 486.067 3235.65 488.745 3235.41 491.422L3235.91 491.467C3235.67 494.145 3235.4 496.823 3235.09 499.5L3234.59 499.443C3234.29 502.108 3233.96 504.773 3233.59 507.435L3234.08 507.504C3233.71 510.167 3233.31 512.83 3232.88 515.49L3232.39 515.41C3231.96 518.056 3231.49 520.701 3231 523.343L3231.49 523.435C3231 526.078 3230.47 528.719 3229.91 531.356L3229.42 531.252C3228.86 533.874 3228.27 536.492 3227.65 539.107L3228.14 539.223C3227.52 541.84 3226.86 544.453 3226.18 547.062L3225.69 546.935C3225.01 549.525 3224.3 552.111 3223.55 554.693L3224.03 554.832C3223.29 557.417 3222.51 559.997 3221.7 562.572L3221.22 562.422C3220.41 564.975 3219.58 567.523 3218.71 570.065L3219.18 570.226C3218.31 572.772 3217.41 575.312 3216.48 577.847L3216.01 577.674C3215.08 580.185 3214.13 582.689 3213.14 585.188L3213.6 585.372C3212.62 587.872 3211.59 590.366 3210.54 592.853L3210.08 592.658C3209.04 595.122 3207.96 597.58 3206.86 600.03L3207.31 600.235C3206.21 602.684 3205.07 605.126 3203.9 607.56L3203.45 607.343C3202.29 609.756 3201.1 612.162 3199.88 614.559L3200.32 614.786Z" fill="url(#paint4_radial_2755_179904)" stroke="#FBD161" stroke-dasharray="8 8"/>
<defs>
<radialGradient id="paint0_radial_2755_179904" cx="0" cy="0" r="1" gradientUnits="userSpaceOnUse" gradientTransform="translate(1218.36 1148.05) rotate(90) scale(88.0478 88.0572)">
<stop stop-color="#FBD161"/>
<stop offset="1" stop-color="#FBD161" stop-opacity="0"/>
</radialGradient>
<radialGradient id="paint1_radial_2755_179904" cx="0" cy="0" r="1" gradientUnits="userSpaceOnUse" gradientTransform="translate(1434.49 503.477) rotate(90) scale(128.477 128.491)">
<stop stop-color="#FBD161"/>
<stop offset="1" stop-color="#FBD161" stop-opacity="0"/>
</radialGradient>
<radialGradient id="paint2_radial_2755_179904" cx="0" cy="0" r="1" gradientUnits="userSpaceOnUse" gradientTransform="translate(3192.5 357.491) rotate(44.9969) scale(118.08)">
<stop stop-color="#FBD161"/>
<stop offset="0.453125" stop-color="#FFAD29"/>
<stop offset="1" stop-color="#F79A4A"/>
</radialGradient>
<radialGradient id="paint3_radial_2755_179904" cx="0" cy="0" r="1" gradientUnits="userSpaceOnUse" gradientTransform="translate(99.2654 99.2598) rotate(44.9984) scale(140.379)">
<stop stop-color="#FBD161"/>
<stop offset="0.453125" stop-color="white" stop-opacity="0.5"/>
<stop offset="1" stop-color="#F79A4A"/>
</radialGradient>
<radialGradient id="paint4_radial_2755_179904" cx="0" cy="0" r="1" gradientUnits="userSpaceOnUse" gradientTransform="translate(2898.06 461.013) rotate(119.019) scale(339.103 339.122)">
<stop stop-color="#FBD161"/>
<stop offset="1" stop-color="#FBD161" stop-opacity="0"/>
</radialGradient>
</defs>
</svg>
