<svg width="678" height="209" viewBox="0 0 678 209" fill="none" xmlns="http://www.w3.org/2000/svg">
<path d="M505.9 120.745C451.7 110.845 387.7 104.445 378.2 108.845C371.7 108.345 365.3 107.445 358.9 107.445C335.1 107.645 311.3 106.945 287.5 108.145C266.9 109.145 246.5 112.045 226 113.945C210.1 115.345 194.3 117.745 178.7 121.145C160.1 125.345 141.1 128.045 122.6 132.845C120.5 133.345 118.1 134.645 116 132.745L112.9 134.445L110.6 135.145C110.3 135.145 110.1 135.245 109.9 135.345C109.5 135.645 109 135.945 108.4 136.045C107.9 136.145 107.3 136.145 106.8 136.045C106.4 136.845 105.8 136.845 105.1 136.345L100.9 137.345L99.8 138.145C99.5 138.245 99.2 138.345 98.9 138.445L97.6 139.145C97.4 139.145 97.1 139.145 97 139.345C97.8 148.445 100.7 157.145 100 166.445C101.5 166.245 102.9 165.645 104.1 164.745C105.3 163.845 106.3 162.645 106.9 161.245C108.1 158.345 110.4 157.245 113.1 156.045C120.6 152.845 128.7 151.345 136.6 149.445C154.6 145.245 172.6 140.645 190.8 137.645C215.6 133.445 240.2 128.445 265.4 127.045C282.2 126.045 298.9 123.845 315.7 124.345C317.8 124.445 332 123.445 332 123.445C347.1 123.445 362.1 123.445 377.2 123.345C377.5 123.345 377.8 123.345 378.2 123.345C382.9 122.945 410.1 126.245 412.2 126.445C430.8 128.445 449.3 130.945 467.8 133.945C472.5 134.745 482.5 136.145 485.3 136.545C512.6 140.045 538.8 148.045 565 155.845C566.8 156.345 568.6 156.945 569.5 158.745C571.8 163.245 576 165.745 580 168.345C581.8 159.845 580.2 150.645 585.8 143.445C581 138.045 546.5 128.145 505.9 120.745Z" fill="#191A22"/>
<path d="M638.1 122.345C632.1 122.245 631.2 120.845 632.6 115.145C633.7 111.045 636.2 107.245 635.6 102.745C635.7 102.345 635.9 101.945 636 101.545C638.8 99.5453 638.7 96.6453 638.6 93.6453C638.9 92.1453 639.1 90.7453 639.5 89.2453C643.5 74.5453 638.9 62.4453 627.7 52.6453C620.3 46.1453 611.2 42.8453 602.2 39.5453C600.6 38.9453 598.6 38.6453 597.2 40.3453L595.8 39.9453C596.2 37.7453 595.1 36.5453 593.1 35.9453C589.5 34.7453 585.9 33.3453 582.3 32.1453C561.6 25.4453 540.3 21.8453 518.9 17.9453C504.6 15.3453 490.3 13.1453 476 11.2453C465.1 9.84527 454 9.04527 443 7.94527C431.5 6.74527 419.9 5.54527 408.3 5.04527C330 1.54527 251.8 1.94528 174.2 15.3453C145.9 20.2453 118.1 26.6453 91.1 36.3453C88.5 37.2453 86.5 38.6453 85.5 41.1453C80.1 37.5453 61.8 46.8453 53.1 57.2453L52 59.3453V59.2453L51 60.8453L50.9 61.1453L50 62.4453H50.1L46.8 63.2453C50.1 54.5453 56.5 48.5453 64.4 44.2453C80.6 35.5453 97.8 29.4453 115.6 24.8453C133.2 20.2453 150.8 15.3453 168.8 12.8453C194.5 9.34528 220.1 5.14527 245.9 2.94527C291.8 -1.05473 337.7 0.0452686 383.6 0.445269C406.1 0.645269 428.7 2.54528 451.2 4.84528C484.5 8.34528 517.6 12.8453 550.2 20.3453C575.6 26.1453 601.2 32.3453 623.8 46.2453C640 56.1453 646.8 69.1453 643.1 88.8453C641.2 99.0453 637 108.545 634 117.645C634.8 120.745 637.4 120.445 638.1 122.345Z" fill="#191A22"/>
<path d="M96.9001 139.445C97.7001 148.445 100.6 157.345 99.9001 166.545C99.1001 168.245 100.2 169.545 100.8 171.045C101.4 172.245 101.6 173.745 101.2 175.045C100.9 176.345 100.1 177.545 99.0001 178.445C86.6001 180.545 73.8001 181.245 61.8001 185.345C48.0001 190.045 34.2001 194.945 20.3001 199.645C17.6001 200.545 14.3001 202.045 13.3001 197.245C16.9001 198.245 20.2001 197.045 23.5001 195.945C37.4001 191.345 50.8001 185.545 65.1001 181.945C74.7001 179.545 84.4001 178.645 94.1001 177.345C96.4001 177.045 98.4001 176.345 98.6001 173.545C98.8001 171.045 96.8001 170.645 95.0001 170.145C88.8001 168.345 82.7001 166.145 76.3001 164.845C65.8001 162.745 60.0001 155.845 56.2001 146.645C54.0001 140.945 52.6001 134.845 52.0001 128.745C51.7001 125.845 50.4001 124.645 47.7001 124.245C45.1001 121.445 42.4001 124.045 39.9001 124.445C29.3001 126.045 18.7001 128.445 9.40011 134.045C6.70011 135.645 3.30012 137.245 4.10012 141.545C3.90012 145.545 6.20011 148.045 9.50011 149.545C13.8001 151.645 18.3001 153.345 22.7001 155.245L22.9001 156.345C19.3001 164.945 15.7001 173.445 12.1001 182.045C10.7001 185.345 10.0001 188.645 11.0001 192.245L12.0001 195.845C9.40011 195.845 9.40011 192.245 6.90011 192.145C8.10011 183.245 10.6001 174.545 14.5001 166.445C16.5001 162.045 15.4001 159.245 11.5001 156.945C5.90011 153.545 1.50011 149.345 0.500113 142.345C0.200113 141.045 0.300125 139.745 0.700125 138.445C1.10012 137.245 1.90011 136.145 2.90011 135.245C6.90011 131.445 11.7001 128.645 16.9001 126.945C24.3001 124.745 31.8001 122.345 39.6001 121.245C47.9001 120.045 48.2001 119.545 47.7001 111.345C47.8001 109.645 47.8001 107.945 45.8001 107.245C45.8001 106.545 45.8001 105.945 45.8001 105.245C45.9001 105.145 46.0001 105.045 46.0001 104.945C46.0001 104.745 45.9001 104.445 45.8001 104.245C45.8001 103.245 45.8001 102.345 45.8001 101.345C45.7001 97.4453 46.5001 93.2453 43.0001 90.2453L42.9001 80.4453C45.3001 79.2453 44.7001 76.9453 44.9001 74.8453C45.1001 72.8453 44.5001 70.5453 46.7001 69.1453L47.4001 69.6453L46.8001 75.3453C45.3001 79.3453 46.0001 83.5453 46.3001 87.6453C47.9001 107.745 55.5001 126.445 60.3001 145.745C61.4001 150.245 64.2001 154.245 68.1001 156.745C74.4001 145.345 85.3001 141.845 96.9001 139.445Z" fill="#3E1A14"/>
<path d="M7.1001 192.345C9.6001 192.445 9.6001 196.045 12.2001 196.045L12.1001 196.145L13.2001 197.245H13.3001C14.3001 202.045 17.6001 200.545 20.3001 199.645C34.2001 194.945 47.9001 190.045 61.8001 185.345C73.9001 181.245 86.6001 180.545 99.0001 178.445C92.8001 186.345 84.2001 190.745 74.7001 192.845C61.5001 195.745 49.0001 200.445 36.5001 205.545C34.0001 206.545 31.5001 207.345 28.9001 207.845C15.4001 210.845 8.8001 206.245 7.1001 192.345Z" fill="#191A22"/>
<path d="M578.9 178.445C589.7 180.345 600.5 182.445 611.3 184.145C618.6 185.245 625.6 187.245 632.3 190.345C634.1 191.245 636.1 191.545 638.1 191.245H638L640.4 192.245C640.5 192.245 640.6 192.245 640.7 192.245C640.8 192.245 640.9 192.345 640.9 192.445C645.1 197.645 651 198.345 657.1 198.345C653.5 205.445 649.7 207.445 642.3 205.445C627.8 201.345 613.3 197.145 598.8 192.745C590.8 190.145 583.8 185.145 578.9 178.445Z" fill="#191A22"/>
<path d="M657.9 168.545C656.2 165.545 657 162.045 656.2 158.845C655.7 156.945 657.4 155.945 659 155.245C664.3 152.945 669.6 150.645 674.9 148.345C672.7 154.545 668.5 159.145 663.3 162.845C661 164.245 659.2 166.145 657.9 168.545Z" fill="#191A22"/>
<path d="M46.7002 69.2452C44.5002 70.6452 45.1002 72.9452 44.9002 74.9452C44.8002 76.9452 45.4002 79.2452 42.9002 80.5452C42.9002 75.2452 42.4002 69.9452 45.9002 65.3452C46.3002 65.9452 46.6002 66.5452 46.7002 67.2452C46.9002 67.8452 46.9002 68.5452 46.7002 69.2452Z" fill="#191A22"/>
<path d="M43 90.3452C46.6 93.3452 45.8 97.5452 45.8 101.445C42.8 98.3452 44.1 94.0452 43 90.3452Z" fill="#191A22"/>
<path d="M674.9 147.545L675 138.345C678.2 141.445 677.6 144.545 674.9 147.545Z" fill="#191A22"/>
<path d="M46.7002 69.2453C46.9002 68.5453 46.9002 67.9453 46.7002 67.2453C46.6002 66.5453 46.3001 65.9453 45.9001 65.3453L46.8002 63.4453L50.1002 62.6453L47.3002 69.7453L46.7002 69.2453Z" fill="#3E1A14"/>
<path d="M46.0001 107.445C48.0001 108.145 48.0001 109.845 47.9001 111.545C47.3001 111.045 46.8001 110.445 46.4001 109.745C46.1001 109.045 45.9001 108.245 46.0001 107.445Z" fill="#191A22"/>
<path d="M45.9001 104.445C46.0001 104.645 46.1002 104.945 46.1002 105.145C46.1002 105.245 46.0001 105.345 45.9001 105.445C45.9001 105.145 45.9001 104.745 45.9001 104.445Z" fill="#191A22"/>
<path d="M595.9 40.1453L597.3 40.5453C600.5 47.0453 607.3 48.2453 612.8 51.3453C626.9 59.2453 638.9 74.2453 632.2 92.0453C630.7 96.1453 632.1 98.4453 636.7 98.5453C636.5 99.5453 636.3 100.645 636.1 101.645C636 102.045 635.8 102.445 635.7 102.845C633 103.845 634.7 108.345 631.1 108.645C630.6 106.845 631.7 104.645 629.5 102.945C620.1 108.645 611.2 115.645 599.5 116.845C609.3 120.945 616.4 114.145 624.6 111.045C621.8 117.945 618.6 124.345 615.4 130.645C612.2 136.945 612 136.945 605.4 134.245C585.4 126.345 565.4 118.845 544.2 114.745C510.9 108.245 477.5 102.245 443.7 99.1453C425.8 97.5453 377.7 95.6453 375.2 95.5453C346.6 94.2453 318 93.9453 289.4 95.2453C254.8 96.7453 220.4 100.145 186.3 105.645C150.4 111.445 114.2 116.645 80.8002 132.645C77.1002 134.445 74.1002 133.445 71.2002 130.945C64.3002 124.845 60.2001 116.845 56.5001 108.645C56.0001 107.645 55.7001 106.345 57.0001 105.545L57.3002 105.645L56.9001 105.545C57.1001 104.145 56.4002 103.045 55.8002 101.845C51.0002 93.0453 49.3001 83.4453 48.9001 73.5453C48.8001 71.2453 50.0002 69.4453 51.2002 67.6453C58.0002 57.4453 68.4002 51.6453 78.7002 45.8453C81.3002 44.3453 83.6001 42.9453 86.6001 44.8453C87.9001 43.4453 89.4001 42.3453 91.1001 41.5453C102.8 37.1453 114.7 33.4453 126.9 30.4453C162.7 21.5453 199.2 15.4453 235.9 12.0453C256.6 10.1453 277.4 9.04528 298.1 8.64528C335.7 7.84528 373.3 8.04528 410.9 10.1453C436.2 11.5453 461.3 13.9453 486.3 17.4453C522.1 22.4453 557.6 28.9453 591.6 41.7453C594 42.7453 595 41.9453 595.9 40.1453ZM80.4001 121.545C72.9001 119.645 67.3001 114.645 61.1001 110.545C66.7001 119.845 73.4001 123.745 80.4001 121.545Z" fill="#F0BB5F"/>
<path d="M631.1 108.645C630.6 106.845 631.7 104.645 629.5 102.945C620 108.645 611.1 115.645 599.5 116.845C609.3 120.945 616.4 114.045 624.6 111.045C621.8 117.945 618.6 124.445 615.4 130.645C612.2 136.845 612 136.945 605.4 134.245C585.4 126.345 565.4 118.845 544.2 114.745C510.9 108.245 477.5 102.245 443.7 99.1453C425.8 97.5453 382.2 95.4453 382.3 95.4453C379.9 95.5453 377.6 95.6453 375.2 95.4453C346.6 94.1453 318 93.8453 289.4 95.1453C254.8 96.6453 220.4 100.045 186.2 105.545C150.3 111.345 114.1 116.545 80.7 132.545C77 134.345 74 133.345 71.1 130.845C64.2 124.745 60.1 116.745 56.4 108.545C55.9 107.545 55.6 106.245 56.9 105.445C57.1 104.045 56.4 102.945 55.8 101.745C51 92.9453 49.3 83.3453 48.9 73.4453L46.7 75.4453C45.2 79.4453 45.9 83.6453 46.2 87.7453C47.7 107.845 55.4 126.545 60.2 145.845C61.3 150.345 64.1 154.345 68 156.845C74.3 145.345 85.3 141.845 96.8 139.445C97 139.345 97.2 139.245 97.4 139.245L98.7 138.545C99 138.445 99.3 138.345 99.6 138.245L100.7 137.445L104.9 136.445L106.6 136.145C107.4 135.045 108.6 135.345 109.7 135.345C109.9 135.245 110.2 135.145 110.4 135.145C110.9 134.245 111.8 134.345 112.7 134.445L115.7 132.745C117.3 132.145 118.8 131.545 120.4 131.145C195.2 113.045 271 103.345 348.1 105.245C359.2 105.545 370.4 105.845 381.6 106.845C381.6 106.845 381.6 106.845 381.6 106.945C391.1 108.645 414.2 107.745 422.9 108.645C439.8 110.345 456.7 112.145 473.5 114.345C512.2 119.345 550.4 126.645 587.2 140.245C596.1 143.545 605.4 146.845 609.7 156.945C613.5 154.945 615.6 152.045 617.8 149.045C625.8 138.145 626.7 124.545 631.5 112.345C632.1 111.445 631.4 109.945 631.1 108.645Z" fill="#C57034"/>
<path d="M633 124.645C645.9 124.145 657.2 129.045 668.4 134.645C671.4 136.145 674.1 138.345 673.6 142.245C673.1 146.445 670.1 148.145 666.5 148.645C661.8 149.245 657.3 149.845 654.1 153.945C650.2 152.445 651.1 155.645 651 157.345C650.8 165.245 652.4 173.045 653.6 180.845C654.1 183.845 652.9 187.345 656 189.545C655.8 191.245 655.4 192.845 653.4 193.845L624.4 178.345C629.7 166.645 634.6 155.345 637.9 143.445C639 139.545 641 137.845 645 138.245C651.9 139.045 658.9 139.645 665.8 140.345C662.5 138.545 659.8 135.645 655.8 135.345C655.6 135.045 655.3 134.745 654.9 134.545C654.5 134.345 654.2 134.245 653.8 134.345H653.9C653.5 133.445 652.7 133.345 651.8 133.345H651.9C651.5 132.345 650.7 132.345 649.8 132.345H649.9C649.5 131.445 648.7 131.345 647.8 131.345H647.9C645.7 129.445 642.8 129.145 640.1 128.245C637.6 127.445 634.5 127.645 633 124.645Z" fill="#F0BB5F"/>
<path d="M665.9 140.445C659 139.745 652 139.045 645.1 138.345C641.1 137.945 639.1 139.645 638 143.545C634.8 155.445 629.9 166.745 624.5 178.445L653.5 193.945C655.5 192.945 655.9 191.345 656.1 189.645L657.5 189.245C657.4 195.845 654.1 198.045 648.1 195.445C645.7 194.445 643.3 193.545 640.9 192.545C640.8 192.445 640.7 192.445 640.6 192.345C640.5 192.345 640.4 192.345 640.3 192.345L638 191.345H638.1C626.9 184.845 614.4 182.945 602 180.545C596.8 179.545 591.5 178.945 586.2 178.045C584.2 177.645 581.8 178.045 579.9 175.845C580.6 171.245 584.3 169.645 588.1 168.645C592 167.645 595.9 167.245 599.9 166.645C611.1 164.845 618.5 158.645 623.5 148.345C626 142.945 627.9 137.345 629.1 131.445C631.3 131.145 633.3 131.745 635.4 132.045C641.6 133.045 647.4 135.645 653.8 135.545C654.5 136.545 655.2 136.445 655.9 135.545C660 135.845 662.7 138.745 665.9 140.445Z" fill="#C57034"/>
<path d="M657.5 189.145L656.1 189.545C653 187.245 654.1 183.745 653.7 180.845C652.5 173.045 650.9 165.345 651.1 157.345C651.1 155.645 650.3 152.445 654.2 153.945C655.2 163.545 656.3 173.145 657.2 182.745C657.4 184.945 657.4 187.045 657.5 189.145Z" fill="#F0D590"/>
<path d="M654 135.445C647.6 135.645 641.8 132.945 635.6 131.945C633.5 131.645 631.4 131.045 629.3 131.345C629.2 131.045 629.2 130.745 629.2 130.445C629.2 130.145 629.3 129.845 629.5 129.545C629.6 129.245 629.8 129.045 630.1 128.845C630.4 128.645 630.6 128.445 630.9 128.345C636.9 128.045 642.3 130.945 648.1 131.445H648C648.2 131.745 648.5 132.045 648.9 132.245C649.3 132.445 649.7 132.445 650.1 132.445H650L652.1 133.445H652L654.1 134.445H654C653.9 134.745 653.9 135.145 654 135.445Z" fill="#F0BB5F"/>
<path d="M648 131.445C642.2 130.945 636.8 128.045 630.8 128.345C631.1 126.845 631.4 125.245 633.1 124.645C634.5 127.745 637.7 127.545 640.3 128.445C642.8 129.245 645.8 129.545 648 131.445Z" fill="#C57034"/>
<path d="M106.7 136.145C107.5 135.045 108.7 135.345 109.8 135.345C109.4 135.645 108.9 135.945 108.3 136.045C107.8 136.245 107.3 136.245 106.7 136.145Z" fill="#3E1A14"/>
<path d="M105 136.545L106.7 136.245C106.3 137.045 105.7 137.045 105 136.545Z" fill="#3E1A14"/>
<path d="M110.6 135.245C111.2 134.345 112 134.345 112.9 134.545L110.6 135.245Z" fill="#3E1A14"/>
<path d="M48.9002 73.5453L46.7002 75.5453L47.3002 69.8453L50.1002 62.7453L51.0002 61.4453L51.1002 61.1453L52.1002 59.5453V59.6453C52.5002 59.4453 52.8002 59.1453 53.0002 58.7453C53.2002 58.3453 53.3002 57.9453 53.2002 57.4453C61.9002 47.0453 80.2002 37.7453 85.6002 41.3453C86.6002 38.7453 88.6002 37.4453 91.2002 36.5453C118.2 26.9453 146.1 20.4453 174.3 15.5453C251.9 2.14529 330 1.74528 408.4 5.24528C420 5.74528 431.5 6.94528 443.1 8.14528C454.1 9.34528 465.2 10.0453 476.1 11.5453C490.4 13.4453 504.7 15.6453 519 18.2453C540.4 22.1453 561.7 25.8453 582.4 32.4453C586 33.6453 589.6 35.0453 593.2 36.2453C595.2 36.9453 596.3 38.0453 595.9 40.2453C595 42.0453 594 42.8453 591.6 41.9453C557.6 29.2453 522.1 22.6453 486.3 17.6453C461.3 14.1453 436.2 11.7453 410.9 10.3453C373.3 8.24529 335.7 8.04529 298.1 8.84529C277.4 9.24529 256.6 10.3453 235.9 12.2453C199.2 15.6453 162.7 21.7453 126.9 30.6453C114.8 33.5453 102.8 37.2453 91.1002 41.7453C89.4002 42.5453 87.8002 43.6453 86.6002 45.0453C83.6002 43.1453 81.3002 44.5453 78.7002 46.0453C68.4002 51.8453 58.1002 57.6453 51.2002 67.8453C50.0002 69.4453 48.8002 71.1453 48.9002 73.5453Z" fill="#F0D590"/>
<path d="M636.6 98.4452C632 98.4452 630.6 96.0452 632.1 91.9452C638.8 74.2452 626.8 59.1452 612.7 51.2452C607.2 48.1452 600.3 46.9452 597.2 40.4452C598.6 38.7452 600.6 39.0452 602.2 39.6452C611.2 42.9452 620.4 46.2452 627.7 52.7452C638.9 62.5452 643.4 74.6452 639.5 89.3452C639.1 90.7452 638.9 92.2452 638.6 93.7452C638 95.2452 637.3 96.8452 636.6 98.4452Z" fill="#F0D590"/>
<path d="M636.6 98.4453C637.3 96.8453 638 95.3452 638.7 93.7452C638.7 96.6452 638.9 99.6452 636.1 101.645C636.3 100.545 636.4 99.4453 636.6 98.4453Z" fill="#3E1A14"/>
<path d="M53.1 57.4453C53.2 57.8453 53.1 58.3453 52.9 58.7453C52.7 59.1453 52.4 59.4453 52 59.6453L53.1 57.4453Z" fill="#3E1A14"/>
<path d="M4.40015 141.645C3.50015 137.345 6.90017 135.845 9.70017 134.145C19.1002 128.545 29.6002 126.145 40.2002 124.545C42.6002 124.145 45.4002 121.545 48.0002 124.345C43.1002 128.645 36.6002 129.345 30.8002 131.645C27.1002 133.145 23.6002 134.545 22.0002 138.845C28.9002 140.345 35.0002 137.445 41.4002 137.045C45.0001 150.445 47.4002 163.945 54.2002 175.845C53.8002 176.745 53.3002 177.445 52.6002 178.145C51.9002 178.845 51.1002 179.245 50.2002 179.545C41.3002 182.645 32.6002 186.345 24.2002 190.645C19.9002 192.845 16.0002 193.145 12.1002 190.245C11.8002 187.645 14.6002 187.045 15.3002 184.945C18.0002 177.345 21.0002 169.845 23.6002 162.245C24.2002 160.545 25.7002 158.145 23.2002 156.445L23.0002 155.345C24.8002 152.945 22.6002 152.245 21.2002 151.345C18.2002 149.345 15.3002 147.345 12.2002 145.345C9.70017 143.845 7.70015 141.245 4.40015 141.645Z" fill="#F0BB5F"/>
<path d="M11.9002 190.245C15.8002 193.145 19.8002 192.845 24.0002 190.645C32.4002 186.345 41.1002 182.645 50.0002 179.545C50.9002 179.245 51.7002 178.745 52.4002 178.145C53.1002 177.545 53.7002 176.745 54.0002 175.845C47.1002 163.945 44.7002 150.445 41.2002 137.045C34.8002 137.445 28.7002 140.445 21.8002 138.845C23.4002 134.445 26.9002 133.045 30.6002 131.645C36.4002 129.345 42.9002 128.645 47.8002 124.345C50.5002 124.645 51.8002 125.845 52.1002 128.845C52.7002 134.945 54.1002 141.045 56.3002 146.745C60.1002 155.945 65.9002 162.845 76.4002 164.945C82.7002 166.245 88.8002 168.445 95.1002 170.245C96.8002 170.745 98.9002 171.045 98.7002 173.645C98.5002 176.345 96.4002 177.145 94.2002 177.445C84.5002 178.745 74.7002 179.545 65.2002 182.045C51.0002 185.645 37.5002 191.545 23.6002 196.045C20.3002 197.145 16.9002 198.245 13.4002 197.345H13.3002L12.1002 196.345L12.2002 196.245L11.2002 192.645C11.4002 191.645 11.7002 190.945 11.9002 190.245Z" fill="#C57034"/>
<path d="M11.9002 190.245C11.6002 190.945 11.4002 191.645 11.1002 192.345C10.1002 188.745 10.9002 185.445 12.2002 182.145C15.8002 173.545 19.4002 165.045 23.0002 156.445C25.5002 158.245 24.0002 160.545 23.4002 162.245C20.8002 169.845 17.7002 177.345 15.1002 184.945C14.4002 187.045 11.6002 187.745 11.9002 190.245Z" fill="#F0D590"/>
<path d="M4.40009 141.645C7.80009 141.245 9.7001 143.845 12.1001 145.345C15.1001 147.245 18.1001 149.245 21.1001 151.345C22.5001 152.245 24.7001 152.945 22.9001 155.345C18.5001 153.445 14.0001 151.745 9.70011 149.645C6.50011 148.145 4.10009 145.645 4.40009 141.645Z" fill="#C57034"/>
<path d="M394.9 182.245L393.8 183.345C393.8 183.245 393.8 183.045 393.9 182.945C394 182.845 394 182.645 394.2 182.545C394.3 182.445 394.4 182.345 394.6 182.345C394.6 182.345 394.8 182.245 394.9 182.245Z" fill="#3E1A14"/>
<path d="M80.4001 121.545C73.4001 123.645 66.8001 119.845 61.1001 110.545C67.2001 114.645 72.8001 119.645 80.4001 121.545Z" fill="#C57034"/>
<path d="M654 135.445C654 135.045 654 134.745 654 134.345C654.4 134.345 654.8 134.345 655.1 134.545C655.4 134.745 655.8 134.945 656 135.345L654 135.445Z" fill="#C57034"/>
<path d="M654 134.445L651.9 133.445C652.8 133.445 653.6 133.545 654 134.445Z" fill="#C57034"/>
<path d="M652 133.445L649.9 132.445C650.8 132.445 651.6 132.545 652 133.445Z" fill="#C57034"/>
<path d="M650 132.445C649.6 132.445 649.2 132.445 648.8 132.245C648.4 132.045 648.1 131.745 647.9 131.445C648.8 131.445 649.6 131.545 650 132.445Z" fill="#C57034"/>
<path d="M653.9 135.445H656C655.3 136.345 654.6 136.445 653.9 135.445Z" fill="#F0BB5F"/>
<path d="M668.7 131.545C659.2 125.945 648.8 123.545 638.1 122.245C632.1 122.045 631.2 120.745 632.6 115.045C633.6 110.945 636.1 107.145 635.6 102.645C632.9 103.645 634.5 108.145 631 108.445C631.2 109.745 632 111.245 631.6 112.345C626.8 124.545 626 138.045 618 149.045C615.9 151.945 613.7 154.945 609.9 156.945C605.6 146.845 596.3 143.545 587.4 140.245C550.7 126.645 512.4 119.345 473.7 114.345C456.9 112.145 440 110.345 423.1 108.645C414.4 107.745 396.1 106.545 396.1 106.545L384.2 107.145C384.2 107.145 360.2 105.645 348.3 105.345C271.2 103.445 195.4 113.145 120.6 131.245C119 131.645 117.5 132.245 115.9 132.845C118.1 134.745 120.4 133.445 122.5 132.945C141 128.145 160 125.445 178.6 121.245C194.2 117.745 210 115.345 225.9 114.045C246.4 112.145 266.8 109.245 287.4 108.245C311.2 107.145 335 107.845 358.8 107.545C364.3 107.545 369.7 108.145 375.2 108.645L388.2 109.945L406.5 109.745C444.2 108.645 575.4 131.845 585.7 143.545C580 150.745 581.7 159.945 579.9 168.445C579.7 171.745 575.2 174.645 578.8 178.345C589.6 180.245 600.4 182.345 611.2 184.045C618.5 185.145 625.5 187.145 632.2 190.245C634 191.145 636 191.445 638 191.245C626.9 184.745 614.3 182.845 601.9 180.445C596.7 179.445 591.4 178.845 586.1 177.945C584.1 177.545 581.7 177.945 579.8 175.745C580.5 171.145 584.2 169.545 588 168.545C591.8 167.545 595.8 167.145 599.8 166.545C611 164.745 618.4 158.545 623.4 148.245C625.9 142.845 627.8 137.245 629 131.345C628.9 131.045 628.9 130.745 628.9 130.445C628.9 130.145 629 129.845 629.2 129.545C629.3 129.245 629.5 129.045 629.8 128.845C630 128.645 630.3 128.445 630.6 128.345C630.9 126.845 631.2 125.245 632.9 124.645C645.8 124.145 657.1 129.045 668.3 134.645C671.3 136.145 674 138.245 673.5 142.245C673 146.445 670 148.145 666.4 148.645C661.7 149.245 657.2 149.845 654 153.945C655 163.545 656 173.145 657 182.745C657.2 184.845 657.2 187.045 657.2 189.145C657.1 195.745 653.8 197.945 647.8 195.345C645.4 194.345 643 193.445 640.6 192.445C644.8 197.645 650.7 198.345 656.8 198.345C660.9 193.945 661 188.545 660.2 183.045C659.5 178.145 658.5 173.345 657.6 168.445C655.9 165.445 656.7 161.945 655.9 158.745C655.5 156.845 657.1 155.845 658.7 155.145C664 152.845 669.3 150.545 674.6 148.245C674.6 147.945 674.6 147.745 674.6 147.445L674.7 138.245C673.7 135.445 671.5 133.045 668.7 131.545Z" fill="#3E1A14"/>
</svg>
