<svg width="39" height="39" viewBox="0 0 39 39" fill="none" xmlns="http://www.w3.org/2000/svg">
<path d="M34.4759 12.2849C34.4629 12.2199 34.4499 12.1809 34.4109 12.1419C34.4109 12.1289 34.3979 12.1289 34.3979 12.1159C34.3719 12.0769 34.3199 12.0249 34.2679 11.9859L24.9209 4.93994C24.8689 4.91394 24.8299 4.87494 24.7649 4.84894C24.7519 4.84894 24.7389 4.83594 24.7129 4.83594C24.6479 4.80994 24.5829 4.79694 24.5179 4.79694H24.5049C24.4529 4.79694 24.4139 4.78394 24.3619 4.78394H10.9199C9.6849 4.78394 8.6709 5.55094 8.6709 6.49994V29.5359C8.6709 30.4849 9.6849 31.2519 10.9199 31.2519H32.2399C33.4749 31.2519 34.4889 30.4849 34.4889 29.5359V12.4019C34.4889 12.3629 34.4889 12.3239 34.4759 12.2849ZM31.8109 11.8039H25.1549V6.77294L31.8109 11.8039ZM32.9289 29.5359C32.9289 29.8219 32.6299 30.0559 32.2399 30.0559H10.9199C10.5299 30.0559 10.2309 29.8219 10.2309 29.5359V6.46094C10.2309 6.16194 10.5299 5.94094 10.9199 5.94094H23.5689V12.4019C23.5689 12.7269 23.9199 12.9869 24.3619 12.9869H32.9289V29.5359Z" fill="#F2D861" stroke="#F2D861"/>
<path d="M28.7817 22.633H15.0277C14.6117 22.633 14.2607 22.958 14.2607 23.374C14.2607 23.79 14.5987 24.115 15.0277 24.115H28.7947C29.2107 24.115 29.5617 23.79 29.5617 23.374C29.5617 22.984 29.1977 22.633 28.7817 22.633ZM14.2737 18.824C14.2737 19.24 14.6117 19.565 15.0407 19.565H28.8077C29.2237 19.565 29.5747 19.24 29.5747 18.824C29.5747 18.408 29.2367 18.083 28.8077 18.083H15.0277C14.6117 18.083 14.2737 18.408 14.2737 18.824Z" fill="#F2D861" stroke="#F2D861"/>
<path d="M30.3942 30.069H10.8422C10.5042 30.069 10.2312 29.822 10.2312 29.51V8.30705C10.2312 7.99505 9.95817 7.74805 9.62017 7.74805H6.82517C5.59017 7.74805 4.57617 8.51505 4.57617 9.46405V32.5391C4.57617 33.4881 5.59017 34.255 6.82517 34.255H28.1452C29.3802 34.255 30.4332 33.2541 30.4332 32.3051M28.8342 31.252V32.5391C28.8342 32.8251 28.5352 33.0591 28.1452 33.0591H6.82517C6.43517 33.0591 6.13617 32.8251 6.13617 32.5391V9.46405C6.13617 9.16505 6.43517 8.94405 6.82517 8.94405H8.67117V29.38C8.67117 30.407 9.58117 31.252 10.7122 31.252H11.0112" fill="#F2D861"/>
<path d="M30.3942 30.069H10.8422C10.5042 30.069 10.2312 29.822 10.2312 29.51V8.30705C10.2312 7.99505 9.95817 7.74805 9.62017 7.74805H6.82517C5.59017 7.74805 4.57617 8.51505 4.57617 9.46405V32.5391C4.57617 33.4881 5.59017 34.255 6.82517 34.255H28.1452C29.3802 34.255 30.4332 33.2541 30.4332 32.3051M28.8342 31.252V32.5391C28.8342 32.8251 28.5352 33.0591 28.1452 33.0591H6.82517C6.43517 33.0591 6.13617 32.8251 6.13617 32.5391V9.46405C6.13617 9.16505 6.43517 8.94405 6.82517 8.94405H8.67117V29.38C8.67117 30.407 9.58117 31.252 10.7122 31.252H11.0112" stroke="#F2D861"/>
</svg>
