<svg width="45" height="46" viewBox="0 0 45 46" fill="none" xmlns="http://www.w3.org/2000/svg">
<rect x="1.5" y="1.5" width="42" height="42.1634" rx="13.5" fill="black" fill-opacity="0.2" stroke="#F2D861" stroke-width="3"/>
<path d="M22.1425 7.66919C16.2814 7.66919 11.1868 10.8952 8.59576 15.6393H14.3634V19.0572H7.24589C7.16504 19.3714 7.09457 19.6894 7.03394 20.0107H17.4182V23.4285H6.79248C6.80668 23.7493 6.83072 24.0673 6.86404 24.382H20.473V27.7999H7.65123C7.76705 28.1228 7.89433 28.4408 8.03145 28.7533H23.5284V32.1712H10.1177C10.3848 32.5007 10.6651 32.8187 10.9584 33.1246H26.5837V36.5425H15.8307C17.7564 37.3962 19.8929 37.8715 22.143 37.8715C30.6289 37.8715 37.5083 31.1108 37.5083 22.7712C37.5088 14.4315 30.6284 7.66919 22.1425 7.66919ZM20.13 20.1598C20.0447 20.1598 19.9759 20.0923 19.9759 20.0085C19.9759 19.9246 20.0447 19.8571 20.13 19.8571C20.2152 19.8571 20.284 19.9246 20.284 20.0085C20.284 20.0923 20.2152 20.1598 20.13 20.1598ZM21.146 15.2583C21.1941 15.2583 21.2427 15.2566 21.2897 15.2544C20.9171 15.4178 20.5042 15.5083 20.0693 15.5083C18.4113 15.5083 17.0686 14.187 17.0686 12.5581C17.0686 10.9292 18.4119 9.6095 20.0693 9.6095C20.5042 9.6095 20.9161 9.70052 21.2897 9.86335C21.2427 9.86116 21.1941 9.85952 21.146 9.85952C19.629 9.85952 18.3999 11.0679 18.3999 12.5581C18.3999 14.0499 19.6296 15.2583 21.146 15.2583ZM23.7174 12.3744H24.1102L24.2314 12.0076L24.3527 12.3744H24.7455L24.4281 12.6008L24.5494 12.9676L24.232 12.7412L23.9146 12.9676L24.0359 12.6008L23.7174 12.3744ZM25.3273 23.7465L24.9083 23.4472L24.4893 23.7465L24.6493 23.263L24.2303 22.9636H24.7482L24.9083 22.48L25.0683 22.9636H25.5862L25.1672 23.263L25.3273 23.7465ZM30.4372 12.5148C30.606 12.5148 30.7437 12.6502 30.7437 12.8163C30.7437 12.9824 30.606 13.1179 30.4372 13.1179C30.2684 13.1179 30.1307 12.9824 30.1307 12.8163C30.1302 12.6502 30.2679 12.5148 30.4372 12.5148ZM27.732 26.6924C27.6528 26.6924 27.5883 26.6293 27.5883 26.5515C27.5883 26.4736 27.6528 26.4106 27.732 26.4106C27.8112 26.4106 27.8757 26.4736 27.8757 26.5515C27.8757 26.6293 27.8112 26.6924 27.732 26.6924ZM29.3856 34.1104C29.1971 34.1104 29.0447 33.9602 29.0447 33.7754C29.0447 33.5907 29.1971 33.4404 29.3856 33.4404C29.5741 33.4404 29.7265 33.5907 29.7265 33.7754C29.7265 33.9602 29.5741 34.1104 29.3856 34.1104ZM31.7696 29.2062L31.4697 28.9923L31.1698 29.2062L31.2845 28.8597L30.9846 28.6458H31.3555L31.4702 28.2993L31.5849 28.6458H31.9559L31.656 28.8597L31.7696 29.2062ZM32.1105 18.7776C31.9946 18.7935 31.8701 18.8078 31.7395 18.8209C31.5248 19.5819 30.8158 20.14 29.9734 20.14C29.131 20.14 28.422 19.5814 28.2073 18.8209C28.0773 18.8078 27.9527 18.7935 27.8363 18.7776C26.9508 18.6564 26.8279 18.4947 26.8279 18.3384C26.8279 18.1827 26.9497 18.021 27.8363 17.8993C27.9522 17.8834 28.0767 17.8691 28.2073 17.856C28.422 17.095 29.131 16.5368 29.9734 16.5368C30.8158 16.5368 31.5248 17.0955 31.7395 17.856C31.8696 17.8691 31.9941 17.8834 32.1105 17.8993C32.996 18.0205 33.1184 18.1822 33.1184 18.3384C33.1184 18.4952 32.9965 18.6564 32.1105 18.7776ZM34.8124 23.9593C34.6933 23.9593 34.5971 23.8644 34.5971 23.7476C34.5971 23.6309 34.6938 23.536 34.8124 23.536C34.9315 23.536 35.0276 23.6309 35.0276 23.7476C35.0282 23.8644 34.9315 23.9593 34.8124 23.9593Z" fill="#F2D861"/>
</svg>
