<svg width="53" height="53" viewBox="0 0 53 53" fill="none" xmlns="http://www.w3.org/2000/svg">
<rect x="1.5" y="1.5" width="50" height="50" rx="13.5" fill="black" fill-opacity="0.2" stroke="#F2D861" stroke-width="3"/>
<path d="M26.0789 9C19.1758 9 13.1755 12.7858 10.1239 18.3531H16.9169V22.364H8.53402C8.4388 22.7327 8.3558 23.1059 8.28438 23.4829H20.5147V27.4939H8C8.01673 27.8702 8.04504 28.2434 8.08429 28.6127H24.1126V32.6237H9.01142C9.14782 33.0026 9.29773 33.3758 9.45923 33.7425H27.7112V37.7535H11.9164C12.231 38.1402 12.5611 38.5133 12.9066 38.8724H31.3097V42.8833H18.645C20.913 43.8851 23.4293 44.4429 26.0795 44.4429C36.0741 44.4429 44.1764 36.5092 44.1764 26.7224C44.177 16.9357 36.0734 9 26.0789 9ZM23.7086 23.6579C23.6082 23.6579 23.5271 23.5788 23.5271 23.4803C23.5271 23.3819 23.6082 23.3028 23.7086 23.3028C23.8089 23.3028 23.89 23.3819 23.89 23.4803C23.89 23.5788 23.8089 23.6579 23.7086 23.6579ZM24.9053 17.9059C24.9619 17.9059 25.0192 17.904 25.0745 17.9014C24.6357 18.0932 24.1493 18.1993 23.6372 18.1993C21.6844 18.1993 20.103 16.6487 20.103 14.7372C20.103 12.8257 21.6851 11.277 23.6372 11.277C24.1493 11.277 24.6344 11.3838 25.0745 11.5749C25.0192 11.5723 24.9619 11.5704 24.9053 11.5704C23.1186 11.5704 21.6709 12.9884 21.6709 14.7372C21.6709 16.4879 23.1192 17.9059 24.9053 17.9059ZM27.9338 14.5217H28.3964L28.5392 14.0912L28.682 14.5217H29.1447L28.7708 14.7874L28.9137 15.2178L28.5399 14.9521L28.166 15.2178L28.3089 14.7874L27.9338 14.5217ZM29.8299 27.867L29.3364 27.5157L28.8429 27.867L29.0314 27.2996L28.5379 26.9483H29.1479L29.3364 26.3808L29.5249 26.9483H30.1348L29.6414 27.2996L29.8299 27.867ZM35.8482 14.6864C36.047 14.6864 36.2092 14.8453 36.2092 15.0402C36.2092 15.2352 36.047 15.3941 35.8482 15.3941C35.6494 15.3941 35.4873 15.2352 35.4873 15.0402C35.4866 14.8453 35.6488 14.6864 35.8482 14.6864ZM32.6621 31.324C32.5688 31.324 32.4929 31.25 32.4929 31.1587C32.4929 31.0673 32.5688 30.9933 32.6621 30.9933C32.7554 30.9933 32.8313 31.0673 32.8313 31.1587C32.8313 31.25 32.7554 31.324 32.6621 31.324ZM34.6097 40.0292C34.3877 40.0292 34.2082 39.8529 34.2082 39.6361C34.2082 39.4193 34.3877 39.243 34.6097 39.243C34.8317 39.243 35.0112 39.4193 35.0112 39.6361C35.0112 39.8529 34.8317 40.0292 34.6097 40.0292ZM37.4175 34.274L37.0642 34.0231L36.711 34.274L36.8461 33.8674L36.4929 33.6164H36.9298L37.0649 33.2098L37.2 33.6164H37.6369L37.2836 33.8674L37.4175 34.274ZM37.819 22.0359C37.6826 22.0546 37.5359 22.0713 37.3821 22.0867C37.1292 22.9798 36.2941 23.6348 35.302 23.6348C34.3099 23.6348 33.4747 22.9791 33.2219 22.0867C33.0687 22.0713 32.922 22.0546 32.785 22.0359C31.7421 21.8937 31.5973 21.7039 31.5973 21.5205C31.5973 21.3378 31.7408 21.148 32.785 21.0052C32.9214 20.9865 33.0681 20.9698 33.2219 20.9544C33.4747 20.0613 34.3099 19.4063 35.302 19.4063C36.2941 19.4063 37.1292 20.062 37.3821 20.9544C37.5352 20.9698 37.6819 20.9865 37.819 21.0052C38.8619 21.1474 39.006 21.3372 39.006 21.5205C39.006 21.7046 38.8625 21.8937 37.819 22.0359ZM41.0012 28.1167C40.8609 28.1167 40.7477 28.0054 40.7477 27.8683C40.7477 27.7313 40.8616 27.62 41.0012 27.62C41.1415 27.62 41.2547 27.7313 41.2547 27.8683C41.2553 28.0054 41.1415 28.1167 41.0012 28.1167Z" fill="#F2D861"/>
</svg>
