<svg width="570" height="129" viewBox="0 0 570 129" fill="none" xmlns="http://www.w3.org/2000/svg">
<path d="M259.505 1.85428C321.563 1.85428 383.621 1.98698 445.679 1.85428C463.353 1.85428 481.048 0.849561 498.7 0.0723256C508.307 -0.261553 517.921 0.561712 527.258 2.51776C555.238 7.99632 567.324 22.3088 569.55 45.9671C570.797 59.237 569.172 72.5068 568.081 85.9094C566.322 107.217 541.214 128.449 513.636 127.084C471.967 125.056 430.276 129.283 388.585 128.506C361.362 127.994 334.095 130.401 306.828 127.141C291.513 125.378 275.954 127.634 260.484 128.6C239.472 129.927 218.504 127.255 197.492 126.97C155.801 126.383 114.176 130.022 72.4407 128.714C52.8974 128.089 34.3112 124.923 18.8857 113.814C13.3569 109.939 8.84406 105.119 5.63875 99.6659C2.43343 94.2128 0.606963 88.2477 0.277253 82.1559C-0.753795 66.9389 1.09509 51.6796 5.753 36.9625C8.57099 26.8361 15.3802 17.8385 25.045 11.4703C34.7097 5.10209 46.6459 1.74822 58.8628 1.96802C125.773 1.829 192.654 1.79109 259.505 1.85428ZM15.5469 40.4696C4.03898 54.9337 14.7901 76.4878 26.9657 86.535C40.8776 97.9092 58.1282 99.1034 76.3361 99.0845C219.194 98.9328 362.059 98.8633 504.932 98.8759C509.718 98.8759 514.548 98.8759 519.311 98.4778C544.887 96.3357 566.055 78.0233 564.564 59.2749C566.278 54.9148 562.561 51.0665 563.162 46.7064C565.388 29.6452 553.969 20.3373 537.742 12.5839C524.698 6.3281 511.031 6.68828 497.186 6.68828C357.326 6.68828 217.48 6.75779 77.6494 6.89681C69.5373 6.79814 61.4246 7.05125 53.3427 7.65511C32.3079 9.47497 13.7439 25.8159 15.5469 40.4696Z" fill="#171922"/>
<path d="M564.564 59.2749C565.966 78.0233 544.887 96.3357 519.312 98.4779C514.548 98.876 509.718 98.876 504.932 98.876C362.045 98.876 219.179 98.9455 76.3361 99.0845C58.2173 99.0845 40.8776 97.9471 26.9658 86.535C14.7901 76.5636 4.03906 54.9338 15.5469 40.4696L19.7316 43.2563C20.3771 45.6828 21.1341 48.0903 21.646 50.5168C25.6971 69.1136 35.4019 77.0565 57.6831 80.4688C67.162 81.7398 76.7652 82.2097 86.3527 81.8716C159.028 81.0185 231.726 82.4592 304.49 80.8289C350.611 79.8053 396.798 80.4308 442.941 80.6773C468.739 80.81 494.56 79.7674 520.38 81.8147C529.014 82.2529 537.592 80.3693 544.901 76.4303C552.211 72.4912 557.882 66.6957 561.114 59.8626L564.564 59.2749Z" fill="#C56B33"/>
<path d="M19.7318 43.2567L15.5471 40.47C13.7441 25.8163 32.3081 9.47539 53.3873 7.61761C61.4692 7.01375 69.5821 6.76067 77.6942 6.85934C217.54 6.7456 357.385 6.67609 497.231 6.65081C511.053 6.65081 524.743 6.29063 537.787 12.5464C554.013 20.3377 565.521 29.7214 563.206 46.6689C562.605 51.029 566.323 54.8773 564.609 59.2374L561.07 59.825C558.109 53.5124 555.683 46.9722 552.166 40.8681C541.793 23.2002 523.43 16.7928 501.282 16.7549C407.32 16.6159 313.357 16.5779 219.395 16.6411C170.425 16.6411 121.277 16.7738 72.2184 16.6411C48.8243 16.6411 29.0138 21.3804 20.5109 42.3657C20.3385 42.7114 20.0713 43.017 19.7318 43.2567Z" fill="#F8D788"/>
<path d="M19.731 43.2564C20.015 43.0578 20.2496 42.8129 20.421 42.5361C28.9239 21.5507 48.7345 16.7736 72.1286 16.8115C121.098 16.8115 170.246 16.8115 219.305 16.8115C313.282 16.8115 407.244 16.8494 501.192 16.9252C523.451 16.9252 541.703 23.3706 552.076 41.0385C555.637 47.1047 558.064 53.6449 560.98 59.9954C557.748 66.8285 552.077 72.624 544.767 76.5631C537.458 80.5022 528.88 82.3858 520.246 81.9476C494.425 79.9002 468.605 80.9429 442.807 80.8102C396.664 80.5637 350.477 79.9382 304.356 80.9618C231.681 82.5921 158.983 81.1514 86.2184 82.0045C76.631 82.3426 67.0278 81.8727 57.5489 80.6016C35.2899 77.1325 25.5628 69.2275 21.5116 50.6497C21.1332 48.0905 20.3765 45.6829 19.731 43.2564Z" fill="#F1BE62"/>
</svg>
