<svg width="111" height="36" viewBox="0 0 111 36" fill="none" xmlns="http://www.w3.org/2000/svg">
<rect x="10.8711" y="9.94727" width="99.6471" height="17" rx="8.5" fill="#49B643"/>
<path d="M47.6392 17.8349V13.5469L49.4952 12.4749H53.2232L55.0792 13.5469V15.1949H53.4792V13.9149H49.2392V17.3069H53.2232L55.0792 18.3789V22.7629L53.2232 23.8349H49.3352L47.4792 22.7629V21.1149H49.0792V22.3949H53.4792V18.9069H49.4952L47.6392 17.8349ZM57.7917 22.7629V15.7549H59.3437V22.4429H63.0397V15.7549H64.5917V23.8349H63.4237L63.0397 23.1789L61.9037 23.8349H59.6477L57.7917 22.7629ZM72.2551 23.8349H69.8391L68.7031 23.1789V26.9549H67.1511V15.6749H68.3191L68.7031 16.3309L69.8391 15.6749H72.2551L74.1111 16.7469V22.7629L72.2551 23.8349ZM68.7031 17.0669V22.4429H72.5591V17.0669H68.7031ZM81.7707 23.8349H79.3547L78.2187 23.1789V26.9549H76.6667V15.6749H77.8347L78.2187 16.3309L79.3547 15.6749H81.7707L83.6267 16.7469V22.7629L81.7707 23.8349ZM78.2187 17.0669V22.4429H82.0747V17.0669H78.2187ZM92.9823 22.7629L91.1263 23.8349H88.0383L86.1823 22.7629V16.7469L88.0383 15.6749H91.1263L92.9823 16.7469V22.7629ZM87.7343 17.0669V22.4429H91.4303V17.0669H87.7343ZM100.006 17.1469H97.0937V23.7549H95.5417V15.7549H96.7097L97.0937 16.4109L98.2297 15.7549H100.006V17.1469ZM101.12 17.1469V15.7549H102.592V14.4109L104.144 13.5149V15.7549H106.064V17.1469H104.144V22.3629H106.064V23.7549H104.448L102.592 22.6829V17.1469H101.12Z" fill="white"/>
<ellipse cx="20.5326" cy="18" rx="12.8333" ry="12.75" fill="white"/>
<ellipse cx="20.533" cy="18" rx="17.1111" ry="17" stroke="white" stroke-linecap="round" stroke-dasharray="1 2"/>
<g clip-path="url(#clip0_2425_14947)">
<path d="M29.7309 16.1929C29.4037 15.5394 28.6759 14.8063 27.9719 14.0971C27.5638 13.6867 27.1796 13.3002 26.9499 13.0014C26.5712 12.5113 26.0345 12.2304 25.4757 12.2304C25.1485 12.2304 24.8269 12.33 24.5456 12.5173L24.5291 12.5292L24.064 12.8898C23.8618 12.7663 23.6064 12.5611 23.3748 12.3719C22.7792 11.8897 22.1616 11.3897 21.5164 11.3897H21.2076C20.2242 11.3897 19.6967 11.7025 19.2739 11.9535C18.9909 12.1208 18.8034 12.2324 18.5019 12.2324C18.2814 12.2324 18.0093 12.1746 17.6766 12.0571C17.1895 11.8838 17.0241 11.8021 16.6951 11.6407C16.5756 11.581 16.4377 11.5132 16.2594 11.4296C16.0278 11.32 15.7815 11.2622 15.5279 11.2622C14.9948 11.2622 14.4912 11.5132 14.1438 11.9535L14.1364 11.9635L11.5484 15.5135C10.9675 16.2606 10.9804 17.3663 11.5778 18.0974L12.2064 18.9222C12.2965 19.0397 12.313 19.2031 12.2487 19.3385C12.1053 19.6493 11.9803 20.0079 11.9803 20.3805V20.5677C11.9803 21.0538 12.1421 21.4682 12.4601 21.8029C12.6972 22.0539 12.9766 22.2053 13.1824 22.3169C13.2376 22.3467 13.3093 22.3866 13.346 22.4105C13.4214 22.5161 13.4802 22.6177 13.5372 22.7153C13.8221 23.2054 14.096 23.562 14.982 23.6297C15.1143 23.8728 15.2852 24.1337 15.5334 24.3409C15.8091 24.57 16.1418 24.7035 16.5517 24.7493C16.923 25.3211 17.4432 25.6099 18.1031 25.6099C18.3769 25.6099 18.6527 25.4805 18.921 25.3091C18.989 25.2653 19.057 25.2195 19.125 25.1737C19.1269 25.1717 19.1287 25.1717 19.1306 25.1697C19.3622 25.2613 19.7114 25.4008 20.1599 25.4008H20.3327C21.5458 25.4008 24.1118 23.8668 24.5658 23.564C24.7441 23.4464 24.9721 23.3169 25.2129 23.1815C25.7312 22.8886 26.3194 22.5579 26.801 22.1196C27.4351 21.5459 27.755 20.8905 27.755 20.1713C27.755 20.0557 27.8064 19.9481 27.8928 19.8804C28.3928 19.4919 29.0324 18.8624 29.4074 18.468C29.9717 17.8763 30.1041 16.9399 29.7309 16.1929ZM18.4008 23.7871C18.3567 23.9664 18.3034 24.1317 18.2611 24.2513C18.1839 24.2971 18.127 24.325 18.0884 24.3349C17.7704 24.331 17.6252 24.1955 17.4965 23.9823C17.3237 23.6955 17.0351 23.5102 16.7245 23.4863C16.3017 23.4524 16.1749 23.3229 15.9543 22.8966C15.7889 22.5778 15.4911 22.3786 15.1529 22.3647C14.8367 22.3507 14.732 22.2989 14.7007 22.279C14.6621 22.2511 14.6143 22.1734 14.5371 22.0399C14.4636 21.9124 14.3717 21.7551 14.2394 21.5758C14.1015 21.3905 13.9122 21.2869 13.7137 21.1793C13.2982 20.9522 13.1604 20.8327 13.1604 20.5697V20.3824C13.1604 20.1693 13.3626 19.7888 13.4821 19.5597C13.5096 19.5059 13.5372 19.4541 13.5629 19.4043C13.5887 19.3545 13.607 19.3027 13.6199 19.2509C13.7835 19.0596 14.0886 18.7747 14.3846 18.7747H14.3956C14.4673 18.8345 14.5592 19.1612 14.5629 19.4521C14.561 19.7171 14.7099 19.9521 14.9378 20.0478C15.1658 20.1434 15.4249 20.0737 15.5885 19.8784C15.7245 19.7151 15.9966 19.5298 16.0756 19.5676C16.1014 19.6035 16.1602 19.7609 16.1565 20.0976C16.1528 20.3864 16.1069 20.6374 16.1069 20.6374C16.0609 20.8805 16.1473 21.1295 16.3311 21.2769C16.5076 21.4204 16.7447 21.4443 16.9414 21.3387C16.9671 21.3287 17.0719 21.2949 17.2134 21.3825C17.2539 21.4064 17.3219 21.4483 17.3145 21.6714C17.3072 21.8686 17.2428 22.0519 17.2355 22.0738C17.1417 22.3069 17.1858 22.5719 17.3439 22.7591C17.5038 22.9464 17.752 23.0081 17.9726 22.9225C17.9726 22.9225 18.0387 22.9085 18.1141 22.9105C18.2464 22.9165 18.3604 22.9683 18.4652 23.0719C18.4725 23.1058 18.5221 23.295 18.4008 23.7871ZM26.5786 20.1713C26.5786 20.4741 26.4278 20.749 26.1944 20.998L23.3343 18.5755C23.2332 18.4899 23.1137 18.448 22.9943 18.448C22.8307 18.448 22.6689 18.5277 22.5586 18.6771C22.3711 18.9381 22.4134 19.3126 22.6542 19.5158L25.2496 21.7132C25.0548 21.8308 24.8581 21.9423 24.6706 22.0479C24.5732 22.1017 24.4776 22.1555 24.3857 22.2093L21.9043 20.1075C21.8032 20.0219 21.6837 19.98 21.5642 19.98C21.4006 19.98 21.2389 20.0597 21.1286 20.2091C20.9411 20.4701 20.9834 20.8446 21.2242 21.0478L23.3453 22.8428C23.1027 22.9822 22.8325 23.1297 22.5531 23.2751L20.8988 21.8766C20.7977 21.7909 20.6782 21.7491 20.5606 21.7491C20.397 21.7491 20.2334 21.8288 20.125 21.9782C19.9375 22.2392 19.9798 22.6137 20.2206 22.8169L21.4025 23.819C20.9558 24.0022 20.5661 24.1258 20.3327 24.1258H20.1599C19.9338 24.1258 19.739 24.054 19.5662 23.9843C19.7482 23.1536 19.6507 22.54 19.2794 22.1555C19.0258 21.8945 18.7482 21.7511 18.4854 21.6833C18.4983 21.0518 18.2501 20.5518 17.7832 20.2689C17.6252 20.1733 17.4707 20.1135 17.3274 20.0816V20.0358C17.3219 19.2947 17.1142 18.7767 16.7098 18.4958C16.3624 18.2548 15.9561 18.2209 15.5407 18.3942C15.3128 17.8225 14.8992 17.4978 14.3809 17.4978C14.028 17.4978 13.7118 17.6173 13.4453 17.7787C13.2155 17.9181 12.9251 17.8623 12.756 17.6412L12.4748 17.2726L12.4582 17.2527C12.2413 16.9937 12.2377 16.5973 12.4472 16.3303L12.4546 16.3204L15.0371 12.7703C15.1602 12.6189 15.3349 12.5332 15.5205 12.5332C15.6087 12.5332 15.697 12.5531 15.7779 12.593C15.9488 12.6747 16.0811 12.7404 16.1988 12.7982C16.4359 12.9157 16.6087 12.9994 16.8697 13.105C16.9928 13.1548 17.0075 13.3341 16.8954 13.4078C16.7226 13.5213 16.5701 13.6708 16.4708 13.8879C16.2888 14.2824 16.2999 14.9537 16.6748 15.4737C16.8476 15.7128 17.1767 16.0275 17.763 16.157C18.2483 16.2666 18.8512 16.2347 19.5515 16.0674C21.4153 15.6191 22.0182 15.904 22.0881 15.9419C22.0918 15.9438 22.0936 15.9458 22.0954 15.9498L26.5786 19.725V20.1713ZM28.5895 17.5515C28.1079 18.0576 27.6447 18.4839 27.3304 18.7449L22.838 14.9577C22.7149 14.8442 22.4594 14.6768 21.9649 14.5931C21.2977 14.4816 20.4025 14.5593 19.3015 14.8242C18.0975 15.1131 17.7207 14.8183 17.6325 14.7226C17.5553 14.637 17.5388 14.5413 17.5369 14.4836C17.6196 14.4378 17.7814 14.378 17.8935 14.3381C18.0553 14.2784 18.2372 14.2126 18.4229 14.121C18.9541 13.858 19.4063 13.4237 19.4559 13.3739C19.5 13.3301 19.5368 13.2803 19.5662 13.2285C19.6618 13.1787 19.75 13.1249 19.8364 13.0751C20.1893 12.8659 20.522 12.6687 21.2058 12.6687H21.5146C21.5569 12.6687 21.6837 12.6866 21.9465 12.852C22.1726 12.9954 22.4244 13.1986 22.6689 13.3958C23.1137 13.7564 23.5328 14.0951 23.9574 14.2206C24.0126 14.2365 24.0714 14.2445 24.1284 14.2445C24.2515 14.2445 24.371 14.2087 24.4758 14.1369L24.4923 14.125L25.1779 13.5931C25.2698 13.5353 25.3709 13.5054 25.4757 13.5054C25.6834 13.5054 25.8966 13.6229 26.0492 13.8202C26.3268 14.1788 26.7385 14.5931 27.1723 15.0314C27.777 15.641 28.4645 16.3323 28.6979 16.8005C28.8192 17.0475 28.7751 17.3563 28.5895 17.5515Z" fill="#49B643"/>
</g>
<ellipse cx="2.99444" cy="18.4252" rx="2.99444" ry="2.975" fill="white"/>
<ellipse cx="38.0726" cy="18.4252" rx="2.99444" ry="2.975" fill="white"/>
<defs>
<clipPath id="clip0_2425_14947">
<rect width="18.8222" height="20.4" fill="white" transform="translate(11.1211 7.7998)"/>
</clipPath>
</defs>
</svg>
