<svg width="54" height="54" viewBox="0 0 54 54" fill="none" xmlns="http://www.w3.org/2000/svg">
<rect x="1.96875" y="2.2168" width="50.0636" height="50.0636" rx="13.5" fill="black" fill-opacity="0.2" stroke="#FDDC2D" stroke-width="3"/>
<g clip-path="url(#clip0_3031_27940)">
<path d="M23.8283 41.5212H13.7576C12.3746 41.5212 11.2536 40.3999 11.2536 39.0173V13.9788C11.2536 12.5958 12.3746 11.4748 13.7576 11.4748H36.2921C37.6751 11.4748 38.7961 12.5957 38.7961 13.9788V22.5471C39.6975 22.9426 40.5214 23.4636 41.3 24.0522V13.9788C41.3 11.2134 39.0578 8.97119 36.2921 8.97119H13.7579C10.9922 8.97119 8.75 11.2131 8.75 13.9788V39.0173C8.75 41.7829 10.9922 44.0252 13.7576 44.0252H26.3446C25.392 43.3132 24.5449 42.4702 23.8283 41.5212Z" fill="#FDDC2D"/>
<path d="M34.3673 25.4424C29.1467 25.4424 24.915 29.6744 24.915 34.8946C24.915 40.1149 29.1471 44.3469 34.3673 44.3469C39.5875 44.3469 43.8195 40.1149 43.8195 34.8946C43.8195 29.6744 39.5875 25.4424 34.3673 25.4424ZM34.3673 41.9791C30.4539 41.9791 27.2818 38.8066 27.2818 34.8936C27.2818 30.9806 30.4543 27.8081 34.3673 27.8081C38.2803 27.8081 41.4531 30.9806 41.4531 34.8936C41.4528 38.8066 38.2807 41.9791 34.3673 41.9791Z" fill="#FDDC2D"/>
<path d="M38.3426 34.0345H35.6572V32.6919C35.6572 31.9504 35.0559 31.3491 34.3143 31.3491C33.5727 31.3491 32.9715 31.95 32.9715 32.6919V35.3773C32.9715 36.1189 33.5727 36.7202 34.3143 36.7202H38.3426C39.0842 36.7202 39.6851 36.1189 39.6851 35.3773C39.6851 34.6358 39.0838 34.0345 38.3426 34.0345ZM24.5314 15.1945C24.2811 14.9441 23.9415 14.8035 23.5875 14.8035C23.2334 14.8035 22.8939 14.9441 22.6435 15.1945L18.1697 19.6683L16.3785 17.8771C15.8749 17.3736 15.0586 17.3736 14.5554 17.8771C14.0519 18.3806 14.0519 19.197 14.5554 19.7005L17.0552 22.2007C17.1118 22.2975 17.1571 22.3969 17.2408 22.4799C17.52 22.7564 17.8853 22.8747 18.2451 22.861C18.4151 22.8612 18.5835 22.8279 18.7406 22.7629C18.8977 22.6979 19.0404 22.6026 19.1606 22.4823C19.1904 22.4528 19.2035 22.4151 19.2278 22.3801L24.5314 17.0796C24.6553 16.9559 24.7536 16.809 24.8207 16.6472C24.8878 16.4855 24.9224 16.3121 24.9224 16.137C24.9224 15.7834 24.7818 15.4445 24.5314 15.1945ZM28.9435 17.4933C28.2019 17.4933 27.6006 18.0942 27.6006 18.8358C27.6006 19.5774 28.2019 20.1787 28.9435 20.1787H36.9997C37.7413 20.1787 38.3423 19.5777 38.3423 18.8358C38.3423 18.0942 37.7413 17.4933 36.9997 17.4933H28.9435ZM22.6438 24.5932L18.1697 29.0674L16.3785 27.2762C15.8749 26.773 15.0586 26.773 14.5554 27.2762C14.0519 27.7797 14.0519 28.5961 14.5554 29.0996L17.0552 31.5998C17.1118 31.6965 17.1571 31.796 17.2408 31.879C17.52 32.1555 17.8853 32.2738 18.2451 32.2604C18.4151 32.2607 18.5835 32.2273 18.7406 32.1623C18.8977 32.0973 19.0404 32.002 19.1606 31.8818C19.1904 31.8523 19.2035 31.8145 19.2278 31.7799L24.5314 26.4787C24.9907 25.9484 24.9619 25.153 24.4652 24.657C23.9689 24.161 23.1734 24.1332 22.6438 24.5932Z" fill="#FDDC2D"/>
</g>
<defs>
<clipPath id="clip0_3031_27940">
<rect width="35.3757" height="35.3757" fill="white" transform="translate(8.72266 8.97119)"/>
</clipPath>
</defs>
</svg>
