<svg width="34" height="34" viewBox="0 0 34 34" fill="none" xmlns="http://www.w3.org/2000/svg">
<circle cx="17" cy="17" r="16" fill="white" fill-opacity="0.5" stroke="#8DF6F5" stroke-width="2"/>
<path d="M13.0225 20.8517V19.6317C13.0225 19.1251 13.1425 18.6717 13.3825 18.2717C13.6225 17.8717 13.9425 17.5517 14.3425 17.3117C14.7558 17.0717 15.2025 16.9517 15.6825 16.9517H20.6825C20.7758 16.9517 20.8558 16.9184 20.9225 16.8517C21.0025 16.7717 21.0425 16.6851 21.0425 16.5917V13.1717C21.0425 13.0651 21.0025 12.9784 20.9225 12.9117C20.8558 12.8317 20.7758 12.7917 20.6825 12.7917H10.8425V10.3917H20.7425C21.2358 10.3917 21.6825 10.5184 22.0825 10.7717C22.4958 11.0117 22.8225 11.3317 23.0625 11.7317C23.3158 12.1317 23.4425 12.5851 23.4425 13.0917V16.6717C23.4425 17.1517 23.3158 17.5984 23.0625 18.0117C22.8225 18.4117 22.4958 18.7384 22.0825 18.9917C21.6825 19.2317 21.2358 19.3517 20.7425 19.3517H15.7825C15.6892 19.3517 15.6025 19.3917 15.5225 19.4717C15.4558 19.5384 15.4225 19.6184 15.4225 19.7117V20.8517H13.0225ZM13.0225 24.7917V22.4117H15.4225V24.7917H13.0225Z" fill="#8DF6F5"/>
</svg>
