<svg width="485" height="129" viewBox="0 0 485 129" fill="none" xmlns="http://www.w3.org/2000/svg">
<path d="M220.807 1.85428C273.611 1.85428 326.414 1.98698 379.218 1.85428C394.256 1.85428 409.313 0.849561 424.332 0.0723256C432.507 -0.261553 440.687 0.561712 448.632 2.51776C472.439 7.99632 482.723 22.3088 484.617 45.9671C485.678 59.237 484.295 72.5068 483.367 85.9094C481.871 107.217 460.507 128.449 437.041 127.084C401.586 125.056 366.112 129.283 330.638 128.506C307.475 127.994 284.274 130.401 261.073 127.141C248.042 125.378 234.803 127.634 221.64 128.6C203.761 129.927 185.92 127.255 168.041 126.97C132.567 126.383 97.15 130.022 61.6382 128.714C45.0092 128.089 29.1946 124.923 16.0694 113.814C11.3651 109.939 7.52521 105.119 4.79788 99.6659C2.07055 94.2128 0.516451 88.2477 0.235909 82.1559C-0.641387 66.9389 0.931786 51.6796 4.8951 36.9625C7.29286 26.8361 13.0866 17.8385 21.3102 11.4703C29.5337 5.10209 39.6899 1.74822 50.085 1.96802C107.018 1.829 163.925 1.79109 220.807 1.85428ZM13.2285 40.4696C3.43668 54.9337 12.5845 76.4878 22.9445 86.535C34.7818 97.9092 49.46 99.1034 64.9526 99.0845C186.507 98.9328 308.068 98.8633 429.635 98.8759C433.707 98.8759 437.817 98.8759 441.87 98.4778C463.632 96.3357 481.643 78.0233 480.374 59.2749C481.833 54.9148 478.67 51.0665 479.182 46.7064C481.075 29.6452 471.359 20.3373 457.552 12.5839C446.454 6.3281 434.825 6.68828 423.044 6.68828C304.04 6.68828 185.049 6.75779 66.0701 6.89681C59.1677 6.79814 52.2648 7.05125 45.388 7.65511C27.4901 9.47497 11.6944 25.8159 13.2285 40.4696Z" fill="#171922"/>
<path d="M480.375 59.2749C481.568 78.0233 463.632 96.3357 441.87 98.4779C437.817 98.876 433.707 98.876 429.635 98.876C308.056 98.876 186.495 98.9455 64.9526 99.0845C49.5358 99.0845 34.7818 97.9471 22.9445 86.535C12.5845 76.5636 3.43669 54.9338 13.2285 40.4696L16.7891 43.2563C17.3384 45.6828 17.9824 48.0903 18.418 50.5168C21.8651 69.1136 30.1226 77.0565 49.0812 80.4688C57.1466 81.7398 65.3177 82.2097 73.4755 81.8716C135.313 81.0185 197.17 82.4592 259.084 80.8289C298.327 79.8053 337.627 80.4308 376.889 80.6773C398.84 80.81 420.809 79.7674 442.779 81.8147C450.126 82.2529 457.425 80.3693 463.644 76.4303C469.863 72.4912 474.689 66.6957 477.439 59.8626L480.375 59.2749Z" fill="#C56B33"/>
<path d="M16.7894 43.2567L13.2287 40.47C11.6946 25.8163 27.4902 9.47539 45.4261 7.61761C52.3028 7.01375 59.2058 6.76067 66.1082 6.85934C185.1 6.7456 304.091 6.67609 423.082 6.65081C434.844 6.65081 446.492 6.29063 457.591 12.5464C471.397 20.3377 481.189 29.7214 479.219 46.6689C478.708 51.029 481.871 54.8773 480.413 59.2374L477.401 59.825C474.882 53.5124 472.818 46.9722 469.825 40.8681C461 23.2002 445.374 16.7928 426.529 16.7549C346.579 16.6159 266.628 16.5779 186.678 16.6411C145.011 16.6411 103.192 16.7738 61.4491 16.6411C41.5435 16.6411 24.6873 21.3804 17.4523 42.3657C17.3056 42.7114 17.0783 43.017 16.7894 43.2567Z" fill="#F8D788"/>
<path d="M16.7886 43.2564C17.0302 43.0578 17.2299 42.8129 17.3757 42.5361C24.6106 21.5507 41.467 16.7736 61.3725 16.8115C103.04 16.8115 144.858 16.8115 186.601 16.8115C266.565 16.8115 346.515 16.8494 426.453 16.9252C445.392 16.9252 460.923 23.3706 469.749 41.0385C472.779 47.1047 474.844 53.6449 477.325 59.9954C474.575 66.8285 469.749 72.624 463.53 76.5631C457.311 80.5022 450.012 82.3858 442.665 81.9476C420.695 79.9002 398.725 80.9429 376.774 80.8102C337.512 80.5637 298.213 79.9382 258.97 80.9618C197.132 82.5921 135.275 81.1514 73.3613 82.0045C65.2035 82.3426 57.0324 81.8727 48.967 80.6016C30.0274 77.1325 21.7507 69.2275 18.3037 50.6497C17.9817 48.0905 17.3378 45.6829 16.7886 43.2564Z" fill="#F1BE62"/>
</svg>
