<svg width="45" height="45" viewBox="0 0 45 45" fill="none" xmlns="http://www.w3.org/2000/svg">
<rect width="45" height="45" rx="15" fill="black" fill-opacity="0.2"/>
<rect x="1.5" y="1.5" width="42" height="42" rx="13.5" stroke="#FDDC2D" stroke-opacity="0.5" stroke-width="3"/>
<path d="M20.6384 17.2075L25.9637 14L35.3613 31L9.36133 23.9434L17.5059 18.8113L27.2167 26.1887" stroke="#FDDC2D" stroke-opacity="0.5" stroke-width="2" stroke-linecap="round" stroke-linejoin="round"/>
<circle cx="22.3613" cy="23" r="15" stroke="#FDDC2D" stroke-opacity="0.5" stroke-width="2" stroke-linecap="round" stroke-dasharray="1 4"/>
<path d="M31.6449 18.0825H29.3199V15.7575C29.3199 11.991 26.2665 8.9375 22.4999 8.9375C18.7332 8.9375 15.6799 11.9908 15.6799 15.7575V18.0825H13.3549C11.6428 18.0825 10.2549 19.4704 10.2549 21.1825V32.9625C10.2549 34.6746 11.6428 36.0625 13.3549 36.0625H31.6449C33.357 36.0625 34.7449 34.6746 34.7449 32.9625V21.1825C34.7449 19.4704 33.357 18.0825 31.6449 18.0825ZM17.8499 15.7575C17.8499 13.1935 19.9359 11.1075 22.4999 11.1075C25.0639 11.1075 27.1499 13.1935 27.1499 15.7575V18.0825H17.8499V15.7575ZM32.5749 32.9625C32.5749 33.4752 32.1578 33.8925 31.6449 33.8925H13.3549C12.842 33.8925 12.4249 33.4752 12.4249 32.9625V21.1825C12.4249 20.6698 12.842 20.2525 13.3549 20.2525H31.6449C32.1578 20.2525 32.5749 20.6698 32.5749 21.1825V32.9625Z" fill="black"/>
<path d="M22.5 23.6624C22.2123 23.6624 21.9363 23.7767 21.7328 23.9801C21.5294 24.1836 21.415 24.4596 21.415 24.7474V30.0174C21.415 30.1598 21.4431 30.3009 21.4976 30.4326C21.5522 30.5642 21.6321 30.6838 21.7328 30.7846C21.8336 30.8853 21.9532 30.9652 22.0848 31.0198C22.2165 31.0743 22.3576 31.1024 22.5 31.1024C22.6425 31.1024 22.7836 31.0743 22.9153 31.0198C23.0469 30.9652 23.1665 30.8853 23.2673 30.7846C23.368 30.6838 23.4479 30.5642 23.5024 30.4326C23.557 30.3009 23.585 30.1598 23.585 30.0174V24.7474C23.585 24.4596 23.4707 24.1836 23.2673 23.9801C23.0638 23.7767 22.7878 23.6624 22.5 23.6624Z" fill="black"/>
</svg>
