<svg width="94" height="97" viewBox="0 0 94 97" fill="none" xmlns="http://www.w3.org/2000/svg">
<g filter="url(#filter0_d_2144_18881)">
<rect x="8.83398" y="12.4998" width="75.6667" height="75.6667" rx="18.5" stroke="white" stroke-width="3" shape-rendering="crispEdges"/>
</g>
<path d="M40.3606 58.1548V55.2268C40.3606 54.0108 40.6486 52.9228 41.2246 51.9628C41.8006 51.0028 42.5686 50.2348 43.5286 49.6588C44.5206 49.0828 45.5926 48.7948 46.7446 48.7948H58.7446C58.9686 48.7948 59.1606 48.7148 59.3206 48.5548C59.5126 48.3628 59.6086 48.1548 59.6086 47.9308V39.7228C59.6086 39.4668 59.5126 39.2588 59.3206 39.0988C59.1606 38.9068 58.9686 38.8108 58.7446 38.8108H35.1286V33.0508H58.8886C60.0726 33.0508 61.1446 33.3548 62.1046 33.9628C63.0966 34.5388 63.8806 35.3068 64.4566 36.2668C65.0646 37.2268 65.3686 38.3148 65.3686 39.5308V48.1228C65.3686 49.2748 65.0646 50.3468 64.4566 51.3388C63.8806 52.2988 63.0966 53.0828 62.1046 53.6908C61.1446 54.2668 60.0726 54.5548 58.8886 54.5548H46.9846C46.7606 54.5548 46.5526 54.6508 46.3606 54.8428C46.2006 55.0028 46.1206 55.1948 46.1206 55.4188V58.1548H40.3606ZM40.3606 67.6108V61.8988H46.1206V67.6108H40.3606Z" fill="white"/>
<rect x="3.00098" y="6.66675" width="87.3333" height="87.3333" rx="24" stroke="#F2D861" stroke-width="2"/>
<rect x="0.5" y="3.5" width="93" height="93" rx="25.5" stroke="#F2D861" stroke-dasharray="1 1"/>
<ellipse cx="82.6663" cy="8.33333" rx="3.33334" ry="3.33333" fill="#F2D861"/>
<ellipse cx="8.66732" cy="89.6666" rx="3.33333" ry="3.33333" fill="#F2D861"/>
<defs>
<filter id="filter0_d_2144_18881" x="2.33398" y="-0.000244141" width="88.667" height="89.6667" filterUnits="userSpaceOnUse" color-interpolation-filters="sRGB">
<feFlood flood-opacity="0" result="BackgroundImageFix"/>
<feColorMatrix in="SourceAlpha" type="matrix" values="0 0 0 0 0 0 0 0 0 0 0 0 0 0 0 0 0 0 127 0" result="hardAlpha"/>
<feOffset dy="-6"/>
<feGaussianBlur stdDeviation="2.5"/>
<feComposite in2="hardAlpha" operator="out"/>
<feColorMatrix type="matrix" values="0 0 0 0 0.94902 0 0 0 0 0.847059 0 0 0 0 0.380392 0 0 0 1 0"/>
<feBlend mode="normal" in2="BackgroundImageFix" result="effect1_dropShadow_2144_18881"/>
<feBlend mode="normal" in="SourceGraphic" in2="effect1_dropShadow_2144_18881" result="shape"/>
</filter>
</defs>
</svg>
