<svg width="68" height="68" viewBox="0 0 68 68" fill="none" xmlns="http://www.w3.org/2000/svg">
<path d="M48.2036 34.353C48.2036 42.0975 41.9478 48.3671 34.2415 48.3671C26.5351 48.3671 20.2793 42.0975 20.2793 34.353C20.2793 26.6085 26.5351 20.3389 34.2415 20.3389C41.9478 20.3389 48.2036 26.6085 48.2036 34.353Z" stroke="#4A4A4A" stroke-width="3"/>
<ellipse cx="34.2412" cy="34.3533" rx="32.7588" ry="32.8689" stroke="#4A4A4A" stroke-linecap="round" stroke-dasharray="2 2"/>
<path d="M44.4859 34.3533C44.4859 40.0329 39.8975 44.6343 34.241 44.6343C28.5845 44.6343 23.9961 40.0329 23.9961 34.3533C23.9961 28.6736 28.5845 24.0723 34.241 24.0723C39.8975 24.0723 44.4859 28.6736 44.4859 34.3533Z" stroke="black" stroke-opacity="0.5"/>
<path d="M42.9126 34.6161C42.9126 39.2792 39.1455 43.0565 34.5022 43.0565C29.8588 43.0565 26.0918 39.2792 26.0918 34.6161C26.0918 29.9531 29.8588 26.1758 34.5022 26.1758C39.1455 26.1758 42.9126 29.9531 42.9126 34.6161Z" stroke="black" stroke-opacity="0.5"/>
<path fill-rule="evenodd" clip-rule="evenodd" d="M26.1319 9.13527C19.4941 11.3294 14.0057 16.0619 10.8078 22.1878C11.3425 25.2488 12.9614 28.584 16.0244 31.5128C16.9148 26.1127 20.0909 21.4988 24.5114 18.693C24.0817 15.1805 24.8127 11.8249 26.1319 9.13527ZM25.4564 18.1314C28.1405 16.6412 31.2254 15.7939 34.5027 15.7939C42.1835 15.7939 48.8073 20.448 51.6926 27.1244C52.4082 25.8669 53.0844 24.65 53.6778 23.4766C54.6476 21.5587 55.3703 19.8041 55.6729 18.2369C50.7845 11.885 43.1197 7.79395 34.5027 7.79395C32.0718 7.79395 29.7167 8.11952 27.4783 8.72958C26.0324 11.2574 25.1247 14.5902 25.4564 18.1314ZM56.4514 19.3014C56.0575 20.7645 55.3841 22.3182 54.5702 23.9279C53.8593 25.3337 53.0279 26.8068 52.1614 28.3203C52.8557 30.2872 53.2338 32.4057 53.2338 34.615C53.2338 40.1888 50.827 45.1849 47.0087 48.6265C47.1885 48.8798 47.3837 49.1301 47.5939 49.379C48.7356 50.7314 50.302 52.0258 52.204 53.5105C52.4356 53.6913 52.6719 53.8747 52.9127 54.0613C58.0383 49.1746 61.2338 42.2692 61.2338 34.615C61.2338 28.922 59.4661 23.6434 56.4514 19.3014ZM52.1654 54.7473C47.4555 58.9106 41.273 61.436 34.5027 61.436C34.5018 61.436 34.501 61.436 34.5001 61.436C34.6271 58.5459 34.2805 55.8746 33.6008 53.4145C33.8997 53.4288 34.2004 53.436 34.5027 53.436C38.9429 53.436 43.0299 51.8807 46.2456 49.2784C46.4278 49.5308 46.6228 49.779 46.8298 50.0241C48.0467 51.4656 49.6907 52.8172 51.5887 54.2988C51.7783 54.4468 51.9706 54.5963 52.1654 54.7473ZM32.5395 53.3337C33.2595 55.8031 33.631 58.4944 33.4999 61.4175C19.2013 60.8884 7.77148 49.091 7.77148 34.615C7.77148 30.7059 8.60497 26.9921 10.1034 23.6428C10.9138 26.7217 12.7471 29.9353 15.8644 32.7269C15.803 33.3478 15.7715 33.9776 15.7715 34.615C15.7715 44.3656 23.1371 52.3484 32.5395 53.3337Z" fill="#4A4A4A"/>
</svg>
