<svg width="47" height="45" viewBox="0 0 47 45" fill="none" xmlns="http://www.w3.org/2000/svg">
<rect x="3.5" y="1.5" width="42" height="42" rx="13.5" fill="black" fill-opacity="0.2" stroke="#FDDC2D" stroke-width="3"/>
<path d="M39.1714 23.633H36.2995C36.6681 23.1635 36.8881 22.5715 36.8881 21.9288C36.8881 20.4075 35.6547 19.1699 34.1385 19.1699C33.2284 19.1699 32.4205 19.6158 31.9197 20.3012C31.4189 19.6158 30.6109 19.1699 29.7009 19.1699C28.1847 19.1699 26.9512 20.4075 26.9512 21.9288C26.9512 22.5715 27.1713 23.1635 27.5399 23.633H24.6679C23.6874 23.633 22.8896 24.4334 22.8896 25.4172V27.6364C22.8896 28.4446 23.4282 29.1286 24.164 29.3472V35.447C24.164 36.4069 24.9423 37.1878 25.899 37.1878H31.7124C31.7762 37.2149 31.8461 37.2299 31.9196 37.2299C31.9932 37.2299 32.0631 37.2149 32.1268 37.1878H37.9403C38.897 37.1878 39.6752 36.407 39.6752 35.447V29.3472C40.4111 29.1286 40.9496 28.4446 40.9496 27.6364V25.4173C40.9496 24.4334 40.1519 23.633 39.1713 23.633H39.1714ZM34.1384 20.2353C35.0692 20.2353 35.8263 20.995 35.8263 21.9288C35.8263 22.8621 35.07 23.6215 34.1402 23.6223H32.4505L32.4506 21.9308C32.4506 21.9294 32.4506 21.9279 32.4505 21.9264C32.4519 20.9937 33.2085 20.2353 34.1384 20.2353ZM29.7009 20.2353C30.6311 20.2353 31.388 20.9943 31.3887 21.9275V23.6223H29.6976C28.7684 23.6206 28.013 22.8615 28.013 21.9288C28.0131 20.995 28.7702 20.2353 29.7009 20.2353H29.7009ZM23.9515 27.6364V25.4173C23.9515 25.0219 24.274 24.6984 24.668 24.6984H31.3887V28.3552H24.668C24.274 28.3552 23.9515 28.0318 23.9515 27.6364ZM25.2259 35.447V29.4207H31.3887V36.1223H25.899C25.5279 36.1223 25.2259 35.8195 25.2259 35.447ZM37.9403 36.1223H32.4506V29.4207H38.6134V35.447C38.6134 35.8195 38.3116 36.1223 37.9404 36.1223H37.9403ZM39.8878 27.6364C39.8878 28.0318 39.5654 28.3552 39.1713 28.3552H32.4507V24.6984H39.1714C39.5654 24.6984 39.8879 25.0219 39.8879 25.4173V27.6364H39.8878Z" fill="#FDDC2D"/>
<path fill-rule="evenodd" clip-rule="evenodd" d="M17.8119 25.9624C14.8596 23.0101 14.8596 18.179 17.8119 15.2267C20.7642 12.2744 25.5953 12.2744 28.5476 15.2267C29.3791 16.0581 29.9872 17.0491 30.3522 18.1201H28.8659C28.5628 17.4118 28.1272 16.7582 27.5717 16.2027C25.1561 13.7871 21.2034 13.7871 18.7879 16.2027C16.3723 18.6182 16.3723 22.5709 18.7879 24.9865C19.5922 25.7907 20.5732 26.3446 21.6298 26.6117V28.03C20.2055 27.7312 18.8742 27.0247 17.8119 25.9624ZM21.6298 30.137C19.6504 29.8194 17.8025 28.881 16.3479 27.4264C12.5904 23.6689 12.5904 17.5202 16.3479 13.7627C20.1054 10.0052 26.2541 10.0052 30.0116 13.7627C31.2407 14.9918 32.0927 16.495 32.5169 18.1201H33.9529C33.4968 16.1302 32.4799 14.279 30.9876 12.7868C26.6933 8.49246 19.6663 8.49246 15.372 12.7868C11.0777 17.0811 11.0777 24.1081 15.372 28.4024C17.086 30.1164 19.2835 31.1903 21.6298 31.5187V30.137ZM21.6298 33.6181C18.7266 33.293 16.0302 31.9886 13.908 29.8663C8.78412 24.7425 8.78412 16.4467 13.908 11.3228C19.0319 6.19892 27.3277 6.19892 32.4515 11.3228C34.339 13.2102 35.5796 15.5518 36.07 18.1201H37.4575C36.9502 15.1852 35.5617 12.4809 33.4275 10.3468C27.7669 4.68615 18.5927 4.68615 12.932 10.3468C7.27136 16.0075 7.27136 25.1817 12.932 30.8423C15.3221 33.2324 18.3607 34.6857 21.6298 35.001V33.6181Z" fill="#FDDC2D"/>
</svg>
