<svg width="200" height="200" viewBox="0 0 200 200" fill="none" xmlns="http://www.w3.org/2000/svg">
<g filter="url(#filter0_d_1076_10006)">
<path d="M176.13 97.2626C176.098 97.2601 176.063 97.2601 176.03 97.2601C176.013 97.2476 175.985 97.2476 175.943 97.2576C175.895 97.2576 175.848 97.2526 175.8 97.2526C175.04 97.1976 174.28 97.2176 173.52 97.2676C173.518 97.2676 173.518 97.2676 173.515 97.2676C173.168 97.2351 172.823 97.2076 172.475 97.1876C172.468 97.1851 172.458 97.1826 172.45 97.1801C173.073 97.0526 173.698 96.9251 174.32 96.8001C174.013 96.7626 173.705 96.7301 173.395 96.7026C173.718 96.6126 174.04 96.5251 174.36 96.4326C174.36 96.4276 174.358 96.4251 174.358 96.4226C174.368 96.4201 174.378 96.4201 174.388 96.4176C174.425 96.3801 174.398 96.3076 174.343 96.3101C173.323 96.3301 172.298 96.3326 171.275 96.3551C169.053 95.8476 166.738 95.6826 164.523 96.1401C164.283 96.1551 164.073 96.1726 163.883 96.1926C163.785 96.1826 163.685 96.1776 163.575 96.1876C163.32 96.1801 163.033 96.1751 162.723 96.1701C160.955 95.8301 159.485 95.7651 157.315 95.7501C157.28 95.7501 157.245 95.7526 157.21 95.7526C156.575 95.7001 155.94 95.6701 155.303 95.7026C153.628 95.7776 151.353 96.0076 150.225 96.0651C149.518 95.9951 148.808 95.9326 148.103 95.8651C146.87 95.7551 145.633 95.7026 144.395 95.7076C142.983 95.6001 141.568 95.5476 140.15 95.6126C139.715 95.6151 139.28 95.6251 138.845 95.6376C135.893 95.5176 132.908 95.5426 129.96 95.8551C127.78 95.6726 125.595 95.5726 123.405 95.5951C122.18 95.6176 120.953 95.6126 119.728 95.6576C119.358 95.6026 118.983 95.6101 118.613 95.6501C118.093 95.5476 117.573 95.4526 117.048 95.3901C116.633 95.3576 116.218 95.3351 115.803 95.3201C114.123 95.0876 112.835 94.9551 110.543 94.8726C108.008 94.7826 105.478 94.8976 102.945 95.0401C101.945 95.0251 100.945 95.0426 99.95 95.1626C99.9125 95.1701 99.875 95.1826 99.84 95.1926C95.8225 94.4426 91.6575 94.3876 87.585 94.6751C84.4525 94.3376 81.3225 93.9601 78.1675 93.8926C74.6275 93.7151 69.805 93.6926 67.365 93.3301C67.1 93.3026 66.8375 93.3551 66.6025 93.4626C65.9825 93.3776 65.43 93.3151 65.0125 93.2626C63.02 93.0776 61.0225 93.0101 59.0225 92.9976C58.11 92.7926 57.1375 92.7601 56.225 92.6976C51.9075 92.4526 47.58 92.6501 43.2625 92.8026C42.1775 92.8501 41.0925 92.8926 40.01 92.9526C39.5025 93.0001 38.795 92.9901 38.1825 93.1301C37.0875 93.2026 36.1125 93.9051 35.3875 94.8351C35.045 94.9801 34.71 95.1451 34.39 95.3426C33.9475 95.5401 33.64 95.9776 33.61 96.4376C33.6025 96.4451 33.595 96.4501 33.59 96.4576C33.3425 96.7126 33.195 97.0826 33.175 97.4526C33.1175 97.7251 33.135 98.0026 33.22 98.2626C32.08 98.2301 31.4325 99.6701 32.3925 100.4C32.415 100.418 32.44 100.43 32.4625 100.445C32.89 100.965 33.65 100.985 34.2725 101.053C34.76 101.098 35.25 101.133 35.74 101.165C37.4825 101.66 39.605 102.39 41.2625 102.85C40.4225 103.01 39.585 103.203 38.7425 103.333C38.6675 103.345 38.595 103.358 38.52 103.37C37.9125 103.463 37.305 103.568 36.7025 103.688C36.3525 103.753 36.005 103.82 35.6575 103.898C34.4725 103.27 32.7875 103.77 32.0725 103.93C31.8425 104 31.5975 104.078 31.3475 104.163C31.28 104.18 31.2125 104.198 31.145 104.213C30.5775 103.575 28.8325 104.2 27.9075 104.6C27.6925 104.668 27.4925 104.758 27.3225 104.893C27.24 104.96 27.1775 105.045 27.13 105.138C27.0975 105.155 27.0625 105.17 27.03 105.19C27.005 105.205 26.9925 105.235 27 105.265C27.0175 105.288 27.04 105.308 27.06 105.328C26.995 105.59 27.05 105.883 27.2325 106.08C27.1975 106.18 27.1825 106.285 27.19 106.388C26.935 106.523 26.6775 106.653 26.4225 106.788C26.4225 106.79 26.425 106.79 26.425 106.793C26.3475 106.843 26.29 106.91 26.275 107.015C26.2525 107.125 26.3075 107.233 26.3925 107.298C26.095 107.635 25.8225 107.995 25.565 108.365C25.065 109.103 24.61 109.885 24.23 110.7C23.73 111.563 23.31 112.47 22.8475 113.35C22.7625 113.49 22.72 113.64 22.7075 113.785C21.84 114.908 20.9875 116.043 20.19 117.218C19.9225 117.605 19.6725 118.003 19.44 118.413C19.34 118.58 19.15 118.903 19.34 119.023C19.225 119.17 19.115 119.32 19.01 119.475C18.905 119.695 18.9075 119.915 18.98 120.113C18.9475 120.13 18.9175 120.148 18.885 120.165C18.7875 120.21 18.6875 120.258 18.59 120.313C18.3525 120.443 18.3075 120.763 18.44 120.973C18.28 121.063 18.12 121.153 17.9625 121.243C17.9025 121.278 17.9225 121.365 17.9775 121.385C17.9075 121.418 17.8375 121.45 17.77 121.483C17.9775 121.455 18.1825 121.423 18.3875 121.39C18.2475 121.55 18.11 121.715 17.975 121.885C17.9175 121.935 17.86 121.988 17.8025 122.038C17.8325 122.023 17.8625 122.01 17.89 121.995C17.7675 122.158 17.645 122.323 17.53 122.498C17.995 122.138 18.4775 121.803 18.9725 121.488C21.515 121.458 23.9725 120.765 26.3925 119.983C26.54 119.95 26.69 119.918 26.8375 119.888C26.8975 119.875 26.955 119.86 27.015 119.848C27.1575 120.015 27.315 120.17 27.4825 120.315C27.4525 120.503 27.4225 120.69 27.3975 120.878C27.2225 122.103 27.2675 123.373 27.5825 124.573C27.4225 125.065 27.3225 125.558 27.3 126.053C27.285 126.965 27.595 127.865 28.1375 128.593C28.0775 128.848 28.015 129.103 27.945 129.355C27.875 129.603 27.8025 129.853 27.7325 130.105C27.4875 130.655 27.2125 131.28 26.9025 132.088C26.625 132.7 26.5275 133.468 26.7325 134.115C26.6875 134.258 26.645 134.4 26.6125 134.545C26.4825 135 26.4725 135.433 26.56 135.81C26.4325 135.875 26.315 135.958 26.2125 136.063C25.6925 136.628 25.45 136.808 25.3925 136.845C25.3775 136.855 25.365 136.868 25.35 136.878C25.35 136.96 25.3475 137.045 25.335 137.135C25.265 137.665 25.2625 138.19 25.195 138.715C25.2 138.793 25.205 138.868 25.21 138.945C25.3775 138.925 25.5325 138.905 25.6525 138.898C26.735 138.835 27.7975 138.55 28.875 138.52C28.88 138.52 28.8825 138.52 28.8875 138.52C29.045 138.45 29.2025 138.38 29.36 138.308C29.4225 138.278 29.485 138.25 29.5475 138.22C29.7125 138.233 29.885 138.218 30.065 138.17C30.365 138.1 30.65 137.985 30.93 137.858C31.3625 137.808 31.7875 137.73 32.21 137.633C32.425 137.813 32.6925 137.945 32.995 138.018C34.3375 138.305 35.5675 137.465 36.8225 137.115C37.075 137.028 37.3275 136.945 37.58 136.86C38.59 136.838 39.78 136.463 40.6325 136.185C40.755 136.425 41.005 136.608 41.2875 136.608C41.5675 136.623 41.825 136.538 42.07 136.413C42.14 136.483 42.2175 136.548 42.3 136.603C42.3525 136.593 42.4025 136.58 42.4525 136.57C43.3275 136.298 44.2275 136.128 45.14 135.995C46.4925 135.675 47.8475 135.36 49.165 134.93C49.8 134.723 50.45 134.688 51.0725 134.443C51.5025 134.273 51.925 134.083 52.355 133.91C53.445 133.478 54.6175 133.2 55.735 132.845C56.5225 132.595 57.3475 132.31 58.16 132.155C59.11 131.973 60.0225 131.49 61.02 131.318C62.7725 131.015 63.6275 130.663 65.0075 130.175C65.525 129.668 66.37 129.558 67.075 129.828C68.3525 129.353 69.64 128.913 70.935 128.49C74.44 127.693 77.9275 126.818 81.3975 125.885C82.0675 125.9 82.7725 125.675 83.3675 125.415C83.655 125.31 83.945 125.21 84.2325 125.11C84.355 125.075 84.4775 125.043 84.6 125.008C84.6625 125.09 84.73 125.163 84.7975 125.223C85.835 124.803 86.91 124.485 88.0025 124.235C88.17 124.183 88.34 124.133 88.5075 124.083C89.2875 123.758 90.075 123.465 90.885 123.215C91.365 123.068 91.86 122.93 92.3625 122.81C94.78 121.945 97.5225 120.995 100.095 120.963C100.325 120.88 100.555 120.798 100.788 120.718C102.1 120.405 103.418 120.105 104.738 119.815C105.488 119.243 106.685 119.155 107.54 118.833C108.803 118.358 109.958 117.763 111.268 117.39C111.378 117.358 111.488 117.328 111.6 117.298C112.715 116.8 114.028 116.513 115.06 116.23C115.5 116.108 115.888 116.125 116.213 116.235C117.505 115.838 118.843 115.528 120.11 115.153C120.245 115.113 120.385 115.07 120.525 115.025C120.68 114.765 120.883 114.535 121.133 114.368C121.758 113.948 122.688 113.758 123.513 113.898C124.12 113.775 124.745 113.715 125.34 113.573C125.428 113.553 125.513 113.528 125.6 113.503C127.263 112.838 128.975 112.278 130.698 111.873C132.885 111.215 135.15 110.503 137.375 110.22C137.423 110.215 137.47 110.21 137.518 110.208C137.65 110.163 137.783 110.118 137.915 110.073C138.975 109.775 140.043 109.5 141.115 109.245C141.383 109.2 141.605 109.09 141.788 108.94C142.183 108.86 142.575 108.78 142.97 108.695C143.47 108.393 144.06 108.233 144.653 108.093C145.695 107.85 146.29 107.505 147.458 107.133C149.395 106.513 151.115 105.785 152.913 105.038C153.99 104.588 155.2 104.08 156.338 103.808C156.513 103.765 156.68 103.735 156.843 103.708C157.018 103.613 157.205 103.518 157.248 103.493C157.543 103.323 157.87 103.185 158.178 103.04C158.535 102.873 158.893 102.705 159.26 102.56C159.488 102.483 159.713 102.403 159.935 102.315C160.33 102.155 160.428 102.155 160.23 102.313C160.43 102.203 160.648 102.138 160.868 102.11C161.005 102.058 161.14 102.005 161.278 101.965C161.378 101.935 161.445 101.915 161.485 101.903C161.595 101.815 161.705 101.723 161.83 101.653C162.563 101.235 163.42 100.955 164.225 100.728C164.26 100.718 164.298 100.705 164.335 100.695C164.635 100.548 164.935 100.395 165.228 100.225C165.363 100.148 165.498 100.088 165.63 100.045C165.603 100.005 165.575 99.9676 165.54 99.9326C166.145 99.7901 166.75 99.6376 167.353 99.4901C168.058 99.3401 168.765 99.2026 169.463 99.0151C170.33 98.9601 171.195 98.8601 172.053 98.6776C173.445 98.4001 174.79 97.9101 176.165 97.5801C176.275 97.5151 176.265 97.3126 176.13 97.2626ZM19.34 121.315C19.4475 121.265 19.5575 121.218 19.665 121.168C19.8 121.143 19.9325 121.12 20.0675 121.093C19.825 121.173 19.5825 121.243 19.34 121.315ZM28.13 111.313C28.0925 111.34 28.0525 111.37 28.015 111.398C28.0725 111.305 28.1325 111.215 28.1925 111.125C28.2525 111.073 28.31 111.023 28.37 110.973C28.2875 111.085 28.21 111.2 28.13 111.313ZM46.1675 99.4501C46.305 99.4551 46.4425 99.4601 46.58 99.4651C46.59 99.5001 46.605 99.5351 46.6175 99.5701C46.4675 99.5301 46.3175 99.4901 46.1675 99.4501Z" fill="#EBD85B"/>
<path d="M176.428 98.0255C175.33 97.8905 174.228 97.8505 173.123 97.8605C173.093 97.838 173.063 97.818 173.028 97.798C172.723 97.6205 172.36 97.668 172.018 97.658C172.268 97.3055 172.168 96.7455 171.77 96.5255C171.643 96.463 171.508 96.4355 171.37 96.423V96.418C171.358 96.4205 171.345 96.4205 171.333 96.423C170.983 96.4055 170.61 96.5005 170.265 96.4955C168.783 96.633 167.308 96.828 165.84 97.0555C164.658 97.188 163.475 97.3205 162.295 97.463C161.725 97.528 161.155 97.6005 160.585 97.673C160.338 97.528 160.06 97.433 159.768 97.3855C157.798 97.1155 155.77 97.043 153.808 97.408C153.405 97.483 153.005 97.5755 152.608 97.6755C150.775 97.5455 148.933 97.5455 147.105 97.6855C145.93 97.783 144.763 97.9205 143.598 98.0905C140.888 97.968 138.168 97.953 135.468 98.2305C135.28 98.203 135.093 98.1805 134.913 98.153C132.758 97.913 130.583 98.0305 128.42 98.1105C126.683 98.153 124.955 98.278 123.23 98.4605C121.655 98.458 120.078 98.5155 118.508 98.633C118.285 98.623 118.065 98.618 117.848 98.6055C116.79 98.603 115.733 98.683 114.68 98.768C111.925 98.528 108.025 98.253 106.61 99.2505C106.568 99.2505 106.525 99.248 106.483 99.248C106.283 99.153 106.078 99.0655 105.883 98.983C104.203 98.3805 102.375 98.278 100.608 98.123C98.1075 98.123 95.615 98.5205 93.165 98.988C92.475 99.1555 91.7925 99.348 91.1125 99.5505C90.395 99.6405 89.695 99.733 88.8975 99.8155C87.85 99.9155 86.8 99.998 85.75 100.073C83.8725 100.048 81.995 100.105 80.1175 100.21C75.0825 100.498 70.0525 100.868 65.0225 101.215C60.6375 101.538 56.2425 101.755 51.8875 102.395C49.9225 102.703 47.9725 103.083 46.0125 103.415C45.84 103.445 45.67 103.475 45.4975 103.505C45.22 103.28 44.865 103.135 44.515 103.103C44.3525 103.085 44.1925 103.075 44.03 103.065C43.92 103.05 43.81 103.038 43.6975 103.028C42.005 102.465 40.1775 102.83 38.4325 102.89C37.22 103.005 36.02 103.235 34.85 103.575C34.5525 103.62 33.785 103.75 33.595 103.788C33.33 103.818 33.0675 103.868 32.835 104.01C32.835 104.01 32.835 104.01 32.8325 104.013C32.405 104.088 31.98 104.168 31.555 104.258C31.02 104.363 30.4775 104.438 29.975 104.66C29.9625 104.665 29.95 104.67 29.94 104.675C29.4175 104.68 28.89 104.625 28.37 104.678C28.0025 104.723 27.7825 104.963 27.6225 105.265C27.4125 105.313 27.2225 105.405 27.0975 105.593C27.0425 105.683 27.045 105.8 27.0975 105.89C27.0225 106.018 26.9725 106.155 26.945 106.298C26.8875 106.405 26.8525 106.515 26.84 106.63C26.4975 107.095 26.34 107.733 26.0875 108.235C25.9775 108.498 25.7475 108.98 25.39 109.633C24.4 110.833 23.49 112.093 22.73 113.455C22.48 113.913 22.2225 114.368 21.98 114.833C21.755 115.208 21.5575 115.578 21.4 115.928C20.805 116.518 20.21 117.108 19.615 117.695C19.18 118.123 18.745 118.553 18.33 118.998C18.145 119.18 18.025 119.413 17.97 119.663C17.2825 120.08 16.7275 120.563 16.675 121.13C16.57 121.66 16.87 122.188 17.315 122.468C17.7925 122.763 18.3575 122.645 18.85 122.45C19.3525 122.258 19.8525 122.06 20.345 121.845C21.4675 121.395 22.5 120.783 23.51 120.125C24.0275 120.015 24.545 119.905 25.0675 119.825C25.2725 119.785 25.7325 119.718 26.32 119.638C28.2625 119.935 30.2225 119.408 32.1275 119.01C32.84 118.965 33.5525 118.925 34.265 118.888C35.07 118.848 35.99 118.908 36.625 118.323C36.6725 118.278 36.7125 118.225 36.7525 118.175C37.7975 118.018 38.82 117.893 39.9725 117.785C40.3325 117.783 40.695 117.77 41.055 117.745C41.81 117.66 42.7325 117.833 43.3225 117.26C43.48 117.11 43.5875 116.93 43.65 116.735C43.8775 116.75 44.1075 116.765 44.335 116.78C44.925 116.815 45.5925 116.875 46.1 116.515C46.225 116.438 46.3325 116.35 46.42 116.255C46.5975 116.245 46.775 116.233 46.9475 116.228C49.4925 116.03 52.0175 115.655 54.5375 115.245C54.8425 115.22 55.1475 115.193 55.45 115.165C55.565 115.335 55.725 115.47 55.925 115.543C56.2 115.7 56.52 115.613 56.8175 115.588C57.5025 115.52 58.1725 115.375 58.8475 115.24C59.9975 115.005 61.1475 114.758 62.295 114.518C62.9375 114.368 63.5825 114.233 64.2275 114.105C67.255 113.72 70.1275 113.355 73.2175 112.933C74.9575 112.703 76.69 112.435 78.4275 112.185C79.3075 112.008 80.3 111.99 81.1375 111.635C81.2725 111.62 81.41 111.603 81.5525 111.588C81.9575 111.705 82.405 111.623 82.825 111.618C83.62 111.558 84.4075 111.44 85.195 111.328C85.72 111.315 86.245 111.308 86.77 111.3C86.97 111.3 87.155 111.25 87.3275 111.15C87.33 111.148 87.3325 111.145 87.3375 111.143C88.2475 111.085 89.155 111.028 90.065 110.96C90.815 110.903 91.7125 110.743 92.0475 110.705C92.8525 110.628 93.7025 110.655 94.4325 110.26C94.575 110.195 94.7025 110.098 94.8125 109.983C95.3 109.94 95.85 109.905 96.5625 109.885C97.505 109.86 98.4525 109.85 99.3925 109.953C99.905 110.058 100.42 110.208 100.943 110.088C101.528 109.973 101.99 109.458 102.035 108.865C102.165 108.838 102.298 108.813 102.428 108.78C103.178 108.62 104.05 108.468 104.998 108.328C106.738 108.218 108.475 108.118 110.218 108.03C110.523 108.008 110.828 107.993 111.133 107.963C111.215 107.958 111.38 107.938 111.503 107.92C111.788 107.9 112.078 107.85 112.283 107.63C112.305 107.608 112.323 107.58 112.343 107.555C113.508 107.5 114.675 107.495 115.838 107.433C116.488 107.373 117.318 107.548 117.738 106.918C117.853 106.788 117.925 106.635 117.965 106.475C119.12 106.465 120.275 106.448 121.418 106.29C121.725 106.258 121.988 106.105 122.185 105.888C123.693 105.803 125.198 105.703 126.703 105.598C126.755 105.625 126.82 105.628 126.89 105.613C126.988 105.658 127.173 105.585 127.46 105.588C127.905 105.558 128.35 105.523 128.798 105.49C130.465 105.363 132.133 105.205 133.795 105.023C137.365 104.615 140.408 104.155 143.813 103.545C144.738 103.438 145.66 103.318 146.58 103.18C148.49 102.888 148.993 102.88 151.145 102.533C151.91 102.393 152.675 102.205 153.358 101.825C153.403 101.81 153.448 101.795 153.49 101.773C153.548 101.753 153.6 101.725 153.653 101.695C154.385 101.55 155.118 101.405 155.85 101.258C155.933 101.238 155.99 101.178 156.018 101.105C156.49 101.143 156.963 101.19 157.435 101.238C157.918 101.26 158.443 101.435 158.895 101.203C159.053 101.148 159.188 101.058 159.303 100.948C160.89 100.85 162.47 100.69 164.038 100.38C164.05 100.378 164.063 100.375 164.073 100.373C164.56 100.293 165.045 100.2 165.528 100.095C165.698 100.03 165.863 99.993 166.023 99.9805C166.41 99.888 166.795 99.7905 167.178 99.678C167.408 99.668 167.635 99.6605 167.865 99.648C168.288 99.6355 168.713 99.6205 169.135 99.608C169.798 99.368 170.51 99.2055 171.24 99.0905C171.595 99.0005 171.95 98.9155 172.288 98.828C172.68 98.7255 173.08 98.648 173.483 98.598C173.483 98.563 173.48 98.5255 173.478 98.4905C174.47 98.303 175.455 98.138 176.428 98.0255Z" fill="#F3EE92"/>
<path d="M68.5425 129.147C62.47 130.757 56.3975 132.37 50.325 133.98C49.5225 134.192 48.775 134.622 47.975 134.835C54.0475 133.225 60.12 131.612 66.1925 130.002C66.9975 129.787 67.7425 129.36 68.5425 129.147Z" fill="black"/>
<path d="M100.777 120.253C97.19 121.23 93.6175 122.25 90.055 123.313C89.335 123.528 88.3575 123.975 87.7925 124.143C91.325 123.088 94.87 122.075 98.4275 121.108C99.2325 120.89 99.98 120.47 100.777 120.253Z" fill="black"/>
<path d="M164.933 100.372C160.403 102.09 155.873 103.807 151.343 105.525C150.898 105.692 151.73 105.402 151.77 105.387C152.308 105.197 152.843 105 153.375 104.797C157.905 103.08 162.435 101.362 166.965 99.6447C167.41 99.4772 166.578 99.7672 166.538 99.7822C166 99.9747 165.465 100.17 164.933 100.372Z" fill="black"/>
<path d="M138.475 109.815C127.793 112.503 117.235 115.725 106.643 118.75C105.923 118.955 104.945 119.42 104.38 119.58C114.943 116.565 125.473 113.35 136.125 110.67C136.933 110.468 137.675 110.015 138.475 109.815Z" fill="black"/>
<path d="M174.023 97.9076C174.048 97.9026 174.065 97.8976 174.083 97.8926C174.695 97.8501 175.305 97.7451 175.905 97.6176C175.2 97.4526 174.475 97.4601 173.75 97.5351C172.768 97.4626 171.768 97.4951 170.785 97.6501C170.755 97.6476 170.728 97.6451 170.698 97.6401C169.68 97.5551 168.67 97.6226 167.668 97.7801C167.563 97.7701 167.458 97.7601 167.353 97.7526C167.195 97.4051 166.893 97.1201 166.505 97.0076C165.485 96.7851 164.415 96.9301 163.378 96.9176C161.765 96.9851 160.15 97.0976 158.543 97.2676C158.54 97.2676 158.538 97.2676 158.538 97.2676C154.9 97.0276 151.24 96.7351 147.608 97.1726C147.53 97.1676 147.45 97.1626 147.373 97.1576C145.355 97.1101 143.253 96.4326 141.285 97.1326C140.738 97.3551 140.168 97.6276 139.778 98.0826C139.745 98.0801 139.713 98.0801 139.683 98.0751C138.268 97.9726 136.853 97.8551 135.44 97.7401C133.64 97.6251 131.845 97.4326 130.038 97.4501C127.725 97.4176 125.395 97.3526 123.115 97.8051C121.46 98.0526 119.833 98.4501 118.243 98.9726C117.218 98.6726 116.053 98.5976 115.163 98.4826C112.853 98.2251 110.53 98.0651 108.205 98.0151C100.94 97.8326 93.7 98.7376 86.5025 99.6226C84.8225 99.8401 83.1175 100.018 81.5075 100.573C81.3675 100.628 81.2275 100.678 81.085 100.733C81.01 100.74 80.9375 100.753 80.8625 100.763C77.7475 100.645 74.6325 100.503 71.5175 100.603C68.0175 100.748 64.5675 101.383 61.165 102.188C60.885 102.07 60.6 101.968 60.315 101.88C58.0725 101.243 55.7175 101.488 53.445 101.82C51.48 102.153 49.425 102.63 47.3625 103.16C45.8375 103.155 44.3175 103.248 42.8025 103.408C42.67 103.368 42.53 103.35 42.39 103.345V103.34C42.3825 103.34 42.3725 103.343 42.365 103.343C42.0475 103.335 41.72 103.388 41.4075 103.4C40.2625 103.495 39.115 103.56 37.9725 103.688C37.555 103.735 37.1425 103.803 36.73 103.88C35.8375 103.918 34.9525 104.073 34.0725 104.25C33.42 104.255 32.7825 104.415 32.1525 104.593C31.7425 104.455 31.2425 104.485 30.8325 104.6C30.7375 104.615 30.64 104.633 30.545 104.65C30.6575 104.558 30.73 104.448 30.6625 104.288C30.5975 104.145 30.4725 104.108 30.3225 104.123V104.12C30.32 104.12 30.3175 104.123 30.315 104.123C30.14 104.145 29.9325 104.238 29.74 104.338C29.645 104.373 29.5525 104.408 29.4575 104.445C28.9625 104.653 28.335 104.785 28.0475 105.263C27.6325 105.41 27.3 105.673 27.2575 106.19C27.245 106.26 27.24 106.33 27.2425 106.403C26.695 106.743 26.1775 107.138 25.6725 107.535C23.655 109.1 21.9575 111.218 21.205 113.68C21.135 114.008 21.12 114.298 21.1525 114.55C20.825 114.933 20.515 115.328 20.2475 115.758C19.765 116.463 19.3825 117.588 19.5925 118.408C19.525 118.688 19.5625 118.975 19.6775 119.23C19.56 119.333 19.45 119.445 19.365 119.583C18.8225 120.39 19.3475 121.635 20.3425 121.71C20.79 121.803 21.2325 121.573 21.67 121.49C22.405 121.288 23.1075 120.985 23.81 120.693C25.475 120.31 27.175 120.065 28.85 119.75C33.6475 118.888 38.42 117.893 43.1825 116.848C43.2225 116.855 43.2625 116.865 43.305 116.868C43.745 116.94 44.1825 116.76 44.6225 116.73C45.435 116.58 46.2425 116.413 47.045 116.223C47.785 116.078 48.525 115.933 49.265 115.793C49.7325 115.73 50.1625 115.67 50.52 115.618C50.8175 115.563 51.1125 115.505 51.4075 115.445C53.865 115.113 56.2025 114.845 59.1525 114.37C60.84 114.108 62.5225 113.815 64.2075 113.528C66.7725 113.28 69.425 113.14 72.385 113.21C73.1325 113.195 73.9325 113.443 74.62 113.05C74.905 112.893 75.1075 112.628 75.215 112.328C75.515 112.543 75.9 112.645 76.3025 112.555C82.045 111.888 88.3975 110.045 93.7825 109.1C95.32 109.113 96.8575 109.16 98.3925 109.21C99.6525 109.185 102.93 109.638 104.6 109.153C105.023 109.138 105.445 109.025 105.868 108.983C106.96 108.78 108.05 108.573 109.135 108.34C110.535 108.048 111.738 107.803 112.868 107.6C114.135 107.495 115.483 107.378 116.61 107.223C118.293 107.065 119.978 106.858 121.67 106.853C122.005 106.855 122.29 106.74 122.518 106.558C124.385 106.39 126.25 106.17 128.095 105.82C128.238 106.078 128.46 106.288 128.753 106.39C129.773 106.783 130.85 106.153 131.848 105.928C132.285 105.79 132.725 105.668 133.168 105.553C133.36 105.603 133.57 105.635 133.795 105.638C134.478 105.628 135.115 105.385 135.753 105.173C136.048 105.083 136.343 104.993 136.635 104.9C136.593 104.905 136.55 104.913 136.508 104.918C136.52 104.915 136.533 104.913 136.545 104.91C136.578 104.905 136.61 104.903 136.64 104.898C136.65 104.895 136.663 104.89 136.673 104.888C138.185 104.643 141.94 104.575 143.015 103.443C143.235 103.395 143.455 103.348 143.675 103.3C146.02 103.02 148.37 102.783 150.718 102.523C152.485 102.28 154.285 102.118 155.99 101.573C156.41 101.465 156.713 101.168 156.87 100.805C157.4 100.86 157.928 100.918 158.458 100.965C159.82 101.043 161.188 100.965 162.548 100.873C163.113 100.853 163.68 100.825 164.245 100.83C164.543 100.833 164.86 100.875 165.128 100.72C165.593 100.558 165.923 100.078 165.965 99.5876C166.498 99.5251 167.038 99.4276 167.313 98.9176C167.325 98.8951 167.333 98.8701 167.345 98.8451C167.51 98.8126 167.675 98.7826 167.843 98.7576C169.17 98.8076 170.823 98.8226 171.628 98.6601C172.633 98.5076 173.69 98.3901 174.64 98.0376C174.348 98.0226 174.053 98.0001 173.758 97.9751C173.845 97.9501 173.933 97.9326 174.023 97.9076Z" fill="#F1EEAF"/>
<path d="M136.871 104.862C136.793 104.872 136.715 104.882 136.635 104.892C136.633 104.892 136.63 104.895 136.628 104.895C136.708 104.885 136.79 104.875 136.871 104.862Z" fill="#F1EEAF"/>
<path d="M165.355 100.015C164.815 100.152 164.27 100.265 163.727 100.385C162.255 100.58 160.8 100.677 159.36 101.15C158.987 101.262 158.612 101.385 158.255 101.542C157.077 101.522 155.895 101.575 154.727 101.727C152.052 101.715 149.382 102.115 146.977 103.315C145.177 103.27 143.367 103.49 141.587 103.85C140.795 103.992 140.007 104.17 139.227 104.375C138.097 104.42 136.985 104.632 135.892 104.915C132.01 105.077 128.147 105.575 124.352 106.405C124.115 106.46 123.877 106.515 123.64 106.567C122.81 106.657 121.99 106.787 121.155 106.975C121.105 106.98 121.057 106.985 121.007 106.992C120.972 106.997 120.937 107.002 120.9 107.007C120.942 107 120.925 107 120.772 107.017C120.63 107.032 120.487 107.05 120.347 107.07C119.965 107.027 119.575 107.012 119.212 106.98C116.727 106.905 114.287 107.465 111.865 107.957C111.31 108.045 111.705 107.982 110.967 108.065C108.83 108.28 106.705 108.577 104.595 108.977C104.125 109.092 103.65 109.2 103.177 109.31C101.857 109.367 100.535 109.467 99.215 109.54C98.1475 109.582 97.09 109.695 96.03 109.827C95.305 109.872 94.5825 109.92 93.8575 109.97C90.5875 110.31 87.3 110.7 84.1125 111.527C83.7275 111.627 83.3425 111.732 82.96 111.84C81.1475 111.862 79.3375 112.045 77.545 112.302C77.3475 112.332 77.15 112.362 76.9525 112.392C76.06 112.427 75.1675 112.487 74.28 112.595C72.3925 112.847 70.8125 113.17 69.7125 113.475C69.2875 113.617 68.9725 113.727 68.72 113.825C68.545 113.865 68.3675 113.907 68.1925 113.947C67.895 113.952 67.5975 113.957 67.3 113.96C64.83 113.94 62.3725 114.227 59.945 114.665C56.7075 115.242 53.4775 115.872 50.295 116.7C49.7525 116.425 49.105 116.545 48.5175 116.582C46.1375 116.73 43.7875 117.147 41.4425 117.555C39.6625 117.905 37.89 118.292 36.125 118.707C35.14 118.8 34.1575 118.892 33.1725 118.985C32.0375 119.12 30.25 119.092 29.3625 119.882C29.0025 119.797 28.6125 119.842 28.295 120.035C28.27 120.047 28.255 120.055 28.24 120.062C28.2175 120.072 28.1925 120.08 28.17 120.09C27.7625 120.272 27.2625 120.367 27.0125 120.767C27 120.78 26.9925 120.797 26.98 120.81C26.8125 120.86 26.6525 120.927 26.5225 121.052C25.7325 121.58 25.84 122.89 26.6625 123.337C26.7925 123.412 26.925 123.457 27.0575 123.485C27.06 123.602 27.06 123.72 27.055 123.837C27.0525 123.975 27.0425 124.112 27.0325 124.247C27.0275 124.277 27.025 124.31 27.0175 124.34C26.9625 124.57 26.895 124.8 26.82 125.025C26.6975 125.292 26.6075 125.572 26.6125 125.872C26.615 125.962 26.6275 126.047 26.645 126.132C26.575 126.365 26.53 126.605 26.525 126.85C26.5275 126.975 26.5425 127.092 26.565 127.205C26.45 127.98 26.55 128.775 26.92 129.46C26.77 129.977 26.685 130.507 26.8025 131.047C26.825 131.145 26.86 131.235 26.8975 131.322C26.8475 131.775 26.95 132.207 27.26 132.522C27.065 132.87 26.88 133.222 26.7225 133.59C26.695 133.632 26.43 134.245 26.49 134.48C26.49 134.497 26.495 134.512 26.495 134.53C26.4925 134.532 26.4925 134.532 26.49 134.535C26.095 134.952 25.8925 135.542 26.055 136.102C26.0875 136.215 26.13 136.32 26.185 136.42C26.1575 136.882 26.39 137.342 26.7625 137.622C26.7825 137.705 26.8075 137.79 26.8475 137.877C27.0525 138.44 27.6975 138.807 28.2875 138.712C28.915 138.662 29.5125 138.472 30.105 138.272C31.1875 137.912 32.2775 137.57 33.365 137.225C34.13 137.017 34.8975 136.827 35.6675 136.647C36.695 136.567 37.715 136.452 38.685 136.095C39.4925 135.977 40.275 135.882 41.3375 135.775C43.055 135.687 44.7825 135.435 46.3825 134.775C46.49 134.727 46.6 134.682 46.715 134.64C46.9375 134.662 47.1625 134.665 47.3875 134.665C49.9625 134.67 52.27 133.377 54.67 132.615C55.5225 132.327 56.3775 132.045 57.235 131.765C57.695 131.642 58.155 131.522 58.615 131.4C65.06 129.787 71.4925 128.125 77.9825 126.702C78.0125 126.7 78.045 126.697 78.0775 126.692C78.1075 126.685 78.1325 126.672 78.16 126.665C78.5125 126.587 78.8625 126.507 79.215 126.432C79.735 126.34 80.31 126.27 80.785 126.037C81.085 125.955 81.3825 125.857 81.68 125.81C87.4625 124.252 93.05 122.052 98.8225 120.45C100.33 119.987 101.857 119.6 103.382 119.2C103.527 119.182 103.67 119.142 103.79 119.075C103.877 119.047 103.965 119.015 104.052 118.982C104.072 118.98 104.095 118.977 104.115 118.975C104.135 118.975 104.152 118.972 104.172 118.972C104.647 119.157 105.205 118.91 105.652 118.805C106.092 118.67 106.532 118.54 106.972 118.407C107.335 118.387 107.705 118.245 108.057 118.175C108.297 118.11 108.535 118.04 108.775 117.972C108.96 118.002 109.142 117.955 109.322 117.897C110.412 117.67 111.49 117.407 112.557 117.092C112.622 117.102 112.69 117.107 112.76 117.11C112.81 117.117 112.865 117.125 112.917 117.13C114.182 117.092 115.367 116.56 116.57 116.212C116.592 116.205 116.612 116.197 116.635 116.19C117.37 115.975 118.1 115.745 118.842 115.555C120.43 115.152 122.02 114.76 123.62 114.417C123.897 114.382 124.31 114.325 123.805 114.392C124.525 114.262 125.355 114.325 126 113.955C126.76 113.855 127.565 113.765 128.025 113.165C128.107 113.15 128.187 113.132 128.265 113.11C128.275 113.107 128.282 113.107 128.292 113.105L128.29 113.102C128.475 113.045 128.647 112.955 128.795 112.812C128.947 112.652 129.042 112.472 129.087 112.29C129.65 112.137 130.207 111.972 130.772 111.842C132.73 111.485 134.675 111.065 136.63 110.695C137.385 110.552 138.188 110.257 138.88 109.975C141.942 109.405 144.987 108.717 147.872 107.537C148.95 107.08 149.992 106.53 150.952 105.86C151.245 105.652 151.55 105.44 151.727 105.117C151.607 105.245 151.467 105.34 151.315 105.422C151.462 105.315 151.61 105.205 151.757 105.095C151.982 105.035 152.207 104.977 152.43 104.912C153.487 104.562 154.657 104.307 155.642 103.782C157.175 103.435 158.692 103.02 160.16 102.462C161.945 101.81 163.725 101.107 165.325 100.067C165.295 100.075 165.262 100.08 165.232 100.087C165.272 100.067 165.315 100.042 165.355 100.015Z" fill="#D7C878"/>
<path d="M174.025 96.4497C173.923 96.3797 173.785 96.4448 173.67 96.4248C173.18 96.3898 172.7 96.3623 172.23 96.3373C172.197 96.2798 172.163 96.2272 172.115 96.1797C171.702 95.8522 171.115 95.8472 170.625 95.6872C169.307 95.5172 167.975 95.5247 166.645 95.5847C166.473 95.5672 166.3 95.5497 166.125 95.5372C164.458 95.3922 162.792 95.5197 161.128 95.6447C159.798 95.4072 158.458 95.2222 157.108 95.1472C154.883 95.0922 152.635 95.2398 150.448 95.6748C148.17 95.7423 145.883 95.9073 143.64 96.2998C140.61 95.7923 137.545 95.5223 134.47 95.4623C131.52 95.4048 128.553 95.5347 125.643 96.0372C125.468 96.0297 125.29 96.0247 125.115 96.0197C124.67 95.9972 124.163 95.9797 123.613 95.9672C123.238 95.7072 122.69 95.6048 122.215 95.5798C121.41 95.5173 120.603 95.5197 119.795 95.5197C119.03 95.5222 118.265 95.5472 117.503 95.5847C115.398 95.5222 113.128 95.4797 111.37 95.4572C110.213 95.4347 109.058 95.4022 107.9 95.3972C107.565 95.4347 107.158 95.3797 106.773 95.3822C103.263 94.8022 99.71 94.4972 96.1575 94.3097C93.53 94.2522 90.895 94.1422 88.27 94.2147C88.3725 94.2022 88.44 94.1948 88.285 94.1973C88.01 94.2273 87.715 94.1972 87.4675 94.3322C87.275 94.3997 87.1025 94.5323 86.9725 94.6973C85.1525 94.4448 83.6725 94.2972 81.7175 94.1397C80.06 93.9397 78.5725 93.7547 76.54 93.7497C75.0775 93.6422 73.6125 93.5673 72.15 93.6273C71.99 93.6398 71.825 93.6598 71.6625 93.6898C70.555 93.4223 69.425 93.3122 68.285 93.2772C67.755 93.2472 67.225 93.2397 66.695 93.2397C66.3075 92.8872 65.82 92.6848 65.2925 92.6573C64.5875 92.5948 63.88 92.5922 63.1725 92.6072C61.325 92.5972 59.49 92.7623 57.6625 93.0023C56.175 92.9673 54.6875 92.9572 53.2 93.0147C51.5275 93.0322 49.86 93.1398 48.19 93.2523C46.66 93.2123 45.1275 93.1673 43.5975 93.1573C43.19 92.7048 42.5175 92.6247 41.92 92.6322C41.605 92.6347 41.2925 92.6547 40.98 92.6872C40.025 92.6847 39.0675 92.7048 38.1225 92.8148C37.9325 92.8073 37.7425 92.8398 37.5525 92.8923C37.0375 92.9748 36.5275 93.0872 36.0225 93.2472C35.3825 93.4122 34.95 93.8373 34.7725 94.3148C34.2975 94.7698 34.1525 95.3997 34.31 95.9197C34.345 96.1347 34.4275 96.3397 34.5525 96.5197C34.485 96.5472 34.4175 96.5723 34.35 96.6023C34.17 96.7073 34.025 96.8522 33.9175 97.0197C33.675 97.1097 33.43 97.1973 33.1875 97.2898C32.8775 97.4123 32.5475 97.5523 32.365 97.8448C31.99 98.2973 32.005 98.8597 32.2475 99.3022C32.17 99.8372 32.42 100.43 32.9075 100.697C33.6175 101.085 34.45 100.75 35.155 100.502C35.36 100.415 35.555 100.337 35.7425 100.262C35.8025 100.282 35.8625 100.3 35.9225 100.315C36.0475 100.447 36.1975 100.55 36.37 100.61C36.89 100.835 37.5025 100.732 38.0525 100.662C38.14 100.647 38.2275 100.627 38.3175 100.612C38.9725 100.795 39.6225 101 40.2825 101.112C40.38 101.377 40.5575 101.61 40.815 101.75C41.0175 101.87 41.23 101.912 41.4475 101.912C41.4175 102.095 41.425 102.282 41.48 102.465C41.65 103.18 42.3075 103.495 43 103.57C43.085 103.585 43.1725 103.595 43.2625 103.6C43.3775 103.627 43.4975 103.65 43.6275 103.65C44.4125 103.667 45.3275 103.672 45.9625 103.155C46.075 103.142 46.1875 103.125 46.2975 103.107C47.4925 102.942 46.7975 103.035 47.9775 102.897C50.08 102.725 52.1375 102.31 54.1975 101.89C54.7375 101.842 55.275 101.785 55.8125 101.717C55.91 101.74 56.01 101.752 56.1175 101.752C56.5575 101.765 56.9925 101.7 57.4275 101.627C57.5775 101.645 57.725 101.662 57.86 101.685C59.865 101.557 62.73 101.222 65.675 100.905C67.8075 100.825 69.94 100.76 72.07 100.63C72.31 100.612 72.5525 100.595 72.7925 100.58C72.92 100.582 73.05 100.572 73.18 100.552C73.8525 100.507 74.525 100.455 75.1925 100.355C75.53 100.287 75.91 100.3 76.2175 100.14C76.515 100.13 76.82 100.047 77.115 100.04C77.9825 99.9423 78.8525 99.8997 79.72 99.8097C81.645 99.6247 83.575 99.5347 85.5025 99.3872C85.9525 99.3697 86.345 99.3547 86.7175 99.3347C87.965 99.3497 89.2125 99.3348 90.46 99.2598C90.765 99.2473 91.07 99.2122 91.3775 99.1947C91.4675 99.1922 91.56 99.1873 91.6525 99.1798C92.055 99.2273 92.4575 99.2772 92.86 99.3272C92.875 99.3297 92.8825 99.3297 92.895 99.3322C92.9775 99.3447 93.06 99.3573 93.145 99.3673C94.0025 99.5098 94.87 99.5923 95.7275 99.4223C96.0025 99.3648 96.2975 99.3123 96.5525 99.1873C96.9975 99.2473 97.365 99.3023 97.8425 99.3698C98.6875 99.5023 99.3125 99.0723 99.525 98.5248C99.815 98.5298 100.105 98.5398 100.393 98.5573C103.023 98.5948 105.325 98.6748 107.158 98.5573C107.275 98.5548 107.395 98.5423 107.51 98.5173C107.533 98.5148 107.553 98.5123 107.583 98.5098C107.783 98.5123 107.975 98.4547 108.15 98.3647C108.225 98.3697 108.303 98.3723 108.378 98.3747C108.528 98.3772 108.678 98.3448 108.818 98.2923C108.948 98.2873 109.078 98.2847 109.208 98.2797C109.213 98.2797 109.218 98.2797 109.223 98.2797C109.243 98.2797 109.26 98.2772 109.28 98.2772C109.305 98.2772 109.328 98.2748 109.353 98.2748C109.385 98.2723 109.42 98.2697 109.453 98.2697C109.498 98.2697 109.54 98.2672 109.585 98.2622C111.308 98.1772 113.03 98.0347 114.75 97.9272C116.043 97.8872 117.335 97.8498 118.63 97.8223C119.825 97.8548 121.018 97.9798 122.213 97.9848C122.25 97.9848 122.29 97.9823 122.328 97.9773C122.34 97.9773 122.348 97.9772 122.363 97.9747C122.675 97.9947 123.013 97.9447 123.303 97.8172C123.31 97.8172 123.318 97.8172 123.328 97.8172C124.47 97.8447 125.613 97.8972 126.753 97.9897C127.16 98.0222 127.508 97.8598 127.715 97.6098C130.243 97.6148 132.77 97.6248 135.298 97.7223C136.63 97.7848 137.975 97.6772 139.293 97.9122C139.82 98.0047 140.345 98.1247 140.87 98.2247C140.37 98.0297 139.873 97.8222 139.365 97.6472C139.068 97.5447 138.765 97.4648 138.46 97.3923C139.07 97.3948 139.698 97.4798 140.3 97.3698C140.475 97.3073 140.548 97.1797 140.548 97.0522C140.55 97.0522 140.55 97.0522 140.553 97.0522C141.853 97.1222 143.153 97.1897 144.453 97.2397C144.74 97.2172 145.125 97.3522 145.34 97.1222C145.883 97.1397 146.423 97.1573 146.965 97.1723C147.16 96.9298 146.473 96.8272 146.325 96.7772C146.208 96.7472 146.093 96.7172 145.975 96.6847C146.093 96.7497 146.218 96.8022 146.34 96.8572C146.118 96.8097 145.888 96.7648 145.765 96.7298C145.615 96.6923 145.463 96.6647 145.31 96.6322C145.175 96.5322 144.948 96.4947 144.725 96.4747C144.71 96.4722 144.698 96.4697 144.683 96.4672C146.43 96.5497 148.173 96.6972 149.923 96.7072C153.01 96.6922 156.095 96.8672 159.18 96.7947C158.435 96.6247 157.69 96.4647 156.94 96.3197C157.773 96.3297 158.603 96.3398 159.435 96.3473C160.088 96.4423 160.745 96.5072 161.408 96.5147C162.875 96.5472 164.35 96.5773 165.822 96.5948C165.87 96.6773 165.938 96.7473 166.02 96.7923C166.505 97.0398 167.062 97.0573 167.592 97.1198C168.4 97.2048 169.21 97.2848 170.018 97.3548C170.542 97.3998 171.07 97.4597 171.595 97.4122C171.788 97.4147 171.975 97.3348 172.11 97.1973C172.195 97.1123 172.253 97.0072 172.285 96.8972C172.55 96.8672 172.815 96.8348 173.077 96.8047C173.027 96.8647 173.042 96.9323 173.197 97.0023C173.067 96.8823 173.137 96.8197 173.277 96.7797C173.317 96.7747 173.36 96.7697 173.4 96.7647C173.54 96.7497 173.68 96.7298 173.818 96.6973C173.925 96.6798 174.012 96.6547 174.042 96.6172C174.092 96.5798 174.08 96.4872 174.025 96.4497Z" fill="#D7C878"/>
<path d="M13.86 123.128C34.62 118.46 55.675 115.3 76.7625 112.545C97.9525 109.775 119.197 107.403 140.34 104.255C152.215 102.488 164.055 100.47 175.81 98.02C176.62 97.85 177.355 97.3325 178.16 97.165C157.322 101.51 136.232 104.473 115.127 107.155C93.9325 109.85 72.6975 112.28 51.5875 115.61C39.7325 117.48 27.9225 119.64 16.21 122.273C15.4025 122.455 14.665 122.948 13.86 123.128Z" fill="black"/>
<path d="M26.23 104.815C22.5025 110.85 18.8425 116.927 15.2525 123.045C16.035 122.76 16.8175 122.475 17.6025 122.19C17.6775 121.952 17.7525 121.712 17.8275 121.475C17.68 121.945 15.635 121.832 15.4775 122.33C15.4025 122.567 15.3275 122.807 15.2525 123.045C15.29 122.927 16.2875 122.68 16.4325 122.63C16.6625 122.547 17.475 122.41 17.6025 122.19C21.1925 116.072 24.8525 109.995 28.58 103.96C28.4725 104.132 27.605 104.302 27.4 104.375C27.1625 104.462 26.3675 104.592 26.23 104.815Z" fill="black"/>
<path d="M27.265 104.568C46.7 102.715 66.1725 101.228 85.6625 100.113C105.237 98.993 124.832 98.2455 144.438 97.873C155.438 97.663 166.443 97.573 177.445 97.598C178.233 97.6005 179.02 96.7405 179.795 96.743C160.27 96.7005 140.747 97.023 121.235 97.718C101.64 98.4155 82.06 99.488 62.5075 100.933C51.535 101.743 40.57 102.673 29.6175 103.715C28.8075 103.79 28.0625 104.493 27.265 104.568Z" fill="black"/>
<path d="M25.595 121.733C25.5525 124.886 25.5375 128.038 25.555 131.191C26.3375 130.906 27.12 130.621 27.905 130.336C27.8775 126.743 27.6925 123.156 27.35 119.578C26.5675 119.863 25.785 120.148 25 120.433C25.2375 121.838 25.4725 123.241 25.71 124.646C25.6875 124.516 28.0875 123.958 28.06 123.791C27.8225 122.386 27.5875 120.983 27.35 119.578C27.375 119.731 24.9825 120.236 25 120.433C25.3425 124.011 25.5275 127.596 25.555 131.191C25.5525 130.928 27.905 130.633 27.905 130.336C27.8875 127.183 27.9025 124.031 27.945 120.878C27.94 121.156 25.6 121.418 25.595 121.733Z" fill="black"/>
<path d="M53.45 133.253C48.8175 134.503 44.1325 135.528 39.4025 136.335C37.035 136.74 34.6575 137.085 32.275 137.395C31.16 137.54 30.0475 137.677 28.9325 137.812C28.615 137.85 28.295 137.89 27.9775 137.928C27.51 138.14 27.365 138.027 27.54 137.587C27.535 137.36 27.62 137.032 27.7675 136.852C26.985 137.137 26.2025 137.423 25.4175 137.708C25.845 137.598 25.5175 138.66 25.305 138.798C26.0875 138.513 26.87 138.228 27.655 137.943C27.37 138.015 27.6075 136.65 27.6375 136.3C27.6975 135.58 27.755 134.857 27.815 134.137C27.9325 132.695 28.0525 131.255 28.17 129.812C28.1425 130.143 25.85 130.302 25.82 130.667C25.635 132.91 25.4525 135.153 25.2675 137.395C25.235 137.803 25.02 138.71 25.305 138.798C25.375 138.82 25.5775 138.705 25.6525 138.68C26.2275 138.487 26.98 138.33 27.4975 138.005C27.845 137.788 28.325 137.023 27.725 136.863C27.35 136.763 26.3675 137.345 25.9975 137.482C25.4575 137.685 25.335 137.698 25.2175 138.288C25.055 139.098 25.465 138.798 26.1075 138.723C26.665 138.655 27.2225 138.588 27.78 138.52C28.895 138.383 30.01 138.242 31.1225 138.092C33.3425 137.795 35.5575 137.455 37.765 137.068C42.255 136.28 46.705 135.295 51.105 134.107C51.9025 133.89 52.65 133.468 53.45 133.253Z" fill="black"/>
<path d="M91.6725 122.728C83.7925 124.565 76.16 127.308 68.2925 129.193C67.485 129.385 66.745 129.855 65.9425 130.048C73.81 128.163 81.4425 125.42 89.3225 123.583C90.13 123.395 90.87 122.915 91.6725 122.728Z" fill="black"/>
<path d="M106.87 118.755C104.602 119.277 102.33 119.78 100.11 120.485C99.395 120.712 98.41 121.137 97.8475 121.315C100.04 120.62 102.282 120.127 104.522 119.61C105.327 119.425 106.067 118.94 106.87 118.755Z" fill="black"/>
<path d="M152.992 104.873C148.275 106.575 143.512 108.153 138.725 109.65C138.007 109.875 137.025 110.305 136.462 110.48C141.805 108.808 147.11 107.023 152.377 105.123C152.847 104.953 153.377 104.825 153.82 104.588C153.767 104.615 153.175 104.805 152.992 104.873Z" fill="black"/>
<path d="M156.632 103.552C156.482 103.607 156.332 103.665 156.182 103.72C156.147 103.732 155.897 103.825 156.08 103.757C156.27 103.687 155.975 103.797 155.942 103.807C155.71 103.892 155.475 103.977 155.242 104.067C155.29 104.05 154.982 104.152 155.127 104.12C155.31 104.08 155.495 103.992 155.67 103.93C155.972 103.822 156.275 103.712 156.575 103.602C156.992 103.45 157.41 103.295 157.827 103.14C157.992 103.077 158.205 103.022 158.365 102.937C158.492 102.87 158.202 102.985 158.242 102.972C157.7 103.157 157.165 103.352 156.632 103.552Z" fill="black"/>
<path d="M166.667 99.6153C166.157 99.8253 165.647 100.035 165.137 100.243C164.985 100.305 165.335 100.183 165.26 100.208C165.495 100.128 165.73 100.043 165.965 99.9578C166.447 99.7828 166.932 99.6178 167.407 99.4228C167.917 99.2153 168.427 99.0053 168.937 98.7953C169.087 98.7328 168.74 98.8553 168.815 98.8303C168.58 98.9103 168.345 98.9953 168.11 99.0803C167.627 99.2528 167.14 99.4178 166.667 99.6153Z" fill="black"/>
<path d="M43.2775 102.05C40.195 101.12 37.0625 100.37 33.8875 99.8327C33.77 99.8127 32.9775 99.7627 32.935 99.6777C32.8925 99.5952 33.52 98.5127 33.5675 98.4152C33.885 97.7827 34.2 97.1527 34.5175 96.5202C35.1225 95.3152 35.62 93.6352 36.9 92.9977C36.1325 93.2777 35.3625 93.5602 34.595 93.8402C36.7425 93.1827 39.31 93.2327 41.5425 93.0852C43.835 92.9327 46.1325 92.8402 48.4275 92.8027C52.9475 92.7252 57.4675 92.8452 61.9825 93.0652C71.1225 93.5127 80.235 94.3827 89.37 94.9177C107.792 95.9977 126.257 95.7027 144.702 95.8352C155.04 95.9102 165.38 96.1252 175.7 96.7752C176.47 96.8227 177.295 95.8727 178.05 95.9202C156.242 94.5427 134.382 95.1477 112.55 94.7952C101.637 94.6177 90.7625 94.0577 79.8825 93.2427C69.055 92.4327 58.1975 91.6052 47.3325 92.0452C44.38 92.1652 41.4275 92.3752 38.49 92.7127C37.555 92.8202 36.7575 93.0377 35.8775 93.3552C35.17 93.6127 34.335 93.8102 33.8075 94.3777C32.9175 95.3352 32.4325 96.8452 31.85 98.0052C31.5325 98.6377 31.2175 99.2677 30.9 99.9002C30.865 99.9702 30.83 100.04 30.795 100.11C30.4625 100.438 30.4725 100.59 30.8225 100.57C31.0475 100.75 31.7025 100.715 32.0125 100.77C35.025 101.3 37.9975 102.023 40.9275 102.905C41.5775 103.103 42.65 101.863 43.2775 102.05Z" fill="black"/>
<path d="M34.6693 43.6571L37.4789 62.856C37.493 62.9519 37.5 63.0487 37.5 63.1456V73.1415C37.5 73.3786 37.4578 73.6138 37.3755 73.8362L32.5566 86.8471C32.5189 86.9489 32.4896 87.0535 32.4689 87.16L29.5041 102.408C29.2511 103.709 30.3109 104.892 31.632 104.782L85.0758 100.366C86.7934 100.224 87.5392 98.1209 86.2949 96.9285L77.8329 88.819C77.6138 88.6091 77.3499 88.4518 77.0611 88.3589L64.888 84.4461C64.0609 84.1803 63.5 83.4109 63.5 82.5421V78.3946C63.5 77.5567 64.0223 76.8076 64.8086 76.5179L72.1922 73.7976C72.7079 73.6076 73.1226 73.2138 73.3391 72.7088L77.3383 63.3773C77.445 63.1284 77.5 62.8603 77.5 62.5895V42.9968C77.5 42.6705 77.4202 42.3493 77.2676 42.061L73.5634 35.0642C73.2168 34.4095 72.5367 34 71.7958 34H46.1827C45.7401 34 45.31 34.1468 44.9598 34.4174L35.4254 41.7849C34.8537 42.2267 34.5647 42.9423 34.6693 43.6571Z" fill="#9B9B9B" fill-opacity="0.45" stroke="#FFF530" stroke-opacity="0.6" stroke-width="2"/>
<path d="M56.504 55.488L56.216 59.424H53.656L53.336 54.752L57.048 52.608H59.48V47.52H53.08V50.4H49.88V46.784L53.592 44.64H58.968L62.68 46.784V53.344L58.968 55.488H56.504ZM52.536 68V63.2H57.336V68H52.536Z" fill="white"/>
</g>
<defs>
<filter id="filter0_d_1076_10006" x="-4" y="0" width="208" height="208" filterUnits="userSpaceOnUse" color-interpolation-filters="sRGB">
<feFlood flood-opacity="0" result="BackgroundImageFix"/>
<feColorMatrix in="SourceAlpha" type="matrix" values="0 0 0 0 0 0 0 0 0 0 0 0 0 0 0 0 0 0 127 0" result="hardAlpha"/>
<feOffset dy="4"/>
<feGaussianBlur stdDeviation="2"/>
<feComposite in2="hardAlpha" operator="out"/>
<feColorMatrix type="matrix" values="0 0 0 0 0 0 0 0 0 0 0 0 0 0 0 0 0 0 0.25 0"/>
<feBlend mode="normal" in2="BackgroundImageFix" result="effect1_dropShadow_1076_10006"/>
<feBlend mode="normal" in="SourceGraphic" in2="effect1_dropShadow_1076_10006" result="shape"/>
</filter>
</defs>
</svg>
