<?xml version="1.0" encoding="utf-8"?>
<!-- Generator: Adobe Adobe Illustrator 24.2.0, SVG Export Plug-In . SVG Version: 6.00 Build 0)  -->
<svg version="1.1" xmlns="http://www.w3.org/2000/svg" xmlns:xlink="http://www.w3.org/1999/xlink" x="0px" y="0px" width="1014px"
	 height="626px" viewBox="0 0 1014 626" style="enable-background:new 0 0 1014 626;" xml:space="preserve">
<style type="text/css">
	.st0{fill:#FF2A0C;}
	.st1{fill:#FF2A0C;stroke:#FF2A0C;stroke-miterlimit:10;}
	.st2{fill:#4052A5;}
	.st3{fill:#EDF636;}
	.st4{fill:#4DB842;}
	.st5{fill:#6F5631;}
	.st6{fill:#F62C94;}
	.st7{fill:#F4F099;}
	.st8{fill:#F62C8F;}
	.st9{fill:#6E5631;}
</style>
<g id="Layer_2">
</g>
<g id="Layer_5">
</g>
<g id="Layer_3">
	<g>
		<g>
			<path class="st0" d="M783.29,282.57c-3,0.6-7.8,1.72-10.2,3.54c-2.01,1.52-1.39,3.52,0.51,4.89c2.13,1.54,5.36,1.51,7.78,0.93
				c3.51-0.84,7.2-2.3,10.49-3.75c1-0.44,4.46-1.85,4.45-3.07c0-2.22-7.38-3.89-8.91-3.97c-3.62-0.2-7.35,1.75-10.66,3.02
				c-1.55,0.6-3.45,0.91-3.22,3.02c0.3,2.76,4.96,4.15,7.14,4.36c3.76,0.35,7.49-1.51,10.92-2.77c1.51-0.56,3.15-1.04,4.58-1.81
				c1.91-1.03,2.26-0.81,0.88-2.38c-0.81-0.92-2.81-1.8-3.89-2.3c-4.52-2.08-8.69-2.22-13.27-0.6c-2.5,0.89-9.62,2.26-9.88,5.76
				c-0.37,5.01,10.01,7.77,13.55,8.42c4.5,0.82,8.61-1.38,12.73-2.92c0.97-0.36,3.95-1.13,4.02-2.51c0.06-1.1-5.59-4.17-6.48-4.71
				c-4.53-2.77-11.61-6.93-17.06-5.58c-1.54,0.38-3.06,1.07-4.54,1.61c-1.07,0.39-3.9,0.87-4.68,1.76
				c-2.82,3.22,7.16,8.54,10.02,9.27c5.37,1.36,9.94-0.62,14.89-2.44c1.4-0.52,3.45-0.95,4.59-1.97c3.05-2.72-0.89-5.96-3.29-7.39
				c-5.05-3.02-8.83-1.4-13.79,0.43c-1.73,0.64-4.35,1.09-5.65,2.52c-1.58,1.74-1.02,4.38,1.1,5.23c0.79,0.31,3.9-1.37,4.72-1.66
				c0.81-0.3,3.88-2.08,4.68-1.76c-3.02-1.21-2.35-5.11,0.49-6.2c-2.92,1.05-5.84,2.11-8.76,3.16c4.32-0.61,17.52,5.38,9.96,9.75
				c3.07-1.12,6.15-2.25,9.22-3.37c-4.09,1.37-8.56,0.85-12.37-1.09c-2.06-1.05-8.69-5.7-6.41-7.91c-3.07,1.12-6.15,2.25-9.22,3.37
				c4.22-1.2,10.28,2.16,13.93,4.09c1.89,1,3.72,2.12,5.47,3.35c2.23,1.56,5,2.56,2.09,4.58c0.77-0.3,1.54-0.59,2.31-0.89
				c-0.38,0.14-0.76,0.28-1.14,0.42c2.36-0.84,4.72-1.69,7.08-2.53c-4.7,0.77-9.69-1.22-13.75-3.45c-3.55-1.94-6.46-5.82-1.49-8.15
				c-3.13,1.14-6.26,2.28-9.4,3.42c2.74-0.75,5.38-0.46,8.1,0.34c1.45,0.43,2.85,1.01,4.18,1.73c0.89,0.48,1.73,1.02,2.54,1.63
				c1.34,0.45,1.57,0.89,0.69,1.34c-1.83,1.37-0.42,0.95,4.25-1.27c-0.63,0.09-1.26,0.12-1.89,0.07c-1.21-0.34-2.46-0.27-3.67-0.76
				c-2.13-0.86-6.64-4.22-2.4-6.03c-3.08,1.12-6.16,2.23-9.23,3.35c3.04-0.41,6.02,0.19,8.7,1.72c1.25,0.71,2.83,1.39,2.38,2.59
				c-0.44,1.18-2.8,2.06-3.83,2.52c3.07-1.12,6.15-2.25,9.22-3.37c-2.68,0.86-5.66,1.08-8.23-0.26c-2.19-1.14-3.33-3.21-1.31-5.13
				c-3.13,1.14-6.26,2.28-9.4,3.42c0.32-0.06,0.64-0.13,0.96-0.19C777.14,285.34,780.08,283.21,783.29,282.57L783.29,282.57z"/>
		</g>
	</g>
	<path class="st1" d="M919.16,291.28c-0.35-0.05-0.7-0.11-1.03-0.12c-0.22-0.02-0.45-0.05-0.67-0.08c1.79-0.36,3.58-0.8,5.2-1.2
		c-2.47,0-5.29,0-8.2,0.17c0.39-0.21,0.8-0.4,1.09-0.72c-0.02-0.06-0.15-0.05-0.21-0.06c0.25,0.11-0.18,0.15-0.29,0.19
		c-1.96,0.51-3.92,0.48-5.86,0.21c0.08-1.27-0.43-2.69-1.78-2.32c-1.62,0.27-3.23,0.6-4.84,0.93c-0.59-0.13-1.18-0.25-1.77-0.36
		c-1.77-0.29-3.57-0.4-5.37-0.39c-0.13-0.27-0.28-0.5-0.45-0.66c-5.5-1.69-11.38-2.85-17.14-3.62c-2.48-0.37-4.97-0.55-7.46-0.62
		c-2.96-0.59-5.93-1.05-8.96-1.19c-1.43-0.06-2.86-0.05-4.29-0.03c-0.62-0.17-1.25-0.33-1.87-0.47c0.13-0.02,0.26-0.07,0.35-0.18
		c0.13-0.23,0.11-0.59-0.12-0.75c-6.14-2.91-12.89-2.72-19.49-1.66c-0.81-0.19-1.63-0.38-2.44-0.57c-0.21-0.94-0.59-1.76-1.15-2.28
		c-0.29-0.36-0.75-0.37-1.18-0.4c-1.98-0.04-3.97-0.06-5.95-0.05c-3.85-0.02-7.67,0.55-11.51,0.73c-0.22,0.01-0.45,0.01-0.67,0.02
		c-0.63-0.24-1.34-0.33-2.01-0.4c-2.11-0.27-4.25-0.23-6.37-0.32c-11.85-0.25-24.4-8.49-35.79-2.23c-0.9,0.51-1.27,0.72-1.57,0.82
		c-0.21-0.02-0.41-0.06-0.62-0.08c-0.76-0.1-1.65-0.17-2.15,0.55c-1.45,1.85-1.67,6.38,0.29,8.05c-0.63,2.51-0.84,5.15-0.76,7.67
		c-0.01,0.86,0.13,2.19,0.43,3.71c-0.62,0.73-1.04,2.05-1.02,3.19c0.02,1.32-0.48,3.84,1.16,4.23c-0.14,1.21-0.28,2.42,0.09,3.6
		c0.44,1.45,1.15,1.95,1.88,1.68c0.19,1.14,0.55,2.24,1.19,3.24c0.74,1.05,2.2,0.7,2.7-0.38c0.38-0.66,0.64-1.37,0.83-2.11
		c0.48,0.14,1,0.09,1.34-0.32c0.18-0.1,0.36-0.31,0.52-0.56c0.51-0.26,1.01-0.65,1.47-1.24c0.08-0.12,0.14-0.24,0.21-0.36
		c2.53,1,5.46,1.38,7.93,1.74c5.59,0.46,11.29,0.32,16.78-0.89c1.86-0.46,3.66-1.12,5.45-1.81c0.02,0,0.04,0.01,0.05,0.01
		c1.19,0.29,2.21-0.24,2.87-1.11c0.18-0.07,0.36-0.13,0.55-0.2c0.38,0.29,0.85,0.48,1.43,0.49c2.77,0.28,5.51,0.09,8.2-0.42
		c2.2-0.14,4.39-0.41,6.55-0.93c2.1-0.56,4.8-1.08,6.4-2.65c1.36-0.12,2.71-0.24,4.07-0.31c1.19-0.17,2.9,0.22,3.98-0.35
		c7.75,1.47,15.04,2.21,22.46,1.07c0.86,0.04,1.72,0.04,2.58-0.02c0.52-0.11,0.92-0.37,1.26-0.73c2.15-0.52,4.32-1.23,6.52-2.13
		c1.63-0.03,3.27-0.07,4.9-0.14c6.19-0.33,12.36-1.21,18.58-1.01c0.58-0.09,0.97-0.46,1.21-0.93c1.36-0.13,2.72-0.29,4.06-0.56
		c0.35-0.07,0.68-0.16,1.02-0.25c5.15,0.55,10.33,0.65,15.45,0.07c1.32-0.3,3.71-0.04,4.41-1.38
		C921.81,290.48,920.49,290.76,919.16,291.28z M764.81,299.61c-0.02,0.45-0.07,0.89-0.13,1.34c-1.12-0.54-0.89-2.08-0.71-3.15
		c0.02-0.69,0.4-2.03,0.93-2.54c0.06,0.23,0.12,0.47,0.18,0.71C764.99,297.18,764.9,298.4,764.81,299.61z M789.97,290.06
		c-0.31,0.09-0.62,0.19-0.93,0.29c-1.89-0.15-3.33,0.14-3.6,1.26c-0.11,0.51-0.07,1.19,0.32,1.57c0.03,0.01,0.06,0.01,0.09,0.02
		c-2.68,0.07-5.35,0.11-8.03,0.01c0.01-0.49,0.02-0.99,0.02-1.48c0.34-2.61,0.39-5.26-0.06-7.81c3.32,0.38,6.64,0.68,9.97,0.75
		c1,0.17,1.99,0.33,3,0.46c-0.08,0.81-0.09,1.73-0.02,2.78c0.06,0.68,0.22,1.29,0.44,1.85
		C790.77,289.87,790.39,289.95,789.97,290.06z M183.55,315.56c-0.19-0.08-0.43,0.04-0.54,0.2c-1.13,1.14-2.11,2.43-3.25,3.56
		c-0.82-0.92-1.92-2.17-2.88-2.27c-2.33-2.38-5.05-2.86-6.64-0.28c-1.68-0.2-2.74,0.88-3.35,2.25c-0.69,1-1.1,2.22-1.1,3.49
		c-0.12,1.76,0.15,4,1.51,5.25c0.22,0.36,0.46,0.7,0.77,1.01c0.51,0.47,1.01,0.78,1.51,1c0.47,1.76,1.27,3.45,2.73,4.57
		c0.56,0.43,1.14,0.64,1.69,0.69c0.54,1.1,1.19,2.13,2.35,2.61c0.32,0.1,0.66,0.18,0.99,0.26c0.11,0.03,0.28,0.08,0.48,0.13
		c0.38,0,0.69-0.14,0.93-0.42c1.45-1.41,1.73-4.1,2.2-6.02c0.37-2.47,0.23-4.83-0.24-6.96c2.1-0.25,2.39-3.56,3.07-5.17
		C184.22,318.32,184.8,316.34,183.55,315.56z"/>
</g>
<g id="Layer_4">
	<path class="st2" d="M946.47,293.44c-4.38-0.39-8.8,0.34-13.2,0.4c-0.64,0-1.23,0.06-1.74,0.18c-0.36-0.19-0.78-0.31-1.21-0.37
		c-0.14-0.19-0.32-0.34-0.56-0.42c-2.73-0.22-5.46-0.11-8.19,0.02c-4.99,0.34-9.96,1.07-14.92,1.73c-2.34,0.33-4.68,0.67-7.01,1.03
		c-0.21,0-0.37,0.08-0.51,0.21c-0.05,0-0.09,0-0.14,0c-0.83-0.07-1.67-0.11-2.5-0.09c-2.29-0.11-4.57-0.07-6.83,0.07
		c-4.72,0.05-9.5,0.26-13.97,0.89c-11.23-1.24-22.5,0.13-33.69,1.33c-2.15,0.16-4.28,0.47-6.42,0.68c-0.21,0.03-0.44,0.03-0.67,0.05
		c0,0-0.01,0-0.01,0c0,0,0,0,0,0c-0.3,0.03-0.59,0.1-0.79,0.35c-0.23,0.24-0.43,0.51-0.6,0.81c-5.32-0.24-10.61,0.06-15.86,1.01
		c-3.5,0.53-7.02,1.01-10.51,1.63c-4.04,0.12-8.08,0.4-12.11,0.73c-1.76-0.05-3.52-0.1-5.28-0.06c-1.77,0.03-3.53,0.21-5.28,0.45
		c-1.22-0.33-2.79,0.01-3.95,0.17c-1.57,0.36-3.28,0.75-4.92,1.14c-0.07,0.02-0.15,0.04-0.22,0.05c-0.14,0.03-0.27,0.07-0.41,0.1
		c-1.03-0.09-2.08-0.09-3.11-0.06c-0.14,0.02-0.29,0.03-0.44,0.05c-0.73-0.46-1.59-0.75-2.59-0.81c-0.22-0.15-0.48-0.25-0.76-0.26
		c-0.33,0.02-0.64,0.12-0.92,0.28c-1.19,0.04-2.39,0.23-3.44,0.78c-2.42,1.84-2.53,5.64-1.39,8.24c0.05,0.11,0.1,0.2,0.16,0.3
		c0.1,0.83,0.3,1.64,0.6,2.34c0.35,0.59,0.76,1.23,1.49,1.3c-0.3,0.17-0.55,0.41-0.7,0.75c-0.05,0.07-0.09,0.14-0.14,0.21
		c-0.85,0.85-1.34,2.05-1.52,3.34c-0.59,1.16-0.87,2.46-0.68,3.88c0.05,1.06,0.29,2.18,0.89,3.07c0.34,0.55,0.88,0.98,1.48,1.3
		c-1.73,1.86-3.48,3.72-4.87,5.85c-0.66,1.41-0.94,3.43-0.53,5.11c-0.24,0.18-0.49,0.41-0.28,0.71c0.07-0.01,0.15-0.02,0.22-0.03
		c0.01,0,0.01,0,0.02,0c0.08-0.01,0.16-0.02,0.24-0.04c0.19,0.49,0.43,0.94,0.78,1.31c0.15,0.18,0.34,0.26,0.55,0.29
		c0.14,0.23,0.3,0.44,0.47,0.64c-0.03,1.25,0.32,2.52,1.26,3.29c0.92,0.31,0.8-0.09,1.53-0.16c0.84-0.31,1.7-0.73,2.56-1.2
		c9.17-3.48,20.15-7.48,29.93-11.2c2.24-0.53,4.57-1.07,7.12-1.68c2.98-0.72,5.71-2.2,8.69-2.92c1.15-0.28,2.29-0.6,3.42-0.95
		c1.8-0.4,3.61-0.82,5.4-1.26c6.95-1.74,13.82-3.83,20.61-6.12c2.98-0.62,5.99-1.13,8.99-1.63c4.76-1.16,6.76-2.13,11.3-2.84
		c2.3-0.21,6.56-1.82,6.95-1.88c2.99-0.85,6.1-0.97,9.19-0.85c0.77-0.15,1.28-0.8,1.59-1.66c7.4-1.51,14.59-3.2,21.88-4.93
		c4.44-0.83,8.85-1.83,13.21-3.03c3.9-0.6,7.79-1.3,11.65-2.13c1.49-0.36,2.98-0.74,4.47-1.12c0.21-0.04,0.42-0.07,0.63-0.11
		c0.21,0.02,0.42,0.03,0.62,0.05v-0.16c0.19-0.03,0.38-0.06,0.57-0.1c0.01-0.01,0.02-0.03,0.04-0.05c0.1,0,0.19,0.01,0.29,0.02
		c0.61,0,1.22,0,1.82,0c0.27,0.01,0.55,0.01,0.83,0c2.81-0.01,5.62-0.07,8.43-0.24c0.8-0.16,1.95,0.04,2.84-0.14
		c0.02,0,0.05,0,0.07,0.01c0-0.01,0-0.01,0-0.02c0.34-0.08,0.65-0.21,0.86-0.45c0.57-0.83,0.88-1.95,0.87-3.05
		c0.17-0.35,0.27-0.76,0.27-1.26C948.48,294.91,948.16,293.36,946.47,293.44z"/>
	<g>
		<path class="st2" d="M94.92,342.2c-0.02-0.1-0.04-0.2-0.07-0.3C94.73,341.39,94.72,341.35,94.92,342.2z"/>
		<path class="st2" d="M108.31,347.15c0.07,0.06,0.17,0.14,0.29,0.24c0.18-0.23,0.36-0.45,0.56-0.67c1.25-1.39,2.69-2.31,4.27-2.8
			c0.1-2.32-0.69-4.82-2.26-6.1c-0.01-0.01-0.02-0.01-0.03-0.02c-0.13-1.58-0.84-2.67-2.17-2.81c-0.68,0.11-1.25,0.48-1.79,0.91
			c-0.7-0.68-1.37-1.33-1.9-1.78c-0.72-0.57-1.42-0.68-2.03-0.49c-0.39-1.11-0.81-2.26-1.69-3.02c-0.59-0.61-1.28-0.47-1.85-0.03
			c-0.01,0-0.02-0.01-0.04-0.01c-0.24,0.01-0.47,0.09-0.67,0.2c-1.45-1.78-3.84-0.53-4.37,1.5c-1.11,3.09-0.46,6.49,0.22,9.62
			c0.29,1.21,1.23,5.14,1.53,6c0.07,0.27,0.11,0.42,0.14,0.52c0.07,0.33,0.14,0.66,0.23,0.98c1.27,3.51,2.74,3.76,3.77,2.54
			c1.47,0.68,2.97-1.76,2.97-3.91c0.03-0.31,0.03-0.63,0.05-0.94C105.81,349.09,107.42,348.64,108.31,347.15z"/>
	</g>
</g>
<g id="Layer_6">
	<path class="st3" d="M625.22,314.76c-0.25-0.62-0.72-1.09-1.3-1.32c0.16-1.22,0.05-2.51-0.3-3.66c0.16-0.62,0.32-1.24,0.51-1.82
		c0.58-1.33,0.91-4.05,0.46-6.15c0.07-0.28,0.13-0.56,0.18-0.85c0.19-1.12-0.04-2.89-0.82-3.82c0.01-0.69-0.02-1.41-0.13-2.2
		c-0.07-0.64-0.17-1.28-0.3-1.92c0.99-2.39,1.7-5.01-0.22-8.77c-1.96-2.5-4.14-1.59-6.1,0.58c-0.86,0.57-1.68,1.39-2.41,2.27
		c-2.17,0.98-4.09,2.61-5.62,4.36c-2.13,2.85-4.36,6.76-5.36,10.74c-2.16,1.85-4.12,3.93-4.93,6.71c-0.15,0.63-0.3,1.33-0.42,2.06
		c-0.12,0.2-0.23,0.4-0.33,0.61c-0.17,0.17-0.33,0.34-0.47,0.53c-0.66,0.29-1.32,0.58-1.99,0.86c-0.87,0.33-1.72,0.74-2.33,1.46
		c-2,2.89-2.05,7.29,0.03,10.15c1.42,1.53,3.67,0.75,5.35,0.12c0.05-0.02,0.1-0.04,0.15-0.06c0.58,0.04,1.19,0.03,1.78,0
		c1.68,0,3.36,0,5.04,0.01c0.63-0.01,1.26-0.01,1.89,0c1.91,1.84,4.72,2.83,7.29,3.02c1.59-0.29,2.49-1.51,3.08-2.96
		c1.75,0.04,3.49,0.15,5.2,0.46c1.59-0.29,2.34-2.26,2.43-4.35C626.22,318.89,625.93,316.4,625.22,314.76z"/>
	<path class="st3" d="M755.56,297.18c-0.45-1.2-1.28-2.16-2.74-2.18c-0.22,0.01-0.43,0.05-0.65,0.06c0.05-0.22,0.1-0.45,0.14-0.67
		c4.64,0.16,5.83-2.39,5.43-6.69c-0.24-2.35-1.34-3.39-2.9-3.82c-0.33-1.31-1-2.47-2.18-3.2c-0.78-0.39-1.6-0.47-2.42-0.41
		c-0.35-0.41-0.79-0.72-1.34-0.84c-1.28-0.11-2.45,0.61-3.59,1.09c-2.42,1.29-5.04,2.39-7.11,4.21c-0.91,1.08-1.31,2.49-1.43,3.88
		c-0.23,0.46-0.43,0.93-0.59,1.43c-0.41,1.11-0.55,2.39-0.49,3.61c-0.16,0.58-0.28,1.17-0.36,1.77c-0.02,0.03-0.04,0.06-0.06,0.09
		c-0.63,0.35-1.16,0.71-1.6,1.06c-2.59,1.02-5.14,2.15-7.57,3.51c-0.75,0.61-1.38,1.37-1.88,2.23c-0.13,0.05-0.27,0.09-0.4,0.15
		c-1.89,1.5-2.01,4.37-1.58,6.58c0.24,1.67,0.95,2.52,1.92,2.94c0.02,0.03,0.04,0.06,0.06,0.09c1.51,1.72,4.49,0.91,7.26-0.28
		c2.1-0.35,4.18-0.79,6.24-1.31c0.07,0.01,0.13,0.05,0.2,0.06c0.2,0,0.39-0.01,0.59-0.02c0.03,0.02,0.06,0.04,0.09,0.06
		c1.37,0.62,2.9,0.77,4.38,0.87c2.45,0.13,4.88-0.18,7.16-0.99c1.68-0.2,3.34-0.5,4.92-1.06c1.63-0.45,2.17-2.14,2.13-3.69
		c0.1-0.23,0.18-0.47,0.24-0.74C758.05,302.48,757.99,298.65,755.56,297.18z"/>
	<path class="st3" d="M403.93,329.62c-0.6-0.68-1.31,0.58-1.85,0.86c-0.8,0.74-1.58,1.55-2.3,2.4c-0.22,0.23-0.42,0.47-0.62,0.71
		c-0.62,0.26-1.16,0.4-1.22,0.36c-0.32,0.06-0.59,0.21-0.81,0.42c-0.1-0.4-0.2-0.83-0.33-1.45c-0.65-2.65-2.99-3.42-4.01-0.49
		c-0.37,0.92-0.5,1.9-0.54,2.89c-0.62-0.49-1.29-1.03-2.02-0.82c-0.6,0.19-1,0.66-1.28,1.23c-1.07-0.71-1.87,0.74-1.98,1.93
		c-0.48,3.08,1.72,5.55,3.61,7.7c0.61,0.7,1.27,1.43,2,2.07c0.36,1.95,1.82,4.8,3.83,3.09c0.32-0.34,0.58-0.67,0.83-0.99
		c1.23,0.76,2.17-0.14,2.72-1.43c0.54-0.48,0.74-1.38,0.55-2.15c0.03-0.31,0.04-0.61,0.02-0.87c0.01-0.25-0.01-0.48-0.02-0.72
		c0.17-0.22,0.33-0.44,0.53-0.67c0.95-1.31,2.2-2.49,2.64-4.1c0.46-1.73,0.39-3.92-0.51-5.19
		C404.4,333.18,405.22,331.07,403.93,329.62z"/>
</g>
<g id="Layer_8">
</g>
<g id="Layer_7">
	<path class="st4" d="M755.65,317.46c0.1-0.09,0.19-0.17,0.27-0.27c0.48-0.27,0.95-0.55,1.4-0.86c1.64-1.51,1.93-4.02,1.67-6.14
		c-1.16-7.41-10.25-4.28-15.34-1.73c-0.51,0.02-1.03,0.04-1.54,0.06c-2.62,0.15-5.25,0.21-7.85,0.54
		c-8.14,0.94-16.44,1.95-24.28,4.37c-1.48,1.07-2.1,3.49-1.89,5.69c-0.84,0.25-1.66,0.5-2.47,0.74c-0.96,0.49-1.58,1.33-1.94,2.32
		c-2.31,0.19-5.08,0.33-5.83,2.75c-0.54,1.47-0.69,3.22-0.33,4.8c-3.47,0.76-6.94,1.5-10.42,2.22c-0.38-0.05-0.75-0.1-1.13-0.14
		c-0.15-1.1-0.51-2.16-1.14-3.05c-0.32-0.43-0.75-0.59-1.23-0.66v-0.01c-0.01,0-0.02,0-0.03,0c-0.68-0.08-1.43,0.04-2.09-0.02
		c-2.25,0.04-4.5,0.13-6.74,0.27c-11.96,0.81-23.9,1.86-35.82,3.16c-0.22-0.11-0.45-0.2-0.68-0.27c0.06-0.47,0.08-0.95,0.07-1.42
		c0.04-0.03,0.08-0.06,0.12-0.09c1.67-2.3,1.79-7.03-0.58-8.89c-0.78-0.52-1.75-0.39-2.61-0.19c-1.49,0.22-2.98,0.42-4.47,0.64
		c-3.4,0.64-6.79,1.35-10.16,2.09c-4.39,0.41-8.79,0.74-13.17,1.17c-0.59-0.21-1.21-0.37-1.8-0.5c-1.93-0.47-3.88-0.47-5.77-0.09
		c-0.1-0.03-0.19-0.06-0.29-0.08c-1.39-0.51-2.86,0.08-4.2,0.52c-2.61,0.94-5.04,2.31-7.38,3.79c-3.28,2.21-7.51,4.43-8.16,8.72
		c-0.45,2.03-0.28,4.11,0.46,5.76c-0.3,0.47-0.61,0.94-0.9,1.42c-0.77,1.24-1.52,2.51-2.18,3.83c-3.83,4.65-7.7,9.32-10.7,14.52
		c-0.15,0.07-0.3,0.15-0.45,0.22c-0.31,0.13-0.6,0.3-0.87,0.49c-0.01,0.01-0.03,0.01-0.04,0.02c0,0,0,0.01,0,0.01
		c-0.72,0.54-1.25,1.3-1.45,2.22c-0.25,0.63-0.37,1.68-0.32,2.78c-0.28,0.43-0.54,0.86-0.77,1.3c-1.71,1.05-3.42,2.09-5.12,3.16
		c-1.55,0.62-2.53,1.89-3.04,3.36c-0.72,0.89-1.02,2.84-0.85,4.65c-0.37,1.14-0.41,2.97-0.07,4.51c0.14,1.21,0.53,2.37,1.14,3.24
		c0.31,0.43,0.73,0.6,1.19,0.62v0.03c0.08-0.01,0.17-0.02,0.25-0.03c0.14-0.01,0.27-0.03,0.41-0.06c0.26-0.03,0.51-0.06,0.77-0.1
		c7.55-1.58,14.9-4.03,22.21-6.48c0.61-0.22,1.21-0.46,1.81-0.68c4.85-0.47,9.69-1.01,14.49-1.84c14.71-2.1,28.77-7.06,42.09-13.52
		c2.5-0.41,5-0.84,7.48-1.34c0.15-0.03,0.31-0.06,0.47-0.09c1.17-0.03,2.35,0.01,3.55,0.15c-0.42-0.22-0.85-0.42-1.29-0.6
		c6.71-1.37,13.8-2.94,20.43-4.54c0.93-0.07,1.85-0.15,2.78-0.21c1.57-0.17,3.14-0.28,4.69-0.6c0.76-0.08,1.51-0.31,2.1-0.79
		c1.23-0.17,2.46-0.36,3.69-0.55c0.5,0.05,1.01,0.09,1.39-0.23c0.69-0.11,1.39-0.22,2.08-0.34c0.41-0.1,0.83-0.2,1.24-0.29
		c0.8,0.09,1.57-0.06,2.15-0.51c1.15-0.27,2.3-0.53,3.44-0.81c2.27-0.35,4.52-0.78,6.74-1.34c0.5-0.19,0.98-0.36,1.46-0.53
		c4.21-0.65,8.42-1.29,12.63-1.96c9.01-1.49,18.06-2.65,27.12-3.8c1.68-0.3,3.45-0.32,5.13-0.65c1.18-0.05,2.36-0.11,3.53-0.18
		c1.6-0.13,3.21-0.28,4.8-0.55c0.91-0.13,1.84-0.58,2.08-1.54c0.45-1.23,0.48-2.75-0.08-3.96c-0.14-0.4-0.34-0.76-0.63-1
		c0.53-1.72,0.28-3.78-0.38-5.34c-0.13-0.3-0.29-0.52-0.47-0.7c0.23-1.66,0.26-3.43-0.01-5.03c0.07-0.02,0.14-0.02,0.21-0.04
		c0.38,0,0.7-0.14,0.94-0.42c0.67-0.44,0.88-1.28,1.16-1.99c0.53-1.93,0.45-4.06-0.38-5.9c-0.19-0.36-0.44-0.66-0.71-0.91
		c0.09-0.29,0.17-0.58,0.22-0.87C755.55,318.39,755.61,317.93,755.65,317.46z"/>
	<path class="st4" d="M67.92,378.69c-0.59-0.86-1.63-0.57-2.49-0.43c-0.49,0.07-0.99,0.14-1.48,0.24c-0.36,0.77-0.85,1.49-1.5,2.09
		c-0.71,0.66-1.36,1.42-2.09,2.06c-1.25,1.09-2.67,1.77-4.23,2.28c-0.11,0.05-0.23,0.1-0.38,0.16c-0.1,0.04-0.18,0.08-0.27,0.12
		c-0.81,0.54-1.86,0.97-2.77,1.12c-0.2,1.15-0.16,2.35,0.08,3.46c0.14,1.08,0.53,1.85,1.06,2.37c-0.15,2.07,1.04,5.76,3.18,3.23
		c0.33-0.28,0.81-0.69,1.36-1.16c0.36-0.11,0.72-0.24,1.07-0.38c0.18-0.05,0.35-0.13,0.5-0.22c0.64-0.19,1.27-0.4,1.91-0.59
		c-0.15,1.19,0.15,2.45,1.05,3.25c1.8,0.19,2.88-1.95,3.1-3.5c0.28-0.75-0.07-2.81-0.28-3.85c0.15-0.5,0.26-1,0.3-1.53
		c0.83-0.26,1.71-0.47,2.11-1.28C69.44,383.95,69.37,380.79,67.92,378.69z M62.24,391.69c-0.08,0.17-0.14,0.35-0.2,0.53
		c-0.45,0.03-0.89,0.07-1.34,0.1c0.01-0.02,0.01-0.04,0.02-0.06c0.57-0.48,1.14-0.97,1.7-1.43c0.04,0.11,0.07,0.24,0.08,0.39
		C62.41,391.38,62.32,391.53,62.24,391.69z"/>
</g>
<g id="Layer_9">
	<path class="st5" d="M735.56,283.65c0.01-0.08,0.01-0.15,0.01-0.22c0-0.01,0-0.03,0-0.04c2.12-0.28,2.02-1.39,1.89-2.45
		c-0.25-2.23-0.47-4.51-1.36-6.59c-0.77-1.99-2.7-3.23-4.39-1.38c-1.52,1.29-2.75,2.89-3.66,4.67c-1.32,0.11-2.81,0.19-4.33,0.24
		c-0.12-0.01-0.24-0.01-0.37,0.01c-2.07,0.06-4.16,0.06-5.91,0.04c-0.31-0.24-0.62-0.45-0.94-0.65c-0.78-1.34-1.53-2.79-2.99-3.45
		c-0.14-0.08-0.28-0.15-0.44-0.2c-0.23-0.36-0.49-0.7-0.89-0.92c-0.54-0.32-1.06-0.13-1.59,0.11c-0.52,0.12-1.02,0.32-1.47,0.6
		c-0.98-1.29-1.96-2.6-3.39-3.34c-2.04-0.69-3.35,0.26-4.14,1.91c-0.16-0.03-0.31-0.06-0.46-0.09c-2.3-0.52-2.34-0.46-5.23-1.54
		c-0.29-0.14-0.59-0.26-0.89-0.36c0.11-2.36,0.03-4.54-0.1-5.94c0.1-1.03,0.15-2.07,0.12-3.11c0.03-2.64-0.64-5.69-1.48-8.49
		c0.36-2.15,0.4-4.36,0.27-6.38c-0.31-3.58-1.85-8.87-4.48-12.68c-0.31-2.26-0.65-4.74-2.53-6.2c-0.92-0.57-2.11-0.58-3.11-0.17
		c-0.22-0.66-0.46-1.31-0.72-1.95c-0.76-1.38-1.36-4.34-3.44-3.53c-1.3,0.81-2.76,1.49-3.76,2.67c-0.02-0.03-0.03-0.06-0.05-0.09
		c-0.6-0.85-2.07-0.44-3.79,0.47c-0.06-0.07-0.11-0.16-0.18-0.23c-0.89-0.95-2.03-0.05-2.7,0.72c-1.71,1.67-3.39,3.37-5.07,5.07
		c-0.3,0.27-0.59,0.52-0.88,0.78c-0.48-0.61-1.13-0.9-2-0.61c-1.51,1.07-2.7,2.52-3.92,3.89c-0.44,0.51-0.88,1.02-1.32,1.53
		c-0.95-0.41-1.75,0.34-2.25,0.84c-2.82,2.31-5.38,4.89-8,7.42c-3.54,3.84-8,6.39-11.21,11.4c-0.54,0.08-1.03,0.45-1.28,0.99
		c-0.69,1.12-0.95,2.37-1.02,3.66c-0.81,2.07-1.22,3.41-1.39,3.71c-0.9,2.18-1.57,4.64-1,6.99c0.09,0.63,0.29,1.2,0.55,1.67
		c-0.05,0.58-0.06,1.15-0.03,1.71c-0.07,1.49-0.11,2.98-0.16,4.47c0,1.76-0.37,3.57,0.07,5.3c0.18,1.15,0.96,3.11,2.33,2.96
		c-0.19,2.45-0.3,4.91-0.34,7.37c-0.86,5.1-0.64,11.48,0.07,17.26c-0.91,2.12-1.05,4.79-0.86,6.87c0.26,2.67,1.3,5.29,2.81,7.52
		c0.47,1.15,1.11,2.22,2.02,3.14c0.33,0.34,0.69,0.61,1.07,0.84c0.22,0.46,0.45,0.9,0.68,1.33c0.99,1.81,2.92,3.35,5.06,3.19
		c1.62-0.38,2.98-1.37,4.15-2.59c0.33,0.2,0.66,0.41,1,0.59c0.45,0.24,0.93,0.37,1.42,0.42c0.44,0.34,0.95,0.6,1.47,0.78
		c1.49,0.46,3.03,0.68,4.59,0.82c1.73,0.69,4.33,0.7,7.06,0.27c4.41-0.08,8.87-0.66,13-2.22c0.18-0.02,0.36-0.04,0.55-0.06
		c0.62,0.45,1.26,0.85,1.93,1.2c4.13,2.2,9.25,1.44,13.03-1.17c1.67,0.55,3.49,0.6,5.42-0.07c0.39-0.23,0.76-0.5,1.11-0.78
		c3.95,0.27,8.82-4.52,10.92-7.59c0.3-0.38,0.57-0.78,0.83-1.19c0.6-0.64,1.14-1.29,1.58-1.89c2.92-3.5,4.24-9.45,3.93-15.46
		c0.18-0.22,0.36-0.44,0.52-0.68c1.2,2.04,3.28,3.67,5.63,2.76c2.13-0.97,3.47-2.92,4.56-5c0.11-0.05,0.22-0.08,0.34-0.13
		c1.76-1.07,3.27-2.5,4.49-4.15c1.76-1.41,2.99-3.82,3.33-6.56c0.82-0.26,1.59-0.71,2.17-1.4c-0.48-0.19-0.94-0.37-1.41-0.55
		c0.42-1.38,0.61-2.83,0.66-4.31C735.43,284.84,735.52,284.25,735.56,283.65z"/>
	<path class="st6" d="M601.36,299.03c0.84-1.47,1.67-2.97,1.57-4.66c-0.2-1.23-0.74-1.49-1.28-1.14c-0.12-0.64-0.31-1.26-0.56-1.84
		c-0.16-0.25-0.33-0.51-0.49-0.76c-0.6-0.82-1.72-0.7-2.61-0.88c-1.26-0.13-2.53-0.16-3.8-0.2c-0.52-0.5-1.23-0.77-1.93-1.03
		c-1.3-0.48-2.6-0.96-3.92-1.35c-2.82-0.81-5.65-1.63-8.52-2.23c-5.29-1.61-10.65-3.02-16.19-3.35c-0.36-0.73-0.9-1.33-1.73-1.43
		c-0.01,0-0.02,0-0.03-0.01c-0.09-0.02-0.18-0.04-0.27-0.05c-0.01,0-0.01,0-0.02,0c-0.46-0.09-0.93-0.15-1.39-0.23
		c-4.3-0.69-8.61-1.25-12.9-1.97c-1.11-0.53-2.48-0.83-3.94-1.24c-5.51-1.64-11.18-2.55-16.86-3.37c-3.49-0.38-6.98-0.85-10.48-1.14
		c-0.61,0.02-1.33-0.12-1.99-0.06c-5.65-0.83-11.29-1.73-16.94-2.55c-1.5-0.23-3.02-0.36-4.5-0.65c-0.73-0.2-1.63-0.15-2.19,0.4
		c-0.44,0.4-0.75,0.9-0.99,1.43c-1.61-0.06-3.21-0.06-4.82,0.01c-8.44-0.96-17.04-0.62-25.51-0.58c-1.67,0.1-3.35,0.06-5.01,0.31
		c-0.79,0.05-1.61,0.33-2.05,1.01c-3.11,0.19-6.22,0.48-9.3,0.88c-0.46,0.35-0.82,0.82-1.09,1.36c-3.17,0.35-6.33,0.75-9.49,1.23
		c-0.46-0.09-0.92-0.13-1.34-0.15c-1.63,0.07-3.26,0.28-4.87,0.61c-0.26-0.44-0.58-0.85-1-1.17c-1.56-0.55-3.23,0.41-4.78,0.72
		c-0.21,0.06-0.41,0.11-0.62,0.17c-4.46,0.82-10.65,1.83-14.82,3.24c-1.32,0.52-3.07,0.8-4.37,1.56c-2.41,0.5-4.81,1.04-7.21,1.56h0
		v0c-0.37,0-0.68,0.14-0.91,0.41c-2.01,1.96-1.85,6.22-0.28,8.42c0.31,0.39,0.7,0.61,1.2,0.65c1.37,0.01,2.73-0.12,4.08-0.34
		c0.31,0.09,0.65,0.08,0.98-0.02c0.45-0.09,0.9-0.2,1.35-0.29c0.34,0.45,0.79,0.77,1.35,0.87v0.04c0.03-0.01,0.07-0.01,0.1-0.02
		c0.02,0,0.03,0.01,0.04,0.01c0.26-0.03,0.52-0.06,0.79-0.09c2.27,1.58,6.75,1.77,10.61,1.67c2.13,2.47,6.41,2.28,9.4,2.91
		c0.54,0.07,1.08,0.13,1.62,0.2c3.29,1.08,7.3,1.36,9.86,1.96c10.29,1.42,22.37,2.37,32.19,4.29c0.04,0.06,0.06,0.13,0.1,0.18
		c0.31,0.4,0.72,0.63,1.23,0.66c0.86,0.14,1.72,0.27,2.58,0.4c0.01,0.02,0.02,0.04,0.03,0.06c0.72,1.39,2.51,1.36,3.87,1.36
		c1.9,0.07,3.8,0.14,5.7,0.21c1.7,0.09,3.39,0.2,5.09,0.32c2.46,0.35,4.92,0.7,7.38,1.06c0.05,0.08,0.09,0.17,0.14,0.24
		c1.05,1.11,3.03,0.8,4.44,1.22c2.46,0.33,4.92,0.69,7.41,0.78c2.26,0.1,4.52,0.22,6.79,0.35c4.27,0.81,8.53,1.62,12.82,2.27
		c2,0.26,3.99,0.51,5.99,0.73c0.16,0.1,0.32,0.19,0.5,0.25c0.63,0.14,1.26,0.24,1.89,0.32c0.15,0.33,0.33,0.63,0.52,0.87
		c0.59,0.77,1.63,0.74,2.5,0.94c1.53,0.16,3.06,0.21,4.6,0.26c1.13,0.18,2.26,0.35,3.39,0.45c2.58,0.23,5.17,0.39,7.75,0.57
		c2.46,0.11,6.43,0.24,9.82,0.4c1.14,0.21,2.28,0.43,3.42,0.65c1.75,0.15,3.94,1.26,5.36-0.19c0.09-0.13,0.17-0.27,0.25-0.41
		c2.01,0.18,4.05,0.14,6.05,0.18c0.59-0.01,1.17-0.02,1.76-0.03c1.72,0.31,3.57,0.28,5.12,0.17c0.83-0.09,1.67-0.23,2.47-0.44
		c0.55-0.03,1.11-0.06,1.66-0.11c0.27,0,0.54-0.02,0.8-0.05c0.44,3.72,3.01,5.8,5.91,0.31c2.21-4.31,4.87-8.37,7.23-12.59
		c0.18-0.45,0.35-0.91,0.52-1.37c0.02-0.03,0.04-0.08,0.07-0.15C601.08,301.49,601.34,300.3,601.36,299.03z"/>
	<path class="st6" d="M575.05,340.63c-0.87-0.86-2.3-0.07-3.36-0.02c-0.23,0.04-0.45,0.09-0.67,0.13c-0.31-1.97-1.31-4.05-3.59-2.91
		c-0.6,0.18-1.23,0.36-1.86,0.54v-0.02c-0.04,0.01-0.11,0.03-0.17,0.04c-0.4,0.02-0.82,0.11-1.21,0.19
		c-1.47,0.26-2.94,0.49-4.41,0.74c-2.76,0.49-5.52,1.04-8.28,1.6c-4.43,0.68-8.86,1.32-13.27,2.08c-3.58,0.68-9.18,2.03-10.76,2.25
		c-0.37,0.09-0.69,0.25-0.97,0.47c-0.04,0-0.07,0.01-0.11,0.01c-0.34-0.58-0.82-1-1.45-1.13v-0.02c-0.02,0-0.03,0-0.05,0.01
		c-0.24-0.05-0.49-0.06-0.78-0.02c-6.14-0.14-12.22,0.55-18.27,1.5c-1.19,0.08-2.38,0.16-3.57,0.27
		c-8.61,0.75-17.16,1.94-25.69,3.32c-2.96,0.32-5.92,0.68-8.87,1.09c-0.47-0.2-0.94-0.39-1.39-0.54c-2.82-0.86-5.72,0.29-8.55,0.57
		c-5.56,0.91-11.17,1.49-16.74,2.4c-2.68,0.36-5.37,0.72-8.06,1.12c-7.26,0.46-14.51,1.39-21.51,3.43
		c-1.47,0.47-2.81,0.79-3.95,1.19c-1.55,0.21-3.09,0.47-4.61,0.83c-0.85,0.19-1.74,0.38-2.6,0.63c-0.4,0.04-0.8,0.08-1.2,0.12
		c-3.13,0.18-6.27,0.37-9.39,0.54c-11.45,0.87-23.03,1.36-34.24,4.01c-0.49,0.12-0.97,0.26-1.46,0.39
		c-1.01,0.11-2.01,0.22-3.02,0.35c-0.76,0.11-1.31,0.51-1.72,1.05c-0.79,0.27-1.58,0.55-2.17,1.17c-0.09,0.12-0.17,0.24-0.24,0.37
		c-1.04,0.1-1.64,1.23-1.92,2.59c-0.74,0.18-1.62,0.15-2.17,0.69c-0.67,0.44-0.88,1.28-1.16,1.99c-0.59,2.35-0.62,5.84,1.67,7.25
		c1.78,0.83,3.76,0.08,5.59-0.24c0.09,0.32,0.19,0.64,0.32,0.94c0.24,0.54,0.62,0.93,1.08,1.24c0,0,0,0.01,0,0.01
		c4.39,2.97,8.86,5.92,13.78,7.95c0.84,0.32,1.69,0.61,2.54,0.9c1.44,1.03,2.87,2.07,4.33,3.09c1.54,0.94,2.95,2.64,4.85,2.67
		c1.02-0.22,1.69-0.9,2.11-1.8c1.8,0.31,3.61,0.58,5.43,0.83c1.12,0.53,2.31,0.89,3.53,1.16c3.47,0.73,6.97,1.31,10.45,1.97
		c4.1,0.83,8.24,1.35,12.4,1.63c0.15,0.02,0.3,0.05,0.45,0.07c0.34,0.03,0.69,0.05,1.03,0.07c2.6,0.39,5.22,0.55,7.85,0.59
		c0.78,0.48,1.84,0.61,2.73,0.78c2.25,0.44,4.51,0.57,6.79,0.48c5.15-0.1,10.35-0.39,15.38-1.61c0.14-0.03,0.29-0.07,0.44-0.11
		c3.4-0.38,6.78-0.89,10.13-1.54c0.03,0.01,0.05,0.02,0.08,0.03c0.3-0.07,0.59-0.15,0.88-0.22c1.99-0.41,3.97-0.85,5.93-1.37
		c2.46-0.75,4.87-1.65,7.28-2.57c0.15-0.05,0.3-0.1,0.45-0.15c0.89-0.07,1.8-0.26,2.56-0.37c2.45-0.35,4.89-0.82,7.31-1.34
		c0.58-0.03,1.17-0.06,1.75-0.1c5.57-0.98,9.81-1.99,13.68-3.11c0.89-0.46,1.36-1.3,1.57-2.24c0.99-0.29,1.98-0.59,2.96-0.89
		c0.97-0.18,1.95-0.37,2.92-0.55c4.15-0.84,8.32-1.63,12.39-2.84c1.47-0.37,2.99-0.91,3.71-2.22c0.6-0.15,1.2-0.31,1.8-0.44
		c4.64-1.14,10.71-2.74,16.98-4.37c3.07-0.84,6.09-1.88,8.94-3.32c0.95-0.69,1.39-1.79,1.59-2.93c3.05-1.08,6.05-2.3,8.93-3.81
		c1.13-0.41,1.84-1.39,2.21-2.58c1.76-0.7,3.49-1.47,5.17-2.34c2.74-1.07,4.15-3.76,3.79-6.65c-0.02-0.35-0.06-0.69-0.11-1.02
		c0.68-0.52,1.28-1.13,1.72-1.91c0.1-0.17,0.18-0.37,0.27-0.57c3.08-0.88,6.49-1.8,7.05-5.26
		C576.71,344.79,576.62,342.13,575.05,340.63z"/>
	<path class="st7" d="M590.83,276.07c-1.43-3.22-4.88-4.96-7.39-7.28c-0.5-0.53-0.99-0.72-1.44-0.66c-1.18-0.83-1.31-1.21-3.45-2.81
		c-6.48-4.67-12.63-9.87-19.65-13.72c-0.38-0.24-0.76-0.49-1.14-0.73c-2.48-1.39-6.21-4.25-8.96-4.45c-2.7-1.23-5.47-2.28-8.37-2.94
		c-0.45-0.18-0.83-0.12-1.17,0.04c-1.19-0.34-2.39-0.64-3.6-0.89c-1.16-0.09-2.71-0.99-3.68-0.06c-0.05,0.05-0.09,0.1-0.14,0.15
		c0,0-0.01,0-0.01,0c-0.13-0.13-0.25-0.25-0.4-0.36c-0.49-0.15-0.98-0.28-1.47-0.42c-2.19-0.91-4.38-1.82-6.56-2.73
		c-1.7-0.77-3.61-1.95-5.5-1.22c-2.96-0.99-5.93-1.95-8.93-2.78c-8.84-2.19-17.83-3.55-26.86-4.64c-2.92-0.61-5.83-1.2-8.75-1.77
		c-7.22-1.08-14.52-1.46-21.79-1.97c-0.59,0.02-1.26-0.15-1.86-0.08c-0.01,0-0.01,0-0.02,0v0c-0.29,0.04-0.56,0.13-0.79,0.35
		c-0.64,0.58-0.97,1.37-1.13,2.22c-0.92-0.14-1.83-0.28-2.75-0.4c-0.27-1.19-0.8-2.22-1.58-2.72c0-0.01,0-0.02,0-0.04
		c-0.03-0.01-0.06-0.02-0.09-0.03c-0.12-0.07-0.25-0.11-0.38-0.16c-1.88-1.67-4.6-2.54-6.85-3.47c-4.39-1.72-8.91-3.08-13.46-4.29
		c-3.71-1.1-7.49-1.82-11.31-2.29c-0.56-0.49-1.14-0.97-1.71-1.44c-0.4-1.55-1.31-3.06-2.38-4.39c-0.28-0.65-0.63-1.27-1.08-1.83
		c-2.46-2.86-5.71-4.78-9.1-6.41c-2.47-1.75-5.05-3.35-7.64-4.93c0.02-1.86-0.45-3.72-1.52-5.23c-2.18-2.9-5.97-3.64-9.11-5.07
		c-0.1-0.05-0.2-0.09-0.31-0.14c0.07-1.1-0.03-2.2-0.19-3c-0.65-3.86-5.2-4.81-8.18-6.41c-4.49-2.07-9.08-3.89-13.81-5.32
		c-4.54-3.16-10.07-4.1-15.43-4.85c-2.71-0.45-5.43-0.91-8.14-1.38c-0.17-0.04-0.32-0.08-0.49-0.13c-2.92-0.72-5.86-1.36-8.85-1.68
		c-0.13-0.08-0.25-0.17-0.39-0.24c-5.9-2.34-12.25,0.03-18.03,1.67c-6.02,1.93-11.58,5.03-16.44,9.07c-2.53,2.04-5.2,4.05-6.94,6.85
		c-1.35,2.19-2.77,4.59-3.72,7.1c-1.71,1.33-3.41,2.66-5.1,3.99c-0.61,0.49-1.23,0.96-1.84,1.43c-1.88,0.51-3.75,1.13-5.6,1.77
		c-0.44-0.18-0.96-0.19-1.44-0.16c-1.61,0.11-3.19,0.37-4.77,0.67c-0.61,0.12-1.22,0.24-1.84,0.35c-0.16,0.02-0.33,0.05-0.49,0.07
		c-1.64-0.06-3.29,0-4.93,0.12c-1.63,0.18-3.23,0.61-4.79,1.1c-0.76,0.26-1.61,0.52-1.96,1.31c-1.4,2.36-1.31,5.77,0.25,8.03
		c0.12,0.17,0.26,0.29,0.41,0.39c-0.05,0.15-0.12,0.29-0.16,0.45c-0.93,3.01-0.8,6.08,0.46,8.38c0.27,0.89,0.69,1.61,1.23,2.19
		c-0.01,0.07-0.02,0.14-0.02,0.21c-0.13,1.85,0.14,4.19,1.75,5.35c1.14,0.4,2.37,0.48,3.57,0.57c0.37,0.87,0.91,1.63,1.66,2.2
		c0.63,0.26,1.28,0.29,1.94,0.22c0.17,0.34,0.37,0.68,0.59,0.99c2.24,2.03,5.68,0.96,8.26,0.18c2.82-1.08,5.44-2.65,7.97-4.29
		c0.11-0.08,0.22-0.16,0.33-0.23c0.37-0.04,0.74-0.07,1.12-0.11c0.38,0,0.7-0.14,0.94-0.42c0.52-0.51,0.9-1.16,1.15-1.9
		c7.33-1.16,14.48-3.3,21.65-5.22c0.06-0.02,0.12-0.03,0.18-0.05c3.05,1.14,5.13,1.26,7.84,2.14c7.16,1.72,14.36,3.34,21.52,5.07
		c7.74,1.91,15.44,3.99,23.14,6.04c0.01,0.04,0.02,0.09,0.03,0.14c0.3,0.84,0.62,1.73,1.43,2.2c2.06,0.59,4.12,1.18,6.17,1.78
		c2.22,0.63,4.43,1.31,6.62,2.01c0.2,0.26,0.42,0.49,0.67,0.7c0,0,0,0.01,0,0.01c0.01,0,0.01,0,0.02,0.01
		c0.21,0.17,0.42,0.32,0.67,0.45c3.11,1.29,6.22,2.66,9.38,3.89c0.1,0.29,0.2,0.57,0.31,0.83c0.79,1.8,2.75,2.02,4.5,2.03
		c0.18,0.01,0.36,0.01,0.54,0.02c0.24,0.15,0.51,0.25,0.8,0.32v0.01c0.01,0,0.02,0,0.03,0c0.61,0.14,1.29,0.16,1.96,0.23
		c0.96,0.1,1.91,0.14,2.87,0.15c8.15,0.98,16.14,3.16,24.32,3.84c1.36,0.04,2.98,0.16,4-0.91c0.36-0.53,0.64-1.13,0.85-1.76
		c4.75,0.5,9.51,1.28,14.25,1.55c1.78-0.26,2.67-2.49,2.72-4.79c0.67,0.03,1.34,0.06,2.01,0.08c1.01-0.09,2.31,0.11,3.3-0.24
		c2.2,0.48,4.5,0.44,6.74,0.61c0.2,0,0.39,0.02,0.59,0.03c1.66,0.83,3.59,0.74,5.42,0.75c0.72,0,1.44,0,2.16,0
		c1.31,0.22,2.62,0.43,3.93,0.61c6.38,1,12.75,2.16,19.08,3.44c0.76,0.2,1.53,0.39,2.29,0.59c7.63,1.83,13.76,4.04,22.1,6.98
		c10.12,3.63,20.26,7.19,30.34,10.94c2.56,0.96,5.15,1.84,7.65,2.96c0.92,0.38,1.79,1.01,2.79,1.14c1.21-0.28,1.88-1.39,2.18-2.73
		c0.24-0.1,0.45-0.26,0.64-0.47c0.8,0.36,1.58,0.72,2.35,1.08c5.92,2.61,11.68,5.58,17.41,8.59c0.91,0.46,1.79,1,2.76,1.33
		c0.32,0.2,0.63,0.23,0.95,0.08c0.57-0.21,1-0.63,1.31-1.17c0.07,0.04,0.13,0.07,0.2,0.1c1.93,1,3.74,2.32,5.91,2.76
		c0.6-0.05,1.05-0.4,1.39-0.87c0.54,0.29,1.07,0.58,1.61,0.86c0.98,0.64,1.96,1.28,2.93,1.94c1.25,0.93,2.55,1.8,3.74,2.8
		c0.83,0.67,2.15,1.73,3.09,0.74c0.25-0.25,0.46-0.52,0.64-0.82c0.84,0.02,1.51-0.24,1.84-0.95
		C591.6,280.9,591.62,278.2,590.83,276.07z"/>
	<path class="st7" d="M555.91,388.95c-0.39-0.39-0.87-0.71-1.38-0.66c0.06-1.47-0.27-2.95-0.97-4.16c-0.73-1.24-1.69-1.27-2.68-0.91
		c-0.04-0.33-0.08-0.65-0.15-0.96c-0.23-1.21-0.84-2.84-2.22-2.99c-3.91-0.38-7.62,0.79-10.84,2.98c-3.16,2.06-6.29,4.21-9.33,6.43
		c-0.77,0.55-1.36,1.28-1.77,2.11c-11.2,4.24-21.88,9.74-32.83,14.56c-5.56,2.47-11.1,4.99-16.63,7.53c-1.75,0.7-3.48,1.42-5.19,2.2
		c-1.06,0.53-2.2,0.9-3.25,1.44c-0.23,0.14-0.42,0.33-0.59,0.54c-0.62,0.29-1.23,0.57-1.85,0.86c-10.71,1.23-21.3,3.58-31.73,6.29
		c-10.21,2.91-20,7.14-29.43,11.96c-1.15,0.58-2.3,1.17-3.44,1.78c-5.06,0.83-10.13,1.6-15.19,2.41c-2.68,0.52-5.36,1.07-8.04,1.63
		c-1.22-0.38-2.44-0.76-3.65-1.15c-9.75-3.23-19.8-5.38-29.96-6.72c-0.19-0.32-0.41-0.63-0.65-0.92c-4.12-3.45-9.32-5.2-14.22-7.23
		c-6.09-2.7-12.39-5.12-19.13-5.38c-3.65-0.07-7.6-0.96-11.03,0.6c-4.6-1.04-9.36-1.04-14.03-1.61c-2.73-0.27-5.46-0.51-8.19-0.71
		c-0.25-0.69-0.59-1.35-1.03-1.93c-1.59-1.64-4.06-1.05-6.1-0.89c-1.18,0.04-2.36,0.13-3.53,0.22c-0.82-1.16-2.57-1.01-3.86-0.98
		c-2.74,0.15-5.48,0.22-8.22,0.26c-2.63-0.13-5.29-0.07-7.92-0.19c-3.62-0.12-7.24-0.23-10.86-0.34c-5.09-0.38-10.19-0.73-15.29-0.7
		c-1.69,0.36-2.35,2.33-2.42,4.35c-1.93,0.13-3.87,0.29-5.79,0.49c-5.13,0.32-10.25,0.78-15.31,1.64c-0.34,0.2-0.64,0.49-0.9,0.83
		c-2.33,0.12-4.65,0.3-6.97,0.61c-2.19,0.49-5.14,0.1-6.29,2.44c-0.21,0.49-0.38,1.04-0.5,1.6c-1.12,0.28-2.25,0.55-3.37,0.81
		c-2.1,0.57-4.21,1.14-6.23,1.98c-1.71,0.65-3.1,1.72-3.3,3.67c-0.06,0.32-0.08,0.61-0.12,0.91c-2.53,1.31-4.89,2.94-6.55,5.25
		c-1.42,2.22-2.35,5.11-1.8,7.73c-2.7,3.45-3.17,7.58-2.03,11.43c-0.02,3.08,0.91,6.16,2.9,8.49c1.5,1.54,3.5,2.4,5.51,3.05
		c3.14,1.25,6.46,1.94,9.81,2.29c2.24,3.12,6.27,3.64,9.83,4.06c5.34,0.52,10.71,0.27,16.06,0.21c5.44-0.01,10.86-0.47,16.25-1.2
		c8.23-0.96,16.45-2,24.61-3.39c0.23-0.04,0.46-0.07,0.7-0.11c0.79,0.54,1.62,1.02,2.49,1.45c0.06,0.11,0.12,0.23,0.19,0.34
		c7.44,9.54,28.56,9.55,39.91,10.59c1.27,0.02,2.55,0.01,3.82-0.01c1.09,0.06,2.43,0.15,3.88,0.22c0.03,0,0.05,0.01,0.08,0.01
		c1.54,0.3,3.1,0.49,4.66,0.59c0.4,0.74,0.97,1.38,1.76,1.83c2.6,1.05,5.49-0.11,7.98-0.99c1.57-0.6,3.15-1.2,4.73-1.8
		c4.07-0.67,8.15-1.36,12.19-2.2c0.45-0.05,0.9-0.09,1.35-0.14c11.81-1.1,27.44-6.39,36.17-10.5c0.53-0.02,1.05-0.06,1.56-0.23
		c0.42-0.21,0.75-0.53,1.02-0.91c1.8-0.62,3.61-1.25,5.41-1.86c0.07,0.08,0.13,0.16,0.21,0.24c0.35,0.44,0.93,0.44,1.45,0.38
		c1.74-0.02,3.42-0.59,5.07-1.08c0.2-0.07,0.4-0.14,0.6-0.21c1.05-0.09,2.27-0.71,3.16-0.78c4.54-1.15,9.09-2.31,13.63-3.46
		c16.8-3.82,33.51-8.05,49.96-13.17c1.25-0.41,2.49-0.86,3.73-1.32c2.12-0.51,4.31-1.04,6.61-1.6c1.45-0.37,2.93-0.73,4.4-1.13
		c0.19,0.07,0.39,0.13,0.61,0.17c1.26,0.01,2.43-0.44,3.57-0.94c0.95,0.08,2.14-0.42,3.23-0.94c4.26-1.26,8.62-2.01,13.71-3.16
		c1.64,0.95,4.14-0.09,6.67-0.91c5.47-1.9,11.02-3.56,16.53-5.32c2.6-0.79,5.19-1.63,7.81-2.33c0.09-0.03,0.19-0.06,0.29-0.09
		c0.27,0.04,0.54,0.03,0.8-0.05c0.85-0.21,1.67-0.52,2.49-0.82c0.53-0.11,2.08-0.57,2.58-0.72c-0.05,0.02-0.11,0.03-0.18,0.05
		c2.4-0.6,4.78-1.28,7.04-2.3c1.43-0.51,2.93-1.25,3.63-2.68c0.04-0.1,0.08-0.21,0.12-0.31c2.15-1.04,4.22-2.24,5.97-3.89
		c2.69-2.38,4.94-5.22,6.69-8.35c0.22-0.27,0.44-0.55,0.66-0.83c0.01,0,0.01-0.01,0.02-0.01c0.04-0.01,0.07-0.02,0.11-0.03
		c0-0.01,0-0.02,0-0.03c0.58-0.41,1-1,1.29-1.7c1-1.24,2.02-2.47,3.15-3.58c1.43-1.51,3.05-2.97,3.66-5.03c0,0,0-0.01,0-0.01
		c0.15-0.28,0.28-0.63,0.38-1.01c1.22-0.99,2.44-1.99,3.64-3c0.01,0,0.02-0.01,0.03-0.01c0,0,0-0.01,0-0.01
		c0.19-0.16,0.39-0.32,0.58-0.48C557.56,394.98,557.55,391.31,555.91,388.95z"/>
	<path class="st8" d="M271.63,331.03c-0.21-0.87-0.98-1.47-1.83-1.72c-0.5-1.14-1.19-2.19-2.05-3.05c-0.47-0.42-0.89-0.66-1.28-0.78
		c-0.58-1.97-1.57-3.78-2.85-4.94c-0.02-0.04-0.03-0.09-0.04-0.13c-0.96-2.41-2.59-2.23-3.55-0.84c-0.53,0.27-0.96,0.67-1.29,1.15
		c-0.49,0.15-0.92,0.4-1.3,0.74c-1.12-0.18-2.39,0.18-3.44,0.5c-2.61,1.7-2.7,7.46-0.42,9.44c0.6,0.47,1.32,0.7,2.07,0.84
		c1.09,1.22,2.67,1.48,3.83,0.65c0.2,0.05,0.41,0.09,0.61,0.13c0.41,0.23,0.86,0.39,1.38,0.47c0.54,1.12,1.33,2,2.73,1.64
		c0.2,0.06,0.4,0.08,0.6-0.03c0.38-0.17,0.69-0.43,0.96-0.74c0.47,0.11,0.95,0.2,1.42,0.28c0.05,0.02,0.1,0.05,0.16,0.09
		c0.02,0.02,0.04,0.05,0.06,0.07c0.77,1.8,1.66,1.96,2.31,1.3c0.32,0.46,0.66,0.89,1.17,1.23
		C272.99,338.46,271.82,331.97,271.63,331.03z"/>
</g>
<g id="Layer_10">
	<g>
		<g>
			<path class="st9" d="M708.28,307.17c2.48-2.77,5.1-5.38,7.88-7.85c-3.13,1.14-6.26,2.28-9.4,3.42c-1.5,2.22-2.62,4.63-3.13,7.28
				c-0.33,1.73-0.36,2.27,1.57,2.01c0.94-0.13,1.88-0.53,2.77-0.85c2.67-0.94,5.42-1.81,8.01-2.95c2.5-1.11,4.11-3.16,5.7-5.32
				c-0.55,0.75-3.8,1.33-4.72,1.66c-1.49,0.54-3.33,0.91-4.68,1.76c-3.31,2.08-5.58,4.98-6.81,8.7c0.16-0.49,4.13-1.45,4.72-1.66
				c1.46-0.53,3.39-0.88,4.68-1.76c2.88-1.96,4.92-4.49,6.22-7.72c-0.22,0.54-4.08,1.43-4.72,1.66c-1.31,0.48-3.62,0.81-4.68,1.76
				c-2.02,1.81-3.27,3.89-3.92,6.52c0.1-0.42,4.19-1.47,4.72-1.66c1.32-0.48,3.61-0.81,4.68-1.76c1.78-1.59,2.93-3.32,3.69-5.58
				c-0.17,0.49-4.13,1.45-4.72,1.66c-1.14,0.41-3.88,0.81-4.68,1.76c-1.7,2.01-3.16,4.1-4.46,6.38c0.38-0.66,3.94-1.38,4.72-1.66
				c1.42-0.52,3.45-0.85,4.68-1.76c2.83-2.07,5.07-4.55,6.86-7.57c-0.4,0.68-3.92,1.37-4.72,1.66c-1.43,0.52-3.43,0.86-4.68,1.76
				c-3.11,2.24-5.22,5.17-6.36,8.83c0.15-0.47,4.15-1.46,4.72-1.66c1.02-0.37,4.04-0.84,4.68-1.76c2.09-3,3.62-6.18,4.64-9.69
				c-0.13,0.46-4.16,1.46-4.72,1.66c-1.15,0.42-3.86,0.8-4.68,1.76c-2.4,2.79-4.15,5.85-5.32,9.34c0.16-0.49,4.13-1.45,4.72-1.66
				c1.24-0.45,3.73-0.8,4.68-1.76c3-3.01,5.19-6.45,6.65-10.44c-0.19,0.52-4.11,1.44-4.72,1.66c-1.29,0.47-3.66,0.8-4.68,1.76
				c-2.17,2.02-3.58,4.38-4.35,7.25c0.12-0.43,4.18-1.47,4.72-1.66c1.38-0.5,3.52-0.83,4.68-1.76c1.12-0.9,1.95-1.82,2.73-3.03
				c-3.13,1.14-6.26,2.28-9.4,3.42c-0.96,1.98-1.93,3.96-2.89,5.95c3.13-1.14,6.26-2.28,9.4-3.42c0.73-2.86,1.91-5.36,3.66-7.73
				c-0.56,0.76-3.79,1.33-4.72,1.66c-1.14,0.41-3.88,0.81-4.68,1.76c-1.44,1.7-3.62,4.91-3.15,7.33c0.27,1.39,0.15,1.14,1.38,0.89
				c1.36-0.27,2.77-0.98,4.07-1.45c1.36-0.49,4.28-0.96,5.38-2.1c2.32-2.42-2.85-0.59-3.63-0.31c-2.56,0.91-5.27,1.71-7.74,2.86
				c-0.61,0.28-1.18,0.6-1.7,1.03c-0.47,0.38-0.88,0.83-1.23,1.32c-0.75,0.81-0.63,1.02,0.36,0.64c2.02-0.03,4.89-1.72,6.75-2.4
				c2.01-0.74,3.93-1.21,5.35-2.89c-3.13,1.14-6.26,2.28-9.4,3.42c-0.81,1.18-2.18,2.64-0.16,2.88c1.22,0.14,3.57-1.24,4.72-1.66
				c1.15-0.42,3.46-1.9,4.68-1.76c-2.01-0.24-0.65-1.7,0.16-2.88c-0.5,0.73-3.84,1.34-4.72,1.66c-1.14,0.41-3.87,0.8-4.68,1.76
				c-0.61,0.72-1.1,1.12-1.92,1.59c2.35-0.87,4.7-1.74,7.06-2.61c-0.26,0.09-0.53,0.19-0.79,0.28c0.78-0.27,1.56-0.54,2.34-0.81
				c-1.48,0.25-0.41-0.67,0.21-1.34c0.63-0.68,1.39-1.14,2.2-1.57c-0.77,0.3-1.54,0.59-2.31,0.89c0.28-0.11,0.57-0.21,0.85-0.32
				c-2.36,0.84-4.72,1.69-7.08,2.53c0.73-0.16,1.52-0.59,1.77,0.11c0.23,0.66-0.8,1.16-1.18,1.35c3.13-1.14,6.26-2.28,9.4-3.42
				c-2.6-0.31,1.47-7.31,2.43-8.44c-3.13,1.14-6.26,2.28-9.4,3.42c-1.75,2.37-2.94,4.87-3.66,7.73c0.11-0.42,4.18-1.47,4.72-1.66
				c0.82-0.3,4.28-0.94,4.68-1.76c0.96-1.98,1.93-3.96,2.89-5.95c-0.3,0.61-4.01,1.41-4.72,1.66c-0.97,0.35-4.11,0.86-4.68,1.76
				c-0.77,1.21-1.61,2.13-2.73,3.03c3.13-1.14,6.26-2.28,9.4-3.42c0.76-2.87,2.18-5.23,4.35-7.25c-3.13,1.14-6.26,2.28-9.4,3.42
				c-1.46,3.99-3.65,7.43-6.65,10.44c3.13-1.14,6.26-2.28,9.4-3.42c1.17-3.49,2.91-6.55,5.32-9.34c-3.13,1.14-6.26,2.28-9.4,3.42
				c-1.03,3.51-2.55,6.69-4.64,9.69c3.13-1.14,6.26-2.28,9.4-3.42c1.14-3.66,3.25-6.59,6.36-8.83c-3.13,1.14-6.26,2.28-9.4,3.42
				c-1.78,3.02-4.03,5.5-6.86,7.57c3.13-1.14,6.26-2.28,9.4-3.42c1.3-2.28,2.76-4.38,4.46-6.38c-3.13,1.14-6.26,2.28-9.4,3.42
				c-0.76,2.26-1.9,3.99-3.69,5.58c3.13-1.14,6.26-2.28,9.4-3.42c0.65-2.63,1.9-4.71,3.92-6.52c-3.13,1.14-6.26,2.28-9.4,3.42
				c-1.3,3.24-3.33,5.76-6.22,7.72c3.13-1.14,6.26-2.28,9.4-3.42c1.22-3.71,3.5-6.62,6.81-8.7c-3.13,1.14-6.26,2.28-9.4,3.42
				c-1.52,2.07-2.99,3.93-5.3,5.15c0.21-0.09,0.42-0.17,0.63-0.26c-0.29,0.11-0.58,0.22-0.87,0.33c2.92-1.05,5.84-2.11,8.76-3.16
				c-0.43,0.1-2.32,0.64-2.74,0.18c-0.37-0.4,0.48-2.91,0.62-3.43c0.59-2.12,1.55-4.01,2.78-5.83c-0.49,0.73-3.85,1.35-4.72,1.66
				c-1.32,0.48-3.62,0.81-4.68,1.76c-2.77,2.47-5.39,5.08-7.88,7.85c0.73-0.81,3.66-1.28,4.72-1.66
				C704.78,308.5,707.42,308.13,708.28,307.17L708.28,307.17z"/>
		</g>
	</g>
	<g>
		<g>
			<path class="st9" d="M715.46,279.38c0.39,2.6,2.39,4.12,5.01,3.78c1.54-0.2,3.26-1.13,4.72-1.66c0.62-0.22,4.16-2.09,4.68-1.76
				c-2.01-1.27-4.04-2.15-6.34-2.74c-3.13,1.14-6.26,2.28-9.4,3.42c2.17,0.35,4.02,1,5.93,2.06c3.13-1.14,6.26-2.28,9.4-3.42
				c-2.5-0.46-5-0.91-7.5-1.37c-3.13,1.14-6.26,2.28-9.4,3.42c3.9-0.84,7.69-0.88,11.6-0.14c3.13-1.14,6.26-2.28,9.4-3.42
				c-4.42,0.44-8.32-2.47-12.74-1.64c-1.58,0.3-3.21,1.11-4.72,1.66c-1.03,0.37-3.61,1.99-4.68,1.76c4.01,0.86,8.01,1.73,12.02,2.59
				c3.13-1.14,6.26-2.28,9.4-3.42c-3.23-0.19-6-1.14-8.66-2.97c-3.13,1.14-6.26,2.28-9.4,3.42c2.82,0.59,5.69,1.17,8.35,2.3
				c1.96,0.83,4.14,3.23,6.17,3.42c1.53,0.14,3.72-1.1,5.11-1.6c1.8-0.65,3.64-1.25,5.37-2.09c-3.13,1.14-6.26,2.28-9.4,3.42
				c-1.26,1.13-1.95,2.18-2.48,3.79c0.16-0.48,4.13-1.45,4.72-1.66c0.68-0.25,4.45-1.05,4.68-1.76c0.53-1.61,1.22-2.66,2.48-3.79
				c-0.95,0.84-3.51,1.22-4.72,1.66c-1.55,0.56-3.19,1.04-4.68,1.76c-0.23,0.11-0.46,0.22-0.68,0.33c3.13-1.14,6.26-2.28,9.4-3.42
				c-2.32-0.35-4.37-2.56-6.56-3.47c-2.67-1.11-5.53-1.71-8.35-2.3c-1.07-0.22-3.69,1.29-4.72,1.66c-0.59,0.21-4.21,2.08-4.68,1.76
				c2.67,1.83,5.43,2.78,8.66,2.97c1.31,0.08,3.48-1.22,4.72-1.66c1.03-0.37,3.61-1.99,4.68-1.76c-4.01-0.86-8.01-1.73-12.02-2.59
				c-3.13,1.14-6.26,2.28-9.4,3.42c4.42-0.83,8.32,2.08,12.74,1.64c1.52-0.15,3.29-1.14,4.72-1.66c1.06-0.38,3.57-1.97,4.68-1.76
				c-3.91-0.74-7.71-0.7-11.6,0.14c-1.59,0.34-3.19,1.11-4.72,1.66c-1.07,0.39-3.56,1.96-4.68,1.76c2.5,0.46,5,0.91,7.5,1.37
				c1.11,0.2,3.65-1.28,4.72-1.66c0.67-0.25,4.08-2.09,4.68-1.76c-1.92-1.07-3.77-1.71-5.93-2.06c-1.14-0.19-3.63,1.27-4.72,1.66
				c-0.98,0.35-3.67,2.01-4.68,1.76c2.3,0.59,4.33,1.46,6.34,2.74c3.13-1.14,6.26-2.28,9.4-3.42c-2.61,0.33-4.62-1.18-5.01-3.78
				C724.95,276.54,715.35,278.65,715.46,279.38L715.46,279.38z"/>
		</g>
	</g>
</g>
<g id="Layer_1">
	<g>
		<g>
			<path d="M755.12,278.87c1.22,23.45,0.41,46.91-2.43,70.21c0.06-0.02,0.11-0.03,0.17-0.05c65.43-21.31,132.31-37.99,200.08-49.91
				c1.58-0.28,3.21-1.12,4.72-1.66c1-0.36,3.64-2,4.68-1.76c-33.18-7.78-66.72-14.02-100.49-18.63
				c-17.04-2.32-34.15-4.24-51.28-5.74c-8.41-0.73-16.82-1.37-25.24-1.91c-6.38-0.41-11.62-0.26-17.62,1.9
				c-5.61,2.02-10.51,3.74-13.16,9.62c-3.44,7.61-1,16.03,1.26,23.6c-0.03-0.12,9.47-3.16,9.4-3.42
				c-3.09-10.32-6.2-25.23,5.97-31.01c-3.07,1.12-6.15,2.25-9.22,3.37c7.55-2.48,16.89-0.48,24.67,0.09
				c8.09,0.6,16.18,1.28,24.25,2.06c15.83,1.53,31.63,3.41,47.37,5.65c31.82,4.51,63.41,10.49,94.7,17.82
				c3.13-1.14,6.26-2.28,9.4-3.42c-35.18,6.19-70.13,13.63-104.76,22.36c-16.9,4.26-33.73,8.83-50.47,13.7
				c-8.65,2.52-17.28,5.11-25.88,7.79c-3.99,1.24-7.98,2.5-11.97,3.78c-1.82,0.58-4.77,2.38-6.22,1.08
				c-1.44-1.28-0.14-5.72,0.04-7.49c2.08-20.43,2.51-40.98,1.45-61.48C764.56,276.35,755.06,277.82,755.12,278.87L755.12,278.87z"/>
		</g>
	</g>
	<g>
		<g>
			<path d="M637.85,283.71c-4.96-0.31-10.07-1.36-15.03-0.53c-3.93,0.66-7.91,2.36-11.58,3.86c-5.13,2.09-6.92,5.78-9.58,10.43
				c-3.72,6.5-7.84,12.76-11.98,18.99c-4.09,6.17-9.31,12.51-12.38,19.25c-1.48,3.26-1.77,5.53-4.09,8.36
				c-2.09,2.55-3.82,5.38-5.82,8.01c-9.01,11.84-15.25,25.2-23.71,37.41c0.08-0.12,1.44-0.49,1.39-0.47
				c3.03-1.07,7.33-1.76,9.57-4.21c3.24-3.55-0.26-1.93-2.72-1.04c-1.59,0.58-3.92,1-5.31,1.98c-0.49,0.35-0.8,0.89-1.19,1.33
				c-0.3,0.35-1.16,1.29-1.25,1.71c-0.29,1.34-0.08,0.39,1.31,0.47c4.71,0.28,9.3-1.57,13.62-3.16c1.71-0.63,3.58-1.16,5.19-2.03
				c0.78-0.42,2.58-1.32,2.88-2.22c0.46-1.35-1.75-1.97-3.36-2.04c-3.83-0.15-8.44,2.35-11.88,3.77c-2.35,0.97-4.36,2.26-6.27,3.96
				c-0.36,0.32-1.35,1-1.52,1.46c-0.4,1.11,0.2,0.28,1.41,0.26c1.72-0.03,3.52-0.42,5.22-0.66c3.36-0.47,6.15-1.2,9.33-2.35
				c0.74-0.27,4.92-1.2,5.24-1.95c0.21-0.51,0.43-0.03-0.36-0.32c-1.78-0.65-5.26,0.3-7.07,0.58c-2.98,0.47-5.7,1.5-8.52,2.53
				c-1.5,0.55-3.54,0.94-4.88,1.83c-2.29,1.52,3.9-0.03,4.8-0.15c32.15-4.4,63.11-14.57,94.65-21.82
				c36.88-8.49,74.29-14.21,111.69-19.83c3.24-0.49,6.18-2.94,9.4-3.42c-38.37,5.77-76.75,11.66-114.56,20.5
				c-18.62,4.36-37.01,9.65-55.6,14.11c-8.89,2.13-17.83,4.07-26.84,5.61c-4.67,0.8-9.36,1.37-14.05,2.04
				c-1.6,0.23-5.34,2.65-7.89,2.48c0.72,0.05,1.67-0.34,2.4-0.45c2.57-0.41,5.34-0.17,7.77-0.43c0.13-0.01,12.72-3.62,6.48-2.75
				c-1.52,0.21-3.04,0.45-4.57,0.64c-0.88,0.11-2.31,0.48-3.24,0.4c-1.97-0.17-2.24,0.48-0.41-1.23c1.94-1.82,3.97-3.3,6.46-4.3
				c-3.08,1.12-6.16,2.23-9.23,3.35c1.45-0.36,4.76-0.94,5.89,0.64c1.02,0.37,0.89,0.88-0.41,1.54c-0.37,0.3-0.74,0.6-1.11,0.91
				c-0.3-0.26,8-1.41,2.53-1.22c-0.7,0.02-5.46,0.79-5.6,0.53c-0.21-0.38,2.47-3.35,2.93-3.73c-3.13,1.14-6.26,2.28-9.4,3.42
				c0.48,0.1-2.2,3.34-2.57,3.6c2.67-0.98,5.34-1.97,8.01-2.95c-0.12,0.04-0.24,0.08-0.35,0.12c0.46-0.16,0.93-0.31,1.39-0.47
				c7.17-10.33,12.06-22.16,19.55-32.26c3.39-4.57,6.8-9.42,10.49-13.76c2.01-2.36,2.13-4.21,3.28-7c1.25-3.03,3.43-5.86,5.2-8.62
				c6.66-10.37,13.82-20.43,19.91-31.16c1.36-2.4,2.48-5.12,4.55-7.02c1.18-1.09,4.28-2.27-0.67-0.47c-5.07,1.84-1.7,0.74-0.19,0.62
				c4.42-0.35,8.86,0.46,13.26,0.74C631.53,287.32,634.84,283.52,637.85,283.71L637.85,283.71z"/>
		</g>
	</g>
	<g>
		<g>
			<path d="M759.8,279.67c-6.14,0.78-12.29,1.48-18.45,2.1c-3.23,0.32-6.2,3.1-9.4,3.42c6.16-0.62,12.31-1.32,18.45-2.1
				C753.64,282.67,756.59,280.07,759.8,279.67L759.8,279.67z"/>
		</g>
	</g>
	<g>
		<g>
			<path d="M571.63,339.25c-70.31,5.27-140.38,13.58-209.95,24.98c-6.06,0.99-11.76,1.97-17.52,4.07
				c-5.01,1.82-9.58,4.01-6.04,10.14c3.24,5.62,10.39,9.77,15.89,12.85c6.17,3.46,12.78,6.07,19.58,8
				c29.5,8.38,61.86,4.98,91.35-1.62c33.8-7.56,66.3-20.29,98.55-32.7c1.77-0.68-1.55,0.49-1.71,0.55
				c-2.15,0.76-4.29,1.54-6.42,2.36c-39.96,15.39-80.97,30.31-124.17,32.49c-17.44,0.88-35.28-0.19-51.98-5.64
				c-7.94-2.59-15.57-6.19-22.41-11.02c-4.31-3.05-16.06-11.94-7.92-17.08c-3.07,1.12-6.15,2.25-9.22,3.37
				c8.83-2.86,19.1-3.42,28.25-4.86c9.11-1.43,18.23-2.81,27.36-4.14c18.58-2.7,37.2-5.18,55.84-7.45
				c36.96-4.49,74.02-8.11,111.14-10.89C565.45,342.42,568.46,339.48,571.63,339.25L571.63,339.25z"/>
		</g>
	</g>
	<g>
		<g>
			<path d="M611.15,290.3c-59.11-17.33-123.03-30.08-184.24-16.3c-14.08,3.17-27.76,7.93-41.14,13.29
				c-0.05,0.02-0.11,0.05-0.16,0.07c33.99,12.82,69.41,17.89,105.17,23.09c34.91,5.08,71.56,13.15,106.57,4.76
				c3.23-0.77,6.19-2.65,9.4-3.42c-27.87,6.68-56.44,2.53-84.36-1.53c-28.42-4.13-57.18-7.37-85.22-13.65
				c-6.42-1.44-12.79-3.08-19.11-4.92c-3.29-0.96-6.57-1.98-9.82-3.05c-1.39-0.46-11.23-2.86-11.47-4.03
				c-0.89-4.3,33.51-9.7,37.97-10.35c26.3-3.8,53.08-3.1,79.39,0.22c29.73,3.75,58.92,10.83,87.64,19.25
				C604.37,294.49,608.62,289.56,611.15,290.3L611.15,290.3z"/>
		</g>
	</g>
	<g>
		<g>
			<path d="M602.19,284.82c-11.67-21.88-32.64-36.36-55.55-44.7c-25.13-9.15-51.59-9.32-77.79-12.86
				c-13.79-1.87-27.64-4.88-40.1-11.27c-12.75-6.54-22.96-16.6-33.7-25.87c-20.18-17.42-45.15-33.67-73.09-29.35
				c-9.53,1.47-20.39,5.25-28.52,10.49c-9.81,6.33-16.58,16.3-26.26,22.79c-0.58,0.39-3.1,1.46-3.37,2.02
				c0.91-1.92,5.52-1.2,1.42-0.7c-2.87,0.35-5.82,0.1-8.67,0.56c-4.01,0.64-8.29,2.39-11.97,4.03c-9.87,4.39-9.99,17.86-1.93,24.09
				c9.11,7.04,19.66,3.34,29.24-0.22c4.95-1.84,9.59-4.2,14.36-6.45c0.96-0.44,1.91-0.87,2.87-1.31c-3.44,1.21-3.8,1.47-1.09,0.77
				c1.76-0.1,3.52-0.55,5.29-0.66c4.18-0.24,8.37,0.16,12.48,0.94c14.59,2.76,28.19,9.88,41.68,15.83
				c12.69,5.59,25.65,11.01,39.35,13.56c7.92,1.47,15.98,1.89,23.98,0.93c8.91-1.07,17.54-3.38,26.58-3.02
				c16.58,0.66,33.37,6.08,49.42,10.04c32.67,8.06,65.17,17.82,94.56,34.55c1.92,1.09,7.57-4.46,9.4-3.42
				c-23.83-13.57-49.77-22.61-76.15-29.79c-13.1-3.57-26.32-6.71-39.54-9.81c-14.65-3.43-28.5-6.28-43.55-3.8
				c-13.23,2.18-25.43,3.15-38.65,0.22c-13.06-2.89-25.44-8.2-37.62-13.59c-11.89-5.26-23.81-11.25-36.51-14.34
				c-11.99-2.92-22.17-1.33-33.46,2.85c-5.36,1.98-10.52,5.58-15.92,7.13c-4.24,1.22-10.77,0.06-15.03-2.31
				c-9.63-5.37-11.64-20.44-0.53-25.52c-3.07,1.12-6.15,2.25-9.22,3.37c5.39-1.76,11.19-0.77,16.68-2.67c4-1.39,8.16-2.7,11.93-4.66
				c10.45-5.44,17.4-15.68,26.66-22.71c2.66-2.02,5.48-3.56,8.44-5.08c4.35-2.25-3.4,1.19-3.27,1.05c0.52-0.57,2.84-0.78,3.64-0.97
				c1.8-0.42,3.63-0.74,5.46-0.97c6.63-0.83,13.4-0.51,19.96,0.74c14.05,2.68,26.85,9.76,38.27,18.15
				c11.81,8.67,22.01,19.26,33.68,28.09c11.69,8.85,24.98,14.27,39.26,17.32c27.1,5.79,55.23,4.38,82,12.05
				c26.66,7.64,52.12,22.84,65.49,47.92C593.05,288.71,602.01,284.47,602.19,284.82L602.19,284.82z"/>
		</g>
	</g>
	<g>
		<g>
			<path d="M550.21,378.59c-30.09,13.36-60.19,26.72-90.28,40.08c-15.18,6.74-30.25,13.47-46.66,16.59
				c-14.52,2.76-28.94,2.35-43.3-1.17c-14.75-3.62-28.89-9.32-43.6-13.1c-14.82-3.8-29.97-6.29-45.22-7.46
				c-29.89-2.3-60.18,0.45-89.13,8.24c-10.05,2.7-21.46,5.52-30.55,10.79c-10.5,6.09-13.72,19.07-9.47,30.1
				c4.25,11.04,15.61,17.46,26.93,18.85c14.11,1.72,26.8-5.3,40.45-7.24c14.8-2.1,27.57,4.9,41.02,9.83
				c13.94,5.11,28.43,5.68,43.03,3.59c15.7-2.25,30.99-6.92,46.27-11.06c15.97-4.33,31.94-8.67,47.92-13
				c35.02-9.5,70.11-18.79,105.07-28.52c11.91-3.31,24.99-7.14,35.19-14.32c12.17-8.56,20.4-21.4,28.29-33.73
				c-1.4,2.19-7.94,1.15-9.4,3.42c-6.8,10.63-13.78,21.5-23.38,29.86c-2.36,2.06-4.87,3.95-7.53,5.61
				c-3.21,1.99-6.61,3.66-8.74,4.29c-7.91,2.34-15.9,4.41-23.86,6.57c-30.67,8.32-61.33,16.64-92,24.96
				c-15.33,4.16-30.67,8.32-46,12.48c-14.6,3.96-29.23,8.33-44.28,10.28c-14.65,1.9-28.95,0.85-42.81-4.45
				c-12.54-4.79-24.73-11.08-38.56-9.33c-12.97,1.64-25.06,8.26-38.35,7.6c-11.39-0.57-23.39-6.09-28.76-16.61
				c-4.85-9.5-3.88-22.47,4.4-29.79c1.22-1.08,2.76-1.76,3.97-2.8c3.36-2.92-2.83,0.63,1.35-0.92c3.94-1.46,8.12-2.45,12.17-3.51
				c7.1-1.85,14.28-3.41,21.52-4.66c28.94-5.01,58.71-5.18,87.7-0.51c14.5,2.34,28.66,6.03,42.62,10.57
				c13.48,4.39,27.03,9.13,41.26,10.23c29.25,2.26,58.37-10.39,84.6-21.91c32.44-14.25,64.78-28.75,97.17-43.13
				C557.1,376.29,552.98,377.36,550.21,378.59L550.21,378.59z"/>
		</g>
	</g>
	<g>
		<g>
			<path d="M48.54,389.12c-0.65,0.36-1.31,0.71-1.98,1.04c-3.51,1.58-2.55,1.26,2.87-0.96c-1.09-0.04-2.28,0.44-3.39,0.47
				c-2.78,0.07-5.2-0.73-7.47-2.34c-0.46-0.33-4.13,1.45-4.72,1.66c-0.58,0.21-4.23,2.08-4.68,1.76c4.58,3.23,9.51,2.47,14.49,0.75
				c4.85-1.67,9.75-3.36,14.27-5.81C55.05,387.26,51.45,387.54,48.54,389.12L48.54,389.12z"/>
		</g>
	</g>
	<g>
		<g>
			<path d="M102.59,348.58c-14.33,10.78-28.5,21.77-42.65,32.78c2.48-1.93,6.88-1.46,9.4-3.42c14.15-11.02,28.32-22.01,42.65-32.78
				C109.45,347.06,105.15,346.65,102.59,348.58L102.59,348.58z"/>
		</g>
	</g>
	<g>
		<g>
			<path d="M584.64,339.14c-29.69-13.79-62-21.13-94.73-21.71c-16.16-0.29-32.34,1.04-48.26,3.86c-16.07,2.85-31.4,7.67-46.87,12.75
				c-31.91,10.48-65.93,20.48-99.09,9.25c-31.89-10.81-62.74-26.13-96.72-29.28c-16.81-1.56-32.89,1.39-48.65,7.09
				c-15.74,5.69-29.1,14.26-42.78,23.8c2.63-1.83,6.74-1.57,9.4-3.42c6.22-4.34,12.4-8.75,18.88-12.69
				c3.17-1.93,6.42-3.76,9.76-5.38c1.24-0.6,2.5-1.15,3.74-1.73c0.46-0.21,3.2-1.35,0.44-0.24c-2.74,1.11,0.04,0.04,0.56-0.1
				c1.67-0.44,3.31-0.96,4.98-1.37c15.21-3.8,30.71-3.61,46.08-0.89c15.58,2.75,30.69,7.58,45.53,12.96
				c14.87,5.39,29.54,12.16,44.8,16.35c30.44,8.37,61.48-0.4,90.54-9.87c15.37-5.01,30.6-10.09,46.51-13.15
				c15.02-2.88,30.3-4.42,45.59-4.54c34.79-0.27,69.32,7.08,100.88,21.74c0.7,0.33,3.97-1.39,4.72-1.66
				C580.7,340.62,583.93,338.81,584.64,339.14L584.64,339.14z"/>
		</g>
	</g>
	<g>
		<g>
			<path d="M598.43,322.22c3.16,0,6.29-3.42,9.4-3.42C604.67,318.8,601.54,322.22,598.43,322.22L598.43,322.22z"/>
		</g>
	</g>
	<g>
		<g>
			<path d="M713.07,314.44c76.52-10.13,153.46-17.28,230.62-19.97c3.19-0.11,6.25-3.31,9.4-3.42
				c-77.16,2.69-154.09,9.84-230.62,19.97C719.23,311.45,716.28,314.01,713.07,314.44L713.07,314.44z"/>
		</g>
	</g>
	<g>
		<g>
			<path d="M587.24,325.26c14.2,0.87,28.39,0.61,42.58-0.34c3.21-0.22,6.23-3.21,9.4-3.42c-14.18,0.96-28.38,1.22-42.58,0.34
				C593.56,321.65,590.26,325.44,587.24,325.26L587.24,325.26z"/>
		</g>
	</g>
	<g>
		<g>
			<path d="M257.62,209.92c1.97-2.57,4.11-3.86,6.57-5.82c1.51-0.8,0.73-0.57-2.35,0.69c0.92-0.23,1.85-0.42,2.78-0.57
				c1.42-0.24,2.85-0.4,4.29-0.51c6.22-0.47,12.38,0.35,18.57,0.88c11.67,0.98,21.81-0.84,32.47-5.54c2.86-1.26,5.37-3.01,7.89-4.85
				c1.22-0.89,2.41-1.82,3.65-2.68c0.89-0.62,3.33-1.56,3.76-2.38c-4.25,1.2-5.29,1.62-3.09,1.26c0.82-0.14,1.65-0.2,2.49-0.18
				c1.67,0,3.33,0.29,4.94,0.68c3.61,0.88,6.99,2.55,10.29,4.2c15.08,7.58,30.06,15.36,45.1,23.05c0.65,0.33,4-1.4,4.72-1.66
				c0.71-0.26,4.03-2.09,4.68-1.76c-8.87-4.53-17.73-9.06-26.6-13.6c-7.9-4.04-15.73-8.66-23.95-12.01
				c-12.18-4.97-24.8,0.67-34.77,8.04c-1.42,1.05-2.82,2.11-4.31,3.05c-0.84,0.54-1.7,1.04-2.59,1.5c3.74-1.19,4.26-1.45,1.57-0.8
				c-3.93,0.47-7.73,0.78-11.71,0.61c-7.67-0.33-15.28-1.74-22.98-1.27c-5.83,0.35-11.02,2.05-16.44,4.03
				c-5.6,2.05-10.6,4.15-14.37,9.06C249.91,211.15,255.89,212.18,257.62,209.92L257.62,209.92z"/>
		</g>
	</g>
	<g>
		<g>
			<path d="M169.15,457.18c1.9-1.2,3.91-2.04,5.86-3.13c-6.07,2.06-7,2.45-2.78,1.17c0.89-0.23,1.78-0.44,2.68-0.63
				c3.66-0.78,7.38-1.24,11.11-1.57c7.56-0.67,15.16-0.76,22.7-1.66c11.55-1.39,25.19-5.31,34.3-12.81
				c-2.41,1.98-6.95,1.41-9.4,3.42c-1.4,1.15-2.83,2.23-4.39,3.18c-0.76,0.46-1.54,0.89-2.33,1.29c-3.98,1.77-2.96,1.47,3.07-0.89
				c-3.97,0.9-7.79,1.9-11.85,2.38c-7.54,0.9-15.14,0.99-22.7,1.66c-12.09,1.07-25.28,4.45-35.66,11
				C162.5,458.87,166.39,458.92,169.15,457.18L169.15,457.18z"/>
		</g>
	</g>
	<g>
		<g>
			<path d="M171.92,439.96c32.96-15.04,74.5-11.39,106.91,3.06c17.26,7.7,33.67,16.93,53.04,17.53c19.42,0.6,38.32-5.44,56.59-11.31
				c2.86-0.92,6.8-2.6,9.05-3.32c-17.04,5.47-34.51,11.01-52.57,11.24c-17.32,0.22-32.47-6.18-47.84-13.44
				c-14.69-6.94-29.49-12.56-45.64-14.97c-15.67-2.34-31.73-2.02-47.3,0.91c-14.29,2.69-28.43,7.69-41.64,13.72
				C165.54,442,168.89,441.34,171.92,439.96L171.92,439.96z"/>
		</g>
	</g>
	<g>
		<g>
			<path d="M446.56,438.03c13.52-4.26,27.75-4.25,41.57-6.94c9.14-1.78,18.53-5,26.92-9.07c21.69-10.52,32.39-33.86,52.98-45.75
				c-2.83,1.63-6.54,1.77-9.4,3.42c-16.93,9.78-26.75,27.43-42.11,39.08c-2.03,1.54-4.14,2.96-6.33,4.25
				c-0.99,0.58-1.99,1.13-3,1.66c-0.6,0.31-6.7,2.84-3.23,1.62c3.93-1.38-2.63,0.56-3.78,0.82c-1.17,0.26-2.35,0.5-3.52,0.72
				c-2.96,0.55-5.93,0.97-8.92,1.35c-10.82,1.37-21.66,2.23-32.12,5.52C452.75,435.61,448.82,437.32,446.56,438.03L446.56,438.03z"
				/>
		</g>
	</g>
	<g>
		<g>
			<path d="M725.7,274.29c-2.37-4.22-6.97-4.44-11.24-3.29c-4.72,1.27-9.64,3.05-14.02,5.24c2.95-1.48,6.43-1.94,9.4-3.42
				c0.38-0.2,0.78-0.39,1.18-0.56c1.7-0.74,0.74-0.4-2.89,1.01c-6.66,2.44-3.16,1.08-1.38,0.76c1.23-0.22,2.5-0.33,3.75-0.19
				c2.61,0.28,4.53,1.6,5.81,3.87C716.6,278.24,725.47,273.89,725.7,274.29L725.7,274.29z"/>
		</g>
	</g>
	<g>
		<g>
			<path d="M620.8,258.74c6.35,15.79,3.22,32.41,2.36,48.85c-0.32,6.15-1.4,14.53,2.25,19.94c3.24,4.81,9.16,6.74,14.68,7.14
				c16.76,1.22,33.65-0.69,50.36-1.74c10.78-0.68,22.21-7.72,27.69-17.07c-0.39,0.67-3.93,1.38-4.72,1.66
				c-0.92,0.33-4.17,0.88-4.68,1.76c-3.5,5.98-9.12,9.29-14.45,13.43c3.13-1.14,6.26-2.28,9.4-3.42
				c-13.22,0.76-26.41,2.07-39.66,2.25c-9.09,0.13-22.01,1.53-28.53-6.47c-3.18-3.9-3.12-9.02-3.15-13.81
				c-0.03-6.23,0.54-12.43,1.05-18.63c1.03-12.66,1.61-25.3-3.22-37.3C630.13,255.15,620.81,258.78,620.8,258.74L620.8,258.74z"/>
		</g>
	</g>
	<g>
		<g>
			<path d="M701.47,270.11c0.96-13.44-0.44-27.82-5.68-40.35c-4.9-11.71-15.47-8-24.72-4.6c-21.3,7.83-39.45,26.83-52.2,45.06
				c1.54-2.2,7.81-1.15,9.4-3.42c11.85-16.93,26.91-31.08,44.57-41.8c2.97-1.8-0.83,0.07-0.85,0.17c0.06-0.34,3.31-0.32,3.58-0.32
				c2.07,0.05,4.14,0.53,5.9,1.68c4.09,2.68,5.56,7.92,6.9,12.34c3.41,11.24,4.55,22.95,3.71,34.65
				C692.17,272.24,701.37,271.53,701.47,270.11L701.47,270.11z"/>
		</g>
	</g>
	<g>
		<g>
			<path d="M640.94,277.12c2.63,1.2,5.26,2.41,7.9,3.61c2.15,0.98,4.27,2.45,6.68,1.74c2.68-0.79,5.41-1.82,7.99-2.9
				c1.16-0.48,3.04-1.94,1.19-3c-0.58-0.33-4.05,1.42-4.72,1.66c-0.66,0.24-4.1,2.09-4.68,1.76c1.15,0.66,0.75,1.93-0.2,2.61
				c3.13-1.14,6.26-2.28,9.4-3.42c-2.34,0.51-4.7-1.15-6.76-2.09c-2.47-1.13-4.94-2.26-7.4-3.39c-0.71-0.32-3.96,1.39-4.72,1.66
				C644.86,275.64,641.65,277.45,640.94,277.12L640.94,277.12z"/>
		</g>
	</g>
	<g>
		<g>
			<path d="M672.55,257.67c0.21-0.1,0.42-0.2,0.63-0.3c-3.08,1.12-6.16,2.23-9.23,3.35c3.12-0.79,5.76,2.2,7.39,4.46
				c3.13-1.14,6.26-2.28,9.4-3.42c-2.29-2.17-4.57-4.35-6.86-6.52c-0.31-0.29-4.23,1.49-4.72,1.66c-1.11,0.4-2.21,0.81-3.32,1.22
				c-0.16,0.06-1.31,0.58-1.36,0.53c2.29,2.17,4.57,4.35,6.86,6.52c0.31,0.29,4.23-1.49,4.72-1.66c0.38-0.14,4.57-1.92,4.68-1.76
				c-1.41-1.96-3.55-4.49-6.17-4.61c-1.56-0.08-3.27,0.85-4.68,1.36c-2.22,0.8-4.64,1.45-6.72,2.58c1.39-0.76,3.23-1.12,4.72-1.66
				C669.4,258.87,671.12,258.46,672.55,257.67L672.55,257.67z"/>
		</g>
	</g>
	<g>
		<g>
			<path d="M692.48,275.58c8.23-1.56,16.54-1.34,24.76,0.2c3.78,0.71,19.01,2.87,18.63,7.8c-0.21,2.69-4.2,6.74-5.76,9.1
				c-2.41,3.64-4.85,7.26-7.32,10.85c-4.88,7.08-9.9,14.06-15.04,20.96c1.64-2.2,7.71-1.15,9.4-3.42
				c5.14-6.9,10.16-13.88,15.04-20.96c2.47-3.59,4.91-7.21,7.32-10.85c1.54-2.33,5.55-6.38,5.76-9.1c0.39-5.01-14.79-7.08-18.63-7.8
				c-8.22-1.55-16.53-1.76-24.76-0.2C698.63,272.77,695.7,274.97,692.48,275.58L692.48,275.58z"/>
		</g>
	</g>
	<g>
		<g>
			<path d="M43.24,391.02c7.19,3.58,13.82,7.93,19.96,13.11c0.35,0.29,9.35-3.09,9.4-3.42c1.18-8.9,2.36-17.81,3.54-26.71
				c-0.19,1.46-9.19,1.83-9.4,3.42c-1.18,8.9-2.36,17.81-3.54,26.71c3.13-1.14,6.26-2.28,9.4-3.42
				c-6.14-5.18-12.77-9.53-19.96-13.11c-0.66-0.33-3.99,1.4-4.72,1.66C47.2,389.53,43.91,391.36,43.24,391.02L43.24,391.02z"/>
		</g>
	</g>
	<g>
		<g>
			<path d="M98.13,346.49c-1.32-7.98-1.6-15.94-0.87-23.99c-3.13,1.14-6.26,2.28-9.4,3.42c7.62,4.42,14.89,9.31,21.86,14.7
				c0.95,0.74,8.93-4.17,9.4-3.42c-1.17-1.9-2.52-2.84-4.69-3.28c-2.82-0.58-6.65,3.98-9.4,3.42c2.19,0.45,3.53,1.39,4.69,3.28
				c3.13-1.14,6.26-2.28,9.4-3.42c-6.96-5.39-14.24-10.28-21.86-14.7c-0.53-0.31-9.37,3.13-9.4,3.42
				c-0.74,8.05-0.45,16.01,0.87,23.99C88.64,349.37,98.24,347.17,98.13,346.49L98.13,346.49z"/>
		</g>
	</g>
	<g>
		<g>
			<path d="M170.56,321.54c-1.29-1.54-2.51-2.39-4.41-3.06c-1.63-0.58-8.39,4.41-9.4,3.42c6.3,6.21,11.57,13.13,15.89,20.86
				c-0.02-0.04,9.19-2.79,9.4-3.42c1.51-4.55,3.02-9.11,4.53-13.66c1.05-3.17,1.66-8.63,4.57-10.62c-3.13,1.14-6.26,2.28-9.4,3.42
				c0.3,0.01,0.6,0.03,0.9,0.04c3.1,0.14,6.35-3.56,9.4-3.42c-1.91-0.09-3.84,0.98-5.62,1.62c-1.59,0.58-4.16,1.05-5.47,2.29
				c-2.4,2.28-3.1,8.01-4.08,10.99c-1.41,4.25-2.82,8.5-4.22,12.75c3.13-1.14,6.26-2.28,9.4-3.42c-4.31-7.73-9.59-14.65-15.89-20.86
				c-3.13,1.14-6.26,2.28-9.4,3.42c1.9,0.67,3.12,1.52,4.41,3.06C161.94,325.89,169.87,320.73,170.56,321.54L170.56,321.54z"/>
		</g>
	</g>
	<g>
		<g>
			<path d="M257.79,325.11c3.35-5.33,6.71-10.67,10.06-16c-3.13,1.14-6.26,2.28-9.4,3.42c5.88,11.28,12.61,22.05,20.16,32.29
				c0.6,0.81,8.88-4.12,9.4-3.42c-7.56-10.24-14.28-21.01-20.16-32.29c0.01,0.03-8.98,2.76-9.4,3.42c-3.35,5.33-6.71,10.67-10.06,16
				c0.44-0.7,3.89-1.36,4.72-1.66C254.06,326.52,257.23,326.01,257.79,325.11L257.79,325.11z"/>
		</g>
	</g>
	<g>
		<g>
			<path d="M383.51,344.8c3.92,2.85,7.84,5.7,11.77,8.55c0.43,0.32,9.17-2.88,9.4-3.42c2.85-6.87,5.22-13.88,7.13-21.07
				c-0.12,0.43-4.18,1.47-4.72,1.66c-1.26,0.46-3.7,0.8-4.68,1.76c-0.91,0.89-1.82,1.78-2.73,2.66c2.15-2.1,7.2-1.28,9.4-3.42
				c0.91-0.89,1.82-1.78,2.73-2.66c-3.13,1.14-6.26,2.28-9.4,3.42c-1.91,7.19-4.28,14.2-7.13,21.07c3.13-1.14,6.26-2.28,9.4-3.42
				c-3.92-2.85-7.84-5.7-11.77-8.55c-0.45-0.32-4.14,1.45-4.72,1.66C387.63,343.25,383.95,345.11,383.51,344.8L383.51,344.8z"/>
		</g>
	</g>
	<g>
		<g>
			<path d="M641.23,325.29c17.1-21.33,34.95-42.74,58.87-56.69c-3.13,1.14-6.26,2.28-9.4,3.42c-20.38,18.9-40.16,38.42-59.32,58.56
				c2.03-2.14,7.32-1.23,9.4-3.42c19.16-20.13,38.94-39.66,59.32-58.56c-2.12,1.97-6.83,1.93-9.4,3.42
				c-23.92,13.95-41.77,35.36-58.87,56.69C633.59,326.52,639.42,327.54,641.23,325.29L641.23,325.29z"/>
		</g>
	</g>
	<g>
		<g>
			<path d="M673.59,295.61c0.59-0.74,1.17-1.46,1.88-2.09c0.79-0.7,3.83-2.04,0.92-1.16c-3.11,0.94,2.6-0.19,3.73-0.31
				c5.24-0.57,10.6-0.8,15.85-0.19c9.27,1.08,18,5.13,23.09,13.2c0.35,0.55,9.19-3.83,9.4-3.42c-0.68-1.32-1.15-1.79-2.47-2.48
				c-0.64-0.33-4.01,1.41-4.72,1.66c-0.7,0.26-4.04,2.09-4.68,1.76c1.32,0.69,1.79,1.16,2.47,2.48c3.13-1.14,6.26-2.28,9.4-3.42
				c-8.01-12.7-23.61-14.4-37.33-13.17c-5.06,0.45-9.57,1.67-14.31,3.39c-4.74,1.72-9.32,3.07-12.61,7.16
				C665.95,296.84,671.78,297.86,673.59,295.61L673.59,295.61z"/>
		</g>
	</g>
	<g>
		<g>
			<path d="M676.52,308.7c1.48,0.81,2.74,1.87,3.8,3.19c3.13-1.14,6.26-2.28,9.4-3.42c-2-1.5-4.01-2.99-6.01-4.49
				c-0.08-0.06-1.52,0.52-1.39,0.47c-1.11,0.39-2.22,0.79-3.33,1.2c-1.11,0.4-2.21,0.81-3.32,1.22c-0.17,0.06-1.28,0.6-1.36,0.53
				c2,1.5,4.01,2.99,6.01,4.49c0.08,0.06,1.52-0.52,1.39-0.47c1.11-0.39,2.22-0.79,3.33-1.2c1.11-0.4,2.21-0.81,3.32-1.22
				c0.14-0.05,1.34-0.57,1.36-0.53c-1.06-1.32-2.32-2.38-3.8-3.19c-0.12-0.07-1.48,0.5-1.39,0.47c-1.11,0.39-2.22,0.79-3.33,1.2
				c-1.11,0.4-2.21,0.81-3.32,1.22C677.68,308.24,676.65,308.78,676.52,308.7L676.52,308.7z"/>
		</g>
	</g>
	<g>
		<g>
			<path d="M705.42,282.87c0.95,0.45,1.69,1.16,2.16,2.1c3.13-1.14,6.26-2.28,9.4-3.42c-1.47-0.28-2.65-1.31-3.13-2.73
				c-3.13,1.14-6.26,2.28-9.4,3.42c0.46,0.2,0.91,0.4,1.37,0.6c0.15,0.07,1.44-0.49,1.39-0.47c1.11-0.39,2.22-0.79,3.33-1.2
				c1.11-0.4,2.21-0.81,3.32-1.22c0.22-0.08,1.2-0.61,1.36-0.53c-0.46-0.2-0.91-0.4-1.37-0.6c-0.15-0.06-1.44,0.49-1.39,0.47
				c-1.11,0.39-2.22,0.79-3.33,1.2c-0.34,0.13-4.71,1.68-4.68,1.76c0.48,1.41,1.66,2.45,3.13,2.73c0.24,0.05,1.31-0.44,1.39-0.47
				c1.11-0.39,2.22-0.79,3.33-1.2c0.35-0.13,4.66-1.8,4.68-1.76c-0.47-0.94-1.2-1.66-2.16-2.1c-0.14-0.07-1.45,0.49-1.39,0.47
				c-1.11,0.39-2.22,0.79-3.33,1.2c-1.11,0.4-2.21,0.81-3.32,1.22C706.57,282.42,705.58,282.95,705.42,282.87L705.42,282.87z"/>
		</g>
	</g>
	<g>
		<g>
			<path d="M645.23,247.15c18.31,5.97,23.58,25.85,23.94,43.11c-0.02-1,9.42-2.27,9.4-3.42c-0.36-17.26-5.63-37.14-23.94-43.11
				c-0.89-0.29-3.83,1.34-4.72,1.66C649.03,245.72,646.14,247.45,645.23,247.15L645.23,247.15z"/>
		</g>
	</g>
	<g>
		<g>
			<path d="M627.2,187.28c3.16,0,6.29-3.42,9.4-3.42C633.45,183.86,630.31,187.28,627.2,187.28L627.2,187.28z"/>
		</g>
	</g>
	<g>
		<g>
			<path d="M540.22,374.93c-8.25,2.18-16.5,4.36-24.75,6.54c-2.92,1.07-5.83,2.14-8.75,3.21c8.89-3.08,17.88-5.78,26.98-8.14
				c2.67-0.98,5.34-1.97,8.01-2.95c-8.23,2.89-16.5,5.69-24.8,8.4c-3.42,1.11-6.85,2.2-10.28,3.3c-2.82,0.9,0.37-0.11,1.39-0.43
				c2.33-0.72,4.67-1.41,7.02-2.04c3.32-0.9,6.66-1.66,10-2.44c5.07-1.19-1.97,0.82-2.8,1.09c-1.75,0.56-3.51,1.09-5.27,1.61
				c-7.58,2.22-15.26,4.04-23.01,5.56c-3.13,1.14-6.26,2.28-9.4,3.42c13.44-3.3,26.75-7.05,39.94-11.24
				c3.09-0.98,6.09-2.57,9.22-3.37c-12.41,3.19-24.5,7.43-36.43,12.08c0.3-0.12-1.08,0.41-0.46,0.21
				c14.88-4.86,29.76-9.72,44.65-14.58c2.85-0.93,6.8-2.62,9.05-3.32c-3.58,1.12-7.15,2.23-10.73,3.35
				c-1.78,0.56-3.56,1.2-5.37,1.67c-4.11,1.07-0.34-0.21,0.87-0.71c7.4-3.09,14.8-6.18,22.19-9.27c-0.67,0.28-3.31,1.14-4.55,1.59
				c-6.46,2.35-12.93,4.7-19.39,7.04c-1.34,0.49-2.74,0.92-4.05,1.5c-0.7,0.31-0.75,0.31,0.02,0.05c4.07-1.39,8.13-2.79,12.2-4.18
				c0.68-0.23,4.83-1.22,5.23-1.79c-0.4,0.57-7.92,3.09-3.8,1.65c-2.68,0.94-6.46,2.52-8.57,3.16c5.1-1.54,10.23-3,15.25-4.8
				c8.03-2.88,0.04-0.02-1.59,0.57c-2.24,0.8-4.48,1.6-6.71,2.4c-2.07,0.74-5.43,2.13-6.88,2.57c8.29-2.49,16.45-5.45,24.52-8.58
				c-0.29,0.11,1.08-0.4,0.46-0.21c-1.75,0.53-3.8,1.52-5.62,1.7c-2.45,0.24,2.24-1.38,2.73-1.61c-3.01,1.39-6.38,2.03-9.4,3.42
				c-1.65,0.76-3.31,1.52-4.96,2.29c0.06-0.02,0.11-0.03,0.17-0.05c2.09-0.63,4.28-1.56,6.42-1.94c-1.85,0.33-5.05,1.68-6.98,2.37
				c-8.13,2.91-0.12,0.04,1.54-0.55c2.24-0.8,4.48-1.6,6.71-2.4c2.07-0.74,5.43-2.12,6.88-2.57c-3.37,1.02-6.75,2.01-10.12,3.06
				c-2.02,0.58-4,1.26-5.95,2.04c-4.52,1.61-5.69,2.04-3.53,1.28c1.27-0.45,2.53-0.9,3.8-1.36c5.37-1.94,10.7-3.95,15.96-6.17
				c0.6-0.25-0.78,0.24-0.49,0.14c-4.94,1.69-9.88,3.39-14.81,5.08c-2.21,0.76-4.49,1.45-6.63,2.4c1.13-0.5,2.36-0.86,3.53-1.28
				c2.64-0.96,5.29-1.92,7.93-2.88c1.17-0.43,2.35-0.86,3.53-1.28c2.49-0.89-3.91,1.48-4.57,1.74c-2.68,1.08-5.33,2.23-7.99,3.34
				c-5.33,2.23-10.65,4.45-15.98,6.68c-0.22,0.09-0.22,0.1,0.01,0.02c8.98-2.8,17.87-6.21,26.87-8.85
				c-6.56,1.93-13.03,4.25-19.53,6.38c-6.51,2.13-13,4.32-19.53,6.38c-0.4,0.13-3.81,1.28-1.65,0.48c1.41-0.52,2.86-0.95,4.3-1.4
				c3.99-1.25,8.02-2.38,12.07-3.42c3.07-1.12,6.15-2.25,9.22-3.37c-13.07,4.15-26.27,7.87-39.59,11.14
				c-3.2,0.79-6.19,2.79-9.4,3.42c17.54-3.43,34.38-8.9,51.07-15.22c0.22-0.08,0.43-0.16,0.63-0.26
				c-14.08,2.99-27.63,7.57-41.04,12.72c0.3-0.11-1.08,0.4-0.46,0.21c13.51-4.24,26.95-8.72,40.31-13.41
				c2.65-0.93,5.3-2.25,8.01-2.95c-9.54,2.47-18.96,5.33-28.28,8.56c-2.9,1-5.79,2.43-8.75,3.21c8.25-2.18,16.5-4.36,24.75-6.54
				C534.04,377.5,537.02,375.78,540.22,374.93L540.22,374.93z"/>
		</g>
	</g>
</g>
</svg>
