<svg width="255" height="64" viewBox="0 0 255 64" fill="none" xmlns="http://www.w3.org/2000/svg">
<rect x="24.6567" y="19.1465" width="229.843" height="40.3534" fill="#2A484D" stroke="#FFF9B5" stroke-dasharray="200 200"/>
<path d="M87.5366 47.458L87.5366 30.938C87.5366 30.266 87.6953 29.6593 88.0126 29.118C88.3486 28.558 88.7873 28.1193 89.3286 27.802C89.8886 27.466 90.5046 27.298 91.1766 27.298L104.029 27.298C104.701 27.298 105.317 27.466 105.877 27.802C106.437 28.1193 106.875 28.558 107.193 29.118C107.529 29.6593 107.697 30.266 107.697 30.938L107.697 47.458L104.645 47.458L104.645 40.402L90.5606 40.402L90.5606 47.458L87.5366 47.458ZM90.5606 37.378L104.645 37.378L104.645 31.022C104.645 30.8353 104.579 30.6767 104.449 30.546C104.318 30.3967 104.159 30.322 103.973 30.322L91.2606 30.322C91.0739 30.322 90.9059 30.3967 90.7566 30.546C90.6259 30.6767 90.5606 30.8353 90.5606 31.022L90.5606 37.378ZM118.867 47.458L109.907 31.218L113.407 31.218L120.379 44.042L127.351 31.218L130.851 31.218L121.891 47.458L118.867 47.458ZM133.005 47.458L133.005 31.218L136.029 31.218L136.029 47.458L133.005 47.458ZM133.005 28.922L133.005 25.898L136.029 25.898L136.029 28.922L133.005 28.922ZM142.059 47.458C141.387 47.458 140.771 47.29 140.211 46.954C139.67 46.618 139.231 46.1793 138.895 45.638C138.578 45.0967 138.419 44.49 138.419 43.818L138.419 37.826L151.887 37.826L151.887 34.942C151.887 34.7553 151.822 34.5967 151.691 34.466C151.561 34.3167 151.402 34.242 151.215 34.242L138.419 34.242L138.419 31.218L151.299 31.218C151.971 31.218 152.578 31.386 153.119 31.722C153.679 32.0393 154.118 32.478 154.435 33.038C154.771 33.598 154.939 34.2047 154.939 34.858L154.939 47.458L142.059 47.458ZM142.143 44.434L151.887 44.434L151.887 40.654L141.443 40.654L141.443 43.734C141.443 43.9207 141.509 44.0887 141.639 44.238C141.789 44.3687 141.957 44.434 142.143 44.434ZM161.529 47.458C160.857 47.458 160.241 47.29 159.681 46.954C159.139 46.618 158.701 46.1793 158.365 45.638C158.047 45.0967 157.889 44.49 157.889 43.818L157.889 26.094L160.913 26.094L160.913 31.218L167.577 31.218L167.577 34.242L160.913 34.242L160.913 43.734C160.913 43.9207 160.978 44.0887 161.109 44.238C161.258 44.3687 161.426 44.434 161.613 44.434L167.577 44.434L167.577 47.458L161.529 47.458ZM169.892 47.458L169.892 31.218L172.916 31.218L172.916 47.458L169.892 47.458ZM169.892 28.922L169.892 25.898L172.916 25.898L172.916 28.922L169.892 28.922ZM179.547 47.458C178.875 47.458 178.268 47.29 177.727 46.954C177.186 46.618 176.747 46.1793 176.411 45.638C176.075 45.0967 175.907 44.49 175.907 43.818L175.907 34.858C175.907 34.186 176.075 33.5793 176.411 33.038C176.747 32.4967 177.186 32.058 177.727 31.722C178.268 31.386 178.875 31.218 179.547 31.218L188.787 31.218C189.459 31.218 190.066 31.386 190.607 31.722C191.167 32.0393 191.606 32.478 191.923 33.038C192.259 33.598 192.427 34.2047 192.427 34.858L192.427 43.818C192.427 44.49 192.259 45.0967 191.923 45.638C191.606 46.1793 191.167 46.618 190.607 46.954C190.066 47.29 189.459 47.458 188.787 47.458L179.547 47.458ZM179.631 44.434L188.703 44.434C188.89 44.434 189.048 44.3687 189.179 44.238C189.31 44.0887 189.375 43.9207 189.375 43.734L189.375 34.942C189.375 34.7553 189.31 34.5967 189.179 34.466C189.048 34.3167 188.89 34.242 188.703 34.242L179.631 34.242C179.444 34.242 179.276 34.3167 179.127 34.466C178.996 34.5967 178.931 34.7553 178.931 34.942L178.931 43.734C178.931 43.9207 178.996 44.0887 179.127 44.238C179.276 44.3687 179.444 44.434 179.631 44.434ZM194.831 47.458L194.831 31.218L207.711 31.218C208.383 31.218 208.99 31.386 209.531 31.722C210.091 32.058 210.53 32.4967 210.847 33.038C211.183 33.5793 211.351 34.186 211.351 34.858L211.351 47.458L208.327 47.458L208.327 34.942C208.327 34.7553 208.252 34.5967 208.103 34.466C207.972 34.3167 207.814 34.242 207.627 34.242L198.555 34.242C198.368 34.242 198.2 34.3167 198.051 34.466C197.92 34.5967 197.855 34.7553 197.855 34.942L197.855 47.458L194.831 47.458Z" fill="#FDE1B9"/>
<circle cx="61" cy="25" r="8" fill="#FFEEB5"/>
<circle cx="30.5" cy="30.5" r="30" stroke="#FFEEB5"/>
<line x1="20.6464" y1="63.6464" x2="75.6464" y2="8.64645" stroke="#FFF9B5"/>
</svg>
