<svg width="210" height="214" viewBox="0 0 210 214" fill="none" xmlns="http://www.w3.org/2000/svg">
<g style="mix-blend-mode:lighten">
<path d="M82.0612 148.244C62.7271 133.082 59.3447 105.118 74.5063 85.7839L77.6067 81.8302C92.7684 62.4961 120.733 59.1137 140.067 74.2753C159.401 89.437 162.783 117.401 147.622 136.735L144.521 140.689C129.36 160.023 101.395 163.406 82.0612 148.244Z" stroke="#13FFDA" stroke-width="6"/>
</g>
<g style="mix-blend-mode:lighten">
<path d="M74.0262 154.169L60.7897 165.277L52.3351 155.202C51.9339 154.724 51.6914 154.186 51.6074 153.589C51.5008 152.989 51.5469 152.397 51.7456 151.812C51.9321 151.238 52.2705 150.745 52.7607 150.333L55.2977 148.204C55.457 148.071 55.6205 147.954 55.7882 147.855C55.9435 147.767 56.1092 147.69 56.2852 147.626C56.378 147.214 56.5262 146.818 56.7297 146.439C56.921 146.069 57.1698 145.756 57.4762 145.499L60.2706 143.154C60.7608 142.742 61.311 142.489 61.9212 142.395C62.5191 142.311 63.1103 142.369 63.6949 142.567C64.2569 142.764 64.7436 143.108 65.155 143.598L74.0262 154.169ZM69.0463 153.648L62.5973 145.964C62.5664 145.927 62.5398 145.907 62.5172 145.905C62.4721 145.901 62.4312 145.915 62.3944 145.946L59.8758 148.059C59.8513 148.08 59.8371 148.113 59.8331 148.158C59.8189 148.191 59.8272 148.226 59.8581 148.262L66.3071 155.947C66.3379 155.984 66.3759 156.004 66.421 156.008C66.4558 156 66.4854 155.985 66.5099 155.965L69.0285 153.851C69.0653 153.82 69.0908 153.788 69.105 153.755C69.0967 153.721 69.0771 153.685 69.0463 153.648ZM63.6414 158.184L57.6244 151.014C57.6038 150.99 57.5771 150.97 57.5443 150.956C57.4992 150.952 57.4644 150.96 57.4399 150.981L55.1419 152.91C55.1051 152.94 55.0909 152.973 55.0992 153.008C55.0953 153.053 55.1036 153.088 55.1242 153.112L61.1412 160.282C61.172 160.319 61.21 160.339 61.2551 160.343C61.2776 160.345 61.3073 160.331 61.344 160.3L63.642 158.371C63.6665 158.351 63.6859 158.324 63.7001 158.291C63.6918 158.256 63.6722 158.221 63.6414 158.184Z" fill="#13FFDA"/>
</g>
<g style="mix-blend-mode:lighten">
<path d="M59.6466 132.96C59.8299 133.54 59.8561 134.127 59.7254 134.722C59.5745 135.307 59.3008 135.821 58.9043 136.265C58.5077 136.709 58.0195 137.023 57.4398 137.206L52.3824 138.805L49.1566 128.599L47.5547 129.105C47.5241 129.114 47.4985 129.139 47.4776 129.18C47.4567 129.22 47.4511 129.255 47.4607 129.286L50.6432 139.355L47.3936 140.382L44.1606 130.152C43.9725 129.557 43.9539 128.968 44.1047 128.383C44.2403 127.803 44.5064 127.291 44.9029 126.847C45.2995 126.403 45.7877 126.089 46.3674 125.906L56.4136 122.731L59.6466 132.96ZM56.3464 133.827L54.1911 127.007L52.0628 127.68L54.2616 134.637L56.2525 134.007C56.2831 133.998 56.3087 133.973 56.3296 133.933C56.3505 133.893 56.3561 133.857 56.3464 133.827Z" fill="#13FFDA"/>
</g>
<g style="mix-blend-mode:lighten">
<path d="M55.9045 114.194C55.8736 114.801 55.6934 115.352 55.3638 115.848C55.0183 116.343 54.5817 116.738 54.0541 117.031C53.5274 117.309 52.9604 117.432 52.3532 117.402L51.73 117.37L51.9029 113.966L52.3583 113.989C52.3902 113.991 52.423 113.977 52.4566 113.946C52.4902 113.916 52.5078 113.885 52.5094 113.853L52.8649 106.854C52.8665 106.822 52.8522 106.789 52.8218 106.756C52.7915 106.722 52.7604 106.704 52.7284 106.703L51.1704 106.624C51.1385 106.622 51.1137 106.637 51.0961 106.668C51.0625 106.698 51.0449 106.729 51.0433 106.761L50.6792 113.928C50.6484 114.535 50.4682 115.087 50.1386 115.583C49.793 116.078 49.3565 116.472 48.8289 116.766C48.3021 117.044 47.7271 117.167 47.1039 117.135L45.2104 117.039C44.6032 117.008 44.0516 116.828 43.5557 116.498C43.0606 116.153 42.6742 115.716 42.3966 115.19C42.103 114.662 41.9716 114.095 42.0024 113.487L42.375 106.153C42.4066 105.53 42.5952 104.971 42.9408 104.475C43.2704 103.979 43.6985 103.593 44.2253 103.315C44.7529 103.021 45.3203 102.89 45.9275 102.921L46.5507 102.953L46.3766 106.38L45.9212 106.357C45.8892 106.355 45.8564 106.37 45.8229 106.4C45.7893 106.43 45.7717 106.462 45.7701 106.494L45.4145 113.493C45.4129 113.524 45.4273 113.557 45.4576 113.591C45.4879 113.624 45.5191 113.642 45.5511 113.644L47.109 113.723C47.141 113.724 47.1738 113.71 47.2074 113.68C47.225 113.649 47.2346 113.617 47.2362 113.585L47.6002 106.418C47.6319 105.795 47.8205 105.236 48.1661 104.741C48.4956 104.245 48.9238 103.858 49.4506 103.58C49.9781 103.287 50.5535 103.156 51.1767 103.188L53.0703 103.284C53.6775 103.315 54.2287 103.503 54.7238 103.848C55.2197 104.178 55.6145 104.607 55.9081 105.134C56.1857 105.661 56.3087 106.236 56.277 106.859L55.9045 114.194Z" fill="#13FFDA"/>
</g>
<g style="mix-blend-mode:lighten">
<path d="M57.8097 99.3994L44.4752 95.4048L45.4532 92.1401L58.7877 96.1348L57.8097 99.3994ZM43.3946 95.0811L40.107 94.0962L41.085 90.8316L44.3726 91.8164L43.3946 95.0811Z" fill="#13FFDA"/>
</g>
<g style="mix-blend-mode:lighten">
<path d="M61.4486 89.4258C61.1391 89.9491 60.7232 90.3538 60.2009 90.6397C59.6649 90.9176 59.0951 91.0639 58.4915 91.0787C57.896 91.0798 57.3366 90.9256 56.8133 90.6161L50.6571 86.9757C50.1338 86.6662 49.7291 86.2504 49.4431 85.7281C49.1653 85.192 49.0259 84.6263 49.0248 84.0308C49.01 83.4272 49.1573 82.8638 49.4668 82.3404L54.9151 73.1268L57.8486 74.8615L52.4858 83.9305C52.4695 83.958 52.4669 83.9937 52.4782 84.0376C52.4895 84.0814 52.5089 84.1115 52.5364 84.1278L58.4034 87.5971C58.4309 87.6134 58.4666 87.6159 58.5104 87.6047C58.5543 87.5934 58.5843 87.574 58.6006 87.5465L63.9757 78.4568L66.9092 80.1915L61.4486 89.4258Z" fill="#13FFDA"/>
</g>
<g style="mix-blend-mode:lighten">
<path d="M74.8305 70.4288L66.9017 59.1046C66.5347 58.5803 66.3288 58.0213 66.2842 57.4275C66.2435 56.8114 66.3457 56.2321 66.5907 55.6894C66.8397 55.1244 67.2263 54.6584 67.7506 54.2913L76.2241 48.3585C76.7484 47.9914 77.312 47.7921 77.9149 47.7606C78.5218 47.7068 79.1077 47.8044 79.6727 48.0534C80.2285 48.2892 80.6899 48.6693 81.057 49.1936L88.9858 60.5178L86.1154 62.5275L82.853 57.8681L74.3992 63.7871L77.6616 68.4466L74.8305 70.4288ZM72.417 60.9561L80.8708 55.037L78.283 51.3409C78.2555 51.3016 78.224 51.2846 78.1886 51.2898C78.1571 51.2728 78.1217 51.278 78.0824 51.3056L69.8645 57.0594C69.8252 57.087 69.8016 57.123 69.7938 57.1676C69.7898 57.1899 69.8016 57.2207 69.8292 57.26L72.417 60.9561Z" fill="#13FFDA"/>
</g>
<g style="mix-blend-mode:lighten">
<path d="M101.177 57.013L91.0372 44.7835L94.9028 44.0424L101.858 52.5327L105.203 42.0676L109.069 41.3264L104.147 56.4436L101.177 57.013Z" fill="#13FFDA"/>
</g>
<g style="mix-blend-mode:lighten">
<path d="M115.057 55.8278L116.068 41.9446L119.467 42.1922L118.456 56.0754L115.057 55.8278ZM116.15 40.8196L116.4 37.3967L119.799 37.6442L119.549 41.0671L116.15 40.8196Z" fill="#13FFDA"/>
</g>
<g style="mix-blend-mode:lighten">
<path d="M125.552 57.2361C124.973 57.0485 124.48 56.7288 124.071 56.2767C123.683 55.8144 123.423 55.2928 123.292 54.712C123.161 54.1312 123.189 53.5516 123.376 52.9733L125.013 47.9279L135.195 51.2296L135.713 49.6315C135.723 49.6011 135.717 49.5657 135.697 49.5254C135.676 49.4851 135.651 49.46 135.62 49.4501L125.575 46.1929L126.626 42.951L136.831 46.2601C137.425 46.4526 137.916 46.78 138.304 47.2424C138.697 47.6895 138.96 48.2034 139.091 48.7842C139.222 49.365 139.194 49.9446 139.006 50.523L135.757 60.5452L125.552 57.2361ZM126.763 54.0461L133.566 56.2522L134.254 54.129L127.314 51.8785L126.67 53.8647C126.66 53.8951 126.666 53.9305 126.686 53.9708C126.707 54.0111 126.732 54.0362 126.763 54.0461Z" fill="#13FFDA"/>
</g>
<g style="mix-blend-mode:lighten">
<path d="M142.72 65.067C142.209 64.709 141.831 64.2586 141.586 63.7159C141.35 63.1601 141.248 62.5807 141.28 61.9778C141.324 61.384 141.521 60.8381 141.87 60.3401L150.324 48.2703L153.115 50.2254L150.706 53.6655L155.05 56.7084L153.095 59.4998L148.751 56.4569L144.758 62.1576C144.739 62.1839 144.734 62.2192 144.742 62.2638C144.75 62.3084 144.767 62.3398 144.793 62.3582L149.019 65.3185L147.064 68.1099L142.72 65.067Z" fill="#13FFDA"/>
</g>
<g style="mix-blend-mode:lighten">
<path d="M149.72 70.7254L159.629 60.9495L162.022 63.3757L152.113 73.1515L149.72 70.7254ZM160.432 60.1573L162.875 57.7471L165.269 60.1732L162.825 62.5835L160.432 60.1573Z" fill="#13FFDA"/>
</g>
<g style="mix-blend-mode:lighten">
<path d="M156.745 78.8164C156.435 78.2935 156.28 77.7344 156.28 77.1389C156.294 76.5353 156.439 75.9653 156.716 75.4288C157.001 74.9061 157.405 74.4896 157.928 74.1793L164.079 70.5295C164.602 70.2193 165.161 70.0642 165.756 70.0644C166.36 70.0783 166.923 70.2278 167.446 70.513C167.982 70.79 168.406 71.1899 168.716 71.7128L172.464 78.0286C172.782 78.5652 172.935 79.1353 172.921 79.7389C172.92 80.3344 172.778 80.8935 172.493 81.4162C172.207 81.9389 171.803 82.3554 171.281 82.6657L165.13 86.3154C164.607 86.6257 164.048 86.7808 163.452 86.7806C162.857 86.7805 162.291 86.6419 161.755 86.3649C161.232 86.0797 160.811 85.6688 160.493 85.1322L156.745 78.8164ZM159.762 77.2217L163.338 83.2485C163.354 83.276 163.384 83.2954 163.428 83.3066C163.472 83.3178 163.508 83.3152 163.535 83.2989L169.397 79.8206C169.424 79.8042 169.444 79.7741 169.455 79.7303C169.466 79.6864 169.464 79.6508 169.447 79.6232L165.871 73.5965C165.855 73.5689 165.825 73.5496 165.781 73.5384C165.737 73.5272 165.701 73.5298 165.674 73.5461L159.812 77.0244C159.784 77.0407 159.765 77.0708 159.754 77.1147C159.743 77.1585 159.745 77.1942 159.762 77.2217Z" fill="#13FFDA"/>
</g>
<g style="mix-blend-mode:lighten">
<path d="M164.012 92.9078L177.711 90.4361L179.616 100.994C179.727 101.608 179.67 102.195 179.446 102.756C179.238 103.314 178.909 103.788 178.459 104.178C178.009 104.568 177.485 104.817 176.887 104.925L166.518 106.796L165.913 103.442L176.116 101.601C176.148 101.595 176.176 101.574 176.202 101.536C176.231 101.515 176.241 101.481 176.232 101.433L174.988 94.5368C174.982 94.5053 174.961 94.4766 174.924 94.4508C174.886 94.425 174.852 94.4149 174.821 94.4206L164.617 96.2617L164.012 92.9078Z" fill="#13FFDA"/>
</g>
<g style="mix-blend-mode:lighten">
<path d="M80.8043 147.379C61.6472 132.306 59.1544 105.302 75.2286 86.9768L78.8388 82.8611C94.9955 64.442 123.766 61.7863 143.021 76.9365C162.178 92.0093 164.671 119.014 148.597 137.339L144.987 141.455C128.83 159.874 100.06 162.529 80.8043 147.379Z" stroke="#39ACFF" stroke-width="6"/>
</g>
<g style="mix-blend-mode:lighten">
<path d="M72.6498 153.216L59.3303 164.225L50.9515 154.087C50.554 153.606 50.3154 153.066 50.2359 152.468C50.1339 151.867 50.1844 151.275 50.3875 150.692C50.5783 150.12 50.9204 149.629 51.4137 149.222L53.9666 147.112C54.1269 146.979 54.2913 146.864 54.4596 146.766C54.6157 146.679 54.7819 146.604 54.9584 146.541C55.0543 146.13 55.2054 145.735 55.4118 145.357C55.6059 144.989 55.857 144.677 56.1654 144.422L58.9773 142.098C59.4706 141.691 60.0227 141.442 60.6335 141.352C61.232 141.273 61.8228 141.334 62.4058 141.538C62.9663 141.739 63.4504 142.086 63.8582 142.579L72.6498 153.216ZM67.6739 152.658L61.2828 144.926C61.2522 144.889 61.2257 144.869 61.2031 144.867C61.1581 144.863 61.1171 144.876 61.0801 144.906L58.5457 147.001C58.521 147.021 58.5065 147.054 58.5022 147.099C58.4878 147.132 58.4958 147.167 58.5264 147.204L64.9175 154.936C64.9481 154.973 64.9859 154.994 65.031 154.998C65.0658 154.99 65.0956 154.976 65.1202 154.956L67.6546 152.861C67.6916 152.83 67.7174 152.799 67.7319 152.766C67.7238 152.731 67.7045 152.695 67.6739 152.658ZM62.2351 157.153L56.2721 149.939C56.2517 149.914 56.2252 149.894 56.1925 149.88C56.1474 149.876 56.1125 149.884 56.0879 149.904L53.7755 151.815C53.7385 151.846 53.724 151.879 53.732 151.914C53.7278 151.959 53.7358 151.993 53.7562 152.018L59.7192 159.233C59.7498 159.27 59.7876 159.29 59.8326 159.295C59.8552 159.297 59.8849 159.283 59.9219 159.252L62.2343 157.341C62.259 157.321 62.2786 157.294 62.2931 157.261C62.285 157.226 62.2657 157.19 62.2351 157.153Z" fill="#39ACFF"/>
</g>
<g style="mix-blend-mode:lighten">
<path d="M58.5469 131.858C58.7127 132.443 58.7214 133.031 58.5729 133.622C58.4046 134.202 58.1157 134.708 57.706 135.14C57.2963 135.572 56.799 135.871 56.214 136.037L51.1111 137.483L48.1919 127.185L46.5756 127.643C46.5448 127.652 46.5184 127.676 46.4963 127.716C46.4743 127.755 46.4676 127.79 46.4763 127.821L49.3562 137.981L46.0774 138.91L43.1517 128.589C42.9815 127.989 42.9806 127.398 43.1488 126.819C43.3017 126.243 43.5829 125.739 43.9926 125.307C44.4023 124.875 44.8996 124.576 45.4846 124.41L55.6212 121.537L58.5469 131.858ZM55.2223 132.626L53.2718 125.745L51.1244 126.354L53.1141 133.373L55.123 132.804C55.1538 132.795 55.1802 132.771 55.2023 132.732C55.2243 132.692 55.231 132.657 55.2223 132.626Z" fill="#39ACFF"/>
</g>
<g style="mix-blend-mode:lighten">
<path d="M55.5205 112.846C55.453 113.45 55.2397 113.99 54.8807 114.465C54.5058 114.938 54.0461 115.305 53.5018 115.567C52.9591 115.812 52.3857 115.901 51.7815 115.833L51.1614 115.764L51.54 112.377L51.9932 112.428C52.025 112.431 52.0586 112.419 52.0939 112.391C52.1293 112.362 52.1488 112.332 52.1523 112.3L52.931 105.336C52.9346 105.304 52.9222 105.27 52.894 105.235C52.8657 105.2 52.8357 105.18 52.8039 105.177L51.2536 105.003C51.2218 105 51.1961 105.013 51.1767 105.043C51.1413 105.071 51.1219 105.101 51.1183 105.133L50.3209 112.265C50.2534 112.869 50.0401 113.409 49.6811 113.884C49.3062 114.357 48.8465 114.724 48.3022 114.985C47.7595 115.23 47.1782 115.318 46.558 115.249L44.6738 115.038C44.0695 114.971 43.5299 114.758 43.0548 114.399C42.5816 114.024 42.2223 113.565 41.9771 113.022C41.716 112.478 41.6192 111.904 41.6867 111.299L42.5028 104.001C42.5721 103.381 42.7942 102.834 43.1691 102.361C43.5282 101.886 43.979 101.526 44.5216 101.28C45.066 101.019 45.6403 100.922 46.2445 100.99L46.8646 101.059L46.4833 104.47L46.0301 104.419C45.9983 104.416 45.9647 104.428 45.9294 104.456C45.894 104.485 45.8746 104.515 45.871 104.546L45.0923 111.511C45.0888 111.543 45.1011 111.576 45.1293 111.612C45.1576 111.647 45.1876 111.667 45.2194 111.67L46.7698 111.844C46.8016 111.847 46.8351 111.835 46.8705 111.807C46.89 111.776 46.9015 111.746 46.905 111.714L47.7024 104.582C47.7717 103.962 47.9938 103.415 48.3687 102.942C48.7278 102.467 49.1786 102.107 49.7212 101.862C50.2656 101.601 50.8478 101.505 51.468 101.574L53.3522 101.785C53.9564 101.852 54.4952 102.073 54.9685 102.448C55.4435 102.807 55.8116 103.259 56.0727 103.803C56.318 104.346 56.4059 104.927 56.3366 105.548L55.5205 112.846Z" fill="#39ACFF"/>
</g>
<g style="mix-blend-mode:lighten">
<path d="M58.4536 98.0052L45.4776 92.9663L46.7113 89.7894L59.6873 94.8283L58.4536 98.0052ZM44.4261 92.558L41.2269 91.3156L42.4606 88.1387L45.6598 89.3811L44.4261 92.558Z" fill="#39ACFF"/>
</g>
<g style="mix-blend-mode:lighten">
<path d="M62.975 88.2425C62.6201 88.7361 62.1698 89.1021 61.6241 89.3404C61.0654 89.5693 60.4848 89.6642 59.8822 89.6252C59.2891 89.5732 58.7457 89.3697 58.252 89.0148L52.4449 84.8401C51.9512 84.4852 51.5852 84.0349 51.347 83.4892C51.118 82.9305 51.0296 82.3545 51.0816 81.7614C51.1207 81.1588 51.3176 80.6108 51.6725 80.1171L57.9207 71.4259L60.6878 73.4152L54.5377 81.97C54.5191 81.996 54.5134 82.0313 54.5207 82.076C54.528 82.1206 54.5446 82.1523 54.5706 82.171L60.1049 86.1496C60.1309 86.1683 60.1662 86.174 60.2109 86.1667C60.2555 86.1594 60.2872 86.1427 60.3059 86.1167L66.4699 77.5425L69.2371 79.5318L62.975 88.2425Z" fill="#39ACFF"/>
</g>
<g style="mix-blend-mode:lighten">
<path d="M77.5736 70.5801L70.4817 58.7139C70.1534 58.1645 69.9884 57.5921 69.9867 56.9967C69.9905 56.3793 70.1341 55.8088 70.4177 55.2852C70.7067 54.7396 71.1259 54.3027 71.6753 53.9743L80.5544 48.6677C81.1038 48.3394 81.6803 48.1813 82.2839 48.1933C82.8931 48.1834 83.4705 48.3229 84.016 48.612C84.5534 48.8873 84.9862 49.2997 85.3145 49.849L92.4064 61.7153L89.3987 63.5129L86.4806 58.6304L77.6222 63.9247L80.5402 68.8072L77.5736 70.5801ZM75.8492 60.9581L84.7077 55.6638L82.393 51.7908C82.3683 51.7496 82.3382 51.7304 82.3025 51.733C82.2724 51.7138 82.2367 51.7165 82.1955 51.7411L73.5842 56.8876C73.543 56.9123 73.5169 56.9465 73.5058 56.9904C73.5003 57.0123 73.5098 57.0439 73.5345 57.0851L75.8492 60.9581Z" fill="#39ACFF"/>
</g>
<g style="mix-blend-mode:lighten">
<path d="M104.873 58.853L95.3457 46.1402L99.2431 45.5899L105.773 54.4116L109.628 44.1234L113.525 43.5731L107.867 58.4302L104.873 58.853Z" fill="#39ACFF"/>
</g>
<g style="mix-blend-mode:lighten">
<path d="M118.519 58.2454L119.932 44.3972L123.322 44.7431L121.909 58.5913L118.519 58.2454ZM120.046 43.2751L120.395 39.8608L123.785 40.2067L123.437 43.621L120.046 43.2751Z" fill="#39ACFF"/>
</g>
<g style="mix-blend-mode:lighten">
<path d="M129.166 59.9741C128.591 59.7755 128.104 59.4463 127.705 58.9865C127.325 58.5168 127.075 57.9904 126.955 57.4072C126.835 56.8239 126.874 56.245 127.073 55.6704L128.806 50.6573L138.922 54.1536L139.471 52.5658C139.482 52.5355 139.477 52.5001 139.457 52.4594C139.437 52.4187 139.412 52.3931 139.382 52.3826L129.401 48.9333L130.515 45.7123L140.654 49.2165C141.244 49.4203 141.728 49.757 142.108 50.2267C142.492 50.6813 142.745 51.2002 142.865 51.7834C142.985 52.3666 142.946 52.9455 142.747 53.5202L139.306 63.4783L129.166 59.9741ZM130.438 56.8079L137.198 59.144L137.927 57.0344L131.031 54.6513L130.349 56.6248C130.339 56.655 130.343 56.6905 130.363 56.7312C130.383 56.7719 130.408 56.7974 130.438 56.8079Z" fill="#39ACFF"/>
</g>
<g style="mix-blend-mode:lighten">
<path d="M146.042 67.9728C145.535 67.6099 145.161 67.156 144.921 66.611C144.691 66.0529 144.594 65.4726 144.631 64.87C144.682 64.2767 144.884 63.7327 145.237 63.238L153.806 51.2491L156.578 53.2307L154.136 56.6477L158.451 59.7317L156.47 62.5044L152.155 59.4204L148.108 65.0829C148.089 65.109 148.083 65.1443 148.091 65.1889C148.098 65.2336 148.115 65.2652 148.141 65.2838L152.339 68.2841L150.358 71.0568L146.042 67.9728Z" fill="#39ACFF"/>
</g>
<g style="mix-blend-mode:lighten">
<path d="M152.934 73.6532L162.942 63.9776L165.31 66.4277L155.303 76.1033L152.934 73.6532ZM163.752 63.1935L166.22 60.808L168.589 63.2581L166.121 65.6436L163.752 63.1935Z" fill="#39ACFF"/>
</g>
<g style="mix-blend-mode:lighten">
<path d="M159.884 81.8558C159.584 81.3268 159.44 80.7647 159.452 80.1694C159.478 79.5662 159.635 78.9991 159.923 78.4683C160.218 77.9513 160.63 77.5429 161.159 77.2431L167.381 73.7164C167.91 73.4165 168.472 73.2726 169.068 73.2846C169.671 73.3105 170.231 73.4713 170.748 73.7668C171.279 74.0544 171.694 74.4627 171.994 74.9916L175.615 81.3806C175.923 81.9235 176.064 82.4965 176.038 83.0997C176.026 83.6951 175.872 84.2512 175.577 84.7682C175.281 85.2851 174.869 85.6935 174.34 85.9933L168.118 89.52C167.589 89.8199 167.027 89.9638 166.432 89.9518C165.836 89.9398 165.273 89.79 164.742 89.5023C164.225 89.2068 163.813 88.7876 163.505 88.2448L159.884 81.8558ZM162.932 80.3214L166.387 86.4181C166.403 86.4459 166.433 86.4659 166.477 86.4779C166.52 86.49 166.556 86.4881 166.584 86.4724L172.513 83.1113C172.541 83.0955 172.561 83.0658 172.573 83.0222C172.585 82.9786 172.583 82.9429 172.568 82.915L169.112 76.8183C169.096 76.7905 169.066 76.7705 169.023 76.7585C168.979 76.7464 168.943 76.7483 168.916 76.764L162.986 80.1251C162.958 80.1409 162.938 80.1706 162.926 80.2142C162.914 80.2578 162.916 80.2936 162.932 80.3214Z" fill="#39ACFF"/>
</g>
<g style="mix-blend-mode:lighten">
<path d="M166.905 96.3838L180.714 94.627L182.068 105.269C182.146 105.888 182.059 106.472 181.806 107.02C181.57 107.566 181.216 108.023 180.747 108.389C180.277 108.755 179.741 108.976 179.138 109.053L168.686 110.383L168.256 107.002L178.541 105.694C178.573 105.69 178.602 105.67 178.63 105.634C178.66 105.614 178.672 105.58 178.666 105.533L177.781 98.5807C177.777 98.5489 177.757 98.5192 177.721 98.4915C177.686 98.4638 177.652 98.452 177.62 98.456L167.335 99.7645L166.905 96.3838Z" fill="#39ACFF"/>
</g>
<g style="mix-blend-mode:lighten">
<path d="M84.1435 150.753C64.8393 135.665 60.559 107.091 74.5947 87.0091L77.731 82.5218C91.695 62.542 118.515 58.5244 137.721 73.5354C157.025 88.6234 161.305 117.197 147.27 137.279L144.133 141.767C130.169 161.746 103.349 165.764 84.1435 150.753Z" stroke="#FF2788" stroke-width="6"/>
</g>
<g style="mix-blend-mode:lighten">
<path d="M76.1334 156.688L62.943 167.851L54.4468 157.812C54.0436 157.336 53.7988 156.799 53.7124 156.201C53.6033 155.602 53.647 155.009 53.8433 154.424C54.0274 153.849 54.3637 153.355 54.8522 152.941L57.3804 150.802C57.5392 150.667 57.7022 150.55 57.8694 150.451C58.0244 150.361 58.1898 150.284 58.3655 150.219C58.4566 149.807 58.6031 149.41 58.8051 149.03C58.9948 148.66 59.2424 148.345 59.5477 148.087L62.3323 145.73C62.8209 145.317 63.37 145.062 63.9798 144.965C64.5773 144.879 65.1688 144.933 65.7541 145.13C66.3169 145.324 66.8051 145.666 67.2185 146.154L76.1334 156.688ZM71.1514 156.188L64.6706 148.531C64.6396 148.494 64.6129 148.475 64.5903 148.473C64.5452 148.469 64.5043 148.483 64.4677 148.514L61.9579 150.638C61.9334 150.658 61.9194 150.691 61.9156 150.736C61.9015 150.769 61.91 150.804 61.941 150.841L68.4217 158.498C68.4527 158.535 68.4908 158.555 68.5359 158.559C68.5706 158.551 68.6002 158.536 68.6247 158.515L71.1345 156.391C71.1711 156.36 71.1965 156.328 71.2106 156.295C71.2021 156.261 71.1824 156.225 71.1514 156.188ZM65.7653 160.747L59.7187 153.602C59.698 153.577 59.6712 153.558 59.6384 153.544C59.5933 153.54 59.5585 153.549 59.5341 153.569L57.2441 155.507C57.2074 155.538 57.1933 155.571 57.2018 155.606C57.198 155.651 57.2065 155.686 57.2272 155.71L63.2738 162.855C63.3048 162.892 63.3429 162.912 63.388 162.916C63.4105 162.918 63.4401 162.903 63.4767 162.872L65.7667 160.934C65.7912 160.913 65.8104 160.887 65.8245 160.854C65.8161 160.819 65.7963 160.783 65.7653 160.747Z" fill="#FF2780"/>
</g>
<g style="mix-blend-mode:lighten">
<path d="M61.6939 135.856C61.892 136.43 61.9335 137.017 61.8181 137.615C61.6824 138.204 61.4221 138.725 61.0371 139.179C60.6522 139.633 60.1723 139.96 59.5975 140.158L54.583 141.886L51.0947 131.767L49.5064 132.314C49.4762 132.324 49.4511 132.35 49.4313 132.391C49.4115 132.431 49.4068 132.467 49.4172 132.497L52.8586 142.481L49.6366 143.591L46.1405 133.449C45.9371 132.859 45.9033 132.27 46.039 131.681C46.1595 131.098 46.4123 130.58 46.7973 130.125C47.1823 129.671 47.6622 129.345 48.237 129.147L58.1978 125.713L61.6939 135.856ZM58.4172 136.807L56.0865 130.046L53.9763 130.773L56.354 137.671L58.328 136.99C58.3583 136.98 58.3833 136.954 58.4031 136.914C58.4229 136.873 58.4276 136.838 58.4172 136.807Z" fill="#FF2780"/>
</g>
<g style="mix-blend-mode:lighten">
<path d="M57.331 117.396C57.3311 118.004 57.1793 118.564 56.8754 119.077C56.5555 119.589 56.1396 120.005 55.6276 120.325C55.1157 120.629 54.5557 120.781 53.9477 120.781L53.3237 120.781L53.323 117.373L53.779 117.373C53.811 117.373 53.843 117.357 53.875 117.325C53.907 117.293 53.923 117.261 53.923 117.229L53.9215 110.221C53.9215 110.189 53.9055 110.157 53.8735 110.125C53.8415 110.093 53.8095 110.077 53.7775 110.077L52.2175 110.078C52.1855 110.078 52.1615 110.094 52.1455 110.126C52.1135 110.158 52.0975 110.19 52.0975 110.222L52.099 117.398C52.0991 118.006 51.9473 118.566 51.6434 119.078C51.3235 119.59 50.9076 120.006 50.3956 120.326C49.8837 120.63 49.3157 120.782 48.6917 120.782L46.7957 120.783C46.1877 120.783 45.6277 120.631 45.1156 120.327C44.6036 120.007 44.1955 119.591 43.8914 119.079C43.5713 118.567 43.4111 118.007 43.411 117.399L43.4095 110.055C43.4093 109.431 43.5692 108.863 43.8891 108.351C44.193 107.839 44.6009 107.431 45.1129 107.127C45.6248 106.807 46.1848 106.647 46.7928 106.647L47.4168 106.647L47.4175 110.079L46.9615 110.079C46.9295 110.079 46.8975 110.095 46.8655 110.127C46.8335 110.159 46.8175 110.191 46.8175 110.223L46.819 117.231C46.819 117.263 46.835 117.295 46.867 117.327C46.899 117.359 46.931 117.375 46.963 117.375L48.523 117.374C48.555 117.374 48.587 117.358 48.619 117.326C48.635 117.294 48.643 117.262 48.643 117.23L48.6415 110.054C48.6413 109.43 48.8012 108.862 49.1211 108.35C49.425 107.838 49.8329 107.43 50.3449 107.126C50.8568 106.806 51.4248 106.646 52.0488 106.646L53.9448 106.645C54.5528 106.645 55.1128 106.805 55.6249 107.125C56.1369 107.429 56.553 107.837 56.8731 108.349C57.1772 108.86 57.3293 109.428 57.3295 110.052L57.331 117.396Z" fill="#FF2780"/>
</g>
<g style="mix-blend-mode:lighten">
<path d="M58.4553 102.242L44.899 99.0813L45.6729 95.7624L59.2293 98.9235L58.4553 102.242ZM43.8005 98.8252L40.4581 98.0458L41.2321 94.7268L44.5744 95.5062L43.8005 98.8252Z" fill="#FF2780"/>
</g>
<g style="mix-blend-mode:lighten">
<path d="M61.5062 91.968C61.2336 92.5115 60.8467 92.9438 60.3453 93.2652C59.8297 93.5793 59.2714 93.7646 58.6702 93.8211C58.0763 93.8632 57.5076 93.748 56.9641 93.4754L50.5714 90.2684C50.028 89.9958 49.5956 89.6088 49.2743 89.1075C48.9601 88.5919 48.782 88.0371 48.7398 87.4431C48.6834 86.842 48.7915 86.2697 49.0641 85.7263L53.8638 76.1587L56.91 77.6868L52.1856 87.1043C52.1713 87.1329 52.1712 87.1686 52.1855 87.2116C52.1997 87.2545 52.2211 87.2832 52.2498 87.2975L58.3421 90.3538C58.3707 90.3682 58.4065 90.3682 58.4494 90.354C58.4924 90.3397 58.521 90.3183 58.5354 90.2897L63.2705 80.8508L66.3167 82.379L61.5062 91.968Z" fill="#FF2780"/>
</g>
<g style="mix-blend-mode:lighten">
<path d="M73.2208 72.4839L64.4327 61.8128C64.0259 61.3188 63.777 60.7775 63.6862 60.1891C63.5976 59.5781 63.6542 58.9925 63.8562 58.4323C64.0603 57.8497 64.4094 57.3549 64.9035 56.948L72.8883 50.3722C73.3823 49.9653 73.9286 49.7227 74.5273 49.6442C75.1281 49.5432 75.7199 49.5948 76.3026 49.799C76.8751 49.9907 77.3647 50.3337 77.7716 50.8277L86.5597 61.4988L83.8549 63.7263L80.2389 59.3356L72.2727 65.8962L75.8886 70.2869L73.2208 72.4839ZM70.0756 63.2284L78.0419 56.6678L75.1736 53.1849C75.143 53.1479 75.1104 53.1333 75.0755 53.1413C75.0428 53.1268 75.0079 53.1348 74.9709 53.1653L67.2269 59.5428C67.1899 59.5733 67.1692 59.6111 67.1648 59.6561C67.1626 59.6786 67.1768 59.7084 67.2073 59.7455L70.0756 63.2284Z" fill="#FF2780"/>
</g>
<g style="mix-blend-mode:lighten">
<path d="M98.7275 57.1839L88.0188 45.4491L91.8449 44.5255L99.1948 52.6764L102.04 42.0644L105.866 41.1408L101.667 56.4743L98.7275 57.1839Z" fill="#FF2780"/>
</g>
<g style="mix-blend-mode:lighten">
<path d="M112.887 55.4457L113.595 41.5437L116.999 41.717L116.291 55.619L112.887 55.4457ZM113.652 40.4172L113.827 36.9896L117.23 37.1629L117.056 40.5904L113.652 40.4172Z" fill="#FF2780"/>
</g>
<g style="mix-blend-mode:lighten">
<path d="M123.552 56.7132C122.973 56.5278 122.478 56.2098 122.068 55.7593C121.678 55.2984 121.416 54.7778 121.283 54.1975C121.149 53.6172 121.175 53.0375 121.361 52.4585L122.978 47.4071L133.172 50.6711L133.685 49.0711C133.694 49.0407 133.689 49.0053 133.668 48.9651C133.648 48.9248 133.622 48.8998 133.591 48.8901L123.534 45.67L124.574 42.4243L134.791 45.6956C135.385 45.8859 135.877 46.2115 136.267 46.6724C136.662 47.118 136.926 47.631 137.06 48.2113C137.193 48.7916 137.167 49.3713 136.982 49.9504L133.769 59.9846L123.552 56.7132ZM124.751 53.5188L131.562 55.6997L132.243 53.574L125.294 51.3491L124.658 53.3377C124.648 53.3682 124.653 53.4035 124.674 53.4438C124.695 53.484 124.72 53.509 124.751 53.5188Z" fill="#FF2780"/>
</g>
<g style="mix-blend-mode:lighten">
<path d="M140.715 64.5678C140.206 64.2067 139.831 63.7541 139.589 63.2099C139.357 62.6526 139.258 62.0726 139.294 61.4699C139.342 60.8764 139.542 60.3317 139.894 59.8358L148.421 47.8174L151.2 49.7894L148.77 53.2148L153.096 56.2839L151.124 59.0635L146.798 55.9943L142.771 61.6708C142.752 61.6969 142.747 61.7323 142.754 61.7769C142.762 61.8215 142.779 61.8531 142.805 61.8716L147.013 64.8574L145.041 67.6369L140.715 64.5678Z" fill="#FF2780"/>
</g>
<g style="mix-blend-mode:lighten">
<path d="M147.647 70.2402L157.604 60.5132L159.986 62.9511L150.028 72.6781L147.647 70.2402ZM158.411 59.725L160.866 57.3268L163.248 59.7646L160.793 62.1628L158.411 59.725Z" fill="#FF2780"/>
</g>
<g style="mix-blend-mode:lighten">
<path d="M154.565 78.2434C154.252 77.7222 154.094 77.1639 154.091 76.5685C154.102 75.9648 154.244 75.394 154.518 74.856C154.801 74.3318 155.203 73.9131 155.724 73.6001L161.855 69.9175C162.376 69.6044 162.934 69.4464 163.53 69.4434C164.133 69.454 164.697 69.6006 165.222 69.883C165.76 70.1571 166.185 70.5548 166.498 71.076L170.28 77.3716C170.601 77.9065 170.756 78.4758 170.745 79.0795C170.749 79.675 170.609 80.2348 170.326 80.759C170.044 81.2833 169.642 81.7019 169.121 82.015L162.99 85.6976C162.469 86.0106 161.91 86.1687 161.315 86.1717C160.72 86.1747 160.153 86.0392 159.615 85.765C159.091 85.4826 158.668 85.074 158.347 84.5391L154.565 78.2434ZM157.573 76.6327L161.182 82.6403C161.198 82.6677 161.228 82.6869 161.272 82.6978C161.316 82.7088 161.352 82.706 161.379 82.6896L167.222 79.18C167.25 79.1635 167.269 79.1333 167.28 79.0894C167.291 79.0455 167.288 79.0098 167.272 78.9824L163.663 72.9748C163.647 72.9474 163.616 72.9282 163.573 72.9172C163.529 72.9063 163.493 72.909 163.466 72.9255L157.623 76.4351C157.595 76.4515 157.576 76.4817 157.565 76.5256C157.554 76.5696 157.557 76.6052 157.573 76.6327Z" fill="#FF2780"/>
</g>
<g style="mix-blend-mode:lighten">
<path d="M161.923 92.2158L175.555 89.3983L177.726 99.9042C177.853 100.515 177.811 101.104 177.601 101.67C177.407 102.233 177.09 102.715 176.65 103.117C176.211 103.518 175.693 103.78 175.097 103.903L164.78 106.036L164.09 102.698L174.243 100.6C174.274 100.593 174.303 100.571 174.327 100.533C174.356 100.511 174.365 100.477 174.355 100.43L172.937 93.5666C172.93 93.5352 172.908 93.5071 172.87 93.4823C172.832 93.4574 172.798 93.4482 172.766 93.4547L162.613 95.5533L161.923 92.2158Z" fill="#FF2780"/>
</g>
</svg>
