<svg width="207" height="64" viewBox="0 0 207 64" fill="none" xmlns="http://www.w3.org/2000/svg">
<rect x="20.1094" y="17.2817" width="186.39" height="36.218" fill="#2A484D" stroke="#FFF9B5" stroke-dasharray="200 200"/>
<path d="M82.3722 45.5122L82.3722 25.3522L98.0522 25.3522C98.7055 25.3522 99.3122 25.5202 99.8722 25.8562C100.432 26.1735 100.871 26.6122 101.188 27.1722C101.524 27.7135 101.692 28.3202 101.692 28.9922L101.692 33.1082C101.692 33.3509 101.664 33.5935 101.608 33.8362C101.571 34.0789 101.496 34.3029 101.384 34.5082C101.758 35.0309 102.038 35.5255 102.224 35.9922C102.43 36.4402 102.532 36.8975 102.532 37.3642L102.532 41.8722C102.532 42.5442 102.364 43.1602 102.028 43.7202C101.711 44.2615 101.272 44.7002 100.712 45.0362C100.152 45.3535 99.5362 45.5122 98.8642 45.5122L82.3722 45.5122ZM86.0962 42.4882L98.8082 42.4882C98.9949 42.4882 99.1535 42.4229 99.2842 42.2922C99.4149 42.1429 99.4802 41.9749 99.4802 41.7882L99.4802 37.4482C99.4802 37.2615 99.4149 37.1029 99.2842 36.9722C99.1535 36.8229 98.9949 36.7482 98.8082 36.7482L86.0962 36.7482C85.9095 36.7482 85.7415 36.8229 85.5922 36.9722C85.4615 37.1029 85.3962 37.2615 85.3962 37.4482L85.3962 41.7882C85.3962 41.9749 85.4615 42.1429 85.5922 42.2922C85.7415 42.4229 85.9095 42.4882 86.0962 42.4882ZM86.0962 33.7242L97.9682 33.7242C98.1549 33.7242 98.3135 33.6589 98.4442 33.5282C98.5749 33.3789 98.6402 33.2109 98.6402 33.0242L98.6402 29.0762C98.6402 28.8895 98.5749 28.7309 98.4442 28.6002C98.3135 28.4509 98.1549 28.3762 97.9682 28.3762L86.0962 28.3762C85.9095 28.3762 85.7415 28.4509 85.5922 28.6002C85.4615 28.7309 85.3962 28.8895 85.3962 29.0762L85.3962 33.0242C85.3962 33.2109 85.4615 33.3789 85.5922 33.5282C85.7415 33.6589 85.9095 33.7242 86.0962 33.7242ZM105.473 45.5122L105.473 32.9122C105.473 32.2402 105.641 31.6335 105.977 31.0922C106.313 30.5509 106.752 30.1122 107.293 29.7762C107.853 29.4402 108.46 29.2722 109.113 29.2722L118.185 29.2722L118.185 32.2962L109.197 32.2962C109.01 32.2962 108.842 32.3709 108.693 32.5202C108.562 32.6509 108.497 32.8095 108.497 32.9962L108.497 45.5122L105.473 45.5122ZM120.129 45.5122L120.129 29.2722L123.153 29.2722L123.153 45.5122L120.129 45.5122ZM120.129 26.9762L120.129 23.9522L123.153 23.9522L123.153 26.9762L120.129 26.9762ZM129.62 45.5122C128.948 45.5122 128.342 45.3442 127.8 45.0082C127.259 44.6722 126.82 44.2335 126.484 43.6922C126.148 43.1509 125.98 42.5442 125.98 41.8722L125.98 32.9122C125.98 32.2402 126.148 31.6335 126.484 31.0922C126.82 30.5509 127.259 30.1122 127.8 29.7762C128.342 29.4402 128.948 29.2722 129.62 29.2722L142.444 29.2722L142.444 32.2962L129.704 32.2962C129.518 32.2962 129.35 32.3709 129.2 32.5202C129.07 32.6509 129.004 32.8095 129.004 32.9962L129.004 41.7882C129.004 41.9749 129.07 42.1429 129.2 42.2922C129.35 42.4229 129.518 42.4882 129.704 42.4882L142.5 42.4882L142.5 45.5122L129.62 45.5122ZM144.904 45.5122L144.904 23.9522L147.928 23.9522L147.928 35.8802L151.568 35.8802L157.644 29.2722L161.116 29.2722L161.116 29.8322L154.256 37.3922L161.116 44.9522L161.116 45.5122L157.644 45.5122L151.568 38.9042L147.928 38.9042L147.928 45.5122L144.904 45.5122Z" fill="#FDE1B9"/>
<circle cx="61" cy="25" r="8" fill="#FFEEB5"/>
<circle cx="30.5" cy="30.5" r="30" stroke="#FFEEB5"/>
<line x1="20.6464" y1="63.6464" x2="75.6464" y2="8.64645" stroke="#FFF9B5"/>
</svg>
