<svg width="270" height="167" viewBox="0 0 270 167" fill="none" xmlns="http://www.w3.org/2000/svg">
<path d="M208.568 75.382C207.769 75.542 206.491 75.8408 205.852 76.3263C205.317 76.7318 205.482 77.2654 205.988 77.6309C206.555 78.0417 207.415 78.0337 208.06 77.879C208.994 77.6549 209.977 77.2654 210.853 76.8786C211.119 76.7612 212.04 76.385 212.038 76.0596C212.038 75.4673 210.073 75.0218 209.665 75.0005C208.701 74.9471 207.708 75.4673 206.827 75.8061C206.414 75.9662 205.908 76.0489 205.969 76.6118C206.049 77.3481 207.29 77.7189 207.871 77.7749C208.872 77.8683 209.865 77.3721 210.778 77.036C211.18 76.8866 211.617 76.7585 211.998 76.5531C212.506 76.2783 212.6 76.337 212.232 75.9182C212.016 75.6728 211.484 75.438 211.196 75.3046C209.993 74.7497 208.882 74.7124 207.663 75.1445C206.997 75.382 205.101 75.7475 205.032 76.6812C204.934 78.0177 207.698 78.754 208.64 78.9274C209.838 79.1461 210.933 78.5592 212.03 78.1484C212.288 78.0524 213.082 77.847 213.1 77.4788C213.116 77.1854 211.612 76.3664 211.375 76.2223C210.169 75.4833 208.283 74.3736 206.832 74.7337C206.422 74.8351 206.017 75.0192 205.623 75.1632C205.338 75.2673 204.585 75.3953 204.377 75.6327C203.626 76.4918 206.284 77.911 207.045 78.1057C208.475 78.4685 209.692 77.9403 211.01 77.4548C211.383 77.3161 211.929 77.2014 212.232 76.9293C213.044 76.2036 211.995 75.3393 211.356 74.9578C210.011 74.1522 209.005 74.5843 207.684 75.0725C207.224 75.2433 206.526 75.3633 206.18 75.7448C205.759 76.209 205.908 76.9133 206.473 77.14C206.683 77.2227 207.511 76.7745 207.73 76.6972C207.945 76.6171 208.763 76.1423 208.976 76.2276C208.172 75.9048 208.35 74.8644 209.106 74.5737C208.329 74.8538 207.551 75.1365 206.774 75.4167C207.924 75.2539 211.439 76.8519 209.426 78.0177C210.243 77.7189 211.063 77.4174 211.881 77.1187C210.792 77.4841 209.601 77.3454 208.587 76.8279C208.038 76.5478 206.273 75.3073 206.88 74.7177C206.063 75.0165 205.243 75.318 204.425 75.6167C205.549 75.2966 207.162 76.193 208.134 76.7078C208.637 76.9746 209.125 77.2734 209.591 77.6015C210.185 78.0177 210.922 78.2845 210.147 78.8233C210.352 78.7433 210.557 78.6659 210.762 78.5859C210.661 78.6233 210.56 78.6606 210.459 78.698C211.087 78.4739 211.716 78.2471 212.344 78.023C211.093 78.2284 209.764 77.6976 208.683 77.1027C207.737 76.5851 206.963 75.55 208.286 74.9285C207.453 75.2326 206.619 75.5367 205.783 75.8408C206.513 75.6407 207.216 75.7181 207.94 75.9315C208.326 76.0462 208.699 76.201 209.053 76.393C209.29 76.5211 209.514 76.6651 209.729 76.8279C210.086 76.9479 210.147 77.0653 209.913 77.1854C209.426 77.5508 209.801 77.4388 211.045 76.8466C210.877 76.8706 210.709 76.8786 210.541 76.8652C210.219 76.7745 209.886 76.7932 209.564 76.6625C208.997 76.4331 207.796 75.5367 208.925 75.0538C208.105 75.3526 207.285 75.6487 206.467 75.9475C207.277 75.8382 208.07 75.9982 208.784 76.4064C209.117 76.5958 209.537 76.7772 209.418 77.0973C209.301 77.4121 208.672 77.6469 208.398 77.7696C209.215 77.4708 210.035 77.1694 210.853 76.8706C210.139 77.1 209.346 77.1587 208.661 76.8012C208.078 76.4971 207.775 75.9449 208.313 75.4327C207.479 75.7368 206.646 76.0409 205.81 76.345C205.895 76.329 205.98 76.3103 206.065 76.2943C206.931 76.1209 207.714 75.5527 208.568 75.382Z" fill="#FF2A0C"/>
<path d="M244.747 77.7056C244.654 77.6923 244.56 77.6763 244.472 77.6736C244.414 77.6683 244.353 77.6603 244.294 77.6523C244.771 77.5562 245.247 77.4388 245.679 77.3321C245.021 77.3321 244.27 77.3321 243.495 77.3775C243.599 77.3215 243.708 77.2708 243.785 77.1854C243.78 77.1694 243.746 77.1721 243.73 77.1694C243.796 77.1987 243.682 77.2094 243.652 77.2201C243.13 77.3561 242.609 77.3481 242.092 77.2761C242.113 76.9373 241.977 76.5585 241.618 76.6572C241.187 76.7292 240.758 76.8173 240.329 76.9053C240.172 76.8706 240.015 76.8386 239.858 76.8093C239.387 76.7319 238.907 76.7026 238.428 76.7052C238.393 76.6332 238.354 76.5718 238.308 76.5292C236.844 76.0783 235.278 75.7688 233.744 75.5634C233.084 75.4647 232.421 75.4167 231.758 75.398C230.97 75.2406 230.179 75.1179 229.372 75.0806C228.991 75.0646 228.611 75.0672 228.23 75.0726C228.065 75.0272 227.897 74.9845 227.732 74.9472C227.767 74.9419 227.801 74.9285 227.825 74.8992C227.86 74.8378 227.854 74.7418 227.793 74.6991C226.158 73.9228 224.361 73.9735 222.604 74.2562C222.388 74.2056 222.169 74.1549 221.954 74.1042C221.898 73.8534 221.797 73.6347 221.648 73.4959C221.57 73.3999 221.448 73.3972 221.333 73.3892C220.806 73.3786 220.276 73.3732 219.749 73.3759C218.724 73.3706 217.707 73.5226 216.684 73.5706C216.626 73.5733 216.564 73.5733 216.506 73.576C216.338 73.5119 216.149 73.4879 215.971 73.4693C215.409 73.3972 214.839 73.4079 214.275 73.3839C211.119 73.3172 207.777 71.119 204.745 72.789C204.505 72.925 204.406 72.9811 204.327 73.0077C204.271 73.0024 204.217 72.9917 204.162 72.9864C203.959 72.9597 203.722 72.9411 203.589 73.1331C203.203 73.6267 203.144 74.8351 203.666 75.2807C203.499 75.9503 203.443 76.6545 203.464 77.3268C203.461 77.5562 203.498 77.911 203.578 78.3165C203.413 78.5113 203.301 78.8634 203.307 79.1675C203.312 79.5197 203.179 80.1919 203.616 80.296C203.578 80.6188 203.541 80.9416 203.64 81.2564C203.757 81.6432 203.946 81.7766 204.14 81.7045C204.191 82.0087 204.287 82.3021 204.457 82.5689C204.654 82.849 205.043 82.7556 205.176 82.4675C205.277 82.2915 205.346 82.102 205.397 81.9046C205.525 81.942 205.663 81.9286 205.754 81.8193C205.802 81.7926 205.85 81.7366 205.892 81.6699C206.028 81.6005 206.161 81.4965 206.284 81.3391C206.305 81.3071 206.321 81.275 206.34 81.243C207.013 81.5098 207.793 81.6112 208.451 81.7072C209.94 81.8299 211.457 81.7926 212.919 81.4698C213.414 81.3471 213.894 81.171 214.37 80.9869C214.376 80.9869 214.381 80.9896 214.384 80.9896C214.701 81.067 214.972 80.9256 215.148 80.6935C215.196 80.6748 215.244 80.6588 215.294 80.6401C215.396 80.7175 215.521 80.7682 215.675 80.7708C216.413 80.8455 217.142 80.7949 217.859 80.6588C218.444 80.6215 219.027 80.5494 219.603 80.4107C220.162 80.2613 220.881 80.1226 221.307 79.7037C221.669 79.6717 222.028 79.6397 222.391 79.6211C222.707 79.5757 223.163 79.6797 223.45 79.5277C225.514 79.9198 227.455 80.1172 229.431 79.8131C229.66 79.8238 229.889 79.8238 230.118 79.8078C230.256 79.7785 230.363 79.7091 230.453 79.613C231.026 79.4743 231.604 79.2849 232.189 79.0448C232.623 79.0368 233.06 79.0261 233.494 79.0075C235.142 78.9194 236.785 78.6847 238.441 78.738C238.596 78.714 238.7 78.6153 238.764 78.4899C239.126 78.4553 239.488 78.4126 239.845 78.3405C239.938 78.3219 240.026 78.2979 240.116 78.2738C241.488 78.4206 242.867 78.4473 244.23 78.2925C244.582 78.2125 245.218 78.2819 245.404 77.9244C245.452 77.4922 245.101 77.5669 244.747 77.7056ZM203.648 79.9278C203.642 80.0479 203.629 80.1653 203.613 80.2853C203.315 80.1413 203.376 79.7304 203.424 79.445C203.429 79.2609 203.53 78.9034 203.672 78.7674C203.688 78.8287 203.704 78.8928 203.72 78.9568C203.696 79.2796 203.672 79.605 203.648 79.9278ZM210.347 77.3802C210.264 77.4042 210.182 77.4308 210.099 77.4575C209.596 77.4175 209.213 77.4949 209.141 77.7937C209.112 77.9297 209.122 78.1111 209.226 78.2125C209.234 78.2152 209.242 78.2152 209.25 78.2178C208.536 78.2365 207.825 78.2472 207.112 78.2205C207.114 78.0898 207.117 77.9564 207.117 77.8257C207.208 77.1294 207.221 76.4224 207.101 75.7422C207.985 75.8435 208.869 75.9236 209.756 75.9423C210.022 75.9876 210.286 76.0303 210.555 76.065C210.533 76.2811 210.531 76.5265 210.549 76.8066C210.565 76.988 210.608 77.1507 210.667 77.3001C210.56 77.3295 210.459 77.3508 210.347 77.3802ZM48.8742 84.1829C48.8236 84.1615 48.7597 84.1935 48.7304 84.2362C48.4296 84.5404 48.1686 84.8845 47.8651 85.1859C47.6467 84.9405 47.3538 84.607 47.0982 84.5804C46.4778 83.9454 45.7535 83.8174 45.3301 84.5057C44.8828 84.4523 44.6006 84.7404 44.4381 85.1059C44.2544 85.3727 44.1452 85.6981 44.1452 86.037C44.1133 86.5065 44.1852 87.104 44.5473 87.4375C44.6059 87.5335 44.6698 87.6242 44.7523 87.7069C44.8881 87.8323 45.0213 87.915 45.1544 87.9737C45.2796 88.4432 45.4926 88.8941 45.8813 89.1929C46.0304 89.3076 46.1849 89.3636 46.3313 89.3769C46.4751 89.6704 46.6482 89.9452 46.9571 90.0732C47.0423 90.0999 47.1328 90.1212 47.2207 90.1426C47.25 90.1506 47.2952 90.1639 47.3485 90.1773C47.4497 90.1773 47.5322 90.1399 47.5961 90.0652C47.9822 89.6891 48.0568 88.9715 48.1819 88.4592C48.2804 87.8003 48.2432 87.1707 48.118 86.6025C48.6772 86.5358 48.7544 85.6528 48.9355 85.2233C49.0526 84.9192 49.2071 84.391 48.8742 84.1829Z" fill="#FF2A0C" stroke="#FF2A0C" stroke-miterlimit="10"/>
<path d="M252.019 78.2819C250.852 78.1779 249.675 78.3726 248.504 78.3886C248.333 78.3886 248.176 78.4046 248.041 78.4366C247.945 78.3859 247.833 78.3539 247.718 78.3379C247.681 78.2872 247.633 78.2472 247.569 78.2259C246.842 78.1672 246.115 78.1965 245.388 78.2312C244.06 78.3219 242.736 78.5167 241.416 78.6927C240.793 78.7808 240.17 78.8715 239.549 78.9675C239.493 78.9675 239.451 78.9888 239.413 79.0235C239.4 79.0235 239.389 79.0235 239.376 79.0235C239.155 79.0049 238.931 78.9942 238.71 78.9995C238.101 78.9702 237.494 78.9808 236.892 79.0182C235.635 79.0315 234.362 79.0876 233.172 79.2556C230.182 78.9248 227.181 79.2903 224.201 79.6104C223.629 79.6531 223.062 79.7358 222.492 79.7918C222.436 79.7998 222.375 79.7998 222.313 79.8052H222.311C222.231 79.8132 222.154 79.8319 222.1 79.8985C222.039 79.9626 221.986 80.0346 221.941 80.1146C220.524 80.0506 219.115 80.1306 217.717 80.3841C216.786 80.5255 215.848 80.6535 214.919 80.8189C213.843 80.8509 212.767 80.9256 211.694 81.0137C211.226 81.0003 210.757 80.987 210.288 80.9976C209.817 81.0057 209.349 81.0537 208.883 81.1177C208.558 81.0297 208.14 81.1204 207.831 81.163C207.413 81.2591 206.957 81.3631 206.521 81.4672C206.502 81.4725 206.481 81.4778 206.462 81.4805C206.425 81.4885 206.39 81.4992 206.353 81.5072C206.079 81.4832 205.799 81.4832 205.525 81.4912C205.488 81.4965 205.448 81.4992 205.408 81.5045C205.213 81.3818 204.984 81.3044 204.718 81.2884C204.66 81.2484 204.59 81.2217 204.516 81.2191C204.428 81.2244 204.345 81.2511 204.271 81.2938C203.954 81.3044 203.634 81.3551 203.355 81.5019C202.71 81.9927 202.681 83.0065 202.985 83.7001C202.998 83.7294 203.011 83.7534 203.027 83.7801C203.054 84.0015 203.107 84.2176 203.187 84.4043C203.28 84.5617 203.389 84.7325 203.584 84.7511C203.504 84.7965 203.437 84.8605 203.397 84.9512C203.384 84.9699 203.373 84.9886 203.36 85.0072C203.134 85.234 203.003 85.5541 202.955 85.8983C202.798 86.2077 202.724 86.5545 202.774 86.9334C202.788 87.2161 202.852 87.5149 203.011 87.7523C203.102 87.8991 203.246 88.0138 203.405 88.0991C202.945 88.5953 202.479 89.0915 202.109 89.6598C201.933 90.0359 201.858 90.5748 201.967 91.023C201.904 91.071 201.837 91.1324 201.893 91.2124C201.912 91.2097 201.933 91.2071 201.952 91.2044C201.954 91.2044 201.954 91.2044 201.957 91.2044C201.978 91.2017 201.999 91.1991 202.021 91.1937C202.071 91.3244 202.135 91.4445 202.228 91.5432C202.268 91.5912 202.319 91.6126 202.375 91.6206C202.412 91.6819 202.455 91.7379 202.5 91.7913C202.492 92.1248 202.585 92.4636 202.836 92.669C203.081 92.7517 203.049 92.645 203.243 92.6263C203.467 92.5436 203.696 92.4316 203.925 92.3062C206.366 91.3778 209.29 90.3107 211.894 89.3183C212.491 89.1769 213.111 89.0329 213.79 88.8701C214.583 88.6781 215.31 88.2832 216.104 88.0911C216.41 88.0164 216.714 87.9311 217.015 87.8377C217.494 87.731 217.976 87.619 218.452 87.5016C220.303 87.0374 222.132 86.4798 223.94 85.8689C224.734 85.7035 225.535 85.5675 226.334 85.4341C227.602 85.1246 228.134 84.8659 229.343 84.6765C229.955 84.6204 231.09 84.1909 231.194 84.1749C231.99 83.9482 232.818 83.9161 233.641 83.9482C233.846 83.9081 233.981 83.7347 234.064 83.5053C236.034 83.1025 237.949 82.6516 239.89 82.1901C241.072 81.9687 242.246 81.7019 243.407 81.3818C244.446 81.2217 245.482 81.035 246.51 80.8136C246.906 80.7175 247.303 80.6162 247.7 80.5148C247.756 80.5041 247.812 80.4961 247.867 80.4854C247.923 80.4908 247.979 80.4934 248.033 80.4988V80.4561C248.083 80.4481 248.134 80.4401 248.184 80.4294C248.187 80.4268 248.19 80.4214 248.195 80.4161C248.222 80.4161 248.246 80.4187 248.272 80.4214C248.435 80.4214 248.597 80.4214 248.757 80.4214C248.829 80.4241 248.903 80.4241 248.978 80.4214C249.726 80.4187 250.474 80.4027 251.223 80.3574C251.436 80.3147 251.742 80.3681 251.979 80.32C251.984 80.32 251.992 80.32 251.997 80.3227C251.997 80.32 251.997 80.32 251.997 80.3174C252.088 80.296 252.17 80.2614 252.226 80.1973C252.378 79.9759 252.461 79.6771 252.458 79.3837C252.503 79.2903 252.53 79.1809 252.53 79.0475C252.554 78.6741 252.469 78.2606 252.019 78.2819Z" fill="#4052A5"/>
<path d="M25.2746 91.2899C25.2693 91.2632 25.2639 91.2365 25.2559 91.2098C25.224 91.0738 25.2213 91.0631 25.2746 91.2899Z" fill="#4052A5"/>
<path d="M28.84 92.6103C28.8586 92.6263 28.8852 92.6477 28.9172 92.6744C28.9651 92.613 29.0131 92.5543 29.0663 92.4956C29.3992 92.1248 29.7826 91.8794 30.2033 91.7487C30.2299 91.1298 30.0196 90.4628 29.6015 90.1214C29.5989 90.1187 29.5962 90.1187 29.5935 90.116C29.5589 89.6945 29.3699 89.4037 29.0157 89.3664C28.8347 89.3957 28.6829 89.4944 28.5391 89.6091C28.3527 89.4277 28.1743 89.2543 28.0332 89.1343C27.8415 88.9822 27.6551 88.9529 27.4926 89.0036C27.3888 88.7075 27.277 88.4007 27.0426 88.1979C26.8855 88.0352 26.7018 88.0725 26.55 88.1899C26.5474 88.1899 26.5447 88.1872 26.5394 88.1872C26.4755 88.1899 26.4142 88.2112 26.361 88.2406C25.9749 87.7657 25.3385 88.0992 25.1974 88.6408C24.9018 89.4651 25.0749 90.3721 25.256 91.2071C25.3332 91.5299 25.5835 92.5783 25.6634 92.8078C25.682 92.8798 25.6926 92.9198 25.7006 92.9465C25.7193 93.0345 25.7379 93.1226 25.7619 93.2079C26.1 94.1443 26.4915 94.211 26.7657 93.8855C27.1571 94.0669 27.5566 93.416 27.5566 92.8424C27.5645 92.7597 27.5645 92.6744 27.5699 92.5917C28.1743 93.1279 28.603 93.0078 28.84 92.6103Z" fill="#4052A5"/>
<path d="M166.479 83.9696C166.412 83.8042 166.287 83.6789 166.133 83.6175C166.175 83.292 166.146 82.9479 166.053 82.6411C166.095 82.4757 166.138 82.3103 166.188 82.1556C166.343 81.8008 166.431 81.0752 166.311 80.5149C166.33 80.4402 166.346 80.3655 166.359 80.2882C166.409 79.9894 166.348 79.5172 166.141 79.2691C166.143 79.085 166.135 78.8929 166.106 78.6822C166.087 78.5115 166.061 78.3407 166.026 78.17C166.29 77.5324 166.479 76.8335 165.967 75.8304C165.446 75.1635 164.865 75.4062 164.343 75.9851C164.114 76.1372 163.896 76.3559 163.701 76.5907C163.124 76.8521 162.612 77.287 162.205 77.7538C161.638 78.5141 161.044 79.5572 160.778 80.619C160.203 81.1125 159.681 81.6674 159.465 82.409C159.425 82.5771 159.385 82.7638 159.353 82.9586C159.321 83.0119 159.292 83.0653 159.265 83.1213C159.22 83.1667 159.178 83.212 159.14 83.2627C158.964 83.3401 158.789 83.4174 158.61 83.4921C158.379 83.5802 158.152 83.6895 157.99 83.8816C157.457 84.6526 157.444 85.8264 157.998 86.5893C158.376 86.9975 158.975 86.7894 159.422 86.6214C159.436 86.616 159.449 86.6107 159.462 86.6054C159.617 86.616 159.779 86.6134 159.936 86.6054C160.384 86.6054 160.831 86.6054 161.278 86.608C161.446 86.6054 161.614 86.6054 161.782 86.608C162.29 87.0989 163.038 87.363 163.723 87.4137C164.146 87.3363 164.386 87.0109 164.543 86.624C165.009 86.6347 165.472 86.6641 165.928 86.7468C166.351 86.6694 166.551 86.1438 166.575 85.5863C166.745 85.0714 166.668 84.4072 166.479 83.9696Z" fill="#EDF636"/>
<path d="M201.185 79.2797C201.065 78.9596 200.844 78.7035 200.455 78.6982C200.396 78.7008 200.341 78.7115 200.282 78.7142C200.295 78.6555 200.309 78.5941 200.319 78.5354C201.555 78.5781 201.872 77.8979 201.765 76.7507C201.701 76.1238 201.408 75.8464 200.993 75.7317C200.905 75.3822 200.727 75.0727 200.412 74.878C200.205 74.7739 199.986 74.7526 199.768 74.7686C199.675 74.6592 199.558 74.5765 199.411 74.5445C199.07 74.5152 198.759 74.7072 198.455 74.8353C197.811 75.1794 197.113 75.4729 196.562 75.9584C196.32 76.2465 196.213 76.6227 196.181 76.9935C196.12 77.1162 196.067 77.2416 196.024 77.375C195.915 77.6711 195.878 78.0126 195.894 78.338C195.851 78.4928 195.819 78.6502 195.798 78.8102C195.793 78.8182 195.787 78.8262 195.782 78.8342C195.614 78.9276 195.473 79.0236 195.356 79.117C194.666 79.3891 193.987 79.6906 193.34 80.0534C193.141 80.2161 192.973 80.4189 192.84 80.6483C192.805 80.6616 192.768 80.6723 192.733 80.6883C192.23 81.0885 192.198 81.8541 192.312 82.4437C192.376 82.8892 192.565 83.1159 192.824 83.228C192.829 83.236 192.834 83.244 192.84 83.252C193.242 83.7108 194.035 83.4948 194.773 83.1773C195.332 83.0839 195.886 82.9665 196.434 82.8278C196.453 82.8305 196.469 82.8412 196.488 82.8438C196.541 82.8438 196.591 82.8412 196.645 82.8385C196.653 82.8438 196.661 82.8492 196.669 82.8545C197.033 83.0199 197.441 83.0599 197.835 83.0866C198.487 83.1213 199.134 83.0386 199.741 82.8225C200.189 82.7691 200.631 82.6891 201.052 82.5397C201.486 82.4197 201.629 81.9688 201.619 81.5553C201.645 81.494 201.667 81.4299 201.683 81.3579C201.848 80.6936 201.832 79.6719 201.185 79.2797Z" fill="#EDF636"/>
<path d="M107.555 87.9339C107.396 87.7525 107.207 88.0886 107.063 88.1633C106.85 88.3607 106.642 88.5768 106.45 88.8036C106.392 88.8649 106.339 88.929 106.285 88.993C106.12 89.0623 105.976 89.0997 105.96 89.089C105.875 89.105 105.803 89.145 105.745 89.2011C105.718 89.0944 105.691 88.9796 105.657 88.8142C105.484 88.1073 104.861 87.9019 104.589 88.6835C104.491 88.929 104.456 89.1904 104.445 89.4545C104.28 89.3238 104.102 89.1797 103.907 89.2357C103.748 89.2864 103.641 89.4118 103.567 89.5639C103.282 89.3745 103.069 89.7613 103.039 90.0788C102.912 90.9004 103.497 91.5593 104.001 92.1329C104.163 92.3196 104.339 92.5144 104.533 92.6851C104.629 93.2053 105.018 93.9656 105.553 93.5095C105.638 93.4187 105.707 93.3307 105.774 93.2453C106.102 93.4481 106.352 93.208 106.498 92.8639C106.642 92.7358 106.695 92.4957 106.645 92.2903C106.653 92.2076 106.655 92.1276 106.65 92.0582C106.653 91.9915 106.647 91.9302 106.645 91.8661C106.69 91.8074 106.733 91.7488 106.786 91.6874C107.039 91.3379 107.372 91.0231 107.489 90.5936C107.611 90.1321 107.593 89.5479 107.353 89.2091C107.681 88.8836 107.899 88.3207 107.555 87.9339Z" fill="#EDF636"/>
<path d="M201.209 84.6897C201.235 84.6657 201.259 84.6444 201.28 84.6177C201.408 84.5457 201.533 84.471 201.653 84.3883C202.09 83.9854 202.167 83.3158 202.098 82.7503C201.789 80.7735 199.369 81.6085 198.013 82.2887C197.878 82.2941 197.739 82.2994 197.603 82.3048C196.906 82.3448 196.205 82.3608 195.513 82.4488C193.346 82.6996 191.136 82.969 189.048 83.6146C188.654 83.9001 188.489 84.5456 188.545 85.1326C188.321 85.1992 188.103 85.2659 187.887 85.33C187.631 85.4607 187.466 85.6848 187.37 85.9489C186.755 85.9996 186.018 86.0369 185.818 86.6825C185.674 87.0747 185.634 87.5415 185.73 87.963C184.806 88.1658 183.882 88.3632 182.956 88.5553C182.854 88.5419 182.756 88.5286 182.655 88.5179C182.615 88.2245 182.519 87.9417 182.351 87.7042C182.266 87.5895 182.151 87.5469 182.024 87.5282V87.5255C182.021 87.5255 182.018 87.5255 182.016 87.5255C181.835 87.5042 181.635 87.5362 181.459 87.5202C180.86 87.5308 180.261 87.5549 179.665 87.5922C176.48 87.8083 173.301 88.0884 170.127 88.4352C170.068 88.4059 170.007 88.3819 169.946 88.3632C169.962 88.2378 169.967 88.1097 169.964 87.9844C169.975 87.9764 169.986 87.9684 169.996 87.9603C170.441 87.3468 170.473 86.0849 169.842 85.5887C169.634 85.45 169.376 85.4847 169.147 85.5381C168.75 85.5967 168.353 85.6501 167.957 85.7088C167.051 85.8795 166.149 86.0689 165.251 86.2663C164.082 86.3757 162.911 86.4638 161.744 86.5785C161.587 86.5224 161.422 86.4798 161.265 86.4451C160.751 86.3197 160.232 86.3197 159.729 86.4211C159.702 86.4131 159.678 86.4051 159.652 86.3997C159.281 86.2637 158.89 86.4211 158.533 86.5385C157.838 86.7892 157.191 87.1547 156.568 87.5495C155.695 88.1391 154.568 88.7313 154.395 89.8758C154.275 90.4173 154.321 90.9722 154.518 91.4124C154.438 91.5378 154.355 91.6632 154.278 91.7912C154.073 92.122 153.873 92.4608 153.698 92.813C152.678 94.0534 151.647 95.2993 150.849 96.6865C150.809 96.7052 150.769 96.7265 150.729 96.7452C150.646 96.7799 150.569 96.8252 150.497 96.8759C150.494 96.8786 150.489 96.8786 150.486 96.8812V96.8839C150.295 97.028 150.154 97.2307 150.1 97.4761C150.034 97.6442 150.002 97.9243 150.015 98.2178C149.941 98.3325 149.871 98.4472 149.81 98.5646C149.355 98.8447 148.899 99.1221 148.447 99.4076C148.034 99.573 147.773 99.9118 147.637 100.304C147.446 100.541 147.366 101.062 147.411 101.544C147.312 101.849 147.302 102.337 147.392 102.748C147.43 103.07 147.533 103.38 147.696 103.612C147.778 103.727 147.89 103.772 148.013 103.777V103.785C148.034 103.783 148.058 103.78 148.079 103.777C148.117 103.775 148.151 103.769 148.188 103.761C148.258 103.753 148.324 103.745 148.394 103.735C150.404 103.313 152.361 102.66 154.307 102.006C154.47 101.947 154.63 101.883 154.789 101.825C156.081 101.699 157.37 101.555 158.648 101.334C162.565 100.773 166.308 99.4503 169.855 97.7269C170.521 97.6175 171.186 97.5028 171.847 97.3694C171.887 97.3614 171.929 97.3534 171.972 97.3454C172.283 97.3374 172.598 97.3481 172.917 97.3854C172.805 97.3267 172.691 97.2734 172.574 97.2254C174.36 96.8599 176.248 96.4411 178.014 96.0142C178.261 95.9956 178.506 95.9742 178.754 95.9582C179.172 95.9129 179.59 95.8835 180.003 95.7981C180.205 95.7768 180.405 95.7154 180.562 95.5874C180.889 95.542 181.217 95.4914 181.544 95.4407C181.678 95.454 181.813 95.4647 181.915 95.3793C182.098 95.35 182.285 95.3206 182.468 95.2886C182.578 95.2619 182.689 95.2352 182.799 95.2112C183.012 95.2352 183.217 95.1952 183.371 95.0752C183.677 95.0032 183.983 94.9338 184.287 94.8591C184.891 94.7657 185.491 94.651 186.082 94.5016C186.215 94.4509 186.343 94.4056 186.47 94.3602C187.591 94.1868 188.712 94.0161 189.833 93.8374C192.233 93.4399 194.642 93.1304 197.055 92.8236C197.502 92.7436 197.973 92.7382 198.421 92.6502C198.735 92.6369 199.049 92.6209 199.361 92.6022C199.787 92.5675 200.215 92.5275 200.639 92.4555C200.881 92.4208 201.129 92.3007 201.193 92.0446C201.312 91.7165 201.32 91.311 201.171 90.9882C201.134 90.8815 201.081 90.7855 201.004 90.7215C201.145 90.2626 201.078 89.713 200.902 89.2969C200.868 89.2169 200.825 89.1582 200.777 89.1101C200.838 88.6673 200.846 88.1951 200.775 87.7683C200.793 87.7629 200.812 87.7629 200.83 87.7576C200.932 87.7576 201.017 87.7203 201.081 87.6456C201.259 87.5282 201.315 87.3041 201.39 87.1147C201.531 86.5998 201.509 86.0316 201.288 85.5407C201.238 85.4447 201.171 85.3646 201.099 85.2979C201.123 85.2206 201.145 85.1432 201.158 85.0659C201.182 84.9378 201.198 84.8151 201.209 84.6897Z" fill="#4DB842"/>
<path d="M18.0852 101.024C17.9281 100.795 17.6512 100.872 17.4222 100.909C17.2917 100.928 17.1586 100.947 17.0281 100.973C16.9322 101.179 16.8018 101.371 16.6287 101.531C16.4396 101.707 16.2666 101.91 16.0722 102.081C15.7393 102.371 15.3612 102.553 14.9458 102.689C14.9166 102.702 14.8846 102.715 14.8447 102.731C14.818 102.742 14.7967 102.753 14.7728 102.763C14.5571 102.908 14.2775 103.022 14.0352 103.062C13.9819 103.369 13.9926 103.689 14.0565 103.985C14.0938 104.273 14.1976 104.479 14.3387 104.618C14.2988 105.17 14.6157 106.154 15.1855 105.479C15.2734 105.405 15.4012 105.295 15.5476 105.17C15.6435 105.14 15.7393 105.106 15.8325 105.068C15.8805 105.055 15.9257 105.034 15.9657 105.01C16.1361 104.959 16.3038 104.903 16.4742 104.852C16.4343 105.17 16.5142 105.506 16.7538 105.719C17.2331 105.77 17.5207 105.199 17.5793 104.786C17.6538 104.586 17.5606 104.036 17.5047 103.759C17.5447 103.625 17.574 103.492 17.5846 103.35C17.8056 103.281 18.0399 103.225 18.1464 103.009C18.4899 102.427 18.4713 101.584 18.0852 101.024ZM16.5728 104.492C16.5515 104.538 16.5355 104.586 16.5195 104.634C16.3997 104.642 16.2825 104.652 16.1627 104.66C16.1654 104.655 16.1654 104.65 16.168 104.644C16.3198 104.516 16.4716 104.385 16.6207 104.263C16.6313 104.292 16.6393 104.327 16.642 104.367C16.618 104.409 16.5941 104.449 16.5728 104.492Z" fill="#4DB842"/>
<path d="M195.859 75.6701C195.862 75.6488 195.862 75.6301 195.862 75.6114C195.862 75.6087 195.862 75.6034 195.862 75.6007C196.426 75.526 196.4 75.2299 196.365 74.9471C196.299 74.3522 196.24 73.744 196.003 73.1891C195.798 72.6582 195.284 72.3274 194.834 72.821C194.429 73.1651 194.102 73.5919 193.859 74.0668C193.508 74.0961 193.111 74.1175 192.706 74.1308C192.675 74.1281 192.643 74.1281 192.608 74.1335C192.057 74.1495 191.5 74.1495 191.034 74.1441C190.952 74.0801 190.869 74.0241 190.784 73.9707C190.576 73.6133 190.377 73.2264 189.988 73.0504C189.951 73.029 189.913 73.0104 189.871 72.997C189.809 72.901 189.74 72.8103 189.634 72.7516C189.49 72.6662 189.351 72.7169 189.21 72.7809C189.072 72.813 188.939 72.8663 188.819 72.941C188.558 72.5969 188.297 72.2474 187.916 72.05C187.373 71.8659 187.024 72.1193 186.814 72.5595C186.771 72.5515 186.731 72.5435 186.691 72.5355C186.079 72.3968 186.068 72.4128 185.299 72.1247C185.222 72.0873 185.142 72.0553 185.062 72.0286C185.091 71.3991 185.07 70.8175 185.035 70.444C185.062 70.1692 185.075 69.8918 185.067 69.6143C185.075 68.9101 184.897 68.0964 184.673 67.3494C184.769 66.7759 184.78 66.1863 184.745 65.6474C184.662 64.6924 184.252 63.2811 183.552 62.2647C183.47 61.6618 183.379 61.0002 182.878 60.6107C182.633 60.4587 182.317 60.456 182.05 60.5654C181.992 60.3893 181.928 60.2159 181.859 60.0452C181.656 59.677 181.496 58.8874 180.943 59.1035C180.596 59.3196 180.208 59.501 179.941 59.8158C179.936 59.8078 179.933 59.7998 179.928 59.7918C179.768 59.565 179.377 59.6744 178.919 59.9171C178.903 59.8985 178.89 59.8745 178.871 59.8558C178.634 59.6023 178.33 59.8424 178.152 60.0479C177.697 60.4934 177.249 60.9469 176.802 61.4004C176.722 61.4724 176.645 61.5391 176.568 61.6085C176.44 61.4457 176.267 61.3684 176.035 61.4457C175.633 61.7312 175.316 62.118 174.991 62.4835C174.874 62.6195 174.757 62.7556 174.64 62.8917C174.387 62.7823 174.174 62.9824 174.041 63.1157C173.29 63.732 172.608 64.4203 171.911 65.0952C170.968 66.1196 169.78 66.7999 168.926 68.1364C168.782 68.1578 168.651 68.2565 168.585 68.4005C168.401 68.6993 168.332 69.0328 168.313 69.3769C168.098 69.9291 167.988 70.2866 167.943 70.3666C167.704 70.9482 167.525 71.6045 167.677 72.2314C167.701 72.3995 167.754 72.5515 167.823 72.6769C167.81 72.8316 167.807 72.9837 167.815 73.1331C167.797 73.5306 167.786 73.9281 167.773 74.3256C167.773 74.7951 167.674 75.2779 167.791 75.7395C167.839 76.0462 168.047 76.5691 168.412 76.5291C168.361 77.1827 168.332 77.839 168.321 78.4952C168.092 79.8558 168.151 81.5578 168.34 83.0997C168.098 83.6653 168.06 84.3776 168.111 84.9325C168.18 85.6447 168.457 86.3437 168.859 86.9386C168.984 87.2454 169.155 87.5308 169.397 87.7763C169.485 87.867 169.581 87.939 169.682 88.0003C169.741 88.1231 169.802 88.2404 169.863 88.3552C170.127 88.838 170.641 89.2488 171.21 89.2062C171.642 89.1048 172.004 88.8407 172.315 88.5152C172.403 88.5686 172.491 88.6246 172.582 88.6726C172.701 88.7366 172.829 88.7713 172.96 88.7847C173.077 88.8754 173.213 88.9447 173.351 88.9927C173.748 89.1155 174.158 89.1742 174.573 89.2115C175.034 89.3956 175.726 89.3982 176.453 89.2835C177.627 89.2622 178.815 89.1075 179.915 88.6913C179.963 88.686 180.011 88.6806 180.061 88.6753C180.226 88.7953 180.397 88.902 180.575 88.9954C181.675 89.5823 183.038 89.3796 184.045 88.6833C184.489 88.83 184.974 88.8433 185.488 88.6646C185.592 88.6033 185.69 88.5312 185.783 88.4565C186.835 88.5286 188.132 87.2507 188.691 86.4317C188.771 86.3303 188.843 86.2236 188.912 86.1143C189.072 85.9435 189.216 85.7701 189.333 85.6101C190.11 84.6764 190.462 83.0891 190.379 81.4858C190.427 81.4271 190.475 81.3684 190.518 81.3043C190.837 81.8486 191.391 82.2834 192.017 82.0406C192.584 81.7819 192.941 81.2617 193.231 80.7068C193.26 80.6934 193.29 80.6854 193.322 80.6721C193.79 80.3866 194.192 80.0052 194.517 79.565C194.986 79.1888 195.313 78.5459 195.404 77.8149C195.622 77.7456 195.827 77.6255 195.982 77.4415C195.854 77.3908 195.731 77.3428 195.606 77.2947C195.718 76.9266 195.769 76.5398 195.782 76.1449C195.825 75.9876 195.848 75.8302 195.859 75.6701Z" fill="#6F5631"/>
<path d="M160.125 79.7731C160.349 79.3809 160.57 78.9808 160.544 78.5299C160.49 78.2018 160.346 78.1324 160.203 78.2258C160.171 78.0551 160.12 77.8897 160.054 77.7349C160.011 77.6682 159.966 77.5989 159.923 77.5322C159.763 77.3134 159.465 77.3454 159.228 77.2974C158.893 77.2627 158.554 77.2547 158.216 77.2441C158.078 77.1107 157.889 77.0386 157.702 76.9693C157.356 76.8412 157.01 76.7132 156.659 76.6091C155.908 76.3931 155.154 76.1743 154.39 76.0142C152.981 75.5847 151.554 75.2086 150.079 75.1205C149.983 74.9258 149.839 74.7657 149.618 74.7391C149.616 74.7391 149.613 74.7391 149.61 74.7364C149.586 74.7311 149.562 74.7257 149.538 74.7231C149.536 74.7231 149.536 74.7231 149.533 74.7231C149.411 74.699 149.286 74.683 149.163 74.6617C148.018 74.4776 146.87 74.3282 145.728 74.1362C145.433 73.9948 145.068 73.9147 144.679 73.8054C143.212 73.3678 141.702 73.1251 140.19 72.9063C139.26 72.805 138.331 72.6796 137.399 72.6022C137.237 72.6075 137.045 72.5702 136.869 72.5862C135.365 72.3648 133.863 72.1247 132.359 71.9059C131.959 71.8446 131.554 71.8099 131.16 71.7325C130.966 71.6792 130.726 71.6925 130.577 71.8392C130.46 71.9459 130.378 72.0793 130.314 72.2207C129.885 72.2047 129.459 72.2047 129.03 72.2234C126.783 71.9673 124.493 72.058 122.238 72.0687C121.793 72.0953 121.346 72.0847 120.904 72.1514C120.693 72.1647 120.475 72.2394 120.358 72.4208C119.53 72.4715 118.702 72.5489 117.881 72.6556C117.759 72.7489 117.663 72.8743 117.591 73.0184C116.747 73.1117 115.906 73.2185 115.064 73.3465C114.942 73.3225 114.819 73.3118 114.707 73.3065C114.273 73.3252 113.839 73.3812 113.411 73.4692C113.341 73.3518 113.256 73.2425 113.144 73.1571C112.729 73.0104 112.284 73.2665 111.872 73.3492C111.816 73.3652 111.762 73.3785 111.707 73.3945C110.519 73.6133 108.871 73.8827 107.76 74.2589C107.409 74.3976 106.943 74.4723 106.597 74.675C105.955 74.8084 105.316 74.9525 104.677 75.0912C104.578 75.0912 104.496 75.1286 104.435 75.2006C103.899 75.7235 103.942 76.8599 104.36 77.4468C104.443 77.5508 104.546 77.6095 104.68 77.6202C105.044 77.6229 105.407 77.5882 105.766 77.5295C105.849 77.5535 105.939 77.5509 106.027 77.5242C106.147 77.5002 106.267 77.4708 106.386 77.4468C106.477 77.5669 106.597 77.6522 106.746 77.6789V77.6896C106.754 77.6869 106.765 77.6869 106.773 77.6842C106.778 77.6842 106.781 77.6869 106.783 77.6869C106.852 77.6789 106.922 77.6709 106.994 77.6629C107.598 78.0844 108.791 78.1351 109.819 78.1084C110.386 78.7673 111.525 78.7167 112.322 78.8847C112.465 78.9034 112.609 78.9194 112.753 78.9381C113.629 79.2262 114.697 79.3009 115.378 79.4609C118.118 79.8398 121.335 80.0932 123.95 80.6054C123.96 80.6214 123.966 80.6401 123.976 80.6534C124.059 80.7601 124.168 80.8215 124.304 80.8295C124.533 80.8668 124.762 80.9015 124.991 80.9362C124.994 80.9415 124.996 80.9469 124.999 80.9522C125.191 81.323 125.667 81.315 126.029 81.315C126.535 81.3337 127.041 81.3524 127.547 81.371C128 81.395 128.45 81.4244 128.902 81.4564C129.557 81.5498 130.212 81.6431 130.867 81.7392C130.881 81.7605 130.891 81.7845 130.905 81.8032C131.184 82.0993 131.712 82.0166 132.087 82.1287C132.742 82.2167 133.397 82.3128 134.06 82.3368C134.662 82.3634 135.264 82.3954 135.868 82.4301C137.005 82.6462 138.139 82.8623 139.282 83.0357C139.814 83.1051 140.344 83.1718 140.877 83.2304C140.919 83.2571 140.962 83.2811 141.01 83.2971C141.178 83.3345 141.345 83.3612 141.513 83.3825C141.553 83.4705 141.601 83.5506 141.652 83.6146C141.809 83.82 142.086 83.812 142.317 83.8654C142.725 83.9081 143.132 83.9214 143.542 83.9347C143.843 83.9828 144.144 84.0281 144.445 84.0548C145.132 84.1161 145.821 84.1588 146.508 84.2068C147.163 84.2362 148.22 84.2709 149.123 84.3135C149.427 84.3696 149.73 84.4283 150.034 84.487C150.5 84.527 151.083 84.8231 151.461 84.4363C151.485 84.4016 151.506 84.3642 151.528 84.3269C152.063 84.3749 152.606 84.3642 153.138 84.3749C153.296 84.3722 153.45 84.3696 153.607 84.3669C154.065 84.4496 154.558 84.4416 154.97 84.4123C155.191 84.3882 155.415 84.3509 155.628 84.2949C155.775 84.2869 155.924 84.2789 156.07 84.2655C156.142 84.2655 156.214 84.2602 156.283 84.2522C156.4 85.2446 157.085 85.7995 157.857 84.3349C158.445 83.1851 159.154 82.102 159.782 80.9762C159.83 80.8562 159.875 80.7335 159.92 80.6107C159.926 80.6027 159.931 80.5894 159.939 80.5707C160.051 80.4293 160.12 80.1119 160.125 79.7731Z" fill="#F62C94"/>
<path d="M153.12 90.8708C152.888 90.6414 152.507 90.8522 152.225 90.8655C152.164 90.8762 152.105 90.8895 152.047 90.9002C151.964 90.3746 151.698 89.8197 151.091 90.1239C150.931 90.1719 150.763 90.2199 150.596 90.2679V90.2626C150.585 90.2653 150.566 90.2706 150.55 90.2733C150.444 90.2786 150.332 90.3026 150.228 90.3239C149.837 90.3933 149.445 90.4547 149.054 90.5214C148.319 90.6521 147.584 90.7988 146.849 90.9482C145.669 91.1296 144.49 91.3003 143.316 91.5031C142.362 91.6845 140.871 92.0446 140.451 92.1033C140.352 92.1273 140.267 92.17 140.192 92.2287C140.182 92.2287 140.174 92.2314 140.163 92.2314C140.072 92.0767 139.945 91.9646 139.777 91.9299V91.9246C139.772 91.9246 139.769 91.9246 139.764 91.9273C139.7 91.9139 139.633 91.9113 139.556 91.9219C137.921 91.8846 136.302 92.0687 134.691 92.3221C134.374 92.3434 134.057 92.3648 133.741 92.3941C131.448 92.5942 129.171 92.9117 126.9 93.2798C126.112 93.3652 125.324 93.4612 124.538 93.5706C124.413 93.5172 124.288 93.4665 124.168 93.4265C123.417 93.1971 122.645 93.5039 121.891 93.5786C120.411 93.8213 118.917 93.9761 117.434 94.2188C116.72 94.3149 116.004 94.4109 115.288 94.5176C113.355 94.6403 111.424 94.8884 109.56 95.4327C109.169 95.558 108.812 95.6434 108.509 95.7501C108.096 95.8061 107.686 95.8755 107.281 95.9715C107.055 96.0222 106.818 96.0729 106.589 96.1396C106.482 96.1503 106.376 96.1609 106.269 96.1716C105.436 96.2196 104.6 96.2703 103.769 96.3157C100.72 96.5478 97.6367 96.6785 94.6517 97.3854C94.5213 97.4174 94.3935 97.4548 94.263 97.4895C93.9941 97.5188 93.7278 97.5482 93.4588 97.5829C93.2565 97.6122 93.11 97.7189 93.0009 97.863C92.7905 97.935 92.5801 98.0097 92.423 98.1751C92.3991 98.2071 92.3778 98.2391 92.3591 98.2738C92.0822 98.3005 91.9225 98.6019 91.8479 98.9647C91.6509 99.0128 91.4165 99.0048 91.2701 99.1488C91.0917 99.2662 91.0358 99.4903 90.9612 99.6797C90.8041 100.307 90.7961 101.238 91.4059 101.614C91.8799 101.835 92.4071 101.635 92.8943 101.55C92.9183 101.635 92.9449 101.721 92.9796 101.801C93.0435 101.945 93.1446 102.049 93.2671 102.131V102.134C94.4361 102.926 95.6263 103.713 96.9364 104.255C97.16 104.34 97.3864 104.418 97.6127 104.495C97.9961 104.77 98.3769 105.047 98.7657 105.319C99.1757 105.57 99.5512 106.024 100.057 106.032C100.329 105.973 100.507 105.791 100.619 105.551C101.098 105.634 101.58 105.706 102.065 105.773C102.363 105.914 102.68 106.01 103.005 106.082C103.929 106.277 104.861 106.432 105.787 106.608C106.879 106.829 107.981 106.968 109.089 107.043C109.129 107.048 109.169 107.056 109.209 107.061C109.299 107.069 109.393 107.075 109.483 107.08C110.175 107.184 110.873 107.227 111.573 107.237C111.781 107.365 112.063 107.4 112.3 107.445C112.899 107.563 113.501 107.598 114.108 107.574C115.48 107.547 116.864 107.469 118.204 107.144C118.241 107.136 118.281 107.125 118.321 107.115C119.226 107.013 120.126 106.877 121.018 106.704C121.026 106.706 121.031 106.709 121.039 106.712C121.119 106.693 121.196 106.672 121.274 106.653C121.804 106.544 122.331 106.426 122.853 106.288C123.508 106.088 124.149 105.847 124.791 105.602C124.831 105.589 124.871 105.575 124.911 105.562C125.148 105.543 125.39 105.493 125.593 105.463C126.245 105.37 126.895 105.245 127.539 105.106C127.693 105.098 127.851 105.09 128.005 105.079C129.488 104.818 130.617 104.548 131.648 104.25C131.885 104.127 132.01 103.903 132.066 103.652C132.329 103.575 132.593 103.495 132.854 103.415C133.112 103.366 133.373 103.316 133.631 103.268C134.736 103.044 135.847 102.833 136.93 102.51C137.322 102.411 137.727 102.267 137.918 101.918C138.078 101.878 138.238 101.835 138.398 101.801C139.633 101.496 141.249 101.07 142.919 100.635C143.736 100.411 144.541 100.133 145.299 99.749C145.552 99.565 145.67 99.2715 145.723 98.9674C146.535 98.6793 147.334 98.3538 148.101 97.951C148.401 97.8416 148.59 97.5802 148.689 97.2627C149.158 97.076 149.618 96.8706 150.066 96.6385C150.795 96.353 151.171 95.6354 151.075 94.8644C151.069 94.7711 151.059 94.6804 151.046 94.5923C151.227 94.4536 151.386 94.2909 151.504 94.0828C151.53 94.0374 151.551 93.9841 151.575 93.9307C152.396 93.696 153.304 93.4505 153.453 92.5275C153.562 91.9806 153.538 91.271 153.12 90.8708Z" fill="#F62C94"/>
<path d="M157.322 73.6481C156.941 72.7891 156.022 72.3249 155.354 71.706C155.221 71.5646 155.09 71.5139 154.97 71.5299C154.656 71.3085 154.622 71.2071 154.052 70.7803C152.326 69.5344 150.689 68.1472 148.82 67.1201C148.718 67.0561 148.617 66.9894 148.516 66.9254C147.856 66.5546 146.862 65.7916 146.13 65.7382C145.411 65.4101 144.674 65.13 143.901 64.9539C143.782 64.9059 143.68 64.9219 143.59 64.9646C143.273 64.8739 142.954 64.7939 142.631 64.7272C142.322 64.7032 141.91 64.4631 141.651 64.7112C141.638 64.7245 141.628 64.7378 141.614 64.7512H141.612C141.577 64.7165 141.545 64.6845 141.505 64.6551C141.375 64.6151 141.244 64.5804 141.114 64.5431C140.53 64.3003 139.947 64.0576 139.367 63.8148C138.914 63.6094 138.406 63.2946 137.902 63.4893C137.114 63.2252 136.323 62.9691 135.525 62.7477C133.171 62.1635 130.777 61.8007 128.372 61.5099C127.595 61.3472 126.82 61.1898 126.043 61.0377C124.12 60.7496 122.176 60.6482 120.241 60.5122C120.083 60.5175 119.905 60.4721 119.745 60.4908C119.743 60.4908 119.743 60.4908 119.74 60.4908C119.663 60.5015 119.591 60.5255 119.53 60.5842C119.359 60.7389 119.271 60.9497 119.229 61.1764C118.984 61.1391 118.741 61.1017 118.496 61.0697C118.425 60.7523 118.283 60.4775 118.076 60.3441C118.076 60.3414 118.076 60.3388 118.076 60.3334C118.068 60.3308 118.06 60.3281 118.052 60.3254C118.02 60.3067 117.985 60.2961 117.951 60.2827C117.45 59.8372 116.726 59.6051 116.127 59.357C114.958 58.8982 113.754 58.5354 112.543 58.2126C111.555 57.9191 110.548 57.727 109.531 57.6017C109.382 57.4709 109.228 57.3429 109.076 57.2175C108.969 56.804 108.727 56.4012 108.442 56.0464C108.367 55.873 108.274 55.7076 108.154 55.5582C107.499 54.7952 106.634 54.283 105.731 53.8482C105.074 53.3813 104.387 52.9545 103.697 52.533C103.702 52.0368 103.577 51.5406 103.292 51.1377C102.712 50.3641 101.703 50.1667 100.867 49.7852C100.84 49.7719 100.813 49.7612 100.784 49.7479C100.803 49.4544 100.776 49.161 100.733 48.9475C100.56 47.9178 99.3488 47.6644 98.5553 47.2375C97.3598 46.6853 96.1376 46.1998 94.8781 45.8183C93.6692 44.9753 92.1968 44.7245 90.7695 44.5244C90.0479 44.4044 89.3237 44.2817 88.6021 44.1563C88.5568 44.1456 88.5169 44.135 88.4716 44.1216C87.6941 43.9295 86.9113 43.7588 86.1151 43.6734C86.0805 43.6521 86.0485 43.6281 86.0112 43.6094C84.4402 42.9852 82.7494 43.6174 81.2104 44.0549C79.6074 44.5698 78.1269 45.3968 76.8328 46.4746C76.1592 47.0188 75.4482 47.555 74.9849 48.3019C74.6254 48.8862 74.2473 49.5264 73.9944 50.196C73.5391 50.5508 73.0864 50.9057 72.6364 51.2605C72.474 51.3912 72.3089 51.5166 72.1465 51.6419C71.6459 51.778 71.1479 51.9434 70.6553 52.1141C70.5382 52.0661 70.3997 52.0635 70.2719 52.0715C69.8432 52.1008 69.4225 52.1702 69.0018 52.2502C68.8394 52.2822 68.6769 52.3142 68.5118 52.3436C68.4692 52.3489 68.424 52.3569 68.3814 52.3622C67.9447 52.3462 67.5053 52.3622 67.0686 52.3942C66.6346 52.4423 66.2086 52.557 65.7932 52.6877C65.5908 52.7571 65.3645 52.8264 65.2713 53.0372C64.8985 53.6668 64.9225 54.5765 65.3379 55.1794C65.3698 55.2247 65.4071 55.2567 65.447 55.2834C65.4337 55.3234 65.4151 55.3608 65.4044 55.4034C65.1568 56.2064 65.1914 57.0254 65.5269 57.639C65.5988 57.8764 65.7107 58.0685 65.8544 58.2232C65.8518 58.2419 65.8491 58.2606 65.8491 58.2793C65.8145 58.7728 65.8864 59.397 66.3151 59.7065C66.6186 59.8132 66.9462 59.8346 67.2657 59.8586C67.3642 60.0907 67.508 60.2934 67.7077 60.4455C67.8755 60.5148 68.0485 60.5228 68.2243 60.5042C68.2695 60.5949 68.3228 60.6856 68.3814 60.7683C68.9778 61.3098 69.8938 61.0244 70.5808 60.8163C71.3317 60.5282 72.0293 60.1093 72.703 59.6718C72.7323 59.6505 72.7615 59.6291 72.7908 59.6105C72.8894 59.5998 72.9879 59.5918 73.0891 59.5811C73.1902 59.5811 73.2754 59.5438 73.3394 59.4691C73.4778 59.333 73.579 59.1596 73.6456 58.9622C75.5973 58.6527 77.5012 58.0819 79.4104 57.5696C79.4263 57.5643 79.4423 57.5616 79.4583 57.5563C80.2704 57.8604 80.8243 57.8924 81.5459 58.1272C83.4524 58.5861 85.3695 59.0182 87.276 59.4797C89.337 59.9893 91.3873 60.5442 93.4376 61.0911C93.4402 61.1017 93.4429 61.1151 93.4456 61.1284C93.5255 61.3525 93.6107 61.5899 93.8263 61.7153C94.3749 61.8727 94.9234 62.0301 95.4692 62.1902C96.0604 62.3582 96.6488 62.5396 97.232 62.7264C97.2852 62.7957 97.3438 62.8571 97.4104 62.9131V62.9158C97.413 62.9158 97.413 62.9158 97.4157 62.9185C97.4716 62.9638 97.5275 63.0038 97.5941 63.0385C98.4222 63.3826 99.2503 63.7481 100.092 64.0762C100.118 64.1536 100.145 64.2283 100.174 64.2977C100.385 64.7779 100.907 64.8366 101.372 64.8392C101.42 64.8419 101.468 64.8419 101.516 64.8446C101.58 64.8846 101.652 64.9112 101.729 64.9299V64.9326C101.732 64.9326 101.735 64.9326 101.737 64.9326C101.9 64.9699 102.081 64.9753 102.259 64.9939C102.515 65.0206 102.768 65.0313 103.023 65.034C105.194 65.2954 107.321 65.877 109.499 66.0584C109.861 66.069 110.293 66.1011 110.564 65.8156C110.66 65.6742 110.735 65.5142 110.791 65.3461C112.055 65.4795 113.323 65.6876 114.585 65.7596C115.059 65.6902 115.296 65.0953 115.309 64.4817C115.488 64.4897 115.666 64.4977 115.844 64.5031C116.113 64.4791 116.459 64.5324 116.723 64.4391C117.309 64.5671 117.921 64.5564 118.518 64.6018C118.571 64.6018 118.622 64.6071 118.675 64.6098C119.117 64.8312 119.631 64.8072 120.118 64.8099C120.31 64.8099 120.501 64.8099 120.693 64.8099C121.042 64.8686 121.391 64.9246 121.74 64.9726C123.438 65.2394 125.135 65.5488 126.82 65.8903C127.022 65.9437 127.228 65.9943 127.43 66.0477C129.462 66.5359 131.094 67.1255 133.315 67.9098C136.009 68.8782 138.709 69.8279 141.393 70.8283C142.075 71.0844 142.765 71.3191 143.43 71.6179C143.675 71.7193 143.907 71.8874 144.173 71.922C144.495 71.8474 144.674 71.5512 144.754 71.1938C144.817 71.1671 144.873 71.1244 144.924 71.0684C145.137 71.1644 145.345 71.2605 145.55 71.3565C147.126 72.0528 148.66 72.8451 150.186 73.6481C150.428 73.7708 150.662 73.9148 150.92 74.0029C151.006 74.0562 151.088 74.0642 151.173 74.0242C151.325 73.9682 151.44 73.8562 151.522 73.7121C151.541 73.7228 151.557 73.7308 151.575 73.7388C152.089 74.0055 152.571 74.3577 153.149 74.4751C153.309 74.4617 153.429 74.3684 153.519 74.243C153.663 74.3203 153.804 74.3977 153.948 74.4724C154.209 74.6431 154.47 74.8139 154.728 74.9899C155.061 75.238 155.407 75.4701 155.724 75.7369C155.945 75.9156 156.296 76.1984 156.547 75.9343C156.613 75.8676 156.669 75.7956 156.717 75.7156C156.941 75.7209 157.119 75.6515 157.207 75.4621C157.527 74.9366 157.532 74.2163 157.322 73.6481Z" fill="#F4F099"/>
<path d="M148.023 103.761C147.919 103.657 147.792 103.572 147.656 103.585C147.672 103.193 147.584 102.798 147.398 102.476C147.203 102.145 146.948 102.137 146.684 102.233C146.673 102.145 146.663 102.059 146.644 101.977C146.583 101.654 146.42 101.219 146.053 101.179C145.012 101.078 144.024 101.39 143.167 101.974C142.325 102.524 141.492 103.097 140.682 103.689C140.477 103.836 140.32 104.031 140.211 104.252C137.229 105.383 134.385 106.851 131.469 108.137C129.989 108.795 128.514 109.468 127.041 110.145C126.575 110.332 126.114 110.524 125.659 110.732C125.377 110.874 125.073 110.972 124.794 111.116C124.733 111.154 124.682 111.204 124.637 111.26C124.472 111.338 124.309 111.412 124.144 111.49C121.292 111.818 118.472 112.445 115.695 113.168C112.977 113.944 110.37 115.073 107.859 116.358C107.553 116.513 107.246 116.671 106.943 116.833C105.596 117.055 104.246 117.26 102.898 117.476C102.185 117.615 101.471 117.762 100.757 117.911C100.433 117.81 100.108 117.708 99.7855 117.604C97.1893 116.743 94.5133 116.169 91.808 115.812C91.7574 115.726 91.6988 115.644 91.6349 115.566C90.5378 114.646 89.1532 114.179 87.8485 113.637C86.2269 112.917 84.5494 112.271 82.7547 112.202C81.7828 112.183 80.731 111.946 79.8177 112.362C78.5929 112.085 77.3254 112.085 76.0819 111.933C75.355 111.861 74.6281 111.797 73.9012 111.743C73.8346 111.559 73.7441 111.383 73.6269 111.228C73.2035 110.791 72.5458 110.948 72.0026 110.991C71.6884 111.002 71.3742 111.026 71.0627 111.05C70.8444 110.74 70.3784 110.78 70.0349 110.788C69.3053 110.828 68.5757 110.847 67.8461 110.858C67.1458 110.823 66.4376 110.839 65.7373 110.807C64.7734 110.775 63.8094 110.746 62.8455 110.716C61.4902 110.615 60.1322 110.521 58.7742 110.529C58.3242 110.626 58.1485 111.151 58.1299 111.69C57.616 111.725 57.0994 111.767 56.5881 111.821C55.2222 111.906 53.8589 112.029 52.5115 112.258C52.421 112.312 52.3411 112.389 52.2719 112.48C51.6515 112.512 51.0337 112.56 50.416 112.642C49.8328 112.773 49.0473 112.669 48.7411 113.293C48.6852 113.424 48.6399 113.571 48.608 113.72C48.3097 113.795 48.0088 113.867 47.7106 113.936C47.1515 114.088 46.5896 114.24 46.0518 114.464C45.5964 114.638 45.2263 114.923 45.1731 115.443C45.1571 115.529 45.1518 115.606 45.1411 115.686C44.4674 116.036 43.839 116.471 43.397 117.087C43.0189 117.679 42.7713 118.45 42.9177 119.149C42.1988 120.069 42.0736 121.171 42.3772 122.198C42.3719 123.02 42.6195 123.841 43.1494 124.463C43.5488 124.874 44.0813 125.103 44.6165 125.277C45.4526 125.61 46.3367 125.794 47.2287 125.888C47.8251 126.72 48.8982 126.859 49.8461 126.971C51.268 127.109 52.6979 127.043 54.1225 127.027C55.571 127.024 57.0142 126.901 58.4494 126.707C60.6408 126.45 62.8296 126.173 65.0023 125.802C65.0636 125.792 65.1248 125.784 65.1887 125.773C65.3991 125.917 65.6201 126.045 65.8518 126.16C65.8677 126.189 65.8837 126.221 65.9023 126.25C67.8834 128.795 73.5071 128.798 76.5293 129.076C76.8674 129.081 77.2083 129.078 77.5464 129.073C77.8367 129.089 78.1935 129.113 78.5796 129.132C78.5875 129.132 78.5929 129.134 78.6009 129.134C79.0109 129.214 79.4263 129.265 79.8417 129.292C79.9482 129.489 80.1 129.66 80.3103 129.78C81.0026 130.06 81.7722 129.75 82.4352 129.516C82.8532 129.356 83.2739 129.196 83.6947 129.036C84.7784 128.857 85.8648 128.673 86.9405 128.449C87.0603 128.435 87.1801 128.425 87.3 128.411C90.4446 128.118 94.6065 126.707 96.931 125.61C97.0722 125.605 97.2106 125.594 97.3464 125.549C97.4583 125.493 97.5461 125.407 97.618 125.306C98.0973 125.141 98.5793 124.973 99.0586 124.81C99.0772 124.831 99.0932 124.853 99.1145 124.874C99.2077 124.991 99.3621 124.991 99.5006 124.975C99.9639 124.97 100.411 124.818 100.851 124.687C100.904 124.668 100.957 124.65 101.01 124.631C101.29 124.607 101.615 124.442 101.852 124.423C103.061 124.116 104.272 123.807 105.481 123.5C109.954 122.481 114.404 121.352 118.784 119.987C119.117 119.877 119.447 119.757 119.777 119.634C120.342 119.498 120.925 119.357 121.537 119.208C121.923 119.109 122.317 119.013 122.709 118.906C122.759 118.925 122.813 118.941 122.871 118.951C123.207 118.954 123.518 118.834 123.822 118.701C124.075 118.722 124.392 118.589 124.682 118.45C125.816 118.114 126.977 117.914 128.333 117.607C128.769 117.86 129.435 117.583 130.109 117.364C131.565 116.857 133.043 116.414 134.51 115.945C135.202 115.734 135.892 115.51 136.59 115.323C136.614 115.315 136.64 115.307 136.667 115.299C136.739 115.31 136.811 115.307 136.88 115.286C137.106 115.23 137.325 115.147 137.543 115.067C137.684 115.038 138.097 114.915 138.23 114.875C138.217 114.881 138.201 114.883 138.182 114.889C138.821 114.728 139.455 114.547 140.056 114.275C140.437 114.139 140.837 113.941 141.023 113.56C141.034 113.533 141.044 113.504 141.055 113.477C141.627 113.2 142.179 112.88 142.645 112.44C143.361 111.805 143.96 111.047 144.426 110.212C144.485 110.14 144.543 110.065 144.602 109.991C144.604 109.991 144.604 109.988 144.607 109.988C144.618 109.985 144.626 109.983 144.636 109.98C144.636 109.977 144.636 109.975 144.636 109.972C144.791 109.863 144.903 109.705 144.98 109.518C145.246 109.188 145.518 108.859 145.819 108.563C146.199 108.161 146.631 107.771 146.793 107.221V107.219C146.833 107.144 146.868 107.051 146.894 106.949C147.219 106.685 147.544 106.418 147.864 106.149C147.866 106.149 147.869 106.146 147.872 106.146V106.144C147.922 106.101 147.975 106.058 148.026 106.016C148.463 105.37 148.46 104.391 148.023 103.761Z" fill="#F4F099"/>
<path d="M72.3275 88.3099C72.2716 88.0778 72.0666 87.9178 71.8403 87.8511C71.7071 87.5469 71.5234 87.2668 71.2944 87.0374C71.1693 86.9254 71.0574 86.8613 70.9536 86.8293C70.7991 86.3038 70.5355 85.8209 70.1947 85.5115C70.1894 85.5008 70.1867 85.4875 70.1841 85.4768C69.9284 84.8339 69.4944 84.8819 69.2388 85.2527C69.0977 85.3247 68.9832 85.4314 68.8953 85.5595C68.7648 85.5995 68.6503 85.6662 68.5491 85.7569C68.2509 85.7089 67.9128 85.8049 67.6332 85.8903C66.9382 86.3438 66.9142 87.8804 67.5213 88.4086C67.6811 88.534 67.8728 88.5954 68.0725 88.6327C68.3628 88.9582 68.7835 89.0275 69.0923 88.8061C69.1456 88.8195 69.2015 88.8301 69.2548 88.8408C69.3639 88.9021 69.4838 88.9448 69.6222 88.9662C69.766 89.265 69.9764 89.4997 70.3491 89.4037C70.4024 89.4197 70.4557 89.425 70.5089 89.3957C70.6101 89.3503 70.6926 89.281 70.7645 89.1983C70.8897 89.2276 71.0175 89.2516 71.1426 89.273C71.1559 89.2783 71.1693 89.2863 71.1852 89.297C71.1906 89.3023 71.1959 89.3103 71.2012 89.3156C71.4062 89.7958 71.6432 89.8385 71.8163 89.6625C71.9015 89.7852 71.992 89.8999 72.1278 89.9906C72.6897 90.292 72.3781 88.5607 72.3275 88.3099Z" fill="#F62C8F"/>
<path d="M188.595 81.9447C189.256 81.2058 189.953 80.5095 190.694 79.8506C189.86 80.1547 189.027 80.4588 188.191 80.7629C187.791 81.3552 187.493 81.9981 187.357 82.705C187.269 83.1666 187.261 83.3106 187.775 83.2413C188.025 83.2066 188.276 83.0999 188.513 83.0145C189.224 82.7637 189.956 82.5316 190.646 82.2275C191.311 81.9314 191.74 81.3845 192.163 80.8083C192.017 81.0084 191.152 81.1631 190.907 81.2511C190.51 81.3952 190.02 81.4939 189.66 81.7206C188.779 82.2755 188.175 83.0492 187.847 84.0416C187.89 83.9109 188.947 83.6548 189.104 83.5987C189.493 83.4573 190.007 83.364 190.35 83.1292C191.117 82.6063 191.66 81.9314 192.006 81.0697C191.948 81.2138 190.92 81.4512 190.749 81.5126C190.401 81.6406 189.786 81.7287 189.503 81.9821C188.965 82.4649 188.633 83.0198 188.459 83.7214C188.486 83.6094 189.575 83.3293 189.716 83.2786C190.068 83.1506 190.678 83.0625 190.962 82.8091C191.436 82.3849 191.743 81.9234 191.945 81.3205C191.9 81.4512 190.845 81.7073 190.688 81.7633C190.385 81.8727 189.655 81.9794 189.442 82.2329C188.989 82.7691 188.601 83.3266 188.254 83.9349C188.356 83.7588 189.304 83.5667 189.511 83.492C189.889 83.3533 190.43 83.2653 190.757 83.0225C191.511 82.4703 192.107 81.8087 192.584 81.003C192.478 81.1844 191.54 81.3685 191.327 81.4459C190.946 81.5846 190.414 81.6753 190.081 81.9154C189.253 82.513 188.691 83.2946 188.388 84.271C188.428 84.1456 189.493 83.8815 189.644 83.8282C189.916 83.7295 190.72 83.6041 190.891 83.3586C191.447 82.5583 191.854 81.71 192.126 80.7736C192.091 80.8963 191.018 81.1631 190.869 81.2164C190.563 81.3285 189.841 81.4299 189.623 81.686C188.984 82.4303 188.518 83.2466 188.207 84.1776C188.249 84.0469 189.306 83.7908 189.463 83.7348C189.794 83.6147 190.457 83.5214 190.709 83.2653C191.508 82.4623 192.091 81.5446 192.48 80.4802C192.43 80.6189 191.386 80.8643 191.223 80.923C190.88 81.0484 190.249 81.1364 189.977 81.3925C189.399 81.9314 189.024 82.561 188.819 83.3266C188.851 83.2119 189.932 82.9345 190.076 82.8838C190.443 82.7504 191.013 82.6624 191.322 82.4143C191.62 82.1742 191.841 81.9287 192.049 81.6059C191.215 81.9101 190.382 82.2142 189.546 82.5183C189.29 83.0465 189.032 83.5747 188.776 84.1056C189.61 83.8015 190.443 83.4974 191.279 83.1932C191.474 82.4303 191.788 81.7633 192.254 81.1311C192.105 81.3338 191.245 81.4859 190.997 81.5739C190.694 81.6833 189.964 81.79 189.751 82.0434C189.367 82.497 188.787 83.3533 188.912 83.9989C188.984 84.3697 188.952 84.303 189.28 84.2363C189.642 84.1643 190.017 83.9749 190.363 83.8495C190.725 83.7188 191.503 83.5934 191.796 83.2893C192.414 82.6437 191.037 83.1319 190.829 83.2066C190.148 83.4493 189.426 83.6628 188.768 83.9695C188.606 84.0442 188.454 84.1296 188.316 84.2443C188.191 84.3457 188.081 84.4657 187.988 84.5965C187.788 84.8125 187.82 84.8686 188.084 84.7672C188.622 84.7592 189.386 84.3084 189.881 84.1269C190.417 83.9295 190.928 83.8041 191.306 83.356C190.473 83.6601 189.639 83.9642 188.803 84.2683C188.587 84.5831 188.223 84.9726 188.76 85.0366C189.085 85.074 189.711 84.7058 190.017 84.5938C190.323 84.4818 190.938 84.0869 191.263 84.1243C190.728 84.0602 191.09 83.6708 191.306 83.356C191.173 83.5507 190.283 83.7134 190.049 83.7988C189.746 83.9082 189.019 84.0122 188.803 84.2683C188.641 84.4604 188.51 84.5671 188.292 84.6925C188.917 84.4604 189.543 84.2283 190.172 83.9962C190.102 84.0202 190.03 84.0469 189.961 84.0709C190.169 83.9989 190.377 83.9269 190.584 83.8548C190.19 83.9215 190.475 83.6761 190.64 83.4974C190.808 83.3159 191.01 83.1932 191.226 83.0785C191.021 83.1586 190.816 83.2359 190.611 83.316C190.686 83.2866 190.763 83.2599 190.837 83.2306C190.209 83.4547 189.58 83.6814 188.952 83.9055C189.146 83.8628 189.357 83.7481 189.423 83.9349C189.485 84.1109 189.21 84.2443 189.109 84.295C189.943 83.9909 190.776 83.6868 191.612 83.3826C190.92 83.2999 192.004 81.4325 192.259 81.1311C191.426 81.4352 190.592 81.7393 189.756 82.0434C189.29 82.6757 188.973 83.3426 188.782 84.1056C188.811 83.9936 189.895 83.7134 190.038 83.6628C190.257 83.5827 191.178 83.412 191.285 83.1932C191.54 82.665 191.799 82.1368 192.054 81.6059C191.974 81.7687 190.986 81.9821 190.797 82.0488C190.539 82.1421 189.703 82.2782 189.551 82.5183C189.346 82.8411 189.123 83.0865 188.824 83.3266C189.658 83.0225 190.491 82.7184 191.327 82.4143C191.53 81.6486 191.908 81.019 192.486 80.4802C191.652 80.7843 190.819 81.0884 189.983 81.3925C189.594 82.4569 189.011 83.3746 188.212 84.1776C189.045 83.8735 189.879 83.5694 190.715 83.2653C191.026 82.3342 191.49 81.5179 192.131 80.7736C191.298 81.0777 190.465 81.3819 189.628 81.686C189.354 82.6223 188.949 83.4707 188.393 84.271C189.226 83.9669 190.06 83.6628 190.896 83.3586C191.199 82.3822 191.761 81.6006 192.589 81.003C191.756 81.3072 190.923 81.6113 190.086 81.9154C189.612 82.721 189.013 83.3826 188.26 83.9349C189.093 83.6307 189.927 83.3266 190.763 83.0225C191.109 82.4143 191.498 81.854 191.95 81.3205C191.117 81.6246 190.283 81.9287 189.447 82.2329C189.245 82.8358 188.941 83.2973 188.465 83.7214C189.298 83.4173 190.132 83.1132 190.968 82.8091C191.141 82.1075 191.474 81.5526 192.012 81.0697C191.178 81.3738 190.345 81.678 189.509 81.9821C189.162 82.8464 188.622 83.5187 187.852 84.0416C188.686 83.7375 189.519 83.4333 190.355 83.1292C190.68 82.1395 191.287 81.3632 192.169 80.8083C191.335 81.1124 190.502 81.4165 189.666 81.7206C189.261 82.2729 188.87 82.7691 188.254 83.0945C188.31 83.0705 188.366 83.0492 188.422 83.0252C188.345 83.0545 188.268 83.0839 188.191 83.1132C188.968 82.8331 189.746 82.5503 190.523 82.2702C190.409 82.2969 189.905 82.4409 189.794 82.3182C189.695 82.2115 189.921 81.5419 189.959 81.4032C190.116 80.8376 190.371 80.3334 190.699 79.8479C190.568 80.0426 189.674 80.208 189.442 80.2907C189.091 80.4188 188.478 80.5068 188.196 80.7603C187.458 81.4192 186.761 82.1155 186.098 82.8544C186.292 82.6383 187.072 82.513 187.354 82.4116C187.663 82.2996 188.366 82.2008 188.595 81.9447Z" fill="#6E5631"/>
<path d="M190.507 74.5312C190.611 75.2248 191.144 75.6303 191.841 75.5396C192.251 75.4862 192.709 75.2381 193.098 75.0968C193.263 75.0381 194.206 74.5392 194.344 74.6272C193.809 74.2884 193.268 74.0537 192.656 73.8963C191.823 74.2004 190.989 74.5045 190.153 74.8086C190.731 74.902 191.223 75.0754 191.732 75.3582C192.565 75.0541 193.399 74.7499 194.235 74.4458C193.569 74.3231 192.904 74.2031 192.238 74.0803C191.404 74.3845 190.571 74.6886 189.735 74.9927C190.773 74.7686 191.783 74.758 192.824 74.9554C193.657 74.6512 194.491 74.3471 195.327 74.043C194.15 74.1604 193.111 73.3841 191.934 73.6055C191.514 73.6855 191.08 73.9016 190.678 74.0483C190.403 74.147 189.716 74.5792 189.431 74.5179C190.499 74.7473 191.564 74.9794 192.632 75.2088C193.465 74.9047 194.299 74.6006 195.135 74.2964C194.275 74.2457 193.537 73.9923 192.829 73.5041C191.996 73.8082 191.162 74.1124 190.326 74.4165C191.077 74.5739 191.841 74.7286 192.549 75.0301C193.071 75.2515 193.652 75.8917 194.192 75.9424C194.6 75.9798 195.183 75.649 195.553 75.5156C196.032 75.3422 196.522 75.1821 196.983 74.958C196.149 75.2622 195.316 75.5663 194.48 75.8704C194.144 76.1718 193.961 76.452 193.82 76.8815C193.862 76.7534 194.919 76.4946 195.076 76.4386C195.257 76.3719 196.261 76.1585 196.323 75.9691C196.464 75.5396 196.647 75.2595 196.983 74.958C196.73 75.1821 196.048 75.2835 195.726 75.4009C195.313 75.5503 194.877 75.6783 194.48 75.8704C194.419 75.8997 194.357 75.9291 194.299 75.9584C195.132 75.6543 195.966 75.3502 196.802 75.0461C196.184 74.9527 195.638 74.3631 195.055 74.1204C194.344 73.8242 193.583 73.6642 192.832 73.5068C192.547 73.4481 191.849 73.8509 191.575 73.9496C191.418 74.0057 190.454 74.5045 190.329 74.4191C191.04 74.9073 191.775 75.1608 192.635 75.2115C192.983 75.2328 193.561 74.886 193.891 74.7686C194.166 74.6699 194.853 74.2377 195.138 74.2991C194.07 74.0697 193.005 73.8376 191.937 73.6082C191.104 73.9123 190.27 74.2164 189.434 74.5205C190.611 74.2991 191.649 75.0754 192.826 74.958C193.231 74.918 193.702 74.6539 194.083 74.5152C194.365 74.4138 195.034 73.9896 195.329 74.0457C194.288 73.8483 193.276 73.8589 192.241 74.083C191.817 74.1737 191.391 74.3791 190.984 74.5259C190.699 74.6299 190.036 75.0487 189.738 74.9954C190.403 75.1181 191.069 75.2381 191.735 75.3609C192.03 75.4142 192.707 75.0194 192.991 74.918C193.17 74.8513 194.078 74.3605 194.238 74.4485C193.726 74.163 193.234 73.9923 192.659 73.8989C192.355 73.8483 191.692 74.2377 191.402 74.3418C191.141 74.4352 190.425 74.878 190.156 74.8113C190.768 74.9687 191.309 75.2008 191.844 75.5423C192.677 75.2381 193.511 74.934 194.347 74.6299C193.652 74.7179 193.117 74.3151 193.013 73.6215C193.034 73.7736 190.478 74.3365 190.507 74.5312Z" fill="#6E5631"/>
<path d="M201.067 74.395C201.392 80.6508 201.177 86.9093 200.42 93.1251C200.436 93.1198 200.45 93.1171 200.466 93.1118C217.888 87.4269 235.696 82.9771 253.741 79.7972C254.162 79.7225 254.596 79.4984 254.998 79.3543C255.264 79.2583 255.967 78.8208 256.244 78.8848C247.409 76.8093 238.479 75.1446 229.487 73.9148C224.949 73.2959 220.393 72.7837 215.832 72.3835C213.593 72.1888 211.354 72.0181 209.112 71.874C207.413 71.7646 206.017 71.8046 204.42 72.3809C202.926 72.9197 201.621 73.3786 200.916 74.9472C200 76.9774 200.649 79.2236 201.251 81.2431C201.243 81.2111 203.773 80.4001 203.754 80.3307C202.931 77.5776 202.103 73.6 205.344 72.0581C204.526 72.3568 203.706 72.6583 202.889 72.9571C204.899 72.2955 207.386 72.829 209.458 72.9811C211.612 73.1412 213.766 73.3226 215.915 73.5307C220.13 73.9388 224.337 74.4403 228.528 75.0379C237.001 76.2411 245.412 77.8364 253.744 79.7918C254.578 79.4877 255.411 79.1836 256.247 78.8795C246.88 80.5308 237.573 82.5156 228.352 84.8445C223.852 85.981 219.371 87.2001 214.914 88.4993C212.61 89.1716 210.312 89.8625 208.022 90.5775C206.96 90.9083 205.898 91.2444 204.835 91.5859C204.351 91.7406 203.565 92.2208 203.179 91.874C202.796 91.5325 203.142 90.348 203.19 89.8758C203.743 84.4257 203.858 78.9435 203.576 73.4746C203.581 73.7227 201.051 74.1149 201.067 74.395Z" fill="black"/>
<path d="M169.842 75.6862C168.521 75.6035 167.16 75.3234 165.84 75.5449C164.793 75.7209 163.734 76.1744 162.756 76.5746C161.39 77.1322 160.914 78.1166 160.205 79.357C159.215 81.0911 158.118 82.7611 157.015 84.4231C155.926 86.0691 154.536 87.7604 153.719 89.5584C153.325 90.4281 153.248 91.0337 152.63 91.7887C152.073 92.4689 151.613 93.2239 151.08 93.9255C148.681 97.0841 147.02 100.648 144.767 103.906C144.788 103.873 145.15 103.775 145.137 103.78C145.944 103.495 147.089 103.311 147.685 102.657C148.548 101.71 147.616 102.142 146.961 102.38C146.538 102.534 145.917 102.646 145.547 102.908C145.417 103.001 145.334 103.145 145.23 103.263C145.15 103.356 144.921 103.607 144.897 103.719C144.82 104.076 144.876 103.823 145.246 103.844C146.5 103.919 147.723 103.425 148.873 103.001C149.328 102.833 149.826 102.692 150.255 102.46C150.463 102.348 150.942 102.107 151.022 101.867C151.144 101.507 150.556 101.342 150.127 101.323C149.107 101.283 147.88 101.95 146.964 102.329C146.338 102.588 145.803 102.932 145.294 103.385C145.198 103.471 144.935 103.652 144.889 103.775C144.783 104.071 144.943 103.849 145.265 103.844C145.723 103.836 146.202 103.732 146.655 103.668C147.55 103.543 148.292 103.348 149.139 103.041C149.336 102.969 150.449 102.721 150.534 102.521C150.59 102.385 150.649 102.513 150.439 102.436C149.965 102.262 149.038 102.516 148.556 102.59C147.763 102.716 147.038 102.99 146.287 103.265C145.888 103.412 145.345 103.516 144.988 103.753C144.378 104.159 146.026 103.745 146.266 103.713C154.827 102.54 163.071 99.8266 171.469 97.8924C181.289 95.6275 191.25 94.1016 201.209 92.6023C202.071 92.4716 202.854 91.818 203.712 91.69C193.495 93.2293 183.275 94.8005 173.207 97.1588C168.25 98.322 163.353 99.7332 158.403 100.923C156.036 101.491 153.655 102.009 151.256 102.42C150.013 102.633 148.764 102.785 147.515 102.964C147.089 103.025 146.093 103.671 145.414 103.625C145.606 103.639 145.859 103.535 146.053 103.505C146.737 103.396 147.475 103.46 148.122 103.391C148.157 103.388 151.509 102.425 149.847 102.657C149.443 102.713 149.038 102.777 148.631 102.828C148.396 102.857 148.015 102.956 147.768 102.934C147.243 102.889 147.171 103.063 147.659 102.606C148.175 102.121 148.716 101.726 149.379 101.459C148.559 101.758 147.739 102.054 146.921 102.353C147.307 102.257 148.189 102.102 148.489 102.524C148.761 102.622 148.726 102.758 148.38 102.934C148.282 103.014 148.183 103.095 148.085 103.177C148.005 103.108 150.215 102.801 148.758 102.852C148.572 102.857 147.305 103.063 147.267 102.993C147.211 102.892 147.925 102.099 148.047 101.998C147.214 102.302 146.381 102.606 145.544 102.91C145.672 102.937 144.959 103.801 144.86 103.871C145.571 103.609 146.282 103.345 146.993 103.084C146.961 103.095 146.929 103.105 146.9 103.116C147.022 103.073 147.147 103.033 147.27 102.99C149.179 100.235 150.481 97.0788 152.476 94.3844C153.378 93.1652 154.286 91.8714 155.269 90.7136C155.804 90.084 155.836 89.5905 156.142 88.8462C156.475 88.0378 157.055 87.2829 157.527 86.5466C159.3 83.7801 161.207 81.0964 162.828 78.2339C163.19 77.5937 163.489 76.868 164.04 76.3612C164.354 76.0704 165.179 75.7556 163.861 76.2358C162.511 76.7267 163.409 76.4332 163.811 76.4012C164.988 76.3078 166.17 76.5239 167.342 76.5986C168.159 76.6493 169.04 75.6356 169.842 75.6862Z" fill="black"/>
<path d="M202.314 74.6084C200.679 74.8165 199.041 75.0032 197.401 75.1686C196.541 75.254 195.75 75.9956 194.898 76.081C196.538 75.9156 198.176 75.7288 199.811 75.5208C200.673 75.4087 201.459 74.7151 202.314 74.6084Z" fill="black"/>
<path d="M152.209 90.5029C133.488 91.9088 114.83 94.1257 96.3054 97.1669C94.6918 97.431 93.174 97.6925 91.6403 98.2527C90.3063 98.7382 89.0894 99.3225 90.032 100.958C90.8947 102.457 92.7986 103.564 94.2631 104.386C95.906 105.309 97.666 106.005 99.4767 106.52C107.332 108.756 115.948 107.849 123.801 106.088C132.801 104.071 141.454 100.675 150.042 97.3643C150.513 97.1829 149.629 97.4951 149.586 97.5111C149.014 97.7138 148.444 97.9219 147.877 98.1406C137.237 102.246 126.317 106.227 114.814 106.808C110.17 107.043 105.42 106.757 100.973 105.304C98.8589 104.613 96.8273 103.652 95.006 102.364C93.8583 101.55 90.7296 99.1784 92.8971 97.8072C92.0796 98.106 91.2595 98.4074 90.4421 98.7062C92.7932 97.9432 95.5279 97.7938 97.9643 97.4097C100.39 97.0282 102.818 96.6601 105.249 96.3052C110.197 95.585 115.155 94.9234 120.118 94.3178C129.96 93.12 139.828 92.1543 149.712 91.4126C150.564 91.3486 151.365 90.5643 152.209 90.5029Z" fill="black"/>
<path d="M162.732 77.4444C146.993 72.8212 129.973 69.4199 113.674 73.096C109.925 73.9417 106.283 75.2115 102.72 76.6414C102.707 76.6468 102.691 76.6548 102.677 76.6601C111.728 80.0801 121.159 81.4327 130.681 82.8199C139.977 84.1751 149.736 86.328 159.058 84.0897C159.918 83.8843 160.706 83.3828 161.561 83.1774C154.14 84.9594 146.532 83.8523 139.098 82.7692C131.531 81.6674 123.873 80.8031 116.406 79.1277C114.697 78.7436 113.001 78.3061 111.318 77.8152C110.442 77.5591 109.568 77.287 108.703 77.0016C108.333 76.8789 105.713 76.2386 105.649 75.9265C105.412 74.7793 114.572 73.3388 115.759 73.1654C122.762 72.1516 129.893 72.3384 136.899 73.2241C144.815 74.2245 152.587 76.1132 160.235 78.3594C160.927 78.5622 162.059 77.247 162.732 77.4444Z" fill="black"/>
<path d="M160.347 75.9824C157.239 70.1454 151.655 66.2825 145.555 64.0576C138.864 61.6167 131.818 61.5713 124.842 60.6269C121.17 60.1281 117.482 59.3251 114.164 57.6204C110.769 55.8757 108.051 53.192 105.191 50.719C99.8176 46.0718 93.1687 41.7367 85.7291 42.8892C83.1915 43.2813 80.2998 44.2897 78.135 45.6876C75.5229 47.3763 73.7202 50.036 71.1427 51.7674C70.9883 51.8714 70.3173 52.1569 70.2454 52.3063C70.4877 51.7941 71.7152 51.9861 70.6235 52.1195C69.8593 52.2129 69.0738 52.1462 68.3149 52.2689C67.2471 52.4397 66.1075 52.9065 65.1276 53.344C62.4995 54.5152 62.4676 58.1086 64.6137 59.7706C67.0395 61.6487 69.8486 60.6616 72.3995 59.7119C73.7176 59.221 74.9531 58.5915 76.2232 57.9912C76.4788 57.8738 76.7318 57.7591 76.9874 57.6417C76.0714 57.9645 75.9756 58.0339 76.6972 57.8472C77.1658 57.8205 77.6344 57.7004 78.1057 57.6711C79.2187 57.6071 80.3344 57.7138 81.4288 57.9218C85.3137 58.6581 88.935 60.5576 92.527 62.1449C95.906 63.6361 99.3569 65.082 103.005 65.7623C105.114 66.1545 107.26 66.2665 109.39 66.0104C111.763 65.725 114.06 65.1087 116.468 65.2048C120.882 65.3808 125.353 66.8267 129.627 67.8832C138.326 70.0334 146.98 72.6371 154.805 77.1002C155.317 77.391 156.821 75.9104 157.308 76.1878C150.963 72.5677 144.056 70.1561 137.032 68.2406C133.544 67.2883 130.023 66.4506 126.503 65.6236C122.602 64.7086 118.915 63.9483 114.907 64.6099C111.384 65.1914 108.136 65.4502 104.616 64.6685C101.138 63.8976 97.8418 62.481 94.5986 61.0431C91.4326 59.6399 88.2587 58.0419 84.877 57.2176C81.6844 56.4386 78.9738 56.8628 75.9676 57.9779C74.5403 58.5061 73.1664 59.4665 71.7285 59.88C70.5995 60.2054 68.8608 59.896 67.7264 59.2637C65.1622 57.8311 64.627 53.8109 67.5853 52.4557C66.7679 52.7545 65.9477 53.0559 65.1303 53.3547C66.5655 52.8852 68.1099 53.1493 69.5717 52.6424C70.6368 52.2716 71.7445 51.9221 72.7483 51.3992C75.5309 49.948 77.3815 47.2162 79.8471 45.3408C80.5554 44.8019 81.3063 44.3911 82.0945 43.9856C83.2528 43.3854 81.1892 44.3031 81.2238 44.2657C81.3622 44.1137 81.98 44.0577 82.193 44.007C82.6723 43.8949 83.1596 43.8096 83.6469 43.7482C85.4122 43.5268 87.2149 43.6121 88.9616 43.9456C92.7028 44.6606 96.1111 46.5493 99.1519 48.7875C102.297 51.1005 105.013 53.9256 108.12 56.2812C111.233 58.6421 114.771 60.088 118.574 60.9017C125.79 62.4463 133.28 62.0702 140.408 64.1163C147.507 66.1545 154.286 70.2094 157.846 76.9001C157.913 77.0201 160.299 75.889 160.347 75.9824Z" fill="black"/>
<path d="M146.506 100.998C138.494 104.562 130.479 108.126 122.467 111.69C118.425 113.488 114.412 115.284 110.042 116.116C106.176 116.852 102.336 116.743 98.5128 115.804C94.5853 114.838 90.8202 113.317 86.9033 112.309C82.9572 111.295 78.9231 110.631 74.8625 110.319C66.9036 109.705 58.8382 110.439 51.1297 112.517C48.4536 113.237 45.4154 113.99 42.995 115.396C40.1992 117.02 39.3418 120.483 40.4734 123.425C41.6051 126.371 44.6299 128.083 47.6441 128.454C51.4012 128.913 54.7802 127.04 58.4149 126.523C62.3557 125.962 65.756 127.83 69.3373 129.145C73.0492 130.508 76.9075 130.66 80.795 130.103C84.9755 129.503 89.0468 128.257 93.1155 127.152C97.3678 125.997 101.62 124.839 105.875 123.684C115.2 121.15 124.544 118.672 133.852 116.076C137.024 115.193 140.507 114.171 143.223 112.256C146.463 109.972 148.654 106.547 150.755 103.257C150.383 103.842 148.641 103.564 148.252 104.17C146.442 107.006 144.583 109.905 142.027 112.136C141.399 112.685 140.73 113.189 140.022 113.632C139.167 114.163 138.262 114.609 137.695 114.777C135.589 115.401 133.461 115.953 131.341 116.529C123.175 118.749 115.011 120.968 106.844 123.188C102.762 124.298 98.6779 125.408 94.5959 126.517C90.7083 127.574 86.8128 128.74 82.8054 129.26C78.9045 129.767 75.0968 129.487 71.4063 128.073C68.0672 126.795 64.8214 125.117 61.1388 125.584C57.6853 126.021 54.466 127.787 50.9273 127.611C47.8944 127.459 44.6992 125.986 43.2693 123.18C41.9779 120.646 42.2362 117.186 44.4409 115.233C44.7657 114.945 45.1758 114.763 45.498 114.486C46.3927 113.707 44.7444 114.654 45.8575 114.24C46.9066 113.851 48.0196 113.587 49.098 113.304C50.9885 112.811 52.9004 112.394 54.8282 112.061C62.5341 110.724 70.461 110.679 78.1802 111.925C82.0412 112.549 85.8116 113.533 89.5288 114.745C93.1181 115.916 96.7261 117.18 100.515 117.474C108.304 118.077 116.057 114.702 123.042 111.629C131.68 107.827 140.291 103.959 148.915 100.123C148.34 100.384 147.243 100.67 146.506 100.998Z" fill="black"/>
<path d="M12.9249 103.807C12.7518 103.903 12.5761 103.996 12.3977 104.084C11.4631 104.506 11.7187 104.42 13.1619 103.828C12.8716 103.818 12.5548 103.946 12.2592 103.954C11.519 103.972 10.8746 103.759 10.2702 103.329C10.1477 103.241 9.17047 103.716 9.01337 103.772C8.85893 103.828 7.88703 104.327 7.76721 104.242C8.98674 105.103 10.2995 104.901 11.6255 104.442C12.9169 103.996 14.2216 103.545 15.4252 102.892C14.6583 103.311 13.6998 103.385 12.9249 103.807Z" fill="black"/>
<path d="M27.317 92.9919C23.5013 95.8678 19.7282 98.7996 15.9604 101.737C16.6208 101.222 17.7924 101.347 18.4634 100.824C22.2312 97.8846 26.0042 94.9527 29.8199 92.0796C29.1436 92.5865 27.9986 92.4771 27.317 92.9919Z" fill="black"/>
<path d="M155.673 90.4735C147.768 86.7947 139.165 84.8365 130.45 84.6818C126.147 84.6045 121.838 84.9593 117.599 85.7116C113.32 86.4719 109.238 87.7577 105.119 89.1129C96.6223 91.9087 87.5637 94.5764 78.7341 91.5806C70.2427 88.6968 62.0282 84.6098 52.9803 83.7695C48.5042 83.3533 44.2226 84.1403 40.0261 85.6609C35.835 87.1788 32.2776 89.4651 28.635 92.0101C29.3353 91.5219 30.4297 91.5912 31.138 91.0977C32.7942 89.9399 34.4397 88.7635 36.1652 87.7124C37.0093 87.1975 37.8747 86.7093 38.764 86.2771C39.0942 86.1171 39.4297 85.9703 39.7599 85.8156C39.8823 85.7596 40.6119 85.4555 39.877 85.7516C39.1474 86.0477 39.8877 85.7623 40.0261 85.7249C40.4708 85.6075 40.9075 85.4688 41.3522 85.3594C45.4022 84.3457 49.5294 84.3964 53.622 85.122C57.7705 85.8556 61.7939 87.1441 65.7454 88.5794C69.7048 90.0173 73.611 91.8233 77.6744 92.9411C85.7797 95.174 94.0448 92.8344 101.783 90.3081C105.875 88.9715 109.931 87.6163 114.167 86.8C118.166 86.0317 122.235 85.6209 126.306 85.5888C135.57 85.5168 144.764 87.4776 153.168 91.3885C153.354 91.4765 154.225 91.0177 154.425 90.9457C154.624 90.8683 155.484 90.3854 155.673 90.4735Z" fill="black"/>
<path d="M159.345 85.9597C160.187 85.9597 161.02 85.0474 161.848 85.0474C161.007 85.0474 160.173 85.9597 159.345 85.9597Z" fill="black"/>
<path d="M189.871 83.8841C210.246 81.1817 230.733 79.2743 251.278 78.5567C252.128 78.5273 252.943 77.6736 253.781 77.6443C233.236 78.3619 212.751 80.2693 192.374 82.9717C191.511 83.0865 190.725 83.7694 189.871 83.8841Z" fill="black"/>
<path d="M156.366 86.7706C160.147 87.0027 163.925 86.9334 167.704 86.6799C168.558 86.6213 169.362 85.8236 170.207 85.7676C166.431 86.0237 162.65 86.093 158.869 85.8583C158.049 85.8076 157.17 86.8187 156.366 86.7706Z" fill="black"/>
<path d="M68.5971 56.0012C69.1217 55.3156 69.6915 54.9714 70.3465 54.4486C70.7486 54.2351 70.5409 54.2965 69.7208 54.6326C69.9657 54.5713 70.2134 54.5206 70.461 54.4806C70.8391 54.4165 71.2199 54.3739 71.6033 54.3445C73.2595 54.2191 74.8998 54.4379 76.548 54.5793C79.6554 54.8407 82.3554 54.3552 85.1938 53.1014C85.9554 52.7652 86.6237 52.2984 87.2947 51.8075C87.6196 51.5701 87.9364 51.322 88.2666 51.0926C88.5036 50.9272 89.1533 50.6764 89.2678 50.4576C88.1362 50.7778 87.8592 50.8898 88.445 50.7938C88.6634 50.7564 88.8844 50.7404 89.108 50.7458C89.5527 50.7458 89.9947 50.8231 90.4234 50.9272C91.3847 51.1619 92.2847 51.6074 93.1634 52.0476C97.1788 54.0697 101.168 56.1452 105.172 58.1967C105.345 58.2848 106.237 57.8232 106.429 57.7539C106.618 57.6845 107.502 57.1963 107.675 57.2844C105.313 56.0759 102.954 54.8674 100.592 53.6562C98.4888 52.5785 96.4039 51.346 94.2151 50.4523C90.9719 49.1264 87.6116 50.631 84.9569 52.5972C84.5788 52.8773 84.206 53.16 83.8092 53.4108C83.5856 53.5549 83.3566 53.6883 83.1196 53.811C84.1154 53.4935 84.2539 53.4242 83.5376 53.5976C82.4912 53.7229 81.4793 53.8056 80.4196 53.7603C78.3773 53.6723 76.3509 53.2961 74.3007 53.4215C72.7483 53.5149 71.3663 53.9684 69.9231 54.4966C68.432 55.0435 67.1006 55.6037 66.0968 56.9135C66.5441 56.3293 68.1364 56.6041 68.5971 56.0012Z" fill="black"/>
<path d="M45.04 121.963C45.5459 121.643 46.0811 121.419 46.6003 121.128C44.9841 121.678 44.7364 121.782 45.8601 121.441C46.0971 121.379 46.3341 121.323 46.5737 121.272C47.5483 121.064 48.5388 120.942 49.532 120.854C51.545 120.675 53.5687 120.651 55.5764 120.411C58.6518 120.04 62.2838 118.994 64.7095 116.993C64.0678 117.522 62.8589 117.37 62.2065 117.906C61.8338 118.213 61.453 118.501 61.0376 118.754C60.8352 118.877 60.6275 118.992 60.4172 119.098C59.3574 119.57 59.629 119.49 61.2346 118.861C60.1775 119.101 59.1604 119.368 58.0793 119.496C56.0716 119.736 54.048 119.76 52.0349 119.939C48.8157 120.224 45.3036 121.126 42.5397 122.873C43.2693 122.414 44.3051 122.428 45.04 121.963Z" fill="black"/>
<path d="M45.7776 117.37C54.5539 113.357 65.6149 114.331 74.2448 118.186C78.8406 120.24 83.2102 122.702 88.3679 122.862C93.5389 123.023 98.5714 121.411 103.436 119.845C104.198 119.6 105.247 119.152 105.846 118.96C101.309 120.419 96.6569 121.897 91.848 121.958C87.2362 122.017 83.2022 120.309 79.1096 118.373C75.198 116.521 71.2572 115.022 66.9569 114.379C62.7844 113.755 58.5081 113.84 54.3622 114.622C50.5572 115.339 46.7921 116.673 43.2747 118.282C44.0788 117.914 44.9708 117.738 45.7776 117.37Z" fill="black"/>
<path d="M118.907 116.855C122.507 115.718 126.296 115.721 129.976 115.003C132.409 114.529 134.91 113.67 137.144 112.584C142.919 109.777 145.768 103.551 151.251 100.379C150.497 100.814 149.509 100.851 148.748 101.291C144.24 103.9 141.625 108.609 137.535 111.717C136.994 112.128 136.433 112.506 135.85 112.851C135.586 113.005 135.32 113.152 135.051 113.293C134.891 113.376 133.267 114.051 134.191 113.726C135.237 113.357 133.49 113.875 133.184 113.944C132.873 114.014 132.558 114.078 132.247 114.136C131.459 114.283 130.668 114.395 129.872 114.497C126.991 114.862 124.104 115.091 121.319 115.969C120.555 116.209 119.508 116.665 118.907 116.855Z" fill="black"/>
<path d="M193.234 73.1732C192.603 72.0474 191.378 71.9887 190.241 72.2955C188.984 72.6343 187.674 73.1091 186.508 73.6934C187.293 73.2985 188.22 73.1758 189.011 72.781C189.112 72.7277 189.218 72.677 189.325 72.6316C189.778 72.4342 189.522 72.5249 188.555 72.9011C186.782 73.552 187.714 73.1892 188.188 73.1038C188.515 73.0451 188.854 73.0158 189.186 73.0531C189.881 73.1278 190.393 73.48 190.733 74.0855C190.811 74.2269 193.172 73.0665 193.234 73.1732Z" fill="black"/>
<path d="M165.302 69.0249C166.993 73.2373 166.159 77.6711 165.93 82.0568C165.845 83.6975 165.557 85.933 166.529 87.3763C167.392 88.6595 168.968 89.1743 170.438 89.281C174.901 89.6065 179.398 89.097 183.848 88.8168C186.718 88.6354 189.762 86.7574 191.221 84.263C191.117 84.4418 190.174 84.6312 189.964 84.7059C189.719 84.7939 188.854 84.9406 188.718 85.1754C187.786 86.7707 186.289 87.6537 184.87 88.7582C185.704 88.454 186.537 88.1499 187.373 87.8458C183.853 88.0485 180.341 88.398 176.813 88.446C174.392 88.4807 170.952 88.8542 169.216 86.72C168.369 85.6796 168.385 84.3137 168.377 83.0359C168.369 81.3739 168.521 79.7199 168.657 78.0659C168.931 74.6885 169.086 71.3165 167.8 68.1153C167.786 68.0672 165.305 69.0356 165.302 69.0249Z" fill="black"/>
<path d="M186.782 72.058C187.038 68.4726 186.665 64.6364 185.27 61.2937C183.965 58.1698 181.15 59.1596 178.687 60.0666C173.016 62.1554 168.183 67.2241 164.788 72.0874C165.198 71.5005 166.868 71.7806 167.291 71.175C170.446 66.6585 174.456 62.8837 179.159 60.0239C179.95 59.5437 178.938 60.0426 178.932 60.0693C178.948 59.9786 179.814 59.9839 179.886 59.9839C180.437 59.9972 180.988 60.1253 181.457 60.4321C182.546 61.147 182.937 62.5449 183.294 63.724C184.202 66.7226 184.505 69.8465 184.282 72.9677C184.306 72.6263 186.755 72.4369 186.782 72.058Z" fill="black"/>
<path d="M170.665 73.9283C171.365 74.2485 172.065 74.5713 172.768 74.8914C173.341 75.1528 173.905 75.545 174.547 75.3556C175.26 75.1448 175.987 74.87 176.674 74.5819C176.983 74.4539 177.484 74.0644 176.991 73.7816C176.837 73.6936 175.913 74.1604 175.734 74.2245C175.559 74.2885 174.643 74.782 174.488 74.694C174.794 74.87 174.688 75.2088 174.435 75.3902C175.268 75.0861 176.102 74.782 176.938 74.4779C176.315 74.6139 175.686 74.1711 175.138 73.9203C174.48 73.6189 173.823 73.3174 173.168 73.016C172.978 72.9306 172.113 73.3868 171.911 73.4588C171.708 73.5335 170.854 74.0164 170.665 73.9283Z" fill="black"/>
<path d="M179.081 68.7395C179.137 68.7128 179.193 68.6862 179.249 68.6595C178.429 68.9583 177.609 69.2544 176.791 69.5532C177.622 69.3424 178.325 70.1401 178.759 70.743C179.593 70.4389 180.426 70.1347 181.262 69.8306C180.652 69.2517 180.045 68.6702 179.436 68.0913C179.353 68.0139 178.309 68.4888 178.179 68.5341C177.883 68.6408 177.59 68.7502 177.295 68.8596C177.252 68.8756 176.946 69.0143 176.933 69.001C177.542 69.5799 178.149 70.1614 178.759 70.7403C178.842 70.8177 179.886 70.3428 180.016 70.2975C180.117 70.2601 181.233 69.7853 181.262 69.828C180.887 69.3051 180.317 68.6302 179.619 68.5981C179.204 68.5768 178.749 68.8249 178.373 68.9609C177.782 69.1744 177.138 69.3478 176.584 69.6492C176.954 69.4465 177.444 69.3504 177.841 69.2064C178.243 69.0597 178.701 68.9503 179.081 68.7395Z" fill="black"/>
<path d="M184.388 73.5175C186.58 73.1013 188.792 73.16 190.981 73.5709C191.988 73.7603 196.043 74.3365 195.942 75.6517C195.886 76.3693 194.823 77.4497 194.408 78.0793C193.766 79.0504 193.117 80.0161 192.459 80.9738C191.159 82.8626 189.823 84.7246 188.454 86.5654C188.891 85.9785 190.507 86.2586 190.957 85.653C192.326 83.8123 193.662 81.9502 194.962 80.0614C195.62 79.1037 196.269 78.138 196.911 77.167C197.321 76.5454 198.389 75.4649 198.445 74.7393C198.549 73.4028 194.507 72.8506 193.484 72.6585C191.295 72.245 189.083 72.189 186.891 72.6051C186.026 72.7679 185.246 73.3548 184.388 73.5175Z" fill="black"/>
<path d="M11.5137 104.314C13.4282 105.269 15.1936 106.429 16.8285 107.811C16.9217 107.888 19.3181 106.987 19.3314 106.899C19.6456 104.524 19.9598 102.147 20.274 99.7732C20.2234 100.163 17.827 100.261 17.7711 100.686C17.4569 103.06 17.1427 105.437 16.8285 107.811C17.6619 107.507 18.4953 107.203 19.3314 106.899C17.6965 105.517 15.9311 104.356 14.0166 103.401C13.8409 103.313 12.9542 103.775 12.7598 103.844C12.5681 103.916 11.6921 104.404 11.5137 104.314Z" fill="black"/>
<path d="M26.1294 92.4342C25.7779 90.3054 25.7033 88.1818 25.8977 86.0343C25.0643 86.3384 24.2308 86.6426 23.3947 86.9467C25.4237 88.1258 27.3595 89.4303 29.2155 90.8682C29.4684 91.0657 31.5933 89.7558 31.7184 89.9559C31.4069 89.449 31.0474 89.1983 30.4696 89.0809C29.7187 88.9261 28.6989 90.1426 27.9666 89.9932C28.5498 90.1133 28.9066 90.364 29.2155 90.8682C30.0489 90.5641 30.8823 90.26 31.7184 89.9559C29.8652 88.518 27.9267 87.2135 25.8977 86.0343C25.7566 85.9516 23.4027 86.8693 23.3947 86.9467C23.1977 89.0942 23.2749 91.2177 23.6264 93.3466C23.6024 93.2025 26.1587 92.6156 26.1294 92.4342Z" fill="black"/>
<path d="M45.4155 85.7783C45.072 85.3674 44.7472 85.1407 44.2412 84.9619C43.8072 84.8072 42.0072 86.1384 41.7383 85.8743C43.4158 87.5309 44.8191 89.377 45.9693 91.4392C45.964 91.4285 48.4164 90.6949 48.4723 90.5268C48.8744 89.313 49.2764 88.0965 49.6785 86.8827C49.9581 86.037 50.1205 84.5804 50.8954 84.0496C50.0619 84.3537 49.2285 84.6578 48.3924 84.9619C48.4723 84.9646 48.5522 84.9699 48.6321 84.9726C49.4575 85.0099 50.3229 84.0229 51.135 84.0602C50.6264 84.0362 50.1125 84.3217 49.6386 84.4924C49.2152 84.6471 48.5309 84.7725 48.1821 85.1033C47.543 85.7116 47.3566 87.2402 47.0957 88.0352C46.7202 89.1689 46.3448 90.3027 45.972 91.4365C46.8054 91.1324 47.6389 90.8283 48.475 90.5241C47.3273 88.462 45.9214 86.6159 44.2439 84.9593C43.4105 85.2634 42.577 85.5675 41.7409 85.8716C42.2469 86.0504 42.5717 86.2771 42.9152 86.688C43.1202 86.9387 45.2318 85.5622 45.4155 85.7783Z" fill="black"/>
<path d="M68.6424 86.7308C69.5344 85.3089 70.4291 83.8843 71.3211 82.4624C70.4876 82.7665 69.6542 83.0706 68.8181 83.3748C70.3838 86.384 72.1758 89.2571 74.1861 91.9889C74.3459 92.205 76.5507 90.8898 76.6891 91.0765C74.6761 88.3448 72.8867 85.4716 71.3211 82.4624C71.3237 82.4704 68.9299 83.1987 68.8181 83.3748C67.9261 84.7967 67.0314 86.2212 66.1394 87.6431C66.2566 87.4564 67.1752 87.2803 67.3962 87.2003C67.6492 87.1069 68.4933 86.9709 68.6424 86.7308Z" fill="black"/>
<path d="M102.118 91.9833C103.162 92.7436 104.206 93.5039 105.252 94.2642C105.367 94.3496 107.694 93.4959 107.755 93.3519C108.514 91.5191 109.145 89.6491 109.654 87.731C109.622 87.8457 108.541 88.1231 108.397 88.1738C108.061 88.2965 107.412 88.3872 107.151 88.6433C106.908 88.8808 106.666 89.1182 106.424 89.3529C106.996 88.7927 108.341 89.0115 108.927 88.4406C109.169 88.2031 109.411 87.9657 109.654 87.731C108.82 88.0351 107.987 88.3392 107.151 88.6433C106.642 90.5614 106.011 92.4315 105.252 94.2642C106.086 93.9601 106.919 93.656 107.755 93.3519C106.711 92.5916 105.668 91.8313 104.621 91.071C104.501 90.9856 103.519 91.4578 103.364 91.5138C103.215 91.5698 102.235 92.066 102.118 91.9833Z" fill="black"/>
<path d="M170.742 86.7786C175.295 81.0884 180.048 75.3768 186.417 71.6553C185.584 71.9594 184.75 72.2635 183.914 72.5676C178.488 77.6096 173.221 82.8171 168.119 88.1899C168.66 87.619 170.068 87.8617 170.622 87.2775C175.724 81.9074 180.991 76.6973 186.417 71.6553C185.853 72.1808 184.599 72.1701 183.914 72.5676C177.545 76.2891 172.792 82.0007 168.239 87.691C168.707 87.1068 170.26 87.3789 170.742 86.7786Z" fill="black"/>
<path d="M179.358 78.8609C179.515 78.6635 179.67 78.4715 179.859 78.3034C180.069 78.1166 180.879 77.7592 180.104 77.9939C179.276 78.2447 180.796 77.9432 181.097 77.9112C182.492 77.7592 183.92 77.6978 185.318 77.8605C187.786 78.1487 190.11 79.2291 191.466 81.382C191.559 81.5287 193.913 80.3602 193.969 80.4696C193.788 80.1175 193.662 79.9921 193.311 79.808C193.141 79.72 192.243 80.1841 192.054 80.2508C191.868 80.3202 190.978 80.8084 190.808 80.7204C191.16 80.9044 191.285 81.0298 191.466 81.382C192.299 81.0778 193.133 80.7737 193.969 80.4696C191.836 77.0816 187.682 76.6281 184.029 76.9562C182.681 77.0762 181.481 77.4017 180.218 77.8605C178.956 78.3194 177.737 78.6795 176.861 79.7706C177.324 79.1891 178.876 79.4612 179.358 78.8609Z" fill="black"/>
<path d="M180.139 82.3529C180.533 82.5689 180.868 82.8517 181.15 83.2039C181.984 82.8997 182.817 82.5956 183.653 82.2915C183.121 81.8913 182.586 81.4939 182.053 81.0937C182.032 81.0777 181.648 81.2324 181.683 81.2191C181.387 81.3231 181.092 81.4298 180.796 81.5392C180.501 81.6459 180.208 81.7553 179.912 81.8647C179.867 81.8807 179.571 82.0247 179.55 82.0061C180.083 82.4062 180.618 82.8037 181.15 83.2039C181.172 83.2199 181.555 83.0651 181.52 83.0785C181.816 82.9744 182.112 82.8677 182.407 82.7584C182.703 82.6516 182.996 82.5423 183.291 82.4329C183.328 82.4196 183.648 82.2808 183.653 82.2915C183.371 81.9394 183.036 81.6566 182.641 81.4405C182.61 81.4218 182.247 81.5739 182.271 81.5659C181.976 81.6699 181.68 81.7766 181.385 81.886C181.089 81.9927 180.796 82.1021 180.501 82.2115C180.447 82.2301 180.173 82.3742 180.139 82.3529Z" fill="black"/>
<path d="M187.834 75.4623C188.087 75.5823 188.284 75.7717 188.409 76.0225C189.242 75.7184 190.076 75.4142 190.912 75.1101C190.52 75.0354 190.206 74.7607 190.078 74.3818C189.245 74.686 188.412 74.9901 187.575 75.2942C187.698 75.3476 187.818 75.4009 187.94 75.4543C187.98 75.4729 188.324 75.3235 188.31 75.3289C188.606 75.2248 188.902 75.1181 189.197 75.0088C189.493 74.902 189.786 74.7927 190.081 74.6833C190.14 74.6619 190.401 74.5206 190.443 74.5419C190.321 74.4885 190.201 74.4352 190.078 74.3818C190.038 74.3658 189.695 74.5126 189.708 74.5072C189.413 74.6113 189.117 74.718 188.822 74.8273C188.731 74.862 187.567 75.2755 187.575 75.2969C187.703 75.673 188.017 75.9505 188.409 76.0252C188.473 76.0385 188.758 75.9078 188.779 75.8998C189.075 75.7957 189.37 75.689 189.666 75.5796C189.759 75.545 190.907 75.0995 190.912 75.1101C190.787 74.8594 190.592 74.6673 190.337 74.5499C190.299 74.5312 189.951 74.6806 189.967 74.6753C189.671 74.7793 189.375 74.886 189.08 74.9954C188.784 75.1021 188.491 75.2115 188.196 75.3209C188.14 75.3422 187.876 75.4836 187.834 75.4623Z" fill="black"/>
<path d="M171.807 65.933C176.682 67.5256 178.086 72.8291 178.181 77.4336C178.176 77.1668 180.69 76.828 180.684 76.5212C180.589 71.9167 179.185 66.6133 174.31 65.0207C174.073 64.9433 173.29 65.3781 173.053 65.4635C172.819 65.5515 172.049 66.013 171.807 65.933Z" fill="black"/>
<path d="M167.006 49.9614C167.847 49.9614 168.681 49.0491 169.509 49.0491C168.67 49.0491 167.834 49.9614 167.006 49.9614Z" fill="black"/>
<path d="M143.846 100.021C141.649 100.603 139.452 101.184 137.255 101.766C136.478 102.051 135.703 102.337 134.925 102.622C137.293 101.801 139.686 101.08 142.11 100.451C142.82 100.189 143.531 99.9253 144.242 99.6638C142.051 100.435 139.849 101.182 137.639 101.905C136.728 102.201 135.815 102.492 134.902 102.785C134.151 103.025 135 102.756 135.272 102.67C135.892 102.478 136.515 102.294 137.141 102.126C138.025 101.886 138.914 101.683 139.804 101.475C141.154 101.158 139.279 101.694 139.058 101.766C138.592 101.915 138.123 102.057 137.655 102.195C135.636 102.788 133.591 103.273 131.528 103.679C130.694 103.983 129.861 104.287 129.025 104.591C132.604 103.711 136.148 102.71 139.66 101.593C140.483 101.331 141.281 100.907 142.115 100.694C138.81 101.545 135.591 102.676 132.415 103.916C132.494 103.884 132.127 104.026 132.292 103.972C136.254 102.676 140.216 101.379 144.181 100.083C144.94 99.8346 145.992 99.3837 146.591 99.197C145.638 99.4958 144.687 99.7919 143.734 100.091C143.26 100.24 142.786 100.411 142.304 100.536C141.21 100.822 142.213 100.48 142.536 100.347C144.506 99.5224 146.476 98.6981 148.444 97.8738C148.266 97.9485 147.563 98.1779 147.233 98.2979C145.512 98.9249 143.79 99.5518 142.07 100.176C141.713 100.307 141.34 100.421 140.991 100.576C140.805 100.659 140.791 100.659 140.997 100.59C142.08 100.219 143.161 99.8452 144.245 99.4744C144.426 99.4131 145.531 99.149 145.638 98.9969C145.531 99.149 143.529 99.8212 144.626 99.4371C143.912 99.6878 142.906 100.109 142.344 100.28C143.702 99.8692 145.068 99.4798 146.404 98.9996C148.543 98.2313 146.415 98.9942 145.981 99.1516C145.385 99.365 144.788 99.5785 144.194 99.7919C143.643 99.9893 142.749 100.36 142.362 100.477C144.57 99.8132 146.743 99.0236 148.891 98.1886C148.814 98.2179 149.179 98.0819 149.014 98.1325C148.548 98.2739 148.002 98.538 147.518 98.5861C146.865 98.6501 148.114 98.2179 148.244 98.1566C147.443 98.5274 146.546 98.6981 145.741 99.0689C145.302 99.2717 144.86 99.4744 144.421 99.6798C144.437 99.6745 144.45 99.6718 144.466 99.6665C145.023 99.4984 145.606 99.2503 146.175 99.149C145.683 99.237 144.831 99.5971 144.317 99.7812C142.152 100.558 144.285 99.7919 144.727 99.6345C145.323 99.4211 145.92 99.2076 146.514 98.9942C147.065 98.7968 147.96 98.4287 148.346 98.3086C147.448 98.5807 146.548 98.8448 145.651 99.1249C145.113 99.2797 144.586 99.4611 144.067 99.6692C142.863 100.099 142.552 100.213 143.127 100.011C143.465 99.8906 143.8 99.7705 144.139 99.6478C145.568 99.1303 146.988 98.5941 148.388 98.0018C148.548 97.9351 148.181 98.0659 148.258 98.0392C146.942 98.49 145.627 98.9435 144.314 99.3944C143.726 99.5971 143.119 99.7812 142.549 100.035C142.85 99.9013 143.177 99.8052 143.489 99.6932C144.192 99.4371 144.897 99.181 145.6 98.9249C145.912 98.8102 146.226 98.6954 146.54 98.5834C147.203 98.346 145.499 98.9782 145.323 99.0476C144.61 99.3357 143.904 99.6425 143.196 99.9386C141.777 100.534 140.36 101.126 138.941 101.721C138.882 101.745 138.882 101.747 138.944 101.726C141.335 100.979 143.702 100.069 146.098 99.365C144.352 99.8799 142.629 100.499 140.898 101.067C139.165 101.635 137.436 102.22 135.698 102.769C135.591 102.804 134.683 103.111 135.258 102.897C135.634 102.758 136.02 102.644 136.403 102.524C137.466 102.19 138.539 101.889 139.617 101.611C140.435 101.312 141.255 101.011 142.072 100.712C138.592 101.819 135.077 102.812 131.531 103.684C130.678 103.895 129.882 104.428 129.028 104.596C133.698 103.681 138.182 102.222 142.626 100.536C142.685 100.515 142.741 100.493 142.794 100.467C139.045 101.264 135.437 102.486 131.866 103.86C131.946 103.831 131.578 103.967 131.744 103.916C135.341 102.785 138.92 101.59 142.477 100.339C143.183 100.091 143.888 99.7385 144.61 99.5518C142.07 100.211 139.561 100.974 137.08 101.835C136.307 102.102 135.538 102.484 134.75 102.692C136.946 102.11 139.143 101.529 141.34 100.947C142.2 100.707 142.994 100.248 143.846 100.021Z" fill="black"/>
</svg>
