<svg width="160" height="164" viewBox="0 0 160 164" fill="none" xmlns="http://www.w3.org/2000/svg">
<g filter="url(#filter0_d_885_7224)">
<path d="M19.5 113.5L37 137H27.5L5 116L14 26L53.5 1L111 2L143.5 20L155 116L132 136L123.5 137L143.5 116L134 26L107 12H55.5L27.5 30.5L19.5 113.5Z" fill="#B3B3B3"/>
<path d="M19.5 113.5L37 137H27.5L5 116L14 26L53.5 1L111 2L143.5 20L155 116L132 136L123.5 137L143.5 116L134 26L107 12H55.5L27.5 30.5L19.5 113.5Z" stroke="#727272"/>
</g>
<path d="M16 114L37 137H27.5L5 116L14 26L53.5 1L111 2L143.5 20L155 116L132 136H125L147 116L136 23.5L108 9L55 8L24 30L16 114Z" fill="#E8E8E8" stroke="#727272"/>
<g filter="url(#filter1_di_885_7224)">
<path d="M11.5 121C11.5 115.477 15.9772 111 21.5 111H140.591C146.114 111 150.591 115.477 150.591 121V146C150.591 151.523 146.114 156 140.591 156H21.5C15.9772 156 11.5 151.523 11.5 146V121Z" fill="#FFF761"/>
<path d="M21.5 113H140.591C145.009 113 148.591 116.582 148.591 121V146C148.591 150.418 145.009 154 140.591 154H21.5C17.0817 154 13.5 150.418 13.5 146V121C13.5 116.582 17.0817 113 21.5 113Z" stroke="#53A6A1" stroke-width="4"/>
</g>
<path d="M29.964 143C29.388 143 28.86 142.864 28.38 142.592C27.916 142.304 27.54 141.928 27.252 141.464C26.98 140.984 26.844 140.456 26.844 139.88V128.84C26.844 128.264 26.98 127.744 27.252 127.28C27.54 126.8 27.916 126.424 28.38 126.152C28.86 125.864 29.388 125.72 29.964 125.72H40.98C41.556 125.72 42.084 125.864 42.564 126.152C43.044 126.424 43.42 126.8 43.692 127.28C43.98 127.744 44.124 128.264 44.124 128.84V129.872H41.508V128.912C41.508 128.752 41.452 128.616 41.34 128.504C41.228 128.376 41.092 128.312 40.932 128.312H30.036C29.876 128.312 29.732 128.376 29.604 128.504C29.492 128.616 29.436 128.752 29.436 128.912V139.808C29.436 139.968 29.492 140.112 29.604 140.24C29.732 140.352 29.876 140.408 30.036 140.408H40.932C41.092 140.408 41.228 140.352 41.34 140.24C41.452 140.112 41.508 139.968 41.508 139.808V136.136H37.428V133.52H44.124V139.88C44.124 140.456 43.98 140.984 43.692 141.464C43.42 141.928 43.044 142.304 42.564 142.592C42.084 142.864 41.556 143 40.98 143H29.964ZM49.7659 143C49.1899 143 48.6699 142.856 48.2059 142.568C47.7419 142.28 47.3659 141.904 47.0779 141.44C46.7899 140.976 46.6459 140.456 46.6459 139.88V132.2C46.6459 131.624 46.7899 131.104 47.0779 130.64C47.3659 130.176 47.7419 129.8 48.2059 129.512C48.6699 129.224 49.1899 129.08 49.7659 129.08H57.6859C58.2619 129.08 58.7819 129.224 59.2459 129.512C59.7259 129.784 60.1019 130.16 60.3739 130.64C60.6619 131.12 60.8059 131.64 60.8059 132.2V139.88C60.8059 140.456 60.6619 140.976 60.3739 141.44C60.1019 141.904 59.7259 142.28 59.2459 142.568C58.7819 142.856 58.2619 143 57.6859 143H49.7659ZM49.8379 140.408H57.6139C57.7739 140.408 57.9099 140.352 58.0219 140.24C58.1339 140.112 58.1899 139.968 58.1899 139.808V132.272C58.1899 132.112 58.1339 131.976 58.0219 131.864C57.9099 131.736 57.7739 131.672 57.6139 131.672H49.8379C49.6779 131.672 49.5339 131.736 49.4059 131.864C49.2939 131.976 49.2379 132.112 49.2379 132.272V139.808C49.2379 139.968 49.2939 140.112 49.4059 140.24C49.5339 140.352 49.6779 140.408 49.8379 140.408ZM70.416 143V125.72H83.856C84.416 125.72 84.936 125.864 85.416 126.152C85.896 126.424 86.272 126.8 86.544 127.28C86.832 127.744 86.976 128.264 86.976 128.84V132.368C86.976 132.576 86.952 132.784 86.904 132.992C86.872 133.2 86.808 133.392 86.712 133.568C87.032 134.016 87.272 134.44 87.432 134.84C87.608 135.224 87.696 135.616 87.696 136.016V139.88C87.696 140.456 87.552 140.984 87.264 141.464C86.992 141.928 86.616 142.304 86.136 142.592C85.656 142.864 85.128 143 84.552 143H70.416ZM73.608 140.408H84.504C84.664 140.408 84.8 140.352 84.912 140.24C85.024 140.112 85.08 139.968 85.08 139.808V136.088C85.08 135.928 85.024 135.792 84.912 135.68C84.8 135.552 84.664 135.488 84.504 135.488H73.608C73.448 135.488 73.304 135.552 73.176 135.68C73.064 135.792 73.008 135.928 73.008 136.088V139.808C73.008 139.968 73.064 140.112 73.176 140.24C73.304 140.352 73.448 140.408 73.608 140.408ZM73.608 132.896H83.784C83.944 132.896 84.08 132.84 84.192 132.728C84.304 132.6 84.36 132.456 84.36 132.296V128.912C84.36 128.752 84.304 128.616 84.192 128.504C84.08 128.376 83.944 128.312 83.784 128.312H73.608C73.448 128.312 73.304 128.376 73.176 128.504C73.064 128.616 73.008 128.752 73.008 128.912V132.296C73.008 132.456 73.064 132.6 73.176 132.728C73.304 132.84 73.448 132.896 73.608 132.896ZM93.3368 143C92.7608 143 92.2328 142.856 91.7528 142.568C91.2888 142.28 90.9128 141.904 90.6248 141.44C90.3528 140.976 90.2168 140.456 90.2168 139.88V134.744H101.761V132.272C101.761 132.112 101.705 131.976 101.593 131.864C101.481 131.736 101.345 131.672 101.185 131.672H90.2168V129.08H101.257C101.833 129.08 102.353 129.224 102.817 129.512C103.297 129.784 103.673 130.16 103.945 130.64C104.233 131.12 104.377 131.64 104.377 132.2V143H93.3368ZM93.4088 140.408H101.761V137.168H92.8088V139.808C92.8088 139.968 92.8648 140.112 92.9768 140.24C93.1048 140.352 93.2488 140.408 93.4088 140.408ZM109.532 143C108.956 143 108.436 142.856 107.972 142.568C107.508 142.28 107.132 141.904 106.844 141.44C106.556 140.976 106.412 140.456 106.412 139.88V132.2C106.412 131.624 106.556 131.104 106.844 130.64C107.132 130.176 107.508 129.8 107.972 129.512C108.436 129.224 108.956 129.08 109.532 129.08H120.524V131.672H109.604C109.444 131.672 109.3 131.736 109.172 131.864C109.06 131.976 109.004 132.112 109.004 132.272V139.808C109.004 139.968 109.06 140.112 109.172 140.24C109.3 140.352 109.444 140.408 109.604 140.408H120.572V143H109.532ZM122.632 143V124.52H125.224V134.744H128.344L133.552 129.08H136.528V129.56L130.648 136.04L136.528 142.52V143H133.552L128.344 137.336H125.224V143H122.632Z" fill="#A2A2A2"/>
<path d="M28.38 142.592L27.8526 143.442L27.8696 143.452L27.887 143.462L28.38 142.592ZM27.252 141.464L26.382 141.957L26.3918 141.974L26.4024 141.991L27.252 141.464ZM27.252 127.28L26.3945 126.765L26.3893 126.774L27.252 127.28ZM28.38 126.152L28.8857 127.015L28.8945 127.009L28.38 126.152ZM42.564 126.152L42.0495 127.009L42.0602 127.016L42.071 127.022L42.564 126.152ZM43.692 127.28L42.822 127.773L42.8318 127.79L42.8424 127.807L43.692 127.28ZM44.124 129.872V130.872H45.124V129.872H44.124ZM41.508 129.872H40.508V130.872H41.508V129.872ZM41.34 128.504L40.5874 129.163L40.6093 129.188L40.6329 129.211L41.34 128.504ZM29.604 128.504L28.8969 127.797L28.8969 127.797L29.604 128.504ZM29.604 140.24L28.8514 140.899L28.8953 140.949L28.9455 140.993L29.604 140.24ZM41.34 140.24L42.0471 140.947L42.0707 140.924L42.0926 140.899L41.34 140.24ZM41.508 136.136H42.508V135.136H41.508V136.136ZM37.428 136.136H36.428V137.136H37.428V136.136ZM37.428 133.52V132.52H36.428V133.52H37.428ZM44.124 133.52H45.124V132.52H44.124V133.52ZM43.692 141.464L42.8345 140.949L42.8293 140.958L43.692 141.464ZM42.564 142.592L43.057 143.462L43.0678 143.456L43.0785 143.449L42.564 142.592ZM29.964 142C29.5529 142 29.1959 141.905 28.873 141.722L27.887 143.462C28.5241 143.823 29.2231 144 29.964 144V142ZM28.9074 141.742C28.5742 141.536 28.3085 141.27 28.1016 140.937L26.4024 141.991C26.7715 142.586 27.2578 143.072 27.8526 143.442L28.9074 141.742ZM28.122 140.971C27.939 140.648 27.844 140.291 27.844 139.88H25.844C25.844 140.621 26.021 141.32 26.382 141.957L28.122 140.971ZM27.844 139.88V128.84H25.844V139.88H27.844ZM27.844 128.84C27.844 128.429 27.939 128.085 28.1147 127.786L26.3893 126.774C26.021 127.403 25.844 128.099 25.844 128.84H27.844ZM28.1095 127.794C28.3149 127.452 28.5723 127.198 28.8857 127.015L27.8743 125.289C27.2597 125.65 26.7651 126.148 26.3945 126.766L28.1095 127.794ZM28.8945 127.009C29.2144 126.818 29.5637 126.72 29.964 126.72V124.72C29.2123 124.72 28.5056 124.91 27.8655 125.295L28.8945 127.009ZM29.964 126.72H40.98V124.72H29.964V126.72ZM40.98 126.72C41.3803 126.72 41.7296 126.818 42.0495 127.009L43.0785 125.295C42.4384 124.91 41.7317 124.72 40.98 124.72V126.72ZM42.071 127.022C42.3935 127.205 42.6392 127.45 42.822 127.773L44.562 126.787C44.2008 126.15 43.6945 125.643 43.057 125.282L42.071 127.022ZM42.8424 127.807C43.0266 128.104 43.124 128.44 43.124 128.84H45.124C45.124 128.088 44.9334 127.384 44.5416 126.753L42.8424 127.807ZM43.124 128.84V129.872H45.124V128.84H43.124ZM44.124 128.872H41.508V130.872H44.124V128.872ZM42.508 129.872V128.912H40.508V129.872H42.508ZM42.508 128.912C42.508 128.49 42.3488 128.099 42.0471 127.797L40.6329 129.211C40.6028 129.181 40.5674 129.134 40.5413 129.071C40.5154 129.008 40.508 128.951 40.508 128.912H42.508ZM42.0926 127.845C41.8043 127.516 41.4003 127.312 40.932 127.312V129.312C40.8745 129.312 40.8019 129.299 40.7282 129.265C40.6561 129.231 40.6103 129.189 40.5874 129.163L42.0926 127.845ZM40.932 127.312H30.036V129.312H40.932V127.312ZM30.036 127.312C29.5751 127.312 29.1856 127.508 28.8969 127.797L30.3111 129.211C30.3011 129.221 30.2697 129.249 30.2141 129.274C30.1563 129.3 30.0937 129.312 30.036 129.312V127.312ZM28.8969 127.797C28.5952 128.099 28.436 128.49 28.436 128.912H30.436C30.436 128.951 30.4286 129.008 30.4027 129.071C30.3766 129.134 30.3412 129.181 30.3111 129.211L28.8969 127.797ZM28.436 128.912V139.808H30.436V128.912H28.436ZM28.436 139.808C28.436 140.226 28.5908 140.601 28.8514 140.899L30.3566 139.581C30.3694 139.596 30.3918 139.627 30.41 139.674C30.4285 139.721 30.436 139.768 30.436 139.808H28.436ZM28.9455 140.993C29.2433 141.253 29.6177 141.408 30.036 141.408V139.408C30.0755 139.408 30.1228 139.415 30.1704 139.434C30.2172 139.452 30.2478 139.475 30.2625 139.487L28.9455 140.993ZM30.036 141.408H40.932V139.408H30.036V141.408ZM40.932 141.408C41.3542 141.408 41.7454 141.249 42.0471 140.947L40.6329 139.533C40.663 139.503 40.71 139.467 40.7733 139.441C40.8363 139.415 40.8929 139.408 40.932 139.408V141.408ZM42.0926 140.899C42.3532 140.601 42.508 140.226 42.508 139.808H40.508C40.508 139.768 40.5155 139.721 40.534 139.674C40.5522 139.627 40.5746 139.596 40.5874 139.581L42.0926 140.899ZM42.508 139.808V136.136H40.508V139.808H42.508ZM41.508 135.136H37.428V137.136H41.508V135.136ZM38.428 136.136V133.52H36.428V136.136H38.428ZM37.428 134.52H44.124V132.52H37.428V134.52ZM43.124 133.52V139.88H45.124V133.52H43.124ZM43.124 139.88C43.124 140.28 43.0265 140.63 42.8345 140.95L44.5495 141.978C44.9335 141.338 45.124 140.632 45.124 139.88H43.124ZM42.8293 140.958C42.6456 141.272 42.3919 141.529 42.0495 141.735L43.0785 143.449C43.6961 143.079 44.1944 142.584 44.5547 141.97L42.8293 140.958ZM42.071 141.722C41.7481 141.905 41.3911 142 40.98 142V144C41.7209 144 42.4199 143.823 43.057 143.462L42.071 141.722ZM40.98 142H29.964V144H40.98V142ZM48.2059 142.568L47.6785 143.418L47.6785 143.418L48.2059 142.568ZM47.0779 141.44L47.9275 140.913L47.9275 140.913L47.0779 141.44ZM47.0779 130.64L46.2282 130.113L46.2282 130.113L47.0779 130.64ZM48.2059 129.512L47.6785 128.662L47.6785 128.662L48.2059 129.512ZM59.2459 129.512L58.7185 130.362L58.7355 130.372L58.7529 130.382L59.2459 129.512ZM60.3739 130.64L59.5039 131.133L59.51 131.144L59.5164 131.154L60.3739 130.64ZM60.3739 141.44L59.5242 140.913L59.5176 140.923L59.5112 140.934L60.3739 141.44ZM59.2459 142.568L58.7314 141.711L58.7249 141.714L58.7185 141.718L59.2459 142.568ZM58.0219 140.24L58.729 140.947L58.7525 140.924L58.7745 140.899L58.0219 140.24ZM58.0219 131.864L57.2693 132.523L57.2912 132.548L57.3148 132.571L58.0219 131.864ZM49.4059 131.864L50.113 132.571L50.113 132.571L49.4059 131.864ZM49.4059 140.24L48.6533 140.899L48.6972 140.949L48.7474 140.993L49.4059 140.24ZM49.7659 142C49.3656 142 49.0301 141.903 48.7332 141.718L47.6785 143.418C48.3097 143.809 49.0142 144 49.7659 144V142ZM48.7332 141.718C48.4 141.512 48.1343 141.246 47.9275 140.913L46.2282 141.967C46.5974 142.562 47.0837 143.048 47.6785 143.418L48.7332 141.718ZM47.9275 140.913C47.7433 140.616 47.6459 140.28 47.6459 139.88H45.6459C45.6459 140.632 45.8365 141.336 46.2282 141.967L47.9275 140.913ZM47.6459 139.88V132.2H45.6459V139.88H47.6459ZM47.6459 132.2C47.6459 131.8 47.7433 131.464 47.9275 131.167L46.2282 130.113C45.8365 130.744 45.6459 131.448 45.6459 132.2H47.6459ZM47.9275 131.167C48.1343 130.834 48.4 130.568 48.7332 130.362L47.6785 128.662C47.0837 129.032 46.5974 129.518 46.2282 130.113L47.9275 131.167ZM48.7332 130.362C49.0301 130.177 49.3656 130.08 49.7659 130.08V128.08C49.0142 128.08 48.3097 128.271 47.6785 128.662L48.7332 130.362ZM49.7659 130.08H57.6859V128.08H49.7659V130.08ZM57.6859 130.08C58.0862 130.08 58.4217 130.177 58.7185 130.362L59.7732 128.662C59.1421 128.271 58.4376 128.08 57.6859 128.08V130.08ZM58.7529 130.382C59.0754 130.565 59.3211 130.81 59.5039 131.133L61.2439 130.147C60.8827 129.51 60.3764 129.003 59.7389 128.642L58.7529 130.382ZM59.5164 131.154C59.7111 131.479 59.8059 131.821 59.8059 132.2H61.8059C61.8059 131.459 61.6127 130.761 61.2314 130.126L59.5164 131.154ZM59.8059 132.2V139.88H61.8059V132.2H59.8059ZM59.8059 139.88C59.8059 140.28 59.7085 140.616 59.5242 140.913L61.2235 141.967C61.6153 141.336 61.8059 140.632 61.8059 139.88H59.8059ZM59.5112 140.934C59.3274 141.248 59.0737 141.505 58.7314 141.711L59.7604 143.425C60.378 143.055 60.8763 142.56 61.2366 141.946L59.5112 140.934ZM58.7185 141.718C58.4217 141.903 58.0862 142 57.6859 142V144C58.4376 144 59.1421 143.809 59.7732 143.418L58.7185 141.718ZM57.6859 142H49.7659V144H57.6859V142ZM49.8379 141.408H57.6139V139.408H49.8379V141.408ZM57.6139 141.408C58.0361 141.408 58.4273 141.249 58.729 140.947L57.3148 139.533C57.3449 139.503 57.3919 139.467 57.4551 139.441C57.5181 139.415 57.5748 139.408 57.6139 139.408V141.408ZM58.7745 140.899C59.035 140.601 59.1899 140.226 59.1899 139.808H57.1899C57.1899 139.768 57.1973 139.721 57.2159 139.674C57.2341 139.627 57.2564 139.596 57.2693 139.581L58.7745 140.899ZM59.1899 139.808V132.272H57.1899V139.808H59.1899ZM59.1899 132.272C59.1899 131.85 59.0306 131.459 58.729 131.157L57.3148 132.571C57.2847 132.541 57.2492 132.494 57.2232 132.431C57.1972 132.368 57.1899 132.311 57.1899 132.272H59.1899ZM58.7745 131.205C58.4861 130.876 58.0822 130.672 57.6139 130.672V132.672C57.5564 132.672 57.4838 132.659 57.4101 132.625C57.3379 132.591 57.2922 132.549 57.2693 132.523L58.7745 131.205ZM57.6139 130.672H49.8379V132.672H57.6139V130.672ZM49.8379 130.672C49.377 130.672 48.9875 130.868 48.6988 131.157L50.113 132.571C50.1029 132.581 50.0715 132.609 50.016 132.634C49.9582 132.66 49.8956 132.672 49.8379 132.672V130.672ZM48.6988 131.157C48.3971 131.459 48.2379 131.85 48.2379 132.272H50.2379C50.2379 132.311 50.2305 132.368 50.2046 132.431C50.1785 132.494 50.1431 132.541 50.113 132.571L48.6988 131.157ZM48.2379 132.272V139.808H50.2379V132.272H48.2379ZM48.2379 139.808C48.2379 140.226 48.3927 140.601 48.6533 140.899L50.1585 139.581C50.1713 139.596 50.1937 139.627 50.2119 139.674C50.2304 139.721 50.2379 139.768 50.2379 139.808H48.2379ZM48.7474 140.993C49.0452 141.253 49.4196 141.408 49.8379 141.408V139.408C49.8774 139.408 49.9247 139.415 49.9723 139.434C50.0191 139.452 50.0497 139.475 50.0644 139.487L48.7474 140.993ZM70.416 143H69.416V144H70.416V143ZM70.416 125.72V124.72H69.416V125.72H70.416ZM85.416 126.152L84.9015 127.009L84.9122 127.016L84.923 127.022L85.416 126.152ZM86.544 127.28L85.674 127.773L85.6838 127.79L85.6944 127.807L86.544 127.28ZM86.904 132.992L85.9296 132.767L85.9213 132.803L85.9156 132.84L86.904 132.992ZM86.712 133.568L85.8341 133.089L85.534 133.639L85.8983 134.149L86.712 133.568ZM87.432 134.84L86.5035 135.211L86.5127 135.234L86.5229 135.257L87.432 134.84ZM87.264 141.464L86.4065 140.949L86.4013 140.958L87.264 141.464ZM86.136 142.592L86.629 143.462L86.6398 143.456L86.6505 143.449L86.136 142.592ZM84.912 140.24L85.6191 140.947L85.6427 140.924L85.6646 140.899L84.912 140.24ZM84.912 135.68L84.1594 136.339L84.1813 136.364L84.2049 136.387L84.912 135.68ZM73.176 135.68L73.8831 136.387L73.8831 136.387L73.176 135.68ZM73.176 140.24L72.4234 140.899L72.4673 140.949L72.5175 140.993L73.176 140.24ZM84.192 132.728L84.8991 133.435L84.9227 133.412L84.9446 133.387L84.192 132.728ZM84.192 128.504L83.4394 129.163L83.4613 129.188L83.4849 129.211L84.192 128.504ZM73.176 128.504L72.4689 127.797L72.4689 127.797L73.176 128.504ZM73.176 132.728L72.4234 133.387L72.4673 133.437L72.5175 133.481L73.176 132.728ZM71.416 143V125.72H69.416V143H71.416ZM70.416 126.72H83.856V124.72H70.416V126.72ZM83.856 126.72C84.2348 126.72 84.577 126.815 84.9015 127.009L85.9305 125.295C85.295 124.913 84.5972 124.72 83.856 124.72V126.72ZM84.923 127.022C85.2455 127.205 85.4912 127.45 85.674 127.773L87.414 126.787C87.0528 126.15 86.5465 125.643 85.909 125.282L84.923 127.022ZM85.6944 127.807C85.8786 128.104 85.976 128.44 85.976 128.84H87.976C87.976 128.088 87.7854 127.384 87.3936 126.753L85.6944 127.807ZM85.976 128.84V132.368H87.976V128.84H85.976ZM85.976 132.368C85.976 132.498 85.961 132.631 85.9296 132.767L87.8784 133.217C87.943 132.937 87.976 132.654 87.976 132.368H85.976ZM85.9156 132.84C85.9004 132.939 85.8719 133.02 85.8341 133.089L87.5899 134.047C87.7441 133.764 87.8436 133.461 87.8924 133.144L85.9156 132.84ZM85.8983 134.149C86.1839 134.549 86.3801 134.903 86.5035 135.211L88.3605 134.469C88.1639 133.977 87.8801 133.483 87.5257 132.987L85.8983 134.149ZM86.5229 135.257C86.6424 135.517 86.696 135.768 86.696 136.016H88.696C88.696 135.464 88.5736 134.931 88.3411 134.423L86.5229 135.257ZM86.696 136.016V139.88H88.696V136.016H86.696ZM86.696 139.88C86.696 140.28 86.5985 140.63 86.4065 140.95L88.1215 141.978C88.5055 141.338 88.696 140.632 88.696 139.88H86.696ZM86.4013 140.958C86.2176 141.272 85.9639 141.529 85.6215 141.735L86.6505 143.449C87.2681 143.079 87.7664 142.584 88.1267 141.97L86.4013 140.958ZM85.643 141.722C85.3201 141.905 84.9631 142 84.552 142V144C85.2929 144 85.9919 143.823 86.629 143.462L85.643 141.722ZM84.552 142H70.416V144H84.552V142ZM73.608 141.408H84.504V139.408H73.608V141.408ZM84.504 141.408C84.9262 141.408 85.3174 141.249 85.6191 140.947L84.2049 139.533C84.235 139.503 84.282 139.467 84.3453 139.441C84.4083 139.415 84.4649 139.408 84.504 139.408V141.408ZM85.6646 140.899C85.9252 140.601 86.08 140.226 86.08 139.808H84.08C84.08 139.768 84.0875 139.721 84.106 139.674C84.1242 139.627 84.1466 139.596 84.1594 139.581L85.6646 140.899ZM86.08 139.808V136.088H84.08V139.808H86.08ZM86.08 136.088C86.08 135.666 85.9208 135.275 85.6191 134.973L84.2049 136.387C84.1748 136.357 84.1394 136.31 84.1133 136.247C84.0874 136.184 84.08 136.127 84.08 136.088H86.08ZM85.6646 135.021C85.3763 134.692 84.9723 134.488 84.504 134.488V136.488C84.4465 136.488 84.3739 136.475 84.3002 136.441C84.2281 136.407 84.1823 136.365 84.1594 136.339L85.6646 135.021ZM84.504 134.488H73.608V136.488H84.504V134.488ZM73.608 134.488C73.1471 134.488 72.7576 134.684 72.4689 134.973L73.8831 136.387C73.8731 136.397 73.8417 136.425 73.7861 136.45C73.7283 136.476 73.6657 136.488 73.608 136.488V134.488ZM72.4689 134.973C72.1672 135.275 72.008 135.666 72.008 136.088H74.008C74.008 136.127 74.0006 136.184 73.9747 136.247C73.9486 136.31 73.9132 136.357 73.8831 136.387L72.4689 134.973ZM72.008 136.088V139.808H74.008V136.088H72.008ZM72.008 139.808C72.008 140.226 72.1628 140.601 72.4234 140.899L73.9286 139.581C73.9414 139.596 73.9638 139.627 73.982 139.674C74.0005 139.721 74.008 139.768 74.008 139.808H72.008ZM72.5175 140.993C72.8153 141.253 73.1897 141.408 73.608 141.408V139.408C73.6475 139.408 73.6948 139.415 73.7424 139.434C73.7892 139.452 73.8198 139.475 73.8345 139.487L72.5175 140.993ZM73.608 133.896H83.784V131.896H73.608V133.896ZM83.784 133.896C84.2062 133.896 84.5974 133.737 84.8991 133.435L83.4849 132.021C83.515 131.991 83.562 131.955 83.6253 131.929C83.6883 131.903 83.7449 131.896 83.784 131.896V133.896ZM84.9446 133.387C85.2052 133.089 85.36 132.714 85.36 132.296H83.36C83.36 132.256 83.3675 132.209 83.386 132.162C83.4042 132.115 83.4266 132.084 83.4394 132.069L84.9446 133.387ZM85.36 132.296V128.912H83.36V132.296H85.36ZM85.36 128.912C85.36 128.49 85.2008 128.099 84.8991 127.797L83.4849 129.211C83.4548 129.181 83.4194 129.134 83.3933 129.071C83.3674 129.008 83.36 128.951 83.36 128.912H85.36ZM84.9446 127.845C84.6563 127.516 84.2523 127.312 83.784 127.312V129.312C83.7265 129.312 83.6539 129.299 83.5802 129.265C83.5081 129.231 83.4623 129.189 83.4394 129.163L84.9446 127.845ZM83.784 127.312H73.608V129.312H83.784V127.312ZM73.608 127.312C73.1471 127.312 72.7576 127.508 72.4689 127.797L73.8831 129.211C73.8731 129.221 73.8417 129.249 73.7861 129.274C73.7283 129.3 73.6657 129.312 73.608 129.312V127.312ZM72.4689 127.797C72.1672 128.099 72.008 128.49 72.008 128.912H74.008C74.008 128.951 74.0006 129.008 73.9747 129.071C73.9486 129.134 73.9132 129.181 73.8831 129.211L72.4689 127.797ZM72.008 128.912V132.296H74.008V128.912H72.008ZM72.008 132.296C72.008 132.714 72.1628 133.089 72.4234 133.387L73.9286 132.069C73.9414 132.084 73.9638 132.115 73.982 132.162C74.0005 132.209 74.008 132.256 74.008 132.296H72.008ZM72.5175 133.481C72.8153 133.741 73.1897 133.896 73.608 133.896V131.896C73.6475 131.896 73.6948 131.903 73.7424 131.922C73.7892 131.94 73.8198 131.963 73.8345 131.975L72.5175 133.481ZM91.7528 142.568L91.2254 143.418L91.2318 143.422L91.2383 143.425L91.7528 142.568ZM90.6248 141.44L89.7621 141.946L89.7684 141.957L89.7751 141.967L90.6248 141.44ZM90.2168 134.744V133.744H89.2168V134.744H90.2168ZM101.761 134.744V135.744H102.761V134.744H101.761ZM101.593 131.864L100.84 132.523L100.862 132.548L100.886 132.571L101.593 131.864ZM90.2168 131.672H89.2168V132.672H90.2168V131.672ZM90.2168 129.08V128.08H89.2168V129.08H90.2168ZM102.817 129.512L102.289 130.362L102.306 130.372L102.324 130.382L102.817 129.512ZM103.945 130.64L103.075 131.133L103.081 131.144L103.087 131.154L103.945 130.64ZM104.377 143V144H105.377V143H104.377ZM101.761 140.408V141.408H102.761V140.408H101.761ZM101.761 137.168H102.761V136.168H101.761V137.168ZM92.8088 137.168V136.168H91.8088V137.168H92.8088ZM92.9768 140.24L92.2242 140.899L92.2681 140.949L92.3182 140.993L92.9768 140.24ZM93.3368 142C92.9365 142 92.5872 141.902 92.2672 141.711L91.2383 143.425C91.8783 143.81 92.585 144 93.3368 144V142ZM92.2801 141.718C91.9469 141.512 91.6812 141.246 91.4744 140.913L89.7751 141.967C90.1443 142.562 90.6306 143.048 91.2254 143.418L92.2801 141.718ZM91.4874 140.934C91.3117 140.635 91.2168 140.291 91.2168 139.88H89.2168C89.2168 140.621 89.3938 141.317 89.7621 141.946L91.4874 140.934ZM91.2168 139.88V134.744H89.2168V139.88H91.2168ZM90.2168 135.744H101.761V133.744H90.2168V135.744ZM102.761 134.744V132.272H100.761V134.744H102.761ZM102.761 132.272C102.761 131.85 102.602 131.459 102.3 131.157L100.886 132.571C100.856 132.541 100.82 132.494 100.794 132.431C100.768 132.368 100.761 132.311 100.761 132.272H102.761ZM102.345 131.205C102.057 130.876 101.653 130.672 101.185 130.672V132.672C101.127 132.672 101.055 132.659 100.981 132.625C100.909 132.591 100.863 132.549 100.84 132.523L102.345 131.205ZM101.185 130.672H90.2168V132.672H101.185V130.672ZM91.2168 131.672V129.08H89.2168V131.672H91.2168ZM90.2168 130.08H101.257V128.08H90.2168V130.08ZM101.257 130.08C101.657 130.08 101.993 130.177 102.289 130.362L103.344 128.662C102.713 128.271 102.008 128.08 101.257 128.08V130.08ZM102.324 130.382C102.646 130.565 102.892 130.81 103.075 131.133L104.815 130.147C104.454 129.51 103.947 129.003 103.31 128.642L102.324 130.382ZM103.087 131.154C103.282 131.479 103.377 131.821 103.377 132.2H105.377C105.377 131.459 105.184 130.761 104.802 130.126L103.087 131.154ZM103.377 132.2V143H105.377V132.2H103.377ZM104.377 142H93.3368V144H104.377V142ZM93.4088 141.408H101.761V139.408H93.4088V141.408ZM102.761 140.408V137.168H100.761V140.408H102.761ZM101.761 136.168H92.8088V138.168H101.761V136.168ZM91.8088 137.168V139.808H93.8088V137.168H91.8088ZM91.8088 139.808C91.8088 140.226 91.9636 140.601 92.2242 140.899L93.7293 139.581C93.7422 139.596 93.7646 139.627 93.7828 139.674C93.8013 139.721 93.8088 139.768 93.8088 139.808H91.8088ZM92.3182 140.993C92.616 141.253 92.9904 141.408 93.4088 141.408V139.408C93.4483 139.408 93.4955 139.415 93.5432 139.434C93.5899 139.452 93.6205 139.475 93.6353 139.487L92.3182 140.993ZM107.972 142.568L107.444 143.418L107.444 143.418L107.972 142.568ZM106.844 141.44L107.693 140.913L107.693 140.913L106.844 141.44ZM106.844 130.64L105.994 130.113L105.994 130.113L106.844 130.64ZM107.972 129.512L107.444 128.662L107.444 128.662L107.972 129.512ZM120.524 129.08H121.524V128.08H120.524V129.08ZM120.524 131.672V132.672H121.524V131.672H120.524ZM109.172 131.864L109.879 132.571L109.879 132.571L109.172 131.864ZM109.172 140.24L108.419 140.899L108.463 140.949L108.513 140.993L109.172 140.24ZM120.572 140.408H121.572V139.408H120.572V140.408ZM120.572 143V144H121.572V143H120.572ZM109.532 142C109.131 142 108.796 141.903 108.499 141.718L107.444 143.418C108.075 143.809 108.78 144 109.532 144V142ZM108.499 141.718C108.166 141.512 107.9 141.246 107.693 140.913L105.994 141.967C106.363 142.562 106.849 143.048 107.444 143.418L108.499 141.718ZM107.693 140.913C107.509 140.616 107.412 140.28 107.412 139.88H105.412C105.412 140.632 105.602 141.336 105.994 141.967L107.693 140.913ZM107.412 139.88V132.2H105.412V139.88H107.412ZM107.412 132.2C107.412 131.8 107.509 131.464 107.693 131.167L105.994 130.113C105.602 130.744 105.412 131.448 105.412 132.2H107.412ZM107.693 131.167C107.9 130.834 108.166 130.568 108.499 130.362L107.444 128.662C106.849 129.032 106.363 129.518 105.994 130.113L107.693 131.167ZM108.499 130.362C108.796 130.177 109.131 130.08 109.532 130.08V128.08C108.78 128.08 108.075 128.271 107.444 128.662L108.499 130.362ZM109.532 130.08H120.524V128.08H109.532V130.08ZM119.524 129.08V131.672H121.524V129.08H119.524ZM120.524 130.672H109.604V132.672H120.524V130.672ZM109.604 130.672C109.143 130.672 108.753 130.868 108.464 131.157L109.879 132.571C109.869 132.581 109.837 132.609 109.782 132.634C109.724 132.66 109.661 132.672 109.604 132.672V130.672ZM108.464 131.157C108.163 131.459 108.004 131.85 108.004 132.272H110.004C110.004 132.311 109.996 132.368 109.97 132.431C109.944 132.494 109.909 132.541 109.879 132.571L108.464 131.157ZM108.004 132.272V139.808H110.004V132.272H108.004ZM108.004 139.808C108.004 140.226 108.158 140.601 108.419 140.899L109.924 139.581C109.937 139.596 109.959 139.627 109.978 139.674C109.996 139.721 110.004 139.768 110.004 139.808H108.004ZM108.513 140.993C108.811 141.253 109.185 141.408 109.604 141.408V139.408C109.643 139.408 109.69 139.415 109.738 139.434C109.785 139.452 109.815 139.475 109.83 139.487L108.513 140.993ZM109.604 141.408H120.572V139.408H109.604V141.408ZM119.572 140.408V143H121.572V140.408H119.572ZM120.572 142H109.532V144H120.572V142ZM122.632 143H121.632V144H122.632V143ZM122.632 124.52V123.52H121.632V124.52H122.632ZM125.224 124.52H126.224V123.52H125.224V124.52ZM125.224 134.744H124.224V135.744H125.224V134.744ZM128.344 134.744V135.744H128.783L129.08 135.421L128.344 134.744ZM133.552 129.08V128.08H133.113L132.816 128.403L133.552 129.08ZM136.528 129.08H137.528V128.08H136.528V129.08ZM136.528 129.56L137.268 130.232L137.528 129.946V129.56H136.528ZM130.648 136.04L129.907 135.368L129.298 136.04L129.907 136.712L130.648 136.04ZM136.528 142.52H137.528V142.134L137.268 141.848L136.528 142.52ZM136.528 143V144H137.528V143H136.528ZM133.552 143L132.816 143.677L133.113 144H133.552V143ZM128.344 137.336L129.08 136.659L128.783 136.336H128.344V137.336ZM125.224 137.336V136.336H124.224V137.336H125.224ZM125.224 143V144H126.224V143H125.224ZM123.632 143V124.52H121.632V143H123.632ZM122.632 125.52H125.224V123.52H122.632V125.52ZM124.224 124.52V134.744H126.224V124.52H124.224ZM125.224 135.744H128.344V133.744H125.224V135.744ZM129.08 135.421L134.288 129.757L132.816 128.403L127.608 134.067L129.08 135.421ZM133.552 130.08H136.528V128.08H133.552V130.08ZM135.528 129.08V129.56H137.528V129.08H135.528ZM135.787 128.888L129.907 135.368L131.388 136.712L137.268 130.232L135.787 128.888ZM129.907 136.712L135.787 143.192L137.268 141.848L131.388 135.368L129.907 136.712ZM135.528 142.52V143H137.528V142.52H135.528ZM136.528 142H133.552V144H136.528V142ZM134.288 142.323L129.08 136.659L127.608 138.013L132.816 143.677L134.288 142.323ZM128.344 136.336H125.224V138.336H128.344V136.336ZM124.224 137.336V143H126.224V137.336H124.224ZM125.224 142H122.632V144H125.224V142Z" fill="#FF9029"/>
<defs>
<filter id="filter0_d_885_7224" x="0.477783" y="0.497559" width="159.05" height="145.161" filterUnits="userSpaceOnUse" color-interpolation-filters="sRGB">
<feFlood flood-opacity="0" result="BackgroundImageFix"/>
<feColorMatrix in="SourceAlpha" type="matrix" values="0 0 0 0 0 0 0 0 0 0 0 0 0 0 0 0 0 0 127 0" result="hardAlpha"/>
<feOffset dy="4"/>
<feGaussianBlur stdDeviation="2"/>
<feComposite in2="hardAlpha" operator="out"/>
<feColorMatrix type="matrix" values="0 0 0 0 0 0 0 0 0 0 0 0 0 0 0 0 0 0 0.25 0"/>
<feBlend mode="normal" in2="BackgroundImageFix" result="effect1_dropShadow_885_7224"/>
<feBlend mode="normal" in="SourceGraphic" in2="effect1_dropShadow_885_7224" result="shape"/>
</filter>
<filter id="filter1_di_885_7224" x="5.5" y="107" width="151.091" height="57" filterUnits="userSpaceOnUse" color-interpolation-filters="sRGB">
<feFlood flood-opacity="0" result="BackgroundImageFix"/>
<feColorMatrix in="SourceAlpha" type="matrix" values="0 0 0 0 0 0 0 0 0 0 0 0 0 0 0 0 0 0 127 0" result="hardAlpha"/>
<feOffset dy="2"/>
<feGaussianBlur stdDeviation="3"/>
<feComposite in2="hardAlpha" operator="out"/>
<feColorMatrix type="matrix" values="0 0 0 0 0.7875 0 0 0 0 0.485748 0 0 0 0 0 0 0 0 1 0"/>
<feBlend mode="normal" in2="BackgroundImageFix" result="effect1_dropShadow_885_7224"/>
<feBlend mode="normal" in="SourceGraphic" in2="effect1_dropShadow_885_7224" result="shape"/>
<feColorMatrix in="SourceAlpha" type="matrix" values="0 0 0 0 0 0 0 0 0 0 0 0 0 0 0 0 0 0 127 0" result="hardAlpha"/>
<feOffset dy="4"/>
<feGaussianBlur stdDeviation="2"/>
<feComposite in2="hardAlpha" operator="arithmetic" k2="-1" k3="1"/>
<feColorMatrix type="matrix" values="0 0 0 0 1 0 0 0 0 0.990506 0 0 0 0 0.8125 0 0 0 1 0"/>
<feBlend mode="normal" in2="shape" result="effect2_innerShadow_885_7224"/>
</filter>
</defs>
</svg>
