<svg width="374" height="83" viewBox="0 0 374 83" fill="none" xmlns="http://www.w3.org/2000/svg">
<g filter="url(#filter0_i_894_7445)">
<path d="M288.721 10.0884L370.332 33.4751L374 52.2762L370.332 60.9889L356.119 69.2431L346.491 80.2486L335.487 83H303.393L280.01 80.2486L245.165 77.0387H151.633L81.943 80.2486H38.8451L24.1735 69.2431L4 60.9889L0.5 36.5L12 22L38.8451 3.66851L60.3941 0L78.2751 3.66851L119.998 10.0884H145.673L178.226 0H211.237L288.721 10.0884Z" fill="#A06456"/>
</g>
<path d="M11.016 58V32.116H32.22C33.084 32.116 33.876 32.332 34.596 32.764C35.316 33.196 35.88 33.772 36.288 34.492C36.72 35.188 36.936 35.956 36.936 36.796V44.068C36.936 44.932 36.72 45.724 36.288 46.444C35.88 47.14 35.316 47.704 34.596 48.136C33.876 48.544 33.084 48.748 32.22 48.748L14.904 48.784V58H11.016ZM15.804 44.824H32.148C32.388 44.824 32.592 44.74 32.76 44.572C32.928 44.404 33.012 44.2 33.012 43.96V36.904C33.012 36.664 32.928 36.46 32.76 36.292C32.592 36.1 32.388 36.004 32.148 36.004H15.804C15.564 36.004 15.348 36.1 15.156 36.292C14.988 36.46 14.904 36.664 14.904 36.904V43.96C14.904 44.2 14.988 44.404 15.156 44.572C15.348 44.74 15.564 44.824 15.804 44.824ZM39.3486 58V37.12H43.2366V58H39.3486ZM39.3486 34.168V30.28H43.2366V34.168H39.3486ZM51.9027 58C51.0387 58 50.2587 57.784 49.5627 57.352C48.8667 56.92 48.3027 56.356 47.8707 55.66C47.4387 54.964 47.2227 54.184 47.2227 53.32V41.8C47.2227 40.936 47.4387 40.156 47.8707 39.46C48.3027 38.764 48.8667 38.2 49.5627 37.768C50.2587 37.336 51.0387 37.12 51.9027 37.12H63.7827C64.6467 37.12 65.4267 37.336 66.1227 37.768C66.8427 38.176 67.4067 38.74 67.8147 39.46C68.2467 40.18 68.4627 40.96 68.4627 41.8V49.504H51.1107V53.212C51.1107 53.452 51.1947 53.668 51.3627 53.86C51.5547 54.028 51.7707 54.112 52.0107 54.112H68.4627V58H51.9027ZM51.1107 45.868H64.5387V41.908C64.5387 41.668 64.4547 41.464 64.2867 41.296C64.1187 41.104 63.9147 41.008 63.6747 41.008H52.0107C51.7707 41.008 51.5547 41.104 51.3627 41.296C51.1947 41.464 51.1107 41.668 51.1107 41.908V45.868ZM76.0551 58C75.1911 58 74.4111 57.784 73.7151 57.352C73.0191 56.92 72.4551 56.356 72.0231 55.66C71.5911 54.964 71.3751 54.184 71.3751 53.32V41.8C71.3751 40.936 71.5911 40.156 72.0231 39.46C72.4551 38.764 73.0191 38.2 73.7151 37.768C74.4111 37.336 75.1911 37.12 76.0551 37.12H92.5431V41.008H76.1631C75.9231 41.008 75.7071 41.104 75.5151 41.296C75.3471 41.464 75.2631 41.668 75.2631 41.908V53.212C75.2631 53.452 75.3471 53.668 75.5151 53.86C75.7071 54.028 75.9231 54.112 76.1631 54.112H92.6151V58H76.0551ZM96.4423 58V37.12H100.33V58H96.4423ZM96.4423 34.168V30.28H100.33V34.168H96.4423ZM104.495 58V37.12H121.055C121.919 37.12 122.699 37.336 123.395 37.768C124.115 38.2 124.679 38.764 125.087 39.46C125.519 40.156 125.735 40.936 125.735 41.8V58H121.847V41.908C121.847 41.668 121.751 41.464 121.559 41.296C121.391 41.104 121.187 41.008 120.947 41.008H109.283C109.043 41.008 108.827 41.104 108.635 41.296C108.467 41.464 108.383 41.668 108.383 41.908V58H104.495ZM132.625 66.244V62.32H145.405C145.645 62.32 145.849 62.224 146.017 62.032C146.209 61.864 146.305 61.66 146.305 61.42V58H133.633C132.793 58 132.013 57.796 131.293 57.388C130.573 56.956 129.997 56.38 129.565 55.66C129.157 54.94 128.953 54.16 128.953 53.32V41.8C128.953 40.936 129.169 40.156 129.601 39.46C130.033 38.764 130.597 38.2 131.293 37.768C132.013 37.336 132.793 37.12 133.633 37.12H145.513C146.377 37.12 147.157 37.336 147.853 37.768C148.573 38.2 149.137 38.764 149.545 39.46C149.977 40.156 150.193 40.936 150.193 41.8V61.564C150.193 62.428 149.977 63.208 149.545 63.904C149.137 64.624 148.573 65.188 147.853 65.596C147.157 66.028 146.377 66.244 145.513 66.244H132.625ZM133.741 54.112H145.405C145.645 54.112 145.849 54.028 146.017 53.86C146.209 53.668 146.305 53.452 146.305 53.212V41.908C146.305 41.668 146.209 41.464 146.017 41.296C145.849 41.104 145.645 41.008 145.405 41.008H133.741C133.501 41.008 133.285 41.104 133.093 41.296C132.925 41.464 132.841 41.668 132.841 41.908V53.212C132.841 53.452 132.925 53.668 133.093 53.86C133.285 54.028 133.501 54.112 133.741 54.112ZM173.184 58L163.752 32.08H167.892L174.768 50.944L181.644 32.08H185.748L192.66 50.944L199.5 32.08H203.676L194.244 58H191.04L183.696 37.84L176.352 58H173.184ZM210 58C209.136 58 208.356 57.784 207.66 57.352C206.964 56.92 206.4 56.356 205.968 55.66C205.536 54.964 205.32 54.184 205.32 53.32V41.8C205.32 40.936 205.536 40.156 205.968 39.46C206.4 38.764 206.964 38.2 207.66 37.768C208.356 37.336 209.136 37.12 210 37.12H221.88C222.744 37.12 223.524 37.336 224.22 37.768C224.94 38.176 225.504 38.74 225.912 39.46C226.344 40.18 226.56 40.96 226.56 41.8V53.32C226.56 54.184 226.344 54.964 225.912 55.66C225.504 56.356 224.94 56.92 224.22 57.352C223.524 57.784 222.744 58 221.88 58H210ZM210.108 54.112H221.772C222.012 54.112 222.216 54.028 222.384 53.86C222.552 53.668 222.636 53.452 222.636 53.212V41.908C222.636 41.668 222.552 41.464 222.384 41.296C222.216 41.104 222.012 41.008 221.772 41.008H210.108C209.868 41.008 209.652 41.104 209.46 41.296C209.292 41.464 209.208 41.668 209.208 41.908V53.212C209.208 53.452 209.292 53.668 209.46 53.86C209.652 54.028 209.868 54.112 210.108 54.112ZM229.72 58V41.8C229.72 40.936 229.936 40.156 230.368 39.46C230.8 38.764 231.364 38.2 232.06 37.768C232.78 37.336 233.56 37.12 234.4 37.12H246.064V41.008H234.508C234.268 41.008 234.052 41.104 233.86 41.296C233.692 41.464 233.608 41.668 233.608 41.908V58H229.72ZM248.389 58V30.28H252.277V45.616H256.957L264.769 37.12H269.233V37.84L260.413 47.56L269.233 57.28V58H264.769L256.957 49.504H252.277V58H248.389ZM276.127 58C275.263 58 274.483 57.784 273.787 57.352C273.091 56.92 272.527 56.356 272.095 55.66C271.663 54.964 271.447 54.184 271.447 53.32V52.78H275.335V53.212C275.335 53.452 275.419 53.668 275.587 53.86C275.779 54.028 275.995 54.112 276.235 54.112H287.899C288.139 54.112 288.343 54.028 288.511 53.86C288.679 53.668 288.763 53.452 288.763 53.212V50.404C288.763 50.164 288.679 49.96 288.511 49.792C288.343 49.6 288.139 49.504 287.899 49.504H276.127C275.263 49.504 274.483 49.3 273.787 48.892C273.091 48.46 272.527 47.896 272.095 47.2C271.663 46.48 271.447 45.688 271.447 44.824V41.8C271.447 40.936 271.663 40.156 272.095 39.46C272.527 38.764 273.091 38.2 273.787 37.768C274.483 37.336 275.263 37.12 276.127 37.12H288.007C288.871 37.12 289.651 37.336 290.347 37.768C291.067 38.2 291.631 38.764 292.039 39.46C292.471 40.156 292.687 40.936 292.687 41.8V42.34H288.763V41.908C288.763 41.668 288.679 41.464 288.511 41.296C288.343 41.104 288.139 41.008 287.899 41.008H276.235C275.995 41.008 275.779 41.104 275.587 41.296C275.419 41.464 275.335 41.668 275.335 41.908V44.716C275.335 44.956 275.419 45.172 275.587 45.364C275.779 45.532 275.995 45.616 276.235 45.616H288.007C288.871 45.616 289.651 45.832 290.347 46.264C291.067 46.672 291.631 47.236 292.039 47.956C292.471 48.652 292.687 49.432 292.687 50.296V53.32C292.687 54.184 292.471 54.964 292.039 55.66C291.631 56.356 291.067 56.92 290.347 57.352C289.651 57.784 288.871 58 288.007 58H276.127ZM296.342 58V30.28H300.23V37.12H312.902C313.742 37.12 314.51 37.336 315.206 37.768C315.926 38.2 316.502 38.764 316.934 39.46C317.366 40.156 317.582 40.936 317.582 41.8V58H313.694V41.908C313.694 41.668 313.598 41.464 313.406 41.296C313.238 41.104 313.034 41.008 312.794 41.008H301.13C300.89 41.008 300.674 41.104 300.482 41.296C300.314 41.464 300.23 41.668 300.23 41.908V58H296.342ZM324.961 58C324.097 58 323.317 57.784 322.621 57.352C321.925 56.92 321.361 56.356 320.929 55.66C320.497 54.964 320.281 54.184 320.281 53.32V41.8C320.281 40.936 320.497 40.156 320.929 39.46C321.361 38.764 321.925 38.2 322.621 37.768C323.317 37.336 324.097 37.12 324.961 37.12H336.841C337.705 37.12 338.485 37.336 339.181 37.768C339.901 38.176 340.465 38.74 340.873 39.46C341.305 40.18 341.521 40.96 341.521 41.8V53.32C341.521 54.184 341.305 54.964 340.873 55.66C340.465 56.356 339.901 56.92 339.181 57.352C338.485 57.784 337.705 58 336.841 58H324.961ZM325.069 54.112H336.733C336.973 54.112 337.177 54.028 337.345 53.86C337.513 53.668 337.597 53.452 337.597 53.212V41.908C337.597 41.668 337.513 41.464 337.345 41.296C337.177 41.104 336.973 41.008 336.733 41.008H325.069C324.829 41.008 324.613 41.104 324.421 41.296C324.253 41.464 324.169 41.668 324.169 41.908V53.212C324.169 53.452 324.253 53.668 324.421 53.86C324.613 54.028 324.829 54.112 325.069 54.112ZM345.315 66.28V37.12H361.875C362.739 37.12 363.519 37.336 364.215 37.768C364.935 38.2 365.499 38.764 365.907 39.46C366.339 40.156 366.555 40.936 366.555 41.8V53.32C366.555 54.184 366.339 54.964 365.907 55.66C365.499 56.356 364.935 56.92 364.215 57.352C363.519 57.784 362.739 58 361.875 58H349.203V66.28H345.315ZM350.103 54.112H361.767C362.007 54.112 362.211 54.028 362.379 53.86C362.571 53.668 362.667 53.452 362.667 53.212V41.908C362.667 41.668 362.571 41.464 362.379 41.296C362.211 41.104 362.007 41.008 361.767 41.008H350.103C349.863 41.008 349.647 41.104 349.455 41.296C349.287 41.464 349.203 41.668 349.203 41.908V53.212C349.203 53.452 349.287 53.668 349.455 53.86C349.647 54.028 349.863 54.112 350.103 54.112Z" fill="#F9EE61"/>
<defs>
<filter id="filter0_i_894_7445" x="0.5" y="0" width="373.5" height="87" filterUnits="userSpaceOnUse" color-interpolation-filters="sRGB">
<feFlood flood-opacity="0" result="BackgroundImageFix"/>
<feBlend mode="normal" in="SourceGraphic" in2="BackgroundImageFix" result="shape"/>
<feColorMatrix in="SourceAlpha" type="matrix" values="0 0 0 0 0 0 0 0 0 0 0 0 0 0 0 0 0 0 127 0" result="hardAlpha"/>
<feOffset dy="4"/>
<feGaussianBlur stdDeviation="3"/>
<feComposite in2="hardAlpha" operator="arithmetic" k2="-1" k3="1"/>
<feColorMatrix type="matrix" values="0 0 0 0 0 0 0 0 0 0 0 0 0 0 0 0 0 0 0.25 0"/>
<feBlend mode="normal" in2="shape" result="effect1_innerShadow_894_7445"/>
</filter>
</defs>
</svg>
