<svg width="390" height="64" viewBox="0 0 390 64" fill="none" xmlns="http://www.w3.org/2000/svg">
<g filter="url(#filter0_i_823_118293)">
<rect width="390" height="64" rx="10" fill="#2B3535"/>
</g>
<rect x="2.5" y="2.5" width="385" height="59" rx="7.5" stroke="url(#paint0_linear_823_118293)" stroke-width="5"/>
<g filter="url(#filter1_d_823_118293)">
<path d="M28.016 46V20.116H49.22C50.084 20.116 50.876 20.332 51.596 20.764C52.316 21.196 52.88 21.772 53.288 22.492C53.72 23.188 53.936 23.956 53.936 24.796V32.068C53.936 32.932 53.72 33.724 53.288 34.444C52.88 35.14 52.316 35.704 51.596 36.136C50.876 36.544 50.084 36.748 49.22 36.748L31.904 36.784V46H28.016ZM32.804 32.824H49.148C49.388 32.824 49.592 32.74 49.76 32.572C49.928 32.404 50.012 32.2 50.012 31.96V24.904C50.012 24.664 49.928 24.46 49.76 24.292C49.592 24.1 49.388 24.004 49.148 24.004H32.804C32.564 24.004 32.348 24.1 32.156 24.292C31.988 24.46 31.904 24.664 31.904 24.904V31.96C31.904 32.2 31.988 32.404 32.156 32.572C32.348 32.74 32.564 32.824 32.804 32.824ZM56.3486 46V29.8C56.3486 28.936 56.5646 28.156 56.9966 27.46C57.4286 26.764 57.9926 26.2 58.6886 25.768C59.4086 25.336 60.1886 25.12 61.0286 25.12H72.6926V29.008H61.1366C60.8966 29.008 60.6806 29.104 60.4886 29.296C60.3206 29.464 60.2366 29.668 60.2366 29.908V46H56.3486ZM79.5551 46C78.6911 46 77.9111 45.784 77.2151 45.352C76.5191 44.92 75.9551 44.356 75.5231 43.66C75.0911 42.964 74.8751 42.184 74.8751 41.32V29.8C74.8751 28.936 75.0911 28.156 75.5231 27.46C75.9551 26.764 76.5191 26.2 77.2151 25.768C77.9111 25.336 78.6911 25.12 79.5551 25.12H91.4351C92.2991 25.12 93.0791 25.336 93.7751 25.768C94.4951 26.176 95.0591 26.74 95.4671 27.46C95.8991 28.18 96.1151 28.96 96.1151 29.8V41.32C96.1151 42.184 95.8991 42.964 95.4671 43.66C95.0591 44.356 94.4951 44.92 93.7751 45.352C93.0791 45.784 92.2991 46 91.4351 46H79.5551ZM79.6631 42.112H91.3271C91.5671 42.112 91.7711 42.028 91.9391 41.86C92.1071 41.668 92.1911 41.452 92.1911 41.212V29.908C92.1911 29.668 92.1071 29.464 91.9391 29.296C91.7711 29.104 91.5671 29.008 91.3271 29.008H79.6631C79.4231 29.008 79.2071 29.104 79.0151 29.296C78.8471 29.464 78.7631 29.668 78.7631 29.908V41.212C78.7631 41.452 78.8471 41.668 79.0151 41.86C79.2071 42.028 79.4231 42.112 79.6631 42.112ZM103.473 46C102.609 46 101.817 45.796 101.097 45.388C100.401 44.956 99.8368 44.38 99.4048 43.66C98.9968 42.94 98.7928 42.16 98.7928 41.32V29.8C98.7928 28.936 98.9968 28.156 99.4048 27.46C99.8368 26.764 100.401 26.2 101.097 25.768C101.817 25.336 102.609 25.12 103.473 25.12H116.145V18.28H120.033V46H103.473ZM103.617 42.112H115.281C115.521 42.112 115.725 42.028 115.893 41.86C116.061 41.668 116.145 41.452 116.145 41.212V29.908C116.145 29.668 116.061 29.464 115.893 29.296C115.725 29.104 115.521 29.008 115.281 29.008H103.617C103.377 29.008 103.161 29.104 102.969 29.296C102.801 29.464 102.717 29.668 102.717 29.908V41.212C102.717 41.452 102.801 41.668 102.969 41.86C103.161 42.028 103.377 42.112 103.617 42.112ZM127.686 46C126.822 46 126.03 45.784 125.31 45.352C124.614 44.92 124.05 44.356 123.618 43.66C123.21 42.964 123.006 42.184 123.006 41.32V25.12H126.894V41.212C126.894 41.452 126.978 41.668 127.146 41.86C127.338 42.028 127.554 42.112 127.794 42.112H139.458C139.698 42.112 139.902 42.028 140.07 41.86C140.262 41.668 140.358 41.452 140.358 41.212V25.12H144.246V41.32C144.246 42.184 144.03 42.964 143.598 43.66C143.19 44.356 142.626 44.92 141.906 45.352C141.21 45.784 140.43 46 139.566 46H127.686ZM151.871 46C151.007 46 150.227 45.784 149.531 45.352C148.835 44.92 148.271 44.356 147.839 43.66C147.407 42.964 147.191 42.184 147.191 41.32V29.8C147.191 28.936 147.407 28.156 147.839 27.46C148.271 26.764 148.835 26.2 149.531 25.768C150.227 25.336 151.007 25.12 151.871 25.12H168.359V29.008H151.979C151.739 29.008 151.523 29.104 151.331 29.296C151.163 29.464 151.079 29.668 151.079 29.908V41.212C151.079 41.452 151.163 41.668 151.331 41.86C151.523 42.028 151.739 42.112 151.979 42.112H168.431V46H151.871ZM176.026 46C175.162 46 174.37 45.784 173.65 45.352C172.954 44.92 172.39 44.356 171.958 43.66C171.55 42.964 171.346 42.184 171.346 41.32V18.532H175.234V25.12H183.802V29.008H175.234V41.212C175.234 41.452 175.318 41.668 175.486 41.86C175.678 42.028 175.894 42.112 176.134 42.112H183.802V46H176.026ZM186.708 46V25.12H190.596V46H186.708ZM186.708 22.168V18.28H190.596V22.168H186.708ZM199.121 46C198.257 46 197.477 45.784 196.781 45.352C196.085 44.92 195.521 44.356 195.089 43.66C194.657 42.964 194.441 42.184 194.441 41.32V29.8C194.441 28.936 194.657 28.156 195.089 27.46C195.521 26.764 196.085 26.2 196.781 25.768C197.477 25.336 198.257 25.12 199.121 25.12H211.001C211.865 25.12 212.645 25.336 213.341 25.768C214.061 26.176 214.625 26.74 215.033 27.46C215.465 28.18 215.681 28.96 215.681 29.8V41.32C215.681 42.184 215.465 42.964 215.033 43.66C214.625 44.356 214.061 44.92 213.341 45.352C212.645 45.784 211.865 46 211.001 46H199.121ZM199.229 42.112H210.893C211.133 42.112 211.337 42.028 211.505 41.86C211.673 41.668 211.757 41.452 211.757 41.212V29.908C211.757 29.668 211.673 29.464 211.505 29.296C211.337 29.104 211.133 29.008 210.893 29.008H199.229C198.989 29.008 198.773 29.104 198.581 29.296C198.413 29.464 198.329 29.668 198.329 29.908V41.212C198.329 41.452 198.413 41.668 198.581 41.86C198.773 42.028 198.989 42.112 199.229 42.112ZM218.772 46V25.12H235.332C236.196 25.12 236.976 25.336 237.672 25.768C238.392 26.2 238.956 26.764 239.364 27.46C239.796 28.156 240.012 28.936 240.012 29.8V46H236.124V29.908C236.124 29.668 236.028 29.464 235.836 29.296C235.668 29.104 235.464 29.008 235.224 29.008H223.56C223.32 29.008 223.104 29.104 222.912 29.296C222.744 29.464 222.66 29.668 222.66 29.908V46H218.772ZM259.032 46C258.168 46 257.376 45.796 256.656 45.388C255.96 44.956 255.396 44.392 254.964 43.696C254.556 42.976 254.352 42.184 254.352 41.32V24.76C254.352 23.896 254.556 23.116 254.964 22.42C255.396 21.7 255.96 21.136 256.656 20.728C257.376 20.296 258.168 20.08 259.032 20.08H280.2V23.968H259.572C259.188 23.968 258.864 24.1 258.6 24.364C258.36 24.604 258.24 24.916 258.24 25.3V40.78C258.24 41.164 258.36 41.488 258.6 41.752C258.864 41.992 259.188 42.112 259.572 42.112H280.2V46H259.032ZM288.49 46C287.626 46 286.834 45.784 286.114 45.352C285.418 44.92 284.854 44.356 284.422 43.66C284.014 42.964 283.81 42.184 283.81 41.32V33.616H301.126V29.908C301.126 29.668 301.042 29.464 300.874 29.296C300.706 29.104 300.502 29.008 300.262 29.008H283.81V25.12H300.37C301.234 25.12 302.014 25.336 302.71 25.768C303.43 26.176 303.994 26.74 304.402 27.46C304.834 28.18 305.05 28.96 305.05 29.8V46H288.49ZM288.598 42.112H301.126V37.252H287.698V41.212C287.698 41.452 287.782 41.668 287.95 41.86C288.142 42.028 288.358 42.112 288.598 42.112ZM307.928 46V18.28H311.816V25.12H324.488C325.352 25.12 326.132 25.336 326.828 25.768C327.548 26.2 328.112 26.764 328.52 27.46C328.952 28.156 329.168 28.936 329.168 29.8V41.32C329.168 42.184 328.952 42.964 328.52 43.66C328.112 44.356 327.548 44.92 326.828 45.352C326.132 45.784 325.352 46 324.488 46H307.928ZM312.716 42.112H324.38C324.62 42.112 324.824 42.028 324.992 41.86C325.184 41.668 325.28 41.452 325.28 41.212V29.908C325.28 29.668 325.184 29.464 324.992 29.296C324.824 29.104 324.62 29.008 324.38 29.008H312.716C312.476 29.008 312.26 29.104 312.068 29.296C311.9 29.464 311.816 29.668 311.816 29.908V41.212C311.816 41.452 311.9 41.668 312.068 41.86C312.26 42.028 312.476 42.112 312.716 42.112ZM331.868 46V25.12H335.756V46H331.868ZM331.868 22.168V18.28H335.756V22.168H331.868ZM339.921 46V25.12H356.481C357.345 25.12 358.125 25.336 358.821 25.768C359.541 26.2 360.105 26.764 360.513 27.46C360.945 28.156 361.161 28.936 361.161 29.8V46H357.273V29.908C357.273 29.668 357.177 29.464 356.985 29.296C356.817 29.104 356.613 29.008 356.373 29.008H344.709C344.469 29.008 344.253 29.104 344.061 29.296C343.893 29.464 343.809 29.668 343.809 29.908V46H339.921Z" fill="#FFF761"/>
</g>
<defs>
<filter id="filter0_i_823_118293" x="0" y="0" width="390" height="68" filterUnits="userSpaceOnUse" color-interpolation-filters="sRGB">
<feFlood flood-opacity="0" result="BackgroundImageFix"/>
<feBlend mode="normal" in="SourceGraphic" in2="BackgroundImageFix" result="shape"/>
<feColorMatrix in="SourceAlpha" type="matrix" values="0 0 0 0 0 0 0 0 0 0 0 0 0 0 0 0 0 0 127 0" result="hardAlpha"/>
<feOffset dy="4"/>
<feGaussianBlur stdDeviation="5"/>
<feComposite in2="hardAlpha" operator="arithmetic" k2="-1" k3="1"/>
<feColorMatrix type="matrix" values="0 0 0 0 0.00576389 0 0 0 0 0.284621 0 0 0 0 0.345833 0 0 0 0.7 0"/>
<feBlend mode="normal" in2="shape" result="effect1_innerShadow_823_118293"/>
</filter>
<filter id="filter1_d_823_118293" x="18.0156" y="8.27979" width="353.145" height="47.7202" filterUnits="userSpaceOnUse" color-interpolation-filters="sRGB">
<feFlood flood-opacity="0" result="BackgroundImageFix"/>
<feColorMatrix in="SourceAlpha" type="matrix" values="0 0 0 0 0 0 0 0 0 0 0 0 0 0 0 0 0 0 127 0" result="hardAlpha"/>
<feOffset/>
<feGaussianBlur stdDeviation="5"/>
<feComposite in2="hardAlpha" operator="out"/>
<feColorMatrix type="matrix" values="0 0 0 0 1 0 0 0 0 0.972785 0 0 0 0 0.4625 0 0 0 1 0"/>
<feBlend mode="normal" in2="BackgroundImageFix" result="effect1_dropShadow_823_118293"/>
<feBlend mode="normal" in="SourceGraphic" in2="effect1_dropShadow_823_118293" result="shape"/>
</filter>
<linearGradient id="paint0_linear_823_118293" x1="195" y1="0" x2="195" y2="64" gradientUnits="userSpaceOnUse">
<stop stop-color="#8FFFF9"/>
<stop offset="1" stop-color="#8FFFF9" stop-opacity="0.3"/>
</linearGradient>
</defs>
</svg>
