<svg width="63" height="63" viewBox="0 0 63 63" fill="none" xmlns="http://www.w3.org/2000/svg">
<circle cx="31.4999" cy="31.4999" r="11.952" stroke="#616161" stroke-width="3"/>
<circle cx="31.5" cy="31.5" r="28.5" stroke="#616161" stroke-linecap="round" stroke-dasharray="2 2"/>
<circle cx="31.5003" cy="31.4999" r="8.848" stroke="black" stroke-opacity="0.5"/>
<circle cx="31.7276" cy="31.7281" r="7.252" stroke="black" stroke-opacity="0.5"/>
<path fill-rule="evenodd" clip-rule="evenodd" d="M24.3607 9.66255C18.659 11.5656 13.9402 15.6169 11.1648 20.8558C11.6571 23.7858 13.3063 27.0201 16.5465 29.7487C16.5624 29.7621 16.5784 29.7755 16.5946 29.7891C17.1578 25.3469 19.6312 21.5006 23.1657 19.0992C22.4491 15.647 23.0801 12.2949 24.3607 9.66255ZM24.0737 18.5278C26.3238 17.2201 28.9388 16.4712 31.7287 16.4712C38.245 16.4712 43.8071 20.5567 45.9934 26.306C46.8491 24.8195 47.6658 23.3958 48.3543 22.0389C49.2089 20.3545 49.8395 18.8213 50.0944 17.4586C45.8392 11.9895 39.1948 8.47119 31.7287 8.47119C29.6466 8.47119 27.6285 8.7448 25.7082 9.25801C24.2877 11.7029 23.4512 15.0394 24.0737 18.5278ZM50.8731 18.52C50.5266 19.7803 49.9448 21.1141 49.2461 22.4914C48.5215 23.9195 47.6527 25.4283 46.7606 26.9776C46.6454 27.1777 46.5299 27.3785 46.4141 27.5798C46.7858 28.8985 46.9847 30.2896 46.9847 31.7272C46.9847 36.1491 45.1033 40.1317 42.0975 42.9181C42.3768 43.4583 42.7356 43.9748 43.1682 44.4855C44.1565 45.6522 45.5142 46.7708 47.1692 48.0584C47.3732 48.2172 47.5816 48.3783 47.794 48.5423C52.2248 44.3079 54.9847 38.3399 54.9847 31.7272C54.9847 26.8219 53.466 22.2714 50.8731 18.52ZM47.0452 49.2275C42.9687 52.7982 37.6338 54.9674 31.7926 54.9831C31.9215 52.0487 31.4872 49.3737 30.6849 46.948C31.0298 46.9714 31.3778 46.9832 31.7287 46.9832C35.3639 46.9832 38.7021 45.7118 41.323 43.5893C41.6217 44.1264 41.9857 44.6366 42.4051 45.1318C43.4688 46.3875 44.9042 47.5632 46.5551 48.8477C46.7163 48.9731 46.8797 49.0996 47.0452 49.2275ZM29.5908 46.8346C30.4529 49.2746 30.9268 51.9799 30.7924 54.9647C18.3825 54.4733 8.47266 44.2575 8.47266 31.7272C8.47266 28.3738 9.1824 25.1862 10.4599 22.3064C11.2158 25.1048 12.945 28.0232 15.9024 30.5136C16.0849 30.6673 16.2812 30.8292 16.4897 30.9993C16.4784 31.2405 16.4727 31.4832 16.4727 31.7272C16.4727 39.4273 22.1773 45.795 29.5908 46.8346Z" fill="#616161"/>
</svg>
