<svg width="360" height="348" viewBox="0 0 360 348" fill="none" xmlns="http://www.w3.org/2000/svg">
<path d="M8.06978e-06 325L26.5042 347.305L32.5691 313.199L8.06978e-06 325ZM11.6484 330.024C14.3307 330.449 16.9961 330.851 19.6447 331.229L20.4923 325.289C17.8744 324.915 15.2394 324.519 12.5872 324.098L11.6484 330.024ZM27.5401 332.293C30.295 332.642 33.0313 332.966 35.749 333.264L36.4039 327.3C33.7197 327.005 31.0167 326.685 28.2947 326.34L27.5401 332.293ZM43.8514 334.084C46.5337 334.332 49.1974 334.556 51.8427 334.755L52.2922 328.771C49.6818 328.575 47.0526 328.355 44.4046 328.11L43.8514 334.084ZM59.9942 335.293C62.7389 335.449 65.4631 335.578 68.1671 335.681L68.3946 329.685C65.7286 329.584 63.042 329.456 60.3346 329.302L59.9942 335.293ZM76.2179 335.909C78.9481 335.96 81.657 335.984 84.3446 335.981L84.3375 329.981C81.6901 329.984 79.0211 329.961 76.3306 329.91L76.2179 335.909ZM92.5444 335.887C95.2554 335.827 97.9441 335.739 100.611 335.624L100.352 329.63C97.7281 329.743 95.0816 329.829 92.4125 329.888L92.5444 335.887ZM108.729 335.185C111.478 335.006 114.203 334.798 116.903 334.56L116.377 328.583C113.722 328.817 111.043 329.022 108.339 329.198L108.729 335.185ZM124.933 333.759C127.66 333.454 130.362 333.12 133.038 332.756L132.229 326.811C129.601 327.168 126.947 327.497 124.268 327.796L124.933 333.759ZM141.128 331.553C143.798 331.121 146.442 330.66 149.06 330.168L147.954 324.271C145.386 324.753 142.792 325.206 140.171 325.629L141.128 331.553ZM157.124 328.545C159.799 327.97 162.445 327.363 165.063 326.725L163.643 320.895C161.078 321.52 158.484 322.115 155.862 322.68L157.124 328.545ZM172.905 324.7C175.569 323.973 178.202 323.213 180.804 322.422L179.058 316.681C176.511 317.456 173.933 318.199 171.325 318.912L172.905 324.7ZM188.52 319.953C191.128 319.077 193.703 318.168 196.247 317.228L194.166 311.6C191.679 312.52 189.16 313.408 186.609 314.265L188.52 319.953ZM203.86 314.282C206.387 313.259 208.882 312.205 211.344 311.119L208.922 305.629C206.517 306.69 204.08 307.72 201.609 308.72L203.86 314.282ZM218.802 307.687C221.253 306.511 223.671 305.304 226.055 304.066L223.289 298.741C220.962 299.95 218.602 301.129 216.207 302.277L218.802 307.687ZM233.285 300.159C235.666 298.821 238.011 297.452 240.321 296.053L237.212 290.922C234.959 292.287 232.67 293.622 230.347 294.928L233.285 300.159ZM247.245 291.699C249.539 290.202 251.795 288.675 254.014 287.118L250.568 282.206C248.404 283.724 246.204 285.214 243.966 286.674L247.245 291.699ZM260.611 282.322C262.802 280.671 264.954 278.991 267.068 277.283L263.297 272.616C261.236 274.282 259.137 275.92 257.001 277.529L260.611 282.322ZM273.314 272.057C275.389 270.26 277.424 268.435 279.42 266.583L275.339 262.185C273.393 263.99 271.409 265.769 269.386 267.521L273.314 272.057ZM285.291 260.946C287.238 259.011 289.145 257.05 291.011 255.065L286.639 250.956C284.819 252.892 282.96 254.803 281.062 256.69L285.291 260.946ZM296.49 249.034C298.297 246.974 300.064 244.891 301.79 242.784L297.149 238.981C295.466 241.035 293.743 243.067 291.98 245.075L296.49 249.034ZM306.852 236.39C308.514 234.216 310.135 232.021 311.714 229.805L306.828 226.322C305.288 228.484 303.707 230.625 302.086 232.746L306.852 236.39ZM316.339 223.083C317.851 220.805 319.321 218.508 320.749 216.194L315.644 213.043C314.25 215.301 312.815 217.542 311.34 219.765L316.339 223.083ZM324.921 209.18C326.279 206.809 327.595 204.422 328.87 202.02L323.569 199.208C322.325 201.553 321.041 203.884 319.715 206.197L324.921 209.18ZM332.577 194.75C333.779 192.297 334.938 189.831 336.055 187.353L330.585 184.887C329.494 187.307 328.362 189.716 327.189 192.11L332.577 194.75ZM339.29 179.861C340.333 177.338 341.333 174.803 342.292 172.26L336.677 170.145C335.741 172.629 334.764 175.105 333.745 177.57L339.29 179.861ZM345.047 164.58C345.93 161.996 346.769 159.403 347.566 156.805L341.83 155.045C341.051 157.584 340.231 160.117 339.369 162.642L345.047 164.58ZM349.837 148.971C350.557 146.335 351.234 143.695 351.868 141.053L346.033 139.653C345.414 142.235 344.752 144.815 344.049 147.39L349.837 148.971ZM353.647 133.096C354.203 130.419 354.714 127.741 355.183 125.063L349.273 124.028C348.815 126.644 348.315 129.261 347.772 131.877L353.647 133.096ZM356.464 117.015C356.852 114.306 357.196 111.599 357.497 108.897L351.533 108.233C351.24 110.873 350.904 113.517 350.525 116.164L356.464 117.015ZM358.269 100.789C358.486 98.0566 358.658 95.3305 358.786 92.6129L352.793 92.3306C352.668 94.9839 352.5 97.6458 352.288 100.315L358.269 100.789ZM359.038 84.4725C359.079 81.7289 359.074 78.996 359.024 76.2758L353.025 76.3862C353.073 79.0398 353.078 81.7065 353.039 84.3842L359.038 84.4725ZM358.737 68.1248C358.594 65.3852 358.406 62.6609 358.171 59.9539L352.193 60.4724C352.422 63.1101 352.606 65.7656 352.745 68.4367L358.737 68.1248ZM357.321 51.8255C356.988 49.1045 356.607 46.4038 356.18 43.7255L350.255 44.6716C350.671 47.2772 351.041 49.9057 351.366 52.5551L357.321 51.8255ZM354.736 35.6587C354.202 32.9737 353.62 30.3144 352.99 27.6833L347.155 29.0811C347.767 31.6353 348.332 34.2184 348.851 36.8279L354.736 35.6587ZM350.912 19.727C350.164 17.0885 349.367 14.4822 348.519 11.9107L342.82 13.7898C343.641 16.2793 344.414 18.8043 345.139 21.3624L350.912 19.727ZM345.77 4.15881C345.286 2.88585 344.789 1.62261 344.279 0.369444L338.721 2.63054C339.214 3.84064 339.694 5.06102 340.161 6.29134L345.77 4.15881Z" fill="url(#paint0_linear_1681_39207)"/>
<defs>
<linearGradient id="paint0_linear_1681_39207" x1="190.389" y1="27.9999" x2="-30" y2="278.5" gradientUnits="userSpaceOnUse">
<stop stop-color="#E9AF37"/>
<stop offset="1" stop-color="#8DF6F5"/>
</linearGradient>
</defs>
</svg>
