<svg width="27" height="27" viewBox="0 0 27 27" fill="none" xmlns="http://www.w3.org/2000/svg">
<path d="M16.1496 24.0624C18.1563 23.5275 19.9549 22.3995 21.3101 20.8258C22.6654 19.2522 23.5142 17.3062 23.7456 15.2424H19.782C19.566 18.6084 18.3564 21.5496 16.1496 24.0624ZM17.4816 15.2424H9.54899C9.80099 18.3744 11.1186 21.3876 13.5018 24.282C15.8994 21.3876 17.2242 18.3744 17.4798 15.2424H17.4816ZM16.1136 4.12196C18.2902 6.57156 19.5803 9.6817 19.7766 12.9528H23.7456C23.5137 10.8824 22.6606 8.93067 21.2983 7.35444C19.9361 5.77821 18.1285 4.65129 16.1136 4.12196ZM17.4762 12.9528C17.2116 9.83876 15.8868 6.83276 13.5036 3.93476C11.1348 6.83276 9.81899 9.83876 9.55619 12.9528H17.4762ZM10.9476 24.0876C8.70839 21.4596 7.47719 18.5112 7.25219 15.2424H3.25439C3.48759 17.323 4.34824 19.2834 5.72203 20.8633C7.09582 22.4431 8.91773 23.5677 10.9458 24.0876H10.9476ZM10.98 4.09856C8.94396 4.61267 7.11327 5.73581 5.73247 7.31795C4.35168 8.90009 3.48653 10.8659 3.25259 12.9528H7.25759C7.49879 9.69836 8.73899 6.74636 10.98 4.09676V4.09856ZM13.5 26.6976C11.8453 26.6976 10.2068 26.3718 8.678 25.7386C7.14923 25.1054 5.76015 24.1773 4.59007 23.0073C3.41999 21.8373 2.49183 20.4482 1.85859 18.9195C1.22534 17.3908 0.899414 15.7523 0.899414 14.0976C0.899414 12.4429 1.22534 10.8044 1.85859 9.27561C2.49183 7.74687 3.41999 6.35784 4.59007 5.18781C5.76015 4.01778 7.14923 3.08969 8.678 2.45651C10.2068 1.82334 11.8453 1.49748 13.5 1.49756C16.8416 1.49771 20.0463 2.82528 22.4092 5.18822C24.772 7.55116 26.0994 10.7559 26.0994 14.0976C26.0994 17.4392 24.772 20.644 22.4092 23.0069C20.0463 25.3698 16.8416 26.6974 13.5 26.6976Z" fill="white"/>
</svg>
