<svg width="139" height="106" viewBox="0 0 139 106" fill="none" xmlns="http://www.w3.org/2000/svg">
<rect x="2.0495" y="67.4828" width="130.675" height="42.0752" transform="rotate(-30.0486 2.0495 67.4828)" fill="white" fill-opacity="0.8" stroke="#FF0000" stroke-width="3"/>
<path d="M30.6303 84.5368L21.9776 69.5793L35.7095 61.6356L37.1636 64.1493L25.9455 70.6388L28.0966 74.3574L37.1335 69.1298L38.5756 71.6227L29.5387 76.8504L31.6899 80.569L42.9081 74.0795L44.3622 76.5932L30.6303 84.5368ZM46.2864 75.4801L45.962 74.9191L47.3116 66.7077L39.6407 63.9918L39.3162 63.4309L42.1 61.8205L47.8264 63.8591L48.8932 57.8908L51.677 56.2804L52.0015 56.8413L50.5316 64.845L58.3435 67.7566L58.668 68.3176L55.8842 69.9279L50.0617 67.7231L49.0702 73.8697L46.2864 75.4801ZM63.6005 71.8412L53.8663 55.014L63.3394 49.5339C63.838 49.2455 64.3711 49.1127 64.9388 49.1355C65.5124 49.1364 66.044 49.2725 66.5336 49.5438C67.0233 49.8151 67.4163 50.2069 67.7128 50.7193L71.4623 57.201C71.7587 57.7134 71.9024 58.2495 71.8935 58.8092C71.8846 59.3689 71.7415 59.9045 71.4644 60.416C71.1931 60.9056 70.8082 61.2947 70.3096 61.5831L63.3086 65.633L66.0727 70.4111L63.6005 71.8412ZM62.2733 62.9325L68.7964 59.159C68.8934 59.1029 68.9564 59.0202 68.9856 58.9109C69.0207 58.7797 69.0061 58.6588 68.942 58.548L65.2887 52.2325C65.2246 52.1217 65.1309 52.0558 65.0078 52.0346C64.8905 51.9915 64.7833 51.9981 64.6864 52.0541L58.1632 55.8277C58.0663 55.8838 58.0003 55.9774 57.9653 56.1086C57.9222 56.2259 57.9328 56.3399 57.9968 56.4507L61.6502 62.7662C61.7143 62.8769 61.8119 62.9499 61.9431 62.9849C62.0663 63.0061 62.1763 62.9886 62.2733 62.9325ZM74.7325 59.0246L67.7622 46.9754L70.2344 45.5453L77.2046 57.5945L74.7325 59.0246ZM66.921 45.5212L65.4789 43.0282L67.951 41.5981L69.3932 44.0911L66.921 45.5212ZM79.6015 56.2079L74.2416 46.9425C73.9452 46.4301 73.8014 45.894 73.8104 45.3343C73.8332 44.7666 73.9802 44.2379 74.2515 43.7483C74.5286 43.2368 74.9164 42.8368 75.415 42.5484L82.1252 38.6667L83.5553 41.1389L76.9282 44.9725C76.8174 45.0366 76.7445 45.1342 76.7095 45.2654C76.6803 45.3747 76.6977 45.4847 76.7618 45.5955L82.0736 54.7778L79.6015 56.2079ZM93.2386 48.3191C92.7261 48.6155 92.1901 48.7593 91.6304 48.7503C91.0627 48.7276 90.5271 48.5845 90.0236 48.3213C89.5339 48.05 89.1409 47.6581 88.8444 47.1457L85.0949 40.6641C84.7985 40.1516 84.6548 39.6156 84.6637 39.0559C84.6865 38.4882 84.8335 37.9595 85.1048 37.4698C85.3681 36.9663 85.7559 36.5664 86.2684 36.2699L92.9369 32.4123C93.4632 32.1078 94.0102 31.967 94.5779 31.9898C95.1376 31.9987 95.6623 32.1388 96.152 32.4101C96.6416 32.6814 97.0346 33.0733 97.3311 33.5857L99.9269 38.073L90.1629 43.7212L91.2685 45.6325C91.3326 45.7433 91.4233 45.8202 91.5406 45.8632C91.6638 45.8844 91.7808 45.863 91.8916 45.7989L101.261 40.3789L102.691 42.8511L93.2386 48.3191ZM88.853 41.4568L96.1448 37.2386L94.907 35.0989C94.8429 34.9881 94.7493 34.9221 94.6261 34.9009C94.5088 34.8579 94.3947 34.8684 94.2839 34.9325L87.7815 38.694C87.6708 38.7581 87.5978 38.8557 87.5628 38.9869C87.5336 39.0962 87.5511 39.2063 87.6152 39.3171L88.853 41.4568ZM107.041 40.3348C106.528 40.6312 105.985 40.779 105.412 40.7781C104.844 40.7553 104.315 40.6082 103.826 40.337C103.336 40.0657 102.943 39.6738 102.647 39.1614L98.8971 32.6798C98.6007 32.1673 98.4569 31.6313 98.4659 31.0716C98.4748 30.5119 98.6149 29.9872 98.8862 29.4975C99.1633 28.986 99.5581 28.5821 100.071 28.2856L107.072 24.2357L104.788 20.2886L107.26 18.8585L116.514 34.8548L107.041 40.3348ZM105.715 37.8026L112.217 34.041C112.328 33.9769 112.398 33.8902 112.427 33.7809C112.462 33.6498 112.447 33.5288 112.383 33.418L108.73 27.1026C108.666 26.9918 108.572 26.9258 108.449 26.9046C108.332 26.8616 108.218 26.8721 108.107 26.9362L101.604 30.6977C101.494 30.7618 101.421 30.8594 101.386 30.9906C101.357 31.0999 101.374 31.21 101.438 31.3207L105.091 37.6362C105.156 37.747 105.246 37.8239 105.364 37.8669C105.487 37.8881 105.604 37.8666 105.715 37.8026Z" fill="#FF0000"/>
</svg>
