<svg width="64" height="64" viewBox="0 0 64 64" fill="none" xmlns="http://www.w3.org/2000/svg">
<path d="M49.4988 8.68139C48.2346 7.79632 46.8795 7.04161 45.4553 6.4294C44.0373 5.78726 42.5376 5.33289 40.9959 5.07826C37.8289 4.58008 34.5849 4.84283 31.5457 5.84386L30.4136 6.31683L31.4995 5.73129C34.5159 4.38265 37.8196 3.75719 41.1346 3.90718C42.8262 4.00663 44.4967 4.32465 46.1023 4.85298C47.7164 5.35595 49.2667 6.03596 50.7234 6.87982C50.99 7.03212 51.1836 7.28144 51.2616 7.57285C51.3396 7.86425 51.2956 8.17389 51.1394 8.4337C50.9831 8.69351 50.7273 8.88219 50.4283 8.95821C50.1293 9.03423 49.8116 8.99134 49.5451 8.83904L49.4988 8.68139Z" fill="white" stroke="white" stroke-width="2"/>
<path d="M60.1039 23.0494C59.6775 21.4736 59.0405 19.9594 58.2092 18.5454C56.5135 15.7682 54.0571 13.5066 51.1158 12.0146C49.5892 11.2545 47.9762 10.6726 46.3098 10.2806C48.0386 10.4964 49.7363 10.9044 51.3699 11.4967C53.0222 12.1258 54.5773 12.9746 55.991 14.0189C57.4332 15.0709 58.7098 16.3228 59.7804 17.7347C60.8424 19.1225 61.7197 20.6359 62.3913 22.2387C62.5078 22.5164 62.5062 22.8279 62.387 23.1045C62.2679 23.3811 62.0409 23.6002 61.756 23.7137C61.471 23.8272 61.1515 23.8257 60.8676 23.7095C60.5838 23.5934 60.359 23.3722 60.2425 23.0945C60.2425 23.0945 60.127 23.0494 60.1039 23.0494Z" fill="white" stroke="white" stroke-width="2"/>
<path d="M60.1039 40.8392L60.5891 39.7807V39.9158C61.4362 37.1782 61.6025 34.2835 61.0743 31.4708C60.5068 28.5986 59.2653 25.8932 57.4467 23.5663L56.6611 22.7106L57.5392 23.4763C59.6746 25.666 61.2568 28.3108 62.1603 31.2006C63.0687 34.1817 63.2429 37.3297 62.6686 40.3888L62.3221 41.4922C62.2301 41.7908 62.0202 42.0417 61.7386 42.1895C61.4569 42.3373 61.1266 42.3699 60.8202 42.2804C60.5138 42.1908 60.2564 41.9862 60.1048 41.7117C59.9531 41.4372 59.9196 41.1153 60.0115 40.8166C60.0115 40.8166 60.0808 40.8617 60.1039 40.8392Z" fill="white" stroke="white" stroke-width="2"/>
<path d="M49.4296 55.3199L50.4462 54.6893C54.188 51.8541 56.6694 47.7265 57.378 43.1591C57.6512 41.6052 57.7288 40.0247 57.609 38.4525C57.9021 40.0193 58.0106 41.6134 57.9325 43.2042C57.8543 44.8169 57.567 46.4134 57.0776 47.9558C56.0378 51.0954 54.2389 53.9454 51.8326 56.2657L50.9084 56.9863C50.6694 57.1745 50.3635 57.2624 50.058 57.2307C49.7525 57.199 49.4724 57.0503 49.2794 56.8174C49.0864 56.5845 48.9962 56.2863 49.0287 55.9886C49.0612 55.6908 49.2137 55.4179 49.4527 55.2297C49.4527 55.2297 49.3834 55.3199 49.4296 55.3199Z" fill="white" stroke="white" stroke-width="2"/>
<path d="M31.9379 60.7696C32.7065 60.8382 33.4799 60.8382 34.2484 60.7696C35.024 60.7179 35.7956 60.6201 36.559 60.4769C38.0933 60.1821 39.5784 59.682 40.9721 58.9906C43.8379 57.5902 46.2939 55.5063 48.1119 52.9328L48.7357 51.8743L48.2505 53.0003C46.6673 55.8531 44.3704 58.2699 41.5729 60.0265C40.1353 60.928 38.5814 61.6399 36.9518 62.1433C36.14 62.3909 35.3146 62.5939 34.4794 62.7514C33.6324 62.8986 32.7749 62.9814 31.9147 62.9991C31.7622 63.0052 31.61 62.9812 31.4673 62.9284C31.3245 62.8757 31.1942 62.7954 31.0841 62.6923C30.974 62.5892 30.8865 62.4655 30.8267 62.3286C30.767 62.1917 30.7362 62.0444 30.7363 61.8956C30.73 61.6008 30.8427 61.3153 31.0501 61.1005C31.2575 60.8857 31.5431 60.7588 31.8454 60.7471L31.9379 60.7696Z" fill="white" stroke="white" stroke-width="2"/>
<path d="M14.5861 55.3189C15.8375 56.3427 17.2394 57.1776 18.7451 57.796C20.2718 58.4391 21.8806 58.8785 23.5279 59.1022C26.9086 59.5746 30.3573 59.09 33.4634 57.706C30.4356 59.4608 26.9564 60.3359 23.4355 60.2282C21.6413 60.1667 19.8628 59.8791 18.1444 59.3724C16.4056 58.8637 14.7545 58.1046 13.2459 57.1204C13.12 57.0361 13.0123 56.9284 12.9291 56.8036C12.8458 56.6788 12.7887 56.5393 12.7608 56.3929C12.7329 56.2465 12.7348 56.0962 12.7665 55.9506C12.7983 55.8049 12.8591 55.6667 12.9456 55.544C13.0321 55.4213 13.1425 55.3164 13.2706 55.2353C13.3987 55.1542 13.5418 55.0984 13.692 55.0712C13.8422 55.044 13.9964 55.0459 14.1458 55.0768C14.2953 55.1077 14.437 55.167 14.5629 55.2512C14.5629 55.2512 14.563 55.2738 14.5861 55.3189Z" fill="white" stroke="white" stroke-width="2"/>
<path d="M3.77212 40.862L4.11869 42.1008C5.18941 44.9501 6.95825 47.5012 9.27128 49.5323C10.4372 50.5712 11.7431 51.45 13.153 52.1445C14.6225 52.8497 16.1742 53.379 17.7742 53.721C16.1969 53.5316 14.6467 53.169 13.153 52.64C11.6026 52.0786 10.1344 51.3215 8.78601 50.3881C6.03983 48.459 3.8254 45.8984 2.33958 42.934L1.85431 41.7404C1.79478 41.6032 1.7644 41.4558 1.7649 41.3068C1.7654 41.1579 1.79675 41.0106 1.8572 40.8739C1.91765 40.7371 2.00593 40.6137 2.11662 40.511C2.2273 40.4083 2.35811 40.3287 2.50127 40.2766C2.64234 40.2218 2.79313 40.1945 2.945 40.1965C3.09688 40.1985 3.24692 40.2298 3.38641 40.2883C3.52591 40.3469 3.65218 40.4318 3.75802 40.5379C3.86385 40.6441 3.9471 40.7695 4.00312 40.9071C3.92821 40.8832 3.8507 40.8681 3.77212 40.862Z" fill="white" stroke="white" stroke-width="2"/>
<path d="M3.8189 23.049C3.29772 24.5943 2.93397 26.1859 2.73293 27.8007C2.57543 29.408 2.63763 31.0286 2.91781 32.62C3.19722 34.2363 3.71061 35.8059 4.44272 37.2816C5.21598 38.7707 6.16178 40.1685 7.26162 41.4477C5.99996 40.2887 4.88315 38.9887 3.9344 37.5744C2.99971 36.1091 2.27665 34.5253 1.78558 32.8676C1.2904 31.1978 1.02621 29.4711 1 27.7332C1.00582 25.9929 1.19158 24.2576 1.55451 22.5536C1.60354 22.255 1.77231 21.9875 2.02364 21.8102C2.27496 21.6328 2.58828 21.5599 2.89468 21.6077C3.20108 21.6555 3.47543 21.8199 3.65742 22.0649C3.83941 22.3098 3.91411 22.6153 3.86508 22.9139C3.86508 22.9139 3.8189 22.9139 3.8189 23.049Z" fill="white" stroke="white" stroke-width="2"/>
<path d="M14.6787 8.56857C13.3045 9.50249 12.0413 10.5826 10.9124 11.7889C9.79483 12.9893 8.84681 14.3298 8.09353 15.775C7.35483 17.2481 6.84107 18.8186 6.56855 20.4366C6.30289 22.0904 6.25631 23.7706 6.42992 25.4359C6.07484 23.7779 5.92742 22.0841 5.99091 20.3915C6.08224 18.6695 6.43259 16.9699 7.03069 15.3471C7.65657 13.7062 8.50348 12.1538 9.5492 10.7305C10.6228 9.33846 11.8297 8.04897 13.1537 6.87958C13.3774 6.67353 13.6758 6.56256 13.9835 6.57101C14.2911 6.57945 14.5827 6.70666 14.7942 6.92467C15.0056 7.14267 15.1195 7.43357 15.1108 7.73342C15.1022 8.03328 14.9717 8.31743 14.748 8.52349L14.6787 8.56857Z" fill="white" stroke="white" stroke-width="2"/>
<path d="M31.9389 3.16285H30.6911C27.7797 3.25781 24.9248 3.97263 22.3269 5.25718C19.6959 6.63956 17.4572 8.63577 15.8111 11.0673L15.1873 12.1033L15.6725 10.9999C17.0986 8.30287 19.1762 5.98428 21.7261 4.24389C24.3638 2.56248 27.3431 1.45629 30.4601 1.00103H30.5756H31.8233C32.1283 0.988461 32.4265 1.09169 32.6549 1.28912C32.8834 1.48656 33.0242 1.76272 33.0479 2.05939C33.0573 2.20732 33.0366 2.35568 32.9871 2.4958C32.9375 2.63592 32.8601 2.7651 32.7592 2.87599C32.6583 2.98688 32.5359 3.07726 32.3991 3.14195C32.2623 3.20665 32.1137 3.2444 31.9619 3.25301L31.9389 3.16285Z" fill="white" stroke="white" stroke-width="2"/>
</svg>
