<svg width="65" height="66" viewBox="0 0 65 66" fill="none" xmlns="http://www.w3.org/2000/svg">
<path d="M50.3131 9.0609C47.7439 7.16799 44.7447 5.9314 41.5799 5.46023C38.4074 5.03605 35.1783 5.44453 32.2146 6.64495C29.1888 7.89562 26.5425 9.90487 24.535 12.4757C22.5303 15.098 21.2329 18.1842 20.7654 21.4425C21.0527 18.1173 22.1889 14.9195 24.0667 12.1505C25.9971 9.34569 28.6376 7.09436 31.7228 5.62282C34.8672 4.14396 38.3432 3.49582 41.8141 3.74119C45.2939 4.07016 48.6427 5.22549 51.5775 7.10955C51.7223 7.1816 51.8506 7.28272 51.954 7.40648C52.0574 7.53024 52.1339 7.67396 52.1784 7.82854C52.223 7.98312 52.2347 8.1452 52.2128 8.30451C52.191 8.46382 52.136 8.61689 52.0515 8.75404C51.9669 8.89119 51.8546 9.00943 51.7216 9.10127C51.5886 9.19311 51.4378 9.25655 51.2788 9.28758C51.1198 9.31861 50.956 9.31654 50.7978 9.28152C50.6397 9.24649 50.4906 9.17928 50.36 9.08412L50.3131 9.0609Z" fill="white" stroke="white" stroke-width="2"/>
<path d="M61.059 23.9522C60.1588 21.0259 58.5512 18.3623 56.3763 16.1933C54.1698 13.991 51.4279 12.3908 48.4157 11.5473C45.3602 10.6994 42.1376 10.6354 39.0503 11.3615C35.9293 12.1241 33.0538 13.6586 30.6918 15.8216L29.8254 16.7741L30.6449 15.7752C32.9143 13.4308 35.752 11.7031 38.8865 10.7575C42.0718 9.80977 45.4478 9.68185 48.6967 10.3858C51.9841 11.0994 55.0365 12.6257 57.5704 14.8228C60.0947 17.0841 62.0374 19.9117 63.2364 23.0695C63.3056 23.2138 63.3439 23.3707 63.3491 23.5304C63.3543 23.6901 63.3262 23.8492 63.2667 23.9976C63.2071 24.1461 63.1173 24.2807 63.0029 24.3932C62.8884 24.5056 62.7518 24.5934 62.6017 24.6511C62.4515 24.7088 62.2909 24.7351 62.13 24.7284C61.9691 24.7217 61.8113 24.6821 61.6665 24.6122C61.5217 24.5422 61.393 24.4434 61.2884 24.3218C61.1839 24.2002 61.1058 24.0586 61.059 23.9057V23.9522Z" fill="white" stroke="white" stroke-width="2"/>
<path d="M61.0123 42.3498C61.9913 39.4421 62.2719 36.3477 61.8318 33.3133C61.3173 30.2699 60.0278 27.4073 58.0857 24.9969C56.1203 22.5368 53.5588 20.6107 50.6402 19.3985C47.6756 18.201 44.4533 17.7693 41.2748 18.144L40.0105 18.3763L41.2748 18.0743C44.492 17.4986 47.804 17.7465 50.8977 18.7945C54.0008 19.9065 56.7767 21.7664 58.9754 24.2071C61.2304 26.6976 62.8026 29.7213 63.541 32.988C64.2303 36.2697 64.1421 39.6652 63.2834 42.9073C63.2112 43.2056 63.0229 43.4634 62.7597 43.6244C62.4965 43.7855 62.1797 43.8367 61.8786 43.7668C61.7282 43.7342 61.5859 43.6718 61.4603 43.5834C61.3346 43.495 61.2282 43.3824 61.1474 43.2523C61.0665 43.1223 61.0129 42.9774 60.9897 42.8263C60.9665 42.6752 60.9742 42.5211 61.0123 42.373V42.3498Z" fill="white" stroke="white" stroke-width="2"/>
<path d="M50.102 57.2884L50.9683 56.4753C53.4258 54.694 55.3514 52.2858 56.5407 49.5063C57.7085 46.6028 58.1315 43.4571 57.7719 40.3514C57.4123 37.2457 56.2813 34.2772 54.4803 31.7121C52.6205 29.1173 50.1433 27.0186 47.269 25.6025C50.3183 26.8328 52.9971 28.8211 55.0474 31.3762C57.0977 33.9312 58.4506 36.9669 58.9758 40.191C59.5637 43.4784 59.2978 46.8602 58.2031 50.0174C57.0816 53.2382 55.089 56.0911 52.4434 58.264L51.6239 59.1468C51.5171 59.255 51.3896 59.3409 51.2489 59.3995C51.1082 59.4582 50.9571 59.4884 50.8045 59.4884C50.6519 59.4884 50.5008 59.4582 50.3601 59.3995C50.2193 59.3409 50.0918 59.255 49.985 59.1468C49.8753 59.0388 49.7882 58.9103 49.7288 58.7688C49.6693 58.6273 49.6388 58.4754 49.6388 58.3221C49.6388 58.1688 49.6693 58.0169 49.7288 57.8754C49.7882 57.7339 49.8753 57.6055 49.985 57.4975L50.102 57.2884Z" fill="white" stroke="white" stroke-width="2"/>
<path d="M32.5189 62.769H33.7832C36.8642 62.6193 39.8619 61.7263 42.5164 60.1673C45.1793 58.5477 47.3862 56.2861 48.9316 53.5931C50.4624 50.8481 51.2679 47.7634 51.273 44.6263C51.2347 41.427 50.4323 38.2824 48.9316 35.4504C50.5987 38.2348 51.5775 41.3712 51.7881 44.6031C51.9625 47.8875 51.2769 51.1607 49.7979 54.1042C48.3221 57.1105 46.088 59.6872 43.3124 61.5843C40.522 63.4709 37.3048 64.644 33.9471 64.9991H32.5891C32.4365 65.0053 32.2841 64.9812 32.141 64.9283C31.9979 64.8753 31.867 64.7946 31.7558 64.6907C31.6446 64.5868 31.5554 64.462 31.4934 64.3235C31.4315 64.185 31.398 64.0356 31.395 63.8841C31.3887 63.7315 31.4129 63.5792 31.466 63.4359C31.5191 63.2926 31.6001 63.1611 31.7045 63.0489C31.8089 62.9367 31.9345 62.846 32.0742 62.7821C32.214 62.7181 32.3651 62.6821 32.5189 62.6761V62.769Z" fill="white" stroke="white" stroke-width="2"/>
<path d="M14.8408 57.1024L16.948 58.3569C17.6098 58.7933 18.3162 59.1592 19.0553 59.4487C19.7708 59.7731 20.5155 60.0297 21.2795 60.2153C22.0441 60.4405 22.8278 60.596 23.6209 60.6799C26.7975 61.1119 30.0327 60.6866 32.9862 59.4487C36.0082 58.2026 38.6423 56.1823 40.619 53.5947C42.6191 50.9617 43.8867 47.8535 44.295 44.5814C44.0698 47.9485 42.9505 51.1965 41.0506 53.9954C39.1508 56.7944 36.538 59.0445 33.4779 60.5173C30.3482 62.0165 26.8763 62.6734 23.4102 62.4221C22.5352 62.3683 21.666 62.244 20.8113 62.0505C19.9469 61.8923 19.1 61.6511 18.2826 61.3303C17.4671 61.0651 16.6823 60.7146 15.9413 60.2849L13.5999 59.1234C13.3236 58.9787 13.1166 58.7309 13.0244 58.4347C12.9322 58.1384 12.9624 57.818 13.1083 57.5438C13.2542 57.2696 13.5039 57.0643 13.8025 56.9728C14.1011 56.8813 14.424 56.9112 14.7004 57.056L14.8408 57.1024Z" fill="white" stroke="white" stroke-width="2"/>
<path d="M3.97765 42.2346C5.40585 46.8439 8.60952 50.7079 12.8927 52.9871C17.1758 55.2664 22.1924 55.7766 26.8525 54.4071C30.0194 53.437 32.887 51.6868 35.1877 49.3198C32.9884 51.8458 30.1875 53.7863 27.0398 54.9647C23.8211 56.103 20.3577 56.3833 16.9955 55.7777C13.5472 55.1589 10.32 53.6621 7.63014 51.4337C4.98202 49.1669 2.93917 46.2862 1.68311 43.0476C1.56823 42.7611 1.57274 42.4411 1.69568 42.1579C1.81863 41.8748 2.04993 41.6516 2.33868 41.5377C2.62743 41.4237 2.95 41.4282 3.23541 41.5502C3.52081 41.6722 3.74566 41.9016 3.86054 42.1881L3.97765 42.2346Z" fill="white" stroke="white" stroke-width="2"/>
<path d="M4.02471 23.8133C3.07992 26.7366 2.82358 29.836 3.27546 32.8731C3.78522 35.9249 5.075 38.7962 7.02162 41.2127C9.00073 43.6672 11.58 45.5785 14.5139 46.7646C17.4927 47.9091 20.6998 48.3466 23.8793 48.0423L25.0031 47.7868L23.8793 48.112C20.6483 48.6244 17.3406 48.3616 14.233 47.3454C11.0664 46.27 8.2307 44.4069 5.99672 41.9342C3.76273 39.4615 2.20509 36.4617 1.47266 33.2215C0.784512 29.9274 0.848482 26.5222 1.65993 23.2558C1.69285 23.1065 1.75576 22.9653 1.84485 22.8407C1.93394 22.716 2.04743 22.6105 2.17853 22.5303C2.30963 22.45 2.45562 22.3968 2.60789 22.3738C2.76015 22.3508 2.91553 22.3584 3.06475 22.3963C3.36541 22.468 3.62525 22.6548 3.78756 22.9159C3.94987 23.1771 4.00145 23.4913 3.93104 23.7901L4.02471 23.8133Z" fill="white" stroke="white" stroke-width="2"/>
<path d="M14.9354 9.01442L13.9287 9.68807C11.5251 11.608 9.62858 14.0796 8.40305 16.8894C7.20379 19.7514 6.76059 22.8697 7.11534 25.9491C7.47596 29.0749 8.61884 32.0616 10.44 34.6372C12.3437 37.2096 14.8299 39.3024 17.6982 40.7467C14.7061 39.4492 12.0664 37.467 9.99514 34.9624C7.923 32.3984 6.54494 29.352 5.99147 26.1118C5.41572 22.8112 5.70603 19.4192 6.83439 16.2622C7.99732 13.0785 9.93575 10.2296 12.477 7.96907L13.4369 7.24894C13.5555 7.13345 13.6976 7.04433 13.8536 6.98753C14.0097 6.93073 14.1761 6.90754 14.3419 6.91951C14.5076 6.93147 14.6689 6.97832 14.815 7.05693C14.9611 7.13554 15.0887 7.2441 15.1892 7.37542C15.2897 7.50673 15.3609 7.6578 15.398 7.81853C15.4351 7.97926 15.4373 8.14598 15.4044 8.30762C15.3716 8.46926 15.3044 8.6221 15.2074 8.75598C15.1103 8.88986 14.9857 9.00173 14.8417 9.08411L14.9354 9.01442Z" fill="white" stroke="white" stroke-width="2"/>
<path d="M32.5179 3.36944H31.4877C28.5105 3.47326 25.5994 4.26893 22.9887 5.69245C20.3575 7.18832 18.1443 9.31228 16.55 11.8717C14.9454 14.4697 14.02 17.4241 13.8574 20.4668C13.7024 23.5606 14.2798 26.6474 15.5432 29.4801L16.0817 30.479L15.4963 29.5265C14.0167 26.7283 13.215 23.6262 13.155 20.4668C13.1398 17.2379 13.9423 14.0569 15.4886 11.2157C17.035 8.37451 19.2757 5.96412 22.0053 4.20573C24.781 2.42741 27.9427 1.32869 31.2302 1H32.354C32.6645 1 32.9623 1.12235 33.1818 1.34018C33.4014 1.558 33.5247 1.85345 33.5247 2.1615C33.5247 2.46955 33.4014 2.76497 33.1818 2.9828C32.9623 3.20062 32.6645 3.32301 32.354 3.32301L32.5179 3.36944Z" fill="white" stroke="white" stroke-width="2"/>
</svg>
