<svg width="64" height="65" viewBox="0 0 64 65" fill="none" xmlns="http://www.w3.org/2000/svg">
<path d="M59.8748 41.5257L60.3122 40.3177C61.1973 36.9976 61.1176 33.4976 60.082 30.2205C58.997 26.9161 56.9456 24.0048 54.1877 21.8556C51.4082 19.6324 48.0288 18.2688 44.4713 17.9352C40.8682 17.6637 37.2577 18.3565 34.0181 19.941C37.2205 18.1666 40.8488 17.2844 44.5173 17.3882C48.244 17.5478 51.8402 18.7926 54.8553 20.9667C57.9744 23.1413 60.3769 26.1777 61.7627 29.6963C63.0681 33.2661 63.347 37.1244 62.5686 40.8419L62.1772 42.0727C62.0641 42.3287 61.8599 42.5346 61.6035 42.6514C61.3471 42.7681 61.0563 42.7876 60.7863 42.706C60.5164 42.6244 60.2861 42.4475 60.1392 42.2089C59.9924 41.9703 59.9393 41.6866 59.9899 41.4117L59.8748 41.5257Z" fill="white" stroke="white" stroke-width="2"/>
<path d="M49.1453 56.2044C51.9378 54.1607 54.1375 51.425 55.5231 48.2726C56.8343 45.0561 57.1626 41.5293 56.4671 38.1298C55.7772 34.688 54.089 31.5198 51.6089 29.0128C49.0867 26.4944 45.8922 24.7392 42.399 23.9528L41.0176 23.7704H42.399C46.0334 24.3778 49.4145 26.0078 52.1385 28.4658C54.8852 30.9693 56.8237 34.2204 57.7104 37.8107C58.6419 41.4466 58.4818 45.2724 57.2499 48.8196C55.9339 52.3713 53.6941 55.5163 50.757 57.9367C50.5379 58.147 50.2448 58.2645 49.9396 58.2645C49.6345 58.2645 49.3413 58.147 49.1222 57.9367C49.0222 57.8253 48.9456 57.6952 48.8971 57.5541C48.8486 57.4129 48.8292 57.2636 48.8399 57.1149C48.8506 56.9662 48.8914 56.8212 48.9596 56.6883C49.0279 56.5554 49.1223 56.4374 49.2373 56.3412L49.1453 56.2044Z" fill="white" stroke="white" stroke-width="2"/>
<path d="M31.8076 61.6742H33.189C36.6101 61.4462 39.9009 60.2867 42.6982 58.3237C45.5363 56.2632 47.7049 53.4272 48.9379 50.1639C50.1937 46.8666 50.4498 43.2781 49.6747 39.8388C48.827 36.3913 47.0436 33.2386 44.5172 30.7217C47.2268 33.1867 49.2019 36.3401 50.2273 39.8388C51.2037 43.4274 51.1078 47.2193 49.9513 50.7551C48.7948 54.2908 46.6272 57.4187 43.7113 59.7596C40.7098 62.1212 37.093 63.5913 33.2811 63.9991H31.8076C31.6556 64.0052 31.5039 63.9809 31.3617 63.9275C31.2194 63.8741 31.0895 63.7928 30.9799 63.6885C30.8702 63.5842 30.7829 63.459 30.7234 63.3204C30.6638 63.1819 30.6332 63.0328 30.6333 62.8822C30.627 62.5838 30.7393 62.2948 30.946 62.0775C31.1527 61.8601 31.4372 61.7317 31.7385 61.7198L31.8076 61.6742Z" fill="white" stroke="white" stroke-width="2"/>
<path d="M14.4704 56.0433C17.2772 58.0491 20.5778 59.2695 24.0256 59.5762C27.5256 59.8111 31.0176 59.0182 34.0644 57.297C37.1737 55.5836 39.7104 53.0091 41.3632 49.8893C43.0122 46.6991 43.7071 43.1092 43.3663 39.5414L43.1361 38.1739L43.4584 39.5414C43.9706 43.1529 43.4439 46.8342 41.9388 50.1628C40.3742 53.5241 37.8435 56.3544 34.663 58.2998C31.4574 60.2837 27.7362 61.2977 23.9566 61.2173C20.1471 61.0588 16.4468 59.9112 13.2271 57.8895C13.0941 57.8145 12.9779 57.7135 12.8856 57.5926C12.7933 57.4717 12.7269 57.3335 12.6902 57.1864C12.6536 57.0393 12.6476 56.8863 12.6726 56.7368C12.6976 56.5873 12.7531 56.4445 12.8356 56.3169C12.9156 56.1895 13.0201 56.0789 13.1433 55.9916C13.2665 55.9043 13.4059 55.8419 13.5535 55.808C13.7011 55.7741 13.854 55.7694 14.0034 55.7942C14.1529 55.8189 14.2959 55.8726 14.4243 55.9522L14.4704 56.0433Z" fill="white" stroke="white" stroke-width="2"/>
<path d="M3.71751 41.4334C4.06288 42.2995 4.40823 43.0973 4.77662 43.8494C5.09234 44.6536 5.50188 45.4186 5.99693 46.1287C6.4378 46.8636 6.95483 47.5511 7.53961 48.18L8.41456 49.1373C8.71388 49.4336 9.05921 49.6844 9.38155 49.9579C12.1017 52.1921 15.4184 53.5967 18.9292 54.0013C22.44 54.4059 25.9939 53.793 29.1597 52.2371C32.3892 50.6188 35.0762 48.1093 36.896 45.0119L37.4716 43.7811L36.9421 45.0346C35.2518 48.2835 32.644 50.9759 29.4361 52.7842C26.1378 54.5734 22.3869 55.3791 18.6362 55.1041C14.8855 54.8291 11.2953 53.485 8.29939 51.2343C7.90395 50.9712 7.52703 50.6818 7.17121 50.3681L6.15812 49.3653C5.46525 48.6773 4.85488 47.9125 4.33915 47.086C3.74625 46.3416 3.24394 45.5306 2.84256 44.67C2.38207 43.8342 1.96761 43.0137 1.59921 42.2084C1.53363 42.074 1.4959 41.928 1.48826 41.779C1.48062 41.63 1.50329 41.481 1.5548 41.3407C1.60632 41.2005 1.68568 41.0719 1.78823 40.9626C1.89078 40.8532 2.01441 40.7653 2.15185 40.704C2.29065 40.6394 2.44105 40.6029 2.59431 40.5966C2.74758 40.5903 2.90058 40.6145 3.0443 40.6676C3.18801 40.7206 3.31959 40.8016 3.43125 40.9057C3.5429 41.0099 3.63236 41.135 3.69446 41.2738L3.71751 41.4334Z" fill="white" stroke="white" stroke-width="2"/>
<path d="M3.78596 23.4055C3.53269 24.34 3.34847 25.2061 3.1873 26.0494L2.93406 27.3486V28.6478C2.93406 29.1037 2.93406 29.5367 2.93406 29.9698L3.0722 31.269C3.12082 32.1501 3.27543 33.0224 3.53273 33.8673C4.45715 37.3298 6.41503 40.4357 9.15067 42.7793C11.9442 45.1473 15.3951 46.6249 19.0513 47.0187L20.4328 47.1555H21.8142H23.1957L24.5542 46.882L25.9127 46.6085L27.225 46.1526C28.123 45.8563 28.998 45.5144 29.8499 45.1497C29.021 45.56 28.169 45.9475 27.2941 46.2894L25.9818 46.8136L24.6232 47.1555L23.2418 47.4974L21.8373 47.6341L20.4328 47.7709H19.0053C15.1642 47.5471 11.4807 46.1807 8.43692 43.8505C5.35963 41.4603 3.07451 38.2139 1.87495 34.5283C1.54717 33.6137 1.3232 32.6657 1.20721 31.702L1 30.2661C1 29.7647 1 29.286 1 28.8074V27.3486L1.20721 25.8899C1.20721 24.9326 1.48347 23.9753 1.66766 23.0864C1.69497 22.9383 1.75227 22.7971 1.83609 22.6715C1.91991 22.5458 2.02855 22.4382 2.15545 22.3552C2.28234 22.2722 2.42488 22.2154 2.57451 22.1883C2.72414 22.1612 2.8778 22.1643 3.02618 22.1975C3.17467 22.2298 3.31519 22.2909 3.43969 22.3773C3.56419 22.4637 3.67019 22.5736 3.75153 22.7008C3.83288 22.8279 3.88796 22.9698 3.91364 23.1181C3.93931 23.2665 3.93501 23.4184 3.90106 23.5651L3.78596 23.4055Z" fill="white" stroke="white" stroke-width="2"/>
<path d="M14.5393 8.88666L13.411 9.68442C10.8206 11.8035 8.85582 14.5752 7.72393 17.7074C6.62216 20.9344 6.47012 24.405 7.28547 27.7142C8.10083 31.0235 9.84995 34.035 12.3289 36.3974C14.8851 38.8248 18.0745 40.4981 21.5387 41.2295L22.7821 41.389H21.5387C18.0001 40.7607 14.7032 39.1841 12.0066 36.8305C9.28701 34.4475 7.30683 31.3491 6.29641 27.8958C5.28303 24.3954 5.28303 20.6836 6.29641 17.1832C7.36921 13.6785 9.38247 10.5275 12.1216 8.06612L13.2038 7.22281C13.3232 7.13002 13.46 7.06141 13.6062 7.02093C13.7524 6.98045 13.9053 6.96888 14.056 6.98687C14.2067 7.00486 14.3524 7.05207 14.4847 7.12579C14.617 7.19951 14.7334 7.29831 14.8271 7.41654C14.9208 7.53477 14.9901 7.67013 15.031 7.81486C15.0719 7.9596 15.0835 8.11089 15.0654 8.2601C15.0472 8.40932 14.9995 8.55352 14.925 8.68449C14.8506 8.81546 14.7508 8.93064 14.6313 9.02343L14.5393 8.88666Z" fill="white" stroke="white" stroke-width="2"/>
<path d="M31.8074 3.37044H30.6562C27.1783 3.50745 23.8169 4.64834 20.9858 6.65259C18.1581 8.75826 16.003 11.6256 14.778 14.9118C13.5531 18.1979 13.3102 21.7638 14.0784 25.183C14.9271 28.6504 16.7466 31.8104 19.328 34.3001C16.5668 31.8613 14.5558 28.7015 13.5258 25.183C12.523 21.6125 12.6192 17.827 13.8021 14.3109C14.9587 10.7032 17.1671 7.51458 20.1496 5.14613C23.1321 2.77768 26.7555 1.33515 30.5641 1H31.8074C32.1127 1 32.4055 1.12007 32.6214 1.33379C32.8373 1.54751 32.9586 1.83738 32.9586 2.13963C32.9586 2.44188 32.8373 2.73176 32.6214 2.94548C32.4055 3.1592 32.1127 3.27927 31.8074 3.27927V3.37044Z" fill="white" stroke="white" stroke-width="2"/>
<path d="M49.3064 8.95512C46.414 6.85685 42.9825 5.60867 39.4058 5.35389C35.7811 5.14746 32.1778 6.02927 29.0678 7.88388C25.9152 9.78518 23.4124 12.5804 21.8841 15.9069C21.4817 16.729 21.1727 17.5928 20.9631 18.4825L20.5947 19.8044L20.4335 21.172L20.2954 22.5624V23.9299C20.2954 24.8644 20.2953 25.7989 20.4565 26.7106C20.3184 25.7989 20.2263 24.8872 20.1573 23.9527L20.019 22.5624V21.1492V19.7589L20.3184 18.3685C20.4878 17.4457 20.758 16.5439 21.1243 15.679C22.5434 12.1209 25.0153 9.0702 28.2159 6.92657C31.518 4.72069 35.4226 3.56746 39.4058 3.62164C43.3424 3.70528 47.1775 4.87344 50.4807 6.99496C50.6086 7.07194 50.7198 7.17333 50.8077 7.29326C50.8956 7.41319 50.9586 7.54926 50.9928 7.69351C51.0271 7.83777 51.0321 7.98732 51.0074 8.13348C50.9827 8.27965 50.9289 8.4195 50.8491 8.54487C50.771 8.67414 50.6678 8.7868 50.5455 8.87636C50.4231 8.96592 50.2841 9.03059 50.1364 9.06662C49.9886 9.10265 49.8351 9.10933 49.6848 9.08629C49.5344 9.06324 49.3902 9.01091 49.2604 8.93234L49.3064 8.95512Z" fill="white" stroke="white" stroke-width="2"/>
<path d="M59.8745 23.5203L59.4831 22.2895C58.2433 19.1928 56.1832 16.4842 53.5197 14.4488C50.8142 12.3977 47.5684 11.1631 44.1717 10.8931C40.7232 10.6068 37.264 11.3028 34.202 12.8989C31.105 14.545 28.5125 16.9855 26.696 19.9646L26.1204 21.1726L26.6499 19.9418C28.3388 16.8276 30.8442 14.2215 33.9026 12.3974C37.0248 10.5637 40.6125 9.65408 44.2407 9.77625C47.9123 9.90467 51.4722 11.0583 54.5097 13.104C57.5681 15.2125 60.0008 18.0929 61.5553 21.4461L61.9927 22.6541C62.0867 22.9358 62.0659 23.2427 61.9349 23.5095C61.8039 23.7764 61.5729 23.9821 61.2911 24.083C61.0092 24.1839 60.6988 24.172 60.4257 24.0499C60.1525 23.9278 59.9383 23.7051 59.8284 23.4291L59.8745 23.5203Z" fill="white" stroke="white" stroke-width="2"/>
</svg>
