<svg width="63" height="64" viewBox="0 0 63 64" fill="none" xmlns="http://www.w3.org/2000/svg">
<path d="M48.6533 8.89473C45.2854 6.31444 41.0906 5.0212 36.8374 5.252C32.5842 5.48281 28.5575 7.22221 25.495 10.1515C23.446 12.212 21.8545 14.6733 20.8225 17.3777C21.7492 14.6077 23.2303 12.0509 25.1775 9.8597C27.2072 7.67289 29.7341 5.99588 32.5492 4.96744C35.4412 3.95632 38.5331 3.63261 41.575 4.02247C44.6169 4.41232 47.5235 5.50479 50.0597 7.2116C50.1987 7.28541 50.3207 7.38711 50.4178 7.51021C50.5148 7.6333 50.5848 7.77506 50.6233 7.92647C50.6619 8.07787 50.6681 8.23561 50.6415 8.3895C50.6149 8.5434 50.5561 8.69007 50.4689 8.82021C50.3817 8.95036 50.2682 9.06111 50.1353 9.14532C50.0024 9.22953 49.8532 9.28537 49.6972 9.30927C49.5413 9.33318 49.3821 9.3246 49.2297 9.28414C49.0773 9.24368 48.935 9.17217 48.8121 9.07423L48.6533 8.89473Z" fill="white" stroke="white" stroke-width="2"/>
<path d="M59.1317 23.3247C58.3323 20.6764 56.9452 18.2383 55.0716 16.1883C53.1383 14.162 50.7428 12.623 48.0855 11.6999C45.3895 10.7553 42.5041 10.4629 39.6705 10.8472C36.7897 11.2701 34.0396 12.3202 31.6184 13.9216C33.9632 12.1532 36.6741 10.9194 39.5571 10.3086C42.5034 9.70542 45.5531 9.81315 48.4484 10.6227C51.3814 11.4797 54.0646 13.0187 56.2738 15.1111C58.4822 17.2269 60.1867 19.8027 61.2638 22.6515C61.319 22.7885 61.3464 22.9349 61.3444 23.0825C61.3424 23.23 61.311 23.3756 61.252 23.5111C61.193 23.6466 61.1076 23.7692 61.0007 23.872C60.8937 23.9748 60.7673 24.0558 60.6287 24.1102C60.3485 24.2145 60.0384 24.2073 59.7634 24.0902C59.4885 23.973 59.2702 23.7549 59.1544 23.4818L59.1317 23.3247Z" fill="white" stroke="white" stroke-width="2"/>
<path d="M59.087 41.0985C59.9896 38.4662 60.3068 35.6721 60.017 32.9073C59.6717 30.1378 58.6606 27.4906 57.0683 25.1874C55.3984 22.847 53.2011 20.923 50.6502 19.5675C48.0993 18.2121 45.2646 17.4624 42.3704 17.3777C46.9084 17.1947 51.3609 18.6372 54.9107 21.4404C58.4605 24.2435 60.8694 28.2192 61.6954 32.638C62.2053 35.6238 62.0739 38.6824 61.3099 41.6146C61.2756 41.762 61.2124 41.9012 61.1237 42.0244C61.0351 42.1475 60.9227 42.2523 60.7932 42.3325C60.6637 42.4127 60.5195 42.4669 60.3688 42.492C60.218 42.5171 60.0638 42.5125 59.9149 42.4786C59.7659 42.4447 59.6252 42.3822 59.5007 42.2945C59.3762 42.2068 59.2705 42.0957 59.1894 41.9675C59.1083 41.8394 59.0535 41.6966 59.0282 41.5475C59.0028 41.3984 59.0074 41.2458 59.0417 41.0985H59.087Z" fill="white" stroke="white" stroke-width="2"/>
<path d="M48.6303 55.2806L50.3087 54.136C53.2806 51.4925 55.2873 47.9523 56.0173 44.0648C56.7473 40.1774 56.1599 36.1602 54.3461 32.6369C53.0526 30.2544 51.2768 28.1612 49.1293 26.4879C51.4222 28.0339 53.3554 30.0461 54.7998 32.3901C56.2376 34.779 57.1208 37.4542 57.3855 40.2222C57.6508 43.0465 57.2843 45.894 56.3122 48.5624C55.34 51.2308 53.786 53.6547 51.7604 55.662L50.1726 56.9188C50.0565 57.0116 49.923 57.0809 49.7797 57.1226C49.6365 57.1644 49.4863 57.1779 49.3378 57.1623C49.1893 57.1467 49.0454 57.1022 48.9143 57.0316C48.7831 56.9609 48.6673 56.8654 48.5735 56.7505C48.4797 56.6356 48.4097 56.5034 48.3674 56.3617C48.3252 56.22 48.3116 56.0715 48.3274 55.9245C48.3432 55.7776 48.3881 55.6352 48.4595 55.5055C48.5309 55.3757 48.6275 55.2611 48.7437 55.1683L48.6303 55.2806Z" fill="white" stroke="white" stroke-width="2"/>
<path d="M31.4824 60.8456H32.5711C35.2114 60.7433 37.7972 60.0718 40.1479 58.8779C42.4986 57.684 44.5573 55.9966 46.1803 53.9336C47.8162 51.8014 48.9554 49.3376 49.5162 46.7188C50.0769 44.1 50.0454 41.3908 49.4238 38.7855L49.0383 37.8204L49.4692 38.763C50.2788 41.4141 50.4851 44.2097 50.0733 46.9491C49.6615 49.6884 48.6419 52.3035 47.0876 54.6068C45.4659 56.9498 43.3473 58.9146 40.8793 60.3642C38.4113 61.8138 35.6534 62.7133 32.7979 62.9999H31.6185C31.3177 62.9999 31.0292 62.8818 30.8165 62.6713C30.6038 62.4609 30.4844 62.1755 30.4844 61.8779C30.4844 61.5803 30.6038 61.2949 30.8165 61.0844C31.0292 60.874 31.3177 60.7558 31.6185 60.7558L31.4824 60.8456Z" fill="white" stroke="white" stroke-width="2"/>
<path d="M14.517 55.3251L15.3109 56.0208H15.1974C18.6145 58.3121 22.7287 59.3609 26.8395 58.9885C30.9502 58.6162 34.8035 56.8457 37.7433 53.9786C39.7214 51.9745 41.265 49.5919 42.2798 46.9768C41.4351 49.678 40.0463 52.182 38.197 54.3377C36.2637 56.4852 33.8473 58.1534 31.1429 59.2075C28.3685 60.2846 25.3807 60.7152 22.411 60.4662C19.4414 60.2171 16.5695 59.295 14.018 57.7712L13.1787 57.1429C12.9401 56.957 12.7849 56.6856 12.7467 56.3875C12.7085 56.0894 12.7904 55.7885 12.9746 55.5495C13.169 55.3217 13.4442 55.1761 13.7437 55.1427C14.0432 55.1093 14.3442 55.1906 14.585 55.37L14.517 55.3251Z" fill="white" stroke="white" stroke-width="2"/>
<path d="M3.81105 40.9184C4.66047 43.4685 6.02652 45.8205 7.82575 47.8305C9.66532 49.8093 11.9388 51.3448 14.4716 52.3188C17.0784 53.3048 19.8785 53.6879 22.6579 53.439C25.4373 53.19 28.1223 52.3156 30.5078 50.8825L31.3471 50.2318L30.5532 50.9274C26.9545 53.4053 22.5968 54.5677 18.227 54.2156C13.8571 53.8635 9.74701 52.0187 6.60097 48.9974C4.51072 46.9382 2.85325 44.4899 1.72428 41.7937C1.60907 41.5193 1.6062 41.2115 1.71625 40.9351C1.8263 40.6587 2.04067 40.4354 2.31403 40.3125C2.45098 40.2531 2.59846 40.221 2.74797 40.2182C2.89749 40.2154 3.0461 40.2419 3.18523 40.2961C3.32437 40.3503 3.45127 40.4313 3.55868 40.5342C3.66608 40.6372 3.75187 40.7602 3.81105 40.896V40.9184Z" fill="white" stroke="white" stroke-width="2"/>
<path d="M3.85662 23.2339C2.9761 25.8324 2.69708 28.5934 3.0401 31.3129C3.39652 34.0764 4.41526 36.7155 6.01144 39.0105C7.65691 41.3438 9.83486 43.2606 12.3688 44.6057C14.9026 45.9509 17.7212 46.6864 20.596 46.7528C16.0872 46.9275 11.6651 45.4942 8.13477 42.7139C4.60445 39.9336 2.20084 35.9912 1.36165 31.6047C0.78904 28.6265 0.897507 25.5593 1.67917 22.628C1.75436 22.3304 1.94596 22.0746 2.21182 21.9168C2.47767 21.759 2.79601 21.7121 3.09679 21.7865C3.39758 21.8609 3.6562 22.0504 3.81571 22.3135C3.97523 22.5765 4.02257 22.8915 3.94737 23.1891L3.85662 23.2339Z" fill="white" stroke="white" stroke-width="2"/>
<path d="M14.5171 8.8501L12.9293 10.0619L11.5458 11.3859L10.2756 12.8447L9.18682 14.438C7.89173 16.6963 7.11719 19.2099 6.91862 21.7989C6.69916 24.4546 7.07993 27.1253 8.03327 29.6173C8.98661 32.1093 10.4886 34.3601 12.4303 36.2064L14.1542 37.5978L12.3397 36.3186C9.12358 33.5865 6.9281 29.8649 6.10549 25.7506C5.28287 21.6364 5.8808 17.368 7.80325 13.6301C8.14348 13.0017 8.52903 12.3959 8.89194 11.7899L10.1621 10.0619L11.6592 8.49102L13.2016 7.12205C13.307 7.01688 13.4324 6.93342 13.5706 6.87645C13.7088 6.81949 13.857 6.79016 14.0068 6.79016C14.1565 6.79016 14.3047 6.81949 14.4429 6.87645C14.5811 6.93342 14.7066 7.01688 14.812 7.12205C15.0198 7.3318 15.1361 7.61381 15.1361 7.90752C15.1361 8.20122 15.0198 8.48324 14.812 8.69299L14.5171 8.8501Z" fill="white" stroke="white" stroke-width="2"/>
<path d="M31.6191 3.30592H30.5303C27.8204 3.35193 25.1606 4.0353 22.7705 5.29963C20.3804 6.56396 18.3287 8.37293 16.785 10.577C15.1556 12.7993 14.0687 15.3649 13.6095 18.0725C13.1392 20.8296 13.2784 23.6548 14.0178 26.3535C13.0673 23.6925 12.6963 20.8628 12.929 18.05C13.2375 15.1954 14.1994 12.4478 15.7416 10.0159C17.2865 7.50544 19.4126 5.39442 21.9445 3.85703C24.4764 2.31965 27.3416 1.39997 30.3035 1.17394L31.3922 1.01683C31.5384 0.991235 31.6883 0.994862 31.833 1.02752C31.9778 1.06017 32.1144 1.12119 32.2349 1.20695C32.3554 1.29271 32.4573 1.40154 32.5346 1.52692C32.612 1.65229 32.6632 1.79169 32.6851 1.93695C32.7077 2.08285 32.7009 2.23174 32.6652 2.37505C32.6295 2.51836 32.5655 2.65331 32.4771 2.77214C32.3886 2.89096 32.2772 2.99133 32.1494 3.06752C32.0217 3.14371 31.88 3.19421 31.7325 3.21614L31.6191 3.30592Z" fill="white" stroke="white" stroke-width="2"/>
</svg>
