<svg width="595" height="594" viewBox="0 0 595 594" fill="none" xmlns="http://www.w3.org/2000/svg">
<g clip-path="url(#clip0_2711_14209)">
<circle cx="297" cy="297" r="265" fill="url(#paint0_radial_2711_14209)"/>
<circle cx="297" cy="297" r="296.5" stroke="#F2D861" stroke-opacity="0.5"/>
<path d="M38.3796 181C23.3414 215.455 15 253.503 15 293.5C15 329.286 21.6775 363.512 33.8545 395" stroke="url(#paint1_linear_2711_14209)" stroke-opacity="0.5" stroke-width="8" stroke-linecap="round"/>
<path d="M564.421 312.509C566.351 274.964 560.748 236.418 546.652 198.987C534.04 165.498 515.728 135.821 493.235 110.645" stroke="url(#paint2_linear_2711_14209)" stroke-opacity="0.5" stroke-width="8" stroke-linecap="round"/>
<path d="M577.386 251.248C569 209.249 552.014 168.253 525.963 130.869C502.654 97.4215 474.12 69.7807 442.229 48.2807" stroke="url(#paint3_linear_2711_14209)" stroke-opacity="0.5" stroke-width="4" stroke-linecap="round"/>
<path d="M471.513 81.4428C441.841 57.5092 406.862 39.1633 367.743 28.454C332.743 18.8722 297.48 16.239 263.423 19.7175" stroke="url(#paint4_linear_2711_14209)" stroke-opacity="0.5" stroke-width="2" stroke-linecap="round"/>
<path d="M163.966 70.293C133.792 87.9484 106.683 111.972 84.775 142.028C65.1735 168.921 51.4444 198.298 43.3475 228.631" stroke="url(#paint5_linear_2711_14209)" stroke-opacity="0.5" stroke-width="12" stroke-linecap="round"/>
<circle cx="297.5" cy="296.5" r="139" stroke="white" stroke-opacity="0.5"/>
<path d="M549.5 297C549.5 436.452 436.452 549.5 297 549.5C157.548 549.5 44.5 436.452 44.5 297C44.5 157.548 157.548 44.5 297 44.5C436.452 44.5 549.5 157.548 549.5 297Z" stroke="#F2D861" stroke-opacity="0.5"/>
<ellipse cx="319.042" cy="60.6444" rx="319.042" ry="60.6444" transform="matrix(0.828587 -0.55986 0.52434 0.851509 -11.1367 390.238)" stroke="url(#paint6_linear_2711_14209)" stroke-width="2" stroke-dasharray="2 4"/>
<path d="M525.782 472.176C521.355 481.208 510.216 490.103 493.378 498.452C476.575 506.783 454.355 514.434 428.227 520.994C375.985 534.111 308.378 542.799 237.811 543.925C167.244 545.051 107.156 538.4 67.0507 526.757C46.9924 520.934 31.982 513.876 23.1455 505.955C14.2904 498.016 11.7654 489.339 16.1924 480.307C20.6195 471.275 31.758 462.38 48.5961 454.031C65.399 445.701 87.6195 438.049 113.747 431.489C165.989 418.372 233.596 409.684 304.163 408.558C374.73 407.432 434.818 414.083 474.924 425.726C494.982 431.549 509.992 438.607 518.829 446.529C527.684 454.467 530.209 463.144 525.782 472.176Z" stroke="#FBD161" stroke-width="2"/>
<ellipse cx="223.618" cy="65.8071" rx="223.618" ry="65.8071" transform="matrix(-0.957541 -0.288297 -0.14772 0.989029 515.277 379.053)" stroke="url(#paint7_linear_2711_14209)" stroke-width="2" stroke-dasharray="2 4"/>
<path d="M558.378 538.452C558.44 539.092 558.446 539.723 558.397 540.344L557.361 540.39C557.291 541.278 557.096 542.139 556.776 542.974C556.455 543.808 556.011 544.613 555.443 545.388L556.282 545.857C555.884 546.4 555.433 546.927 554.929 547.44L554.199 546.843C552.961 548.102 551.355 549.286 549.376 550.389L549.832 551.195C549.228 551.532 548.593 551.86 547.929 552.178L547.541 551.338C545.83 552.158 543.903 552.922 541.765 553.628L542.007 554.528C541.342 554.747 540.658 554.961 539.955 555.169L539.749 554.258C537.876 554.812 535.864 555.324 533.717 555.795L533.839 556.727C533.163 556.876 532.475 557.02 531.774 557.159L531.674 556.222C529.722 556.612 527.668 556.969 525.516 557.293L525.562 558.24C524.872 558.344 524.173 558.445 523.464 558.542L523.434 557.593C521.446 557.866 519.381 558.113 517.241 558.333L517.232 559.287C516.563 559.356 515.887 559.422 515.204 559.486L515.223 558.531C513.217 558.719 511.149 558.884 509.02 559.027L508.971 559.984C508.294 560.029 507.61 560.072 506.921 560.113L506.979 559.156C504.965 559.276 502.899 559.377 500.784 559.459L500.702 560.417C500.022 560.443 499.336 560.468 498.646 560.49L498.734 559.531C496.716 559.597 494.655 559.645 492.551 559.677L492.443 560.636C491.763 560.646 491.078 560.655 490.389 560.662L490.503 559.702C488.482 559.722 486.424 559.727 484.329 559.717L484.199 560.676C483.521 560.673 482.839 560.668 482.154 560.661L482.289 559.702C480.265 559.683 478.208 559.65 476.119 559.603L475.97 560.562C475.295 560.547 474.618 560.531 473.937 560.513L474.09 559.554C472.062 559.501 470.005 559.435 467.919 559.356L467.753 560.315C467.083 560.289 466.41 560.263 465.734 560.235L465.904 559.277C463.881 559.193 461.831 559.098 459.756 558.991L459.575 559.949C458.9 559.914 458.222 559.879 457.542 559.841L457.726 558.884C455.719 558.774 453.688 558.654 451.635 558.522L451.441 559.479C450.755 559.436 450.067 559.391 449.377 559.345L449.575 558.388C447.577 558.254 445.558 558.11 443.518 557.957L443.312 558.913C442.633 558.862 441.953 558.81 441.27 558.756L441.48 557.801C439.473 557.644 437.447 557.478 435.402 557.302L435.184 558.257C434.513 558.2 433.839 558.141 433.164 558.081L433.385 557.126C431.368 556.948 429.334 556.76 427.283 556.564L427.055 557.518C426.39 557.454 425.723 557.389 425.055 557.324L425.286 556.37C423.282 556.173 421.263 555.968 419.229 555.754L418.991 556.707C418.312 556.636 417.631 556.563 416.949 556.49L417.189 555.537C415.202 555.324 413.201 555.102 411.186 554.872L410.939 555.825C410.267 555.748 409.594 555.671 408.92 555.593L409.169 554.641C407.17 554.409 405.158 554.169 403.133 553.921L402.877 554.872C402.212 554.791 401.546 554.709 400.879 554.626L401.137 553.675C399.136 553.426 397.123 553.17 395.098 552.906L394.833 553.856C394.166 553.769 393.497 553.682 392.826 553.593L393.092 552.643C391.111 552.381 389.119 552.112 387.115 551.835L386.843 552.785C386.174 552.692 385.505 552.599 384.834 552.506L385.108 551.557C383.121 551.279 381.124 550.994 379.116 550.702L378.837 551.65C378.175 551.554 377.512 551.457 376.848 551.36L377.129 550.412C375.139 550.119 373.138 549.819 371.128 549.513L370.841 550.46C370.177 550.358 369.512 550.256 368.846 550.154L369.135 549.207C367.163 548.903 365.182 548.592 363.192 548.275L362.898 549.221C362.235 549.115 361.57 549.008 360.904 548.901L361.2 547.955C359.221 547.636 357.233 547.311 355.238 546.98L354.937 547.924C354.28 547.815 353.621 547.705 352.962 547.594L353.264 546.65C351.287 546.318 349.303 545.98 347.311 545.636L347.004 546.58C346.339 546.465 345.674 546.349 345.008 546.233L345.316 545.29C343.355 544.947 341.387 544.599 339.412 544.245L339.099 545.188C338.44 545.07 337.781 544.951 337.121 544.832L337.436 543.889C335.463 543.533 333.483 543.17 331.496 542.801L331.176 543.742C330.523 543.621 329.87 543.499 329.216 543.377L329.537 542.436C327.576 542.069 325.608 541.696 323.635 541.317L323.309 542.257C322.651 542.131 321.992 542.004 321.333 541.877L321.66 540.936C319.702 540.558 317.738 540.173 315.769 539.783L315.437 540.723C314.785 540.593 314.131 540.463 313.477 540.333L313.81 539.394C311.85 539.003 309.884 538.606 307.914 538.203L307.576 539.141C306.92 539.008 306.264 538.873 305.607 538.738L305.946 537.8C304 537.4 302.05 536.994 300.095 536.583L299.752 537.52C299.099 537.383 298.447 537.245 297.794 537.107L298.139 536.171C296.184 535.757 294.225 535.338 292.262 534.913L291.913 535.849C291.265 535.709 290.618 535.568 289.969 535.427L290.32 534.492C288.377 534.068 286.429 533.64 284.478 533.207L284.124 534.141C283.473 533.996 282.822 533.851 282.17 533.705L282.526 532.771C281.549 532.553 280.572 532.333 279.593 532.112C278.615 531.891 277.638 531.669 276.663 531.447L276.303 532.38C275.652 532.231 275.002 532.082 274.353 531.933L274.715 531.001C272.769 530.554 270.83 530.104 268.898 529.651L268.532 530.583C267.887 530.432 267.244 530.281 266.601 530.129L266.968 529.198C265.019 528.738 263.076 528.276 261.141 527.811L260.769 528.741C260.123 528.586 259.477 528.43 258.832 528.274L259.206 527.344C257.272 526.877 255.347 526.407 253.429 525.934L253.052 526.863C252.404 526.703 251.757 526.543 251.112 526.383L251.49 525.454C249.55 524.973 247.618 524.489 245.694 524.003L245.311 524.93C244.669 524.768 244.028 524.606 243.388 524.443L243.773 523.516C241.842 523.024 239.92 522.531 238.007 522.035L237.618 522.961C236.974 522.794 236.331 522.627 235.688 522.459L236.079 521.533C234.153 521.031 232.236 520.526 230.329 520.019L229.934 520.944C229.297 520.775 228.662 520.605 228.028 520.436L228.424 519.512C226.494 518.995 224.574 518.477 222.663 517.956L222.262 518.879C221.623 518.705 220.986 518.531 220.349 518.356L220.751 517.434C218.841 516.91 216.941 516.384 215.052 515.856L214.645 516.777C214.003 516.598 213.362 516.418 212.722 516.238L213.131 515.318C211.214 514.779 209.307 514.237 207.412 513.694L206.999 514.614C206.366 514.433 205.735 514.251 205.105 514.07L205.52 513.15C203.609 512.599 201.709 512.046 199.82 511.491L199.401 512.409C198.766 512.222 198.132 512.035 197.499 511.848L197.92 510.931C196.024 510.37 194.14 509.808 192.268 509.243L191.841 510.159C191.209 509.968 190.578 509.777 189.948 509.586L190.376 508.671C188.471 508.093 186.578 507.513 184.698 506.931L184.265 507.845C183.638 507.651 183.012 507.457 182.388 507.262L182.823 506.349C180.929 505.76 179.05 505.168 177.184 504.576L176.744 505.487C176.114 505.287 175.485 505.087 174.858 504.886L175.3 503.975C173.421 503.374 171.556 502.772 169.706 502.168L169.259 503.077C168.633 502.873 168.009 502.669 167.386 502.464L167.835 501.556C165.947 500.935 164.074 500.313 162.217 499.69L161.762 500.597C161.142 500.389 160.524 500.181 159.908 499.973L160.365 499.067C158.488 498.433 156.628 497.798 154.784 497.162L154.321 498.066C153.699 497.851 153.079 497.636 152.46 497.421L152.925 496.518C151.069 495.873 149.231 495.227 147.411 494.58L146.94 495.481C146.315 495.259 145.691 495.036 145.07 494.814L145.544 493.914C143.683 493.248 141.841 492.581 140.018 491.913L139.539 492.811C138.93 492.588 138.324 492.365 137.72 492.142L138.202 491.245C136.34 490.557 134.498 489.869 132.678 489.181L132.189 490.075C131.579 489.844 130.971 489.614 130.366 489.383L130.858 488.489C129.015 487.787 127.195 487.084 125.398 486.381L124.899 487.272C124.287 487.032 123.679 486.793 123.072 486.554L123.574 485.665C121.752 484.946 119.954 484.227 118.18 483.508L117.67 484.395C117.057 484.146 116.448 483.898 115.841 483.65L116.353 482.765C114.535 482.021 112.744 481.278 110.979 480.535L110.458 481.417C109.86 481.165 109.264 480.914 108.672 480.662L109.197 479.782C107.378 479.009 105.588 478.236 103.829 477.465L103.295 478.341C102.707 478.083 102.123 477.826 101.542 477.568L102.079 476.694C100.271 475.892 98.495 475.092 96.7529 474.294L96.2048 475.163C95.6199 474.895 95.0387 474.627 94.4614 474.36L95.0132 473.492C93.2246 472.662 91.4726 471.834 89.7581 471.009L89.1942 471.871C88.6135 471.591 88.037 471.312 87.4649 471.033L88.0331 470.173C86.2652 469.31 84.5386 468.45 82.8544 467.593L82.2725 468.447C81.6982 468.155 81.1288 467.863 80.5643 467.571L81.1511 466.72C79.4054 465.819 77.7072 464.921 76.0575 464.027L75.4548 464.869C74.8901 464.563 74.3311 464.258 73.7778 463.953L74.3863 463.113C72.6661 462.165 71.0014 461.221 69.3934 460.283L68.766 461.111C68.2157 460.79 67.672 460.47 67.1349 460.15L67.7692 459.325C66.0811 458.32 64.4594 457.321 62.9056 456.329L62.2481 457.139C61.7191 456.802 61.1978 456.465 60.6843 456.129L61.3502 455.324C59.7072 454.249 58.1458 453.183 56.668 452.127L55.9727 452.911C55.4456 452.535 54.9289 452.159 54.4228 451.785L55.1295 451.008C53.5505 449.841 52.0767 448.687 50.7106 447.548L49.9648 448.293C49.4746 447.884 48.9978 447.477 48.5347 447.072L49.2958 446.339C47.8237 445.051 46.4945 443.783 45.3115 442.539L44.4955 443.219C44.0517 442.752 43.6277 442.288 43.2238 441.827L44.0623 441.171C42.7639 439.689 41.6841 438.245 40.8259 436.844L39.9062 437.389C39.5729 436.845 39.2711 436.306 39.0011 435.772L39.9527 435.284C39.0687 433.534 38.556 431.871 38.4044 430.298L37.3693 430.496C37.3076 429.856 37.3008 429.225 37.3499 428.604L38.3863 428.558C38.4565 427.67 38.6513 426.809 38.9716 425.975C39.2919 425.14 39.7361 424.335 40.3044 423.56L39.4654 423.091C39.8629 422.548 40.314 422.021 40.818 421.508L41.5485 422.105C42.7864 420.846 44.392 419.662 46.3707 418.559L45.9155 417.753C46.5197 417.416 47.1542 417.088 47.8185 416.77L48.2066 417.61C49.9172 416.79 51.8441 416.026 53.9823 415.32L53.7403 414.42C54.4055 414.201 55.0896 413.987 55.7922 413.779L55.9979 414.69C57.8709 414.136 59.8831 413.624 62.0304 413.153L61.9082 412.221C62.5837 412.073 63.2719 411.929 63.9727 411.789L64.0728 412.726C66.0255 412.336 68.0792 411.979 70.2307 411.655L70.1852 410.708C70.8748 410.604 71.5742 410.503 72.2832 410.406L72.3135 411.355C74.3012 411.082 76.3663 410.835 78.5066 410.615L78.5153 409.661C79.1842 409.592 79.8602 409.526 80.5433 409.462L80.5237 410.417C82.5298 410.229 84.5982 410.064 86.727 409.921L86.7763 408.965C87.4536 408.919 88.1369 408.876 88.8262 408.835L88.7683 409.792C90.7823 409.672 92.8479 409.571 94.9634 409.489L95.0448 408.531C95.7253 408.505 96.4109 408.48 97.1015 408.458L97.0131 409.417C99.0309 409.351 101.092 409.303 103.196 409.271L103.304 408.312C103.984 408.302 104.669 408.293 105.358 408.286L105.244 409.246C107.265 409.226 109.323 409.221 111.418 409.231L111.548 408.272C112.226 408.276 112.908 408.28 113.593 408.287L113.458 409.246C115.482 409.265 117.539 409.298 119.628 409.345L119.778 408.386C120.452 408.401 121.13 408.417 121.811 408.435L121.657 409.394C123.685 409.447 125.743 409.513 127.829 409.592L127.995 408.634C128.665 408.659 129.337 408.685 130.013 408.713L129.843 409.672C131.867 409.755 133.916 409.85 135.991 409.957L136.172 408.999C136.847 409.034 137.525 409.07 138.206 409.107L138.021 410.064C140.028 410.174 142.059 410.295 144.112 410.426L144.306 409.469C144.992 409.512 145.68 409.557 146.37 409.604L146.172 410.56C148.171 410.694 150.19 410.838 152.229 410.991L152.435 410.035C153.114 410.086 153.794 410.138 154.477 410.192L154.267 411.148C156.274 411.304 158.3 411.47 160.345 411.646L160.563 410.691C161.234 410.749 161.908 410.807 162.583 410.867L162.363 411.822C164.379 412 166.413 412.188 168.464 412.385L168.692 411.43C169.357 411.494 170.024 411.559 170.692 411.624L170.462 412.578C172.465 412.775 174.484 412.98 176.518 413.194L176.756 412.241C177.435 412.312 178.116 412.385 178.799 412.458L178.558 413.411C180.545 413.625 182.546 413.846 184.561 414.076L184.808 413.123C185.48 413.2 186.153 413.277 186.828 413.355L186.578 414.308C188.577 414.539 190.589 414.779 192.614 415.027L192.87 414.076C193.535 414.157 194.201 414.239 194.869 414.322L194.611 415.273C196.611 415.522 198.624 415.778 200.649 416.042L200.914 415.092C201.582 415.179 202.251 415.267 202.921 415.355L202.655 416.305C204.636 416.567 206.629 416.836 208.632 417.113L208.904 416.164C209.573 416.256 210.242 416.349 210.913 416.443L210.639 417.392C212.626 417.669 214.623 417.954 216.631 418.246L216.91 417.298C217.572 417.394 218.235 417.491 218.9 417.589L218.618 418.536C220.609 418.829 222.609 419.129 224.619 419.436L224.906 418.488C225.57 418.59 226.235 418.692 226.901 418.794L226.612 419.741C228.584 420.046 230.565 420.356 232.555 420.673L232.849 419.727C233.513 419.833 234.177 419.94 234.843 420.047L234.548 420.993C236.527 421.312 238.514 421.637 240.509 421.969L240.81 421.024C241.468 421.133 242.126 421.243 242.786 421.354L242.483 422.298C244.46 422.63 246.444 422.968 248.436 423.312L248.743 422.368C249.408 422.483 250.073 422.599 250.739 422.715L250.431 423.659C252.392 424.001 254.36 424.349 256.335 424.703L256.649 423.76C257.307 423.878 257.966 423.997 258.626 424.116L258.311 425.059C260.284 425.416 262.265 425.778 264.251 426.147L264.571 425.206C265.224 425.327 265.877 425.449 266.532 425.571L266.21 426.512C268.172 426.88 270.139 427.252 272.112 427.631L272.438 426.691C273.096 426.817 273.755 426.944 274.414 427.071L274.087 428.012C276.045 428.39 278.009 428.775 279.978 429.165L280.31 428.226C280.963 428.355 281.616 428.485 282.27 428.615L281.937 429.554C283.897 429.946 285.863 430.342 287.834 430.745L288.171 429.807C288.827 429.941 289.484 430.075 290.141 430.21L289.802 431.148C291.747 431.548 293.697 431.954 295.652 432.365L295.996 431.428C296.648 431.565 297.3 431.703 297.953 431.841L297.609 432.778C299.563 433.191 301.522 433.611 303.485 434.035L303.834 433.099C304.482 433.239 305.13 433.38 305.778 433.521L305.427 434.456C307.371 434.88 309.318 435.308 311.269 435.741L311.624 434.807C312.274 434.952 312.926 435.097 313.577 435.243L313.221 436.177C314.198 436.395 315.175 436.615 316.154 436.836C317.132 437.057 318.109 437.279 319.084 437.502L319.445 436.568C320.095 436.717 320.745 436.866 321.394 437.015L321.032 437.948C322.978 438.394 324.917 438.844 326.849 439.297L327.215 438.365C327.86 438.516 328.503 438.667 329.146 438.819L328.779 439.75C330.729 440.21 332.671 440.672 334.606 441.137L334.978 440.207C335.624 440.362 336.27 440.518 336.915 440.674L336.542 441.604C338.475 442.071 340.4 442.542 342.318 443.014L342.695 442.085C343.343 442.245 343.99 442.405 344.636 442.565L344.257 443.494C346.197 443.975 348.129 444.459 350.053 444.945L350.436 444.018C351.078 444.18 351.719 444.342 352.359 444.505L351.975 445.433C353.905 445.924 355.827 446.417 357.74 446.913L358.129 445.987C358.773 446.154 359.416 446.321 360.059 446.489L359.668 447.415C361.594 447.917 363.511 448.422 365.419 448.929L365.813 448.004C366.45 448.173 367.085 448.343 367.719 448.512L367.323 449.436C369.253 449.953 371.173 450.471 373.084 450.992L373.485 450.069C374.124 450.243 374.761 450.417 375.398 450.592L374.996 451.514C376.906 452.038 378.806 452.564 380.696 453.092L381.103 452.171C381.744 452.35 382.385 452.53 383.025 452.71L382.616 453.631C384.533 454.17 386.44 454.711 388.335 455.254L388.749 454.334C389.381 454.515 390.012 454.697 390.642 454.879L390.227 455.798C392.139 456.349 394.038 456.902 395.927 457.457L396.346 456.539C396.982 456.726 397.616 456.913 398.248 457.1L397.827 458.017C399.723 458.578 401.607 459.14 403.48 459.705L403.906 458.789C404.538 458.98 405.169 459.171 405.799 459.362L405.371 460.277C407.277 460.855 409.169 461.435 411.049 462.017L411.482 461.103C412.109 461.297 412.735 461.491 413.359 461.686L412.924 462.599C414.818 463.188 416.697 463.78 418.563 464.372L419.003 463.461C419.633 463.661 420.262 463.861 420.889 464.062L420.447 464.973C422.326 465.574 424.191 466.176 426.041 466.78L426.488 465.871C427.114 466.075 427.738 466.279 428.361 466.484L427.912 467.393C429.8 468.013 431.673 468.635 433.53 469.258L433.985 468.351C434.605 468.559 435.223 468.767 435.839 468.975L435.382 469.881C437.259 470.515 439.119 471.15 440.963 471.786L441.426 470.882C442.048 471.097 442.668 471.312 443.287 471.527L442.822 472.43C444.678 473.075 446.516 473.721 448.336 474.368L448.807 473.467C449.433 473.689 450.056 473.912 450.677 474.134L450.204 475.034C452.065 475.701 453.906 476.368 455.729 477.035L456.209 476.137C456.817 476.36 457.423 476.583 458.027 476.806L457.545 477.703C459.407 478.391 461.249 479.079 463.07 479.767L463.559 478.873C464.168 479.104 464.776 479.334 465.381 479.565L464.889 480.459C466.732 481.161 468.552 481.864 470.35 482.567L470.849 481.676C471.46 481.916 472.069 482.155 472.675 482.394L472.173 483.283C473.995 484.002 475.793 484.721 477.567 485.44L478.077 484.553C478.69 484.802 479.3 485.05 479.907 485.298L479.394 486.183C481.212 486.927 483.004 487.67 484.768 488.413L485.289 487.531C485.888 487.783 486.483 488.035 487.075 488.286L486.55 489.166C488.369 489.94 490.159 490.712 491.918 491.483L492.452 490.607C493.04 490.865 493.624 491.122 494.205 491.38L493.668 492.254C495.476 493.056 497.252 493.856 498.994 494.654L499.542 493.785C500.127 494.053 500.708 494.321 501.286 494.588L500.734 495.457C502.523 496.286 504.274 497.114 505.989 497.939L506.553 497.077C507.134 497.357 507.71 497.636 508.282 497.915L507.714 498.775C509.482 499.638 511.209 500.498 512.893 501.355L513.475 500.501C514.049 500.794 514.618 501.085 515.183 501.377L514.596 502.228C516.342 503.129 518.04 504.027 519.69 504.921L520.292 504.079C520.857 504.385 521.416 504.69 521.969 504.996L521.361 505.835C523.081 506.783 524.746 507.727 526.354 508.665L526.981 507.837C527.531 508.158 528.075 508.478 528.612 508.798L527.978 509.623C529.666 510.628 531.288 511.627 532.842 512.619L533.499 511.809C534.028 512.146 534.549 512.483 535.063 512.819L534.397 513.624C536.04 514.699 537.601 515.765 539.079 516.821L539.774 516.037C540.302 516.413 540.818 516.789 541.324 517.163L540.618 517.94C542.197 519.107 543.67 520.261 545.037 521.4L545.782 520.655C546.273 521.064 546.749 521.471 547.212 521.876L546.451 522.609C547.923 523.897 549.253 525.165 550.436 526.409L551.252 525.729C551.695 526.196 552.119 526.66 552.523 527.122L551.685 527.777C552.983 529.259 554.063 530.703 554.921 532.104L555.841 531.559C556.174 532.103 556.476 532.642 556.746 533.176L555.794 533.664C556.678 535.414 557.191 537.077 557.343 538.65L558.378 538.452Z" stroke="#FBD161" stroke-opacity="0.6" stroke-width="2" stroke-dasharray="6 2"/>
<ellipse cx="216.102" cy="54.3304" rx="216.102" ry="54.3304" transform="matrix(0.986865 0.161545 -0.301667 0.953413 81 402.001)" stroke="#FBD161" stroke-dasharray="2 4"/>
<rect x="501.729" y="126.106" width="60.0187" height="60.0187" rx="30.0093" transform="rotate(-91.1668 501.729 126.106)" fill="url(#paint8_radial_2711_14209)" stroke="white" stroke-width="3"/>
<rect x="481.456" y="147.016" width="100.982" height="100.982" rx="50.4908" transform="rotate(-91.1668 481.456 147.016)" stroke="#FDDC2D" stroke-width="2"/>
<circle cx="548.518" cy="34.0444" r="5.33235" transform="rotate(-91.1668 548.518 34.0444)" fill="#FDDC2D"/>
<circle cx="517.239" cy="164.624" r="2.42379" transform="rotate(-91.1668 517.239 164.624)" fill="#FDDC2D"/>
<circle cx="523.648" cy="169.828" r="8.22566" transform="rotate(-91.1668 523.648 169.828)" stroke="#FDDC2D"/>
<rect x="477.941" y="149.894" width="107.361" height="107.361" rx="53.6807" transform="rotate(-91.1668 477.941 149.894)" stroke="#FDDC2D" stroke-dasharray="1 1"/>
<circle cx="481.656" cy="55.0023" r="3.8426" transform="rotate(-91.1668 481.656 55.0023)" fill="#FDDC2D"/>
<circle cx="577.133" cy="138.38" r="3.8426" transform="rotate(-91.1668 577.133 138.38)" fill="#FDDC2D"/>
<rect x="38.2508" y="144.188" width="33.2523" height="33.2523" rx="16.6262" transform="rotate(46.2022 38.2508 144.188)" fill="url(#paint9_radial_2711_14209)" stroke="white"/>
<rect x="76.6707" y="406.708" width="16.5742" height="16.5742" rx="8.2871" transform="rotate(46.2022 76.6707 406.708)" fill="url(#paint10_radial_2711_14209)" stroke="white"/>
<circle cx="53.4218" cy="198.673" r="2.89827" transform="rotate(46.2022 53.4218 198.673)" fill="#FDDC2D"/>
<circle cx="17.8613" cy="134.94" r="1.3174" transform="rotate(46.2022 17.8613 134.94)" fill="#FDDC2D"/>
<circle cx="72.4439" cy="165.679" r="2.08856" transform="rotate(46.2022 72.4439 165.679)" fill="#FDDC2D"/>
<circle cx="5.61701" cy="167.616" r="4.67955" transform="rotate(46.2022 5.61701 167.616)" fill="#FDDC2D"/>
<circle cx="164.531" cy="70.5292" r="6.73894" transform="rotate(46.2022 164.531 70.5292)" fill="#FDDC2D"/>
<circle cx="49.5305" cy="249.529" r="6.73894" transform="rotate(46.2022 49.5305 249.529)" fill="#FDDC2D"/>
<circle cx="546.728" cy="254.726" r="4.04894" transform="rotate(46.2022 546.728 254.726)" fill="#FDDC2D"/>
<circle cx="462.479" cy="80.4807" r="7.412" transform="rotate(46.2022 462.479 80.4807)" fill="#FDDC2D"/>
<circle cx="573.726" cy="401.726" r="4.04894" transform="rotate(46.2022 573.726 401.726)" fill="#FDDC2D"/>
<circle cx="210.726" cy="580.726" r="4.04894" transform="rotate(46.2022 210.726 580.726)" fill="#FDDC2D"/>
<circle cx="280.726" cy="543.726" r="4.04894" transform="rotate(46.2022 280.726 543.726)" fill="#FDDC2D"/>
<circle cx="459.726" cy="544.726" r="4.04894" transform="rotate(46.2022 459.726 544.726)" fill="#FDDC2D"/>
<circle cx="31.7256" cy="338.726" r="4.04894" transform="rotate(46.2022 31.7256 338.726)" fill="#FDDC2D"/>
<circle cx="485.726" cy="455.726" r="4.04894" transform="rotate(46.2022 485.726 455.726)" fill="#FDDC2D"/>
<g filter="url(#filter0_d_2711_14209)">
<rect x="49.291" y="441.545" width="83.0284" height="83.0284" rx="41.5142" transform="rotate(-25.9294 49.291 441.545)" fill="url(#paint11_radial_2711_14209)" shape-rendering="crispEdges"/>
<rect x="51.2959" y="442.238" width="80.0284" height="80.0284" rx="40.0142" transform="rotate(-25.9294 51.2959 442.238)" stroke="white" stroke-width="3" shape-rendering="crispEdges"/>
</g>
<rect x="15.3034" y="429.598" width="133.68" height="133.68" rx="66.8402" transform="rotate(-25.9294 15.3034 429.598)" stroke="#FDDC2D" stroke-width="2"/>
<path fill-rule="evenodd" clip-rule="evenodd" d="M67.2761 472.67C35.2444 499.546 17.8001 528.118 27.0247 541.724C38.1587 558.147 83.9291 546.548 129.256 515.818C174.582 485.088 202.3 446.863 191.166 430.441C183.727 419.467 160.821 421.005 132.918 432.402L133.356 433.303C140.318 430.462 146.961 428.241 153.119 426.681C162.303 424.353 170.356 423.509 176.757 424.232C183.164 424.956 187.781 427.229 190.339 431.002C192.896 434.774 193.298 439.905 191.599 446.124C189.902 452.339 186.136 459.507 180.574 467.177C169.455 482.511 151.287 499.673 128.694 514.99C106.101 530.308 83.4331 540.831 65.0723 545.484C55.8876 547.811 47.8355 548.656 41.4337 547.932C35.0273 547.208 30.41 544.935 27.8524 541.163C25.2948 537.39 24.8926 532.26 26.5917 526.04C28.2895 519.826 32.0547 512.658 37.6169 504.988C44.8858 494.963 55.1667 484.158 67.727 473.598L67.2761 472.67Z" fill="#FDDC2D"/>
<path fill-rule="evenodd" clip-rule="evenodd" d="M60.4587 464.515C40.8483 473.371 29.0314 484.369 30.5542 494.502C33.1751 511.943 74.3223 520.217 122.459 512.983C170.596 505.75 207.493 485.747 204.872 468.306C202.792 454.459 176.425 446.39 141.557 447.273L142.519 449.251C154.939 448.992 166.21 449.886 175.594 451.773C183.778 453.419 190.415 455.797 195.115 458.739C199.823 461.685 202.359 465.039 202.895 468.603C203.43 472.167 201.992 476.119 198.358 480.319C194.73 484.511 189.085 488.736 181.747 492.714C167.086 500.662 146.062 507.414 122.162 511.006C98.2613 514.597 76.182 514.323 59.8324 511.035C51.649 509.389 45.0116 507.01 40.3117 504.069C35.604 501.123 33.0675 497.769 32.532 494.205C31.9964 490.641 33.4348 486.689 37.0687 482.489C40.6966 478.297 46.3417 474.072 53.68 470.094C56.0675 468.799 58.6237 467.537 61.3335 466.315L60.4587 464.515Z" fill="#FDDC2D"/>
<circle cx="187.892" cy="447.631" r="7.02548" transform="rotate(-25.9294 187.892 447.631)" fill="#FDDC2D"/>
<circle cx="14.407" cy="482.27" r="3.1934" transform="rotate(-25.9294 14.407 482.27)" fill="#FDDC2D"/>
<circle cx="11.7194" cy="492.81" r="10.9962" transform="rotate(-25.9294 11.7194 492.81)" stroke="#FDDC2D"/>
<rect x="10.1312" y="427.053" width="141.768" height="141.768" rx="70.8841" transform="rotate(-25.9294 10.1312 427.053)" stroke="#FDDC2D" stroke-dasharray="1 1"/>
<circle cx="125.921" cy="379.205" r="5.0627" transform="rotate(-25.9294 125.921 379.205)" fill="#FDDC2D"/>
<circle cx="78.8586" cy="539.443" r="5.0627" transform="rotate(-25.9294 78.8586 539.443)" fill="#FDDC2D"/>
</g>
<defs>
<filter id="filter0_d_2711_14209" x="58.2559" y="408.204" width="93.0469" height="94.0472" filterUnits="userSpaceOnUse" color-interpolation-filters="sRGB">
<feFlood flood-opacity="0" result="BackgroundImageFix"/>
<feColorMatrix in="SourceAlpha" type="matrix" values="0 0 0 0 0 0 0 0 0 0 0 0 0 0 0 0 0 0 127 0" result="hardAlpha"/>
<feOffset dy="-6"/>
<feGaussianBlur stdDeviation="2.5"/>
<feComposite in2="hardAlpha" operator="out"/>
<feColorMatrix type="matrix" values="0 0 0 0 0.94902 0 0 0 0 0.847059 0 0 0 0 0.380392 0 0 0 1 0"/>
<feBlend mode="normal" in2="BackgroundImageFix" result="effect1_dropShadow_2711_14209"/>
<feBlend mode="normal" in="SourceGraphic" in2="effect1_dropShadow_2711_14209" result="shape"/>
</filter>
<radialGradient id="paint0_radial_2711_14209" cx="0" cy="0" r="1" gradientUnits="userSpaceOnUse" gradientTransform="translate(297 297) rotate(90) scale(265)">
<stop stop-color="#FDDC2D" stop-opacity="0.8"/>
<stop offset="0.23287" stop-color="#FFF761" stop-opacity="0.5"/>
<stop offset="0.522081" stop-color="#FDDC2D" stop-opacity="0.5"/>
<stop offset="0.799724" stop-color="white" stop-opacity="0.4"/>
<stop offset="1" stop-color="#8EB4BD" stop-opacity="0"/>
</radialGradient>
<linearGradient id="paint1_linear_2711_14209" x1="26.6898" y1="181" x2="26.6898" y2="395" gradientUnits="userSpaceOnUse">
<stop stop-color="#F2D861"/>
<stop offset="1" stop-color="#F2D861" stop-opacity="0"/>
</linearGradient>
<linearGradient id="paint2_linear_2711_14209" x1="575.361" y1="308.389" x2="499.94" y2="108.12" gradientUnits="userSpaceOnUse">
<stop stop-color="#F2D861"/>
<stop offset="1" stop-color="#F2D861" stop-opacity="0"/>
</linearGradient>
<linearGradient id="paint3_linear_2711_14209" x1="588.312" y1="243.634" x2="448.925" y2="43.614" gradientUnits="userSpaceOnUse">
<stop stop-color="#F2D861"/>
<stop offset="1" stop-color="#F2D861" stop-opacity="0"/>
</linearGradient>
<linearGradient id="paint4_linear_2711_14209" x1="474.643" y1="70.0097" x2="265.341" y2="12.7101" gradientUnits="userSpaceOnUse">
<stop stop-color="#F2D861"/>
<stop offset="1" stop-color="#F2D861" stop-opacity="0"/>
</linearGradient>
<linearGradient id="paint5_linear_2711_14209" x1="155.181" y1="63.89" x2="37.9633" y2="224.707" gradientUnits="userSpaceOnUse">
<stop stop-color="#F2D861"/>
<stop offset="1" stop-color="#F2D861" stop-opacity="0"/>
</linearGradient>
<linearGradient id="paint6_linear_2711_14209" x1="319.042" y1="0" x2="319.042" y2="121.289" gradientUnits="userSpaceOnUse">
<stop stop-color="#FBD161"/>
<stop offset="0.526042" stop-color="#FBD161" stop-opacity="0"/>
<stop offset="1" stop-color="#F2D861"/>
</linearGradient>
<linearGradient id="paint7_linear_2711_14209" x1="223.618" y1="0" x2="223.618" y2="131.614" gradientUnits="userSpaceOnUse">
<stop stop-color="#FBD161"/>
<stop offset="0.463542" stop-color="#FBD161" stop-opacity="0"/>
<stop offset="1" stop-color="#F2D861"/>
</linearGradient>
<radialGradient id="paint8_radial_2711_14209" cx="0" cy="0" r="1" gradientUnits="userSpaceOnUse" gradientTransform="translate(531.769 159.145) rotate(90) scale(31.5093)">
<stop stop-color="#FFF761"/>
<stop offset="1" stop-color="#FFF761" stop-opacity="0"/>
</radialGradient>
<radialGradient id="paint9_radial_2711_14209" cx="0" cy="0" r="1" gradientUnits="userSpaceOnUse" gradientTransform="translate(55.3918 160.608) rotate(90) scale(17.1262)">
<stop stop-color="#FFF761"/>
<stop offset="1" stop-color="#FFF761" stop-opacity="0"/>
</radialGradient>
<radialGradient id="paint10_radial_2711_14209" cx="0" cy="0" r="1" gradientUnits="userSpaceOnUse" gradientTransform="translate(85.4726 414.788) rotate(90) scale(8.78709)">
<stop stop-color="#FFF761"/>
<stop offset="1" stop-color="#FFF761" stop-opacity="0"/>
</radialGradient>
<radialGradient id="paint11_radial_2711_14209" cx="0" cy="0" r="1" gradientUnits="userSpaceOnUse" gradientTransform="translate(90.8052 483.059) rotate(90) scale(41.5142)">
<stop stop-color="#FFF761"/>
<stop offset="1" stop-color="#FFF761" stop-opacity="0"/>
</radialGradient>
<clipPath id="clip0_2711_14209">
<rect width="595" height="594" fill="white"/>
</clipPath>
</defs>
</svg>
