<svg width="282" height="189" viewBox="0 0 282 189" fill="none" xmlns="http://www.w3.org/2000/svg">
<circle cx="175" cy="42" r="1.9" fill="#7B7B7B" stroke="#696969" stroke-width="0.2"/>
<path d="M175.85 42C175.85 42.523 175.691 42.9907 175.441 43.3242C175.191 43.6577 174.856 43.85 174.5 43.85C174.144 43.85 173.809 43.6577 173.559 43.3242C173.309 42.9907 173.15 42.523 173.15 42C173.15 41.477 173.309 41.0093 173.559 40.6758C173.809 40.3423 174.144 40.15 174.5 40.15C174.856 40.15 175.191 40.3423 175.441 40.6758C175.691 41.0093 175.85 41.477 175.85 42Z" fill="url(#paint0_radial_1142_35964)" stroke="#A4A4A4" stroke-width="0.3"/>
<circle cx="177" cy="80" r="1.9" fill="#7B7B7B" stroke="#696969" stroke-width="0.2"/>
<path d="M177.85 80C177.85 80.523 177.691 80.9907 177.441 81.3242C177.191 81.6577 176.856 81.85 176.5 81.85C176.144 81.85 175.809 81.6577 175.559 81.3242C175.309 80.9907 175.15 80.523 175.15 80C175.15 79.477 175.309 79.0093 175.559 78.6758C175.809 78.3423 176.144 78.15 176.5 78.15C176.856 78.15 177.191 78.3423 177.441 78.6758C177.691 79.0093 177.85 79.477 177.85 80Z" fill="url(#paint1_radial_1142_35964)" stroke="#A4A4A4" stroke-width="0.3"/>
<circle cx="154" cy="13" r="1.9" fill="#7B7B7B" stroke="#696969" stroke-width="0.2"/>
<path d="M154.85 13C154.85 13.523 154.691 13.9907 154.441 14.3242C154.191 14.6577 153.856 14.85 153.5 14.85C153.144 14.85 152.809 14.6577 152.559 14.3242C152.309 13.9907 152.15 13.523 152.15 13C152.15 12.477 152.309 12.0093 152.559 11.6758C152.809 11.3423 153.144 11.15 153.5 11.15C153.856 11.15 154.191 11.3423 154.441 11.6758C154.691 12.0093 154.85 12.477 154.85 13Z" fill="url(#paint2_radial_1142_35964)" stroke="#A4A4A4" stroke-width="0.3"/>
<path d="M24.9374 99.5461L23.0283 60.181L194.606 34.24C192.797 42.826 188.932 60.4147 187.95 62.0813C186.969 63.7478 184.051 65.3679 182.714 65.9696C135.923 78.0902 52.6183 103.679 41.8087 105.72C30.999 107.762 26.2154 103.916 24.9374 99.5461Z" fill="#DBDBDB" stroke="#696969"/>
<path d="M32.5484 100.994L30.666 60.496L195.454 36C193.664 44.696 192.979 61.7321 192.036 63.4166C191.093 65.1011 188.321 66.7281 187.052 67.331C142.728 79.3691 60.489 102.829 50.2565 104.841C40.0241 106.853 33.7422 103.081 32.5484 100.994Z" fill="#A1A1A1" stroke="#696969"/>
<g filter="url(#filter0_i_1142_35964)">
<path d="M40.7323 94.9998L39.2559 58.4534L189.897 36.2336C188.34 43.7312 187.475 58.5463 186.645 59.9998C185.815 61.4532 180.733 62.5124 179.612 63.0343C140.402 73.4906 61.9001 96.7471 52.8458 98.4998C43.8372 100.244 41.8165 96.8309 40.7485 95.0271L40.7323 94.9998Z" fill="#FFF761"/>
</g>
<path d="M40.7323 94.9998L39.2559 58.4534L189.897 36.2336C188.34 43.7312 187.475 58.5463 186.645 59.9998C185.815 61.4532 180.733 62.5124 179.612 63.0343C140.402 73.4906 61.9001 96.7471 52.8458 98.4998C43.8372 100.244 41.8165 96.8309 40.7485 95.0271L40.7323 94.9998Z" stroke="#696969"/>
<g filter="url(#filter1_i_1142_35964)">
<path d="M43.6275 85.2544L42.4227 71.2301L45.1725 70.7024L46.3773 84.7267L43.6275 85.2544ZM57.5045 73.6714L58.252 82.4478L55.5611 82.9642L54.8842 75.1925L51.5255 75.8371L52.2024 83.6088L49.5115 84.1252L48.6489 74.0064L50.8684 73.5805L51.3962 74.3142L52.7344 73.2224L55.111 72.7663L57.5045 73.6714ZM62.6087 71.3274L65.1818 70.8336L66.6326 71.3901L66.1799 66.0599L68.8708 65.5435L70.129 80.2703L67.9095 80.6962L67.3621 79.9663L66.0435 81.0543L63.4705 81.5481L61.077 80.643L60.4454 73.107L62.6087 71.3274ZM67.2328 78.4434L66.762 72.913L63.2069 73.5953L63.6776 79.1257L67.2328 78.4434ZM72.9694 78.3607L72.2218 69.5843L74.9127 69.0679L75.57 76.8434L78.9287 76.1988L78.2715 68.4233L80.9623 67.9069L81.8249 78.0257L79.6054 78.4516L79.058 77.7217L77.7395 78.8097L75.3628 79.2658L72.9694 78.3607ZM92.1084 70.9405L92.4296 74.5242L90.2662 76.3038L84.7666 77.3593L84.5613 75.016L89.6484 74.0397L89.5153 72.4971L86.7066 73.0362L84.3131 72.1311L84.0183 68.6849L86.1816 66.9052L91.4849 65.8875L91.6902 68.2308L86.7994 69.1694L86.9062 70.5744L89.7149 70.0354L92.1084 70.9405ZM94.0452 67.7788L93.8398 65.4355L95.6469 65.0887L95.507 63.4049L98.0572 61.3067L98.3378 64.5723L100.498 64.1577L100.704 66.501L98.5431 66.9156L98.9958 72.2458L101.156 71.8312L101.362 74.1745L98.7887 74.6683L96.3952 73.7632L95.8522 67.432L94.0452 67.7788ZM109.321 64.8473L105.942 65.4956L106.6 73.1691L103.909 73.6855L103.046 63.6687L105.266 63.2428L105.813 63.9727L107.132 62.8847L109.115 62.504L109.321 64.8473ZM113.774 61.6099L114.637 71.6267L111.946 72.1431L111.083 62.1263L113.774 61.6099ZM110.831 60.2808L110.589 57.5372L113.477 56.9831L113.718 59.7267L110.831 60.2808ZM123.429 67.6586L122.958 62.1282L119.6 62.7728L120.07 68.3032L123.429 67.6586ZM125.464 59.2647L126.325 69.4855L125.029 69.7342L123.558 69.1815L122.24 70.2695L119.863 70.7256L117.47 69.8205L116.838 62.2845L119.001 60.5049L121.378 60.0488L122.829 60.6053L124.167 59.5135L125.464 59.2647ZM131.545 68.3818L129.152 67.4767L128.008 54.1943L130.699 53.6778L131.753 65.9594L133.717 65.5824L133.922 67.9257L131.545 68.3818ZM140.991 66.569L139.787 52.5448L147.034 51.1538L149.428 52.0589L149.956 58.3115L147.792 60.0911L143.294 60.9543L143.741 66.0413L140.991 66.569ZM142.733 54.423L143.097 58.5484L147.124 57.7756L146.76 53.6503L142.733 54.423ZM158.914 60.8485L158.444 55.3181L155.085 55.9627L155.556 61.4931L158.914 60.8485ZM160.949 52.4546L161.811 62.6754L160.514 62.9242L159.044 62.3714L157.725 63.4594L155.349 63.9155L152.955 63.0104L152.323 55.4744L154.487 53.6948L156.863 53.2387L158.314 53.7952L159.652 52.7034L160.949 52.4546ZM170.163 53.1707L166.785 53.8191L167.443 61.4926L164.752 62.009L163.889 51.9922L166.108 51.5663L166.656 52.2962L167.974 51.2082L169.958 50.8274L170.163 53.1707ZM174.221 45.3254L174.962 53.9605L175.001 53.953L177.7 49.3416L180.784 48.7498L177.657 53.8913L182.237 58.6535L179.114 59.2529L176.247 56.1985L175.289 57.7874L175.48 59.9502L172.789 60.4666L171.53 45.8418L174.221 45.3254Z" fill="#636363"/>
</g>
<path d="M43.6275 85.2544L42.6311 85.34L42.7261 86.4456L43.8159 86.2365L43.6275 85.2544ZM42.4227 71.2301L42.2342 70.2481L41.3492 70.4179L41.4264 71.3157L42.4227 71.2301ZM45.1725 70.7024L46.1688 70.6168L46.0738 69.5112L44.984 69.7203L45.1725 70.7024ZM46.3773 84.7267L46.5658 85.7088L47.4508 85.5389L47.3736 84.6411L46.3773 84.7267ZM44.6238 85.1688L43.419 71.1446L41.4264 71.3157L42.6311 85.34L44.6238 85.1688ZM42.6112 72.2122L45.361 71.6845L44.984 69.7203L42.2342 70.2481L42.6112 72.2122ZM44.1762 70.788L45.381 84.8123L47.3736 84.6411L46.1688 70.6168L44.1762 70.788ZM46.1888 83.7446L43.439 84.2723L43.8159 86.2365L46.5658 85.7088L46.1888 83.7446ZM57.5045 73.6714L58.5009 73.5865L58.4474 72.9588L57.8582 72.736L57.5045 73.6714ZM58.252 82.4478L58.4405 83.4299L59.3248 83.2601L59.2484 82.3629L58.252 82.4478ZM55.5611 82.9642L54.5649 83.051L54.6611 84.1552L55.7496 83.9463L55.5611 82.9642ZM54.8842 75.1925L55.8804 75.1057L55.7843 74.0015L54.6957 74.2104L54.8842 75.1925ZM51.5255 75.8371L51.337 74.855L50.451 75.025L50.5293 75.9238L51.5255 75.8371ZM52.2024 83.6088L52.3909 84.5909L53.2769 84.4208L53.1986 83.522L52.2024 83.6088ZM49.5115 84.1252L48.5151 84.2101L48.6094 85.3166L49.7 85.1073L49.5115 84.1252ZM48.6489 74.0064L48.4605 73.0243L47.5761 73.1941L47.6525 74.0914L48.6489 74.0064ZM50.8684 73.5805L51.6802 72.9965L51.3072 72.478L50.68 72.5984L50.8684 73.5805ZM51.3962 74.3142L50.5844 74.8981L51.2049 75.7608L52.0283 75.089L51.3962 74.3142ZM52.7344 73.2224L52.5459 72.2403L52.2979 72.2879L52.1022 72.4475L52.7344 73.2224ZM55.111 72.7663L55.4647 71.8309L55.2002 71.7309L54.9225 71.7842L55.111 72.7663ZM56.5081 73.7562L57.2556 82.5326L59.2484 82.3629L58.5009 73.5865L56.5081 73.7562ZM58.0635 81.4657L55.3726 81.9821L55.7496 83.9463L58.4405 83.4299L58.0635 81.4657ZM56.5573 82.8774L55.8804 75.1057L53.888 75.2793L54.5649 83.051L56.5573 82.8774ZM54.6957 74.2104L51.337 74.855L51.714 76.8191L55.0727 76.1746L54.6957 74.2104ZM50.5293 75.9238L51.2062 83.6955L53.1986 83.522L52.5217 75.7503L50.5293 75.9238ZM52.0139 82.6267L49.323 83.1431L49.7 85.1073L52.3909 84.5909L52.0139 82.6267ZM50.5079 84.0403L49.6453 73.9215L47.6525 74.0914L48.5151 84.2101L50.5079 84.0403ZM48.8374 74.9885L51.0569 74.5625L50.68 72.5984L48.4605 73.0243L48.8374 74.9885ZM50.0566 74.1644L50.5844 74.8981L52.208 73.7302L51.6802 72.9965L50.0566 74.1644ZM52.0283 75.089L53.3665 73.9972L52.1022 72.4475L50.764 73.5393L52.0283 75.089ZM52.9228 74.2044L55.2995 73.7483L54.9225 71.7842L52.5459 72.2403L52.9228 74.2044ZM54.7573 73.7016L57.1508 74.6067L57.8582 72.736L55.4647 71.8309L54.7573 73.7016ZM62.6087 71.3274L62.4202 70.3453L62.1701 70.3933L61.9734 70.5551L62.6087 71.3274ZM65.1818 70.8336L65.5399 69.8999L65.2735 69.7977L64.9933 69.8515L65.1818 70.8336ZM66.6326 71.3901L66.2745 72.3237L67.7641 72.8951L67.6291 71.3054L66.6326 71.3901ZM66.1799 66.0599L65.9915 65.0778L65.1073 65.2475L65.1835 66.1445L66.1799 66.0599ZM68.8708 65.5435L69.8672 65.4583L69.7727 64.3521L68.6824 64.5614L68.8708 65.5435ZM70.129 80.2703L70.3175 81.2523L71.202 81.0826L71.1254 80.1851L70.129 80.2703ZM67.9095 80.6962L67.1095 81.2962L67.4843 81.796L68.098 81.6783L67.9095 80.6962ZM67.3621 79.9663L68.1621 79.3663L67.5337 78.5283L66.7257 79.195L67.3621 79.9663ZM66.0435 81.0543L66.232 82.0364L66.4829 81.9882L66.68 81.8256L66.0435 81.0543ZM63.4705 81.5481L63.1168 82.4835L63.3813 82.5835L63.659 82.5302L63.4705 81.5481ZM61.077 80.643L60.0805 80.7265L60.1332 81.3552L60.7233 81.5783L61.077 80.643ZM60.4454 73.107L59.8101 72.3347L59.405 72.6679L59.4488 73.1905L60.4454 73.107ZM67.2328 78.4434L67.4212 79.4255L68.3055 79.2557L68.2292 78.3586L67.2328 78.4434ZM66.762 72.913L67.7584 72.8282L67.6642 71.7216L66.5735 71.9309L66.762 72.913ZM63.2069 73.5953L63.0184 72.6132L62.1341 72.7829L62.2105 73.6801L63.2069 73.5953ZM63.6776 79.1257L62.6812 79.2105L62.7754 80.317L63.8661 80.1077L63.6776 79.1257ZM62.7972 72.3094L65.3702 71.8156L64.9933 69.8515L62.4202 70.3453L62.7972 72.3094ZM64.8236 71.7672L66.2745 72.3237L66.9908 70.4564L65.5399 69.8999L64.8236 71.7672ZM67.6291 71.3054L67.1763 65.9752L65.1835 66.1445L65.6362 71.4747L67.6291 71.3054ZM66.3684 67.042L69.0593 66.5255L68.6824 64.5614L65.9915 65.0778L66.3684 67.042ZM67.8745 65.6286L69.1326 80.3554L71.1254 80.1851L69.8672 65.4583L67.8745 65.6286ZM69.9405 79.2882L67.721 79.7141L68.098 81.6783L70.3175 81.2523L69.9405 79.2882ZM68.7095 80.0962L68.1621 79.3663L66.5621 80.5663L67.1095 81.2962L68.7095 80.0962ZM66.7257 79.195L65.4071 80.283L66.68 81.8256L67.9986 80.7376L66.7257 79.195ZM65.8551 80.0722L63.282 80.566L63.659 82.5302L66.232 82.0364L65.8551 80.0722ZM63.8242 80.6128L61.4307 79.7076L60.7233 81.5783L63.1168 82.4835L63.8242 80.6128ZM62.0735 80.5595L61.4419 73.0235L59.4488 73.1905L60.0805 80.7265L62.0735 80.5595ZM61.0806 73.8793L63.244 72.0996L61.9734 70.5551L59.8101 72.3347L61.0806 73.8793ZM68.2292 78.3586L67.7584 72.8282L65.7656 72.9978L66.2364 78.5282L68.2292 78.3586ZM66.5735 71.9309L63.0184 72.6132L63.3953 74.5773L66.9505 73.8951L66.5735 71.9309ZM62.2105 73.6801L62.6812 79.2105L64.674 79.0408L64.2033 73.5104L62.2105 73.6801ZM63.8661 80.1077L67.4212 79.4255L67.0443 77.4613L63.4892 78.1436L63.8661 80.1077ZM72.9694 78.3607L71.973 78.4456L72.0264 79.0732L72.6157 79.2961L72.9694 78.3607ZM72.2218 69.5843L72.0334 68.6022L71.149 68.7719L71.2255 69.6692L72.2218 69.5843ZM74.9127 69.0679L75.9092 68.9837L75.8156 67.8764L74.7243 68.0858L74.9127 69.0679ZM75.57 76.8434L74.5735 76.9276L74.6671 78.0349L75.7585 77.8254L75.57 76.8434ZM78.9287 76.1988L79.1172 77.1809L80.0009 77.0112L79.9251 76.1145L78.9287 76.1988ZM78.2715 68.4233L78.083 67.4412L77.1992 67.6108L77.275 68.5075L78.2715 68.4233ZM80.9623 67.9069L81.9587 67.8219L81.8644 66.7155L80.7739 66.9248L80.9623 67.9069ZM81.8249 78.0257L82.0134 79.0077L82.8978 78.838L82.8213 77.9407L81.8249 78.0257ZM79.6054 78.4516L78.8054 79.0516L79.1803 79.5514L79.7939 79.4337L79.6054 78.4516ZM79.058 77.7217L79.8581 77.1217L79.2296 76.2837L78.4216 76.9504L79.058 77.7217ZM77.7395 78.8097L77.928 79.7918L78.1789 79.7436L78.3759 79.581L77.7395 78.8097ZM75.3628 79.2658L75.0091 80.2012L75.2736 80.3012L75.5513 80.2479L75.3628 79.2658ZM73.9658 78.2758L73.2182 69.4994L71.2255 69.6692L71.973 78.4456L73.9658 78.2758ZM72.4103 70.5664L75.1012 70.05L74.7243 68.0858L72.0334 68.6022L72.4103 70.5664ZM73.9163 69.1521L74.5735 76.9276L76.5664 76.7591L75.9092 68.9837L73.9163 69.1521ZM75.7585 77.8254L79.1172 77.1809L78.7402 75.2167L75.3815 75.8613L75.7585 77.8254ZM79.9251 76.1145L79.2679 68.3391L77.275 68.5075L77.9323 76.283L79.9251 76.1145ZM78.4599 69.4054L81.1508 68.889L80.7739 66.9248L78.083 67.4412L78.4599 69.4054ZM79.966 67.9918L80.8285 78.1106L82.8213 77.9407L81.9587 67.8219L79.966 67.9918ZM81.6365 77.0436L79.417 77.4695L79.7939 79.4337L82.0134 79.0077L81.6365 77.0436ZM80.4055 77.8516L79.8581 77.1217L78.258 78.3217L78.8054 79.0516L80.4055 77.8516ZM78.4216 76.9504L77.103 78.0384L78.3759 79.581L79.6945 78.493L78.4216 76.9504ZM77.551 77.8276L75.1744 78.2837L75.5513 80.2479L77.928 79.7918L77.551 77.8276ZM75.7166 78.3305L73.3231 77.4253L72.6157 79.2961L75.0091 80.2012L75.7166 78.3305ZM92.1084 70.9405L93.1044 70.8512L93.0484 70.2269L92.4621 70.0052L92.1084 70.9405ZM92.4296 74.5242L93.0649 75.2965L93.4727 74.961L93.4256 74.4349L92.4296 74.5242ZM90.2662 76.3038L90.4547 77.2859L90.7048 77.2379L90.9015 77.0761L90.2662 76.3038ZM84.7666 77.3593L83.7704 77.4466L83.8671 78.5502L84.9551 78.3414L84.7666 77.3593ZM84.5613 75.016L84.3728 74.0339L83.4863 74.204L83.5651 75.1033L84.5613 75.016ZM89.6484 74.0397L89.8369 75.0218L90.7222 74.8519L90.6447 73.9537L89.6484 74.0397ZM89.5153 72.4971L90.5116 72.4112L90.4162 71.306L89.3268 71.5151L89.5153 72.4971ZM86.7066 73.0362L86.3528 73.9715L86.6173 74.0715L86.895 74.0183L86.7066 73.0362ZM84.3131 72.1311L83.3167 72.2163L83.3704 72.8437L83.9594 73.0664L84.3131 72.1311ZM84.0183 68.6849L83.383 67.9126L82.9771 68.2465L83.0219 68.7701L84.0183 68.6849ZM86.1816 66.9052L85.9932 65.9232L85.743 65.9712L85.5463 66.133L86.1816 66.9052ZM91.4849 65.8875L92.481 65.8002L92.3843 64.6966L91.2964 64.9054L91.4849 65.8875ZM91.6902 68.2308L91.8787 69.2129L92.7652 69.0427L92.6864 68.1435L91.6902 68.2308ZM86.7994 69.1694L86.611 68.1873L85.7347 68.3555L85.8023 69.2451L86.7994 69.1694ZM86.9062 70.5744L85.909 70.6502L85.9939 71.7678L87.0946 71.5565L86.9062 70.5744ZM89.7149 70.0354L90.0686 69.1L89.8041 69L89.5264 69.0533L89.7149 70.0354ZM91.1124 71.0298L91.4336 74.6135L93.4256 74.4349L93.1044 70.8512L91.1124 71.0298ZM91.7943 73.7519L89.6309 75.5316L90.9015 77.0761L93.0649 75.2965L91.7943 73.7519ZM90.0777 75.3218L84.5781 76.3772L84.9551 78.3414L90.4547 77.2859L90.0777 75.3218ZM85.7628 77.272L85.5574 74.9287L83.5651 75.1033L83.7704 77.4466L85.7628 77.272ZM84.7497 75.9981L89.8369 75.0218L89.4599 73.0576L84.3728 74.0339L84.7497 75.9981ZM90.6447 73.9537L90.5116 72.4112L88.519 72.5831L88.6521 74.1257L90.6447 73.9537ZM89.3268 71.5151L86.5181 72.0541L86.895 74.0183L89.7038 73.4792L89.3268 71.5151ZM87.0603 72.1008L84.6668 71.1957L83.9594 73.0664L86.3528 73.9715L87.0603 72.1008ZM85.3094 72.0458L85.0146 68.5996L83.0219 68.7701L83.3167 72.2163L85.3094 72.0458ZM84.6536 69.4571L86.8169 67.6775L85.5463 66.133L83.383 67.9126L84.6536 69.4571ZM86.3701 67.8873L91.6733 66.8696L91.2964 64.9054L85.9932 65.9232L86.3701 67.8873ZM90.4887 65.9748L90.694 68.3181L92.6864 68.1435L92.481 65.8002L90.4887 65.9748ZM91.5017 67.2487L86.611 68.1873L86.9879 70.1515L91.8787 69.2129L91.5017 67.2487ZM85.8023 69.2451L85.909 70.6502L87.9033 70.4987L87.7966 69.0936L85.8023 69.2451ZM87.0946 71.5565L89.9034 71.0175L89.5264 69.0533L86.7177 69.5924L87.0946 71.5565ZM89.3612 70.9708L91.7547 71.8759L92.4621 70.0052L90.0686 69.1L89.3612 70.9708ZM94.0452 67.7788L93.049 67.8661L93.1457 68.9697L94.2336 68.7609L94.0452 67.7788ZM93.8398 65.4355L93.6514 64.4534L92.7649 64.6236L92.8437 65.5228L93.8398 65.4355ZM95.6469 65.0887L95.8353 66.0708L96.7178 65.9015L96.6434 65.006L95.6469 65.0887ZM95.507 63.4049L94.8717 62.6327L94.4671 62.9656L94.5104 63.4877L95.507 63.4049ZM98.0572 61.3067L99.0536 61.2211L98.8908 59.3259L97.4219 60.5344L98.0572 61.3067ZM98.3378 64.5723L97.3414 64.6579L97.4364 65.7635L98.5262 65.5544L98.3378 64.5723ZM100.498 64.1577L101.495 64.0704L101.398 62.9668L100.31 63.1756L100.498 64.1577ZM100.704 66.501L100.892 67.483L101.779 67.3129L101.7 66.4137L100.704 66.501ZM98.5431 66.9156L98.3546 65.9335L97.4705 66.1032L97.5467 67.0002L98.5431 66.9156ZM98.9958 72.2458L97.9994 72.3304L98.0934 73.4372L99.1843 73.2279L98.9958 72.2458ZM101.156 71.8312L102.153 71.7439L102.056 70.6403L100.968 70.8491L101.156 71.8312ZM101.362 74.1745L101.55 75.1565L102.437 74.9864L102.358 74.0872L101.362 74.1745ZM98.7887 74.6683L98.435 75.6036L98.6994 75.7036L98.9771 75.6503L98.7887 74.6683ZM96.3952 73.7632L95.3988 73.8486L95.4526 74.4758L96.0415 74.6985L96.3952 73.7632ZM95.8522 67.432L96.8485 67.3466L96.7537 66.2408L95.6637 66.45L95.8522 67.432ZM95.0414 67.6915L94.836 65.3482L92.8437 65.5228L93.049 67.8661L95.0414 67.6915ZM94.0283 66.4176L95.8353 66.0708L95.4584 64.1067L93.6514 64.4534L94.0283 66.4176ZM96.6434 65.006L96.5036 63.3221L94.5104 63.4877L94.6503 65.1715L96.6434 65.006ZM96.1424 64.1771L98.6926 62.0789L97.4219 60.5344L94.8717 62.6327L96.1424 64.1771ZM97.0609 61.3922L97.3414 64.6579L99.3341 64.4867L99.0536 61.2211L97.0609 61.3922ZM98.5262 65.5544L100.687 65.1398L100.31 63.1756L98.1493 63.5902L98.5262 65.5544ZM99.5022 64.245L99.7075 66.5883L101.7 66.4137L101.495 64.0704L99.5022 64.245ZM100.515 65.5189L98.3546 65.9335L98.7316 67.8977L100.892 67.483L100.515 65.5189ZM97.5467 67.0002L97.9994 72.3304L99.9922 72.1612L99.5395 66.831L97.5467 67.0002ZM99.1843 73.2279L101.345 72.8133L100.968 70.8491L98.8073 71.2637L99.1843 73.2279ZM100.16 71.9185L100.366 74.2618L102.358 74.0872L102.153 71.7439L100.16 71.9185ZM101.173 73.1924L98.6002 73.6862L98.9771 75.6503L101.55 75.1565L101.173 73.1924ZM99.1424 73.7329L96.7489 72.8278L96.0415 74.6985L98.435 75.6036L99.1424 73.7329ZM97.3915 73.6777L96.8485 67.3466L94.8559 67.5175L95.3988 73.8486L97.3915 73.6777ZM95.6637 66.45L93.8567 66.7967L94.2336 68.7609L96.0407 68.4141L95.6637 66.45ZM109.321 64.8473L109.509 65.8293L110.396 65.6592L110.317 64.76L109.321 64.8473ZM105.942 65.4956L105.754 64.5135L104.869 64.6833L104.946 65.5811L105.942 65.4956ZM106.6 73.1691L106.789 74.1512L107.674 73.9814L107.597 73.0837L106.6 73.1691ZM103.909 73.6855L102.913 73.7714L103.008 74.8767L104.098 74.6676L103.909 73.6855ZM103.046 63.6687L102.858 62.6867L101.972 62.8565L102.05 63.7546L103.046 63.6687ZM105.266 63.2428L106.066 62.6428L105.691 62.1429L105.077 62.2607L105.266 63.2428ZM105.813 63.9727L105.013 64.5727L105.641 65.4107L106.449 64.744L105.813 63.9727ZM107.132 62.8847L106.943 61.9026L106.692 61.9508L106.495 62.1134L107.132 62.8847ZM109.115 62.504L110.111 62.4167L110.015 61.3131L108.927 61.5219L109.115 62.504ZM109.132 63.8652L105.754 64.5135L106.131 66.4777L109.509 65.8293L109.132 63.8652ZM104.946 65.5811L105.604 73.2546L107.597 73.0837L106.939 65.4102L104.946 65.5811ZM106.412 72.187L103.721 72.7035L104.098 74.6676L106.789 74.1512L106.412 72.187ZM104.906 73.5997L104.042 63.5829L102.05 63.7546L102.913 73.7714L104.906 73.5997ZM103.235 64.6508L105.454 64.2249L105.077 62.2607L102.858 62.6867L103.235 64.6508ZM104.466 63.8427L105.013 64.5727L106.613 63.3727L106.066 62.6428L104.466 63.8427ZM106.449 64.744L107.768 63.656L106.495 62.1134L105.176 63.2014L106.449 64.744ZM107.32 63.8668L109.304 63.486L108.927 61.5219L106.943 61.9026L107.32 63.8668ZM108.119 62.5913L108.324 64.9346L110.317 64.76L110.111 62.4167L108.119 62.5913ZM113.774 61.6099L114.77 61.5241L114.675 60.4188L113.585 60.6278L113.774 61.6099ZM114.637 71.6267L114.826 72.6088L115.711 72.4389L115.634 71.5408L114.637 71.6267ZM111.946 72.1431L110.95 72.229L111.045 73.3343L112.135 73.1252L111.946 72.1431ZM111.083 62.1263L110.895 61.1443L110.009 61.3142L110.087 62.2122L111.083 62.1263ZM110.831 60.2808L109.834 60.3685L109.932 61.4716L111.019 61.2629L110.831 60.2808ZM110.589 57.5372L110.401 56.5551L109.514 56.7253L109.593 57.6248L110.589 57.5372ZM113.477 56.9831L114.473 56.8954L114.376 55.7923L113.288 56.001L113.477 56.9831ZM113.718 59.7267L113.906 60.7088L114.793 60.5386L114.714 59.6391L113.718 59.7267ZM112.778 61.6958L113.641 71.7126L115.634 71.5408L114.77 61.5241L112.778 61.6958ZM114.449 70.6446L111.758 71.1611L112.135 73.1252L114.826 72.6088L114.449 70.6446ZM112.943 72.0573L112.079 62.0405L110.087 62.2122L110.95 72.229L112.943 72.0573ZM111.271 63.1084L113.962 62.592L113.585 60.6278L110.895 61.1443L111.271 63.1084ZM111.827 60.1932L111.585 57.4495L109.593 57.6248L109.834 60.3685L111.827 60.1932ZM110.778 58.5192L113.665 57.9651L113.288 56.001L110.401 56.5551L110.778 58.5192ZM112.48 57.0707L112.722 59.8144L114.714 59.6391L114.473 56.8954L112.48 57.0707ZM113.529 58.7446L110.642 59.2988L111.019 61.2629L113.906 60.7088L113.529 58.7446ZM123.429 67.6586L123.618 68.6407L124.502 68.4709L124.426 67.5738L123.429 67.6586ZM122.958 62.1282L123.955 62.0434L123.861 60.9368L122.77 61.1461L122.958 62.1282ZM119.6 62.7728L119.411 61.7907L118.527 61.9604L118.603 62.8576L119.6 62.7728ZM120.07 68.3032L119.074 68.388L119.168 69.4945L120.259 69.2852L120.07 68.3032ZM125.464 59.2647L126.46 59.1807L126.367 58.0731L125.275 58.2826L125.464 59.2647ZM126.325 69.4855L126.514 70.4675L127.397 70.298L127.322 69.4014L126.325 69.4855ZM125.029 69.7342L124.677 70.6703L124.941 70.7694L125.217 70.7163L125.029 69.7342ZM123.558 69.1815L123.91 68.2454L123.368 68.0418L122.922 68.4102L123.558 69.1815ZM122.24 70.2695L122.428 71.2516L122.679 71.2034L122.876 71.0408L122.24 70.2695ZM119.863 70.7256L119.51 71.661L119.774 71.761L120.052 71.7077L119.863 70.7256ZM117.47 69.8205L116.473 69.904L116.526 70.5327L117.116 70.7558L117.47 69.8205ZM116.838 62.2845L116.203 61.5122L115.798 61.8454L115.842 62.368L116.838 62.2845ZM119.001 60.5049L118.813 59.5228L118.563 59.5708L118.366 59.7326L119.001 60.5049ZM121.378 60.0488L121.736 59.1151L121.47 59.0129L121.19 59.0667L121.378 60.0488ZM122.829 60.6053L122.471 61.5389L123.012 61.7465L123.461 61.3801L122.829 60.6053ZM124.167 59.5135L123.979 58.5314L123.731 58.579L123.535 58.7386L124.167 59.5135ZM124.426 67.5738L123.955 62.0434L121.962 62.213L122.433 67.7434L124.426 67.5738ZM122.77 61.1461L119.411 61.7907L119.788 63.7548L123.147 63.1103L122.77 61.1461ZM118.603 62.8576L119.074 68.388L121.067 68.2183L120.596 62.6879L118.603 62.8576ZM120.259 69.2852L123.618 68.6407L123.241 66.6765L119.882 67.3211L120.259 69.2852ZM124.467 59.3487L125.329 69.5695L127.322 69.4014L126.46 59.1807L124.467 59.3487ZM126.137 68.5034L124.841 68.7522L125.217 70.7163L126.514 70.4675L126.137 68.5034ZM125.381 68.7982L123.91 68.2454L123.207 70.1175L124.677 70.6703L125.381 68.7982ZM122.922 68.4102L121.603 69.4982L122.876 71.0408L124.195 69.9528L122.922 68.4102ZM122.051 69.2874L119.675 69.7435L120.052 71.7077L122.428 71.2516L122.051 69.2874ZM120.217 69.7903L117.823 68.8851L117.116 70.7558L119.51 71.661L120.217 69.7903ZM118.466 69.737L117.835 62.201L115.842 62.368L116.473 69.904L118.466 69.737ZM117.473 63.0568L119.637 61.2771L118.366 59.7326L116.203 61.5122L117.473 63.0568ZM119.19 61.4869L121.567 61.0308L121.19 59.0667L118.813 59.5228L119.19 61.4869ZM121.02 60.9824L122.471 61.5389L123.187 59.6716L121.736 59.1151L121.02 60.9824ZM123.461 61.3801L124.799 60.2883L123.535 58.7386L122.197 59.8304L123.461 61.3801ZM124.356 60.4956L125.652 60.2468L125.275 58.2826L123.979 58.5314L124.356 60.4956ZM131.545 68.3818L131.192 69.3172L131.456 69.4172L131.734 69.3639L131.545 68.3818ZM129.152 67.4767L128.156 67.5625L128.21 68.1895L128.798 68.4121L129.152 67.4767ZM128.008 54.1943L127.82 53.2122L126.934 53.3821L127.012 54.2801L128.008 54.1943ZM130.699 53.6778L131.695 53.5924L131.6 52.4866L130.51 52.6958L130.699 53.6778ZM131.753 65.9594L130.756 66.0448L130.851 67.1506L131.941 66.9414L131.753 65.9594ZM133.717 65.5824L134.713 65.4951L134.616 64.3916L133.528 64.6003L133.717 65.5824ZM133.922 67.9257L134.111 68.9078L134.997 68.7377L134.918 67.8384L133.922 67.9257ZM131.899 67.4465L129.506 66.5414L128.798 68.4121L131.192 69.3172L131.899 67.4465ZM130.148 67.3909L129.004 54.1085L127.012 54.2801L128.156 67.5625L130.148 67.3909ZM128.197 55.1763L130.887 54.6599L130.51 52.6958L127.82 53.2122L128.197 55.1763ZM129.703 53.7633L130.756 66.0448L132.749 65.8739L131.695 53.5924L129.703 53.7633ZM131.941 66.9414L133.905 66.5645L133.528 64.6003L131.564 64.9773L131.941 66.9414ZM132.721 65.6697L132.926 68.013L134.918 67.8384L134.713 65.4951L132.721 65.6697ZM133.734 66.9436L131.357 67.3997L131.734 69.3639L134.111 68.9078L133.734 66.9436ZM140.991 66.569L139.995 66.6546L140.09 67.7603L141.18 67.5511L140.991 66.569ZM139.787 52.5448L139.598 51.5627L138.713 51.7325L138.79 52.6304L139.787 52.5448ZM147.034 51.1538L147.388 50.2185L147.124 50.1185L146.846 50.1718L147.034 51.1538ZM149.428 52.0589L150.424 51.9748L150.371 51.3466L149.781 51.1236L149.428 52.0589ZM149.956 58.3115L150.591 59.0838L150.996 58.7504L150.952 58.2274L149.956 58.3115ZM147.792 60.0911L147.981 61.0732L148.231 61.0252L148.428 60.8634L147.792 60.0911ZM143.294 60.9543L143.106 59.9723L142.219 60.1424L142.298 61.0418L143.294 60.9543ZM143.741 66.0413L143.93 67.0234L144.816 66.8532L144.737 65.9538L143.741 66.0413ZM142.733 54.423L142.545 53.441L141.658 53.6112L141.737 54.5109L142.733 54.423ZM143.097 58.5484L142.101 58.6363L142.199 59.7391L143.286 59.5304L143.097 58.5484ZM147.124 57.7756L147.312 58.7577L148.199 58.5875L148.12 57.6877L147.124 57.7756ZM146.76 53.6503L147.756 53.5624L147.659 52.4596L146.571 52.6682L146.76 53.6503ZM141.988 66.4834L140.783 52.4592L138.79 52.6304L139.995 66.6546L141.988 66.4834ZM139.975 53.5268L147.223 52.1359L146.846 50.1718L139.598 51.5627L139.975 53.5268ZM146.681 52.0892L149.074 52.9943L149.781 51.1236L147.388 50.2185L146.681 52.0892ZM148.431 52.1431L148.959 58.3956L150.952 58.2274L150.424 51.9748L148.431 52.1431ZM149.32 57.5392L147.157 59.3189L148.428 60.8634L150.591 59.0838L149.32 57.5392ZM147.604 59.1091L143.106 59.9723L143.483 61.9364L147.981 61.0732L147.604 59.1091ZM142.298 61.0418L142.745 66.1288L144.737 65.9538L144.291 60.8669L142.298 61.0418ZM143.553 65.0592L140.803 65.587L141.18 67.5511L143.93 67.0234L143.553 65.0592ZM141.737 54.5109L142.101 58.6363L144.094 58.4605L143.729 54.3351L141.737 54.5109ZM143.286 59.5304L147.312 58.7577L146.935 56.7935L142.909 57.5663L143.286 59.5304ZM148.12 57.6877L147.756 53.5624L145.764 53.7382L146.128 57.8635L148.12 57.6877ZM146.571 52.6682L142.545 53.441L142.922 55.4051L146.948 54.6324L146.571 52.6682ZM158.914 60.8485L159.103 61.8306L159.987 61.6609L159.911 60.7637L158.914 60.8485ZM158.444 55.3181L159.44 55.2333L159.346 54.1267L158.255 54.336L158.444 55.3181ZM155.085 55.9627L154.896 54.9806L154.012 55.1503L154.089 56.0475L155.085 55.9627ZM155.556 61.4931L154.559 61.5779L154.653 62.6845L155.744 62.4752L155.556 61.4931ZM160.949 52.4546L161.945 52.3706L161.852 51.2631L160.76 51.4725L160.949 52.4546ZM161.811 62.6754L161.999 63.6575L162.883 63.4879L162.807 62.5914L161.811 62.6754ZM160.514 62.9242L160.162 63.8602L160.426 63.9593L160.703 63.9062L160.514 62.9242ZM159.044 62.3714L159.396 61.4354L158.854 61.2317L158.407 61.6001L159.044 62.3714ZM157.725 63.4594L157.914 64.4415L158.165 64.3934L158.362 64.2307L157.725 63.4594ZM155.349 63.9155L154.995 64.8509L155.259 64.9509L155.537 64.8976L155.349 63.9155ZM152.955 63.0104L151.959 63.0939L152.011 63.7226L152.601 63.9458L152.955 63.0104ZM152.323 55.4744L151.688 54.7021L151.283 55.0353L151.327 55.5579L152.323 55.4744ZM154.487 53.6948L154.298 52.7127L154.048 52.7607L153.851 52.9225L154.487 53.6948ZM156.863 53.2387L157.221 52.305L156.955 52.2028L156.675 52.2566L156.863 53.2387ZM158.314 53.7952L157.956 54.7289L158.497 54.9364L158.946 54.57L158.314 53.7952ZM159.652 52.7034L159.464 51.7213L159.216 51.7689L159.02 51.9286L159.652 52.7034ZM159.911 60.7637L159.44 55.2333L157.447 55.4029L157.918 60.9333L159.911 60.7637ZM158.255 54.336L154.896 54.9806L155.273 56.9448L158.632 56.3002L158.255 54.336ZM154.089 56.0475L154.559 61.5779L156.552 61.4083L156.081 55.8779L154.089 56.0475ZM155.744 62.4752L159.103 61.8306L158.726 59.8664L155.367 60.511L155.744 62.4752ZM159.952 52.5386L160.814 62.7594L162.807 62.5914L161.945 52.3706L159.952 52.5386ZM161.622 61.6933L160.326 61.9421L160.703 63.9062L161.999 63.6575L161.622 61.6933ZM160.866 61.9881L159.396 61.4354L158.692 63.3075L160.162 63.8602L160.866 61.9881ZM158.407 61.6001L157.089 62.6881L158.362 64.2307L159.68 63.1427L158.407 61.6001ZM157.537 62.4773L155.16 62.9335L155.537 64.8976L157.914 64.4415L157.537 62.4773ZM155.702 62.9802L153.309 62.0751L152.601 63.9458L154.995 64.8509L155.702 62.9802ZM153.952 62.9269L153.32 55.3909L151.327 55.5579L151.959 63.0939L153.952 62.9269ZM152.959 56.2467L155.122 54.4671L153.851 52.9225L151.688 54.7021L152.959 56.2467ZM154.675 54.6769L157.052 54.2208L156.675 52.2566L154.298 52.7127L154.675 54.6769ZM156.505 54.1723L157.956 54.7289L158.672 52.8615L157.221 52.305L156.505 54.1723ZM158.946 54.57L160.285 53.4783L159.02 51.9286L157.682 53.0204L158.946 54.57ZM159.841 53.6855L161.137 53.4367L160.76 51.4725L159.464 51.7213L159.841 53.6855ZM170.163 53.1707L170.352 54.1528L171.238 53.9827L171.16 53.0835L170.163 53.1707ZM166.785 53.8191L166.597 52.837L165.712 53.0068L165.789 53.9045L166.785 53.8191ZM167.443 61.4926L167.632 62.4747L168.516 62.3049L168.439 61.4072L167.443 61.4926ZM164.752 62.009L163.756 62.0949L163.851 63.2002L164.941 62.9911L164.752 62.009ZM163.889 51.9922L163.7 51.0101L162.815 51.18L162.893 52.0781L163.889 51.9922ZM166.108 51.5663L166.908 50.9663L166.534 50.4664L165.92 50.5842L166.108 51.5663ZM166.656 52.2962L165.856 52.8961L166.484 53.7342L167.292 53.0675L166.656 52.2962ZM167.974 51.2082L167.786 50.2261L167.535 50.2742L167.338 50.4368L167.974 51.2082ZM169.958 50.8274L170.954 50.7402L170.858 49.6366L169.77 49.8454L169.958 50.8274ZM169.975 52.1887L166.597 52.837L166.974 54.8012L170.352 54.1528L169.975 52.1887ZM165.789 53.9045L166.447 61.578L168.439 61.4072L167.781 53.7337L165.789 53.9045ZM167.255 60.5105L164.564 61.0269L164.941 62.9911L167.632 62.4747L167.255 60.5105ZM165.749 61.9231L164.885 51.9063L162.893 52.0781L163.756 62.0949L165.749 61.9231ZM164.077 52.9743L166.297 52.5483L165.92 50.5842L163.7 51.0101L164.077 52.9743ZM165.308 52.1662L165.856 52.8961L167.456 51.6962L166.908 50.9663L165.308 52.1662ZM167.292 53.0675L168.611 51.9795L167.338 50.4368L166.019 51.5249L167.292 53.0675ZM168.163 52.1902L170.147 51.8095L169.77 49.8454L167.786 50.2261L168.163 52.1902ZM168.962 50.9147L169.167 53.258L171.16 53.0835L170.954 50.7402L168.962 50.9147ZM174.221 45.3254L175.217 45.2399L175.123 44.1341L174.033 44.3433L174.221 45.3254ZM174.962 53.9605L173.966 54.046L174.06 55.1518L175.15 54.9426L174.962 53.9605ZM175.001 53.953L175.19 54.9351L175.635 54.8496L175.864 54.4581L175.001 53.953ZM177.7 49.3416L177.512 48.3595L177.067 48.445L176.837 48.8364L177.7 49.3416ZM180.784 48.7498L181.639 49.2694L182.81 47.3427L180.596 47.7677L180.784 48.7498ZM177.657 53.8913L176.803 53.3717L176.403 54.0295L176.936 54.5844L177.657 53.8913ZM182.237 58.6535L182.425 59.6356L184.235 59.2883L182.958 57.9604L182.237 58.6535ZM179.114 59.2529L178.385 59.9372L178.761 60.3387L179.302 60.2349L179.114 59.2529ZM176.247 56.1985L176.976 55.5141L176.072 54.5512L175.39 55.6823L176.247 56.1985ZM175.289 57.7874L174.433 57.2713L174.264 57.5506L174.293 57.8754L175.289 57.7874ZM175.48 59.9502L175.669 60.9323L176.556 60.762L176.476 59.8622L175.48 59.9502ZM172.789 60.4666L171.793 60.5524L171.888 61.6578L172.978 61.4487L172.789 60.4666ZM171.53 45.8418L171.342 44.8597L170.457 45.0296L170.534 45.9276L171.53 45.8418ZM173.225 45.4109L173.966 54.046L175.958 53.875L175.217 45.2399L173.225 45.4109ZM175.15 54.9426L175.19 54.9351L174.813 52.9709L174.773 52.9784L175.15 54.9426ZM175.864 54.4581L178.563 49.8468L176.837 48.8364L174.138 53.4478L175.864 54.4581ZM177.889 50.3237L180.973 49.7319L180.596 47.7677L177.512 48.3595L177.889 50.3237ZM179.93 48.2302L176.803 53.3717L178.512 54.4109L181.639 49.2694L179.93 48.2302ZM176.936 54.5844L181.516 59.3467L182.958 57.9604L178.378 53.1981L176.936 54.5844ZM182.048 57.6714L178.925 58.2708L179.302 60.2349L182.425 59.6356L182.048 57.6714ZM179.843 58.5685L176.976 55.5141L175.518 56.8829L178.385 59.9372L179.843 58.5685ZM175.39 55.6823L174.433 57.2713L176.146 58.3036L177.103 56.7147L175.39 55.6823ZM174.293 57.8754L174.484 60.0382L176.476 59.8622L176.285 57.6995L174.293 57.8754ZM175.292 58.9681L172.601 59.4845L172.978 61.4487L175.669 60.9323L175.292 58.9681ZM173.786 60.3809L172.527 45.756L170.534 45.9276L171.793 60.5524L173.786 60.3809ZM171.719 46.8239L174.41 46.3075L174.033 44.3433L171.342 44.8597L171.719 46.8239Z" fill="#FF5B29"/>
<g filter="url(#filter2_f_1142_35964)">
<path d="M239.264 155.338L187 114.53L211.595 110.68L280 151.488L269.5 187L192.5 169L217.253 160.046L239.264 155.338Z" fill="url(#paint3_linear_1142_35964)"/>
</g>
<path d="M164.124 7.67969H24.6407C5.02843 34.6023 23.2316 57.7281 35.6302 62.9055C73.9529 57.1528 149.246 41.8507 157.361 40.47C165.477 39.0894 185.258 41.3329 185.258 52.5507V114.68H214C209.773 95.9835 213.324 53.5861 207.237 33.5668C201.151 13.5474 175.959 7.96732 164.124 7.67969Z" fill="#696969" stroke="#585858"/>
<path d="M164.786 7.67969H24.4923C4.76615 34.6023 23.9257 56.0023 36.3962 61.1797C69.5565 44.7845 156.623 38.399 164.786 37.0184C172.949 35.6378 186.043 41.3329 186.043 52.5507V114.68H209C204.749 95.9835 210.871 53.5861 204.749 33.5668C198.627 13.5474 176.69 7.96732 164.786 7.67969Z" fill="#AFAFAF" stroke="#585858"/>
<path d="M162.712 7.67969H22.8801C3.21891 34.6023 13.8405 38.7442 26.27 43.9216C53.3888 28.3894 152.033 26.3184 160.169 24.9378C168.305 23.5571 183.898 36.1555 183.898 47.3732V114.68H200C195.763 95.9835 200.17 57.0378 194.068 37.0184C187.966 16.999 174.576 7.96732 162.712 7.67969Z" fill="#DBDBDB" stroke="#585858"/>
<path d="M46.0191 4.4256C39.1547 2.7474 30.0593 4.42542 28 4.42542L38.2966 65.6797L52.8836 61.4844C80.3413 30.4377 58.0319 11.9775 46.0191 4.4256Z" fill="#A1A1A1" stroke="#585858"/>
<path d="M58.713 31.9871C60.8012 49.415 50.2393 64.8853 35.2837 66.6773C20.3281 68.4693 6.41034 55.9322 4.32211 38.5043C2.23388 21.0764 12.7957 5.60612 27.7514 3.81411C42.707 2.02211 56.6247 14.5592 58.713 31.9871Z" fill="#DBDBDB" stroke="#585858"/>
<path d="M50.0668 32.9067C51.8965 48.1767 43.6194 61.5105 31.8424 62.9217C20.0654 64.3328 8.87242 53.3319 7.04274 38.0619C5.21306 22.7918 13.4902 9.458 25.2672 8.04686C37.0442 6.63573 48.2371 17.6366 50.0668 32.9067Z" fill="url(#paint4_radial_1142_35964)" stroke="#585858"/>
<path d="M25.215 9.67969C20.9744 19.0163 11.6452 35.9919 32 53.8163C17.5821 64.0017 -7.86199 30.0504 25.215 9.67969Z" fill="#549D99" stroke="#585858"/>
<path d="M31 12.6797C36.1455 15.9389 45.6133 24.9019 42.3201 34.6797C38.5468 27.8896 31 13.9834 31 12.6797Z" fill="white" stroke="#585858"/>
<path d="M143.33 44.5555C161.752 27.5041 148.08 9.67832 141.395 7.12173L138.876 6.26568L133 4.53581L139.716 3.69731C145.592 3.41194 157.848 6.43672 159.863 24.2441C161.258 36.5719 151.736 42.3538 143.33 44.5555C143.245 44.634 143.16 44.7126 143.074 44.7912L141.909 44.8969C138.715 45.5962 135.792 45.7829 133.839 45.6297L141.909 44.8969C142.378 44.7943 142.852 44.6807 143.33 44.5555Z" fill="#A1A1A1"/>
<path d="M141.395 7.12173C148.11 9.6901 161.878 27.6687 143.074 44.7912L133.839 45.6297C141.115 46.2005 161.878 42.0515 159.863 24.2441C157.848 6.43672 145.592 3.41194 139.716 3.69731L133 4.53581L138.876 6.26568L141.395 7.12173Z" stroke="#585858"/>
<path d="M136.52 44.7681C154.776 27.7166 141.41 10.6652 134.89 8.10745L132.445 7.25496H130L133.26 4.69724C138.965 4.41305 150.864 7.42528 152.82 25.1588C154.776 42.8923 140.323 46.1891 133.26 45.6207L136.52 44.7681Z" fill="#DBDBDB" stroke="#585858"/>
<path d="M192.715 18.0311C194.306 27.2473 182.102 41.4907 178.388 43.1664L176 42.3285C187.143 52.3826 201.47 27.2473 199.878 22.2203C198.527 17.9547 193.511 14.6797 191.123 14.6797L192.715 18.0311Z" fill="#A1A1A1" stroke="#585858"/>
<path d="M191.691 16.3457C193.26 25.5085 181.23 40.5022 177.569 42.1682H176C189.337 46.3331 197.967 23.8425 195.614 18.8446C193.731 14.8463 191.691 14.6797 189.337 14.6797L191.691 16.3457Z" fill="#D9D9D9" stroke="#585858"/>
<path d="M199.344 72.8448C192.594 73.4002 186.969 71.6878 185 70.7623C186.125 72.6134 190.569 76.177 199.344 75.6216C208.119 75.0662 211.438 70.7623 212 68.6797C210.594 69.8367 206.094 72.2895 199.344 72.8448Z" fill="#D9D9D9" stroke="#585858"/>
<path d="M184 77.2104V70.279C186.828 71.1454 188.242 76.344 198.424 76.344C203.897 76.344 209.172 71.723 212 67.6797V73.7447C211.717 76.0552 208.945 81.0227 200.121 82.409C191.297 83.7953 185.697 79.5209 184 77.2104Z" fill="#A1A1A1" stroke="#585858"/>
<path d="M199.258 72.8448C192.548 73.4002 186.957 71.6878 185 70.7623C186.118 72.6134 190.535 76.177 199.258 75.6216C207.981 75.0662 210.441 70.7623 211 68.6797C209.602 69.8367 205.968 72.2895 199.258 72.8448Z" fill="#D9D9D9" stroke="#585858"/>
<defs>
<filter id="filter0_i_1142_35964" x="36.7314" y="35.6572" width="153.777" height="67.8213" filterUnits="userSpaceOnUse" color-interpolation-filters="sRGB">
<feFlood flood-opacity="0" result="BackgroundImageFix"/>
<feBlend mode="normal" in="SourceGraphic" in2="BackgroundImageFix" result="shape"/>
<feColorMatrix in="SourceAlpha" type="matrix" values="0 0 0 0 0 0 0 0 0 0 0 0 0 0 0 0 0 0 127 0" result="hardAlpha"/>
<feOffset dx="-2" dy="7"/>
<feGaussianBlur stdDeviation="2"/>
<feComposite in2="hardAlpha" operator="arithmetic" k2="-1" k3="1"/>
<feColorMatrix type="matrix" values="0 0 0 0 0.666667 0 0 0 0 0.36 0 0 0 0 0 0 0 0 0.45 0"/>
<feBlend mode="normal" in2="shape" result="effect1_innerShadow_1142_35964"/>
</filter>
<filter id="filter1_i_1142_35964" x="40.876" y="44.2324" width="141.812" height="43.1201" filterUnits="userSpaceOnUse" color-interpolation-filters="sRGB">
<feFlood flood-opacity="0" result="BackgroundImageFix"/>
<feBlend mode="normal" in="SourceGraphic" in2="BackgroundImageFix" result="shape"/>
<feColorMatrix in="SourceAlpha" type="matrix" values="0 0 0 0 0 0 0 0 0 0 0 0 0 0 0 0 0 0 127 0" result="hardAlpha"/>
<feOffset dy="2"/>
<feGaussianBlur stdDeviation="1"/>
<feComposite in2="hardAlpha" operator="arithmetic" k2="-1" k3="1"/>
<feColorMatrix type="matrix" values="0 0 0 0 0 0 0 0 0 0 0 0 0 0 0 0 0 0 0.5 0"/>
<feBlend mode="normal" in2="shape" result="effect1_innerShadow_1142_35964"/>
</filter>
<filter id="filter2_f_1142_35964" x="185" y="108.68" width="97" height="80.3203" filterUnits="userSpaceOnUse" color-interpolation-filters="sRGB">
<feFlood flood-opacity="0" result="BackgroundImageFix"/>
<feBlend mode="normal" in="SourceGraphic" in2="BackgroundImageFix" result="shape"/>
<feGaussianBlur stdDeviation="1" result="effect1_foregroundBlur_1142_35964"/>
</filter>
<radialGradient id="paint0_radial_1142_35964" cx="0" cy="0" r="1" gradientUnits="userSpaceOnUse" gradientTransform="translate(173.5 42) rotate(12.5288) scale(3.07318 4.01321)">
<stop stop-color="white"/>
<stop offset="1" stop-color="#7D7D7D"/>
</radialGradient>
<radialGradient id="paint1_radial_1142_35964" cx="0" cy="0" r="1" gradientUnits="userSpaceOnUse" gradientTransform="translate(175.5 80) rotate(12.5288) scale(3.07318 4.01321)">
<stop stop-color="white"/>
<stop offset="1" stop-color="#7D7D7D"/>
</radialGradient>
<radialGradient id="paint2_radial_1142_35964" cx="0" cy="0" r="1" gradientUnits="userSpaceOnUse" gradientTransform="translate(152.5 13) rotate(12.5288) scale(3.07318 4.01321)">
<stop stop-color="white"/>
<stop offset="1" stop-color="#7D7D7D"/>
</radialGradient>
<linearGradient id="paint3_linear_1142_35964" x1="233.884" y1="114.53" x2="257.017" y2="189.193" gradientUnits="userSpaceOnUse">
<stop stop-color="#A86737"/>
<stop offset="1" stop-color="#DF9965" stop-opacity="0"/>
</linearGradient>
<radialGradient id="paint4_radial_1142_35964" cx="0" cy="0" r="1" gradientUnits="userSpaceOnUse" gradientTransform="translate(28.5548 35.4843) rotate(83.1673) scale(28.1337 22.1659)">
<stop stop-color="#98DACC"/>
<stop offset="1" stop-color="#4FB49E"/>
</radialGradient>
</defs>
</svg>
