<svg width="60" height="62" viewBox="0 0 60 62" fill="none" xmlns="http://www.w3.org/2000/svg">
<path d="M46.3001 8.57228L45.0276 7.59432C44.5747 7.33353 44.1649 7.05105 43.712 6.812C42.7849 6.33549 41.8177 5.94283 40.8218 5.63852C38.7817 5.02435 36.6464 4.79595 34.5238 4.96484C32.3745 5.14155 30.276 5.71613 28.3336 6.65986C26.3489 7.58466 24.5726 8.90837 23.114 10.5498C24.4721 8.78225 26.1658 7.30474 28.0963 6.20344C30.5638 4.75827 33.3306 3.90995 36.1788 3.72517C39.027 3.54039 41.8789 4.02421 44.51 5.1386C45.0492 5.35591 45.5884 5.66013 46.1276 5.92091L47.5512 6.83375C47.7911 6.98964 47.9599 7.23497 48.0205 7.51606C48.0812 7.79715 48.0287 8.09107 47.8747 8.33326C47.8019 8.457 47.7049 8.56452 47.5897 8.64948C47.4745 8.73443 47.3434 8.79499 47.2043 8.82748C47.0652 8.85998 46.921 8.86382 46.7804 8.83862C46.6399 8.81343 46.5059 8.75974 46.3864 8.68091L46.3001 8.57228Z" fill="white" stroke="white" stroke-width="2"/>
<path d="M56.2652 22.3943L55.8122 20.9383C54.4115 17.4448 51.9602 14.4809 48.8025 12.4628C45.4954 10.5088 41.663 9.64981 37.8457 10.0071L36.4006 10.3331L37.8025 9.8767C41.7115 9.19318 45.7349 9.77124 49.2986 11.5283C52.8914 13.4285 55.803 16.4153 57.624 20.069L58.2064 21.4816C58.315 21.7496 58.3136 22.0502 58.2023 22.3171C58.0911 22.5841 57.8792 22.7955 57.6132 22.905C57.3472 23.0145 57.049 23.0131 56.784 22.901C56.5191 22.7889 56.3091 22.5754 56.2004 22.3074C56.2004 22.3074 56.2652 22.4378 56.2652 22.3943Z" fill="white" stroke="white" stroke-width="2"/>
<path d="M56.2436 39.6067C56.9755 37.6264 57.3339 35.526 57.3004 33.4131C57.2766 31.2901 56.8368 29.1927 56.0063 27.2413C54.2877 23.204 51.1447 19.952 47.1848 18.1139C51.4072 19.6853 54.898 22.7841 56.9769 26.8067C58.044 28.8298 58.7037 31.0454 58.9181 33.3263C59.1316 35.6261 58.9269 37.9459 58.3142 40.1717C58.2788 40.3144 58.2158 40.4487 58.1289 40.5669C58.042 40.6851 57.9328 40.7849 57.8077 40.8605C57.6825 40.9362 57.5438 40.9863 57.3994 41.0079C57.255 41.0296 57.1078 41.0224 56.9661 40.9867C56.8245 40.951 56.6913 40.8876 56.574 40.8001C56.4567 40.7125 56.3577 40.6025 56.2826 40.4764C56.2075 40.3503 56.1577 40.2104 56.1363 40.065C56.1148 39.9195 56.1219 39.7711 56.1573 39.6284L56.2436 39.6067Z" fill="white" stroke="white" stroke-width="2"/>
<path d="M46.2574 53.5143C47.1315 52.9361 47.9477 52.2738 48.6947 51.5367C49.4423 50.8088 50.1078 49.9997 50.679 49.1244C51.8829 47.3745 52.7532 45.4143 53.2456 43.3437C53.7477 41.2084 53.8502 38.9974 53.5476 36.8242C53.2536 34.6403 52.5197 32.5399 51.3908 30.6522C52.6654 32.4734 53.5605 34.5361 54.0221 36.7155C54.493 38.9301 54.5661 41.2118 54.2378 43.4524C53.6783 46.8877 52.1852 50.0997 49.9241 52.7319C49.168 53.6001 48.338 54.3999 47.4437 55.1224C47.3332 55.2123 47.2063 55.2794 47.0701 55.3199C46.9339 55.3604 46.7911 55.3734 46.6499 55.3582C46.5087 55.3431 46.3719 55.3001 46.2472 55.2317C46.1225 55.1633 46.0124 55.0707 45.9231 54.9594C45.8339 54.8481 45.7673 54.7202 45.7272 54.583C45.687 54.4457 45.6741 54.302 45.6891 54.1597C45.7041 54.0174 45.7468 53.8795 45.8147 53.7538C45.8826 53.6282 45.9745 53.5173 46.0849 53.4274L46.2574 53.5143Z" fill="white" stroke="white" stroke-width="2"/>
<path d="M29.8868 58.8829C31.0083 58.8829 32.0436 58.8829 33.0789 58.6873C34.1055 58.5438 35.1164 58.3037 36.0985 57.9701C39.1495 56.871 41.8317 54.9286 43.8381 52.3651C45.8445 49.8016 47.0939 46.7206 47.4435 43.4749C47.3201 48.0098 45.4661 52.322 42.2671 55.5144C40.6613 57.1498 38.7668 58.4692 36.6808 59.4045C35.6307 59.8863 34.5314 60.2507 33.4024 60.4911C32.2593 60.7301 31.1161 60.8605 30.0593 60.9909C29.7733 61.0283 29.4842 60.9498 29.2557 60.7725C29.0271 60.5952 28.8778 60.3337 28.8407 60.0455C28.8035 59.7573 28.8814 59.466 29.0574 59.2357C29.2334 59.0055 29.4929 58.8551 29.7789 58.8177L29.8868 58.8829Z" fill="white" stroke="white" stroke-width="2"/>
<path d="M13.775 53.4703L15.0475 54.4483C15.4789 54.7091 15.8887 54.9917 16.3416 55.209C17.2682 55.6924 18.2354 56.0924 19.2318 56.4042C21.262 56.9946 23.3776 57.2298 25.4867 57.0997C27.6232 56.9287 29.7086 56.3536 31.6337 55.4045C33.5687 54.3985 35.3251 53.0767 36.8317 51.4928C35.4348 53.2065 33.7658 54.6751 31.8925 55.8392C29.9581 56.9625 27.8272 57.7003 25.6161 58.0124C23.3654 58.3608 21.0707 58.2945 18.8436 57.8167C17.7139 57.5825 16.609 57.2405 15.5436 56.7954C15.0044 56.5781 14.4867 56.2739 13.9475 56.0131L12.524 55.1002C12.2999 54.9376 12.1464 54.6946 12.0949 54.4213C12.0434 54.1479 12.0979 53.8651 12.2472 53.6311C12.3965 53.3971 12.6293 53.2296 12.8975 53.1633C13.1656 53.097 13.4488 53.137 13.6887 53.2748L13.775 53.4703Z" fill="white" stroke="white" stroke-width="2"/>
<path d="M3.68093 39.5192L4.13385 40.9752C5.60328 44.7379 8.30481 47.8818 11.7906 49.8854C13.5546 50.9029 15.4941 51.5739 17.5063 51.8629C19.5517 52.1307 21.6261 52.0722 23.6533 51.6891C21.6297 52.237 19.5352 52.4713 17.4416 52.3844C15.3195 52.2454 13.2418 51.7074 11.3161 50.7981C7.37906 48.9279 4.19162 45.7623 2.27893 41.8228L1.6966 40.4103C1.64279 40.2776 1.61542 40.1354 1.6161 39.992C1.61678 39.8487 1.64554 39.7069 1.70062 39.5748C1.75569 39.4426 1.83603 39.3225 1.93711 39.2217C2.0382 39.1208 2.15801 39.041 2.28972 38.9868C2.42143 38.9325 2.56245 38.905 2.70473 38.9057C2.847 38.9064 2.98776 38.9352 3.11895 38.9907C3.25013 39.0462 3.36919 39.1272 3.46932 39.2291C3.56944 39.3309 3.64864 39.4517 3.70246 39.5844L3.68093 39.5192Z" fill="white" stroke="white" stroke-width="2"/>
<path d="M3.72363 22.2862C2.63017 25.3162 2.40219 28.5945 3.06561 31.7485C3.72903 34.9024 5.25722 37.8057 7.47653 40.1282C9.01668 41.6821 10.8025 42.9673 12.7608 43.9313C10.702 43.1184 8.79219 41.9653 7.1099 40.5194C5.42822 39.0158 4.03862 37.2103 3.0119 35.195C1.99277 33.1539 1.34272 30.9462 1.09227 28.6754C0.871892 26.3734 1.04698 24.0503 1.6099 21.8082C1.64272 21.6677 1.70301 21.5351 1.78722 21.4184C1.87143 21.3016 1.97792 21.2029 2.1004 21.128C2.22288 21.0531 2.35891 21.0036 2.5006 20.9824C2.64229 20.9611 2.78678 20.9684 2.92561 21.004C3.20424 21.0759 3.44381 21.255 3.59298 21.5028C3.74215 21.7506 3.78904 22.0475 3.72363 22.3297V22.2862Z" fill="white" stroke="white" stroke-width="2"/>
<path d="M13.8182 8.55089C12.1407 9.62172 10.6775 11.0002 9.50452 12.6147C8.335 14.2256 7.46535 16.037 6.93786 17.9609C5.82006 21.9433 6.14897 26.1969 7.86536 29.9569L8.59868 31.2825L7.77906 30.0221C5.7353 26.2729 5.05625 21.922 5.85943 17.7218C6.69861 13.4157 9.0493 9.55818 12.481 6.85586C12.7082 6.70064 12.9856 6.63852 13.2566 6.68224C13.5277 6.72595 13.772 6.87211 13.9398 7.09104C14.1076 7.30996 14.1862 7.5852 14.1596 7.86049C14.133 8.13577 14.0032 8.39042 13.7967 8.57264L13.8182 8.55089Z" fill="white" stroke="white" stroke-width="2"/>
<path d="M30.0808 3.16068C29.0024 3.16068 27.924 3.16071 27.0612 3.33457C26.0885 3.45901 25.1285 3.66986 24.1926 3.96475C22.3118 4.5886 20.5529 5.53716 18.9946 6.76812C15.787 9.32803 13.561 12.9306 12.6966 16.9604L12.5025 18.5252V16.9604C12.9367 13.7782 14.1852 10.7645 16.1251 8.2155C18.065 5.6665 20.6297 3.66987 23.5672 2.42173C24.58 2.01196 25.6264 1.692 26.6945 1.46552C27.773 1.26993 28.8514 1.16136 29.8004 1.00923C30.0859 0.971885 30.3746 1.04873 30.6045 1.22345C30.8343 1.39816 30.9871 1.6568 31.0298 1.94369C31.0669 2.23139 30.9906 2.52227 30.8172 2.75386C30.6438 2.98546 30.3871 3.13934 30.1024 3.18243L30.0808 3.16068Z" fill="white" stroke="white" stroke-width="2"/>
</svg>
