<svg width="35" height="35" viewBox="0 0 35 35" fill="none" xmlns="http://www.w3.org/2000/svg">
<g filter="url(#filter0_d_1083_126768)">
<rect x="4.35693" y="27.0005" width="26.7293" height="26.4033" transform="rotate(-90 4.35693 27.0005)" fill="#6C9392"/>
</g>
<path d="M11.3995 21.8991C11.8071 22.1981 12.2363 22.4669 12.6837 22.7036C13.1349 22.9195 13.6094 23.0841 14.098 23.1943C15.097 23.432 16.1388 23.432 17.1378 23.1943L17.4873 23.0737L17.1541 23.2345C16.1624 23.6188 15.0921 23.7622 14.0329 23.6529C13.4928 23.6038 12.9606 23.4904 12.448 23.315C11.9486 23.1246 11.4626 22.9015 10.9931 22.6473C10.895 22.6025 10.8189 22.5209 10.7816 22.4206C10.7442 22.3203 10.7487 22.2094 10.794 22.1123C10.8392 22.0152 10.9216 21.9399 11.023 21.9029C11.1243 21.866 11.2364 21.8704 11.3345 21.9152L11.3832 21.9152L11.3995 21.8991Z" fill="white" stroke="white" stroke-width="2"/>
<path d="M7.67675 16.7502C7.81078 17.2549 8.00735 17.7413 8.26197 18.1983C8.51673 18.6561 8.82501 19.0827 9.18043 19.4693C9.91766 20.2606 10.8463 20.8531 11.8789 21.1909C10.7802 20.9723 9.7562 20.4794 8.90408 19.759C8.46961 19.3918 8.07958 18.976 7.74179 18.52C7.41494 18.0559 7.14227 17.5566 6.929 17.0318C6.90872 16.9826 6.8984 16.93 6.89866 16.8769C6.89892 16.8239 6.90973 16.7714 6.93049 16.7225C6.95124 16.6735 6.98154 16.6291 7.01963 16.5917C7.05773 16.5544 7.10288 16.5249 7.15251 16.5048C7.20214 16.4847 7.25529 16.4745 7.3089 16.4748C7.36252 16.475 7.41556 16.4857 7.465 16.5063C7.51443 16.5268 7.5593 16.5568 7.59703 16.5945C7.63476 16.6322 7.66461 16.6769 7.68489 16.726C7.68489 16.726 7.66863 16.7341 7.67675 16.7502Z" fill="white" stroke="white" stroke-width="2"/>
<path d="M7.69319 10.3783C7.50513 10.8671 7.36893 11.374 7.2868 11.8907C7.2188 12.425 7.2188 12.9655 7.2868 13.4997C7.41387 14.5685 7.82004 15.586 8.46533 16.4521C7.69263 15.6463 7.1487 14.6528 6.88853 13.5721C6.74836 13.0252 6.67737 12.4631 6.6772 11.8988C6.69352 11.3351 6.76704 10.7745 6.89665 10.2255C6.90572 10.1726 6.92521 10.1221 6.95402 10.0767C6.98282 10.0314 7.02037 9.99204 7.06452 9.96104C7.10868 9.93004 7.15859 9.90795 7.21137 9.89603C7.26414 9.88411 7.31876 9.88263 7.37212 9.89161C7.42549 9.90059 7.47656 9.91986 7.52239 9.94837C7.56822 9.97688 7.60795 10.0141 7.63927 10.0578C7.67059 10.1015 7.69291 10.1508 7.70495 10.2031C7.71699 10.2553 7.71851 10.3094 7.70944 10.3622C7.70944 10.3622 7.70944 10.3622 7.70944 10.4105L7.69319 10.3783Z" fill="white" stroke="white" stroke-width="2"/>
<path d="M11.4565 5.22975C11.0187 5.51932 10.6152 5.85663 10.2535 6.23536C9.52483 7.00898 9 7.94845 8.72547 8.97062C8.5926 9.49709 8.52171 10.037 8.51416 10.5796C8.4556 10.0448 8.4556 9.50538 8.51416 8.97062C8.59466 8.4188 8.742 7.87859 8.95305 7.36166C9.16122 6.83944 9.43425 6.34489 9.76584 5.88944C10.1011 5.43142 10.4883 5.01303 10.92 4.6425C10.9578 4.6048 11.0028 4.57488 11.0523 4.55446C11.1018 4.53404 11.1549 4.52352 11.2085 4.52352C11.2622 4.52352 11.3153 4.53404 11.3648 4.55446C11.4144 4.57488 11.4593 4.6048 11.4971 4.6425C11.5716 4.71769 11.6133 4.81881 11.6133 4.9241C11.6133 5.02938 11.5716 5.13045 11.4971 5.20565L11.4565 5.22975Z" fill="white" stroke="white" stroke-width="2"/>
<path d="M17.5848 3.29901L17.1946 3.29901C16.2566 3.29809 15.3288 3.49273 14.4718 3.87021C13.6043 4.28356 12.8323 4.86961 12.2041 5.59176L11.9846 5.92163L12.1553 5.56766C12.7035 4.73196 13.433 4.0276 14.2906 3.50577C15.1482 2.98395 16.1125 2.65775 17.1134 2.55084L17.5035 2.55084C17.5569 2.54758 17.6104 2.55476 17.661 2.57201C17.7115 2.58926 17.7582 2.61623 17.7982 2.65135C17.8382 2.68648 17.8709 2.72908 17.8942 2.77671C17.9176 2.82435 17.9312 2.87607 17.9343 2.92893C17.9376 2.98177 17.9303 3.03477 17.9129 3.08483C17.8955 3.13488 17.8682 3.18103 17.8327 3.22064C17.7972 3.26025 17.7542 3.29254 17.7061 3.31565C17.6579 3.33876 17.6057 3.35225 17.5523 3.35533L17.5848 3.29901Z" fill="white" stroke="white" stroke-width="2"/>
<path d="M23.6889 5.24609L23.3638 4.98865C22.6006 4.44168 21.7236 4.0704 20.7969 3.90198C19.8702 3.73356 18.9171 3.77229 18.0074 4.01526L17.6092 4.08763L17.9912 3.96699C18.9194 3.60049 19.9187 3.44418 20.9158 3.50961C21.913 3.57503 22.8827 3.86051 23.7539 4.34508L24.1115 4.5623C24.2031 4.61884 24.2683 4.70906 24.2927 4.81316C24.3171 4.91726 24.2987 5.02672 24.2416 5.1174C24.1844 5.20808 24.0933 5.27258 23.9881 5.29672C23.8829 5.32086 23.7723 5.30263 23.6807 5.24609C23.6834 5.24596 23.6862 5.24596 23.6889 5.24609Z" fill="white" stroke="white" stroke-width="2"/>
<path d="M27.4927 10.4185C27.3677 9.94113 27.1877 9.47958 26.9562 9.04288C26.7216 8.60827 26.4351 8.20313 26.1028 7.83616C25.4359 7.08091 24.6013 6.48886 23.6644 6.1065L23.2824 5.9858L23.6807 6.05823C25.2392 6.46968 26.6008 7.41277 27.5252 8.72107C27.8311 9.1655 28.0899 9.63998 28.2974 10.137C28.3387 10.2353 28.3397 10.3457 28.3003 10.4448C28.2608 10.5439 28.184 10.6239 28.086 10.6679C27.9855 10.7062 27.874 10.705 27.7743 10.6647C27.6746 10.6243 27.5942 10.5478 27.5496 10.4507L27.4927 10.4185Z" fill="white" stroke="white" stroke-width="2"/>
<path d="M27.4765 16.7984C27.6533 16.3023 27.7813 15.7904 27.8585 15.2699C27.9265 14.7357 27.9265 14.1951 27.8585 13.6609C27.7059 12.5914 27.3084 11.5705 26.6962 10.6763C27.4361 11.512 27.9702 12.5061 28.2568 13.5804C28.3951 14.1329 28.4606 14.7008 28.4519 15.2699C28.4432 15.8349 28.3806 16.3978 28.2649 16.9512C28.2433 17.0579 28.1799 17.1518 28.0884 17.2121C27.9969 17.2725 27.885 17.2944 27.7772 17.273C27.6694 17.2517 27.5746 17.1889 27.5137 17.0983C27.4527 17.0078 27.4306 16.897 27.4521 16.7904C27.4521 16.7904 27.4765 16.8064 27.4765 16.7984Z" fill="white" stroke="white" stroke-width="2"/>
<path d="M23.6892 21.9233L24.0468 21.7062C24.8325 21.0926 25.4826 20.3259 25.9569 19.4536C26.1955 19.008 26.3784 18.5352 26.5015 18.0458C26.6132 17.5488 26.6758 17.0423 26.6884 16.5333C26.7412 17.0469 26.7412 17.5644 26.6884 18.0779C26.6227 18.6006 26.4945 19.1138 26.3064 19.6065C25.9135 20.6047 25.3157 21.5114 24.5508 22.2693L24.2257 22.5267C24.1417 22.5817 24.0401 22.6039 23.9406 22.589C23.841 22.5741 23.7506 22.5231 23.6869 22.446C23.6231 22.3689 23.5905 22.2711 23.5955 22.1716C23.6004 22.072 23.6425 21.9779 23.7136 21.9073C23.7065 21.9141 23.6983 21.9195 23.6892 21.9233Z" fill="white" stroke="white" stroke-width="2"/>
<path d="M17.585 23.8778C18.104 23.9251 18.6273 23.8952 19.1374 23.7893C19.655 23.6891 20.1575 23.5242 20.633 23.2986C21.6131 22.8248 22.4718 22.1372 23.1445 21.2873C22.5624 22.2337 21.7737 23.0391 20.8362 23.6445C20.3558 23.9539 19.8366 24.2001 19.2919 24.3766C18.7412 24.5611 18.1661 24.6642 17.585 24.6823C17.5316 24.6834 17.4786 24.674 17.4289 24.6547C17.3791 24.6355 17.3337 24.6068 17.2952 24.5702C17.2567 24.5336 17.2259 24.4898 17.2045 24.4414C17.1831 24.393 17.1716 24.3409 17.1705 24.2881C17.1683 24.2349 17.177 24.182 17.196 24.1323C17.215 24.0826 17.244 24.0372 17.2812 23.9989C17.3184 23.9606 17.3631 23.93 17.4125 23.9092C17.4619 23.8884 17.5151 23.8778 17.5688 23.8778L17.585 23.8778Z" fill="white" stroke="white" stroke-width="2"/>
<defs>
<filter id="filter0_d_1083_126768" x="0.356934" y="0.27124" width="34.4033" height="34.7292" filterUnits="userSpaceOnUse" color-interpolation-filters="sRGB">
<feFlood flood-opacity="0" result="BackgroundImageFix"/>
<feColorMatrix in="SourceAlpha" type="matrix" values="0 0 0 0 0 0 0 0 0 0 0 0 0 0 0 0 0 0 127 0" result="hardAlpha"/>
<feOffset dy="4"/>
<feGaussianBlur stdDeviation="2"/>
<feComposite in2="hardAlpha" operator="out"/>
<feColorMatrix type="matrix" values="0 0 0 0 0 0 0 0 0 0 0 0 0 0 0 0 0 0 0.25 0"/>
<feBlend mode="normal" in2="BackgroundImageFix" result="effect1_dropShadow_1083_126768"/>
<feBlend mode="normal" in="SourceGraphic" in2="effect1_dropShadow_1083_126768" result="shape"/>
</filter>
</defs>
</svg>
