<svg width="35" height="35" viewBox="0 0 35 35" fill="none" xmlns="http://www.w3.org/2000/svg">
<g filter="url(#filter0_d_1083_126729)">
<rect x="4" y="27" width="26.7293" height="26.7293" transform="rotate(-90 4 27)" fill="#8DF6F5"/>
</g>
<path d="M8.55772 7.34384C7.882 8.261 7.44057 9.33163 7.27238 10.4613C7.12095 11.5938 7.26677 12.7466 7.69529 13.8045C8.14175 14.8847 8.85899 15.8293 9.77672 16.546C10.7128 17.2616 11.8145 17.7247 12.9776 17.8916C11.7906 17.789 10.6491 17.3834 9.66063 16.7131C8.65938 16.024 7.85572 15.0814 7.33042 13.9801C6.8025 12.8576 6.57113 11.6168 6.65872 10.3778C6.77616 9.13557 7.18858 7.94014 7.86114 6.8925C7.88686 6.84079 7.92296 6.79501 7.96714 6.75808C8.01132 6.72116 8.06262 6.69387 8.1178 6.67797C8.17298 6.66206 8.23084 6.6579 8.28771 6.6657C8.34458 6.6735 8.39922 6.6931 8.44818 6.72329C8.49714 6.75348 8.53935 6.79358 8.57213 6.84106C8.60492 6.88854 8.62756 6.94236 8.63864 6.99912C8.64971 7.05588 8.64898 7.11435 8.63648 7.1708C8.62397 7.22726 8.59998 7.28048 8.56601 7.32711L8.55772 7.34384Z" fill="white" stroke="white" stroke-width="2"/>
<path d="M13.8737 3.50779C12.8291 3.82914 11.8783 4.403 11.104 5.17938C10.3179 5.96706 9.74664 6.94586 9.44554 8.02111C9.14285 9.11186 9.12002 10.2622 9.3792 11.3643C9.65145 12.4784 10.1992 13.5049 10.9714 14.3481L11.3114 14.6573L10.9548 14.3648C10.1179 13.5547 9.50117 12.5417 9.16359 11.4228C8.82528 10.2857 8.77962 9.08059 9.03091 7.92082C9.28565 6.7473 9.83048 5.65768 10.6148 4.75314C11.422 3.85202 12.4314 3.15852 13.5586 2.7305C13.6102 2.70583 13.6662 2.69214 13.7232 2.69028C13.7802 2.68842 13.837 2.69845 13.89 2.71971C13.943 2.74098 13.991 2.77304 14.0312 2.81388C14.0713 2.85473 14.1027 2.90349 14.1232 2.9571C14.1438 3.01072 14.1532 3.06803 14.1508 3.12547C14.1485 3.18291 14.1343 3.23924 14.1094 3.29093C14.0844 3.34262 14.0491 3.38857 14.0057 3.42589C13.9623 3.4632 13.9117 3.49107 13.8572 3.50779L13.8737 3.50779Z" fill="white" stroke="white" stroke-width="2"/>
<path d="M20.4408 3.52438C19.4028 3.17492 18.2982 3.07474 17.215 3.23185C16.1286 3.41553 15.1067 3.87584 14.2463 4.56913C13.3681 5.27073 12.6805 6.1851 12.2478 7.22696C11.8203 8.28523 11.6662 9.43551 11.8 10.5701L11.8829 11.0215L11.7751 10.5701C11.5696 9.4217 11.6581 8.23941 12.0322 7.13503C12.4291 6.0273 13.0931 5.0364 13.9643 4.25152C14.8534 3.44652 15.9327 2.8853 17.0989 2.6217C18.2704 2.37566 19.4825 2.40714 20.6398 2.71366C20.7463 2.73946 20.8383 2.80666 20.8958 2.90062C20.9533 2.99457 20.9716 3.10765 20.9466 3.21514C20.935 3.26885 20.9127 3.31963 20.8812 3.36448C20.8496 3.40933 20.8094 3.44731 20.763 3.47617C20.7166 3.50503 20.6648 3.52419 20.6109 3.53247C20.557 3.54075 20.5019 3.53799 20.4491 3.52438L20.4408 3.52438Z" fill="white" stroke="white" stroke-width="2"/>
<path d="M25.7739 7.41911L25.4837 7.10987C24.8478 6.23262 23.9881 5.54524 22.9959 5.12067C21.9594 4.70383 20.8365 4.5528 19.7279 4.68117C18.6192 4.80954 17.5595 5.21329 16.6438 5.85618C15.7176 6.5201 14.9684 7.40437 14.4629 8.43042C14.9021 7.34191 15.6118 6.38567 16.5239 5.65376C17.436 4.92185 18.5197 4.43892 19.6706 4.25143C20.8441 4.04157 22.0513 4.13648 23.1783 4.52724C24.3281 4.9276 25.3465 5.6389 26.1222 6.58332L26.4373 6.87585C26.4759 6.91398 26.5066 6.95948 26.5275 7.00971C26.5485 7.05994 26.5593 7.11387 26.5593 7.16836C26.5593 7.22284 26.5485 7.27678 26.5275 7.32701C26.5066 7.37724 26.4759 7.42276 26.4373 7.46089C26.3988 7.50006 26.3529 7.53114 26.3024 7.55236C26.2518 7.57358 26.1976 7.5845 26.1429 7.5845C26.0882 7.5845 26.034 7.57358 25.9835 7.55236C25.9329 7.53114 25.8871 7.50006 25.8485 7.46089L25.7739 7.41911Z" fill="white" stroke="white" stroke-width="2"/>
<path d="M27.73 13.6959L27.73 13.2446C27.6766 12.1447 27.3578 11.0746 26.8013 10.127C26.2231 9.17642 25.4158 8.38864 24.4545 7.83695C23.4746 7.29052 22.3734 7.00299 21.2536 7.00115C20.1115 7.01481 18.989 7.30125 17.978 7.83695C18.972 7.24186 20.0916 6.89244 21.2453 6.81728C22.4177 6.755 23.5862 6.99976 24.6369 7.52771C25.7101 8.05455 26.6299 8.85206 27.3071 9.84286C27.9806 10.839 28.3994 11.9874 28.5261 13.1861L28.5261 13.6708C28.5283 13.7253 28.5197 13.7797 28.5008 13.8308C28.4819 13.8818 28.4531 13.9286 28.416 13.9683C28.379 14.008 28.3344 14.0398 28.2849 14.0619C28.2355 14.0841 28.1822 14.096 28.1281 14.0971C28.0736 14.0993 28.0193 14.0907 27.9681 14.0717C27.9169 14.0528 27.87 14.0239 27.8299 13.9866C27.7899 13.9493 27.7575 13.9045 27.7347 13.8546C27.7119 13.8047 27.699 13.7508 27.6969 13.6959L27.73 13.6959Z" fill="white" stroke="white" stroke-width="2"/>
<path d="M25.7075 20.0064L26.1553 19.2542C26.311 19.018 26.4417 18.7658 26.545 18.502C26.6608 18.2466 26.7524 17.9807 26.8187 17.708C26.8991 17.4351 26.9546 17.1553 26.9845 16.8722C27.1387 15.7382 26.9869 14.5833 26.545 13.529C26.1002 12.4502 25.379 11.5099 24.4553 10.8043C23.5154 10.0903 22.4058 9.63781 21.2378 9.49208C22.4398 9.57245 23.5992 9.97203 24.5983 10.6502C25.5975 11.3284 26.4007 12.2611 26.9265 13.3535C27.4617 14.4707 27.6962 15.7101 27.6065 16.9474C27.5872 17.2598 27.5429 17.57 27.4738 17.8751C27.4173 18.1837 27.3312 18.486 27.2167 18.7778C27.122 19.0689 26.9969 19.3491 26.8435 19.6136L26.4289 20.4494C26.3772 20.548 26.2888 20.6219 26.183 20.6549C26.0773 20.6878 25.9629 20.677 25.865 20.6249C25.7672 20.5728 25.6938 20.4837 25.6612 20.3771C25.6285 20.2705 25.6392 20.1552 25.6909 20.0566L25.7075 20.0064Z" fill="white" stroke="white" stroke-width="2"/>
<path d="M20.3998 23.8843C22.0452 23.3745 23.4245 22.2309 24.2381 20.7019C25.0518 19.1729 25.2339 17.3821 24.745 15.7186C24.3987 14.5881 23.774 13.5644 22.929 12.7431C23.8307 13.5282 24.5234 14.5281 24.9441 15.6517C25.3504 16.8007 25.4505 18.0371 25.2343 19.2373C25.0134 20.4682 24.4791 21.6203 23.6836 22.5805C22.8744 23.5258 21.8461 24.255 20.69 24.7034C20.5877 24.7444 20.4735 24.7428 20.3724 24.6989C20.2713 24.655 20.1917 24.5725 20.151 24.4694C20.1103 24.3663 20.1119 24.2512 20.1554 24.1493C20.199 24.0474 20.2809 23.9671 20.3832 23.9261L20.3998 23.8843Z" fill="white" stroke="white" stroke-width="2"/>
<path d="M13.8237 23.8675C14.8672 24.2048 15.9736 24.2963 17.0578 24.135C18.1472 23.953 19.1722 23.4926 20.0348 22.7977C20.911 22.0912 21.5933 21.1705 22.0167 20.1231C22.4252 19.0598 22.5814 17.9149 22.4728 16.78L22.3816 16.3788L22.4977 16.78C22.6806 17.9333 22.5867 19.1141 22.224 20.2234C21.8401 21.3538 21.175 22.3661 20.2923 23.1636C19.4097 23.961 18.3388 24.5171 17.1821 24.7785C16.0062 25.0242 14.7907 25.0014 13.6247 24.7117C13.5714 24.6999 13.521 24.6775 13.4765 24.6457C13.432 24.6139 13.3943 24.5734 13.3657 24.5266C13.337 24.4798 13.318 24.4276 13.3098 24.3733C13.3016 24.3189 13.3043 24.2635 13.3178 24.2102C13.3434 24.1029 13.4101 24.0101 13.5033 23.9522C13.5966 23.8942 13.7087 23.8758 13.8154 23.901L13.8237 23.8675Z" fill="white" stroke="white" stroke-width="2"/>
<path d="M8.54091 19.9727L8.78139 20.3321C9.46677 21.1901 10.3491 21.8671 11.3521 22.3046C12.3737 22.7327 13.4869 22.8909 14.5862 22.7643C15.702 22.6355 16.7682 22.2276 17.6876 21.5775C18.6059 20.8979 19.3529 20.0104 19.8685 18.9865C19.4053 20.0546 18.6977 20.9969 17.8037 21.7363C16.8884 22.476 15.8009 22.9679 14.6442 23.1655C13.466 23.371 12.2551 23.2674 11.1282 22.8646C9.99168 22.4494 8.97469 21.7575 8.16775 20.8503L7.91069 20.5076C7.86946 20.4653 7.83764 20.4146 7.81737 20.3589C7.79709 20.3032 7.78881 20.2438 7.79309 20.1846C7.79736 20.1254 7.81408 20.0678 7.84214 20.0157C7.87021 19.9635 7.90896 19.918 7.95583 19.8821C8.00271 19.8462 8.05664 19.8208 8.11401 19.8076C8.17139 19.7943 8.2309 19.7936 8.28861 19.8053C8.34631 19.817 8.40087 19.841 8.44866 19.8756C8.49645 19.9103 8.53638 19.9548 8.56579 20.0062L8.54091 19.9727Z" fill="white" stroke="white" stroke-width="2"/>
<path d="M6.52601 13.6961L6.52601 14.0639C6.56306 15.1267 6.8471 16.1659 7.35526 17.0978C7.88924 18.0371 8.64744 18.8271 9.56107 19.3963C10.4885 19.9691 11.5431 20.2994 12.6293 20.3574C13.7337 20.4128 14.8356 20.2067 15.8468 19.7557L16.2034 19.5635L15.8634 19.7724C14.8645 20.3006 13.7571 20.5868 12.6293 20.6082C11.4767 20.6136 10.3411 20.3272 9.32691 19.7752C8.31268 19.2232 7.45224 18.4233 6.82454 17.4489C6.18972 16.458 5.79751 15.3294 5.68018 14.1558L5.68018 13.7547C5.68018 13.6438 5.72385 13.5375 5.80161 13.4592C5.87937 13.3808 5.98484 13.3368 6.0948 13.3368C6.20477 13.3368 6.31022 13.3808 6.38798 13.4592C6.46574 13.5375 6.50943 13.6438 6.50943 13.7547L6.52601 13.6961Z" fill="white" stroke="white" stroke-width="2"/>
<defs>
<filter id="filter0_d_1083_126729" x="0" y="0.270752" width="34.7295" height="34.7292" filterUnits="userSpaceOnUse" color-interpolation-filters="sRGB">
<feFlood flood-opacity="0" result="BackgroundImageFix"/>
<feColorMatrix in="SourceAlpha" type="matrix" values="0 0 0 0 0 0 0 0 0 0 0 0 0 0 0 0 0 0 127 0" result="hardAlpha"/>
<feOffset dy="4"/>
<feGaussianBlur stdDeviation="2"/>
<feComposite in2="hardAlpha" operator="out"/>
<feColorMatrix type="matrix" values="0 0 0 0 0 0 0 0 0 0 0 0 0 0 0 0 0 0 0.25 0"/>
<feBlend mode="normal" in2="BackgroundImageFix" result="effect1_dropShadow_1083_126729"/>
<feBlend mode="normal" in="SourceGraphic" in2="effect1_dropShadow_1083_126729" result="shape"/>
</filter>
</defs>
</svg>
