<svg width="63" height="65" viewBox="0 0 63 65" fill="none" xmlns="http://www.w3.org/2000/svg">
<path d="M48.8627 8.84735L47.9903 8.04735H48.105C46.3011 6.62933 44.2556 5.54595 42.0662 4.84849L40.8493 4.41418L42.1121 4.55142C44.4925 4.72552 46.8239 5.31331 49.0005 6.28809H49.1154L50.1715 6.85935C50.3042 6.93137 50.4214 7.02848 50.5162 7.14555C50.6111 7.26261 50.6819 7.39707 50.7246 7.54136C50.7672 7.68565 50.7809 7.837 50.7648 7.98654C50.7487 8.13609 50.7032 8.281 50.6308 8.41304C50.5584 8.54507 50.4606 8.66171 50.343 8.75613C50.2254 8.85056 50.0902 8.92095 49.9452 8.96338C49.8002 9.00582 49.6483 9.01928 49.498 9.00327C49.3477 8.98726 49.2021 8.94196 49.0694 8.86994L48.8627 8.84735Z" fill="white" stroke="white" stroke-width="2"/>
<path d="M59.4718 23.5412C58.9602 20.4971 57.6179 17.6515 55.5914 15.3151C56.8791 16.2648 58.0504 17.3613 59.0815 18.5825C60.0845 19.8697 60.9394 21.2648 61.6301 22.7415C61.7255 22.878 61.7904 23.0332 61.8204 23.1967C61.8505 23.3603 61.8451 23.5286 61.8045 23.6899C61.7639 23.8512 61.6891 24.0019 61.5851 24.132C61.4811 24.2621 61.3503 24.3685 61.2015 24.4441C61.0527 24.5198 60.8894 24.5631 60.7225 24.5708C60.5556 24.5784 60.389 24.5505 60.2339 24.4888C60.0787 24.4271 59.9386 24.333 59.823 24.2129C59.7074 24.0929 59.619 23.9494 59.5636 23.7925C59.5636 23.7925 59.4948 23.6326 59.4718 23.5412Z" fill="white" stroke="white" stroke-width="2"/>
<path d="M59.4259 41.5712L59.8391 40.5202C60.7229 38.4042 61.1906 36.1391 61.2168 33.8477L61.0791 32.7052L61.4924 33.7791C62.0585 36.1758 62.1522 38.6593 61.768 41.0915L61.6301 42.2111C61.5901 42.517 61.4299 42.7945 61.1845 42.9829C60.9392 43.1714 60.6288 43.2553 60.3214 43.2164C60.171 43.1997 60.0255 43.1529 59.8937 43.0789C59.7618 43.0049 59.6463 42.9052 59.5542 42.7857C59.462 42.6663 59.395 42.5294 59.3572 42.3835C59.3194 42.2377 59.3114 42.0859 59.334 41.9369C59.3441 41.8108 59.3751 41.6872 59.4259 41.5712Z" fill="white" stroke="white" stroke-width="2"/>
<path d="M48.7949 56.2629C49.4608 55.8059 50.1496 55.4173 50.7237 55.0289C51.3217 54.5873 51.8894 54.1064 52.4228 53.5893C53.5158 52.502 54.4858 51.2988 55.3159 50.0016C54.8114 51.5026 54.1415 52.9433 53.3183 54.2975C52.8931 54.9866 52.4172 55.6437 51.8947 56.2629C51.3436 56.9027 50.7696 57.4509 50.2645 58.0222C50.046 58.233 49.7536 58.351 49.4493 58.351C49.145 58.351 48.8527 58.233 48.6342 58.0222C48.4155 57.8037 48.2926 57.508 48.2926 57.1996C48.2926 56.8912 48.4155 56.5954 48.6342 56.377C48.6916 56.3043 48.7616 56.2425 48.8409 56.1943L48.7949 56.2629Z" fill="white" stroke="white" stroke-width="2"/>
<path d="M31.4817 61.7479L32.6297 61.8851C32.989 61.9094 33.3496 61.9094 33.7089 61.8851C34.4768 61.8775 35.2436 61.8239 36.005 61.725C36.7784 61.6362 37.5453 61.499 38.3012 61.3139C39.0894 61.1172 39.8579 60.8496 40.5973 60.5142C39.9815 61.0155 39.3204 61.459 38.6226 61.8394C37.8802 62.2242 37.1131 62.5602 36.3265 62.845C35.5687 63.1192 34.811 63.3704 34.0303 63.5761C33.6162 63.6964 33.1943 63.788 32.7675 63.8503L31.5735 63.9875C31.4238 64.0099 31.2711 64.002 31.1246 63.9643C30.978 63.9267 30.8406 63.86 30.7205 63.7683C30.6005 63.6765 30.5003 63.5616 30.4259 63.4305C30.3515 63.2993 30.3045 63.1545 30.2876 63.0048C30.2482 62.7023 30.3295 62.3964 30.5141 62.1529C30.6987 61.9094 30.9718 61.7477 31.275 61.7024L31.4817 61.7479Z" fill="white" stroke="white" stroke-width="2"/>
<path d="M14.1464 56.1497L15.0419 56.8125H15.2026C15.9519 57.5918 16.8393 58.2269 17.8202 58.6861C18.8651 59.1959 19.9384 59.6459 21.0348 60.0342L22.1139 60.3084H20.9889C19.7917 60.2039 18.6027 60.0207 17.4298 59.76C16.1694 59.4983 14.9649 59.0188 13.8708 58.3433H14.0316L12.9983 57.9321C12.7174 57.8112 12.4954 57.5855 12.3795 57.3037C12.2636 57.0218 12.2632 56.706 12.3784 56.4239C12.4361 56.2835 12.5214 56.156 12.6292 56.0487C12.7369 55.9415 12.8651 55.8568 13.0062 55.7994C13.1472 55.7419 13.2984 55.713 13.4508 55.7143C13.6032 55.7156 13.7538 55.747 13.8938 55.8069C13.9567 55.8444 14.0115 55.8942 14.0549 55.953C14.0982 56.0119 14.1293 56.0787 14.1464 56.1497Z" fill="white" stroke="white" stroke-width="2"/>
<path d="M3.4922 41.569C3.74095 42.856 4.14974 44.1072 4.70914 45.2937C5.28317 46.4819 6.01795 47.5786 6.66086 48.8811L7.39557 49.6582L6.47714 49.0869C5.58165 48.0587 4.59431 47.1445 3.67586 46.0476C2.76741 44.9404 1.99647 43.7283 1.37973 42.4373C1.2767 42.1666 1.27864 41.8674 1.38512 41.598C1.49161 41.3286 1.69503 41.1082 1.95579 40.9799C2.21655 40.8516 2.51598 40.8244 2.79575 40.9037C3.07551 40.9831 3.31557 41.1633 3.46921 41.4092C3.48024 41.462 3.48794 41.5153 3.4922 41.569Z" fill="white" stroke="white" stroke-width="2"/>
<path d="M3.53729 23.4034C3.23879 24.1803 2.94033 24.8657 2.71072 25.5512C2.49305 26.3027 2.31673 27.0656 2.18258 27.8362C1.91494 29.3442 1.80716 30.876 1.86109 32.4064C1.427 30.9156 1.15001 29.384 1.03452 27.8362C0.988494 27.0295 0.988494 26.221 1.03452 25.4142C1.03452 24.5687 1.24116 23.769 1.31004 23.1292C1.34471 22.8236 1.4993 22.5441 1.74015 22.3515C1.981 22.1589 2.28858 22.0686 2.59587 22.1007C2.74692 22.115 2.89363 22.1591 3.02751 22.2301C3.1614 22.3012 3.27983 22.3978 3.37591 22.5147C3.472 22.6315 3.54386 22.7661 3.58732 22.9108C3.63079 23.0554 3.64501 23.2074 3.62916 23.3576C3.64982 23.4479 3.64982 23.5416 3.62916 23.6318L3.53729 23.4034Z" fill="white" stroke="white" stroke-width="2"/>
<path d="M14.2372 8.84816L13.181 9.41942H13.3188C12.2274 10.2191 11.1775 11.0732 10.1731 11.9787C9.19573 12.9234 8.34661 13.9909 7.64734 15.1547C8.06416 13.8253 8.64247 12.5516 9.36944 11.3617C10.1272 10.1506 11.0686 9.07668 11.8952 8.0027H12.033L12.9054 7.2027C13.1307 6.99665 13.4291 6.88832 13.7349 6.90117C14.0406 6.91403 14.3287 7.04709 14.5357 7.27132C14.7428 7.49556 14.8518 7.79244 14.8389 8.0967C14.826 8.40096 14.6922 8.68757 14.4668 8.89363L14.2372 8.84816Z" fill="white" stroke="white" stroke-width="2"/>
<path d="M31.4817 3.29422L30.3795 3.15699C28.1009 3.0192 25.8157 3.2824 23.6289 3.93411L22.4578 4.34526L23.4911 3.65991C25.572 2.44377 27.8478 1.59353 30.2187 1.1464L31.3209 1.00916C31.4719 0.990041 31.6251 1.0009 31.7718 1.04124C31.9184 1.08158 32.0555 1.15048 32.1752 1.24403C32.2948 1.33758 32.3946 1.45402 32.4687 1.58629C32.5428 1.71855 32.5897 1.86399 32.6067 2.01446C32.6292 2.16514 32.6206 2.31908 32.5814 2.46634C32.5421 2.61359 32.4731 2.75129 32.3785 2.87107C32.2839 2.99086 32.1659 3.09007 32.0314 3.16284C31.8969 3.23562 31.7489 3.28033 31.5964 3.29422H31.4817Z" fill="white" stroke="white" stroke-width="2"/>
</svg>
