<svg width="208" height="257" viewBox="0 0 208 257" fill="none" xmlns="http://www.w3.org/2000/svg">
<path d="M1.792 208.143V185.135H20.64C21.408 185.135 22.112 185.327 22.752 185.711C23.392 186.095 23.8933 186.607 24.256 187.247C24.64 187.866 24.832 188.548 24.832 189.295V195.759C24.832 196.527 24.64 197.231 24.256 197.871C23.8933 198.49 23.392 198.991 22.752 199.375C22.112 199.738 21.408 199.919 20.64 199.919L5.248 199.951V208.143H1.792ZM6.048 196.431H20.576C20.7893 196.431 20.9707 196.356 21.12 196.207C21.2693 196.058 21.344 195.876 21.344 195.663V189.391C21.344 189.178 21.2693 188.996 21.12 188.847C20.9707 188.676 20.7893 188.591 20.576 188.591H6.048C5.83467 188.591 5.64267 188.676 5.472 188.847C5.32267 188.996 5.248 189.178 5.248 189.391V195.663C5.248 195.876 5.32267 196.058 5.472 196.207C5.64267 196.356 5.83467 196.431 6.048 196.431ZM45.5058 208.143L35.2658 189.583H39.2658L47.2338 204.239L55.2018 189.583H59.2018L48.9618 208.143H45.5058ZM70.9483 208.143V185.135H89.7963C90.5643 185.135 91.2683 185.327 91.9083 185.711C92.5483 186.095 93.0496 186.607 93.4123 187.247C93.7963 187.866 93.9883 188.548 93.9883 189.295V195.759C93.9883 196.527 93.7963 197.231 93.4123 197.871C93.0496 198.49 92.5483 198.991 91.9083 199.375C91.2683 199.738 90.5643 199.919 89.7963 199.919L74.4043 199.951V208.143H70.9483ZM75.2043 196.431H89.7323C89.9456 196.431 90.1269 196.356 90.2763 196.207C90.4256 196.058 90.5003 195.876 90.5003 195.663V189.391C90.5003 189.178 90.4256 188.996 90.2763 188.847C90.1269 188.676 89.9456 188.591 89.7323 188.591H75.2043C74.9909 188.591 74.7989 188.676 74.6283 188.847C74.4789 188.996 74.4043 189.178 74.4043 189.391V195.663C74.4043 195.876 74.4789 196.058 74.6283 196.207C74.7989 196.356 74.9909 196.431 75.2043 196.431ZM109.702 208.143C108.934 208.143 108.23 207.962 107.59 207.599C106.971 207.215 106.47 206.714 106.086 206.095C105.723 205.455 105.542 204.751 105.542 203.983V189.263C105.542 188.495 105.723 187.802 106.086 187.183C106.47 186.543 106.971 186.042 107.59 185.679C108.23 185.295 108.934 185.103 109.702 185.103H124.39C125.158 185.103 125.862 185.295 126.502 185.679C127.142 186.042 127.643 186.543 128.006 187.183C128.39 187.802 128.582 188.495 128.582 189.263V190.639H125.094V189.359C125.094 189.146 125.019 188.964 124.87 188.815C124.721 188.644 124.539 188.559 124.326 188.559H109.798C109.585 188.559 109.393 188.644 109.222 188.815C109.073 188.964 108.998 189.146 108.998 189.359V203.887C108.998 204.1 109.073 204.292 109.222 204.463C109.393 204.612 109.585 204.687 109.798 204.687H124.326C124.539 204.687 124.721 204.612 124.87 204.463C125.019 204.292 125.094 204.1 125.094 203.887V198.991H119.654V195.503H128.582V203.983C128.582 204.751 128.39 205.455 128.006 206.095C127.643 206.714 127.142 207.215 126.502 207.599C125.862 207.962 125.158 208.143 124.39 208.143H109.702ZM136.137 208.143C135.369 208.143 134.665 207.951 134.025 207.567C133.406 207.183 132.905 206.682 132.521 206.063C132.158 205.444 131.977 204.751 131.977 203.983V197.135H147.369V193.839C147.369 193.626 147.294 193.444 147.145 193.295C146.995 193.124 146.814 193.039 146.601 193.039H131.977V189.583H146.697C147.465 189.583 148.158 189.775 148.777 190.159C149.417 190.522 149.918 191.023 150.281 191.663C150.665 192.303 150.857 192.996 150.857 193.743V208.143H136.137ZM136.233 204.687H147.369V200.367H135.433V203.887C135.433 204.1 135.507 204.292 135.657 204.463C135.827 204.612 136.019 204.687 136.233 204.687ZM153.541 208.143V189.583H177.253C178.042 189.583 178.746 189.775 179.365 190.159C179.983 190.543 180.474 191.044 180.837 191.663C181.221 192.282 181.413 192.975 181.413 193.743V208.143H177.989V193.839C177.989 193.626 177.903 193.444 177.733 193.295C177.583 193.124 177.402 193.039 177.189 193.039H170.053C169.818 193.039 169.626 193.124 169.477 193.295C169.327 193.444 169.253 193.626 169.253 193.839V208.143H165.765V193.839C165.765 193.626 165.679 193.444 165.509 193.295C165.359 193.124 165.178 193.039 164.965 193.039H157.797C157.583 193.039 157.402 193.124 157.253 193.295C157.103 193.444 157.029 193.626 157.029 193.839V208.143H153.541ZM188.417 208.143C187.649 208.143 186.956 207.951 186.337 207.567C185.718 207.183 185.217 206.682 184.833 206.063C184.449 205.444 184.257 204.751 184.257 203.983V193.743C184.257 192.975 184.449 192.282 184.833 191.663C185.217 191.044 185.718 190.543 186.337 190.159C186.956 189.775 187.649 189.583 188.417 189.583H198.977C199.745 189.583 200.438 189.775 201.057 190.159C201.697 190.522 202.198 191.023 202.561 191.663C202.945 192.303 203.137 192.996 203.137 193.743V200.591H187.713V203.887C187.713 204.1 187.788 204.292 187.937 204.463C188.108 204.612 188.3 204.687 188.513 204.687H203.137V208.143H188.417ZM187.713 197.359H199.649V193.839C199.649 193.626 199.574 193.444 199.425 193.295C199.276 193.124 199.094 193.039 198.881 193.039H188.513C188.3 193.039 188.108 193.124 187.937 193.295C187.788 193.444 187.713 193.626 187.713 193.839V197.359ZM1.856 248.143V225.103H20.704C21.472 225.103 22.176 225.295 22.816 225.679C23.456 226.042 23.9573 226.543 24.32 227.183C24.704 227.802 24.896 228.495 24.896 229.263V243.983C24.896 244.751 24.704 245.455 24.32 246.095C23.9573 246.714 23.456 247.215 22.816 247.599C22.176 247.962 21.472 248.143 20.704 248.143H1.856ZM6.08 244.687H20.64C20.8533 244.687 21.0347 244.612 21.184 244.463C21.3333 244.292 21.408 244.1 21.408 243.887V229.359C21.408 229.146 21.3333 228.964 21.184 228.815C21.0347 228.644 20.8533 228.559 20.64 228.559H6.08C5.86667 228.559 5.68533 228.644 5.536 228.815C5.38667 228.964 5.312 229.146 5.312 229.359V243.887C5.312 244.1 5.38667 244.292 5.536 244.463C5.68533 244.612 5.86667 244.687 6.08 244.687ZM32.4795 248.143C31.7115 248.143 31.0182 247.951 30.3995 247.567C29.7808 247.183 29.2795 246.682 28.8955 246.063C28.5115 245.444 28.3195 244.751 28.3195 243.983V233.743C28.3195 232.975 28.5115 232.282 28.8955 231.663C29.2795 231.044 29.7808 230.543 30.3995 230.159C31.0182 229.775 31.7115 229.583 32.4795 229.583H43.0395C43.8075 229.583 44.5008 229.775 45.1195 230.159C45.7595 230.522 46.2608 231.023 46.6235 231.663C47.0075 232.303 47.1995 232.996 47.1995 233.743V240.591H31.7755V243.887C31.7755 244.1 31.8502 244.292 31.9995 244.463C32.1702 244.612 32.3622 244.687 32.5755 244.687H47.1995V248.143H32.4795ZM31.7755 237.359H43.7115V233.839C43.7115 233.626 43.6368 233.444 43.4875 233.295C43.3382 233.124 43.1568 233.039 42.9435 233.039H32.5755C32.3622 233.039 32.1702 233.124 31.9995 233.295C31.8502 233.444 31.7755 233.626 31.7755 233.839V237.359ZM58.6933 248.143L48.4533 229.583H52.4533L60.4213 244.239L68.3893 229.583H72.3893L62.1493 248.143H58.6933ZM77.8858 248.143C77.1178 248.143 76.4244 247.951 75.8058 247.567C75.1871 247.183 74.6858 246.682 74.3018 246.063C73.9178 245.444 73.7258 244.751 73.7258 243.983V233.743C73.7258 232.975 73.9178 232.282 74.3018 231.663C74.6858 231.044 75.1871 230.543 75.8058 230.159C76.4244 229.775 77.1178 229.583 77.8858 229.583H88.4458C89.2138 229.583 89.9071 229.775 90.5258 230.159C91.1658 230.522 91.6671 231.023 92.0298 231.663C92.4138 232.303 92.6058 232.996 92.6058 233.743V240.591H77.1818V243.887C77.1818 244.1 77.2564 244.292 77.4058 244.463C77.5764 244.612 77.7684 244.687 77.9818 244.687H92.6058V248.143H77.8858ZM77.1818 237.359H89.1178V233.839C89.1178 233.626 89.0431 233.444 88.8938 233.295C88.7444 233.124 88.5631 233.039 88.3498 233.039H77.9818C77.7684 233.039 77.5764 233.124 77.4058 233.295C77.2564 233.444 77.1818 233.626 77.1818 233.839V237.359ZM99.3865 248.143C98.6185 248.143 97.9252 247.951 97.3065 247.567C96.6878 247.183 96.1865 246.682 95.8025 246.063C95.4185 245.444 95.2265 244.751 95.2265 243.983V223.503H98.6825V243.887C98.6825 244.1 98.7572 244.292 98.9065 244.463C99.0772 244.612 99.2692 244.687 99.4825 244.687H102.843V248.143H99.3865ZM109.355 248.143C108.587 248.143 107.893 247.951 107.275 247.567C106.656 247.183 106.155 246.682 105.771 246.063C105.387 245.444 105.195 244.751 105.195 243.983V233.743C105.195 232.975 105.387 232.282 105.771 231.663C106.155 231.044 106.656 230.543 107.275 230.159C107.893 229.775 108.587 229.583 109.355 229.583H119.915C120.683 229.583 121.376 229.775 121.995 230.159C122.635 230.522 123.136 231.023 123.499 231.663C123.883 232.303 124.075 232.996 124.075 233.743V243.983C124.075 244.751 123.883 245.444 123.499 246.063C123.136 246.682 122.635 247.183 121.995 247.567C121.376 247.951 120.683 248.143 119.915 248.143H109.355ZM109.451 244.687H119.819C120.032 244.687 120.213 244.612 120.363 244.463C120.512 244.292 120.587 244.1 120.587 243.887V233.839C120.587 233.626 120.512 233.444 120.363 233.295C120.213 233.124 120.032 233.039 119.819 233.039H109.451C109.237 233.039 109.045 233.124 108.875 233.295C108.725 233.444 108.651 233.626 108.651 233.839V243.887C108.651 244.1 108.725 244.292 108.875 244.463C109.045 244.612 109.237 244.687 109.451 244.687ZM127.447 255.503V229.583H142.167C142.935 229.583 143.628 229.775 144.247 230.159C144.887 230.543 145.388 231.044 145.751 231.663C146.135 232.282 146.327 232.975 146.327 233.743V243.983C146.327 244.751 146.135 245.444 145.751 246.063C145.388 246.682 144.887 247.183 144.247 247.567C143.628 247.951 142.935 248.143 142.167 248.143H130.903V255.503H127.447ZM131.703 244.687H142.071C142.284 244.687 142.465 244.612 142.615 244.463C142.785 244.292 142.871 244.1 142.871 243.887V233.839C142.871 233.626 142.785 233.444 142.615 233.295C142.465 233.124 142.284 233.039 142.071 233.039H131.703C131.489 233.039 131.297 233.124 131.127 233.295C130.977 233.444 130.903 233.626 130.903 233.839V243.887C130.903 244.1 130.977 244.292 131.127 244.463C131.297 244.612 131.489 244.687 131.703 244.687ZM152.761 248.143C151.993 248.143 151.299 247.951 150.681 247.567C150.062 247.183 149.561 246.682 149.177 246.063C148.793 245.444 148.601 244.751 148.601 243.983V233.743C148.601 232.975 148.793 232.282 149.177 231.663C149.561 231.044 150.062 230.543 150.681 230.159C151.299 229.775 151.993 229.583 152.761 229.583H163.321C164.089 229.583 164.782 229.775 165.401 230.159C166.041 230.522 166.542 231.023 166.905 231.663C167.289 232.303 167.481 232.996 167.481 233.743V240.591H152.057V243.887C152.057 244.1 152.131 244.292 152.281 244.463C152.451 244.612 152.643 244.687 152.857 244.687H167.481V248.143H152.761ZM152.057 237.359H163.993V233.839C163.993 233.626 163.918 233.444 163.769 233.295C163.619 233.124 163.438 233.039 163.225 233.039H152.857C152.643 233.039 152.451 233.124 152.281 233.295C152.131 233.444 152.057 233.626 152.057 233.839V237.359ZM170.602 248.143V233.743C170.602 232.975 170.794 232.282 171.178 231.663C171.562 231.044 172.063 230.543 172.682 230.159C173.322 229.775 174.015 229.583 174.762 229.583H185.13V233.039H174.858C174.644 233.039 174.452 233.124 174.282 233.295C174.132 233.444 174.058 233.626 174.058 233.839V248.143H170.602ZM191.384 248.143C190.616 248.143 189.922 247.951 189.304 247.567C188.685 247.183 188.184 246.682 187.799 246.063C187.416 245.444 187.224 244.751 187.224 243.983V243.503H190.68V243.887C190.68 244.1 190.754 244.292 190.904 244.463C191.074 244.612 191.266 244.687 191.48 244.687H201.847C202.061 244.687 202.242 244.612 202.392 244.463C202.541 244.292 202.616 244.1 202.616 243.887V241.391C202.616 241.178 202.541 240.996 202.392 240.847C202.242 240.676 202.061 240.591 201.847 240.591H191.384C190.616 240.591 189.922 240.41 189.304 240.047C188.685 239.663 188.184 239.162 187.799 238.543C187.416 237.903 187.224 237.199 187.224 236.431V233.743C187.224 232.975 187.416 232.282 187.799 231.663C188.184 231.044 188.685 230.543 189.304 230.159C189.922 229.775 190.616 229.583 191.384 229.583H201.944C202.712 229.583 203.405 229.775 204.024 230.159C204.664 230.543 205.165 231.044 205.528 231.663C205.912 232.282 206.104 232.975 206.104 233.743V234.223H202.616V233.839C202.616 233.626 202.541 233.444 202.392 233.295C202.242 233.124 202.061 233.039 201.847 233.039H191.48C191.266 233.039 191.074 233.124 190.904 233.295C190.754 233.444 190.68 233.626 190.68 233.839V236.335C190.68 236.548 190.754 236.74 190.904 236.911C191.074 237.06 191.266 237.135 191.48 237.135H201.944C202.712 237.135 203.405 237.327 204.024 237.711C204.664 238.074 205.165 238.575 205.528 239.215C205.912 239.834 206.104 240.527 206.104 241.295V243.983C206.104 244.751 205.912 245.444 205.528 246.063C205.165 246.682 204.664 247.183 204.024 247.567C203.405 247.951 202.712 248.143 201.944 248.143H191.384Z" fill="white"/>
<path d="M46.504 116V98.72L25.256 69.92H35.24L50.792 89.44L66.152 69.92H76.328L55.016 98.784V116H46.504ZM88.9145 116C87.2932 116 85.7998 115.595 84.4345 114.784C83.1118 113.973 82.0452 112.907 81.2345 111.584C80.4238 110.219 80.0185 108.725 80.0185 107.104V78.816C80.0185 77.1947 80.4238 75.7227 81.2345 74.4C82.0452 73.0347 83.1118 71.9467 84.4345 71.136C85.7998 70.3253 87.2932 69.92 88.9145 69.92H117.203C118.824 69.92 120.296 70.3253 121.619 71.136C122.984 71.9467 124.072 73.0347 124.883 74.4C125.693 75.7227 126.099 77.1947 126.099 78.816V107.104C126.099 108.725 125.693 110.219 124.883 111.584C124.072 112.907 122.984 113.973 121.619 114.784C120.296 115.595 118.824 116 117.203 116H88.9145ZM89.2345 107.488H116.755C116.968 107.488 117.16 107.424 117.331 107.296C117.501 107.125 117.587 106.933 117.587 106.72V79.2C117.587 78.9867 117.501 78.816 117.331 78.688C117.16 78.5173 116.968 78.432 116.755 78.432H89.2345C89.0212 78.432 88.8292 78.5173 88.6585 78.688C88.5305 78.816 88.4665 78.9867 88.4665 79.2V106.72C88.4665 106.933 88.5305 107.125 88.6585 107.296C88.8292 107.424 89.0212 107.488 89.2345 107.488ZM141.915 116C140.293 116 138.8 115.595 137.435 114.784C136.112 113.973 135.045 112.907 134.235 111.584C133.424 110.219 133.019 108.725 133.019 107.104V69.92H141.467V106.72C141.467 106.933 141.531 107.125 141.659 107.296C141.829 107.424 142.021 107.488 142.235 107.488H169.755C169.968 107.488 170.16 107.424 170.331 107.296C170.501 107.125 170.587 106.933 170.587 106.72V69.92H179.099V107.104C179.099 108.725 178.693 110.219 177.883 111.584C177.072 112.907 175.984 113.973 174.619 114.784C173.296 115.595 171.824 116 170.203 116H141.915Z" fill="url(#paint0_linear_152_123591)"/>
<defs>
<linearGradient id="paint0_linear_152_123591" x1="104" y1="51" x2="104" y2="131" gradientUnits="userSpaceOnUse">
<stop offset="0.338542" stop-color="#FFF761"/>
<stop offset="1" stop-color="#00FFF1"/>
</linearGradient>
</defs>
</svg>
