<svg width="182" height="205" viewBox="0 0 182 205" fill="none" xmlns="http://www.w3.org/2000/svg">
<path d="M9.888 204.556V181.516H27.808C28.5547 181.516 29.248 181.708 29.888 182.092C30.528 182.455 31.0293 182.956 31.392 183.596C31.776 184.215 31.968 184.908 31.968 185.676V190.38C31.968 190.658 31.936 190.935 31.872 191.212C31.8293 191.49 31.744 191.746 31.616 191.98C32.0427 192.578 32.3627 193.143 32.576 193.676C32.8107 194.188 32.928 194.711 32.928 195.244V200.396C32.928 201.164 32.736 201.868 32.352 202.508C31.9893 203.127 31.488 203.628 30.848 204.012C30.208 204.375 29.504 204.556 28.736 204.556H9.888ZM14.144 201.1H28.672C28.8853 201.1 29.0667 201.026 29.216 200.876C29.3653 200.706 29.44 200.514 29.44 200.3V195.34C29.44 195.127 29.3653 194.946 29.216 194.796C29.0667 194.626 28.8853 194.54 28.672 194.54H14.144C13.9307 194.54 13.7387 194.626 13.568 194.796C13.4187 194.946 13.344 195.127 13.344 195.34V200.3C13.344 200.514 13.4187 200.706 13.568 200.876C13.7387 201.026 13.9307 201.1 14.144 201.1ZM14.144 191.084H27.712C27.9253 191.084 28.1067 191.01 28.256 190.86C28.4053 190.69 28.48 190.498 28.48 190.284V185.772C28.48 185.559 28.4053 185.378 28.256 185.228C28.1067 185.058 27.9253 184.972 27.712 184.972H14.144C13.9307 184.972 13.7387 185.058 13.568 185.228C13.4187 185.378 13.344 185.559 13.344 185.772V190.284C13.344 190.498 13.4187 190.69 13.568 190.86C13.7387 191.01 13.9307 191.084 14.144 191.084ZM40.481 204.556C39.713 204.556 39.009 204.364 38.369 203.98C37.7503 203.596 37.249 203.095 36.865 202.476C36.5023 201.858 36.321 201.164 36.321 200.396V185.996H39.777V200.3C39.777 200.514 39.8517 200.706 40.001 200.876C40.1717 201.026 40.3637 201.1 40.577 201.1H50.945C51.1583 201.1 51.3397 201.026 51.489 200.876C51.6597 200.706 51.745 200.514 51.745 200.3V185.996H55.201V200.396C55.201 201.164 55.009 201.858 54.625 202.476C54.2623 203.095 53.761 203.596 53.121 203.98C52.5023 204.364 51.809 204.556 51.041 204.556H40.481ZM58.539 204.556V185.996H61.995V204.556H58.539ZM58.539 183.372V179.916H61.995V183.372H58.539ZM69.949 204.556C69.181 204.556 68.4877 204.364 67.869 203.98C67.2503 203.596 66.749 203.095 66.365 202.476C65.981 201.858 65.789 201.164 65.789 200.396V179.916H69.245V200.3C69.245 200.514 69.3197 200.706 69.469 200.876C69.6397 201.026 69.8317 201.1 70.045 201.1H73.405V204.556H69.949ZM79.5523 204.556C78.7843 204.556 78.0803 204.375 77.4403 204.012C76.8216 203.628 76.3203 203.116 75.9363 202.476C75.5736 201.836 75.3923 201.143 75.3923 200.396V190.156C75.3923 189.388 75.5736 188.695 75.9363 188.076C76.3203 187.458 76.8216 186.956 77.4403 186.572C78.0803 186.188 78.7843 185.996 79.5523 185.996H90.8162V179.916H94.2723V204.556H79.5523ZM79.6803 201.1H90.0483C90.2616 201.1 90.4429 201.026 90.5923 200.876C90.7416 200.706 90.8162 200.514 90.8162 200.3V190.252C90.8162 190.039 90.7416 189.858 90.5923 189.708C90.4429 189.538 90.2616 189.452 90.0483 189.452H79.6803C79.4669 189.452 79.2749 189.538 79.1043 189.708C78.9549 189.858 78.8802 190.039 78.8802 190.252V200.3C78.8802 200.514 78.9549 200.706 79.1043 200.876C79.2749 201.026 79.4669 201.1 79.6803 201.1ZM101.136 204.556C100.368 204.556 99.6744 204.364 99.0558 203.98C98.4371 203.596 97.9358 203.095 97.5518 202.476C97.1678 201.858 96.9758 201.164 96.9758 200.396V190.156C96.9758 189.388 97.1678 188.695 97.5518 188.076C97.9358 187.458 98.4371 186.956 99.0558 186.572C99.6744 186.188 100.368 185.996 101.136 185.996H111.696C112.464 185.996 113.157 186.188 113.776 186.572C114.416 186.935 114.917 187.436 115.28 188.076C115.664 188.716 115.856 189.41 115.856 190.156V197.004H100.432V200.3C100.432 200.514 100.506 200.706 100.656 200.876C100.826 201.026 101.018 201.1 101.232 201.1H115.856V204.556H101.136ZM100.432 193.772H112.368V190.252C112.368 190.039 112.293 189.858 112.144 189.708C111.994 189.538 111.813 189.452 111.6 189.452H101.232C101.018 189.452 100.826 189.538 100.656 189.708C100.506 189.858 100.432 190.039 100.432 190.252V193.772ZM118.977 204.556V190.156C118.977 189.388 119.169 188.695 119.553 188.076C119.937 187.458 120.438 186.956 121.057 186.572C121.697 186.188 122.39 185.996 123.137 185.996H133.505V189.452H123.233C123.019 189.452 122.827 189.538 122.657 189.708C122.507 189.858 122.433 190.039 122.433 190.252V204.556H118.977ZM139.759 204.556C138.991 204.556 138.297 204.364 137.679 203.98C137.06 203.596 136.559 203.095 136.174 202.476C135.791 201.858 135.599 201.164 135.599 200.396V199.916H139.055V200.3C139.055 200.514 139.129 200.706 139.279 200.876C139.449 201.026 139.641 201.1 139.855 201.1H150.222C150.436 201.1 150.617 201.026 150.767 200.876C150.916 200.706 150.991 200.514 150.991 200.3V197.804C150.991 197.591 150.916 197.41 150.767 197.26C150.617 197.09 150.436 197.004 150.222 197.004H139.759C138.991 197.004 138.297 196.823 137.679 196.46C137.06 196.076 136.559 195.575 136.174 194.956C135.791 194.316 135.599 193.612 135.599 192.844V190.156C135.599 189.388 135.791 188.695 136.174 188.076C136.559 187.458 137.06 186.956 137.679 186.572C138.297 186.188 138.991 185.996 139.759 185.996H150.319C151.087 185.996 151.78 186.188 152.399 186.572C153.039 186.956 153.54 187.458 153.903 188.076C154.287 188.695 154.479 189.388 154.479 190.156V190.636H150.991V190.252C150.991 190.039 150.916 189.858 150.767 189.708C150.617 189.538 150.436 189.452 150.222 189.452H139.855C139.641 189.452 139.449 189.538 139.279 189.708C139.129 189.858 139.055 190.039 139.055 190.252V192.748C139.055 192.962 139.129 193.154 139.279 193.324C139.449 193.474 139.641 193.548 139.855 193.548H150.319C151.087 193.548 151.78 193.74 152.399 194.124C153.039 194.487 153.54 194.988 153.903 195.628C154.287 196.247 154.479 196.94 154.479 197.708V200.396C154.479 201.164 154.287 201.858 153.903 202.476C153.54 203.095 153.039 203.596 152.399 203.98C151.78 204.364 151.087 204.556 150.319 204.556H139.759Z" fill="white"/>
<path d="M21.504 127V109.72L0.256 80.92H10.24L25.792 100.44L41.152 80.92H51.328L30.016 109.784V127H21.504ZM63.9145 127C62.2932 127 60.7998 126.595 59.4345 125.784C58.1118 124.973 57.0452 123.907 56.2345 122.584C55.4238 121.219 55.0185 119.725 55.0185 118.104V89.816C55.0185 88.1947 55.4238 86.7227 56.2345 85.4C57.0452 84.0347 58.1118 82.9467 59.4345 82.136C60.7998 81.3253 62.2932 80.92 63.9145 80.92H92.2025C93.8238 80.92 95.2958 81.3253 96.6185 82.136C97.9838 82.9467 99.0718 84.0347 99.8825 85.4C100.693 86.7227 101.099 88.1947 101.099 89.816V118.104C101.099 119.725 100.693 121.219 99.8825 122.584C99.0718 123.907 97.9838 124.973 96.6185 125.784C95.2958 126.595 93.8238 127 92.2025 127H63.9145ZM64.2345 118.488H91.7545C91.9678 118.488 92.1598 118.424 92.3305 118.296C92.5012 118.125 92.5865 117.933 92.5865 117.72V90.2C92.5865 89.9867 92.5012 89.816 92.3305 89.688C92.1598 89.5173 91.9678 89.432 91.7545 89.432H64.2345C64.0212 89.432 63.8292 89.5173 63.6585 89.688C63.5305 89.816 63.4665 89.9867 63.4665 90.2V117.72C63.4665 117.933 63.5305 118.125 63.6585 118.296C63.8292 118.424 64.0212 118.488 64.2345 118.488ZM116.915 127C115.293 127 113.8 126.595 112.435 125.784C111.112 124.973 110.045 123.907 109.235 122.584C108.424 121.219 108.019 119.725 108.019 118.104V80.92H116.467V117.72C116.467 117.933 116.531 118.125 116.659 118.296C116.829 118.424 117.021 118.488 117.235 118.488H144.755C144.968 118.488 145.16 118.424 145.331 118.296C145.501 118.125 145.587 117.933 145.587 117.72V80.92H154.099V118.104C154.099 119.725 153.693 121.219 152.883 122.584C152.072 123.907 150.984 124.973 149.619 125.784C148.296 126.595 146.824 127 145.203 127H116.915Z" fill="url(#paint0_linear_152_124628)"/>
<defs>
<linearGradient id="paint0_linear_152_124628" x1="79" y1="62" x2="79" y2="142" gradientUnits="userSpaceOnUse">
<stop offset="0.338542" stop-color="#FFF761"/>
<stop offset="1" stop-color="#00FFF1"/>
</linearGradient>
</defs>
</svg>
