<svg width="180" height="220" viewBox="0 0 180 220" fill="none" xmlns="http://www.w3.org/2000/svg">
<path d="M7.792 212V188.992H26.64C27.408 188.992 28.112 189.184 28.752 189.568C29.392 189.952 29.8933 190.464 30.256 191.104C30.64 191.723 30.832 192.405 30.832 193.152V199.616C30.832 200.384 30.64 201.088 30.256 201.728C29.8933 202.347 29.392 202.848 28.752 203.232C28.112 203.595 27.408 203.776 26.64 203.776L11.248 203.808V212H7.792ZM12.048 200.288H26.576C26.7893 200.288 26.9707 200.213 27.12 200.064C27.2693 199.915 27.344 199.733 27.344 199.52V193.248C27.344 193.035 27.2693 192.853 27.12 192.704C26.9707 192.533 26.7893 192.448 26.576 192.448H12.048C11.8347 192.448 11.6427 192.533 11.472 192.704C11.3227 192.853 11.248 193.035 11.248 193.248V199.52C11.248 199.733 11.3227 199.915 11.472 200.064C11.6427 200.213 11.8347 200.288 12.048 200.288ZM37.1365 212C36.3685 212 35.6752 211.808 35.0565 211.424C34.4378 211.04 33.9365 210.539 33.5525 209.92C33.1685 209.301 32.9765 208.608 32.9765 207.84V187.36H36.4325V207.744C36.4325 207.957 36.5072 208.149 36.6565 208.32C36.8272 208.469 37.0192 208.544 37.2325 208.544H40.5925V212H37.1365ZM47.1678 212C46.3998 212 45.6958 211.808 45.0558 211.424C44.4371 211.04 43.9358 210.539 43.5518 209.92C43.1891 209.301 43.0078 208.608 43.0078 207.84V200.992H58.3998V197.696C58.3998 197.483 58.3251 197.301 58.1758 197.152C58.0264 196.981 57.8451 196.896 57.6318 196.896H43.0078V193.44H57.7278C58.4958 193.44 59.1891 193.632 59.8078 194.016C60.4478 194.379 60.9491 194.88 61.3118 195.52C61.6958 196.16 61.8878 196.853 61.8878 197.6V212H47.1678ZM47.2638 208.544H58.3998V204.224H46.4638V207.744C46.4638 207.957 46.5384 208.149 46.6878 208.32C46.8584 208.469 47.0504 208.544 47.2638 208.544ZM68.1705 219.104V215.616H79.5305C79.7438 215.616 79.9252 215.531 80.0745 215.36C80.2452 215.211 80.3305 215.029 80.3305 214.816V212H69.0665C68.3198 212 67.6265 211.819 66.9865 211.456C66.3465 211.072 65.8345 210.56 65.4505 209.92C65.0878 209.28 64.9065 208.587 64.9065 207.84V193.504H68.3625V207.744C68.3625 207.957 68.4372 208.149 68.5865 208.32C68.7572 208.469 68.9492 208.544 69.1625 208.544H79.5305C79.7438 208.544 79.9252 208.469 80.0745 208.32C80.2452 208.149 80.3305 207.957 80.3305 207.744V193.504H83.7865V214.944C83.7865 215.712 83.5945 216.405 83.2105 217.024C82.8478 217.664 82.3465 218.165 81.7065 218.528C81.0878 218.912 80.3945 219.104 79.6265 219.104H68.1705ZM90.5733 212C89.8053 212 89.1119 211.808 88.4933 211.424C87.8746 211.04 87.3733 210.539 86.9893 209.92C86.6053 209.301 86.4133 208.608 86.4133 207.84V197.6C86.4133 196.832 86.6053 196.139 86.9893 195.52C87.3733 194.901 87.8746 194.4 88.4933 194.016C89.1119 193.632 89.8053 193.44 90.5733 193.44H101.133C101.901 193.44 102.595 193.632 103.213 194.016C103.853 194.379 104.355 194.88 104.717 195.52C105.101 196.16 105.293 196.853 105.293 197.6V204.448H89.8693V207.744C89.8693 207.957 89.9439 208.149 90.0933 208.32C90.2639 208.469 90.4559 208.544 90.6693 208.544H105.293V212H90.5733ZM89.8693 201.216H101.805V197.696C101.805 197.483 101.731 197.301 101.581 197.152C101.432 196.981 101.251 196.896 101.037 196.896H90.6693C90.4559 196.896 90.2639 196.981 90.0933 197.152C89.9439 197.301 89.8693 197.483 89.8693 197.696V201.216ZM108.414 212V197.6C108.414 196.832 108.606 196.139 108.99 195.52C109.374 194.901 109.875 194.4 110.494 194.016C111.134 193.632 111.827 193.44 112.574 193.44H122.942V196.896H112.67C112.457 196.896 112.265 196.981 112.094 197.152C111.945 197.301 111.87 197.483 111.87 197.696V212H108.414ZM129.196 212C128.428 212 127.735 211.808 127.116 211.424C126.497 211.04 125.996 210.539 125.612 209.92C125.228 209.301 125.036 208.608 125.036 207.84V207.36H128.492V207.744C128.492 207.957 128.567 208.149 128.716 208.32C128.887 208.469 129.079 208.544 129.292 208.544H139.66C139.873 208.544 140.055 208.469 140.204 208.32C140.353 208.149 140.428 207.957 140.428 207.744V205.248C140.428 205.035 140.353 204.853 140.204 204.704C140.055 204.533 139.873 204.448 139.66 204.448H129.196C128.428 204.448 127.735 204.267 127.116 203.904C126.497 203.52 125.996 203.019 125.612 202.4C125.228 201.76 125.036 201.056 125.036 200.288V197.6C125.036 196.832 125.228 196.139 125.612 195.52C125.996 194.901 126.497 194.4 127.116 194.016C127.735 193.632 128.428 193.44 129.196 193.44H139.756C140.524 193.44 141.217 193.632 141.836 194.016C142.476 194.4 142.977 194.901 143.34 195.52C143.724 196.139 143.916 196.832 143.916 197.6V198.08H140.428V197.696C140.428 197.483 140.353 197.301 140.204 197.152C140.055 196.981 139.873 196.896 139.66 196.896H129.292C129.079 196.896 128.887 196.981 128.716 197.152C128.567 197.301 128.492 197.483 128.492 197.696V200.192C128.492 200.405 128.567 200.597 128.716 200.768C128.887 200.917 129.079 200.992 129.292 200.992H139.756C140.524 200.992 141.217 201.184 141.836 201.568C142.476 201.931 142.977 202.432 143.34 203.072C143.724 203.691 143.916 204.384 143.916 205.152V207.84C143.916 208.608 143.724 209.301 143.34 209.92C142.977 210.539 142.476 211.04 141.836 211.424C141.217 211.808 140.524 212 139.756 212H129.196Z" fill="white"/>
<path d="M21.504 104V86.72L0.256 57.92H10.24L25.792 77.44L41.152 57.92H51.328L30.016 86.784V104H21.504ZM63.9145 104C62.2932 104 60.7998 103.595 59.4345 102.784C58.1118 101.973 57.0452 100.907 56.2345 99.584C55.4238 98.2187 55.0185 96.7253 55.0185 95.104V66.816C55.0185 65.1947 55.4238 63.7227 56.2345 62.4C57.0452 61.0347 58.1118 59.9467 59.4345 59.136C60.7998 58.3253 62.2932 57.92 63.9145 57.92H92.2025C93.8238 57.92 95.2958 58.3253 96.6185 59.136C97.9838 59.9467 99.0718 61.0347 99.8825 62.4C100.693 63.7227 101.099 65.1947 101.099 66.816V95.104C101.099 96.7253 100.693 98.2187 99.8825 99.584C99.0718 100.907 97.9838 101.973 96.6185 102.784C95.2958 103.595 93.8238 104 92.2025 104H63.9145ZM64.2345 95.488H91.7545C91.9678 95.488 92.1598 95.424 92.3305 95.296C92.5012 95.1253 92.5865 94.9333 92.5865 94.72V67.2C92.5865 66.9867 92.5012 66.816 92.3305 66.688C92.1598 66.5173 91.9678 66.432 91.7545 66.432H64.2345C64.0212 66.432 63.8292 66.5173 63.6585 66.688C63.5305 66.816 63.4665 66.9867 63.4665 67.2V94.72C63.4665 94.9333 63.5305 95.1253 63.6585 95.296C63.8292 95.424 64.0212 95.488 64.2345 95.488ZM116.915 104C115.293 104 113.8 103.595 112.435 102.784C111.112 101.973 110.045 100.907 109.235 99.584C108.424 98.2187 108.019 96.7253 108.019 95.104V57.92H116.467V94.72C116.467 94.9333 116.531 95.1253 116.659 95.296C116.829 95.424 117.021 95.488 117.235 95.488H144.755C144.968 95.488 145.16 95.424 145.331 95.296C145.501 95.1253 145.587 94.9333 145.587 94.72V57.92H154.099V95.104C154.099 96.7253 153.693 98.2187 152.883 99.584C152.072 100.907 150.984 101.973 149.619 102.784C148.296 103.595 146.824 104 145.203 104H116.915Z" fill="url(#paint0_linear_152_121837)"/>
<defs>
<linearGradient id="paint0_linear_152_121837" x1="79" y1="39" x2="79" y2="119" gradientUnits="userSpaceOnUse">
<stop offset="0.338542" stop-color="#FFF761"/>
<stop offset="1" stop-color="#00FFF1"/>
</linearGradient>
</defs>
</svg>
