<svg width="174" height="205" viewBox="0 0 174 205" fill="none" xmlns="http://www.w3.org/2000/svg">
<path d="M107.812 98.4375H42.1875V103.125H107.812V98.4375Z" fill="#E9265C"/>
<path d="M107.812 103.125H42.1875V107.812H107.812V103.125Z" fill="#E9265C"/>
<path d="M107.812 107.812H42.1875V112.5H107.812V107.812Z" fill="#E9265C"/>
<path d="M107.812 112.5H42.1875V117.188H107.812V112.5Z" fill="#E9265C"/>
<path d="M51.5625 117.188H42.1875V121.875H51.5625V117.188Z" fill="#E9265C"/>
<path d="M107.812 117.188H56.25V121.875H107.812V117.188Z" fill="#E9265C"/>
<path d="M51.5625 121.875H42.1875V126.562H51.5625V121.875Z" fill="#E9265C"/>
<path d="M107.812 121.875H56.25V126.562H107.812V121.875Z" fill="#E9265C"/>
<path d="M51.5625 126.562H42.1875V131.25H51.5625V126.562Z" fill="#E9265C"/>
<path d="M107.812 126.562H56.25V131.25H107.812V126.562Z" fill="#E9265C"/>
<path d="M51.5625 131.25H42.1875V135.938H51.5625V131.25Z" fill="#E9265C"/>
<path d="M107.812 131.25H56.25V135.938H107.812V131.25Z" fill="#E9265C"/>
<path d="M51.5625 135.938H42.1875V140.625H51.5625V135.938Z" fill="#E9265C"/>
<path d="M107.812 135.938H56.25V140.625H107.812V135.938Z" fill="#E9265C"/>
<path d="M51.5625 140.625H42.1875V145.312H51.5625V140.625Z" fill="#E9265C"/>
<path d="M107.812 140.625H56.25V145.312H107.812V140.625Z" fill="#E9265C"/>
<path d="M51.5625 145.312H42.1875V150H51.5625V145.312Z" fill="#E9265C"/>
<path d="M107.812 145.312H56.25V150H107.812V145.312Z" fill="#E9265C"/>
<path d="M75 98.4375H60.9375V103.125H75V98.4375Z" fill="#00A556"/>
<path d="M93.75 98.4375H79.6875V103.125H93.75V98.4375Z" fill="#FFC925"/>
<path d="M107.812 98.4375H98.4375V103.125H107.812V98.4375Z" fill="#FE500C"/>
<path d="M56.25 103.125H42.1875V107.812H56.25V103.125Z" fill="#9F21A0"/>
<path d="M75 103.125H60.9375V107.812H75V103.125Z" fill="#00A556"/>
<path d="M93.75 103.125H79.6875V107.812H93.75V103.125Z" fill="#FFC925"/>
<path d="M56.25 107.812H42.1875V112.5H56.25V107.812Z" fill="#9F21A0"/>
<path d="M75 107.812H60.9375V112.5H75V107.812Z" fill="#00A556"/>
<path d="M107.812 107.812H93.75V112.5H107.812V107.812Z" fill="#9F21A0"/>
<path d="M56.25 112.5H42.1875V117.188H56.25V112.5Z" fill="#9F21A0"/>
<path d="M89.0625 112.5H75V117.188H89.0625V112.5Z" fill="#C5030E"/>
<path d="M107.812 112.5H93.75V117.188H107.812V112.5Z" fill="#9F21A0"/>
<path d="M70.3125 117.188H56.25V121.875H70.3125V117.188Z" fill="#FE500C"/>
<path d="M89.0625 117.188H75V121.875H89.0625V117.188Z" fill="#C5030E"/>
<path d="M107.812 117.188H93.75V121.875H107.812V117.188Z" fill="#9F21A0"/>
<path d="M51.5625 121.875H42.1875V126.562H51.5625V121.875Z" fill="#FFC925"/>
<path d="M70.3125 121.875H56.25V126.562H70.3125V121.875Z" fill="#FE500C"/>
<path d="M89.0625 121.875H75V126.562H89.0625V121.875Z" fill="#C5030E"/>
<path d="M51.5625 126.562H42.1875V131.25H51.5625V126.562Z" fill="#FFC925"/>
<path d="M70.3125 126.562H56.25V131.25H70.3125V126.562Z" fill="#FE500C"/>
<path d="M103.125 126.562H89.0625V131.25H103.125V126.562Z" fill="#FFC925"/>
<path d="M51.5625 131.25H42.1875V135.938H51.5625V131.25Z" fill="#FFC925"/>
<path d="M84.375 131.25H70.3125V135.938H84.375V131.25Z" fill="#00A556"/>
<path d="M103.125 131.25H89.0625V135.938H103.125V131.25Z" fill="#FFC925"/>
<path d="M65.625 135.938H56.25V140.625H65.625V135.938Z" fill="#9F21A0"/>
<path d="M84.375 135.938H70.3125V140.625H84.375V135.938Z" fill="#00A556"/>
<path d="M103.125 135.938H89.0625V140.625H103.125V135.938Z" fill="#FFC925"/>
<path d="M46.875 140.625H42.1875V145.312H46.875V140.625Z" fill="#C5030E"/>
<path d="M65.625 140.625H56.25V145.312H65.625V140.625Z" fill="#9F21A0"/>
<path d="M84.375 140.625H70.3125V145.312H84.375V140.625Z" fill="#00A556"/>
<path d="M107.812 140.625H103.125V145.312H107.812V140.625Z" fill="#9F21A0"/>
<path d="M46.875 145.312H42.1875V150H46.875V145.312Z" fill="#C5030E"/>
<path d="M65.625 145.312H56.25V150H65.625V145.312Z" fill="#9F21A0"/>
<path d="M98.4375 145.312H84.375V150H98.4375V145.312Z" fill="#C5030E"/>
<path d="M107.812 145.312H103.125V150H107.812V145.312Z" fill="#9F21A0"/>
<path d="M89.0625 9.375H70.3125V14.0625H89.0625V9.375Z" fill="#EFF2FA"/>
<path d="M98.4375 14.0625H70.3125V18.75H98.4375V14.0625Z" fill="#EFF2FA"/>
<path d="M79.6875 18.75H65.625V23.4375H79.6875V18.75Z" fill="#EFF2FA"/>
<path d="M84.375 18.75H79.6875V23.4375H84.375V18.75Z" fill="#26B1F3"/>
<path d="M89.0625 18.75H84.375V23.4375H89.0625V18.75Z" fill="#EFF2FA"/>
<path d="M93.75 18.75H89.0625V23.4375H93.75V18.75Z" fill="#26B1F3"/>
<path d="M98.4375 18.75H93.75V23.4375H98.4375V18.75Z" fill="#EFF2FA"/>
<path d="M75 23.4375H65.625V28.125H75V23.4375Z" fill="#EFF2FA"/>
<path d="M79.6875 23.4375H75V28.125H79.6875V23.4375Z" fill="#26B1F3"/>
<path d="M84.375 23.4375H79.6875V28.125H84.375V23.4375Z" fill="#1929F4"/>
<path d="M89.0625 23.4375H84.375V28.125H89.0625V23.4375Z" fill="#26B1F3"/>
<path d="M93.75 23.4375H89.0625V28.125H93.75V23.4375Z" fill="#1929F4"/>
<path d="M98.4375 23.4375H93.75V28.125H98.4375V23.4375Z" fill="#EFF2FA"/>
<path d="M75 28.125H65.625V32.8125H75V28.125Z" fill="#EFF2FA"/>
<path d="M84.375 28.125H75V32.8125H84.375V28.125Z" fill="#257CED"/>
<path d="M89.0625 28.125H84.375V32.8125H89.0625V28.125Z" fill="#26B1F3"/>
<path d="M93.75 28.125H89.0625V32.8125H93.75V28.125Z" fill="#257CED"/>
<path d="M98.4375 28.125H93.75V32.8125H98.4375V28.125Z" fill="#EFF2FA"/>
<path d="M75 32.8125H51.5625V37.5H75V32.8125Z" fill="#EFF2FA"/>
<path d="M79.6875 32.8125H75V37.5H79.6875V32.8125Z" fill="#257CED"/>
<path d="M84.375 32.8125H79.6875V37.5H84.375V32.8125Z" fill="#26B1F3"/>
<path d="M89.0625 32.8125H84.375V37.5H89.0625V32.8125Z" fill="#1929F4"/>
<path d="M93.75 32.8125H89.0625V37.5H93.75V32.8125Z" fill="#26B1F3"/>
<path d="M98.4375 32.8125H93.75V37.5H98.4375V32.8125Z" fill="#EFF2FA"/>
<path d="M98.4375 37.5H46.875V42.1875H98.4375V37.5Z" fill="#EFF2FA"/>
<path d="M93.75 42.1875H42.1875V46.875H93.75V42.1875Z" fill="#EFF2FA"/>
<path d="M98.4375 46.875H37.5V51.5625H98.4375V46.875Z" fill="#EFF2FA"/>
<path d="M98.4375 51.5625H32.8125V56.25H98.4375V51.5625Z" fill="#EFF2FA"/>
<path d="M103.125 51.5625H98.4375V56.25H103.125V51.5625Z" fill="#A3BAED"/>
<path d="M46.875 56.25H28.125V60.9375H46.875V56.25Z" fill="#EFF2FA"/>
<path d="M98.4375 56.25H51.5625V60.9375H98.4375V56.25Z" fill="#EFF2FA"/>
<path d="M112.5 56.25H98.4375V60.9375H112.5V56.25Z" fill="#A3BAED"/>
<path d="M42.1875 60.9375H23.4375V65.625H42.1875V60.9375Z" fill="#EFF2FA"/>
<path d="M98.4375 60.9375H51.5625V65.625H98.4375V60.9375Z" fill="#EFF2FA"/>
<path d="M121.875 60.9375H98.4375V65.625H121.875V60.9375Z" fill="#A3BAED"/>
<path d="M37.5 65.625H18.75V70.3125H37.5V65.625Z" fill="#EFF2FA"/>
<path d="M98.4375 65.625H46.875V70.3125H98.4375V65.625Z" fill="#EFF2FA"/>
<path d="M131.25 65.625H98.4375V70.3125H131.25V65.625Z" fill="#A3BAED"/>
<path d="M28.125 70.3125H9.375V75H28.125V70.3125Z" fill="#EFF2FA"/>
<path d="M98.4375 70.3125H42.1875V75H98.4375V70.3125Z" fill="#EFF2FA"/>
<path d="M135.938 70.3125H112.5V75H135.938V70.3125Z" fill="#A3BAED"/>
<path d="M23.4375 75H9.375V79.6875H23.4375V75Z" fill="#EFF2FA"/>
<path d="M98.4375 75H42.1875V79.6875H98.4375V75Z" fill="#EFF2FA"/>
<path d="M121.875 75H117.188V79.6875H121.875V75Z" fill="#A3BAED"/>
<path d="M131.25 75H126.562V79.6875H131.25V75Z" fill="#A3BAED"/>
<path d="M93.75 79.6875H42.1875V84.375H93.75V79.6875Z" fill="#EFF2FA"/>
<path d="M79.6875 84.375H42.1875V89.0625H79.6875V84.375Z" fill="#EFF2FA"/>
<path d="M89.0625 84.375H79.6875V89.0625H89.0625V84.375Z" fill="#5FD4FB"/>
<path d="M98.4375 84.375H89.0625V89.0625H98.4375V84.375Z" fill="#EFF2FA"/>
<path d="M56.25 89.0625H46.875V93.75H56.25V89.0625Z" fill="#A3BAED"/>
<path d="M103.125 89.0625H56.25V93.75H103.125V89.0625Z" fill="#EFF2FA"/>
<path d="M70.3125 93.75H42.1875V98.4375H70.3125V93.75Z" fill="#A3BAED"/>
<path d="M107.812 93.75H70.3125V98.4375H107.812V93.75Z" fill="#EFF2FA"/>
<path d="M75 51.5625H46.875V56.25H75V51.5625Z" fill="black"/>
<path d="M107.812 51.5625H79.6875V56.25H107.812V51.5625Z" fill="black"/>
<path d="M51.5625 56.25H46.875V60.9375H51.5625V56.25Z" fill="black"/>
<path d="M60.9375 56.25H51.5625V60.9375H60.9375V56.25Z" fill="white"/>
<path d="M70.3125 56.25H60.9375V60.9375H70.3125V56.25Z" fill="#FF0E0E"/>
<path d="M75 56.25H70.3125V60.9375H75V56.25Z" fill="black"/>
<path d="M84.375 56.25H79.6875V60.9375H84.375V56.25Z" fill="black"/>
<path d="M93.75 56.25H84.375V60.9375H93.75V56.25Z" fill="white"/>
<path d="M103.125 56.25H93.75V60.9375H103.125V56.25Z" fill="#FF0E0E"/>
<path d="M107.812 56.25H103.125V60.9375H107.812V56.25Z" fill="black"/>
<path d="M51.5625 60.9375H32.8125V65.625H51.5625V60.9375Z" fill="black"/>
<path d="M60.9375 60.9375H51.5625V65.625H60.9375V60.9375Z" fill="white"/>
<path d="M70.3125 60.9375H60.9375V65.625H70.3125V60.9375Z" fill="#FF0E0E"/>
<path d="M84.375 60.9375H70.3125V65.625H84.375V60.9375Z" fill="black"/>
<path d="M93.75 60.9375H84.375V65.625H93.75V60.9375Z" fill="white"/>
<path d="M103.125 60.9375H93.75V65.625H103.125V60.9375Z" fill="#FF0E0E"/>
<path d="M107.812 60.9375H103.125V65.625H107.812V60.9375Z" fill="black"/>
<path d="M37.5 65.625H32.8125V70.3125H37.5V65.625Z" fill="black"/>
<path d="M51.5625 65.625H46.875V70.3125H51.5625V65.625Z" fill="black"/>
<path d="M60.9375 65.625H51.5625V70.3125H60.9375V65.625Z" fill="white"/>
<path d="M70.3125 65.625H60.9375V70.3125H70.3125V65.625Z" fill="#FF0E0E"/>
<path d="M75 65.625H70.3125V70.3125H75V65.625Z" fill="black"/>
<path d="M84.375 65.625H79.6875V70.3125H84.375V65.625Z" fill="black"/>
<path d="M93.75 65.625H84.375V70.3125H93.75V65.625Z" fill="white"/>
<path d="M103.125 65.625H93.75V70.3125H103.125V65.625Z" fill="#FF0E0E"/>
<path d="M107.812 65.625H103.125V70.3125H107.812V65.625Z" fill="black"/>
<path d="M37.5 70.3125H32.8125V75H37.5V70.3125Z" fill="black"/>
<path d="M51.5625 70.3125H46.875V75H51.5625V70.3125Z" fill="black"/>
<path d="M60.9375 70.3125H51.5625V75H60.9375V70.3125Z" fill="white"/>
<path d="M70.3125 70.3125H60.9375V75H70.3125V70.3125Z" fill="#FF0E0E"/>
<path d="M75 70.3125H70.3125V75H75V70.3125Z" fill="black"/>
<path d="M84.375 70.3125H79.6875V75H84.375V70.3125Z" fill="black"/>
<path d="M93.75 70.3125H84.375V75H93.75V70.3125Z" fill="white"/>
<path d="M103.125 70.3125H93.75V75H103.125V70.3125Z" fill="#FF0E0E"/>
<path d="M107.812 70.3125H103.125V75H107.812V70.3125Z" fill="black"/>
<path d="M75 75H46.875V79.6875H75V75Z" fill="black"/>
<path d="M107.812 75H79.6875V79.6875H107.812V75Z" fill="black"/>
<path d="M1.888 204.556V181.516H19.808C20.5547 181.516 21.248 181.708 21.888 182.092C22.528 182.455 23.0293 182.956 23.392 183.596C23.776 184.215 23.968 184.908 23.968 185.676V190.38C23.968 190.658 23.936 190.935 23.872 191.212C23.8293 191.49 23.744 191.746 23.616 191.98C24.0427 192.578 24.3627 193.143 24.576 193.676C24.8107 194.188 24.928 194.711 24.928 195.244V200.396C24.928 201.164 24.736 201.868 24.352 202.508C23.9893 203.127 23.488 203.628 22.848 204.012C22.208 204.375 21.504 204.556 20.736 204.556H1.888ZM6.144 201.1H20.672C20.8853 201.1 21.0667 201.026 21.216 200.876C21.3653 200.706 21.44 200.514 21.44 200.3V195.34C21.44 195.127 21.3653 194.946 21.216 194.796C21.0667 194.626 20.8853 194.54 20.672 194.54H6.144C5.93067 194.54 5.73867 194.626 5.568 194.796C5.41867 194.946 5.344 195.127 5.344 195.34V200.3C5.344 200.514 5.41867 200.706 5.568 200.876C5.73867 201.026 5.93067 201.1 6.144 201.1ZM6.144 191.084H19.712C19.9253 191.084 20.1067 191.01 20.256 190.86C20.4053 190.69 20.48 190.498 20.48 190.284V185.772C20.48 185.559 20.4053 185.378 20.256 185.228C20.1067 185.058 19.9253 184.972 19.712 184.972H6.144C5.93067 184.972 5.73867 185.058 5.568 185.228C5.41867 185.378 5.344 185.559 5.344 185.772V190.284C5.344 190.498 5.41867 190.69 5.568 190.86C5.73867 191.01 5.93067 191.084 6.144 191.084ZM32.481 204.556C31.713 204.556 31.009 204.364 30.369 203.98C29.7503 203.596 29.249 203.095 28.865 202.476C28.5023 201.858 28.321 201.164 28.321 200.396V185.996H31.777V200.3C31.777 200.514 31.8517 200.706 32.001 200.876C32.1717 201.026 32.3637 201.1 32.577 201.1H42.945C43.1583 201.1 43.3397 201.026 43.489 200.876C43.6597 200.706 43.745 200.514 43.745 200.3V185.996H47.201V200.396C47.201 201.164 47.009 201.858 46.625 202.476C46.2623 203.095 45.761 203.596 45.121 203.98C44.5023 204.364 43.809 204.556 43.041 204.556H32.481ZM50.539 204.556V185.996H53.995V204.556H50.539ZM50.539 183.372V179.916H53.995V183.372H50.539ZM61.949 204.556C61.181 204.556 60.4877 204.364 59.869 203.98C59.2503 203.596 58.749 203.095 58.365 202.476C57.981 201.858 57.789 201.164 57.789 200.396V179.916H61.245V200.3C61.245 200.514 61.3197 200.706 61.469 200.876C61.6397 201.026 61.8317 201.1 62.045 201.1H65.405V204.556H61.949ZM71.5523 204.556C70.7843 204.556 70.0803 204.375 69.4403 204.012C68.8216 203.628 68.3203 203.116 67.9363 202.476C67.5736 201.836 67.3923 201.143 67.3923 200.396V190.156C67.3923 189.388 67.5736 188.695 67.9363 188.076C68.3203 187.458 68.8216 186.956 69.4403 186.572C70.0803 186.188 70.7843 185.996 71.5523 185.996H82.8162V179.916H86.2723V204.556H71.5523ZM71.6803 201.1H82.0483C82.2616 201.1 82.4429 201.026 82.5923 200.876C82.7416 200.706 82.8162 200.514 82.8162 200.3V190.252C82.8162 190.039 82.7416 189.858 82.5923 189.708C82.4429 189.538 82.2616 189.452 82.0483 189.452H71.6803C71.4669 189.452 71.2749 189.538 71.1043 189.708C70.9549 189.858 70.8802 190.039 70.8802 190.252V200.3C70.8802 200.514 70.9549 200.706 71.1043 200.876C71.2749 201.026 71.4669 201.1 71.6803 201.1ZM93.1358 204.556C92.3678 204.556 91.6744 204.364 91.0558 203.98C90.4371 203.596 89.9358 203.095 89.5518 202.476C89.1678 201.858 88.9758 201.164 88.9758 200.396V190.156C88.9758 189.388 89.1678 188.695 89.5518 188.076C89.9358 187.458 90.4371 186.956 91.0558 186.572C91.6744 186.188 92.3678 185.996 93.1358 185.996H103.696C104.464 185.996 105.157 186.188 105.776 186.572C106.416 186.935 106.917 187.436 107.28 188.076C107.664 188.716 107.856 189.41 107.856 190.156V197.004H92.4318V200.3C92.4318 200.514 92.5064 200.706 92.6558 200.876C92.8264 201.026 93.0184 201.1 93.2318 201.1H107.856V204.556H93.1358ZM92.4318 193.772H104.368V190.252C104.368 190.039 104.293 189.858 104.144 189.708C103.994 189.538 103.813 189.452 103.6 189.452H93.2318C93.0184 189.452 92.8264 189.538 92.6558 189.708C92.5064 189.858 92.4318 190.039 92.4318 190.252V193.772ZM110.977 204.556V190.156C110.977 189.388 111.169 188.695 111.553 188.076C111.937 187.458 112.438 186.956 113.057 186.572C113.697 186.188 114.39 185.996 115.137 185.996H125.505V189.452H115.233C115.019 189.452 114.827 189.538 114.657 189.708C114.507 189.858 114.433 190.039 114.433 190.252V204.556H110.977ZM131.759 204.556C130.991 204.556 130.297 204.364 129.679 203.98C129.06 203.596 128.559 203.095 128.174 202.476C127.791 201.858 127.599 201.164 127.599 200.396V199.916H131.055V200.3C131.055 200.514 131.129 200.706 131.279 200.876C131.449 201.026 131.641 201.1 131.855 201.1H142.222C142.436 201.1 142.617 201.026 142.767 200.876C142.916 200.706 142.991 200.514 142.991 200.3V197.804C142.991 197.591 142.916 197.41 142.767 197.26C142.617 197.09 142.436 197.004 142.222 197.004H131.759C130.991 197.004 130.297 196.823 129.679 196.46C129.06 196.076 128.559 195.575 128.174 194.956C127.791 194.316 127.599 193.612 127.599 192.844V190.156C127.599 189.388 127.791 188.695 128.174 188.076C128.559 187.458 129.06 186.956 129.679 186.572C130.297 186.188 130.991 185.996 131.759 185.996H142.319C143.087 185.996 143.78 186.188 144.399 186.572C145.039 186.956 145.54 187.458 145.903 188.076C146.287 188.695 146.479 189.388 146.479 190.156V190.636H142.991V190.252C142.991 190.039 142.916 189.858 142.767 189.708C142.617 189.538 142.436 189.452 142.222 189.452H131.855C131.641 189.452 131.449 189.538 131.279 189.708C131.129 189.858 131.055 190.039 131.055 190.252V192.748C131.055 192.962 131.129 193.154 131.279 193.324C131.449 193.474 131.641 193.548 131.855 193.548H142.319C143.087 193.548 143.78 193.74 144.399 194.124C145.039 194.487 145.54 194.988 145.903 195.628C146.287 196.247 146.479 196.94 146.479 197.708V200.396C146.479 201.164 146.287 201.858 145.903 202.476C145.54 203.095 145.039 203.596 144.399 203.98C143.78 204.364 143.087 204.556 142.319 204.556H131.759Z" fill="white"/>
</svg>
