<svg width="174" height="228" viewBox="0 0 174 228" fill="none" xmlns="http://www.w3.org/2000/svg">
<path d="M1.792 220V196.992H20.64C21.408 196.992 22.112 197.184 22.752 197.568C23.392 197.952 23.8933 198.464 24.256 199.104C24.64 199.723 24.832 200.405 24.832 201.152V207.616C24.832 208.384 24.64 209.088 24.256 209.728C23.8933 210.347 23.392 210.848 22.752 211.232C22.112 211.595 21.408 211.776 20.64 211.776L5.248 211.808V220H1.792ZM6.048 208.288H20.576C20.7893 208.288 20.9707 208.213 21.12 208.064C21.2693 207.915 21.344 207.733 21.344 207.52V201.248C21.344 201.035 21.2693 200.853 21.12 200.704C20.9707 200.533 20.7893 200.448 20.576 200.448H6.048C5.83467 200.448 5.64267 200.533 5.472 200.704C5.32267 200.853 5.248 201.035 5.248 201.248V207.52C5.248 207.733 5.32267 207.915 5.472 208.064C5.64267 208.213 5.83467 208.288 6.048 208.288ZM31.1365 220C30.3685 220 29.6752 219.808 29.0565 219.424C28.4378 219.04 27.9365 218.539 27.5525 217.92C27.1685 217.301 26.9765 216.608 26.9765 215.84V195.36H30.4325V215.744C30.4325 215.957 30.5072 216.149 30.6565 216.32C30.8272 216.469 31.0192 216.544 31.2325 216.544H34.5925V220H31.1365ZM41.1678 220C40.3998 220 39.6958 219.808 39.0558 219.424C38.4371 219.04 37.9358 218.539 37.5518 217.92C37.1891 217.301 37.0078 216.608 37.0078 215.84V208.992H52.3998V205.696C52.3998 205.483 52.3251 205.301 52.1758 205.152C52.0264 204.981 51.8451 204.896 51.6318 204.896H37.0078V201.44H51.7278C52.4958 201.44 53.1891 201.632 53.8078 202.016C54.4478 202.379 54.9491 202.88 55.3118 203.52C55.6958 204.16 55.8878 204.853 55.8878 205.6V220H41.1678ZM41.2638 216.544H52.3998V212.224H40.4638V215.744C40.4638 215.957 40.5384 216.149 40.6878 216.32C40.8584 216.469 41.0504 216.544 41.2638 216.544ZM62.1705 227.104V223.616H73.5305C73.7438 223.616 73.9252 223.531 74.0745 223.36C74.2452 223.211 74.3305 223.029 74.3305 222.816V220H63.0665C62.3198 220 61.6265 219.819 60.9865 219.456C60.3465 219.072 59.8345 218.56 59.4505 217.92C59.0878 217.28 58.9065 216.587 58.9065 215.84V201.504H62.3625V215.744C62.3625 215.957 62.4372 216.149 62.5865 216.32C62.7572 216.469 62.9492 216.544 63.1625 216.544H73.5305C73.7438 216.544 73.9252 216.469 74.0745 216.32C74.2452 216.149 74.3305 215.957 74.3305 215.744V201.504H77.7865V222.944C77.7865 223.712 77.5945 224.405 77.2105 225.024C76.8478 225.664 76.3465 226.165 75.7065 226.528C75.0878 226.912 74.3945 227.104 73.6265 227.104H62.1705ZM84.5733 220C83.8053 220 83.1119 219.808 82.4933 219.424C81.8746 219.04 81.3733 218.539 80.9893 217.92C80.6053 217.301 80.4133 216.608 80.4133 215.84V205.6C80.4133 204.832 80.6053 204.139 80.9893 203.52C81.3733 202.901 81.8746 202.4 82.4933 202.016C83.1119 201.632 83.8053 201.44 84.5733 201.44H95.1333C95.9013 201.44 96.5946 201.632 97.2133 202.016C97.8533 202.379 98.3546 202.88 98.7173 203.52C99.1013 204.16 99.2933 204.853 99.2933 205.6V212.448H83.8693V215.744C83.8693 215.957 83.9439 216.149 84.0933 216.32C84.2639 216.469 84.4559 216.544 84.6693 216.544H99.2933V220H84.5733ZM83.8693 209.216H95.8053V205.696C95.8053 205.483 95.7306 205.301 95.5813 205.152C95.4319 204.981 95.2506 204.896 95.0373 204.896H84.6693C84.4559 204.896 84.2639 204.981 84.0933 205.152C83.9439 205.301 83.8693 205.483 83.8693 205.696V209.216ZM102.414 220V205.6C102.414 204.832 102.606 204.139 102.99 203.52C103.374 202.901 103.875 202.4 104.494 202.016C105.134 201.632 105.827 201.44 106.574 201.44H116.942V204.896H106.67C106.457 204.896 106.265 204.981 106.094 205.152C105.945 205.301 105.87 205.483 105.87 205.696V220H102.414ZM123.196 220C122.428 220 121.735 219.808 121.116 219.424C120.497 219.04 119.996 218.539 119.612 217.92C119.228 217.301 119.036 216.608 119.036 215.84V215.36H122.492V215.744C122.492 215.957 122.567 216.149 122.716 216.32C122.887 216.469 123.079 216.544 123.292 216.544H133.66C133.873 216.544 134.055 216.469 134.204 216.32C134.353 216.149 134.428 215.957 134.428 215.744V213.248C134.428 213.035 134.353 212.853 134.204 212.704C134.055 212.533 133.873 212.448 133.66 212.448H123.196C122.428 212.448 121.735 212.267 121.116 211.904C120.497 211.52 119.996 211.019 119.612 210.4C119.228 209.76 119.036 209.056 119.036 208.288V205.6C119.036 204.832 119.228 204.139 119.612 203.52C119.996 202.901 120.497 202.4 121.116 202.016C121.735 201.632 122.428 201.44 123.196 201.44H133.756C134.524 201.44 135.217 201.632 135.836 202.016C136.476 202.4 136.977 202.901 137.34 203.52C137.724 204.139 137.916 204.832 137.916 205.6V206.08H134.428V205.696C134.428 205.483 134.353 205.301 134.204 205.152C134.055 204.981 133.873 204.896 133.66 204.896H123.292C123.079 204.896 122.887 204.981 122.716 205.152C122.567 205.301 122.492 205.483 122.492 205.696V208.192C122.492 208.405 122.567 208.597 122.716 208.768C122.887 208.917 123.079 208.992 123.292 208.992H133.756C134.524 208.992 135.217 209.184 135.836 209.568C136.476 209.931 136.977 210.432 137.34 211.072C137.724 211.691 137.916 212.384 137.916 213.152V215.84C137.916 216.608 137.724 217.301 137.34 217.92C136.977 218.539 136.476 219.04 135.836 219.424C135.217 219.808 134.524 220 133.756 220H123.196Z" fill="white"/>
<path d="M114.812 98.4375H49.1875V103.125H114.812V98.4375Z" fill="#CAEFF9"/>
<path d="M114.812 103.125H49.1875V107.812H114.812V103.125Z" fill="#CAEFF9"/>
<path d="M114.812 107.812H49.1875V112.5H114.812V107.812Z" fill="#CAEFF9"/>
<path d="M114.812 112.5H49.1875V117.188H114.812V112.5Z" fill="#CAEFF9"/>
<path d="M58.5625 117.188H49.1875V121.875H58.5625V117.188Z" fill="#CAEFF9"/>
<path d="M114.812 117.188H63.25V121.875H114.812V117.188Z" fill="#CAEFF9"/>
<path d="M58.5625 121.875H49.1875V126.562H58.5625V121.875Z" fill="#CAEFF9"/>
<path d="M114.812 121.875H63.25V126.562H114.812V121.875Z" fill="#CAEFF9"/>
<path d="M58.5625 126.562H49.1875V131.25H58.5625V126.562Z" fill="#CAEFF9"/>
<path d="M114.812 126.562H63.25V131.25H114.812V126.562Z" fill="#CAEFF9"/>
<path d="M58.5625 131.25H49.1875V135.938H58.5625V131.25Z" fill="#CAEFF9"/>
<path d="M114.812 131.25H63.25V135.938H114.812V131.25Z" fill="#CAEFF9"/>
<path d="M58.5625 135.938H49.1875V140.625H58.5625V135.938Z" fill="#CAEFF9"/>
<path d="M114.812 135.938H63.25V140.625H114.812V135.938Z" fill="#CAEFF9"/>
<path d="M58.5625 140.625H49.1875V145.312H58.5625V140.625Z" fill="#CAEFF9"/>
<path d="M114.812 140.625H63.25V145.312H114.812V140.625Z" fill="#CAEFF9"/>
<path d="M58.5625 145.312H49.1875V150H58.5625V145.312Z" fill="#CAEFF9"/>
<path d="M114.812 145.312H63.25V150H114.812V145.312Z" fill="#CAEFF9"/>
<path d="M114.812 98.4375H49.1875V103.125H114.812V98.4375Z" fill="#FFC925"/>
<path d="M114.812 103.125H49.1875V107.812H114.812V103.125Z" fill="#FFC925"/>
<path d="M114.812 107.812H49.1875V112.5H114.812V107.812Z" fill="#FFC925"/>
<path d="M114.812 112.5H49.1875V117.188H114.812V112.5Z" fill="#FFAE1A"/>
<path d="M58.5625 117.188H49.1875V121.875H58.5625V117.188Z" fill="#F78A18"/>
<path d="M114.812 117.188H63.25V121.875H114.812V117.188Z" fill="#F78A18"/>
<path d="M58.5625 121.875H49.1875V126.562H58.5625V121.875Z" fill="#FE500C"/>
<path d="M114.812 121.875H63.25V126.562H114.812V121.875Z" fill="#FE500C"/>
<path d="M58.5625 126.562H49.1875V131.25H58.5625V126.562Z" fill="#D9391F"/>
<path d="M114.812 126.562H63.25V131.25H114.812V126.562Z" fill="#D9391F"/>
<path d="M58.5625 131.25H49.1875V135.938H58.5625V131.25Z" fill="#D9391F"/>
<path d="M114.812 131.25H63.25V135.938H114.812V131.25Z" fill="#D9391F"/>
<path d="M58.5625 135.938H49.1875V140.625H58.5625V135.938Z" fill="#BD2D24"/>
<path d="M114.812 135.938H63.25V140.625H114.812V135.938Z" fill="#BD2D24"/>
<path d="M58.5625 140.625H49.1875V145.312H58.5625V140.625Z" fill="#BD2D24"/>
<path d="M114.812 140.625H63.25V145.312H114.812V140.625Z" fill="#BD2D24"/>
<path d="M58.5625 145.312H49.1875V150H58.5625V145.312Z" fill="#BD2D24"/>
<path d="M114.812 145.312H63.25V150H114.812V145.312Z" fill="#BD2D24"/>
<path d="M96.0625 14.0625H67.9375V18.75H96.0625V14.0625Z" fill="black"/>
<path d="M96.0625 18.75H67.9375V23.4375H96.0625V18.75Z" fill="black"/>
<path d="M119.5 23.4375H44.5V28.125H119.5V23.4375Z" fill="black"/>
<path d="M44.5 28.125H30.4375V32.8125H44.5V28.125Z" fill="#F78A18"/>
<path d="M77.3125 28.125H44.5V32.8125H77.3125V28.125Z" fill="#FFC110"/>
<path d="M110.125 28.125H77.3125V32.8125H110.125V28.125Z" fill="#F9F4E6"/>
<path d="M119.5 28.125H110.125V32.8125H119.5V28.125Z" fill="#FFC110"/>
<path d="M39.8125 32.8125H35.125V37.5H39.8125V32.8125Z" fill="#F78A18"/>
<path d="M77.3125 32.8125H44.5V37.5H77.3125V32.8125Z" fill="#FFC110"/>
<path d="M110.125 32.8125H77.3125V37.5H110.125V32.8125Z" fill="#F9F4E6"/>
<path d="M119.5 32.8125H110.125V37.5H119.5V32.8125Z" fill="#FFC110"/>
<path d="M44.5 37.5H30.4375V42.1875H44.5V37.5Z" fill="#F78A18"/>
<path d="M77.3125 37.5H44.5V42.1875H77.3125V37.5Z" fill="#FFC110"/>
<path d="M110.125 37.5H77.3125V42.1875H110.125V37.5Z" fill="#F9F4E6"/>
<path d="M119.5 37.5H110.125V42.1875H119.5V37.5Z" fill="#FFC110"/>
<path d="M44.5 42.1875H30.4375V46.875H44.5V42.1875Z" fill="#F78A18"/>
<path d="M77.3125 42.1875H44.5V46.875H77.3125V42.1875Z" fill="#FFC110"/>
<path d="M110.125 42.1875H77.3125V46.875H110.125V42.1875Z" fill="#F9F4E6"/>
<path d="M119.5 42.1875H110.125V46.875H119.5V42.1875Z" fill="#FFC110"/>
<path d="M44.5 46.875H30.4375V51.5625H44.5V46.875Z" fill="#F78A18"/>
<path d="M77.3125 46.875H44.5V51.5625H77.3125V46.875Z" fill="#FFC110"/>
<path d="M110.125 46.875H77.3125V51.5625H110.125V46.875Z" fill="#F9F4E6"/>
<path d="M119.5 46.875H110.125V51.5625H119.5V46.875Z" fill="#FFC110"/>
<path d="M44.5 51.5625H30.4375V56.25H44.5V51.5625Z" fill="#F78A18"/>
<path d="M77.3125 51.5625H44.5V56.25H77.3125V51.5625Z" fill="#FFC110"/>
<path d="M110.125 51.5625H77.3125V56.25H110.125V51.5625Z" fill="#F9F4E6"/>
<path d="M119.5 51.5625H110.125V56.25H119.5V51.5625Z" fill="#FFC110"/>
<path d="M44.5 56.25H30.4375V60.9375H44.5V56.25Z" fill="#F78A18"/>
<path d="M77.3125 56.25H44.5V60.9375H77.3125V56.25Z" fill="#FFC110"/>
<path d="M110.125 56.25H77.3125V60.9375H110.125V56.25Z" fill="#F9F4E6"/>
<path d="M119.5 56.25H110.125V60.9375H119.5V56.25Z" fill="#FFC110"/>
<path d="M44.5 60.9375H30.4375V65.625H44.5V60.9375Z" fill="#F78A18"/>
<path d="M77.3125 60.9375H44.5V65.625H77.3125V60.9375Z" fill="#FFC110"/>
<path d="M110.125 60.9375H77.3125V65.625H110.125V60.9375Z" fill="#F9F4E6"/>
<path d="M119.5 60.9375H110.125V65.625H119.5V60.9375Z" fill="#FFC110"/>
<path d="M44.5 65.625H30.4375V70.3125H44.5V65.625Z" fill="#F78A18"/>
<path d="M77.3125 65.625H44.5V70.3125H77.3125V65.625Z" fill="#FFC110"/>
<path d="M110.125 65.625H77.3125V70.3125H110.125V65.625Z" fill="#F9F4E6"/>
<path d="M119.5 65.625H110.125V70.3125H119.5V65.625Z" fill="#FFC110"/>
<path d="M44.5 70.3125H30.4375V75H44.5V70.3125Z" fill="#F78A18"/>
<path d="M77.3125 70.3125H44.5V75H77.3125V70.3125Z" fill="#FFC110"/>
<path d="M110.125 70.3125H77.3125V75H110.125V70.3125Z" fill="#F9F4E6"/>
<path d="M119.5 70.3125H110.125V75H119.5V70.3125Z" fill="#FFC110"/>
<path d="M44.5 75H30.4375V79.6875H44.5V75Z" fill="#F78A18"/>
<path d="M77.3125 75H44.5V79.6875H77.3125V75Z" fill="#FFC110"/>
<path d="M110.125 75H77.3125V79.6875H110.125V75Z" fill="#F9F4E6"/>
<path d="M119.5 75H110.125V79.6875H119.5V75Z" fill="#FFC110"/>
<path d="M44.5 79.6875H30.4375V84.375H44.5V79.6875Z" fill="#F78A18"/>
<path d="M77.3125 79.6875H44.5V84.375H77.3125V79.6875Z" fill="#FFC110"/>
<path d="M110.125 79.6875H77.3125V84.375H110.125V79.6875Z" fill="#F9F4E6"/>
<path d="M119.5 79.6875H110.125V84.375H119.5V79.6875Z" fill="#FFC110"/>
<path d="M39.8125 84.375H35.125V89.0625H39.8125V84.375Z" fill="#F78A18"/>
<path d="M53.875 84.375H44.5V89.0625H53.875V84.375Z" fill="#FFC110"/>
<path d="M67.9375 84.375H53.875V89.0625H67.9375V84.375Z" fill="#9F4B27"/>
<path d="M77.3125 84.375H67.9375V89.0625H77.3125V84.375Z" fill="#FFC110"/>
<path d="M110.125 84.375H77.3125V89.0625H110.125V84.375Z" fill="#F9F4E6"/>
<path d="M119.5 84.375H110.125V89.0625H119.5V84.375Z" fill="#FFC110"/>
<path d="M44.5 89.0625H30.4375V93.75H44.5V89.0625Z" fill="#F78A18"/>
<path d="M77.3125 89.0625H44.5V93.75H77.3125V89.0625Z" fill="#FFC110"/>
<path d="M110.125 89.0625H77.3125V93.75H110.125V89.0625Z" fill="#F9F4E6"/>
<path d="M119.5 89.0625H110.125V93.75H119.5V89.0625Z" fill="#FFC110"/>
<path d="M119.5 93.75H44.5V98.4375H119.5V93.75Z" fill="black"/>
<path d="M82 51.5625H53.875V56.25H82V51.5625Z" fill="#FFEF16"/>
<path d="M114.812 51.5625H86.6875V56.25H114.812V51.5625Z" fill="#FFEF16"/>
<path d="M58.5625 56.25H53.875V60.9375H58.5625V56.25Z" fill="#FFEF16"/>
<path d="M67.9375 56.25H58.5625V60.9375H67.9375V56.25Z" fill="white"/>
<path d="M77.3125 56.25H67.9375V60.9375H77.3125V56.25Z" fill="black"/>
<path d="M82 56.25H77.3125V60.9375H82V56.25Z" fill="#FFEF16"/>
<path d="M91.375 56.25H86.6875V60.9375H91.375V56.25Z" fill="#FFEF16"/>
<path d="M100.75 56.25H91.375V60.9375H100.75V56.25Z" fill="white"/>
<path d="M110.125 56.25H100.75V60.9375H110.125V56.25Z" fill="black"/>
<path d="M114.812 56.25H110.125V60.9375H114.812V56.25Z" fill="#FFEF16"/>
<path d="M58.5625 60.9375H39.8125V65.625H58.5625V60.9375Z" fill="#FFEF16"/>
<path d="M67.9375 60.9375H58.5625V65.625H67.9375V60.9375Z" fill="white"/>
<path d="M77.3125 60.9375H67.9375V65.625H77.3125V60.9375Z" fill="black"/>
<path d="M91.375 60.9375H77.3125V65.625H91.375V60.9375Z" fill="#FFEF16"/>
<path d="M100.75 60.9375H91.375V65.625H100.75V60.9375Z" fill="white"/>
<path d="M110.125 60.9375H100.75V65.625H110.125V60.9375Z" fill="black"/>
<path d="M114.812 60.9375H110.125V65.625H114.812V60.9375Z" fill="#FFEF16"/>
<path d="M44.5 65.625H39.8125V70.3125H44.5V65.625Z" fill="#FFEF16"/>
<path d="M58.5625 65.625H53.875V70.3125H58.5625V65.625Z" fill="#FFEF16"/>
<path d="M67.9375 65.625H58.5625V70.3125H67.9375V65.625Z" fill="white"/>
<path d="M77.3125 65.625H67.9375V70.3125H77.3125V65.625Z" fill="black"/>
<path d="M82 65.625H77.3125V70.3125H82V65.625Z" fill="#FFEF16"/>
<path d="M91.375 65.625H86.6875V70.3125H91.375V65.625Z" fill="#FFEF16"/>
<path d="M100.75 65.625H91.375V70.3125H100.75V65.625Z" fill="white"/>
<path d="M110.125 65.625H100.75V70.3125H110.125V65.625Z" fill="black"/>
<path d="M114.812 65.625H110.125V70.3125H114.812V65.625Z" fill="#FFEF16"/>
<path d="M44.5 70.3125H39.8125V75H44.5V70.3125Z" fill="#FFEF16"/>
<path d="M58.5625 70.3125H53.875V75H58.5625V70.3125Z" fill="#FFEF16"/>
<path d="M67.9375 70.3125H58.5625V75H67.9375V70.3125Z" fill="white"/>
<path d="M77.3125 70.3125H67.9375V75H77.3125V70.3125Z" fill="black"/>
<path d="M82 70.3125H77.3125V75H82V70.3125Z" fill="#FFEF16"/>
<path d="M91.375 70.3125H86.6875V75H91.375V70.3125Z" fill="#FFEF16"/>
<path d="M100.75 70.3125H91.375V75H100.75V70.3125Z" fill="white"/>
<path d="M110.125 70.3125H100.75V75H110.125V70.3125Z" fill="black"/>
<path d="M114.812 70.3125H110.125V75H114.812V70.3125Z" fill="#FFEF16"/>
<path d="M82 75H53.875V79.6875H82V75Z" fill="#FFEF16"/>
<path d="M114.812 75H86.6875V79.6875H114.812V75Z" fill="#FFEF16"/>
</svg>
