<svg width="157" height="113" viewBox="0 0 157 113" fill="none" xmlns="http://www.w3.org/2000/svg">
<path d="M7.28111 74.4462C7.5231 74.0744 7.77098 73.6966 8.01297 73.3248C8.52646 73.0474 8.6268 72.5929 8.56778 72.0676L8.54414 72.1149C9.18748 71.8257 9.2288 71.4538 8.70351 70.9994C8.72122 70.7869 8.74481 70.5803 8.76252 70.3678C9.38225 69.9901 9.74228 69.453 9.8013 68.7093C10.1082 64.7667 10.4624 60.8299 10.7043 56.8814C10.7398 56.2794 10.5627 55.6833 11.2119 55.4C11.991 55.0517 12.1385 55.8131 12.4927 56.2322C14.1335 58.174 14.706 60.3401 14.6529 62.9252C14.6175 64.7903 13.5197 67.0036 15.491 68.6326C15.5441 69.4235 15.5913 70.2144 15.6444 71.0053C15.1428 71.4479 15.19 71.8256 15.7861 72.1266L15.7625 72.1207C15.9809 72.3155 16.2051 72.5103 16.4235 72.7109C17.0846 72.7345 17.8046 72.9471 18.2296 72.1739C19.652 71.7194 20.4665 73.1832 21.7118 73.2894H21.6882C21.6764 73.8914 21.8653 74.34 22.5322 74.4462C24.0963 74.5111 25.6781 74.4521 27.2185 74.6587C30.1165 75.0482 31.5035 74.0035 31.0962 70.9816C32.0996 66.3249 31.716 61.5618 32.194 56.8637C34.3188 56.2145 33.162 54.4438 33.4276 53.1749C33.587 52.4194 33.4689 51.3393 34.3956 51.3098C35.5465 51.2744 35.1805 52.4312 35.1864 53.1158C35.2218 55.9725 35.2691 58.8232 36.5498 61.4733C38.2968 63.6925 40.2859 65.6284 42.8887 66.8324C43.0363 67.1393 43.2251 67.2102 43.4612 66.921C44.4528 66.8974 45.4502 66.8738 46.4418 66.8561C47.1087 67.2338 47.8878 67.464 48.2892 68.2077C48.3718 68.5972 48.2656 69.0753 48.8027 69.2405L48.7732 69.1933C48.6787 72.3155 49.4578 75.3315 49.8414 78.4006C50.0185 79.8053 50.6441 80.7202 51.801 81.3871C51.9603 82.0305 52.4148 82.1721 52.9991 82.0894L52.9932 82.06C53.1879 82.6738 53.6247 82.7623 54.1795 82.6266L54.1087 82.7682L54.1913 82.6325C54.5986 83.5827 55.4131 83.3171 56.1449 83.2817L56.2984 83.2345L56.44 83.3053C56.5935 83.6772 56.7824 83.8011 57.0421 83.3939C57.5201 83.3466 57.9451 83.4411 58.252 83.8483C59.2022 85.0229 60.2882 85.6249 61.7342 84.6569C62.1297 84.6097 62.5251 84.5624 62.9206 84.5152C63.2806 85.0523 63.8 85.0996 64.3725 84.9992C67.5892 85.4183 70.7999 85.8314 74.0166 86.2505C74.5183 86.2505 75.0141 86.2505 75.5158 86.2505C75.8522 86.4748 76.1886 86.705 76.525 86.9292C76.95 87.909 77.7586 88.1628 78.7383 88.1038C78.7619 89.4672 78.7678 90.8364 78.815 92.1998C78.8387 92.8727 78.8209 93.8229 79.7004 93.7757C82.1261 93.6577 84.7585 94.7909 86.9246 92.7665C87.8572 92.0877 88.7897 91.3972 90.0527 91.6391C90.5367 92.3002 91.1978 92.2766 91.8942 92.1113C92.2483 92.0995 92.6084 92.0877 92.9625 92.0818C93.8596 92.3415 94.6505 92.0522 95.406 91.5978C96.2677 91.4325 97.1235 91.2201 97.9911 91.102C102.878 90.4233 106.744 89.0422 106.803 82.8155C106.833 79.9765 109.412 78.4124 112.481 78.501C112.664 78.7489 112.847 78.9967 113.03 79.2446C113.077 81.576 113.095 83.9132 113.183 86.2446C113.207 86.8289 112.888 87.6552 113.998 87.7909C116.483 88.0978 119.776 85.6426 120.289 83.0751C120.797 80.5431 120.608 77.7927 122.568 75.7093C123.748 75.1427 123.807 74.0685 123.707 72.9943C123.512 70.84 124.71 71.1823 126.009 71.6486C126.227 71.9378 126.54 72.5221 126.658 72.4808C130.193 71.3653 129.479 73.8678 129.662 75.8214C129.821 77.533 128.794 79.4748 130.488 80.9445C137.057 80.1123 135.93 80.4015 136.556 74.7472C136.674 73.6789 136.632 72.5929 136.662 71.5188C136.886 71.5129 137.111 71.5069 137.341 71.501C139.088 71.5837 140.534 70.716 142.051 70.055C142.995 69.6477 143.479 68.9631 143.184 67.9657C142.659 66.1891 142.865 64.2355 141.856 62.5829C141.685 61.5323 141.514 60.4817 141.348 59.437C141.295 58.4278 141.903 57.1116 140.168 56.8755L140.18 56.8932C140.581 54.6327 140.032 52.4253 139.465 50.3123C138.987 48.5299 139.406 47.5324 140.917 46.7651C146.17 49.8992 150.148 53.8182 150.591 60.4699C151.063 67.517 151.943 74.5406 152.551 81.576C152.804 84.4975 151.429 86.6223 148.927 88.1332C145.255 90.3465 141.154 91.2791 137.063 92.2353C134.319 92.8786 131.934 93.9646 130.069 96.2133C127.46 99.365 123.595 100.097 119.888 101.047C117.669 101.62 115.426 102.068 112.575 102.712C114.612 103.514 116.105 103.921 117.409 104.659C119.404 105.787 119.398 107.457 117.309 108.348C112.569 110.378 107.618 109.776 102.872 108.513C100.328 107.835 102.483 106.034 102.908 104.588C94.078 105.556 85.3546 105.444 76.6254 104.665C67.6069 103.857 58.7478 102.263 50.1897 99.2293C45.5329 97.5767 41.183 95.3456 37.5768 91.8929C35.7766 90.1695 33.6519 89.5026 31.2202 89.2252C24.3088 88.4402 17.3502 87.8087 10.787 85.2294C9.61836 84.7691 8.50874 84.167 7.36962 83.6358C7.23978 83.0102 6.78531 82.8508 6.22461 82.8449L6.24233 82.8568C6.30725 81.3753 5.87049 80.1241 4.57792 79.2683C4.48939 78.7607 4.71365 78.3829 5.07368 78.0642C5.16221 77.7986 5.24485 77.5389 5.33338 77.2733C5.33338 77.2733 5.41011 77.1494 5.41011 77.1553C8.08378 77.6569 7.93625 76.2345 7.28111 74.4462Z" fill="#18272A"/>
<path d="M36.5432 61.4618C35.2683 58.8058 35.2211 55.9609 35.1798 53.1043C35.168 52.4197 35.5399 51.2629 34.3889 51.2983C33.4682 51.3278 33.5803 52.4078 33.421 53.1633C33.1554 54.4323 34.3122 56.2088 32.1874 56.8522C32.0045 56.8226 31.8156 56.8109 31.6326 56.8168C31.6739 56.445 31.7153 56.0672 31.7625 55.6954C32.0989 55.7308 32.5652 56.0436 32.6832 55.477C32.7895 54.9576 32.5002 54.574 31.9454 54.4618C32.0635 52.8033 32.3232 51.1389 32.2642 49.4863C32.0399 43.5369 28.2271 41.2115 22.8798 43.6963C22.0889 44.0623 21.357 44.5698 20.5602 44.924C19.4919 45.402 18.4177 45.6204 17.5147 44.4931C22.0534 40.881 24.857 39.8894 30.2338 39.9543C30.4404 40.0192 30.6411 40.0842 30.8417 40.1491C30.7473 39.9839 30.647 39.8127 30.5526 39.6474C30.3578 38.5673 29.5492 37.9889 28.6993 37.5109C25.6302 35.7756 19.6159 36.8734 17.3495 39.5766C16.3461 40.7747 15.3545 41.9906 14.4751 43.2772C10.5266 49.0554 10.6859 51.3573 15.3073 56.7401C15.4962 57.9972 15.6851 59.2485 15.8739 60.5056C14.6522 61.1549 15.2365 62.2291 15.3781 63.0967C15.685 64.9499 15.7028 66.7855 15.508 68.6329C13.5367 67.0039 14.6345 64.7965 14.6699 62.9255C14.723 60.3403 14.1505 58.1743 12.5097 56.2325C12.1556 55.8134 12.008 55.052 11.2289 55.4003C10.5856 55.6895 10.7626 56.2797 10.7213 56.8817C10.4793 60.8302 10.1252 64.767 9.81832 68.7096C9.7593 69.4533 9.40516 69.9903 8.77954 70.3681C9.75929 64.0351 10.0367 57.7198 8.27196 51.4577C7.92374 50.2182 8.51393 49.1676 9.09824 48.1348C12.0847 42.8464 15.0476 37.5168 19.2499 33.0902C21.5931 30.6231 21.7229 27.4241 22.7617 24.5498C23.4346 22.6847 20.4481 23.1805 20.0644 21.6931C23.5998 20.4655 23.588 20.4714 21.7938 17.2075C21.2508 16.216 20.7904 15.1831 20.7432 13.8374C22.3368 15.0178 23.9362 16.1923 25.5593 17.3905C26.2735 15.2421 26.2735 15.2421 22.9388 7.23879C24.3907 7.8231 25.6125 8.31888 27.0467 8.89729C27.2769 6.79023 25.4413 5.6216 24.9455 3.94539C25.0577 3.83325 25.1698 3.72701 25.276 3.61487C27.3241 4.38215 28.2743 6.30624 29.7144 7.95884C31.1191 4.57691 33.8223 2.90072 37.0803 2.10983C46.8425 -0.251027 56.7462 -0.835335 66.5438 1.41338C71.9679 2.65873 77.2326 4.84252 79.5462 10.8096C80.0833 12.1848 81.0454 13.2413 82.6566 11.7008C83.9197 10.4968 84.3565 12.0549 84.8699 12.6038C86.1507 13.9731 87.16 14.5043 88.4112 12.291C88.4112 14.162 88.4348 16.0389 88.4053 17.9099C88.3876 19.0844 89.1018 19.4444 89.8337 18.7893C90.9551 17.78 91.5984 17.9984 92.5368 18.9958C93.5402 20.0641 94.6498 20.1999 95.9483 19.0608C96.7864 18.3289 98.0317 17.9925 99.1531 17.6679C100.298 17.3373 101.036 16.7825 101.195 15.5549C101.355 14.3272 101.862 12.9403 102.954 12.6629C106.602 11.7421 109.24 9.25143 112.309 7.39816C115.815 5.28519 120.295 7.38634 121.386 11.0693C121.593 11.7657 121.841 11.9546 122.49 12.1199C127.908 13.5128 128.05 13.7075 128.569 19.6038C130.098 20.0051 130.753 18.6122 131.969 17.8686C132.264 20.1881 132.506 22.3955 132.825 24.5911C133.149 26.8044 133.551 29.0059 133.923 31.231C135.327 31.0952 135.369 28.5396 136.626 29.1475C137.895 29.7614 137.11 31.6795 137.464 32.9662C137.647 33.6332 136.903 35.2445 138.786 34.6129C138.88 34.7546 138.993 34.8844 139.117 34.9965C135.906 39.4999 138.467 43.1061 140.934 46.73C139.423 47.4973 139.004 48.4948 139.482 50.2772C140.049 52.3902 140.598 54.5975 140.197 56.8581C139.359 56.0554 139.246 54.9458 139.105 53.9129C138.715 51.0031 138.101 48.1584 137.057 45.408C135.292 40.7807 132.052 38.65 127.1 39.3996C125.719 39.6061 125.199 38.9392 124.349 38.4493L124.379 38.4906C120.082 34.4005 115.242 31.9924 109.157 33.7866C107.564 34.2529 105.834 34.7782 105.935 37.021L105.958 37.0033C105.569 37.2984 105.563 37.5994 105.941 37.9122L105.923 37.7116C104.619 38.0716 105.114 38.9392 105.356 39.7359C105.563 42.3388 107.764 42.9349 109.6 43.6078C113.613 45.0774 117.946 45.6145 121.711 47.8278C122.207 48.117 122.88 48.241 123.358 47.7688C123.96 47.1727 123.682 46.4526 123.287 45.9096C122.72 45.1542 121.888 44.5226 122.809 43.5606C123.966 44.5581 124.166 47.1667 126.716 45.1187C126.285 47.2317 125.878 49.0378 125.548 50.8556C125.223 52.6617 124.727 54.4677 124.473 56.2325C124.143 58.5343 123.83 61.0427 124.863 63.3622C124.975 66.1303 125.394 68.8571 126.102 71.5367L126.031 71.6075C124.727 71.1353 123.535 70.793 123.73 72.9532C123.824 74.0274 123.765 75.1016 122.591 75.6682C122.697 74.4169 122.915 73.1598 122.886 71.9144C122.791 67.718 124.125 63.4272 122.095 59.3547C123.86 51.2039 122.372 48.2114 115.768 46.0926C114.841 45.7975 113.873 45.6145 112.911 45.4433C109.73 44.8649 106.525 44.3986 103.361 43.7258C101.431 43.3127 100.068 42.2148 99.6784 40.0311C98.8698 35.4746 96.4263 34.7074 92.8733 37.8237C88.6296 41.542 83.7604 42.8464 77.4451 41.7309C83.0639 40.8515 87.9627 40.1904 90.6954 35.2976C90.896 34.9847 91.1026 34.6719 91.3033 34.365L91.2915 34.3886C93.0444 29.7082 90.5655 23.8828 85.4307 20.6248C84.5158 19.4149 84.6752 17.2193 82.4206 17.2429C80.6027 17.2606 78.7553 16.8711 76.9788 17.5498C76.5479 17.3728 76.5597 17.0127 76.6069 16.6409L76.5715 16.7412C79.381 14.8702 78.6668 12.4976 77.1441 10.4023C74.069 6.1823 69.6306 3.53226 64.6669 2.74727C55.5953 1.31895 46.4529 1.50191 37.5584 4.28772C35.3628 4.97827 33.1141 5.75145 32.394 8.3779C30.7355 9.72359 29.9978 11.6182 29.3426 13.5482C28.1032 17.1898 27.6959 21.0026 27.1234 24.7799C26.9109 26.2378 26.6571 27.6838 26.4978 29.1475C26.0787 33.0784 27.5838 34.6424 31.792 34.7133C32.1579 35.9704 32.5298 37.2276 32.8957 38.4847C32.5061 39.6534 34.1115 40.8102 32.9193 41.9788C32.7895 41.9021 32.6596 41.8253 32.5298 41.7486C32.6006 41.8843 32.6714 42.0201 32.7422 42.1559C32.9075 43.177 33.4741 43.7494 34.5483 43.9678C34.8493 41.9375 34.3181 40.2259 33.6807 38.532C33.5449 35.9409 32.2347 33.5623 32.3173 30.9359C35.1798 34.6601 36.8855 38.8094 37.0036 43.5606C37.0154 44.0151 37.3223 44.4577 37.4935 44.9062C36.7675 45.343 36.9505 46.0867 36.8619 46.7477C36.1891 51.6642 36.6494 56.5689 36.5432 61.4618ZM130.021 28.4983C131.692 27.2057 131.231 25.5767 130.547 24.0835C129.626 22.0709 127.808 22.3719 126.067 22.6611C126.037 22.2479 126.002 21.8348 125.972 21.4216C127.094 16.092 126.462 14.9175 121.581 13.2531C120.666 12.9403 119.763 12.5979 118.837 12.3559C118.453 12.2556 118.081 12.3795 118.477 11.7952C120.171 9.27501 118.01 9.35766 116.559 9.00353C111.495 7.77588 110.054 14.3863 105.321 14.2033C104.099 14.1561 103.308 15.8795 103.113 17.3314C102.405 17.9394 102.565 19.4267 101.361 19.4267C97.1641 19.4326 97.4356 22.8027 96.6979 25.4292C96.45 26.6391 96.2021 27.8431 95.9542 29.0531C95.8007 29.3777 95.6355 29.7023 95.5056 30.0388C95.4938 30.0683 95.724 30.1863 95.8361 30.2631C95.9188 29.8912 95.9955 29.5253 96.0781 29.1534C98.073 30.0211 100.458 32.1635 100.605 27.43C103.68 31.1897 106.767 30.9831 108.868 27.0523C110.001 27.8845 110.255 30.5995 112.563 28.9233C113.425 30.1332 114.422 30.1096 115.52 29.2656C117.078 31.8448 118.518 30.3162 120.306 28.6931C119.616 32.4881 121.558 33.7866 124.485 34.4949C126.209 34.9139 128.18 33.5269 129.756 35.3212C129.98 35.575 130.759 34.607 130.871 33.8752C131.999 31.8625 131.827 30.0565 130.021 28.4983Z" fill="#2C2420"/>
<path d="M3.48042 76.4584C0.588374 81.2391 1.04282 82.0418 9.94915 87.4776C7.28138 87.2711 5.16842 86.433 3.20891 85.2467C-1.12326 82.6143 -1.05243 79.0376 3.32105 76.2754L3.48042 76.4584Z" fill="#2C2420"/>
<path d="M146.92 95.227C147.835 95.3155 150.538 94.9732 150.532 96.4841C150.532 98.2253 147.829 97.6055 146.306 97.8239C144.884 98.0305 143.385 97.7295 141.927 97.6055C141.384 97.5583 140.575 97.7059 140.505 96.9327C140.434 96.1005 141.195 95.9176 141.868 95.7051C143.296 95.2624 144.748 95.1384 146.92 95.227Z" fill="#2C2420"/>
<path d="M104.379 110.326C105.836 110.427 107.3 110.468 108.746 110.663C109.342 110.739 109.826 111.341 109.756 111.926C109.72 112.215 109.047 112.587 108.628 112.64C105.707 113.012 102.779 113.006 99.8753 112.433C99.4268 112.345 98.8189 112.345 98.8425 111.666C98.872 110.987 99.3559 110.568 99.9757 110.545C101.439 110.486 102.909 110.527 104.373 110.527C104.373 110.462 104.373 110.391 104.379 110.326Z" fill="#2C2420"/>
<path d="M148.98 90.8548C153.1 88.4113 156.299 85.6609 153.95 79.7646C156.299 82.0016 157.539 83.7958 156.411 86.375C155.296 88.9484 152.067 90.9905 148.98 90.8548Z" fill="#2C2420"/>
<path d="M54.7172 102.583C51.8606 103.137 49.2636 101.945 46.5781 101.308C49.3934 101.036 52.0022 102.199 54.7172 102.583Z" fill="#A66866"/>
<path d="M7.28111 74.4463C7.94215 76.2287 8.08378 77.657 5.41602 77.1376C5.87048 76.1225 6.4076 75.1723 7.28111 74.4463Z" fill="#2C2420"/>
<path d="M4.57754 79.2578C5.86421 80.1136 6.30688 81.3589 6.24195 82.8463C4.76642 82.0731 4.08767 80.934 4.57754 79.2578Z" fill="#2C2420"/>
<path d="M8.70234 70.9941C9.22763 71.4486 9.1863 71.8204 8.54297 72.1097C8.59609 71.7378 8.64922 71.366 8.70234 70.9941Z" fill="#2C2420"/>
<path d="M8.56847 72.061C8.6275 72.5863 8.52716 73.0467 8.01367 73.3182C8.19664 72.905 8.37961 72.486 8.56847 72.061Z" fill="#2C2420"/>
<path d="M6.22461 82.8276C6.78531 82.8335 7.23978 82.9929 7.36963 83.6186C6.99189 83.3589 6.60825 83.0932 6.22461 82.8276Z" fill="#2C2420"/>
<path d="M5.33391 77.2559C5.24538 77.5215 5.16275 77.7811 5.07422 78.0467C5.16275 77.787 5.25128 77.5215 5.33391 77.2559Z" fill="#2C2420"/>
<path d="M3.32227 76.2759C3.35768 75.969 3.54655 75.6739 3.80625 75.9277C4.08365 76.1933 3.71772 76.3526 3.48163 76.4589L3.32227 76.2759Z" fill="#2C2420"/>
<path d="M138.764 34.6299C139.017 34.6535 139.277 34.6712 139.531 34.6948C139.383 34.8011 139.236 34.9073 139.094 35.0194C138.97 34.8955 138.858 34.7715 138.764 34.6299Z" fill="#2C2420"/>
<path d="M24.9286 3.94541C24.8519 3.72112 24.6571 3.32569 24.7102 3.29618C25.0348 3.0778 25.1765 3.32568 25.265 3.61489C25.1529 3.72703 25.0407 3.83917 24.9286 3.94541Z" fill="#2C2420"/>
<path d="M122.073 59.3851C124.103 63.4575 122.769 67.7484 122.864 71.9448C122.893 73.1961 122.675 74.4473 122.568 75.6986C120.609 77.782 120.798 80.5324 120.29 83.0644C119.777 85.6319 116.483 88.0872 113.999 87.7803C112.895 87.6445 113.208 86.8182 113.184 86.2339C113.096 83.9025 113.078 81.5653 113.031 79.234C113.066 78.8208 112.895 78.567 112.482 78.4903C109.413 78.4018 106.827 79.9659 106.804 82.8048C106.745 89.0256 102.879 90.4126 97.992 91.0913C97.1243 91.2094 96.2685 91.4219 95.4068 91.5872C94.4094 90.8199 93.5358 90.7018 92.9633 92.0711C92.6092 92.0829 92.2492 92.0948 91.895 92.1007C90.6261 90.4008 92.9574 89.1319 92.4498 87.5206C93.1286 87.0779 93.0578 86.3814 93.0696 85.7086L93.0401 85.7677C93.6893 85.5788 93.6539 85.0476 93.6598 84.5341L93.6362 84.5813C94.3031 84.4043 94.3031 83.8966 94.2559 83.3536L94.2205 83.4009C94.6513 83.4127 94.7753 83.1176 94.852 82.7752L94.8225 82.8166C95.3006 82.5451 95.5071 82.1437 95.4363 81.6007L95.4127 81.6303C95.8258 81.6362 95.9734 81.3765 96.0265 81.0164L96.0029 81.0401C96.2095 80.8335 96.4161 80.6269 96.6227 80.4262L96.5931 80.4557C96.7997 80.2492 97.0063 80.0426 97.2129 79.836L97.1951 79.8714C98.9717 78.868 100.742 77.8587 102.519 76.8554L102.46 76.8849C106.101 76.7138 109.253 74.7365 112.848 73.8512C113.042 75.0316 112.222 76.0763 113.031 77.0974C113.904 76.0763 113.639 74.9726 113.686 73.922C113.81 71.331 113.786 68.7223 114.848 66.2729C117.074 64.4786 118.98 62.4069 120.367 59.8926C120.786 59.0899 121.211 58.5765 122.073 59.3851Z" fill="#A66866"/>
<path d="M48.2844 68.1955C47.8831 67.4518 47.1099 67.2216 46.437 66.8439C46.319 65.4864 46.2128 64.1289 46.0829 62.7773C45.4514 56.0312 45.2861 49.3618 49.5003 43.4714L49.577 43.4242C53.3957 42.167 56.4648 40.1485 57.2852 35.8458C60.8914 29.0171 66.3745 25.3636 72.0583 25.9184C70.9132 26.4437 69.6325 26.9218 68.4638 27.5888C62.603 30.953 62.6384 35.7219 68.4402 39.2337C69.7328 40.0187 71.3677 40.2371 72.3356 41.5532C71.1788 41.3998 70.0161 41.2404 68.8593 41.0869C62.4023 40.2488 56.4648 40.9453 52.2802 46.7589L52.2861 46.753C51.991 47.1543 51.7017 47.5498 51.4066 47.9511C51.1233 48.5473 50.84 49.1434 50.5626 49.7395C48.3965 52.726 49.3173 56.0902 49.4412 59.3423C49.4708 60.0978 50.1318 61.048 49.5357 61.5792C47.0804 63.7925 48.8392 65.7343 49.9311 67.5286C51.7667 70.5446 53.9741 73.3067 57.0314 75.2426C57.2734 75.7915 57.6629 76.1457 58.2826 76.1988C60.0946 76.8952 61.1157 79.87 63.7775 78.0934C63.9074 78.2882 64.1435 78.4889 64.1435 78.6836C64.1435 80.106 65.6898 80.3244 66.2624 81.4281C62.845 81.1861 64.1907 83.3817 64.3559 84.9812C63.7834 85.0874 63.2641 85.0343 62.904 84.4972C62.8155 81.1389 60.7084 79.4332 58.0053 77.8573C54.2987 75.703 51.0761 72.8759 48.7507 69.1635L48.7802 69.2107C48.6268 68.886 48.4556 68.5437 48.2844 68.1955Z" fill="#2C2420"/>
<path d="M141.856 62.5774C142.865 64.23 142.658 66.1836 143.184 67.9601C143.479 68.9517 142.995 69.6364 142.05 70.0495C140.533 70.7106 139.087 71.584 137.34 71.4955C137.494 68.3025 140.97 69.9964 142.098 68.2552C140.675 67.3109 139.176 69.1229 137.948 68.3202C137.034 67.7181 137.258 67.665 136.331 68.509C134.561 70.1085 137.494 70.4981 136.656 71.5191C136.626 72.5933 136.668 73.6793 136.55 74.7476C135.924 80.4019 137.051 80.1126 130.482 80.9449C130.405 77.5983 130.329 74.2459 130.252 70.8994C131.161 67.9129 130.671 64.7848 130.943 61.149C131.722 62.9846 130.937 64.3952 131.869 65.9711C132.117 62.3059 132.335 59.0184 132.554 55.725C133.858 54.0311 135.818 53.1516 137.423 51.8354C139.206 55.418 138.598 59.3135 138.846 63.1203C139.955 63.1971 140.705 61.7157 141.856 62.5774Z" fill="#A66866"/>
<path d="M49.5057 43.4718C45.2915 49.3621 45.4568 56.0256 46.0883 62.7776C46.2123 64.1351 46.3244 65.4867 46.4425 66.8442C45.4509 66.8678 44.4534 66.8914 43.4619 66.9091C43.273 66.8796 43.0782 66.8501 42.8894 66.8206C40.2865 65.6166 38.2975 63.6807 36.5505 61.4615C36.6567 56.5686 36.1963 51.6639 36.8456 46.7769C36.9341 46.1159 36.7511 45.3722 37.4771 44.9355C38.4864 46.1867 38.15 47.68 38.2621 49.0965C38.2857 49.4211 37.9788 50.3773 38.6162 50.0527C40.983 48.8486 41.2368 51.0678 42.246 52.0712C42.4467 52.0889 42.6533 52.1066 42.8539 52.1243C42.8539 53.0805 42.8539 54.0366 42.8539 54.9868C43.3792 53.9717 43.8101 52.9447 42.9071 52.0771C42.6415 50.696 43.5858 49.0375 41.9627 47.9633C41.585 47.1665 43.2435 46.5172 42.3582 45.9506C40.0386 44.4751 40.3574 42.008 39.7317 39.8891C39.8439 39.777 39.956 39.6649 40.0622 39.5527C43.3438 40.5325 45.9172 43.2239 49.5057 43.4718ZM44.0462 57.4363C43.9754 57.2415 43.8868 56.9995 43.7983 56.7575C43.7039 56.9641 43.5268 57.1706 43.5268 57.3772C43.5268 57.5778 43.7039 57.7785 43.8042 57.9733C43.8809 57.8198 43.9518 57.6605 44.0462 57.4363Z" fill="#A66866"/>
<path d="M64.3679 84.9933C64.2026 83.3938 62.8569 81.1982 66.2742 81.4402C65.7017 80.3365 64.1554 80.1181 64.1554 78.6957C64.1554 78.5009 63.9193 78.3002 63.7895 78.1054C61.1276 79.882 60.1006 76.9073 58.2946 76.2109C58.1942 73.4369 57.9877 70.6451 59.1386 68.001C60.4725 70.0372 61.7296 72.1266 63.1638 74.0861C64.3797 75.7446 65.8965 77.6392 68.0508 77.3795C72.8256 76.8011 77.8366 76.7067 81.8264 73.3365C81.6907 73.9976 81.4368 74.6586 81.4368 75.3196C81.4368 78.2412 79.4597 80.9857 80.6932 84.0076C80.1915 86.2504 78.4858 86.7757 76.5204 86.9292C76.184 86.7049 75.8475 86.4747 75.5111 86.2504C75.4816 85.4536 74.8678 84.5565 75.9006 83.9368C77.0752 84.0784 78.0785 83.7184 79.6013 82.6679C77.8956 82.7741 76.8627 82.839 75.8298 82.898C74.3307 81.5818 75.5229 79.4571 74.2421 77.5625C74.1418 79.5574 74.0592 81.086 73.9824 82.6147C72.1587 81.9832 70.329 81.3517 68.3695 82.054C68.098 81.7943 67.6731 81.4461 67.4606 81.812C67.1891 82.2783 67.8265 82.2429 68.0921 82.4022C69.786 83.6889 71.9639 83.3761 73.8172 84.1257C73.8821 84.8339 73.9471 85.5363 74.012 86.2445C70.7953 85.8255 67.5786 85.4123 64.3679 84.9933ZM69.7565 80.0591C69.8391 79.8938 69.9749 79.7403 69.9808 79.5869C69.9867 79.4334 69.8568 79.28 69.786 79.1266C69.6739 79.3095 69.5145 79.4748 69.4732 79.6695C69.4555 79.7758 69.6444 79.9174 69.7565 80.0591Z" fill="#A66866"/>
<path d="M86.9128 92.7542C84.7526 94.7786 82.1203 93.6454 79.6945 93.7634C78.8092 93.8047 78.8269 92.8604 78.8092 92.1875C78.7678 90.8241 78.756 89.4549 78.7324 88.0915C80.7096 87.2297 82.9879 86.5274 83.6253 84.2373C84.0148 82.8267 84.5106 81.5696 85.3192 80.395C86.1809 81.304 86.6177 80.3833 87.1725 79.9701C88.4473 79.014 89.5156 77.7391 91.1918 77.4204C91.2391 77.6565 91.2922 77.8985 91.3394 78.1345C89.2736 82.8267 87.4322 87.5898 86.9128 92.7542Z" fill="#A66866"/>
<path d="M48.7685 69.1816C51.0881 72.8882 54.3107 75.7153 58.0231 77.8755C60.7263 79.4455 62.8333 81.1512 62.9219 84.5154C62.5264 84.5626 62.131 84.6099 61.7355 84.6571C60.5728 84.3856 59.416 84.1141 58.2533 83.8485C57.9464 83.4413 57.5214 83.3468 57.0434 83.394C56.8427 83.3645 56.642 83.335 56.4413 83.3055L56.2997 83.2347L56.1462 83.2819C55.615 82.7035 54.9422 82.5559 54.1926 82.6326L54.11 82.7684C54.11 82.7684 54.1808 82.6267 54.1749 82.6267C53.9329 82.1133 53.4785 82.0542 52.9886 82.0542L52.9945 82.0837C52.5931 81.8476 52.1977 81.6116 51.7963 81.3814C50.6454 80.7145 50.0139 79.8055 49.8368 78.3949C49.4532 75.3258 48.6682 72.3039 48.7685 69.1816Z" fill="#A66866"/>
<path d="M31.0901 70.9701C31.4973 73.992 30.1103 75.0366 27.2124 74.6471C25.666 74.4405 24.0901 74.4996 22.5261 74.4346C22.2428 74.051 21.9654 73.6674 21.6821 73.2778C21.6821 73.2778 21.7057 73.2778 21.7057 73.2837C21.505 71.3478 21.322 69.4119 21.1096 67.476C20.962 66.1362 21.1981 65.2982 22.8094 65.9828C23.8482 67.1455 25.2824 67.5291 26.7048 67.6413C29.4139 67.8478 30.37 69.1935 29.8978 71.7787C29.8506 72.0443 29.6618 72.546 30.2166 72.6817C30.5117 72.1033 30.8009 71.5367 31.0901 70.9701Z" fill="#A66866"/>
<path d="M141.856 62.5775C140.705 61.7157 139.961 63.2031 138.857 63.1146C138.609 59.3136 139.211 55.4123 137.435 51.8297C135.281 43.1476 134.921 42.758 126.292 41.4537C124.326 41.1586 124.373 39.866 124.332 38.479C125.176 38.9748 125.701 39.6417 127.082 39.4292C132.034 38.6797 135.275 40.8103 137.039 45.4376C138.084 48.1821 138.698 51.0329 139.087 53.9426C139.229 54.9755 139.341 56.0851 140.179 56.8878L140.168 56.8701C140.274 57.8557 140.622 58.7292 141.348 59.4316C141.513 60.4763 141.684 61.5269 141.856 62.5775Z" fill="#F8EFDD"/>
<path d="M31.0899 70.9697C30.8007 71.5364 30.5115 72.103 30.2105 72.6814C29.6498 72.5456 29.8387 72.0439 29.8918 71.7783C30.364 69.1932 29.4078 67.8475 26.6987 67.6409C25.2763 67.5288 23.8421 67.1452 22.8033 65.9825C22.4256 64.3535 20.7671 64.0997 19.7578 63.1553C19.7991 62.0044 19.8405 60.8476 19.8818 59.6967C20.2831 60.2928 20.6786 60.8889 21.0799 61.485C21.375 61.9867 21.6406 62.512 21.977 62.9841C23.1515 64.6485 24.8455 66.2067 26.7165 66.0119C28.4104 65.8349 27.8084 63.3973 28.4104 62.028C28.5638 61.6798 28.5756 61.2666 28.6464 60.883C29.821 59.6613 30.9896 58.4336 31.6211 56.8164C31.81 56.8105 31.993 56.8223 32.1759 56.8518C31.7156 61.5499 32.0933 66.3189 31.0899 70.9697Z" fill="#68544B"/>
<path d="M85.3196 80.3907C84.511 81.5652 84.0152 82.8224 83.6257 84.233C82.9883 86.523 80.716 87.2313 78.7328 88.0871C77.7531 88.152 76.9445 87.8982 76.5195 86.9126C78.4849 86.7591 80.1907 86.2339 80.6923 83.9911C81.1586 83.9379 81.619 83.873 81.7901 83.3241C84.3458 79.3992 85.9807 75.067 87.4031 70.6404C88.1172 69.7728 88.8255 68.9111 89.5397 68.0435C90.0413 68.2323 90.543 68.4212 91.0506 68.61C88.3474 72.1631 87.0194 76.3654 85.3196 80.3907Z" fill="#2C2420"/>
<path d="M92.4427 87.5192C92.9502 89.1305 90.6189 90.3994 91.8878 92.0993C91.1914 92.2586 90.5304 92.2822 90.0464 91.6271C89.828 87.0175 90.6189 82.6381 93.0624 78.6483C94.0834 78.5243 95.1045 78.3945 96.1256 78.2705C96.8988 78.5243 97.2824 79.0319 97.1703 79.8641L97.188 79.8287C96.9814 80.0353 96.7748 80.2419 96.5682 80.4484L96.5977 80.4189C96.3912 80.6255 96.1846 80.8321 95.978 81.0327L96.0016 81.0091C95.795 81.2157 95.5944 81.4164 95.3878 81.623L95.4114 81.5934C94.9038 81.8472 94.833 82.3194 94.7976 82.8093L94.8271 82.7679C94.6146 82.9804 94.408 83.187 94.1956 83.3936L94.231 83.3463C94.0244 83.7536 93.8178 84.1609 93.6113 84.5681L93.6349 84.5209C93.4283 84.934 93.2217 85.3413 93.0151 85.7485L93.0447 85.6895C92.5076 86.1971 92.5017 86.8641 92.4427 87.5192Z" fill="#68544B"/>
<path d="M15.4911 68.6321C15.6918 66.7789 15.6682 64.9433 15.3613 63.0959C15.2196 62.2342 14.6412 61.16 15.857 60.5049C15.9455 60.6288 16.0282 60.7528 16.1108 60.8826C16.3823 61.3017 16.6597 61.7207 16.9312 62.1398L16.9017 62.1043C17.1083 62.3109 17.3148 62.5175 17.5214 62.7182L17.4978 62.6946C17.7044 62.9011 17.911 63.1018 18.1116 63.3084L18.0939 63.2789C19.6403 66.224 17.728 69.2165 18.2238 72.1734C17.7988 72.9466 17.0788 72.7341 16.4177 72.7105C16.1993 72.5157 15.9751 72.3209 15.7567 72.1203L15.7803 72.1262C15.7331 71.7543 15.6859 71.3766 15.6386 71.0048C15.5914 70.2139 15.5442 69.423 15.4911 68.6321Z" fill="#68544B"/>
<path d="M93.064 78.6485C90.6205 82.6383 89.8297 87.0177 90.048 91.6273C88.7791 91.3853 87.8525 92.0759 86.9199 92.7546C87.4393 87.5902 89.2808 82.8272 91.3406 78.1232C92.0371 77.8871 92.7394 77.6569 93.4359 77.4268C93.3119 77.834 93.188 78.2412 93.064 78.6485Z" fill="#2C2420"/>
<path d="M18.2295 72.1679C17.7337 69.2109 19.646 66.2185 18.0996 63.2733C18.6544 63.232 19.2092 63.1966 19.764 63.1553C20.7733 64.1055 22.4318 64.3534 22.8095 65.9883C21.2042 65.3037 20.9622 66.1417 21.1097 67.4815C21.3281 69.4174 21.5111 71.3534 21.7058 73.2893C20.4605 73.1771 19.6519 71.7193 18.2295 72.1679Z" fill="#2C2420"/>
<path d="M130.265 70.8882C130.342 74.2347 130.419 77.5871 130.495 80.9336C128.801 79.464 129.828 77.5222 129.669 75.8106C129.486 73.8569 130.2 71.3545 126.665 72.47C126.547 72.5054 126.234 71.927 126.016 71.6378L126.086 71.5669C127.314 71.6673 128.495 71.5315 129.581 70.9059C129.805 70.9 130.035 70.8941 130.265 70.8882Z" fill="#2C2420"/>
<path d="M74.0092 86.2436C73.9443 85.5353 73.8794 84.833 73.8145 84.1248C73.8676 83.6172 73.9266 83.1154 73.9797 82.6079C74.0564 81.0792 74.1391 79.5506 74.2394 77.5557C75.5202 79.4503 74.3279 81.5809 75.8271 82.8912C75.8507 83.2394 75.8743 83.5817 75.892 83.9299C74.865 84.5497 75.4788 85.4468 75.5025 86.2436C75.0067 86.2377 74.505 86.2436 74.0092 86.2436Z" fill="#2C2420"/>
<path d="M136.662 71.5069C137.495 70.4858 134.567 70.0963 136.338 68.4968C137.264 67.6587 137.04 67.7118 137.955 68.3079C139.183 69.1106 140.682 67.2986 142.104 68.243C140.971 69.9841 137.5 68.2902 137.347 71.4832C137.117 71.495 136.893 71.501 136.662 71.5069Z" fill="#68544B"/>
<path d="M58.2461 83.8423C59.4088 84.1138 60.5656 84.3853 61.7284 84.6509C60.2823 85.6188 59.1963 85.0168 58.2461 83.8423Z" fill="#2C2420"/>
<path d="M92.957 92.0692C93.5295 90.694 94.4031 90.818 95.4005 91.5853C94.6451 92.0397 93.8542 92.3289 92.957 92.0692Z" fill="#68544B"/>
<path d="M141.343 59.4254C140.617 58.723 140.274 57.8494 140.162 56.8638C141.897 57.0999 141.289 58.4161 141.343 59.4254Z" fill="#2C2420"/>
<path d="M54.1797 82.6277C54.9293 82.5451 55.6021 82.6985 56.1333 83.2769C55.4014 83.3123 54.5928 83.578 54.1797 82.6277Z" fill="#2C2420"/>
<path d="M48.2832 68.1968C48.4544 68.5391 48.6255 68.8873 48.7967 69.2297C48.2596 69.0703 48.3658 68.5863 48.2832 68.1968Z" fill="#A66866"/>
<path d="M15.6447 71.0059C15.6919 71.3777 15.7391 71.7554 15.7863 72.1272C15.1902 71.8203 15.143 71.4485 15.6447 71.0059Z" fill="#2C2420"/>
<path d="M21.6827 73.2847C21.966 73.6683 22.2434 74.0519 22.5267 74.4415C21.8598 74.3352 21.665 73.8867 21.6827 73.2847Z" fill="#2C2420"/>
<path d="M51.791 81.375C52.1924 81.6111 52.5878 81.8472 52.9892 82.0774C52.4049 82.16 51.9504 82.0183 51.791 81.375Z" fill="#2C2420"/>
<path d="M52.9824 82.0479C53.4723 82.0479 53.9268 82.1069 54.1688 82.6203C53.6199 82.7561 53.1772 82.6617 52.9824 82.0479Z" fill="#2C2420"/>
<path d="M56.4355 83.3003C56.6362 83.3298 56.8369 83.3593 57.0376 83.3888C56.772 83.7902 56.589 83.6721 56.4355 83.3003Z" fill="#2C2420"/>
<path d="M112.48 78.4961C112.9 78.5669 113.065 78.8266 113.029 79.2398C112.846 78.986 112.663 78.7381 112.48 78.4961Z" fill="#2C2420"/>
<path d="M15.7637 72.1216C15.9821 72.3164 16.2004 72.5111 16.4247 72.7118C16.2063 72.5111 15.9821 72.3164 15.7637 72.1216Z" fill="#2C2420"/>
<path d="M42.877 66.8271C43.0658 66.8567 43.2606 66.8862 43.4494 66.9157C43.2134 67.2049 43.0304 67.1341 42.877 66.8271Z" fill="#2C2420"/>
<path d="M93.0641 78.6491C93.188 78.2419 93.312 77.8347 93.4359 77.4274C94.3271 75.8869 96.8296 74.8009 94.9233 72.1272C93.5599 74.0572 92.3735 75.7335 91.1872 77.4156C89.511 77.7343 88.4427 79.0091 87.1678 79.9653C86.613 80.3784 86.1763 81.3051 85.3145 80.3902C87.0144 76.365 88.3483 72.1568 91.0455 68.6214C92.5093 67.2049 93.9376 65.753 95.8027 64.8145C96.3693 64.5312 97.6382 64.3423 96.9654 63.274C96.5227 62.5717 95.4958 62.7901 94.8406 63.1914C92.7572 64.4545 90.7859 65.8651 89.5405 68.0548C88.8263 68.9224 88.1181 69.7841 87.4039 70.6517C86.1704 70.7343 85.1198 71.2714 84.1578 71.9974C83.8626 72.1627 83.4908 72.263 83.5675 72.7233L83.5085 72.6762C82.8061 72.5227 82.3104 72.9122 81.8323 73.3254C77.8425 76.6955 72.8315 76.7899 68.0567 77.3683C65.9024 77.628 64.3856 75.7335 63.1697 74.075C61.7296 72.1154 60.4784 70.0261 59.1445 67.9898C58.2769 66.6028 58.1175 64.7614 56.4826 63.8701L56.4767 63.8938C56.5947 63.2799 56.2878 62.8432 55.8747 62.4537C54.104 58.2159 52.3393 53.9841 50.5686 49.7463C50.8519 49.1502 51.1352 48.5541 51.4126 47.958C51.8789 47.6865 52.233 47.3323 52.2921 46.7598L52.2862 46.7657C53.4135 46.4765 54.7533 46.4766 55.6268 45.8391C57.3679 44.5761 59.0205 43.4192 61.2338 42.9884C65.265 42.1975 69.3374 42.9116 73.3981 42.4749C73.0086 42.1384 72.6722 41.8493 72.3357 41.5601C71.3678 40.2439 69.7329 40.0255 68.4403 39.2405C62.6326 35.7228 62.5972 30.9598 68.4639 27.5956C69.6326 26.9227 70.9133 26.4506 72.0584 25.9253C66.3746 25.3764 60.8974 29.0298 57.2853 35.8527C54.0037 37.6823 50.6395 39.2228 45.9296 38.5441C48.0071 40.1258 50.8579 40.5154 49.5771 43.431C49.5771 43.431 49.4945 43.4724 49.5004 43.4783C45.9119 43.2304 43.3385 40.539 40.051 39.571C39.9094 39.4766 39.691 39.2582 39.632 39.2995C39.2602 39.5297 39.5198 39.7245 39.7205 39.9074C40.3461 42.0263 40.0274 44.4934 42.347 45.969C43.2323 46.5297 41.5738 47.1848 41.9515 47.9816C42.046 49.3509 42.1345 50.7202 42.2289 52.0895C41.2196 51.0861 40.9659 48.8669 38.5991 50.0709C37.9617 50.3955 38.2745 49.4394 38.245 49.1148C38.1269 47.6924 38.4693 46.1992 37.46 44.9538C37.2888 44.5052 36.9819 44.0626 36.9701 43.6081C36.8521 38.8569 35.1464 34.7077 32.2838 30.9893C32.0595 29.5787 32.1303 28.0205 30.4541 27.3359C30.2358 27.0231 30.0823 26.5332 29.7931 26.4329C29.0966 26.1909 29.4508 26.8165 29.4154 27.0703C29.321 27.749 29.5984 28.5812 28.6068 28.9826C27.4264 27.7608 28.7661 25.7187 27.0781 24.8275C27.6506 21.0501 28.0579 17.2374 29.2973 13.5957C29.9525 11.6598 30.6902 9.77114 32.3487 8.42545C33.5705 8.51988 34.6683 8.0713 35.7071 7.55191C41.9515 4.47099 48.6859 4.40607 55.4143 4.24081C56.4118 4.21721 56.943 4.45329 56.5062 5.56289C56.5298 5.76946 56.5534 5.97603 56.577 6.18261C55.6799 6.4364 55.0602 7.02072 54.6175 7.81751C54.8595 8.98613 52.2035 8.9153 53.4843 10.5738C55.0366 12.5746 59.4277 13.4482 61.9184 12.1792C64.722 12.374 67.4665 12.2441 69.9985 10.8099C70.2051 10.5974 70.4058 10.3849 70.6123 10.1784L70.5179 10.202C72.6131 8.39594 74.13 9.30484 75.5288 11.1994C76.8096 12.9288 77.5178 14.6994 76.5263 16.8006C76.5263 16.8006 76.5617 16.7002 76.5676 16.7002C76.1131 17.1724 76.1485 17.68 76.4613 18.2053C76.6207 18.0046 76.7801 17.8099 76.9394 17.6092C78.7219 16.9304 80.5633 17.32 82.3812 17.3023C84.6299 17.2786 84.4764 19.4742 85.3913 20.6842C84.5945 22.1892 83.5144 20.8967 82.5701 20.9734C82.0212 21.0206 81.3011 20.7255 81.0296 21.3983C80.764 22.0653 81.3955 22.4548 81.8441 22.7736C82.3104 23.11 82.8415 23.4346 83.3904 23.5644C89.1509 24.9337 90.7858 29.26 91.2521 34.4421L91.2639 34.4185C91.0632 34.7313 90.8567 35.0441 90.656 35.351C87.9174 40.2439 83.0186 40.9049 77.4057 41.7844C83.7269 42.8999 88.5902 41.5955 92.8339 37.8771C96.387 34.7667 98.8305 35.534 99.6391 40.0845C100.023 42.2683 101.392 43.3661 103.322 43.7793C106.486 44.4521 109.69 44.9184 112.872 45.4968C113.834 45.6738 114.802 45.8509 115.728 46.1461C122.333 48.259 123.814 51.2514 122.055 59.4081C121.2 58.5996 120.769 59.1071 120.332 59.9039C118.945 62.4182 117.039 64.4899 114.813 66.2842C115.008 63.4806 115.061 60.6594 115.433 57.8795C115.77 55.3534 114.902 54.4975 112.476 55.0818C112.394 54.9343 112.317 54.7926 112.234 54.6451C112.152 54.7395 112.063 54.8339 111.98 54.9343C112.157 54.9697 112.335 55.0051 112.512 55.0406C114.66 56.6813 113.426 58.9182 113.55 60.9132C112.518 59.5793 111.089 59.0304 109.472 58.8533C106.285 58.2926 103.08 56.823 99.9578 59.0776C99.7748 59.2665 99.4856 59.4554 99.8752 59.6914C99.9401 59.7328 100.153 59.5144 100.3 59.42C103.363 58.6173 106.379 58.0861 108.876 60.7951C105.783 61.2378 102.708 61.9165 99.5505 61.5978C99.4915 61.344 99.4266 61.0844 99.3675 60.8306C99.2672 60.8955 99.1728 60.9663 99.0724 61.0312C99.2377 61.2201 99.3971 61.409 99.5623 61.5978C99.102 62.5304 97.5556 62.2353 97.3018 63.7521C101.616 62.7724 105.801 61.7454 110.139 62.188C111.024 62.8963 112.069 63.4393 112.618 64.5135C113.574 70.2504 112.346 73.3903 107.631 74.6711C105.854 75.1492 103.841 75.462 102.413 76.908L102.472 76.8785C100.188 76.6365 98.258 77.9645 96.1037 78.3009C95.1062 78.3953 94.0851 78.5252 93.0641 78.6491ZM67.4783 53.4765C67.7439 53.807 68.2692 53.99 68.4049 53.6654C68.6115 53.1755 67.9859 53.3407 67.7203 53.2109C65.4715 51.6527 63.2229 50.0827 60.6613 49.0499C60.4666 48.9554 60.2718 48.861 60.077 48.7666C60.1478 48.979 60.2186 49.1915 60.2954 49.404C62.1309 51.7412 64.8046 52.6148 67.4783 53.4765ZM60.5964 62.7252C59.1622 60.6299 57.7279 58.5405 56.2937 56.4453C56.0753 59.1366 57.4151 60.984 59.0028 62.7074C61.6824 65.9123 64.3797 69.0994 69.2312 68.822C66.1267 67.0927 62.9985 65.4047 60.5964 62.7252ZM106.037 63.9764C106.609 67.3288 105.258 68.9991 103.204 70.3153C102.649 70.6694 102.088 71.1475 101.758 71.7023C101.091 72.8414 101.616 73.8094 102.826 73.7386C105.228 73.5969 106.934 72.3929 107.849 69.973C108.687 67.7538 108.079 66.1543 106.037 63.9764ZM103.965 48.802C99.8338 49.5634 96.8414 52.3491 93.6484 54.7926C97.7504 54.0076 101.351 52.3079 103.965 48.802ZM48.1783 21.4633C45.664 20.6783 43.1555 19.8874 40.6412 19.1024C42.7601 21.1622 45.3571 21.7466 48.1783 21.4633ZM47.9894 23.8832C50.3208 25.2938 52.1327 25.3705 54.4818 23.8832C52.1268 23.8832 50.3208 23.8832 47.9894 23.8832ZM92.6037 55.3179L92.8044 55.436L92.828 55.2589L92.6037 55.3179ZM45.6935 38.249L45.4987 38.1427L45.481 38.308L45.6935 38.249ZM44.3655 37.7532L44.4776 37.6056L44.2888 37.5879L44.3655 37.7532ZM39.6733 18.5712C39.6025 18.6303 39.5375 18.6893 39.4667 18.7424C39.5316 18.8073 39.5907 18.9194 39.6615 18.9194C39.7264 18.9194 39.7972 18.8191 39.8681 18.7601C39.8031 18.6952 39.7382 18.6303 39.6733 18.5712Z" fill="#F0E6E5"/>
<path d="M21.0849 61.4871C20.6836 60.891 20.2882 60.2948 19.8868 59.6987V59.7577C19.9045 59.197 19.816 58.6717 19.2966 58.3353C19.0546 57.4323 19.7216 55.6321 17.526 56.724C16.924 57.025 16.0386 56.7476 15.2832 56.7417C10.6618 51.359 10.5024 49.0571 14.4509 43.2789C15.3304 41.9922 16.3219 40.7764 17.3253 39.5783C19.5976 36.8692 25.606 35.7773 28.6751 37.5125C29.525 37.9906 30.3336 38.569 30.5284 39.6491C30.4162 39.7495 30.31 39.8498 30.2038 39.956C24.8328 39.8911 22.0234 40.8827 17.4906 44.4948C18.3936 45.6221 19.4678 45.4037 20.5361 44.9256C21.3328 44.5656 22.0647 44.0639 22.8556 43.698C28.2088 41.2191 32.0216 43.5445 32.24 49.488C32.299 51.1406 32.0394 52.805 31.9213 54.4635C31.8623 54.8767 31.8033 55.2898 31.7383 55.697C31.697 56.0689 31.6557 56.4466 31.6085 56.8185C30.9769 58.4356 29.8083 59.6633 28.6338 60.885C26.149 61.3631 23.5579 60.6844 21.0849 61.4871Z" fill="#E3A09B"/>
<path d="M124.333 38.4729C124.374 39.8599 124.327 41.1524 126.292 41.4475C134.921 42.7519 135.281 43.1415 137.436 51.8236C135.83 53.1397 133.871 54.0191 132.566 55.713C130.123 57.1945 130.324 59.6911 130.123 62.0342C129.35 60.0983 128.222 60.2282 127.066 61.6152C126.428 62.3825 125.808 63.073 124.846 63.3858C123.808 61.0663 124.121 58.5579 124.457 56.2561C124.711 54.4913 125.206 52.6852 125.531 50.8792C125.862 49.0613 126.263 47.2553 126.7 45.1423C124.15 47.1903 123.949 44.5757 122.792 43.5841C121.872 44.5462 122.71 45.1777 123.271 45.9332C123.672 46.4703 123.949 47.1962 123.341 47.7923C122.863 48.2645 122.19 48.1406 121.695 47.8514C117.929 45.6381 113.591 45.101 109.583 43.6314C107.748 42.9585 105.546 42.3624 105.34 39.7595C106.054 39.2342 105.983 38.4847 105.906 37.7351C105.906 37.7351 105.924 37.9358 105.924 37.9299C106.414 37.6348 106.202 37.3278 105.942 37.0209L105.918 37.0387C108.462 35.8936 110.994 35.5572 113.88 35.8936C117.534 36.3186 120.739 38.2132 124.362 38.5083L124.333 38.4729Z" fill="#F0E6E5"/>
<path d="M130.855 33.8761C130.742 34.6021 129.963 35.5759 129.739 35.3221C128.163 33.5279 126.192 34.9149 124.468 34.4958C121.541 33.7876 119.599 32.4891 120.29 28.694C118.501 30.3171 117.067 31.8458 115.503 29.2665C114.405 30.1105 113.408 30.14 112.546 28.9242C110.238 30.6063 109.979 27.8854 108.851 27.0532C106.75 30.9841 103.663 31.1906 100.588 27.4309C100.441 32.1704 98.0564 30.022 96.0615 29.1544L95.9375 29.054C96.1854 27.8441 96.4333 26.6401 96.6812 25.4301C97.3422 25.2767 98.1508 24.7986 98.6466 25.017C101.863 26.463 102.453 24.0845 103.268 21.9302C103.799 23.4529 103.852 23.447 104.431 23.5474C107.494 24.0963 107.754 21.4403 108.822 19.3037C109.17 24.7042 109.737 25.1586 114.228 26.162C116.188 26.6047 117.64 25.9259 119.21 25.2294C119.705 25.0052 120.189 24.1907 120.691 24.7455C122.786 27.0591 124.356 25.0642 126.074 24.2084C127.042 25.7075 126.788 28.0271 129.054 28.6468C128.063 30.9368 130.837 31.9343 130.855 33.8761ZM120.579 27.5254C121.004 27.3896 121.24 27.0886 121.181 26.646C121.128 26.2328 120.85 25.9082 120.414 25.9495C119.971 25.9967 119.735 26.3509 119.812 26.7935C119.877 27.2008 120.13 27.4841 120.579 27.5254ZM118.342 27.5844C118.254 27.726 118.159 27.8618 118.094 28.0094C118.082 28.0389 118.248 28.1923 118.283 28.1746C118.425 28.1097 118.555 28.0034 118.684 27.9149C118.572 27.8087 118.46 27.6965 118.342 27.5844Z" fill="#68544B"/>
<path d="M126.074 24.2074C124.357 25.0691 122.787 27.0581 120.692 24.7444C120.19 24.1896 119.706 25.01 119.21 25.2284C117.64 25.9249 116.188 26.6036 114.229 26.161C109.737 25.1517 109.171 24.6972 108.822 19.3027C107.754 21.4393 107.494 24.0952 104.431 23.5463C103.853 23.446 103.806 23.4519 103.268 21.9291C102.46 24.0834 101.864 26.462 98.6471 25.016C98.1513 24.7917 97.3486 25.2757 96.6816 25.4291C97.4194 22.8027 97.1479 19.4325 101.344 19.4266C102.548 19.4266 102.389 17.9334 103.097 17.3314C104.219 17.0008 105.193 17.5557 106.231 17.7976C108.675 18.3702 111.16 19.1905 113.438 17.1543C113.644 17.9983 113.674 18.7302 113.999 19.2909C114.583 20.2883 115.22 21.4806 116.666 21.1737C118.047 20.8785 118.443 19.7807 118.39 18.4705C118.372 18.0809 118.384 17.6855 118.378 17.29L118.419 17.2487C121.24 18.075 123.436 20.0464 125.962 21.4157C125.992 21.8288 126.027 22.2419 126.057 22.6551C126.068 23.1745 126.074 23.6939 126.074 24.2074Z" fill="#A66866"/>
<path d="M118.39 17.2962C118.39 17.6916 118.384 18.0811 118.402 18.4766C118.455 19.7869 118.059 20.8847 116.678 21.1798C115.232 21.4867 114.589 20.2945 114.011 19.297C113.686 18.7363 113.657 18.0044 113.45 17.1604C111.172 19.2026 108.687 18.3762 106.243 17.8037C105.205 17.5617 104.231 17.007 103.109 17.3375C103.304 15.8856 104.095 14.1621 105.317 14.2094C110.05 14.3923 111.496 7.78192 116.554 9.00957C118.006 9.3637 120.167 9.28105 118.473 11.8013C118.077 12.3856 118.449 12.2616 118.833 12.362C119.765 12.604 120.668 12.9463 121.577 13.2591C126.458 14.9235 127.09 16.098 125.968 21.4277C123.442 20.0584 121.253 18.0871 118.425 17.2607C118.225 17.0719 118.024 16.8771 117.823 16.6883C117.735 16.641 117.652 16.5997 117.564 16.5525C117.646 16.6056 117.723 16.6528 117.806 16.7059C118 16.8948 118.195 17.0955 118.39 17.2962Z" fill="#EDBF70"/>
<path d="M56.5227 5.53935C56.9595 4.43565 56.4282 4.19367 55.4308 4.22318C48.7023 4.39435 41.968 4.45336 35.7236 7.53428C34.6789 8.04776 33.5811 8.50222 32.3652 8.40778C33.0853 5.78723 35.334 5.00815 37.5296 4.3176C46.43 1.53179 55.5725 1.34883 64.6381 2.77715C69.6018 3.56214 74.0402 6.21218 77.1152 10.4322C78.638 12.5216 79.3522 14.8942 76.5428 16.7711C77.5284 14.664 76.8261 12.8934 75.5453 11.17C74.1465 9.28129 72.6296 8.36646 70.5344 10.1725C71.3489 7.912 70.3986 6.60172 68.2562 5.92887C67.8076 5.26193 67.2056 5.13801 66.4855 5.43311L66.5209 5.45671C66.4383 4.595 65.8009 4.86651 65.2992 4.84881L65.3405 4.87831C62.897 3.81002 60.4653 3.83363 58.0396 4.94913C57.8802 4.93733 57.7858 4.99636 57.7444 5.13801C57.3372 5.27376 56.9299 5.4095 56.5227 5.53935Z" fill="#F8EFDD"/>
<path d="M124.84 63.3913C125.808 63.0785 126.428 62.3879 127.059 61.6206C128.21 60.2336 129.343 60.0979 130.116 62.0397C129.933 64.9966 129.756 67.9536 129.573 70.9047C128.487 71.5362 127.307 71.6661 126.079 71.5657C125.377 68.8862 124.958 66.1653 124.84 63.3913Z" fill="#A66866"/>
<path d="M124.362 38.5138C120.733 38.2187 117.534 36.3241 113.88 35.8991C110.994 35.5627 108.462 35.8992 105.918 37.0442C105.818 34.8014 107.547 34.2761 109.141 33.8098C115.226 32.0156 120.066 34.4236 124.362 38.5138Z" fill="#F8EFDD"/>
<path d="M91.2684 34.418C90.8021 29.236 89.1731 24.9097 83.4067 23.5404C82.8578 23.4106 82.3266 23.0859 81.8604 22.7495C81.4059 22.4249 80.7803 22.0413 81.0459 21.3743C81.3174 20.6956 82.0374 20.9907 82.5863 20.9494C83.5307 20.8726 84.6108 22.1652 85.4076 20.6602C90.5424 23.9122 93.0213 29.7376 91.2684 34.418Z" fill="#F8EFDD"/>
<path d="M27.0896 24.8091C28.7776 25.7003 27.4437 27.7424 28.6182 28.9642C29.6039 28.5569 29.3324 27.7306 29.4268 27.0519C29.4622 26.7981 29.1081 26.1725 29.8045 26.4144C30.0937 26.5148 30.2472 27.0047 30.4656 27.3175C30.4184 29.879 31.404 32.2576 31.7641 34.7483C27.5558 34.6774 26.0508 33.1134 26.4698 29.1826C26.6233 27.7129 26.883 26.2669 27.0896 24.8091Z" fill="#68544B"/>
<path d="M126.074 24.207C126.074 23.6935 126.068 23.1741 126.068 22.6606C127.809 22.3714 129.633 22.0704 130.548 24.083C131.233 25.5762 131.693 27.2053 130.023 28.4978C129.698 28.545 129.379 28.5982 129.055 28.6454C126.788 28.0257 127.042 25.7061 126.074 24.207Z" fill="#EDBF70"/>
<path d="M15.291 56.7397C16.0465 56.7515 16.9318 57.0229 17.5339 56.7219C19.7236 55.63 19.0625 57.4302 19.3045 58.3332C19.2691 58.9057 19.151 59.5137 19.8947 59.7556V59.6966C19.8534 60.8476 19.8121 62.0044 19.7708 63.1553C19.216 63.1907 18.6612 63.232 18.1063 63.2674L18.1241 63.2969C18.1536 62.8543 17.9588 62.6418 17.5102 62.6831L17.5339 62.7067C17.5693 62.2582 17.404 62.0102 16.9141 62.0929L16.9436 62.1283C17.0912 61.4319 16.9023 60.9597 16.1232 60.8712C16.0406 60.7413 15.958 60.6174 15.8695 60.4934C15.6688 59.2481 15.4799 57.9968 15.291 56.7397Z" fill="#A66866"/>
<path d="M31.763 34.7418C31.403 32.2511 30.4173 29.8726 30.4645 27.311C32.1348 27.9957 32.0699 29.5539 32.2942 30.9645C32.2116 33.5909 33.5219 35.9695 33.6517 38.5605C33.3861 38.5428 33.1264 38.5251 32.8667 38.5133C32.4949 37.2561 32.1289 35.999 31.763 34.7418Z" fill="#A66866"/>
<path d="M129.054 28.6466C129.379 28.5994 129.697 28.5462 130.022 28.499C131.828 30.0572 131.993 31.8632 130.854 33.8759C130.836 31.9341 128.062 30.9366 129.054 28.6466Z" fill="#A66866"/>
<path d="M32.8664 38.5146C33.126 38.5324 33.3917 38.5501 33.6513 38.5619C34.2888 40.2558 34.82 41.9674 34.5189 43.9978C33.4448 43.7794 32.8782 43.2009 32.7129 42.1858L32.8899 42.0087C34.0822 40.8401 32.4768 39.6833 32.8664 38.5146Z" fill="#68544B"/>
<path d="M105.901 37.7407C105.978 38.4903 106.048 39.2399 105.334 39.7652C105.092 38.9684 104.591 38.1008 105.901 37.7407Z" fill="#F8EFDD"/>
<path d="M31.7578 55.6954C31.8168 55.2823 31.8759 54.8692 31.9408 54.4619C32.4956 54.5741 32.7848 54.9577 32.6785 55.4771C32.5605 56.0437 32.0942 55.7368 31.7578 55.6954Z" fill="#68544B"/>
<path d="M76.9574 17.5789C76.7981 17.7795 76.6387 17.9743 76.4794 18.175C76.1666 17.6497 76.1311 17.1421 76.5856 16.6699C76.5325 17.0477 76.5266 17.4018 76.9574 17.5789Z" fill="#F8EFDD"/>
<path d="M96.0613 29.1536C95.9786 29.5254 95.9019 29.8914 95.8192 30.2632C95.7012 30.1865 95.4769 30.0684 95.4887 30.0389C95.6186 29.7025 95.7838 29.3778 95.9373 29.0532L96.0613 29.1536Z" fill="#68544B"/>
<path d="M32.7125 42.1855C32.6416 42.0498 32.5708 41.9141 32.5 41.7783C32.6298 41.855 32.7597 41.9318 32.8895 42.0085C32.8836 42.0144 32.7125 42.1855 32.7125 42.1855Z" fill="#68544B"/>
<path d="M30.5414 39.6465C30.6358 39.8117 30.7361 39.9829 30.8306 40.1482C30.6299 40.0833 30.4233 40.0183 30.2227 39.9534C30.323 39.853 30.4351 39.7468 30.5414 39.6465Z" fill="#E3A09B"/>
<path d="M105.935 37.0264C106.189 37.3333 106.402 37.6402 105.918 37.9353C105.54 37.6284 105.546 37.3215 105.935 37.0264Z" fill="#F8EFDD"/>
<path d="M90.6719 35.3275C90.8725 35.0147 91.0791 34.7019 91.2798 34.395C91.0791 34.7078 90.8784 35.0147 90.6719 35.3275Z" fill="#F8EFDD"/>
<path d="M112.493 55.0636C114.919 54.4793 115.786 55.3351 115.45 57.8612C115.078 60.6411 115.025 63.4624 114.83 66.2659C113.768 68.7153 113.785 71.324 113.667 73.915C113.62 74.9656 113.88 76.0752 113.012 77.0904C112.198 76.0693 113.018 75.0246 112.829 73.8442C109.235 74.7295 106.083 76.7068 102.441 76.8779C103.876 75.4319 105.888 75.125 107.659 74.641C112.375 73.3661 113.602 70.2262 112.646 64.4834C114.682 63.7339 114.612 62.4413 113.573 60.8949C113.449 58.9 114.682 56.6631 112.534 55.0223L112.493 55.0636Z" fill="#2C2420"/>
<path d="M96.127 78.2708C98.2812 77.9344 100.211 76.6005 102.495 76.8484C100.725 77.8517 98.9482 78.8611 97.1776 79.8644C97.2838 79.0322 96.9001 78.5187 96.127 78.2708Z" fill="#2C2420"/>
<path d="M92.4434 87.52C92.5024 86.8649 92.5083 86.192 93.0631 85.708C93.0513 86.3809 93.1162 87.0773 92.4434 87.52Z" fill="#2C2420"/>
<path d="M94.8047 82.8165C94.8401 82.3266 94.9109 81.8485 95.4185 81.6006C95.4893 82.1436 95.2828 82.545 94.8047 82.8165Z" fill="#2C2420"/>
<path d="M93.625 84.5802C93.8316 84.1729 94.0381 83.7656 94.2447 83.3584C94.2919 83.8955 94.2919 84.409 93.625 84.5802Z" fill="#2C2420"/>
<path d="M93.0273 85.7658C93.2339 85.3585 93.4405 84.9453 93.6471 84.5381C93.6412 85.0457 93.6766 85.5769 93.0273 85.7658Z" fill="#2C2420"/>
<path d="M94.209 83.4059C94.4215 83.1994 94.628 82.9868 94.8405 82.7803C94.7579 83.1167 94.6339 83.4177 94.209 83.4059Z" fill="#2C2420"/>
<path d="M95.3945 81.628C95.6011 81.4214 95.8018 81.2207 96.0083 81.0142C95.9552 81.3683 95.8077 81.6339 95.3945 81.628Z" fill="#2C2420"/>
<path d="M96.5703 80.4493C96.7769 80.2428 96.9835 80.0362 97.19 79.8296C96.9894 80.0362 96.7828 80.2428 96.5703 80.4493Z" fill="#2C2420"/>
<path d="M50.5755 49.7407C52.3461 53.9785 54.1109 58.2103 55.8815 62.4481C55.9287 62.991 55.8756 63.5753 56.4835 63.8881L56.4776 63.8704C55.8638 67.7009 56.0586 71.496 57.0442 75.2439C53.9928 73.308 51.7854 70.5458 49.944 67.5298C48.8521 65.7355 47.0932 63.7878 49.5485 61.5804C50.1446 61.0433 49.4836 60.0931 49.4541 59.3435C49.3301 56.0973 48.4094 52.7331 50.5755 49.7407Z" fill="#A66866"/>
<path d="M72.3445 41.5598C72.6809 41.849 73.0115 42.1381 73.4069 42.4746C69.3462 42.9113 65.2738 42.1972 61.2426 42.9881C59.0293 43.4189 57.3767 44.5758 55.6356 45.8388C54.762 46.4763 53.4222 46.4762 52.2949 46.7654C56.4795 40.9518 62.4171 40.2554 68.8741 41.0935C70.0309 41.2469 71.1877 41.4063 72.3445 41.5598Z" fill="#F8EFDD"/>
<path d="M49.5831 43.425C50.8638 40.5094 48.0131 40.1257 45.9355 38.5381C50.6455 39.2168 54.0097 37.6763 57.2913 35.8467C56.4709 40.1493 53.4018 42.1679 49.5831 43.425Z" fill="#A66866"/>
<path d="M57.0362 75.2499C56.0505 71.4961 55.8558 67.707 56.4696 63.8765C58.1045 64.7677 58.2638 66.6091 59.1315 67.9961C57.9805 70.6462 58.1871 73.432 58.2875 76.206C57.6677 76.1588 57.2782 75.7988 57.0362 75.2499Z" fill="#68544B"/>
<path d="M52.2974 46.7603C52.2384 47.3328 51.8901 47.6869 51.418 47.9584C51.7131 47.5571 52.0023 47.1616 52.2974 46.7603Z" fill="#F8EFDD"/>
<path d="M129.574 70.9045C129.757 67.9475 129.94 64.9906 130.117 62.0395C130.318 59.6904 130.123 57.1938 132.561 55.7124C132.342 58.9999 132.118 62.2933 131.876 65.9585C130.944 64.3826 131.729 62.972 130.949 61.1364C130.678 64.7722 131.168 67.9003 130.259 70.8868C130.035 70.8927 129.804 70.8986 129.574 70.9045Z" fill="#68544B"/>
<path d="M42.2344 52.0766C42.14 50.7073 42.0515 49.338 41.957 47.9688C43.5742 49.0429 42.6299 50.7014 42.8955 52.0825L42.8424 52.1297C42.6417 52.112 42.4351 52.0943 42.2344 52.0766Z" fill="#68544B"/>
<path d="M42.8949 52.0845C43.7979 52.9521 43.3612 53.9791 42.8418 54.9943C42.8418 54.0381 42.8418 53.0819 42.8418 52.1317C42.8418 52.1258 42.8949 52.0845 42.8949 52.0845Z" fill="#68544B"/>
<path d="M44.0467 57.4355C43.9464 57.6657 43.8814 57.8191 43.8106 57.9785C43.7103 57.7778 43.5332 57.5771 43.5332 57.3824C43.5332 57.1758 43.7044 56.9693 43.8047 56.7627C43.8932 56.9988 43.9759 57.2408 44.0467 57.4355Z" fill="#68544B"/>
<path d="M81.8254 73.3245C82.3094 72.9113 82.7993 72.5159 83.5016 72.6753C83.7731 73.72 83.0413 74.5403 82.8701 75.4729C82.3979 78.0757 80.6686 80.5133 81.7841 83.3287C81.613 83.8717 81.1526 83.9366 80.6863 83.9956C79.4528 80.9796 81.43 78.2292 81.43 75.3076C81.4359 74.6466 81.6897 73.9855 81.8254 73.3245Z" fill="#68544B"/>
<path d="M73.9822 82.61C73.9291 83.1176 73.876 83.6193 73.8169 84.1269C71.9578 83.3774 69.7799 83.6901 68.0859 82.4035C68.1745 82.2854 68.2689 82.1674 68.3693 82.0553C70.3288 81.347 72.1525 81.9726 73.9822 82.61Z" fill="#68544B"/>
<path d="M75.8931 83.9315C75.8695 83.5833 75.8517 83.235 75.8281 82.8927C76.861 82.8278 77.8939 82.7688 79.5996 82.6626C78.0709 83.7073 77.0676 84.0732 75.8931 83.9315Z" fill="#68544B"/>
<path d="M69.7551 80.06C69.6489 79.9183 69.4541 79.7766 69.4718 79.6704C69.5131 79.4756 69.6725 79.3045 69.7846 79.1274C69.8555 79.2809 69.9794 79.4402 69.9794 79.5878C69.9735 79.7412 69.8378 79.8947 69.7551 80.06Z" fill="#68544B"/>
<path d="M68.086 82.3955C67.8204 82.2362 67.1889 82.2657 67.4545 81.8053C67.667 81.4394 68.0979 81.7876 68.3635 82.0473C68.269 82.1595 68.1805 82.2775 68.086 82.3955Z" fill="#68544B"/>
<path d="M91.1855 77.4158C92.3719 75.7396 93.5582 74.0574 94.9216 72.1274C96.828 74.807 94.3255 75.8872 93.4343 77.4276C92.7378 77.6578 92.0355 77.8939 91.339 78.124C91.2859 77.888 91.2387 77.6519 91.1855 77.4158Z" fill="#68544B"/>
<path d="M21.0859 61.4853C23.5589 60.6826 26.15 61.3614 28.6525 60.8833C28.5758 61.2669 28.5699 61.6801 28.4164 62.0283C27.8144 63.3917 28.4223 65.8352 26.7225 66.0122C24.8456 66.207 23.1576 64.6488 21.9831 62.9844C21.6467 62.5123 21.381 61.987 21.0859 61.4853Z" fill="#A66866"/>
<path d="M81.7915 83.3287C80.6701 80.5134 82.3994 78.0699 82.8775 75.473C83.0486 74.5404 83.7805 73.7259 83.509 72.6753L83.568 72.7225C83.7628 72.4805 83.9635 72.2386 84.1582 71.9966C85.1262 71.2647 86.1709 70.7335 87.4044 70.6509C85.982 75.0716 84.3471 79.4038 81.7915 83.3287Z" fill="#A66866"/>
<path d="M89.541 68.0549C90.7864 65.8652 92.7636 64.4546 94.8411 63.1915C95.4963 62.7961 96.5232 62.5776 96.9659 63.2741C97.6387 64.3424 96.3698 64.5313 95.8032 64.8146C93.9381 65.753 92.5098 67.2049 91.0461 68.6215C90.5444 68.4326 90.0427 68.2437 89.541 68.0549Z" fill="#68544B"/>
<path d="M16.1113 60.8833C16.8904 60.9718 17.0793 61.444 16.9317 62.1405C16.6602 61.7214 16.3828 61.3024 16.1113 60.8833Z" fill="#2C2420"/>
<path d="M17.498 62.6948C17.9525 62.6476 18.1473 62.866 18.1119 63.3086C17.9112 63.1021 17.7046 62.8955 17.498 62.6948Z" fill="#2C2420"/>
<path d="M16.9062 62.1059C17.3961 62.0291 17.5614 62.2711 17.526 62.7197C17.3194 62.5131 17.1128 62.3065 16.9062 62.1059Z" fill="#2C2420"/>
<path d="M68.2565 5.92822C70.399 6.60107 71.3433 7.91725 70.5347 10.1719L70.6291 10.1483C70.4225 10.3607 70.2219 10.5732 70.0153 10.7798C67.4892 12.2081 64.7388 12.338 61.9353 12.1491C60.5188 11.8658 59.0668 11.6887 57.6857 11.2815C55.9859 10.7798 54.2743 10.1483 54.6343 7.78741C55.077 6.99062 55.6967 6.4063 56.5938 6.15251C56.8358 6.1289 57.0837 6.1112 57.3257 6.08759C57.3847 6.3827 57.4437 6.6778 57.5087 6.96701L57.4792 7.00242C59.1495 10.6499 66.0727 11.0867 68.7168 7.71659C68.5575 7.54543 68.3981 7.36836 68.2388 7.1972L68.2978 7.23852C68.2506 7.06735 68.2093 6.8962 68.1738 6.72503C68.1975 6.47124 68.227 6.19972 68.2565 5.92822Z" fill="#2C2420"/>
<path d="M106.037 63.9751C108.079 66.1589 108.693 67.7525 107.854 69.9717C106.94 72.3916 105.234 73.5956 102.832 73.7373C101.622 73.8081 101.091 72.8401 101.763 71.701C102.088 71.1462 102.655 70.6681 103.209 70.314C105.252 68.9978 106.609 67.3216 106.037 63.9751Z" fill="#A66866"/>
<path d="M103.965 48.8018C101.345 52.3076 97.7504 54.0074 93.6484 54.7924C96.8474 52.3489 99.8398 49.5631 103.965 48.8018Z" fill="#2C2420"/>
<path d="M60.5955 62.7252C62.9977 65.4048 66.1258 67.0928 69.2362 68.8221C64.3847 69.0995 61.6874 65.9124 59.0078 62.7075C59.5331 62.7134 60.0643 62.7193 60.5955 62.7252Z" fill="#68544B"/>
<path d="M113.567 60.8949C114.605 62.4412 114.676 63.7338 112.64 64.4833C112.091 63.415 111.046 62.8721 110.161 62.1579C110.143 61.733 110.132 61.3139 110.114 60.8889C109.907 60.2043 109.695 59.5138 109.488 58.8291C111.105 59.0121 112.534 59.561 113.567 60.8949Z" fill="#68544B"/>
<path d="M110.12 60.8901C110.132 61.3151 110.15 61.7341 110.167 62.1591C105.829 61.7164 101.645 62.7433 97.3301 63.7231C97.578 62.2003 99.1302 62.5014 99.5906 61.5689H99.5788C102.736 61.8935 105.811 61.2147 108.904 60.7661C109.306 60.8133 109.713 60.8547 110.12 60.8901Z" fill="#2C2420"/>
<path d="M54.6325 7.79395C54.2725 10.1548 55.9841 10.7863 57.6839 11.288C59.065 11.6953 60.5169 11.8723 61.9334 12.1556C59.4427 13.4246 55.0457 12.5511 53.4993 10.5502C52.2185 8.89173 54.8745 8.95667 54.6325 7.79395Z" fill="#68544B"/>
<path d="M60.5945 62.7247C60.0633 62.7188 59.538 62.7129 59.0068 62.707C57.4133 60.9836 56.0794 59.1362 56.2919 56.4448C57.7202 58.5342 59.1603 60.6295 60.5945 62.7247Z" fill="#A66866"/>
<path d="M48.1757 21.4624C45.3545 21.7516 42.7575 21.1673 40.6387 19.1016C43.153 19.8865 45.6614 20.6715 48.1757 21.4624Z" fill="#2C2420"/>
<path d="M110.12 60.8891C109.713 60.8478 109.306 60.8064 108.899 60.7651C106.402 58.056 103.38 58.5872 100.323 59.3899C100.211 59.2719 100.099 59.1598 99.9805 59.0476C103.103 56.793 106.308 58.2627 109.495 58.8293C109.701 59.5198 109.908 60.2045 110.12 60.8891Z" fill="#A66866"/>
<path d="M60.6668 49.0498C63.2283 50.0827 65.4711 51.6468 67.7257 53.2108C67.6431 53.2994 67.5605 53.3879 67.4779 53.4764C64.8042 52.6147 62.1364 51.7412 60.2949 49.4039C60.4248 49.2918 60.5487 49.1737 60.6668 49.0498Z" fill="#68544B"/>
<path d="M47.9883 23.8833C50.3196 23.8833 52.1316 23.8833 54.4806 23.8833C52.1316 25.3706 50.3196 25.288 47.9883 23.8833Z" fill="#2C2420"/>
<path d="M57.3261 6.09379C57.0782 6.1115 56.8362 6.1351 56.5943 6.15871C56.5707 5.95213 56.547 5.74556 56.5234 5.53899C56.9307 5.40324 57.3379 5.2734 57.7452 5.14355C57.6035 5.46227 57.4678 5.78098 57.3261 6.09379Z" fill="#547D77"/>
<path d="M67.7244 53.2109C67.99 53.3349 68.6097 53.1755 68.409 53.6654C68.2733 53.99 67.7539 53.807 67.4824 53.4765C67.5591 53.388 67.6418 53.2995 67.7244 53.2109Z" fill="#68544B"/>
<path d="M112.529 55.0233C112.352 54.9879 112.175 54.9525 111.998 54.9171C112.081 54.8227 112.169 54.7283 112.252 54.6279C112.334 54.7755 112.411 54.9171 112.494 55.0647L112.529 55.0233Z" fill="#2C2420"/>
<path d="M99.5856 61.5676C99.4203 61.3787 99.261 61.1898 99.0957 61.0009C99.196 60.936 99.2905 60.8652 99.3908 60.8003C99.4498 61.0541 99.5148 61.3138 99.5738 61.5676H99.5856Z" fill="#A66866"/>
<path d="M56.4751 63.8937C55.8731 63.5809 55.9203 63.0025 55.873 62.4536C56.2862 62.8432 56.5931 63.2799 56.4751 63.8937Z" fill="#68544B"/>
<path d="M84.1498 71.9971C83.955 72.2391 83.7543 72.481 83.5596 72.723C83.4887 72.2627 83.8606 72.1623 84.1498 71.9971Z" fill="#68544B"/>
<path d="M100.322 59.397C100.174 59.4914 99.9615 59.7098 99.8966 59.6685C99.507 59.4383 99.7962 59.2436 99.9792 59.0547C100.097 59.1668 100.209 59.2789 100.322 59.397Z" fill="#A66866"/>
<path d="M92.6035 55.3183L92.8278 55.2593L92.8042 55.4364L92.6035 55.3183Z" fill="#2C2420"/>
<path d="M60.2945 49.4035C60.2237 49.191 60.1529 48.9786 60.0762 48.7661C60.2709 48.8605 60.4657 48.955 60.6664 49.0494C60.5483 49.1733 60.4244 49.2914 60.2945 49.4035Z" fill="#68544B"/>
<path d="M39.7235 39.8941C39.5228 39.7111 39.269 39.5163 39.635 39.2862C39.694 39.2508 39.9065 39.4632 40.054 39.5577C39.9478 39.6757 39.8356 39.7878 39.7235 39.8941Z" fill="#A66866"/>
<path d="M45.6929 38.2483L45.4863 38.3132L45.4981 38.1479L45.6929 38.2483Z" fill="#A66866"/>
<path d="M44.3658 37.7527L44.2891 37.5874L44.4779 37.6051L44.3658 37.7527Z" fill="#A66866"/>
<path d="M39.6715 18.5654C39.7364 18.6304 39.8013 18.6953 39.8603 18.7602C39.7895 18.8192 39.7187 18.9254 39.6538 18.9195C39.5888 18.9195 39.5239 18.8074 39.459 18.7425C39.5298 18.6835 39.6007 18.6304 39.6715 18.5654Z" fill="#2C2420"/>
<path d="M19.8943 59.7628C19.1506 59.5149 19.2687 58.9128 19.3041 58.3403C19.8235 58.6768 19.9061 59.1962 19.8943 59.7628Z" fill="#68544B"/>
<path d="M120.578 27.5252C120.136 27.4839 119.882 27.2006 119.811 26.7993C119.734 26.3566 119.971 26.0025 120.413 25.9553C120.85 25.908 121.127 26.2327 121.18 26.6517C121.24 27.0826 121.003 27.3836 120.578 27.5252Z" fill="#A66866"/>
<path d="M118.34 27.584C118.458 27.6961 118.57 27.8024 118.688 27.9145C118.559 28.003 118.429 28.1093 118.287 28.1742C118.252 28.1919 118.086 28.0385 118.098 28.009C118.157 27.8614 118.252 27.7256 118.34 27.584Z" fill="#A66866"/>
<path d="M118.389 17.2955C118.194 17.0948 118.005 16.9 117.811 16.6993L117.828 16.6816C118.029 16.8705 118.23 17.0653 118.43 17.2541C118.424 17.2541 118.389 17.2955 118.389 17.2955Z" fill="#A66866"/>
<path d="M117.81 16.693C117.728 16.6399 117.651 16.5927 117.568 16.5396C117.657 16.5868 117.74 16.6281 117.828 16.6753C117.828 16.6812 117.81 16.693 117.81 16.693Z" fill="#A66866"/>
<path d="M57.3262 6.09451C57.4678 5.7758 57.6036 5.45708 57.7452 5.13837C57.7866 4.99672 57.881 4.93178 58.0403 4.94359C60.472 4.91998 62.9037 4.89637 65.3413 4.87277L65.3 4.84326C65.3236 5.81712 65.9846 5.51018 66.5217 5.45116L66.4863 5.42757C66.4686 6.23616 67.5369 6.00009 67.6785 6.65522C66.5099 7.09788 65.1701 5.85252 64.0723 7.01525C61.8944 6.0768 59.7047 6.37191 57.515 6.97393C57.4442 6.68472 57.3852 6.38962 57.3262 6.09451Z" fill="#92E4CF"/>
<path d="M65.34 4.87862C62.9083 4.90223 60.4766 4.92583 58.0391 4.94944C60.4589 3.83394 62.8965 3.81033 65.34 4.87862Z" fill="#68544B"/>
<path d="M67.6709 6.66121C67.5292 6.00608 66.4669 6.24215 66.4846 5.43356C67.2047 5.13845 67.8067 5.26238 68.2552 5.92932C68.2257 6.20082 68.1962 6.47231 68.1667 6.73791C67.9955 6.67889 67.8244 6.64348 67.6473 6.63168L67.6709 6.66121Z" fill="#68544B"/>
<path d="M66.5147 5.45594C65.9776 5.51497 65.3166 5.8219 65.293 4.84804C65.7947 4.85985 66.438 4.59423 66.5147 5.45594Z" fill="#68544B"/>
<path d="M64.0673 7.02015C65.1651 5.85743 66.5049 7.10279 67.6735 6.66013L67.6499 6.63059C67.6558 7.05554 67.8919 7.23854 68.2932 7.25034L68.2342 7.20902C68.3936 7.38018 68.5529 7.55725 68.7123 7.72841C66.0681 11.0985 59.1449 10.6618 57.4746 7.01424C59.6761 7.55134 61.8717 8.89113 64.0673 7.02015Z" fill="#547D77"/>
<path d="M64.0673 7.02065C61.8717 8.89162 59.6761 7.55183 57.4746 7.01474L57.5041 6.97933C59.6997 6.37731 61.8894 6.08221 64.0673 7.02065Z" fill="#33615F"/>
<path d="M68.2918 7.25061C67.8904 7.23881 67.6543 7.05581 67.6484 6.63086C67.8255 6.64266 67.9967 6.67807 68.1678 6.73709C68.2032 6.90826 68.2446 7.07945 68.2918 7.25061Z" fill="#92E4CF"/>
</svg>
