<svg width="50" height="50" viewBox="0 0 50 50" fill="none" xmlns="http://www.w3.org/2000/svg">
<g clip-path="url(#clip0_2247_14045)">
<path d="M25.0003 22.9167V16.6667L33.3337 25.0001L25.0003 33.3334V27.0834H16.667V22.9167H25.0003ZM25.0003 4.16675C36.5003 4.16675 45.8337 13.5001 45.8337 25.0001C45.8337 36.5001 36.5003 45.8334 25.0003 45.8334C13.5003 45.8334 4.16699 36.5001 4.16699 25.0001C4.16699 13.5001 13.5003 4.16675 25.0003 4.16675ZM25.0003 41.6668C34.2087 41.6668 41.667 34.2084 41.667 25.0001C41.667 15.7917 34.2087 8.33342 25.0003 8.33342C15.792 8.33342 8.33366 15.7917 8.33366 25.0001C8.33366 34.2084 15.792 41.6668 25.0003 41.6668Z" fill="white"/>
</g>
<defs>
<clipPath id="clip0_2247_14045">
<rect width="50" height="50" fill="white"/>
</clipPath>
</defs>
</svg>
