<svg width="178" height="175" viewBox="0 0 178 175" fill="none" xmlns="http://www.w3.org/2000/svg">
<path d="M92.7107 166.27C88.466 169.068 83.7071 170.35 78.7492 171.036C70.2805 170.275 62.8746 166.949 56.2299 161.751C55.4344 161.127 54.5704 160.606 53.7338 160.037C51.8755 158.974 50.024 158.117 47.7954 157.788C45.6079 157.466 43.4959 156.348 41.9873 154.455C39.9369 151.877 37.098 150.896 33.9162 150.553C28.2041 149.929 25.7355 147.838 24.3023 142.119C23.8566 140.343 23.3903 139.472 21.3194 139.328C18.1513 139.109 16.677 136.599 16.8073 133.822C17.0885 127.842 14.8255 122.493 12.4666 117.453C4.21045 99.8095 4.56704 81.9668 9.84029 63.7538C11.4038 58.3571 13.4267 53.1868 16.197 48.3112C16.677 47.4746 16.9102 46.3226 18.1582 46.1306C17.6988 47.1661 17.2462 48.2015 16.7799 49.2369C7.44024 70.1723 4.22416 91.375 13.4952 113.312C16.1421 119.572 18.2405 126.066 18.7342 132.971C18.8851 135.07 19.7902 137.285 22.2931 137.333C26.7298 137.415 28.1013 140.329 28.883 143.84C29.4453 146.384 30.6865 147.948 33.4157 148.099C37.5163 148.325 41.1027 149.669 44.2639 152.467C45.6491 153.694 47.6171 154.407 49.4343 154.97C53.7407 156.286 57.4985 158.474 61.1534 161.093C70.1982 167.56 79.9698 170.714 91.0169 166.524C91.5449 166.312 92.1484 166.346 92.7107 166.27Z" fill="#F5A65C"/>
<path d="M92.7111 166.27C92.1488 166.346 91.5454 166.312 91.0311 166.504C79.984 170.693 70.2123 167.539 61.1676 161.073C57.5126 158.46 53.7617 156.273 49.4484 154.949C47.6244 154.394 45.6632 153.674 44.278 152.446C41.1237 149.655 37.5373 148.304 33.4298 148.078C30.7006 147.927 29.4594 146.364 28.8971 143.82C28.1154 140.309 26.7508 137.394 22.3073 137.312C19.8044 137.264 18.8992 135.049 18.7483 132.951C18.2546 126.046 16.1563 119.559 13.5094 113.291C4.23832 91.3545 7.45438 70.1518 16.794 49.2165C17.2534 48.181 17.7129 47.1387 18.1723 46.1101C20.2432 41.0151 24.1107 37.0379 26.8948 32.3612C30.2755 26.6834 30.0423 21.6501 27.224 16.1986C26.1405 14.1003 25.5371 11.9402 26.8194 9.18359C28.9931 13.2774 30.9818 17.0283 32.9772 20.7793C34.6367 23.8993 37.5305 24.5714 40.4654 22.5073C41.5694 21.7324 42.6597 20.9301 43.7569 20.1347C43.7089 21.5953 42.3786 22.1233 41.5968 23.0285C38.1682 26.9988 33.9784 30.4206 32.7441 36.1876C45.8964 19.593 62.7859 9.97218 83.9406 9.47845C105.02 8.98473 122.444 17.4877 136.125 33.5818C137.188 32.1349 135.823 30.1395 137.956 29.68C141.281 31.3052 142.481 34.6584 143.901 37.6276C145.464 40.8848 147.94 41.646 151.06 41.4403C153.323 41.2894 155.572 40.9397 158.459 40.6037C154.2 45.7055 154.866 51.0199 156.251 56.4098C154.152 53.8863 152.774 50.9513 151.43 47.989C151.272 47.7353 151.3 47.2141 150.758 47.5501L150.82 47.6393C150.93 46.6381 150.573 46.0621 149.469 46.1855L149.503 46.213C149.373 43.8609 152.335 44.6495 152.836 42.9352C153.124 42.8666 153.412 42.7912 153.7 42.7226C153.645 42.6129 153.59 42.51 153.535 42.4003C153.295 42.5649 153.048 42.7295 152.808 42.894C150.648 42.7363 149.311 44.5123 147.487 45.1501C145.636 46.3569 146.445 47.9547 146.959 49.4016C149.784 57.3561 152.034 65.4477 152.486 73.9164C152.589 75.7679 153.604 76.4056 154.872 77.1188L154.838 77.1599C151.718 76.8171 148.598 76.4879 146.027 78.9154C143.044 80.6915 141.775 83.5166 141.398 86.7876C140.911 91.046 143.688 95.0438 147.94 96.8609C151.382 98.3284 156.47 97.5055 158.281 94.9889L158.246 94.9614C157.965 97.9855 157.43 100.955 156.539 103.862C156.066 103.3 157.074 101.359 154.975 102.285C153.762 102.82 153.096 102.024 152.651 100.948C152.171 99.7822 152.452 97.9512 150.429 98.0198C148.413 98.0884 148.433 99.9673 147.933 101.222C145.272 107.812 141.974 114.011 137.805 119.799C122.465 141.111 95.6186 151.28 70.1095 145.287C67.1128 144.581 64.1642 143.71 61.1607 143.038C59.4327 142.654 58.7195 143.093 59.2269 145.205C60.043 148.572 62.4773 149.607 65.3299 150.334C64.1711 151.39 61.7916 150.725 61.5241 153.036C59.4464 152.858 60.4338 153.838 61.0578 154.442C63.9585 157.226 67.0854 159.701 71.0832 160.709C81.0605 163.226 91.0311 164.049 101.056 160.764C103.155 160.078 105.287 159.111 107.633 159.475C102.922 162.334 97.6072 163.843 92.7111 166.27ZM133.622 68.9106L133.581 69.0066C134.088 68.9929 134.301 68.7049 134.301 68.2249L134.383 68.3894C136.269 66.346 136.111 64.1928 134.28 62.355C132.422 60.4898 130.234 59.9001 128.047 62.0464L128.095 62.019C127.745 62.2659 127.395 62.5128 127.046 62.7596C125.119 64.9403 125.427 67.1963 127.224 69.1369C129 71.0501 131.181 71.0021 133.299 69.4935C133.409 69.3014 133.519 69.1095 133.622 68.9106ZM89.5293 94.5432C86.3338 96.6552 85.4766 99.7204 86.471 103.19C87.1773 105.652 89.0904 107.202 91.7442 107.401C94.9877 107.641 97.5044 106.454 98.7867 103.259C99.8153 100.166 99.9044 97.2518 97.0586 94.9889C94.6791 93.1031 92.1488 92.8563 89.5293 94.5432ZM135.309 43.2849C135.597 43.5729 135.892 43.8609 136.18 44.1489C136.564 43.5386 136.282 43.0997 135.816 42.7089C135.199 40.3431 133.711 38.4574 132.305 36.5579C124.831 26.4297 114.805 19.8604 103.011 15.8626C94.1786 12.8728 85.1887 12.6122 76.1165 14.5666C82.4663 14.6351 88.8093 14.4911 95.0906 15.8146C112.296 19.4284 125.434 28.96 135.309 43.2849ZM17.7335 101.448C19.4615 97.2587 18.8786 93.3363 18.6455 89.3865C18.3712 84.8607 17.2123 80.1086 21.5324 76.4262C23.0136 75.1645 22.7324 73.0798 21.7038 71.3449C20.8535 69.9049 19.5575 69.3837 17.9323 69.5826C15.8888 69.8295 14.4831 70.9952 14.106 72.9427C13.2282 77.4205 12.7688 81.9806 14.0031 86.4516C14.7162 89.0299 15.0934 91.5877 14.7368 94.2072C13.9208 100.255 17.1232 106.009 15.7174 112.084C16.026 108.477 16.0123 104.898 16.0397 101.311C16.0466 100.694 15.8066 99.7753 16.8009 99.789C17.0615 99.8027 17.322 100.701 17.7335 101.448ZM51.245 130.709C44.7786 125.367 38.7305 119.607 33.9784 112.564C29.0686 105.289 24.433 94.6117 24.3713 92.1225C26.6822 107.983 36.0767 121.287 51.245 130.709ZM58.0955 153.098C59.4806 152.933 59.4052 152.144 59.0006 151.349C57.9103 149.223 56.8612 147.07 55.5994 145.054C54.5777 143.415 53.4874 143.765 52.5479 145.321C51.7594 146.624 51.6839 147.859 52.4382 149.182C53.7342 151.466 56.3331 151.754 58.0955 153.098ZM42.4677 139.596C42.2003 138.046 42.0288 137.12 42.7969 136.181C43.5854 135.214 42.6186 134.61 41.9054 134.048C41.4048 133.65 41.0208 132.91 40.2391 133.465C39.4642 134.021 39.7248 134.871 39.7179 135.646C39.7042 137.346 41.1511 138.025 42.4677 139.596ZM48.4953 140.028C48.1455 138.889 47.1993 138.162 45.9992 138.032C45.1489 137.936 44.9432 138.793 45.1558 139.493C45.5055 140.665 45.9444 142.023 47.3912 142.03C48.1181 142.037 48.4267 140.994 48.4953 140.028ZM136.948 34.2333C136.879 34.1578 136.817 34.0824 136.749 34.0001C136.673 34.0687 136.543 34.1373 136.543 34.2059C136.536 34.2813 136.66 34.3567 136.728 34.4322C136.804 34.3704 136.879 34.3018 136.948 34.2333ZM42.7489 140.377L42.6254 140.583L42.8243 140.604L42.7489 140.377Z" fill="#151C1E"/>
<path d="M107.625 159.482C105.28 159.118 103.147 160.078 101.049 160.771C91.0304 164.056 81.06 163.233 71.0758 160.716C67.078 159.708 63.951 157.24 61.0504 154.449C60.4263 153.852 59.4389 152.865 61.5167 153.043C62.895 154.826 64.5682 154.86 66.0082 153.365C66.9751 152.364 67.4139 150.924 65.3225 150.334C62.4698 149.607 60.0355 148.565 59.2195 145.205C58.7052 143.086 59.4252 142.647 61.1532 143.038C64.1567 143.71 67.1053 144.588 70.102 145.287C95.6111 151.281 122.457 141.111 137.797 119.799C141.966 114.011 145.265 107.812 147.925 101.222C148.433 99.9674 148.405 98.0885 150.421 98.0199C152.444 97.9514 152.163 99.7823 152.643 100.948C153.089 102.025 153.754 102.82 154.968 102.285C157.066 101.359 156.058 103.3 156.531 103.862C153.535 117.193 147.233 128.782 138.051 138.855C133.134 144.252 127.6 148.874 121.429 152.823C119.324 154.174 116.985 153.441 115.065 154.682C111.575 153.207 110.944 155.655 110.32 158.124H110.313C108.969 157.74 108.057 158.234 107.522 159.496L107.625 159.482ZM144.97 119.086C145.957 118.983 146.657 118.071 146.691 116.658C146.712 115.657 146.28 114.841 145.114 114.896C143.564 114.964 142.995 116.144 142.817 117.406C142.659 118.434 143.331 119.079 144.97 119.086ZM112.967 147.434C112.603 146.446 112.192 145.466 110.882 145.692C109.573 145.918 108.997 146.919 109.058 148.133C109.106 149.12 109.778 149.875 110.841 149.696C112.021 149.504 112.823 148.743 112.967 147.434Z" fill="#17919C"/>
<path d="M137.949 29.7007C135.816 30.1533 137.181 32.1556 136.118 33.6025C122.431 17.5085 105.013 9.00541 83.9339 9.49913C62.7791 9.99286 45.8896 19.6205 32.7373 36.2083C33.9716 30.4413 38.1614 27.0195 41.5901 23.0491C42.3718 22.144 43.7021 21.6091 43.7501 20.1554L43.709 20.2308C45.1079 20.1554 45.9787 19.3805 46.5068 18.1325L46.4519 18.1736C47.1239 18.2765 47.5765 17.9816 47.8851 17.3987L47.7891 17.481C48.852 16.9324 49.9422 16.4319 50.6417 15.3964L50.5594 15.4513C51.0326 15.4033 51.5194 15.3827 51.732 14.841C58.6442 12.0501 65.0694 8.01111 72.729 7.11281C76.8777 6.62594 80.9921 6.15966 85.175 6.4408C86.5259 6.52995 87.8905 6.45451 89.262 6.04307C85.991 6.04307 82.727 6.04307 79.456 6.04307C84.263 5.63849 88.8711 5.15163 93.8084 6.73566C98.9788 8.39513 104.547 9.0877 109.669 11.138C115.944 13.6547 121.567 17.2548 126.957 21.4034C130.584 24.1943 134.04 27.2664 137.949 29.7007Z" fill="#17919C"/>
<path d="M154.873 77.1189C153.604 76.4126 152.589 75.7679 152.486 73.9165C152.027 65.4477 149.784 57.3561 146.959 49.4016C146.445 47.9548 145.636 46.357 147.48 45.157C148.152 45.5136 148.824 45.8633 149.503 46.213L149.469 46.1856C149.606 46.9605 150.175 47.3376 150.82 47.6393C150.82 47.6393 150.758 47.5502 150.758 47.557C150.875 47.8656 150.937 48.2633 151.43 47.9959C152.774 50.9514 154.153 53.8932 156.251 56.4167C156.964 58.947 159.131 60.9768 158.829 63.8637C158.342 64.6523 158.527 65.4066 158.939 66.1472C159.014 66.6821 159.09 67.21 159.165 67.7449C159.165 69.3632 159.165 70.9816 159.165 72.5999C157.89 71.8799 156.23 71.6399 157.362 69.9118C157.677 69.4318 157.636 68.7049 156.971 68.5198C156.162 68.2935 155.689 68.8284 155.675 69.617C155.634 71.5987 155.058 73.649 156.258 75.5005C157.657 77.6674 155.599 76.8171 154.873 77.1189Z" fill="#17919C"/>
<path d="M154.872 77.1188C155.606 76.8171 157.656 77.6674 156.257 75.5005C155.057 73.6559 155.64 71.5987 155.675 69.6169C155.688 68.8215 156.168 68.2866 156.971 68.5198C157.636 68.7049 157.67 69.4318 157.361 69.9118C156.237 71.6398 157.889 71.8798 159.165 72.5998C159.165 70.9815 159.165 69.3632 159.165 67.7449C161.243 73.5119 161.016 79.5943 161.586 85.5602C161.894 88.7488 161.558 91.91 158.932 94.2826L158.959 94.31C158.63 93.5009 159.796 92.8083 159.144 91.9717C162.12 86.0607 160.845 81.6858 154.831 77.1531L154.872 77.1188Z" fill="#151C1E"/>
<path d="M144.271 141.721C145.69 144.382 144.689 146.343 142.474 147.962C140.445 148.167 138.566 147.831 137.009 146.384C136.433 144.204 136.94 142.284 138.428 140.617C140.41 140.796 142.44 140.741 144.271 141.721Z" fill="#151C1E"/>
<path d="M146.48 25.2501C145.492 27.4239 144.134 29.4605 144.278 32.4571C142.317 30.7908 141.7 28.4319 139.238 27.8079C142.009 26.7793 143.339 24.5507 145.088 22.7883C145.499 23.6318 145.41 24.7701 146.48 25.2501Z" fill="#151C1E"/>
<path d="M154.688 127.52C154.077 128.974 153.467 130.537 151.561 130.64C149.764 130.736 148.729 129.673 148.722 127.986C148.715 126.32 149.805 125.291 151.478 125.058C153.357 124.798 153.961 126.293 154.688 127.52Z" fill="#151C1E"/>
<path d="M27.0527 1.74352C26.1749 3.43042 25.1532 5.12416 23.0206 5.37788C21.6285 5.54931 20.8948 4.51388 21.0868 3.21099C21.4434 0.838371 23.5074 0.42693 25.3658 0.0360647C26.3944 -0.176511 27.0047 0.570927 27.0527 1.74352Z" fill="#F5935C"/>
<path d="M170.966 143.024C172.166 142.05 173.462 142.105 174.778 142.716C176.191 143.367 177.391 144.389 177.316 146.007C177.227 147.906 175.78 148.599 174.024 148.695C173.668 147.694 172.502 146.981 172.941 145.705C173.578 143.84 172.317 143.408 170.966 143.024Z" fill="#F5935C"/>
<path d="M173.955 149.024C174.086 151.301 172.68 151.438 171.061 150.965C168.984 150.355 167.674 148.976 168.168 146.686C168.442 145.39 168.991 144.053 170.499 143.559C169.491 148.167 170.04 149.031 173.955 149.024Z" fill="#FAC86F"/>
<path d="M173.957 149.025C170.041 149.031 169.492 148.167 170.5 143.559C170.658 143.381 170.816 143.203 170.967 143.024C172.318 143.408 173.579 143.84 172.935 145.706C172.496 146.974 173.662 147.694 174.018 148.695C173.95 148.798 173.929 148.908 173.957 149.025Z" fill="#151C1E"/>
<path d="M137.009 146.384C138.566 147.831 140.444 148.167 142.474 147.962C141.144 149.073 139.594 149.875 137.914 150.005C135.871 150.163 135.212 148.332 135.109 146.858C135 145.253 136.227 146.055 137.009 146.384Z" fill="#FAC86F"/>
<path d="M146.479 25.2505C145.409 24.7704 145.498 23.6321 145.08 22.7887C145.416 20.1418 147.398 19.8469 149.914 19.6206C148.673 21.6504 147.576 23.4538 146.479 25.2505Z" fill="#17919C"/>
<path d="M144.271 141.722C142.44 140.741 140.41 140.796 138.429 140.611C141.268 137.353 141.83 137.463 144.271 141.722Z" fill="#F9CA80"/>
<path d="M110.334 158.131C110.958 155.662 111.589 153.208 115.079 154.689C114.627 157.39 112.419 157.672 110.334 158.131Z" fill="#151C1E"/>
<path d="M1.24136 42.421C0.432196 42.3044 0.109897 41.7558 0.013895 41.0358C-0.0821071 40.3432 0.329335 39.9524 0.939634 39.8564C1.59793 39.7535 2.01623 40.1718 2.05738 40.8027C2.09852 41.461 2.0848 42.1741 1.24136 42.421Z" fill="#17919C"/>
<path d="M145.114 173.306C145.066 174.115 144.607 174.513 143.832 174.554C142.783 174.609 142.481 173.999 142.543 173.073C142.591 172.326 142.899 171.756 143.736 171.763C144.717 171.77 145.053 172.428 145.114 173.306Z" fill="#17919C"/>
<path d="M46.4999 18.1323C45.9788 19.3804 45.101 20.1484 43.7021 20.2307C44.3604 19.1541 45.2313 18.3792 46.4999 18.1323Z" fill="#151C1E"/>
<path d="M107.543 159.502C108.078 158.24 108.99 157.754 110.334 158.131C109.696 159.187 108.688 159.482 107.543 159.502Z" fill="#151C1E"/>
<path d="M50.6407 15.3965C49.9413 16.4319 48.8441 16.9325 47.7881 17.4811C48.3092 16.2056 49.4887 15.8216 50.6407 15.3965Z" fill="#151C1E"/>
<path d="M158.939 66.1475C158.527 65.4069 158.335 64.6457 158.829 63.864C158.863 64.6252 158.897 65.3863 158.939 66.1475Z" fill="#151C1E"/>
<path d="M51.7322 14.8411C51.5127 15.3829 51.0327 15.4034 50.5596 15.4514C50.7653 14.8891 51.211 14.7931 51.7322 14.8411Z" fill="#151C1E"/>
<path d="M47.8775 17.4055C47.5758 17.9816 47.1164 18.2833 46.4443 18.1804C46.7461 17.577 47.1095 17.1107 47.8775 17.4055Z" fill="#151C1E"/>
<path d="M158.931 94.2827C158.903 94.7079 158.746 95.0096 158.245 94.9684L158.279 94.9959C158.252 94.5158 158.423 94.2416 158.958 94.3101L158.931 94.2827Z" fill="#151C1E"/>
<path d="M158.959 94.3101C158.431 94.2347 158.252 94.5159 158.28 94.9959C156.469 97.5056 151.381 98.3354 147.939 96.8679C143.681 95.0508 140.91 91.053 141.397 86.7946C141.767 83.5168 143.043 80.6984 146.026 78.9224C155.873 78.6961 159.247 83.5442 159.144 91.9787C159.795 92.8153 158.63 93.501 158.959 94.3101Z" fill="#F5A65C"/>
<path d="M17.7337 101.449C17.3291 100.701 17.0617 99.7961 16.7942 99.7961C15.7999 99.7893 16.0399 100.701 16.0331 101.318C16.0125 104.905 16.0194 108.484 15.7108 112.091C17.1165 106.009 13.9142 100.262 14.7302 94.2143C15.0799 91.5948 14.7096 89.0439 13.9965 86.4587C12.7621 81.9878 13.2216 77.4277 14.0993 72.9498C14.4833 71.0024 15.8822 69.8366 17.9257 69.5898C19.5508 69.3909 20.8469 69.9121 21.6972 71.3521C22.7258 73.087 23.0069 75.1648 21.5258 76.4334C17.2057 80.1157 18.3714 84.8678 18.6388 89.3936C18.8788 93.3434 19.4617 97.2589 17.7337 101.449Z" fill="#17919C"/>
<path d="M135.308 43.285C125.427 28.9601 112.295 19.4284 95.0835 15.8078C88.8022 14.4843 82.4592 14.6283 76.1094 14.5598C85.1816 12.6054 94.1715 12.8592 103.004 15.8558C114.805 19.8536 124.824 26.4229 132.298 36.5511C133.704 38.4574 135.192 40.3363 135.809 42.7021C135.651 42.8941 135.48 43.093 135.308 43.285Z" fill="#F7DBA1"/>
<path d="M98.7932 103.266C97.5109 106.461 94.9942 107.648 91.7507 107.408C89.0969 107.209 87.1838 105.659 86.4775 103.197C85.4832 99.7275 86.3403 96.6623 89.5358 94.5503C94.7542 95.188 97.4903 98.4589 98.7932 103.266Z" fill="#F5A65C"/>
<path d="M51.2448 130.709C36.0765 121.287 26.682 107.984 24.3779 92.1228C24.4328 94.612 29.0683 105.282 33.985 112.564C38.7303 119.607 44.7784 125.374 51.2448 130.709Z" fill="#F5A65C"/>
<path d="M133.306 69.4935C131.18 71.0089 129.007 71.0501 127.23 69.1369C125.434 67.1963 125.118 64.9403 127.052 62.7596C127.477 62.6225 128.005 62.6225 128.101 62.019L128.053 62.0465C132.154 62.3619 133.93 64.1379 134.389 68.3826L134.307 68.218C134.067 68.4786 133.827 68.7392 133.587 68.9998L133.628 68.9038C133.573 69.13 133.471 69.322 133.306 69.4935Z" fill="#F5A65C"/>
<path d="M159.145 91.9785C159.241 83.5372 155.868 78.6891 146.027 78.9222C148.599 76.4879 151.719 76.8171 154.839 77.1599C160.853 81.6926 162.121 86.0676 159.145 91.9785Z" fill="#F9CA80"/>
<path d="M58.0951 153.098C56.3328 151.754 53.7339 151.459 52.4447 149.189C51.6904 147.866 51.7659 146.631 52.5545 145.328C53.4939 143.772 54.5774 143.415 55.606 145.061C56.8677 147.077 57.9169 149.23 59.0072 151.356C59.4118 152.144 59.4803 152.94 58.0951 153.098Z" fill="#17919C"/>
<path d="M98.7935 103.266C97.4975 98.4587 94.7545 95.1878 89.5361 94.5501C92.1556 92.8563 94.6791 93.11 97.0654 95.0026C99.9043 97.2587 99.8152 100.173 98.7935 103.266Z" fill="#F9CA80"/>
<path d="M134.39 68.3896C133.93 64.1449 132.154 62.3689 128.054 62.0535C130.241 59.9071 132.429 60.4969 134.287 62.362C136.111 64.1998 136.276 66.3461 134.39 68.3896Z" fill="#F9CA80"/>
<path d="M65.3302 150.341C67.4217 150.924 66.9829 152.371 66.016 153.372C64.5759 154.86 62.9027 154.826 61.5244 153.05C61.7918 150.732 64.1714 151.397 65.3302 150.341Z" fill="#F5935C"/>
<path d="M42.4672 139.596C41.1506 138.025 39.7037 137.347 39.7243 135.653C39.7311 134.878 39.4705 134.028 40.2454 133.472C41.0203 132.917 41.4112 133.657 41.9117 134.055C42.6249 134.617 43.5918 135.221 42.8032 136.188C42.0352 137.12 42.1997 138.039 42.4672 139.596Z" fill="#F9CA80"/>
<path d="M48.4944 140.028C48.4189 140.995 48.1172 142.037 47.3904 142.03C45.9435 142.016 45.5115 140.666 45.1549 139.493C44.9492 138.8 45.1481 137.943 45.9984 138.032C47.2052 138.163 48.1447 138.889 48.4944 140.028Z" fill="#F5935C"/>
<path d="M149.503 46.2131C148.831 45.8633 148.152 45.5136 147.48 45.157C149.305 44.5193 150.642 42.7364 152.802 42.8941L152.829 42.9353C152.329 44.6564 149.366 43.861 149.503 46.2131Z" fill="#F7DBA1"/>
<path d="M150.82 47.6462C150.175 47.3445 149.613 46.9673 149.469 46.1925C150.573 46.069 150.929 46.6382 150.82 47.6462Z" fill="#F7DBA1"/>
<path d="M152.801 42.9012C153.041 42.7366 153.288 42.572 153.528 42.4075C153.583 42.5172 153.637 42.6201 153.692 42.7298C153.404 42.7984 153.116 42.8669 152.828 42.9424L152.801 42.9012Z" fill="#F7DBA1"/>
<path d="M135.816 42.7021C136.282 43.0999 136.563 43.5387 136.179 44.1422C135.891 43.8542 135.597 43.5661 135.309 43.2781C135.48 43.093 135.651 42.8942 135.816 42.7021Z" fill="#F7DBA1"/>
<path d="M128.101 62.0261C128.005 62.6296 127.477 62.6227 127.052 62.7667C127.401 62.5198 127.751 62.273 128.101 62.0261Z" fill="#F9CA80"/>
<path d="M133.587 69.0068C133.827 68.7463 134.067 68.4857 134.307 68.2251C134.307 68.712 134.094 68.9931 133.587 69.0068Z" fill="#F9CA80"/>
<path d="M133.306 69.4937C133.47 69.3223 133.573 69.1303 133.628 68.9109C133.518 69.1098 133.409 69.3017 133.306 69.4937Z" fill="#F9CA80"/>
<path d="M136.948 34.2336C136.872 34.3022 136.797 34.3708 136.728 34.4393C136.66 34.3639 136.543 34.2816 136.543 34.2131C136.55 34.1376 136.673 34.0759 136.749 34.0073C136.817 34.0828 136.886 34.1582 136.948 34.2336Z" fill="#17919C"/>
<path d="M42.7485 140.378L42.8239 140.611L42.625 140.583L42.7485 140.378Z" fill="#F9CA80"/>
<path d="M151.43 48.003C150.936 48.2635 150.881 47.8658 150.758 47.5641C151.3 47.2281 151.272 47.7492 151.43 48.003Z" fill="#F7DBA1"/>
<path d="M144.971 119.085C143.332 119.079 142.66 118.434 142.811 117.399C142.989 116.144 143.565 114.957 145.108 114.889C146.274 114.841 146.706 115.657 146.685 116.651C146.658 118.077 145.958 118.983 144.971 119.085Z" fill="#151C1E"/>
<path d="M112.967 147.434C112.823 148.743 112.027 149.504 110.841 149.696C109.778 149.875 109.099 149.12 109.058 148.133C109.003 146.919 109.579 145.918 110.882 145.692C112.185 145.466 112.597 146.446 112.967 147.434Z" fill="#151C1E"/>
</svg>
