<svg width="75" height="74" viewBox="0 0 75 74" fill="none" xmlns="http://www.w3.org/2000/svg">
<path d="M52.1474 26.0527C51.0058 26.1744 50.2149 26.3318 49.8423 26.4784C50.2149 26.6251 51.0077 26.7825 52.1474 26.9041C52.1328 26.7646 52.1255 26.6215 52.1255 26.4784C52.1255 26.3353 52.1328 26.1922 52.1474 26.0527Z" fill="url(#paint0_linear_17_145)"/>
<path d="M37.4799 0.521484C23.1685 0.521484 10.7294 8.36973 4.40209 19.9114H18.4851V28.2264H1.10692C0.909644 28.9901 0.737944 29.7646 0.58999 30.5462H25.945V38.8613H0C0.0347053 39.6411 0.0931564 40.4155 0.175353 41.181H33.4048V49.4961H2.09693C2.38005 50.2813 2.69057 51.0557 3.02484 51.8159H40.8646V60.1309H8.11922C8.77131 60.9322 9.45628 61.7067 10.1723 62.4507H48.3244V70.7658H22.0689C26.7706 72.8423 31.9873 73.9995 37.4817 73.9995C58.2026 73.9995 75 57.5518 75 37.2623C75 16.9727 58.2008 0.521484 37.4799 0.521484ZM32.5664 30.9093C32.3581 30.9093 32.1901 30.7447 32.1901 30.5408C32.1901 30.3369 32.3581 30.1724 32.5664 30.1724C32.7746 30.1724 32.9426 30.3369 32.9426 30.5408C32.9426 30.7447 32.7746 30.9093 32.5664 30.9093ZM35.0469 18.9849C35.1638 18.9849 35.2825 18.9813 35.3976 18.9759C34.4879 19.373 33.4797 19.593 32.4184 19.593C28.3707 19.593 25.0919 16.3789 25.0919 12.4155C25.0919 8.452 28.3725 5.24152 32.4184 5.24152C33.4797 5.24152 34.4861 5.4633 35.3976 5.85858C35.2825 5.85321 35.1638 5.84963 35.0469 5.84963C31.3425 5.84963 28.3415 8.79004 28.3415 12.4155C28.3415 16.0445 31.3444 18.9849 35.0469 18.9849ZM41.3249 11.9683H42.2839L42.5798 11.0758L42.8757 11.9683H43.8346L43.0602 12.5192L43.3561 13.4117L42.5816 12.8608L41.8071 13.4117L42.103 12.5192L41.3249 11.9683ZM45.2557 39.6357L44.2328 38.9078L43.2099 39.6357L43.6008 38.4588L42.5779 37.7309H43.8419L44.2328 36.554L44.6237 37.7309H45.8877L44.8648 38.4588L45.2557 39.6357ZM57.7332 12.3099C58.146 12.3099 58.4821 12.639 58.4821 13.0433C58.4821 13.4475 58.146 13.7766 57.7332 13.7766C57.3204 13.7766 56.9843 13.4475 56.9843 13.0433C56.9843 12.639 57.3204 12.3099 57.7332 12.3099ZM51.1282 46.8025C50.9346 46.8025 50.7775 46.6487 50.7775 46.4591C50.7775 46.2695 50.9346 46.1157 51.1282 46.1157C51.3218 46.1157 51.4789 46.2695 51.4789 46.4591C51.4789 46.6487 51.3218 46.8025 51.1282 46.8025ZM55.165 64.8492C54.7047 64.8492 54.3321 64.4843 54.3321 64.0336C54.3321 63.5829 54.7047 63.218 55.165 63.218C55.6253 63.218 55.9979 63.5829 55.9979 64.0336C55.9979 64.4843 55.6253 64.8492 55.165 64.8492ZM60.9864 52.9176L60.2539 52.3972L59.5214 52.9176L59.8009 52.0752L59.0684 51.5547H59.9744L60.2539 50.7123L60.5334 51.5547H61.4394L60.7069 52.0752L60.9864 52.9176ZM61.8193 27.5468C61.5362 27.5861 61.233 27.6201 60.9133 27.6523C60.3891 29.5035 58.6575 30.861 56.6007 30.861C54.544 30.861 52.8123 29.5017 52.2881 27.6523C51.9703 27.6201 51.6671 27.5861 51.3821 27.5468C49.2194 27.2517 48.9199 26.8582 48.9199 26.479C48.9199 26.0998 49.2176 25.7063 51.3821 25.4112C51.6652 25.3719 51.9685 25.3379 52.2881 25.3057C52.8123 23.4545 54.544 22.097 56.6007 22.097C58.6575 22.097 60.3891 23.4563 60.9133 25.3057C61.2311 25.3379 61.5343 25.3719 61.8193 25.4112C63.982 25.7063 64.2797 26.0998 64.2797 26.479C64.2797 26.86 63.982 27.2517 61.8193 27.5468ZM68.4169 40.1526C68.1265 40.1526 67.8909 39.9219 67.8909 39.6375C67.8909 39.3531 68.1265 39.1224 68.4169 39.1224C68.7074 39.1224 68.943 39.3531 68.943 39.6375C68.943 39.9219 68.7074 40.1526 68.4169 40.1526Z" fill="white"/>
<path d="M61.0776 26.4784C61.0776 26.6215 61.0703 26.7646 61.0557 26.9041C62.1973 26.7825 62.9882 26.6251 63.3608 26.4784C62.9882 26.3318 62.1955 26.1744 61.0557 26.0527C61.0685 26.1922 61.0776 26.3353 61.0776 26.4784Z" fill="url(#paint1_linear_17_145)"/>
<defs>
<linearGradient id="paint0_linear_17_145" x1="50.9939" y1="-6.39195" x2="50.9939" y2="75.8291" gradientUnits="userSpaceOnUse">
<stop stop-color="#2B5289"/>
<stop offset="1"/>
</linearGradient>
<linearGradient id="paint1_linear_17_145" x1="62.2081" y1="-6.39195" x2="62.2081" y2="75.8291" gradientUnits="userSpaceOnUse">
<stop stop-color="#2B5289"/>
<stop offset="1"/>
</linearGradient>
</defs>
</svg>
