<svg width="105" height="104" viewBox="0 0 105 104" fill="none" xmlns="http://www.w3.org/2000/svg">
<g filter="url(#filter0_d_17_145)">
<path d="M67.1474 37.0527C66.0058 37.1744 65.2149 37.3318 64.8423 37.4784C65.2149 37.6251 66.0077 37.7825 67.1474 37.9041C67.1328 37.7646 67.1255 37.6215 67.1255 37.4784C67.1255 37.3353 67.1328 37.1922 67.1474 37.0527Z" fill="url(#paint0_linear_17_145)"/>
<path d="M52.4799 11.5215C38.1685 11.5215 25.7294 19.3697 19.4021 30.9114H33.4851V39.2264H16.1069C15.9096 39.9901 15.7379 40.7646 15.59 41.5462H40.945V49.8613H15C15.0347 50.6411 15.0932 51.4155 15.1754 52.181H48.4048V60.4961H17.0969C17.3801 61.2813 17.6906 62.0557 18.0248 62.8159H55.8646V71.1309H23.1192C23.7713 71.9322 24.4563 72.7067 25.1723 73.4507H63.3244V81.7658H37.0689C41.7706 83.8423 46.9873 84.9995 52.4817 84.9995C73.2026 84.9995 90 68.5518 90 48.2623C90 27.9727 73.2008 11.5215 52.4799 11.5215ZM47.5664 41.9093C47.3581 41.9093 47.1901 41.7447 47.1901 41.5408C47.1901 41.3369 47.3581 41.1724 47.5664 41.1724C47.7746 41.1724 47.9426 41.3369 47.9426 41.5408C47.9426 41.7447 47.7746 41.9093 47.5664 41.9093ZM50.0469 29.9849C50.1638 29.9849 50.2825 29.9813 50.3976 29.9759C49.4879 30.373 48.4797 30.593 47.4184 30.593C43.3707 30.593 40.0919 27.3789 40.0919 23.4155C40.0919 19.452 43.3725 16.2415 47.4184 16.2415C48.4797 16.2415 49.4861 16.4633 50.3976 16.8586C50.2825 16.8532 50.1638 16.8496 50.0469 16.8496C46.3425 16.8496 43.3415 19.79 43.3415 23.4155C43.3415 27.0445 46.3444 29.9849 50.0469 29.9849ZM56.3249 22.9683H57.2839L57.5798 22.0758L57.8757 22.9683H58.8346L58.0602 23.5192L58.3561 24.4117L57.5816 23.8608L56.8071 24.4117L57.103 23.5192L56.3249 22.9683ZM60.2557 50.6357L59.2328 49.9078L58.2099 50.6357L58.6008 49.4588L57.5779 48.7309H58.8419L59.2328 47.554L59.6237 48.7309H60.8877L59.8648 49.4588L60.2557 50.6357ZM72.7332 23.3099C73.146 23.3099 73.4821 23.639 73.4821 24.0433C73.4821 24.4475 73.146 24.7766 72.7332 24.7766C72.3204 24.7766 71.9843 24.4475 71.9843 24.0433C71.9843 23.639 72.3204 23.3099 72.7332 23.3099ZM66.1282 57.8025C65.9346 57.8025 65.7775 57.6487 65.7775 57.4591C65.7775 57.2695 65.9346 57.1157 66.1282 57.1157C66.3218 57.1157 66.4789 57.2695 66.4789 57.4591C66.4789 57.6487 66.3218 57.8025 66.1282 57.8025ZM70.165 75.8492C69.7047 75.8492 69.3321 75.4843 69.3321 75.0336C69.3321 74.5829 69.7047 74.218 70.165 74.218C70.6253 74.218 70.9979 74.5829 70.9979 75.0336C70.9979 75.4843 70.6253 75.8492 70.165 75.8492ZM75.9864 63.9176L75.2539 63.3972L74.5214 63.9176L74.8009 63.0752L74.0684 62.5547H74.9744L75.2539 61.7123L75.5334 62.5547H76.4394L75.7069 63.0752L75.9864 63.9176ZM76.8193 38.5468C76.5362 38.5861 76.233 38.6201 75.9133 38.6523C75.3891 40.5035 73.6575 41.861 71.6007 41.861C69.544 41.861 67.8123 40.5017 67.2881 38.6523C66.9703 38.6201 66.6671 38.5861 66.3821 38.5468C64.2194 38.2517 63.9199 37.8582 63.9199 37.479C63.9199 37.0998 64.2176 36.7063 66.3821 36.4112C66.6652 36.3719 66.9685 36.3379 67.2881 36.3057C67.8123 34.4545 69.544 33.097 71.6007 33.097C73.6575 33.097 75.3891 34.4563 75.9133 36.3057C76.2311 36.3379 76.5343 36.3719 76.8193 36.4112C78.982 36.7063 79.2797 37.0998 79.2797 37.479C79.2797 37.86 78.982 38.2517 76.8193 38.5468ZM83.4169 51.1526C83.1265 51.1526 82.8909 50.9219 82.8909 50.6375C82.8909 50.3531 83.1265 50.1224 83.4169 50.1224C83.7074 50.1224 83.943 50.3531 83.943 50.6375C83.943 50.9219 83.7074 51.1526 83.4169 51.1526Z" fill="url(#paint1_linear_17_145)"/>
<path d="M76.0776 37.4784C76.0776 37.6215 76.0703 37.7646 76.0557 37.9041C77.1973 37.7825 77.9882 37.6251 78.3608 37.4784C77.9882 37.3318 77.1955 37.1744 76.0557 37.0527C76.0685 37.1922 76.0776 37.3353 76.0776 37.4784Z" fill="url(#paint2_linear_17_145)"/>
</g>
<defs>
<filter id="filter0_d_17_145" x="0" y="0.521484" width="105" height="103.479" filterUnits="userSpaceOnUse" color-interpolation-filters="sRGB">
<feFlood flood-opacity="0" result="BackgroundImageFix"/>
<feColorMatrix in="SourceAlpha" type="matrix" values="0 0 0 0 0 0 0 0 0 0 0 0 0 0 0 0 0 0 127 0" result="hardAlpha"/>
<feOffset dy="4"/>
<feGaussianBlur stdDeviation="7.5"/>
<feComposite in2="hardAlpha" operator="out"/>
<feColorMatrix type="matrix" values="0 0 0 0 1 0 0 0 0 1 0 0 0 0 1 0 0 0 1 0"/>
<feBlend mode="normal" in2="BackgroundImageFix" result="effect1_dropShadow_17_145"/>
<feBlend mode="normal" in="SourceGraphic" in2="effect1_dropShadow_17_145" result="shape"/>
</filter>
<linearGradient id="paint0_linear_17_145" x1="65.9939" y1="4.60805" x2="65.9939" y2="86.8291" gradientUnits="userSpaceOnUse">
<stop stop-color="#2B5289"/>
<stop offset="1"/>
</linearGradient>
<linearGradient id="paint1_linear_17_145" x1="52.4994" y1="4.60911" x2="52.4994" y2="86.8289" gradientUnits="userSpaceOnUse">
<stop stop-color="#2B5289"/>
<stop offset="1"/>
</linearGradient>
<linearGradient id="paint2_linear_17_145" x1="77.2081" y1="4.60805" x2="77.2081" y2="86.8291" gradientUnits="userSpaceOnUse">
<stop stop-color="#2B5289"/>
<stop offset="1"/>
</linearGradient>
</defs>
</svg>
