<svg width="47" height="27" viewBox="0 0 47 27" fill="none" xmlns="http://www.w3.org/2000/svg">
<rect x="0.5" y="0.5" width="46" height="26" stroke="#F2D861"/>
<path d="M15 12.5C14.1716 12.5 13.5 13.1716 13.5 14C13.5 14.8284 14.1716 15.5 15 15.5V12.5ZM36.0607 15.0607C36.6464 14.4749 36.6464 13.5251 36.0607 12.9393L26.5147 3.3934C25.9289 2.80761 24.9792 2.80761 24.3934 3.3934C23.8076 3.97919 23.8076 4.92893 24.3934 5.51472L32.8787 14L24.3934 22.4853C23.8076 23.0711 23.8076 24.0208 24.3934 24.6066C24.9792 25.1924 25.9289 25.1924 26.5147 24.6066L36.0607 15.0607ZM15 15.5H35V12.5H15V15.5Z" fill="#F2D861"/>
</svg>
