<svg width="73" height="16" viewBox="0 0 73 16" fill="none" xmlns="http://www.w3.org/2000/svg">
<rect width="73" height="15.7451" rx="7.87255" fill="url(#paint0_linear_2420_12455)" fill-opacity="0.5"/>
<g clip-path="url(#clip0_2420_12455)">
<path d="M19.8052 10.2518C19.2654 10.2518 18.7615 10.1302 18.3057 9.88682C17.8618 9.64349 17.5019 9.30282 17.226 8.85266C16.962 8.40249 16.8301 7.90366 16.8301 7.35616C16.8301 6.80866 16.962 6.30982 17.226 5.87182C17.4899 5.43382 17.8498 5.09316 18.3057 4.83766C18.7615 4.59432 19.2534 4.47266 19.8052 4.47266C20.3451 4.47266 20.8489 4.59432 21.2928 4.83766C21.7487 5.08099 22.1086 5.42166 22.3605 5.87182C22.6244 6.30982 22.7564 6.80866 22.7564 7.35616C22.7564 7.90366 22.6244 8.40249 22.3605 8.85266C22.0966 9.29066 21.7367 9.63132 21.2928 9.88682C20.8369 10.1302 20.3451 10.2518 19.8052 10.2518ZM19.8052 8.99866C20.2611 8.99866 20.633 8.85266 20.9089 8.54849C21.1848 8.24432 21.3288 7.85499 21.3288 7.35616C21.3288 6.85732 21.1848 6.45582 20.9089 6.16382C20.633 5.85966 20.2731 5.71366 19.8052 5.71366C19.3374 5.71366 18.9655 5.85966 18.6895 6.15166C18.4136 6.44366 18.2817 6.84516 18.2817 7.34399C18.2817 7.84282 18.4136 8.24432 18.6895 8.53632C18.9655 8.85266 19.3374 8.99866 19.8052 8.99866Z" fill="white"/>
<path d="M24.9407 6.34629C25.0727 6.13946 25.2646 5.96913 25.5045 5.83529C25.7445 5.70146 26.0324 5.64062 26.3563 5.64062C26.7402 5.64062 27.0761 5.73796 27.388 5.92046C27.6999 6.10296 27.9399 6.37063 28.1078 6.72346C28.2878 7.07629 28.3837 7.47779 28.3837 7.94012C28.3837 8.40246 28.2878 8.80396 28.1078 9.15679C27.9279 9.50962 27.6879 9.77729 27.388 9.97196C27.0761 10.1545 26.7402 10.2518 26.3563 10.2518C26.0444 10.2518 25.7565 10.191 25.5045 10.0571C25.2646 9.92329 25.0727 9.76512 24.9407 9.55829V11.5293H23.5371V5.71363H24.9407V6.34629ZM26.9441 7.94012C26.9441 7.59946 26.8482 7.33179 26.6442 7.13713C26.4523 6.94246 26.2123 6.84512 25.9244 6.84512C25.6485 6.84512 25.4086 6.94246 25.2046 7.13713C25.0127 7.33179 24.9167 7.61162 24.9167 7.95229C24.9167 8.29296 25.0127 8.56062 25.2046 8.76746C25.3966 8.96212 25.6365 9.05946 25.9244 9.05946C26.2123 9.05946 26.4403 8.96212 26.6442 8.76746C26.8482 8.56062 26.9441 8.29296 26.9441 7.94012Z" fill="white"/>
<path d="M33.4343 7.87937C33.4343 8.01321 33.4223 8.14704 33.4103 8.28087H30.2312C30.2552 8.56071 30.3391 8.77971 30.5071 8.92571C30.675 9.07171 30.867 9.14471 31.1069 9.14471C31.4548 9.14471 31.7067 8.99871 31.8387 8.70671H33.3383C33.2663 8.99871 33.1223 9.26637 32.9184 9.49754C32.7265 9.72871 32.4745 9.92337 32.1746 10.0572C31.8747 10.191 31.5388 10.264 31.1669 10.264C30.723 10.264 30.3151 10.1667 29.9672 9.98421C29.6193 9.80171 29.3434 9.53404 29.1515 9.18121C28.9595 8.82837 28.8516 8.42687 28.8516 7.96454C28.8516 7.50221 28.9475 7.08854 29.1395 6.74787C29.3314 6.39504 29.6073 6.12737 29.9552 5.94487C30.3031 5.76237 30.711 5.66504 31.1669 5.66504C31.6108 5.66504 32.0067 5.75021 32.3546 5.93271C32.7025 6.11521 32.9664 6.37071 33.1583 6.71137C33.3383 7.03987 33.4343 7.42921 33.4343 7.87937ZM31.9947 7.51437C31.9947 7.28321 31.9107 7.08854 31.7427 6.95471C31.5748 6.82087 31.3708 6.74787 31.1309 6.74787C30.891 6.74787 30.699 6.82087 30.5311 6.95471C30.3751 7.08854 30.2792 7.28321 30.2312 7.52654H31.9947V7.51437Z" fill="white"/>
<path d="M36.9609 5.66504C37.5008 5.66504 37.9207 5.83537 38.2446 6.17604C38.5685 6.51671 38.7244 6.97904 38.7244 7.57521V10.191H37.3328V7.75771C37.3328 7.45354 37.2489 7.22237 37.0929 7.06421C36.9369 6.89387 36.721 6.82087 36.4571 6.82087C36.1932 6.82087 35.9772 6.90604 35.8213 7.06421C35.6653 7.23454 35.5813 7.46571 35.5813 7.75771V10.191H34.1777V5.71371H35.5813V6.30987C35.7253 6.11521 35.9172 5.95704 36.1572 5.84754C36.3971 5.72587 36.661 5.66504 36.9609 5.66504Z" fill="white"/>
<path d="M41.7944 10.2518C41.3745 10.2518 40.9906 10.1788 40.6547 10.045C40.3188 9.91116 40.0549 9.71649 39.851 9.44882C39.659 9.18116 39.5511 8.86482 39.5391 8.49982H41.0386C41.0626 8.70666 41.1346 8.86482 41.2666 8.98649C41.3865 9.09599 41.5545 9.14466 41.7584 9.14466C41.9624 9.14466 42.1303 9.09599 42.2503 9.01082C42.3703 8.91349 42.4302 8.77965 42.4302 8.62149C42.4302 8.48766 42.3823 8.36599 42.2863 8.28082C42.1903 8.19566 42.0703 8.11049 41.9384 8.06182C41.8064 8.00099 41.6025 7.94016 41.3505 7.85499C40.9786 7.74549 40.6787 7.63599 40.4388 7.51432C40.1989 7.40482 39.9949 7.23449 39.827 7.01549C39.659 6.79649 39.5751 6.50449 39.5751 6.15166C39.5751 5.62849 39.767 5.21482 40.1629 4.92282C40.5468 4.61866 41.0626 4.47266 41.6864 4.47266C42.3223 4.47266 42.8381 4.61866 43.222 4.92282C43.6059 5.21482 43.8218 5.62849 43.8458 6.16382H42.3223C42.3103 5.98132 42.2383 5.83532 42.1183 5.73799C41.9984 5.62849 41.8304 5.57982 41.6385 5.57982C41.4705 5.57982 41.3265 5.62849 41.2306 5.71366C41.1226 5.79882 41.0746 5.92049 41.0746 6.09082C41.0746 6.27332 41.1586 6.41932 41.3385 6.51666C41.5185 6.61399 41.7824 6.72349 42.1543 6.84516C42.5262 6.96682 42.8261 7.08849 43.0541 7.19799C43.294 7.30749 43.4979 7.47782 43.6659 7.68466C43.8338 7.90366 43.9178 8.17132 43.9178 8.51199C43.9178 8.82832 43.8338 9.12032 43.6659 9.38799C43.4979 9.65566 43.258 9.86249 42.9461 10.0207C42.5982 10.1788 42.2263 10.2518 41.7944 10.2518Z" fill="white"/>
<path d="M49.0885 7.87937C49.0885 8.01321 49.0766 8.14704 49.0646 8.28087H45.8855C45.9095 8.56071 45.9934 8.77971 46.1614 8.92571C46.3293 9.07171 46.5213 9.14471 46.7612 9.14471C47.1091 9.14471 47.361 8.99871 47.493 8.70671H48.9926C48.9206 8.99871 48.7766 9.26637 48.5727 9.49754C48.3808 9.72871 48.1288 9.92337 47.8289 10.0572C47.529 10.191 47.1931 10.264 46.8212 10.264C46.3773 10.264 45.9694 10.1667 45.6215 9.98421C45.2736 9.80171 44.9977 9.53404 44.8058 9.18121C44.6138 8.82837 44.5059 8.42687 44.5059 7.96454C44.5059 7.50221 44.6018 7.08854 44.7938 6.74787C44.9857 6.39504 45.2616 6.12737 45.6095 5.94487C45.9574 5.76237 46.3653 5.66504 46.8212 5.66504C47.2651 5.66504 47.661 5.75021 48.0089 5.93271C48.3568 6.11521 48.6207 6.37071 48.8126 6.71137C48.9806 7.03987 49.0885 7.42921 49.0885 7.87937ZM47.649 7.51437C47.649 7.28321 47.565 7.08854 47.397 6.95471C47.2291 6.82087 47.0251 6.74787 46.7852 6.74787C46.5453 6.74787 46.3533 6.82087 46.1854 6.95471C46.0294 7.08854 45.9335 7.28321 45.8855 7.52654H47.649V7.51437Z" fill="white"/>
<path d="M49.5449 7.94012C49.5449 7.47779 49.6289 7.07629 49.8088 6.72346C49.9888 6.37063 50.2287 6.10296 50.5406 5.92046C50.8525 5.73796 51.1885 5.64062 51.5723 5.64062C51.8963 5.64062 52.1722 5.70146 52.4241 5.83529C52.676 5.96913 52.856 6.12729 52.9879 6.34629V5.71363H54.3915V10.191H52.9879V9.55829C52.856 9.76513 52.664 9.93546 52.4121 10.0693C52.1722 10.2031 51.8843 10.264 51.5603 10.264C51.1885 10.264 50.8525 10.1666 50.5406 9.98413C50.2287 9.78946 49.9888 9.52179 49.8088 9.16896C49.6289 8.81612 49.5449 8.40246 49.5449 7.94012ZM52.9759 7.95229C52.9759 7.61162 52.88 7.34396 52.676 7.13713C52.4841 6.94246 52.2441 6.84513 51.9682 6.84513C51.6923 6.84513 51.4524 6.94246 51.2484 7.13713C51.0565 7.33179 50.9605 7.59946 50.9605 7.94012C50.9605 8.28079 51.0565 8.56063 51.2484 8.75529C51.4404 8.94996 51.6803 9.04729 51.9682 9.04729C52.2441 9.04729 52.4841 8.94996 52.676 8.75529C52.88 8.56063 52.9759 8.29296 52.9759 7.95229Z" fill="white"/>
<path d="M14.1431 7.51448C14.1431 10.8725 11.4558 13.5978 8.14477 13.5978C4.83372 13.5978 2.14648 10.8725 2.14648 7.51448C2.14648 4.15649 4.83372 1.43115 8.14477 1.43115C11.4558 1.43115 14.1431 4.15649 14.1431 7.51448Z" fill="#2081E2"/>
<path d="M5.10927 7.72132L5.13326 7.68482L6.69282 5.21498C6.71681 5.17848 6.76479 5.17848 6.78879 5.22715C7.05271 5.82332 7.26865 6.55332 7.17268 7.01565C7.12469 7.21032 7.00473 7.46582 6.86077 7.69698C6.84877 7.73348 6.82478 7.76998 6.80078 7.79431C6.78879 7.80648 6.77679 7.81865 6.7528 7.81865H5.14526C5.10927 7.80648 5.08527 7.75782 5.10927 7.72132Z" fill="white"/>
<path d="M12.0559 8.18342V8.57276C12.0559 8.59709 12.0439 8.60926 12.0199 8.62142C11.9 8.67009 11.4801 8.86476 11.3121 9.10809C10.8682 9.72859 10.5323 10.6168 9.78855 10.6168H6.66944C5.56576 10.6168 4.66602 9.70426 4.66602 8.57276V8.53626C4.66602 8.51192 4.69001 8.48759 4.714 8.48759H6.4655C6.50149 8.48759 6.52548 8.52409 6.52548 8.54842C6.51349 8.65792 6.53748 8.77959 6.58547 8.88909C6.69344 9.10809 6.90938 9.22976 7.13731 9.22976H8.00106V8.54842H7.14931C7.10132 8.54842 7.07733 8.49976 7.10132 8.46326C7.11332 8.45109 7.12531 8.43892 7.13731 8.41459C7.22129 8.29292 7.32926 8.12259 7.44922 7.91576C7.5332 7.78192 7.60518 7.62376 7.66516 7.47776C7.67716 7.45342 7.68915 7.42909 7.70115 7.39259C7.71315 7.34392 7.73714 7.29526 7.74914 7.25876C7.76113 7.22226 7.77313 7.18576 7.78513 7.14926C7.80912 7.02759 7.82112 6.89376 7.82112 6.74776C7.82112 6.69909 7.82112 6.63826 7.80912 6.57742C7.80912 6.51659 7.79712 6.45576 7.79712 6.39492C7.79712 6.34626 7.78513 6.28542 7.77313 6.23676C7.76113 6.15159 7.74914 6.07859 7.72514 5.99342L7.71315 5.96909C7.70115 5.92042 7.68915 5.85959 7.66516 5.81092C7.61717 5.64059 7.55719 5.47026 7.49721 5.32426C7.47321 5.26342 7.44922 5.20259 7.42523 5.14176C7.38924 5.05659 7.35325 4.97142 7.31726 4.89842C7.30526 4.86192 7.28127 4.83759 7.26927 4.80109C7.25728 4.76459 7.23328 4.72809 7.22129 4.69159C7.20929 4.66726 7.19729 4.64292 7.1853 4.61859L7.07733 4.42392C7.06533 4.39959 7.08932 4.36309 7.11332 4.37526L7.77313 4.55776L7.8571 4.58209L7.95308 4.60642L7.98907 4.61859V4.21709C7.98907 4.02242 8.14502 3.86426 8.32497 3.86426C8.42094 3.86426 8.50492 3.90076 8.5649 3.96159C8.62489 4.02242 8.66088 4.10759 8.66088 4.20492V4.78892L8.73286 4.81326C8.73286 4.81326 8.74485 4.81326 8.74485 4.82542C8.75685 4.83759 8.78084 4.86192 8.81683 4.88626C8.84082 4.91059 8.86482 4.93492 8.90081 4.95926C8.96079 5.00792 9.04477 5.08092 9.12874 5.15392C9.15274 5.17826 9.17673 5.19042 9.18872 5.21476C9.29669 5.31209 9.41666 5.43376 9.53663 5.56759C9.57262 5.60409 9.59661 5.64059 9.6326 5.67709C9.66859 5.71359 9.69258 5.76226 9.72857 5.79876C9.76456 5.84742 9.81255 5.90826 9.84854 5.95692C9.86053 5.98126 9.88453 6.00559 9.89652 6.04209C9.94451 6.11509 9.9805 6.18809 10.0285 6.26109C10.0405 6.29759 10.0645 6.33409 10.0765 6.37059C10.1245 6.46792 10.1604 6.56526 10.1724 6.67476C10.1844 6.69909 10.1844 6.72342 10.1844 6.73559C10.1964 6.75992 10.1964 6.79642 10.1964 6.83292C10.2084 6.94242 10.1964 7.03976 10.1844 7.14926C10.1724 7.19792 10.1604 7.23442 10.1485 7.28309C10.1365 7.31959 10.1245 7.36826 10.1005 7.41692C10.0645 7.50209 10.0165 7.58726 9.9685 7.67242C9.95651 7.69676 9.93251 7.73326 9.90852 7.76976C9.88453 7.80626 9.86053 7.83059 9.84854 7.86709C9.82454 7.90359 9.78855 7.94009 9.76456 7.97659C9.74057 8.01309 9.71657 8.04959 9.68058 8.08609C9.64459 8.13476 9.59661 8.18342 9.56062 8.23209C9.53663 8.25642 9.51263 8.29292 9.47664 8.31726C9.45265 8.34159 9.42866 8.37809 9.39267 8.40242C9.35668 8.43892 9.32069 8.47542 9.2847 8.49976L9.21272 8.56059C9.20072 8.57276 9.18872 8.57276 9.17673 8.57276H8.64888V9.25409H9.30869C9.45265 9.25409 9.59661 9.20542 9.70458 9.10809C9.74057 9.07159 9.90852 8.92559 10.1125 8.70659C10.1245 8.69442 10.1245 8.69442 10.1365 8.69442L11.9959 8.12259C12.0319 8.11042 12.0559 8.14692 12.0559 8.18342Z" fill="white"/>
</g>
<path d="M58.6855 7.37256C58.4094 7.37256 58.1855 7.59642 58.1855 7.87256C58.1855 8.1487 58.4094 8.37256 58.6855 8.37256V7.37256ZM66.9116 8.22611C67.1069 8.03085 67.1069 7.71427 66.9116 7.51901L63.7297 4.33702C63.5344 4.14176 63.2178 4.14176 63.0226 4.33702C62.8273 4.53229 62.8273 4.84887 63.0226 5.04413L65.851 7.87256L63.0226 10.701C62.8273 10.8962 62.8273 11.2128 63.0226 11.4081C63.2178 11.6034 63.5344 11.6034 63.7297 11.4081L66.9116 8.22611ZM58.6855 8.37256H66.5581V7.37256H58.6855V8.37256Z" fill="white"/>
<defs>
<linearGradient id="paint0_linear_2420_12455" x1="-1.63748" y1="15.7451" x2="82.191" y2="15.7451" gradientUnits="userSpaceOnUse">
<stop stop-color="#2B2B2B"/>
<stop offset="1" stop-color="white"/>
</linearGradient>
<clipPath id="clip0_2420_12455">
<rect width="52.2451" height="12.1667" fill="white" transform="translate(2.14648 1.43115)"/>
</clipPath>
</defs>
</svg>
