<svg width="48" height="48" viewBox="0 0 48 48" fill="none" xmlns="http://www.w3.org/2000/svg">
<path d="M48 24C48 37.2541 37.2541 48 24 48C10.7459 48 0 37.2541 0 24C0 10.7459 10.7459 0 24 0C37.2569 0 48 10.7459 48 24Z" fill="white"/>
<path d="M11.8406 24.8069L11.9442 24.6441L18.1875 14.8772C18.2787 14.7342 18.4933 14.749 18.5623 14.9043C19.6053 17.2419 20.5053 20.149 20.0837 21.9589C19.9037 22.7036 19.4106 23.7121 18.8557 24.6441C18.7842 24.7798 18.7053 24.9129 18.6215 25.0412C18.582 25.1003 18.5155 25.1349 18.4439 25.1349H12.023C11.8505 25.1349 11.7494 24.9474 11.8406 24.8069Z" fill="#006AFF"/>
<path d="M39.6693 26.6209V28.1669C39.6693 28.2557 39.6151 28.3346 39.5362 28.3691C39.0529 28.5763 37.3983 29.3357 36.7104 30.2924C34.9548 32.736 33.6134 36.23 30.615 36.23H18.1061C13.6726 36.23 10.08 32.625 10.08 28.1768V28.0337C10.08 27.9154 10.1762 27.8192 10.2946 27.8192H17.2677C17.4058 27.8192 17.5069 27.9475 17.4946 28.0831C17.4453 28.5368 17.5291 29.0004 17.7436 29.422C18.1579 30.2628 19.016 30.788 19.9431 30.788H23.3952V28.0929H19.9826C19.8075 28.0929 19.7039 27.8908 19.8051 27.7477C19.842 27.691 19.8839 27.6318 19.9283 27.5653C20.2514 27.1067 20.7124 26.394 21.1711 25.5828C21.4842 25.0354 21.7875 24.451 22.0316 23.8641C22.081 23.7581 22.1204 23.6496 22.1598 23.5436C22.2265 23.3562 22.2955 23.1811 22.3448 23.0061C22.3941 22.8581 22.4335 22.7028 22.473 22.5573C22.5889 22.0592 22.6382 21.5315 22.6382 20.9841C22.6382 20.7696 22.6284 20.5452 22.6086 20.3307C22.5988 20.0964 22.5692 19.8622 22.5396 19.6279C22.5198 19.4208 22.4829 19.2161 22.4434 19.0016C22.3941 18.6885 22.3251 18.3778 22.2461 18.0646L22.219 17.9463C22.1598 17.7318 22.1106 17.5271 22.0415 17.3126C21.8467 16.6394 21.6223 15.9835 21.3856 15.3695C21.2993 15.1254 21.2006 14.8912 21.102 14.6569C20.9565 14.3043 20.8086 13.9838 20.673 13.6805C20.6039 13.5424 20.5447 13.4166 20.4856 13.2884C20.419 13.1429 20.35 12.9975 20.281 12.8593C20.2316 12.7533 20.1749 12.6547 20.1355 12.5561L19.7138 11.7769C19.6546 11.6709 19.7533 11.5451 19.8691 11.5772L22.5075 12.2922H22.5149C22.5198 12.2922 22.5223 12.2947 22.5248 12.2947L22.8725 12.3909L23.2547 12.4993L23.3952 12.5388V10.9706C23.3952 10.2136 24.0018 9.59961 24.7514 9.59961C25.1262 9.59961 25.4665 9.75246 25.7106 10.0015C25.9547 10.2506 26.1076 10.5909 26.1076 10.9706V13.2983L26.3886 13.3772C26.4109 13.3846 26.4331 13.3944 26.4528 13.4092C26.5218 13.461 26.6204 13.5375 26.7462 13.6311C26.8449 13.7101 26.9509 13.8062 27.0791 13.9048C27.3331 14.1095 27.6363 14.3734 27.9692 14.6766C28.058 14.7531 28.1443 14.832 28.2232 14.9109C28.6523 15.3103 29.1331 15.7789 29.5917 16.2967C29.7199 16.4421 29.8457 16.5901 29.9739 16.7454C30.1021 16.9032 30.2378 17.0586 30.3561 17.214C30.5115 17.4211 30.6791 17.6356 30.8246 17.86C30.8937 17.966 30.9725 18.0745 31.0391 18.1805C31.2265 18.4641 31.3917 18.7575 31.5495 19.0509C31.6161 19.1865 31.6852 19.3345 31.7443 19.48C31.9194 19.872 32.0575 20.2715 32.1462 20.671C32.1734 20.7573 32.1931 20.851 32.203 20.9348V20.9545C32.2325 21.0729 32.2424 21.1987 32.2523 21.3269C32.2917 21.7361 32.272 22.1455 32.1833 22.5573C32.1462 22.7324 32.097 22.8975 32.0378 23.0726C31.9786 23.2403 31.9194 23.4153 31.843 23.5806C31.695 23.9233 31.5199 24.2661 31.3128 24.5866C31.2462 24.7049 31.1674 24.8307 31.0884 24.9491C31.0021 25.0748 30.9134 25.1932 30.8345 25.3091C30.726 25.4571 30.6101 25.6124 30.4917 25.7504C30.3857 25.8959 30.2772 26.0414 30.1588 26.1696C29.9937 26.3644 29.8358 26.5494 29.6706 26.7269C29.572 26.8428 29.466 26.9612 29.3574 27.0672C29.2514 27.1855 29.1429 27.2916 29.0443 27.3902C28.8791 27.5554 28.741 27.6836 28.6251 27.7896L28.3539 28.0387C28.3145 28.0732 28.2627 28.0929 28.2084 28.0929H26.1076V30.788H28.7509C29.3427 30.788 29.9049 30.5784 30.3586 30.1938C30.5139 30.0582 31.192 29.4713 31.9934 28.5861C32.0205 28.5565 32.055 28.5343 32.0945 28.5245L39.3956 26.4137C39.5312 26.3743 39.6693 26.4779 39.6693 26.6209Z" fill="#006AFF"/>
</svg>
