<svg width="638" height="637" viewBox="0 0 638 637" fill="none" xmlns="http://www.w3.org/2000/svg">
<path d="M365.368 391.58C364.755 391.946 364.349 392.52 363.959 393.109C363.688 392.217 363.33 391.349 362.892 390.537C361.626 388.188 359.396 386.659 357.206 385.266C355.096 383.856 352.501 382.352 349.905 382.901C348.631 382.145 347.357 381.372 346.115 380.568C345.47 380.146 344.825 379.716 344.18 379.286C343.304 378.052 342.141 377.017 340.947 376.069C339.283 374.532 337.483 373.195 335.58 372C334.744 371.108 333.813 370.288 332.873 369.532C329.521 366.578 325.189 365.248 320.889 364.356C318.262 363.783 319.369 364.022 316.661 363.289C315.443 362.915 314.153 362.907 312.959 363.393C310.435 364.993 308.683 367.557 307.711 370.479C306.995 370.153 306.151 370.057 305.195 370.249C304.2 371.3 303.197 372.335 302.17 373.362C301.915 373.656 301.652 373.943 301.389 374.23C300.641 375.026 299.9 375.83 299.152 376.634C298.117 377.837 297.082 379.047 296.023 380.226C295.099 381.253 294.159 382.272 293.228 383.283C292.654 384.032 292.089 384.772 291.484 385.497C291.014 386.062 290.536 386.627 290.051 387.177C289.836 387.416 289.629 387.686 289.398 387.933C289.238 388.921 289.223 389.94 289.382 390.935C289.047 393.188 289.573 395.744 290.64 397.44C291.261 399.455 292.208 401.358 293.49 403.022C293.562 402.982 293.642 402.958 293.737 402.958C294.406 402.998 294.987 403.309 295.577 403.611C296.58 403.962 297.535 404.424 298.435 404.989C298.937 405.307 299.486 405.53 300.004 405.825C300.362 405.921 300.752 406.215 301.031 406.438C301.047 406.446 301.063 406.462 301.071 406.478C301.079 405.96 301.923 405.881 302.042 406.398C302.098 406.621 302.241 406.796 302.337 406.98C302.464 407.218 302.512 407.465 302.52 407.736C302.528 407.999 302.313 408.222 302.066 408.269C302.233 408.429 302.4 408.588 302.56 408.747C302.966 409.153 302.56 409.743 302.058 409.679C304.789 411.096 307.704 412.147 310.713 412.784C312.059 413.15 313.277 413.039 314.328 412.593C316.47 413.74 318.652 414.823 320.881 415.802C322.084 416.328 323.326 416.789 324.536 417.307C326.161 418.756 328.056 420.388 330.102 421.662C330.198 421.806 330.301 421.941 330.397 422.092C331.105 423.279 331.734 424.76 333.199 424.935C333.223 424.935 333.239 424.927 333.263 424.919C333.598 426.862 334.561 428.821 336.345 429.283C336.91 430.039 337.539 430.74 338.248 431.345C338.502 431.225 338.773 431.17 339.036 431.066C339.195 431.002 339.323 430.907 339.482 430.835C339.681 430.748 339.864 430.652 340.047 430.549C340.055 430.549 340.055 430.541 340.063 430.541C340.246 430.437 340.421 430.318 340.597 430.19C340.875 429.991 341.226 429.84 341.56 429.712C341.703 429.625 341.847 429.545 341.998 429.474C342.301 429.338 342.707 429.227 343.065 429.251C343.344 429.131 343.638 429.06 343.941 429.06C344.06 429.06 344.188 429.115 344.291 429.203C344.586 429.036 344.888 428.948 345.215 428.908C345.653 427.825 345.923 426.711 346.059 425.572C348.456 423.772 349.809 421.049 350.398 417.96C350.836 417.689 351.25 417.379 351.641 417.012C354.754 414.568 356.936 411.184 358.855 407.736C359.213 407.425 359.547 407.083 359.866 406.717C362.247 407.059 364.484 406.311 365.28 403.373C365.925 401.103 365.878 398.643 365.201 396.381C365.511 395.521 365.798 394.662 366.053 393.794C366.172 393.188 366.323 391.381 365.368 391.58Z" fill="#F7C66B"/>
<path d="M304.63 494.559C304.662 494.495 304.71 494.448 304.741 494.392C304.463 494.273 304.296 493.938 304.471 493.612C304.741 493.118 305.147 492.863 305.49 492.449C305.856 492.003 306.214 491.549 306.621 491.127C307.058 490.673 307.361 490.14 307.783 489.67C308.205 489.2 308.667 488.763 309.105 488.317C310.029 487.361 310.944 486.382 311.916 485.482C312.393 485.036 312.919 484.67 313.444 484.288C313.468 484.272 313.5 484.248 313.524 484.232C313.755 482.002 313.245 479.669 312.019 477.878C311.287 476.715 309.304 476.851 306.867 477.631C306.589 476.405 306.023 475.29 305.028 474.502C303.491 473.873 302.695 473.992 300.227 472.208C300.091 472.105 299.94 472.009 299.797 471.922C299.462 471.563 299.104 471.213 298.714 470.903C298.148 470.727 297.663 470.759 297.249 470.942C295.393 469.7 293.538 468.442 291.667 467.216C289.39 465.743 287.089 464.31 284.716 462.996C282.98 461.411 281.228 459.859 279.413 458.362C274.779 454.412 269.372 451.586 264.077 448.6C263.902 448.464 263.719 448.361 263.535 448.297C262.126 447.493 260.733 446.681 259.355 445.821C258.726 445.303 258.057 444.634 257.261 444.977C257.006 445.072 256.775 445.224 256.56 445.399C255.143 443.575 253.407 442.126 251.265 441.449C251.066 441.155 250.859 440.844 250.636 440.51C249.752 439.236 248.781 438.025 247.802 436.823C246.798 435.82 246.153 434.227 244.792 433.718C244.059 433.511 243.47 433.837 243.008 434.379C242.913 433.184 242.745 431.998 242.323 430.883C241.559 429.474 240.779 429.8 240.174 430.62C239.998 429.529 239.664 428.486 238.955 427.571C238.342 426.719 237.124 426.615 236.264 427.117C234.998 427.993 234.44 429.522 233.987 430.931C233.676 431.894 233.421 432.866 233.222 433.853C232.259 434.41 231.455 435.629 230.77 437.197C229.209 437.954 227.911 439.546 227.083 441.011C223.532 447.381 223.723 455.113 224.264 462.184C224.352 463.505 224.503 464.819 224.678 466.125C223.842 467.248 223.174 468.522 222.568 469.764C221.366 471.285 220.259 473.148 219.344 475.21C219.105 475.083 218.866 474.971 218.611 474.86C216.724 473.944 215.888 476.5 215.052 477.703C210.019 488.476 220.745 503.923 231.709 506.049C232.569 506.081 233.358 505.914 234.122 505.635C237.673 509.959 242.284 513.414 247.316 515.11C248.009 515.333 248.805 515.54 249.641 515.692C251.297 517.794 253.264 519.649 255.469 521.178C256.552 521.879 257.691 522.484 258.854 523.041C258.67 524.259 258.376 525.796 258.694 529.164C258.965 530.526 259.283 532.039 260.191 533.106C260.35 533.066 260.51 533.034 260.669 533.002C261.824 532.779 262.859 532.333 263.926 531.871C264.467 531.633 264.969 531.314 265.518 531.091C265.757 530.996 265.996 530.868 266.243 530.789C266.513 530.693 266.848 530.741 267.135 530.741C267.564 530.741 267.987 530.725 268.409 530.765C268.496 530.741 268.576 530.717 268.655 530.701C269.475 529.387 270.152 528.018 270.71 526.6C270.933 526.56 271.164 526.521 271.386 526.457C272.127 526.385 272.875 526.298 273.337 525.629C274.118 524.649 274.476 523.431 274.627 522.189C275.631 521.433 276.57 520.581 277.454 519.673C277.796 519.466 278.131 519.259 278.457 519.044C282.47 516.599 285.838 513.263 288.88 509.72C291.627 506.495 294.446 503.167 296.269 499.305C296.636 498.509 296.978 497.314 297.201 495.992C297.671 496.144 298.156 496.255 298.626 496.343C300.808 496.51 302.759 495.889 304.55 494.862C304.566 494.766 304.574 494.663 304.63 494.559ZM255.366 494.089C255.509 494.121 255.661 494.153 255.804 494.193C256.274 494.75 256.736 495.324 257.173 495.905C257.229 496.136 257.285 496.367 257.349 496.598C256.704 495.754 256.043 494.918 255.366 494.089Z" fill="#F7C66B"/>
<path d="M188.171 514.036C187.645 511.806 186.841 510.93 185.925 510.874C186.029 510.078 186.045 509.266 185.901 508.446C185.67 507.228 185.4 505.858 184.388 505.054C182.676 503.541 181.458 506.185 180.813 507.482C180.773 507.554 180.734 507.626 180.694 507.697C180.12 507.745 179.571 508.072 179.308 508.701C178.313 510.373 178.002 512.363 177.397 514.219C176.338 516.146 175.574 518.216 174.786 520.278C173.742 522.07 172.675 523.845 171.64 525.637C170.836 525.828 170.191 526.322 169.586 526.895C168.408 527.906 167.349 529.029 166.425 530.279C165.517 531.505 164.673 532.771 163.853 534.053C162.675 535.463 161.56 536.936 160.493 538.425C155.715 545.639 150.484 553.315 149.624 562.137C149.592 562.463 149.568 562.79 149.56 563.132C148.326 567.129 149.871 572.624 153.048 571.62C153.621 571.995 154.338 572.066 155.19 571.636C155.588 571.405 155.946 571.127 156.289 570.832C156.305 570.848 156.313 570.864 156.328 570.88C157.085 571.429 157.65 571.174 158.104 570.553C158.614 570.521 159.123 570.267 159.49 569.837C159.569 569.741 159.633 569.638 159.705 569.534C159.665 569.59 159.649 569.622 159.673 569.598C159.72 569.542 159.744 569.51 159.784 569.47C159.943 569.375 160.111 569.303 160.286 569.24C160.294 569.24 160.294 569.24 160.302 569.232C164.641 568.754 167.189 560.186 168.559 556.595C170.12 552.009 170.446 551.372 172.628 545.575C172.484 545.949 172.341 546.323 172.198 546.698C172.341 546.316 172.492 545.941 172.636 545.559C173.201 544.444 173.766 543.33 174.348 542.215C175.048 540.845 175.789 539.492 176.561 538.154C177.541 536.76 178.265 535.216 178.393 533.512C178.544 533.209 178.687 532.915 178.823 532.612C179.149 532.389 179.42 532.071 179.627 531.704C179.754 531.513 179.874 531.314 179.993 531.123C180.097 530.964 180.2 530.805 180.296 530.637C180.71 529.961 181.108 529.284 181.514 528.599C182.087 527.667 182.637 526.712 183.138 525.74C184.404 524.419 185.662 523.089 186.777 521.64C188.378 519.506 188.72 516.599 188.171 514.036Z" fill="#A37421"/>
<path d="M256.314 561.006C257.174 559.342 257.428 557.399 257.182 555.528C257.07 553.991 255.693 550.751 253.837 552.303C253.041 552.948 252.691 554.031 252.117 554.867C252.07 554.955 252.03 555.042 251.982 555.13C250.939 553.84 249.514 554.389 248.622 555.855C247.181 557.582 245.986 559.501 244.84 561.436C242.929 563.889 241.201 566.5 239.433 569.04C236.909 572.799 234.91 576.891 233.374 581.151C232.378 583.898 231.598 586.733 231.072 589.608C230.157 592.466 230.643 600.373 235.07 598.772C236.718 597.737 237.49 595.898 238.366 594.234C239.178 594.242 239.99 593.788 240.803 592.992C241.105 593.223 241.448 593.414 241.854 593.533C243.669 593.326 244.059 591.113 244.919 589.815C244.935 589.783 244.959 589.743 244.975 589.703C246.241 588.079 246.958 586.009 247.802 584.161C248.964 581.295 249.928 578.357 250.859 575.41C251.608 573.197 252.038 571.692 252.412 570.458C252.444 570.45 252.468 570.45 252.5 570.45C254.06 569.789 254.363 567.488 254.825 566.023C254.841 565.975 254.848 565.927 254.864 565.879C255.215 565.059 255.629 564.096 256.075 562.949C256.202 562.44 256.298 561.747 256.314 561.006Z" fill="#A37421"/>
<path d="M306.079 430.509C306.326 430.899 306.215 431.225 305.976 431.472C305.952 431.361 305.92 431.241 305.896 431.13C305.904 430.302 305.825 429.481 305.689 428.677C305.466 427.14 305.116 425.572 304.176 424.298C303.085 422.912 301.541 421.726 299.797 421.352C299.168 421.344 298.634 421.638 298.212 422.076C298.165 422.092 298.109 422.108 298.061 422.132C296.142 419.759 293.889 420.261 292.854 423.183C291.978 425.508 291.938 428.16 292.663 430.524C293.363 432.85 295.37 434.609 297.655 435.318C298.642 435.621 299.646 435.843 300.665 436.019C300.681 436.035 300.697 436.043 300.713 436.058C302.345 437.563 304.16 436.735 305.084 434.944C305.188 434.737 305.275 434.53 305.355 434.315C305.657 434.386 305.936 434.171 306.087 433.447C306.167 432.945 306.143 432.436 306.071 431.926C306.358 431.464 306.47 430.891 306.079 430.509Z" fill="#C2C2C2"/>
<path d="M310.761 411.606C310.475 411.335 310.124 411.152 309.71 411.152C309.36 409.52 308.572 408.166 306.955 408.508C306.899 408.524 306.852 408.548 306.804 408.564C306.016 408.23 305.02 408.262 303.754 408.843C302.401 409.448 301.302 410.555 300.267 411.598C298.602 413.708 298.284 416.495 298.555 419.083C298.746 421.129 299.486 422.546 300.498 423.414C301.135 424.863 302.432 426.241 304.105 426.241C304.789 426.161 305.339 425.811 305.801 425.341C307.417 425.524 308.954 423.454 310.013 421.535C311.072 420.691 311.462 419.011 311.82 417.777C312.76 414.456 312.011 411.94 310.761 411.606Z" fill="#F9691A"/>
<path d="M306.963 414.751C306.844 414.584 306.692 414.448 306.501 414.376C306.159 414.392 305.976 414.727 305.808 414.982C305.665 415.292 305.562 415.611 305.458 415.937C304.829 416.845 304.399 417.936 303.993 418.931C303.937 419.226 303.101 420.659 303.149 422.283C303.221 424.752 304.662 425.508 305.713 422.968C306.676 422.212 307.528 419.281 307.887 418.605C308.317 417.665 308.253 414.806 306.963 414.751Z" fill="#F2EF31"/>
<path d="M308.826 406.637C308.516 406.565 308.221 406.932 307.966 407.075C307.576 407.409 307.202 407.76 306.82 408.102C306.605 407.672 306.302 407.33 305.872 407.139C305.697 407.059 305.514 407.075 305.339 407.187C304.327 407.919 303.507 408.883 302.862 409.95C302.831 410.013 302.791 410.069 302.751 410.133C302.361 410.125 301.955 410.395 301.62 411.072C301.381 411.518 301.127 411.964 300.88 412.402C299.821 414.194 298.587 415.929 298.188 417.984C297.766 421.033 299.677 424.831 301.708 420.229C302.528 418.708 303.42 417.219 304.216 415.683C304.399 415.3 304.558 414.958 304.718 414.639C305.331 414.034 305.912 413.23 306.239 412.864C306.732 412.306 307.067 411.335 307.154 410.348C307.321 410.101 307.497 409.854 307.664 409.607C308.038 409.161 308.404 408.707 308.731 408.23C308.794 408.158 308.85 408.078 308.914 408.007C308.914 407.999 308.906 407.991 308.906 407.975C308.946 407.919 308.986 407.863 309.017 407.808C309.161 407.449 309.161 406.908 308.826 406.637Z" fill="#FC2912"/>
<path d="M313.811 415.483C313.787 415.037 313.707 414.647 313.588 414.305C313.588 414.074 313.548 413.851 313.428 413.66C313.309 413.517 313.213 413.477 313.118 413.501C312.903 413.286 312.648 413.19 312.377 413.246C312.059 413.063 311.685 413.079 311.295 413.485C310.371 414.751 310.212 416.439 309.782 417.92C309.75 418.087 309.67 418.406 309.567 418.78C308.5 421.384 307.775 424.162 309.614 425.946C311.247 426.583 311.764 423.398 312.123 421.798C312.879 419.727 313.795 417.673 313.811 415.483Z" fill="#FC2912"/>
<path d="M564.351 149.448C562.997 149.026 561.532 149.321 560.139 149.225C558.626 149.209 557.137 149.042 555.648 148.819C555.417 148.7 555.178 148.588 554.931 148.477C554.724 147.951 554.454 147.45 554.111 146.988C553.482 146.088 552.383 146.224 551.428 146.279H551.42C549.143 144.942 546.666 143.962 544.055 143.461C541.913 142.943 539.675 143.07 537.525 142.664C537.199 142.529 536.602 142.29 536.291 142.147C534.444 141.311 532.429 140.761 530.399 140.658C528.01 140.721 525.621 140.881 523.233 140.928C520.143 141.215 517.11 141.908 514.052 142.386C509.243 143.094 504.585 144.193 499.974 145.579C498.525 145.754 497.076 145.961 495.643 146.2C492.872 146.51 490.164 147.203 487.409 147.561C486.159 147.744 484.877 147.346 483.651 147.657C480.593 148.421 478.595 149.321 477.066 149.528C473.746 150.404 470.672 151.996 467.487 153.246C465.608 154.186 463.872 155.38 462.065 156.447C459.19 158.008 456.212 159.433 453.617 161.44C449.285 164.704 444.643 167.499 440.351 170.812C439.348 171.624 438.129 172.11 437.126 172.914C435.343 174.427 433.448 175.772 431.568 177.158C427.715 180.335 427.014 180.948 423.494 183.942C421.56 185.558 419.386 186.92 417.745 188.871C415.126 191.363 412.665 194.014 410.492 196.913C408.382 200.114 409.146 199.246 407.394 201.603C405.141 204.644 402.864 207.662 400.666 210.736C397.632 214.422 394.519 218.069 391.939 222.09C391.318 223.07 390.816 224.137 390.49 225.243C390.347 225.395 390.203 225.538 390.06 225.689C389.702 226.111 389.399 226.573 389.12 227.051C389.08 227.115 389.041 227.178 389.001 227.25C388.985 227.282 388.969 227.306 388.953 227.33C388.953 227.33 388.953 227.338 388.961 227.338C388.85 227.552 388.746 227.783 388.666 228.014C387.257 229.567 385.856 231.128 384.47 232.696C381.389 236.287 378.506 240.101 376.348 244.306C374.278 246.846 372.256 249.433 370.297 252.077C370.217 252.18 370.146 252.284 370.05 252.38C370.058 252.388 370.058 252.403 370.066 252.411C369.875 252.666 369.684 252.929 369.509 253.192C368.601 255.302 368.37 257.858 369.118 260.071C366.658 263.352 364.277 266.688 362.064 270.144C355.861 279.842 352.549 288.418 349.069 297.288C347.556 300.123 346.043 302.949 344.53 305.776C342.587 309.495 340.645 313.317 338.718 317.067C335.572 322.856 332.451 328.66 329.131 334.354C327.419 337.292 328.303 335.787 326.519 338.597C325.508 340.11 325.006 341.918 325.038 343.725C325.014 344.036 325.022 344.402 325.07 344.792C323.82 347.898 322.132 350.971 322.761 354.435C322.769 354.475 322.777 354.515 322.785 354.554C322.61 354.952 322.426 355.343 322.259 355.741C321.065 358.496 320.993 362.023 322.793 364.523C323.501 365.487 325.014 365.566 325.723 364.547C326.503 363.44 327.188 362.262 327.841 361.06C328.04 362.533 328.581 363.926 329.768 364.85C330.134 365.081 330.5 365.113 330.875 364.945C330.891 364.937 330.898 364.929 330.914 364.922C331.336 365.121 331.822 365.16 332.356 364.922C333.996 363.767 334.235 361.537 334.943 359.77C335.31 361.999 336.369 364.046 338.375 363.329C338.71 363.042 339.02 362.7 339.315 362.342C339.57 362.358 339.832 362.318 340.127 362.19C340.907 361.744 341.25 360.924 341.704 360.192C342.603 358.806 343.336 357.333 344.029 355.836C346.561 350.135 349.18 344.474 351.983 338.908C352.095 338.653 352.222 338.398 352.334 338.144C352.437 340.596 353.408 343.558 355.423 343.152C356.57 342.778 357.183 341.48 358.035 340.676C363.171 334.067 366.833 326.463 370.878 319.169C372.367 316.438 373.84 313.699 375.305 310.96C375.401 310.999 375.496 311.039 375.6 311.063C376.946 310.968 377.471 309.455 378.299 308.587C379.669 306.867 380.975 305.099 382.193 303.268C384.47 299.86 386.811 296.5 389.192 293.171C389.343 293.267 389.502 293.347 389.686 293.394C390.243 293.315 390.633 292.925 390.856 292.423C391.923 290.711 392.958 288.991 393.882 287.208C394.216 286.563 394.575 285.926 394.917 285.281C398.158 280.885 401.43 276.514 404.687 272.127C410.858 264.833 417.021 257.531 423.192 250.238C435.589 237.052 448.019 223.834 461.563 211.803C463.291 210.33 463.737 209.963 464.207 209.629C464.804 209.143 465.568 208.801 465.903 208.084C466.253 207.527 466.516 206.85 466.707 206.125C471.413 202.614 476.127 199.11 480.808 195.559C488.222 190.057 495.523 184.372 503.04 179.005C505.102 178.05 507.196 177.15 509.322 176.338C509.68 176.21 510.039 176.067 510.397 175.94C510.692 176.465 511.066 176.935 511.576 177.309C512.26 177.747 512.969 177.365 513.614 177.054C515.406 176.21 517.165 175.318 518.941 174.443C524.937 171.274 535.949 166.369 539.699 165.564C544.262 164.251 549.111 164.553 553.602 162.913C554.692 162.539 555.831 162.156 556.683 161.36C556.731 161.36 556.779 161.352 556.826 161.352C559.406 161.432 561.938 160.986 564.375 160.134C566.023 158.948 566.366 156.702 566.405 154.799C566.326 152.888 566.055 150.595 564.351 149.448Z" fill="#ECF03D"/>
<path d="M590.364 159.648C589.927 158.087 588.844 155.731 586.861 156.2C586.296 156.36 585.77 156.583 585.284 156.829C585.117 156.829 584.942 156.845 584.767 156.877C584.329 155.826 583.692 154.903 582.617 154.441C581.845 154.114 581.152 154.17 580.523 154.496C579.432 154.066 578.23 154.25 577.091 154.879C577.043 154.703 576.979 154.536 576.852 154.401C576.35 154.202 575.697 154.608 575.156 154.632C574.591 154.735 574.017 154.847 573.436 154.934C573.333 154.074 573.126 153.23 572.839 152.434C572.473 151.311 571.812 150.006 570.522 149.918C566.365 150.356 562.814 152.593 559.215 154.584C557.264 154.791 555.298 155.253 553.514 156.001C550.6 156.423 547.677 156.973 544.899 157.936C544.851 157.96 544.803 157.992 544.747 158.016C544.588 157.976 544.429 157.952 544.262 157.936C541.881 157.275 539.508 158.454 537.286 159.218C536.57 159.465 535.861 159.752 535.168 160.054C531.856 161.113 528.416 162.562 525.056 164.513C521.059 164.816 513.797 169.872 511.679 171.178C500.054 178.901 488.413 186.601 476.891 194.476C475.943 195.28 474.59 195.734 473.929 196.817C473.73 197.279 473.602 197.796 473.563 198.314C468.076 201.786 462.821 205.6 458.012 209.979C454.373 212.989 451.188 216.445 448.393 220.251C446.275 222.982 444.149 225.705 441.975 228.396C441.426 229.097 440.813 229.782 440.263 230.491C436.298 233.946 432.372 237.434 428.614 241.105C424.219 245.564 420.182 250.349 416.447 255.365C413.286 258.773 410.133 262.173 406.972 265.581C403.755 269.379 400.029 272.978 397.656 277.366C397.529 277.708 397.425 278.074 397.337 278.449C392.066 284.094 387.002 289.931 382.495 296.221C377.989 302.089 373.402 310.458 369.923 316.135C369.755 316.39 369.58 316.645 369.413 316.9C368.68 317.059 368.227 317.72 367.701 318.245C366.849 319.177 366.037 320.148 365.241 321.128C361.06 325.794 356.53 330.316 353.249 335.667C351.569 337.69 349.977 339.784 348.591 342.037C346.354 345.525 344.339 349.363 343.678 353.495C343.527 353.75 343.392 354.013 343.248 354.276C342.325 354.825 341.504 355.796 340.899 356.927C340.66 357.373 340.453 357.835 340.254 358.297C339.761 358.289 339.291 358.416 338.917 358.79C338.073 359.451 337.491 360.709 337.165 362.238C337.125 362.334 337.085 362.429 337.045 362.525C336.886 362.883 336.759 363.273 336.663 363.679C336.647 363.727 336.639 363.775 336.623 363.823C336.615 363.87 336.6 363.918 336.592 363.974C336.568 364.085 336.536 364.205 336.512 364.324C336.313 364.921 336.178 365.542 336.106 366.108C335.684 369.134 336.623 372.112 338.439 374.532C340.7 377.335 344.212 378.521 347.707 379.182C348.607 379.939 349.555 380.663 350.558 381.316C350.844 381.778 351.155 382.232 351.489 382.662C351.864 383.227 352.389 383.657 353.09 383.689C353.408 383.625 353.695 383.514 353.974 383.363C354.651 384.23 355.423 385.019 356.514 385.226C356.713 385.194 356.896 385.138 357.071 385.067C358.066 387.161 359.492 389.016 361.554 390.322C363.131 391.15 364.97 391.484 366.777 391.365C367.375 391.54 367.988 391.683 368.609 391.652C369.716 391.516 370.798 391.182 371.865 390.847C373.697 390.011 375.313 388.562 376.563 386.978C376.571 386.978 376.579 386.97 376.595 386.97C376.922 387.049 377.248 387.121 377.583 387.177H377.59C378.514 387.965 379.597 388.482 380.863 388.626C381.182 388.435 381.58 388.371 381.93 388.275C382.28 388.18 382.575 388.029 382.941 388.029H383.204C384.582 387.328 385.728 386.157 386.859 385.074C388.611 383.044 390.275 380.926 391.955 378.832C394.415 377.152 396.589 375.09 398.492 372.804C398.755 372.884 399.018 372.971 399.296 373.019C401.629 373.895 404.018 373.521 406.319 372.749C407.904 372.263 409.417 371.586 410.906 370.885C413.915 370.455 416.694 369.181 419.258 367.509C420.477 367.087 421.687 366.665 422.897 366.219C427.046 364.635 430.191 361.275 433.185 358.113C436.417 354.347 439.34 350.326 442.429 346.44C443.042 345.915 443.647 345.397 444.245 344.856C445.734 343.462 447.27 342.101 448.672 340.62C449.635 339.37 450.36 338 450.925 336.559C456.714 334.043 462.789 328.421 467.439 323.445C471.007 326.685 476.118 327.131 482.058 323.564C484.384 322.011 486.502 320.236 488.492 318.325C492.131 319.734 496.924 319.4 502.984 316.549C511.392 312.265 517.691 304.86 523.456 297.575C524.467 296.245 525.446 294.899 526.418 293.546C528.966 292.924 531.02 291.213 533.074 289.66C537.78 286.26 541.435 281.689 544.485 276.792C545.297 275.574 546.069 274.332 546.818 273.082C551.189 270.669 554.597 266.481 557.774 262.699C562.121 257.404 566.007 251.687 569.12 245.579C569.718 244.775 570.299 243.971 570.88 243.159C572.95 240.38 574.861 237.498 576.709 234.567C581.972 225.84 585.754 216.118 587.506 206.07C588.095 201.483 588.302 196.833 587.928 192.223C587.793 189.523 587.578 186.784 586.893 184.165C586.853 181.999 586.654 179.809 586.208 177.707C587.418 176.401 588.27 174.689 588.867 173.065C589.536 171.504 589.926 169.713 589.911 167.953C590.802 165.23 591.057 162.324 590.364 159.648Z" fill="#4553A6"/>
<path d="M608.312 182.82C608.32 182.796 608.32 182.772 608.328 182.755C608.32 182.78 608.312 182.796 608.312 182.82Z" fill="#FF2A0C"/>
<path d="M616.736 203.641C616.179 200.918 615.685 197.98 614.825 195.209C614.937 194.086 614.953 192.963 614.77 191.848C614.578 190.383 613.392 188.878 612.301 189.707C612.11 189.42 611.903 189.133 611.688 188.863C611.696 188.449 611.712 188.042 611.72 187.628C611.887 185.908 612.222 184.173 611.728 182.493C611.497 181.306 610.143 179.738 609.068 181.099C608.75 181.37 608.463 182.222 608.304 182.819C608.264 183.018 608.216 183.217 608.177 183.424V183.432C608.145 183.583 608.113 183.727 608.081 183.878C607.986 182.954 607.89 182.023 607.81 181.099C607.579 179.18 607.739 177.158 606.927 175.366C605.597 173.272 604.514 174.347 603.726 176.131C603.375 175.589 602.953 175.103 602.404 174.737C602.348 174.713 602.308 174.721 602.253 174.705C602.89 172.476 603.415 170.23 602.627 168.017C602.388 167.173 601.528 166.114 600.58 166.623C599.585 167.292 599.41 168.51 599.06 169.569C598.868 170.175 598.677 170.772 598.494 171.377C598.486 169.673 598.287 167.993 597.523 166.448C597.236 166.018 596.981 165.437 596.408 165.381C595.978 165.19 595.437 165.477 595.174 165.843C594.569 166.544 594.043 167.3 593.55 168.08C593.581 167.244 593.51 166.408 593.271 165.564C592.976 164.68 592.483 163.637 591.455 163.526C590.349 163.598 589.815 164.736 589.425 165.636C589.258 166.01 589.106 166.384 588.955 166.767C588.589 167.117 588.215 167.579 587.84 168.2C585.898 171.504 585.133 175.358 583.827 178.941C582.498 183.376 580.603 187.668 579.615 192.191C579.544 192.923 579.488 193.759 579.544 194.572C578.644 194.858 577.632 195.599 576.51 196.698C572.441 201.826 570.522 208.299 568.261 214.358C567.058 217.942 565.713 221.652 564.709 225.848C562.408 229.352 559.964 232.951 558.586 236.876C558.467 237.203 558.387 237.673 558.355 238.206C557.631 238.971 556.906 239.735 556.182 240.499C548.307 248.86 540.949 257.698 534.094 266.911C532.509 268.854 530.916 270.797 529.364 272.763C524.475 276.984 519.689 281.323 514.96 285.718C509.059 290.44 503.358 295.417 497.785 300.529C497.769 300.545 497.753 300.561 497.737 300.576C494.424 302.822 491.048 305.497 489.265 307.018C487.943 308.117 486.685 309.279 485.451 310.474C485.371 310.402 485.299 310.331 485.204 310.267C484.137 309.773 483.261 311.015 482.465 311.565C481.286 312.632 480.068 313.651 478.921 314.758C476.198 316.175 474.032 318.58 471.779 320.626C471.54 320.889 471.293 321.16 471.046 321.422C465.194 325.411 459.381 329.472 453.688 333.692C452.47 334.616 451.268 335.564 450.065 336.511C448.274 337.594 446.498 338.709 444.738 339.84C437.063 343.709 430 348.734 422.786 353.384C418.884 355.932 414.712 358.018 410.667 360.335C409.656 360.733 408.987 361.513 408.597 362.453C408.222 362.628 407.84 362.803 407.466 362.979C403.62 365.112 399.75 367.199 395.896 369.309C394.535 369.93 393.197 370.607 391.883 371.323C391.668 371.482 391.445 371.634 391.23 371.793C387.122 373.632 383.013 375.488 378.92 377.367C376.691 378.195 374.469 379.031 372.311 380.018C371.364 380.552 370.058 380.663 369.477 381.659C369.381 381.802 369.294 381.961 369.222 382.12C368.832 382.343 368.45 382.558 368.067 382.789C366.65 383.785 364.97 384.788 364.293 386.428C363.577 388.371 363.624 391.126 365.304 392.527C365.75 392.798 366.212 392.623 366.618 392.376C367.454 392.002 368.338 391.723 369.214 391.444C370.233 391.11 371.244 390.752 372.264 390.401C372.415 390.656 372.59 390.895 372.805 391.094C372.996 391.317 373.251 391.429 373.554 391.429C374.358 391.429 375.154 391.429 375.95 391.381C375.926 391.166 376.006 390.919 376.213 390.823C376.603 390.648 376.993 390.545 377.4 390.433C377.758 390.338 377.925 390.139 378.22 389.948C378.482 389.78 378.769 389.756 379.032 389.685C379.271 389.613 379.605 389.438 379.86 389.311C380.21 389.135 380.481 388.881 380.807 388.674C381.134 388.467 381.548 388.403 381.914 388.307C382.265 388.212 382.559 388.06 382.925 388.06H383.793C383.849 388.06 383.905 388.068 383.953 388.084C384.08 388.045 384.215 387.997 384.343 387.957C384.43 387.933 384.526 387.893 384.614 387.869C384.677 387.837 384.749 387.814 384.821 387.798C385.147 387.686 385.466 387.567 385.792 387.447C386.246 387.28 386.755 387.169 387.193 386.97C387.83 386.683 388.507 386.221 389.232 386.436C390.856 385.688 392.504 384.971 394.2 384.43C394.415 384.302 394.638 384.167 394.853 384.039C395.586 383.609 396.334 383.251 397.131 382.956C397.959 382.654 398.819 382.495 399.663 382.248C400.077 382.128 400.507 381.985 400.881 381.762C401.223 381.555 401.494 381.404 401.9 381.356C402.012 381.34 402.107 381.332 402.203 381.324C407.076 378.824 411.885 376.188 416.671 373.513C416.782 373.632 416.894 373.752 417.021 373.855C417.69 374.238 418.375 373.664 419.035 373.529C421.91 372.549 424.753 371.475 427.579 370.368C428.168 370.774 428.981 370.511 429.665 370.36C430.836 370.057 431.998 369.731 433.129 369.309C437.07 367.955 440.765 366.02 444.515 364.213C449.826 362.437 455.161 360.725 460.44 358.862C466.245 356.609 472.002 354.244 477.743 351.839C480.88 350.884 484.017 349.936 487.155 348.996C490.658 347.898 494.225 346.95 497.745 345.859C498 345.939 498.262 346.01 498.533 346.066C499.098 346.098 499.648 346.058 500.181 345.971C500.317 345.867 500.46 345.764 500.611 345.692C501.734 345.151 502.968 344.545 504.234 344.362C505.19 343.781 506.097 343.112 506.949 342.443C506.997 342.411 507.045 342.372 507.093 342.34C507.324 342.228 507.555 342.133 507.785 342.021C507.809 342.013 507.825 341.997 507.849 341.989C507.992 342.308 508.184 342.603 508.43 342.825C508.709 342.69 508.988 342.555 509.266 342.435C510.931 341.703 512.499 340.827 514.227 340.246C514.458 340.166 514.665 340.262 514.784 340.429C515.955 339.76 517.11 339.067 518.256 338.359C519.53 337.881 520.804 337.379 522.094 336.925C525.271 335.548 528.448 334.178 531.633 332.825C532.071 332.498 532.589 332.267 533.066 331.996C534.141 331.383 535.232 330.826 536.339 330.277C537.398 329.743 538.457 329.273 539.564 328.843C540.567 328.238 541.594 327.665 542.605 327.068C543.649 326.455 544.723 325.897 545.854 325.467C546.021 325.388 546.189 325.308 546.364 325.268C546.451 325.236 546.523 325.236 546.603 325.252C546.611 325.252 546.611 325.252 546.619 325.252C546.73 325.173 546.849 325.101 546.985 325.045C547.08 325.013 547.168 324.966 547.264 324.926C547.423 324.145 547.423 323.301 547.295 322.497C548.872 322.123 550.449 321.741 552.017 321.335C552.575 321.191 553.132 321.04 553.689 320.889C555.306 319.782 556.819 318.58 558.642 317.967C558.769 317.624 558.865 317.266 558.937 316.9C559.215 316.955 559.526 316.947 559.876 316.836C562.854 314.941 565.171 312.098 567.48 309.455C569.057 307.623 570.665 305.816 572.29 304.032C573.412 304.797 575.084 304.526 577.187 302.36C581.399 297.829 585.006 292.797 588.581 287.741C589.369 286.984 590.165 286.228 590.938 285.448C591.989 284.492 592.921 283.425 593.295 282.024C593.382 281.634 593.438 281.259 593.486 280.885C593.948 280.256 594.409 279.619 594.879 278.998C595.58 278.059 596.193 277.063 596.83 276.084C596.79 276.179 597.531 275.096 597.587 274.595C597.698 274.189 597.762 273.783 597.801 273.361C600.015 270.685 602.253 268.018 604.514 265.39C605.111 264.443 605.422 263.415 605.533 262.396C606.202 261.481 606.6 260.43 606.815 259.331C607.906 258.104 608.877 255.7 609.18 254.02C609.538 252.093 609.713 250.556 609.817 249.202C611.855 243.653 613.949 238.103 614.363 232.155C614.475 230.562 614.308 228.842 613.416 227.489C613.543 227.154 613.679 226.796 613.806 226.422C614.881 225.633 615.765 223.89 616.195 222.958C616.585 222.034 616.872 221.087 617.087 220.123C617.684 218.523 617.963 216.803 618.002 215.099C618.082 211.213 617.349 207.423 616.736 203.641ZM573.89 211.818C573.747 212.097 573.611 212.368 573.468 212.647C573.078 213.355 572.704 214.072 572.314 214.78C572.855 213.299 573.412 211.874 574.113 210.274C574.025 210.791 573.954 211.301 573.89 211.818Z" fill="#FF2A0C"/>
<path d="M608.312 182.819C608.129 183.481 608.097 183.84 608.312 182.819V182.819Z" fill="#FF2A0C"/>
<path d="M506.742 342.324C464.844 358.145 422.157 371.801 380.091 387.185C379.605 387.36 377.503 388.18 377.495 388.18C378.849 388.14 380.863 386.986 382.105 386.532C425.27 370.75 469.048 356.688 512.053 340.453C513.264 339.991 513.256 339.991 512.037 340.397C510.254 340.994 508.494 341.655 506.742 342.324Z" fill="black"/>
<path d="M530.335 331.798C524.045 335.237 517.523 338.176 510.835 340.755C509.426 341.305 512.069 340.365 512.196 340.317C513.908 339.712 515.62 339.099 517.308 338.438C524.339 335.723 531.203 332.689 537.82 329.066C535.527 330.332 532.644 330.539 530.335 331.798Z" fill="black"/>
<path d="M539.293 327.187C537.685 328.063 536.06 328.915 534.436 329.751C535.574 329.17 536.984 328.867 538.194 328.429C539.42 327.983 540.758 327.625 541.921 327.028C543.553 326.192 545.169 325.34 546.778 324.464C546.483 324.623 545.966 324.735 545.671 324.838C544.787 325.149 543.903 325.467 543.019 325.794C541.801 326.232 540.44 326.566 539.293 327.187Z" fill="black"/>
<path d="M321.431 358.273C336.727 323.254 351.975 288.052 371.491 255.127C390.76 222.624 414.751 190.869 445.28 168.104C461.332 156.129 479.216 148.071 499.058 145.037C517.277 142.25 536.012 143.269 553.817 148.039C557.742 149.09 561.62 150.205 565.099 152.132C566.939 153.151 569.232 153.398 571.23 154.186C573.468 155.07 575.642 157.132 577.863 157.777C579.567 158.271 580.746 158.406 582.386 159.298C584.416 160.405 586.383 161.615 588.286 162.929C591.726 165.31 594.935 168.017 597.833 171.027C610.669 184.348 614.857 201.3 613.647 219.391C610.541 265.749 581.208 306.118 540.081 326.741C542.43 325.563 545.201 325.205 547.566 324.018C565.935 314.813 581.98 301.452 594.919 285.527C608.471 268.846 616.68 247.913 619.993 226.812C623.003 207.614 621.538 188.202 609.044 172.54C603.582 165.692 596.607 160.062 588.844 156.017C586.988 155.054 585.332 155.014 583.533 153.923C581.574 152.737 579.599 151.718 577.425 150.977C576.223 150.563 574.591 150.467 573.476 149.918C572.743 149.56 572.361 149.002 571.684 148.572C569.861 147.434 567.01 146.948 564.98 146.343C529.316 135.705 491.446 141.414 458.529 157.992C440.51 167.069 425.206 180.279 411.256 194.715C397.417 209.032 385.163 224.813 374.23 241.447C349.634 278.855 331.798 320.101 313.938 360.996C314.137 360.542 317.163 359.865 317.697 359.674C318.326 359.451 321.16 358.902 321.431 358.273Z" fill="black"/>
<path d="M316.415 361.864C333.876 373.537 351.338 385.21 368.8 396.891C370.146 397.791 375.019 393.324 376.285 394.168C358.823 382.495 341.361 370.822 323.899 359.141C322.554 358.249 317.673 362.716 316.415 361.864Z" fill="black"/>
<path d="M376.667 389.78C374.644 390.529 372.614 391.269 370.591 392.026C370.074 392.217 369.373 392.4 368.88 392.671C368.497 392.886 369.365 392.527 369.27 392.559C370.99 391.978 372.694 391.341 374.39 390.712C376.157 390.059 377.049 389.725 378.681 389.127C379.422 388.857 380.17 388.586 380.911 388.299C381.221 388.18 381.492 388.156 381.277 388.132C380.839 388.076 379.916 388.602 379.549 388.737C378.586 389.08 377.622 389.43 376.667 389.78Z" fill="black"/>
<path d="M396.183 382.749C392.711 383.984 389.248 385.218 385.776 386.46C384.072 387.065 382.336 387.638 380.664 388.339C380.592 388.371 379.932 388.594 380.298 388.506C380.879 388.371 381.46 388.1 382.026 387.901C385.497 386.667 388.961 385.425 392.433 384.191C394.137 383.585 395.873 383.012 397.545 382.312C397.616 382.28 398.277 382.057 397.911 382.144C397.322 382.28 396.74 382.55 396.183 382.749Z" fill="black"/>
<path d="M496.901 346.361C466.97 357.484 436.911 368.274 406.821 378.959C405.053 379.588 403.278 380.201 401.534 380.886C400.459 381.308 400.108 381.452 401.55 380.942C434.674 369.181 467.75 357.293 500.707 345.055C500.866 344.999 503.478 344.147 502.028 344.514C500.293 344.951 498.565 345.74 496.901 346.361Z" fill="black"/>
<path d="M526.633 335.173C521.823 336.997 517.014 338.812 512.205 340.62C510.994 341.074 511.002 341.09 512.22 340.675C513.996 340.078 515.756 339.409 517.508 338.749C522.707 336.79 527.907 334.831 533.106 332.856C534.523 332.323 531.872 333.246 531.745 333.294C530.041 333.907 528.337 334.528 526.633 335.173Z" fill="black"/>
<path d="M346.155 427.316C355.861 416.821 365.185 405.976 374.708 395.314C373.171 397.034 368.8 396.27 367.223 398.038C357.7 408.699 348.384 419.544 338.67 430.039C340.254 428.327 344.538 429.067 346.155 427.316Z" fill="black"/>
<path d="M311.311 363.632C304.845 370.639 298.515 377.781 292.36 385.067C290.903 386.795 289.454 388.522 288.012 390.266C287.033 391.453 283.514 394.606 283.251 396.095C282.566 396.549 282.614 396.851 283.394 396.987C284.007 397.289 284.628 397.6 285.241 397.902C286.062 398.316 286.89 398.738 287.702 399.16C289.772 400.227 291.826 401.326 293.857 402.457C301.461 406.685 308.834 411.351 315.714 416.678C319.194 419.369 322.578 422.212 325.715 425.293C328.454 427.977 330.811 431.042 334.752 431.862C336.99 432.324 340.055 428.685 342.237 429.139C338.479 428.359 336.186 425.548 333.582 422.952C330.508 419.887 327.172 417.052 323.756 414.377C316.717 408.867 309.145 404.065 301.342 399.726C299.51 398.707 297.663 397.719 295.8 396.748C294.94 396.302 290.473 394.773 290.258 393.945C290.067 393.204 294.51 388.714 295.011 388.108C296.445 386.365 297.894 384.629 299.351 382.901C305.657 375.416 312.147 368.083 318.787 360.893C317.211 362.62 312.927 361.88 311.311 363.632Z" fill="black"/>
<path d="M299.574 384.581C309.814 382.734 320.539 378.752 329.346 373.21C326.853 374.118 324.361 375.026 321.861 375.934C323.239 387.392 321.59 398.738 319.823 410.053C319.95 409.217 326.384 407.991 327.307 407.33C336.488 400.721 345.669 394.12 354.85 387.511C352.357 388.419 349.865 389.327 347.365 390.234C349.658 398.483 351.33 406.86 352.381 415.356C352.318 414.822 359.946 413.278 359.866 412.633C358.815 404.137 357.143 395.76 354.85 387.511C354.889 387.646 347.954 389.812 347.365 390.234C338.184 396.843 329.003 403.444 319.823 410.053C322.315 409.145 324.807 408.237 327.307 407.33C329.075 396.015 330.723 384.661 329.346 373.21C329.386 373.521 322.538 375.512 321.861 375.934C319.209 377.598 316.47 378.912 313.684 380.321C311.804 381.117 312.147 381.022 314.711 380.026C313.691 380.353 312.664 380.639 311.629 380.894C310.116 381.276 308.588 381.579 307.051 381.858C304.471 382.32 302.138 384.111 299.574 384.581Z" fill="black"/>
<path d="M340.867 363.671C361.339 327.76 385.171 293.8 412.068 262.404C425.357 246.885 439.379 231.995 454.078 217.806C468.108 204.262 482.727 191.219 498.835 180.167C508.104 173.805 517.866 168.096 528.169 163.566C538.353 159.091 549.469 156.805 560.521 155.858C563.085 155.643 565.466 153.35 568.006 153.135C528.193 156.527 492.601 179.156 463.37 204.971C430.223 234.249 400.451 267.683 374.294 303.315C359.452 323.532 345.812 344.609 333.391 366.394C333.693 365.869 336.528 365.296 337.149 365.073C337.858 364.81 340.477 364.364 340.867 363.671Z" fill="black"/>
<path d="M580.674 171.855C572.051 212.631 550.639 248.303 520.485 276.8C489.87 305.736 455.655 331.917 420.031 354.355C399.838 367.071 378.809 378.458 356.952 388.052C358.687 387.288 361.968 386.412 364.174 385.449C402.505 368.624 438.129 346.329 471.484 321.128C488.5 308.276 505.102 294.764 520.971 280.519C536.769 266.33 551.173 250.811 562.488 232.768C574.726 213.252 583.389 191.657 588.151 169.124C587.88 170.453 580.977 170.429 580.674 171.855Z" fill="black"/>
<path d="M287.821 405.586C283.394 412.641 278.895 419.656 274.309 426.615C272.016 430.094 269.707 433.558 267.374 437.014C265.415 439.92 263.607 443.4 261.155 445.9C263.647 444.992 266.139 444.085 268.64 443.177C267.788 443.408 267.406 443.089 267.971 442.325C265.479 443.233 262.986 444.14 260.486 445.048C260.566 445.104 260.653 445.151 260.733 445.207C262.134 446.099 266.896 441.64 268.218 442.484C268.138 442.428 268.05 442.381 267.971 442.325C267.485 442.014 260.892 444.514 260.486 445.048C259.531 446.322 261.004 445.844 261.673 445.733C263.392 445.43 265.16 444.491 266.792 443.885C270.694 442.428 272.605 437.619 274.85 434.291C281.842 423.931 288.649 413.453 295.298 402.871C294.948 403.428 292.201 403.954 291.54 404.192C290.791 404.463 288.267 404.869 287.821 405.586Z" fill="black"/>
<path d="M320.539 431.4C310.021 440.732 299.494 450.057 288.976 459.389C290.807 457.764 294.597 458.314 296.461 456.665C306.979 447.333 317.505 438.009 328.024 428.677C326.193 430.302 322.402 429.752 320.539 431.4Z" fill="black"/>
<path d="M271.522 528.766C280.695 518.375 290.704 508.788 300.259 498.755C304.877 493.906 309.384 488.953 313.612 483.754C314.79 482.305 316.415 481.182 315.834 479.422C315.539 478.53 314.504 477.694 313.795 477.097C311.582 475.25 308.699 474.302 306.056 473.267C305.419 473.02 302.95 474.35 302.297 474.589C301.644 474.828 299.216 476.237 298.571 475.99C301.071 476.97 303.723 477.87 305.888 479.51C306.732 480.147 308.006 481.094 308.357 482.145C308.938 483.905 307.306 485.036 306.135 486.477C301.907 491.669 297.4 496.629 292.782 501.478C283.227 511.511 273.218 521.098 264.045 531.489C265.558 529.769 269.954 530.534 271.522 528.766Z" fill="black"/>
<path d="M309.185 473.968C285.146 458.776 262.103 442.086 239.808 424.449C239.505 424.21 232.474 426.766 232.323 427.172C231.98 428.104 228.915 434.872 230.388 435.899C231.455 436.64 236.678 434.06 237.809 433.463C240.62 431.982 242.387 426.91 239.808 424.457C239.585 424.242 232.498 426.758 232.323 427.18C227.864 438.288 223.222 449.42 219.209 460.703C217.234 466.26 215.434 471.882 213.531 477.464C212.584 480.235 211.604 482.99 210.585 485.737C209.749 487.99 208.427 490.108 207.615 492.33C207.368 492.712 207.129 493.086 206.883 493.468C207.615 494.018 208.356 494.543 209.112 495.061C210.314 495.889 211.549 496.669 212.791 497.45C215.323 499.042 217.887 500.515 220.514 501.924C225.403 504.544 230.061 507.578 234.528 510.858C243.574 517.491 251.855 525.095 260.247 532.524C261.235 533.4 266.824 528.997 267.732 529.801C259.34 522.372 251.059 514.768 242.013 508.135C237.546 504.855 232.888 501.821 227.999 499.201C225.371 497.792 222.8 496.311 220.275 494.726C219.041 493.954 217.807 493.166 216.597 492.338C216.024 491.955 215.466 491.557 214.909 491.143C214.057 490.801 214.12 490.291 215.1 489.606C215.848 487.409 217.242 485.251 218.07 483.014C219.081 480.266 220.068 477.511 221.016 474.74C222.919 469.159 224.719 463.537 226.693 457.979C230.698 446.697 235.341 435.565 239.808 424.457C237.315 425.365 234.823 426.273 232.323 427.18C234.481 429.235 233.557 434.633 230.826 435.987C233.318 435.079 235.81 434.172 238.311 433.264C236.487 433.646 239.632 424.927 239.808 424.457C237.315 425.365 234.823 426.273 232.323 427.18C254.618 444.817 277.661 461.507 301.7 476.699C303.109 477.583 307.855 473.124 309.185 473.968Z" fill="black"/>
<path d="M289.732 425.444C286.492 428.072 288.729 432.085 291.572 433.94C294.9 436.114 298.977 436.926 300.553 440.987C300.474 440.788 307.743 438.869 308.038 438.264C309.304 435.636 310.578 433.017 311.844 430.389C312.935 428.136 314.082 426.79 311.812 425.182C307.528 422.132 301.803 420.173 297.098 417.816C296.572 417.554 293.913 418.931 293.339 419.138C292.766 419.345 290.138 420.802 289.613 420.54C294.351 422.912 299.98 424.887 304.328 427.905C306.39 429.338 305.665 430.341 304.702 432.396C303.356 435.278 301.931 438.121 300.545 440.987C303.038 440.08 305.53 439.172 308.03 438.264C306.461 434.211 302.385 433.391 299.048 431.217C296.198 429.362 293.968 425.349 297.209 422.721C295.282 424.29 291.699 423.852 289.732 425.444Z" fill="black"/>
<path d="M305.164 414.671C306.151 410.554 308.476 407.043 311.884 404.527C310.984 405.196 309.193 405.466 308.126 405.849C306.995 406.263 305.379 406.525 304.399 407.25C300.991 409.766 298.666 413.278 297.679 417.394C297.759 417.068 301.015 416.224 301.437 416.072C301.915 415.889 305.044 415.165 305.164 414.671Z" fill="black"/>
<path d="M306.613 421.105C308.707 420.476 310.753 419.656 312.8 418.891C313.827 418.509 314.894 418.19 315.746 417.474C317.179 416.272 317.848 414.368 317.49 412.537C317.498 412.577 314.018 413.755 313.731 413.859C313.445 413.962 309.973 415.101 310.005 415.26C310.475 417.601 309.225 419.926 307.075 420.93C307.242 420.858 307.409 420.794 307.576 420.723C307.481 420.762 307.377 420.794 307.282 420.834C309.559 420.006 311.844 419.178 314.122 418.358C314.018 418.39 313.922 418.421 313.819 418.445C312.258 418.915 310.737 419.536 309.209 420.094C308.468 420.364 307.72 420.635 306.979 420.922C306.915 420.969 306.247 421.216 306.613 421.105Z" fill="black"/>
<path d="M295.752 420.38C295.266 421.543 294.621 423.796 296.477 424.083C296.723 424.123 296.962 424.091 297.201 424.027C298.802 423.589 300.37 422.912 301.923 422.347C302.854 422.005 303.89 421.75 304.757 421.272C305.004 421.137 305.14 420.954 305.203 420.683C305.195 420.715 303.953 421.105 304.097 421.057C303.213 421.368 302.329 421.686 301.445 422.013C300.561 422.331 299.685 422.658 298.802 422.984C298.642 423.04 297.743 423.279 297.719 423.406C297.655 423.685 297.52 423.86 297.273 423.995C297.313 423.979 297.36 423.956 297.4 423.94C297.368 423.956 297.336 423.971 297.297 423.979C299.701 423.104 302.106 422.228 304.511 421.352C304.479 421.36 304.439 421.376 304.407 421.384C304.455 421.368 304.495 421.36 304.543 421.344C303.929 421.471 303.221 421.248 302.902 420.683C302.369 419.743 302.854 418.557 303.229 417.657C303.205 417.713 302.01 418.071 302.122 418.031C301.238 418.342 300.354 418.66 299.47 418.987C298.587 419.305 297.711 419.632 296.827 419.958C296.652 420.022 295.816 420.213 295.752 420.38Z" fill="black"/>
<path d="M227.203 439.785C222.855 441.282 217.99 442.508 214.511 445.677C209.478 450.256 206.93 457.167 204.135 463.195C197.081 478.427 190.018 493.667 182.963 508.9C183.178 508.43 186.172 507.777 186.721 507.578C187.358 507.347 190.153 506.821 190.448 506.176C196.205 493.755 201.962 481.333 207.711 468.912C210.338 463.235 212.815 457.446 215.681 451.88C216.836 449.635 218.11 447.421 219.694 445.438C220.395 444.555 221.159 443.711 221.995 442.954C223.771 441.338 228.007 439.682 220.753 442.182C222.473 441.593 224.177 440.964 225.873 440.335C226.223 440.199 228.548 439.323 227.203 439.785Z" fill="black"/>
<path d="M188.027 506.829C185.702 506.208 183.385 505.595 181.06 504.974C180.439 504.807 173.567 507.546 173.575 507.697C174.013 515.174 173.336 522.5 171.545 529.777C171.593 529.586 174.181 528.854 174.308 528.814C179.356 526.998 184.333 525.199 188.816 522.173C191.165 520.589 194.899 518.542 194.779 515.373C194.66 512.196 192.072 507.976 190.942 504.998C190.91 504.91 183.449 507.697 183.457 507.721C184.874 511.456 189.11 517.993 185.901 521.329C184.444 522.842 182.549 524.116 180.797 525.263C179.714 525.963 178.6 526.624 177.461 527.229C176.131 527.93 171.187 529.857 176.267 528.026C177.19 527.707 178.106 527.381 179.03 527.062C180.829 519.784 181.498 512.459 181.06 504.982C178.568 505.89 176.076 506.798 173.575 507.705C175.9 508.326 178.217 508.939 180.543 509.561C182.677 510.118 185.957 506.272 188.027 506.829Z" fill="black"/>
<path d="M166.322 531.059C158.017 537.779 149.998 545.511 146.065 555.679C144.106 560.735 140.141 579.829 151.018 576.405C153.725 575.553 156.735 574.678 159.219 573.268C163.463 570.856 166.943 566.174 169.825 562.344C176.131 553.967 180.495 544.34 182.852 534.14C182.541 535.502 175.709 535.406 175.367 536.864C173.551 544.731 170.574 552.239 166.369 559.135C162.603 565.314 157.34 573.212 150.691 576.517C153.136 575.625 155.588 574.725 158.033 573.834C146.941 577.448 152.363 555.504 154.33 551.101C158.494 541.8 166.003 534.65 173.798 528.344C171.863 529.904 168.288 529.474 166.322 531.059Z" fill="black"/>
<path d="M303.699 495.833C304.113 499.615 303.722 502.322 301.581 505.46C299.67 508.263 297.719 511.033 295.72 513.765C291.723 519.235 287.551 524.578 283.243 529.809C274.85 540.009 265.956 549.779 257.054 559.533C259.546 558.625 262.039 557.718 264.539 556.81C264.531 556.483 264.563 556.157 264.627 555.838C264.467 557.001 257.317 557.288 257.142 558.562C257.078 558.88 257.054 559.207 257.054 559.533C257.07 558.761 263.798 557.614 264.539 556.81C273.441 547.056 282.335 537.286 290.728 527.086C294.884 522.038 298.913 516.894 302.783 511.623C304.781 508.899 306.74 506.137 308.651 503.35C311 499.918 311.645 497.29 311.183 493.11C311.239 493.675 303.619 495.148 303.699 495.833Z" fill="black"/>
<path d="M259.403 554.596C256.544 552.383 253.535 550.552 250.254 549.031C249.76 548.8 242.801 551.483 242.769 551.754C242.164 557.049 241.32 562.384 240.946 567.703C240.866 568.881 240.357 569.996 241.591 570.601C242.308 570.959 244.513 570.466 245.23 570.402C247.38 570.219 249.721 570.243 251.815 569.733C254.243 569.144 257.229 568.252 259.387 567.034C262.421 565.314 262.62 558.753 263.368 555.536C263.05 556.898 256.226 556.794 255.884 558.259C255.199 561.189 254.904 567.942 252.221 569.63C254.713 568.722 257.205 567.814 259.706 566.906C257.46 567.512 255.024 567.488 252.715 567.687C250.389 567.886 248.208 568.706 248.351 565.712C248.614 560.17 249.625 554.557 250.254 549.039C247.762 549.946 245.27 550.854 242.769 551.762C246.05 553.283 249.06 555.114 251.918 557.328C253.081 558.219 258.32 553.76 259.403 554.596Z" fill="black"/>
<path d="M234.998 574.072C230.236 579.503 225.984 586.804 225.387 594.17C225.125 597.387 226.391 600.524 230.149 600.173C232.402 599.966 234.823 598.716 236.917 597.944C249.546 593.278 256.353 578.133 257.237 565.465C257.166 566.492 249.832 567.057 249.753 568.188C249.346 573.969 247.897 579.574 245.294 584.758C242.586 590.149 238.756 593.827 234.711 598.119C232.737 599.361 233.541 599.162 237.108 597.514C236.774 597.49 236.439 597.466 236.105 597.442C234.847 596.59 233.875 596.558 233.198 594.958C232.211 592.625 233.079 589.639 233.708 587.346C235.356 581.358 238.398 575.999 242.483 571.341C240.97 573.077 236.551 572.297 234.998 574.072Z" fill="black"/>
<path d="M227.211 448.719C235.118 471.898 233.238 497.234 242.34 520.087C242.387 520.214 249.816 517.348 249.824 517.364C240.731 494.511 242.602 469.174 234.696 445.996C234.696 445.988 227.179 448.607 227.211 448.719Z" fill="black"/>
<path d="M242.579 444.977C247.006 458.298 251.003 471.754 254.514 485.346C256.234 492.019 257.843 498.716 259.34 505.444C260.112 508.931 260.86 512.427 261.569 515.922C262.206 519.06 262.533 522.372 264.069 525.223C264.276 525.613 271.395 522.213 271.554 522.5C270.017 519.649 269.691 516.345 269.054 513.199C268.345 509.696 267.597 506.208 266.824 502.721C265.327 495.992 263.719 489.296 261.999 482.623C258.488 469.031 254.49 455.575 250.063 442.253C250.071 442.261 242.539 444.841 242.579 444.977Z" fill="black"/>
<path d="M271.992 466.61C273.863 473.092 275.742 479.573 277.613 486.055C278.481 489.049 279.341 492.035 280.209 495.029C280.854 497.25 281.411 502.45 283.354 503.716C283.999 504.138 290.107 501.518 290.839 500.992C291.245 500.698 291.476 500.332 290.895 500.125C290.234 499.886 287.813 501.207 287.137 501.446C286.468 501.693 284.079 503.095 283.41 502.848C283.983 503.063 283.76 503.429 283.354 503.716C285.847 502.808 288.339 501.9 290.839 500.992C289.008 499.806 288.482 495.052 287.909 493.054C286.969 489.813 286.038 486.572 285.098 483.332C283.227 476.85 281.348 470.369 279.477 463.887C279.508 464.007 271.928 466.379 271.992 466.61Z" fill="black"/>
<path d="M296.405 482.607C296.731 486.589 298.013 490.267 300.243 493.588C300.633 494.161 307.401 490.387 307.728 490.865C305.498 487.544 304.216 483.873 303.89 479.884C303.937 480.529 296.341 481.851 296.405 482.607Z" fill="black"/>
<path d="M250.191 441.799C242.563 443.018 234.99 444.698 228.071 448.297C230.563 447.389 233.055 446.481 235.556 445.574C235.022 445.502 234.934 445.382 235.277 445.215C232.785 446.123 230.292 447.031 227.792 447.938C229.767 447.413 231.678 446.617 233.597 445.916C234.114 445.725 236.169 444.992 236.193 444.921C236.033 445.375 232.012 446.41 231.582 446.569C231.407 446.633 231.232 446.696 231.057 446.76C232.641 446.195 234.226 445.637 235.802 445.072C233.573 445.661 231.407 446.561 229.257 447.373C229.098 447.429 227.569 447.859 227.593 448.09C227.665 448.679 229.886 447.676 229.934 447.66C232.06 446.903 234.536 446.314 236.471 445.104C233.199 447.166 233.215 446.211 235.205 445.789C236.025 445.613 236.853 445.462 237.682 445.319C239.354 445.032 241.034 444.801 242.706 444.53C245.286 444.108 247.627 442.213 250.191 441.799Z" fill="black"/>
<path d="M234.369 438.32C238.199 437.077 242.133 437.46 245.692 439.307C246.201 439.57 248.885 438.184 249.45 437.985C250.007 437.778 252.667 436.321 253.177 436.584C249.506 434.681 245.501 434.402 241.575 435.676C239.298 436.409 236.161 437.738 234.369 438.32Z" fill="black"/>
<path d="M268.536 454.388C253.296 458.505 238.064 462.621 222.823 466.738C220.347 467.407 217.855 469.079 215.339 469.461C215.992 469.366 216.636 469.262 217.289 469.167C219.869 468.776 222.21 466.826 224.774 466.443C224.121 466.539 223.476 466.642 222.823 466.738C220.331 467.646 217.839 468.554 215.339 469.461C230.579 465.345 245.811 461.228 261.051 457.111C263.607 456.419 265.988 455.081 268.536 454.388Z" fill="black"/>
<path d="M290.162 466.722C274.588 471.133 259.013 475.553 243.438 479.964C235.778 482.138 228.118 484.303 220.458 486.477C218.11 487.146 215.84 487.934 213.547 488.778C213.157 488.922 209.59 489.933 210.466 490.538C210.911 490.849 217.544 488.34 217.95 487.815C218.006 487.743 218.054 487.679 218.11 487.616C216.756 489.368 212.018 488.539 210.625 490.339C210.569 490.411 210.521 490.474 210.466 490.538C212.958 489.63 215.45 488.723 217.95 487.815C216.445 486.772 209.693 490.06 214.017 488.906C215.554 488.5 217.082 488.038 218.611 487.6C221.677 486.732 224.742 485.864 227.8 484.996C233.931 483.26 240.054 481.524 246.185 479.789C258.44 476.317 270.694 472.837 282.948 469.366C285.249 468.713 288.355 467.232 290.162 466.722Z" fill="black"/>
<path d="M301.589 474.756C275.169 482.607 249.14 491.955 223.715 502.601C223.54 502.673 223.54 502.681 223.723 502.617C224.965 502.259 226.216 501.901 227.458 501.542C229.751 500.881 232.864 499.416 234.664 498.899C230.866 499.99 232.721 499.241 235.173 498.222C237.53 497.25 239.903 496.287 242.268 495.339C248.98 492.656 255.733 490.068 262.548 487.672C273.067 483.977 283.681 480.569 294.367 477.392C296.676 476.723 299.789 475.298 301.589 474.756Z" fill="black"/>
<path d="M296.174 488.842C277.279 496.677 258.376 504.504 239.481 512.339C241.233 511.615 244.473 510.659 246.703 509.736C265.598 501.901 284.501 494.073 303.396 486.238C301.636 486.963 298.395 487.918 296.174 488.842Z" fill="black"/>
<path d="M279.262 510.205C269.484 513.183 259.785 516.798 250.628 521.353C253.121 520.445 255.613 519.537 258.113 518.629C258.806 518.176 259.499 517.722 260.199 517.276C258.041 518.677 254.896 518.582 252.715 519.999C252.022 520.453 251.329 520.907 250.628 521.353C252.746 519.975 255.82 519.768 258.113 518.629C262.644 516.376 267.214 514.33 272.056 512.857C274.341 512.156 277.462 510.754 279.262 510.205Z" fill="black"/>
<path d="M302.687 494.423C302.902 495.244 303.117 496.072 303.34 496.892C303.292 496.701 310.897 494.479 310.825 494.169C310.252 491.875 309.67 489.582 309.097 487.289C309.169 487.568 301.541 489.582 301.612 490.012C301.907 491.732 302.655 493.213 303.858 494.471C304.065 494.694 307.242 493.285 307.616 493.149C307.974 493.022 311.342 492.067 311.342 491.748C311.358 490.594 310.785 489.694 309.742 489.208C309.631 489.152 308.587 489.598 308.635 489.582C307.751 489.893 306.868 490.211 305.984 490.538C305.1 490.856 304.224 491.183 303.34 491.509C303.173 491.573 302.377 491.995 302.257 491.931C303.3 492.417 303.866 493.325 303.858 494.471C306.35 493.564 308.842 492.656 311.342 491.748C310.132 490.49 309.392 489.009 309.097 487.289C306.605 488.197 304.113 489.105 301.612 490.012C302.186 492.305 302.767 494.599 303.34 496.892C305.832 495.984 308.325 495.076 310.825 494.169C310.61 493.349 310.395 492.52 310.172 491.7C310.22 491.883 302.608 494.129 302.687 494.423Z" fill="black"/>
<path d="M230.077 439.291C228.214 439.578 226.43 440.374 224.671 441.019C222.919 441.656 221.032 442.198 219.415 443.161C219.686 443.002 220.259 442.882 220.522 442.787C221.406 442.476 222.29 442.158 223.174 441.831C224.408 441.385 225.722 441.019 226.9 440.43C227.394 440.183 227.895 439.976 228.397 439.745C222.72 441.712 220.992 442.349 223.206 441.656C223.174 441.76 223.102 441.831 222.991 441.871C222.847 441.959 222.704 442.046 222.553 442.126C220.379 443.217 222.25 442.548 228.158 440.119C227.888 440.151 227.919 440.111 228.262 440C228.453 439.92 228.636 439.833 228.827 439.753C229.002 439.682 229.002 439.674 228.819 439.729C227.8 440.04 226.773 440.35 225.754 440.661C224.193 441.131 222.672 441.752 221.143 442.309C220.403 442.58 219.654 442.851 218.914 443.137C218.85 443.161 218.181 443.416 218.547 443.304C219.232 443.097 219.909 442.89 220.594 442.683C220.785 442.628 221.151 442.437 221.326 442.476C221.151 442.437 220.626 442.787 220.482 442.851C220.443 442.866 220.395 442.89 220.355 442.906C222.417 442.444 224.416 441.569 226.391 440.844C227.935 440.279 229.528 439.793 230.889 438.861C230.842 438.877 230.802 438.885 230.754 438.901C228.469 439.57 226.231 440.446 223.994 441.274C222.441 441.847 220.896 442.413 219.407 443.153C221.9 442.245 224.392 441.338 226.892 440.43C227.219 440.231 227.561 440.032 227.919 439.896C225.642 440.725 223.357 441.553 221.08 442.373C221.573 442.206 222.075 442.086 222.592 442.007C223.835 441.815 225.164 441.115 226.351 440.685C227.235 440.366 228.11 440.04 228.994 439.713C229.321 439.594 229.727 439.347 230.077 439.291Z" fill="black"/>
<path d="M314.225 360.781C314.265 360.781 314.313 360.781 314.352 360.781C315.587 360.749 321.137 357.453 321.837 358.058C320.882 357.238 317.362 359.181 316.407 359.539C313.54 360.59 311.9 362.031 309.79 364.34C312.282 363.433 314.774 362.525 317.275 361.617C318.286 360.455 319.329 359.547 320.611 358.703C318.119 359.611 315.626 360.518 313.126 361.426C312.465 361.888 310.323 362.843 311.223 363.106C311.741 363.258 312.41 362.995 312.887 362.883C314.106 362.597 315.332 362.023 316.502 361.601C317.187 361.354 323.398 359.324 322.641 358.329C322.434 358.05 315.738 360.654 315.157 361.052C314.193 361.721 320.277 363.146 320.906 363.313C323.398 362.406 325.89 361.498 328.39 360.59C326.44 360.184 324.489 359.778 322.538 359.38C320.34 358.926 317.155 362.652 315.053 362.103C326.288 365.033 335.819 371.562 344.976 378.466C349.634 381.977 354.213 385.584 359.014 388.897C361.395 390.537 363.823 392.122 366.332 393.563C366.69 393.77 367.048 393.969 367.407 394.176C368.768 394.463 368.856 394.972 367.661 395.713C367.231 397.186 365.949 398.595 365.464 400.172C367.956 399.264 370.448 398.356 372.949 397.448C372.407 395.41 371.866 393.372 371.324 391.333C371.348 391.421 364.468 393.714 363.839 394.056C362.677 394.701 362.549 395.8 363.449 396.724C364.253 397.544 370.201 393.252 370.934 394.001C370.002 393.053 370.193 391.954 371.324 391.333C368.832 392.241 366.34 393.149 363.839 394.056C364.381 396.095 364.922 398.133 365.464 400.172C365.352 399.75 372.718 398.189 372.949 397.448C373.466 395.768 374.501 394.542 375.146 392.989C376.197 392.408 376.293 391.994 375.433 391.755C374.891 391.461 374.35 391.158 373.816 390.848C371.308 389.406 368.88 387.822 366.499 386.182C361.697 382.869 357.111 379.262 352.461 375.751C343.296 368.847 333.781 362.318 322.538 359.388C320.046 360.295 317.553 361.203 315.053 362.111C317.004 362.517 318.955 362.923 320.906 363.321C323.095 363.775 326.304 360.041 328.39 360.598C327.761 360.431 321.678 359.006 322.641 358.337C320.149 359.244 317.657 360.152 315.157 361.06C315.706 361.777 312.911 362.859 312.879 362.875C315.332 361.984 317.784 361.1 320.229 360.208C317.108 360.797 318.939 359.865 320.603 358.711C318.509 360.168 315.276 360.017 313.118 361.434C311.828 362.278 310.785 363.186 309.782 364.348C311.295 362.613 315.666 363.369 317.267 361.625C318.493 360.28 319.775 359.045 321.152 357.859C318.66 358.767 316.168 359.674 313.668 360.582C313.954 360.471 314.185 360.542 314.345 360.789C316.837 359.881 319.329 358.974 321.829 358.066C321.789 358.066 321.742 358.066 321.702 358.066C319.178 358.13 316.725 360.717 314.225 360.781Z" fill="black"/>
<path d="M215.633 458.696C215.784 457.334 215.936 455.981 216.087 454.619C216.087 454.643 214.821 455.049 214.98 454.993C214.096 455.304 213.213 455.622 212.329 455.949C211.445 456.267 210.569 456.594 209.685 456.92C209.55 456.976 208.61 457.239 208.602 457.342C208.451 458.704 208.3 460.058 208.148 461.419C208.148 461.395 209.414 460.989 209.255 461.045C210.139 460.734 211.023 460.416 211.907 460.089C212.791 459.771 213.666 459.444 214.55 459.118C214.686 459.07 215.617 458.799 215.633 458.696Z" fill="black"/>
<path d="M294.39 459.5C297.631 456.665 300.546 453.576 303.181 450.176C302.703 450.789 300.187 451.227 299.423 451.498C298.308 451.904 296.652 452.166 295.696 452.899C291.675 455.981 288.164 459.484 285.066 463.489C285.536 462.876 288.068 462.438 288.825 462.167C289.892 461.777 291.683 461.522 292.551 460.766C306.446 448.774 317.936 433.67 334.545 425.158C332.053 426.065 329.561 426.973 327.061 427.881C323.692 430.142 320.332 432.404 316.964 434.673C319.09 433.248 322.299 433.391 324.449 431.95C327.817 429.688 331.177 427.427 334.545 425.158C332.459 426.559 329.33 426.718 327.061 427.881C310.451 436.393 298.961 451.498 285.066 463.489C287.559 462.581 290.051 461.674 292.551 460.766C295.649 456.753 299.16 453.257 303.181 450.176C300.689 451.084 298.197 451.991 295.696 452.899C293.053 456.299 290.139 459.388 286.906 462.223C288.753 460.607 292.519 461.148 294.39 459.5Z" fill="black"/>
</svg>
