<svg width="612" height="172" viewBox="0 0 612 172" fill="none" xmlns="http://www.w3.org/2000/svg">
<path d="M54.6245 1H1V171H54.6245" stroke="#FDE1B9" stroke-width="2"/>
<path d="M556.875 171L610.5 171L610.5 1L556.876 0.999999" stroke="#FDE1B9" stroke-width="2"/>
<path d="M181.437 75C180.344 75 179.344 74.7333 178.437 74.2C177.557 73.6667 176.851 72.96 176.317 72.08C175.784 71.1733 175.517 70.1733 175.517 69.08V52.12C175.517 51.0267 175.784 50.04 176.317 49.16C176.851 48.2533 177.557 47.5333 178.437 47C179.344 46.4667 180.344 46.2 181.437 46.2H204.237V52.44H183.037C182.611 52.44 182.277 52.5467 182.037 52.76C181.824 52.9733 181.717 53.3067 181.717 53.76V67.44C181.717 67.8667 181.824 68.2 182.037 68.44C182.277 68.6533 182.611 68.76 183.037 68.76H204.237V75H181.437ZM214.008 75C212.968 75 212.008 74.7333 211.128 74.2C210.248 73.6667 209.541 72.96 209.008 72.08C208.475 71.2 208.208 70.24 208.208 69.2V57.6C208.208 56.56 208.475 55.6 209.008 54.72C209.541 53.84 210.248 53.1333 211.128 52.6C212.008 52.0667 212.968 51.8 214.008 51.8H225.928C226.995 51.8 227.968 52.0667 228.848 52.6C229.728 53.1333 230.421 53.84 230.928 54.72C231.461 55.6 231.728 56.56 231.728 57.6V69.2C231.728 70.24 231.461 71.2 230.928 72.08C230.421 72.96 229.728 73.6667 228.848 74.2C227.968 74.7333 226.995 75 225.928 75H214.008ZM214.328 68.88H225.608V57.92H214.328V68.88ZM234.89 75V51.8H252.61C253.677 51.8 254.65 52.0667 255.53 52.6C256.41 53.1333 257.104 53.84 257.61 54.72C258.144 55.6 258.41 56.56 258.41 57.6V75H252.29V57.92H241.01V75H234.89ZM267.521 75C266.481 75 265.521 74.7333 264.641 74.2C263.761 73.6667 263.054 72.96 262.521 72.08C261.987 71.2 261.721 70.24 261.721 69.2V68.04H267.841V68.88H279.121V66.48H267.521C266.481 66.48 265.521 66.2133 264.641 65.68C263.761 65.1467 263.054 64.44 262.521 63.56C261.987 62.68 261.721 61.72 261.721 60.68V57.6C261.721 56.56 261.987 55.6 262.521 54.72C263.054 53.84 263.761 53.1333 264.641 52.6C265.521 52.0667 266.481 51.8 267.521 51.8H279.441C280.507 51.8 281.481 52.0667 282.361 52.6C283.241 53.1333 283.947 53.84 284.481 54.72C285.014 55.6 285.281 56.56 285.281 57.6V58.76H279.121V57.92H267.841V60.32H279.441C280.507 60.32 281.481 60.5867 282.361 61.12C283.241 61.6533 283.947 62.36 284.481 63.24C285.014 64.12 285.281 65.08 285.281 66.12V69.2C285.281 70.24 285.014 71.2 284.481 72.08C283.947 72.96 283.241 73.6667 282.361 74.2C281.481 74.7333 280.507 75 279.441 75H267.521ZM295.183 75C294.116 75 293.143 74.7333 292.263 74.2C291.383 73.6667 290.676 72.96 290.143 72.08C289.609 71.2 289.343 70.24 289.343 69.2V44.92H295.463V51.8H304.063V57.92H295.463V68.88H304.063V75H295.183ZM307.74 75V57.6C307.74 56.56 308.007 55.6 308.54 54.72C309.073 53.84 309.78 53.1333 310.66 52.6C311.54 52.0667 312.513 51.8 313.58 51.8H326.38V57.92H313.86V75H307.74ZM335.376 75C334.309 75 333.336 74.7333 332.456 74.2C331.576 73.6667 330.869 72.96 330.336 72.08C329.829 71.2 329.576 70.24 329.576 69.2V60.32H346.976V57.92H329.576V51.8H347.296C348.363 51.8 349.336 52.0667 350.216 52.6C351.096 53.1333 351.789 53.84 352.296 54.72C352.829 55.6 353.096 56.56 353.096 57.6V75H335.376ZM335.696 68.88H346.976V65.68H335.696V68.88ZM357.35 75V51.8H363.47V75H357.35ZM357.35 50.36V44.2H363.47V50.36H357.35ZM368.172 75V51.8H385.892C386.958 51.8 387.932 52.0667 388.812 52.6C389.692 53.1333 390.385 53.84 390.892 54.72C391.425 55.6 391.692 56.56 391.692 57.6V75H385.572V57.92H374.292V75H368.172ZM401.823 75C400.757 75 399.783 74.7333 398.903 74.2C398.023 73.6667 397.317 72.96 396.783 72.08C396.25 71.2 395.983 70.24 395.983 69.2V44.92H402.103V51.8H410.703V57.92H402.103V68.88H410.703V75H401.823ZM420.021 75C418.981 75 418.021 74.7333 417.141 74.2C416.261 73.6667 415.554 72.96 415.021 72.08C414.487 71.2 414.221 70.24 414.221 69.2V68.04H420.341V68.88H431.621V66.48H420.021C418.981 66.48 418.021 66.2133 417.141 65.68C416.261 65.1467 415.554 64.44 415.021 63.56C414.487 62.68 414.221 61.72 414.221 60.68V57.6C414.221 56.56 414.487 55.6 415.021 54.72C415.554 53.84 416.261 53.1333 417.141 52.6C418.021 52.0667 418.981 51.8 420.021 51.8H431.941C433.007 51.8 433.981 52.0667 434.861 52.6C435.741 53.1333 436.447 53.84 436.981 54.72C437.514 55.6 437.781 56.56 437.781 57.6V58.76H431.621V57.92H420.341V60.32H431.941C433.007 60.32 433.981 60.5867 434.861 61.12C435.741 61.6533 436.447 62.36 436.981 63.24C437.514 64.12 437.781 65.08 437.781 66.12V69.2C437.781 70.24 437.514 71.2 436.981 72.08C436.447 72.96 435.741 73.6667 434.861 74.2C433.981 74.7333 433.007 75 431.941 75H420.021ZM68.3766 132L71.2966 104H86.0566L90.4166 106.68L89.0966 119.16L84.1766 121.84H75.0166L73.9766 132H68.3766ZM76.3766 108.8L75.5366 117.04H83.7366L84.5766 108.8H76.3766ZM98.4566 132H92.9766L96.0166 102.8H101.497L100.377 113.44L103.417 111.8H108.657L113.017 114.48L111.177 132H105.697L107.297 116.48H100.057L98.4566 132ZM117.875 140L122.555 130.6L116.875 112H122.355L126.035 123.76H126.115L131.995 112H137.475L123.275 140H117.875ZM155.832 122.16L155.112 129.32L150.192 132H138.992L139.472 127.32H149.832L150.152 124.24H144.432L140.072 121.56L140.792 114.68L145.712 112H156.512L156.032 116.68H146.072L145.752 119.48H151.472L155.832 122.16ZM168.388 112L166.308 132H160.828L162.908 112H168.388ZM163.108 108.28L163.668 102.8H169.548L168.988 108.28H163.108ZM179.393 116.68L178.273 127.32H188.193L187.713 132H176.953L172.593 129.32L174.113 114.68L179.033 112H189.793L189.312 116.68H179.393ZM209.738 122.16L209.018 129.32L204.098 132H192.898L193.378 127.32H203.738L204.058 124.24H198.338L193.978 121.56L194.698 114.68L199.618 112H210.418L209.938 116.68H199.978L199.658 119.48H205.378L209.738 122.16ZM237.885 127.52L239.045 116.48H232.205L231.045 127.52H237.885ZM245.045 111.8L242.885 132.2H240.245L237.565 130.56L234.565 132.2H229.725L225.365 129.52L226.965 114.48L231.885 111.8H236.725L239.365 113.44L242.405 111.8H245.045ZM268.554 114.48L266.714 132H261.234L262.834 116.48H255.994L254.394 132H248.914L251.034 111.8H255.554L256.314 113.44L259.354 111.8H264.194L268.554 114.48ZM279.463 111.8H284.703L287.343 113.44L288.463 102.8H293.943L290.863 132.2H286.343L285.543 130.56L282.543 132.2H277.303L272.943 129.52L274.543 114.48L279.463 111.8ZM285.863 127.52L287.023 116.48H279.783L278.623 127.52H285.863ZM314.872 112L312.793 132H307.313L309.393 112H314.872ZM309.592 108.28L310.153 102.8H316.033L315.473 108.28H309.592ZM338.437 114.48L336.597 132H331.117L332.717 116.48H325.877L324.277 132H318.797L320.917 111.8H325.437L326.197 113.44L329.237 111.8H334.077L338.437 114.48ZM342.586 116.68L343.066 112H346.746L347.426 105.48L352.346 102.8H357.586L357.106 107.48H352.706L352.226 112H356.626L356.146 116.68H351.746L350.146 132H344.666L346.266 116.68H342.586ZM363.593 132L359.233 129.32L361.993 102.8H367.473L364.913 127.32H368.913L368.433 132H363.593ZM384.799 127.52L385.959 116.48H379.119L377.959 127.52H384.799ZM391.959 111.8L389.799 132.2H387.159L384.479 130.56L381.479 132.2H376.639L372.279 129.52L373.879 114.48L378.799 111.8H383.639L386.279 113.44L389.319 111.8H391.959ZM395.828 116.68L396.308 112H399.988L400.348 108.64L406.148 105.48L405.468 112H409.868L409.388 116.68H404.988L403.868 127.32H408.268L407.788 132H402.548L398.188 129.32L399.508 116.68H395.828ZM420.537 112L418.457 132H412.977L415.057 112H420.537ZM415.257 108.28L415.817 102.8H421.697L421.137 108.28H415.257ZM442.501 129.52L437.581 132.2H429.061L424.701 129.52L426.301 114.48L431.221 111.8H439.741L444.101 114.48L442.501 129.52ZM431.541 116.48L430.381 127.52H437.221L438.381 116.48H431.541ZM467.89 114.48L466.05 132H460.57L462.17 116.48H455.33L453.73 132H448.25L450.37 111.8H454.89L455.65 113.44L458.69 111.8H463.53L467.89 114.48ZM489.51 116.68L488.39 127.32H498.31L497.83 132H487.07L482.71 129.32L484.23 114.68L489.15 112H499.91L499.43 116.68H489.51ZM515.776 127.52L516.936 116.48H510.096L508.936 127.52H515.776ZM522.936 111.8L520.776 132.2H518.136L515.456 130.56L512.456 132.2H507.616L503.256 129.52L504.856 114.48L509.776 111.8H514.616L517.256 113.44L520.296 111.8H522.936ZM540.325 132.2H535.085L532.405 130.56L531.405 140H525.925L528.925 111.8H533.445L534.205 113.44L537.245 111.8H542.485L546.845 114.48L545.245 129.52L540.325 132.2ZM533.885 116.48L532.725 127.52H539.965L541.125 116.48H533.885Z" fill="#FBD161"/>
</svg>
