<svg width="21" height="21" viewBox="0 0 21 21" fill="none" xmlns="http://www.w3.org/2000/svg">
<circle cx="10.5" cy="10.5" r="10" stroke="white"/>
<path d="M6.44221 14.8876V13.5476C6.44221 13.041 6.56221 12.581 6.80221 12.1676C7.05554 11.741 7.38887 11.4076 7.80221 11.1676C8.22887 10.9143 8.68887 10.7876 9.18221 10.7876H14.0222C14.0889 10.7876 14.1422 10.7676 14.1822 10.7276C14.2355 10.6743 14.2622 10.6143 14.2622 10.5476V7.28762C14.2622 7.22095 14.2355 7.16762 14.1822 7.12762C14.1422 7.07428 14.0889 7.04762 14.0222 7.04762H4.34221V4.40762H14.1222C14.6155 4.40762 15.0689 4.53428 15.4822 4.78762C15.9089 5.04095 16.2489 5.37428 16.5022 5.78762C16.7555 6.20095 16.8822 6.66095 16.8822 7.16762V10.6676C16.8822 11.1743 16.7555 11.6343 16.5022 12.0476C16.2489 12.461 15.9089 12.7943 15.4822 13.0476C15.0689 13.301 14.6155 13.4276 14.1222 13.4276H9.32221C9.25554 13.4276 9.19554 13.4543 9.14221 13.5076C9.08887 13.5476 9.06221 13.601 9.06221 13.6676V14.8876H6.44221ZM6.44221 18.8076V16.1876H9.06221V18.8076H6.44221Z" fill="white"/>
</svg>
