<svg width="87" height="87" viewBox="0 0 87 87" fill="none" xmlns="http://www.w3.org/2000/svg">
<g style="mix-blend-mode:lighten">
<path d="M44 87L78.641 60.75H9.35898L44 87Z" fill="#FF2788"/>
</g>
<g style="mix-blend-mode:lighten">
<path d="M40 84L74.641 57.75H5.35898L40 84Z" fill="#39ACFF"/>
</g>
<g style="mix-blend-mode:lighten">
<path d="M47 84L81.641 57.75H12.359L47 84Z" fill="#13FFDA"/>
</g>
<path d="M6.05313 27.2V16.48L10.6931 13.8H20.0131L24.6531 16.48V20.6H20.6531V17.4H10.0531V25.88H20.0131L24.6531 28.56V39.52L20.0131 42.2H10.2931L5.65313 39.52V35.4H9.65313V38.6H20.6531V29.88H10.6931L6.05313 27.2ZM35.3144 12.8V31.96H35.3944L43.6344 22H48.2744L40.5544 31.04L49.4744 42H44.7144L38.2344 33.8L35.3144 37.24V42H31.4344V12.8H35.3144ZM56.5644 22V42H52.6844V22H56.5644ZM52.4844 17.08V12.8H56.7644V17.08H52.4844ZM75.7178 42.2H69.6778L66.8378 40.56V50H62.9578V21.8H65.8778L66.8378 23.44L69.6778 21.8H75.7178L80.3578 24.48V39.52L75.7178 42.2ZM66.8378 25.28V38.72H76.4778V25.28H66.8378Z" fill="white"/>
</svg>
