<svg width="45" height="45" viewBox="0 0 45 45" fill="none" xmlns="http://www.w3.org/2000/svg">
<rect width="45" height="45" rx="15" fill="black" fill-opacity="0.2"/>
<rect x="1.5" y="1.5" width="42" height="42" rx="13.5" stroke="#FDDC2D" stroke-opacity="0.5" stroke-width="3"/>
<g clip-path="url(#clip0_2364_9751)">
<path d="M19.8104 34.6037H11.27C10.0972 34.6037 9.1466 33.6528 9.1466 32.4803V11.2466C9.1466 10.0738 10.0972 9.12316 11.27 9.12316H30.3802C31.5531 9.12316 32.5037 10.0738 32.5037 11.2466V18.5129C33.2681 18.8483 33.9668 19.2901 34.6271 19.7893V11.2466C34.6271 8.90151 32.7256 7 30.3802 7H11.2703C8.92494 7 7.02344 8.90122 7.02344 11.2466V32.4803C7.02344 34.8256 8.92494 36.7272 11.27 36.7272H21.9443C21.1365 36.1234 20.4181 35.4085 19.8104 34.6037Z" fill="#FDDC2D" fill-opacity="0.5"/>
<path d="M28.7473 20.9683C24.3201 20.9683 20.7314 24.5572 20.7314 28.9841C20.7314 33.4111 24.3204 37 28.7473 37C33.1743 37 36.7632 33.4111 36.7632 28.9841C36.7632 24.5572 33.1743 20.9683 28.7473 20.9683ZM28.7473 34.9921C25.4286 34.9921 22.7385 32.3017 22.7385 28.9833C22.7385 25.6649 25.4289 22.9745 28.7473 22.9745C32.0657 22.9745 34.7564 25.6649 34.7564 28.9833C34.7561 32.3017 32.066 34.9921 28.7473 34.9921Z" fill="#FDDC2D" fill-opacity="0.5"/>
<path d="M32.1187 28.2547H29.8414V27.1162C29.8414 26.4873 29.3315 25.9774 28.7026 25.9774C28.0737 25.9774 27.5638 26.487 27.5638 27.1162V29.3935C27.5638 30.0224 28.0737 30.5323 28.7026 30.5323H32.1187C32.7476 30.5323 33.2573 30.0224 33.2573 29.3935C33.2573 28.7646 32.7473 28.2547 32.1187 28.2547ZM20.4063 12.2776C20.194 12.0653 19.906 11.946 19.6058 11.946C19.3055 11.946 19.0176 12.0653 18.8053 12.2776L15.0113 16.0716L13.4923 14.5526C13.0653 14.1256 12.373 14.1256 11.9462 14.5526C11.5192 14.9796 11.5192 15.6719 11.9462 16.099L14.0662 18.2192C14.1142 18.3012 14.1526 18.3856 14.2236 18.456C14.4603 18.6904 14.7701 18.7908 15.0753 18.7792C15.2194 18.7793 15.3622 18.7511 15.4955 18.696C15.6287 18.6409 15.7497 18.56 15.8516 18.458C15.877 18.433 15.888 18.401 15.9087 18.3713L20.4063 13.8763C20.5114 13.7714 20.5947 13.6468 20.6516 13.5096C20.7085 13.3725 20.7379 13.2255 20.7379 13.077C20.7379 12.7771 20.6186 12.4897 20.4063 12.2776ZM24.1479 14.2271C23.519 14.2271 23.0091 14.7367 23.0091 15.3656C23.0091 15.9945 23.519 16.5044 24.1479 16.5044H30.9799C31.6088 16.5044 32.1184 15.9948 32.1184 15.3656C32.1184 14.7367 31.6088 14.2271 30.9799 14.2271H24.1479ZM18.8056 20.2481L15.0113 24.0424L13.4923 22.5234C13.0653 22.0967 12.373 22.0967 11.9462 22.5234C11.5192 22.9504 11.5192 23.6427 11.9462 24.0698L14.0662 26.19C14.1142 26.272 14.1526 26.3564 14.2236 26.4268C14.4603 26.6612 14.7701 26.7616 15.0753 26.7502C15.2194 26.7504 15.3622 26.7221 15.4955 26.667C15.6287 26.6119 15.7497 26.5311 15.8516 26.4291C15.877 26.4041 15.888 26.3721 15.9087 26.3427L20.4063 21.8471C20.7958 21.3974 20.7714 20.7228 20.3502 20.3022C19.9293 19.8816 19.2547 19.858 18.8056 20.2481Z" fill="#FDDC2D" fill-opacity="0.5"/>
</g>
<path d="M31.6449 18.0825H29.3199V15.7575C29.3199 11.991 26.2665 8.9375 22.4999 8.9375C18.7332 8.9375 15.6799 11.9908 15.6799 15.7575V18.0825H13.3549C11.6428 18.0825 10.2549 19.4704 10.2549 21.1825V32.9625C10.2549 34.6746 11.6428 36.0625 13.3549 36.0625H31.6449C33.357 36.0625 34.7449 34.6746 34.7449 32.9625V21.1825C34.7449 19.4704 33.357 18.0825 31.6449 18.0825ZM17.8499 15.7575C17.8499 13.1935 19.9359 11.1075 22.4999 11.1075C25.0639 11.1075 27.1499 13.1935 27.1499 15.7575V18.0825H17.8499V15.7575ZM32.5749 32.9625C32.5749 33.4752 32.1578 33.8925 31.6449 33.8925H13.3549C12.842 33.8925 12.4249 33.4752 12.4249 32.9625V21.1825C12.4249 20.6698 12.842 20.2525 13.3549 20.2525H31.6449C32.1578 20.2525 32.5749 20.6698 32.5749 21.1825V32.9625Z" fill="black"/>
<path d="M22.5 23.6624C22.2123 23.6624 21.9363 23.7767 21.7328 23.9801C21.5294 24.1836 21.415 24.4596 21.415 24.7474V30.0174C21.415 30.1598 21.4431 30.3009 21.4976 30.4326C21.5522 30.5642 21.6321 30.6838 21.7328 30.7846C21.8336 30.8853 21.9532 30.9652 22.0848 31.0198C22.2165 31.0743 22.3576 31.1024 22.5 31.1024C22.6425 31.1024 22.7836 31.0743 22.9153 31.0198C23.0469 30.9652 23.1665 30.8853 23.2673 30.7846C23.368 30.6838 23.4479 30.5642 23.5024 30.4326C23.557 30.3009 23.585 30.1598 23.585 30.0174V24.7474C23.585 24.4596 23.4707 24.1836 23.2673 23.9801C23.0638 23.7767 22.7878 23.6624 22.5 23.6624Z" fill="black"/>
<defs>
<clipPath id="clip0_2364_9751">
<rect width="30" height="30" fill="white" transform="translate(7 7)"/>
</clipPath>
</defs>
</svg>
