<svg width="612" height="172" viewBox="0 0 612 172" fill="none" xmlns="http://www.w3.org/2000/svg">
<path d="M54.6245 1H1V171H54.6245" stroke="#FDE1B9" stroke-width="2"/>
<path d="M556.875 171L610.5 171L610.5 1L556.876 0.999999" stroke="#FDE1B9" stroke-width="2"/>
<path d="M189.857 46.8062V18.0062H196.257L206.017 29.6462L215.737 18.0062H222.177V46.8062H215.937V27.4862L206.017 39.3262L196.057 27.5262V46.8062H189.857ZM232.567 46.8062C231.527 46.8062 230.567 46.5395 229.687 46.0062C228.807 45.4728 228.1 44.7662 227.567 43.8862C227.033 43.0062 226.767 42.0462 226.767 41.0062V29.4062C226.767 28.3662 227.033 27.4062 227.567 26.5262C228.1 25.6462 228.807 24.9395 229.687 24.4062C230.567 23.8728 231.527 23.6062 232.567 23.6062H244.487C245.553 23.6062 246.527 23.8728 247.407 24.4062C248.287 24.9395 248.98 25.6462 249.487 26.5262C250.02 27.4062 250.287 28.3662 250.287 29.4062V38.2862H232.887V40.6862H250.287V46.8062H232.567ZM232.887 32.9262H244.167V29.7262H232.887V32.9262ZM259.285 46.8062C258.245 46.8062 257.285 46.5395 256.405 46.0062C255.525 45.4728 254.819 44.7662 254.285 43.8862C253.752 43.0062 253.485 42.0462 253.485 41.0062V29.4062C253.485 28.3662 253.752 27.4062 254.285 26.5262C254.819 25.6462 255.525 24.9395 256.405 24.4062C257.285 23.8728 258.245 23.6062 259.285 23.6062H276.965V29.7262H259.605V40.6862H277.005V46.8062H259.285ZM280.285 46.8062V16.0062H286.405V23.6062H298.005C299.045 23.6062 300.005 23.8728 300.885 24.4062C301.765 24.9395 302.472 25.6462 303.005 26.5262C303.538 27.4062 303.805 28.3662 303.805 29.4062V46.8062H297.685V29.7262H286.405V46.8062H280.285ZM312.724 46.8062C311.657 46.8062 310.684 46.5395 309.804 46.0062C308.924 45.4728 308.217 44.7662 307.684 43.8862C307.177 43.0062 306.924 42.0462 306.924 41.0062V32.1262H324.324V29.7262H306.924V23.6062H324.644C325.71 23.6062 326.684 23.8728 327.564 24.4062C328.444 24.9395 329.137 25.6462 329.644 26.5262C330.177 27.4062 330.444 28.3662 330.444 29.4062V46.8062H312.724ZM313.044 40.6862H324.324V37.4862H313.044V40.6862ZM334.426 46.8062V23.6062H352.146C353.212 23.6062 354.186 23.8728 355.066 24.4062C355.946 24.9395 356.639 25.6462 357.146 26.5262C357.679 27.4062 357.946 28.3662 357.946 29.4062V46.8062H351.826V29.7262H340.546V46.8062H334.426ZM362.197 46.8062V23.6062H368.317V46.8062H362.197ZM362.197 22.1662V16.0062H368.317V22.1662H362.197ZM378.579 46.8062C377.539 46.8062 376.579 46.5395 375.699 46.0062C374.819 45.4728 374.113 44.7662 373.579 43.8862C373.046 43.0062 372.779 42.0462 372.779 41.0062V39.8462H378.899V40.6862H390.179V38.2862H378.579C377.539 38.2862 376.579 38.0195 375.699 37.4862C374.819 36.9528 374.113 36.2462 373.579 35.3662C373.046 34.4862 372.779 33.5262 372.779 32.4862V29.4062C372.779 28.3662 373.046 27.4062 373.579 26.5262C374.113 25.6462 374.819 24.9395 375.699 24.4062C376.579 23.8728 377.539 23.6062 378.579 23.6062H390.499C391.566 23.6062 392.539 23.8728 393.419 24.4062C394.299 24.9395 395.006 25.6462 395.539 26.5262C396.073 27.4062 396.339 28.3662 396.339 29.4062V30.5662H390.179V29.7262H378.899V32.1262H390.499C391.566 32.1262 392.539 32.3928 393.419 32.9262C394.299 33.4595 395.006 34.1662 395.539 35.0462C396.073 35.9262 396.339 36.8862 396.339 37.9262V41.0062C396.339 42.0462 396.073 43.0062 395.539 43.8862C395.006 44.7662 394.299 45.4728 393.419 46.0062C392.539 46.5395 391.566 46.8062 390.499 46.8062H378.579ZM400.441 46.8062V23.6062H428.361C429.428 23.6062 430.401 23.8728 431.281 24.4062C432.161 24.9395 432.855 25.6462 433.361 26.5262C433.895 27.4062 434.161 28.3662 434.161 29.4062V46.8062H428.081V29.7262H420.401V46.8062H414.241V29.7262H406.561V46.8062H400.441ZM150.255 103.806L153.175 75.8062H158.775L156.335 99.0062H165.895L165.415 103.806H150.255ZM186.506 99.1262L186.026 103.806H174.066L169.706 101.126L171.266 86.2862L176.186 83.6062H183.506L187.866 86.2862L186.826 95.8462H175.706L175.386 99.1262H186.506ZM176.506 88.2862L176.146 91.7262H181.786L182.146 88.2862H176.506ZM197.203 83.8062L200.443 96.9262H200.523L206.523 83.8062H212.003L202.523 103.806H197.043L191.723 83.8062H197.203ZM230.607 99.1262L230.127 103.806H218.167L213.807 101.126L215.367 86.2862L220.287 83.6062H227.607L231.967 86.2862L230.927 95.8462H219.807L219.487 99.1262H230.607ZM220.607 88.2862L220.247 91.7262H225.887L226.247 88.2862H220.607ZM240.785 103.806L236.425 101.126L239.185 74.6062H244.665L242.105 99.1262H246.105L245.625 103.806H240.785ZM276.461 93.9662L275.741 101.126L270.821 103.806H259.621L260.101 99.1262H270.461L270.781 96.0462H265.061L260.701 93.3662L261.421 86.4862L266.341 83.8062H277.141L276.661 88.4862H266.701L266.381 91.2862H272.101L276.461 93.9662ZM282.137 111.806L286.817 102.406L281.137 83.8062H286.617L290.297 95.5662H290.377L296.257 83.8062H301.737L287.537 111.806H282.137ZM320.094 93.9662L319.374 101.126L314.454 103.806H303.254L303.734 99.1262H314.094L314.414 96.0462H308.694L304.334 93.3662L305.054 86.4862L309.974 83.8062H320.774L320.294 88.4862H310.334L310.014 91.2862H315.734L320.094 93.9662ZM325.09 88.4862L325.57 83.8062H329.25L329.61 80.4462L335.41 77.2862L334.73 83.8062H339.13L338.65 88.4862H334.25L333.13 99.1262H337.53L337.05 103.806H331.81L327.45 101.126L328.77 88.4862H325.09ZM359.318 99.1262L358.838 103.806H346.878L342.518 101.126L344.078 86.2862L348.998 83.6062H356.318L360.678 86.2862L359.638 95.8462H348.518L348.198 99.1262H359.318ZM349.318 88.2862L348.958 91.7262H354.598L354.958 88.2862H349.318ZM394.815 86.2862L392.975 103.806H387.495L389.095 88.2862H383.255L381.655 103.806H376.175L377.775 88.2862H371.935L370.335 103.806H364.855L366.975 83.6062H371.495L372.255 85.2462L375.295 83.6062H379.135L382.615 85.7662L386.615 83.6062H390.455L394.815 86.2862ZM422.108 99.3262L423.268 88.2862H416.428L415.268 99.3262H422.108ZM429.268 83.6062L427.108 104.006H424.468L421.788 102.366L418.788 104.006H413.948L409.588 101.326L411.188 86.2862L416.108 83.6062H420.948L423.588 85.2462L426.628 83.6062H429.268ZM452.777 86.2862L450.937 103.806H445.457L447.057 88.2862H440.217L438.617 103.806H433.137L435.257 83.6062H439.777L440.537 85.2462L443.577 83.6062H448.417L452.777 86.2862ZM463.686 83.6062H468.926L471.566 85.2462L472.686 74.6062H478.166L475.086 104.006H470.566L469.766 102.366L466.766 104.006H461.526L457.166 101.326L458.766 86.2862L463.686 83.6062ZM470.086 99.3262L471.246 88.2862H464.006L462.846 99.3262H470.086ZM135.69 145.486H128.81L127.21 160.806H121.73L123.81 140.806H128.33L129.13 142.446L132.13 140.806H136.17L135.69 145.486ZM155.178 156.126L154.698 160.806H142.738L138.378 158.126L139.938 143.286L144.858 140.606H152.178L156.538 143.286L155.498 152.846H144.378L144.058 156.126H155.178ZM145.178 145.286L144.818 148.726H150.458L150.818 145.286H145.178ZM177.555 150.966L176.835 158.126L171.915 160.806H160.715L161.195 156.126H171.555L171.875 153.046H166.155L161.795 150.366L162.515 143.486L167.435 140.806H178.235L177.755 145.486H167.795L167.475 148.286H173.195L177.555 150.966ZM200.591 158.326L195.671 161.006H187.151L182.791 158.326L184.391 143.286L189.311 140.606H197.831L202.191 143.286L200.591 158.326ZM189.631 145.286L188.471 156.326H195.311L196.471 145.286H189.631ZM206.58 158.326L208.42 140.806H213.9L212.26 156.326H219.1L220.74 140.806H226.22L224.1 161.006H219.58L218.78 159.366L215.78 161.006H210.94L206.58 158.326ZM244.089 145.486H237.209L235.609 160.806H230.129L232.209 140.806H236.729L237.529 142.446L240.529 140.806H244.569L244.089 145.486ZM253.576 145.486L252.456 156.126H262.376L261.896 160.806H251.136L246.776 158.126L248.296 143.486L253.216 140.806H263.976L263.496 145.486H253.576ZM284.162 156.126L283.682 160.806H271.722L267.362 158.126L268.922 143.286L273.842 140.606H281.162L285.522 143.286L284.482 152.846H273.362L273.042 156.126H284.162ZM274.162 145.286L273.802 148.726H279.442L279.802 145.286H274.162ZM313.61 161.006H308.37L305.69 159.366L304.69 168.806H299.21L302.21 140.606H306.73L307.49 142.246L310.53 140.606H315.77L320.13 143.286L318.53 158.326L313.61 161.006ZM307.17 145.286L306.01 156.326H313.25L314.41 145.286H307.17ZM338.269 145.486H331.389L329.789 160.806H324.309L326.389 140.806H330.909L331.709 142.446L334.709 140.806H338.749L338.269 145.486ZM358.716 158.326L353.796 161.006H345.276L340.916 158.326L342.516 143.286L347.436 140.606H355.956L360.316 143.286L358.716 158.326ZM347.756 145.286L346.596 156.326H353.436L354.596 145.286H347.756ZM371.225 140.606H376.465L379.105 142.246L380.225 131.606H385.705L382.625 161.006H378.105L377.305 159.366L374.305 161.006H369.065L364.705 158.326L366.305 143.286L371.225 140.606ZM377.625 156.326L378.785 145.286H371.545L370.385 156.326H377.625ZM388.924 158.326L390.764 140.806H396.244L394.604 156.326H401.444L403.084 140.806H408.564L406.444 161.006H401.924L401.124 159.366L398.124 161.006H393.284L388.924 158.326ZM419.553 145.486L418.433 156.126H428.353L427.873 160.806H417.113L412.753 158.126L414.273 143.486L419.193 140.806H429.953L429.473 145.486H419.553ZM433.059 145.486L433.539 140.806H437.219L437.579 137.446L443.379 134.286L442.699 140.806H447.099L446.619 145.486H442.219L441.099 156.126H445.499L445.019 160.806H439.779L435.419 158.126L436.739 145.486H433.059ZM457.767 140.806L455.687 160.806H450.207L452.287 140.806H457.767ZM452.487 137.086L453.047 131.606H458.927L458.367 137.086H452.487ZM479.731 158.326L474.811 161.006H466.291L461.931 158.326L463.531 143.286L468.451 140.606H476.971L481.331 143.286L479.731 158.326ZM468.771 145.286L467.611 156.326H474.451L475.611 145.286H468.771ZM505.12 143.286L503.28 160.806H497.8L499.4 145.286H492.56L490.96 160.806H485.48L487.6 140.606H492.12L492.88 142.246L495.92 140.606H500.76L505.12 143.286Z" fill="#FBD161"/>
</svg>
