<svg width="157" height="213" viewBox="0 0 157 213" fill="none" xmlns="http://www.w3.org/2000/svg">
<path d="M127.617 144.82C121.396 152.504 113.33 157.686 104.548 161.93C95.1504 166.468 84.9626 168.503 74.7894 168.488C54.8968 168.459 37.2584 162.048 23.9235 146.415C7.88064 127.621 -0.47747 106.031 0.634993 81.1185C0.796007 77.4738 0.85456 73.6974 2.68427 70.3162C2.75746 71.1505 2.81601 71.9702 2.91847 73.1851C5.53861 68.6475 5.97774 63.2464 9.90064 60.0848C14.5115 56.367 16.3558 50.8341 19.8835 46.4429C24.1138 41.9639 28.3587 37.4703 32.589 32.9913C32.8525 32.7279 33.1306 32.479 33.3941 32.2156C33.7747 31.8789 34.1699 31.5422 34.5505 31.1909C35.3994 30.7079 36.2484 30.2395 37.0974 29.7565C38.7076 30.2835 40.0542 29.0539 41.5765 29.0539L41.5619 29.0393C41.7815 30.9421 40.83 32.2888 39.5419 33.5183C36.0581 36.8409 33.2623 40.6612 31.0228 44.9499C25.4458 55.6644 21.9767 66.8472 20.6593 78.9668C19.0784 93.3698 22.4744 106.382 29.4419 118.634C35.9996 130.168 45.8068 138.628 56.8436 145.669C77.5705 158.871 98.5902 161.711 119.903 146.839C121.996 145.376 124.309 144.205 126.958 144.015C127.192 144.293 127.412 144.556 127.617 144.82Z" fill="#7E1912"/>
<path d="M33.3938 32.2157C33.1304 32.4791 32.8523 32.728 32.5888 32.9914C31.7252 30.225 29.5441 30.0054 27.1582 30.1518C30.7444 26.1705 35.4138 23.1113 37.6241 17.9444L37.668 17.8858C38.0047 17.6224 38.3267 17.3443 38.6634 17.0808L38.883 16.9198C39.1464 16.7002 39.4246 16.4807 39.688 16.2611C39.8198 16.1294 39.9515 16.0123 40.1125 15.9099C40.4638 15.8513 40.7127 15.6757 40.8591 15.3536C41.0786 15.1487 41.3421 14.9731 41.6056 14.8413C41.9861 14.5339 42.3667 14.2119 42.7473 13.9045L42.8644 13.8314C43.1572 13.6264 43.4646 13.4361 43.7573 13.2312L44.1525 12.9239C44.7088 12.5579 45.2796 12.1773 45.8359 11.8114C77.2922 -6.90957 119.405 -5.24093 143.879 30.386C154.418 45.7258 158.019 63.1294 156.467 81.5138C154.638 103.382 147.831 123.347 132.681 139.828C131.554 141.058 130.69 142.668 128.846 143.078V143.092C129.241 142.068 129.622 141.029 130.017 140.004C131.73 137.267 133.676 134.632 135.126 131.749C146.016 110.188 150.685 87.2515 148.168 63.2758C146.279 45.2867 138.478 30.1518 123.211 19.291C101.503 3.8488 75.3454 4.97584 51.6909 19.6862C46.4653 22.5258 41.0054 24.9995 37.0972 29.742C36.2482 30.225 35.3992 30.6934 34.5502 31.1764C33.9062 31.235 33.5256 31.5716 33.3938 32.2157Z" fill="#EC7C48"/>
<path d="M31.2569 187.355C31.3154 186.477 31.4472 185.658 32.3254 185.189C34.7846 184.779 34.243 182.832 34.3601 181.222C34.4918 180.783 34.6236 180.344 34.7553 179.92C34.9602 179.642 35.1651 179.378 35.3847 179.1L35.4286 179.041C38.3708 177.373 42.4254 177.812 44.138 173.948C45.4115 176.231 42.7035 178.032 44.3869 180.286C45.6896 177.841 47.1095 176.085 48.705 179.817C48.7782 181.149 48.7196 182.423 47.4608 183.272C44.8846 182.35 43.9917 183.93 42.967 185.936C38.6782 194.25 36.5265 203.632 30.4957 211.068C25.6946 209.75 20.4689 209.955 16.0776 207.13C21.7863 201.51 26.7192 195.274 30.6568 188.278C30.847 187.97 31.052 187.663 31.2569 187.355Z" fill="#BF5B26"/>
<path d="M37.6242 17.9445C35.4139 23.1114 30.7445 26.1706 27.1583 30.1519C24.1868 33.4013 21.0983 36.6069 19.0783 40.5443C18.0829 42.491 16.4581 44.9208 19.8833 46.4577C16.3557 50.8489 14.526 56.3817 9.90045 60.0996C5.99219 63.2612 5.53843 68.6624 2.91828 73.1999C2.81582 71.985 2.75727 71.1507 2.68408 70.331C2.77191 69.6284 2.84509 68.9405 2.93292 68.2379C3.18176 67.5353 3.4306 66.8181 3.67944 66.1155C3.67944 62.6758 5.42132 59.8508 6.91437 56.938C7.19248 56.2061 7.4706 55.4743 7.74871 54.7424C7.83654 54.4789 7.90973 54.2008 7.96828 53.9373C8.23176 53.5275 8.49523 53.103 8.75871 52.6932C8.84653 52.4297 8.91973 52.1516 8.97828 51.8735C9.22712 51.4636 9.49059 51.0538 9.73944 50.6294L9.72479 50.6586C10.5591 50.2341 10.8373 49.5023 10.808 48.6094L10.7933 48.624C11.6862 48.1556 11.8765 47.3652 11.818 46.4577C18.0683 34.7919 26.8655 25.468 37.6242 17.9445Z" fill="#C6351D"/>
<path d="M30.481 211.067C36.5117 203.632 38.6634 194.249 42.9523 185.935C43.9915 183.93 44.8698 182.349 47.446 183.271C44.3575 193.605 40.9908 203.837 34.7991 212.839C33.1889 212.707 30.9786 213.966 30.481 211.067Z" fill="#EEB65D"/>
<path d="M48.7051 179.817C47.1096 176.085 45.6897 177.841 44.387 180.285C42.689 178.031 45.397 176.231 44.1381 173.948C42.4255 177.826 38.3709 177.373 35.4287 179.041C36.2191 176.612 36.9071 174.152 37.8146 171.781C40.0249 165.941 40.0688 165.956 45.6458 168.4C52.9353 171.591 53.0817 172.133 48.7051 179.817Z" fill="#C6351D"/>
<path d="M34.3598 181.222C34.2574 182.833 34.799 184.779 32.3252 185.189C32.4277 183.579 32.9253 182.159 34.3598 181.222Z" fill="#C6351D"/>
<path d="M127.617 144.82C127.397 144.556 127.192 144.293 126.973 144.029C127.602 143.722 128.217 143.4 128.846 143.092V143.078C128.436 143.663 128.027 144.249 127.617 144.82Z" fill="#EC7C48"/>
<path d="M10.8226 48.5947C10.8519 49.4876 10.5738 50.2194 9.73946 50.6439C9.71018 49.7511 9.9151 48.9899 10.8226 48.5947Z" fill="#7E1912"/>
<path d="M11.8327 46.4281C11.9059 47.3502 11.7009 48.1407 10.808 48.5944C10.7495 47.7016 10.9398 46.8965 11.8327 46.4281Z" fill="#7E1912"/>
<path d="M45.8508 11.7969C45.2946 12.1628 44.7237 12.5434 44.1675 12.9093C44.4017 12.0457 45.075 11.8408 45.8508 11.7969Z" fill="#C6351D"/>
<path d="M3.69448 66.1005C3.44563 66.803 3.1968 67.5203 2.94796 68.2229C2.66984 67.33 2.74303 66.5542 3.69448 66.1005Z" fill="#7E1912"/>
<path d="M7.76356 54.7274C7.48544 55.4593 7.20733 56.1911 6.92921 56.923C6.72429 56.0009 6.82675 55.2104 7.76356 54.7274Z" fill="#7E1912"/>
<path d="M43.7718 13.2166C43.4791 13.4215 43.1717 13.6118 42.8789 13.8167C43.1717 13.6264 43.4791 13.4215 43.7718 13.2166Z" fill="#C6351D"/>
<path d="M42.7619 13.8895C42.3813 14.1969 42.0007 14.5189 41.6201 14.8263C42.0007 14.5189 42.3813 14.2115 42.7619 13.8895Z" fill="#C6351D"/>
<path d="M40.8594 15.3536C40.713 15.6756 40.4495 15.8659 40.1129 15.9098C40.0982 15.3536 40.3763 15.2072 40.8594 15.3536Z" fill="#C6351D"/>
<path d="M39.6884 16.2611C39.4249 16.4807 39.1468 16.7002 38.8833 16.9198C38.9126 16.4075 39.1761 16.1733 39.6884 16.2611Z" fill="#C6351D"/>
<path d="M38.6633 17.0807C38.3267 17.3442 38.0046 17.6222 37.668 17.8857C37.99 17.6076 38.3267 17.3442 38.6633 17.0807Z" fill="#C6351D"/>
<path d="M35.3848 179.1C35.1799 179.378 34.9749 179.641 34.7554 179.919C34.9603 179.641 35.1799 179.378 35.3848 179.1Z" fill="#C6351D"/>
<path d="M8.77335 52.6637C8.50987 53.0735 8.24639 53.498 7.98291 53.9079C8.24639 53.498 8.50987 53.0882 8.77335 52.6637Z" fill="#7E1912"/>
<path d="M128.846 143.092C128.217 143.4 127.602 143.722 126.973 144.029C124.323 144.22 122.01 145.39 119.917 146.854C98.6049 161.726 77.5852 158.886 56.8583 145.683C45.8215 138.657 36.0142 130.182 29.4565 118.648C22.489 106.397 19.0931 93.3845 20.674 78.9815C22.006 66.8619 25.4605 55.6644 31.0374 44.9646C33.277 40.6613 36.0581 36.8556 39.5565 33.533C40.8447 32.3034 41.7961 30.9422 41.5765 29.054C41.6497 28.9515 41.7083 28.8344 41.7815 28.732C41.7229 28.8491 41.6497 28.9515 41.5912 29.0686C40.0689 29.0833 38.7222 30.3128 37.112 29.7712C41.0203 25.0288 46.4801 22.5404 51.7058 19.7155C53.2135 20.5498 54.1064 21.5305 52.95 23.3601C52.0571 24.78 51.4862 26.4047 50.608 27.8245C48.6758 30.9568 50.9593 33.0353 52.5548 35.0406C54.4138 37.3679 56.141 35.3041 57.8243 34.3234C59.5369 33.3134 61.0593 31.718 63.3574 32.4352C63.0061 34.1624 61.4398 34.8211 60.2396 35.67C52.3059 41.3639 46.3923 48.785 41.7522 57.2599C39.0003 62.2951 36.5119 67.462 36.4241 73.4047C39.9078 66.7009 43.8893 60.363 48.3538 54.3764C54.3845 46.282 60.9129 38.656 70.1932 34.0599C69.0953 38.2169 65.4359 40.4125 63.05 43.5741C59.9029 47.7457 54.5162 49.8535 51.7351 55.6791C58.1025 54.2593 57.4291 57.0111 55.7604 60.4069C54.8529 62.2658 54.97 63.51 57.473 64.0076C65.07 65.5445 65.0407 65.6324 64.382 73.5365C64.3527 73.917 64.8211 74.3562 65.0846 74.8245C68.8319 73.8292 70.6616 69.6869 74.6284 69.3649C74.7016 70.8432 74.0429 71.9995 73.0036 72.9656C68.422 77.2689 63.9136 81.6455 59.2295 85.8317C53.1403 91.2914 47.8268 97.5268 41.4594 102.708C37.8732 105.621 37.9757 109.793 39.3955 114.008C40.8447 118.341 44.4162 117.551 47.4902 117.302C53.5794 116.804 59.7272 116.321 65.6994 115.062C70.0761 114.14 71.452 114.96 71.4081 119.527C71.3788 124.137 72.4474 128.675 76.502 131.778C74.5406 139.55 76.3995 142.448 84.5527 144.176C86.2214 144.527 87.934 145.112 87.4802 146.957C86.0897 152.577 89.6027 151.465 92.6473 150.909C93.8915 150.689 95.004 151.128 96.1604 151.128C104.05 151.172 111.354 149.913 117.956 144.717C121.191 142.17 125.304 139.784 130.017 140.019C129.622 141.043 129.241 142.068 128.846 143.092Z" fill="#C6351D"/>
<path d="M19.8836 46.4431C16.4583 44.9208 18.0831 42.4764 19.0785 40.5296C21.0985 36.5922 24.1724 33.3867 27.1585 30.1372C29.5444 29.9909 31.7254 30.225 32.589 32.9768C28.3588 37.4704 24.1138 41.9641 19.8836 46.4431Z" fill="#E94621"/>
<path d="M33.394 32.2155C33.5258 31.5715 33.9064 31.2348 34.5504 31.1909C34.1698 31.5422 33.7893 31.8789 33.394 32.2155Z" fill="#C6351D"/>
<path d="M130.017 140.004C125.304 139.77 121.191 142.155 117.956 144.702C111.354 149.913 104.035 151.157 96.1602 151.113C95.0039 151.113 93.8914 150.674 92.6472 150.894C89.5879 151.45 86.0895 152.548 87.4801 146.942C87.9339 145.098 86.2213 144.512 84.5526 144.161C76.3994 142.434 74.5404 139.535 76.5019 131.763C77.1752 131.763 77.8632 131.763 78.5365 131.763C80.2491 133.402 80.8785 131.953 81.5811 130.695L81.5665 130.709C87.2459 129.538 92.2959 126.259 95.2527 121.971C98.2973 117.565 100.815 118.121 104.826 119.014C108.529 119.834 112.73 120.317 114.472 115.296C115.116 114.608 115.76 113.935 116.419 113.247C120.064 111.915 118.629 109.485 117.707 107.187C117.619 106.514 117.531 105.841 117.443 105.182C119.288 103.382 117.473 102.401 116.463 101.493C114.311 99.5759 112.071 97.7023 109.685 96.0922C103.567 91.9499 103.494 91.6278 105.001 84.4849C105.558 81.8355 107.68 79.0398 105.162 76.2588C105.25 75.6001 105.338 74.9414 105.441 74.2974C106.904 74.0193 108.251 73.2581 108.148 71.7359C107.914 68.0327 109.598 64.8271 110.52 61.4313C111.662 57.1718 109.744 53.6297 107.431 50.673C104.006 46.2818 95.604 47.7455 93.0571 52.7368L92.9692 52.7807C91.6811 52.8099 91.0224 53.454 90.9785 54.7421L90.8907 54.8299C86.7629 54.9617 84.7136 57.4061 83.8792 61.1825C82.474 63.1585 80.7468 64.8125 78.7707 66.203C77.8485 66.0859 77.0581 66.2908 76.5604 67.1544L76.6043 67.1691C75.243 67.1691 74.5551 67.857 74.5551 69.2183L74.6136 69.3207C70.6322 69.6281 68.8171 73.7851 65.0699 74.7804C64.8064 74.312 64.338 73.8876 64.3672 73.4923C65.0259 65.5883 65.0552 65.5151 57.4583 63.9635C54.9552 63.4512 54.8381 62.2217 55.7457 60.3628C57.3997 56.9669 58.073 54.2298 51.7203 55.6349C54.5015 49.8093 59.8881 47.7016 63.0352 43.53C65.4211 40.3684 69.0952 38.1581 70.1784 34.0158L70.2662 34.0743C75.3016 34.1036 78.6829 29.8588 83.3962 28.966C84.699 28.7171 84.6697 27.107 84.6843 25.8921C85.7529 25.5555 86.9971 25.5555 87.7729 24.0771C86.6311 24.0771 85.6797 24.0771 84.7282 24.0771C84.5233 22.6134 83.85 22.1158 82.2984 22.4817C76.7068 23.799 71.5982 26.3605 66.3872 28.6293C64.9967 29.2441 63.2255 30.1223 63.2841 32.2447L63.3426 32.3911C61.0445 31.6738 59.5222 33.2693 57.8096 34.2793C56.1409 35.26 54.399 37.3384 52.54 34.9965C50.9445 32.9912 48.6757 30.9127 50.5932 27.7804C51.4715 26.3459 52.0423 24.7358 52.9352 23.316C54.0916 21.4864 53.1987 20.5057 51.691 19.6713C75.3308 4.96095 101.488 3.8339 123.211 19.2761C138.478 30.1369 146.28 45.2718 148.168 63.2609C150.686 87.2366 146.016 110.173 135.126 131.734C133.677 134.632 131.73 137.267 130.017 140.004ZM91.4469 23.1696C91.3152 23.2136 91.1688 23.2574 91.0371 23.2867C91.2127 23.3892 91.3884 23.521 91.5787 23.5941C91.6372 23.6088 91.7543 23.4331 91.8421 23.3453C91.7104 23.2867 91.5787 23.2282 91.4469 23.1696Z" fill="#D2371C"/>
<path d="M78.7704 66.2178C80.7319 64.8127 82.4738 63.1733 83.879 61.1972C86.6748 59.5872 89.2071 57.6843 90.8904 54.8447L90.9782 54.7569C91.9882 54.4495 92.6469 53.7908 92.969 52.7955L93.0568 52.7516C94.1546 52.3271 95.2817 51.9905 96.321 51.4635C103.362 47.9067 107.226 50.3511 107.563 58.2405C107.812 63.7734 105.894 68.9257 105.426 74.3122C105.338 74.9709 105.25 75.6296 105.148 76.2736C103.069 79.9475 103.42 84.2069 102.337 88.1151C101.371 91.5987 102.498 94.3359 105.396 96.6193C109.261 99.6931 113.974 101.552 117.443 105.182C117.531 105.855 117.619 106.529 117.707 107.187C117.282 109.207 116.843 111.227 116.419 113.247C115.774 113.935 115.13 114.608 114.472 115.296C109.641 116.863 104.767 116.819 99.8633 115.779C96.7455 115.121 93.7301 114.857 91.6516 118.019C88.6801 122.556 85.211 126.684 81.5809 130.709L81.5955 130.695C80.4684 130.709 79.3559 130.826 78.5509 131.763C77.8775 131.763 77.1896 131.763 76.5162 131.763C72.4616 128.675 71.393 124.123 71.4223 119.512C71.4516 114.945 70.0757 114.125 65.7136 115.048C59.7561 116.306 53.6083 116.789 47.5044 117.287C44.4305 117.536 40.8589 118.326 39.4097 113.994C37.9899 109.778 37.9021 105.607 41.4737 102.694C47.841 97.5122 53.1545 91.2767 59.2438 85.817C63.9278 81.6308 68.4362 77.2397 73.0178 72.951C74.0571 71.9703 74.7158 70.8139 74.6426 69.3502L74.5841 69.2477C75.8868 69.1892 76.5748 68.5012 76.6333 67.1985L76.5894 67.1839C77.453 67.2278 78.1849 66.8912 78.7704 66.2178ZM48.7925 102.05C48.046 102.533 47.8264 103.25 47.8264 104.084C47.0067 108.139 49.9781 108.797 52.7007 109.002C56.7847 109.31 60.8978 109.017 64.9964 109.134C68.568 109.237 72.8275 106.529 75.4038 108.812C77.9507 111.066 75.9893 115.633 76.4723 119.146C76.7504 121.181 76.6333 123.64 78.9022 124.386C81.5809 125.264 82.7812 122.805 84.04 121.049C87.6262 116.043 91.2856 111.139 97.0529 108.388C100.815 108.3 104.357 109.471 107.987 110.217C110.124 110.656 112.657 111.579 113.93 109.032C115.379 106.133 112.525 105.255 110.827 104.114C107.153 101.669 103.406 99.3125 99.5998 97.0877C97.5359 95.8728 96.9651 94.5408 97.4774 92.0964C99.0143 84.7924 100.2 77.4153 101.517 70.0674C102.352 66.2325 103.274 62.4122 103.962 58.5626C104.299 56.6597 103.991 54.6984 102.103 53.6298C100.288 52.6052 98.7509 53.7616 97.4774 54.8594C95.3988 56.6305 93.4666 58.5772 91.5052 60.48C80.7319 70.9603 70.1196 81.5869 58.4534 91.145C54.7647 94.1456 50.5783 97.1316 48.7925 102.05Z" fill="#7E1912"/>
<path d="M84.7427 24.1066C85.6942 24.1066 86.6603 24.1066 87.7874 24.1066C87.0116 25.5849 85.7527 25.585 84.6988 25.9216C79.3707 27.722 74.2622 29.9322 70.2661 34.1038L70.1783 34.0452C60.8834 38.656 54.355 46.2673 48.3389 54.3617C43.8744 60.3629 39.9076 66.6862 36.4092 73.39C36.5116 67.4473 38.9854 62.2804 41.7373 57.2452C46.3774 48.7703 52.291 41.3492 60.2247 35.6553C61.4103 34.8064 62.9912 34.1477 63.3425 32.4205L63.2839 32.2742C70.7491 30.3567 77.0872 25.4971 84.7427 24.1066Z" fill="#7E1912"/>
<path d="M41.591 29.0545C41.6497 28.9372 41.7231 28.8345 41.7818 28.7172C41.7084 28.8345 41.6497 28.9372 41.591 29.0545Z" fill="#7E1912"/>
<path d="M81.5811 130.709C85.2112 126.699 88.6803 122.556 91.6518 118.019C93.7303 114.843 96.7457 115.121 99.8635 115.779C104.767 116.804 109.656 116.863 114.472 115.296C112.73 120.317 108.529 119.834 104.826 119.014C100.815 118.121 98.2973 117.565 95.2526 121.971C92.2958 126.26 87.2458 129.538 81.5811 130.709Z" fill="#C6351D"/>
<path d="M105.426 74.2972C105.894 68.9108 107.812 63.7584 107.563 58.2256C107.212 50.3361 103.347 47.8918 96.3213 51.4486C95.2821 51.9755 94.1403 52.3121 93.0571 52.7366C95.6041 47.7453 103.991 46.2817 107.431 50.6728C109.729 53.6149 111.662 57.1717 110.52 61.4311C109.612 64.827 107.914 68.0179 108.149 71.7357C108.236 73.258 106.89 74.0191 105.426 74.2972Z" fill="#C6351D"/>
<path d="M117.444 105.182C113.989 101.552 109.276 99.6931 105.397 96.6193C102.499 94.3212 101.371 91.5841 102.338 88.115C103.421 84.1923 103.069 79.9475 105.148 76.2736C107.666 79.0546 105.543 81.8503 104.987 84.4997C103.494 91.6426 103.552 91.9646 109.671 96.1069C112.057 97.717 114.296 99.5906 116.448 101.508C117.458 102.386 119.273 103.382 117.444 105.182Z" fill="#C6351D"/>
<path d="M84.743 24.1063C77.0875 25.4969 70.7493 30.3711 63.2988 32.2739C63.2402 30.1515 65.0114 29.2733 66.402 28.6585C71.613 26.3751 76.7215 23.8282 82.3131 22.5109C83.8501 22.1303 84.538 22.6426 84.743 24.1063Z" fill="#C6351D"/>
<path d="M70.2661 34.0892C74.2622 29.9176 79.3707 27.722 84.6989 25.907C84.6842 27.1219 84.6989 28.732 83.4107 28.9808C78.6828 29.8737 75.3015 34.1184 70.2661 34.0892Z" fill="#C6351D"/>
<path d="M90.8762 54.8447C89.1929 57.6843 86.6605 59.5872 83.8647 61.1973C84.7137 57.4062 86.7484 54.9618 90.8762 54.8447Z" fill="#C6351D"/>
<path d="M116.404 113.247C116.828 111.227 117.267 109.207 117.692 107.187C118.614 109.5 120.049 111.915 116.404 113.247Z" fill="#C6351D"/>
<path d="M78.5361 131.763C79.3558 130.826 80.4537 130.724 81.5808 130.695C80.8782 131.953 80.2487 133.402 78.5361 131.763Z" fill="#C6351D"/>
<path d="M76.6045 67.184C76.5459 68.4867 75.8579 69.1746 74.5552 69.2332C74.5698 67.8719 75.2431 67.184 76.6045 67.184Z" fill="#C6351D"/>
<path d="M92.9692 52.7806C92.6472 53.776 91.9885 54.4493 90.9785 54.7421C91.0078 53.4686 91.6811 52.8099 92.9692 52.7806Z" fill="#C6351D"/>
<path d="M91.447 23.1694C91.5787 23.228 91.7104 23.2865 91.8422 23.3597C91.7543 23.4475 91.6372 23.6232 91.5787 23.6085C91.3884 23.5353 91.2128 23.4036 91.0371 23.3012C91.1835 23.2426 91.3152 23.1987 91.447 23.1694Z" fill="#7E1912"/>
<path d="M78.7708 66.2177C78.2 66.9056 77.4681 67.2276 76.5605 67.1691C77.0582 66.3055 77.8487 66.1006 78.7708 66.2177Z" fill="#C6351D"/>
<path d="M97.0676 108.388C91.3004 111.139 87.641 116.043 84.0547 121.049C82.7959 122.82 81.5956 125.264 78.9169 124.386C76.6481 123.64 76.7652 121.181 76.4871 119.146C76.004 115.633 77.9655 111.066 75.4185 108.812C72.8423 106.529 68.5827 109.222 65.0112 109.134C60.9126 109.017 56.7848 109.31 52.7155 109.002C49.9929 108.797 47.0215 108.139 47.8412 104.084C48.1632 103.411 48.4852 102.723 48.8073 102.05L48.8219 102.035C55.1454 99.7078 60.532 95.7996 65.7723 91.7158C76.7066 83.2409 86.4553 73.4632 96.1015 63.5831C94.8281 72.102 93.5985 80.6208 92.2372 89.1251C91.7688 92.0525 91.5346 94.8482 93.2765 97.439C95.4721 100.776 96.3065 104.567 97.0676 108.388Z" fill="#C76F35"/>
<path d="M96.1014 63.5977C86.4552 73.4778 76.7065 83.2408 65.7722 91.7304C60.5319 95.7995 55.1452 99.7076 48.8218 102.05C50.5929 97.1461 54.7793 94.1602 58.468 91.1303C70.1196 81.5722 80.7465 70.9455 91.5199 60.4653C93.4813 58.5625 95.4135 56.6157 97.492 54.8446C98.7801 53.7468 100.302 52.5905 102.118 53.6151C104.02 54.6836 104.328 56.645 103.976 58.5478C103.274 62.3974 102.352 66.2178 101.532 70.0527C101.386 68.3987 101.576 66.613 101.005 65.12C100.127 62.8805 98.6777 61.0215 96.1014 63.5977Z" fill="#D5B777"/>
<path d="M96.1015 63.5976C98.6923 61.0214 100.141 62.8803 101.005 65.1344C101.576 66.6274 101.386 68.4132 101.532 70.0672C100.215 77.4151 99.029 84.7922 97.492 92.0962C96.9797 94.5406 97.5506 95.8726 99.6145 97.0875C103.42 99.3123 107.168 101.669 110.842 104.113C112.554 105.255 115.394 106.148 113.945 109.031C112.671 111.578 110.139 110.656 108.002 110.217C104.386 109.485 100.829 108.3 97.0675 108.387C96.3064 104.567 95.472 100.776 93.2617 97.4534C91.5199 94.848 91.7541 92.0523 92.2225 89.1395C93.5838 80.6353 94.8133 72.1164 96.1015 63.5976Z" fill="#EEB65D"/>
<path d="M48.7928 102.05C48.4707 102.723 48.1487 103.411 47.8267 104.084C47.8267 103.25 48.0462 102.533 48.7928 102.05Z" fill="#D5B777"/>
</svg>
