<svg width="314" height="871" viewBox="0 0 314 871" fill="none" xmlns="http://www.w3.org/2000/svg">
<path d="M117.975 467.466C109.182 474.969 99.6189 479.759 87.5264 476.962C81.5639 475.589 76.8409 472.105 74.0941 467.248C65.7031 452.393 65.4518 436.499 69.9572 420.354C71.0291 419.248 73.6084 419.566 73.6586 417.942C73.8429 411.812 79.4536 409.183 82.7196 406.101C87.1412 401.931 89.2683 397.023 92.082 392.217C95.281 388.264 97.2239 383.34 101.461 380.208C101.562 384.848 97.6593 387.929 96.8219 392.217C96.3697 393.791 95.9342 395.365 95.482 396.94C94.7618 399.151 94.0919 401.378 93.3382 403.572C88.0959 418.746 84.1767 434.154 84.9807 450.383C85.5166 461.018 93.3382 468.236 104.041 468.739C108.797 468.94 113.302 467.583 117.975 467.466Z" fill="#7E1912"/>
<path d="M117.975 467.466C113.303 467.583 108.797 468.957 104.041 468.722C93.3216 468.22 85.5 461.001 84.9808 450.366C84.1769 434.137 88.096 418.713 93.3383 403.556C94.092 401.362 94.7619 399.134 95.4821 396.923C96.9225 397.108 99.6693 397.308 98.4969 398.967C95.7166 402.869 99.0831 406.671 97.1235 410.556C99.1166 410.305 100.423 410.138 101.729 409.97C99.0998 418.612 97.2408 427.354 97.9275 436.499C98.6309 445.895 103.907 450.132 113.118 448.809C116.334 448.34 119.081 446.966 121.811 445.509C131.374 440.384 136.968 431.675 142.261 422.682C145.225 424.993 142.479 427.622 142.663 430.084C142.73 434.59 140.352 438.157 138.308 441.925C133.334 451.036 125.646 458.037 119.617 466.31C119.081 466.679 118.528 467.064 117.975 467.466Z" fill="#C6351D"/>
<path d="M235.198 118.253C231.849 128.05 226.288 131.417 216.474 129.089C197.514 124.6 185.237 111.419 174.82 96.1284C169.712 88.642 166.63 80.201 165.189 71.2073C167.735 69.0133 168.941 65.58 171.939 63.8047C173.246 65.178 173.262 67.0371 173.714 68.7119C179.308 88.6756 190.882 104.519 207.429 116.645C214.279 121.669 221.934 124.583 230.174 118.772C231.179 118.068 232.803 118.236 234.143 117.985C234.495 118.102 234.847 118.186 235.198 118.253Z" fill="#C76F35"/>
<path d="M108.378 357.029C118.695 348.823 130.252 344.719 143.148 348.906C153.365 352.223 159.143 359.826 160.517 370.897C161.053 375.301 161.723 379.606 161.237 384.027C160.064 385.551 158.658 386.64 156.581 386.422C156.195 383.927 155.777 381.431 155.408 378.936C153.566 366.442 145.443 357.146 135.377 357.18C124.993 357.213 116.552 362.121 109.618 369.724C108.847 369.875 108.094 370.026 107.323 370.176C106.519 368.401 105.297 367.061 103.438 366.375C103.555 365.973 103.672 365.571 103.789 365.169C104.995 362.271 110.371 361.719 108.378 357.029Z" fill="#EC7C48"/>
<path d="M235.199 118.253C234.847 118.186 234.495 118.102 234.16 117.985C235.617 105.089 229.923 95.0066 222.369 85.1253C218.098 79.5482 211.65 77.4715 207.044 72.7318C200.881 66.4178 193.026 62.8839 184.903 60.1037C180.046 58.4457 175.339 59.2998 171.939 63.7883C168.941 65.5636 167.752 68.9969 165.19 71.1909C162.929 57.3403 171.052 48.9495 187.231 52.8183C209.573 58.1609 233.39 85.477 236.421 108.455C236.89 111.822 236.488 115.104 235.199 118.253Z" fill="#D5B777"/>
<path d="M106.134 352.29C56.1899 336.345 6.36292 319.983 -44 301.928C-40.1311 299.064 -37.5853 300.438 -35.14 301.308C-4.23893 312.144 26.6622 323.047 57.5633 333.883C72.101 338.975 86.689 343.932 101.21 349.057C102.985 349.66 105.079 349.761 106.134 352.29Z" fill="#C5A771"/>
<path d="M285.277 725.034C245.801 730.36 206.307 735.702 166.831 741.028C169.913 735.535 273.536 721.4 284.959 723.292C285.059 723.878 285.16 724.448 285.277 725.034Z" fill="#D5B777"/>
<path d="M103.806 365.169C103.689 365.571 103.572 365.973 103.454 366.375C97.8938 372.505 94.7283 380.108 90.7421 387.193C89.5865 389.236 88.8998 391.246 92.0653 392.2C89.2515 397.007 87.1245 401.914 82.7029 406.084C79.4536 409.149 73.8261 411.795 73.6418 417.925C73.5916 419.55 71.0291 419.248 69.9404 420.337C72.4025 402.433 79.1019 386.405 91.0436 372.706C92.0653 376.172 93.3884 376.005 95.6327 373.442C98.1785 370.528 99.2169 366.057 103.806 365.169ZM90.2229 379.321C90.5579 379.522 90.8092 379.706 91.0771 379.823C91.1274 379.84 91.4121 379.539 91.3954 379.472C91.2781 379.204 91.0771 378.969 90.9096 378.718C90.6919 378.919 90.4574 379.12 90.2229 379.321Z" fill="#C6351D"/>
<path d="M156.581 386.422C158.657 386.64 160.048 385.551 161.237 384.027C161.27 385.585 162.644 387.075 161.421 388.683C159.947 389.738 160.014 390.894 161.203 392.133C160.081 408.295 153.516 422.648 146.079 436.616C139.715 448.608 131.893 459.477 119.633 466.294C125.663 458.02 133.35 451.019 138.325 441.909C140.368 438.157 142.763 434.59 142.679 430.068C145.409 429.264 145.56 426.701 146.531 424.641C147.52 422.514 147.151 420.136 148.541 418.026C153.365 410.724 155.425 402.534 155.609 393.808C155.659 391.313 154.872 388.683 156.581 386.422Z" fill="#C76F35"/>
<path d="M284.64 393.875C283.485 397.828 281.123 397.191 278.879 396.371C252.751 386.824 226.64 377.261 200.546 367.631C198.871 367.011 196.543 366.76 197.029 362.908C226.841 372.036 255.314 384.094 284.64 393.875Z" fill="#D5B777"/>
<path d="M184.467 601.618C151.154 601.199 117.908 599.541 84.6626 597.665C84.6961 596.895 84.7296 596.124 84.7464 595.354C118.059 596.476 151.355 597.615 184.668 598.737C184.601 599.709 184.534 600.663 184.467 601.618Z" fill="#D5B777"/>
<path d="M244.829 306.216C245.097 307.154 245.499 308.075 245.633 309.029C245.984 311.491 247.207 314.473 245.18 316.265C242.986 318.191 240.323 316.315 238.179 315.109C234.21 312.865 230.492 312.948 226.623 315.41C225.3 316.248 223.524 317.923 221.933 316.265C220.677 314.958 221.129 312.881 221.615 311.207C222.67 307.572 223.591 304.022 221.28 300.521C224.831 298.528 229.236 298.528 232.451 295.564C233.456 297.256 233.121 299.617 235.232 300.521C237.677 303.687 240.541 306.149 244.829 306.216Z" fill="#C76F35"/>
<path d="M195.294 675.666C190.671 674.309 191.593 670.089 188.729 669.251C186.434 670.122 187.405 672.366 186.535 673.823C184.86 670.156 183.218 666.153 180.857 663.574C177.792 660.224 178.88 657.427 180.388 655.283C182.398 652.436 183.754 649.505 184.642 645C188.226 652.118 189.248 661.011 200.436 657.628C196.567 663.239 190.537 667.493 195.294 675.666Z" fill="#57AB91"/>
<path d="M187.398 812.944C217.629 801.622 248.513 792.629 280.403 787.303C249.401 795.844 218.4 804.386 187.398 812.944Z" fill="#C5A771"/>
<path d="M107.486 498.359C92.0938 495.344 76.8191 492.38 61.5779 489.282C60.5395 489.064 58.4627 489.03 58.9819 486.903C59.4676 484.877 61.2262 484.843 62.767 485.128C68.8803 486.217 74.9767 487.423 81.0732 488.628C90.0337 490.387 99.0109 492.112 107.938 494.038C109.362 494.34 112.008 494.139 111.371 496.902C110.835 499.213 108.725 497.689 107.486 498.359Z" fill="#D5B777"/>
<path d="M278.544 856.489C277.589 859.638 276.199 862.669 276.534 866.103C276.936 870.122 274.859 870.775 271.51 869.77C267.942 868.698 264.81 866.203 260.506 867.911C258.446 868.732 257.725 866.253 258.161 864.361C258.781 861.714 259.769 859.135 259.032 856.355C265.547 854.228 272.046 855.015 278.544 856.489Z" fill="#BF5B26"/>
<path d="M28.8564 270.107C35.3046 270.777 34.6849 264.865 38.1351 262.654C41.0661 265.887 42.2051 270.995 47.6483 271.079C48.3853 271.095 48.7202 272.435 48.1843 272.988C46.0572 275.182 47.5646 277.661 48.0838 280.642C43.2435 278.95 39.1568 278.883 34.9027 282.3C34.484 277.476 32.6751 273.892 28.8564 270.107Z" fill="#C76F35"/>
<path d="M278.544 856.489C272.045 855.015 265.547 854.228 259.032 856.372C257.591 855.417 255.95 854.663 254.794 851.917C262.013 853.659 265.413 849.74 267.306 842.337C271.275 848.617 276.769 849.84 282.095 850.962C282.178 854.044 280.051 855.049 278.544 856.489Z" fill="#EEB65D"/>
<path d="M244.829 306.216C240.541 306.149 237.661 303.687 235.215 300.505C234.83 295.648 235.249 290.59 231.916 286.419C231.882 284.761 232.887 283.556 233.825 281.897C239.118 287.659 239.419 297.875 249.519 298.595C249.133 302.313 246.454 303.921 244.829 306.216Z" fill="#EEB65D"/>
<path d="M159.636 283.466C173.173 290.704 185.831 299.177 198.022 308.529C192.415 309.208 188.975 305.046 184.877 302.58C180.21 299.783 175.751 296.609 171.349 293.416C167.211 290.399 162.778 287.701 159.636 283.466Z" fill="#C5A771"/>
<path d="M231.933 286.42C235.265 290.59 234.847 295.648 235.232 300.505C233.122 299.584 233.457 297.239 232.452 295.548C229.236 298.512 224.831 298.512 221.28 300.505C219.254 299.115 217.16 297.775 215.804 294.945C222.453 294.208 228.432 292.499 231.933 286.42Z" fill="#EC7C48"/>
<path d="M298.357 692.961C294.472 696.16 268.444 696.579 261.376 693.648C274.675 690.918 286.533 692.258 298.357 692.961Z" fill="#C5A771"/>
<path d="M274.256 419.232C287.605 422.062 299.982 427.673 313.213 432.094C309.546 434.757 285.763 426.484 274.34 419.148L274.256 419.232Z" fill="#C5A771"/>
<path d="M103.806 365.169C99.2171 366.057 98.1954 370.528 95.6496 373.443C93.4053 376.022 92.0822 376.172 91.0605 372.706C91.5295 371.449 92.4004 370.562 93.5728 369.909C94.3265 369.038 95.0634 368.167 95.8171 367.296C99.1501 362.808 103.438 359.491 108.395 357.013C110.372 361.719 104.995 362.272 103.806 365.169Z" fill="#E94621"/>
<path d="M95.8005 367.296C95.0468 368.167 94.3098 369.038 93.5562 369.909C93.7236 368.552 94.3098 367.53 95.8005 367.296Z" fill="#C6351D"/>
<path d="M161.186 392.133C159.997 390.894 159.93 389.738 161.404 388.683C161.337 389.822 161.27 390.978 161.186 392.133Z" fill="#EC7C48"/>
<path d="M274.323 419.165C274.022 419.031 273.72 418.88 273.419 418.746C273.687 418.914 273.972 419.064 274.24 419.232C274.256 419.232 274.323 419.165 274.323 419.165Z" fill="#C5A771"/>
<path d="M94.1587 0.329894L93.6898 0.413639L93.3213 0.112187C93.673 -0.0887898 93.9577 -0.021815 94.1587 0.329894Z" fill="#C5A771"/>
<path d="M164.309 523.644C160.187 532.25 148.371 579.755 186.842 570.577C213.717 564.169 227.776 522.467 223.764 510.717C219.741 498.968 183.138 484.327 164.309 523.644Z" fill="#0D3C49"/>
<path d="M213.838 546.44C213.487 549.122 211.068 549.99 209.365 551.452C205.957 554.365 202.528 557.201 198.483 559.3C189.821 563.807 181.676 560.619 177.334 552.518C175.872 549.792 173.839 547.012 174.487 543.527C172.234 533.052 175.872 523.852 180.709 514.927C181.984 512.586 183.819 510.542 184.512 507.882L184.545 507.893C184.798 507.64 185.051 507.387 185.303 507.134V507.112C186.293 507.079 186.798 506.574 186.831 505.584H186.853C187.106 505.332 187.359 505.079 187.612 504.826L187.623 504.815C187.875 504.562 188.128 504.309 188.381 504.046H188.392C188.645 503.683 188.887 503.32 189.14 502.946C190.448 501.924 191.679 500.781 193.086 499.902C201.121 494.835 211.64 496.286 217.356 503.254C220.499 507.101 221.478 511.784 221.566 516.565C221.741 525.49 218.906 533.679 214.97 541.56C214.256 543.033 212.552 544.429 213.838 546.44Z" fill="#356365"/>
<path d="M213.838 546.44C212.552 544.428 214.245 543.032 214.981 541.56C218.917 533.668 221.752 525.49 221.577 516.565C221.478 511.784 220.51 507.101 217.367 503.254C211.651 496.275 201.132 494.835 193.097 499.902C191.701 500.781 190.47 501.924 189.151 502.946C188.898 503.309 188.656 503.672 188.403 504.046H188.392C187.941 504.101 187.656 504.32 187.634 504.815L187.623 504.826C187.128 504.837 186.875 505.09 186.864 505.584H186.842C185.776 505.54 185.204 505.991 185.314 507.112V507.134C184.776 507.101 184.534 507.354 184.556 507.893L184.523 507.882C183.644 507.541 183.039 508.255 182.303 508.475C181.412 507.651 180.511 506.826 180.137 505.617C183.94 502.056 187.733 498.484 191.536 494.923C197.252 492.186 203.209 491.306 209.453 492.559C218.719 494.417 224.687 501.495 225.402 512.058C226.281 525.039 221.851 536.372 213.838 546.44Z" fill="#57AB91"/>
<path d="M182.303 508.464C183.039 508.244 183.644 507.541 184.523 507.871C183.831 510.531 181.995 512.575 180.72 514.916C175.884 523.841 172.245 533.041 174.499 543.516C172.564 541.999 171.355 539.779 169.025 538.559C166.716 537.35 167.288 534.932 167.651 532.734C168.783 525.963 169.289 519.016 173.806 513.323C177.225 512.718 180.995 512.74 182.303 508.464Z" fill="#33585C"/>
<path d="M191.547 494.912C187.744 498.473 183.951 502.045 180.148 505.606C178.357 505.991 177.609 507.695 176.29 508.684C175.422 505.903 174.048 509.168 172.762 508.189C172.267 506.947 173.52 506.024 174.18 505.233C178.324 500.298 183.457 496.67 189.513 494.395C190.316 494.087 190.997 494.219 191.547 494.912Z" fill="#33585C"/>
<path d="M176.279 508.673C177.598 507.695 178.345 505.991 180.137 505.606C180.511 506.827 181.412 507.64 182.302 508.464C180.994 512.751 177.213 512.729 173.806 513.333C174.63 511.773 175.454 510.223 176.279 508.673Z" fill="#356365"/>
<path d="M185.315 507.09C185.205 505.969 185.776 505.518 186.843 505.562C186.81 506.551 186.304 507.057 185.315 507.09Z" fill="#33585C"/>
<path d="M184.556 507.882C184.523 507.343 184.776 507.09 185.315 507.123C185.062 507.376 184.809 507.629 184.556 507.882Z" fill="#33585C"/>
<path d="M186.864 505.562C186.875 505.068 187.128 504.815 187.623 504.804C187.37 505.057 187.117 505.31 186.864 505.562Z" fill="#33585C"/>
<path d="M187.645 504.793C187.667 504.31 187.952 504.079 188.403 504.024C188.15 504.288 187.897 504.54 187.645 504.793Z" fill="#33585C"/>
<path d="M188.414 504.035C188.667 503.672 188.909 503.309 189.162 502.935C188.909 503.298 188.656 503.672 188.414 504.035Z" fill="#33585C"/>
<path d="M156.581 386.422C154.872 388.683 155.66 391.312 155.593 393.774C155.408 402.5 153.348 410.69 148.525 417.992C147.135 420.102 147.503 422.497 146.515 424.608C145.543 426.684 145.376 429.247 142.663 430.034C142.478 427.572 145.208 424.942 142.261 422.631C143.249 419.282 144.287 415.949 145.242 412.582C147.47 404.594 148.675 396.521 146.213 388.398C143.735 380.259 136.901 376.892 128.828 379.639C115.748 384.094 108.998 394.595 103.572 406.319C103.27 406.737 102.969 407.139 102.667 407.558C102.349 408.345 102.031 409.149 101.729 409.936C100.423 410.104 99.1164 410.271 97.1233 410.522C99.0829 406.637 95.7164 402.852 98.4967 398.933C99.6691 397.291 96.9223 397.074 95.4819 396.89C95.9341 395.315 96.3696 393.741 96.8218 392.167C104.225 388.063 106.57 381.146 107.306 373.325C108.864 372.622 109.634 371.416 109.634 369.707C116.568 362.104 125.01 357.213 135.394 357.163C145.46 357.13 153.583 366.425 155.425 378.919C155.777 381.448 156.195 383.927 156.581 386.422Z" fill="#D2371C"/>
<path d="M92.0654 392.2C88.8999 391.263 89.5866 389.236 90.7422 387.193C94.7284 380.108 97.8939 372.522 103.454 366.375C105.313 367.062 106.536 368.402 107.34 370.177C107.323 371.232 107.307 372.287 107.307 373.342C103.689 374.18 102.6 377.211 101.461 380.175C97.2072 383.307 95.2644 388.248 92.0654 392.2Z" fill="#E94621"/>
<path d="M101.445 380.175C102.583 377.194 103.655 374.179 107.29 373.342C106.553 381.163 104.208 388.08 96.8052 392.183C97.6426 387.913 101.562 384.814 101.445 380.175Z" fill="#C6351D"/>
<path d="M103.588 406.336C109.015 394.612 115.765 384.111 128.845 379.656C136.918 376.91 143.751 380.276 146.23 388.415C148.692 396.538 147.486 404.628 145.259 412.6C144.321 415.966 143.282 419.299 142.277 422.648C136.985 431.625 131.391 440.351 121.827 445.476C119.081 446.95 116.351 448.323 113.135 448.775C103.923 450.098 98.6475 445.861 97.944 436.466C97.2573 427.321 99.1332 418.579 101.746 409.937C102.064 409.15 102.382 408.346 102.684 407.558C102.985 407.156 103.287 406.738 103.588 406.336ZM137.839 421.577C141.942 413.387 143.818 404.711 143.634 395.584C143.383 383.09 135.829 378.785 124.993 385.233C116.317 390.408 110.572 398.113 107.273 407.642C103.27 416.301 101.595 425.378 102.634 434.858C103.32 441.122 106.704 443.851 113.085 442.83C124.34 441.038 131.877 434.205 136.667 424.089C137.069 423.251 137.454 422.414 137.839 421.577Z" fill="#7E1912"/>
<path d="M53.2901 687.523C49.6445 703.582 36.9092 785.13 83.0165 759.821C115.232 742.14 131.742 670.227 124.772 650.635C117.802 631.043 69.9439 614.181 53.2901 687.523Z" fill="#0D3C49"/>
<path d="M117.159 714.775C115.313 715.691 114.381 717.361 113.915 719.192C111.635 728.072 106.705 735.765 101.421 742.847C96.5709 749.351 88.2039 751.454 80.3186 750.989C73.4771 750.587 70.8112 744.565 69.125 738.495C67.6154 733.099 66.4591 727.639 65.624 721.552C62.926 723.736 63.7289 727.976 60.3403 729.196C60.9024 720.348 61.8981 719.047 68.3541 718.645C68.6432 722.323 67.5029 726.177 69.4301 729.646C70.49 731.557 72.08 733.42 73.8786 730.465C76.3358 726.386 79.5959 723.094 83.0326 719.914C86.7745 718.485 89.0068 713.346 94.5796 716.044C96.6673 717.056 98.6266 713.908 99.9113 711.804C102.368 707.773 103.862 703.309 105.195 698.812C105.805 696.773 105.886 694.685 104.135 693.047C101.582 690.67 102.015 688.117 103.493 685.387C106.078 680.633 106.512 675.35 106.496 670.131C106.48 665.136 102.979 663.177 98.4339 665.345C96.587 666.228 94.8847 667.449 93.2145 668.653C87.4169 672.829 86.1482 672.893 80.8967 667.802C78.8732 665.843 76.8015 664.622 74.0714 664.382C78.0702 655.918 82.7115 647.696 84.0123 638.205C87.3366 635.106 91.2391 632.841 95.2219 630.77C110.832 622.66 122.828 629.18 124.659 646.7C124.788 648.001 124.724 649.334 124.804 650.635C126.024 671.175 117.336 689.402 111.506 708.303C110.96 710.102 108.487 711.676 110.35 713.812C112.101 715.803 114.237 713.603 116.196 713.924C116.517 714.229 116.838 714.518 117.159 714.823V714.775Z" fill="#335D5F"/>
<path d="M120.066 713.683C119.986 713.41 120.05 713.186 120.259 712.993C121.977 713.041 123.519 712.495 124.948 711.564C129.557 712.061 134.102 713.121 138.792 712.688C150.242 711.612 161.757 711.082 173.111 709.09C171.971 712.254 169.257 714.117 166.96 716.253C159.187 723.447 151.045 730.272 143.513 737.708C135.708 745.432 128.545 753.831 120.869 761.684C119.359 763.226 118.203 766.55 115.28 765.426C112.438 764.318 113.674 761.219 113.385 758.922C112.084 748.355 116.003 738.19 115.682 727.703L115.698 727.671C119.054 723.592 119.905 718.742 120.066 713.683ZM131.822 735.283C143.369 735.925 148.524 727.077 155.526 720.974C144.509 720.91 137.314 726.804 131.822 735.283Z" fill="#BF5B26"/>
<path d="M116.18 713.924C114.22 713.603 112.084 715.803 110.334 713.812C108.471 711.692 110.928 710.102 111.49 708.304C117.32 689.402 126.008 671.159 124.788 650.635C124.707 649.318 124.772 648.002 124.643 646.701C122.812 629.18 110.832 622.66 95.2057 630.77C91.2229 632.842 87.3204 635.106 83.9961 638.205C81.7798 639.956 79.5797 641.706 77.3635 643.441C75.886 642.044 76.1911 640.149 75.9502 638.414C83.4501 630.304 91.8653 623.608 102.93 621.119C114.975 618.405 124.868 623.704 128.658 635.363C133.54 650.346 131.436 665.04 127.309 680.056C124.129 691.554 118.3 702.121 116.18 713.924Z" fill="#57AB91"/>
<path d="M95.3825 685.869C95.527 690.558 99.2047 694.252 98.8353 699.214C98.3214 706.039 96.7957 707.324 90.8215 704.626C88.1235 703.405 85.8109 703.598 83.5144 705.333C82.4705 706.119 81.4266 706.906 80.3025 707.565C78.2308 708.769 76.1912 710.407 73.718 708.271C71.1806 706.071 71.8229 703.389 73.188 701.173C76.7211 695.472 77.3957 689.322 76.689 682.882C76.4321 680.489 75.9021 678.128 75.5006 675.752C79.098 678.931 83.3217 681.661 86.1482 685.435C89.5368 690.012 92.1384 689.193 95.3825 685.869Z" fill="#C6351D"/>
<path d="M115.681 727.687C116.019 738.173 112.1 748.355 113.385 758.906C113.674 761.218 112.437 764.318 115.28 765.41C118.203 766.534 119.359 763.21 120.869 761.668C128.561 753.815 135.708 745.416 143.513 737.692C151.045 730.24 159.187 723.431 166.96 716.237C169.256 714.101 171.971 712.254 173.111 709.074C174.861 708.608 175.07 709.973 175.472 711.098C174.139 714.342 171.2 716.237 168.871 718.597C152.587 734.962 136.784 751.808 119.504 767.16C117.994 768.509 116.549 770.629 114.332 769.987C111.875 769.28 112.437 766.614 112.164 764.655C110.43 752.065 111.265 739.699 115.681 727.687Z" fill="#C76F35"/>
<path d="M175.488 711.114C175.07 710.006 174.877 708.625 173.127 709.09C161.773 711.082 150.258 711.628 138.807 712.688C134.118 713.121 129.557 712.061 124.964 711.564C124.145 710.664 123.342 709.749 122.523 708.849C141.65 705.654 160.954 704.224 180.9 702.683C179.792 706.649 177.929 709.058 175.488 711.114Z" fill="#EEB65D"/>
<path d="M95.3825 685.869C92.1384 689.193 89.5367 690.012 86.116 685.435C83.3056 681.661 79.0819 678.947 75.4685 675.751C75.3079 675.607 75.2436 675.414 75.2918 675.189C75.0348 674.691 74.7779 674.193 74.5209 673.68C73.9267 669.311 76.9941 669.408 78.8731 671.126C86.9993 678.578 93.5677 674.964 100.072 668.878C100.57 668.412 101.373 668.3 102.063 668.027C103.782 673.101 103.782 673.102 95.3825 685.869Z" fill="#E94621"/>
<path d="M77.3476 643.441C79.5638 641.69 81.764 639.956 83.9803 638.205C82.6794 647.696 78.0382 655.919 74.0393 664.382C69.8477 663.852 69.7032 669.183 66.1861 670.002C64.7087 667.786 66.411 666.453 67.2782 664.992C68.0812 663.643 68.1775 662.487 66.7001 661.684C65.1744 660.865 63.9539 661.7 63.6166 663.049C62.7976 666.389 59.5856 668.477 59.152 671.978C59.0075 673.182 58.2205 673.921 55.5386 674.306C58.9593 668.943 57.6745 662.68 62.5888 658.745C64.5481 660.592 65.0459 658.424 65.8489 657.476C69.7032 652.819 73.5093 648.114 77.3476 643.441Z" fill="#33585C"/>
<path d="M83.0163 719.898C79.5634 723.078 76.3194 726.37 73.8623 730.449C72.0796 733.42 70.4737 731.557 69.4138 729.63C67.4866 726.161 68.6268 722.307 68.3377 718.629C73.3162 718.035 78.0538 720.203 83.0163 719.898Z" fill="#33585C"/>
<path d="M77.3472 643.44C73.5089 648.129 69.7028 652.835 65.8324 657.476C65.0294 658.44 64.5315 660.591 62.5723 658.745C65.5112 650.972 69.2852 643.745 75.9339 638.414C76.1748 640.148 75.8697 642.043 77.3472 643.44Z" fill="#356365"/>
<path d="M120.066 713.683C119.905 718.742 119.054 723.592 115.697 727.639C115.569 724.989 117.03 722.725 117.512 720.236C117.865 718.437 119.295 716.446 117.159 714.759L117.143 714.808C118.54 715.53 119.118 714.101 120.066 713.683Z" fill="#C76F35"/>
<path d="M122.523 708.866C123.342 709.765 124.145 710.68 124.964 711.58C123.535 712.511 121.993 713.057 120.275 713.009C120.291 711.226 120.211 709.396 122.523 708.866Z" fill="#C76F35"/>
<path d="M74.5372 673.68C74.7941 674.178 75.0511 674.675 75.308 675.189C74.6014 674.916 74.2481 674.467 74.5372 673.68Z" fill="#C6351D"/>
<path d="M131.822 735.283C137.314 726.82 144.509 720.91 155.526 720.974C148.54 727.077 143.385 735.925 131.822 735.283Z" fill="#EC7C48"/>
<path d="M171.939 63.8048C175.323 59.3163 180.046 58.4622 184.903 60.1203C193.043 62.9004 200.898 66.4342 207.044 72.7482C211.65 77.4712 218.098 79.548 222.369 85.1418C229.906 95.0064 235.617 105.089 234.16 118.001C232.82 118.236 231.196 118.068 230.191 118.789C221.951 124.6 214.28 121.686 207.446 116.662C190.899 104.536 179.326 88.6924 173.732 68.7287C173.263 67.0372 173.246 65.1781 171.939 63.8048ZM198.05 78.61C199.977 84.5556 203.594 88.8766 206.609 94.1187C207.748 89.8815 204.331 86.7161 205.403 83.266C207.58 82.1104 209.222 84.5054 211.114 83.4C207.53 80.5696 203.929 77.9736 198.05 78.61Z" fill="#EEB65D"/>
<path d="M45.6672 152.593C56.0681 148.674 57.14 147.451 65.2295 130C69.2994 132.864 70.7566 137.503 72.7161 141.472C75.3792 146.815 79.4826 148.423 84.8086 148.624C87.6726 148.741 90.5366 148.909 93.8193 149.059C93.0824 152.928 91.1396 155.34 89.18 157.668C83.2007 164.786 81.5594 172.289 86.5002 180.696C87.6559 182.673 88.443 184.95 89.0292 187.178C89.7327 189.841 88.711 191.331 85.6963 190.678C85.4953 188.518 83.787 187.412 82.4973 185.972C79.5161 182.639 76.5516 179.256 75.8314 174.583C76.3673 169.643 78.2097 164.853 77.9752 159.527C76.8363 159.611 76.0324 159.527 75.3457 159.745C70.7398 161.252 68.6462 159.795 69.065 154.804C69.2492 152.56 69.5172 150.114 67.2729 148.289C62.0138 152.074 59.0326 159.041 51.4957 159.477C47.1243 158.053 42.5352 157.115 38.4653 154C41.1953 153.23 43.6909 154.318 45.6672 152.593Z" fill="#EEB65D"/>
<path d="M45.6672 152.593C43.7076 154.318 41.2121 153.229 38.4988 154C42.5687 157.115 47.1578 158.053 51.5292 159.476C53.0533 163.395 56.7883 166.058 57.3912 170.597C57.6759 172.707 59.87 173.494 61.9971 173.31C66.7034 172.925 71.259 173.896 75.8481 174.6C76.5683 179.273 79.5328 182.639 82.5141 185.988C83.8037 187.429 85.5121 188.517 85.713 190.695C79.6668 191.063 74.1565 188.97 68.9477 186.39C64.5763 184.23 60.7744 184.548 56.7883 186.993C53.4553 189.037 50.0553 190.963 46.6051 192.771C44.9303 193.642 43.0042 195.2 41.1619 193.894C39.0348 192.386 40.8771 190.293 41.2456 188.534C41.8486 185.687 42.5687 182.823 43.5737 180.093C45.9519 173.528 44.7126 167.984 39.621 163.161C36.7067 160.398 33.9097 157.433 31.8999 153.347C36.7737 151.638 41.2958 153.347 45.6672 152.593Z" fill="#BF5B26"/>
<path d="M75.8482 174.6C71.2591 173.913 66.7035 172.925 61.9971 173.31C59.8868 173.478 57.676 172.707 57.3913 170.597C56.7883 166.075 53.0534 163.395 51.5293 159.476C59.0661 159.041 62.0474 152.074 67.3064 148.289C69.5507 150.114 69.2828 152.559 69.0985 154.804C68.6798 159.811 70.7567 161.252 75.3793 159.744C76.0659 159.526 76.8531 159.61 78.0088 159.526C78.2265 164.886 76.3674 169.659 75.8482 174.6Z" fill="#C76F35"/>
<path d="M107.307 373.342C107.323 372.287 107.34 371.232 107.34 370.177C108.111 370.026 108.864 369.875 109.635 369.725C109.618 371.433 108.864 372.656 107.307 373.342Z" fill="#C6351D"/>
<path d="M90.2231 379.321C90.4576 379.103 90.6921 378.919 90.9098 378.718C91.0773 378.969 91.2783 379.204 91.3956 379.472C91.4291 379.539 91.1443 379.84 91.0773 379.824C90.8094 379.723 90.5581 379.539 90.2231 379.321Z" fill="#E94621"/>
<path d="M103.589 406.335C103.287 406.754 102.986 407.156 102.684 407.575C102.986 407.156 103.287 406.737 103.589 406.335Z" fill="#C6351D"/>
<path d="M136.684 424.088C131.893 434.204 124.357 441.037 113.102 442.829C106.72 443.851 103.337 441.121 102.65 434.857C101.612 425.378 103.287 416.284 107.29 407.642C109.852 408.262 111.175 403.187 114.157 406.051C116.585 408.379 115.044 411.042 114.525 413.621C114.224 415.078 114.592 416.301 116.133 416.904C118.126 424.691 120.839 425.763 127.221 420.789C129.917 418.696 132.094 415.932 134.489 413.47C134.841 413.018 135.193 412.566 135.545 412.114L135.377 412.164C138.007 412.114 139.347 412.951 138.526 415.949C138.023 417.758 138.074 419.7 137.873 421.593V421.61C137.454 422.414 137.069 423.251 136.684 424.088Z" fill="#EC7C48"/>
<path d="M116.133 416.887C114.609 416.284 114.223 415.061 114.525 413.604C115.061 411.042 116.585 408.362 114.156 406.034C111.175 403.17 109.852 408.228 107.29 407.625C110.589 398.096 116.317 390.391 125.01 385.216C135.829 378.768 143.399 383.073 143.651 395.567C143.835 404.694 141.959 413.37 137.856 421.543C138.057 419.65 138.023 417.708 138.509 415.899C139.33 412.901 137.99 412.063 135.36 412.114C135.745 410.204 136.332 408.312 136.499 406.369C136.834 402.299 137.705 397.576 133.066 395.5C128.376 393.423 124.842 396.488 122.095 400.005C118.243 404.946 116.401 410.657 116.133 416.887Z" fill="#EEB65D"/>
<path d="M198.05 78.6102C203.946 77.9738 207.547 80.5698 211.131 83.4002C209.222 84.5056 207.58 82.1106 205.42 83.2662C204.348 86.6995 207.764 89.8817 206.626 94.1189C203.594 88.8768 199.976 84.5558 198.05 78.6102Z" fill="#7E1912"/>
<path d="M116.133 416.887C116.418 410.657 118.26 404.946 122.112 400.038C124.859 396.538 128.41 393.456 133.082 395.533C137.722 397.593 136.851 402.333 136.516 406.403C136.365 408.329 135.779 410.221 135.377 412.147L135.544 412.097C134.724 412.181 134.573 412.8 134.489 413.454C132.077 415.916 129.9 418.679 127.22 420.773C120.839 425.73 118.109 424.675 116.133 416.887ZM120.739 419.366C128.209 415.815 132.429 411.276 132.211 403.673C132.161 401.998 132.68 399.837 130.57 399.168C128.728 398.581 127.22 399.971 126.081 401.295C121.861 406.218 120.236 411.946 120.739 419.366Z" fill="#7E1912"/>
<path d="M134.489 413.453C134.573 412.783 134.707 412.18 135.544 412.097C135.193 412.549 134.841 413.001 134.489 413.453Z" fill="#EEB65D"/>
<path d="M120.739 419.365C120.22 411.946 121.844 406.218 126.082 401.294C127.221 399.971 128.728 398.581 130.57 399.167C132.681 399.837 132.162 401.998 132.212 403.672C132.43 411.276 128.226 415.798 120.739 419.365Z" fill="#EC7C48"/>
</svg>
