<svg width="143" height="193" viewBox="0 0 143 193" fill="none" xmlns="http://www.w3.org/2000/svg">
<path d="M6.01535 49.1594C-1.60524 65.0868 -9.47689 107.56 38.8595 143.585C49.4613 151.49 78.5033 150.217 88.6697 146.248C112.52 136.919 121.698 128.713 129.017 116.152C142.131 93.6924 139.401 65.3715 133.857 49.1594C125.215 23.8699 46.5301 -35.4852 6.01535 49.1594Z" fill="#0D3C49"/>
<path d="M132.299 99.4036C130.558 104.612 127.711 108.715 122.183 110.625C114.596 113.271 108.483 118.647 101.331 122.181C76.0746 134.675 48.6572 127.49 32.411 104.562C28.2909 98.7504 23.2496 93.5752 19.2635 87.5627C14.7748 80.7797 13.0164 73.3268 12.4972 65.4553C11.8272 55.2725 12.7316 45.1901 15.1434 35.2586C17.8064 32.7966 19.766 29.9997 19.5483 26.1309C20.7039 25.4275 21.9767 24.858 22.9816 23.9871C37.7203 11.3256 54.6198 5.3466 74.1988 5.91603C105.937 6.83717 134.812 35.1748 136.068 66.9123C136.537 78.0163 134.812 88.7183 132.299 99.4036Z" fill="#33585C"/>
<path d="M132.299 99.4036C134.795 88.7184 136.537 78.0163 136.084 66.9124C134.828 35.1749 105.954 6.83725 74.2153 5.9161C54.6363 5.34667 37.7368 11.3257 22.9981 23.9872C21.9932 24.8581 20.7037 25.4276 19.5648 26.131C19.5313 25.729 19.4977 25.3438 19.481 24.9418C51.6214 -16.7942 119.018 -3.02734 137.743 43.08C144.76 60.3472 143.588 77.4134 136.051 94.2284C135.163 96.188 134.075 98.0638 132.299 99.4036Z" fill="#57AB91"/>
<path d="M106.239 184.785C100.243 181.352 96.9933 175.59 93.5598 169.963C93.9953 166.563 92.1362 165.173 89.1382 164.252C85.7382 163.213 82.6231 164.151 79.4409 164.938C80.2951 160.735 81.0319 156.514 82.0368 152.361C82.8575 148.944 85.7216 147.47 88.6694 146.264C99.7737 141.675 99.7067 141.726 104.966 152.696C106.624 156.129 108.902 159.211 103.626 161.572C102.939 161.874 102.922 163.699 102.604 164.805C101.298 163.9 102.403 161.756 100.678 160.969C98.4169 162.929 100.209 164.905 100.611 166.798C101.918 172.944 105.92 178.287 106.239 184.785Z" fill="#7E1912"/>
<path d="M23.0317 156.581C23.2997 150.318 27.0011 145.226 28.877 139.515C29.3962 137.924 30.8702 137.422 32.1598 138.51C36.3972 142.061 41.7232 142.882 46.7478 144.288C52.4255 145.896 54.5861 149.564 54.6866 155.057C54.7703 160.182 53.5141 165.022 52.3082 169.98C49.4274 169.31 49.9635 167.082 49.5281 165.625C45.4749 152.26 36.2966 148.676 24.7066 156.029C24.2209 156.33 23.6012 156.414 23.0485 156.598L23.0317 156.581Z" fill="#7E1912"/>
<path d="M9.31495 109.452C-1.28689 90.2592 -2.72734 70.329 4.4243 49.6787C4.92675 50.3989 5.41248 51.119 5.91494 51.8392C0.287425 71.0827 3.0341 89.5558 11.0567 107.543C10.4872 108.18 9.90115 108.816 9.31495 109.452Z" fill="#BF5B26"/>
<path d="M106.239 184.785C105.92 178.287 101.917 172.961 100.611 166.781C100.209 164.888 98.4169 162.912 100.678 160.953C102.403 161.74 101.298 163.884 102.604 164.788C104.848 172.057 109.22 178.505 110.794 186.008C111.179 187.867 112.369 189.609 111.665 192.037C108.868 190.178 107.344 187.649 106.239 184.785Z" fill="#BF5B26"/>
<path d="M9.31494 109.452C9.90114 108.816 10.4705 108.179 11.0567 107.543C16.1315 115.431 21.8596 122.851 27.1354 130.655C18.7444 125.664 13.1169 118.345 9.31494 109.452Z" fill="#7E1912"/>
<path d="M79.441 164.922C82.6233 164.135 85.7216 163.197 89.1383 164.235C92.1363 165.156 93.9954 166.563 93.56 169.946C88.3847 166.848 83.2261 168.841 77.9001 170.348C77.2804 167.937 78.2351 166.396 79.441 164.922Z" fill="#C6351D"/>
<path d="M19.4642 24.9419C19.4977 25.3438 19.5312 25.7291 19.548 26.131C19.7657 29.9831 17.8061 32.7967 15.1431 35.2587C12.9825 35.3927 12.1116 34.572 13.4012 32.579C15.1598 29.8156 16.4997 26.7172 19.4642 24.9419Z" fill="#356365"/>
<path d="M5.91496 51.839C5.41251 51.1189 4.92677 50.3988 4.42432 49.6786C5.88144 45.3576 7.53957 41.1371 11.3582 37.9717C9.5494 42.6109 7.74056 47.2333 5.91496 51.839Z" fill="#356365"/>
<path d="M23.0497 156.598L22.7476 156.866L23.0329 156.581L23.0497 156.598Z" fill="#7E1912"/>
</svg>
