<svg width="360" height="67" viewBox="0 0 360 67" fill="none" xmlns="http://www.w3.org/2000/svg">
<rect x="34.3379" y="21.3569" width="322.356" height="44.421" fill="#2A484D" stroke="#FFF9B5" stroke-dasharray="200 200"/>
<path d="M42.2167 61.748V39.188H30.9367V32.948H59.7367V39.188H48.4567V61.748H42.2167ZM85.0883 61.748L76.7283 51.788H84.8483L91.4883 59.628V61.748H85.0883ZM62.7283 61.748V32.988H85.5683C86.6616 32.988 87.6483 33.2547 88.5283 33.788C89.4349 34.3214 90.1549 35.0414 90.6883 35.948C91.2483 36.8547 91.5283 37.8414 91.5283 38.908V46.348C91.5283 47.4147 91.2483 48.4014 90.6883 49.308C90.1549 50.2147 89.4349 50.9347 88.5283 51.468C87.6483 52.0014 86.6616 52.268 85.5683 52.268L68.9283 52.308V61.748H62.7283ZM68.9283 46.028H85.2483V39.188H68.9283V46.028ZM95.8161 61.748V38.868C95.8161 37.7747 96.0828 36.788 96.6161 35.908C97.1494 35.0014 97.8694 34.2814 98.7761 33.748C99.6828 33.2147 100.669 32.948 101.736 32.948H118.656C119.749 32.948 120.736 33.2147 121.616 33.748C122.523 34.2814 123.243 35.0014 123.776 35.908C124.336 36.788 124.616 37.7747 124.616 38.868V61.748H118.336V52.468H102.016V61.748H95.8161ZM102.016 46.228H118.336V39.188H102.016V46.228ZM128.174 61.748V32.948H134.294V61.748H128.174ZM137.768 61.748V32.908H143.968V55.508H166.568V61.748H137.768ZM169.02 61.748V32.948H190.78C191.847 32.948 192.82 33.2147 193.7 33.748C194.607 34.2814 195.327 35.0014 195.86 35.908C196.42 36.788 196.7 37.7747 196.7 38.868V44.268C196.7 44.6147 196.673 44.948 196.62 45.268C196.593 45.5614 196.527 45.8414 196.42 46.108C196.82 46.6147 197.153 47.2014 197.42 47.868C197.687 48.5347 197.82 49.2014 197.82 49.868V55.828C197.82 56.8947 197.54 57.8814 196.98 58.788C196.447 59.6947 195.727 60.4147 194.82 60.948C193.94 61.4814 192.953 61.748 191.86 61.748H169.02ZM175.22 55.508H191.54V50.228H175.22V55.508ZM175.22 43.988H190.42V39.188H175.22V43.988ZM202.221 61.748V32.908H208.421V55.508H231.021V61.748H202.221ZM233.433 61.748V38.868C233.433 37.7747 233.7 36.788 234.233 35.908C234.767 35.0014 235.487 34.2814 236.393 33.748C237.3 33.2147 238.287 32.948 239.353 32.948H256.273C257.367 32.948 258.353 33.2147 259.233 33.748C260.14 34.2814 260.86 35.0014 261.393 35.908C261.953 36.788 262.233 37.7747 262.233 38.868V61.748H255.953V52.468H239.633V61.748H233.433ZM239.633 46.228H255.953V39.188H239.633V46.228ZM266.591 61.748V55.388L285.871 39.188H266.591V32.948H295.391V39.308L276.111 55.508H295.391V61.748H266.591ZM299.722 61.748V32.948H326.322V39.188H306.002V44.228H322.362V50.468H306.002V55.508H326.322V61.748H299.722ZM352.627 61.748L344.267 51.788H352.387L359.027 59.628V61.748H352.627ZM330.267 61.748V32.988H353.107C354.201 32.988 355.187 33.2547 356.067 33.788C356.974 34.3214 357.694 35.0414 358.227 35.948C358.787 36.8547 359.067 37.8414 359.067 38.908V46.348C359.067 47.4147 358.787 48.4014 358.227 49.308C357.694 50.2147 356.974 50.9347 356.067 51.468C355.187 52.0014 354.201 52.268 353.107 52.268L336.467 52.308V61.748H330.267ZM336.467 46.028H352.787V39.188H336.467V46.028Z" fill="#FDE1B9"/>
<circle cx="61" cy="25.376" r="8" fill="#FFEEB5"/>
<circle cx="30.5" cy="30.876" r="30" stroke="#FFEEB5"/>
<line x1="20.6464" y1="64.0224" x2="75.6464" y2="9.02242" stroke="#FFF9B5"/>
</svg>
