<svg width="492" height="399" viewBox="0 0 492 399" fill="none" xmlns="http://www.w3.org/2000/svg">
<path d="M110.63 386V363.6H113.83V383.12H122.118V386H110.63ZM139.222 384.016L135.511 386.16H129.335L125.623 384.016V371.984L129.335 369.84H135.511L139.222 371.984V384.016ZM128.727 372.624V383.376H136.119V372.624H128.727ZM157.365 386L153.909 373.776H153.845L150.421 386H146.741L142.741 370H145.621L148.661 382.512H148.725L152.245 370H155.541L159.061 382.512H159.125L162.165 370H165.045L161.045 386H157.365Z" fill="black"/>
<path d="M357.088 11.6L365.088 34H360.672L358.976 29.168H350.592L348.896 34H344.48L352.48 11.6H357.088ZM354.752 17.232L351.936 25.328H357.6L354.816 17.232H354.752ZM372.347 18V34H367.963V18H372.347ZM367.803 15.024V10.64H372.507V15.024H367.803ZM387.038 21.744H381.534V34H377.15V18H380.766L381.534 19.312L383.806 18H387.038V21.744ZM402.268 17.84H406.46L408.732 19.152V10.64H413.116V34.16H409.5L408.732 32.848L406.46 34.16H402.268L398.556 32.016V19.984L402.268 17.84ZM408.732 30.416V21.584H402.94V30.416H408.732ZM427.819 21.744H422.315V34H417.931V18H421.547L422.315 19.312L424.587 18H427.819V21.744ZM434.769 27.696V30.48H439.281V27.696H434.769ZM434.097 34.16L430.385 32.016V26.48L434.097 24.336H439.281V21.744H431.985V18H439.953L443.665 20.144V34.16H441.553L439.281 32.848L437.009 34.16H434.097ZM447.823 38.416V36.176L451.535 34L448.463 32.208V29.328L450.735 28.016L448.463 26.704V20.144L452.175 18H463.023V20.048L460.111 21.744L462.062 22.896V26.352L458.351 28.496H452.847V30.576H459.311L463.023 32.72V38.416L459.311 40.56H451.535L447.823 38.416ZM458.639 34H452.207V36.88H458.639V34ZM452.847 21.584V24.912H457.679V21.584H452.847Z" fill="black"/>
<path d="M346.88 76V53.6H350.08V73.12H358.368V76H346.88ZM375.472 74.016L371.761 76.16H365.585L361.873 74.016V61.984L365.585 59.84H371.761L375.472 61.984V74.016ZM364.977 62.624V73.376H372.369V62.624H364.977ZM393.615 76L390.159 63.776H390.095L386.671 76H382.991L378.991 60H381.871L384.911 72.512H384.975L388.495 60H391.791L395.311 72.512H395.375L398.415 60H401.295L397.295 76H393.615Z" fill="black"/>
<path d="M15.453 15.44V34H10.973V15.44H4.925V11.6H21.501V15.44H15.453ZM24.7125 32.016V18H29.0965V30.416H34.5685V18H38.9525V34.16H35.3365L34.5685 32.848L32.2965 34.16H28.4245L24.7125 32.016ZM53.6318 21.744H48.1278V34H43.7438V18H47.3598L48.1278 19.312L50.3998 18H53.6318V21.744ZM63.4935 17.84H67.6855L71.3975 19.984V32.016L67.6855 34.16H63.4935L61.2215 32.848L58.9495 34.16H56.8375V10.64H61.2215V19.152L63.4935 17.84ZM61.2215 21.584V30.416H67.0135V21.584H61.2215ZM76.2125 32.016V18H80.5965V30.416H86.0685V18H90.4525V34.16H86.8365L86.0685 32.848L83.7965 34.16H79.9245L76.2125 32.016ZM98.9558 34L95.2438 31.856V10.64H99.6278V30.256H102.828V34H98.9558ZM118.993 30.256V34H109.425L105.713 31.856V19.984L109.425 17.84H115.281L118.993 19.984V27.632H110.097V30.256H118.993ZM110.097 21.584V24.336H114.609V21.584H110.097ZM138.046 19.984V34H133.662V21.584H128.19V34H123.806V17.84H127.422L128.19 19.152L130.462 17.84H134.334L138.046 19.984ZM147.222 21.744V30.256H155.158V34H146.55L142.838 31.856V20.144L146.55 18H155.158V21.744H147.222ZM172.586 30.256V34H163.018L159.306 31.856V19.984L163.018 17.84H168.874L172.586 19.984V27.632H163.69V30.256H172.586ZM163.69 21.584V24.336H168.202V21.584H163.69Z" fill="black"/>
<path d="M103.549 65.92V76H100.349V53.6H103.549V63.04H114.269V53.6H117.469V76H114.269V65.92H103.549ZM126.008 60V76H122.904V60H126.008ZM122.744 56.064V52.64H126.168V56.064H122.744ZM134.227 76L131.123 74.208V71.328L133.395 70.016L131.123 68.704V62.144L134.835 60H145.043V61.088L142.131 62.784L144.083 63.936V68.352L140.371 70.496H134.227V73.216H141.331L145.043 75.36V80.416L141.331 82.56H134.195L130.483 80.416V78.432L133.587 76.64V79.84H141.939V76H134.227ZM134.227 62.72V67.776H140.979V62.72H134.227ZM152.633 76H149.529V52.64H152.633V61.152L154.905 59.84H159.737L163.449 61.984V76H160.345V62.624H152.633V76Z" fill="black"/>
<path d="M350.08 375.92V386H346.88V363.6H350.08V373.04H360.8V363.6H364V386H360.8V375.92H350.08ZM372.539 370V386H369.435V370H372.539ZM369.275 366.064V362.64H372.699V366.064H369.275ZM380.758 386L377.654 384.208V381.328L379.926 380.016L377.654 378.704V372.144L381.366 370H391.574V371.088L388.662 372.784L390.614 373.936V378.352L386.902 380.496H380.758V383.216H387.862L391.574 385.36V390.416L387.862 392.56H380.726L377.014 390.416V388.432L380.118 386.64V389.84H388.47V386H380.758ZM380.758 372.72V377.776H387.51V372.72H380.758ZM399.164 386H396.06V362.64H399.164V371.152L401.436 369.84H406.268L409.98 371.984V386H406.876V372.624H399.164V386Z" fill="black"/>
<g filter="url(#filter0_d_11_14985)">
<rect x="296.5" y="51.7493" width="74.8774" height="74.8774" transform="rotate(90 296.5 51.7493)" fill="#8DF6F5"/>
</g>
<path d="M283.732 106.813C285.625 104.244 286.862 101.245 287.333 98.0799C287.757 94.9075 287.349 91.6783 286.148 88.7146C284.897 85.6888 282.888 83.0425 280.317 81.035C277.695 79.0303 274.609 77.7329 271.35 77.2654C274.676 77.5527 277.874 78.6889 280.643 80.5667C283.447 82.4971 285.699 85.1376 287.17 88.2228C288.649 91.3672 289.297 94.8432 289.052 98.3141C288.723 101.794 287.568 105.143 285.683 108.077V108.077C285.611 108.222 285.51 108.351 285.387 108.454C285.263 108.557 285.119 108.634 284.964 108.678C284.81 108.723 284.648 108.735 284.489 108.713C284.329 108.691 284.176 108.636 284.039 108.551C283.902 108.467 283.784 108.355 283.692 108.222C283.6 108.089 283.536 107.938 283.505 107.779C283.474 107.62 283.476 107.456 283.512 107.298C283.547 107.14 283.614 106.991 283.709 106.86L283.732 106.813Z" fill="white" stroke="white" stroke-width="2"/>
<path d="M268.84 117.559C271.767 116.659 274.43 115.051 276.599 112.876C278.802 110.67 280.402 107.928 281.245 104.916C282.093 101.86 282.157 98.6376 281.431 95.5503C280.668 92.4293 279.134 89.5538 276.971 87.1918V87.1918L276.019 86.3254L277.017 87.1449C279.362 89.4143 281.089 92.252 282.035 95.3865C282.983 98.5718 283.111 101.948 282.407 105.197C281.693 108.484 280.167 111.536 277.97 114.07C275.708 116.595 272.881 118.537 269.723 119.736V119.736C269.579 119.806 269.422 119.844 269.262 119.849C269.102 119.854 268.943 119.826 268.795 119.767C268.647 119.707 268.512 119.617 268.399 119.503C268.287 119.388 268.199 119.252 268.141 119.102C268.084 118.951 268.057 118.791 268.064 118.63C268.071 118.469 268.11 118.311 268.18 118.166C268.25 118.022 268.349 117.893 268.471 117.788C268.592 117.684 268.734 117.606 268.887 117.559L268.84 117.559Z" fill="white" stroke="white" stroke-width="2"/>
<path d="M250.443 117.512C253.351 118.491 256.445 118.772 259.48 118.332C262.523 117.817 265.386 116.528 267.796 114.586C270.256 112.62 272.182 110.059 273.395 107.14C274.592 104.176 275.024 100.953 274.649 97.7748L274.417 96.5105L274.719 97.7748C275.294 100.992 275.046 104.304 273.998 107.398C272.886 110.501 271.027 113.277 268.586 115.475C266.095 117.73 263.072 119.303 259.805 120.041C256.523 120.73 253.128 120.642 249.886 119.783V119.783C249.587 119.711 249.33 119.523 249.169 119.26C249.007 118.996 248.956 118.68 249.026 118.379C249.059 118.228 249.121 118.086 249.21 117.96C249.298 117.835 249.411 117.728 249.541 117.647C249.671 117.567 249.816 117.513 249.967 117.49C250.118 117.466 250.272 117.474 250.42 117.512L250.443 117.512Z" fill="white" stroke="white" stroke-width="2"/>
<path d="M235.505 106.602L236.318 107.468C238.099 109.926 240.507 111.851 243.287 113.041C246.19 114.208 249.336 114.631 252.442 114.272C255.547 113.912 258.516 112.781 261.081 110.98C263.676 109.12 265.774 106.643 267.19 103.769C265.96 106.818 263.972 109.497 261.417 111.547C258.862 113.598 255.826 114.95 252.602 115.476C249.315 116.064 245.933 115.798 242.776 114.703C239.555 113.581 236.702 111.589 234.529 108.943V108.943L233.646 108.124C233.538 108.017 233.452 107.89 233.393 107.749C233.335 107.608 233.305 107.457 233.305 107.304C233.305 107.152 233.335 107.001 233.393 106.86C233.452 106.719 233.538 106.592 233.646 106.485C233.754 106.375 233.883 106.288 234.024 106.229C234.166 106.169 234.318 106.139 234.471 106.139C234.624 106.139 234.776 106.169 234.918 106.229C235.059 106.288 235.188 106.375 235.295 106.485L235.505 106.602Z" fill="white" stroke="white" stroke-width="2"/>
<path d="M230.024 89.0189L230.024 90.2832C230.174 93.3642 231.067 96.3619 232.626 99.0164C234.246 101.679 236.507 103.886 239.2 105.432C241.945 106.962 245.03 107.768 248.167 107.773C251.366 107.735 254.511 106.932 257.343 105.432C254.558 107.099 251.422 108.078 248.19 108.288C244.906 108.463 241.633 107.777 238.689 106.298C235.683 104.822 233.106 102.588 231.209 99.8124C229.322 97.022 228.149 93.8048 227.794 90.4471L227.794 89.0891C227.788 88.9365 227.812 88.7841 227.865 88.641C227.918 88.4979 227.999 88.367 228.103 88.2558C228.206 88.1446 228.331 88.0554 228.47 87.9934C228.608 87.9315 228.758 87.898 228.909 87.895C229.062 87.8887 229.214 87.9129 229.357 87.966C229.501 88.0191 229.632 88.1001 229.744 88.2045C229.857 88.3089 229.947 88.4345 230.011 88.5742C230.075 88.714 230.111 88.8651 230.117 89.0189L230.024 89.0189Z" fill="white" stroke="white" stroke-width="2"/>
<path d="M235.691 71.3408L234.436 73.448C234 74.1098 233.634 74.8162 233.345 75.5553C233.02 76.2708 232.764 77.0155 232.578 77.7795C232.353 78.5441 232.197 79.3278 232.113 80.1209C231.681 83.2975 232.107 86.5327 233.345 89.4862C234.591 92.5082 236.611 95.1423 239.199 97.119C241.832 99.1191 244.94 100.387 248.212 100.795C244.845 100.57 241.597 99.4505 238.798 97.5506C235.999 95.6508 233.749 93.038 232.276 89.9779C230.777 86.8482 230.12 83.3763 230.371 79.9102C230.425 79.0352 230.549 78.166 230.743 77.3113C230.901 76.4469 231.142 75.6 231.463 74.7826C231.728 73.9671 232.079 73.1822 232.508 72.4413L233.67 70.0999C233.815 69.8236 234.062 69.6166 234.359 69.5244C234.655 69.4322 234.975 69.4623 235.25 69.6083C235.524 69.7542 235.729 70.0039 235.821 70.3025C235.912 70.6011 235.882 70.924 235.737 71.2004L235.691 71.3408Z" fill="white" stroke="white" stroke-width="2"/>
<path d="M250.559 60.4778C245.949 61.906 242.085 65.1096 239.806 69.3928C237.527 73.6759 237.017 78.6925 238.386 83.3527C239.356 86.5195 241.106 89.3871 243.473 91.6878C240.947 89.4885 239.007 86.6876 237.829 83.5399C236.69 80.3212 236.41 76.8578 237.016 73.4956C237.634 70.0473 239.131 66.8201 241.36 64.1303C243.626 61.4821 246.507 59.4393 249.746 58.1832C250.032 58.0684 250.352 58.0729 250.635 58.1958C250.918 58.3188 251.142 58.5501 251.256 58.8388C251.37 59.1276 251.365 59.4501 251.243 59.7355C251.121 60.0209 250.892 60.2458 250.605 60.3607L250.559 60.4778Z" fill="white" stroke="white" stroke-width="2"/>
<path d="M268.98 60.5247C266.057 59.5799 262.957 59.3236 259.92 59.7755C256.869 60.2852 253.997 61.575 251.581 63.5216C249.126 65.5007 247.215 68.08 246.029 71.0139C244.884 73.9927 244.447 77.1998 244.751 80.3793V80.3793L245.007 81.5031L244.681 80.3793C244.169 77.1483 244.432 73.8406 245.448 70.733C246.523 67.5664 248.387 64.7307 250.859 62.4967C253.332 60.2627 256.332 58.7051 259.572 57.9727C262.866 57.2845 266.271 57.3485 269.538 58.1599V58.1599C269.687 58.1929 269.828 58.2558 269.953 58.3448C270.077 58.4339 270.183 58.5474 270.263 58.6785C270.343 58.8096 270.397 58.9556 270.42 59.1079C270.443 59.2601 270.435 59.4155 270.397 59.5648C270.325 59.8654 270.139 60.1253 269.878 60.2876C269.616 60.4499 269.302 60.5014 269.003 60.431L268.98 60.5247Z" fill="white" stroke="white" stroke-width="2"/>
<path d="M283.779 71.4353L283.105 70.4285C281.185 68.0249 278.714 66.1285 275.904 64.9029C273.042 63.7037 269.924 63.2605 266.844 63.6152C263.718 63.9758 260.732 65.1187 258.156 66.9399C255.584 68.8436 253.491 71.3298 252.047 74.1981C253.344 71.206 255.326 68.5663 257.831 66.495C260.395 64.4229 263.441 63.0448 266.682 62.4913C269.982 61.9156 273.374 62.2059 276.531 63.3343C279.715 64.4972 282.564 66.4356 284.824 68.9769V68.9769L285.544 69.9368C285.66 70.0554 285.749 70.1975 285.806 70.3535C285.863 70.5095 285.886 70.676 285.874 70.8417C285.862 71.0075 285.815 71.1688 285.736 71.3149C285.658 71.461 285.549 71.5886 285.418 71.6891C285.287 71.7896 285.136 71.8608 284.975 71.8979C284.814 71.935 284.647 71.9372 284.486 71.9043C284.324 71.8714 284.171 71.8043 284.037 71.7072C283.904 71.6102 283.792 71.4856 283.709 71.3416L283.779 71.4353Z" fill="white" stroke="white" stroke-width="2"/>
<path d="M289.424 89.0181L289.424 87.9879C289.32 85.0107 288.524 82.0996 287.101 79.4888C285.605 76.8576 283.481 74.6445 280.921 73.0501C278.323 71.4456 275.369 70.5201 272.326 70.3576C269.232 70.2025 266.146 70.7799 263.313 72.0433V72.0433L262.314 72.5818L263.266 71.9965C266.065 70.5168 269.167 69.7152 272.326 69.6551C275.555 69.64 278.736 70.4424 281.577 71.9887C284.418 73.5351 286.829 75.7758 288.587 78.5054C290.366 81.2811 291.464 84.4428 291.793 87.7303V87.7303L291.793 88.8542C291.793 89.1646 291.671 89.4624 291.453 89.6819C291.235 89.9015 290.94 90.0248 290.631 90.0248C290.323 90.0248 290.028 89.9015 289.81 89.6819C289.592 89.4624 289.47 89.1646 289.47 88.8542L289.424 89.0181Z" fill="white" stroke="white" stroke-width="2"/>
<g filter="url(#filter1_d_11_14985)">
<rect x="295.5" y="136.671" width="74.8774" height="73.9643" transform="rotate(90 295.5 136.671)" fill="#82D1D0"/>
</g>
<path d="M280.386 190.8L281.364 189.528C281.625 189.075 281.907 188.665 282.146 188.212C282.623 187.285 283.015 186.318 283.32 185.322C283.934 183.282 284.162 181.146 283.993 179.024C283.817 176.874 283.242 174.776 282.298 172.834C281.374 170.849 280.05 169.073 278.408 167.614C280.176 168.972 281.654 170.666 282.755 172.596C284.2 175.064 285.048 177.831 285.233 180.679C285.418 183.527 284.934 186.379 283.82 189.01C283.602 189.549 283.298 190.088 283.037 190.628L282.125 192.051C281.969 192.291 281.723 192.46 281.442 192.521C281.161 192.581 280.867 192.529 280.625 192.375C280.501 192.302 280.394 192.205 280.309 192.09C280.224 191.975 280.163 191.843 280.131 191.704C280.098 191.565 280.094 191.421 280.12 191.28C280.145 191.14 280.199 191.006 280.277 190.886L280.386 190.8Z" fill="white" stroke="white" stroke-width="2"/>
<path d="M266.563 200.765L268.019 200.312C271.513 198.911 274.477 196.46 276.495 193.302C278.449 189.995 279.308 186.163 278.951 182.346V182.346L278.625 180.901L279.081 182.302C279.764 186.211 279.186 190.235 277.429 193.798C275.529 197.391 272.542 200.303 268.889 202.124V202.124L267.476 202.706C267.208 202.815 266.907 202.814 266.641 202.702C266.374 202.591 266.162 202.379 266.053 202.113C265.943 201.847 265.945 201.549 266.057 201.284C266.169 201.019 266.382 200.809 266.65 200.7C266.65 200.7 266.52 200.765 266.563 200.765Z" fill="white" stroke="white" stroke-width="2"/>
<path d="M249.351 200.744C251.331 201.475 253.432 201.834 255.545 201.8C257.668 201.777 259.765 201.337 261.716 200.506C265.754 198.788 269.006 195.645 270.844 191.685C269.272 195.907 266.174 199.398 262.151 201.477C260.128 202.544 257.912 203.204 255.631 203.418C253.332 203.632 251.012 203.427 248.786 202.814V202.814C248.643 202.779 248.509 202.716 248.391 202.629C248.273 202.542 248.173 202.433 248.097 202.308C248.021 202.182 247.971 202.044 247.95 201.899C247.928 201.755 247.935 201.608 247.971 201.466C248.007 201.325 248.07 201.191 248.158 201.074C248.245 200.957 248.355 200.858 248.481 200.783C248.607 200.707 248.747 200.658 248.893 200.636C249.038 200.615 249.187 200.622 249.329 200.657L249.351 200.744Z" fill="white" stroke="white" stroke-width="2"/>
<path d="M235.444 190.757C236.022 191.631 236.684 192.448 237.421 193.195C238.149 193.942 238.958 194.608 239.834 195.179C241.583 196.383 243.544 197.253 245.614 197.746C247.75 198.248 249.961 198.35 252.134 198.048C254.318 197.754 256.418 197.02 258.306 195.891C256.484 197.165 254.422 198.06 252.242 198.522C250.028 198.993 247.746 199.066 245.506 198.738C242.07 198.178 238.858 196.685 236.226 194.424C235.358 193.668 234.558 192.838 233.835 191.944V191.944C233.746 191.833 233.678 191.706 233.638 191.57C233.598 191.434 233.585 191.291 233.6 191.15C233.615 191.009 233.658 190.872 233.726 190.747C233.795 190.622 233.887 190.512 233.998 190.423C234.11 190.334 234.238 190.267 234.375 190.227C234.512 190.187 234.656 190.174 234.798 190.189C234.94 190.204 235.078 190.247 235.204 190.315C235.33 190.383 235.441 190.474 235.531 190.585L235.444 190.757Z" fill="white" stroke="white" stroke-width="2"/>
<path d="M230.075 174.387C230.075 175.508 230.075 176.544 230.271 177.579C230.415 178.605 230.655 179.616 230.988 180.598C232.087 183.649 234.03 186.332 236.593 188.338C239.157 190.344 242.238 191.594 245.483 191.943C240.949 191.82 236.636 189.966 233.444 186.767C231.808 185.161 230.489 183.267 229.554 181.181C229.072 180.131 228.708 179.031 228.467 177.902C228.228 176.759 228.098 175.616 227.967 174.559C227.93 174.273 228.009 173.984 228.186 173.756C228.363 173.527 228.625 173.378 228.913 173.341C229.201 173.303 229.492 173.381 229.723 173.557C229.953 173.733 230.103 173.993 230.141 174.279L230.075 174.387Z" fill="white" stroke="white" stroke-width="2"/>
<path d="M235.487 158.275L234.509 159.547C234.249 159.979 233.966 160.389 233.749 160.842C233.265 161.768 232.865 162.735 232.553 163.732C231.963 165.762 231.728 167.878 231.858 169.987C232.029 172.123 232.604 174.209 233.553 176.134C234.559 178.069 235.881 179.825 237.465 181.332C235.751 179.935 234.283 178.266 233.118 176.392C231.995 174.458 231.257 172.327 230.945 170.116C230.597 167.865 230.663 165.571 231.141 163.344C231.375 162.214 231.717 161.109 232.162 160.044C232.38 159.504 232.684 158.987 232.945 158.447L233.857 157.024C234.02 156.8 234.263 156.646 234.536 156.595C234.81 156.543 235.092 156.598 235.327 156.747C235.561 156.896 235.728 157.129 235.794 157.397C235.861 157.666 235.821 157.949 235.683 158.189L235.487 158.275Z" fill="white" stroke="white" stroke-width="2"/>
<path d="M249.439 148.181L247.983 148.634C244.221 150.103 241.077 152.805 239.073 156.291C238.056 158.055 237.385 159.994 237.096 162.006C236.828 164.052 236.886 166.126 237.269 168.153C236.721 166.13 236.487 164.035 236.574 161.942C236.713 159.819 237.251 157.742 238.16 155.816C240.031 151.879 243.196 148.692 247.136 146.779V146.779L248.548 146.197C248.681 146.143 248.823 146.115 248.966 146.116C249.11 146.117 249.252 146.146 249.384 146.201C249.516 146.256 249.636 146.336 249.737 146.437C249.838 146.538 249.917 146.658 249.972 146.79C250.026 146.921 250.053 147.062 250.053 147.205C250.052 147.347 250.023 147.488 249.968 147.619C249.912 147.75 249.831 147.869 249.729 147.969C249.627 148.069 249.507 148.149 249.374 148.202L249.439 148.181Z" fill="white" stroke="white" stroke-width="2"/>
<path d="M266.672 148.224C263.642 147.13 260.363 146.902 257.209 147.566C254.055 148.229 251.152 149.757 248.83 151.977C247.276 153.517 245.99 155.302 245.026 157.261C245.839 155.202 246.992 153.292 248.438 151.61C249.942 149.928 251.747 148.539 253.763 147.512C255.804 146.493 258.012 145.843 260.282 145.592C262.584 145.372 264.907 145.547 267.15 146.11V146.11C267.29 146.143 267.423 146.203 267.539 146.287C267.656 146.371 267.755 146.478 267.83 146.6C267.905 146.723 267.954 146.859 267.975 147.001C267.997 147.142 267.989 147.287 267.954 147.426C267.882 147.704 267.703 147.944 267.455 148.093C267.207 148.242 266.91 148.289 266.628 148.224L266.672 148.224Z" fill="white" stroke="white" stroke-width="2"/>
<path d="M280.407 158.318C279.336 156.641 277.957 155.177 276.343 154.005C274.732 152.835 272.921 151.965 270.997 151.438C267.014 150.32 262.761 150.649 259.001 152.365L257.675 153.099L258.936 152.279C262.685 150.235 267.036 149.556 271.236 150.359C275.542 151.199 279.399 153.549 282.102 156.981C282.257 157.208 282.319 157.486 282.275 157.757C282.232 158.028 282.086 158.272 281.867 158.44C281.648 158.608 281.372 158.686 281.097 158.66C280.822 158.633 280.567 158.503 280.385 158.297L280.407 158.318Z" fill="white" stroke="white" stroke-width="2"/>
<path d="M285.797 174.581C285.797 173.502 285.797 172.424 285.623 171.561C285.499 170.588 285.288 169.628 284.993 168.693C284.369 166.812 283.421 165.053 282.19 163.495C279.63 160.287 276.027 158.061 271.998 157.197V157.197L270.433 157.002L271.998 157.002C275.18 157.437 278.194 158.685 280.743 160.625C283.292 162.565 285.288 165.13 286.536 168.067C286.946 169.08 287.266 170.126 287.492 171.194C287.688 172.273 287.797 173.351 287.949 174.3C287.986 174.586 287.909 174.875 287.735 175.104C287.56 175.334 287.301 175.487 287.014 175.53C286.727 175.567 286.436 175.491 286.204 175.317C285.973 175.144 285.819 174.887 285.776 174.602L285.797 174.581Z" fill="white" stroke="white" stroke-width="2"/>
<g filter="url(#filter2_d_11_14985)">
<rect x="295.5" y="222.506" width="74.8774" height="73.9643" transform="rotate(90 295.5 222.506)" fill="#6C9392"/>
</g>
<g filter="url(#filter3_d_11_14985)">
<rect x="296.5" y="307.428" width="74.8774" height="74.8774" transform="rotate(90 296.5 307.428)" fill="#475F5E"/>
</g>
<path d="M283.007 362.363L283.807 361.49L283.807 361.605C285.225 359.801 286.309 357.756 287.006 355.566V355.566L287.44 354.349L287.303 355.612C287.129 357.993 286.541 360.324 285.567 362.5L285.567 362.615L284.995 363.672C284.923 363.804 284.826 363.921 284.709 364.016C284.592 364.111 284.458 364.182 284.313 364.225C284.169 364.267 284.018 364.281 283.868 364.265C283.719 364.249 283.574 364.203 283.442 364.131C283.31 364.058 283.193 363.961 283.098 363.843C283.004 363.725 282.934 363.59 282.891 363.445C282.849 363.3 282.835 363.148 282.851 362.998C282.867 362.848 282.913 362.702 282.985 362.569L283.007 362.363Z" fill="white" stroke="white" stroke-width="2"/>
<path d="M268.313 372.972C271.357 372.46 274.203 371.118 276.539 369.091C275.589 370.379 274.493 371.55 273.272 372.581C271.984 373.584 270.589 374.439 269.113 375.13V375.13C268.976 375.225 268.821 375.29 268.657 375.32C268.494 375.35 268.326 375.345 268.164 375.304C268.003 375.264 267.852 375.189 267.722 375.085C267.592 374.981 267.486 374.85 267.41 374.701C267.334 374.553 267.291 374.389 267.283 374.222C267.276 374.056 267.304 373.889 267.365 373.734C267.427 373.579 267.521 373.439 267.641 373.323C267.761 373.207 267.905 373.119 268.062 373.064C268.062 373.064 268.222 372.995 268.313 372.972Z" fill="white" stroke="white" stroke-width="2"/>
<path d="M250.283 372.926L251.334 373.339C253.45 374.223 255.716 374.691 258.007 374.717L259.149 374.579L258.076 374.992C255.679 375.559 253.195 375.652 250.763 375.268L249.643 375.13C249.338 375.09 249.06 374.93 248.872 374.685C248.683 374.439 248.599 374.129 248.638 373.821C248.655 373.671 248.702 373.525 248.776 373.394C248.85 373.262 248.949 373.146 249.069 373.054C249.188 372.962 249.325 372.895 249.471 372.857C249.617 372.819 249.769 372.811 249.918 372.834C250.044 372.844 250.167 372.875 250.283 372.926V372.926Z" fill="white" stroke="white" stroke-width="2"/>
<path d="M235.591 362.295C236.048 362.961 236.437 363.65 236.825 364.224C237.267 364.822 237.748 365.389 238.265 365.923C239.352 367.016 240.555 367.986 241.853 368.816C240.352 368.311 238.911 367.641 237.557 366.818C236.868 366.393 236.21 365.917 235.591 365.395C234.951 364.844 234.403 364.27 233.832 363.764C233.621 363.546 233.503 363.254 233.503 362.949C233.503 362.645 233.621 362.353 233.832 362.134C234.05 361.915 234.346 361.793 234.655 361.793C234.963 361.793 235.259 361.915 235.477 362.134C235.55 362.192 235.612 362.262 235.66 362.341L235.591 362.295Z" fill="white" stroke="white" stroke-width="2"/>
<path d="M230.106 344.982L229.969 346.13C229.945 346.489 229.945 346.85 229.969 347.209C229.977 347.977 230.03 348.744 230.129 349.505C230.218 350.278 230.355 351.045 230.54 351.801C230.737 352.589 231.004 353.358 231.34 354.097C230.839 353.481 230.395 352.82 230.015 352.123C229.63 351.38 229.294 350.613 229.009 349.826C228.735 349.069 228.484 348.311 228.278 347.53C228.158 347.116 228.066 346.694 228.004 346.267L227.867 345.073C227.844 344.924 227.852 344.771 227.89 344.625C227.927 344.478 227.994 344.341 228.086 344.22C228.177 344.1 228.292 344 228.424 343.926C228.555 343.851 228.7 343.804 228.849 343.788C229.152 343.748 229.458 343.829 229.701 344.014C229.945 344.199 230.106 344.472 230.152 344.775L230.106 344.982Z" fill="white" stroke="white" stroke-width="2"/>
<path d="M235.705 327.646L235.042 328.542L235.042 328.703C234.263 329.452 233.628 330.339 233.169 331.32C232.659 332.365 232.209 333.438 231.821 334.535V334.535L231.546 335.614L231.546 334.489C231.651 333.292 231.834 332.103 232.095 330.93C232.357 329.669 232.836 328.465 233.512 327.371L233.512 327.532L233.923 326.498C234.044 326.217 234.269 325.995 234.551 325.879C234.833 325.764 235.149 325.763 235.431 325.878C235.571 325.936 235.699 326.021 235.806 326.129C235.913 326.237 235.998 326.365 236.056 326.506C236.113 326.647 236.142 326.798 236.141 326.951C236.139 327.103 236.108 327.254 236.048 327.394C236.01 327.457 235.961 327.511 235.902 327.555C235.843 327.598 235.776 327.629 235.705 327.646V327.646Z" fill="white" stroke="white" stroke-width="2"/>
<path d="M250.285 316.992C248.998 317.241 247.747 317.65 246.561 318.209C245.372 318.783 244.276 319.518 242.973 320.161L242.196 320.896L242.767 319.977C243.796 319.082 244.71 318.094 245.807 317.176C246.914 316.267 248.126 315.496 249.417 314.88V314.88C249.688 314.777 249.987 314.779 250.256 314.885C250.526 314.992 250.746 315.195 250.874 315.456C251.003 315.717 251.03 316.016 250.951 316.296C250.871 316.576 250.691 316.816 250.445 316.969C250.392 316.98 250.339 316.988 250.285 316.992Z" fill="white" stroke="white" stroke-width="2"/>
<path d="M268.451 317.037C267.674 316.739 266.988 316.44 266.303 316.211C265.551 315.993 264.789 315.817 264.018 315.683C262.51 315.415 260.978 315.307 259.448 315.361C260.938 314.927 262.47 314.65 264.018 314.535C264.825 314.488 265.633 314.488 266.44 314.535C267.285 314.535 268.085 314.741 268.725 314.81C269.031 314.845 269.31 314.999 269.503 315.24C269.695 315.481 269.785 315.789 269.753 316.096C269.739 316.247 269.695 316.394 269.624 316.528C269.553 316.661 269.456 316.78 269.339 316.876C269.223 316.972 269.088 317.044 268.943 317.087C268.799 317.131 268.647 317.145 268.497 317.129C268.406 317.15 268.313 317.15 268.222 317.129L268.451 317.037Z" fill="white" stroke="white" stroke-width="2"/>
<path d="M283.006 327.737L282.435 326.681L282.435 326.819C281.635 325.727 280.781 324.678 279.876 323.673C278.931 322.696 277.863 321.847 276.7 321.147C278.029 321.564 279.303 322.142 280.493 322.869C281.704 323.627 282.778 324.569 283.852 325.395L283.852 325.533L284.652 326.405C284.858 326.631 284.966 326.929 284.953 327.235C284.94 327.541 284.807 327.829 284.583 328.036C284.359 328.243 284.062 328.352 283.758 328.339C283.453 328.326 283.167 328.192 282.961 327.967L283.006 327.737Z" fill="white" stroke="white" stroke-width="2"/>
<path d="M288.56 344.982L288.698 343.879C288.835 341.601 288.572 339.316 287.92 337.129V337.129L287.509 335.958L288.195 336.991C289.411 339.072 290.261 341.348 290.708 343.719V343.719L290.845 344.821C290.864 344.972 290.854 345.125 290.813 345.272C290.773 345.418 290.704 345.555 290.61 345.675C290.517 345.795 290.4 345.895 290.268 345.969C290.136 346.043 289.991 346.09 289.84 346.107C289.689 346.129 289.535 346.121 289.388 346.081C289.241 346.042 289.103 345.973 288.983 345.878C288.864 345.784 288.764 345.666 288.692 345.531C288.619 345.397 288.574 345.249 288.56 345.096L288.56 344.982Z" fill="white" stroke="white" stroke-width="2"/>
<path d="M197.061 50.4393C196.475 49.8536 195.525 49.8536 194.939 50.4393L185.393 59.9853C184.808 60.5711 184.808 61.5208 185.393 62.1066C185.979 62.6924 186.929 62.6924 187.515 62.1066L196 53.6213L204.485 62.1066C205.071 62.6924 206.021 62.6924 206.607 62.1066C207.192 61.5208 207.192 60.5711 206.607 59.9853L197.061 50.4393ZM194.939 383.561C195.525 384.146 196.475 384.146 197.061 383.561L206.607 374.015C207.192 373.429 207.192 372.479 206.607 371.893C206.021 371.308 205.071 371.308 204.485 371.893L196 380.379L187.515 371.893C186.929 371.308 185.979 371.308 185.393 371.893C184.808 372.479 184.808 373.429 185.393 374.015L194.939 383.561ZM194.5 51.5L194.5 382.5L197.5 382.5L197.5 51.5L194.5 51.5Z" fill="black"/>
<path d="M320.061 50.4393C319.475 49.8536 318.525 49.8536 317.939 50.4393L308.393 59.9853C307.808 60.5711 307.808 61.5208 308.393 62.1066C308.979 62.6924 309.929 62.6924 310.515 62.1066L319 53.6213L327.485 62.1066C328.071 62.6924 329.021 62.6924 329.607 62.1066C330.192 61.5208 330.192 60.5711 329.607 59.9853L320.061 50.4393ZM317.939 383.561C318.525 384.146 319.475 384.146 320.061 383.561L329.607 374.015C330.192 373.429 330.192 372.479 329.607 371.893C329.021 371.308 328.071 371.308 327.485 371.893L319 380.379L310.515 371.893C309.929 371.308 308.979 371.308 308.393 371.893C307.808 372.479 307.808 373.429 308.393 374.015L317.939 383.561ZM317.5 51.5L317.5 382.5L320.5 382.5L320.5 51.5L317.5 51.5Z" fill="black"/>
<path d="M275.771 236.797C274.629 235.959 273.427 235.206 272.173 234.543C270.909 233.938 269.58 233.477 268.211 233.168C265.413 232.502 262.495 232.502 259.696 233.168L258.717 233.506L259.65 233.056C262.428 231.979 265.426 231.577 268.394 231.884C269.907 232.021 271.397 232.339 272.834 232.83C274.232 233.364 275.594 233.989 276.909 234.701C277.184 234.826 277.397 235.055 277.502 235.336C277.606 235.617 277.594 235.927 277.467 236.199C277.34 236.471 277.11 236.682 276.826 236.786C276.542 236.889 276.228 236.877 275.953 236.752H275.816L275.771 236.797Z" fill="white" stroke="white" stroke-width="2"/>
<path d="M286.2 251.22C285.825 249.807 285.274 248.444 284.561 247.164C283.847 245.881 282.984 244.686 281.988 243.603C279.923 241.386 277.321 239.727 274.429 238.78C277.507 239.393 280.375 240.774 282.762 242.792C283.979 243.82 285.072 244.985 286.018 246.262C286.934 247.563 287.698 248.961 288.295 250.432V250.432C288.352 250.569 288.381 250.717 288.38 250.865C288.379 251.014 288.349 251.161 288.291 251.298C288.233 251.435 288.148 251.56 288.041 251.664C287.934 251.769 287.808 251.852 287.669 251.908C287.53 251.964 287.381 251.993 287.231 251.992C287.081 251.991 286.932 251.961 286.794 251.904C286.655 251.846 286.529 251.762 286.424 251.656C286.318 251.551 286.234 251.426 286.178 251.288C286.178 251.288 286.223 251.266 286.2 251.22Z" fill="white" stroke="white" stroke-width="2"/>
<path d="M286.154 269.07C286.681 267.701 287.063 266.281 287.293 264.834C287.483 263.337 287.483 261.823 287.293 260.326C286.937 257.332 285.799 254.482 283.991 252.056C286.156 254.313 287.68 257.096 288.408 260.124C288.801 261.656 289 263.23 289 264.811C288.955 266.39 288.749 267.96 288.386 269.499C288.36 269.647 288.306 269.788 288.225 269.915C288.144 270.042 288.039 270.153 287.915 270.239C287.792 270.326 287.652 270.388 287.504 270.421C287.356 270.455 287.203 270.459 287.054 270.434C286.904 270.409 286.761 270.355 286.633 270.275C286.504 270.195 286.393 270.091 286.305 269.968C286.218 269.846 286.155 269.708 286.121 269.561C286.088 269.415 286.083 269.264 286.109 269.116C286.109 269.116 286.109 269.116 286.109 268.98L286.154 269.07Z" fill="white" stroke="white" stroke-width="2"/>
<path d="M275.611 283.493C276.837 282.682 277.968 281.737 278.981 280.676C281.022 278.509 282.493 275.877 283.262 273.014C283.634 271.539 283.832 270.027 283.854 268.507C284.018 270.005 284.018 271.516 283.854 273.014C283.628 274.56 283.215 276.073 282.624 277.521C282.041 278.984 281.276 280.369 280.347 281.645C279.408 282.928 278.323 284.1 277.114 285.138V285.138C277.008 285.244 276.882 285.328 276.743 285.385C276.605 285.442 276.456 285.472 276.306 285.472C276.155 285.472 276.007 285.442 275.868 285.385C275.729 285.328 275.603 285.244 275.497 285.138C275.289 284.928 275.172 284.644 275.172 284.349C275.172 284.055 275.289 283.771 275.497 283.561L275.611 283.493Z" fill="white" stroke="white" stroke-width="2"/>
<path d="M258.444 288.902H259.537C262.165 288.905 264.764 288.359 267.165 287.302C269.595 286.144 271.757 284.502 273.517 282.479V282.479L274.132 281.555L273.654 282.547C272.118 284.888 270.075 286.861 267.672 288.323C265.27 289.785 262.569 290.698 259.765 290.998V290.998H258.672C258.522 291.007 258.372 290.987 258.231 290.939C258.089 290.89 257.958 290.815 257.846 290.716C257.734 290.618 257.643 290.499 257.577 290.365C257.512 290.232 257.474 290.087 257.465 289.939C257.456 289.791 257.476 289.642 257.525 289.502C257.574 289.362 257.65 289.233 257.75 289.122C257.849 289.011 257.97 288.92 258.104 288.855C258.239 288.791 258.386 288.753 258.535 288.744L258.444 288.902Z" fill="white" stroke="white" stroke-width="2"/>
<path d="M241.344 283.447L242.255 284.168C244.393 285.701 246.849 286.741 249.445 287.213C252.042 287.684 254.711 287.576 257.26 286.895V286.895L258.375 286.692L257.305 287.03C254.705 288.057 251.906 288.495 249.112 288.312C246.319 288.128 243.602 287.329 241.162 285.971V285.971L240.16 285.363C239.903 285.204 239.721 284.952 239.653 284.66C239.584 284.368 239.636 284.062 239.796 283.808C239.956 283.554 240.211 283.373 240.506 283.305C240.8 283.238 241.11 283.289 241.367 283.447C241.359 283.448 241.352 283.448 241.344 283.447V283.447Z" fill="white" stroke="white" stroke-width="2"/>
<path d="M230.689 268.958C231.039 270.295 231.543 271.588 232.192 272.811C232.849 274.029 233.651 275.164 234.582 276.192C236.45 278.307 238.788 279.966 241.413 281.037V281.037L242.483 281.375L241.367 281.172C237.002 280.02 233.187 277.378 230.598 273.713C229.741 272.468 229.016 271.139 228.435 269.746C228.319 269.471 228.316 269.162 228.427 268.884C228.537 268.607 228.752 268.382 229.027 268.259C229.308 268.152 229.621 268.155 229.9 268.268C230.179 268.381 230.404 268.596 230.529 268.867L230.689 268.958Z" fill="white" stroke="white" stroke-width="2"/>
<path d="M230.734 251.086C230.239 252.476 229.881 253.909 229.664 255.368C229.474 256.864 229.474 258.378 229.664 259.875C230.092 262.871 231.205 265.731 232.92 268.236C230.848 265.895 229.351 263.11 228.549 260.1C228.161 258.553 227.978 256.962 228.002 255.368C228.026 253.785 228.202 252.208 228.526 250.658V250.658C228.586 250.359 228.764 250.096 229.02 249.927C229.277 249.758 229.59 249.696 229.892 249.756C230.194 249.816 230.46 249.992 230.63 250.245C230.801 250.499 230.863 250.809 230.803 251.108C230.803 251.108 230.734 251.063 230.734 251.086Z" fill="white" stroke="white" stroke-width="2"/>
<path d="M241.345 236.729L240.343 237.338C238.142 239.057 236.321 241.204 234.992 243.648C234.324 244.896 233.812 246.221 233.467 247.592C233.154 248.984 232.978 250.403 232.943 251.828C232.795 250.39 232.795 248.94 232.943 247.501C233.127 246.037 233.486 244.6 234.013 243.22C235.114 240.423 236.788 237.883 238.931 235.76V235.76L239.842 235.039C240.077 234.885 240.362 234.823 240.641 234.865C240.92 234.906 241.173 235.049 241.351 235.265C241.53 235.481 241.621 235.755 241.607 236.034C241.594 236.313 241.476 236.577 241.276 236.774C241.296 236.755 241.319 236.74 241.345 236.729V236.729Z" fill="white" stroke="white" stroke-width="2"/>
<path d="M258.444 231.254C256.99 231.121 255.524 231.205 254.095 231.502C252.646 231.782 251.238 232.244 249.906 232.877C247.16 234.204 244.755 236.13 242.87 238.511C244.501 235.86 246.71 233.603 249.337 231.907C250.682 231.041 252.137 230.351 253.663 229.857C255.205 229.34 256.816 229.051 258.444 229V229C258.594 228.997 258.742 229.024 258.882 229.077C259.021 229.131 259.148 229.212 259.256 229.314C259.364 229.417 259.45 229.539 259.51 229.675C259.57 229.811 259.602 229.957 259.605 230.105C259.611 230.253 259.587 230.402 259.534 230.541C259.481 230.68 259.399 230.807 259.295 230.915C259.191 231.022 259.066 231.108 258.927 231.166C258.789 231.224 258.64 231.254 258.49 231.254H258.444Z" fill="white" stroke="white" stroke-width="2"/>
<defs>
<filter id="filter0_d_11_14985" x="217.622" y="51.7493" width="82.8779" height="82.8774" filterUnits="userSpaceOnUse" color-interpolation-filters="sRGB">
<feFlood flood-opacity="0" result="BackgroundImageFix"/>
<feColorMatrix in="SourceAlpha" type="matrix" values="0 0 0 0 0 0 0 0 0 0 0 0 0 0 0 0 0 0 127 0" result="hardAlpha"/>
<feOffset dy="4"/>
<feGaussianBlur stdDeviation="2"/>
<feComposite in2="hardAlpha" operator="out"/>
<feColorMatrix type="matrix" values="0 0 0 0 0 0 0 0 0 0 0 0 0 0 0 0 0 0 0.25 0"/>
<feBlend mode="normal" in2="BackgroundImageFix" result="effect1_dropShadow_11_14985"/>
<feBlend mode="normal" in="SourceGraphic" in2="effect1_dropShadow_11_14985" result="shape"/>
</filter>
<filter id="filter1_d_11_14985" x="217.536" y="136.671" width="81.9639" height="82.8774" filterUnits="userSpaceOnUse" color-interpolation-filters="sRGB">
<feFlood flood-opacity="0" result="BackgroundImageFix"/>
<feColorMatrix in="SourceAlpha" type="matrix" values="0 0 0 0 0 0 0 0 0 0 0 0 0 0 0 0 0 0 127 0" result="hardAlpha"/>
<feOffset dy="4"/>
<feGaussianBlur stdDeviation="2"/>
<feComposite in2="hardAlpha" operator="out"/>
<feColorMatrix type="matrix" values="0 0 0 0 0 0 0 0 0 0 0 0 0 0 0 0 0 0 0.25 0"/>
<feBlend mode="normal" in2="BackgroundImageFix" result="effect1_dropShadow_11_14985"/>
<feBlend mode="normal" in="SourceGraphic" in2="effect1_dropShadow_11_14985" result="shape"/>
</filter>
<filter id="filter2_d_11_14985" x="217.536" y="222.506" width="81.9639" height="82.8774" filterUnits="userSpaceOnUse" color-interpolation-filters="sRGB">
<feFlood flood-opacity="0" result="BackgroundImageFix"/>
<feColorMatrix in="SourceAlpha" type="matrix" values="0 0 0 0 0 0 0 0 0 0 0 0 0 0 0 0 0 0 127 0" result="hardAlpha"/>
<feOffset dy="4"/>
<feGaussianBlur stdDeviation="2"/>
<feComposite in2="hardAlpha" operator="out"/>
<feColorMatrix type="matrix" values="0 0 0 0 0 0 0 0 0 0 0 0 0 0 0 0 0 0 0.25 0"/>
<feBlend mode="normal" in2="BackgroundImageFix" result="effect1_dropShadow_11_14985"/>
<feBlend mode="normal" in="SourceGraphic" in2="effect1_dropShadow_11_14985" result="shape"/>
</filter>
<filter id="filter3_d_11_14985" x="217.622" y="307.428" width="82.8779" height="82.8774" filterUnits="userSpaceOnUse" color-interpolation-filters="sRGB">
<feFlood flood-opacity="0" result="BackgroundImageFix"/>
<feColorMatrix in="SourceAlpha" type="matrix" values="0 0 0 0 0 0 0 0 0 0 0 0 0 0 0 0 0 0 127 0" result="hardAlpha"/>
<feOffset dy="4"/>
<feGaussianBlur stdDeviation="2"/>
<feComposite in2="hardAlpha" operator="out"/>
<feColorMatrix type="matrix" values="0 0 0 0 0 0 0 0 0 0 0 0 0 0 0 0 0 0 0.25 0"/>
<feBlend mode="normal" in2="BackgroundImageFix" result="effect1_dropShadow_11_14985"/>
<feBlend mode="normal" in="SourceGraphic" in2="effect1_dropShadow_11_14985" result="shape"/>
</filter>
</defs>
</svg>
