<svg width="20" height="19" viewBox="0 0 20 19" fill="none" xmlns="http://www.w3.org/2000/svg">
<rect x="0.5" y="0.5" width="19" height="18" rx="4.5" fill="black" fill-opacity="0.2" stroke="black"/>
<path d="M9 15C9 15.5523 9.44772 16 10 16C10.5523 16 11 15.5523 11 15L9 15ZM10.7071 3.29289C10.3166 2.90237 9.68342 2.90237 9.29289 3.29289L2.92893 9.65685C2.53841 10.0474 2.53841 10.6805 2.92893 11.0711C3.31946 11.4616 3.95262 11.4616 4.34315 11.0711L10 5.41421L15.6569 11.0711C16.0474 11.4616 16.6805 11.4616 17.0711 11.0711C17.4616 10.6805 17.4616 10.0474 17.0711 9.65685L10.7071 3.29289ZM11 15L11 4L9 4L9 15L11 15Z" fill="black"/>
</svg>
