<svg width="1070" height="1015" viewBox="0 0 1070 1015" fill="none" xmlns="http://www.w3.org/2000/svg">
<path d="M777.17 762.447C766.238 774.99 748.539 781.278 725.665 781.737C702.795 782.196 674.888 776.82 643.767 766.186C581.533 744.92 506.662 702.699 433.939 644.541C361.216 586.383 304.478 523.354 271.522 468.494C255.041 441.061 244.536 415.717 240.923 394.08C237.31 372.438 240.607 354.634 251.539 342.09C262.47 329.547 280.169 323.259 303.043 322.8C325.913 322.342 353.82 327.717 384.941 338.352C447.175 359.617 522.046 401.838 594.77 459.996C667.493 518.154 724.23 581.183 757.187 636.043C773.667 663.476 784.173 688.82 787.785 710.457C791.399 732.099 788.102 749.903 777.17 762.447Z" stroke="#FBD161" stroke-width="2"/>
<path d="M760.128 270.587C761.315 271.282 762.336 272.102 763.185 273.051L762.461 273.751C762.865 274.203 763.225 274.685 763.541 275.199C763.858 275.713 764.129 276.255 764.355 276.827L765.263 276.426C765.738 277.626 766.031 278.939 766.145 280.359L765.168 280.461C765.264 281.653 765.227 282.939 765.054 284.32L766.026 284.434C765.868 285.699 765.602 287.028 765.231 288.419L764.286 288.163C763.966 289.362 763.564 290.614 763.08 291.917L763.994 292.269C763.545 293.478 763.028 294.726 762.445 296.012L761.56 295.591C761.028 296.765 760.439 297.973 759.793 299.215L760.654 299.687C760.047 300.855 759.391 302.051 758.688 303.273L757.849 302.761C757.209 303.874 756.528 305.01 755.807 306.168L756.628 306.711C755.925 307.842 755.184 308.993 754.407 310.164L753.603 309.596C752.886 310.675 752.139 311.772 751.359 312.886L752.149 313.476C751.388 314.565 750.597 315.669 749.778 316.789L749.001 316.181C748.228 317.237 747.429 318.307 746.604 319.391L747.369 320.015C746.564 321.073 745.734 322.145 744.88 323.228L744.126 322.591C743.314 323.621 742.481 324.663 741.626 325.716L742.371 326.366C741.527 327.405 740.663 328.454 739.778 329.514L739.042 328.854C738.204 329.858 737.347 330.872 736.472 331.895L737.2 332.564C736.322 333.59 735.426 334.626 734.512 335.67L733.792 334.991C732.935 335.971 732.061 336.959 731.171 337.955L731.884 338.641C730.994 339.638 730.087 340.642 729.165 341.655L728.459 340.961C727.567 341.94 726.66 342.926 725.739 343.919L726.44 344.62C725.541 345.59 724.628 346.566 723.701 347.549L723.006 346.842C722.082 347.823 721.143 348.81 720.191 349.804L720.88 350.517C719.975 351.463 719.057 352.414 718.127 353.371L717.443 352.653C716.515 353.607 715.576 354.567 714.625 355.533L715.304 356.256C714.363 357.21 713.411 358.17 712.447 359.136L711.773 358.408C710.845 359.338 709.905 360.273 708.956 361.212L709.625 361.945C708.674 362.886 707.712 363.831 706.74 364.782L706.075 364.045C705.122 364.977 704.16 365.913 703.187 366.853L703.848 367.593C702.899 368.511 701.94 369.433 700.972 370.358L700.315 369.614C699.349 370.538 698.373 371.467 697.387 372.399L698.041 373.147C697.072 374.064 696.095 374.984 695.108 375.908L694.459 375.157C693.496 376.059 692.525 376.965 691.546 377.874L692.192 378.628C691.211 379.539 690.222 380.452 689.225 381.369L688.582 380.611C687.599 381.515 686.608 382.423 685.609 383.333L686.248 384.094C685.273 384.983 684.29 385.875 683.299 386.77L682.663 386.006C681.674 386.9 680.677 387.797 679.673 388.697L680.305 389.464C679.305 390.361 678.296 391.261 677.281 392.163L676.651 391.394C675.668 392.268 674.677 393.145 673.68 394.024L674.307 394.797C673.309 395.677 672.304 396.56 671.292 397.445L670.668 396.67C669.657 397.555 668.64 398.442 667.616 399.331L668.237 400.109C667.238 400.976 666.233 401.846 665.222 402.718L664.604 401.939C663.6 402.804 662.591 403.672 661.575 404.541L662.191 405.323C661.174 406.194 660.152 407.066 659.123 407.941L658.51 407.157C657.493 408.022 656.47 408.889 655.441 409.758L656.051 410.544C655.042 411.397 654.027 412.251 653.007 413.108L652.399 412.319C651.379 413.175 650.354 414.032 649.323 414.892L649.928 415.682C648.897 416.542 647.86 417.404 646.818 418.267L646.215 417.475C645.196 418.319 644.172 419.164 643.143 420.011L643.743 420.806C642.72 421.649 641.691 422.493 640.657 423.339L640.059 422.543C639.026 423.388 637.987 424.235 636.944 425.084L637.54 425.882C636.5 426.728 635.455 427.575 634.405 428.424L633.811 427.624C632.785 428.454 631.755 429.284 630.72 430.117L631.311 430.919C630.275 431.751 629.235 432.585 628.189 433.421L627.6 432.617C626.556 433.452 625.507 434.288 624.453 435.125L625.041 435.931C623.996 436.761 622.947 437.592 621.894 438.425L621.309 437.617C620.272 438.437 619.23 439.258 618.185 440.08L618.768 440.889C617.721 441.711 616.671 442.535 615.616 443.359L615.035 442.549C613.981 443.373 612.923 444.198 611.861 445.024L612.44 445.836C611.389 446.652 610.335 447.47 609.277 448.289L608.7 447.475C607.654 448.285 606.603 449.095 605.548 449.907L606.123 450.722C605.068 451.534 604.009 452.347 602.946 453.161L602.373 452.344C601.311 453.157 600.245 453.971 599.175 454.786L599.745 455.604C598.688 456.409 597.628 457.215 596.563 458.022L595.994 457.202C594.939 458.002 593.88 458.802 592.818 459.603L593.384 460.425C592.321 461.226 591.255 462.028 590.185 462.831L589.62 462.009C588.55 462.811 587.477 463.614 586.401 464.418L586.964 465.242C585.899 466.037 584.83 466.832 583.759 467.629L583.198 466.803C582.135 467.593 581.068 468.383 579.999 469.174L580.558 470.001C579.488 470.792 578.414 471.583 577.338 472.376L576.781 471.547C575.705 472.339 574.625 473.131 573.543 473.924L574.098 474.753C573.025 475.539 571.948 476.326 570.869 477.113L570.315 476.282C569.245 477.061 568.172 477.841 567.096 478.622L567.648 479.454C566.572 480.235 565.492 481.016 564.409 481.798L563.86 480.964C562.778 481.745 561.693 482.527 560.605 483.308L561.153 484.143C560.071 484.921 558.985 485.699 557.897 486.477L557.351 485.641C556.275 486.411 555.196 487.181 554.114 487.951L554.658 488.788C553.576 489.559 552.49 490.33 551.402 491.101L550.86 490.262C549.772 491.033 548.682 491.804 547.589 492.575L548.13 493.415C547.039 494.184 545.945 494.954 544.848 495.725L544.309 494.883C543.226 495.643 542.141 496.403 541.054 497.164L541.591 498.006C540.503 498.767 539.412 499.527 538.319 500.288L537.784 499.444C536.691 500.204 535.596 500.965 534.498 501.725L535.032 502.57C533.934 503.331 532.833 504.091 531.73 504.852L531.198 504.006C530.107 504.758 529.015 505.51 527.919 506.261L528.45 507.109C527.356 507.859 526.26 508.61 525.162 509.36L524.634 508.512C523.536 509.262 522.436 510.012 521.334 510.762L521.861 511.611C520.758 512.362 519.653 513.112 518.545 513.862L518.02 513.011C517.747 513.196 517.474 513.38 517.201 513.565C516.92 513.755 516.639 513.945 516.358 514.135C515.804 514.51 515.249 514.884 514.695 515.257L515.218 516.109C514.11 516.857 513.002 517.602 511.894 518.345L511.373 517.492C510.266 518.235 509.16 518.975 508.055 519.713L508.575 520.568C507.47 521.306 506.365 522.043 505.261 522.777L504.743 521.921C503.638 522.656 502.533 523.389 501.429 524.12L501.946 524.977C500.83 525.716 499.714 526.452 498.6 527.187L498.085 526.329C496.971 527.063 495.858 527.794 494.747 528.523L495.259 529.383C494.147 530.112 493.036 530.839 491.926 531.564L491.415 530.704C490.305 531.428 489.196 532.15 488.089 532.87L488.598 533.731C487.476 534.46 486.356 535.187 485.236 535.911L484.729 535.048C483.607 535.773 482.488 536.496 481.369 537.216L481.875 538.08C480.755 538.8 479.637 539.518 478.521 540.233L478.017 539.368C476.901 540.083 475.786 540.795 474.673 541.505L475.175 542.371C474.049 543.088 472.925 543.803 471.803 544.515L471.302 543.648C470.174 544.364 469.047 545.077 467.922 545.787L468.42 546.656C467.294 547.367 466.169 548.075 465.046 548.78L464.55 547.91C463.427 548.615 462.307 549.318 461.187 550.017L461.682 550.888C460.552 551.594 459.424 552.297 458.298 552.997L457.806 552.125C456.67 552.831 455.536 553.534 454.404 554.235L454.894 555.108C453.761 555.809 452.63 556.507 451.501 557.202L451.012 556.327C449.884 557.022 448.757 557.714 447.631 558.402L448.118 559.278C446.984 559.973 445.851 560.664 444.721 561.352L444.236 560.475C443.093 561.171 441.952 561.864 440.814 562.554L441.296 563.432C440.157 564.122 439.019 564.809 437.884 565.493L437.403 564.614C436.268 565.298 435.135 565.978 434.005 566.655L434.483 567.536C433.343 568.219 432.204 568.899 431.068 569.576L430.592 568.694C429.442 569.379 428.294 570.061 427.149 570.739L427.623 571.622C426.478 572.301 425.334 572.977 424.192 573.649L423.72 572.764C422.58 573.436 421.441 574.104 420.306 574.77L420.776 575.655C419.627 576.328 418.481 576.997 417.338 577.662L416.87 576.775C415.714 577.448 414.56 578.118 413.409 578.784L413.874 579.672C412.722 580.339 411.573 581.001 410.426 581.661L409.963 580.771C408.817 581.43 407.674 582.085 406.533 582.737L406.994 583.628C405.836 584.29 404.68 584.948 403.527 585.603L403.069 584.71C401.906 585.37 400.747 586.026 399.59 586.679L400.046 587.573C398.889 588.226 397.734 588.875 396.583 589.52L396.129 588.625C394.979 589.269 393.831 589.91 392.687 590.547L393.138 591.444C391.966 592.096 390.798 592.744 389.634 593.387L389.185 592.489C388.017 593.135 386.852 593.777 385.691 594.414L386.137 595.313C384.975 595.951 383.816 596.585 382.661 597.214L382.218 596.313C381.057 596.946 379.899 597.574 378.745 598.199L379.186 599.101C378.005 599.74 376.828 600.374 375.654 601.004L375.217 600.1C374.044 600.729 372.876 601.354 371.711 601.974L372.146 602.879C370.981 603.5 369.819 604.116 368.661 604.728L368.229 603.821C367.049 604.445 365.873 605.063 364.701 605.677L365.131 606.586C363.946 607.207 362.765 607.823 361.589 608.434L361.163 607.524C359.987 608.134 358.817 608.74 357.65 609.341L358.073 610.252C356.898 610.858 355.727 611.458 354.56 612.054L354.141 611.14C352.945 611.751 351.754 612.356 350.568 612.956L350.984 613.871C349.797 614.471 348.615 615.066 347.438 615.655L347.024 614.739C345.848 615.328 344.677 615.911 343.511 616.49L343.921 617.408C342.717 618.005 341.519 618.596 340.327 619.181L339.921 618.261C338.724 618.848 337.532 619.43 336.347 620.005L336.749 620.927C335.562 621.504 334.381 622.074 333.206 622.638L332.807 621.714C331.603 622.292 330.406 622.864 329.214 623.429L329.608 624.355C328.4 624.928 327.197 625.495 326.001 626.056L325.611 625.128C324.417 625.688 323.228 626.241 322.047 626.788L322.433 627.718C321.222 628.278 320.019 628.831 318.822 629.377L318.441 628.446C317.224 629.001 316.014 629.55 314.811 630.091L315.188 631.025C313.984 631.567 312.787 632.102 311.597 632.629L311.226 631.693C310.007 632.233 308.796 632.766 307.593 633.291L307.96 634.23C306.732 634.766 305.513 635.294 304.302 635.813L303.942 634.872C302.733 635.391 301.532 635.902 300.341 636.404L300.696 637.348C299.459 637.869 298.231 638.382 297.013 638.886L296.664 637.94C295.432 638.45 294.21 638.951 292.998 639.442L293.34 640.391C292.124 640.883 290.918 641.367 289.722 641.842L289.387 640.89C288.13 641.389 286.884 641.877 285.65 642.355L285.978 643.309C284.741 643.788 283.515 644.257 282.301 644.715L281.981 643.758C280.737 644.227 279.506 644.686 278.287 645.133L278.599 646.093C277.338 646.556 276.091 647.007 274.856 647.446L274.554 646.482C273.321 646.92 272.101 647.347 270.896 647.761L271.189 648.728C269.904 649.17 268.634 649.598 267.379 650.013L267.097 649.042C265.847 649.455 264.612 649.855 263.393 650.241L263.664 651.215C262.377 651.622 261.108 652.014 259.856 652.391L259.599 651.412C258.33 651.794 257.081 652.16 255.85 652.509L256.093 653.492C254.798 653.86 253.525 654.21 252.272 654.542L252.045 653.555C250.762 653.895 249.502 654.216 248.264 654.518L248.473 655.51C247.161 655.831 245.875 656.13 244.614 656.407L244.427 655.41C243.137 655.695 241.874 655.956 240.64 656.194L240.803 657.196C239.464 657.455 238.157 657.687 236.883 657.892L236.75 656.885C235.445 657.095 234.177 657.276 232.945 657.428L233.044 658.44C231.691 658.607 230.381 658.74 229.115 658.838L229.059 657.821C227.713 657.925 226.419 657.989 225.179 658.013L225.18 659.032C223.821 659.057 222.523 659.036 221.286 658.966L221.357 657.948C220.024 657.873 218.769 657.74 217.594 657.551L217.428 658.559C216.065 658.339 214.799 658.045 213.633 657.674L213.935 656.699C212.663 656.295 211.529 655.8 210.533 655.217L210.041 656.107C208.853 655.413 207.832 654.592 206.984 653.644L207.707 652.943C207.303 652.491 206.943 652.009 206.627 651.495C206.311 650.981 206.04 650.439 205.813 649.867L204.905 650.269C204.43 649.068 204.138 647.755 204.023 646.335L205.001 646.233C204.905 645.041 204.942 643.755 205.114 642.375L204.142 642.261C204.3 640.995 204.566 639.666 204.938 638.275L205.882 638.532C206.202 637.332 206.605 636.081 207.089 634.778L206.175 634.425C206.624 633.216 207.14 631.968 207.723 630.682L208.609 631.103C209.141 629.929 209.73 628.721 210.375 627.479L209.514 627.007C210.121 625.839 210.777 624.643 211.48 623.421L212.32 623.933C212.96 622.82 213.641 621.684 214.361 620.526L213.54 619.983C214.244 618.852 214.984 617.701 215.762 616.53L216.566 617.098C217.282 616.019 218.03 614.922 218.809 613.808L218.019 613.218C218.78 612.13 219.571 611.025 220.391 609.906L221.167 610.514C221.94 609.457 222.739 608.387 223.564 607.303L222.799 606.679C223.605 605.621 224.434 604.55 225.288 603.466L226.042 604.103C226.854 603.073 227.687 602.031 228.542 600.978L227.798 600.329C228.641 599.29 229.506 598.24 230.39 597.18L231.126 597.84C231.964 596.836 232.821 595.823 233.696 594.8L232.968 594.13C233.846 593.104 234.742 592.069 235.656 591.024L236.376 591.703C237.234 590.723 238.108 589.735 238.997 588.74L238.284 588.053C239.175 587.056 240.081 586.052 241.003 585.04L241.71 585.733C242.601 584.754 243.508 583.768 244.429 582.775L243.729 582.074C244.628 581.105 245.541 580.128 246.467 579.145L247.162 579.852C248.087 578.871 249.025 577.884 249.977 576.89L249.288 576.177C250.194 575.232 251.112 574.28 252.042 573.323L252.726 574.041C253.653 573.087 254.592 572.127 255.543 571.162L254.865 570.439C255.805 569.484 256.758 568.524 257.721 567.558L258.395 568.286C259.324 567.356 260.263 566.422 261.213 565.482L260.543 564.75C261.494 563.809 262.456 562.863 263.428 561.912L264.093 562.649C265.046 561.717 266.009 560.782 266.982 559.841L266.32 559.101C267.27 558.183 268.228 557.262 269.196 556.336L269.853 557.08C270.82 556.156 271.796 555.228 272.781 554.295L272.128 553.547C273.096 552.63 274.074 551.71 275.06 550.786L275.709 551.537C276.672 550.635 277.643 549.73 278.623 548.821L277.977 548.066C278.957 547.156 279.946 546.242 280.944 545.325L281.586 546.083C282.569 545.179 283.56 544.272 284.559 543.361L283.92 542.6C284.896 541.711 285.879 540.819 286.869 539.924L287.505 540.688C288.494 539.794 289.491 538.897 290.496 537.997L289.863 537.23C290.864 536.333 291.872 535.433 292.887 534.531L293.517 535.3C294.501 534.426 295.491 533.549 296.488 532.67L295.862 531.898C296.86 531.017 297.865 530.135 298.876 529.249L299.5 530.024C300.511 529.139 301.528 528.252 302.552 527.363L301.931 526.586C302.93 525.718 303.935 524.848 304.946 523.976L305.565 524.756C306.568 523.89 307.578 523.023 308.593 522.153L307.978 521.371C308.994 520.501 310.017 519.628 311.045 518.753L311.658 519.537C312.676 518.672 313.699 517.805 314.727 516.936L314.117 516.15C315.126 515.297 316.141 514.443 317.162 513.587L317.77 514.375C318.789 513.519 319.815 512.662 320.845 511.803L320.24 511.012C321.271 510.152 322.308 509.29 323.351 508.427L323.954 509.219C324.973 508.375 325.996 507.53 327.025 506.683L326.425 505.888C327.449 505.045 328.478 504.201 329.511 503.355L330.11 504.151C331.143 503.306 332.181 502.459 333.224 501.611L332.628 500.812C333.668 499.966 334.713 499.119 335.763 498.27L336.357 499.07C337.383 498.241 338.414 497.41 339.449 496.578L338.857 495.776C339.893 494.943 340.934 494.109 341.979 493.273L342.568 494.077C343.612 493.242 344.661 492.406 345.715 491.569L345.128 490.764C346.172 489.934 347.221 489.102 348.275 488.27L348.86 489.077C349.897 488.257 350.938 487.436 351.984 486.615L351.401 485.806C352.447 484.983 353.498 484.16 354.552 483.335L355.133 484.146C356.187 483.322 357.245 482.497 358.307 481.671L357.729 480.858C358.779 480.042 359.833 479.224 360.891 478.406L361.468 479.219C362.515 478.41 363.566 477.599 364.62 476.787L364.046 475.972C365.101 475.16 366.16 474.347 367.223 473.534L367.795 474.35C368.858 473.537 369.924 472.723 370.993 471.908L370.423 471.09C371.48 470.285 372.541 469.479 373.605 468.672L374.174 469.492C375.229 468.692 376.288 467.892 377.351 467.091L376.784 466.27C377.847 465.468 378.914 464.666 379.984 463.863L380.549 464.686C381.618 463.883 382.691 463.08 383.768 462.277L383.205 461.452C384.27 460.657 385.338 459.862 386.41 459.066L386.971 459.891C388.034 459.102 389.1 458.311 390.169 457.521L389.61 456.694C390.681 455.902 391.754 455.111 392.831 454.319L393.388 455.147C394.464 454.355 395.543 453.563 396.625 452.771L396.07 451.941C397.143 451.155 398.22 450.368 399.3 449.582L399.853 450.413C400.923 449.633 401.996 448.853 403.072 448.072L402.52 447.24C403.597 446.459 404.676 445.678 405.759 444.896L406.309 445.73C407.391 444.949 408.476 444.168 409.563 443.386L409.015 442.551C410.098 441.773 411.183 440.995 412.271 440.217L412.817 441.053C413.894 440.284 414.973 439.514 416.055 438.743L415.51 437.906C416.593 437.135 417.678 436.364 418.766 435.593L419.309 436.432C420.396 435.661 421.486 434.891 422.579 434.12L422.038 433.28C423.13 432.51 424.224 431.74 425.32 430.97L425.86 431.811C426.942 431.051 428.027 430.291 429.114 429.531L428.577 428.688C429.665 427.928 430.756 427.167 431.849 426.406L432.385 427.25C433.477 426.49 434.573 425.729 435.67 424.969L435.136 424.124C436.234 423.364 437.335 422.603 438.438 421.842L438.97 422.688C440.061 421.937 441.154 421.185 442.249 420.433L441.719 419.586C442.812 418.835 443.908 418.084 445.006 417.334L445.535 418.182C446.632 417.432 447.732 416.682 448.835 415.933L448.308 415.083C449.411 414.333 450.516 413.583 451.623 412.833L452.148 413.684C452.702 413.309 453.256 412.934 453.81 412.559C454.365 412.185 454.919 411.81 455.473 411.437L454.95 410.585C456.059 409.837 457.167 409.092 458.274 408.349L458.796 409.202C459.902 408.459 461.008 407.719 462.113 406.981L461.593 406.126C462.699 405.388 463.803 404.651 464.907 403.917L465.425 404.773C466.531 404.038 467.635 403.305 468.739 402.574L468.222 401.718C469.339 400.979 470.454 400.242 471.569 399.508L472.083 400.365C473.197 399.632 474.31 398.9 475.422 398.171L474.909 397.312C476.021 396.582 477.133 395.855 478.243 395.13L478.754 395.99C479.863 395.266 480.972 394.544 482.079 393.825L481.57 392.963C482.692 392.234 483.813 391.507 484.932 390.783L485.44 391.646C486.561 390.921 487.681 390.198 488.799 389.479L488.294 388.615C489.413 387.894 490.531 387.177 491.648 386.461L492.151 387.326C493.267 386.611 494.382 385.899 495.496 385.189L494.994 384.323C496.119 383.606 497.243 382.891 498.366 382.179L498.866 383.046C499.994 382.33 501.121 381.617 502.247 380.907L501.748 380.038C502.874 379.328 503.999 378.619 505.122 377.914L505.619 378.784C506.741 378.079 507.862 377.377 508.981 376.677L508.487 375.806C509.616 375.1 510.744 374.397 511.87 373.697L512.363 374.569C513.498 373.863 514.632 373.16 515.765 372.459L515.274 371.586C516.407 370.885 517.538 370.187 518.667 369.492L519.156 370.367C520.285 369.672 521.412 368.981 522.537 368.292L522.05 367.416C523.185 366.722 524.317 366.03 525.448 365.342L525.932 366.219C527.075 365.523 528.216 364.83 529.355 364.14L528.872 363.262C530.012 362.572 531.149 361.885 532.285 361.201L532.765 362.08C533.9 361.397 535.033 360.716 536.164 360.039L535.685 359.158C536.826 358.475 537.964 357.795 539.1 357.118L539.577 358C540.726 357.315 541.874 356.634 543.019 355.955L542.545 355.072C543.691 354.393 544.835 353.718 545.976 353.045L546.448 353.93C547.589 353.258 548.727 352.59 549.863 351.925L549.393 351.039C550.541 350.367 551.687 349.698 552.83 349.032L553.298 349.919C554.454 349.246 555.608 348.577 556.76 347.911L556.294 347.022C557.446 346.356 558.596 345.693 559.742 345.033L560.205 345.923C561.351 345.264 562.495 344.609 563.635 343.957L563.174 343.066C564.333 342.404 565.488 341.746 566.641 341.092L567.099 341.984C568.262 341.324 569.422 340.668 570.578 340.015L570.122 339.122C571.28 338.469 572.434 337.82 573.586 337.174L574.039 338.07C575.19 337.425 576.337 336.784 577.482 336.147L577.031 335.25C578.202 334.599 579.37 333.951 580.535 333.307L580.983 334.205C582.151 333.559 583.316 332.918 584.477 332.28L584.031 331.381C585.193 330.743 586.352 330.11 587.507 329.48L587.951 330.381C589.112 329.748 590.269 329.12 591.423 328.496L590.983 327.593C592.163 326.955 593.341 326.32 594.514 325.691L594.952 326.594C596.124 325.965 597.293 325.34 598.457 324.72L598.022 323.815C599.188 323.194 600.349 322.578 601.507 321.966L601.939 322.873C603.119 322.25 604.295 321.631 605.467 321.017L605.038 320.109C606.223 319.488 607.403 318.872 608.58 318.26L609.006 319.17C610.181 318.56 611.352 317.954 612.518 317.353L612.095 316.442C613.271 315.836 614.442 315.236 615.608 314.641L616.028 315.554C617.224 314.943 618.415 314.338 619.601 313.739L619.184 312.824C620.371 312.223 621.554 311.628 622.731 311.039L623.144 311.955C624.32 311.366 625.491 310.783 626.657 310.205L626.247 309.286C627.451 308.689 628.649 308.098 629.842 307.513L630.248 308.433C631.445 307.846 632.636 307.264 633.822 306.689L633.419 305.767C634.606 305.191 635.787 304.62 636.963 304.056L637.361 304.98C638.565 304.402 639.763 303.831 640.954 303.265L640.56 302.339C641.769 301.766 642.971 301.199 644.167 300.638L644.557 301.566C645.752 301.006 646.94 300.453 648.121 299.906L647.736 298.976C648.946 298.416 650.15 297.863 651.346 297.317L651.727 298.249C652.944 297.693 654.154 297.145 655.357 296.603L654.981 295.669C656.185 295.127 657.382 294.592 658.571 294.065L658.942 295.001C660.161 294.461 661.372 293.928 662.575 293.403L662.209 292.464C663.436 291.928 664.655 291.401 665.866 290.881L666.227 291.822C667.436 291.303 668.636 290.792 669.828 290.29L669.473 289.346C670.709 288.825 671.937 288.312 673.155 287.808L673.504 288.754C674.736 288.244 675.958 287.744 677.171 287.252L676.828 286.304C678.044 285.811 679.25 285.327 680.446 284.853L680.782 285.804C682.039 285.305 683.284 284.817 684.519 284.339L684.19 283.385C685.427 282.906 686.653 282.437 687.867 281.979L688.187 282.936C689.431 282.467 690.663 282.008 691.882 281.561L691.57 280.601C692.83 280.138 694.078 279.688 695.312 279.249L695.615 280.212C696.848 279.774 698.067 279.347 699.273 278.933L698.98 277.966C700.265 277.524 701.535 277.096 702.789 276.682L703.071 277.652C704.322 277.239 705.556 276.839 706.775 276.454L706.504 275.479C707.791 275.072 709.061 274.68 710.312 274.303L710.57 275.282C711.838 274.9 713.088 274.534 714.319 274.185L714.075 273.202C715.37 272.834 716.644 272.484 717.897 272.152L718.123 273.139C719.406 272.799 720.667 272.478 721.904 272.176L721.696 271.184C723.007 270.864 724.294 270.565 725.554 270.287L725.742 271.284C727.032 271 728.294 270.738 729.528 270.5L729.365 269.498C730.705 269.239 732.011 269.007 733.285 268.802L733.418 269.809C734.723 269.599 735.992 269.418 737.223 269.266L737.124 268.254C738.477 268.087 739.787 267.954 741.054 267.857L741.109 268.873C742.455 268.769 743.749 268.705 744.989 268.682L744.989 267.663C746.347 267.637 747.645 267.659 748.882 267.729L748.812 268.746C750.145 268.822 751.399 268.954 752.574 269.143L752.741 268.136C754.104 268.355 755.369 268.649 756.535 269.02L756.233 269.995C757.505 270.399 758.639 270.894 759.636 271.477L760.128 270.587Z" stroke="#FBD161" stroke-width="2" stroke-dasharray="4 4"/>
<path d="M740.782 662.175C736.355 671.207 725.216 680.102 708.378 688.45C691.575 696.781 669.355 704.433 643.227 710.993C590.985 724.109 523.378 732.798 452.811 733.924C382.244 735.05 322.156 728.399 282.051 716.756C261.992 710.933 246.982 703.875 238.145 695.953C229.29 688.015 226.765 679.337 231.192 670.306C235.619 661.274 246.758 652.378 263.596 644.03C280.399 635.699 302.619 628.047 328.747 621.487C380.989 608.371 448.596 599.682 519.163 598.556C589.73 597.43 649.818 604.082 689.924 615.725C709.982 621.548 724.992 628.606 733.829 636.527C742.684 644.466 745.209 653.143 740.782 662.175Z" stroke="#FBD161" stroke-width="2"/>
<path d="M674.343 808.055C664.343 810.031 651.63 807.998 637.067 802.48C622.499 796.959 606.177 787.984 589.109 776.207C554.978 752.656 518.06 718.037 486.498 677.929C454.936 637.822 434.763 599.895 427.631 571.01C424.064 556.566 423.769 544.425 426.898 535.409C430.025 526.396 436.548 520.563 446.548 518.587C456.549 516.612 469.262 518.645 483.825 524.163C498.393 529.684 514.715 538.659 531.783 550.436C565.914 573.987 602.832 608.606 634.394 648.714C665.956 688.821 686.129 726.748 693.261 755.633C696.828 770.077 697.123 782.218 693.994 791.234C690.867 800.247 684.344 806.08 674.343 808.055Z" stroke="#FBD161" stroke-width="2"/>
<path d="M623.924 169.411C624.785 170.222 625.597 171.129 626.359 172.136L625.901 173.066C626.269 173.552 626.625 174.062 626.968 174.596C627.312 175.13 627.641 175.686 627.956 176.262L628.503 175.471C629.155 176.665 629.75 177.946 630.287 179.31L629.668 179.946C630.173 181.226 630.625 182.585 631.028 184.023L631.699 183.543C632.099 184.974 632.45 186.477 632.751 188.05L632.047 188.387C632.326 189.841 632.562 191.359 632.756 192.941L633.481 192.73C633.667 194.245 633.815 195.814 633.924 197.435L633.19 197.541C633.292 199.05 633.361 200.607 633.397 202.212L634.136 202.194C634.17 203.756 634.175 205.358 634.148 207.001L633.409 206.943C633.385 208.476 633.333 210.047 633.255 211.654L633.991 211.776C633.916 213.316 633.816 214.887 633.693 216.49L632.96 216.313C632.841 217.856 632.7 219.428 632.536 221.03L633.265 221.254C633.109 222.777 632.934 224.325 632.739 225.897L632.014 225.633C631.826 227.152 631.618 228.695 631.393 230.262L632.112 230.562C631.893 232.079 631.658 233.617 631.405 235.175L630.69 234.842C630.448 236.339 630.189 237.855 629.915 239.39L630.625 239.752C630.356 241.253 630.073 242.772 629.775 244.308L629.07 243.921C628.784 245.4 628.484 246.895 628.17 248.405L628.87 248.815C628.562 250.296 628.241 251.792 627.908 253.303L627.212 252.872C626.888 254.337 626.552 255.816 626.204 257.309L626.896 257.759C626.556 259.217 626.205 260.687 625.842 262.17L625.155 261.702C624.799 263.159 624.431 264.628 624.053 266.109L624.736 266.594C624.37 268.027 623.994 269.471 623.608 270.926L622.929 270.426C622.544 271.876 622.149 273.336 621.744 274.807L622.419 275.322C622.03 276.733 621.633 278.154 621.226 279.583L620.554 279.056C620.15 280.479 619.736 281.911 619.313 283.352L619.981 283.892C619.566 285.305 619.144 286.727 618.712 288.156L618.048 287.605C617.626 289.001 617.197 290.406 616.759 291.819L617.42 292.382C616.981 293.798 616.534 295.222 616.08 296.654L615.422 296.08C614.986 297.452 614.543 298.831 614.092 300.217L614.747 300.801C614.295 302.189 613.836 303.585 613.37 304.987L612.719 304.394C612.26 305.775 611.794 307.163 611.32 308.557L611.969 309.159C611.506 310.522 611.037 311.89 610.561 313.265L609.916 312.654C609.441 314.026 608.959 315.404 608.471 316.787L609.113 317.406C608.634 318.763 608.149 320.126 607.658 321.494L607.018 320.867C606.534 322.213 606.045 323.565 605.549 324.921L606.186 325.556C605.689 326.914 605.186 328.278 604.677 329.647L604.043 329.005C603.548 330.338 603.047 331.676 602.54 333.018L603.171 333.667C602.668 335.001 602.158 336.339 601.644 337.681L601.015 337.025C600.501 338.365 599.982 339.709 599.457 341.058L600.083 341.72C599.57 343.038 599.052 344.36 598.529 345.685L597.905 345.016C597.386 346.332 596.861 347.651 596.332 348.975L596.953 349.65C596.422 350.975 595.887 352.304 595.346 353.636L594.727 352.955C594.2 354.256 593.667 355.561 593.129 356.869L593.746 357.556C593.211 358.857 592.671 360.162 592.127 361.47L591.513 360.778C590.969 362.084 590.421 363.393 589.868 364.705L590.48 365.403C589.935 366.695 589.387 367.989 588.834 369.286L588.224 368.583C587.677 369.866 587.125 371.153 586.569 372.442L587.176 373.15C586.619 374.441 586.058 375.735 585.493 377.031L584.887 376.317C584.329 377.597 583.766 378.879 583.199 380.164L583.802 380.883C583.242 382.152 582.678 383.424 582.11 384.698L581.509 383.974C580.941 385.246 580.37 386.521 579.794 387.797L580.393 388.526C579.819 389.799 579.241 391.074 578.659 392.351L578.063 391.618C577.492 392.87 576.918 394.124 576.34 395.379L576.934 396.117C576.356 397.374 575.773 398.633 575.187 399.894L574.595 399.152C574.009 400.411 573.42 401.672 572.827 402.935L573.417 403.682C572.834 404.924 572.247 406.169 571.656 407.414L571.068 406.663C570.48 407.903 569.889 409.144 569.294 410.386L569.881 411.141C569.285 412.385 568.686 413.63 568.084 414.877L567.5 414.117C566.903 415.353 566.302 416.59 565.698 417.829L566.28 418.593C565.683 419.817 565.082 421.044 564.478 422.271L563.898 421.503C563.294 422.729 562.687 423.956 562.077 425.184L562.656 425.956C562.045 427.186 561.431 428.416 560.814 429.648L560.238 428.872C559.631 430.083 559.021 431.294 558.408 432.506L558.982 433.286C558.37 434.497 557.755 435.709 557.136 436.922L556.564 436.139C555.946 437.35 555.325 438.563 554.701 439.776L555.271 440.563C554.65 441.771 554.026 442.98 553.398 444.189L552.83 443.398C552.21 444.592 551.588 445.787 550.962 446.983L551.529 447.777C550.902 448.974 550.273 450.172 549.641 451.369L549.077 450.571C548.446 451.768 547.811 452.965 547.174 454.162L547.737 454.964C547.106 456.15 546.472 457.337 545.836 458.523L545.275 457.718C544.642 458.898 544.006 460.078 543.368 461.259L543.927 462.068C543.288 463.249 542.646 464.431 542.002 465.614L541.445 464.801C540.801 465.982 540.154 467.163 539.505 468.344L540.06 469.16C539.42 470.326 538.776 471.492 538.13 472.658L537.577 471.839C536.932 473.004 536.284 474.169 535.633 475.334L536.184 476.157C535.533 477.323 534.879 478.489 534.223 479.655L533.674 478.829C533.02 479.99 532.364 481.151 531.706 482.311L532.253 483.141C531.601 484.292 530.945 485.443 530.287 486.594L529.742 485.761C529.085 486.91 528.425 488.06 527.763 489.209L528.306 490.045C527.644 491.195 526.978 492.346 526.311 493.495L525.769 492.656C525.435 493.23 525.101 493.804 524.767 494.379C524.432 494.953 524.097 495.526 523.762 496.098L524.302 496.941C523.632 498.087 522.961 499.228 522.29 500.366L521.752 499.52C521.082 500.656 520.411 501.789 519.741 502.917L520.277 503.767C519.605 504.896 518.934 506.022 518.262 507.143L517.728 506.291C517.05 507.422 516.373 508.549 515.695 509.671L516.227 510.527C515.546 511.655 514.865 512.779 514.183 513.898L513.653 513.039C512.973 514.158 512.292 515.272 511.611 516.382L512.139 517.244C511.458 518.355 510.777 519.462 510.095 520.565L509.569 519.699C508.878 520.816 508.188 521.928 507.497 523.036L508.021 523.905C507.33 525.015 506.639 526.12 505.947 527.22L505.425 526.348C504.735 527.447 504.044 528.542 503.354 529.632L503.874 530.508C503.179 531.604 502.485 532.696 501.791 533.784L501.273 532.905C500.572 534.003 499.871 535.096 499.17 536.185L499.686 537.067C498.984 538.157 498.283 539.241 497.582 540.322L497.068 539.436C496.368 540.515 495.668 541.589 494.968 542.659L495.479 543.547C494.77 544.63 494.062 545.708 493.354 546.781L492.844 545.889C492.133 546.966 491.422 548.039 490.712 549.106L491.219 550.002C490.507 551.07 489.796 552.133 489.086 553.192L488.581 552.293C487.87 553.352 487.159 554.406 486.448 555.455L486.951 556.358C486.228 557.425 485.505 558.487 484.783 559.543L484.283 558.638C483.562 559.693 482.842 560.743 482.121 561.787L482.619 562.696C481.898 563.742 481.178 564.782 480.458 565.817L479.963 564.904C479.235 565.95 478.508 566.991 477.782 568.026L478.275 568.942C477.542 569.985 476.81 571.024 476.078 572.056L475.588 571.136C474.857 572.167 474.128 573.193 473.398 574.212L473.886 575.135C473.154 576.16 472.422 577.178 471.69 578.191L471.205 577.264C470.462 578.294 469.72 579.317 468.978 580.334L469.461 581.264C468.719 582.282 467.978 583.294 467.237 584.299L466.757 583.365C466.018 584.37 465.279 585.368 464.542 586.36L465.019 587.297C464.266 588.309 463.515 589.314 462.765 590.313L462.29 589.372C461.538 590.374 460.786 591.368 460.036 592.357L460.508 593.301C459.757 594.291 459.007 595.274 458.258 596.249L457.789 595.301C457.031 596.289 456.275 597.269 455.52 598.243L455.986 599.196C455.221 600.182 454.457 601.161 453.695 602.132L453.232 601.176C452.471 602.146 451.712 603.11 450.954 604.065L451.414 605.026C450.648 605.992 449.883 606.95 449.12 607.901L448.663 606.937C447.888 607.903 447.114 608.862 446.342 609.812L446.796 610.781C446.023 611.733 445.251 612.677 444.481 613.614L444.031 612.641C443.258 613.582 442.486 614.515 441.717 615.44L442.163 616.417C441.375 617.364 440.589 618.303 439.804 619.233L439.361 618.252C438.578 619.181 437.797 620.101 437.018 621.013L437.457 621.998C436.672 622.917 435.89 623.826 435.109 624.728L434.674 623.738C433.875 624.66 433.078 625.573 432.284 626.477L432.716 627.471C431.92 628.377 431.127 629.273 430.336 630.16L429.908 629.161C429.113 630.054 428.319 630.937 427.528 631.811L427.952 632.814C427.14 633.711 426.33 634.598 425.524 635.475L425.105 634.467C424.3 635.342 423.497 636.207 422.698 637.062L423.113 638.075C422.3 638.944 421.491 639.802 420.684 640.65L420.274 639.632C419.452 640.496 418.634 641.349 417.818 642.191L418.223 643.214C417.406 644.058 416.592 644.89 415.781 645.712L415.382 644.683C414.552 645.524 413.727 646.352 412.905 647.169L413.299 648.202C412.464 649.031 411.634 649.848 410.807 650.653L410.418 649.613C409.593 650.416 408.771 651.207 407.953 651.985L408.336 653.03C407.483 653.843 406.634 654.641 405.79 655.426L405.413 654.375C404.571 655.159 403.733 655.928 402.9 656.684L403.269 657.741C402.416 658.515 401.568 659.274 400.724 660.02L400.362 658.956C399.501 659.717 398.645 660.462 397.795 661.192L398.151 662.261C397.296 662.995 396.447 663.713 395.603 664.416L395.256 663.34C394.376 664.072 393.502 664.788 392.635 665.487L392.973 666.571C392.103 667.272 391.238 667.957 390.38 668.624L390.05 667.533C389.163 668.223 388.283 668.894 387.41 669.546L387.729 670.644C386.84 671.309 385.959 671.953 385.084 672.579L384.775 671.473C383.879 672.114 382.991 672.734 382.111 673.334L382.408 674.448C381.501 675.066 380.602 675.663 379.712 676.237L379.427 675.115C378.519 675.701 377.619 676.264 376.729 676.804L377 677.935C376.076 678.496 375.161 679.032 374.256 679.543L374 678.403C373.075 678.925 372.161 679.422 371.257 679.891L371.496 681.041C370.555 681.529 369.627 681.989 368.71 682.42L368.491 681.26C367.544 681.705 366.611 682.119 365.691 682.501L365.888 683.67C364.936 684.065 363.999 684.427 363.075 684.756L362.903 683.577C361.931 683.923 360.977 684.23 360.039 684.499L360.183 685.687C359.209 685.967 358.253 686.206 357.315 686.404L357.205 685.208C356.226 685.414 355.268 685.575 354.332 685.69L354.404 686.893C353.401 687.016 352.42 687.088 351.464 687.107L351.439 685.902C350.456 685.922 349.501 685.885 348.573 685.792L348.544 686.995C347.548 686.895 346.581 686.731 345.645 686.502L345.739 685.309C344.763 685.07 343.823 684.758 342.92 684.374L342.748 685.54C341.772 685.125 340.836 684.626 339.941 684.043L340.202 682.924C339.303 682.339 338.45 681.666 337.643 680.906L337.284 681.947C336.424 681.136 335.612 680.229 334.85 679.222L335.307 678.292C334.939 677.806 334.583 677.296 334.24 676.762C333.897 676.228 333.568 675.672 333.252 675.096L332.706 675.887C332.053 674.693 331.459 673.413 330.921 672.048L331.54 671.412C331.036 670.133 330.583 668.773 330.181 667.335L329.51 667.816C329.109 666.384 328.759 664.881 328.457 663.308L329.162 662.971C328.883 661.517 328.646 659.999 328.452 658.417L327.728 658.628C327.542 657.113 327.394 655.544 327.284 653.923L328.018 653.817C327.916 652.308 327.847 650.751 327.811 649.147L327.073 649.164C327.038 647.603 327.034 646 327.06 644.357L327.799 644.415C327.824 642.882 327.875 641.312 327.954 639.705L327.217 639.582C327.292 638.042 327.392 636.471 327.515 634.868L328.248 635.045C328.367 633.502 328.509 631.93 328.672 630.328L327.943 630.104C328.099 628.581 328.274 627.033 328.47 625.461L329.194 625.725C329.383 624.206 329.59 622.663 329.816 621.097L329.096 620.796C329.315 619.279 329.551 617.742 329.803 616.184L330.518 616.516C330.761 615.019 331.019 613.503 331.294 611.968L330.584 611.607C330.852 610.105 331.135 608.586 331.433 607.05L332.138 607.437C332.425 605.958 332.725 604.463 333.039 602.953L332.339 602.543C332.646 601.062 332.967 599.566 333.301 598.056L333.997 598.487C334.32 597.021 334.656 595.542 335.004 594.049L334.313 593.599C334.653 592.141 335.004 590.671 335.366 589.188L336.054 589.656C336.41 588.199 336.777 586.73 337.155 585.249L336.472 584.765C336.838 583.331 337.214 581.887 337.601 580.432L338.28 580.932C338.665 579.482 339.06 578.022 339.465 576.551L338.79 576.036C339.178 574.625 339.576 573.205 339.983 571.775L340.654 572.302C341.059 570.879 341.473 569.447 341.895 568.006L341.228 567.466C341.642 566.053 342.065 564.631 342.496 563.202L343.161 563.754C343.582 562.357 344.012 560.952 344.449 559.539L343.788 558.977C344.227 557.56 344.674 556.136 345.129 554.704L345.786 555.278C346.222 553.906 346.666 552.527 347.116 551.141L346.462 550.557C346.913 549.169 347.372 547.773 347.838 546.371L348.49 546.964C348.949 545.583 349.415 544.195 349.888 542.801L349.24 542.199C349.702 540.836 350.172 539.468 350.648 538.093L351.293 538.704C351.768 537.332 352.249 535.955 352.737 534.571L352.095 533.952C352.574 532.595 353.059 531.232 353.551 529.864L354.19 530.491C354.674 529.145 355.164 527.793 355.66 526.437L355.023 525.803C355.52 524.444 356.022 523.08 356.531 521.711L357.165 522.353C357.661 521.02 358.162 519.682 358.669 518.34L358.037 517.691C358.541 516.358 359.05 515.02 359.565 513.677L360.194 514.333C360.707 512.993 361.227 511.649 361.752 510.3L361.125 509.638C361.638 508.32 362.156 506.999 362.679 505.673L363.303 506.342C363.823 505.026 364.347 503.707 364.877 502.384L364.256 501.709C364.786 500.383 365.321 499.055 365.862 497.722L366.481 498.403C367.009 497.102 367.542 495.797 368.079 494.489L367.463 493.803C367.998 492.501 368.537 491.196 369.082 489.888L369.696 490.581C370.239 489.274 370.788 487.965 371.341 486.653L370.729 485.955C371.273 484.663 371.822 483.369 372.375 482.072L372.984 482.775C373.532 481.492 374.083 480.205 374.64 478.916L374.032 478.208C374.589 476.917 375.15 475.623 375.716 474.327L376.321 475.041C376.879 473.761 377.442 472.479 378.009 471.194L377.406 470.475C377.966 469.206 378.53 467.934 379.099 466.661L379.699 467.384C380.267 466.112 380.838 464.838 381.414 463.561L380.815 462.832C381.389 461.559 381.967 460.284 382.549 459.007L383.146 459.74C383.716 458.488 384.29 457.234 384.868 455.979L384.274 455.241C384.853 453.984 385.435 452.725 386.021 451.464L386.613 452.206C387.199 450.947 387.788 449.686 388.381 448.423L387.791 447.676C388.374 446.434 388.962 445.19 389.552 443.944L390.14 444.695C390.728 443.456 391.319 442.215 391.914 440.972L391.328 440.217C391.923 438.973 392.522 437.728 393.124 436.481L393.709 437.241C394.306 436.005 394.906 434.768 395.511 433.529L394.928 432.766C395.526 431.541 396.127 430.315 396.731 429.087L397.311 429.855C397.914 428.629 398.521 427.402 399.131 426.174L398.553 425.402C399.163 424.173 399.777 422.942 400.395 421.71L400.971 422.486C401.577 421.276 402.187 420.064 402.8 418.852L402.226 418.072C402.838 416.861 403.454 415.649 404.072 414.436L404.645 415.219C405.262 414.008 405.883 412.795 406.507 411.582L405.937 410.795C406.558 409.587 407.183 408.378 407.81 407.169L408.379 407.96C408.998 406.766 409.621 405.571 410.246 404.375L409.68 403.581C410.306 402.384 410.935 401.187 411.567 399.989L412.132 400.787C412.763 399.59 413.397 398.393 414.034 397.196L413.472 396.394C414.102 395.208 414.736 394.022 415.373 392.835L415.933 393.64C416.566 392.46 417.202 391.28 417.84 390.1L417.282 389.291C417.921 388.109 418.562 386.927 419.207 385.745L419.764 386.557C420.407 385.376 421.054 384.195 421.703 383.014L421.148 382.198C421.789 381.032 422.432 379.866 423.078 378.7L423.631 379.519C424.277 378.354 424.925 377.189 425.575 376.024L425.024 375.201C425.675 374.035 426.329 372.869 426.985 371.703L427.535 372.529C428.188 371.368 428.844 370.207 429.502 369.047L428.955 368.217C429.608 367.066 430.263 365.915 430.921 364.764L431.467 365.597C432.124 364.448 432.784 363.298 433.446 362.149L432.902 361.313C433.565 360.163 434.23 359.013 434.898 357.863L435.439 358.702C435.773 358.128 436.107 357.554 436.442 356.98C436.776 356.405 437.111 355.832 437.446 355.26L436.906 354.417C437.577 353.272 438.247 352.13 438.918 350.992L439.456 351.839C440.126 350.702 440.797 349.569 441.468 348.441L440.932 347.592C441.603 346.462 442.275 345.336 442.947 344.215L443.481 345.067C444.158 343.936 444.836 342.809 445.514 341.687L444.982 340.831C445.663 339.703 446.344 338.579 447.025 337.46L447.555 338.319C448.236 337.2 448.916 336.086 449.597 334.976L449.069 334.114C449.75 333.003 450.432 331.896 451.113 330.794L451.639 331.659C452.33 330.542 453.02 329.43 453.711 328.322L453.187 327.453C453.878 326.343 454.57 325.239 455.261 324.138L455.783 325.01C456.474 323.911 457.164 322.816 457.855 321.726L457.335 320.85C458.029 319.754 458.724 318.662 459.418 317.575L459.936 318.453C460.637 317.355 461.338 316.262 462.038 315.173L461.523 314.291C462.224 313.202 462.926 312.117 463.627 311.037L464.14 311.922C464.841 310.843 465.541 309.769 466.241 308.699L465.729 307.811C466.438 306.728 467.147 305.65 467.855 304.577L468.364 305.469C469.075 304.392 469.786 303.319 470.497 302.252L469.99 301.357C470.701 300.288 471.412 299.225 472.123 298.166L472.628 299.065C473.339 298.006 474.05 296.952 474.76 295.903L474.258 295C474.981 293.933 475.703 292.871 476.425 291.815L476.925 292.721C477.646 291.665 478.367 290.615 479.087 289.571L478.589 288.662C479.31 287.616 480.03 286.576 480.75 285.541L481.245 286.454C481.973 285.408 482.7 284.367 483.427 283.332L482.934 282.417C483.666 281.373 484.399 280.335 485.13 279.302L485.62 280.222C486.351 279.191 487.081 278.165 487.81 277.146L487.322 276.223C488.055 275.199 488.787 274.18 489.518 273.167L490.003 274.094C490.746 273.064 491.489 272.041 492.23 271.024L491.747 270.094C492.49 269.076 493.231 268.064 493.971 267.059L494.451 267.993C495.191 266.988 495.929 265.99 496.667 264.998L496.189 264.061C496.942 263.049 497.693 262.044 498.444 261.045L498.918 261.986C499.671 260.985 500.422 259.99 501.172 259.002L500.701 258.057C501.452 257.067 502.202 256.085 502.95 255.109L503.419 256.057C504.177 255.07 504.934 254.089 505.689 253.115L505.223 252.163C505.988 251.176 506.751 250.197 507.513 249.226L507.976 250.182C508.737 249.212 509.497 248.249 510.255 247.293L509.795 246.332C510.561 245.367 511.325 244.408 512.088 243.457L512.545 244.421C513.32 243.455 514.094 242.497 514.866 241.546L514.413 240.577C515.186 239.625 515.957 238.681 516.727 237.744L517.177 238.717C517.95 237.776 518.722 236.843 519.492 235.918L519.045 234.941C519.834 233.994 520.62 233.056 521.404 232.125L521.847 233.106C522.63 232.177 523.412 231.257 524.191 230.345L523.751 229.36C524.536 228.442 525.319 227.532 526.099 226.631L526.535 227.62C527.334 226.698 528.13 225.785 528.925 224.881L528.493 223.887C529.288 222.981 530.082 222.085 530.872 221.198L531.3 222.197C532.096 221.304 532.889 220.421 533.68 219.548L533.257 218.544C534.069 217.647 534.878 216.76 535.684 215.884L536.104 216.892C536.909 216.016 537.711 215.151 538.51 214.296L538.096 213.283C538.908 212.414 539.718 211.556 540.524 210.708L540.934 211.726C541.756 210.862 542.575 210.009 543.39 209.167L542.985 208.144C543.803 207.3 544.616 206.468 545.427 205.647L545.827 206.675C546.656 205.835 547.482 205.006 548.304 204.189L547.909 203.156C548.744 202.327 549.575 201.51 550.402 200.705L550.79 201.745C551.616 200.942 552.437 200.151 553.255 199.373L552.872 198.328C553.725 197.516 554.574 196.717 555.419 195.932L555.795 196.983C556.638 196.2 557.475 195.43 558.309 194.674L557.939 193.617C558.792 192.843 559.64 192.084 560.484 191.339L560.847 192.402C561.707 191.642 562.563 190.896 563.413 190.167L563.058 189.097C563.912 188.363 564.761 187.645 565.605 186.942L565.953 188.019C566.832 187.286 567.706 186.57 568.574 185.871L568.235 184.787C569.106 184.086 569.97 183.401 570.829 182.734L571.158 183.825C572.045 183.135 572.926 182.464 573.799 181.812L573.479 180.714C574.368 180.05 575.25 179.405 576.124 178.779L576.434 179.885C577.329 179.244 578.217 178.624 579.098 178.024L578.8 176.91C579.707 176.292 580.606 175.695 581.497 175.121L581.781 176.243C582.69 175.657 583.589 175.094 584.479 174.554L584.208 173.423C585.133 172.862 586.048 172.326 586.953 171.815L587.208 172.955C588.133 172.433 589.048 171.937 589.951 171.467L589.713 170.318C590.653 169.829 591.582 169.369 592.498 168.939L592.717 170.098C593.664 169.653 594.597 169.239 595.517 168.857L595.32 167.688C596.272 167.293 597.21 166.931 598.133 166.602L598.306 167.781C599.277 167.436 600.232 167.128 601.169 166.859L601.025 165.671C601.999 165.392 602.955 165.153 603.893 164.955L604.004 166.151C604.982 165.944 605.94 165.783 606.876 165.668L606.804 164.465C607.808 164.342 608.788 164.27 609.744 164.251L609.77 165.456C610.752 165.437 611.708 165.473 612.635 165.566L612.664 164.363C613.661 164.463 614.627 164.627 615.563 164.857L615.469 166.049C616.446 166.288 617.386 166.6 618.288 166.984L618.46 165.818C619.436 166.233 620.372 166.732 621.267 167.315L621.006 168.434C621.905 169.02 622.758 169.692 623.566 170.452L623.924 169.411Z" stroke="#FBD161" stroke-opacity="0.5" stroke-width="2" stroke-dasharray="4 4"/>
<path d="M716.754 496.221C718.364 498.364 719.508 500.696 720.156 503.217L718.281 503.994C718.431 504.577 718.551 505.171 718.642 505.776C718.732 506.382 718.792 506.994 718.822 507.614L720.757 507.243C720.886 509.921 720.507 512.712 719.648 515.597L717.806 515.217C717.439 516.451 716.974 517.713 716.41 519.004L718.151 519.662C717.068 522.141 715.66 524.681 713.942 527.271L712.406 526.238C711.661 527.361 710.853 528.499 709.982 529.65L711.428 530.809C709.775 532.992 707.915 535.207 705.856 537.448L704.559 536.11C703.622 537.13 702.642 538.156 701.619 539.189L702.853 540.593C700.913 542.552 698.827 544.529 696.601 546.52L695.472 545.016C694.435 545.944 693.366 546.875 692.267 547.809L693.35 549.353C691.243 551.143 689.027 552.944 686.705 554.752L685.699 553.145C684.595 554.004 683.466 554.866 682.313 555.729L683.283 557.363C681.07 559.02 678.771 560.682 676.388 562.346L675.479 560.668C674.34 561.464 673.181 562.261 672.003 563.059L672.885 564.756C670.591 566.309 668.226 567.864 665.793 569.419L664.962 567.688C663.797 568.433 662.616 569.177 661.419 569.922L662.227 571.667C659.879 573.128 657.472 574.588 655.008 576.046L654.242 574.276C653.046 574.983 651.836 575.691 650.613 576.398L651.358 578.18C648.969 579.561 646.529 580.939 644.041 582.314L643.332 580.511C642.123 581.179 640.901 581.847 639.668 582.513L640.359 584.326C637.932 585.639 635.46 586.948 632.947 588.252L632.289 586.422C631.069 587.055 629.838 587.687 628.598 588.318L629.24 590.156C626.787 591.405 624.295 592.648 621.766 593.885L621.154 592.032C619.911 592.64 618.659 593.247 617.399 593.852L617.996 595.713C615.523 596.901 613.016 598.083 610.476 599.259L609.906 597.385C608.656 597.964 607.398 598.541 606.132 599.116L606.689 600.996C604.188 602.133 601.658 603.263 599.098 604.386L598.567 602.495C597.318 603.043 596.061 603.59 594.798 604.135L595.317 606.031C592.798 607.117 590.253 608.196 587.682 609.267L587.188 607.36C585.928 607.885 584.662 608.408 583.389 608.929L583.872 610.84C581.34 611.877 578.785 612.905 576.206 613.926L575.747 612.004C574.476 612.507 573.2 613.008 571.918 613.506L572.366 615.432C569.823 616.421 567.258 617.402 564.673 618.373L564.248 616.439C562.968 616.92 561.683 617.399 560.394 617.875L560.808 619.814C558.255 620.757 555.683 621.691 553.092 622.616L552.699 620.67C551.412 621.13 550.12 621.587 548.824 622.041L549.207 623.991C546.644 624.89 544.065 625.779 541.469 626.659L541.107 624.702C539.816 625.14 538.52 625.575 537.221 626.007L537.572 627.967C535 628.824 532.411 629.67 529.808 630.506L529.477 628.539C528.185 628.954 526.888 629.367 525.588 629.777L525.909 631.747C523.325 632.562 520.727 633.366 518.116 634.16L517.815 632.184C517.164 632.381 516.512 632.579 515.859 632.775C515.207 632.972 514.554 633.167 513.903 633.362L514.193 635.341C511.58 636.121 508.975 636.882 506.381 637.627L506.111 635.641C504.806 636.015 503.503 636.385 502.203 636.751L502.463 638.739C499.844 639.475 497.237 640.193 494.641 640.893L494.402 638.899C493.091 639.253 491.783 639.601 490.477 639.946L490.706 641.943C488.082 642.635 485.47 643.308 482.872 643.963L482.664 641.961C481.349 642.292 480.038 642.619 478.731 642.94L478.927 644.946C476.295 645.593 473.677 646.222 471.074 646.831L470.899 644.82C469.584 645.128 468.273 645.431 466.966 645.729L467.13 647.742C464.49 648.343 461.866 648.925 459.259 649.486L459.118 647.468C457.804 647.751 456.494 648.029 455.189 648.302L455.318 650.322C452.67 650.876 450.041 651.409 447.43 651.92L447.325 649.895C446.013 650.152 444.707 650.404 443.405 650.65L443.499 652.678C440.843 653.181 438.208 653.661 435.596 654.12L435.528 652.088C434.217 652.318 432.913 652.543 431.614 652.761L431.67 654.796C429.01 655.244 426.374 655.669 423.763 656.071L423.735 654.033C422.413 654.236 421.099 654.434 419.791 654.625L419.805 656.666C417.148 657.055 414.519 657.419 411.919 657.759L411.933 655.714C410.608 655.887 409.29 656.054 407.98 656.214L407.951 658.261C405.286 658.587 402.653 658.887 400.054 659.16L400.116 657.109C398.802 657.248 397.496 657.379 396.2 657.503L396.122 659.555C393.452 659.812 390.819 660.04 388.225 660.239L388.338 658.184C387.021 658.285 385.714 658.379 384.418 658.465L384.286 660.521C381.618 660.699 378.994 660.845 376.416 660.96L376.588 658.901C375.268 658.96 373.96 659.011 372.664 659.053L372.471 661.113C369.802 661.2 367.184 661.253 364.621 661.27L364.86 659.21C363.554 659.219 362.262 659.219 360.984 659.21L360.719 661.27C358.051 661.251 355.445 661.193 352.905 661.095L353.226 659.036C351.921 658.986 350.634 658.926 349.365 658.855L349.014 660.912C346.361 660.764 343.784 660.57 341.288 660.331L341.708 658.279C340.407 658.154 339.129 658.017 337.874 657.868L337.415 659.916C334.776 659.602 332.235 659.234 329.797 658.811L330.347 656.776C329.075 656.556 327.832 656.321 326.619 656.07L326.017 658.096C323.414 657.559 320.942 656.954 318.609 656.282L319.336 654.287C318.105 653.933 316.916 653.559 315.768 653.167L314.966 655.138C312.443 654.276 310.109 653.324 307.975 652.281L308.965 650.388C307.84 649.838 306.776 649.264 305.774 648.667L304.666 650.496C302.355 649.118 300.342 647.609 298.644 645.967L300.046 644.363C299.163 643.508 298.377 642.622 297.688 641.706L296.114 643.115C294.504 640.973 293.36 638.641 292.712 636.119L294.587 635.343C294.437 634.759 294.316 634.165 294.226 633.56C294.136 632.954 294.076 632.342 294.046 631.722L292.111 632.093C291.982 629.415 292.361 626.625 293.22 623.739L295.062 624.119C295.429 622.885 295.894 621.623 296.457 620.333L294.717 619.675C295.8 617.196 297.208 614.656 298.926 612.065L300.462 613.098C301.207 611.975 302.015 610.837 302.886 609.686L301.44 608.527C303.092 606.344 304.953 604.129 307.012 601.888L308.309 603.226C309.246 602.206 310.226 601.18 311.249 600.147L310.015 598.743C311.955 596.784 314.041 594.807 316.267 592.816L317.396 594.32C318.433 593.393 319.502 592.461 320.601 591.527L319.517 589.984C321.624 588.193 323.841 586.392 326.163 584.585L327.169 586.192C328.273 585.332 329.402 584.47 330.555 583.607L329.584 581.973C331.797 580.316 334.097 578.655 336.479 576.99L337.389 578.668C338.528 577.872 339.687 577.075 340.865 576.277L339.983 574.58C342.277 573.027 344.642 571.472 347.075 569.917L347.906 571.648C349.071 570.903 350.252 570.159 351.449 569.414L350.64 567.669C352.988 566.208 355.396 564.748 357.86 563.29L358.625 565.061C359.822 564.353 361.031 563.645 362.255 562.938L361.509 561.156C363.899 559.775 366.339 558.397 368.827 557.022L369.536 558.825C370.745 558.157 371.967 557.489 373.199 556.823L372.508 555.01C374.936 553.697 377.408 552.388 379.921 551.084L380.579 552.914C381.799 552.281 383.03 551.649 384.27 551.018L383.628 549.18C386.081 547.932 388.573 546.688 391.101 545.451L391.714 547.305C392.956 546.696 394.208 546.089 395.469 545.484L394.872 543.623C397.345 542.435 399.852 541.253 402.392 540.078L402.962 541.951C404.212 541.372 405.47 540.795 406.736 540.22L406.179 538.34C408.68 537.203 411.21 536.073 413.77 534.95L414.301 536.841C415.55 536.293 416.806 535.746 418.069 535.202L417.551 533.305C420.07 532.219 422.615 531.14 425.186 530.069L425.68 531.976C426.94 531.451 428.206 530.929 429.478 530.408L428.996 528.496C431.528 527.459 434.083 526.431 436.662 525.411L437.121 527.332C438.392 526.829 439.668 526.328 440.95 525.83L440.502 523.904C443.045 522.915 445.609 521.935 448.194 520.963L448.62 522.897C449.9 522.416 451.185 521.937 452.474 521.461L452.06 519.523C454.613 518.579 457.185 517.645 459.776 516.72L460.169 518.666C461.456 518.207 462.748 517.749 464.044 517.295L463.661 515.345C466.224 514.446 468.803 513.557 471.399 512.677L471.761 514.634C473.052 514.197 474.347 513.762 475.647 513.329L475.295 511.369C477.868 510.513 480.456 509.666 483.059 508.83L483.39 510.797C484.683 510.382 485.98 509.969 487.28 509.559L486.959 507.589C489.543 506.774 492.141 505.97 494.752 505.176L495.052 507.153C495.704 506.955 496.356 506.758 497.008 506.561C497.661 506.364 498.313 506.169 498.965 505.975L498.675 503.995C501.288 503.216 503.892 502.454 506.487 501.71L506.757 503.695C508.062 503.321 509.365 502.951 510.665 502.585L510.405 500.597C513.023 499.861 515.631 499.143 518.227 498.443L518.466 500.437C519.777 500.084 521.085 499.735 522.39 499.391L522.162 497.394C524.786 496.701 527.398 496.028 529.996 495.373L530.204 497.375C531.518 497.044 532.83 496.717 534.137 496.396L533.94 494.391C536.573 493.743 539.191 493.115 541.794 492.505L541.969 494.516C543.284 494.208 544.595 493.905 545.902 493.607L545.738 491.595C548.378 490.993 551.002 490.411 553.609 489.85L553.75 491.868C555.064 491.585 556.374 491.307 557.679 491.034L557.549 489.014C560.198 488.46 562.827 487.928 565.437 487.416L565.543 489.441C566.855 489.184 568.161 488.932 569.463 488.686L569.369 486.659C572.025 486.156 574.66 485.675 577.272 485.216L577.34 487.248C578.65 487.018 579.955 486.794 581.254 486.575L581.198 484.54C583.858 484.092 586.494 483.667 589.105 483.265L589.133 485.303C590.454 485.1 591.769 484.903 593.077 484.711L593.063 482.67C595.72 482.281 598.349 481.917 600.949 481.577L600.935 483.622C602.26 483.449 603.578 483.282 604.888 483.122L604.917 481.075C607.582 480.749 610.214 480.45 612.814 480.176L612.752 482.227C614.066 482.089 615.371 481.957 616.668 481.833L616.746 479.781C619.416 479.524 622.049 479.296 624.643 479.097L624.529 481.152C625.847 481.051 627.154 480.957 628.45 480.871L628.582 478.815C631.249 478.637 633.873 478.491 636.452 478.376L636.28 480.435C637.6 480.376 638.908 480.325 640.204 480.283L640.397 478.223C643.066 478.136 645.684 478.084 648.247 478.066L648.007 480.126C649.314 480.117 650.606 480.117 651.884 480.126L652.149 478.066C654.817 478.085 657.422 478.143 659.963 478.241L659.642 480.3C660.947 480.35 662.234 480.411 663.502 480.482L663.854 478.424C666.507 478.572 669.084 478.766 671.58 479.005L671.16 481.058C672.461 481.182 673.739 481.319 674.994 481.468L675.453 479.42C678.092 479.734 680.633 480.102 683.07 480.525L682.521 482.56C683.793 482.78 685.036 483.016 686.249 483.266L686.851 481.241C689.454 481.777 691.926 482.382 694.259 483.055L693.532 485.049C694.763 485.404 695.952 485.777 697.099 486.169L697.902 484.198C700.425 485.06 702.759 486.012 704.893 487.055L703.902 488.948C705.028 489.498 706.092 490.072 707.094 490.669L708.202 488.84C710.512 490.218 712.526 491.728 714.224 493.369L712.821 494.974C713.705 495.828 714.491 496.714 715.179 497.63L716.754 496.221Z" stroke="#FBD161" stroke-width="4" stroke-dasharray="4 8"/>
<path d="M707.839 652.995C708.025 653.603 708.163 654.215 708.251 654.833L707.255 655.108C707.381 655.988 707.396 656.876 707.301 657.772C707.206 658.668 707.001 659.564 706.686 660.462L707.631 660.662C707.411 661.292 707.142 661.92 706.824 662.547L705.938 662.209C705.134 663.798 703.986 665.404 702.491 667.02L703.186 667.632C702.724 668.133 702.231 668.632 701.708 669.13L701.068 668.463C699.696 669.77 698.106 671.077 696.3 672.38L696.812 673.155C696.261 673.553 695.691 673.95 695.103 674.345L694.625 673.547C693.01 674.633 691.25 675.712 689.349 676.785L689.747 677.633C689.138 677.976 688.515 678.319 687.879 678.66L687.504 677.8C685.771 678.729 683.933 679.652 681.994 680.566L682.315 681.454C681.703 681.743 681.081 682.03 680.45 682.317L680.145 681.422C678.337 682.243 676.447 683.058 674.478 683.864L674.743 684.777C674.103 685.039 673.455 685.3 672.799 685.561L672.546 684.643C670.696 685.378 668.782 686.105 666.803 686.825L667.025 687.754C666.384 687.987 665.736 688.22 665.081 688.452L664.869 687.519C662.981 688.188 661.038 688.85 659.043 689.504L659.23 690.445C658.598 690.653 657.96 690.859 657.317 691.065L657.137 690.122C655.229 690.734 653.274 691.339 651.274 691.937L651.433 692.887C650.793 693.078 650.148 693.269 649.499 693.459L649.346 692.507C647.422 693.071 645.459 693.627 643.456 694.178L643.591 695.134C642.946 695.311 642.297 695.488 641.645 695.664L641.515 694.705C639.58 695.227 637.609 695.742 635.605 696.25L635.719 697.212C635.071 697.377 634.421 697.54 633.766 697.703L633.657 696.74C631.712 697.224 629.735 697.702 627.728 698.174L627.823 699.141C627.175 699.294 626.524 699.445 625.87 699.597L625.779 698.629C623.824 699.08 621.841 699.526 619.831 699.966L619.91 700.936C619.262 701.078 618.611 701.219 617.957 701.36L617.883 700.388C615.926 700.809 613.945 701.223 611.939 701.632L612.002 702.606C611.348 702.74 610.691 702.872 610.031 703.004L609.972 702.03C608.019 702.421 606.044 702.806 604.047 703.186L604.097 704.163C603.431 704.29 602.762 704.416 602.092 704.541L602.046 703.564C600.098 703.928 598.131 704.286 596.144 704.639L596.18 705.618C595.517 705.736 594.851 705.853 594.184 705.97L594.15 704.99C592.194 705.331 590.22 705.667 588.228 705.998L588.252 706.979C587.592 707.088 586.93 707.197 586.266 707.305L586.245 706.324C584.28 706.644 582.298 706.959 580.299 707.268L580.312 708.251C579.655 708.353 578.997 708.454 578.337 708.554L578.326 707.571C576.352 707.871 574.363 708.166 572.358 708.455L572.36 709.44C571.706 709.534 571.051 709.628 570.394 709.721L570.395 708.736C568.427 709.015 566.445 709.289 564.449 709.557L564.441 710.543C563.775 710.632 563.108 710.721 562.44 710.809L562.45 709.823C560.492 710.081 558.521 710.334 556.537 710.582L556.52 711.569C555.858 711.651 555.194 711.734 554.529 711.815L554.549 710.827C552.582 711.068 550.602 711.304 548.611 711.535L548.584 712.523C547.926 712.599 547.267 712.675 546.606 712.75L546.635 711.761C544.659 711.985 542.671 712.204 540.672 712.417L540.636 713.407C539.981 713.477 539.326 713.546 538.668 713.615L538.707 712.625C536.738 712.831 534.758 713.032 532.769 713.228L532.724 714.218C532.06 714.283 531.395 714.348 530.729 714.412L530.776 713.421C528.814 713.61 526.842 713.794 524.861 713.972L524.807 714.963C524.147 715.022 523.487 715.081 522.825 715.139L522.88 714.148C520.908 714.321 518.928 714.489 516.939 714.652L516.877 715.644C516.221 715.697 515.563 715.75 514.905 715.803L514.969 714.811C512.996 714.968 511.016 715.12 509.027 715.267L508.957 716.259C508.297 716.308 507.636 716.356 506.973 716.404L507.045 715.411C505.083 715.552 503.113 715.688 501.135 715.818L501.058 716.811C500.398 716.855 499.738 716.898 499.076 716.94L499.156 715.947C497.188 716.073 495.212 716.194 493.231 716.309L493.145 717.303C492.489 717.341 491.832 717.379 491.174 717.416L491.261 716.422C489.29 716.533 487.312 716.639 485.328 716.739L485.235 717.733C484.578 717.766 483.92 717.799 483.261 717.831L483.356 716.837C481.394 716.933 479.426 717.023 477.453 717.108L477.352 718.102C476.693 718.131 476.034 718.158 475.375 718.186L475.478 717.191C474.489 717.232 473.499 717.271 472.508 717.309C471.517 717.347 470.527 717.384 469.539 717.419L469.431 718.414C468.772 718.437 468.113 718.46 467.455 718.482L467.566 717.487C465.594 717.554 463.63 717.614 461.672 717.669L461.556 718.664C460.899 718.682 460.242 718.7 459.586 718.717L459.704 717.722C457.726 717.774 455.754 717.819 453.79 717.859L453.667 718.854C453.011 718.867 452.357 718.88 451.703 718.892L451.829 717.897C449.856 717.933 447.89 717.964 445.933 717.988L445.801 718.983C445.144 718.992 444.487 718.999 443.831 719.006L443.964 718.011C441.999 718.032 440.042 718.047 438.093 718.056L437.954 719.051C437.296 719.054 436.64 719.056 435.984 719.058L436.126 718.063C434.152 718.068 432.188 718.067 430.233 718.061L430.085 719.056C429.433 719.054 428.782 719.051 428.131 719.047L428.281 718.052C426.31 718.041 424.349 718.024 422.398 718.001L422.243 718.997C421.588 718.989 420.934 718.981 420.281 718.972L420.439 717.977C418.48 717.949 416.531 717.916 414.592 717.877L414.428 718.872C413.771 718.859 413.114 718.845 412.459 718.83L412.625 717.836C410.661 717.792 408.708 717.742 406.767 717.685L406.594 718.68C405.947 718.661 405.3 718.642 404.655 718.622L404.83 717.627C402.86 717.566 400.903 717.498 398.958 717.425L398.777 718.419C398.127 718.394 397.478 718.369 396.83 718.343L397.014 717.349C395.056 717.27 393.11 717.185 391.178 717.093L390.988 718.087C390.335 718.056 389.684 718.025 389.034 717.992L389.227 716.998C387.28 716.901 385.346 716.798 383.427 716.689L383.227 717.682C382.572 717.645 381.918 717.607 381.267 717.568L381.469 716.574C379.514 716.458 377.574 716.335 375.65 716.205L375.44 717.198C374.797 717.155 374.157 717.111 373.518 717.066L373.73 716.073C371.771 715.936 369.828 715.792 367.902 715.641L367.681 716.633C367.037 716.583 366.395 716.532 365.754 716.48L365.977 715.488C364.029 715.33 362.097 715.165 360.184 714.994L359.953 715.985C359.307 715.927 358.663 715.868 358.021 715.809L358.255 714.818C356.317 714.638 354.398 714.451 352.499 714.258L352.256 715.248C351.608 715.182 350.962 715.115 350.318 715.047L350.564 714.058C348.636 713.855 346.729 713.645 344.843 713.428L344.588 714.417C343.939 714.342 343.292 714.266 342.648 714.19L342.906 713.202C340.974 712.972 339.065 712.736 337.18 712.492L336.912 713.479C336.275 713.397 335.641 713.313 335.009 713.229L335.281 712.243C333.346 711.985 331.437 711.719 329.554 711.446L329.272 712.431C328.643 712.34 328.017 712.248 327.394 712.155L327.68 711.17C325.748 710.882 323.844 710.585 321.969 710.28L321.671 711.263C321.043 711.161 320.419 711.058 319.798 710.955L320.1 709.972C318.178 709.651 316.287 709.321 314.429 708.983L314.113 709.962C313.489 709.849 312.867 709.734 312.25 709.618L312.57 708.639C310.658 708.281 308.781 707.913 306.941 707.537L306.606 708.513C305.985 708.386 305.369 708.258 304.756 708.129L305.096 707.154C303.195 706.754 301.334 706.344 299.515 705.924L299.158 706.896C298.544 706.754 297.934 706.611 297.33 706.468L297.693 705.498C295.804 705.049 293.962 704.589 292.169 704.119L291.786 705.084C291.182 704.926 290.583 704.767 289.99 704.606L290.379 703.643C288.507 703.137 286.69 702.619 284.93 702.091L284.516 703.047C283.906 702.864 283.302 702.679 282.705 702.493L283.127 701.539C281.286 700.966 279.511 700.38 277.803 699.783L277.352 700.727C276.746 700.515 276.149 700.301 275.559 700.086L276.021 699.146C274.208 698.484 272.477 697.809 270.829 697.12L270.33 698.046C269.755 697.805 269.19 697.563 268.635 697.32L269.147 696.4C267.388 695.627 265.732 694.838 264.183 694.035L263.622 694.931C263.053 694.636 262.498 694.339 261.957 694.039L262.539 693.154C260.851 692.219 259.307 691.266 257.911 690.296L257.259 691.137C256.75 690.784 256.261 690.428 255.79 690.069L256.471 689.248C254.929 688.074 253.604 686.879 252.5 685.666L251.712 686.389C251.292 685.927 250.901 685.461 250.541 684.992L251.373 684.321C250.211 682.807 249.396 681.277 248.924 679.736L247.959 680.145C247.773 679.538 247.635 678.925 247.547 678.308L248.543 678.033C248.417 677.152 248.402 676.264 248.497 675.368C248.592 674.472 248.797 673.576 249.112 672.678L248.167 672.478C248.387 671.849 248.656 671.22 248.974 670.593L249.86 670.932C250.664 669.342 251.812 667.736 253.307 666.12L252.612 665.508C253.075 665.007 253.567 664.508 254.09 664.01L254.731 664.678C256.102 663.37 257.693 662.063 259.498 660.76L258.986 659.985C259.538 659.587 260.107 659.191 260.695 658.795L261.174 659.593C262.788 658.508 264.548 657.428 266.449 656.356L266.052 655.507C266.66 655.164 267.283 654.822 267.919 654.48L268.295 655.341C270.027 654.411 271.865 653.489 273.804 652.574L273.483 651.686C274.095 651.398 274.717 651.11 275.348 650.823L275.653 651.718C277.461 650.897 279.351 650.082 281.32 649.276L281.055 648.363C281.695 648.101 282.343 647.84 282.999 647.58L283.252 648.497C285.102 647.763 287.017 647.035 288.995 646.316L288.773 645.387C289.414 645.153 290.062 644.921 290.717 644.689L290.929 645.621C292.817 644.952 294.76 644.291 296.755 643.636L296.568 642.695C297.2 642.488 297.838 642.281 298.481 642.075L298.661 643.018C300.569 642.406 302.524 641.801 304.524 641.203L304.365 640.253C305.005 640.062 305.65 639.871 306.299 639.681L306.452 640.633C308.376 640.07 310.339 639.513 312.342 638.963L312.207 638.006C312.852 637.829 313.501 637.652 314.153 637.477L314.283 638.435C316.218 637.914 318.189 637.399 320.193 636.89L320.079 635.928C320.727 635.764 321.377 635.6 322.032 635.437L322.141 636.401C324.086 635.916 326.063 635.438 328.07 634.966L327.975 633.999C328.623 633.847 329.274 633.695 329.928 633.544L330.019 634.512C331.974 634.06 333.957 633.614 335.967 633.175L335.888 632.204C336.536 632.062 337.187 631.921 337.841 631.781L337.915 632.752C339.872 632.332 341.854 631.917 343.859 631.508L343.796 630.534C344.45 630.401 345.107 630.268 345.767 630.136L345.827 631.11C347.779 630.719 349.754 630.334 351.751 629.954L351.701 628.977C352.367 628.851 353.036 628.725 353.706 628.599L353.752 629.577C355.7 629.213 357.667 628.854 359.654 628.501L359.618 627.522C360.281 627.404 360.947 627.287 361.614 627.171L361.648 628.15C363.604 627.809 365.578 627.473 367.57 627.142L367.546 626.161C368.206 626.052 368.868 625.943 369.532 625.835L369.553 626.816C371.518 626.496 373.501 626.181 375.499 625.872L375.486 624.889C376.143 624.787 376.801 624.686 377.461 624.586L377.472 625.569C379.446 625.269 381.436 624.974 383.44 624.685L383.438 623.7C384.092 623.606 384.747 623.512 385.404 623.419L385.403 624.404C387.371 624.125 389.353 623.852 391.349 623.584L391.357 622.598C392.023 622.508 392.69 622.419 393.358 622.331L393.348 623.318C395.306 623.059 397.277 622.806 399.261 622.559L399.278 621.571C399.941 621.489 400.604 621.407 401.269 621.325L401.249 622.313C403.216 622.072 405.196 621.836 407.187 621.606L407.214 620.617C407.872 620.541 408.532 620.466 409.192 620.391L409.163 621.379C411.14 621.155 413.127 620.936 415.126 620.723L415.162 619.733C415.817 619.663 416.473 619.594 417.13 619.525L417.091 620.515C419.06 620.309 421.04 620.108 423.029 619.913L423.074 618.922C423.738 618.857 424.403 618.792 425.069 618.728L425.022 619.719C426.984 619.53 428.956 619.347 430.937 619.169L430.991 618.177C431.651 618.118 432.312 618.059 432.973 618.001L432.918 618.992C434.89 618.819 436.87 618.651 438.86 618.488L438.921 617.497C439.577 617.443 440.235 617.39 440.893 617.337L440.829 618.329C442.802 618.172 444.782 618.02 446.771 617.873L446.841 616.881C447.501 616.832 448.162 616.784 448.825 616.736L448.753 617.729C450.715 617.588 452.685 617.452 454.663 617.322L454.74 616.329C455.4 616.285 456.061 616.242 456.722 616.2L456.642 617.193C458.61 617.067 460.586 616.946 462.567 616.831L462.653 615.837C463.309 615.799 463.966 615.762 464.624 615.725L464.537 616.718C466.508 616.607 468.486 616.501 470.47 616.401L470.563 615.407C471.22 615.374 471.879 615.341 472.537 615.309L472.442 616.303C474.404 616.207 476.372 616.117 478.345 616.032L478.446 615.038C479.105 615.01 479.764 614.982 480.423 614.955L480.321 615.949C481.309 615.908 482.299 615.869 483.29 615.831C484.281 615.793 485.271 615.756 486.259 615.721L486.367 614.727C487.026 614.703 487.685 614.68 488.343 614.658L488.232 615.653C490.204 615.587 492.168 615.526 494.126 615.471L494.242 614.477C494.899 614.458 495.556 614.44 496.212 614.423L496.094 615.418C498.072 615.367 500.044 615.321 502.008 615.281L502.131 614.286C502.787 614.273 503.441 614.26 504.095 614.248L503.969 615.243C505.942 615.207 507.908 615.176 509.865 615.152L509.997 614.157C510.655 614.149 511.311 614.141 511.967 614.134L511.834 615.129C513.799 615.108 515.756 615.093 517.705 615.084L517.844 614.089C518.502 614.086 519.158 614.084 519.814 614.082L519.672 615.077C521.646 615.072 523.61 615.073 525.565 615.08L525.713 614.084C526.365 614.087 527.016 614.09 527.667 614.093L527.517 615.088C529.488 615.099 531.449 615.116 533.4 615.139L533.555 614.144C534.21 614.151 534.864 614.16 535.517 614.169L535.359 615.164C537.318 615.191 539.267 615.224 541.206 615.263L541.37 614.268C542.027 614.281 542.684 614.295 543.339 614.31L543.173 615.305C545.137 615.349 547.09 615.399 549.031 615.455L549.204 614.46C549.851 614.479 550.498 614.498 551.143 614.518L550.968 615.513C552.938 615.574 554.895 615.642 556.84 615.716L557.021 614.721C557.671 614.746 558.32 614.771 558.968 614.797L558.784 615.792C560.742 615.87 562.688 615.956 564.62 616.047L564.81 615.053C565.463 615.084 566.114 615.116 566.764 615.148L566.571 616.142C568.518 616.239 570.452 616.342 572.371 616.452L572.571 615.458C573.226 615.495 573.88 615.534 574.531 615.572L574.329 616.566C576.284 616.682 578.224 616.806 580.148 616.935L580.358 615.942C581.001 615.986 581.641 616.03 582.28 616.074L582.068 617.067C584.027 617.204 585.97 617.348 587.896 617.499L588.117 616.507C588.761 616.557 589.403 616.608 590.044 616.66L589.821 617.652C591.77 617.81 593.701 617.975 595.614 618.147L595.845 617.155C596.491 617.213 597.135 617.272 597.777 617.331L597.543 618.322C599.481 618.502 601.4 618.689 603.299 618.882L603.542 617.892C604.19 617.958 604.836 618.025 605.48 618.093L605.234 619.083C607.162 619.285 609.069 619.495 610.955 619.712L611.21 618.724C611.859 618.798 612.506 618.874 613.15 618.95L612.892 619.939C614.824 620.168 616.733 620.404 618.618 620.648L618.886 619.661C619.523 619.744 620.157 619.827 620.789 619.911L620.517 620.898C622.452 621.155 624.361 621.421 626.244 621.694L626.526 620.709C627.155 620.8 627.781 620.892 628.405 620.985L628.118 621.97C630.051 622.258 631.954 622.555 633.829 622.86L634.127 621.877C634.755 621.979 635.379 622.082 636 622.186L635.698 623.168C637.62 623.489 639.511 623.819 641.369 624.158L641.685 623.178C642.31 623.292 642.931 623.406 643.548 623.522L643.228 624.501C645.14 624.859 647.017 625.227 648.857 625.603L649.192 624.627C649.813 624.754 650.429 624.882 651.042 625.011L650.702 625.986C652.603 626.386 654.464 626.796 656.283 627.216L656.64 626.245C657.254 626.386 657.864 626.529 658.468 626.673L658.105 627.643C659.994 628.092 661.836 628.551 663.63 629.021L664.012 628.056C664.616 628.214 665.215 628.373 665.809 628.534L665.419 629.497C667.291 630.003 669.108 630.521 670.869 631.05L671.282 630.093C671.892 630.277 672.496 630.461 673.093 630.647L672.671 631.601C674.512 632.174 676.287 632.76 677.995 633.358L678.446 632.413C679.052 632.625 679.649 632.839 680.239 633.054L679.777 633.994C681.59 634.656 683.321 635.331 684.969 636.02L685.468 635.094C686.043 635.335 686.608 635.577 687.163 635.821L686.651 636.741C688.41 637.513 690.066 638.302 691.615 639.105L692.177 638.209C692.745 638.504 693.3 638.801 693.841 639.101L693.259 639.986C694.947 640.921 696.491 641.874 697.887 642.845L698.539 642.003C699.048 642.356 699.537 642.712 700.008 643.071L699.327 643.892C700.869 645.066 702.194 646.261 703.298 647.474L704.086 646.752C704.506 647.214 704.897 647.679 705.257 648.148L704.425 648.819C705.587 650.333 706.402 651.863 706.874 653.404L707.839 652.995Z" stroke="#FBD161" stroke-width="2" stroke-dasharray="6 2"/>
<ellipse cx="132.821" cy="132.784" rx="132.821" ry="132.784" transform="matrix(0.987228 -0.159315 0.158868 0.9873 316.055 402.28)" fill="url(#paint0_radial_2659_25959)"/>
<g filter="url(#filter0_d_2659_25959)">
<rect x="238.777" y="604.083" width="83.0284" height="83.0284" rx="41.5142" transform="rotate(46.2022 238.777 604.083)" fill="url(#paint1_radial_2659_25959)" shape-rendering="crispEdges"/>
<rect x="238.733" y="606.204" width="80.0284" height="80.0284" rx="40.0142" transform="rotate(46.2022 238.733 606.204)" stroke="white" stroke-width="3" shape-rendering="crispEdges"/>
</g>
<rect x="239.72" y="568.07" width="133.68" height="133.68" rx="66.8402" transform="rotate(46.2022 239.72 568.07)" stroke="#FDDC2D" stroke-width="2"/>
<path fill-rule="evenodd" clip-rule="evenodd" d="M214.657 630.752C179.25 608.511 146.704 600.675 136.584 613.63C124.37 629.266 149.453 669.269 192.608 702.981C235.764 736.692 280.65 751.345 292.864 735.709C301.025 725.26 292.534 703.932 273.125 680.871L272.401 681.565C277.241 687.319 281.393 692.96 284.768 698.343C289.801 706.37 293.076 713.775 294.351 720.09C295.628 726.409 294.881 731.501 292.076 735.093C289.27 738.685 284.51 740.642 278.07 740.933C271.634 741.224 263.656 739.84 254.649 736.899C236.643 731.021 214.735 718.996 193.224 702.193C171.713 685.389 154.742 667.043 144.68 650.996C139.647 642.968 136.372 635.563 135.097 629.249C133.82 622.929 134.567 617.837 137.372 614.245C140.178 610.654 144.938 608.696 151.379 608.405C157.815 608.114 165.792 609.499 174.799 612.439C186.57 616.282 200.008 622.751 213.913 631.465L214.657 630.752Z" fill="#FDDC2D"/>
<path fill-rule="evenodd" clip-rule="evenodd" d="M220.342 621.761C205.896 605.814 191.803 597.941 182.626 602.5C166.831 610.345 171.581 652.047 193.236 695.642C214.89 739.237 245.249 768.218 261.045 760.372C273.586 754.142 273.175 726.572 261.636 693.657L260.049 695.179C264.106 706.92 266.714 717.923 267.797 727.433C268.742 735.727 268.514 742.774 267.157 748.149C265.797 753.534 263.383 756.977 260.155 758.581C256.927 760.184 252.725 760.027 247.613 757.857C242.509 755.691 236.756 751.614 230.718 745.851C218.655 734.335 205.779 716.398 195.027 694.752C184.275 673.107 177.762 652.008 175.874 635.438C174.93 627.145 175.157 620.098 176.514 614.722C177.874 609.337 180.288 605.894 183.516 604.291C186.744 602.687 190.947 602.844 196.059 605.014C201.162 607.18 206.915 611.257 212.953 617.021C214.917 618.896 216.903 620.942 218.898 623.146L220.342 621.761Z" fill="#FDDC2D"/>
<circle cx="275.512" cy="737.867" r="7.02548" transform="rotate(46.2022 275.512 737.867)" fill="#FDDC2D"/>
<circle cx="189.313" cy="583.379" r="3.1934" transform="rotate(46.2022 189.313 583.379)" fill="#FDDC2D"/>
<circle cx="178.458" cy="584.055" r="10.9962" transform="rotate(46.2022 178.458 584.055)" stroke="#FDDC2D"/>
<rect x="240.555" y="562.366" width="141.768" height="141.768" rx="70.8841" transform="rotate(46.2022 240.555 562.366)" stroke="#FDDC2D" stroke-dasharray="1 1"/>
<circle cx="321.623" cy="657.89" r="5.0627" transform="rotate(46.2022 321.623 657.89)" fill="#FDDC2D"/>
<circle cx="154.674" cy="662.264" r="5.0627" transform="rotate(46.2022 154.674 662.264)" fill="#FDDC2D"/>
<rect x="716.727" y="316.104" width="60.0187" height="60.0187" rx="30.0093" transform="rotate(-91.1668 716.727 316.104)" fill="url(#paint2_radial_2659_25959)" stroke="white" stroke-width="3"/>
<rect x="696.454" y="337.014" width="100.982" height="100.982" rx="50.4908" transform="rotate(-91.1668 696.454 337.014)" stroke="#FDDC2D" stroke-width="2"/>
<circle cx="763.516" cy="224.043" r="5.33235" transform="rotate(-91.1668 763.516 224.043)" fill="#FDDC2D"/>
<circle cx="732.237" cy="354.623" r="2.42379" transform="rotate(-91.1668 732.237 354.623)" fill="#FDDC2D"/>
<circle cx="738.646" cy="359.826" r="8.22566" transform="rotate(-91.1668 738.646 359.826)" stroke="#FDDC2D"/>
<rect x="692.939" y="339.893" width="107.361" height="107.361" rx="53.6807" transform="rotate(-91.1668 692.939 339.893)" stroke="#FDDC2D" stroke-dasharray="1 1"/>
<circle cx="696.654" cy="245.001" r="3.8426" transform="rotate(-91.1668 696.654 245.001)" fill="#FDDC2D"/>
<circle cx="792.131" cy="328.379" r="3.8426" transform="rotate(-91.1668 792.131 328.379)" fill="#FDDC2D"/>
<rect x="284.511" y="299.187" width="33.2523" height="33.2523" rx="16.6262" transform="rotate(46.2022 284.511 299.187)" fill="url(#paint3_radial_2659_25959)" stroke="white"/>
<circle cx="299.682" cy="353.671" r="2.89827" transform="rotate(46.2022 299.682 353.671)" fill="#FDDC2D"/>
<circle cx="264.121" cy="289.939" r="1.3174" transform="rotate(46.2022 264.121 289.939)" fill="#FDDC2D"/>
<circle cx="318.704" cy="320.678" r="2.08856" transform="rotate(46.2022 318.704 320.678)" fill="#FDDC2D"/>
<circle cx="246.168" cy="322.405" r="4.67955" transform="rotate(46.2022 246.168 322.405)" fill="#FDDC2D"/>
<defs>
<filter id="filter0_d_2659_25959" x="191.031" y="610.266" width="93.0293" height="94.0285" filterUnits="userSpaceOnUse" color-interpolation-filters="sRGB">
<feFlood flood-opacity="0" result="BackgroundImageFix"/>
<feColorMatrix in="SourceAlpha" type="matrix" values="0 0 0 0 0 0 0 0 0 0 0 0 0 0 0 0 0 0 127 0" result="hardAlpha"/>
<feOffset dy="-6"/>
<feGaussianBlur stdDeviation="2.5"/>
<feComposite in2="hardAlpha" operator="out"/>
<feColorMatrix type="matrix" values="0 0 0 0 0.94902 0 0 0 0 0.847059 0 0 0 0 0.380392 0 0 0 1 0"/>
<feBlend mode="normal" in2="BackgroundImageFix" result="effect1_dropShadow_2659_25959"/>
<feBlend mode="normal" in="SourceGraphic" in2="effect1_dropShadow_2659_25959" result="shape"/>
</filter>
<radialGradient id="paint0_radial_2659_25959" cx="0" cy="0" r="1" gradientUnits="userSpaceOnUse" gradientTransform="translate(132.821 132.784) rotate(90) scale(132.784 132.821)">
<stop stop-color="#FBD161"/>
<stop offset="1" stop-color="#FBD161" stop-opacity="0"/>
</radialGradient>
<radialGradient id="paint1_radial_2659_25959" cx="0" cy="0" r="1" gradientUnits="userSpaceOnUse" gradientTransform="translate(280.292 645.597) rotate(90) scale(41.5142)">
<stop stop-color="#FFF761"/>
<stop offset="1" stop-color="#FFF761" stop-opacity="0"/>
</radialGradient>
<radialGradient id="paint2_radial_2659_25959" cx="0" cy="0" r="1" gradientUnits="userSpaceOnUse" gradientTransform="translate(746.767 349.144) rotate(90) scale(31.5093)">
<stop stop-color="#FFF761"/>
<stop offset="1" stop-color="#FFF761" stop-opacity="0"/>
</radialGradient>
<radialGradient id="paint3_radial_2659_25959" cx="0" cy="0" r="1" gradientUnits="userSpaceOnUse" gradientTransform="translate(301.652 315.607) rotate(90) scale(17.1262)">
<stop stop-color="#FFF761"/>
<stop offset="1" stop-color="#FFF761" stop-opacity="0"/>
</radialGradient>
</defs>
</svg>
