<svg width="22" height="22" viewBox="0 0 22 22" fill="none" xmlns="http://www.w3.org/2000/svg">
<path fill-rule="evenodd" clip-rule="evenodd" d="M7.24027 1.39408C4.99197 2.23271 3.11229 3.82783 1.9108 5.86986C2.03659 7.19793 2.7315 8.74159 4.26712 10.0347C4.48123 10.215 4.76241 10.4049 5.1079 10.6239C5.23398 10.7038 5.37109 10.7891 5.51496 10.8786C5.75032 11.025 6.00377 11.1827 6.25664 11.3465C7.08754 11.8847 8.02207 12.5568 8.8551 13.4747C10.3925 15.1687 11.5295 17.6397 11.2019 21.5128C13.4841 21.4412 15.5807 20.6335 17.2621 19.3193C16.6677 18.776 16.0952 18.1416 15.6049 17.4477C14.3484 15.6693 13.5453 13.3715 14.4497 11.1105C15.1138 9.45027 16.2155 8.02424 17.1285 6.84256L17.1285 6.84254L17.1285 6.84252C17.378 6.51952 17.6135 6.21478 17.822 5.92851C18.282 5.29699 18.5962 4.77921 18.7277 4.33499C16.8229 2.13439 14.0092 0.742188 10.8703 0.742188C10.0867 0.742188 9.32338 0.828953 8.58939 0.993396C8.2247 1.55461 7.88793 2.30108 7.73207 3.19527C7.4576 4.76999 7.73974 6.83455 9.49616 9.17696C9.88475 8.90306 10.3587 8.74219 10.8703 8.74219C12.1891 8.74219 13.2582 9.81128 13.2582 11.1301C13.2582 12.4489 12.1891 13.518 10.8703 13.518C9.55152 13.518 8.48242 12.4489 8.48242 11.1301C8.48242 10.5619 8.68085 10.0401 9.01219 9.63015L8.74069 9.83602C6.79236 7.26659 6.41911 4.90432 6.74692 3.02356C6.85115 2.42558 7.02582 1.87939 7.24027 1.39408ZM19.4333 5.24754C19.2219 5.67176 18.9369 6.09645 18.6303 6.5173C18.3918 6.84468 18.135 7.17761 17.8713 7.51948L17.8713 7.51952C16.9685 8.69 15.9848 9.96532 15.3782 11.4819C14.6531 13.2947 15.2599 15.2264 16.4216 16.8706C16.9003 17.5481 17.4585 18.1549 18.0252 18.6611C20.0166 16.7685 21.2582 14.0943 21.2582 11.1301C21.2582 8.94632 20.5844 6.91995 19.4333 5.24754ZM10.1996 21.4967C10.5251 17.8409 9.46019 15.6294 8.11459 14.1468C7.36645 13.3224 6.51484 12.7052 5.71301 12.1858C5.46395 12.0245 5.22968 11.8788 5.00267 11.7377L5.00265 11.7376C4.85694 11.647 4.71423 11.5583 4.57253 11.4685C4.22316 11.247 3.89263 11.0267 3.62299 10.7997C2.37493 9.74866 1.59506 8.52606 1.20165 7.32443C0.737419 8.50292 0.482422 9.78672 0.482422 11.1301C0.482422 16.6418 4.77511 21.151 10.1996 21.4967Z" fill="#B1B1B1"/>
</svg>
