<svg width="168" height="92" viewBox="0 0 168 92" fill="none" xmlns="http://www.w3.org/2000/svg">
<circle cx="75.7141" cy="64.7141" r="26.7141" fill="url(#paint0_radial_1025_33507)"/>
<path d="M1.37803 24V6.72H5.98603V9.864H4.52203V20.856H5.98603V24H1.37803ZM21.8114 24L16.6034 17.784H20.7554L25.2674 23.112V24H21.8114ZM8.03541 24V6.744H21.9554C22.5634 6.744 23.1234 6.896 23.6354 7.2C24.1474 7.504 24.5554 7.912 24.8594 8.424C25.1634 8.92 25.3154 9.472 25.3154 10.08V14.736C25.3154 15.344 25.1634 15.904 24.8594 16.416C24.5554 16.928 24.1474 17.336 23.6354 17.64C23.1234 17.928 22.5634 18.072 21.9554 18.072L11.2034 18.096V24H8.03541ZM11.4914 14.88H21.8114C21.8914 14.88 21.9634 14.856 22.0274 14.808C22.0914 14.76 22.1234 14.696 22.1234 14.616V10.2C22.1234 10.12 22.0914 10.056 22.0274 10.008C21.9634 9.944 21.8914 9.912 21.8114 9.912H11.4914C11.4114 9.912 11.3394 9.944 11.2754 10.008C11.2274 10.056 11.2034 10.12 11.2034 10.2V14.616C11.2034 14.696 11.2274 14.76 11.2754 14.808C11.3394 14.856 11.4114 14.88 11.4914 14.88ZM27.8881 24V6.72H43.8001V9.912H31.0801V13.752H41.3041V16.968H31.0801V20.808H43.8001V24H27.8881ZM46.2631 24V6.72H60.1831C60.7911 6.72 61.3511 6.872 61.8631 7.176C62.3751 7.48 62.7831 7.888 63.0871 8.4C63.3911 8.896 63.5431 9.448 63.5431 10.056V20.664C63.5431 21.272 63.3911 21.832 63.0871 22.344C62.7831 22.84 62.3751 23.24 61.8631 23.544C61.3511 23.848 60.7911 24 60.1831 24H46.2631ZM49.6951 20.808H60.0391C60.1191 20.808 60.1911 20.784 60.2551 20.736C60.3191 20.672 60.3511 20.6 60.3511 20.52V10.2C60.3511 10.12 60.3191 10.056 60.2551 10.008C60.1911 9.944 60.1191 9.912 60.0391 9.912H49.6951C49.6151 9.912 49.5431 9.944 49.4791 10.008C49.4311 10.056 49.4071 10.12 49.4071 10.2V20.52C49.4071 20.6 49.4311 20.672 49.4791 20.736C49.5431 20.784 49.6151 20.808 49.6951 20.808ZM66.2787 24V10.056C66.2787 9.448 66.4307 8.896 66.7347 8.4C67.0387 7.888 67.4387 7.48 67.9347 7.176C68.4467 6.872 69.0067 6.72 69.6147 6.72H80.1987C80.8067 6.72 81.3667 6.872 81.8787 7.176C82.3907 7.48 82.7987 7.888 83.1027 8.4C83.4067 8.896 83.5587 9.448 83.5587 10.056V24H80.3667V18.192H69.4467V24H66.2787ZM69.4467 15.024H80.3667V10.2C80.3667 10.12 80.3347 10.056 80.2707 10.008C80.2067 9.944 80.1347 9.912 80.0547 9.912H69.7347C69.6547 9.912 69.5827 9.944 69.5187 10.008C69.4707 10.056 69.4467 10.12 69.4467 10.2V15.024ZM89.6292 24C89.0212 24 88.4612 23.848 87.9492 23.544C87.4532 23.24 87.0532 22.84 86.7492 22.344C86.4452 21.832 86.2932 21.272 86.2932 20.664V10.056C86.2932 9.448 86.4452 8.896 86.7492 8.4C87.0532 7.888 87.4532 7.48 87.9492 7.176C88.4612 6.872 89.0212 6.72 89.6292 6.72H103.525V9.912H90.3012C90.0452 9.912 89.8372 9.984 89.6772 10.128C89.5332 10.272 89.4612 10.48 89.4612 10.752V19.968C89.4612 20.224 89.5332 20.432 89.6772 20.592C89.8372 20.736 90.0452 20.808 90.3012 20.808H103.525V24H89.6292ZM112.22 24V9.912H105.164V6.72H122.444V9.912H115.412V24H112.22ZM124.287 24V6.72H140.199V9.912H127.479V13.752H137.703V16.968H127.479V20.808H140.199V24H124.287ZM142.662 24V6.72H156.582C157.19 6.72 157.75 6.872 158.262 7.176C158.774 7.48 159.182 7.888 159.486 8.4C159.79 8.896 159.942 9.448 159.942 10.056V20.664C159.942 21.272 159.79 21.832 159.486 22.344C159.182 22.84 158.774 23.24 158.262 23.544C157.75 23.848 157.19 24 156.582 24H142.662ZM146.094 20.808H156.438C156.518 20.808 156.59 20.784 156.654 20.736C156.718 20.672 156.75 20.6 156.75 20.52V10.2C156.75 10.12 156.718 10.056 156.654 10.008C156.59 9.944 156.518 9.912 156.438 9.912H146.094C146.014 9.912 145.942 9.944 145.878 10.008C145.83 10.056 145.806 10.12 145.806 10.2V20.52C145.806 20.6 145.83 20.672 145.878 20.736C145.942 20.784 146.014 20.808 146.094 20.808ZM162.509 24V20.856H163.949V9.864H162.509V6.72H167.117V24H162.509Z" fill="#B1B1B1"/>
<defs>
<radialGradient id="paint0_radial_1025_33507" cx="0" cy="0" r="1" gradientUnits="userSpaceOnUse" gradientTransform="translate(75.7141 64.7141) rotate(45) scale(37.7794)">
<stop stop-color="#FBD161"/>
<stop offset="0.453125" stop-color="#FFAD29"/>
<stop offset="1" stop-color="#F79A4A"/>
</radialGradient>
</defs>
</svg>
