<svg width="563" height="373" viewBox="0 0 563 373" fill="none" xmlns="http://www.w3.org/2000/svg">
<path d="M554.676 243.046C554.579 242.992 554.47 242.942 554.37 242.896C554.333 242.832 554.248 242.793 554.102 242.763C553.955 242.695 553.815 242.612 553.667 242.544C551.39 241.288 549.006 240.264 546.579 239.334C546.571 239.33 546.571 239.33 546.563 239.327C545.533 238.729 544.503 238.151 543.454 237.593C543.434 237.575 543.407 237.553 543.387 237.534C545.499 238.028 547.618 238.526 549.726 239.027C548.827 238.472 547.92 237.932 546.998 237.404C548.126 237.586 549.251 237.775 550.375 237.945C550.382 237.93 550.378 237.918 550.382 237.911C550.416 237.917 550.447 237.932 550.482 237.938C550.652 237.875 550.67 237.611 550.496 237.541C547.306 236.146 544.125 234.689 540.923 233.299C534.759 228.551 527.82 224.733 520.301 222.988C519.535 222.691 518.859 222.446 518.242 222.236C517.954 222.066 517.651 221.908 517.296 221.781C516.516 221.394 515.632 220.968 514.678 220.51C509.685 216.931 505.222 214.63 498.517 211.484C498.409 211.434 498.297 211.392 498.188 211.342C496.295 210.272 494.369 209.272 492.347 208.462C487.048 206.302 479.668 203.766 476.091 202.334C473.998 201.106 471.887 199.898 469.798 198.682C466.135 196.581 462.374 194.65 458.531 192.898C454.306 190.548 449.995 188.364 445.509 186.541C444.157 185.927 442.794 185.337 441.428 184.754C432.448 180.165 423.16 175.979 413.577 172.738C407.081 169.058 400.451 165.627 393.631 162.569C389.802 160.889 386.004 159.12 382.143 157.51C381.074 156.811 379.901 156.299 378.697 155.894C377.232 154.834 375.756 153.797 374.218 152.853C372.978 152.16 371.724 151.497 370.459 150.858C365.584 147.738 361.782 145.488 354.794 141.958C347.065 138.058 339.059 134.801 331.006 131.625C327.927 130.151 324.803 128.776 321.547 127.727C321.42 127.697 321.286 127.682 321.164 127.663C309.782 119.6 296.951 113.481 283.917 108.555C274.69 103.035 265.527 97.3939 255.844 92.6783C245.125 87.0719 230.209 80.114 223.164 75.5053C222.382 75.0416 221.493 74.8294 220.611 74.8269C218.811 73.6779 217.188 72.695 215.969 71.9359C210.057 68.5166 203.962 65.4543 197.781 62.5589C195.245 60.6201 192.277 59.1304 189.538 57.6333C176.505 50.7071 162.81 45.1382 149.209 39.4441C145.778 38.0416 142.355 36.6236 138.913 35.2634C137.273 34.6858 135.094 33.6442 132.995 33.2033C129.498 31.864 125.472 32.6489 121.897 34.496C120.628 34.4562 119.354 34.4892 118.08 34.6443C116.426 34.6244 114.848 35.5413 114.098 36.9243C114.064 36.9368 114.034 36.9416 114.008 36.9577C112.876 37.3946 111.891 38.3308 111.3 39.449C110.733 40.2116 110.391 41.0967 110.283 42.024C106.796 40.295 102.732 43.8336 104.665 47.4675C104.71 47.5539 104.769 47.6283 104.817 47.7069C105.4 49.9294 107.727 51.0769 109.56 52.1752C111.007 53.011 112.476 53.8194 113.948 54.62C118.642 58.6432 124.178 63.9375 128.659 67.7307C125.827 67.0269 122.956 66.4273 120.159 65.6269C119.908 65.5585 119.666 65.4938 119.416 65.4254C117.4 64.8444 115.367 64.3021 113.328 63.8135C112.151 63.5151 110.977 63.228 109.789 62.9718C107.013 59.3343 101.076 58.4773 98.6309 57.952C97.818 57.8405 96.9479 57.7308 96.0516 57.6371C95.8174 57.595 95.5832 57.5528 95.3526 57.5029C94.5041 54.7163 88.2026 54.1612 84.7641 54.0798C84.0013 53.9819 83.2528 53.9752 82.533 54.1509C82.1809 54.2423 81.8658 54.4164 81.5864 54.6353C81.4607 54.6431 81.3308 54.6397 81.2015 54.6552C81.1026 54.666 81.021 54.7411 81.0014 54.8448C81.0235 54.9396 81.0646 55.0337 81.0981 55.1243C80.5217 55.8451 80.2744 56.8303 80.5579 57.7031C80.3066 57.9631 80.1102 58.2671 79.987 58.5955C79.0038 58.6497 78.02 58.6849 77.0367 58.7391C77.0332 58.7469 77.0409 58.7505 77.0373 58.7582C76.7257 58.8025 76.4511 58.9296 76.2546 59.2336C76.0277 59.5424 76.0447 59.9542 76.2153 60.2771C74.8111 60.8983 73.4523 61.6249 72.1256 62.404C69.5224 63.9758 66.9945 65.7513 64.6525 67.7347C61.8708 69.694 59.2728 71.907 56.5823 73.974C56.1188 74.2866 55.7728 74.6908 55.527 75.1224C51.2348 77.3627 46.9712 79.663 42.821 82.166C41.4384 82.985 40.0957 83.86 38.7895 84.7988C38.2403 85.1751 37.1907 85.9034 37.6082 86.5467C37.0411 86.8396 36.4859 87.1475 35.939 87.4779C35.2993 88.0099 34.9929 88.6954 34.9355 89.4111C34.8098 89.4189 34.6918 89.4303 34.566 89.4381C34.1996 89.4384 33.8217 89.4427 33.441 89.474C32.5191 89.5377 31.9226 90.4653 32.0333 91.3055C31.4089 91.3559 30.7844 91.4063 30.1676 91.4603C29.9317 91.4831 29.8687 91.7829 30.0106 91.9235C29.7472 91.9242 29.4838 91.925 29.2282 91.9293C29.9106 92.1404 30.5925 92.3325 31.2743 92.5246C30.6118 92.8205 29.9499 93.1356 29.2887 93.4697C29.039 93.5425 28.7858 93.6231 28.5362 93.696C28.6506 93.6923 28.7614 93.6965 28.8681 93.6892C28.2563 94.018 27.6409 94.3544 27.0345 94.7326C28.99 94.2809 30.9641 93.9317 32.9483 93.6623C40.8719 97.2009 49.4783 98.5645 58.097 99.5956C58.6006 99.7055 59.112 99.819 59.612 99.9367C59.8159 99.9837 60.0155 100.019 60.2193 100.066C60.4218 100.789 60.6886 101.494 61.0007 102.183C60.6399 102.721 60.2791 103.26 59.9338 103.805C57.6416 107.352 55.9671 111.353 55.2295 115.522C54.0301 116.821 53.0167 118.204 52.24 119.706C50.8901 122.513 50.5655 125.746 51.208 128.776C50.6578 129.48 50.0998 130.181 49.5222 130.864C48.9517 131.531 48.3699 132.203 47.7923 132.885C46.2473 134.24 44.5022 135.785 42.388 137.845C40.653 139.347 39.2545 141.587 38.9651 143.886C38.6221 144.264 38.2868 144.645 37.979 145.048C36.9261 146.272 36.2774 147.599 36.0094 148.894C35.5214 148.913 35.0393 149.001 34.5716 149.18C32.1528 150.189 31.1441 150.4 30.9123 150.434C30.8515 150.444 30.7949 150.465 30.7341 150.474C30.6163 150.73 30.4871 150.99 30.3199 151.251C29.3459 152.794 28.5882 154.418 27.6292 155.949C27.534 156.196 27.4423 156.436 27.3471 156.683C27.8949 156.86 28.4039 157.02 28.7865 157.168C32.2311 158.52 35.9315 159.154 39.3142 160.6C39.3297 160.608 39.3375 160.611 39.353 160.618C39.9411 160.626 40.5293 160.634 41.1211 160.634C41.3576 160.631 41.5906 160.635 41.8272 160.631C42.3208 160.905 42.8769 161.105 43.5027 161.215C44.5325 161.427 45.5802 161.477 46.6302 161.482C48.0422 161.945 49.4702 162.312 50.919 162.613C51.3284 163.478 51.9683 164.271 52.8023 164.928C56.5529 167.736 61.5652 166.889 65.9551 167.597C66.8628 167.686 67.7633 167.791 68.6673 167.889C71.8301 169.261 76.0542 169.799 79.093 170.156C79.1299 171.075 79.6441 171.998 80.5198 172.401C81.3662 172.848 82.2858 172.952 83.2237 172.915C83.3407 173.232 83.4881 173.544 83.6653 173.832C83.8423 173.876 84.0151 173.909 84.1844 173.949C87.2857 174.354 90.3182 175.113 93.3358 176.006C97.9851 176.945 102.635 177.904 107.333 178.453C109.598 178.717 111.662 179.537 113.942 179.667C115.517 179.754 117.098 179.769 118.678 179.848C122.674 180.065 126.705 180.879 130.675 181.375C133.473 181.725 136.438 182.02 139.177 182.7C142.383 183.491 145.9 183.299 149.239 184.189C155.103 185.754 158.256 185.883 163.23 186.343C165.559 185.509 168.335 186.375 170.135 188.219C174.773 188.571 179.392 189.047 184.01 189.587C196.013 192.121 208.073 194.39 220.16 196.456C222.215 197.459 224.722 197.769 226.938 197.813C227.979 197.898 229.021 198.002 230.055 198.103C230.484 198.17 230.91 198.244 231.34 198.31C231.416 198.655 231.522 198.976 231.645 199.259C235.461 199.439 239.246 199.99 242.99 200.776C243.584 200.852 244.182 200.94 244.773 201.024C247.655 201.131 250.514 201.349 253.381 201.731C255.08 201.96 256.811 202.24 258.539 202.586C267.268 203.358 277.126 204.331 285.146 207.904C285.977 207.977 286.808 208.05 287.642 208.134C292.157 209.04 296.669 209.992 301.175 210.978C304.317 210.275 308.154 211.714 311.265 211.936C315.857 212.267 320.287 212.072 324.879 212.789C325.266 212.845 325.65 212.909 326.042 212.977C330.208 213.028 334.687 214.011 338.291 214.61C339.83 214.859 341.006 215.467 341.856 216.272C346.43 216.886 351.019 217.835 355.483 218.483C355.959 218.552 356.453 218.62 356.952 218.681C357.803 218.096 358.76 217.673 359.774 217.511C362.311 217.102 365.465 217.841 367.822 219.453C369.88 219.941 371.903 220.648 373.951 221.056C374.251 221.119 374.55 221.163 374.857 221.211C380.96 221.524 387.068 222.234 392.985 223.439C400.705 224.526 408.743 225.552 416.043 227.855C416.197 227.907 416.352 227.959 416.503 228.019C416.978 228.069 417.453 228.119 417.928 228.169C421.638 228.761 425.34 229.433 429.028 230.174C429.922 230.417 430.768 230.394 431.548 230.19C432.887 230.506 434.218 230.818 435.564 231.119C437.546 230.896 439.603 231.242 441.639 231.655C445.217 232.392 447.554 232.173 451.705 232.686C458.596 233.531 464.966 233.733 471.606 233.983C475.588 234.128 480.063 234.283 483.979 235.063C484.582 235.181 485.144 235.327 485.687 235.474C486.365 235.43 487.082 235.403 487.249 235.386C488.406 235.281 489.618 235.322 490.778 235.312C492.125 235.304 493.473 235.295 494.819 235.37C495.635 235.455 496.447 235.529 497.261 235.575C498.714 235.643 499.016 235.783 498.179 235.989C498.956 235.934 499.723 236.043 500.444 236.272C500.946 236.305 501.439 236.335 501.922 236.408C502.275 236.458 502.513 236.492 502.655 236.511C503.121 236.396 503.594 236.267 504.081 236.228C506.948 235.981 510.006 236.337 512.826 236.782C512.949 236.801 513.083 236.816 513.213 236.838C514.354 236.81 515.502 236.766 516.651 236.656C517.18 236.609 517.684 236.616 518.156 236.673C518.128 236.51 518.096 236.355 518.037 236.196C520.116 236.619 522.209 237.01 524.287 237.413C526.687 237.955 529.076 238.54 531.506 238.955C534.274 240.023 537.098 240.949 540.016 241.608C544.729 242.737 549.598 243.139 554.331 244.08C554.765 244.036 555.023 243.394 554.676 243.046ZM34.3338 93.6526C34.7384 93.6511 35.1472 93.661 35.5518 93.6596C36.006 93.7749 36.4488 93.8944 36.9066 94.002C36.0406 93.9036 35.189 93.7742 34.3338 93.6526ZM75.8661 75.2037C75.7106 75.2354 75.5438 75.2712 75.3883 75.3029C75.6986 75.0983 76.0131 74.9051 76.3277 74.7118C76.5886 74.6348 76.8383 74.5619 77.0957 74.4927C76.6793 74.7235 76.2748 74.9693 75.8661 75.2037ZM148.719 64.198C149.138 64.4099 149.557 64.6218 149.976 64.8337C149.957 64.9565 149.953 65.0864 149.942 65.2127C149.534 64.8745 149.127 64.5362 148.719 64.198Z" fill="#EBD85B"/>
<path d="M554.509 245.835C551.3 243.849 547.94 242.15 544.5 240.603C544.439 240.49 544.375 240.385 544.295 240.273C543.603 239.287 542.412 238.917 541.365 238.397C542.643 237.661 543.133 235.782 542.215 234.533C541.909 234.157 541.53 233.879 541.121 233.644L541.129 233.628C541.086 233.618 541.048 233.6 541.005 233.59C539.945 233.036 538.655 232.798 537.593 232.29C532.801 230.599 527.951 229.097 523.077 227.706C519.223 226.427 515.368 225.149 511.507 223.905C509.647 223.293 507.777 222.703 505.907 222.114C505.347 221.311 504.622 220.62 503.784 220.055C498.063 216.404 491.882 213.284 485.278 211.612C483.923 211.269 482.551 210.985 481.176 210.727C475.682 207.707 469.971 205.075 464.106 202.899C460.325 201.523 456.51 200.281 452.656 199.144C444.431 194.894 436.021 190.962 427.256 187.966C426.714 187.613 426.165 187.275 425.647 186.933C419.31 183.111 412.4 180.369 405.583 177.528C400.137 175.178 394.604 173.098 388.996 171.2C384.118 168.942 379.146 166.867 374.112 164.989C373.437 164.64 372.762 164.311 372.105 163.961C368.831 162.443 365.439 161.18 362.055 159.941C353.859 155.262 342.163 148.839 336.352 149.91C336.221 149.849 336.092 149.78 335.961 149.72C335.477 149.14 334.966 148.576 334.48 148.041C330.133 143.774 324.615 140.846 319.357 137.841C311.608 134.27 303.315 131.942 295.053 129.892C292.675 129.426 290.285 129.048 287.888 128.704C285.535 127.958 283.233 127.245 280.644 126.362C277.254 125.176 273.882 123.931 270.52 122.664C264.736 119.905 258.834 117.402 252.865 115.045C236.848 108.745 220.728 102.707 204.641 96.5999C190.588 91.3363 176.655 85.733 162.242 81.4964C155.712 79.6429 149.125 78.0355 142.575 76.2666C141.997 76.1132 141.428 75.9634 140.85 75.81C140.311 74.7162 139.418 73.7597 138.38 73.1591C137.901 72.8728 137.419 72.6132 136.93 72.3501C136.61 72.1465 136.287 71.9506 135.953 71.759C131.51 67.598 125.324 66.1191 119.83 63.8126C115.907 62.4373 111.859 61.4362 107.747 60.8189C106.761 60.5335 104.196 59.8402 103.554 59.685C102.689 59.3995 101.804 59.1796 100.88 59.2892C100.88 59.2892 100.88 59.2892 100.869 59.2933C99.4366 58.9152 98.005 58.5561 96.5591 58.2281C94.7508 57.7894 92.9622 57.247 91.0868 57.2189C91.0409 57.2166 90.995 57.2142 90.9569 57.2154C89.3302 56.4846 87.7737 55.5607 86.0869 54.9807C84.8836 54.5953 83.8588 55.0249 82.9308 55.734C82.2121 55.5813 81.491 55.5966 80.8358 55.9993C80.5367 56.1997 80.3767 56.5675 80.4108 56.9214C79.9963 57.2095 79.6449 57.5643 79.3561 57.9667C79.0243 58.2178 78.7587 58.5087 78.5557 58.8473C76.83 59.7994 75.4312 61.5505 73.9308 62.7474C73.2149 63.4039 71.8129 64.571 69.7728 66.0828C64.9902 68.3883 60.3698 70.9941 56.068 74.1317C54.6397 75.1927 53.1916 76.2353 51.7758 77.3302C50.5428 78.1712 49.4021 79.0359 48.414 79.8958C45.7271 80.8748 43.0401 81.8537 40.3567 82.8248C38.3977 83.5286 36.4352 84.2401 34.5133 85.0267C33.6792 85.3281 32.9752 85.8774 32.4476 86.5737C29.7203 86.8858 27.3108 87.5887 26.3375 89.2727C25.2551 90.7655 25.4315 92.8291 26.4109 94.3326C27.4696 95.929 29.3887 96.3718 31.1938 96.4708C33.0263 96.5919 34.8582 96.6939 36.6918 96.7309C40.8139 96.9394 44.8891 96.5156 48.9588 95.9202C50.72 96.3184 52.4811 96.7166 54.215 97.2149C54.9075 97.3838 56.4297 97.8316 58.365 98.4227C63.9611 102.119 70.7897 103.284 77.2623 104.773C79.535 105.651 81.8006 106.545 84.0626 107.446C86.615 108.472 89.3809 109.972 92.1847 109.066C92.3962 108.994 92.5952 108.888 92.7906 108.791C96.2546 109.795 99.6025 110.868 103.328 112.181C104.448 112.687 105.589 113.166 106.741 113.603C109.202 114.418 111.815 116.27 114.462 115.339C115.164 115.099 115.755 114.694 116.227 114.179C116.911 114.55 117.602 114.925 118.286 115.297C120.065 116.248 122.048 117.387 124.135 116.996C124.633 116.935 125.092 116.817 125.498 116.648C126.063 116.87 126.631 117.085 127.173 117.316C135.343 120.339 143.705 122.783 152.102 125.111C153.083 125.47 154.068 125.82 155.045 126.167C155.158 126.858 155.461 127.505 155.978 128.015C156.605 128.896 157.722 129.082 158.68 129.43C160.9 130.199 163.183 130.706 165.469 131.252C169.369 132.166 173.287 133.042 177.186 133.937C179.392 134.389 181.584 134.892 183.766 135.418C193.7 138.549 203.124 141.521 213.306 144.625C219.028 146.397 224.78 148.042 230.522 149.749C233.504 150.456 236.605 151.819 239.708 151.915C240.148 152.062 240.599 152.204 241.062 152.361C242.15 153.303 243.654 153.687 244.963 154.271C247.513 155.221 250.122 155.981 252.724 156.758C254.369 157.469 256.007 158.195 257.645 158.922C258.265 159.208 258.91 159.317 259.587 159.253C259.598 159.249 259.61 159.245 259.629 159.244C262.532 160.366 265.427 161.484 268.344 162.574C270.751 163.467 273.761 164.253 274.853 164.616C277.459 165.525 280.054 166.825 282.881 166.643C283.416 166.645 283.95 166.525 284.455 166.325C286.027 166.89 287.782 167.567 290.019 168.523C292.976 169.792 295.927 171.114 298.694 172.774C300.133 173.832 301.515 175.032 303.306 175.407C305.283 175.886 307.453 174.95 308.438 173.178C308.881 173.278 309.327 173.39 309.776 173.475C312.33 174.05 315.252 174.824 318.389 175.743C323.939 177.887 329.467 180.059 334.994 182.277C335.971 182.643 336.938 183.032 337.926 183.375C338.189 183.477 338.729 183.651 339.134 183.771C340.046 184.116 341.016 184.376 341.966 183.986C342.067 183.949 342.161 183.889 342.259 183.84C345.948 185.333 349.574 186.985 353.267 188.452C355.367 189.194 357.69 190.922 359.892 189.57C360.434 189.331 360.876 188.962 361.229 188.523C364.823 190.142 368.428 191.737 372.194 192.881C373.194 193.219 374.225 193.121 375.148 192.729C379.942 194.619 384.75 196.459 389.565 198.283C389.688 198.443 389.886 198.544 390.125 198.597C390.363 198.876 391.04 198.916 391.927 199.334C393.349 199.877 394.779 200.404 396.212 200.942C401.563 202.929 406.956 204.822 412.37 206.631C424.018 210.467 434.105 213.387 445.531 216.36C448.552 217.348 451.582 218.293 454.63 219.181C460.968 221.003 462.537 221.697 469.705 223.694C472.276 224.353 474.915 224.865 477.573 224.662C477.734 224.679 477.895 224.697 478.059 224.688C478.266 224.708 478.468 224.698 478.673 224.68C481.151 225.277 483.629 225.874 486.11 226.463C486.394 226.519 486.658 226.415 486.847 226.229C488.258 227.02 489.654 227.843 491.051 228.665C492.515 229.424 493.892 230.716 495.627 230.642C496.193 230.696 496.74 230.61 497.254 230.433C502.314 232.398 507.44 234.159 512.741 235.437C512.783 235.447 512.826 235.457 512.86 235.464C514.486 235.912 516.121 236.318 517.767 236.682C518.386 236.723 518.951 236.843 519.465 237.033C520.798 237.299 522.131 237.547 523.477 237.745C524.204 238.042 524.92 238.344 525.651 238.634C526.978 239.198 528.317 239.759 529.645 240.324C532.041 240.526 534.482 241.04 536.909 241.726C538.137 241.954 539.359 242.198 540.53 242.409C541.893 242.652 543.244 242.983 544.563 243.403C544.613 243.294 544.659 243.174 544.701 243.062C548.045 243.899 551.334 244.794 554.509 245.835Z" fill="#F3EE92"/>
<path d="M175.655 188.207C154.533 184.524 133.407 180.849 112.286 177.166C109.495 176.678 106.563 176.943 103.78 176.459C124.902 180.142 146.028 183.818 167.15 187.501C169.952 187.984 172.872 187.723 175.655 188.207Z" fill="black"/>
<path d="M288.276 206.678C275.76 204.584 263.229 202.643 250.67 200.848C248.131 200.486 244.462 200.477 242.471 200.189C254.927 201.965 267.362 203.89 279.77 205.972C282.576 206.448 285.493 206.213 288.276 206.678Z" fill="black"/>
<path d="M515.526 236.692C499.031 235.546 482.537 234.399 466.043 233.252C464.424 233.136 467.419 233.426 467.564 233.437C469.502 233.615 471.442 233.767 473.382 233.9C489.876 235.047 506.37 236.194 522.865 237.34C524.483 237.457 521.489 237.167 521.343 237.156C519.402 236.985 517.466 236.825 515.526 236.692Z" fill="black"/>
<path d="M420.031 228.17C383.081 221.243 345.754 216.152 308.601 210.398C306.076 210.005 302.382 210.05 300.403 209.739C337.449 215.481 374.679 220.556 411.526 227.464C414.318 227.99 417.266 227.648 420.031 228.17Z" fill="black"/>
<path d="M547.222 242.035C547.307 242.055 547.368 242.065 547.43 242.074C549.389 242.818 551.43 243.363 553.472 243.825C551.522 242.307 549.264 241.295 546.91 240.491C543.968 238.863 540.822 237.536 537.555 236.613C537.466 236.562 537.384 236.515 537.298 236.457C534.266 234.74 531.039 233.507 527.706 232.563C527.395 232.382 527.084 232.201 526.769 232.028C526.778 230.726 526.247 229.41 525.207 228.508C522.363 226.362 518.839 225.283 515.641 223.762C510.547 221.668 505.38 219.71 500.155 217.941C500.147 217.937 500.139 217.934 500.139 217.934C489.207 211.994 478.28 205.86 466.396 202.028C466.163 201.902 465.922 201.772 465.689 201.646C459.504 198.617 453.954 193.514 446.856 192.873C444.841 192.781 442.685 192.811 440.826 193.665C440.729 193.611 440.628 193.564 440.543 193.506C436.303 191.167 432.085 188.782 427.871 186.408C422.456 183.48 417.167 180.32 411.54 177.792C404.418 174.389 397.289 170.859 389.576 169.005C384.092 167.408 378.48 166.316 372.805 165.664C370.057 163.271 366.553 161.374 363.958 159.746C357.166 155.649 350.196 151.836 343.06 148.36C320.803 137.417 297.069 129.881 273.495 122.344C267.977 120.619 262.439 118.734 256.656 118.154C256.143 118.125 255.638 118.08 255.118 118.047C254.874 117.963 254.632 117.898 254.385 117.822C244.898 113.009 235.446 108.118 225.648 103.978C214.592 99.4287 202.992 96.4692 191.295 94.1045C190.595 93.3404 189.858 92.6156 189.1 91.9373C183.06 86.7583 175.41 84.154 167.891 81.9387C161.326 80.1627 154.274 78.7076 147.124 77.4045C142.404 75.2108 137.561 73.3264 132.636 71.6585C132.283 71.3452 131.874 71.091 131.447 70.8755L131.454 70.86C131.431 70.8493 131.396 70.8428 131.373 70.8321C130.4 70.3553 129.309 70.0503 128.323 69.6427C124.638 68.3017 120.989 66.8642 117.265 65.6275C115.903 65.1784 114.528 64.7985 113.139 64.4495C110.319 63.291 107.354 62.5073 104.373 61.8006C102.344 60.8841 100.139 60.4695 97.9329 60.1198C96.8584 59.108 95.2658 58.4868 93.8307 58.2577C93.5148 58.1685 93.1876 58.0835 92.8681 58.002C93.3489 57.876 93.7308 57.6386 93.7501 57.0462C93.7521 56.5117 93.4183 56.2169 92.9319 56.0492L92.9355 56.0414C92.9277 56.0379 92.9164 56.042 92.9086 56.0385C92.3341 55.8583 91.5588 55.8486 90.8193 55.8836C90.4748 55.8564 90.1381 55.8328 89.7901 55.8133C87.9594 55.7495 85.8252 55.2639 84.252 56.3333C82.755 56.1977 81.3494 56.5365 80.4785 58.0798C80.3398 58.2789 80.2243 58.4887 80.1285 58.717C77.9459 58.9889 75.7776 59.4741 73.6446 59.9849C65.1558 61.9541 56.8697 66.093 51.02 72.6509C50.3353 73.5661 49.8746 74.4435 49.6146 75.2726C48.0532 75.9904 46.5281 76.772 45.0848 77.7227C42.5823 79.2188 39.7898 82.1595 39.2695 85.0012C38.6603 85.7726 38.3659 86.7173 38.3582 87.672C37.8476 87.8219 37.3459 88.0134 36.8861 88.3182C34.0512 90.0463 33.9002 94.6552 36.8772 96.3088C38.1321 97.2347 39.8322 97.1538 41.3061 97.523C43.8736 97.9452 46.4831 98.0109 49.0784 98.1077C54.7856 99.3003 60.4048 100.969 66.0466 102.385C82.1489 106.564 98.3629 110.297 114.617 113.86C114.731 113.94 114.84 114.028 114.969 114.097C116.229 114.95 117.842 115.017 119.249 115.553C121.981 116.248 124.724 116.882 127.482 117.44C129.983 118.047 132.484 118.655 134.978 119.278C136.516 119.752 137.935 120.18 139.118 120.528C140.118 120.782 141.115 121.025 142.115 121.261C150.207 123.74 157.834 126.25 167.657 128.991C173.262 130.588 178.895 132.084 184.529 133.6C192.833 136.496 201.254 139.851 210.329 144.296C212.668 145.317 214.794 147.227 217.485 146.992C218.594 146.911 219.6 146.379 220.362 145.602C220.984 146.697 222.031 147.565 223.407 147.861C242.16 153.994 264.482 157.356 282.523 162.119C287.271 164.354 291.969 166.697 296.656 169.044C300.597 170.767 310.109 176.851 315.978 177.732C317.309 178.289 318.78 178.544 320.15 179.016C323.826 179.949 327.501 180.862 331.196 181.692C335.953 182.785 340.03 183.743 343.822 184.729C347.901 186.214 352.245 187.774 355.961 188.904C361.401 190.819 366.921 192.583 372.174 194.985C373.209 195.471 374.256 195.522 375.222 195.281C381.25 197.429 387.345 199.411 393.564 200.962C393.638 201.963 394.027 202.932 394.787 203.667C397.388 206.341 401.628 205.927 405.041 206.655C406.594 206.853 408.133 207.102 409.668 207.378C410.194 207.807 410.798 208.208 411.492 208.537C413.622 209.481 415.944 209.64 418.224 209.892C419.267 210.034 420.31 210.177 421.348 210.308C421.209 210.263 421.067 210.225 420.928 210.18C420.97 210.19 421.013 210.2 421.055 210.21C421.163 210.241 421.267 210.28 421.367 210.307C421.402 210.314 421.448 210.316 421.482 210.323C426.52 211.724 438.256 216.878 443.206 214.903C443.955 215.07 444.705 215.237 445.455 215.404C453.123 217.885 460.747 220.506 468.394 223.053C474.219 224.826 480.031 226.893 486.094 227.639C487.549 227.906 488.912 227.416 489.918 226.517C491.482 227.445 493.035 228.376 494.61 229.28C498.722 231.467 503.072 233.18 507.419 234.836C509.199 235.581 510.998 236.306 512.742 237.128C513.66 237.561 514.584 238.146 515.634 238.048C517.308 238.208 519.016 237.192 519.848 235.734C521.588 236.301 523.401 236.77 524.981 235.582C525.052 235.53 525.111 235.463 525.186 235.403C525.744 235.538 526.298 235.681 526.853 235.843C530.896 237.894 535.997 240.301 538.724 240.947C542.057 241.91 545.503 243.056 548.951 243.32C548.066 242.856 547.183 242.365 546.305 241.866C546.612 241.913 546.908 241.984 547.222 242.035Z" fill="#F1EEAF"/>
<path d="M422.13 210.527C421.876 210.448 421.621 210.368 421.359 210.285C421.351 210.281 421.34 210.285 421.332 210.282C421.594 210.365 421.864 210.452 422.13 210.527Z" fill="#F1EEAF"/>
</svg>
